<svg xmlns="http://www.w3.org/2000/svg" viewBox="0 0 100 100">
  <defs>
    <linearGradient id="grad1" x1="0%" y1="0%" x2="100%" y2="100%">
      <stop offset="0%" style="stop-color:#ec4899"/>
      <stop offset="100%" style="stop-color:#8b5cf6"/>
    </linearGradient>
  </defs>

  <!-- Background -->
  <rect width="100" height="100" rx="20" fill="#1e293b"/>

  <!-- Bricks -->
  <rect x="10" y="15" width="18" height="8" rx="2" fill="#ef4444"/>
  <rect x="30" y="15" width="18" height="8" rx="2" fill="#f59e0b"/>
  <rect x="50" y="15" width="18" height="8" rx="2" fill="#10b981"/>
  <rect x="70" y="15" width="18" height="8" rx="2" fill="#3b82f6"/>

  <rect x="10" y="26" width="18" height="8" rx="2" fill="#f59e0b"/>
  <rect x="30" y="26" width="18" height="8" rx="2" fill="#10b981"/>
  <rect x="50" y="26" width="18" height="8" rx="2" fill="#3b82f6"/>
  <rect x="70" y="26" width="18" height="8" rx="2" fill="#ec4899"/>

  <rect x="10" y="37" width="18" height="8" rx="2" fill="#10b981"/>
  <rect x="30" y="37" width="18" height="8" rx="2" fill="#3b82f6"/>
  <rect x="50" y="37" width="18" height="8" rx="2" fill="#ec4899"/>
  <rect x="70" y="37" width="18" height="8" rx="2" fill="#8b5cf6"/>

  <!-- Ball -->
  <circle cx="50" cy="60" r="6" fill="white"/>

  <!-- Paddle -->
  <rect x="30" y="80" width="40" height="8" rx="4" fill="url(#grad1)"/>
</svg>
