<svg width="103.2" height="168.2" preserveAspectRatio="none" version="1.1" viewBox="0 0 103.2 168.2" xmlns="http://www.w3.org/2000/svg">
 <path transform="translate(160.15,84.1)" d="m-146.85-76.901c-4.6667 0-7 2.3333-7 7v139.8c0 4.6667 2.3333 7 7 7h76.6c4.6667 0 7-2.3333 7-7v-139.8c0-4.6667-2.3333-7-7-7z" fill="#fff" stroke="#000" stroke-width="1.2"/>
 <path d="m91.25 55.9c-0.66471 0.0348-1.1473 0.40104-1.4492 1.0996-0.01341 0.0323-0.03086 0.0652-0.05078 0.0996-0.38229 1.0005-0.63229 1.6672-0.75 2-0.19414 0.81276-0.24453 1.5628-0.15039 2.25 0.0014 0.0425 0.0014 0.0754 0 0.0996l0.5 3.0508c0.02239 0.16198 0.07278 0.32865 0.15039 0.5 0.03594 0.0246 0.05339 0.0421 0.05078 0.0508 0.20234 0.55677 0.56862 0.83971 1.0996 0.84961 0.41718-7e-3 0.73308-0.20664 0.94922-0.59961v0.0488c1.5155-2.6879 2.0833-5.2712 1.7012-7.75-0.13034-0.78971-0.5974-1.3227-1.4004-1.5996zm-78.551 35.25c-0.58581 0.0357-1.1013 0.25274-1.5488 0.65039-0.41823 0.47526-0.68568 1.0586-0.80078 1.75-0.09661 1.1083-0.09661 2.2072 0 3.2988l0.84961 2.8008c0.13268 0.39401 0.41758 0.61107 0.85156 0.65039 0.403 3.9e-4 0.66849-0.20117 0.79883-0.60156h0.05078l0.40039-0.94922c7e-3 -0.0172 7e-3 -0.0346 0-0.0508 0.47096-0.74557 0.8043-1.3289 1-1.75 0.49375-1.2106 0.69336-2.3268 0.59961-3.3496v-0.0488c-0.02591-0.82304-0.27592-1.4568-0.75-1.9004-0.37357-0.33047-0.84063-0.49714-1.4004-0.5zm15.852 27.799c-0.55442 0.0172-1.2385 0.28465-2.0508 0.80078-1.2456 0.97057-2.3115 2.4047-3.1992 4.3008-0.32408 0.85297-0.30125 1.3476 0 2.0996 1.1915 0.44835 2.5324-0.40774 3.5996-1 1.6152-1.0148 2.6986-2.2494 3.25-3.7012 0.04336-0.0422 0.0763-0.0906 0.09961-0.14844 0.40638-0.97044 0.17382-1.672-0.69922-2.1016-0.31146-0.16511-0.64479-0.24844-1-0.25zm26 1.8516-0.35156 0.0488c-0.63333 0.2-1.0829 0.53333-1.3496 1-0.3 0.5-0.38333 1.0504-0.25 1.6504 0.16406 0.72187 0.7474 1.5727 1.75 2.5508 1.3333 1.0334 2.3837 1.5992 3.1504 1.6992 0.49933 0.11486 1.5684-0.41793 1.0996-1.4492l-1.1504-2.9004-0.04883-0.0996-0.45117-0.70117-0.19922-0.25c-0.6-0.93333-1.2996-1.4488-2.0996-1.5488z" fill="#faea01"/>
 <path d="m45.199 3.25c1.7387 36.01 32.426 51.162 53.352 47.9l0.31534-47.767zm-28.369 37.717c-2.8032 1.3274-3.219 4.8008-2.75 5.1504 1.0009 0.74605 3.6506 0.94835 5.9492-0.40039 1.6896-0.99142 3.9416-2.6758 3.4934-5.1286-0.17792-0.97369-2.6484-1.5364-6.6926 0.37864z" fill="#ef1d1e"/>
 <path d="m44.75 3.0996c0.1667 1.2666 0.30039 3.4838 0.40039 6.6504 0.2666 2.2 0.96631 5.3163 2.0996 9.3496 0.7 2.4 1.9326 5.1675 3.6992 8.3008 1.0667 1.9333 2.1345 3.6 3.2012 5 1.4 1.9 2.7663 3.5163 4.0996 4.8496 1.2333 1.2667 2.6171 2.5671 4.1504 3.9004 2.7 2.3333 5.7659 4.3488 9.1992 6.0488 2.5667 1.3 5.433 2.4008 8.5996 3.3008 2.5 0.69999 5.4671 1.2175 8.9004 1.5508 1.6 0.16667 3.7008 0.18214 6.3008 0.04883l3.6992-0.44922v-1.4512c-2.6666 0.26665-4.2829 0.40039-4.8496 0.40039-0.9 0.03333-1.9659 3.98e-4 -3.1992-0.09961-1.4333-0.1-2.5167-0.18333-3.25-0.25-1.8-0.06667-3.9183-0.43296-6.3516-1.0996-2.9666-0.73333-5.3484-1.5667-7.1484-2.5l-2.9004-1.4004c-1.1667-0.53332-2.1008-1.0663-2.8008-1.5996-1.6-1.2667-2.8171-2.1833-3.6504-2.75-1.3-0.86667-3.0829-2.3667-5.3496-4.5-0.9666-0.86667-2.2496-2.3338-3.8496-4.4004-0.7-0.83332-1.3841-1.7675-2.0508-2.8008l-1.6992-2.9492c-0.8667-1.6666-1.3841-2.7171-1.5508-3.1504-0.9666-3.1-1.7167-5.4159-2.25-6.9492-0.6333-1.8333-1.1488-4.4497-1.5488-7.8496l-0.55078-5.2012zm-2.6992 29.301-16.602 6.1504c-0.9333 0.4-1.7318 0.6151-2.3984 0.64844-1.1667 0.03333-2.0349 0.06823-2.6016 0.10156-0.5666 0.03333-1.0822 0.09922-1.5488 0.19922-0.3667 0.06667-0.71748 0.16745-1.0508 0.30078-0.5333 0.2-1.0159 0.43255-1.4492 0.69922-1.0667 0.66665-1.8845 1.5175-2.4512 2.5508-0.4666 0.83332-0.76514 1.8818-0.89844 3.1484-0.067 0.73332-0.13447 1.8167-0.20117 3.25l-0.09961 0.65039c-0.1667 1.0667-0.06602 2.183 0.30078 3.3496l0.09961 0.30078c0.033 0.16667 0.2 0.51746 0.5 1.0508 0.2333 0.43333 0.65 0.98177 1.25 1.6484 0.7333 0.83332 1.3322 1.7849 1.7988 2.8516 0.2334 0.56667 0.33408 1.1829 0.30078 1.8496 0.1667 0.06667-0.06602 1.2663-0.69922 3.5996-0.3 0.93332-0.53447 1.8675-0.70117 2.8008-0.2 1.1667-0.46553 2.2655-0.79883 3.2988-0.1334 0.5-0.26709 1.0174-0.40039 1.5508-0.9 3.5999-1.3496 6.2822-1.3496 8.0488 0.033 1.0333 0.21553 2.1167 0.54883 3.25l0.40039 1.75 1.75 3.8516 0.80078 2v0.04883c1.1333 2.1333 2.4996 4.0345 4.0996 5.7012 0.6 0.56667 1.2163 1.1151 1.8496 1.6484 1.0333 0.86665 2.0333 1.6516 3 2.3516 2.4 1.6333 4.8167 3.05 7.25 4.25 0.5333 0.26667 1.0663 0.51667 1.5996 0.75l1 0.39844 0.05078 0.10156 3.1504 4.8984c0.1 0.23333 0.1833 0.43489 0.25 0.60156l0.5 1.9492c0.033 0.0333 0.06561 0.0992 0.09961 0.19922l0.04883 0.80078c0.033 0.4 0.13408 1.0008 0.30078 1.8008 0.1 0.7-7.82e-4 1.2988-0.30078 1.7988-0.2 0.3-0.31631 0.65078-0.34961 1.0508-0.067 0.4-2.8e-5 0.70039 0.20117 0.90039 0.4666 0.43333 0.6333 0.93334 0.5 1.5-0.067 0.3-0.2334 0.73216-0.5 1.2988-0.2334 0.86667-0.58408 2.1496-1.0508 3.8496-0.3667 1.4-0.93262 3.2333-1.6992 5.5-0.1334 0.4-0.36787 0.98333-0.70117 1.75-0.2333 0.66666-0.3167 1.2849-0.25 1.8516 0.067 0.26667-0.05001 0.35-0.34961 0.25l-2-0.85156c-1.5666-0.6-3.0996-0.71628-4.5996-0.34961 0.7 0.2 1.6826 0.45 2.9492 0.75 1.1 0.33333 2.0496 0.71706 2.8496 1.1504l-0.75-0.15039c-1.5666 0.53333-2.4988 0.86667-2.7988 1-1.0333 0.46667-1.8667 1.0345-2.5 1.7012l-0.30078 0.19922c-0.1 0.1-0.15039 0.18333-0.15039 0.25l0.10156 0.15039c0.1333 0.16667 0.41631 0.13363 0.84961-0.0996 1.7-0.96666 3.6167-1.7671 5.75-2.4004l-1.8008 1.7988c-0.6333 0.66666-1.0829 1.3004-1.3496 1.9004-0.067 0.13333-0.09961 0.33294-0.09961 0.59961l0.19922-0.0488c0.3333-0.2 0.71709-0.55078 1.1504-1.0508 0.5667-0.6 0.93301-0.98372 1.0996-1.1504 0.5667-0.63333 1.0163-1.0829 1.3496-1.3496 0.5333-0.5 1.1341-0.7655 1.8008-0.79883 0.5 0 1.2171 0.11628 2.1504 0.34961s1.6504 0.33216 2.1504 0.29883c0.3 0.1 0.4666 0.0516 0.5-0.14844 0-0.2-0.11816-0.33372-0.35156-0.40039-1.4333-0.7-2.9488-1.0508-4.5488-1.0508-0.2333-0.0333-0.36709-0.0663-0.40039-0.0996-0.067-0.0667-0.04922-0.20039 0.05078-0.40039 0.3666-1.0333 0.66514-1.7988 0.89844-2.2988 1.1667-2.9667 2-5.5674 2.5-7.8008 0.4667-1.5667 0.8-2.7333 1-3.5 0.3667-1.4 0.51787-2.6171 0.45117-3.6504-0.067-0.8-0.20039-1.8329-0.40039-3.0996-0.3-1.9333-0.4667-2.9663-0.5-3.0996l-0.25-2.1504c0.1-0.1 0.1833-0.23372 0.25-0.40039l0.15039-0.25 0.44922-1.0488v-0.25c0.1 0.0333 0.21631 0.0818 0.34961 0.14844 0.2667 0.1 1.0167 0.16784 2.25 0.20117l0.10156 0.19922v0.0508l1.2988 1.2988 1 0.70117 0.25 0.0996 0.65039 6.5996c0.033 0.33333 0.1167 0.83333 0.25 1.5 0.1667 0.63333 0.25 1.1333 0.25 1.5 0.033 0.5 0.2 1.25 0.5 2.25 0.1667 0.86667 0.03301 1.6012-0.40039 2.2012-0.2666 0.4-0.29921 0.78177-0.09961 1.1484 0.7667 1.5333 1.067 2.9016 0.90039 4.1016-0.1333 0.76667-0.18369 1.9333-0.15039 3.5-0.1 0.7-0.15039 1.5663-0.15039 2.5996 0 0.56667 0.01678 1.4155 0.05078 2.5488l-0.09961 2.6016c-0.067 1.0333-0.03439 1.8996 0.09961 2.5996 0.1333 0.86667-0.05098 1.1671-0.55078 0.90039-1.7-0.8-3.8492-1.1682-6.4492-1.1016-0.6 0-0.98369 0.15117-1.1504 0.45117 0.5 0.2 0.78291 0.29883 0.84961 0.29883 2.3333 0.26667 4.25 0.65039 5.75 1.1504-2.6666 0.66667-5.1337 2-7.4004 4 0.3667-0.13333 1.7834-0.74961 4.25-1.8496 1.7333-0.76667 3.1849-1.3326 4.3516-1.6992l-2 3.0996c-0.6333 1.2-1.0345 2.2833-1.2012 3.25-0.067 0.4-0.01601 0.61706 0.15039 0.65039 0.2333 0.0667 0.43301-0.0671 0.59961-0.40039 1.1333-2.2333 2.0171-3.8845 2.6504-4.9512 0.2333-0.53333 0.43301-0.93255 0.59961-1.1992 0.2667-0.46667 0.63301-0.71667 1.0996-0.75l2.25-0.25 3.1016 0.0508c0.067 0.0333 0.16553 0.0663 0.29883 0.0996s0.23408 3e-4 0.30078-0.0996c0.1-0.23333-0.01601-0.43489-0.34961-0.60156-0.4-0.2-0.85156-0.33177-1.3516-0.39844-0.4-0.0667-0.8167-0.10156-1.25-0.10156h-0.04883c-0.4333 0-1.2841 0.11823-2.5508 0.35156-0.3 0.0667-0.51699 0.0996-0.65039 0.0996-0.2333-0.0333-0.33213-0.25039-0.29883-0.65039 0.1333-1.4667 0.19922-2.55 0.19922-3.25 0.1333-5.0665 0.20117-8.8496 0.20117-11.35 0.067-1.1333 0.09961-1.9841 0.09961-2.5508 0.033-1.0333-0.03497-1.8996-0.20117-2.5996-0.5-2-1.0484-5.033-1.6484-9.0996l-0.10156-1c0.033-0.1 0.05078-0.20078 0.05078-0.30078-0.033-0.7-0.01622-1.3822 0.05078-2.0488 0.033-0.53333 0.18252-1.0004 0.44922-1.4004 0.5273-0.87885 1.1083-1.7406 1.7129-2.5938 0.10727 0.10791 0.19165 0.20172 0.3125 0.31836 0.05441 0.0675 0.06903 0.10717 0.125 0.17578 0.02115 0.025 0.05078 0.0136 0.07227 0.0371 0.40884 0.44813 0.66203 0.83912 0.72656 1.1621 0.067 0.3 0.16748 0.65078 0.30078 1.0508 0.1 0.26667 0.20078 0.56511 0.30078 0.89844 0.1666 0.43333 0.4167 1.0671 0.75 1.9004 0.06803 0.20413 0.25332 0.26739 0.34961 0.4375v0.0137c0.01556 0.0583 0.07259 0.0442 0.08984 0.0996 0.22491 0.35026 0.40099 0.75929 0.75977 0.94922 0.03936 0.0185 0.05552-0.029 0.09375-0.0137 0.22305 0.18437 0.30581 0.61195 0.60547 0.66406l0.35156 0.0508c0.6 0 1.0496-0.2345 1.3496-0.70117l0.09961-0.0996 1.9316-3.3926c0.0266 0.12473 0.03845 0.27289 0.06836 0.39258 0.2 0.66667 0.50039 1.4671 0.90039 2.4004 0.1666 0.33333 0.3333 0.69961 0.5 1.0996 0.6333 1.2 1.0655 1.9326 1.2988 2.1992l0.05273 0.0508c0.2667 0.26667 0.5167 0.33255 0.75 0.19922 0.067-0.0333 0.13262-0.0992 0.19922-0.19922 0.067-0.1 0.11709-0.21628 0.15039-0.34961 0.0084-0.0296 0.01126-0.039 0.01953-0.0684 0.01295 2.8e-4 0.01619 0.0176 0.0293 0.0176h0.19922c0.63333-0.1 1.0345-0.46628 1.2012-1.0996l0.44922-2.1504c0.24379-0.76184 0.3993-1.5406 0.50391-2.3301 0.47777 0.50609 1.0292 1.1061 1.248 1.2812 0.2333 0.2 0.45039 0.34922 0.65039 0.44922 0.3 0.1 0.55 0.11727 0.75 0.0508 0.1251-0.0455 0.10526-0.14381 0.1875-0.20508 0.0035 3e-5 0.0063 4e-3 0.0098 4e-3l0.55075-0.0997c0.5-0.23334 0.78294-0.61706 0.84961-1.1504v-0.25l0.30078-2.5c0.16667-1.4667 0.23255-2.4337 0.19922-2.9004l0.09961 0.10156 0.20117 0.14844c0.26667 0.16667 0.54961 0.25 0.84961 0.25h0.25c0.4-0.1 0.70039-0.31511 0.90039-0.64844 0.07621-0.11778 0.03631-0.26255 0.09375-0.38476l0.05469 0.084v-0.31055c0.14953-0.40214 0.34544-0.79369 0.30078-1.2402-0.03333-2.0667-0.31628-4.0318-0.84961-5.8984-0.6-1.8333-1.2667-3.4671-2-4.9004-0.9-1.7-2.1345-3.2833-3.7012-4.75l-0.44922-0.40041c-1.7-1.5667-3.0333-2.6674-4-3.3008-0.6786-0.4437-2.0683-1.1306-3.5234-1.8398-0.05877-0.10208-0.11466-0.21172-0.17578-0.30859-0.3667-0.83332-0.91709-1.5-1.6504-2-0.6-0.43332-1.1834-0.80158-1.75-1.1016-1-0.63333-2.033-1.1663-3.0996-1.5996-0.4-0.16665-0.78379-0.36628-1.1504-0.59961-0.4-0.16667-0.86709-0.38372-1.4004-0.65039-0.3-0.16665-0.60039-0.25-0.90039-0.25-0.3-0.06667-0.55-0.15-0.75-0.25h-0.32617c-0.47-0.12398-0.93502-0.24582-1.3242-0.34961-1-0.26667-1.7829-0.45078-2.3496-0.55078-0.1333-0.03333-0.24961-0.04883-0.34961-0.04883-1.4-0.06667-2.4504-0.15-3.1504-0.25-2.8-0.33333-5.2322-0.15117-7.2988 0.54883-2.4 0.76665-4.7838 0.66782-7.1504-0.29883-0.7667-0.3-1.3675-0.78452-1.8008-1.4512-0.4333-0.63333-0.63291-1.3155-0.59961-2.0488l0.09961-0.65039c0.1-0.5 0.1833-0.96706 0.25-1.4004l0.90039-6.0996c0.4667-3.3333 0.3-6.1008-0.5-8.3008-0.4333-1.2333-0.6833-2.1326-0.75-2.6992h0.05078c-0.1667-0.66665-0.26748-1.0504-0.30078-1.1504-0.1-0.33332-0.1833-0.61628-0.25-0.84961v-0.05078l-0.05078-0.19922v-0.05078c-0.033-0.06667-0.04883-0.1151-0.04883-0.14844l-0.20117-0.65039c-0.1666-0.63333-0.09903-1.3174 0.20117-2.0508 0.1333-0.33332 0.31553-0.68216 0.54883-1.0488 0.4667-0.56665 0.8-1.0008 1-1.3008 0.3667-0.53332 0.65156-0.98296 0.85156-1.3496 0.033-0.03333 0.06561-0.05078 0.09961-0.05078 0.067-0.03333 0.15-0.06628 0.25-0.09961h-0.05078l18.15-10.801 0.34961-0.09961 0.09961-0.15039c0.2-0.3 0.33369-0.58294 0.40039-0.84961l-0.09961-0.04883c-0.033-0.03333-0.06561-0.05078-0.09961-0.05078l-0.05078-0.19922c-0.1667-0.06667-0.28291-0.11706-0.34961-0.15039zm-5.1074 2.8008-12.693 6.1992c-0.1333 0.06667-0.2167 0.1655-0.25 0.29883-0.067 0.13333-0.067 0.26707 0 0.40039 0.067 0.1 0.16738 0.18333 0.30078 0.25 0.1333 0.03333 0.26514 0.01784 0.39844-0.04883l10.301-5.0508-11.35 6.75c-0.1 0.03333-0.16777 0.09922-0.20117 0.19922-0.067-0.06667-0.11514-0.08216-0.14844-0.04883-0.1667 0.16667-0.35078 0.44961-0.55078 0.84961-0.1333 0.23333-0.55 0.81668-1.25 1.75-0.5333 0.69999-0.8667 1.3163-1 1.8496-0.1667 0.6-0.13409 1.5012 0.09961 2.7012l-1.4004-0.10156-0.29883-0.09961c-0.5667 0.1-1.4 0.15039-2.5 0.15039-0.2667-0.03333-0.53408-0.05078-0.80078-0.05078l-0.44922 0.15039c0.2 0.3 0.31631 0.45117 0.34961 0.45117 0.3 0.16667 0.60039 0.29844 0.90039 0.39844 0.8666 0.23333 1.8337 0.1849 2.9004-0.14844 0.4662-0.06667 0.78252-7.82e-4 0.94922 0.19922l0.19922 0.34961c-0.067 0.13333-0.19844 0.21667-0.39844 0.25-0.2-0.03333-0.35117-0.04883-0.45117-0.04883l-3.0996 0.25c-0.033 0.03333-0.06561 0.04883-0.09961 0.04883-0.1 0.06667-0.1833 0.11706-0.25 0.15039 0.1 0.06667 0.23369 0.20039 0.40039 0.40039l0.19922 0.09961h0.15039c0.033 0 0.08399 0.01745 0.15039 0.05078 0.3333 0 0.86631-0.01745 1.5996-0.05078h1.25l0.40039-0.09961c0.3-0.1 0.53252-0.06706 0.69922 0.09961h-0.05078l0.15039 0.40039c-0.067 0.13332-0.15 0.24961-0.25 0.34961-0.2333-0.03333-0.34961-0.01588-0.34961 0.05078l-2 0.19922c-0.067-0.03333-0.13262-0.01588-0.19922 0.05078-0.3667 0.03334-0.55078 0.11667-0.55078 0.25 0.033 0.3 0.31631 0.46667 0.84961 0.5 0.7 0.03333 1.5837-0.0849 2.6504-0.35156 0.1667-0.06667 0.31592 0.06706 0.44922 0.40039 0.1667 0.76667 0.45156 1.9334 0.85156 3.5-0.033 0.06667 0.05 0.53374 0.25 1.4004 0.033 0.83332-0.08496 2.1996-0.35156 4.0996v0.15039c-0.067 0.36667-0.13252 0.75039-0.19922 1.1504-0.1 0.46665-0.1833 0.94923-0.25 1.4492-0.2 1.1-0.34922 2.2667-0.44922 3.5l-0.25 2v0.5c-0.033 1.1667 0.24961 2.0833 0.84961 2.75 0.4 0.4 1.1829 0.91745 2.3496 1.5508 0.4667 0.23332 1.1992 0.4155 2.1992 0.54883 0.2667 0.03333 1.1 0.05078 2.5 0.05078-0.8333 0.63332-1.5 1.2341-2 1.8008-1.5 1.5667-2.4496 3.183-2.8496 4.8496-0.1333 0.66665-0.1333 1.3837 0 2.1504 0.067 0.56667 0.21777 1.15 0.45117 1.75 0.4 1.2333 1.0163 2.4 1.8496 3.5l0.19922 0.04883c0.3667 0.16667 0.83369 0.60078 1.4004 1.3008 0.5667 0.73332 1.0996 1.3496 1.5996 1.8496 0.2667 0.26667 0.73369 0.63296 1.4004 1.0996 0.6 0.4 1.2163 0.68294 1.8496 0.84961l-0.15039-0.14844 9.75 2.6484c0.6 0.16667 1.3675 0.38374 2.3008 0.65039 0.2234 0.0638 0.5096 0.13981 0.75 0.20703v0.0937c0.1667 0.13332 0.28291 0.28256 0.34961 0.44922l0.5 1.3496c0.033 0.0667 0.06561 0.15 0.09961 0.25 0.2 0.43333 0.41709 0.90039 0.65039 1.4004l0.20117 0.40039c0.05822 0.11645 0.13371 0.25105 0.20312 0.37891 0.13192 0.31112 0.1811 0.60364 0.3457 0.92187 0.09288 0.16719 0.3164 0.42367 0.42774 0.60352l0.57226 1.1465c0.024 0.0441 0.06461 0.0978 0.09961 0.14844-0.1333 0-0.14863 0.0504-0.04883 0.15039-0.033 0.0333-0.08399 0.10117-0.15039 0.20117 0-0.0333-0.03261-0.0178-0.09961 0.0488l-0.09961 0.0996-1.75 1.3516c-0.067 0.0333-0.13447 0.0818-0.20117 0.14844-0.1333-0.13329-0.24961-0.21663-0.34961-0.24996l-0.40039-0.0996-0.04883-0.0488-0.15039-0.10156-0.40039-0.59965c-0.033-0.0667-0.16709-0.21589-0.40039-0.44922 0.1667 0 0.40117 0.0155 0.70117 0.0488 0.1333 0 0.24961-0.0329 0.34961-0.0996 0.1-0.1 0.15039-0.21628 0.15039-0.34961v-0.0996c0.1 0.1 0.19883 0.21628 0.29883 0.34961 0.033 0.0667 0.08399 0.13255 0.15039 0.19922 0.1 0 0.20078 0.0349 0.30078 0.10156 0.033 0 0.06561 0.0329 0.09961 0.0996 0.4333 0.46667 0.7667 0.39883 1-0.20117 0-0.13333-0.03261-0.24961-0.09961-0.34961s-0.16748-0.16589-0.30078-0.19922c-0.1333-0.0333-0.24961-0.11667-0.34961-0.25l-0.05273-0.0508c0.033-0.13301 7.91e-4 -0.26706-0.09961-0.40039l-0.44922-0.59961c-0.2-0.36667-0.38408-0.61667-0.55078-0.75-0.067-0.1-0.20039-0.18333-0.40039-0.25l-0.59961-0.29883c-0.1667 0.0333-0.30039 0.11667-0.40039 0.25-0.033 0.1-0.04883 0.21628-0.04883 0.34961-0.033 0.0333-0.05078 0.0837-0.05078 0.15039 0 0.13333 0.04999 0.24961 0.15039 0.34961 0.4 0.36667 0.74883 0.73294 1.0488 1.0996-0.033-0.0333-0.06561-0.0508-0.09961-0.0508-0.4333-0.0333-0.71631-0.0663-0.84961-0.0996h0.05078c-0.4-0.26667-0.86709-0.53216-1.4004-0.79883-0.1333-0.0667-0.26709-0.0667-0.40039 0-0.1333 0.0333-0.23408 0.11667-0.30078 0.25-0.067 0.1-0.067 0.21628 0 0.34961 0.033 0.13333 0.1167 0.23216 0.25 0.29883 0.3333 0.16667 0.65117 0.33333 0.95117 0.5-0.1 0.0667-0.16777 0.1345-0.20117 0.20117-1.2-0.0333-1.9151-0.0837-2.1484-0.15039-0.3-0.1-0.56748-0.23372-0.80078-0.40039l-1-1.0488c-0.7333-0.3-1.4175-0.56745-2.0508-0.80078-0.7333-0.4-1.4484-0.78372-2.1484-1.1504-0.1-0.0333-0.21816-0.0837-0.35156-0.15039l-4.1992-2c-0.6667-0.33333-1.6337-0.93218-2.9004-1.7988l-2.8496-1.75c-0.6333-0.76662-1.2826-1.317-1.9492-1.6503-0.2-0.1-0.3667-0.23372-0.5-0.40039-0.9-0.86665-1.7004-1.8492-2.4004-2.9492-0.6667-0.99999-1.4012-2.2171-2.2012-3.6504l-0.5-0.94922c-0.5333-0.93332-0.99844-1.8675-1.3984-2.8008l-1.3008-2.8008c-0.8667-2.1-1.0333-4.3655-0.5-6.7988 0.2667-1.5 0.70078-3.5175 1.3008-6.0508l1.3008-6.0996c0.6333-2.5666 0.83301-3.933 0.59961-4.0996-0.1-0.5-0.19883-0.94961-0.29883-1.3496-0.6667-1.4333-1.4167-2.6833-2.25-3.75-0.2333-0.26665-0.4-0.53412-0.5-0.80078-0.3-0.4-0.48408-0.73333-0.55078-1h0.05078c-0.6-1.5333-0.83447-2.9326-0.70117-4.1992l0.05078-0.5 0.09961-0.30078c0.033-0.33333 0.10117-0.61629 0.20117-0.84961 0.1666-0.36667 0.39922-0.60117 0.69922-0.70117-0.033-0.03333-0.05078-0.06628-0.05078-0.09961 0.1 0 0.20078 0.01745 0.30078 0.05078l0.40039-0.05078c0.1 0 0.21631 0.01745 0.34961 0.05078h0.65039c0.1-0.03333 0.21631-0.05078 0.34961-0.05078 0.8994-0.13332 1.6171-0.24961 2.1504-0.34961 0.3333-0.1 0.59883-0.18333 0.79883-0.25l1.0508-0.44922 0.75-0.45117c0.2333-0.13332 0.54922-0.39883 0.94922-0.79883 0.6667-0.59999 1.1008-1.1504 1.3008-1.6504l0.25-1.8008 0.09961 0.09961 0.09961-0.69922 0.20117-0.59961 0.10156-0.09961c-0.033-0.13333-7.9e-4 -0.23411 0.09961-0.30078 0.5-0.23333 0.85078-0.4 1.0508-0.5l7.0488-2.4492c0.8667-0.29999 2.1012-0.76707 3.7012-1.4004 0.16432-0.06576 0.34424-0.13344 0.54102-0.19922zm-16.193 5.0996c0.4-0.03333 0.96592 0.0151 1.6992 0.14844 0.067 0.03333 0.10156 0.08372 0.10156 0.15039l0.44922 0.15039c0 0.3-0.04999 0.74962-0.15039 1.3496l-0.09961 0.75c-0.1 0.23333-0.2667 0.46784-0.5 0.70117-0.6 0.7-1.4333 1.2988-2.5 1.7988l-0.84961 0.34961-0.09961 0.05078-3.0508 0.34961c-0.4333 0.06667-0.79961 0.03372-1.0996-0.09961-0.1-0.06667-0.1833-0.09961-0.25-0.09961-0.067-0.53333-0.03439-1.0663 0.09961-1.5996 0.2333-0.89999 0.68301-1.6016 1.3496-2.1016h0.05078c0.1-0.2 0.2667-0.34922 0.5-0.44922 0.033-0.03333 0.23291-0.09922 0.59961-0.19922l-0.05078-0.05078c0.2667-0.13333 0.66787-0.35039 1.2012-0.65039 0.2666-0.06667 0.5167-0.13255 0.75-0.19922 0.6666-0.16667 1.2829-0.28294 1.8496-0.34961zm-2.25 1.4492c-0.2333 0-0.43301 0.06589-0.59961 0.19922-0.2333 0.13333-0.33408 0.3-0.30078 0.5 0 0.59999 0.28301 0.96823 0.84961 1.1016 0.1667-0.1 0.31787-0.18333 0.45117-0.25 0.3666-0.26665 0.56631-0.55158 0.59961-0.85156 0.033-0.3-0.16631-0.49961-0.59961-0.59961-0.1-0.03333-0.23369-0.06628-0.40039-0.09961zm70.65 14.301c-0.6 0.36667-1.0845 1.2989-1.4512 2.7988-0.3666 1.5-0.43252 2.6841-0.19922 3.5508l0.09961 0.19922c0.085 0.21328 0.15311 0.5546 0.22461 0.86328-0.2112 0.051-0.43902 0.07862-0.57422 0.23633-0.1 0.06667-0.15039 0.1345-0.15039 0.20117l-0.03906 0.35547c-0.1437-0.17248-0.33204-0.32737-0.46094-0.50586-0.6666-0.83332-1.0988-1.75-1.2988-2.75-0.067-0.53332-0.33408-0.75039-0.80078-0.65039-0.2 0.03333-0.25039 0.25039-0.15039 0.65039 0.3667 1.4667 0.93447 2.6992 1.7012 3.6992 0.1485 0.18568 0.28584 0.26916 0.43164 0.43164l-1.082 2.0195-0.09766 0.24805c-0.1849-0.19381-0.30915-0.23616-0.50195-0.44922l-1.9512-2.25-0.5-0.44922c-0.033 0.1-0.09902 0.21629-0.19922 0.34961-0.033 0.16667-7.91e-4 0.31784 0.09961 0.45117l2.0996 2.6992c0.1801 0.20509 0.33968 0.28892 0.51758 0.48047l-1.2168 2.5703-0.05078 0.14844c-0.012 0.05195-0.04555 0.08868-0.06055 0.13867-0.1568-0.16873-0.33508-0.31593-0.48828-0.48828l-1.4512-1.7988c-0.2333-0.33332-0.43291-0.43411-0.59961-0.30078s-0.14942 0.38333 0.05078 0.75c0.4333 0.73332 0.96631 1.4833 1.5996 2.25 0.1214 0.14039 0.35388 0.30124 0.48438 0.44336l-0.98438 2.6074-0.05078 0.29883c-0.015 0.076-0.0698 0.13251-0.0918 0.20508-0.1486-0.19339-0.37871-0.4199-0.50781-0.60547-0.5333-0.76665-0.96748-1.5167-1.3008-2.25-0.2-0.33333-0.39961-0.44961-0.59961-0.34961-0.1333 0.06667-0.15058 0.30118-0.05078 0.70117 0.067 0.23333 0.2333 0.58217 0.5 1.0488 0.2333 0.53333 0.59961 1.1341 1.0996 1.8008 0.1148 0.16315 0.34917 0.38197 0.48047 0.55273-0.3819 1.0153-0.67598 1.8797-0.83008 2.4961l-0.10156 0.35156c0 0.01232-0.0097 0.0248-0.01172 0.03711-0.1361-0.16474-0.41131-0.37578-0.53711-0.53711l-1.0508-1.5c-0.1-0.1-0.23369-0.15039-0.40039-0.15039-0.2 0-0.24844 0.09883-0.14844 0.29883 0.7333 1.4 1.15 2.15 1.25 2.25l0.04883 0.10156c0.1696 0.20016 0.34202 0.28971 0.51172 0.48438l-0.66211 2.2656-0.04883 0.34961c-0.017 0.08534-0.05017 0.18747-0.07617 0.28125-0.1882-0.25429-0.32604-0.34796-0.52344-0.63086l-1.0508-1.4512-0.15039-0.29883c-0.067-0.1-0.16553-0.11746-0.29883-0.05078-0.2667 0.16667-0.28388 0.43413-0.05078 0.80078l1.3027 1.9492c0.1661 0.26572 0.29817 0.41525 0.44727 0.62305l-0.69727 2.5762v0.25c0 0.16775-0.05375 0.33592-0.09375 0.50391-0.123-0.17127-0.41111-0.50734-0.50781-0.65234-0.3666-0.46665-0.71553-1.0016-1.0488-1.6016-0.1333-0.06667-0.2167-0.1151-0.25-0.14844l-0.15039 0.29883c-0.033 0.33333 0.06798 0.68412 0.30078 1.0508 0.1333 0.19999 0.34844 0.5004 0.64844 0.90039l0.25 0.39844c0.1487 0.24935 0.33032 0.39448 0.48242 0.63281l-0.68164 3.2676c0.019 0.20514-0.06803 0.4102-0.11133 0.61524l-0.53906-0.66406-1-1.5508c-0.1-0.16667-0.23369-0.25-0.40039-0.25-0.1 0-0.14844 0.13372-0.14844 0.40039 0 0.46665 0.14922 0.91628 0.44922 1.3496 0.1 0.13333 0.40039 0.49962 0.90039 1.0996l0.25 0.30078c0.084 0.12028 0.17136 0.16006 0.25586 0.27734l-0.70703 3.6719v0.20117c0.013 0.17425-0.07461 0.3191-0.09961 0.48242-0.156-0.18221-0.41653-0.41269-0.54883-0.58398l-1.4512-1.8496c-0.067-0.13332-0.11699-0.21667-0.15039-0.25-0.067-0.1-0.15-0.11548-0.25-0.04883-0.067 0.03333-0.11514 0.09922-0.14844 0.19922-0.067 0.06667-0.08378 0.13255-0.05078 0.19922 0.3333 0.76665 0.94961 1.7008 1.8496 2.8008l0.34961 0.34961c0.064 0.07221 0.14038 0.12376 0.20508 0.19531l-0.60352 3.9551v0.0508c0.014 0.129-0.04845 0.2732-0.06445 0.4082-0.1919-0.2156-0.39524-0.33233-0.58594-0.55859l-0.90039-1.1504c0-0.0333-0.01678-0.0508-0.05078-0.0508v1.3008l0.80078 0.94922c0.1808 0.21162 0.35125 0.30051 0.53125 0.50195l-0.23047 1.748v0.0508c0.1 0.26667 0.13251 0.56706 0.09961 0.90039-0.026 0.10427-0.08099 0.20845-0.11719 0.3125-0.042-0.0582-0.09201-0.10108-0.13281-0.16211v0.51367c-0.021 0.0449-0.02778 0.0898-0.05078 0.13477-0.033 0.0333-0.04883 0.0682-0.04883 0.10156l-0.30078 2.5996v0.0488c0.067 0.26667 0.08378 0.53411 0.05078 0.80078-5e-4 1e-3 0 2e-3 0 4e-3 -0.078-0.11584-0.38992-0.4571-0.44922-0.55469-0.067-0.13333-0.13252-0.21667-0.19922-0.25-0.1667-0.0667-0.28301-0.0667-0.34961 0-0.3 0.23333-0.35039 0.46784-0.15039 0.70117l0.34961 0.5c0.2807 0.41169 0.3102 0.43551 0.5332 0.75781l-0.18359 1.6914-0.09961 0.5c-0.1191 0.4051-0.25813 1.1657-0.39453 1.8945l-0.70508-1.0449c-0.1667-0.33333-0.35078-0.43216-0.55078-0.29883-0.033 0-0.08399 0.0504-0.15039 0.15039-0.067 0.0667-0.08183 0.11511-0.04883 0.14844 0.4333 0.96666 0.6833 1.5016 0.75 1.6016l0.25 0.39844c0.06 0.0914 0.14633 0.17826 0.20703 0.26953l-0.05664 0.28119c-0.13 0.78008-0.23068 1.9138-0.30078 3.4004l-0.02734 0.22266-1.0234-1.5234c-0.2666-0.26667-0.44883-0.35-0.54883-0.25-0.1667 0.1-0.15137 0.28411 0.04883 0.55078l0.20117 0.54883 0.95508 1.6953c-0.1185 0.16435-0.23707 0.29628-0.35547 0.35547-0.1333 0.0667-0.35039 0.0996-0.65039 0.0996l-1.2227 0.0527c-0.056-0.17969-0.23444-1.1002-0.27734-1.2031l-0.25-0.29883-0.19922 0.34961c-0.058 0.32052-0.01011 0.73189 0.08789 1.1797l-0.4375 0.0195c-0.1123 0.0449-0.24599 0.0953-0.40039 0.15039l-0.65039 0.20117-0.60547 0.0781-0.29492-0.92969-0.34961-0.84961c-0.1-0.2-0.21631-0.26589-0.34961-0.19922-0.1667 0.0667-0.21709 0.20039-0.15039 0.40039l0.41797 1.6719-3.0801 0.39648c-0.029-0.0893-0.05889-0.28623-0.08789-0.36914l-0.4004-1.2499c-0.1-0.26667-0.19883-0.40039-0.29883-0.40039-0.067 0-0.11709 0.0174-0.15039 0.0508v0.0996c0 0.0333 0.01483 0.0992 0.04883 0.19922l0.15039 1.2012c0.038 0.2449 0.07598 0.34057 0.11328 0.55078l-2.3613 0.30469c-0.2247-0.7114-0.49236-1.316-0.85156-1.7051l-0.30078-0.20117c-0.067 0.13333-0.08183 0.23411-0.04883 0.30078l0.40039 1.6992 0.01953 0.0527-1.2695 0.29688c-0.2667 0-0.46816 0.0349-0.60156 0.10156-0.1471 0.12617-0.21302 0.25795-0.19922 0.39844v0.14258c-0.1389-0.3796-0.24009-0.76864-0.40039-1.1426-0.5333-1.0333-1.1826-1.8822-1.9492-2.5488-0.6333-0.5-1.3504-0.5-2.1504 0-0.7 0.4-1.0159 0.98333-0.94922 1.75 0.033 1.2 0.68252 2.2504 1.9492 3.1504l1.2891 0.81641c-0.1744-0.0362-0.34008-0.0154-0.48828 0.13281l-0.15039 0.19922-0.05273 0.40039c0 0.36667 0.03456 0.63411 0.10156 0.80078l0.15039 0.29883v0.3008l0.0293 0.15039c-0.2103-0.0406-0.42066-0.0554-0.63086-0.0996-0.7667-0.13333-1.6175-0.35039-2.5508-0.65039l-0.5-0.20117c-0.2 0.0333-0.34922 0.0508-0.44922 0.0508l0.25 0.34961c0.2 0.16667 0.43262 0.31784 0.69922 0.45117 0.7 0.36667 1.5838 0.63216 2.6504 0.79883l0.61524 0.14648 0.43555 2.6543 0.10156 0.19922c0.012 0.0345-2.81e-4 0.0744 0.01172 0.10937-0.1829-0.0348-0.56404-0.076-0.71094-0.10937-0.9333-0.2-1.6349-0.38216-2.1016-0.54883-0.1666-0.13333-0.3333-0.11757-0.5 0.0488-0.1 0.0667-0.05001 0.20039 0.15039 0.40039 0.3 0.23333 0.98408 0.50078 2.0508 0.80078l0.54883 0.14844c0.2043 0.0483 0.43968 0.013 0.64648 0.0547 0 0.0163 0.01 0.0305 0 0.0469l0.59961 2.5488v0.0508c0.045 0.0894 0.05784 0.20998 0.08984 0.3125-0.1809-0.0377-0.53835-0.0755-0.68945-0.11328l-1.5488-0.5-0.60156-0.29883c-0.2666-0.0667-0.46631 0.0322-0.59961 0.29883-0.1 0.23333 0.11709 0.45039 0.65039 0.65039l2.9453 0.76953v0.0312c0.2667 1.1333 0.53408 2.1159 0.80078 2.9492 0.082 0.12346 0.1101 0.283 0.1543 0.43164-0.2754-0.0584-0.40998-0.0653-0.70508-0.13086l-2.0488-0.45117c-0.2333 0-0.4 0.0504-0.5 0.15039-0.033 0.0667-0.01817 0.13255 0.04883 0.19922 0.033 0.0333 0.10117 0.0837 0.20117 0.15039 0.1666 0.1 0.5833 0.23372 1.25 0.40039l1.2988 0.44922c0.1853 0.0488 0.5158 0.0642 0.7168 0.10937 0.2572 0.96689 0.56019 1.9455 0.93359 2.9414l0.05078 0.0996c0.037 0.0745 0.04622 0.16302 0.07422 0.24219-0.3018-0.0767-0.36841-0.0397-0.72461-0.14258l-0.69922-0.14844c-0.1334-0.0667-0.23408-0.10156-0.30078-0.10156-0.1333 0-0.2167 0.0678-0.25 0.20117-0.033 0.13333-7.91e-4 0.23216 0.09961 0.29883 0.067 0.0667 0.16748 0.11706 0.30078 0.15039l1.0996 0.30078c0.1878 0.047 0.46096 0.0714 0.66016 0.11523l1.0898 2.9336 0.15039 0.30078c0.025 0.0419 0.02978 0.10435 0.05078 0.15039l-1.6016-0.15036c-0.1333-0.0333-0.23223-0.0663-0.29883-0.0996-0.1334 0-0.2167 0.0659-0.25 0.19922-0.033 0.26667 0.11592 0.40039 0.44922 0.40039l1.9336 0.35156 1.166 2.7988 0.09961 0.0996c0.017 0.0437 0.03669 0.0984 0.05469 0.14453-0.2424-0.036-0.51655 8e-3 -0.75195-0.0449h-0.05273c-0.5333-0.16667-0.81631-0.0833-0.84961 0.25-0.033 0.16667 0.03592 0.26745 0.20312 0.30078 0.1 0.0333 0.24727 0.0488 0.44727 0.0488l0.59961 0.15039c0.146 0.0278 0.49844 0.0375 0.67773 0.0625l0.97266 2.1875 0.19922 0.34961c0 0.0285 0.01797 0.0759 0.04297 0.1289-0.2248-0.0319-0.46775-0.0431-0.68945-0.0781l-0.90234-0.0996-0.25-0.0996c-0.1-0.0333-0.1833-0.0178-0.25 0.0488-0.1333 0.16667-0.16591 0.28294-0.09961 0.34961 0.2333 0.23333 0.41553 0.35156 0.54883 0.35156 0.2667 0.0667 0.6834 0.11511 1.25 0.14844l0.5 0.10156c0.079 0.0178 0.17596 0.0238 0.25586 0.041l1.3438 2.8086 0.15039 0.19922c0.043 0.0708 0.06897 0.15738 0.10547 0.23437-0.2612-0.0298-0.47586-0.0504-0.75586-0.084h-0.34962c-0.2666-0.1-0.40039-0.0671-0.40039 0.0996 0 0.26667 0.083 0.43333 0.25 0.5 0.54211 0.18762 1.0986 0.28437 1.6621 0.37305 0.3668 0.74577 0.69475 1.4035 0.93945 1.877l31.578 0.16573-1.5297-88.098c-0.03-0.11805-0.42843-1.2434-0.44083-1.3661-0.033-0.2-0.01817-0.40156 0.04883-0.60156-0.1325-0.59641-0.3314-1.3594-0.5957-2.2852l0.44726-0.56445 1.0488-1.6504c0.2667-0.43333 0.46631-0.8151 0.59961-1.1484 0.24777-0.41295-0.12971-0.64461-0.29883-0.25l-2.1406 2.7383c-0.041-0.13306-0.14836-0.24721-0.16016-0.38867v-0.25c-0.3192-0.79795-0.69056-1.5437-1.1016-2.25 0.1435-0.17966 0.30967-0.26363 0.45117-0.45117l1.2988-1.8984c0.2333-0.29999 0.34961-0.51707 0.34961-0.65039l-0.04883-0.20117c-0.4667 0.26665-0.73408 0.45078-0.80078 0.55078l-1.1504 1.5508c-0.1214 0.14844-0.33434 0.33427-0.46484 0.48633l-0.08398-0.1367c-0.3333-0.56667-0.71709-1.1345-1.1504-1.7012l-0.09961-0.04883c-0.026-0.02242-0.0385-0.04942-0.0625-0.07227 0.1704-0.17036 0.28204-0.24327 0.46094-0.42773l0.85156-0.95117c0.4-0.43333 0.68291-0.88294 0.84961-1.3496 0.19989-0.49994 0.2325-0.86627 0.0996-1.0996l-0.25 0.5c-0.7333 0.89999-1.4175 1.6675-2.0508 2.3008-0.1649 0.18233-0.29688 0.2792-0.45508 0.44336l-0.09375-0.09375c-0.1333-0.16667-0.24961-0.30039-0.34961-0.40039-0.1667-0.16667-0.31787-0.26745-0.45117-0.30078-0.1189-0.02974-0.23842 0.01322-0.35742 0.08984 0.1311-0.31317 0.2993-0.62642 0.4082-0.93945 0.5333-1.7999 0.64961-3.4996 0.34961-5.0996-0.1-0.53332-0.45078-0.93255-1.0508-1.1992-0.6-0.26665-1.1155-0.26665-1.5488 0zm0.94922 0.79883c0.4667 0.1 0.73408 0.40039 0.80078 0.90039 0.3666 2.2666-0.16631 4.6504-1.5996 7.1504-0.033 0.1-0.10117 0.13293-0.20117 0.09961-0.067 0-0.11699-0.06589-0.15039-0.19922l-0.19922-0.45118-0.03906-0.24414-0.01172-0.25586c0-0.01614-0.03411-0.01389-0.03711-0.0293l-0.41211-2.5195c-0.1-0.99999 0.20039-2.3333 0.90039-4 0.1666-0.46665 0.48262-0.61783 0.94922-0.45117zm-69.65 12.301c-0.7333 0.53332-1.4484 1.0992-2.1484 1.6992-0.1 0.1-0.20078 0.21628-0.30078 0.34961l-0.09961 0.40039 0.15039 0.09961c0.2666 0 0.74922-0.28294 1.4492-0.84961 0.6667-0.39999 1.0833-0.9 1.25-1.5 0.033-0.06667 0.05078-0.11706 0.05078-0.15039-0.033-0.16667-0.15156-0.18214-0.35156-0.04883zm-0.25 1.6992-3.6992 3.3496c-0.067 0.06667-0.09961 0.1849-0.09961 0.35156 0.1 0 0.24922 0.0155 0.44922 0.04883 0.5333-0.16665 1.1012-0.5155 1.7012-1.0488 0.5333-0.43332 0.91514-0.75117 1.1484-0.95117 0.4333-0.39999 0.71816-0.81667 0.85156-1.25-0.033-0.26665-0.08399-0.43333-0.15039-0.5-0.067-0.03333-0.13447-0.03333-0.20117 0zm-3.9492 4.75c-0.2 0-0.38408 0.18412-0.55078 0.55078-0.1 0.19999-0.1833 0.5004-0.25 0.90039-0.1333 0.53333-0.16591 1.1826-0.09961 1.9492 0.033 0.43333 0.10117 1.0671 0.20117 1.9004 0.1666 1.2 0.53291 2.1322 1.0996 2.7988l0.94922 0.85156 0.09961-0.10156c0.067-0.1 0.067-0.35001 0-0.75-0.8333-1.4333-1.2151-3.2822-1.1484-5.5488 0-1.0333 0.01483-1.6496 0.04883-1.8496 0.067-0.2 0.08378-0.33372 0.05078-0.40039 0-0.13333-0.083-0.21667-0.25-0.25zm3.1504 0.80078c-0.3333 0.03333-0.56777 0.31629-0.70117 0.84961 0.4333 1.9333 1.2008 3.2337 2.3008 3.9004 0.1667 0.1 0.30039 0.08255 0.40039-0.05078 0.1333-0.13332 0.14863-0.28256 0.04883-0.44922-1-1.6667-1.5833-2.8333-1.75-3.5 0.033-0.2 0.05078-0.35117 0.05078-0.45117 0-0.2-0.11631-0.29883-0.34961-0.29883zm-1.6504 0.25c-0.3 0-0.49961 0.39923-0.59961 1.1992 0 0.1 0.03261 0.40039 0.09961 0.90039 0.3 1.8333 0.90078 3.1996 1.8008 4.0996 0.2 0.2 0.3666 0.23294 0.5 0.09961 0.067-0.13333 0.03204-0.3-0.10156-0.5-0.8-2.0666-1.2496-3.683-1.3496-4.8496l0.05078-0.54883c0-0.26665-0.13369-0.40039-0.40039-0.40039zm17.4 0.59961c1.0666-0.06667 2.6655-0.06667 4.7988 0 0.9333 0 1.8171 0.11629 2.6504 0.34961 1.2 0.36667 2.2679 1.0179 3.2012 1.9512 0.2333 0.2 0.84961 0.84923 1.8496 1.9492 0.1666 0.2 0.11631 0.30078-0.15039 0.30078l-2.8008 0.19922c-0.7 0-1.3996-0.06589-2.0996-0.19922-1.0666-0.2-2.0996-0.53333-3.0996-1-0.2333-0.13333-0.46592-0.13333-0.69922 0l0.59961 0.69922 0.25 0.19922c0.5 0.39999 1.1337 0.71784 1.9004 0.95117 0.2 0.06667 0.54883 0.1655 1.0488 0.29883 0.3 0.03333 0.6334 0.10117 1 0.20117 0.1 0.03333 0.56709 0.06628 1.4004 0.09961 0.5667 0.06667 1.0337 0.20039 1.4004 0.40039 1.3 0.79999 2.05 1.2671 2.25 1.4004 0.8 0.53333 1.4337 1.1167 1.9004 1.75 0.033 0 0.04883 0.0155 0.04883 0.04883l0.20117 0.55078h-0.5c-3.0333-0.06667-5.6012-0.65001-7.7012-1.75-0.067-0.03333-0.11699-0.06628-0.15039-0.09961-0.3333-0.20003-0.73252-0.55078-1.1992-1.0508-0.6333-0.69999-1.0326-1.1167-1.1992-1.25l-1.4512-1.1992c-1.3333-0.93332-2.6163-1.4178-3.8496-1.4512h-0.5c0.1 0.4 0.33262 0.59961 0.69922 0.59961 0.6333 0.03333 1.3 0.30078 2 0.80078 0.3667 0.26667 0.93447 0.70079 1.7012 1.3008 0.2666 0.16667 1.1329 0.94962 2.5996 2.3496-1.1667 0.1-2.8663-0.13452-5.0996-0.70117-1.3333-0.36667-2.5-0.88217-3.5-1.5488-0.3-0.2-1.05-0.73296-2.25-1.5996l-0.34961-0.15039 0.09961 0.29883c0.4666 1.0667 1.5655 2.0841 3.2988 3.0508 0.8333 0.46667 1.6183 1.1508 2.3516 2.0508 0.033 0.06667 0.08204 0.13255 0.14844 0.19922 0.4333 0.53332 1.0516 1.4675 1.8516 2.8008l0.10156 0.14844h-0.34961c-0.3333-0.1-1.2171-0.23177-2.6504-0.39844-1.1333-0.13333-2.0345-0.36784-2.7012-0.70117-1.4666-0.73332-2.6159-1.4155-3.4492-2.0488-0.2667-0.2-0.49922-0.40156-0.69922-0.60156s-0.38408-0.21548-0.55078-0.04883-0.18583 0.34883-0.05273 0.54883c0.033 0.03333 0.05273 0.06823 0.05273 0.10156 0.2667 0.5 0.73369 1.0329 1.4004 1.5996 0.9 0.79999 1.4329 1.3 1.5996 1.5l2.3496 2.7988c-3.5999 0-5.9159-1.3818-6.9492-4.1484-0.2333-0.59999-0.38447-1.1833-0.45117-1.75-0.3-2.3 0.5334-4.5345 2.5-6.7012l0.15039-0.15039c0.2667-0.23332 0.65039-0.49884 1.1504-0.79883 0.7-0.4 1.1341-0.65 1.3008-0.75 1.2323-0.83333 2.7644-1.3004 4.5977-1.4004zm11.447 1.5996c0.2167 0.05 0.43369 0.11784 0.65039 0.20117 0.5 0.03333 1 0.14961 1.5 0.34961 0.5666 0.16666 1.1326 0.44961 1.6992 0.84961 0.4667 0.33333 1.0171 0.56589 1.6504 0.69922 0.5997 0.16667 1.1504 0.43412 1.6504 0.80078 0.4 0.23333 0.78369 0.50079 1.1504 0.80078 0.22586 0.12908 0.38561 0.40609 0.58008 0.60547l-0.12891-0.05664c-0.36666-0.16666-0.86667-0.28294-1.5-0.34961l-0.40039-0.05078h-0.19922c-0.09656 0-0.13478 0.10022-0.22266 0.11523-1.2016-0.21175-2.3934-0.47276-3.5293-1.0137l-0.90039-0.40039c-0.098-0.07315-0.20686-0.11122-0.32226-0.13086-0.1307-0.38564-0.24806-0.76644-0.72656-1.2695zm1.541 3.334c0 0.0052 0.0097 0.01041 0.01172 0.01563l2.4492 1.6016c0.3177 0.18099 0.6511 0.36316 1 0.54883 0.2667 0.35182 0.53408 0.73555 0.80078 1.1504 0.03365 0.04761 0.07167 0.07419 0.10547 0.12109l0.09375 0.17969c1.3312 1.9665 2.7094 3.2769 4.123 4.0898-0.01799-0.0026-0.0585 0.01664-0.07227 0.0098-0.5856-0.06888-1.136-0.13672-1.6504-0.20117-1.4595-0.18503-2.6087-0.35169-3.4492-0.5h-0.05078c-0.064-0.01276-0.26331-0.0612-0.59961-0.14844-0.094-0.01524-0.23461-0.04755-0.34961-0.07031v-0.03125c-0.3333-0.06667-0.70156-0.15-1.1016-0.25l-0.09961-0.14844 0.25-0.10156h0.55078c0.1666-0.03333 0.30039-0.06628 0.40039-0.09961 0.067 0 0.11514-0.01549 0.14844-0.04883 1.3667-0.83334 1.3182-1.8508-0.14844-3.0508-0.1667-0.13333-0.35078-0.26706-0.55078-0.40039-0.4667-0.36665-0.83301-0.64961-1.0996-0.84961-0.4667-0.33333-0.90078-0.53294-1.3008-0.59961-0.2-0.06667-0.29883-0.20039-0.29883-0.40039-0.033-0.1-7.9e-4 -0.15039 0.09961-0.15039 0.033-0.03333 0.09902-0.04883 0.19922-0.04883 0.3636-0.14354 0.38696-0.40223 0.53906-0.61719zm-6.6387 4.7168c0.3333-0.06667 0.69961-0.01628 1.0996 0.15039 0.067 0.03333 0.15 0.06628 0.25 0.09961 0.7333 0.33332 1.15 0.51549 1.25 0.54883 0.4 0.06667 0.63447 0.35158 0.70117 0.85156 0.1666 0.73333 0.3333 1.1655 0.5 1.2988 0.1 0.1 0.017 0.15039-0.25 0.15039h-0.05078c-1.5333-0.53332-2.6671-0.93255-3.4004-1.1992-1.3-0.49999-2.3504-1.0349-3.1504-1.6016zm4.0996 1.3496c0.067-0.06667 0.16748-0.04922 0.30078 0.05078 0.1 0.06667 0.19883 0.15 0.29883 0.25 1.0667 0.76665 2.3341 1.3984 3.8008 1.8984 0.1667 0.06667 0.35078 0.1345 0.55078 0.20117v-0.05469c0.4001 0.24322 0.74782 0.45965 0.94922 0.60352 0.067 0.06667 0.15 0.1345 0.25 0.20117l0.35156 0.35156c0.06711 0.26628-0.06676 0.5661 0.19922 0.79883 1 0.76666 2.4826 1.6484 4.4492 2.6484l0.48438 0.24219c-0.0065 0.0079-0.01969 0.0089-0.02734 0.01563l-0.37305 0.06641-0.18359-0.02344h-0.95117c-1.7666 0.2-3.1659 0.26588-4.1992 0.19922h-1.123c-1.036-0.22253-1.9205-0.46898-2.5762-0.75l-2.6504-0.94922c-0.067 0-0.13447-0.05039-0.20117-0.15039-0.033-0.03333-0.01622-0.09922 0.05078-0.19922 0.6-0.26667 0.88291-0.61745 0.84961-1.0508 0-0.26665-0.18223-0.6504-0.54883-1.1504l-0.20117-0.25c-0.1-0.23333-0.017-0.4 0.25-0.5l0.20117-0.04883c0.5-0.16667 0.75-0.40118 0.75-0.70117-0.033-0.2-0.18447-0.49844-0.45117-0.89844l-0.34961-0.5c0-0.13333 0.03261-0.23411 0.09961-0.30078zm-7.4492 0.44922 0.34961 0.10156c1.8666 1.2667 3.8008 1.9992 5.8008 2.1992 0.1 0 0.1833 0.06589 0.25 0.19922 0.2 0.36665 0.3666 0.80078 0.5 1.3008 0.033 0.1-0.35039 0.1-1.1504 0-1.7667-0.13333-3.0671-0.35039-3.9004-0.65039-0.8667-0.33332-1.483-0.63374-1.8496-0.90039 0.3-0.2 0.44922-0.46551 0.44922-0.79883-0.2-0.46667-0.31631-0.81745-0.34961-1.0508zm-25.201 2.4004c-0.6666-0.06667-1.2325 0.16785-1.6992 0.70117-0.5 0.66667-0.81592 1.7326-0.94922 3.1992-0.067 0.63332 0.11553 1.6159 0.54883 2.9492 0.1091 0.35845 0.02075 0.50981 0.09375 0.83008l-0.09375 0.07031-0.15039 0.20117-0.04883-0.05078 0.04883 0.15039h-0.09961l0.05078 0.15039h-0.05078c-0.015 0.10625-0.03083 0.20508-0.04883 0.29883-0.3038 0.61445-0.6371 1.3141-1 2.0996l-0.050782 0.20117c-0.024 0.0962-0.088 0.16306-0.125 0.25-0.1162-0.12574-0.32498-0.39926-0.42578-0.5l-1-0.84961c-0.067-0.0667-0.18291-0.10156-0.34961-0.10156 0 0.2 0.016781 0.31823 0.050781 0.35156l1.3555 1.8555-0.75586 1.793-0.10156 0.35156c-0.01 0.0562-0.031875 0.1079-0.046875 0.16211l-0.9043-1.0625c-0.2-0.2-0.34922-0.25039-0.44922-0.15039-0.1667 0.0667-0.18388 0.18294-0.050781 0.34961l1.1074 1.5059-0.75586 2.1445-0.050781 0.19922c-0.01 0.0927-0.065891 0.17435-0.087891 0.26367l-1.1621-1.2637c-0.35671-0.62439-0.58511 0.17318-0.5 0.30078 0.41807 0.61048 0.8932 1.1675 1.3848 1.7148-0.34052 1.1432-0.42396 1.563-0.47656 1.918-0.1199-0.17872-0.81677-1.1755-1.2559-0.88281-0.1333 0.1-0.15058 0.23372-0.050781 0.40039 0.323 0.48251 0.58619 0.95296 0.96094 1.4023l-0.66016 2.498-0.42812 49.246 19.977 0.35355 0.21875-1.7422c0.44049-0.0745 0.85795-0.22132 1.2812-0.35742 2.4667-0.76666 4.2516-1.5516 5.3516-2.3516 0.067-0.0333 0.15-0.14961 0.25-0.34961-0.2667-0.1-0.41787-0.13303-0.45117-0.0996-1.5333 0.9-3.2833 1.5841-5.25 2.0508-0.36315 0.13221-0.7376 0.22643-1.1094 0.33008 0.05078-0.23153-0.10668 0.33733 0.10941-0.53125l0.29102-2.2227c0.2824-0.11539 0.55868-0.22656 0.60938-0.22656 0.4667-0.16667 1.1508-0.40117 2.0508-0.70117 0.8333-0.26667 1.5-0.58255 2-0.94922 0.4-0.23333 0.61514-0.46589 0.64844-0.69922 0.033-0.0667 7.9e-4 -0.11706-0.09961-0.15039-0.067-0.0667-0.15-0.0841-0.25-0.0508-0.2333 0.16667-0.54922 0.31784-0.94922 0.45117-0.4333 0.16667-0.75117 0.28294-0.95117 0.34961l-2.3984 0.94922c-0.2951 0.1073-0.39866 0.16246-0.66406 0.26172 0.01-0.0714-3.28e-4 -0.13804 0.01367-0.21094l0.04883-0.25 0.23633-2.3594 0.66406-0.29102c1.5333-0.7 2.8008-1.3667 3.8008-2 0.2666-0.1 0.33252-0.23372 0.19922-0.40039-0.1-0.23333-0.2667-0.26637-0.5-0.0996l-3.4004 1.5996c-0.3068 0.14161-0.41852 0.17373-0.69922 0.30078 0.017-0.15042 0.0098-0.29935 0.05078-0.45117 0.03-0.0245 0.04778-0.0574 0.05078-0.0996l0.18555-2.207c0.1856-0.0942 0.49136-0.19997 0.66406-0.29297 1.2-0.66667 2.1516-1.25 2.8516-1.75 0.1666-0.0333 0.28291-0.0837 0.34961-0.15039 0.1666-0.0667 0.18193-0.18294 0.04883-0.34961-0.1666-0.23333-0.48252-0.23333-0.94922 0l-2.1993 1.1504c-0.2808 0.14399-0.4421 0.15003-0.7168 0.28711 0.01-0.0802-3.75e-4 -0.15385 0.01562-0.23633l0.09961-0.30078 0.17578-2.2812c0.1974-0.106 0.49688-0.21234 0.67578-0.31836 0.8333-0.5 1.5833-1.0174 2.25-1.5508 0.2666-0.26667 0.36553-0.46628 0.29883-0.59961-0.067-0.13333-0.16553-0.16637-0.29883-0.0996-0.1667 0.1-0.28486 0.16589-0.35156 0.19922l-1.8496 1.0508c-0.1271 0.0763-0.57673 0.2751-0.74023 0.36523 0-0.0576-0.01577-0.10688-0.0098-0.16601 0.046-0.13229 0.09699-0.26602 0.15039-0.40039l0.17969-2.4922c0.081-0.0357 0.57139-0.23463 0.62109-0.25781l1.6484-0.89844c0.6333-0.3 0.86777-0.58489 0.70117-0.85156-0.067-0.16667-0.21777-0.1997-0.45117-0.0996-0.2666 0.16667-0.46631 0.26745-0.59961 0.30078l-1.8672 0.87695c0.017-0.12761-0.02542-0.24396 0.01758-0.37695l0.05078-0.20117 0.16406-2.957c0.2597-0.16673 0.35717-0.15518 0.63476-0.3418 1.3667-0.7 1.7678-1.1012 1.2012-1.2012l-1.3008 0.60156c-0.2272 0.11254-0.2804 0.12055-0.5 0.22852v-0.12891l0.05078-0.15039 0.29102-5.6016c0.1812-0.094 0.43822-0.20819 0.60742-0.29883 1.5667-0.9 2.9-1.8322 4-2.7988 0.4-0.26666 0.50078-0.53411 0.30078-0.80078-0.1-0.13333-0.21631-0.16637-0.34961-0.0996l-0.30078 0.29883-3.6504 2.4004c-0.2335 0.14411-0.42014 0.19434-0.64844 0.32812 0.01-0.0592-0.012-0.11854 0-0.17773l0.04883-0.30078 0.09375-2.0684 0.60938-0.33008c1.5-0.86666 2.7325-1.8667 3.6992-3 0.2-0.16667 0.33369-0.30039 0.40039-0.40039 0.1333-0.2 0.1333-0.36667 0-0.5s-0.45117 0.0159-0.95117 0.44922c-1.0333 0.93333-2.0663 1.7512-3.0996 2.4512l-0.66797 0.36133c0.01-0.071-4.22e-4 -0.14233 0.01758-0.21289l0.05078-0.25v-2.0996c-0.025 0.0445-0.05761 0.0775-0.09961 0.0996v-0.29883c0-0.2-0.06797-0.35117-0.20117-0.45117-0.022-0.0175-0.0678 6.2e-4 -0.0918-0.0137 0.3475-0.20941 0.68707-0.27891 1.043-0.63477 0.2666-0.2 0.53223-0.50039 0.79883-0.90039l1.0508-1.5996c0.5-0.86666 0.56592-1.5682 0.19922-2.1016-0.5666-0.76667-1.3167-0.96628-2.25-0.59961-1.4 0.6-2.4988 1.5012-3.2988 2.7012l-0.45703 0.8086c-0.019-0.1078-0.0127-0.22624-0.0957-0.3086-0.067-0.0667-0.2333-0.15-0.5-0.25 0 0.0667-0.06602 0.0996-0.19922 0.0996-0.025 0.0377-0.05761 0.0707-0.09961 0.0996-0.2883-0.0254-0.58869-0.0429-0.90039-0.0508l-0.375 0.043c0.071-0.20009 0.09903-0.44717 0.17383-0.64258 0.1334-0.46667 0.33486-0.93373 0.60156-1.4004 0.1333-0.4333 0.08301-0.74922-0.15039-0.94922-0.1333-0.0667-0.26709-0.0163-0.40039 0.15039l-0.90039 2.1992c-0.063 0.18399-0.11408 0.4313-0.17578 0.62109l-0.67383 0.0801c-0.3445 0.0348-0.64037-0.13696-0.94726-0.26172l0.09766-0.23828c0.4333-0.9 0.71631-1.7837 0.84961-2.6504 0.033-0.0667 7.91e-4 -0.20039-0.09961-0.40039-0.2 0.0667-0.31631 0.13255-0.34961 0.19922l-1 2.3516c-0.055 0.12062-0.09198 0.22389-0.14648 0.34375-0.2736-0.29564-0.52232-0.60972-0.60352-1.0449l-0.11328-0.72852c0.1413-0.29487 0.32519-0.5195 0.46289-0.82031l0.54883-1.1016c0.2-0.56667 0.2-0.94844 0-1.1484l-0.29883 0.19922-1.0098 1.8691c-0.07-0.25186-0.10834-0.50714-0.08984-0.76953v-0.40039l-0.22461-1.3809c0.1483-0.26813 0.33261-0.37104 0.47461-0.66797l0.94922-1.9512c0.033-0.0333 7.91e-4 -0.26589-0.09961-0.69922l-0.45117 0.25-1.1836 2.1719c-0.02-0.0422-0.04941-0.0773-0.06641-0.1211-0.056-0.26341-0.07183-0.53086-0.04883-0.80078l0.04883-0.19922v-0.0508l-0.58398-2.8008c0.1194-0.20168 0.38578-0.51287 0.48437-0.69922l0.25-0.55078c0.1667-0.26667 0.26748-0.48177 0.30078-0.64844 0.1-0.23333 0.06739-0.4-0.09961-0.5-0.1667-0.1-0.40117 0.0822-0.70117 0.54883l-0.09961 0.20117c-0.089 0.13915-0.28634 0.45723-0.40234 0.64063-0.029-0.0989-0.07966-0.18566-0.09766-0.29102-0.011-0.16888-0.011-0.35299 0-0.55078l-0.57617-2.6602c0.1167-0.19078 0.38866-0.46287 0.47656-0.63867l0.25-0.60156c0.033-0.0667 0.01426-0.18294-0.05274-0.34961l-0.40039 0.20117-0.47266 0.58399c-0.043-0.16087-0.12815-0.29926-0.12695-0.48438v-0.15039l-0.58594-2.3086c0.1622-0.23843 0.32413-0.37597 0.48633-0.64063l0.55078-1-0.15039-0.65039-0.20117 0.0996-0.91016 1.3477c-0.05-0.16397-0.12857-0.31219-0.13867-0.49805-0.01-0.0996-0.01-0.21588 0-0.34961l-0.70117-2.5996v0.04883l-0.04883-0.09961-0.20117-0.15039c-0.039-0.01972-0.06702-0.0028-0.10352-0.01367 0.083-0.1638 0.043-0.38456 0.1543-0.53516l0.44922-0.70117c0.9333-1.5 1.2182-3.033 0.85156-4.5996-0.2334-1.0667-0.85156-1.65-1.8516-1.75zm20.15 0c1.9333-0.1 3.7512 0.43296 5.4512 1.5996 1.0666 0.73332 1.6984 1.3845 1.8984 1.9512l0.05078 0.29883c-0.2 0.06667-0.3667 0.08411-0.5 0.05078-3-0.86665-5.3004-2.1671-6.9004-3.9004zm-20.4 0.95117c0.8 0 1.2341 0.51551 1.3008 1.5488 0.1 0.93332-0.08398 1.9333-0.55078 3-0.2666 0.6-0.56514 1.1329-0.89844 1.5996-0.1334 0.2-0.3 0.60117-0.5 1.2012-0.3333-0.93332-0.55039-1.6174-0.65039-2.0508l-0.15039-0.65039c-0.1-0.99999-0.1-2.0155 0-3.0488 0.1333-1.0333 0.61592-1.5663 1.4492-1.5996zm16.051 1h0.55078c0.9333 0.5 2.3151 0.75 4.1484 0.75 0.3667-0.03333 0.75039 0.11589 1.1504 0.44922 0.4667 0.36667 0.8 0.58372 1 0.65039l0.55078 0.25c-1.1333 0.33332-1.9667 0.51549-2.5 0.54883-0.8667 0.1-1.6496-0.06667-2.3496-0.5-1.1-0.86665-1.9334-1.5159-2.5-1.9492zm12.199 0.69922 4.3008 1.9004c1.5333 0.59999 2.7 0.98372 3.5 1.1504l1.4668 0.36524c0.3212 0.2903 0.33998 0.34492 0.54297 0.54297 0.02565 0.08582-0.0513 0.15122-0.0098 0.24024 0.19836 0.46283 0.79988 1.2802 1.7852 2.4316l-1.0351-0.0801-1.0996-0.10156-1.4004-0.19922c-0.5087-0.09539-1.0352-0.19172-1.5742-0.28711-0.5411-0.13708-1.0573-0.25728-1.625-0.41211-2.6667-0.79999-4.9516-1.4667-6.8516-2-1.1666-0.33332-2.1822-0.61823-3.0488-0.85156 0.4-0.36667 0.8167-0.58177 1.25-0.64844 0.3666-0.06667 0.81631-0.01823 1.3496 0.14844 0.4667 0.16667 0.94922 0.21706 1.4492 0.15039 0.5333-0.1 0.98486-0.31707 1.3516-0.65039 0.2666-0.23333 0.29921-0.51628 0.09961-0.84961-0.3-0.53332-0.45117-0.81628-0.45117-0.84961zm-3.2988 13.551c0.067 0.0333 0.15 0.0663 0.25 0.0996l0.19922 0.19922 0.59961 0.34961c0.6 0.36667 1.0845 0.63411 1.4512 0.80078l-0.09961 0.0996-0.25 0.65039c-0.033 0.13333-0.10117 0.3-0.20117 0.5-0.033-0.0333-0.04883-0.0663-0.04883-0.0996-0.033-0.23333-0.16709-0.43294-0.40039-0.59961l-0.5-0.70117-0.20117-0.3496c-0.067-0.1-0.15-0.13303-0.25-0.0996-0.1666-0.1-0.25-0.18333-0.25-0.25v-0.0508l-0.14844-0.15039-0.15039-0.29883h-0.05078c0.033-0.0333 0.05078-0.0663 0.05078-0.0996zm-8.4512 12.699c0.2667 0.13333 0.38486 0.33294 0.35156 0.59961 0 0.0667-0.04999 0.25078-0.15039 0.55078-0.5333 1.2667-1.5179 2.3655-2.9512 3.2988-0.2509 0.15965-1.041 0.44961-1.7441 0.71875-0.2802 0.0713-0.54286 0.14605-0.78516 0.22265 0.036-0.45028 0.08999-0.81011 0.17969-0.99023 0.8-1.7 1.8-3.0004 3-3.9004 0.8333-0.6 1.533-0.76667 2.0996-0.5zm25.352 1.6992c0.4 0.0333 0.7333 0.2 1 0.5 0.033 0.0333 0.24844 0.35117 0.64844 0.95117l0.40039 0.59968c0.2333 0.43333 0.61709 1.4004 1.1504 2.9004 0.1333 0.16667 0.08301 0.23255-0.15039 0.19922-0.7666-0.1-1.6329-0.58255-2.5996-1.4492-0.8667-0.76667-1.3841-1.4663-1.5508-2.0996-0.1333-0.76666 0.23486-1.3016 1.1016-1.6016z"/>
 <g transform="translate(926.4,138.2)">
  <path transform="translate(-848.6,2.2)" d="m7.8125e-4 -17.599c-4.8667 0-9.0178 1.7151-12.451 5.1484-3.4 3.4333-5.0996 7.5845-5.0996 12.451 0 4.8667 1.6996 9.0159 5.0996 12.449 3.4333 3.4333 7.5845 5.1504 12.451 5.1504s9.0159-1.7171 12.449-5.1504c3.4333-3.4333 5.1504-7.5826 5.1504-12.449 0-4.8667-1.7171-9.0178-5.1504-12.451-3.4333-3.4333-7.5826-5.1484-12.449-5.1484z" fill="#ef1d1e"/>
  <path transform="translate(-848.6,2.2)" d="m-1.8293-14.5c-0.51771 0.06198-0.90742 0.54505-1.1699 1.4492-0.3 1-0.3 2.5504 0 4.6504 0.033333 0.93333 0.048828 1.8171 0.048828 2.6504-0.033333 0.96667-0.099219 1.8504-0.19922 2.6504-0.73333 0.23333-1.3845 0.46589-1.9512 0.69922-2.0667 0.83333-3.0996 1.6492-3.0996 2.4492v0.25l0.15039 0.40039h0.40039c0.033333 0 1.6671-0.39922 4.9004-1.1992-0.26667 0.9-0.85 1.9329-1.75 3.0996-0.83333 1.1-1.5833 1.9663-2.25 2.5996-0.7 0.66667-1.1516 1.1163-1.3516 1.3496-0.13333 0.2-0.5151 0.55078-1.1484 1.0508-0.6 0.46667-1.1833 0.81745-1.75 1.0508-0.6 0.23333-0.90039 0.48333-0.90039 0.75 0 0.16667 0.13372 0.34883 0.40039 0.54883 0.26667 0.16667 0.6 0.25 1 0.25 0.96667 0 2.2496-0.80039 3.8496-2.4004 1.6-1.6333 2.6504-2.7826 3.1504-3.4492s1.0988-1.6163 1.7988-2.8496c0.66667-1.2333 1.1512-2.0996 1.4512-2.5996v-0.050781c0.0625 0 0.11094-0.017448 0.14844-0.050781-0.03737 0.035287-0.085807 0.070183-0.14844 0.10156 0.066667 1.0333 0.13255 1.9984 0.19922 2.8984l-0.34961 5.5c0 1.3333 0.38372 2.2674 1.1504 2.8008 0.73333 0.5 2.2663 0.78294 4.5996 0.84961 2.3 0.13333 4.0655-0.31628 5.2988-1.3496 1.3333-1.0667 1.9341-2.1829 1.8008-3.3496-0.06667-1.1333-0.34961-1.9512-0.84961-2.4512s-0.91667-0.81589-1.25-0.94922c-0.4-0.066667-0.78372 0.48373-1.1504 1.6504-0.43333 1.1333-0.91589 1.8155-1.4492 2.0488-0.56667 0.2-1.3671 0.40156-2.4004 0.60156-1.0667 0.3-1.7333 0.44922-2 0.44922-1 0-1.5174-1.0659-1.5508-3.1992 0.066667-2.1 0.099609-3.2008 0.099609-3.3008 0-0.96667-0.015495-1.55-0.048828-1.75-0.13333-0.3-0.36784-0.60039-0.70117-0.90039 2.8333-1 4.25-1.8837 4.25-2.6504 0-0.53333-0.19961-0.86667-0.59961-1-0.16667-0.1-0.58333-0.14844-1.25-0.14844-0.6 0-1.2163 0.14922-1.8496 0.44922-1.1 0.46667-1.9004 0.8-2.4004 1-0.066667-0.33333-0.099609-0.76745-0.099609-1.3008 0-0.83333 0.083334-1.7655 0.25-2.7988 0-0.2 0.017448-0.41706 0.050781-0.65039 0.16667-1.3 0.25-2.3174 0.25-3.0508 0-0.73333-0.017448-1.2333-0.050781-1.5-0.23333-0.86667-0.66745-1.2988-1.3008-1.2988-0.079167-0.0083-0.15456-0.0089-0.22852 0zm5.7285 1.75c-0.6 0.46667-1.3829 1.2167-2.3496 2.25-0.96667 1.0333-1.4492 1.8996-1.4492 2.5996 0 0.66667 0.015495 1.0174 0.048828 1.0508 0.066667 0.066667 0.10156 0.1151 0.10156 0.14844 0.13333 0.1 0.23216 0.15039 0.29883 0.15039 0.33333 0 1.2674-0.55039 2.8008-1.6504 1.6333-1.2 2.4492-2.0488 2.4492-2.5488 0-0.43333-0.19961-0.86745-0.59961-1.3008-0.4-0.46667-0.83412-0.69922-1.3008-0.69922zm-12.5 4.5996c-0.3 0-0.55 0.18411-0.75 0.55078-0.13333 0.33333-0.19922 0.64922-0.19922 0.94922 0 0.83333 0.16667 1.4496 0.5 1.8496 0.3 0.3 0.76706 0.48411 1.4004 0.55078 0.2 0.033333 0.43255 0.048828 0.69922 0.048828 0.2-0.033333 0.43451-0.081771 0.70117-0.14844 0.1-0.033333 0.21628-0.10117 0.34961-0.20117 0.83333-0.33333 1.25-0.75 1.25-1.25 0-0.43333-0.15117-0.71628-0.45117-0.84961-0.16667-0.066667-0.61628-0.16745-1.3496-0.30078-0.6-0.066667-1.0167-0.29922-1.25-0.69922-0.26667-0.33333-0.56706-0.5-0.90039-0.5z" fill="#fff"/>
  <path transform="translate(-848.6,2.2)" d="m7.8125e-4 -17.599c-4.8667 0-9.0178 1.7151-12.451 5.1484-3.4 3.4333-5.0996 7.5845-5.0996 12.451 0 4.8667 1.6996 9.0159 5.0996 12.449 3.4333 3.4333 7.5845 5.1504 12.451 5.1504 4.8667 0 9.0159-1.7171 12.449-5.1504 3.4333-3.4333 5.1504-7.5826 5.1504-12.449 0-4.8667-1.7171-9.0178-5.1504-12.451-3.4333-3.4333-7.5826-5.1484-12.449-5.1484z" fill="none" stroke="#000"/>
 </g>
 <path transform="translate(160.15,84.1)" d="m-155.15-84.1c-3.3333 0-5 1.6667-5 5v158.2c0 3.3333 1.6667 5 5 5h93.199c3.3333 0 5-1.6667 5-5v-158.2c0-3.3333-1.6667-5-5-5zm8.3008 7.1992h76.6c4.6667 0 7 2.3333 7 7v139.8c0 4.6667-2.3333 7-7 7h-76.6c-4.6667 0-7-2.3333-7-7v-139.8c0-4.6667 2.3333-7 7-7z" fill="#ef1d1e"/>
 <path transform="translate(160.15,84.1)" d="m-146.85-76.901c-4.6667 0-7 2.3333-7 7v139.8c0 4.6667 2.3333 7 7 7h76.6c4.6667 0 7-2.3333 7-7v-139.8c0-4.6667-2.3333-7-7-7z" fill="none" stroke="#000" stroke-width="1.2"/>
</svg>
