<svg width="103.2" height="168.2" preserveAspectRatio="none" version="1.1" viewBox="0 0 103.2 168.2" xmlns="http://www.w3.org/2000/svg">
 <path d="m13.301 7.1992c-4.6667 0-7 2.3333-7 7v139.8c0 4.6667 2.3333 7 7 7h76.6c4.6667 0 7-2.3333 7-7v-139.8c0-4.6667-2.3333-7-7-7z" fill="#fff"/>
 <path d="m62.301 34.301c-0.28815 1e-3 -0.57305 0.0671-0.85156 0.19922-0.53515 0.30443-0.86849 0.85482-1 1.6504-7e-3 0.0413-0.0222 0.0742-0.0488 0.0996l-0.0996 0.30078 0.0488-0.0508c-0.28399 1.3288-0.29951 2.5788-0.0488 3.75l-0.0508-0.0508c0.27643 1.0975 0.72604 2.1324 1.3496 3.1016 0 0.42354 1.3993 0.90089 1.6504-0.20122l0.90039-3.25v0.0508c0.0983-0.66575 0.1487-1.6503 0.15039-2.9512v-0.34961c6.7e-4 -0.9069-0.33267-1.5891-1-2.0488h0.0488c-0.32318-0.16927-0.67201-0.2526-1.0488-0.25zm-47.301 36.799c-0.8875 4e-3 -1.6046 0.25407-2.1504 0.75-0.81094 0.78763-1.2935 2.0376-1.4492 3.75-0.0642 0.80195-0.0138 1.519 0.15039 2.1504l0.0488 0.0508c0.18333 0.94115 0.6 1.8733 1.25 2.7988 0.41784 0.72291 0.88908 0.86525 1.5996 0.84959 0.71822-0.36276 1.0864-0.86276 1.1016-1.5 3e-3 -0.0686 0.0188-0.13451 0.0488-0.19922 0.24661-0.60091 0.43073-1.2172 0.55078-1.8496 0.46315-1.9557 0.44573-3.8569-0.0508-5.7012-0.0478-0.2069-0.18152-0.4724-0.40039-0.79883-0.17669-0.19661-0.40925-0.29739-0.69922-0.30078zm74.25 55.65c-0.39557-4e-3 -0.71146 0.0464-0.94922 0.15039l-0.0508 0.0488c-1.5573 0.78672-2.6581 2.3371-3.3008 4.6504-0.4215 2.1965 0.0998 3.0279 2.4004 1.9512 1.9583-1.2034 3.1579-2.8371 3.5996-4.9004-2e-3 -0.0242-2e-3 -0.0571 0-0.0996 0.0829-0.4763 0.017-0.89297-0.19922-1.25v0.0488c-0.18997-0.27097-0.43997-0.45313-0.75-0.54883h-0.0508c-0.16589-0.0332-0.39844-0.0507-0.69922-0.0508zm-59.199 10.699c1.5745-0.24331 1.2157-1.7143 0.84959-2.8984-0.49492-2.107-1.4794-3.7737-2.9512-5v0.0488c-6.3698-3.0254-2.9171 7.8496 2.1016 7.8496z" fill="#faea01"/>
 <path d="m22.301 35.1h-0.05078c-0.2 0.2-0.28333 0.48294-0.25 0.84961v0.050781l2.5996 25.699c3.3039 19.908 9.2852 47.285 26.562 71.273l25.305-2.9844c-18.984-28.004-26.616-53.372-28.25-93.86l-2.4667-0.37829-7.5508-0.44922c-3.1-0.1-4.6659-0.15039-4.6992-0.15039z" fill="#ef1d1e"/>
 <path d="m22.65 34.401c-0.2667 0-0.40039 0.16667-0.40039 0.5 0 3.2333 0.11631 5.8826 0.34961 7.9492 0.1667 1.5333 0.3333 3.8667 0.5 7l2.1504 19.25c0.1 0.66667 0.24922 1.6841 0.44922 3.0508l6.8008 25.15c0.2 0.63333 0.48291 1.5655 0.84961 2.7988 0.3333 1.1 0.6667 2.0012 1 2.7012 0.7333 1.6 1.7508 4.0167 3.0508 7.25l2.7988 5.75c0.4333 0.9 1.1349 2.1151 2.1016 3.6484 1 1.7 1.6996 2.9171 2.0996 3.6504l0.25 0.34961c0.044 0.0775 0.79852 1.2287 1.0449 1.6113-0.048 7e-3 -0.096-0.0202-0.14453-0.01-0.2031 0.0677-0.3698 0.16654-0.5 0.29883v0.0508c-0.042 0.0425-0.077 0.0929-0.10156 0.15039-0.067 0.16732-0.067 0.36693 0 0.59961l-0.25 2.6504v0.14844c7e-4 0.10495-0.0148 0.20573-0.0488 0.30078v8e-3c-0.1509-0.13623-0.42578-0.39756-0.55078-0.50781l-0.19922-0.19922c-0.3-0.2-0.49961-0.25039-0.59961-0.15039-0.067 0.0667-0.0512 0.15 0.0488 0.25l0.20117 0.19922 1.0488 1.166-0.34961 4.2852c-0.044 0.50599-0.24331 0.92265-0.59961 1.25-0.3522 0.36209-0.78321 0.55659-1.2871 0.59375-0.01-0.0887 3.3e-4 -0.26573-0.0137-0.34375l-0.2988-3.3008c-0.033-0.16667-0.1167-0.35078-0.25-0.55078-0.1667-0.2-0.28486-0.28333-0.35156-0.25-0.1667 0.0333-0.23252 0.13411-0.19922 0.30078 0 0.1 0.0168 0.26667 0.0508 0.5l0.16016 3.377c-0.1321-0.0613-0.28586-0.0328-0.41016-0.12695-0.9451-0.42963-1.7671-0.76865-2.5195-1.0547-0.025-0.23176-2.5e-4 -0.4636-0.0312-0.69531l-0.0508-0.55078c-0.067-0.76667-0.11514-1.35-0.14844-1.75-0.067-0.73333-0.20039-1.3167-0.40039-1.75l-0.25005-0.19922c-0.1 0.1-0.15039 0.18333-0.15039 0.25l0.19922 3.6992c0.022 0.40245 0.0105 0.39278 0.0215 0.72461-0.024-0.01-0.0463-0.0128-0.0703-0.0234l-0.30081-0.15043-2.3496-0.69141v-0.6582c0.067-1.0333-0.05-1.8996-0.34961-2.5996-0.033-0.0667-0.1167-0.21784-0.25-0.45117-0.2667 0.16667-0.38291 0.33333-0.34961 0.5 0.1333 0.6 0.19922 1.0671 0.19922 1.4004l0.0508 1c0 0.23881-0.0419 0.39407-0.0449 0.62695l-0.15625-0.0273c-1.1825-0.29805-2.2155-0.5151-3.0996-0.65039 0.01 0.0225 0.01 0.04 0 0.0508h-0.0508c-0.1333-0.0667-0.26514-0.0841-0.39844-0.0508-0.09 0-0.16133 0.0562-0.23633 0.10156-0.1096-0.26466-0.19105-0.64183-0.31445-0.85156l-0.55078-0.89844c-0.278-0.40632-0.7394-0.72075-1.1543-1.0586 0.1768-0.0771 0.30469-0.18943 0.30469-0.39258l-0.09963-0.59965c-0.037-0.0897-0.0716-0.17305-0.10156-0.25l-0.47266-2.457c0.1566-0.12935 0.42927-0.26391 0.57227-0.39258 0.7-0.63333 1.2-1.1333 1.5-1.5l0.15039-0.45117c-0.3667 0.1-0.56631 0.16784-0.59961 0.20117l-1.7949 1.3535c-0.01-0.0866-0.0576-0.16473-0.0566-0.25391v-0.34961l-0.39258-2.0195c0.1278-0.11621 0.38254-0.26928 0.49414-0.38086 0.7667-0.76667 1.3325-1.4992 1.6992-2.1992 0.1-0.13333 0.16592-0.23411 0.19922-0.30078 0.033-0.1-0.015-0.20078-0.14844-0.30078-0.1-0.1-0.2667-0.0322-0.5 0.20117-0.4 0.6-0.88447 1.1504-1.4512 1.6504-0.066 0.0665-0.43583 0.34948-0.54883 0.44922-0.011-0.0841-0.0498-0.16445-0.0508-0.25v-0.30078l-0.61328-2.5918c0.15-0.1407 0.4354-0.32361 0.5625-0.45703 0.76669-0.76667 1.3849-1.5496 1.8516-2.3496 0.1667-0.3 0.1667-0.5345 0-0.70117-0.1333-0.0667-0.3 0.0496-0.5 0.34961-0.6667 0.8-1.1841 1.3833-1.5508 1.75l-0.15039 0.15039c-0.098 0.0963-0.37282 0.2246-0.47852 0.32227 0-0.0254-0.0195-0.0466-0.0215-0.0723-0.013-0.15117-0.013-0.30039 0-0.44922l-0.6211-2.8691c0.1341-0.13902 0.40129-0.29427 0.52149-0.43164 0.6-0.73333 1.0167-1.2992 1.25-1.6992 0.1-0.13333 0.16592-0.23411 0.19922-0.30078 0.067-0.13333 0.0344-0.24961-0.0996-0.34961-0.2-0.1-0.41709 7.8e-4 -0.65039 0.30078l-1.4473 1.707c-0.018-0.0685-0.0427-0.12862-0.0527-0.20703l-0.0488-0.45117-0.55664-2.2754c0.1393-0.11719 0.44024-0.31856 0.55664-0.42383 0.9-0.9 1.5821-1.8167 2.0488-2.75 0.067-0.16667 0.067-0.28294 0-0.34961-0.067-0.0667-0.19844-0.0337-0.39844 0.0996-0.8333 0.9-1.4671 1.5667-1.9004 2-0.1258 0.17968-0.37261 0.35938-0.56641 0.53906-0.01-0.047-0.0272-0.0908-0.0332-0.13867l-0.0508-0.45117-0.41797-1.7227c0.1375-0.12423 0.38768-0.25297 0.51758-0.37695l1.4512-1.4492c0.2333-0.3 0.36514-0.46667 0.39844-0.5 0.1333-0.23333 0.1333-0.43489 0-0.60156-0.1333-0.13333-0.26514-0.13333-0.39844 0-0.1667 0.2-0.30039 0.33372-0.40039 0.40039l-1.8008 1.75c-0.014-0.0672-0.0398-0.13039-0.0488-0.19922l-0.0508-0.5-0.56836-2.1328c0.1552-0.14316 0.37228-0.27266 0.51758-0.41797 0.76669-0.83333 1.4508-1.7171 2.0508-2.6504 0.067-0.0333 0.16748-0.13218 0.30078-0.29883 0.1-0.1 0.0822-0.20078-0.0508-0.30078-0.1333-0.0667-0.3-0.0492-0.5 0.0508s-0.33369 0.24923-0.40039 0.44922l-0.0996 0.20117-1.5508 1.5996c-0.1837 0.17694-0.38161 0.27783-0.56641 0.44922-0.01-0.0362-0.0302-0.0626-0.0332-0.0996l-0.0488-0.5-0.54688-2.082c0.1134-0.12237 0.3992-0.30093 0.4961-0.41797 0.8333-0.93332 1.4341-1.8675 1.8008-2.8008 0.1-0.23333 0.16592-0.4 0.19922-0.5 0.067-0.16667 0.0473-0.2655-0.0527-0.29883-0.1333-0.06667-0.28252-0.03372-0.44922 0.09961-0.1333 0.23333-0.23408 0.38255-0.30078 0.44922l-1.9726 2.6797c-0.026-0.09311-0.0622-0.18317-0.0742-0.2793l-0.0527-0.44922-0.55273-1.9863c0.1534-0.17664 0.35461-0.28193 0.50391-0.46484l1.0996-1.5488c0.033-0.06667 0.0508-0.34961 0.0508-0.84961-0.1333-0.03333-0.34844 0.13335-0.64844 0.5l-0.75 1c-0.1328 0.16024-0.39697 0.36994-0.54297 0.53516-0.018-0.07931-0.0496-0.15468-0.0606-0.23633l-0.049-0.3496-0.51757-1.6895c0.1691-0.20804 0.34977-0.28754 0.51757-0.50977l1.2988-1.9004c0.1-0.13333 0.25117-0.36785 0.45117-0.70117 0.1667-0.33333 0.14962-0.59884-0.0508-0.79883-0.1-0.1-0.23369-0.06706-0.40039 0.09961-0.2333 0.3-0.36514 0.44922-0.39843 0.44922-0.033 0.26665-0.068 0.43333-0.10157 0.5l-1.0996 1.4004c-0.1884 0.23863-0.34214 0.32776-0.52734 0.55274-0.02-0.085-0.0633-0.16422-0.0723-0.25195l-0.0508-0.30078-0.48828-1.5977 0.48828-0.55273c0.8-0.96665 1.3679-1.8988 1.7012-2.7988 0.1667-0.23333 0.26553-0.43294 0.29883-0.59961 0.1-0.23333 0.034-0.4349-0.19922-0.60156-0.2333-0.16667-0.41748-0.06588-0.55078 0.30078-0.3 0.69999-0.73213 1.483-1.2988 2.3496l-0.25 0.40039c-0.1118 0.17701-0.35692 0.32231-0.48242 0.49609-0.036-0.16606-0.12958-0.31856-0.11718-0.49609l-0.60938-1.8672c0.1557-0.18941 0.35951-0.33745 0.50781-0.5332 0.7-0.93332 1.4016-1.9663 2.1016-3.0996 0.49999-0.66665 0.58329-1.0833 0.25-1.25-0.2333-0.13333-0.41749-0.08294-0.55079 0.15039-0.1333 0.33332-0.24961 0.55039-0.34961 0.65039-0.6 0.96665-1.1833 1.8329-1.75 2.5996-0.1477 0.20306-0.35131 0.40639-0.51171 0.60938-0.01-0.03835-0.0321-0.07013-0.0391-0.10938l-0.09948-0.40039-0.75586-2.4082c0.101-0.1293 0.39148-0.44912 0.45508-0.54102 1.0333-1.3666 1.6516-2.7349 1.8516-4.1016 0.067-0.23333 0.11513-0.4 0.14843-0.5 0.033-0.2 0.0182-0.31628-0.0488-0.34961-0.2-0.03333-0.35117 0.03451-0.45117 0.20117 0 0.03333-0.083 0.21551-0.25 0.54883l-0.25 0.59961c-0.6 1.3333-1.0321 2.2345-1.2988 2.7012-0.1502 0.24738-0.33313 0.38552-0.49023 0.60938-0.015-0.05499-0.0496-0.10356-0.0606-0.16016l-0.0488-0.29883c-0.177-0.50962-0.34361-0.9767-0.5-1.4004 0.034-0.08203 0.034-0.18281 0-0.30078-0.1-0.33332-0.33448-0.46706-0.70118-0.40039-0.01 0-0.0116 0.01284-0.0156 0.01367 0.021-0.05258 0.11328-0.1845 0.11328-0.21289l0.45117-1.3496c0.5667-1.9333 0.70039-3.6834 0.40039-5.25-0.1333-0.76667-0.2167-1.2163-0.25-1.3496-0.1667-0.46665-0.48447-0.76707-0.95117-0.90039-1.1-0.33333-1.9837 0.09883-2.6504 1.2988-0.9667 1.7666-1.1817 3.5845-0.64844 5.4512 0.1121 0.40025 0.30468 0.7518 0.45508 1.1289-0.085-0.06118-0.13626-0.17969-0.25586-0.17969-0.2-0.03333-0.39961 0.05-0.59961 0.25l-0.0996 0.09961-0.10156 0.40039c-0.2113 0.29036-0.44392 0.62371-0.69922 1l-0.15039 0.30078c-0.01 0.0218-0.0272 0.03917-0.0352 0.06055l-1.6094-2.2109c-0.2333-0.3-0.4-0.41628-0.5-0.34961-0.1333 0.1-0.16591 0.33256-0.0996 0.69922 0.1667 0.46667 0.31787 0.76706 0.45117 0.90039l0.89844 1.1992c0.1969 0.26121 0.21694 0.26154 0.39844 0.5-0.5197 0.83856-1.0212 1.7653-1.498 2.8008l-0.0488 0.19922c-0.029 0.11599-0.10269 0.1998-0.15039 0.30273l-0.45117-0.55273-0.75-1.1992c-0.2333-0.36667-0.44844-0.50039-0.64844-0.40039-0.1667 0.1-0.21709 0.21628-0.15039 0.34961 0.033 0.06667 0.099 0.1849 0.19922 0.35156 0.2667 0.6 0.61748 1.1484 1.0508 1.6484l0.40625 0.50391c-0.334 0.75044-0.74556 1.7644-1.2559 3.0977l-0.0508 0.34961c-0.01 0.03258-0.0203 0.0582-0.0273 0.08984l-1.373-1.1895v0.59961c0 0.23332 0.083 0.4155 0.25 0.54883l0.34961 0.40039c0.146 0.14601 0.33402 0.26937 0.48242 0.41406-0.2622 0.79197-0.59091 1.9818-0.97461 3.4863-0.067-0.01092-0.12803-0.05922-0.20703 0l-0.0996 0.19922c0 0.02045 0.10859 0.20424 0.18359 0.33789l-1.4805 70.113h94.797l-0.69922-21.451c-0.4094-0.92343-0.86523-1.8-1.3652-2.6367l1.0156-0.76172c0.1333-0.1 0.26709-0.36745 0.40039-0.80078-0.1667-0.0667-0.39922 0.0496-0.69922 0.34961l-0.5 0.34961c-0.1699 0.13791-0.36045 0.19735-0.53125 0.33203l-1.0704-1.7812-0.0488-0.0508c-0.026-0.0279-0.0521-0.0723-0.0781-0.10352 0.2076-0.15781 0.31214-0.17798 0.52734-0.3457l0.59961-0.44922c0.1-0.0667 0.1833-0.26823 0.25-0.60156h-0.19922l-1.4785 0.97266-0.0723-0.1211c-0.289-0.50442-0.73871-1.1711-1.3496-2l0.0508 0.0488-0.082-0.10156 1.332-0.99805c0.1-0.0667 0.15039-0.23333 0.15039-0.5l-0.30078 0.0996-1.0508 0.59961c-0.2284 0.13279-0.30006 0.16613-0.50976 0.28711l-0.0899-0.13672c-0.3803-0.5306-0.74661-1.0306-1.0996-1.5-0.1991-0.45261-0.51502-0.85183-0.94922-1.1992l-0.10156-0.0996c-0.1625-0.13333-0.31172-0.20117-0.44922-0.20117-0.1382-0.0461-0.30863 0.13056-0.46093 0.18359 0.2767-0.34216 0.62014-0.66144 0.81054-1.0332 0.3667-0.76667 0.56631-1.5167 0.59961-2.25 0.067-0.56667-0.1-0.96589-0.5-1.1992-0.467-0.333-0.94922-0.43411-1.4492-0.30078-0.8667 0.23333-1.6496 0.79922-2.3496 1.6992-0.4333 0.56666-0.81709 1.2682-1.1504 2.1016-0.077 0.21224-0.10793 0.59948-0.17383 0.85352-0.014-0.0232-0.0104-0.0863-0.0254-0.10352-0.1-0.1-0.2667-0.15039-0.5-0.15039-0.037 0.0107-0.072 0.0107-0.10156 0l-1.5312 0.125c0.026-0.24637 1e-3 -0.36882 0.0312-0.625l0.10156-0.59961c0.067-0.3-9.7e-4 -0.46667-0.20117-0.5-0.2667-0.0667-0.40039 0.0651-0.40039 0.39844l-0.21484 1.3262c-0.2802 0.0194-0.56029 0.0364-0.83399-0.0762-0.3645-0.12396-0.66489-0.33907-0.90039-0.64844-0.2323-0.30339-0.36599-0.65417-0.40039-1.0508l-0.0547-0.625c0.16339-0.21374 0.39668-0.40989 0.55468-0.625l1.3496-1.8008c0.1-0.23333 0.13486-0.36511 0.10156-0.39844-0.1333-0.13333-0.28447-0.0849-0.45117 0.14844l-1.6562 1.8203c-0.036-0.18637-0.057-0.3754-0.043-0.57031v-0.29883l-0.12304-2.0508c0.1423-0.18634 0.45206-0.47798 0.57226-0.65039 0.6-0.76667 1.1-1.6484 1.5-2.6484 0.067-0.1 0.11709-0.16784 0.15039-0.20117 0.033-0.1 6.9e-4 -0.19883-0.0996-0.29883-0.1333-0.0667-0.23408-0.0667-0.30078 0-0.067 0.1-0.11709 0.16589-0.15039 0.19922l-1.9414 2.4707c-1e-3 -8e-3 -0.01-0.0134-0.01-0.0215-0.032-0.3418 6.1e-4 -0.67513 0.0996-1l-0.15039-1.9219c0.1638-0.23092 0.39418-0.44503 0.55078-0.67773l1.0508-1.5488c0.033-0.0667 0.1167-0.15 0.25-0.25 0.1-0.1 0.0832-0.21823-0.0508-0.35156-0.1333-0.1-0.24961-0.1-0.34961 0-0.1333 0.16667-0.23408 0.26745-0.30078 0.30078l-0.65039 0.84961c-0.2662 0.33465-0.36692 0.44745-0.60352 0.74219-0.037-0.18004-0.0569-0.36007-0.0449-0.54102v-0.30068l-0.19922-2.1914 1.9492-2.4082c0.067-0.13333 0.067-0.2845 0-0.45117-0.067-0.0667-0.11709-0.0667-0.15039 0l-0.10156 0.15039c-0.4333 0.3-0.83447 0.65078-1.2012 1.0508-0.2612 0.33377-0.39858 0.46703-0.60938 0.71875-0.02-0.10684-0.038-0.21295-0.041-0.31836v-0.35156l-0.19141-2.1621c0.1171-0.16445 0.43887-0.48199 0.54297-0.63672l0.39844-0.59961c0.067-0.1 0.20039-0.26667 0.40039-0.5 0.1333-0.2 0.1333-0.35117 0-0.45117-0.3-0.2-0.60039-0.0488-0.90039 0.45117l-0.14844 0.14844c-0.1024 0.1438-0.33136 0.37188-0.43945 0.51953-0.025-0.15422-0.0736-0.30029-0.0605-0.46875v-0.30078l-0.19727-1.9746c0.229-0.29896 0.29428-0.33706 0.54688-0.67383l0.44922-0.60156c0.1-0.1 0.1833-0.43334 0.25-1-0.1667-0.0333-0.39922 0.13333-0.69922 0.5l-0.0996 0.15039c-0.2367 0.30624-0.36816 0.43156-0.56445 0.66797-0.035-0.18799-0.10644-0.36801-0.0859-0.56836v-0.39844l-0.16992-1.5977c0.1398-0.16023 0.22644-0.23745 0.36914-0.40234l0.15039-0.15039c0.8352-0.96667 1.3023-1.8504 1.4023-2.6504l-2.0742 2.4121c-0.05-0.19846-0.0962-0.39729-0.0762-0.61133v-0.40039l-0.30078-2.6641c0.047-0.0761 0.26578-0.32307 0.30078-0.38672l0.19946-0.34961c0.2667-0.4 0.73369-0.98335 1.4004-1.75 0.033-0.03333 0.0508-0.18255 0.0508-0.44922l-0.34961 0.09961-1.7578 2.0605c-0.024-0.15385-0.044-0.30782-0.043-0.46094v-0.30078l-0.20898-1.4629c0.161-0.18828 0.2432-0.2403 0.4082-0.43555l0.10156-0.15039c1.0333-1.2667 1.6321-2.1 1.7988-2.5 0.067-0.16667 0.0512-0.33335-0.0488-0.5l-0.20117-0.05078-1.6992 1.9512c-0.2481 0.33079-0.36031 0.45877-0.56641 0.72656-0.033-0.17459-0.096-0.34098-0.084-0.52735v-0.40039l-0.30859-2.3379c0.1732-0.24392 0.33351-0.35684 0.50781-0.61133l1.4004-1.9512c0.033-0.36667 0.0656-0.63217 0.0996-0.79883-0.1667 0-0.36631 0.14923-0.59961 0.44922l-1.5644 2.1055c-0.069-0.24661-0.11784-0.49613-0.0859-0.75586l-0.26172-1.7559c0.1753-0.21129 0.33492-0.32199 0.51172-0.54297l1.9004-2.4004c0.067-0.06667 0.11709-0.18296 0.15039-0.34961 0.033-0.2 0.0162-0.33372-0.0508-0.40039-0.1667-0.16667-0.36631-0.08333-0.59961 0.25l-1.75 2.1504c-0.082 0.1038-0.28214 0.27062-0.36914 0.37695-0.029-0.17546-0.0971-0.34507-0.0801-0.52734v-0.25l-0.24609-1.5938 2.5449-3.457c0.067-0.06667 0.10156-0.18294 0.10156-0.34961 0-0.13332-0.035-0.21667-0.10156-0.25-0.2333-0.16665-0.43291-0.09883-0.59961 0.20117l-1.5996 2.3984c-0.1352 0.17823-0.38406 0.40476-0.53516 0.58984-0.028-0.12756-0.0654-0.25246-0.0644-0.38867v-0.25l-0.34375-1.9277c0.1542-0.20644 0.34424-0.35949 0.49414-0.57226l2-3.0508c0.033-0.06667 0.13213-0.18294 0.29883-0.34961 0.1-0.13333 0.05-0.26706-0.15039-0.40039-0.2-0.13332-0.46553 0.01784-0.79883 0.45117l-1.5508 2.2988c-0.1451 0.2032-0.35947 0.42176-0.51367 0.62695-0.036-0.1917-0.10564-0.38214-0.0859-0.57617l-0.42197-2.2812 0.52149-0.61914c0.7667-0.96665 1.4837-1.9667 2.1504-3 0.5667-0.79999 0.79922-1.4492 0.69922-1.9492-0.4 0.4-0.66553 0.69844-0.79883 0.89844-1.0333 1.4333-1.7833 2.4333-2.25 3-0.1558 0.19622-0.43367 0.46954-0.60547 0.67578-0.01-0.04472-0.0369-0.07856-0.0449-0.125-0.011-0.17253-0.011-0.35664 0-0.55078l-0.41018-2.1895 0.50977-0.50977c1.3-1.4 2.2671-2.5996 2.9004-3.5996 0.3-0.4 0.3833-0.66745 0.25-0.80078-0.1333-0.06667-0.26709-0.03372-0.40039 0.09961l-0.34961 0.35156-3.1641 3.5371c-0.01-0.04741-0.0292-0.08879-0.0352-0.13867l-0.0508-0.5 0.0508 0.20117-0.41406-2.0605 0.51367-0.49024c1.1667-1.2333 2-2.433 2.5-3.5996 0.1667-0.43333 0.19931-0.68333 0.0996-0.75-0.2333-0.13333-0.45039 3.91e-4 -0.65039 0.40039-0.5333 0.99999-1.2659 2-2.1992 3-0.054 0.06338-0.43093 0.41696-0.51953 0.51172-0.03-0.18735-0.10268-0.37176-0.0801-0.5625l-0.80071-3.2891c0.02-0.02751 0.0796-0.08428 0.0996-0.11133l0.4004-0.54883c0.8667-1.2 1.6825-2.4675 2.4492-3.8008 0.1667-0.23332 0.1667-0.4 0-0.5-0.067-0.06667-0.21592 0.0012-0.44922 0.20117l-2.25 3.0996c-0.2335 0.30926-0.31068 0.3863-0.52148 0.66211-0.027-0.10388-0.0652-0.20265-0.0762-0.3125l-0.0527-0.40039-0.48828-2c0.1249-0.14888 0.38858-0.42249 0.48828-0.54883 1.0333-1.3333 1.7679-2.5175 2.2012-3.5508 0.033-0.06667 0.0508-0.28372 0.0508-0.65039-0.1667 0.03333-0.28291 0.08372-0.34961 0.15039-0.9667 1.3-1.6992 2.2826-2.1992 2.9492l-0.5 0.66406c-0.061-0.24736-0.13386-0.49071-0.10156-0.76367l-0.67773-2.4688 0.0645-0.08008h0.0117c0-0.0013 2.3e-4 -0.0045-0.01-0.0059l0.40625-0.49414c1-1.4 1.8004-2.7179 2.4004-3.9512 0.067-0.23332 0.0344-0.4155-0.0996-0.54883-0.1667-0.13333-0.31788-0.06745-0.45118 0.19922-1.2 1.6666-1.9325 2.7326-2.1992 3.1992-0.1279 0.22562-0.38951 0.49016-0.54101 0.72266 0-0.0081-0.01-0.01332-0.01-0.02148-0.047-0.20052-0.0628-0.41758-0.0488-0.65039l-0.79102-2.832c0.067-0.0837 0.12255-0.13399 0.18945-0.21875l0.25-0.29883c0.9333-1.2333 1.6349-2.3496 2.1016-3.3496-0.033-0.2-0.0508-0.36667-0.0508-0.5-0.2333 0.1-0.38252 0.16589-0.44921 0.19922l-2.3926 3.2461c-0.033-0.11694-0.095-0.21664-0.10742-0.3457l-0.0508-0.34961-0.73047-2.3262 0.42969-0.57422c0.8667-1.1 1.45-2.1 1.75-3-0.033-0.33333-0.0488-0.58335-0.0488-0.75-0.3 0.16665-0.4667 0.28294-0.5 0.34961-0.4667 0.86665-0.98408 1.6826-1.5508 2.4492l-0.48632 0.625c-0.014-0.04659-0.0515-0.07621-0.0625-0.125-0.04-0.16667-0.0578-0.33333-0.0508-0.5l-0.89257-2.457c0.1421-0.23386 0.31076-0.37749 0.44336-0.64258 0.29999-0.63332 0.68173-1.6159 1.1484-2.9492 0.1-0.46667 0.034-0.88335-0.19922-1.25-0.1667 0.1-0.26748 0.16588-0.30078 0.19922l-0.49962 1.4004c-0.1667 0.53332-0.36631 1.0159-0.59961 1.4492-0.1361 0.3025-0.32024 0.48954-0.46484 0.77148-0.02-0.06255-0.069-0.10363-0.084-0.16992-0.041-0.16914-0.0578-0.33581-0.0508-0.5-0.3669-1.0206-0.80098-2.0884-1.3008-3.2012l0.0508-0.04883c0.033-0.13333 0.0162-0.26707-0.0508-0.40039-0.1-0.16667-0.23174-0.25-0.39843-0.25-0.049-0.01213-0.11087 0.03164-0.16407 0.03711 0.1202-0.42782 0.28238-0.89869 0.36328-1.2871 0.4-1.5333 0.5667-3.1845 0.5-4.9512 0-0.96665-0.48252-1.55-1.4492-1.75-0.5667-0.13333-1.0512-0.08294-1.4512 0.15039-0.4333 0.23333-0.71631 0.61707-0.84961 1.1504-0.3333 1.7333-0.35038 3.2508-0.0508 4.5508 0.085 0.35261 0.22523 0.56702 0.32813 0.875-0.1995-0.06101-0.40406-0.07001-0.62696 0.125l-0.15039 0.14844c-0.7337 0.6785-1.4663 1.5468-2.1992 2.6016l-0.10157 0.25c-0.013 0.03754-0.0494 0.06177-0.0645 0.09766-0.1249-0.22285-0.26127-0.31091-0.38477-0.54883l-0.80078-1.6504-0.59961-1.5c-0.2667-0.56667-0.58252-1.0318-0.94922-1.3984 0.1667 1.1333 0.4671 2.2496 0.9004 3.3496 0.19999 0.56665 0.51591 1.2159 0.94921 1.9492l0.40039 0.61524c-0.5182 0.84615-0.99729 1.6788-1.4004 2.4844l-0.0508 0.25c-0.019 0.10626-0.10417 0.18045-0.13867 0.2793-0.1413-0.20728-0.26716-0.36577-0.41016-0.57812l-1.2012-1.7012-0.39843-0.39844c-0.1 0.23333-0.1 0.46589 0 0.69922 0.36669 0.79999 0.76591 1.55 1.1992 2.25 0.09 0.17182 0.28448 0.41018 0.39258 0.59375-0.3098 0.65345-0.65347 1.4965-1.043 2.6055l-0.0488 0.20117c-0.018 0.08147-0.0492 0.14989-0.0742 0.22461l-1.627-2.0254c-0.2-0.26665-0.38213-0.35-0.54882-0.25-0.1667 0.1-0.1341 0.26668 0.0996 0.5l1.7695 2.4355-0.86914 2.6152v0.29883c-0.017 0.15729-0.064 0.29811-0.10938 0.43945-0.1374-0.18672-0.37549-0.53628-0.49219-0.68945l-1.1992-1.5488c-0.067 0.43332-0.0838 0.66588-0.0508 0.69922l1.4805 2.2734c-0.2001 0.74148-0.4474 1.7114-0.7793 3.0762l-0.0508 0.15039c0 0.10948-0.0376 0.20642-0.0586 0.30859-0.1331-0.17305-0.39099-0.46408-0.49219-0.60742-0.6-0.76665-0.91787-1.5671-0.95117-2.4004-0.4333-3.9999-0.69883-7-0.79883-9-0.033-1.4667-0.18447-3.6334-0.45117-6.5-0.067-1.0333-0.0996-2.5663-0.0996-4.5996v-1.1504c-0.1333-0.36667-0.51709-0.55078-1.1504-0.55078-2.1 0-5.2822-0.09883-9.5488-0.29883-1.8333-0.06667-4.6183-0.23333-8.3516-0.5-1.4-0.06667-2.4484-0.1345-3.1484-0.20117-1.7307-0.06657-3.0278-0.13266-3.8945-0.19922zm39.25 0.90026c0.3-0.2 0.60039-0.18451 0.90039 0.04883 0.4 0.26667 0.59961 0.68335 0.59961 1.25 0 1.4333-0.05 2.4837-0.15039 3.1504l-0.0996 0.59961-0.75 2.5508c-0.6333-1.1-1.0345-2.0496-1.2012-2.8496-0.26671-1.0667-0.24943-2.1675 0.05077-3.3008 0.067-0.36667 0.13252-0.63412 0.19922-0.80078 0.067-0.3 0.21787-0.5151 0.45117-0.64844zm-38.75 0.34961c0.3 0 0.73213 0.06589 1.2988 0.19922 2 0 5 0.06784 9 0.20117 1.2 0 3.0004 0.06589 5.4004 0.19922 1.1667 0.03333 2.9341 0.13412 5.3008 0.30078 0.5 0 1.25 0.0155 2.25 0.04883 0.6667-0.1 1.0659 0.01628 1.1992 0.34961 0.067 0.13333 0.0996 0.56746 0.0996 1.3008 0 2.0666 0.083 3.8496 0.25 5.3496 0.1333 1.4333 0.25156 3.6 0.35156 6.5 0.2333 3.9666 0.43291 6.6004 0.59961 7.9004 0.2667 2.0666 0.7667 5.1675 1.5 9.3008l1.4004 7.5996c0.3 1.4 0.74961 3.5163 1.3496 6.3496 0.3667 1.4667 0.95 3.6508 1.75 6.5508 0.7333 3.0666 1.4 5.3322 2 6.7988 0.5333 1.3 1.3163 3.3 2.3496 6l3.3496 7.4004c0.5 1.0667 1.6163 3.0996 3.3496 6.0996 1.4 2.5333 2.5008 4.3996 3.3008 5.5996 0.5333 0.76666 1.2329 1.9682 2.0996 3.6016l3.5996 5.6992c0.1333 0.2 0.16826 0.38411 0.10156 0.55078-0.067 0.16667-0.21787 0.25-0.45117 0.25-4.9666 0.33333-7.9996 0.54844-9.0996 0.64844l-11.551 1.3516c-0.7602 0.0992-1.3687 0.0615-1.834-0.10156-0.097-0.0699-0.19912-0.16704-0.29882-0.25391-0.4295-0.23399-0.84422-0.50855-1.166-1.0449-0.5667-0.96667-1.3845-2.2012-2.4512-3.7012-1.3333-1.8667-2.1821-3.0818-2.5488-3.6484-1.3-2.3333-2.3-4.0678-3-5.2012-0.9-1.5-2.5337-4.8005-4.9004-9.9004-0.3333-0.76667-0.78291-1.9488-1.3496-3.5488-0.5333-1.6-0.98291-2.7841-1.3496-3.5508-0.5-1.0667-1.1667-2.8671-2-5.4004-0.3-0.89999-0.68369-2.3167-1.1504-4.25-0.63329-2.0333-1.1004-3.5663-1.4004-4.5996l-2.3496-9.1992c-0.1333-0.43334-0.35039-1.5167-0.65039-3.25l-1.1992-6c-0.3-1.8667-0.56748-4.0334-0.80078-6.5-0.4333-3.7-0.74922-6.4675-0.94922-8.3008l-0.5-5.0996c-0.1667-2.1666-0.48447-5.4167-0.95117-9.75l-0.19922-2.6504c-0.033-0.13332 0.05-0.19921 0.25-0.19922zm27.199 24.049 0.5 0.85156c0.1411 0.21461 0.31949 0.33798 0.46289 0.54688l-0.11328 0.60156 0.0508-0.09961v0.05078l-0.0508 0.04883c-0.2791 0.23829-0.37008 0.7201-0.33008 1.3711-0.09-0.47707-0.17163-0.76719-0.26953-1.4199zm-35.35 12.301 0.25 0.40039c0.4333 1.7666 0.45038 3.5322 0.0508 5.2988l-0.5508 1.8008-0.0996 0.25c0.033 0.36667-0.16631 0.66706-0.59961 0.90039l-0.45117-0.59961c-0.5333-0.66665-0.91709-1.4845-1.1504-2.4512-0.1333-0.59999-0.18174-1.2492-0.14844-1.9492 0.1333-1.5 0.51514-2.5504 1.1484-3.1504 0.3667-0.33333 0.88408-0.5 1.5508-0.5zm50.059 37.754c0.091 0.17093 0.22126 0.3798 0.31446 0.55273-0.1348-0.1429-0.28995-0.30233-0.37305-0.40625-0.039-0.0521 0.0746-0.0957 0.0586-0.14648zm3.3262 5.8398c0.41949 0.71363 0.72154 1.3129 1.1699 2.0547-0.43262-0.56596-0.73386-1.0496-0.90039-1.4492-0.1667-0.23333-0.26748-0.4155-0.30078-0.54883-9e-3 -0.0204 0.0286-0.0367 0.0312-0.0566zm1.7246 3.0312c0.03 0.0483 0.0462 0.0824 0.0762 0.13086-0.02-0.0272-0.0719-0.0842-0.0859-0.10547-0.01-8e-3 0.0128-0.017 0.01-0.0254zm19.641 9.0742c0.2333 0.0333 0.34961 0.28333 0.34961 0.75-0.3667 1.8333-1.4325 3.2849-3.1992 4.3516l-1.3008 0.64844 0.25-1.5996c0.5667-2.0667 1.5008-3.4329 2.8008-4.0996 0.3-0.16667 0.66631-0.18393 1.0996-0.0508zm-63.801 2.3516c0.6-0.16667 1.0845-0.10078 1.4512 0.19922 1.2667 1.1 2.1504 2.6174 2.6504 4.5508 0.067 0.2 0.15 0.51589 0.25 0.94922 0.021 0.064 0.0607 0.16449 0.0957 0.25586l0.0312 0.19531c0.01 0.10976-0.013 0.21335-0.12695 0.29883-0.2333 0.13333-0.50078 0.0829-0.80078-0.15039-1-0.7-1.6996-1.2329-2.0996-1.5996-0.7333-0.66667-1.2508-1.3837-1.5508-2.1504-0.033-0.0667-0.18252-0.59961-0.44922-1.5996 0-0.53333 0.18213-0.84922 0.54883-0.94922z"/>
 <path d="m33.949 41.9c-0.12253 0.02396-0.22136 0.0569-0.29883 0.09961-0.21315 0.15391-0.26354 0.35352-0.15039 0.59961l0.40039 0.40039c0.12708 0.11432 0.22591 0.2151 0.29883 0.30078 0.0269 0.03216 0.0444 0.04765 0.0508 0.04883 0.13347 0.37513 0.28269 0.75886 0.44922 1.1504 0.53606 1.316 0.78607 2.6997 0.75 4.1504l-0.0996 0.75c-3e-3 0.03555-0.0188 0.05104-0.0488 0.04883 3e-3 0.02982-0.0148 0.04727-0.0508 0.05078l-1.1992 0.34961h-0.20117c-0.16511 0.04453-0.34727 0.07748-0.54883 0.09961l-2.1504 0.25h-0.5l-0.30082 0.050778h-0.25l-0.15039 0.05078c-0.17149 0.05573-0.27032 0.15456-0.29883 0.29883l-0.0508 0.20117v0.29883l0.0508 0.15039h-0.0508l0.0996 0.15039v-0.05078l0.25 0.20117 0.0508 0.04883v0.05078l0.15039 0.04883h0.0488l0.25 0.15039c0.18633 0.09649 0.42083 0.14688 0.70117 0.15039l2.1504 0.05078c0.7668-0.04401 1.4819-0.12735 2.1484-0.25 0.0801-0.03685 0.18086-0.05429 0.30078-0.05078 0.0288-0.0011 0.0462-0.0011 0.0508 0 0.0343 0.03763 0.0498 0.07057 0.0488 0.09961 1e-3 0.02839-0.0142 0.04583-0.0488 0.05078-0.0384 0.0776-0.0888 0.14349-0.15039 0.19922-0.0143 0.01354-0.0318 0.01354-0.0508 0-0.38229 0.07122-0.61485 0.12162-0.69922 0.15039l-0.0996 0.09961c-0.28333 0.31667-0.56823 0.61706-0.85156 0.90039-0.30794 0.43359-0.59088 0.90065-0.84961 1.4004h-0.0488c-0.23971 0.42578-0.40638 0.87539-0.5 1.3496-0.13216 0.60872-0.18255 1.2424-0.15039 1.9004-6.7e-4 0.61419 0.1815 1.1646 0.54883 1.6504 0.35013 0.49154 0.71836 0.95664 1.1016 1.3984v0.050777c0.13242 0.1375 0.29909 0.20338 0.5 0.19922 0.55013 0.19935 1.0986 0.35052 1.6484 0.45117 0.0362 0.0027 0.0537 0.0027 0.0508 0l0.15039 0.15039c0.0314 0.03021 0.0469 0.0457 0.0488 0.04883-1e-3 0.04297-0.0168 0.07591-0.0488 0.09961-0.25755 0.47786-0.5405 0.94492-0.84961 1.4004v0.05078l-0.20117 0.19922c-0.11667 0.15-0.25039 0.28372-0.40039 0.40039-0.89089 1.0198-1.323 2.1031-1.2988 3.25v0.05078c0.14388 0.81471 0.57604 1.3302 1.2988 1.5488 0.12331 0.0098 0.53997 0.06016 1.25 0.15039 0.66068 0.16328 1.3952 0.01406 2.2012-0.44922 0.0801-0.03685 0.17891-0.05429 0.29883-0.05078 0.0276 8e-4 0.0451 8e-4 0.0508 0 0.0319 0.02929 0.0494 0.04674 0.0508 0.05078 0.0745 0.36901-0.12708 0.88451-0.60156 1.5488-0.71172 0.9763-1.3106 2.0926-1.7988 3.3496 0.0108 0.01823 0.0108 0.03567 0 0.05078h-0.0508c-0.0389 0.07851-0.0893 0.24518-0.15039 0.5l-0.0488 0.44922c-0.0981 0.63138-0.11549 1.1488-0.0508 1.5508l0.25 0.65039c0.32552 0.73242 0.6918 1.3816 1.0996 1.9492 0.27409 0.31068 0.50859 0.51029 0.70117 0.59961l0.5 0.25h-0.0508l1 0.25c0.24518 0.03164 0.6289 0.01614 1.1504-0.04883l0.25-0.05078c0.38711 0.04596 0.77083 0.0789 1.1504 0.09961 0.0291-6.52e-4 0.0446-6.52e-4 0.0488 0 0.0341 0.03815 0.0516 0.07305 0.0508 0.10156v0.09961c-0.23646 1.3227-0.65313 2.4389-1.25 3.3496-0.0878 0.13906-0.18854 0.27279-0.30078 0.40039h0.0508l-0.0996 0.15039c-0.28737 0.38412-0.57031 0.78333-0.84961 1.1992h0.0488c-0.16667 0.30013-0.33333 0.61602-0.5 0.94922h-0.0488c-0.24974 0.4668-0.55013 0.91836-0.90039 1.3516-0.0831 0.13307-0.16641 0.24935-0.25 0.34961-0.20716 0.32526-0.37383 0.65859-0.5 1v0.04883l-0.5 1.1016v-0.050781c-0.0284 0.17982-0.0613 0.34648-0.0996 0.5 9e-3 0.05807 0.0242 0.10846 0.0488 0.15039h-0.0488c0.41732 0.51471 0.84948 0.96432 1.2988 1.3496 0.0171 0.03737 0.0171 0.07032 0 0.09961 0.0177 0.02787 0.0177 0.04532 0 0.05078-0.56055 0.69101-1.1109 1.4236-1.6504 2.1992h0.0508c-0.30508 0.5888-0.38841 1.0229-0.25 1.3008 0.14739 0.2776 0.23073 0.45976 0.25 0.54883 0.25547 0.19635 0.48802 0.39792 0.69922 0.60156 0.66028 0.65651 1.1777 1.422 1.5508 2.2988 0.39675 1.0111 0.6293 2.1777 0.69922 3.5 0.0343 0.0745 0.0517 0.15781 0.0508 0.25 0.45664 1.3936 1.2725 2.4266 2.4492 3.0996l0.05068 0.05078c0.3293-0.0742 0.66263-0.22344 1-0.44922l0.59961-0.45117 0.0508-0.0488 1.0488-1.3516c0.30755-0.42721 0.575-0.9931 0.80078-1.6992l0.24998-0.50003c4e-3 -0.0953 0.0215-0.21159 0.0508-0.34961l0.1992-1.0996 0.25-0.55078 0.0996-0.44922v-0.60156l-0.0996-0.25-0.0508-0.04883c-0.74141 0.9694-1.474 1.9694-2.1992 3-0.33112 0.49414-0.89701 0.77708-1.6992 0.84961h-0.05076c-0.15586-0.068-0.28958-0.1513-0.40039-0.25-0.13151-7e-3 -0.23034-0.0396-0.29883-0.0996-0.0583-0.0269-0.14167-0.0948-0.25-0.20117l-0.10156-0.0996-0.14844-0.29883v-0.10156l-0.10156-0.19924v-0.25c-0.0693-0.11484-0.0693-0.21563 0-0.30078v-0.09961l0.0508-0.15039v-0.09961l0.0508-0.15039 0.0488-0.25c3e-3 -0.0026 3e-3 -0.0181 0-0.04883h0.0508v-0.05078l0.0488-0.09961v-0.55078c-0.2543-0.72878-0.65352-1.3121-1.1992-1.75-0.25925-0.17422-0.55964-0.32344-0.90039-0.44922-1e-3 -0.0061-0.0168-0.02358-0.0488-0.05078-0.0169-0.01575-0.0344-0.0487-0.0508-0.09961-0.69909-0.04011-1.3154-0.15638-1.8496-0.34961-0.0667 3.91e-4 -0.0996-0.08294-0.0996-0.25v-0.05078c0.44167-1.5496 1.3234-2.6814 2.6484-3.3984 0.0531-0.01458 0.088-0.03203 0.10156-0.05078 0.10299-0.12357 0.23477-0.25729 0.39844-0.40039 0.16615-0.11641 0.41615-0.29857 0.75-0.54883h-0.0488l0.54883-0.60156c0.39375-0.29635 0.6108-0.51146 0.65039-0.64844 0.0251-0.07435 0.01-0.22552-0.0488-0.45117l-0.10156-0.19922c-0.44635-0.21068-0.9793-0.22812-1.5996-0.05078l-2.1993-0.099614c-0.0187-0.0027-0.0362-0.02018-0.0508-0.05078-0.0215 0.0034-0.037-0.0121-0.0488-0.04883-0.10847-0.30807-0.0426-0.64141 0.19922-1 0.21693-0.33268 0.46693-0.69896 0.75-1.0996 0.28216-0.37474 0.69883-0.87474 1.25-1.5 0.27409-0.3237 0.54153-0.65703 0.80078-1v-0.05078c0.0354-0.02604 0.0683-0.07643 0.0996-0.15039 0.36615-0.39766 0.66654-0.74648 0.90039-1.0488 0.0302 0.0034 0.0457 0.0034 0.0488 0 0.0335-0.0059 0.0509-0.0059 0.0508 0 0.9112 0.29206 1.51 0.87539 1.7988 1.75 0.76784 2.3814 1.5857 4.7632 2.4512 7.1484h0.0488c0.0157 0.02929 0.0157 0.04674 0 0.05078 0.0225 0.04948 0.04 0.08242 0.0508 0.09961 0.10013 0.38346 0.23386 0.81758 0.40039 1.3008 0.0786 0.24674 0.0786 0.44635 0 0.59961-0.0137 0.01081-0.0311 0.01081-0.0508 0l-0.0488 0.05078-0.35156 0.04883c-0.22709-5.2e-4 -0.39375 0.06732-0.5 0.20117-0.0871 0.17135-0.0697 0.37096 0.0508 0.59961h-0.0508c0.11289 0.15859 0.29701 0.32526 0.55078 0.5l0.44922 0.29883 0.10156 0.10156 0.0488 0.04883c0.0448 0.04127 0.0952 0.07422 0.15039 0.09961 0.0107 0.0138 0.0107 0.03125 0 0.05078h0.0508c0.0285 0.16849 0.14481 0.51927 0.34961 1.0508l0.15041 0.44922c0.31537 1.265 0.74753 2.6158 1.2988 4.0508v0.29877c-0.33203 0.70143-0.63242 1.4359-0.90039 2.2012 0.0111 0.0595 0.0111 0.10797 0 0.14844l-0.14844 0.60156v0.54883l-0.25 1.25c0.0816 0.52682 0.18047 1.0268 0.29883 1.5l0.20117 0.5c0.0307 0.0616 0.12956 0.17788 0.29883 0.34961 0.59101 0.43606 1.1414 0.68607 1.6504 0.75 0.37943 0.0659 0.62943 0.1492 0.75 0.25 0.0541 0.0297 0.087 0.0471 0.0996 0.0508 0.0351 3e-3 0.0526 3e-3 0.0508 0 0.0375 0.0302 0.053 0.0477 0.0488 0.0508l0.10158 0.19921h-0.05078l0.40039 0.59961h0.0488l0.20117 0.65039 0.0996 0.19922h0.0508l0.0488 0.35156h-0.0488c0.11485 0.15339 0.18073 0.23672 0.19922 0.25 0.0284 0.0314 0.0458 0.0469 0.0508 0.0488 0.0436 0.14765 0.092 0.28138 0.14844 0.40039l0.10156 0.30078v0.0488c0.35547 1.0456 0.72174 2.063 1.0996 3.0508 0.76015 2.1656 1.8764 4.1327 3.3496 5.9004 0.44284 0.47539 0.9099 0.9405 1.4004 1.3984 0.61133 0.24779 1.2606 0.46484 1.9492 0.65039 0.0771-2e-3 0.12747 0.0309 0.15039 0.0996l1.1504 0.0508c0.55977 3e-3 0.97643-0.0632 1.25-0.19922-0.36003-0.26641-0.62747-0.48346-0.80078-0.65039l-0.19922-0.20117c-0.12513-0.0659-0.25886-0.11431-0.40039-0.14844-0.4194-0.19557-0.81862-0.41263-1.1992-0.65039h-0.05078c-0.88359-0.71627-1.7169-1.5167-2.5-2.4004-0.39271-0.42422-0.72604-0.90677-1-1.4492-0.83373-1.7747-1.5333-3.643-2.0996-5.6016v0.0508c-0.34557-0.85091-0.69635-1.7017-1.0508-2.5508l-0.25-0.5c-0.0108-0.0243-0.0108-0.0573 0-0.0996 9e-3 -0.0152 0.026-0.0307 0.0508-0.0488 1.1081-0.53359 2.2418-1.0006 3.4004-1.4004 0.10417-0.0284 0.1875-0.0459 0.25-0.0508 0.19206-0.16758 0.35873-0.36719 0.5-0.59961 0.19518-0.17253 0.29401-0.33919 0.29883-0.5-1e-3 -0.11862-0.0847-0.2349-0.25-0.34961-0.27044-0.17721-0.60377-0.29349-1-0.34961-0.57396-0.11823-1.1573-0.25195-1.75-0.40039l-0.25 0.0488c-0.36094 0.41315-0.84349 0.69805-1.4492 0.85156h0.0488c-0.0802 0.0369-0.17904 0.0524-0.29883 0.0488-0.0183-3e-3 -0.0358-0.0182-0.0508-0.0488-0.0215 4e-3 -0.037-0.0135-0.0488-0.0508-0.47148-1.2044-0.88815-2.4874-1.25-3.8496l-0.70117-3.8496c0.0108-0.0089 0.0108-0.0263 0-0.05078 0.30469-0.64401 0.65547-1.644 1.0508-3v-0.05078c0.56211-1.1178 1.128-2.2167 1.6992-3.2988 0.0146-0.02487 0.0146-0.05782 0-0.09961-0.36211-0.11172-0.94544-0.06328-1.75 0.14844-0.55482 0.20365-1.3048 0.25404-2.25 0.15039-0.0277-0.0023-0.0607-0.01783-0.0996-0.04883 3e-3 0.0033 3e-3 -0.01418 0-0.05078-0.0678-0.3-0.13373-0.61589-0.19922-0.94922l-0.10156-1.1016c-0.22799-0.58268-0.47799-1.5652-0.75-2.9492-0.13307-1.0038-0.38307-1.9534-0.75-2.8496l-1-1.5996-1.4492-1c-0.64857-0.12044-1.3811-0.18828-2.1992-0.20117-2e-3 -0.0021-0.0194-0.01756-0.0508-0.04883-5e-3 0.0038-0.0228-0.01365-0.0508-0.05078 0.01 0 0.01-0.01745 0-0.05078 0.028-0.0041 0.0454-0.01956 0.0508-0.04883l0.40039-0.25 0.0488-0.05078 0.30082-0.4003 0.84961-1.6992c0.33086-0.62226 0.53047-1.0719 0.59961-1.3496v-0.09961c0.14414-0.23438 0.27786-0.46888 0.40039-0.70117v-0.099609c0.0471-0.02513 0.0801-0.05807 0.0996-0.09961 0.17448-0.29375 0.32565-0.69492 0.45117-1.2012 0.0988-0.375 0.14922-0.75677 0.15039-1.1484l-0.10156-1.25-0.19922-0.70117c-6e-3 -0.05807-0.10678-0.20729-0.30078-0.44922-0.24974-0.46576-0.44935-0.79909-0.59961-1-0.21068-0.34336-0.46068-0.57786-0.75-0.70117l-1.5-0.44922c-0.20977-0.03307-0.52565-0.05052-0.94922-0.05078-0.45677 2.6e-4 -0.80755 0.01771-1.0508 0.05078-0.2181 0.04232-0.51849 0.1431-0.90039 0.30078-0.0247 0.02656-0.0577 0.02656-0.0996 0-0.0149 0.0076-0.0304-0.0099-0.0488-0.05078-0.01-0.0077-0.01-0.02513 0-0.05078 0.0127-0.05169 0.0282-0.10013 0.0488-0.14844v-0.050782c1.5422-1.4756 3.0751-2.9427 4.5996-4.4004 0.0104-0.12305 0.0608-0.20638 0.15039-0.25 0.18477-0.30208 0.23516-0.75169 0.15039-1.3496-0.0547 0.01198-0.12055 0.02943-0.19922 0.05078-0.94713 0.06185-1.7475 0.27695-2.4004 0.64844-0.0153 0.03073-0.0327 0.04817-0.0508 0.05078-0.0186-0.0027-0.0341-0.02018-0.0488-0.05078-0.0213 0.0034-0.0388-0.0121-0.0508-0.04883-0.1556-0.38333-0.60521-0.46667-1.3496-0.25-1.106 0.34232-2.1893 0.75898-3.25 1.25h-0.0508c-0.1638 0.08815-0.34596 0.15404-0.54883 0.19922h-1.2012l-0.54883-0.15039v-0.04883l-0.20114-0.15039c-0.0194 0.01055-0.0349 0.01055-0.0488 0l-0.10156-0.19922v-0.10156c0.20664-0.50091 0.53997-0.98346 1-1.4492v0.05078c0.15781-0.17552 0.32448-0.34219 0.5-0.5 0.12291-0.07643 0.22369-0.17721 0.30078-0.30078v-0.05078c0.50365-0.52656 1.0036-1.075 1.5-1.6484 0.74961-0.70833 1.4163-1.4428 2-2.2012 0.43463-0.59114 0.78541-1.1745 1.0508-1.75-0.032-0.1-0.0494-0.21628-0.0508-0.34961-0.0337-0.2332-0.0512-0.46576-0.0508-0.69922-0.0297-0.94766-0.29516-1.781-0.79883-2.5-0.30623-0.45128-0.6137-0.86888-0.91992-1.2578l-1.5312-0.64258-0.0488-0.05078c-0.0348-0.03307-0.0522-0.09896-0.0508-0.19922 3.9e-4 -0.02773 3.9e-4 -0.06068 0-0.09961 0.59531-0.66445 1.3628-1.0986 2.3008-1.3008 0.8832-0.20013 1.6991-0.41719 2.4492-0.65039 0.19115-0.05821 0.25898-0.29076 0.20117-0.69922-0.0905-0.43867-0.325-0.70612-0.70117-0.80078-0.0729-0.03086-0.1388-0.04635-0.19922-0.04883-1.6561-0.0974-3.0728 0.05182-4.25 0.44922h0.0488c-0.0833 0.03724-0.16667 0.05469-0.25 0.05078-0.029 0.0014-0.0619-0.01605-0.0996-0.05078-1e-3 -0.0043-1e-3 -0.02172 0-0.05078-2e-3 -0.10833 0.0154-0.22461 0.0508-0.34961-0.0335-0.37487-0.0509-0.75859-0.0508-1.1504-1e-3 -1.4245-0.21839-2.7733-0.65039-4.0488-0.0101-0.05039-0.0256-0.11823-0.0488-0.20117l-0.09962-0.19922c-0.49596-0.70052-1.3293-1.0668-2.5-1.0996-0.0213 0.01693-0.0562 0.01693-0.10156 0zm5.5312 11.143 0.0195 0.0078-0.0508-0.05078c0.0104 0.01319 0.0208 0.02971 0.0312 0.04297zm-2.8477 0.58008c0.075 0 0.14688 0.0094 0.2168 0.02734 0.66888-0.08737 1.2193 0.16263 1.6504 0.75 0.54675 0.72122 0.82969 1.4867 0.84961 2.2988v0.55078c-0.11354 0.32005-0.3306 0.68633-0.65039 1.0996-0.27969 0.42591-0.94636 0.75924-2 1 0 0.0023-0.0155 0.0023-0.0488 0l-1-0.15039c-0.10394-0.045574-0.22021-0.11146-0.34964-0.19922-0.18347-0.2332-0.36758-0.4832-0.55078-0.75-0.77917-1.3781-0.62995-2.6611 0.44922-3.8496 0.31003-0.33594 0.7112-0.58594 1.2012-0.75 0.0801-0.0179 0.15742-0.02734 0.23242-0.02734zm4.293 18.111c0.575-0.04167 1.1496 0.08008 1.7246 0.36523l0.84961 1v0.05078c0.2306 0.31055 0.34688 0.76016 0.34961 1.3496 3e-3 0.47878-0.0296 0.82956-0.0996 1.0508-0.0799 0.23581-0.18073 0.41797-0.30078 0.54883-0.11511 0.15039-0.29727 0.28412-0.54883 0.40039-0.24167 0.15885-0.575 0.29258-1 0.40039-0.4668-0.03333-0.91641-0.06628-1.3496-0.09961-0.46562-0.03919-0.83385-0.24076-1.1016-0.60156-0.36003-0.53633-0.61003-0.93555-0.75-1.1992-0.10456-0.24557-0.153-0.51302-0.14844-0.80078 0.0328-0.24688 0.0812-0.54531 0.14844-0.89844l0.45117-0.90039c0.0131-0.01159 0.0286-0.02903 0.0488-0.05078 0.575-0.36849 1.1516-0.57357 1.7266-0.61523z"/>
 <g transform="translate(-217.75)">
  <path transform="translate(160.15,84.1)" d="m62.6-84.1c-3.3333 0-5 1.6667-5 5v158.2c0 3.3333 1.6667 5 5 5h93.199c3.3333 0 5-1.6667 5-5v-158.2c0-3.3333-1.6667-5-5-5zm8.3008 7.1992h76.6c4.6667 0 7 2.3333 7 7v139.8c0 4.6667-2.3333 7-7 7h-76.6c-4.6667 0-7-2.3333-7-7v-139.8c0-4.6667 2.3333-7 7-7z" fill="#ef1d1e"/>
  <path transform="translate(160.15,84.1)" d="m70.901-76.901c-4.6667 0-7 2.3333-7 7v139.8c0 4.6667 2.3333 7 7 7h76.6c4.6667 0 7-2.3333 7-7v-139.8c0-4.6667-2.3333-7-7-7z" fill="none" stroke="#000" stroke-width="1.2"/>
 </g>
</svg>
