<svg width="103.2" height="168.2" preserveAspectRatio="none" version="1.1" viewBox="0 0 103.2 168.2" xmlns="http://www.w3.org/2000/svg">
 <path d="m13.299 7.1992c-4.6667 0-7 2.3333-7 7v139.8c0 4.6667 2.3333 7 7 7h76.6c4.6667 0 7-2.3333 7-7v-139.8c0-4.6667-2.3333-7-7-7z" fill="#fff"/>
 <path d="m76.6 36.15c-1.4098 0.25612-2.276 0.93828-2.5996 2.0488-0.38711 1.6745-0.22044 3.7249 0.5 6.1504 0.29094 1.7807 1.6648 2.5358 2.7988 0.75003 1.3812-2.1038 1.9316-4.2859 1.6504-6.5488-0.14245-1.1298-0.77617-1.9147-1.9004-2.3516-0.0182 3e-3 -0.0511-0.0121-0.0996-0.0488-0.0305 3e-3 -0.0963 3e-3 -0.19922 0zm-61.6 36.85c-0.9306 0.0145-1.6322 0.49701-2.1016 1.4492-0.37383 0.8806-0.58893 1.8477-0.64844 2.9004v0.0508c-0.028 1.8241 0.42161 3.6245 1.3496 5.4004 0.4144 1.577 2.1383 0.83117 2.3496-0.10156 8e-3 -0.016 8e-3 -0.0315 0-0.0488l0.75-2.4512c0.33086-1.1917 0.43164-2.7401 0.30078-4.6484v-0.25c-0.0904-1.4069-0.72409-2.1744-1.9004-2.3008zm22.549 46.051c-0.77409 0.0171-1.4408 0.41629-2 1.1992-1.2366 1.6583-1.8858 3.6409-1.9492 5.9492 0 0.35921 0.09791 3.3283 3.4492-0.24995 1.2534-1.3439 2.0208-2.5435 2.3008-3.5996l0.0488-0.15039c0.13307-0.43607 0.20091-0.7849 0.20117-1.0488v-0.25c-0.0841-0.72175-0.45039-1.2547-1.0996-1.5996-0.30873-0.1638-0.62656-0.24713-0.95117-0.25zm6.4004 0.75c-0.45417 0.0591-0.80495 0.2413-1.0508 0.54883-0.59835 0.82933-0.47168 1.9075-0.39844 2.3008l0.0488 0.29883c0.0682 0.16146 0.20195 0.44635 0.40039 0.85156h-0.0508c0.92213 1.5823 2.2729 2.7141 4.0508 3.3984 2.46 0.38413 1.8015-1.4008 1.6992-1.6485-0.21276-0.73398-0.71276-1.7185-1.5-2.9512l-0.79883-1.2988c-0.54922-0.98554-1.2992-1.4856-2.25-1.5z" fill="#faea01"/>
 <path d="m77.049 36.25c-1.2-0.23333-2.0333 0.11746-2.5 1.0508-0.6333 1.2667-0.85039 2.6485-0.65039 4.1484 0.043 0.40272 0.30154 0.94376 0.43164 1.4023-0.093-0.03454-0.16215-0.10156-0.28125-0.10156-0.2333 0-0.43291 0.06589-0.59961 0.19922l-0.44922 0.75c-0.1462 0.16706-0.19659 0.33372-0.15039 0.5-1e-3 3e-3 2.3e-4 0.0048-0.01 0.0078-0.10629-0.2172-0.29773-0.43968-0.39453-0.65625-0.4333-0.83332-0.79961-1.75-1.0996-2.75-0.1-0.26665-0.23369-0.40039-0.40039-0.40039-0.1667 0.03333-0.25 0.2-0.25 0.5 0.1333 1.0667 0.5171 2.2663 1.1504 3.5996 0.028 0.04959 0.28557 0.47266 0.35157 0.58398l-1.2012 2.0664-0.0508 0.25c-0.016 0.05119-0.0494 0.08986-0.0684 0.13867-0.1091-0.14843-0.35174-0.41925-0.43164-0.53906-0.4333-0.59999-0.7667-1.2008-1-1.8008-0.1-0.33333-0.1833-0.56589-0.25-0.69922-0.1667-0.26667-0.4167-0.26667-0.75 0-0.1667 0.13333-0.033 0.60039 0.40039 1.4004l1.1504 1.9492c0.10279 0.15081 0.29675 0.335 0.40624 0.48828l-1.406 2.9121-0.0508 0.19922c-0.015 0.07479-0.0561 0.13273-0.0781 0.20312-0.1463-0.1888-0.32856-0.30896-0.47266-0.50195l-0.0488-0.05078c0-0.03333-0.25-0.46551-0.75-1.2988-0.3-0.49999-0.6333-0.85078-1-1.0508-0.033-0.03333-0.18447-0.05078-0.45117-0.05078 0 0.26665 0.0168 0.41784 0.0508 0.45117l1.8046 2.8496c0.1765 0.25217 0.2812 0.34926 0.4336 0.54883l-1.1348 2.5508-0.0488 0.30078c-0.014 0.0748-0.0542 0.13511-0.0762 0.20508-0.1971-0.23313-0.21071-0.23796-0.47461-0.55469-0.5-0.63332-1.0659-1.4337-1.6992-2.4004-0.1667-0.33333-0.36826-0.46706-0.60156-0.40039-0.1333 0.13333-0.14883 0.28255-0.0488 0.44922l0.94919 1.8008c0.6 0.83332 0.95078 1.3159 1.0508 1.4492 0.1022 0.13451 0.31945 0.34118 0.43555 0.48438-0.6448 1.654-1.0929 2.8517-1.3359 3.5664l-0.0508 0.25c-0.011 0.06009-0.0348 0.1091-0.0488 0.16602-0.1684-0.18343-0.328-0.31134-0.5-0.51562-0.5-0.66667-1.0329-1.4845-1.5996-2.4512l-0.45117-0.29883c-0.033 0.13332-0.1167 0.33294-0.25 0.59961 0.6 0.99999 1.0671 1.7171 1.4004 2.1504l0.59961 0.79883c0.086 0.10547 0.39325 0.37839 0.49805 0.49805l-0.94727 2.6035v0.25c-0.013 0.0942-0.0717 0.16899-0.0977 0.25781-0.059-0.05562-0.47315-0.43019-0.50195-0.45898-0.7-0.73332-1.2349-1.4-1.6016-2-0.067-0.06667-0.11514-0.13255-0.14844-0.19922-0.1-0.06667-0.1833-0.05117-0.25 0.04883-0.1667 0.16667-0.20156 0.33333-0.10156 0.5 0.3667 0.69999 0.98486 1.5179 1.8516 2.4512l0.44336 0.43555-0.99414 3.3145v0.29883c-0.01 0.07327-0.0475 0.13934-0.0625 0.21094-0.1464-0.15614-0.40326-0.35795-0.53906-0.50976l-0.09958-0.15039c-0.1333-0.13333-0.41826-0.49962-0.85156-1.0996-0.3333-0.46667-0.6667-0.80001-1-1-0.1-0.03333-0.16592-0.06628-0.19922-0.09961-0.067 0-0.11709 0.03294-0.15039 0.09961-0.1 0.16665-0.11553 0.28294-0.0488 0.34961 0.6 0.99999 1.0321 1.6492 1.2988 1.9492l0.80078 0.85156c0.1379 0.15756 0.34002 0.30599 0.48242 0.46289l-0.93359 3.4355-0.0488 0.40039c-0.013 0.1024-0.0424 0.18516-0.0684 0.27148-0.2107-0.24732-0.29935-0.28683-0.53125-0.57031-0.4333-0.59999-0.96827-1.2512-1.6016-1.9512-0.067-0.13332-0.13252-0.21667-0.19922-0.25-0.067-0.1-0.15-0.1-0.25 0-0.2667 0.23333-0.2667 0.48335 0 0.75l1.8496 2.3496c0.1677 0.21428 0.32899 0.32736 0.49609 0.53125l-0.79492 3.3203-0.0508 0.34961c-0.015 0.1192-0.0451 0.21903-0.0781 0.31641l-0.52148-0.66602c-0.7333-0.93332-1.2508-1.6678-1.5508-2.2012 0-0.03333-0.0326-0.08372-0.0996-0.15039s-0.11709-0.08216-0.15039-0.04883c-0.067 0.03333-0.13252 0.08372-0.19922 0.15039-0.067 0.06667-0.0838 0.1151-0.0508 0.14844l0.34961 0.95117 1.9688 2.7129-0.71875 3.1875 0.0508 0.29883c0.015 0.21188-0.05 0.39807-0.10352 0.58789l-1.9473-2.4883c-0.067-0.16667-0.11514-0.28294-0.14844-0.34961-0.067-0.13331-0.16748-0.16627-0.30078-0.09961-0.2667 0.13333-0.29931 0.40079-0.0996 0.80078 0.4 0.73333 0.96592 1.5822 1.6992 2.5488l0.52929 0.61719-0.8789 4.6328v0.25c4e-4 0.12179-0.0336 0.2328-0.0566 0.34766l-2.0938-2.2969c-0.1-0.23333-0.19883-0.28372-0.29883-0.15039-0.2 0.2-0.23486 0.33372-0.10156 0.40039 0.73329 1.0667 1.3167 1.8496 1.75 2.3496l0.0508 0.05078c0.105 0.13021 0.38544 0.30531 0.49804 0.4375l-0.64843 4.1113c0.04 0.18562-0.0103 0.37114-0.0312 0.55664-0.221-0.24352-0.31586-0.31928-0.56836-0.60547l-1.4492-1.6504c-0.2-0.13333-0.40156-0.16628-0.60156-0.09961-0.1 0.06667-0.11553 0.15-0.0488 0.25l0.20098 0.19922c0.067 0.13333 0.33408 0.46668 0.80078 1l0.94922 1.25c0.2017 0.2375 0.35398 0.32246 0.55078 0.54492l-0.65039 4.6543c0.035 0.17007-0.0153 0.32354-0.0273 0.48437l-2.2734-2.1328c-0.16694-0.16667-0.31596-0.18412-0.44926-0.050781-0.1 0.1-0.0832 0.23372 0.0508 0.40039 0.4333 0.63332 1.1 1.3833 2 2.25l0.34961 0.29883c0.056 0.0551 0.12309 0.10326 0.17969 0.1582l-0.42969 3.543 0.0488 0.44922c0.01 0.1255-0.0329 0.23385-0.0469 0.35156-0.1963-0.20876-0.40816-0.3867-0.60156-0.60156l-1.5-1.5488c-0.033-0.0667-0.15156-0.10156-0.35156-0.10156-0.1667 0.0667-0.19931 0.18489-0.0996 0.35156 0.4667 0.83333 1.0829 1.6318 1.8496 2.3984 0.056 0.0564 0.4221 0.40357 0.5293 0.50781l-0.2793 3.1934c0.056 0.24714 1e-4 0.47196-0.0332 0.70117l-1.7656-1.8008c-0.1333-0.23333-0.26709-0.28372-0.40039-0.15039-0.1 0.2-0.0832 0.36667 0.0508 0.5l1.9727 2.4062-0.17383 2.5938c0.056 0.22813 0.0728 0.44518 0.0508 0.65039-0.01 0.0693-0.0339 0.12248-0.0469 0.1875l-0.6543-0.78906c-0.3-0.43333-0.69922-0.89844-1.1992-1.3984l-0.34961-0.15039-0.0996 0.40039c0.067 0.43333 0.41553 0.91589 1.0488 1.4492l0.55078 0.69922c0.1819 0.2304 0.38651 0.36578 0.57031 0.58789l-0.16992 2.1621 0.0488 0.40039c0.015 0.153-0.0326 0.29654-0.0586 0.44336-0.1653-0.21676-0.4346-0.42515-0.5918-0.64258l-0.84961-1.25c-0.067-0.16667-0.13252-0.28294-0.19922-0.34961-0.067-0.1-0.16748-0.11727-0.30078-0.0508-0.033 0.0333-0.0488 0.13411-0.0488 0.30078 0 0.2 0.0326 0.34922 0.0996 0.44922l1.1992 1.9004c0.063 0.0945 0.41168 0.52521 0.55078 0.70899v0.39064c-0.026 0.55599-0.24329 1.023-0.65039 1.4004-0.3687 0.36888-0.81841 0.55104-1.3496 0.54883-0.2845 6.5e-4 -0.50159 6.5e-4 -0.65039 0l-0.0996 0.0293c-0.062-0.20201-0.0296-0.37383-0.0996-0.57813l-0.15039-0.5c-0.1333-0.36667-0.3-0.53333-0.5-0.5-0.3 0.1-0.40078 0.35-0.30078 0.75l0.0996 0.34961c0.059 0.15718 0.091 0.42566 0.14648 0.59961h-0.19531c-0.4744 0.0719-0.9744 0.15521-1.5 0.25l-0.40038 0.0508c-0.3978 0-0.64499 0.0832-0.74609 0.24805-0.074-0.16822-0.12233-0.32737-0.20313-0.49805-0.5667-1.0667-1.3516-2.0667-2.3516-3-0.7-0.7-1.3996-0.81627-2.0996-0.34961-0.5667 0.33333-0.9 0.7655-1 1.2988-0.1 0.73333 0.11709 1.5512 0.65039 2.4512 0.4667 0.76667 1.0829 1.4663 1.8496 2.0996 0.4392 0.32937 0.69378 0.45497 0.98828 0.625-0.097-0.0149-0.13518-8e-3 -0.23828-0.0254-0.4667 0-0.76709 0.0833-0.90039 0.25-0.1 0.1-0.14844 0.18333-0.14844 0.25-0.026 0.0723-0.0438 0.13815-0.0508 0.19922-0.5161 0.60885-0.91542 1.1438-1.1992 1.6016-0.2477 0.41276-0.59848 0.6957-1.0508 0.84961-0.4611 0.15859-0.92809 0.14133-1.4004-0.0508-0.4348-0.16758-0.7681-0.46797-1-0.90039-0.1567-0.27075-0.4365-0.68116-0.8125-1.1973 0.1029-0.18826 0.28578-0.35888 0.36328-0.55273l0.15039-0.5-0.30076 0.30079c-0.285 0.27288-0.23396 0.22632-0.47266 0.45508-0.026-0.0349-0.0501-0.0652-0.0781-0.10547-0.1717-0.22735-0.35393-0.4444-0.54883-0.65039-0.072-0.12656-0.17248-0.24284-0.30078-0.34961l-0.34963-0.25c-0.06-0.0595-0.15498-0.0292-0.23828-0.0293 0.1903-0.18614 0.40889-0.30691 0.58789-0.51953 0.7333-0.9 1.2508-1.9 1.5508-3 0.4-1.3 0.16553-2.2845-0.70117-2.9512-0.7667-0.66667-1.6-0.55039-2.5 0.34961-1.2333 1.2333-1.9484 2.7333-2.1484 4.5l-0.10156 0.90039c0 0.25149-0.036 0.45016-0.041 0.69336l-0.209-0.29297c-0.1-0.1-0.2667-0.15039-0.5-0.15039-0.1667 0-0.3333 0.0504-0.5 0.15039l-0.25 0.25c-0.1458 0.0243-0.26211 0.0573-0.34961 0.0996h-0.0488c-0.1073-1e-3 -0.19688-0.0938-0.30078-0.11328 0-0.11334 0.013-0.21732 0-0.33594 0-0.0667-0.10078-0.25078-0.30078-0.55078l-0.29883 0.30078-0.0391 0.34766c-0.084-0.0503-0.18072-0.0336-0.26172-0.0977-0.3362-0.25573-0.56872-0.60651-0.69922-1.0508l-0.20703-0.78906c0.1303-0.21677 0.33523-0.44468 0.45703-0.66016l0.5-0.90039c0.3-0.53333 0.3833-0.95 0.25-1.25-0.033-0.0667-0.1167-0.0492-0.25 0.0508s-0.23408 0.19883-0.30078 0.29883l-0.92773 1.6016c-0.054-0.14706-0.1007-0.29592-0.1211-0.45117l-0.05077-0.49997-0.75-2.8262c0.1596-0.22592 0.24502-0.44243 0.44922-0.67383 0.5333-0.7 0.83369-1.1167 0.90039-1.25 0.1-0.13333 0.28408-0.40078 0.55078-0.80078 0.1667-0.33333 0.14962-0.59883-0.0508-0.79883-0.1667-0.13333-0.3333-0.0829-0.5 0.15039-0.1667 0.33333-0.28291 0.54844-0.34961 0.64844l-0.80078 1.1504c-0.2047 0.28215-0.29934 0.46801-0.49024 0.73828-0.044-0.14104-0.089-0.28125-0.10937-0.4375l-0.0488-0.34961-0.70703-2.4082c0.1339-0.25129 0.33193-0.43231 0.45703-0.69336l0.69922-1.5488c0.033-0.0667-1e-3 -0.26628-0.10156-0.59961l-0.45117 0.29883-0.39844 0.90039c-0.1915 0.42543-0.30977 0.61248-0.44727 0.86133v-0.0117c-0.075-0.17709-0.12549-0.35925-0.15039-0.54883l-0.0488-0.35156-0.77734-2.5586 0.47656-0.58984c0.8667-1.1667 1.45-2.1667 1.75-3v-0.45117l-0.29883 0.20117-2.2148 2.9473c-0.026-0.10083-0.0749-0.19213-0.0859-0.29883l-0.0508-0.34961-0.85351-2.7852 0.45507-0.61523c0.6-0.9 0.99922-1.6984 1.1992-2.3984 0.033-0.1 0.0162-0.28411-0.0508-0.55078-0.2 0.1-0.33174 0.20078-0.39844 0.30078l-1.1016 1.6484c-0.1667 0.3-0.31592 0.51706-0.44922 0.65039-0.012 0.0175-0.0212 0.0274-0.0332 0.0449-0.016-0.0523-0.0544-0.0896-0.0664-0.14453-0.042-0.17409-0.0598-0.3582-0.0508-0.55078l-0.93359-2.8496 2.084-3.1504c0.033-0.06667 0.0508-0.41551 0.0508-1.0488-0.1667 0.03333-0.30039 0.13216-0.40039 0.29883-0.1 0.2-0.1833 0.33372-0.25 0.40039l-1.8047 2.6641c-0.048-0.13824-0.13019-0.26564-0.14649-0.41406l-0.0488-0.29883-0.84765-2.4531c0.14002-0.21578 0.30403-0.378 0.44523-0.59766l0.75-1.25c0.1-0.1 0.24922-0.29962 0.44922-0.59961 0.1333-0.23333 0.1333-0.43294 0-0.59961-0.1-0.06667-0.39844 0.23177-0.89844 0.89844l-0.55078 0.85156c-0.1463 0.20908-0.31529 0.40678-0.46289 0.61524-0.031-0.08696-0.0669-0.16927-0.0879-0.26562l-0.0996-0.40039-0.78906-2.1836 0.43945-0.56641 0.34961-0.55078c0.1333-0.16667 0.35039-0.44961 0.65039-0.84961 0.2-0.36665 0.2833-0.7504 0.25-1.1504l-1.5508 1.75c-0.095 0.1118-0.35599 0.47898-0.46289 0.60938-0.03-0.08472-0.0649-0.16422-0.0859-0.25781l-0.0508-0.25-1.082-2.6621c0.1465-0.21017 0.27484-0.32646 0.43164-0.58789 0.3-0.53332 0.70117-1.3667 1.2012-2.5 0.067-0.23333-9.7e-4 -0.41745-0.20117-0.55078-0.067-0.06667-0.15 0.01667-0.25 0.25l-1.0996 1.9492-0.0996 0.25c-0.1285 0.20056-0.16842 0.26921-0.29102 0.46094-0.058-0.13305-0.1272-0.25908-0.1582-0.41016l-0.0508-0.19922-1.1856-2.5488c0.1285-0.25022 0.25627-0.38307 0.38477-0.65234l1.3516-3.2988c0.1667-0.23333 0.11631-0.4349-0.15039-0.60156-0.1-0.06667-0.20078-0.01628-0.30078 0.15039l-1.5488 3.2012c-0.067 0.14762-0.09 0.19088-0.15039 0.32227-0.083-0.17474-0.2155-0.32268-0.25-0.52344-0.2435-0.52004-0.56127-1.1538-0.95117-1.9004l-0.10156-0.39844-0.15039-0.20117c-0.03-0.01823-0.053-0.0038-0.082-0.01758 0.096-0.26288 0.09-0.42288 0.23243-0.73242 0.3333-0.93332 0.51748-1.4837 0.55078-1.6504 0.43325-2.3 0.46781-4.1159 0.10151-5.4492-0.2333-0.86665-0.61709-1.3996-1.1504-1.5996-0.5667-0.23333-1.1655-0.08411-1.7988 0.44922-0.5333 0.43333-0.90156 1.0496-1.1016 1.8496-0.1 0.39999-0.16592 1.1171-0.19922 2.1504 0 1.4667 0.25 2.7496 0.75 3.8496 0.2155 0.45489 0.41323 0.77853 0.61133 1.1133-0.1602-0.04336-0.26552-0.11328-0.51172-0.11328h-0.25l-0.0508-0.04883c0 0.03555-0.0188 0.05104-0.0508 0.04883-0.056 0.0375-0.10669 0.0724-0.15039 0.10156-0.1 0.03333-0.21631 0.14961-0.34961 0.34961l-0.15039 0.15039-0.0488 0.19922-0.0508 0.05078c-0.356 0.44193-0.70678 0.90703-1.0508 1.3984-0.029 0.11709-0.13455 0.19809-0.18555 0.30469-0.1401-0.1687-0.27276-0.27326-0.41406-0.45312l-1.9492-2.3516c-0.3-0.3-0.51709-0.39883-0.65039-0.29883-0.1 0.1-0.05 0.33256 0.15039 0.69922 0.3667 0.66667 1.0159 1.5679 1.9492 2.7012l0.43359 0.44531-0.084 0.10352c-0.2582 0.45508-0.6749 1.238-1.25 2.3496l-0.0488 0.15039c-0.023 0.09151-0.085 0.15487-0.11914 0.23828l-1.3789-1.5879c-0.033-0.06667-0.14961-0.11706-0.34961-0.15039-0.1667-0.03333-0.23447-0.13216-0.20117-0.29883h-0.19922c0.033 0.1 0.0656 0.28217 0.0996 0.54883l1.25 1.75c0.1213 0.15553 0.29512 0.2673 0.41992 0.41992l-0.0195 0.03125c-0.4323 1.0156-0.75007 1.8141-0.95117 2.3984l-0.0996 0.25c-0.01 0.0318-0.032 0.06042-0.041 0.0918l-1.3086-1.4414c-0.2333-0.23332-0.43291-0.26627-0.59961-0.09961-0.1 0.1-0.1 0.20078 0 0.30078l1.1992 1.4492c0.1514 0.20406 0.27633 0.29727 0.42383 0.48438l-0.87305 2.7148-0.0508 0.15039c-0.01 0.12755-0.0549 0.23621-0.0879 0.35156-0.1115-0.13335-0.41134-0.49124-0.46094-0.55078l-0.0508-0.05078c-0.1-0.16665-0.20078-0.30039-0.30078-0.40039-0.1333-0.13333-0.3-0.16628-0.5-0.09961l0.5 0.95117 0.15039 0.19922c0.09 0.12842 0.36175 0.37426 0.46875 0.51367l-0.81831 2.9863v0.15039c1e-3 0.15681-0.077 0.28307-0.10742 0.42774-0.1929-0.21928-0.29379-0.29987-0.49219-0.52735l-1.0996-1.1504c-0.033-0.03333-0.13408-0.08372-0.30078-0.15039h-0.0508l0.0508 0.40039 1.1992 1.6992c0.2007 0.28098 0.30572 0.38142 0.48242 0.61719l-0.33203 62.883 94.459-0.59858-0.81422-57.896c-3e-4 -1e-3 0-4e-3 0-6e-3l-0.01-0.0137-0.9004-5.9648c0.2378-0.37841 0.24326-0.40455 0.50586-0.82031l0.20118-0.35156v-0.44905l-0.35157 0.05078-0.0996 0.04883-0.44336 0.66602-0.01-0.01563c-0.034-0.18372-0.0508-0.36784-0.0508-0.55078v-0.14844l-0.64844-3.4082c0.2039-0.331 0.26795-0.47634 0.49805-0.8418l0.45117-0.75c0.1333-0.23333 0.10069-0.4-0.0996-0.5-0.1333-0.1-0.25156-0.01667-0.35156 0.25l-0.63477 1.1211-0.0156-0.07227-0.0508-0.15039c-0.034-0.18372-0.0508-0.3659-0.0508-0.54883v-0.25l-0.63086-3.1152c0.1961-0.27445 0.21205-0.33156 0.43165-0.63476l0.5-0.70117 0.15039-0.69922h-0.30079l-1.041 1.1953c-0.021-0.09728-0.0456-0.19094-0.0586-0.29492l-0.0508-0.45117-0.90234-4.1074c0.2451-0.37391 0.16993-0.25941 0.45313-0.69141l0.71535-1.1504c0.1333-0.16667 0.26709-0.44962 0.40039-0.84961-0.3333 0-0.64922 0.21707-0.94922 0.65039l-0.86133 1.2363c-0.037-0.13955-0.0708-0.28317-0.0898-0.4375l-0.0488-0.29883-0.76172-3.0059 2.0117-3.1953c0.033-0.03333 0.099-0.11667 0.19922-0.25 0.1-0.1 0.0842-0.18333-0.0488-0.25-0.2-0.16665-0.41709-0.09883-0.65039 0.20117l-1.3008 1.8496c-0.1966 0.2753-0.30694 0.45749-0.49414 0.72266-0.042-0.13724-0.086-0.27296-0.10547-0.42383l-0.05088-0.44922-0.74805-2.8086c0.1077-0.149 0.35462-0.45773 0.44922-0.5918l1.2988-2.0488c0.1-0.13333 0.2667-0.40078 0.5-0.80078 0.1667-0.33333 0.15117-0.56589-0.0488-0.69922-0.2333-0.13333-0.45039-0.05-0.65039 0.25-0.1667 0.4-0.30039 0.66551-0.40039 0.79883l-1 1.5c-0.1894 0.27001-0.30734 0.395-0.49023 0.65234-0.034-0.11872-0.097-0.2203-0.10938-0.35156l-0.05276-0.40039-1.0566-3.459c0.074-0.12566 0.35641-0.54568 0.40821-0.64062 0.4667-0.83333 0.8833-1.75 1.25-2.75 0.067-0.13333 0.10156-0.21667 0.10156-0.25 0.033-0.06667-1e-3 -0.11706-0.10156-0.15039-0.033-0.03333-0.1167-0.03333-0.25 0-0.1 0.06667-0.16787 0.11706-0.20117 0.15039l-1.582 2.7754c-0.041-0.10812-0.088-0.21445-0.11718-0.32617l-0.0508-0.44922-1.2832-3.7559c0.1153-0.23995 0.27652-0.51023 0.38282-0.74414l0.95117-2c0.067-0.13333 0.0818-0.30001 0.0488-0.5l-0.0488-0.55078c-0.3 0.16667-0.4667 0.30039-0.5 0.40039l-1.2637 2.4062c-0.047-0.11718-0.10412-0.22489-0.13672-0.35547l-0.0508-0.35156-1.0781-2.7852c0.1099-0.20353 0.32849-0.46525 0.42969-0.66406l1.0488-2c0.1667-0.4 0.13399-0.66745-0.0996-0.80078-0.1333-0.06667-0.28252 0.03411-0.44922 0.30078l-1.3379 2.3027c-0.082-0.20888-0.15221-0.42113-0.16211-0.65234l-1.1777-2.6992c0.14623-0.26923 0.28432-0.4103 0.42972-0.70117l1.3984-3.1504-0.14844-0.44922c0-0.03333-0.068-0.01784-0.20117 0.04883l-1.8906 3.3477c-0.075-0.14582-0.16828-0.28079-0.20898-0.44727l-0.05078-0.34961c-0.7231-1.5457-1.161-2.4633-1.4297-3.002 0.1438-0.2634 0.23046-0.36647 0.38086-0.64844l1.0996-2.0996c0.1333-0.23333 0.1333-0.56667 0-1 0-0.06667-0.05-0.04922-0.15039 0.05078-0.1333 0.06667-0.2167 0.15-0.25 0.25l-1.5039 2.6582c-0.042-0.09125-0.11638-0.1601-0.14648-0.25976l-0.0996-0.29883c-0.3978-0.80128-0.91364-1.7431-1.4902-2.7559 0.12709-0.22831 0.26452-0.35463 0.39062-0.59375 0.1333-0.2 0.6333-1.2349 1.5-3.1016 0.2667-0.63333 0.31709-1.0655 0.15039-1.2988-0.4 0.33332-0.63447 0.55039-0.70117 0.65039l-1.4492 2.8984c-0.1092 0.20434-0.28238 0.42343-0.39648 0.62891-0.015-0.02917-0.0377-0.04787-0.0527-0.07813l-0.10156-0.30078c-0.256-0.44895-0.55444-0.93152-0.89844-1.4492 0-0.0724-0.0198-0.13828-0.0508-0.19922-0.2-0.39999-0.41709-0.60156-0.65039-0.60156-0.1667 0-0.39922 0.18412-0.69922 0.55078 0 0.0039-0.0117 0.0097-0.0137 0.01367 0.2614-0.56992 0.73533-1.2877 0.86133-1.7637 0.3333-1.3333 0.36796-2.6008 0.10156-3.8008-0.2335-1.0999-0.8167-1.7492-1.75-1.9492zm-0.29883 0.80078c0.8 0.26667 1.2496 0.79961 1.3496 1.5996 0.2333 2.0333-0.28408 4.0334-1.5508 6-0.4 0.63332-0.70039 0.76706-0.90039 0.40039-0.033-0.03333-0.1167-0.33374-0.25-0.90039-0.6667-2.3-0.81592-4.2012-0.44922-5.7012 0.1667-0.76665 0.76748-1.2318 1.8008-1.3984zm-61.65 36.85c0.6 0.03333 0.9333 0.5159 1 1.4492 0.033 1.3667 0.0488 2.1341 0.0488 2.3008 0 0.86665-0.099 1.6322-0.29883 2.2988-0.1667 0.56665-0.4167 1.4-0.75 2.5-0.067 0.16667-0.18291 0.2849-0.34961 0.35156-0.1 0.03333-0.16787 0.01589-0.20117-0.05078l-0.09958-0.25001c-0.9-1.6666-1.3341-3.3508-1.3008-5.0508 0-0.93332 0.20156-1.7996 0.60156-2.5996 0.3-0.63332 0.74961-0.94922 1.3496-0.94922zm22.062 46.162c0.3083-0.125 0.6208-0.1128 0.9375 0.0371 0.3667 0.2 0.56631 0.51784 0.59961 0.95117 0 0.16667-0.066 0.53294-0.19922 1.0996-0.2 0.7-0.60117 1.4326-1.2012 2.1992-0.7333 0.83333-1.2837 1.4496-1.6504 1.8496-0.1 0.13333-0.2667 0.25156-0.5 0.35156l-0.54883 0.25-0.0996-0.60156c0.067-2.2 0.65-3.983 1.75-5.3496 0.3-0.4 0.60381-0.66211 0.91211-0.78711zm6.8867 0.63672c0.6333-0.0667 1.1333 0.28411 1.5 1.0508 0.2667 0.46667 0.6833 1.1333 1.25 2 0.5 0.76667 0.8333 1.4663 1 2.0996l0.0996 0.5h-0.54883c-1.6333-0.63333-2.8504-1.6333-3.6504-3l-0.34961-0.79883c-0.1667-1.2 0.066-1.8182 0.69922-1.8516zm1.2012 5.5508-0.0508 0.0508z"/>
 <g transform="translate(-326.3)">
  <path transform="translate(160.15,84.1)" d="m171.15-84.1c-3.3333 0-5 1.6667-5 5v158.2c0 3.3333 1.6667 5 5 5h93.199c3.3333 0 5-1.6667 5-5v-158.2c0-3.3333-1.6667-5-5-5zm8.2988 7.1992h76.6c4.6667 0 7 2.3333 7 7v139.8c0 4.6667-2.3333 7-7 7h-76.6c-4.6667 0-7-2.3333-7-7v-139.8c0-4.6667 2.3333-7 7-7z" fill="#ef1d1e"/>
  <path transform="translate(160.15,84.1)" d="m179.45-76.901c-4.6667 0-7 2.3333-7 7v139.8c0 4.6667 2.3333 7 7 7h76.6c4.6667 0 7-2.3333 7-7v-139.8c0-4.6667-2.3333-7-7-7z" fill="none" stroke="#000" stroke-width="1.2"/>
 </g>
</svg>
