<svg width="103.2" height="168.2" preserveAspectRatio="none" version="1.1" viewBox="0 0 103.2 168.2" xmlns="http://www.w3.org/2000/svg">
 <path d="m13.299 7.1992c-4.6667 0-7 2.3333-7 7v139.8c0 4.6667 2.3333 7 7 7h76.6c4.6667 0 7-2.3333 7-7v-139.8c0-4.6667-2.3333-7-7-7z" fill="#fff"/>
 <path d="m14.648 34.301c-0.0543 0.0342-0.12022 0.0497-0.19922 0.0488-0.66875-5.2e-4 -1.2346 0.18359-1.6992 0.55078h0.0488c-0.72018 0.69206-1.2027 1.7909-1.4492 3.2988-0.22057 1.4258-0.18762 2.6099 0.0996 3.5508 0.14401 0.45195 0.4444 1.1012 0.90039 1.9492 1.5316 2.3834 2.0426 1.3754 2.6992 0.85155 1.3161-2.7768 1.8006-5.3776 1.4512-7.8008-2e-3 -9e-3 -2e-3 -0.0264 0-0.0508v-0.25c-4e-3 -0.49648-0.0873-0.89571-0.25-1.1992v-0.0508c-0.29193-0.55833-0.82682-0.85677-1.6016-0.89844zm77.051 34.398c-0.33298 8e-3 -0.73093 0.12627-1.1934 0.34961-1.2372 0.79956-1.8979 2.2238-1.957 4.3008v0.0508c-0.0876 0.76107-4e-3 1.7107 0.25 2.8496l-0.0488-0.0508 0.75 2.5s0.51792 1.0091 1.1484 1.0508c0.84699-0.04051 1.1504-1 1.1504-1 0.39063-0.70638 0.7569-1.6056 1.0996-2.6992 0.65299-1.9487 0.80416-3.8654 0.45117-5.75-0.20599-1.0469-0.75638-1.5818-1.6504-1.6016zm-1.1934 0.34961c0.0184-0.0119 0.0244-0.0372 0.043-0.0488l-0.0488 0.0508c2e-3 -1e-3 4e-3 -7.9e-4 6e-3 -2e-3zm-44.906 22.15c-0.92903 0.023-1.679 0.49011-2.25 1.4004-1.0385 1.7118-1.6219 3.6964-1.75 5.9512-0.04175 1.3553-0.08592 2.7583 1.5488 2.3496l2.3516-2.5996c0.13333-0.16367 0.33294-0.39818 0.59961-0.70117h0.0488c0.54752-0.64713 0.91575-1.1626 1.1016-1.5488 8e-3 2.6e-4 8e-3 -0.0172 0-0.0508 0.39505-0.58971 0.57722-1.2389 0.54883-1.9492v-0.30074c-2e-3 -0.55622-0.0675-1.002-0.19727-1.3418-0.29265-0.59081-0.73096-0.99088-1.3516-1.1582zm2.002 1.209c0.0102 0.0207 0.037 0.0198 0.0469 0.041l-0.0488-0.0488c7.7e-4 2e-3 9.5e-4 6e-3 2e-3 8e-3zm4.5469 19.791c-0.64727 0.0403-1.2306 0.40856-1.75 1.1016-0.34792 0.55534-0.47969 1.1716-0.39844 1.8496 2e-3 0.0587-0.0155 0.10912-0.0508 0.15039-0.0749 0.47213 0.0259 1.0206 0.30078 1.6484 0.14935 0.17721 0.23268 0.36133 0.25 0.55078 0.33958 1.0827 1.1555 2.3656 2.4492 3.8496 0.59626 0.9022 1.3413 1.0872 2.3008 1.0996 1.1442-0.74452 0.58689-2.0485 0.34962-3.1992-0.55052-2.5518-1.0505-4.3348-1.5-5.3496-0.39011-0.85742-0.87461-1.4078-1.4512-1.6504z" fill="#faea01"/>
 <path d="m13.687 34.387c-0.5583 0.20833-1.0879 0.64583-1.5879 1.3125-0.3 0.39999-0.49961 0.91746-0.59961 1.5508-0.033 0.36667-0.068 0.93256-0.10156 1.6992-0.1333 0.96665 0.018 2.05 0.45117 3.25l0.38477 1.0176c-0.1054 0.0025-0.15456-0.04132-0.28516-0.01758-0.067 0.06667-0.0838 0.10156-0.0508 0.10156l-0.1992 0.14831h-0.0508c-0.024 0.06315-0.0566 0.13099-0.0996 0.20117 0-0.03333-0.0346-0.01784-0.10156 0.04883l-0.0508 0.10156c-0.067 0.14922-0.1508 0.29844-0.25 0.44922-0.045 0.0931-0.093 0.17643-0.14844 0.25-0.01 0.03385-0.0238 0.0513-0.0508 0.05078l-0.0332 0.05664c-0.13336-0.11037-0.40083-0.2509-0.51753-0.35742l-0.39844-0.40039c-0.1667-0.23332-0.35078-0.26628-0.55078-0.09961-0.1333 0.13333-0.18369 0.24961-0.15039 0.34961 0.033 0.03333 0.10117 0.08372 0.20117 0.15039l0.54883 0.65039c0.121 0.14113 0.34707 0.25555 0.48437 0.39258l-1.1836 2.1074v0.09961c-0.013 0.06217-0.0562 0.10352-0.0742 0.16211-0.1182-0.10617-0.42319-0.25913-0.52539-0.36133l-0.44924-0.55078c-0.1667-0.2-0.30039-0.34922-0.40039-0.44922-0.2-0.13333-0.38213-0.15079-0.54883-0.05078-0.2333 0.2-0.13447 0.55079 0.29883 1.0508l0.75 0.75c0.1599 0.15274 0.34406 0.21188 0.50586 0.35742l-0.0547 0.0918-1.1504 2.6504-0.041 0.24414c-0.1733-0.13569-0.38789-0.20383-0.55859-0.34375l-0.75-0.65039c-0.3-0.23333-0.51709-0.30117-0.65039-0.20117-0.067 0.06667-0.0344 0.28374 0.0996 0.65039 0.1333 0.33333 0.4667 0.69961 1 1.0996l0.45117 0.30078c0.018 0.0135 0.0611 0.04473 0.0801 0.05859l-0.88088 2.541-0.05078 0.15039c-9e-4 0.03936-0.0224 0.07448-0.0254 0.11328-0.15889-0.13067-0.36773-0.23061-0.52343-0.36328l-1.3496-1.1504c-0.067-0.1-0.20039-0.18333-0.40039-0.25l-0.05078 0.40039v0.15039c0.1333 0.36665 0.65078 0.91707 1.5508 1.6504l0.29883 0.29883c0.064 0.05947 0.12575 0.08808 0.18945 0.14648l-0.83789 3.2031-0.0508 0.5c-9e-4 0.0072 2.3e-4 0.01427-0.01 0.02148-0.1977-0.15992-0.39605-0.20398-0.59375-0.37109l-0.70117-0.65039c-0.067-0.1-0.13252-0.16589-0.19922-0.19922-0.067-0.06667-0.15-0.06667-0.25 0l-0.0996 0.05078c-0.1667 0.2-0.1667 0.38217 0 0.54883l1.0488 1.0996 0.30078 0.25c0.068 0.06586 0.18321 0.12583 0.25391 0.19141l-0.70312 102.76 94.03 0.26517s0.15872-45.772-0.0266-69.015l-0.75-3.6973c0.1668-0.16019 0.39263-0.28696 0.54883-0.45312 0.4333-0.46667 0.86748-1.0326 1.3008-1.6992l0.79911-1.3008c0.1333-0.36667 0.15058-0.58372 0.0508-0.65039-0.2-0.1-0.41709 7.82e-4 -0.65039 0.30078l-1.75 2.2988c-0.14932 0.19728-0.43413 0.30205-0.59963 0.48828-0.01-0.14628-0.01-0.30823 0-0.48828l-0.73438-2.9355c0.1711-0.16671 0.36626-0.18289 0.53516-0.36328 0.6333-0.66667 1.1663-1.3179 1.5996-1.9512 0.2333-0.3 0.34961-0.55 0.34961-0.75 0-0.1-0.05-0.23177-0.15039-0.39844-0.1667-0.16667-0.34883-0.05039-0.54883 0.34961-0.3667 0.53332-0.88408 1.1322-1.5508 1.7988l-0.5332 0.49805c-0.015-0.06866-0.0584-0.12545-0.0664-0.19727l-0.0508-0.44922c-0.2217-0.79204-0.48723-1.6254-0.79883-2.5l-0.0254-0.0332 0.47461-0.31836c1.2333-0.96665 2.1829-1.9492 2.8496-2.9492 0.2-0.2 0.30078-0.34922 0.30078-0.44922l-0.15037-0.30078c-0.1667-0.1-0.31592-0.1-0.44922 0l-0.35156 0.34961c-0.6333 0.8-1.4667 1.6333-2.5 2.5-0.099 0.07572-0.4067 0.29752-0.5332 0.39258 0-0.01552-0.0116-0.02726-0.0156-0.04297l-0.05081-0.19922c-0.4763-1.215-0.9763-2.2983-1.5-3.25-0.029-0.05091-0.0636-0.1013-0.10156-0.15039-0.079-0.15402-0.162-0.30327-0.25-0.44922l-0.0508 0.04883c-0.01-0.01732-0.0218-0.03281-0.0488-0.04883-0.1667-0.1-0.3333-0.13294-0.5-0.09961l-0.0332 0.0078 0.53321-1.1094c0.4-0.99999 0.59961-2.0659 0.59961-3.1992-0.067-0.93332-0.0996-1.633-0.0996-2.0996 0-0.7-0.05-1.2-0.15039-1.5-0.2-0.53333-0.56631-0.85117-1.0996-0.95117-0.5-0.1-0.98447-0.01667-1.4512 0.25-0.4667 0.23333-0.84844 0.58412-1.1484 1.0508-1.2 1.9666-1.3337 4.2342-0.40039 6.8008l0.0996 0.29883c0.1425 0.37993 0.15432 0.70344 0.26172 1.0684-0.1308 0.01641-0.27353 0.0011-0.36133 0.13281l-0.0996 0.14844-0.0508 0.15039c-0.2535 0.63047-0.52098 1.3301-0.80078 2.0996 0 0.17124-0.12106 0.29193-0.16016 0.44726-0.1366-0.1942-0.30925-0.34509-0.43945-0.54688-0.4667-0.69999-0.8833-1.3996-1.25-2.0996-0.1-0.23333-0.28213-0.31667-0.54883-0.25-0.1667 0.03333-0.21709 0.18255-0.15039 0.44922l1.5488 2.9004c0.1419 0.22567 0.32651 0.34135 0.47461 0.55078l-0.92383 2.4492c0 0.15674-0.10558 0.2733-0.13867 0.41797-0.1466-0.20002-0.31704-0.3065-0.46094-0.51758l-1.3984-2.25c-0.1333-0.26667-0.31748-0.33255-0.55078-0.19922-0.1 0.1-0.11553 0.26667-0.0488 0.5 0.4667 1.0667 1.0171 2.0667 1.6504 3 0.1108 0.18003 0.30208 0.35079 0.42578 0.5293l-0.87695 2.7207c0 0.10051-0.0582 0.17557-0.0742 0.26953-0.1444-0.17374-0.39099-0.29146-0.52539-0.4707-0.4333-0.59999-0.83252-1.2492-1.1992-1.9492-0.2-0.33333-0.38408-0.46706-0.55078-0.40039-0.1667 0.1-0.25 0.21629-0.25 0.34961 0.4 1.1667 0.96592 2.1841 1.6992 3.0508 0.072 0.0958 0.34942 0.34951 0.44922 0.4668l-0.94922 3.1836c0.01 0.08099 0.01 0.14688 0 0.19922-0.01 0.09149-0.0572 0.1604-0.0762 0.24609l-0.52346-0.49609c-0.4333-0.43333-0.78213-0.85-1.0488-1.25-0.1667-0.26667-0.28486-0.43333-0.35156-0.5-0.1667-0.16667-0.3333-0.18412-0.5-0.05078-0.1333 0.1-0.16591 0.26667-0.0996 0.5 0.067 0.1 0.16748 0.26667 0.30078 0.5 0.6 0.79999 1.0671 1.3833 1.4004 1.75 0.149 0.17878 0.3154 0.29459 0.4668 0.46484l-0.81836 2.7363v0.40039c-0.01 0.06423-0.0475 0.12276-0.0625 0.18555-0.1457-0.15406-0.42321-0.40697-0.53711-0.53711-0.2667-0.3-0.63291-0.81551-1.0996-1.5488-0.06701-0.13334-0.15001-0.18372-0.25001-0.15039-0.1333 0.06667-0.23408 0.09961-0.30078 0.09961-0.1667 0.03333-0.18223 0.14961-0.0488 0.34961 0.3333 0.49999 0.81592 1.25 1.4492 2.25l0.49216 0.55078-0.74219 2.75v0.34961c-0.01 0.0722-0.0554 0.12298-0.0684 0.19141-0.1518-0.18029-0.39455-0.36075-0.53125-0.54102-0.4333-0.56665-0.74922-1.0667-0.94922-1.5-0.1-0.2-0.28408-0.26588-0.55078-0.19922-0.2 0-0.25039 0.13177-0.15039 0.39844 0.033 0.33332 0.16709 0.68411 0.40039 1.0508 0.1333 0.2 0.35039 0.50039 0.65039 0.90039l0.34961 0.40039c0.1205 0.14793 0.34336 0.3251 0.47656 0.47656-0.3497 1.4009-0.65255 2.7254-0.87695 3.9219l-0.0488 0.40039c-0.01 0.0604-0.032 0.11328-0.043 0.17187l-1.3086-1.4219c-0.1333-0.13333-0.23213-0.21667-0.29883-0.25-0.1-0.0667-0.21631-0.0667-0.34961 0-0.2 0.13333-0.21708 0.33294-0.0508 0.59961 0.4 0.63333 0.79922 1.1508 1.1992 1.5508 0.1295 0.13705 0.36507 0.32294 0.51367 0.46875l-0.71283 3.2812c0.048 0.16485 0.0658 0.33151 0.0508 0.5 0 0.0325-0.0243 0.058-0.0293 0.0898l-1.6719-1.6406c-0.1-0.16667-0.1833-0.29844-0.25-0.39844-0.067-0.13333-0.16553-0.1506-0.29883-0.0508-0.1333 0.0667-0.20117 0.20039-0.20117 0.40039s0.05 0.36667 0.15039 0.5l1.4492 1.6992c0.156 0.17328 0.37311 0.32388 0.53711 0.49414l-0.53711 2.8555c0.018 0.17625-0.0639 0.3263-0.0859 0.49219-0.1087-0.105-0.4896-0.41407-0.5625-0.49219-0.4-0.43333-0.8167-0.98177-1.25-1.6484-0.1333-0.23333-0.28447-0.26823-0.45117-0.10156-0.1 0.0667-0.15039 0.16745-0.15039 0.30078 0.4 0.73333 0.66748 1.1829 0.80078 1.3496l0.90039 1.0508c0.01 5e-3 0.43113 0.38735 0.48633 0.4375l-0.53711 3.3613v0.40039c8e-4 0.0785-0.0447 0.14161-0.0547 0.2168-0.1934-0.20417-0.30242-0.29699-0.54492-0.56641l-1.25-1.25c-0.067-0.0667-0.18291-0.13255-0.34961-0.19922-0.2-0.0333-0.31631-0.0333-0.34961 0-0.1333 0.1-0.15038 0.19883-0.0508 0.29883l0.25 0.25 1.5508 2 0.5 0.5c0.01 9e-3 0.0164 0.0106 0.0254 0.0195l-0.47656 2.9805 0.0508 0.30078c0.016 0.16682-0.0316 0.31934-0.0586 0.47656-0.1952-0.20795-0.3996-0.34344-0.5918-0.57617l-1.5-1.7012c-0.1667-0.16667-0.3333-0.18243-0.5-0.0488-0.033 0-0.0508 0.0329-0.0508 0.0996-0.033 0.0667-0.033 0.11706 0 0.15039l2.4531 2.9727-0.10156 0.57617c-0.038 0.38854-0.18947 0.72187-0.45117 1-0.2654 0.3138-0.5987 0.51341-1 0.59961-0.3698 0.12318-0.75349 0.12318-1.1504 0l-0.0723-0.0234c0.023-0.18479 0.11045-0.45449 0.12305-0.625v-0.75c0.033-0.53308-0.068-1.0508-0.30078-1.5508h-0.19922c-0.2667 0.3-0.40039 0.76706-0.40039 1.4004v0.25c-0.01 0.18117-0.14792 0.50111-0.16602 0.69336-0.04-0.0406-0.095-0.049-0.13281-0.0937-0.078-0.0729-0.14607-0.15625-0.20117-0.25l-2.1602-1.5977 0.11133-0.65234c0.067-0.66667 0.0492-1.3004-0.0508-1.9004l-0.19922-0.15039c-0.2333-0.0667-0.36709 1e-3 -0.40039 0.20117l-0.15039 1.2988-0.0527 0.15039c-0.016 0.19852-0.095 0.33866-0.11524 0.5332-0.043-0.0341-0.093-0.0432-0.13476-0.082l-0.25-0.25-1.8887-1.2461c0.032-0.19862 0.11238-0.40806 0.13868-0.60547l0.10156-1.0488c0-0.4-0.15117-0.59961-0.45117-0.59961-0.2 0-0.33369 0.18216-0.40039 0.54883l-0.0488 0.55078c-0.04 0.29759-0.079 0.44006-0.11914 0.69922-0.026-0.0206-0.057-0.0261-0.082-0.0488l-0.29883-0.20117-1.6016-1.0176c0.014-0.13037 0.096-0.53908 0.10156-0.63281 0.067-0.66667 0.0818-1.1667 0.0488-1.5 0-0.1-0.048-0.21628-0.14844-0.34961l-0.30078-0.40039c-0.2 0.2-0.30078 0.33372-0.30078 0.40039l-0.19532 2.0762c-0.049-0.0346-0.10639-0.0369-0.15429-0.0762l-0.25-0.25-1.75-1-0.0527-0.0176c0.018-0.19644 0.14075-0.38508 0.15235-0.58203 0.1-0.7 0.11708-1.5004 0.0508-2.4004 0-0.13333-0.0168-0.21667-0.0508-0.25-0.033-0.1-0.1167-0.15039-0.25-0.15039-0.3333 0-0.5 0.13372-0.5 0.40039l-0.0488 1.9004c-0.015 0.22253-0.13315 0.47072-0.15625 0.69531l-0.34375-0.24609-1.6172-0.90234c0-0.0295 0.0176-0.2338 0.0176-0.2461l0.0508-0.35156c0.1-0.76667 0.05-1.883-0.15039-3.3496-0.033-0.2-0.23291-0.29883-0.59961-0.29883-0.1333 0.0333-0.19922 0.14961-0.19922 0.34961l0.0488 2.7988c-0.01 0.24-0.0554 0.46653-0.0684 0.70508-0.042-0.0284-0.09-0.0225-0.13086-0.0547l-0.25-0.19922-0.94922-0.45117c-0.1089-0.23463-0.2755-0.36641-0.5-0.39844-0.1333-0.0333-0.28447-0.0333-0.45117 0-0.075 0-0.11819 0.0633-0.17969 0.0898l-0.17-0.99024c-0.3333-1.7667-0.85078-3.2512-1.5508-4.4512-0.4333-0.86667-1.0321-1.1826-1.7988-0.94922-1.0667 0.36667-1.65 0.98294-1.75 1.8496-0.1667 1.5667 0.18213 3.1171 1.0488 4.6504 0.083 0.14224 0.20467 0.26131 0.29297 0.40039-0.131-4e-3 -0.26198-0.0373-0.39258 0-0.3333 0.0667-0.5833 0.18294-0.75 0.34961-0.1575 0.13515-0.29129 0.33476-0.40039 0.59961-0.4105 0.24544-0.8272 0.52838-1.25 0.84961-0.4224 0.31771-0.90492 0.43593-1.4492 0.35156-0.3142-0.0247-0.53416-0.2585-0.78516-0.42383l0.13477-0.0762c0.1-0.0333 0.2667-0.21745 0.5-0.55078-0.2667-0.13333-0.58252-0.11607-0.94922 0.0508l-0.15039 0.0996-0.0996 0.0469c-0.2665-0.3694-0.43659-0.77262-0.40039-1.248l0.0937-1.7441c0.1837-0.0956 0.50055-0.15203 0.65625-0.25586l0.69922-0.5c0.1667-0.16667 0.21709-0.29844 0.15039-0.39844-0.1-0.16667-0.24922-0.20156-0.44922-0.10156l-0.34961 0.15039c-0.3576 0.14305-0.37467 0.1353-0.66797 0.25 0.01-0.085-4.2e-4 -0.16129 0.0176-0.25l0.0488-0.25 0.19336-3.541 0.6582-0.25781c1.2-0.56666 2.1825-1.15 2.9492-1.75 0.2667-0.1 0.31709-0.20078 0.15039-0.30078l-0.40034-0.19922-2.6992 1.25c-0.2797 0.12588-0.38389 0.12035-0.65039 0.23633 0.01-0.0293-0.01-0.0586 0-0.0879l0.0488-0.29883 0.0977-3.2402 1.7539-0.91016c0.5333-0.3 0.76592-0.60039 0.69922-0.90039-0.033-0.13333-0.16709-0.19922-0.40039-0.19922-0.2 0-0.3667 0.0504-0.5 0.15039l-0.94922 0.64844c-0.1387 0.091-0.49139 0.20552-0.65039 0.29883 0.01-0.0666-0.015-0.12971 0-0.19727l0.0508-0.25-0.0957-3.0742c0.2075-0.12333 0.384-0.13973 0.5957-0.27734l2.25-1.5996c0.3667-0.29999 0.51592-0.6159 0.44922-0.94922-0.033-0.13333-0.21748-0.11786-0.55078 0.0488l-2.1992 1.5c-0.2244 0.15429-0.38551 0.19101-0.59961 0.32617 0.01-0.10855-0.024-0.21874 0-0.32617v-0.0488c-0.053-1.294-0.10299-2.3442-0.15039-3.1504v-0.30078c0-0.32413-0.0375-0.40888-0.0644-0.55078 0.2178-0.23464 0.27227-0.345 0.51367-0.59766 0.8333-1.0667 1.3837-2.1345 1.6504-3.2012 0.1333-0.73332 0.017-1.4504-0.34961-2.1504-0.4333-0.79999-1.0671-1.1159-1.9004-0.94922-0.9 0.16667-1.7159 0.88374-2.4492 2.1504-0.4333 0.73332-0.75117 1.4833-0.95117 2.25-0.1298 0.4285-0.085 0.98691-0.1543 1.4609-0.063-0.23567-0.081-0.55018-0.24414-0.61133-0.2-0.13333-0.48486-0.13333-0.85156 0l-0.59961 0.40039c-0.3726 0.17264-0.77192 0.35482-1.1992 0.54883-0.016 0.0089-0.0338 0.0089-0.0508 0l-0.25977 0.18555c-0.051-0.25364-0.087-0.35274-0.14062-0.63477-0.2-1.2-0.31631-2.1341-0.34961-2.8008 0-0.26667-0.0148-0.46628-0.0488-0.59961-0.067-0.19999-0.16748-0.29883-0.30078-0.29883-0.1333-0.03333-0.26709 0.05-0.40039 0.25-0.1 0.2-0.13261 0.4151-0.0996 0.64844l0.54297 3.8047c-0.6599 0.34847-1.4412 0.81384-2.3438 1.3965-0.071 0.10321-0.19055 0.14109-0.27734 0.22266-0.022-0.1335-0.1211-0.64688-0.1211-0.67383-0.067-0.66667-7.8e-4 -1.2984 0.19922-1.8984 0.1-0.23333 0.017-0.41745-0.25-0.55078-0.033-0.03333-0.084-0.05078-0.15039-0.05078-0.1 0-0.15039 0.01745-0.15039 0.05078-0.033 0.13333-0.13213 0.33296-0.29883 0.59961-0.10067 0.23334-0.15046 0.45039-0.15046 0.65039l0.0996 1.75c0.019 0.20447 0.0629 0.40886 0.0879 0.61328-0.2728 0.17357-0.55802 0.31195-0.88672 0.33594-0.2477 0.0201-0.4585-0.13415-0.6875-0.20313l-0.0137-0.19531c0-0.16666-0.05-0.36823-0.15039-0.60156-0.067-0.26667-0.13252-0.38294-0.19922-0.34961-0.1667 0-0.28291 0.06784-0.34961 0.20117-0.045 0.06735-0.0524 0.33873-0.0664 0.57227-0.2899-0.26032-0.53676-0.55596-0.63476-0.97266l-0.45506-1.9082 0.50586-0.54297c0.4667-0.43333 0.86592-0.93335 1.1992-1.5 0.2667-0.33333 0.31709-0.54844 0.15039-0.64844-0.1333-0.1-0.36592 0.01628-0.69922 0.34961l-0.84961 0.90039c-0.2696 0.28111-0.31068 0.30329-0.55078 0.55078-0.017-0.06705-0.0418-0.1289-0.0508-0.20117l-0.0488-0.40039-0.6582-2.6816 1.1074-1.418c0.067-0.06667 0.067-0.23335 0-0.5-0.1-0.03333-0.16592-0.03333-0.19922 0l-1.0508 0.84961c-0.053 0.05476-0.056 0.05386-0.10742 0.10742-0.01-0.05572-0.037-0.10034-0.043-0.1582l-0.0488-0.34961-0.66992-2.8223c0.1513-0.15374 0.37333-0.32404 0.51953-0.47656l1.25-1.4004c0.1-0.13333 0.15039-0.28451 0.15039-0.45117-0.033-0.2-0.0508-0.34922-0.0508-0.44922l-0.44922 0.25-1.6953 1.6953c-0.013-0.06624-0.0477-0.12742-0.0547-0.19531l-0.0508-0.34961-0.72656-2.8223c0.125-0.14746 0.42934-0.39478 0.52734-0.52734 0.1-0.06667 0.35-0.4 0.75-1v-0.55078l-0.30078 0.09961-0.65039 0.65039c-0.2028 0.21294-0.34326 0.32404-0.53906 0.52539-0.016-0.07907-0.0535-0.1393-0.0625-0.22461l-0.0488-0.45117-0.80274-2.9668c0.1309-0.15725 0.37926-0.32602 0.50196-0.48242 0.3-0.33333 0.68369-0.86628 1.1504-1.5996 0.3667-0.56665 0.41709-0.9349 0.15039-1.1016-0.1333-0.1-0.28447-0.04961-0.45117 0.15039-0.1333 0.23333-0.23213 0.4-0.29883 0.5-0.2 0.2-0.46748 0.53335-0.80078 1-0.2285 0.29945-0.38802 0.42938-0.60352 0.69727-0.049-0.23424-0.0699-0.48014-0.0469-0.74609l-0.5918-2.2207c0.1359-0.15685 0.36589-0.3247 0.49219-0.48047 0.9667-1.1333 1.7341-2.2496 2.3008-3.3496 0.1667-0.13333 0.18223-0.26706 0.0488-0.40039-0.067-0.06667-0.20039-0.03372-0.40039 0.09961-0.3667 0.29999-0.74844 0.71667-1.1484 1.25-0.4333 0.63332-0.7667 1.1004-1 1.4004l-0.10156 0.05078c-0.1884 0.22185-0.34225 0.31708-0.52735 0.52734-0.017-0.0801-0.0643-0.1434-0.0723-0.22852-0.01-0.05354 0-0.12517 0-0.19922l-0.74805-2.7637c0.1445-0.18084 0.36315-0.35552 0.49805-0.53711l1.1525-1.6992c0.2-0.33333 0.30078-0.63372 0.30078-0.90039 0-0.1-0.068-0.15039-0.20117-0.15039-0.1667 0.03333-0.28291 0.08372-0.34961 0.15039l-1.7969 2.2109c-8.9e-4 -0.0036 0-0.0062 0-0.0098-0.047-0.20052-0.0628-0.41759-0.0488-0.65039l-0.52344-1.7461 0.47266-0.60352c0.5333-0.66665 0.8667-1.3178 1-1.9512 0-0.1-0.066-0.24923-0.19922-0.44922-0.2333 0.06667-0.36709 0.15-0.40039 0.25l-1.2832 1.7891c0-0.01442-0.0126-0.02447-0.0176-0.03906-0.04-0.20508-0.0548-0.42214-0.0488-0.65039l-0.54688-1.8711 0.4961-0.57812c0.69999-0.89999 1.2-1.7333 1.5-2.5v-0.90039l-0.44922 0.44922-1.3496 2.0508c-0.1266 0.17359-0.39365 0.3678-0.53125 0.54297-0.019-0.08251-0.0623-0.15938-0.0703-0.24414l-0.0488-0.29883-0.54688-1.7773c0.1474-0.1665 0.3529-0.30403 0.4961-0.47266l1.7012-2.2012c0.033-0.03333 0.099-0.13217 0.19922-0.29883 0.067-0.13333 0.0324-0.26706-0.10157-0.40039-0.1333-0.1-0.31748-0.03411-0.55078 0.19922l-2.0273 2.3477c-0.041-0.13209-0.10905-0.24874-0.12305-0.39648-0.01-0.06875-0.01-0.15208 0-0.25l-0.54492-1.6367c0.1094-0.12404 0.41219-0.35283 0.49609-0.46289 0.5-0.59999 0.88369-1.2008 1.1504-1.8008 0.2-0.33333 0.21749-0.53294 0.0508-0.59961-0.1333-0.06667-0.24961-0.05117-0.34961 0.04883-0.1 0.16667-0.1833 0.26745-0.25 0.30078-0.2667 0.43333-0.56709 0.81706-0.90039 1.1504-0.1254 0.15227-0.37227 0.3297-0.50977 0.48438-0.024-0.09836-0.0818-0.17898-0.0918-0.28516-0.01-0.05261-0.01-0.11849 0-0.19922l-0.65039-2.0508-0.0332-0.07031c0.1548-0.15965 0.33307-0.26217 0.48437-0.42969 0.5333-0.49999 1.0817-1.1667 1.6484-2 0.1-0.1 0.25117-0.26667 0.45117-0.5 0.1667-0.19999 0.18418-0.36667 0.0508-0.5-0.13329-0.13332-0.3-0.11587-0.5 0.05078-0.16669 0.26665-0.29843 0.43333-0.39843 0.5l-1.5 1.5996c-0.2305 0.23044-0.32186 0.29225-0.53516 0.50195 0-0.01795-0.0146-0.03468-0.0176-0.05273l-0.0508-0.29883-0.69922-2v-0.01172c0.1575-0.15072 0.35751-0.28439 0.50391-0.43945 0.7667-0.7 1.4508-1.4829 2.0508-2.3496 0.033-0.03333 4e-5 -0.28333-0.10156-0.75-0.1333 0.03333-0.2167 0.08372-0.25 0.15039-0.6 0.76665-1.2492 1.4663-1.9492 2.0996-0.049 0.05743-0.42732 0.37246-0.54102 0.48047 0-0.01061-0.01-0.01859-0.01-0.0293l-0.0996-0.45117-0.58399-1.7051c0.1535-0.16038 0.33588-0.27748 0.48438-0.44531 0.7-0.73333 1.3667-1.6326 2-2.6992 0.1333-0.26667 0.11622-0.43333-0.0508-0.5-0.1333-0.06667-0.28252-0.01628-0.44922 0.15039l-2.3047 2.6719c-0.012-0.04428-0.0359-0.07622-0.0449-0.12305l-0.0506-0.19919-0.67578-1.9375c0.1663-0.21454 0.29486-0.29001 0.47656-0.5625 0.1667-0.36667 0.4167-0.73296 0.75-1.0996l0.15039-0.84961c-0.2667 0-0.5167 0.18217-0.75 0.54883l-0.94531 1.166c-0.017-0.05668-0.0417-0.10597-0.0547-0.16602l-0.25-0.79883v-0.050781l-0.10156-0.44922c-0.067-0.16667-0.21592-0.25-0.44922-0.25 0.1977-0.31509 0.37369-0.61393 0.40039-0.80078l0.0996-0.44922c0.3-1.3333 0.48408-2.2675 0.55078-2.8008 0.1333-1.0333 0.11622-1.9675-0.0508-2.8008-0.067-0.6-0.13252-1.0322-0.19922-1.2988-0.1333-0.5-0.40078-0.81784-0.80078-0.95117-0.6167-0.25-1.2034-0.27083-1.7617-0.0625zm0.96094 0.81237c0.5 0.03333 0.80039 0.2504 0.90039 0.65039 0.067 0.23333 0.0996 0.58412 0.0996 1.0508 0.3 2.1666-0.16514 4.5989-1.3984 7.2988l-0.1582 0.25391c-0.1324-0.10463-0.34585-0.31455-0.52735-0.48242-0.5612-1.0085-1.0047-1.8913-1.2148-2.5215-0.3-0.76665-0.33261-1.7996-0.0996-3.0996 0.2-1.3333 0.58174-2.25 1.1484-2.75 0.2-0.19999 0.6167-0.33372 1.25-0.40039zm77.312 34.438c0.2417 0.10833 0.40498 0.37917 0.48828 0.8125 0.3333 1.7333 0.19961 3.5183-0.40039 5.3516-0.2333 0.86665-0.58213 1.7329-1.0488 2.5996-0.1667 0.36665-0.31787 0.50039-0.45117 0.40039-0.033-0.03333-0.1167-0.2-0.25-0.5l-0.19922-0.70117c-0.2-0.49999-0.35117-1.0155-0.45117-1.5488-0.2333-1.0333-0.29922-1.9016-0.19922-2.6016 0.033-0.93332 0.14961-1.6659 0.34961-2.1992 0.2333-0.59999 0.63447-1.0826 1.2012-1.4492 0.4-0.21667 0.71924-0.2724 0.96094-0.16406zm-46.012 22.463c0.4667 0.1 0.74961 0.36745 0.84961 0.80078 0.033 0.06667 0.0656 0.4659 0.0996 1.1992 0.033 0.7-0.19922 1.3841-0.69922 2.0508-0.6333 0.73332-1.1004 1.2837-1.4004 1.6504-0.8 0.89999-1.3988 1.5822-1.7988 2.0488l-0.40039 0.34961-0.0996-0.54883v-1c0.1333-2.1 0.68174-3.9663 1.6484-5.5996 0.5667-0.79999 1.1675-1.1178 1.8008-0.95117zm6.4004 21c0.3 0.13333 0.60039 0.51706 0.90039 1.1504 0.4 0.9 0.74883 2.0008 1.0488 3.3008 0.2 0.73333 0.45 1.8496 0.75 3.3496 0.1 0.43333 0.05 0.68333-0.15039 0.75-0.05 0.0214-0.09-0.0307-0.13867-0.0215-0.3959-0.19397-0.57048-0.35436-0.82617-0.52735-0.01-0.0115-0.0282-0.0407-0.0352-0.0508-0.7667-0.9-1.2667-1.4833-1.5-1.75-0.5-0.73333-0.84883-1.4349-1.0488-2.1016-0.4667-0.8-0.61787-1.4318-0.45117-1.8984-0.1-0.53333 7.8e-4 -1.0333 0.30078-1.5 0.1333-0.23333 0.31748-0.41745 0.55078-0.55078 0.2333-0.16667 0.43291-0.21706 0.59961-0.15039z"/>
 <g transform="translate(-108.55)">
  <path transform="translate(160.15,84.1)" d="m-46.599-84.1c-3.3333 0-5 1.6667-5 5v158.2c0 3.3333 1.6667 5 5 5h93.199c3.3333 0 5-1.6667 5-5v-158.2c0-3.3333-1.6667-5-5-5zm8.2988 7.1992h76.6c4.6667 0 7 2.3333 7 7v139.8c0 4.6667-2.3333 7-7 7h-76.6c-4.6667 0-7-2.3333-7-7v-139.8c0-4.6667 2.3333-7 7-7z" fill="#ef1d1e"/>
  <path transform="translate(160.15,84.1)" d="m-38.3-76.901c-4.6667 0-7 2.3333-7 7v139.8c0 4.6667 2.3333 7 7 7h76.6c4.6667 0 7-2.3333 7-7v-139.8c0-4.6667-2.3333-7-7-7z" fill="none" stroke="#000" stroke-width="1.2"/>
 </g>
</svg>
