<svg width="103.2" height="168.2" preserveAspectRatio="none" version="1.1" viewBox="0 0 103.2 168.2" xmlns="http://www.w3.org/2000/svg">
 <path d="m13.301 7.1992c-4.6667 0-7 2.3333-7 7v139.8c0 4.6667 2.3333 7 7 7h76.6c4.6667 0 7-2.3333 7-7v-139.8c0-4.6667-2.3333-7-7-7z" fill="#fff"/>
 <path d="m57.75 105.06-8.25 13.875-25.062-0.625-1.0625 10.5 34.625 1.875 11.312-20.25z" fill="#faea01"/>
 <path d="m62.801 51.199c-2.8212 0-5.0508 2.2189-5.0508 5 0 2.7757 2.2193 5 5.0508 5 2.7622 0 5.0488-2.0744 5.0488-5 0-2.9313-2.2975-5-5.0488-5zm14.699 13.4c-3.1118 0-5.6992 2.5756-5.6992 5.7012 0 3.0669 2.4465 5.6992 5.6992 5.6992 3.1948 0 5.6992-2.4875 5.6992-5.6992 0-3.2684-2.6462-5.7012-5.6992-5.7012zm-51.4 16.9c0 2.3962 1.9213 4.5 4.5 4.5 2.5226 0 4.5-1.9605 4.5-4.5 0-5.9376-9-5.8195-9 0zm25.156 3.9727c-1.5823 4.1102 0.87859 7.4498 3.6074 8.084 3.9295 0.91324 8.1458-1.9588 7.2363-6.8574-1.128-6.0757-8.9614-6.1164-10.844-1.2266zm-36.756-1.123c-2.575 0-4.6992 2.1123-4.6992 4.7012 0 2.5263 1.9798 4.6992 4.6992 4.6992 2.6642 0 4.6992-2.0352 4.6992-4.6992 0-2.7254-2.1816-4.7012-4.6992-4.7012zm56.449 7.4512c-0.53333 0.5-0.88216 1.0833-1.0488 1.75-0.36667 1.2-0.60117 2.5159-0.70117 3.9492 0 0-5.0813-0.63614-7.7989 1.9004-0.83333 0.73333-1.6667 1.3167-2.5 1.75-0.1 0.0333-0.18333 0.0488-0.25 0.0488-0.24149 0-3.9213-4.5851-7.8496-1.5996-1.9709 1.6555-3.0139 4.7538-2.0508 7.75 0.0333 0 0.0508 0.0174 0.0508 0.0508 0.4 1.3333 0.84961 2.6667 1.3496 4 0.0667 0.1 0.0822 0.19883 0.0488 0.29883l-0.19914 0.3008-1.8496 1.5996h-0.0508c-0.1 0.0667-0.19883 0.0996-0.29883 0.0996-0.58891 0-3.4174-3.6689-7.4004-1.2988-0.73333 0.43333-1.4329 0.44901-2.0996 0.0488-1.8898-9.881-15.281-8.6224-14.4 1.2012 0 0.23333-0.0678 0.48333-0.20117 0.75v-0.0508c-0.0333 0.1-0.0992 0.18333-0.19922 0.25-5.4524-0.90294-10.148 1.044-9.3008 6.9004 0.8 3.2 2.8174 5.1496 6.0508 5.8496h0.0508c0.98569 0.50077 0.68378 7.3055 9.75 3.7012 0.46667-0.76666 1.0984-1.3016 1.8984-1.6016h0.05067c0.1-0.0333 0.20078-0.0333 0.30078 0 2.0129 2.4639 5.0094 4.1381 8.1992 2.6504 3.2096-1.8217 0.92869-4.0559 1.25-5.084 3.4425 2.9136 14.4 12.462 19.6 4.7343 0.1-0.73333 0.23372-1.4 0.40039-2h0.0508c0.0333-0.13333 0.0992-0.23411 0.19922-0.30078 5.99 0.7769 8.0799-0.96993 10.051-4.5996 0.2-0.23333 0.45-0.4 0.75-0.5 2.0336 2.393 6.1546 2.8036 7.6992-0.29883 1.7178-5.1454-3.3262-5.8676-3.3262-6.2773 2.3962-2.8311 2.4848-7.2091-1.0742-8.0742-1.1333-0.26667-2.1333-0.66589-3-1.1992-0.1-0.0667-0.16589-0.16745-0.19922-0.30078l0.89063-2.3262s2.4866 1.7834 4.1582 0.57618c2.9028-2.348 0.71012-5.3532-2.0488-5.4492l-0.45117-0.69922v0.0488c-0.066-0.13333-0.0996-0.24961-0.0996-0.34961 0 0 1.5637-0.82634 2.3496-2.8008 2.3228-5.0087-3.6548-8.4935-6.7499-5.3984zm-36.799 1.7988c-2.4624 0-4.5996 1.9455-4.5996 4.5508 0 2.5442 1.9898 4.5488 4.5996 4.5488 2.61 0 4.5996-2.0048 4.5996-4.5488 0-2.6053-2.1371-4.5508-4.5996-4.5508zm25.799 14.35c0.32097 3e-3 0.55547 0.0207 0.70117 0.0508 0.0337 3e-3 0.0667 3e-3 0.0996 0 0.0812 0.0129 0.1646 0.0458 0.25 0.0996 0.10026 0.0693 0.20108 0.10261 0.30078 0.0996h0.14844l0.40039 0.0508c0.28099 0.0962 0.68216 0.28034 1.2012 0.55078v0.0488c0.12553 0.0503 0.2089 0.11807 0.25 0.20117 0.0613 0.0728 0.12722 0.12124 0.19922 0.14844l0.40039 0.25c0.40794 0.35182 0.80716 0.78593 1.1992 1.3008l0.15039 0.59961c0.0417 0.0767 0.0921 0.14447 0.15039 0.20117 0.0821 0.0842 0.13249 0.1676 0.15039 0.25 7e-3 0.0415 7e-3 0.0745 0 0.0996 0.1918 0.58607 0.29083 1.1849 0.29883 1.7988-0.0385 0.23711-0.0889 0.4038-0.15039 0.5-0.0765 0.0699-0.12494 0.1532-0.14844 0.25-0.0133 0.10261 2e-3 0.20338 0.0488 0.30078 0.0453 0.137 0.0369 0.30957 0 0.5-0.17031 0.71537-0.36992 1.2328-0.59961 1.5508 7e-3 0.0413 7e-3 0.0742 0 0.0996-0.12995 0.27513-0.347 0.4418-0.65039 0.5l-0.69922 0.0488c-0.0845 7e-3 -0.1678 0.0419-0.25 0.10156-0.18203 0.13662-0.39909 0.20222-0.65039 0.19922-0.70987-0.0219-1.0761-0.45599-1.0996-1.3008-1e-3 -0.0262-0.0189-0.0591-0.0508-0.0996 0.0426-0.0909 0.0426-0.18972 0-0.29883-2e-3 -0.0705-0.0354-0.13827-0.0996-0.20117-0.16497-0.17422-0.33164-0.43972-0.5-0.79883-0.064-0.10859-0.0966-0.22682-0.0996-0.35156-3e-3 -0.0887-0.0357-0.172-0.0996-0.25-0.0259-0.0746-0.0763-0.14052-0.15039-0.19922-0.30339-0.16328-0.52044-0.39583-0.65039-0.69922-0.0494-0.1164-0.13268-0.1997-0.25-0.25l-0.40039-0.20117c-0.0179-0.0219-0.0508-0.0548-0.0996-0.0996-0.22292-0.11901-0.37212-0.25274-0.44922-0.40039-0.0327-0.0801-0.0831-0.14592-0.15039-0.19922-0.0665-0.0535-0.14987-0.0865-0.25-0.0996-0.16276-0.0292-0.39726-0.12995-0.70117-0.30078l-0.25-0.19922c-0.0875-0.07-0.18633-0.10456-0.29883-0.10156h-0.20117l-0.64844-0.0996c-0.54986-0.20951-0.85029-0.60873-0.90039-1.1992v-0.0508c-0.0335-0.27331 0.0654-0.52331 0.29883-0.75v0.0508c0.62956-0.50625 1.1645-0.87252 1.6016-1.0996l0.54883-0.10156h0.25c0.13685-1e-3 0.25311-0.0496 0.34961-0.14844 0.13945-0.12607 0.32357-0.2094 0.55078-0.25v-0.05076c0.22383-0.0353 0.53971-0.0528 0.94922-0.0508zm-27.148 11.352h0.0488c0.56485 3e-3 1.0978 0.0513 1.5996 0.14844l-0.0488-0.0488c0.17982 0.0591 0.31349 0.12502 0.40039 0.19922 0.0965 0.0987 0.21276 0.14939 0.34961 0.15039h0.0996l0.34961 0.0508c0.83685 0.32695 1.521 0.77656 2.0508 1.3496h0.0488c0.0703 0.0848 0.17109 0.25143 0.30078 0.5 0.0365 0.0863 0.0869 0.15222 0.15039 0.19922 0.16667 0.12409 0.26553 0.22488 0.29883 0.30078 0.0307 0.0505 0.0478 0.0835 0.0508 0.0996 0.54167 0.82044 0.875 1.6712 1 2.5508 4e-3 0.05 4e-3 0.0829 0 0.0996 0.0488 0.16081 0.0159 0.34297-0.0996 0.54883-0.33828 0.63466-0.88867 0.95217-1.6504 0.95117-0.17735 5.3e-4 -0.4099-0.0324-0.69922-0.0996-0.0724-0.0556-0.1557-0.0905-0.25-0.10156-0.11797-0.0139-0.23619 3e-3 -0.35156 0.0508-0.22643 0.1784-0.50938 0.29471-0.84961 0.34961-0.0172 5e-3 -0.0501 5e-3 -0.0996 0l-0.25 0.0996c-0.0277 0.0354-0.0607 0.0703-0.0996 0.10156-0.10403 0.0633-0.2552 0.0966-0.45117 0.0996h-0.0488c-0.0896 2e-3 -0.1729 0.0171-0.25 0.0488-0.0839 0.0583-0.15167 0.12617-0.20117 0.20117-0.28985 0.5263-0.75495 0.85963-1.3984 1l-0.25 0.0488c-0.18164-0.0229-0.36575-0.10625-0.55078-0.25-0.0753-0.0581-0.1586-0.0906-0.25-0.0996-0.25469-0.046-0.47174-0.1293-0.65039-0.25l-0.44922-0.40039c-0.38985-0.33477-0.67279-0.6836-0.84961-1.0488-0.0392-0.0672-0.10707-0.13507-0.20117-0.20117-0.0682-0.0333-0.1516-0.0488-0.25-0.0488h-0.0488c-0.28698 1e-3 -0.52148-0.0822-0.70117-0.25-0.0965-0.0987-0.21276-0.14939-0.34961-0.15039-0.22344-0.0103-0.47344-0.0936-0.75-0.25l0.0508 0.0508-0.20117-0.15039c-0.0897-0.0667-0.18854-0.0996-0.29883-0.0996h-0.20117c-0.0242-3e-3 -0.0571-3e-3 -0.0996 0l-0.30078 0.0488c-0.83646-0.0176-1.3694-0.38386-1.5996-1.0996l-0.0996-0.34961c9e-3 -9e-3 9e-3 -0.0261 0-0.0508-0.0933-0.22695-0.0759-0.44401 0.0508-0.65039 0.0177 8e-4 0.0332-0.0147 0.0488-0.0488 0.21276-0.40586 0.57904-0.89037 1.0996-1.4512h0.05068c0.11758-0.083 0.23386-0.13154 0.34961-0.14844 0.0889-0.01 0.15677-0.0445 0.20117-0.10156 0.0786-0.0306 0.12714-0.079 0.14844-0.14844 0.0862-0.11056 0.19466-0.23217 0.3125-0.35742-3e-3 2e-3 -0.01 5e-3 -0.0117 6e-3l0.0508-0.0488c-0.0149 0.0156-0.0247 0.0277-0.0391 0.043 0.35818-0.19753 0.93473-0.44439 1.7383-0.74414l0.30078-0.0488h0.19922c0.0689-2e-3 0.13472-0.0193 0.19922-0.0508l0.55078-0.25c0.53659-0.13727 1.087-0.2206 1.6504-0.25h0.0996l0.40039 0.0508c0.05 9e-3 0.10039 9e-3 0.15039 0zm20.398 2.5c0.38021 4e-3 0.6651 0.0191 0.85156 0.0488l-0.0508-0.0488 0.55078 0.14844c0.058 0.0307 0.10654 0.0478 0.14844 0.0508h0.15039l0.34961 0.0508c0.63828 0.12292 1.2391 0.37292 1.8008 0.75 0.12047 0.0977 0.2038 0.19648 0.25 0.29883 0.0651 0.0858 0.13102 0.15367 0.19922 0.20117 0.19401 0.0875 0.32779 0.1708 0.40039 0.25 0.0157 0.0166 0.0332 0.0321 0.0508 0.0488 0.57318 0.6207 0.9065 1.4715 1 2.5508-4e-3 0.18698-0.0369 0.3362-0.0996 0.44922l-0.80079 1.3496c-0.23724 0.28685-0.7043 0.47098-1.4004 0.55078h-0.75c-0.12357 4e-4 -0.23984 0.0333-0.34961 0.0996-0.2056 0.20469-0.52149 0.35587-0.94922 0.45117l-0.30078 0.0996c-0.0257 0.0238-0.0586 0.0388-0.0996 0.0488-0.0837 0.0512-0.18451 0.0861-0.30078 0.10156l-0.34962-0.05073c-0.0874-0.0123-0.18815 5e-3 -0.30078 0.0508-0.0693 0.0451-0.13512 0.11092-0.19922 0.19922-0.0368 0.0585-0.12018 0.10889-0.25 0.15039l-0.34961 0.0488c-0.24623-8e-3 -0.44584-0.10664-0.59961-0.29883l-0.0508-0.0508c-0.30573-0.36563-0.55573-0.86563-0.75-1.5-8e-3 -0.0832-0.0587-0.1665-0.15039-0.25-0.0634-0.0527-0.14675-0.0857-0.25-0.0996-0.28268-0.0329-0.6819-0.19961-1.1992-0.5l-0.15039-0.0996c-0.49078-0.28347-0.67487-0.76797-0.55078-1.4512v-0.0488l0.15039-1.1504c1e-3 -9e-3 1e-3 -0.0267 0-0.0508 4e-3 -0.13216 0.0543-0.26393 0.15039-0.39844 0.54414-0.72604 1.1779-1.2435 1.9004-1.5508 0.13568-0.0607 0.25191-0.0936 0.34961-0.0996h0.0508c0.0689-2e-3 0.13472-0.0193 0.19922-0.0508l0.44922-0.19922zm-42.35 7.8496c-2.5558 0-4.5996 2.0438-4.5996 4.5996 0 2.5558 2.0438 4.5996 4.5996 4.5996s4.5996-2.0438 4.5996-4.5996c0-2.5558-2.0438-4.5996-4.5996-4.5996zm34.701 8.1992c-2.4964 4.4962 1.7845 8.7479 5.8282 6.5977 3.1996-1.7014 3.9999-6.0364 1.9707-7.8477-2.0194-1.8026-6.3352-1.3862-7.7989 1.25z" fill="#ef1d1e"/>
 <path d="m67.699 26.449c-0.5333 0.06667-0.84922 0.26824-0.94922 0.60156l-0.0781 0.25c-0.048 0.0582-0.12651 0.03431-0.17188 0.09961-0.0135 0.05873-0.0465 0.09167-0.0996 0.09961l-0.0508 0.19922v-0.04883c-0.0965 0.3082-0.14688 0.70742-0.15039 1.1992v0.25c-0.015 0.14342-9e-3 0.14657-0.0234 0.28516l-0.17583 1.0645v0.050781c-0.19557 1.0249-0.29635 1.8253-0.30078 2.4004-0.0299 0.50468-8e-3 1.1679 0.0488 1.9492-0.0341 2.9831-0.18203 5.9324-0.44727 8.8496l-0.40039 7c0 0.29999-0.11631 0.38333-0.34961 0.25-1.2-0.53333-2.5179-0.46549-3.9512 0.20117-2.3 1.0667-3.3988 2.8826-3.2988 5.4492 0.1 1.9666 0.9333 3.4163 2.5 4.3496 0.2 0.13333 0.5333 0.3 1 0.5 0.3333 0.23333 0.43213 0.60158 0.29883 1.1016-0.6333 2.1333-1.3155 3.7496-2.0488 4.8496-0.2 0.23332-0.21708 0.43294-0.0508 0.59961 0.1667 0.16667 0.35078 0.11628 0.55078-0.15039 1.2-1.2333 2.0663-3.0667 2.5996-5.5 0.1-0.46665 0.41592-0.64883 0.94922-0.54883 0.6 0.1 0.98369 0.04961 1.1504-0.15039l0.25005 0.099609v0.25l-1.3496 8.8496c-0.2333 1.1667-0.34961 1.9012-0.34961 2.2012 0 0.4 0.099 1.0163 0.29883 1.8496 0.0319 0.10494 9e-3 0.14744 0.0352 0.24609 0.16696 0.61861 0.21356 1.46 0.13281 2.543-0.0602 0.60396-0.12292 1.1375-0.16797 2.0605l-0.5 4.9004c0 0.26665-0.05 0.6504-0.15039 1.1504-0.1667-0.46665-0.31592-0.8-0.44922-1-1.7667-2.6333-4.0671-3.6178-6.9004-2.9512-1.8333 0.36667-3.1337 1.3338-3.9004 2.9004-0.9 1.6666-1.1325 3.2171-0.69922 4.6504 0.5 1.6 1.3333 2.8171 2.5 3.6504 0.2 0.13333 0.50039 0.31551 0.90039 0.54883 0.2 0.23333 0.099 0.59961-0.30078 1.0996-0.7333 0.93332-1.3496 1.5845-1.8496 1.9512-0.033 0.03333-0.099 0.13216-0.19922 0.29883 0.2 0.13333 0.3667 0.20117 0.5 0.20117h0.0488c1.1-0.6 1.7996-1.1679 2.0996-1.7012 0.3667-0.63333 0.6167-0.99961 0.75-1.0996 0.3333-0.33332 0.76748-0.43216 1.3008-0.29883 0.6333 0.16667 1.4841 0.04844 2.5508-0.35156 1.5-0.5 2.5833-1.4826 3.25-2.9492 0.1 0.23333 0.11553 0.48333 0.0488 0.75 0 0.16667-0.0326 0.38372-0.0996 0.65039l-0.24999 2.8496c-0.1 1.1333-0.11708 2.083-0.0508 2.8496 0 0.4-0.099 0.65-0.29883 0.75-1.0667 0.63333-1.9329 1.6004-2.5996 2.9004l-0.10156-0.40039c-0.6667-0.93332-1.2984-1.6155-1.8984-2.0488-0.8-0.56665-1.7012-0.86706-2.7012-0.90039-0.5667-0.03333-1.1655 0.03255-1.7988 0.19922-0.7333 0.2-1.4 0.55078-2 1.0508-1.8333 1.6333-2.7016 3.6663-2.6016 6.0996 0.1 2.3 0.85 4.1508 2.25 5.5508l0.3008 0.29883c-1.0667 0.93333-1.7333 1.7512-2 2.4512-0.4-0.3-0.66748-0.5345-0.80078-0.70117-1.0333-1.1667-2.3996-1.8004-4.0996-1.9004-1.6333-0.1-3.1159 0.28372-4.4492 1.1504-0.1667 0.13333-0.30039 0.0829-0.40039-0.15039-0.5-1.8-0.81592-2.8484-0.94922-3.1484-0.8333-1.8-2.3508-2.9667-4.5508-3.5-0.4333-0.1-0.7667-0.18333-1-0.25-0.3667-0.1-0.64961-0.30156-0.84961-0.60156l-1.6504-2.0996c-0.2-0.3-0.80078-1.0171-1.8008-2.1504-0.7667-0.86666-1.3151-1.6167-1.6484-2.25-0.3333-0.7-0.4167-1.3996-0.25-2.0996 0-0.03333 0.31592-0.04883 0.94922-0.04883 0.7333 0.06667 1.1675 0.13255 1.3008 0.19922 0.1667 0.06667 0.44961 0.11706 0.84961 0.15039 0.3333 0.1 0.46709 0.3655 0.40039 0.79883-0.1667 1.0667-0.10078 2.0337 0.19922 2.9004 0.3667 0.99998 0.98291 1.7674 1.8496 2.3008 1.0333 0.6 2.1341 0.8655 3.3008 0.79883 1.1667-0.0667 2.0988-0.46589 2.7988-1.1992 1.6-1.6 2.1-3.3171 1.5-5.1504-0.3-0.96665-0.86592-1.8504-1.6992-2.6504-0.9-0.83332-1.7663-1.2151-2.5996-1.1484-1.1 0.1-1.8675 0.23177-2.3008 0.39844-0.8333 0.26665-1.4671 0.76667-1.9004 1.5-0.1 0.16667-0.24922 0.31784-0.44922 0.45117-0.2 0.13332-0.33369 0.18372-0.40039 0.15039-0.3667-0.16667-1.1825-0.2849-2.4492-0.35156-0.4333 0-0.7667-0.0155-1-0.04883-0.4-0.06667-0.65-0.16745-0.75-0.30078-0.0603-0.08807-0.038-0.23945-0.0898-0.33398-0.29139-1.4325-0.6104-2.868-0.61133-4.2656-0.0277-1.2056-0.16529-2.5867-0.31836-3.9922-0.0596-0.5232-0.0556-0.99919 0.16992-1.3086 0.2333-0.3 0.65-0.55 1.25-0.75 0.1-0.03333 0.21631-0.06628 0.34961-0.09961 0.1-0.03333 0.19883 0.01706 0.29883 0.15039 0.8333 1.3 1.9845 2.0674 3.4512 2.3008 1.4333 0.2 2.6988-0.15079 3.7988-1.0508 1.3-0.99999 1.9337-2.3992 1.9004-4.1992-0.033-1.8666-0.81631-3.2-2.3496-4-0.7667-0.43332-1.0671-0.93333-0.90039-1.5 0.067-0.26665 0.067-0.56707 0-0.90039-0.1333-0.33333-0.2167-0.58335-0.25-0.75-0.067-0.23333-0.24883-0.34961-0.54883-0.34961-0.1667 0.03333-0.25 0.1651-0.25 0.39844v2c0 0.33332-0.11826 0.46706-0.35156 0.40039-0.5667-0.26665-1.3321-0.16588-2.2988 0.30078-2.3333 1.2-3.3004 3.1497-2.9004 5.8496 0.067 0.26667-0.034 0.48372-0.30078 0.65039l-0.75 0.29883c-0.28826 0.12811-0.45457 0.1019-0.52734-0.04687l-0.0215-0.26758v-0.23438l-0.40038-8.6504c-0.067-1.1667-0.0838-3.1008-0.0508-5.8008 0.0322-2.4419-3e-3 -4.3035-0.0977-5.6641l-2e-3 -0.48438c-6.5e-4 -2.245-0.0511-3.9292-0.15039-5.0508v-0.05078l-0.0488-0.79883c-0.0344-0.57744-0.0342-0.65076-0.0508-0.96875v-7.0312c0-0.37816-0.0448-0.57714-0.0488-0.93945-5e-5 -0.0045 5e-5 -0.0072 0-0.01172-1e-3 -1.9426-0.0363-3.2081-0.10156-3.7988v-0.95117c-2.6e-4 -0.93203-0.0836-1.6316-0.25-2.0996-0.0424-0.13805-0.22294-0.19133-0.2832-0.31836-0.14184-0.28916-0.24525-0.5597-0.66602-0.98047-0.20794-0.19638-0.32217-0.19356-0.50195-0.33008-0.0933-0.05675-0.0953-0.16926-0.19727-0.2207h0.0488c-0.11435-0.05023-0.19588-0.03678-0.30469-0.07617-0.15201-0.08103-0.36912-0.30149-0.49414-0.32422-0.12526-0.01253-0.18179 0.12393-0.30078 0.125-0.093-0.01102-0.21325-0.07369-0.30078-0.07422-0.36302 0.0039-0.53948 0.38643-0.82617 0.54492-0.30876 0.16835-0.72962 0.09375-0.97266 0.4043-0.0626 0.08048-0.052 0.2221-0.10742 0.30859l-0.043 0.04102c-0.0193 0.03502-7e-3 0.1179-0.0254 0.1543-0.29622 0.5258-0.57291 1.068-0.625 1.7969-0.0463 0.73717 0.0188 2.1081 0.0684 3.3867l0.0195 1.7676-0.0371 0.8457c-0.033 0.46665-0.0182 0.83294 0.0488 1.0996 0.1 0.56665 0.1 1.3671 0 2.4004-0.1 1.1333-0.11553 1.9492-0.0488 2.4492 0.067 0.43333 0.0818 1.133 0.0488 2.0996-0.033 0.93332-0.033 1.6349 0 2.1016 0.067 0.36667 0.0512 0.89961-0.0488 1.5996-0.067 0.73332-0.0838 1.2663-0.0508 1.5996 0.3 2.4 0.35039 4.4 0.15039 6-0.067 0.59999-0.25078 1.3326-0.55078 2.1992-0.3 0.93332-0.4667 1.5341-0.5 1.8008-0.1333 0.69999-0.11622 1.2833 0.0508 1.75 0.7667 2.2666 1.1 4.883 1 7.8496l-0.0996 1.3496c-0.067 0.49999-0.0344 0.93412 0.0996 1.3008 0.033 0.16667 0.0162 0.60079-0.0508 1.3008l-0.39844-0.20117c-0.7333-0.59999-1.6345-0.83255-2.7012-0.69922-1.7333 0.13332-3.0163 0.81551-3.8496 2.0488-1.3 1.9-1.4008 3.8845-0.30078 5.9512 0.1333 0.26665 0.067 0.44883-0.19922 0.54883l-2.25 1c-0.067 0.03333-0.13252 0.2-0.19922 0.5-0.033 0.03333-0.0182 0.06823 0.0488 0.10156 0.033 0.03333 0.0656 0.04883 0.0996 0.04883l1.3516-0.19922c0.1333-0.03333 0.51514-0.21745 1.1484-0.55078 0.4667-0.23332 0.83486-0.26627 1.1016-0.09961 1.2666 0.66665 2.3829 1 3.3496 1 1.1333 0 2.1837-0.44962 3.1504-1.3496 0.2-0.13333 0.29883-0.08294 0.29883 0.15039 0.067 0.43333 0.15 1.0496 0.25 1.8496 0.1 0.69999 0.13261 1.2988 0.0996 1.7988-0.1 1.8333 0.30117 3.5175 1.2012 5.0508 0.3667 0.6 0.95 1.4837 1.75 2.6504 0.8 1.1667 1.3833 2.0504 1.75 2.6504 0.1333 0.23333 0.3833 0.54922 0.75 0.94922 0.2667 0.4 0.35 0.79922 0.25 1.1992-0.3333 1-0.53291 1.7016-0.59961 2.1016-0.1333 0.8-0.10069 1.5326 0.0996 2.1992 0.4667 0.8 0.36592 1.0829-0.30078 0.84961-1.6667-0.53333-3.6163-0.51607-5.8496 0.0508-0.9667 0.26667-1.8659 0.93334-2.6992 2-0.8333 1.0667-1.2675 2.0996-1.3008 3.0996 0 2.0667 0.46709 3.6829 1.4004 4.8496 1.3 1.6 2.6837 2.5671 4.1504 2.9004 0.067 0.0333 0.3167 0.0159 0.75-0.0508 0.3-0.0333 0.49961 0.0849 0.59961 0.35156 0.067 0.2 0.15 0.53334 0.25 1 0.1 0.46667 0.19883 0.8 0.29883 1 0.1333 0.26667 0.15233 0.41588 0.0527 0.44922-0.033 0.0333-0.16709 0.0333-0.40039 0-0.4667 0-1.0829 0.0659-1.8496 0.19922-1.0333 0.19999-1.6671 0.31822-1.9004 0.35156-0.5 0.16667-0.88369 0.29844-1.1504 0.39844-0.4333 0.13333-0.81514 0.0849-1.1484-0.14844-0.4-0.43334-0.75078-0.73372-1.0508-0.90039-1.6-0.9-3.1329-0.98333-4.5996-0.25-2.4333 1.1667-3.4333 3.0504-3 5.6504 0.2333 1.4 0.79922 2.4155 1.6992 3.0488 2.6333 1.7333 5.0171 1.4833 7.1504-0.75 0.5333-0.56667 0.89961-1.2837 1.0996-2.1504 0.1667-0.83333 0.13204-1.5988-0.10156-2.2988-0.1667-0.53333-0.25-0.88411-0.25-1.0508 0.033-0.4 0.34922-0.61706 0.94922-0.65039 0.4 0 0.68486-0.0155 0.85156-0.0488 1.8333-0.36667 2.7655-0.56628 2.7988-0.59961 1.0667-0.0667 2.0008 0.23177 2.8008 0.89844 0.3333 0.3 0.8333 0.5345 1.5 0.70117 0.4 0.0667 0.99883 0.18294 1.7988 0.34961-0.8 0.1-1.5325 0.66589-2.1992 1.6992-0.38854 0.49953-0.94312 0.90643-1.4648 1.332-0.82831 0.6605-1.7471 1.2892-3.0859 1.7695-0.13527 0.0525-0.20577 0.14371-0.33594 0.19922-0.15249 0.0585-0.25624 0.14365-0.41406 0.19922-1.7666 0.63333-3.0825 1.7845-3.9492 3.4512-1.2333 2.3666-2.6171 4.2659-4.1504 5.6992-1.6667 1.5667-3.8663 3.2004-6.5996 4.9004l0.21872 10.463 18.082-0.31248c0.5-0.83333 0.84883-1.3508 1.0488-1.5508 0.4333-0.46667 1.0671-1.2671 1.9004-2.4004 0.10417-0.14945 0.15856-0.18785 0.25781-0.32617 1.1204-1.4746 2.2353-2.8558 3.3379-4.0371 0.49616-0.57782 0.82394-0.91588 1.4551-1.6856 1.3-1.3667 2.6663-2.2678 4.0996-2.7012 2.5-0.7 4.6163-2.0488 6.3496-4.0488 0.3667-0.4 0.89961-1.0163 1.5996-1.8496 0.33291-0.41122 0.48688-0.80514 0.70508-1.2051 0.0376-0.0682 0.16583-0.18212 0.19531-0.24609 0.0929-0.20045 0.24685-0.44634 0.34961-0.6543 0.26621-0.29727 0.47616-0.54096 0.59961-0.69531l0.15039 0.75 0.75 1.75c0.3333 0.66667 0.71709 1.1996 1.1504 1.5996 0.1 0.1 0.2667 0.21628 0.5 0.34961 0.1667 0.16667 0.21709 0.36823 0.15039 0.60156l-0.3493 1.9492c-0.1667 0.66667-0.083 1.0659 0.25 1.1992 0.2667 0.1 0.48174-0.1655 0.64844-0.79883 0-0.5 0.035-0.85078 0.10156-1.0508l0.14844-0.90039c0.067-0.33333 0.2333-0.5 0.5-0.5 1.6667-0.0333 3.1008-0.53334 4.3008-1.5 1.7-1.4 2.5508-2.9484 2.5508-4.6484 0-0.76119-0.48321-1.7904-1.2344-2.9688 0.83236 0.17671 1.4762 0.19884 2.4883 0.52344 0.0615 0.0188 0.0814 0.0256 0.14453 0.0449 0.63302 0.2042 1.0853 0.4262 1.5938 0.64258 0.71348 0.29609 1.5021 0.65598 2.3789 1.0918 1.3768 0.71451 3.013 1.5492 6.0273 3.0156 2.0938 1.0226 3.3657 1.4361 5.0644 2.166 0.038 0.0149 0.14934 0.07 0.18555 0.084v0.0488l1.6016 0.70117c0.28897 0.12776 0.43133 0.11881 0.70508 0.23242 0.84471 0.32911 2.1237 0.97982 2.8438 1.2168 0.35443 0.12888 0.79997 0.0252 1.1719 0.10937 0.0741 0.013 0.20762 0.081 0.2793 0.0918 0.82898 0.0642 1.4031 0.0953 1.7578 0.0977 0.56326 9e-3 1.043 0.23128 1.6406 0.15234 1.1667-0.16667 2.3683-0.61823 3.6016-1.3516 0.7667-0.46667 1.8151-1.2322 3.1484-2.2988 1.4-1.1333 3.15-2.8174 5.25-5.0508 1.1333-1.1667 2.7671-2.9826 4.9004-5.4492 1.4485-1.69-0.47744-2.8767-0.90038-3.0508-0.25546-0.0958-0.42935 4e-3 -0.64649 0-0.0861-9e-3 -0.16509-0.0991-0.25195-0.0996-0.12165-1e-3 -0.2093 0.0835-0.32422 0.0996-0.036 0.0153-0.0925-0.0188-0.12695 0-0.022 0.0113-0.0869 0.0605-0.10938 0.0723-0.25119 0.0652-0.52478 0.0744-0.74023 0.22851h-0.0508c-0.67742 0.46857-1.8947 1.4766-2.748 2.1211-0.7902 0.54131-1.1491 0.69841-2.1504 1.4277-0.2 0.13333-1.0683 0.86784-2.6016 2.2012-0.67674 0.54984-1.2064 0.82536-1.7754 1.1738-0.81178 0.57324-1.7703 0.99198-2.7852 1.3516-0.36951 0.13308-1.0732 0.46085-1.2383 0.47461-0.8 0.0333-1.7496-0.46667-2.8496-1.5-1-0.93333-2.0175-1.2841-3.0508-1.0508-1 0.26667-2.1163 0.20078-3.3496-0.19922-0.5-0.16667-1.2675-0.5-2.3008-1-0.9667-0.5-1.7321-0.83333-2.2988-1-1.0667-0.33333-2.2334-0.94961-3.5-1.8496-1.4667-1.1-2.6333-1.9333-3.5-2.5 1.6666 0.36667 3.1163 0.49844 4.3496 0.39844 3.4-0.2 5.7333-2.0992 7-5.6992 0.2667 0.36667 0.41592 0.58372 0.44922 0.65039 0.4667 0.83333 1.3 1.4322 2.5 1.7988s2.2175 0.33363 3.0508-0.0996c1.0667-0.53333 1.8321-1.2504 2.2988-2.1504 0.5-0.96667 0.60078-1.9667 0.30078-3-0.2-0.63333-0.18292-1.1488 0.0508-1.5488 0.1-0.23333 0.39844-0.58411 0.89844-1.0508l0.80078-0.65039c0.3667-0.36667 0.45-0.73294 0.25-1.0996-0.1-0.16667-0.24922-0.1494-0.44922 0.0508-0.2333 0.26667-0.4 0.48372-0.5 0.65039-0.2333 0.23333-0.43486 0.38255-0.60156 0.44922l-0.84961 0.84961c-0.3333 0.33333-0.71709 0.26745-1.1504-0.19922-0.4667-0.46667-1.05-0.74961-1.75-0.84961-0.2333-0.0667-0.36514-0.18489-0.39844-0.35156-0.033-0.1 0.05-0.21628 0.25-0.34961l0.34961-0.34961c0.2667-0.33333 0.49922-0.80039 0.69922-1.4004 0.2-0.7 0.35117-1.2155 0.45117-1.5488 0.1667-0.53333 0.083-1.3008-0.25-2.3008-0.3333-1.0333-0.73447-1.6671-1.2012-1.9004-1-0.53333-1.7655-0.88216-2.2988-1.0488-0.9-0.26667-1.7508-0.30156-2.5508-0.10156l-0.09962 0.0507c-0.067-0.0333-0.0838-0.14961-0.0508-0.34961l1-2.2012c0.5333 0.53333 1.0508 0.90156 1.5508 1.1016 0.6333 0.23333 1.3 0.2491 2 0.0488 0.7333-0.23333 1.3321-0.6655 1.7988-1.2988 0.3667-0.5 0.56826-1.0678 0.60156-1.7012 0.033-0.6-0.11787-1.1659-0.45117-1.6992-0.7333-1.2-1.6325-1.8163-2.6992-1.8496-1.1-0.0333-2.0671 0.51511-2.9004 1.6484l-0.25 0.20117-0.0996-0.25c0-0.33333-0.26748-0.91668-0.80078-1.75l-0.15038-0.40031h0.45117c0.9 0.33333 1.8825 0.23254 2.9492-0.30078 1.2-0.6 2.0333-1.4663 2.5-2.5996 0.4667-1.0667 0.53447-2.2663 0.20117-3.5996-0.2-0.73332-0.66709-1.433-1.4004-2.0996-0.7333-0.66667-1.4504-1.0833-2.1504-1.25-2.1667-0.46667-3.9826 0.23297-5.4492 2.0996v-8.0508c0-0.43333-0.0178-2.3655-0.0508-5.7988-0.033-2.3333 0.05-4.2675 0.25-5.8008l0.40041-3.5996c0.033-0.36667 0.29883-0.48294 0.79883-0.34961 0.5333 0.13332 0.76787 0.41628 0.70117 0.84961-0.033 0.23333-0.1167 0.54922-0.25 0.94922 0.033 1.4666 0.59922 2.7671 1.6992 3.9004 1.4 1.6 3.2179 2.2163 5.4512 1.8496 1.3333-0.23333 2.5155-0.88256 3.5488-1.9492 1-1.0667 1.5329-2.2333 1.5996-3.5 0.2-2.5333-0.7167-4.483-2.75-5.8496-1.7-1.1333-3.5818-1.3329-5.6484-0.59961-1.5333 0.56667-2.6845 1.65-3.4512 3.25-0.1 0.23333-0.2667 0.29922-0.5 0.19922-0.2667-0.13333-0.46631-0.19922-0.59961-0.19922-0.1333 0.03333-0.19922-0.06745-0.19922-0.30078-0.0328-0.66268 7.1e-4 -1.6432 0.0996-2.9316l0.15039-1.3691c7e-3 -0.06428-0.0717-0.07635-0.0742-0.13477 0.0246-0.48711 0.0908-1.1505 0.0742-1.4648 0-0.49999 0.0326-2.0504 0.0996-4.6504-0.1-2.2-0.034-3.8667 0.19922-5 0.033-0.1 0.23291-0.73178 0.59961-1.8984 0.0329-0.11276 8e-3 -0.18091 0.0352-0.28906l0.0156-0.0625c0.0303-0.09587-5e-3 -0.13045 0.0195-0.2207 0.10786-0.53002 0.22777-1.07 0.17969-1.4785l-0.16602-1.0898c-0.24316-1.1628-0.37785-2.4174-0.43945-3.7344-0.16014-1.6913-0.17772-3.5715-0.0371-5.6641l0.14258-5.9609c0.0127-0.39218-0.11098-0.68463-0.15234-1.0371-0.0174-0.39539 9e-4 -0.99083-0.0469-1.2129-0.10298-0.44626-0.50942-0.70739-0.77148-1.0566-0.20867-0.29896-0.34468-0.65122-0.62891-0.89453-0.0139-0.01257-0.0271-0.0072-0.041-0.01953-0.0303-0.02009-0.0273-0.06055-0.0586-0.08008l-0.84961-0.55078c-0.19126-0.17001-0.49272-0.13918-0.76562-0.16016-0.0275-0.0019-0.0565-0.03831-0.084-0.03906-0.0115 1.95e-4 -0.0178 0.01523-0.0293 0.01563-0.11983 4.47e-4 -0.18817-0.09322-0.32226-0.06641zm-4.8496 25.201c0.8-0.06667 1.8 0.29962 3 1.0996 0.1667 0.13333 0.25 0.23412 0.25 0.30078 0 0.06667-0.11631 0.15-0.34961 0.25-1.2333 0.56667-2.5163 1.5996-3.8496 3.0996-0.2 0.19999-0.38408 0.19999-0.55078 0-0.3667-0.89999-0.96553-1.8845-1.7988-2.9512-0.2333-0.33333-0.21777-0.59884 0.0488-0.79883 0.1667-0.1 0.43408-0.21628 0.80078-0.34961 0.6333-0.49999 1.4492-0.71706 2.4492-0.65039zm3.25 2.5996c0.5333-0.36667 0.8667-0.33372 1 0.09961 0.033 0.23333 0.10117 0.58412 0.20117 1.0508 0.067 0.13332 0.0996 0.33294 0.0996 0.59961l-0.0996 0.75c0.033 0.83332-0.3833 1.6667-1.25 2.5-0.7667 0.73332-1.6 1.2159-2.5 1.4492-0.9333 0.23333-1.4508 0.10156-1.5508-0.39844 0.1-0.69999 0.13261-1.1845 0.0996-1.4512-0.1667-1.2333 0.23447-2.2159 1.2012-2.9492 0.5667-0.43333 1.4988-0.98374 2.7988-1.6504zm-7.6992 0.25c0.2-0.43333 0.46553-0.40039 0.79883 0.09961 1.2333 1.8667 1.8516 3.7504 1.8516 5.6504l-0.0508 0.15039-0.34961-0.20117c-1.7667-0.99999-2.6-2.5155-2.5-4.5488 0-0.36667 0.083-0.75039 0.25-1.1504zm19.199 10.5c2.0333 0.26667 3.4345 0.99923 4.2012 2.1992 0.067 0.2 0.067 0.33372 0 0.40039-0.1 0.1-0.41787 0.29961-0.95117 0.59961-1.3 0.69999-2.4492 1.7-3.4492 3-0.033 0.1-0.0656 0.15039-0.0996 0.15039-0.033 0.06667-0.10117 0.05117-0.20117-0.04883-1.2667-1.2-2.6988-2.1341-4.2988-2.8008-0.2667-0.13333-0.36748-0.3-0.30078-0.5 0.1667-0.16667 0.26748-0.28294 0.30078-0.34961 1.2-1.6667 2.7988-2.5504 4.7988-2.6504zm4.5508 3.5c0.2-0.1 0.34922-0.04961 0.44922 0.15039 0 0.03333 0.0326 0.18256 0.0996 0.44922v1.3008c0.1 0.93332-0.15 1.8655-0.75 2.7988-0.6 0.93332-1.3829 1.5845-2.3496 1.9512-0.1667 0.06667-0.28291 0.01628-0.34961-0.15039-0.033-0.2-0.0656-0.33372-0.0996-0.40039-0.4667-1.0667-0.85039-1.8496-1.1504-2.3496-0.067-0.2-7.8e-4 -0.39962 0.19922-0.59961 1.4667-1.6 2.7845-2.6504 3.9512-3.1504zm-9.3496 1c0.1667 0.1 0.39922 0.28413 0.69922 0.55078 2.6333 1.3667 4.2496 3.0818 4.8496 5.1484 0.1 0.29999-0.21592 0.43372-0.94922 0.40039-1.1 0-2.1833-0.43217-3.25-1.2988-1.1-0.86665-1.7163-1.8182-1.8496-2.8516-0.1-0.66667-0.13486-1.0659-0.10156-1.1992 0.067-0.63332 0.26826-0.88333 0.60156-0.75zm-41.801 7.9492c-0.3333 1.5-1.3992 3.0504-3.1992 4.6504-0.067 0.06667-0.46787 0.23335-1.2012 0.5-0.1-0.89999-0.11553-1.5667-0.0488-2 0.1667-0.93332 0.71514-1.7163 1.6484-2.3496 0.9-0.63332 1.8341-0.90078 2.8008-0.80078zm1.3008 0.35156c0.2 0.03333 0.39961 0.13217 0.59961 0.29883 1.2 1.0333 1.7988 2.2175 1.7988 3.5508 0.033 0.23332 6.9e-4 0.53374-0.0996 0.90039-0.067 0.16667-0.18291 0.44961-0.34961 0.84961-0.06701 0.23332-0.15001 0.34961-0.25001 0.34961-0.1 0.03333-0.2667-0.03255-0.5-0.19922-1.4667-0.79999-2.55-1.4337-3.25-1.9004-0.3-0.2-0.3833-0.39961-0.25-0.59961 0.1-0.13333 0.2667-0.3 0.5-0.5 0.4-0.39999 0.88252-1.2837 1.4492-2.6504 0.033-0.1 0.15156-0.13294 0.35156-0.09961zm-3.25 4.5c1.6333 0.5 3.0151 1.1996 4.1484 2.0996 0.1 0.1 0.13486 0.16588 0.10156 0.19922-0.067 0.06667-0.11709 0.09961-0.15039 0.09961-0.8333 0.59999-1.6841 0.90039-2.5508 0.90039-1.6-0.1-2.7337-0.71629-3.4004-1.8496-0.1333-0.23333-0.098-0.4 0.10156-0.5 0.1-0.03333 0.2667-0.09922 0.5-0.19922 0.6667-0.56665 1.0833-0.81667 1.25-0.75zm28.398 0.39844c1.3667 0.23333 2.3008 0.65 2.8008 1.25 0.1 0.1 0.11708 0.18333 0.0508 0.25-0.1 0.06667-0.16787 0.11706-0.20117 0.15039-1.6667 1.6667-2.6996 3-3.0996 4-0.1 0.36667-0.29961 0.3996-0.59961 0.09961-0.6-0.63333-1.3829-1.1333-2.3496-1.5-0.6-0.2-1.4837-0.39961-2.6504-0.59961 0.4-1.3666 1.3825-2.5004 2.9492-3.4004 0.6667-0.4 1.6996-0.48333 3.0996-0.25zm-44.148 2.1504c1.3-0.16665 2.3659-0.05039 3.1992 0.34961 0.9333 0.46665 1.6659 1.3175 2.1992 2.5508 0.1667 0.4 0.1667 1.1675 0 2.3008-1.7-0.49999-3.3996-1.6512-5.0996-3.4512-0.3667-0.36665-0.63213-0.7-0.79883-1-0.2667-0.39999-0.1-0.65 0.5-0.75zm47.549 0.09961c0.2667-0.16667 0.46631 0.05039 0.59961 0.65039 0.5 1.4 0.55039 2.7334 0.15039 4-0.4333 1.4-1.35 2.4504-2.75 3.1504-0.2667 0.13333-0.63291 0.23412-1.0996 0.30078-0.8 0.16667-1.2167 0.25-1.25 0.25-0.6333-0.2-0.85039-0.5004-0.65039-0.90039 0.3667-0.4 0.56631-0.65 0.59961-0.75 0.6667-1.4333 1.5833-3.1504 2.75-5.1504 0.4-0.59999 0.95039-1.1175 1.6504-1.5508zm-49.4 1c0.2333-0.3 0.43486-0.28254 0.60156 0.05078 0.7667 1.1667 1.6659 2.1667 2.6992 3 0.1667 0.16667 0.19931 0.26745 0.0996 0.30078-1.3667 1.0333-2.2155 1.6651-2.5488 1.8984-0.5 0.26665-0.86826 0.46823-1.1016 0.60156-0.067-0.13333-0.28174-0.48413-0.64844-1.0508-0.2667-0.4-0.40039-0.76629-0.40039-1.0996v-0.95117c0.067-0.79999 0.49883-1.7167 1.2988-2.75zm40.451 1.4512c2.0667 0.39999 3.4329 1.15 4.0996 2.25 0.067 0.13332 0.016 0.38333-0.15039 0.75-0.067 0.16665-0.20039 0.44961-0.40039 0.84961l-0.25 0.55078c-0.3 1.0333-0.89883 1.1651-1.7988 0.39844-1.5333-1.3-2.2329-2.7826-2.0996-4.4492 0.033-0.16667 0.1167-0.26745 0.25-0.30078 0.067 0 0.18291-0.0155 0.34961-0.04883zm-36.5 2.5c0.1667-0.16667 0.38369-0.16667 0.65039 0 0.4333 0.26665 0.69883 0.41588 0.79883 0.44922 0.2 0.03333 0.5333 0.13412 1 0.30078l0.58594 0.29297c-0.0121 0.02003-0.0134 0.04443-0.0254 0.06445-0.33211 0.56822-0.56574 0.92924-0.66016 0.99219-2 1.6-3.9167 1.7841-5.75 0.55078l1.8008-1.2012c0.6667-0.46665 1.1996-0.94923 1.5996-1.4492zm57.549 1.1504c1.0667-0.2 1.4679 0.09844 1.2012 0.89844-0.067 0.76665 0.032 1.5167 0.29883 2.25v0.20117l-0.44922-0.050786c-1.1333-0.23332-1.8175-0.36706-2.0508-0.40039-0.7667-0.13333-1.4488-0.13333-2.0488 0h-0.15039v-0.29883c0.6333-1.3333 1.6992-2.1996 3.1992-2.5996zm2 0.25c0.033-0.06667 0.13408-0.05117 0.30078 0.04883 1.7 0.76667 2.5992 2.133 2.6992 4.0996l-0.04883 0.55078c0 0.2-0.0326 0.31628-0.0996 0.34961-0.1333 0.06667-0.26709 0.03372-0.40039-0.09961-0.1667-0.23333-0.28291-0.36706-0.34961-0.40039-0.8333-0.39999-1.4167-0.99884-1.75-1.7988-0.2333-0.59999-0.35156-1.4179-0.35156-2.4512zm-40.199 2.75c1.1333 0.16667 2.0171 0.68218 2.6504 1.5488 0.1 0.1 0.11553 0.16784 0.0488 0.20117-1.1333 1.4-2.1663 2.3167-3.0996 2.75-0.1 0.06667-0.29961-0.03411-0.59961-0.30078-0.3667-0.33333-0.63408-0.56589-0.80078-0.69922-0.9667-0.73332-1.7496-1.2837-2.3496-1.6504 1.0667-1.4667 2.4504-2.0829 4.1504-1.8496zm36.25 0.75c1.6667-0.06667 3.5833 0.54962 5.75 1.8496 0.4 0.23332 0.51631 0.56667 0.34961 1-0.1333 0.46665-0.51709 0.8659-1.1504 1.1992-1.2 0.66667-2.3667 0.80039-3.5 0.40039-1.0667-0.33333-1.9484-1.1008-2.6484-2.3008-0.067-0.06667-0.10156-0.4659-0.10156-1.1992-0.1667-0.53332-0.099-0.83372 0.20117-0.90039 0.2-0.06667 0.56631-0.08216 1.0996-0.04883zm-32.949 1.6484c0.3667 1.2 0.39931 2.2175 0.0996 3.0508-0.2667 0.79999-0.9333 1.5829-2 2.3496 0-0.46667-0.26748-0.99962-0.80078-1.5996-0.3667-0.43333-0.41709-0.78413-0.15039-1.0508 0.1333-0.16667 0.41826-0.34884 0.85156-0.54883 0.7333-0.56667 1.4-1.3012 2-2.2012zm-7.8516 0.40039 1.3008 0.84961c1.4333 1.2 2.6659 2.5004 3.6992 3.9004 0.067 0.1 0.10156 0.28411 0.10156 0.55078-0.8 0.1-1.2167 0.15039-1.25 0.15039-1.5 0.0333-2.75-0.78452-3.75-2.4512-0.033-0.03333-0.18447-0.56629-0.45117-1.5996zm35.875 1.1758c0.95 0.05 1.9083 0.30874 2.875 0.77539 2.6 1.2667 3.9508 3.2163 4.0508 5.8496 0.033 1.1667-0.28252 2.3992-0.94922 3.6992-0.1667 0.33333-0.18378 0.63372-0.0508 0.90039 0.1333 0.26667 0.31748 0.2494 0.55078-0.0508l0.29883 0.0508c2.1667 0.13333 3.7345 0.63333 4.7012 1.5 0.6667 0.63333 1 1.4667 1 2.5 0 0.96667-0.25 1.8833-0.75 2.75-0.5333 0.9-1.3183 1.6171-2.3516 2.1504-0.6667 0.33333-1.6821 0.68216-3.0488 1.0488-0.2333 0.0667-0.45039-0.0322-0.65039-0.29883-0.1667-0.3-0.31592-0.51706-0.44922-0.65039-1.0333-1-2.4675-1.6337-4.3008-1.9004 2.2333-1.4667 3.7663-2.6004 4.5996-3.4004 0.3-0.3 0.3833-0.51511 0.25-0.64844-0.2665-0.26667-0.54961-0.20078-0.84961 0.19922-0.5 0.46667-1.1841 0.98412-2.0508 1.5508-0.9667 0.6-1.6992 1.0496-2.1992 1.3496-0.9 0.6-1.7508 0.96628-2.5508 1.0996-0.3667 0.0667-0.64961 0.0841-0.84961 0.0508-0.2 0.13333-0.3667 0.21667-0.5 0.25-0.2 0.1-0.31631-0.0182-0.34961-0.35156 0-0.16667 0.10078-0.29844 0.30078-0.39844 0.1333-0.0667 0.31553-0.15 0.54883-0.25l1.4004-0.75c1.1-0.66666 2.1504-1.5 3.1504-2.5l2.0488-1.8516c0.3-0.26667 0.36787-0.48177 0.20117-0.64844-0.1333-0.16667-0.36787-0.11823-0.70117 0.14844l-5.6484 4.4004c-0.3 0.23333-0.81748 0.48333-1.5508 0.75l-0.44922-0.65039c-0.1-0.16667-0.0852-0.31589 0.0488-0.44922 0.1-0.0667 0.21631-0.13255 0.34961-0.19922 0.7333-0.43333 1.5841-1.0671 2.5508-1.9004 0.8667-0.83333 1.7329-1.7829 2.5996-2.8496 0.4667-0.5 0.83291-1.0349 1.0996-1.6016 0.1-0.26667 0.0842-0.46628-0.0488-0.59961-0.1-0.0667-0.20078-0.0667-0.30078 0-0.067 0.1-0.11709 0.16784-0.15039 0.20117-1.1333 1.5-2.3329 2.8333-3.5996 4-0.6333 0.6-1.3659 1.1988-2.1992 1.7988-0.2 0.16667-0.35117 0.30039-0.45117 0.40039-0.1667 0.13333-0.31592 0.16637-0.44922 0.0996-0.3-0.16667-0.41631-0.31589-0.34961-0.44922 0-0.0333 0.13369-0.2 0.40039-0.5 0.6667-0.63333 1.3488-1.4667 2.0488-2.5l1.4004-2.1504c0.6667-1 1.1667-2.0504 1.5-3.1504 0.1-0.26667 0.017-0.46628-0.25-0.59961-0.2333-0.1-0.38252 0.0163-0.44922 0.34961-0.2 0.7-0.56826 1.4674-1.1016 2.3008-0.6667 0.96667-1.1667 1.6837-1.5 2.1504l-0.34961 0.54883-2.0488 2.6504c-0.1667 0.26667-0.43408 0.28393-0.80078 0.0508-0.2667-0.2-0.28378-0.4345-0.0508-0.70117 0.6-0.73333 1.2008-1.5667 1.8008-2.5 0.5333-0.86667 1.0508-1.8996 1.5508-3.0996 0.2-0.36667 0.33174-0.64961 0.39844-0.84961 0.1333-0.33333 0.16826-0.65117 0.10156-0.95117v-0.25c-0.033-0.1-0.10117-0.13303-0.20117-0.0996-0.2 0-0.33369 0.0678-0.40039 0.20117-0.4333 1.3333-1.2317 2.9322-2.3984 4.7988l-0.90039 1.4512c-0.1333 0.4-0.26709 0.69844-0.40039 0.89844-0.2333 0.33333-0.58408 0.3506-1.0508 0.0508-0.2-0.13333-0.1167-0.48412 0.25-1.0508l0.70117-1.2988c0.5333-1.1 0.91709-2.2008 1.1504-3.3008 0.3667-0.56667 0.51592-1.0163 0.44922-1.3496v-0.55078c-0.033-0.2-0.13408-0.31628-0.30078-0.34961-0.2-0.0333-0.33174 0.0675-0.39844 0.30078-0.033 0.13333-0.068 0.33294-0.10156 0.59961-0.7 2.1333-1.2833 3.6004-1.75 4.4004l-0.39844 0.69922-0.45117 1.0508c-0.1667 0.33333-0.38369 0.44961-0.65039 0.34961-0.2667-0.0667-0.39844-0.20039-0.39844-0.40039 0-0.16667 0.0326-0.28294 0.0996-0.34961 0.2333-0.46667 0.4-1.05 0.5-1.75 0.1-0.8 0.16592-1.4008 0.19922-1.8008 0.1-0.66667 0.16787-1.1822 0.20117-1.5488 0.033-0.6-0.017-1.1174-0.15039-1.5508-0.067-0.23333-0.16748-0.33216-0.30078-0.29883-0.2 0.0667-0.29883 0.18294-0.29883 0.34961-0.033 0.3-0.13408 1.2496-0.30078 2.8496-0.1333 1.1667-0.26709 2.1163-0.40039 2.8496 0 0.13333-0.0326 0.45117-0.0996 0.95117-0.1333 0.4-0.4667 0.46589-1 0.19922-0.2-0.1-0.26592-0.23372-0.19922-0.40039 0.1-0.16667 0.14844-0.30039 0.14844-0.40039-0.067-1.7333-0.13252-3.0318-0.19922-3.8984 0-0.26667-0.066-0.6349-0.19922-1.1016-0.067-0.16667-0.26826-0.25-0.60156-0.25-0.2 0.0333-0.24844 0.2-0.14844 0.5 0.1667 0.63333 0.23252 1.4512 0.19922 2.4512v2.4004c0.033 0.26667 6.9e-4 0.44883-0.0996 0.54883-0.067 0.0667-0.25078 0.11706-0.55078 0.15039-1.0333 0.13333-1.7659 0.36589-2.1992 0.69922-0.1667 0.0667-0.30039 0.0512-0.40039-0.0488-0.1333-0.23333-0.23408-0.3845-0.30078-0.45117-1.3333-2.1-1.8817-4.0651-1.6484-5.8984 0.2333-1.6 0.83213-2.9178 1.7988-3.9512 1.1333-1.2333 2.55-1.7488 4.25-1.5488 1.3 0.16667 2.4667 1.0155 3.5 2.5488 0.3333 0.4 0.55039 0.59961 0.65039 0.59961 0.3 0 0.56748-0.19961 0.80078-0.59961 0.86671-1.4674 2.0992-2.4997 3.6992-3.0997 0.9333-0.36667 1.8742-0.52461 2.8242-0.47461zm10.375 3.625c0.6667 0 1.25 0.25 1.75 0.75 0.4667 0.46667 0.70117 1.05 0.70117 1.75 0 0.63333-0.23447 1.1992-0.70117 1.6992-0.5 0.5-1.0329 0.75-1.5996 0.75s-1.15-0.25-1.75-0.75c-0.6-0.53333-0.90039-1.0488-0.90039-1.5488 0-0.66666 0.26748-1.2849 0.80078-1.8516 0.5-0.56667 1.0659-0.83216 1.6992-0.79883zm-46.299 4.5996c0.5667-0.13333 1.3167-0.11607 2.25 0.0508 0.6333 0.13333 1.3 0.39883 2 0.79883 1.8667 1.0333 2.8996 2.6845 3.0996 4.9512 0.067 0.86667 0.25078 1.3822 0.55078 1.5488 0.2333 0.1 0.4833 0.0496 0.75-0.15039 0.1667-0.1 0.39922-0.28216 0.69922-0.54883 1.3333-0.86667 2.8333-1.1341 4.5-0.80078 2.3 0.46667 3.6992 1.8 4.1992 4 0.3 1.3333 0.26739 2.7345-0.0996 4.2012-0.4667 1.8667-1.4996 3.2833-3.0996 4.25-1.5333 0.96667-3.0159 1.5151-4.4492 1.6484 1.6333-2 2.8-3.7326 3.5-5.1992 0.1667-0.23333 0.25-0.46589 0.25-0.69922 0-0.26667-0.11826-0.48372-0.35156-0.65039-0.1333-0.0333-0.26514 0.13333-0.39844 0.5-0.3 0.83333-0.8 1.7326-1.5 2.6992-0.8333 1.1-1.4516 1.9178-1.8516 2.4512-0.2333 0.3-0.53174 0.39883-0.89844 0.29883l0.0996-0.34961 0.5-0.84961c0.7333-1.2 1.2837-2.8512 1.6504-4.9512 0.1-0.3 0.16592-0.51511 0.19922-0.64844 0.033-0.26667-0.10039-0.40039-0.40039-0.40039-0.2333-0.0333-0.38252 0.11589-0.44922 0.44922-0.033 0.16667-0.084 0.43411-0.15039 0.80078-0.2333 0.93333-0.9 2.6504-2 5.1504l-0.0996 0.19922c-0.3 0.5-0.73408 0.64922-1.3008 0.44922-0.2333-0.1-0.3167-0.29961-0.25-0.59961 0.1667-0.33333 0.26748-0.56589 0.30078-0.69922l0.40039-1.4512c0.2-0.86667 0.31631-1.5333 0.34961-2 0.1667-1 0.21709-2 0.15039-3 0.033-0.23333 0.0488-0.4 0.0488-0.5 0-0.16667-0.083-0.25-0.25-0.25-0.4 0-0.59961 0.2849-0.59961 0.85156 0.033 1.1667-0.11592 2.5-0.44922 4l-0.30076 1.3496c-0.2 0.66667-0.31631 1.1996-0.34961 1.5996-0.033 0.46667-0.25039 0.76706-0.65039 0.90039-0.5 0.1-0.85078 0.21628-1.0508 0.34961l0.10156-1c0.3-2.2667 0.4667-3.7163 0.5-4.3496 0-0.86667-0.035-1.5178-0.10156-1.9512-0.067-0.46667-0.0996-0.8155-0.0996-1.0488-0.067-0.46667-0.067-0.85039 0-1.1504 0.067-0.2 0.0324-0.36667-0.10156-0.5-0.1-0.16667-0.23369-0.25-0.40039-0.25-0.2 0-0.29883 0.0833-0.29883 0.25 0 0.1 0.0168 0.26667 0.0508 0.5l-0.0508 3.8496c-0.067 2-0.2333 3.6163-0.5 4.8496-0.067 0.3-0.15 0.73411-0.25 1.3008-0.1333 0.43333-0.45117 0.70078-0.95117 0.80078 0.1333-1.3 0.16796-3.6682 0.10156-7.1016v-0.64844c0-1.9-0.39922-3.7004-1.1992-5.4004-0.033-0.0667-0.099-0.1345-0.19922-0.20117-0.1-0.0667-0.16787-0.0822-0.20117-0.0488-0.2667 0.16667-0.31709 0.5155-0.15039 1.0488 0.5 1.3667 0.78486 3.1341 0.85156 5.3008v1.5508c-0.033 0.96667-6.9e-4 2.4318 0.0996 4.3984 0 0.16667-0.068 0.41667-0.20117 0.75l-0.39844-0.34961c-0.7333-0.73333-1.0667-1.4-1-2 0.1333-0.93333 0.065-2.2996-0.20117-4.0996l-0.19922-1.5996c-0.067-0.43333-0.20039-0.96628-0.40039-1.5996-0.2667-0.66666-0.46631-1.1841-0.59961-1.5508 0-0.0667-0.13369-0.0996-0.40039-0.0996-0.1-0.0333-0.15039-3e-4 -0.15039 0.0996-0.033 0.0333-0.0488 0.0992-0.0488 0.19922-0.067 0.43333 0.017 1.0012 0.25 1.7012 0.2667 0.76667 0.39844 1.3326 0.39844 1.6992l0.10156 1.4512c0.033 0.5 0.13213 1.0329 0.29883 1.5996 0.1 0.26667 0.1 0.68333 0 1.25-0.067 0.53333-0.016 0.95 0.15039 1.25l-0.0996 0.0996h-0.20117c-0.1-0.2-0.38291-0.33372-0.84961-0.40039-0.4-0.0667-0.59961-0.26628-0.59961-0.59961 0-0.76667-0.083-1.6-0.25-2.5-0.2667-1.3-0.73369-2.6992-1.4004-4.1992-0.1667-0.33333-0.34883-0.45156-0.54883-0.35156-0.3 0.1-0.35039 0.3345-0.15039 0.70117 0.2667 0.53333 0.48369 1.2 0.65039 2l0.44918 2.0996 0.0996 0.40039 0.20117 1.4004 0.0996 0.39844c0.067 0.13333 0.0344 0.20117-0.0996 0.20117-0.5667 0.1-0.91748-0.0337-1.0508-0.40039l-0.15039-0.40039c-0.6-1.9-1.3171-3.4329-2.1504-4.5996l-0.5-0.65039c-0.1333-0.13333-0.28252-0.11607-0.44922 0.0508 0 0.0667-0.0326 0.13255-0.0996 0.19922-0.067 0.0667-0.067 0.1345 0 0.20117 0.6333 0.96667 1.3988 2.6159 2.2988 4.9492 0.1333 0.43333 0.05 0.68333-0.25 0.75l-0.79883 0.15039c-0.2333 0.2-0.41748 0.0992-0.55078-0.30078-0.6667-1.8333-1.6996-3.3004-3.0996-4.4004-0.1667-0.13333-0.30039-0.0829-0.40039 0.15039-0.1667 0.2-0.14962 0.39961 0.0508 0.59961 0.7 0.63333 1.6167 1.9512 2.75 3.9512 0.1333 0.26667 0.11622 0.46628-0.0508 0.59961-0.2 0.13333-0.33369 0.21667-0.40039 0.25-0.1667 0.0667-0.48252 0.41745-0.94922 1.0508-0.3667 0.46667-0.80078 0.63333-1.3008 0.5-1.1333-0.3-2.1488-0.85039-3.0488-1.6504-1.6667-1.6-2.4341-3.2996-2.3008-5.0996 0.1-1.2667 0.48369-2.3171 1.1504-3.1504 0.7333-0.96667 1.7333-1.5829 3-1.8496 1.6667-0.36667 3.1996-0.33363 4.5996 0.0996l1.0508 0.25c0.3 0.1 0.51709 0.0671 0.65039-0.0996 0.1-0.13333 0.0822-0.35039-0.0508-0.65039-0.6-1.6667-0.61708-3.1667-0.0508-4.5 0.4333-0.93333 0.96826-1.6678 1.6016-2.2012 0.8667-0.76667 2.1496-1.3326 3.8496-1.6992zm24.049 4.9492c1.3 0.0667 2.5675 0.4 3.8008 1 1.9667 0.96666 3.2167 2.6178 3.75 4.9512 0.033 0.2 0.14961 0.29883 0.34961 0.29883l0.45117-0.0996 1.4492-0.15039c2.5-0.23333 4.4496 0.1 5.8496 1 0.8333 0.53333 1.4496 1.4674 1.8496 2.8008 0.3667 1.2667 0.3667 2.3829 0 3.3496-0.6333 1.5667-1.5325 2.8167-2.6992 3.75-0.4333 0.36667-1.1175 0.66706-2.0508 0.90039-0.3 0.1-0.74961 0.18333-1.3496 0.25-0.6667 0.0333-1.4825-0.0326-2.4492-0.19922-1.1-0.2-1.9179-0.35117-2.4512-0.45117-0.5-0.0667-0.53261-0.36706-0.0996-0.90039 1.0333-1.3 1.9829-3.1818 2.8496-5.6484 0.2333-0.56666 0.21777-0.91745-0.0488-1.0508-0.1333-0.0667-0.23408-7.8e-4 -0.30078 0.19922-0.033 0.1-0.099 0.26667-0.19922 0.5-0.5667 1.4333-1.65 3.4508-3.25 6.0508-0.1 0.16667-0.2667 0.21706-0.5 0.15039-0.2667-0.13333-0.46631-0.21667-0.59961-0.25-0.2333-0.0333-0.2333-0.16706 0-0.40039 0.8333-1.7333 1.5484-4.0337 2.1484-6.9004 0.1-0.46667 0.034-0.69922-0.19922-0.69922-0.2 0.0333-0.33369 0.16706-0.40039 0.40039-0.067 0.16667-0.11709 0.38177-0.15039 0.64844-0.2 0.63333-0.48291 1.5674-0.84961 2.8008-0.3667 1.1-0.73291 2.0167-1.0996 2.75l-0.69922 1.1504c-0.067 0.1-0.2333 0.16589-0.5 0.19922h-0.70117c0.1667-0.73333 0.26748-1.1171 0.30078-1.1504l1.3496-4.5488c0.2-0.96667 0.33369-2.1178 0.40039-3.4512 0-0.33333-0.083-0.5-0.25-0.5-0.067 0-0.13447 0.0504-0.20117 0.15039-0.1 0.1-0.14844 0.18333-0.14844 0.25-0.033 0.7-0.31826 2.2174-0.85156 4.5508l-0.19922 0.65039c-0.2667 0.96667-0.7667 2.3833-1.5 4.25-0.033 0.13333-0.2 0.24961-0.5 0.34961l-0.69922 0.25 0.89844-3.75 0.25-1.75c0.2-1.8 0.25039-3.5829 0.15039-5.3496-0.1667-0.5-0.28291-0.88372-0.34961-1.1504l-0.19922-0.0508c-0.1333 0.2-0.20117 0.35117-0.20117 0.45117-0.067 1.0333-0.15 2.6167-0.25 4.75l-0.15039 1.1992c-0.2333 1.6333-0.54922 3.0829-0.94922 4.3496-0.1 0.4-0.28408 0.96784-0.55078 1.7012-0.3667-0.46666-0.59922-1.1004-0.69922-1.9004-0.067-0.76667-7.8e-4 -1.4663 0.19922-2.0996 0.1333-0.4 0.20117-1.0667 0.20117-2-0.033-0.23333-0.0182-0.61706 0.0488-1.1504 0.067-0.4 0.0838-0.91745 0.0508-1.5508-0.067-0.93333-0.0996-1.4663-0.0996-1.5996l-0.0508-0.40039c-0.033-0.0333-0.099-0.16706-0.19922-0.40039-0.067-0.16667-0.15-0.21511-0.25-0.14844-0.2333 0.13333-0.3167 0.53255-0.25 1.1992 0.1667 0.96667 0.11631 2.4008-0.15039 4.3008l-0.34961 2.9492c0 0.0667 0.0148 0.20039 0.0488 0.40039 0 0.16667-0.066 0.25-0.19922 0.25-0.1667-0.0333-0.51748-0.2-1.0508-0.5-0.1-0.0333-0.14844-0.21745-0.14844-0.55078l0.14844-1.25c0.1333-1.0333 0.10069-2.3492-0.0996-3.9492-0.2-1.3-0.34922-2.6004-0.44922-3.9004-0.033-0.33333-0.14961-0.76745-0.34961-1.3008-0.1333-0.46667-0.15038-0.84844-0.0508-1.1484 0.1-0.3 0.31709-0.58489 0.65039-0.85156 0.2-0.16667 0.48291-0.41667 0.84961-0.75 0.9667-0.93333 2.2826-1.35 3.9492-1.25zm21.852 7.6504c1.5-0.0667 2.5659 0.18333 3.1992 0.75 0.3 0.23333 0.31708 0.48333 0.0508 0.75-0.6667 0.86667-1.2016 1.45-1.6016 1.75-0.1 0.0667-0.29961 0.0337-0.59961-0.0996-0.3667-0.16667-0.6167-0.26745-0.75-0.30078-0.8667-0.16667-1.8667-0.16667-3 0-0.033-0.5 0.26709-1.0988 0.90039-1.7988s1.2341-1.0508 1.8008-1.0508zm3.8984 2c0.3 0.3 0.45117 0.46667 0.45117 0.5 0.3333 1.2667 0.14922 2.35-0.55078 3.25-0.6667 0.86667-1.6492 1.3163-2.9492 1.3496 0.3-0.76667 0.53252-1.3326 0.69922-1.6992 0.3-0.7 0.61787-1.2504 0.95117-1.6504zm-31.1 0.24997 0.0996 2.2012c0.033 0.9-0.05 1.6326-0.25 2.1992 0 0.16667-0.066 0.21706-0.19922 0.15039-0.8667-0.3-1.7659-0.31727-2.6992-0.0508-0.2667 0.1-0.41787 0.0671-0.45117-0.0996-0.033-0.13333-6.9e-4 -0.21667 0.0996-0.25 0.033-0.0333 0.1167-0.0663 0.25-0.0996 1.7333-1.3333 2.7837-2.6841 3.1504-4.0508zm24.951 1.3496h0.69922c0.5667-0.0333 1.2004 0.0345 1.9004 0.20117 0.6 0.16667 0.73369 0.48255 0.40039 0.94922-0.2333 0.33333-0.45039 0.96706-0.65039 1.9004-0.067 0.26667-0.2333 0.36745-0.5 0.30078-0.4333-0.0667-0.91787-0.4349-1.4512-1.1016-0.5667-0.7-0.84961-1.3163-0.84961-1.8496 0.033-0.23333 0.18447-0.36706 0.45117-0.40039zm-48.102 2.3516c2.4333 0.23333 4.2183 1.1655 5.3516 2.7988 0.2333 0.3 0.21622 0.8-0.0508 1.5-0.2333 0.66667-0.5667 1.1667-1 1.5-1.7 1.3667-3.8667 1.6012-6.5 0.70117-0.6333-0.2-1.1663-0.61667-1.5996-1.25-0.4333-0.6-0.6833-1.2841-0.75-2.0508-0.033-1.0667 0.6333-1.9329 2-2.5996 0.7-0.33333 1.5488-0.53294 2.5488-0.59961zm20.988 1.2871c0.375-0.0583 0.77959 0.0129 1.2129 0.21289 0.4 0.2 0.99883 0.48294 1.7988 0.84961 0.6667 0.4 1.1667 0.88255 1.5 1.4492 0.4333 0.8 0.5167 1.6508 0.25 2.5508-0.067 0.23333-0.29922 0.34961-0.69922 0.34961-2.2333 0.0333-3.9833-0.83294-5.25-2.5996-0.2333-0.36667-0.34961-0.75039-0.34961-1.1504 0-0.43333 0.1667-0.79961 0.5-1.0996 0.3167-0.31667 0.66211-0.50417 1.0371-0.5625zm-8.5879 0.26171c1.5667 0.16667 2.7333 0.80039 3.5 1.9004 0.1 0.13333 0.1833 0.3 0.25 0.5 0 0.13333 0.0168 0.26706 0.0508 0.40039 0 0.9-0.4167 1.7004-1.25 2.4004-0.8333 0.66667-1.6667 0.93216-2.5 0.79883-1-0.2-2.0175-0.45-3.0508-0.75-0.5333-0.13333-1.0488-0.5655-1.5488-1.2988-0.5333-0.76666-0.73486-1.3849-0.60156-1.8516 0.067-0.36667 0.51826-0.79883 1.3516-1.2988 1.0667-0.7 2.3321-0.96745 3.7988-0.80078zm3.7266 0.791c-4e-3 0.0487 0.0288 0.1065 0.0293 0.15626-0.0263-0.0318-0.0252-0.066-0.0527-0.0977-0.0235-0.0274 0.0396-0.0331 0.0234-0.0586zm16.123 1.2598c1.4 0.16667 2.4 0.81589 3 1.9492 0.4333 0.76667 0.36748 1.4508-0.19922 2.0508-0.5333 0.56667-1.4829 0.84961-2.8496 0.84961-1.3333-0.13333-2.0679-0.21667-2.2012-0.25-0.8333-0.16667-1.5155-0.48255-2.0488-0.94922-0.4667-0.4-0.65078-0.86706-0.55078-1.4004 0.1-0.5 0.4333-0.91667 1-1.25 1.3667-0.8 2.6496-1.1333 3.8496-1zm-25.85 1c0.0325 0 0.0241 0.041 0.0488 0.0488-0.0496 2.1e-4 -0.0991-0.0164-0.14844 0h-0.0508c-0.17858 0.067-0.26199 0.26708-0.42383 0.35742 0.0546-0.10863 0.18276-0.19396 0.22461-0.30664 0.033-0.0667 0.14961-0.0996 0.34961-0.0996zm-21.25 0.69919c0.5333-0.0333 1.3008 0.20117 2.3008 0.70117 0.6333 0.3 0.6333 0.68177 0 1.1484-1.7667 1.3333-3.7163 1.5678-5.8496 0.70117l-0.35156 0.09964c0.7-1.6667 2.0004-2.5504 3.9004-2.6504zm3.3496 2.2012c0.2333-0.1 0.46787 0.0667 0.70117 0.5 0.033 0.13333 0.099 0.59844 0.19922 1.3984-0.033 1.5667-0.66709 2.7682-1.9004 3.6016-1.2 0.76667-2.5159 0.89844-3.9492 0.39844-0.3333-0.13333-0.4167-0.34844-0.25-0.64844 1.2667-2.3333 2.9992-4.0833 5.1992-5.25zm-7.4492 1.3496c0.1-0.0667 0.40039-0.0163 0.90039 0.15039 0.1333 0.0333 1.0325 0.13216 2.6992 0.29883-0.8667 0.8-1.6321 1.8833-2.2988 3.25-0.4333-0.53333-0.73369-0.93255-0.90039-1.1992-0.3333-0.46667-0.51748-0.91628-0.55078-1.3496-0.067-0.6-0.016-0.98372 0.15039-1.1504zm42.449 2.4004c1.5-0.2 2.6667-3.9e-4 3.5 0.59961l0.5 0.29883-1.25 0.90039c-0.7333 0.53333-1.4833 1.3008-2.25 2.3008-0.067 0.1-0.11514 0.16589-0.14844 0.19922-0.067 0.0667-0.16748 0.0337-0.30078-0.0996-1-0.9-2.1008-1.5667-3.3008-2-0.1667-0.0667-0.19931-0.18294-0.0996-0.34961 0.6-0.96667 1.7163-1.5829 3.3496-1.8496zm4.1504 1.8496c0.1-0.0667 0.25117 0.0671 0.45117 0.40039 0.1667 0.3 0.26553 0.61589 0.29883 0.94922v0.5c0 0.9-0.46709 1.8671-1.4004 2.9004-0.9667 1.0667-1.9317 1.6829-2.8984 1.8496l-0.30078 0.0508c-0.5 0.13333-0.8333 0.11607-1-0.0508-0.1333-0.2-0.11622-0.45 0.0508-0.75 0.7667-1.4333 1.4159-2.5341 1.9492-3.3008 0.8333-1.1 1.7829-1.9488 2.8496-2.5488zm-7.8496 1.2988c0.2667-0.1 0.73369 0.0841 1.4004 0.55078 0.3333 0.23333 0.8333 0.53372 1.5 0.90039 0.5 0.26667 0.5833 0.6 0.25 1-0.4 0.83333-0.71787 1.4671-0.95117 1.9004-0.033 0.16667-0.082 0.28294-0.14844 0.34961-0.1 0.1-0.28408 0.11577-0.55078 0.0488-0.9333-0.76667-1.4837-1.4159-1.6504-1.9492-0.2667-0.73333-0.38291-1.2992-0.34961-1.6992 0.067-0.66666 0.2333-1.0349 0.5-1.1016z"/>
 <g transform="translate(-773.5)">
  <path transform="translate(160.15,84.1)" d="m618.35-84.1c-3.3333 0-5 1.6667-5 5v158.2c0 3.3333 1.6667 5 5 5h93.199c3.3333 0 5-1.6667 5-5v-158.2c0-3.3333-1.6667-5-5-5zm8.3008 7.1992h76.6c4.6667 0 7 2.3333 7 7v139.8c0 4.6667-2.3333 7-7 7h-76.6c-4.6667 0-7-2.3333-7-7v-139.8c0-4.6667 2.3333-7 7-7z" fill="#ef1d1e"/>
  <path transform="translate(160.15,84.1)" d="m626.65-76.901c-4.6667 0-7 2.3333-7 7v139.8c0 4.6667 2.3333 7 7 7h76.6c4.6667 0 7-2.3333 7-7v-139.8c0-4.6667-2.3333-7-7-7z" fill="none" stroke="#000" stroke-width="1.2"/>
 </g>
</svg>
