<svg width="103.2" height="168.2" preserveAspectRatio="none" version="1.1" viewBox="0 0 103.2 168.2" xmlns="http://www.w3.org/2000/svg">
 <path transform="translate(-504.8,84.1)" d="m518.1-76.901c-4.6667 0-7 2.3333-7 7v139.8c0 4.6667 2.3333 7 7 7h76.6c4.6667 0 7-2.3333 7-7v-139.8c0-4.6667-2.3333-7-7-7z" fill="#fff" stroke="#000" stroke-width="1.2"/>
 <path d="m35.4 29.65-2.918 6.541 18.076 0.92774-5.4356-7.4238zm37.904 44.877-12.719 2.6875 7.9375 8.4375 11.312 0.5625zm-52.135 29.502-4.5527 11.402 10.164 0.75 10.564-6.3633z" fill="#faea01"/>
 <path d="m14.45 16.4c-0.73333 0.19999-1.4 0.48294-2 0.84961-0.0333 0.03333-0.0663 0.05078-0.0996 0.05078-1.8333 1.1667-2.6667 2.8818-2.5 5.1484v0.05078c0 0.06667 0.0659 0.16745 0.19922 0.30078 0 0.03333 0.0175 0.06628 0.0508 0.09961 0.26667 0.29999 0.51667 0.68373 0.75 1.1504 0.23333 0.6 0.63255 1.1329 1.1992 1.5996 1.3 0.96666 2.7341 1.2671 4.3008 0.90039 1.6-0.46666 2.7667-1.4667 3.5-3 0.6-1.3 0.6-2.6333 0-4-0.76666-1.7333-1.9682-2.65-3.6016-2.75h-0.0488zm17.799 8.5c-0.23333 1.0333-0.59961 1.8492-1.0996 2.4492-0.0667 0.1-0.15 0.16784-0.25 0.20117-0.70582 0.29421-6.0714-3.8831-9.4492 0.14842-1.3506 1.5065-2.273 4.4827 1.5488 7.5 0.17049 20.884 4.3419 41.029 10.051 61.151-0.34566 0.69095-2.5769 0.01864-6.6504 1.8008-0.96716-1.3998-4.1992-3-4.1992-3-0.1-0.06667-0.15039-0.15-0.15039-0.25 2.7994-2.6314 3.5466-7.0784-0.84961-8.5996-5.6129-1.2629-6.8878 5.0331-4.4004 6.8984 0.8 0.66666 1.2496 1.3682 1.3496 2.1016 0.22039 0.66184-1.557 0.9572-1.7988 1.1992-3.7021 1.2665-5.3926 5.9603-4.2789 9.6894-2.394 0.74063-4.828 3.0343-5.1215 6.4102-0.34945 4.1936 5.3186 5.847 9.3496 4.9512 0.66633-0.22189 1.2889 2.5996 5.1504 2.5996 1.3217-0.31101 3.058-0.32262 3.2988 0.40033-0.16818 2.6603 0.80078 4.5 0.80078 4.5 0 0.33152-0.18391 0.59957-0.44924 0.59957-2.2775 0.18466-4.7814 2.5349-4.3516 5.4004 0.43333 2.6667 2.0768 4.3129 4.6597 4.13 5.0091-0.35466 5.2699-4.8432 3.8911-7.0303-0.43333-0.63333-0.8078-1.5364-0.41801-1.9982 2.6435-1.3068 4.8213-2.8878 3.168-6.0526-0.52262-0.68594-0.61937-1.3539-0.3418-2.0078 0 0 7.0407-2.2272 4.291-5.9922l2.4219-2.209 5.4785 10.459c0.0667 0.1 0.0841 0.20078 0.0508 0.30078v0.0488c-0.0333 0.1-0.10117 0.18333-0.20117 0.25-0.1 0.0667-0.19883 0.10156-0.29883 0.10156-0.7996 0.0637-1.6189-0.0503-2.3496-0.20119-2.5226-1.132-8.7289 2.6197-5.2012 7.8008 5.1904 5.5186 9.3126-0.16807 9.3496-1.7012 0-0.83333 0.2345-1.4651 0.70117-1.8984 0.1-0.1 0.2668-0.25489 0.34961-0.15039l5.9211 7.472 23.63-2.2728 0.34961-0.54883c-10.083-15.316-17.942-31.563-22.15-49.451-0.09544-0.76428 0.33346-1.3439 0.84948-0.99992l2.8008 2c-0.50362 3.633 4.4087 9.2834 9.8163 7.0923 3.6275 5.4629 9.3354 4.8587 10.717 0.10888 15.002 2.4713 13.861-14.426 2.4688-15.973 8.13e-4 -11.619-13.11-13.149-17.023-2.6465-1.2734-0.25806-6.3702-2.4483-9.2114 1.3406-1.367 1.9138-2.0971 1.025-2.2182 0.57734-2.8203-15.067-3.3915-32.611-3.3915-32.611s8.1479 0.12321 9.8914-6.6883c0.71522-3.3095-2.6287-8.5968-10.35-6.4004-2.7129-6.657-13.491-8.3652-16.151-1.0011zm6.9004 5.25 0.45117 0.09961c0.0669 0.01459 0.13282 0.01459 0.19922 0l0.44922-0.09961c0.87486 0.06367 1.7431 0.23034 2.6016 0.5 0.0873 0.04635 0.15312 0.09674 0.19922 0.15039 0.0756 0.10729 0.17643 0.17318 0.30078 0.19922l0.5 0.09961c0.68515 0.32422 1.2685 0.6905 1.75 1.0996 0.15107 0.15729 0.24993 0.27552 0.29883 0.35156 0.0369 0.08594 0.0873 0.15183 0.15039 0.19922 0.0596 0.04909 0.12552 0.08203 0.19922 0.09961 0.0809 0.02044 0.1642 0.07083 0.25 0.15039 0.48359 0.4569 0.98359 1.0402 1.5 1.75 0 0 0.51466 0.6711-0.19919 1.1992-0.40873 0.39218-0.95912 0.59376-1.6504 0.60156l-1.1992-0.05078c-0.18073-9.1e-4 -0.34739-0.03386-0.5-0.09961-0.10495-0.06158-0.22122-0.07903-0.34961-0.05078-0.24375 0.09713-0.4608 0.14749-0.65039 0.15039-0.21485-0.0072-0.46485-0.07305-0.75-0.19922-2.2602-0.31622-7.7498-0.14996-8.25-0.65039-0.2202-0.28086-0.3035-0.63164-0.25-1.0508v-0.79883c-0.04221-0.19505 0.06684-0.36962 0.0996-0.55078-0.05669 0.05667 0.59008-1.1399 1.6992-2.0508l0.55078-0.19922c0.0265-0.01367 0.0438-0.03112 0.0508-0.05078l0.5-0.34961-0.0508 0.05078c0.67031-0.26133 1.3699-0.42799 2.0996-0.5zm-24.4 32.699c-2.6451 0-4.8496 2.205-4.8496 4.8496 0 2.5879 2.0617 4.8516 4.8496 4.8516 2.7327 0 4.8516-2.1188 4.8516-4.8516 0-2.7879-2.2636-4.8496-4.8516-4.8496zm52 13.551 1.6504 0.15039 0.80079 0.14844 0.25 0.05078-0.0508-0.05078 2 0.60156 0.40039 0.25c0.0701 0.05313 0.13592 0.08607 0.19922 0.09961l0.49805 0.09961h2e-3c0.73111 0.31736 1.3043 0.60546 1.6504 0.84961l0.50001 0.40039 0.40034 0.25c0.52253 0.43372 0.93919 0.86784 1.25 1.3008 0.0574 0.09336 0.10779 0.24258 0.15039 0.44922 0.0271 0.11042 0.0775 0.19375 0.15039 0.25 0.13767 0.11654 0.221 0.23281 0.25 0.34961 0.0248 0.01667 0.0408 0.03411 0.0488 0.05078 0.29441 0.71341 0.41071 1.3956 0.34961 2.0488v0.05078c-2.6e-4 0.21966-0.0836 0.40378-0.25 0.55078v0.04883l-0.34961 0.25c-0.29323 0.29127-0.60911 0.44247-0.94922 0.45117-0.37279-0.0085-0.72357-0.17513-1.0508-0.5-0.0152-0.01784-0.0307-0.03529-0.0488-0.05078l-0.35156-0.25c-0.10612-0.075-0.2224-0.10791-0.34961-0.09961l-0.5 0.04883-1.0996-0.09961-0.5-0.09961c-0.0749-0.0077-0.1582-0.0077-0.25 0-0.0485 0.02747-0.0989 0.06042-0.15039 0.09961-0.28138 0.22031-0.61471 0.40443-1 0.55078l-0.5 0.09961c-0.11745-0.01341-0.21633-0.04636-0.29883-0.09961-0.0525-0.0375-0.12027-0.07044-0.20117-0.09961-0.0492-0.0057-0.11512-0.0057-0.19922 0l-0.34961 0.04883c-0.21563-0.02657-0.43268-0.14284-0.65039-0.34961l-0.40039-0.59961c-0.3742-0.4905-0.59129-1.0234-0.65039-1.5996l-0.24999-0.40039-0.54883-0.34961c-0.42058-0.26914-0.77136-0.61992-1.0508-1.0508l-0.94922-0.34961-0.65039-0.25h-0.0508c-0.68607-0.19154-1.0853-0.55781-1.1992-1.0996l-0.0508-0.05078c-0.0906-0.37292 0.0257-0.6888 0.34961-0.94922h-0.0488c0.73347-0.48763 1.5668-0.82096 2.5-1h0.0488l0.35156 0.04883 0.64841-0.15039zm-38.799 31.1 1.5996 0.15039 0.69924 0.15036 0.30078 0.0488-0.0508-0.0488 1.4004 0.39844 0.65039 0.35158c0.0975 6e-3 0.19831 0.0389 0.30078 0.0996 0.55247 0.25209 1.1358 0.60092 1.75 1.0488 0.19025 0.19805 0.50973 0.66967-0.03373 1.2336-0.6422 0.69087-5.211-0.67775-7.0678 2.618-0.0217 0.0631-0.0372 0.12902-0.0488 0.19922-0.044 0.40729-0.27852 0.6573-0.70117 0.75l-1.2988 0.84961c-0.53906-0.0326-1.0391-0.23216-1.5-0.59961-0.0436-0.0369-0.11147-0.0698-0.20117-0.0996-0.0411-5e-3 -0.0895-5e-3 -0.14844 0l-0.40039 0.0488c-0.13373-7e-3 -0.26745-0.0403-0.40039-0.0996-0.0543-0.034-0.12022-0.0495-0.19922-0.0488h-0.30079l-0.40039 0.0488-0.69922-0.0996c-0.1207-0.0164-0.23698 0.0165-0.34961 0.0996-0.10247 0.0552-0.28659 0.10559-0.55078 0.15039-0.0335 0.0127-0.0664 0.0301-0.0996 0.0508-0.39271 0.1653-0.74349 0.249-1.0508 0.25-0.21198-2e-3 -0.47748-0.0701-0.79883-0.20117-0.38127-0.20521-0.53237-0.52109-0.45117-0.94922 0.0264-8e-3 0.0438-0.0257 0.0508-0.0508 0.0603-0.55273 0.27734-1.1865 0.65039-1.9004l0.39841-0.44921 0.35158-0.55078c0.47239-0.52851 0.922-0.96068 1.3496-1.2988l0.44922-0.20117c0.0707-9e-3 0.12109-0.0415 0.15039-0.0996l0.34961-0.29883c0.0339-8e-3 0.0513-0.0253 0.0508-0.0508 0.91459-0.3875 1.5483-0.6375 1.9004-0.75l0.69922-0.0996 0.44922-0.20117 1.7012-0.34961h0.7988c0.091-0.0353 0.19179-0.0508 0.30078-0.0488h0.0508zm-4.0996 34.949c-2.9239 0-5.4512 2.3184-5.4512 5.4004 0 3.0236 2.3807 5.4004 5.4512 5.4004 3.0698 0 5.4492-2.3783 5.4492-5.4004 0-3.0802-2.5257-5.4004-5.4492-5.4004z" fill="#ef1d1e"/>
 <g>
  <path d="m36.7 3.3008c-1.0257 1.453-2.1594 3.2689-3.4004 5.4492h0.0508c-0.0578 0.10593-0.0763 0.16512-0.13281 0.26953-0.46845 0.78262-0.61415 0.8609-1.168 1.8301-0.2667 0.46666-0.79961 1.6004-1.5996 3.4004-0.6333 1.4333-1.2341 2.5496-1.8008 3.3496-1.6333 2.6666-2.8988 4.6163-3.7988 5.8496-0.3333 0.56665-0.5833 1.0008-0.75 1.3008-0.3 0.5-0.68369 0.85078-1.1504 1.0508-0.7 0.3-1.2 0.46667-1.5 0.5-0.5 0.03333-0.94961-0.18374-1.3496-0.65039l-0.35156-0.34961c-0.1667-0.1-0.1667-0.23374 0-0.40039 0.3667-0.36667 0.68447-1.0179 0.95117-1.9512 0.5-1.8666-0.018-3.6496-1.5508-5.3496-0.8-0.83332-1.8833-1.3663-3.25-1.5996-1.4-0.2-2.5492-3.78e-4 -3.4492 0.59961-2 1.3-2.9496 3.0345-2.8496 5.2012 0.1 1.5333 0.53213 2.7155 1.2988 3.5488 1.4667 1.6667 3.4337 2.25 5.9004 1.75 0.3333-0.06667 0.80039-0.33216 1.4004-0.79883 0.5667-0.29999 1.0667-0.18372 1.5 0.34961 0.033 0.03333 0.26592 0.14961 0.69922 0.34961 0.2667 0.13333 0.31709 0.33296 0.15039 0.59961-0.5333 0.83333-0.83369 1.783-0.90039 2.8496 0 0.2 0.0168 0.5004 0.0508 0.90039 0 0.36667-0.05 0.66706-0.15039 0.90039-0.3667 0.69999-1.1496 1.733-2.3496 3.0996-0.9667 1.0333-1.5675 1.7174-1.8008 2.0508-0.11983 0.19474-0.0767 0.39925-0.16797 0.5957-0.0338 0.07601-0.1564 0.18065-0.18164 0.25391-0.0707 0.22457-0.0616 0.51775-0.10742 0.76367-0.0737 0.3471-0.306 0.68499-0.29297 1.0371 0.1333 1.8666 0.20117 3.2659 0.20117 4.1992 0 1.0333-0.0178 1.6826-0.0508 1.9492-0.0647 0.70772-0.26549 1.2966-0.57812 1.7871-0.036 0.07005-0.0761 0.13478-0.11329 0.20312l-1.5586 2.3613c-0.8667 1.3333-1.0837 2.7326-0.65039 4.1992 0.0854 0.25611 0.37577 0.4183 0.49219 0.66016 0.0453 0.09445 7e-3 0.1951 0.0586 0.28906h0.0488c0.1032 0.19652 0.30929 0.25607 0.42969 0.42969 0.4487 0.6759 0.74513 1.4216 1.4707 1.9707 0.7111 0.54046 1.5507 1.2841 2.4316 2.0918 0.19806 0.19638 0.45247 0.41749 0.67187 0.62305 0.62547 0.63063 1.4256 1.4528 2.5469 2.6348 0.5333 0.49999 2.2175 2 5.0508 4.5 0.033 0.03333 0.18252 0.15156 0.44922 0.35156 0.1667 0.13333 0.26748 0.24961 0.30078 0.34961 0.1333 1.4666 0.4667 3.333 1 5.5996l1 4.3496v0.30078c-0.16658-0.03333-0.28484-0.08372-0.35154-0.15039l-2.7988-2.4492c-0.3667-0.29999-1.0663-1.0171-2.0996-2.1504-0.8667-0.89999-1.6167-1.5841-2.25-2.0508-0.6-0.49999-0.91787-0.78294-0.95117-0.84961-0.2667-0.43333-0.1833-0.90039 0.25-1.4004 0.2-0.19999 0.33369-0.63216 0.40039-1.2988 0.1667-1.3666-0.066-2.5682-0.69922-3.6016-0.6333-1.0333-1.5675-1.7833-2.8008-2.25-0.8667-0.33333-1.8008-0.39922-2.8008-0.19922s-1.8159 0.58372-2.4492 1.1504c-1 0.96665-1.5833 2.05-1.75 3.25-0.2 1.3 0.083 2.5655 0.84961 3.7988 0.7667 1.2333 1.883 1.9833 3.3496 2.25 1.3667 0.26665 2.6167 0.06706 3.75-0.59961 0.1-0.06667 0.2667-0.2159 0.5-0.44922 0.2-0.2 0.40156-0.21745 0.60156-0.05078 1.8 1.5667 2.9667 2.6345 3.5 3.2012 1.3333 1.4667 2.4651 2.55 3.3984 3.25 1.2 0.89999 1.9345 1.4833 2.2012 1.75 0.7 0.73333 1.1167 1.6151 1.25 2.6484 0.1 0.93332 0.35 2.0671 0.75 3.4004 0.2 0.73333 0.5333 1.8496 1 3.3496l1.75 5.7012c0.1 0.43332 0.13261 0.71628 0.0996 0.84961-0.1 0.26667-0.40039 0.35-0.90039 0.25-1.1667-0.23333-2.3004 0.01667-3.4004 0.75-0.4667 0.3-0.81553 0.46667-1.0488 0.5-0.3667 0.03333-0.75039-0.18372-1.1504-0.65039-1-1.1-2.3333-1.7337-4-1.9004 1.0667-0.63333 1.8496-1.3988 2.3496-2.2988 0.4667-0.83333 0.60039-1.8334 0.40039-3-0.1667-1.1667-0.60078-2.0833-1.3008-2.75-0.33319-0.13335-0.56591-0.26706-0.69921-0.40039-0.3-0.16667-0.35039-0.44962-0.15039-0.84961 0.4-1.1333 0.70039-1.9667 0.90039-2.5 0.067-0.16667 0.016-0.33335-0.15039-0.5-0.033-0.03333-0.084-0.03333-0.15039 0-0.067 0.03333-0.11514 0.06628-0.14844 0.09961l-0.45117 0.75-0.5 1.4004c-0.2333 0.56665-0.76631 0.76628-1.5996 0.59961-1.0667-0.23333-2.0492-0.09961-2.9492 0.40039-0.8667 0.49998-1.5508 1.283-2.0508 2.3496-0.6667 1.3667-0.6667 2.8008 0 4.3008 0.4667 1.1667 1.4008 2.0329 2.8008 2.5996-2.0667 0.43332-3.6675 1.1988-4.8008 2.2988-1.4667 1.3666-2.2671 2.9675-2.4004 4.8008-0.067 1.4667 0.13291 2.6508 0.59961 3.5508 0.033 0.1 0.033 0.16589 0 0.19922-0.033 0.0333-0.082 0.0508-0.14844 0.0508-1.4 0.43333-2.7334 1.4159-4 2.9492-0.6333 0.8-1.0345 1.7826-1.2012 2.9492-0.1333 1.2333 0.018 2.2508 0.45117 3.0508 0.7 1.3 1.9655 2.2671 3.7988 2.9004 1.8 0.63333 3.3833 0.66637 4.75 0.0996 0.3333-0.16667 0.53291-0.1494 0.59961 0.0508 0.0792 0.29693 0.17629 0.88056 0.26758 1.3652-0.0107 0.10063-0.0786 0.17-0.0664 0.2832 0.0336 0.18246 0.19764 0.44925 0.24805 0.64258 5.7e-4 4e-3 1e-3 4e-3 2e-3 8e-3 5.5e-4 3e-3 5e-3 7e-3 6e-3 0.01 0.24466 0.93111 0.55839 1.9075 1.1934 3.0898h-0.0488c0.35374 0.58919 0.93416 1.3337 1.541 2.0957 0.0847 0.10982 0.0695 0.19384 0.1582 0.30469 0.0527 0.0615 0.18117 0.18829 0.25 0.26367v0.0371l0.75 1.0488 0.0508 0.0508 0.0234 0.0273c0.11577 0.25793 0.29096 0.51586 0.22656 0.77344-0.067 0.36667-0.21787 0.89961-0.45117 1.5996-0.1667 0.63333-0.21709 1.2167-0.15039 1.75 0.1667 0.93333 0.68408 1.8829 1.5508 2.8496 0.9 0.96667 1.7992 1.4996 2.6992 1.5996 0.1667 0.0333 0.43408 0.0508 0.80078 0.0508 0.3333 0.0333 0.51748 0.16706 0.55078 0.40039 0.1 0.3 0.1833 1.2651 0.25 2.8984 0.067 0.3 0.16553 0.46667 0.29883 0.5 0.3 0 0.48408-0.13177 0.55078-0.39844 0.3-0.9 0.31553-1.8167 0.0488-2.75-0.1333-0.46666-0.033-0.7845 0.30078-0.95117l0.90039-0.44922c0.1-0.1 0.23369-0.1 0.40039 0 0.2333 0.16667 0.79922 0.46706 1.6992 0.90039 0.7333 0.33333 1.2837 0.66667 1.6504 1 1.0271 0.99399 1.5686 1.518 1.6406 1.5898 7e-3 9e-3 7e-3 0.013 0.0137 0.0215 0.52712 0.66357 0.76165 1.3762 0.69531 2.1387-0.0254 0.28187-0.16265 0.56395-0.30664 0.8457-0.0693 0.12242-0.091 0.23312-0.17774 0.35938-0.27965 0.36179-0.51789 0.66604-0.66601 0.84375-0.8333 1.0667-1.9671 2.2663-3.4004 3.5996-0.067-0.66667-0.2333-1.1318-0.5-1.3984-0.7333-0.76666-0.7333-1.4178 0-1.9512 0.2667-0.2 0.58447-0.56628 0.95117-1.0996 0.1-0.1 0.0822-0.24922-0.0508-0.44922-0.067-0.13333-0.13252-0.16823-0.19922-0.10156-0.067 0.1-0.11709 0.15039-0.15039 0.15039-0.7 0.53333-1.1167 0.81628-1.25 0.84961l-0.44922 0.45117c-0.2 0.2-0.41709 0.23303-0.65039 0.0996l-1.5-0.69922c-0.7-0.33333-1.6496-0.40117-2.8496-0.20117-1.2333 0.16667-2.1171 0.51745-2.6504 1.0508-1.8667 1.7-2.6012 3.7-2.2012 6 0.1333 0.7 0.60039 1.5663 1.4004 2.5996 0.8333 1 1.5504 1.6008 2.1504 1.8008-1.8 1.6-3.1004 2.7996-3.9004 3.5996-2.8948 3.0611-5.1057 5.1523-6.6387 6.2871l28.939-0.13716c0.57989-0.53755 1.2798-1.4944 1.8965-2.1602 0.53544-0.56345 0.86481-0.82674 1.5039-1.541 0.26482-0.29345 0.77776-1.0376 1.084-1.4062 0.32197-0.4059 0.5855-0.60721 0.91601-1.043l1.9491-2.5996c0.56574-0.76897 1.0691-1.399 1.6094-2.1113 1.685-2.1082 2.9023-3.5494 3.875-4.6426 0.73395-0.80404 1.3807-1.5547 2.3476-2.502 0.41673-0.40951 0.68228-0.65886 1.2188-1.1953 1.0333-1.0333 1.8821-1.9655 2.5488-2.7988 0.6667-0.8 1.7345-1.9512 3.2012-3.4512 0.6-0.66667 1.4663-1.7171 2.5996-3.1504 0.3-0.33333 0.7167-0.83334 1.25-1.5 0.5-0.6 0.96709-1.0496 1.4004-1.3496 0.5333-0.36667 1.2484-0.58372 2.1484-0.65039 0.5-0.0333 1.25-0.0488 2.25-0.0488l4.3008-0.40042c0.3667-0.0333 0.66709-0.16706 0.90039-0.40039 0.2333-0.33333 0.21622-0.73255-0.0508-1.1992l-2.0996-3.7012c-0.1-0.16667-0.0822-0.31589 0.0508-0.44922l17.75-16.051c0.6333-0.6 1.0325-1.0322 1.1992-1.2988 0.3333-0.53333 0.35038-1.1167 0.0508-1.75-0.3333-0.56667-0.5833-1.0008-0.75-1.3008-0.6333-1.3-1.1004-2.1488-1.4004-2.5488-0.12707-0.16719-0.35028-0.16879-0.49219-0.31055-0.39838-0.40246-0.89951-0.73168-1.5293-0.96875-0.16404-0.0545-0.25446-0.23644-0.42969-0.27148-0.8333-0.2-1.4496-0.33372-1.8496-0.40039-0.3424-0.0467-0.60427 0.0191-0.91016 0.0234l-0.18949-0.0234c-0.0267 1e-3 -0.10544 0.0285-0.13477 0.0312-0.2301 0.0177-0.507-0.0294-0.71484 0.0195-0.7333 0.23332-1.3012 0.4155-1.7012 0.54883-0.6667 0.2-1.25 0.30078-1.75 0.30078-1.7727-0.18028-3.0048-0.25359-3.9648-0.27148-1.4685-0.35602-2.6999-0.78591-3.4004-1.3828-0.12564-0.1155-0.26153-0.16374-0.38476-0.29492-0.3333-0.33332-0.84883-0.78491-1.5488-1.3516-0.7333-0.63333-1.2508-1.0984-1.5508-1.3984-1.0074-1.0361-1.4831-1.6325-1.7695-2.0723-0.12622-0.19862-0.19883-0.38349-0.27149-0.56836-0.33303-0.79729-0.36972-1.7216 0.0918-2.8594 0.4 0.46667 0.93291 0.83294 1.5996 1.0996 0.4 0.13332 1.0163 0.3 1.8496 0.5 1.2667 0.36665 2.4837 0.16704 3.6504-0.59961s1.8333-1.8016 2-3.1016c0.033-0.16667 0.084-0.25 0.15039-0.25 0.067 0 0.16553 0.01745 0.29883 0.05078 2.2333 0.73332 4.3671 0.64999 6.4004-0.25 1.9-0.83332 3.2004-2.0834 3.9004-3.75 0.6667-1.5333 0.85078-3.0837 0.55078-4.6504-0.5-2.3333-1.5834-4.1492-3.25-5.4492-1.4-1.1-2.7683-1.7841-4.1016-2.0508-0.3667 0.03333-0.63213 0.05078-0.79883 0.05078-0.3667-0.03333-0.55078-0.23294-0.55078-0.59961 0-1.8666-0.26553-3.4171-0.79883-4.6504-1.0667-2.3666-2.4679-3.8512-4.2012-4.4512-2.3333-0.83332-4.7171-0.6996-7.1504 0.40039-2.7666 1.1667-4.3984 2.9496-4.8984 5.3496-0.1667 0.69999-0.3333 1.0004-0.5 0.90039-2.3667-1.1666-4.6167-1.3159-6.75-0.44922-1.1333 0.49999-2.2845 1.5155-3.4512 3.0488-0.1333-0.3-0.2167-0.63335-0.25-1-0.7333-3.8999-1.1325-6.0822-1.1992-6.5488-0.1667-0.7-0.28291-1.2329-0.34961-1.5996-0.1333-0.59999-0.1333-1.0845 0-1.4512 0.0719-0.17586 0.53693-1.0062 0.6836-1.3066l0.41601-0.74219c0.64049-1.0906 1.1734-2.0906 1.5996-3l0.43359-0.83789c1.4392-2.5093 2.6708-4.4637 3.5664-5.5137 0.26557-0.29744 0.45602-0.77039 0.70117-1.1152 0.42759-0.54855 0.81825-1.1574 1.1602-1.8477 0.1019-0.20392 0.24067-0.3222 0.33789-0.53711 0.10728-0.26817 0.39043-1.0812 0.5625-1.5488 0.0239-0.07564 0.0647-0.12435 0.0879-0.20117 0.44343-1.4491 1.1615-3.0967 1.8828-4.7461 0.0883-0.18803 0.12076-0.3065 0.2168-0.50391 0.61202-1.224 1.0289-2.1087 1.332-2.7988l0.73437-1.3789c0.44295-0.80025 0.94232-1.6894 1.1836-2.1719 0.7333-1.3333 1.2683-2.3488 1.6016-3.0488 0.34626-0.67328 0.47859-1.2406 0.69141-1.8477 0.081-0.22771 0.30123-0.60122 0.35742-0.80273 0.0199-0.06582-3e-3 -0.12053 0.0137-0.18555 0.028-0.11291 0.1139-0.25496 0.13672-0.36524 0.0228-0.15879-0.0603-0.39629-0.0684-0.57812 6e-3 -0.37336-0.017-0.73864-0.12695-1.082-4e-3 -0.01519 6.8e-4 -0.02377-4e-3 -0.03906-0.0207-0.07937-0.0654-0.07707-0.0879-0.15039-0.14019-0.35823-0.24266-0.72648-0.51367-1.0508l-0.0488-0.04883c-0.0309-0.0296-0.0774-0.01822-0.10937-0.04492-0.0376-0.02814-0.0523-0.13471-0.0918-0.15625-0.12504-0.06642-0.22527 0.01549-0.3457-0.02344-0.18404-0.07607-0.34032-0.22532-0.55274-0.22656-0.17499 6.02e-4 -0.27445 0.11701-0.42187 0.16016-0.0818 0.02934-0.16505 0.04852-0.24414 0.09375-0.11985 0.06181-0.28814 0.04941-0.38477 0.14648v0.05078c-0.20419 0.21073-0.25557 0.50941-0.43164 0.73633-0.1008 0.1524-0.22316 0.1772-0.31836 0.36328-0.10705 0.20644-0.25316 0.56822-0.36719 0.80273-0.22302 0.42818-0.59007 0.77349-0.73242 1.248-0.19059 0.82838-0.59223 1.5228-0.94531 2.248-0.41265 0.84317-0.92359 1.8191-1.9551 3.502-0.62656 1.1688-0.92327 1.6657-1.4453 2.6211l-0.4043 0.67773 0.0488-0.04883c-4e-3 8e-3 -1.7e-4 0.0135-4e-3 0.02148-0.75312 1.3699-1.6831 3.1005-2.1953 3.9785-1.0667 1.9-2.5163 4.0163-4.3496 6.3496l-2.8006 3.8496c-0.1667-1.0667-0.25-1.6674-0.25-1.8008 0-1.7333-0.19961-4.3322-0.59961-7.7988-0.033-0.56667-0.0162-0.91745 0.0508-1.0508 0.1333-0.33332 0.49961-0.48255 1.0996-0.44922 0.9667 0.1 2.0655-0.11707 3.2988-0.65039 2.4333-1.1 4.1349-2.5826 5.1016-4.4492 0.4-0.76665 0.59961-1.7337 0.59961-2.9004 0-1.2-0.21709-2.1167-0.65039-2.75-0.7333-1.0667-1.9504-2.0337-3.6504-2.9004-1.4-0.69999-2.8825-0.88411-4.4492-0.55078l-0.3008 0.05078c-0.7667 0.16667-1.2492 0.25-1.4492 0.25-0.4667-0.06667-0.83291-0.40001-1.0996-1-0.6667-1.4667-1.6183-2.5326-2.8516-3.1992-2.7-1.4333-5.4829-1.7512-8.3496-0.95117l-0.34961 0.05078c0.033-0.06667 0.084-0.18294 0.15039-0.34961 0.3667-0.43332 0.83369-1.1504 1.4004-2.1504 0.4333-0.66667 0.9333-1.5504 1.5-2.6504l4.5352-8.8418zm-22.1 13.5c0.2 0.03333 0.45 0.03333 0.75 0 0.2 0.03333 0.26592 0.26589 0.19922 0.69922-0.3 1.7-0.1333 3.1167 0.5 4.25 0.1667 0.23333 0.18378 0.45039 0.0508 0.65039-0.033 0.03333-0.25039 0.04883-0.65039 0.04883-1.9333-0.16667-3.5167 0.01745-4.75 0.55078-0.1667 0.06667-0.26748 7.81e-4 -0.30078-0.19922-0.033-0.26665-0.0656-0.43333-0.0996-0.5-0.2333-0.86665-0.016-1.8512 0.65039-2.9512 0.6667-1.1333 1.4321-1.8329 2.2988-2.0996 0.067 0 0.30117-0.11629 0.70117-0.34961 0.2667-0.13333 0.48369-0.16628 0.65039-0.09961zm1.9492 0.42383c0.1667-0.1 0.48252-0.02539 0.94922 0.22461 1.2333 0.73332 2.0008 1.7683 2.3008 3.1016s0.033 2.5833-0.80078 3.75c-0.1333 0.16667-0.3 0.09883-0.5-0.20117-1.5666-1.9-2.2333-3.9155-2-6.0488-0.1333-0.44999-0.11622-0.72617 0.0508-0.82617zm22.66 3.5254h2e-3c1.175-0.03333 2.3538 0.16629 3.5371 0.59961 1.7667 0.7 2.9333 1.5508 3.5 2.5508 0.1 0.16665 0.36748 0.53296 0.80078 1.0996 0.3333 0.46667 0.55039 0.86589 0.65039 1.1992 0.1 0.33332 0.28213 0.46706 0.54883 0.40039 0.1333 0 0.40078-0.11628 0.80078-0.34961 0.6333-0.3 1.2167-0.49961 1.75-0.59961 1.2667-0.16667 2.6833 0.13374 4.25 0.90039 1.9667 0.93332 3.0829 2.1155 3.3496 3.5488 0.3333 1.7667-0.1667 3.4334-1.5 5-1.4667 1.7-3.3833 2.6845-5.75 2.9512-0.5 0.16667-0.88369 0.28294-1.1504 0.34961-0.2 0.03333-0.33174 0.03333-0.39844 0-0.1-0.06667-0.16787-0.21784-0.20117-0.45117-0.067-0.56667-0.0492-0.98335 0.0508-1.25 0.1333-0.4 0.41631-0.73335 0.84961-1 0.5333-0.36667 1.4829-1.2659 2.8496-2.6992 0.067-0.06667 0.0996-0.23333 0.0996-0.5-0.4333 0-0.6833 0.03294-0.75 0.09961-1.4333 1.3667-2.5651 2.3512-3.3984 2.9512-0.1667 0.1-0.3333 0.13294-0.5 0.09961-0.2-0.03333-0.31826-0.05078-0.35156-0.05078l0.25-0.5c0.9333-1.3333 1.6349-2.533 2.1016-3.5996 0.1-0.2 0.16592-0.34922 0.19922-0.44922 0.067-0.16667 7.8e-4 -0.30039-0.19922-0.40039-0.1667-0.1-0.40117 0.04922-0.70117 0.44922-0.9333 1.5-1.6833 2.7345-2.25 3.7012-0.1667 0.26667-0.30039 0.43333-0.40039 0.5-0.2667 0.23333-0.63291 0.34961-1.0996 0.34961-0.5333-0.03333-0.93252-0.05078-1.1992-0.05078 0.1-0.26665 0.23369-0.6504 0.40039-1.1504l0.54883-0.79883c0.5-1.4 0.90117-2.4329 1.2012-3.0996l0.10156-0.35156c0.1667-0.5 0.14767-0.81589-0.0527-0.94922-0.1667-0.1-0.30039-0.08255-0.40039 0.05078-0.067 0.2-0.11514 0.33177-0.14844 0.39844l-2.4512 5.25c-0.2333 0.56665-0.58213 0.75078-1.0488 0.55078-0.5333-0.23333-0.8667-0.25079-1-0.05078 0.4667-0.93332 0.89883-2.1155 1.2988-3.5488l0.34952-1.4004 0.0508-1.1992c0.033-0.46665 0.16709-0.83491 0.40039-1.1016 0.067-0.13333-0.017-0.31551-0.25-0.54883-0.1667-0.13333-0.28291-0.05-0.34961 0.25l-1.1016 3.5996c-0.2667 1.0667-0.58252 2.0337-0.94922 2.9004-0.033 0.1-0.033 0.29961 0 0.59961 0 0.26667-0.21709 0.41588-0.65039 0.44922-0.9 0.03333-1.3321-0.21668-1.2988-0.75 0.2333-0.63333 0.34961-1.0655 0.34961-1.2988l0.25-2.3496c0.1333-1.6333 0.10069-2.9512-0.0996-3.9512v-0.79883c-0.033-0.29999-0.1167-0.55-0.25-0.75l-0.30079-0.30078-0.25 0.40039-0.0508 1.0996c0.1333 1.1667 0.1333 2.6008 0 4.3008l-0.39844 4c0 0.26667-0.083 0.35-0.25 0.25-0.067-0.03333-0.28369-0.05078-0.65039-0.05078-0.2667 0.03333-0.41787-0.08294-0.45117-0.34961-0.033-1.5333-0.0656-2.6671-0.0996-3.4004l-0.0488-0.80078c-0.033-0.26667-0.26787-1.6485-0.70117-4.1484-0.033-0.13333-0.1167-0.23411-0.25-0.30078-0.1667-0.06667-0.30039-0.06667-0.40039 0-0.1333 0.06667-0.16786 0.29922-0.10156 0.69922 0.1 0.76665 0.28408 1.9179 0.55078 3.4512l0.19922 4.1504c-0.033 0.4-0.21553 0.58216-0.54883 0.54883-0.5333-0.1-0.83369-0.11548-0.90039-0.04883-0.067 0.06667-0.0996-0.08451-0.0996-0.45117v-0.90039c-0.067-0.66667-0.2333-1.4322-0.5-2.2988-0.3333-0.99999-0.5833-1.7674-0.75-2.3008-0.2-0.1-0.35117-0.18333-0.45117-0.25-0.033 0.1-0.099 0.21628-0.19922 0.34961-0.067 0.16667-0.0838 0.31784-0.0508 0.45117 0.5 1.8333 0.86631 3.3004 1.0996 4.4004 0.067 0.3 0.067 0.53255 0 0.69922-0.067 0.26667-0.28174 0.36745-0.64844 0.30078-0.4667-0.1-0.78447-0.15039-0.95117-0.15039-0.3667 0-0.6167-0.18412-0.75-0.55078-0.067-0.43332-0.13252-0.74923-0.19922-0.94922-0.4667-1.4333-0.99961-2.5671-1.5996-3.4004-0.2-0.33333-0.3667-0.43411-0.5-0.30078-0.1667 0.2-0.20156 0.4345-0.10156 0.70117 0.067 0.13332 0.16748 0.3504 0.30078 0.65039 0.8 1.9 1.2671 3.0996 1.4004 3.5996 0.033 0.13332-0.05 0.19922-0.25 0.19922-0.3-0.03333-0.49961-0.04883-0.59961-0.04883-2.1-0.06667-3.4508-0.15-4.0508-0.25-1-0.1-2.1163-0.11746-3.3496-0.05078-0.2 0-0.35117-0.05039-0.45117-0.15039-0.3-0.39999-0.53252-0.68294-0.69922-0.84961-0.7667-1.0333-1.1659-1.983-1.1992-2.8496-0.033-0.89999 0.31553-1.8496 1.0488-2.8496 0.4667-0.63332 1.2671-1.0849 2.4004-1.3516 1.0667-0.23333 2.0163-0.21588 2.8496 0.05078 1.4 0.4 2.9504 1.1171 4.6504 2.1504 0.2333 0.16665 0.38252 0.11628 0.44922-0.15039 0.067-0.16667 0.0838-0.36629 0.0508-0.59961v-0.70117c0-2.6666 1.2171-4.5485 3.6504-5.6484 1.1664-0.49998 2.3367-0.76744 3.5117-0.80078zm-26.76 2.6992c1.8667-0.13333 3.3492 0.01784 4.4492 0.45117 0.2 0.06667 0.41709 0.24883 0.65039 0.54883 0.1333 0.16667 0.33291 0.45158 0.59961 0.85156-0.8 0.5-1.4163 0.79844-1.8496 0.89844-2.0667 0.39999-3.65-0.13296-4.75-1.5996-0.2-0.33332-0.34922-0.5659-0.44922-0.69922zm18.699 3.9004v0.05078c-9e-3 -9e-3 -0.0303-0.01059-0.0391-0.01953 0.0112-0.01402 0.0287-0.01566 0.0391-0.03125zm-7.4004 8.3008h1.25v0.40039l20.4 0.39844c0.6 0 1.4837 0.06784 2.6504 0.20117 0.2667 0 0.38291 0.09883 0.34961 0.29883 0 0.1-0.0326 0.21823-0.0996 0.35156-0.1 0.93332-0.0674 2.3326 0.0996 4.1992 0 0.56665 0.068 1.5163 0.20117 2.8496 0.1333 1.2 0.19922 2.1341 0.19922 2.8008 0 0.36665 0.083 2.0663 0.25 5.0996 0.033 0.99999 0.25039 3.25 0.65039 6.75l2.6992 15.9c0.8 3.7333 1.2496 5.8496 1.3496 6.3496 0.3667 1.4667 0.95 3.6508 1.75 6.5508 0.7333 3.0666 1.4 5.3167 2 6.75 0.1333 0.36667 0.51709 1.3822 1.1504 3.0488 0.4667 1.2333 0.86787 2.2333 1.2012 3 0.6 1.2667 1.4663 3.1833 2.5996 5.75 0.6333 1.3333 1.9996 3.9167 4.0996 7.75l9.1504 15.25c0.1333 0.26667 0.11622 0.41784-0.0508 0.45117h-0.5l-7.25 0.54883c-1.9667 0.23333-3.4337 0.3845-4.4004 0.45117-3.4333 0.3-6.3984 0.63333-8.8984 1-0.8 0.13333-1.4008 0.13333-1.8008 0-0.5667-0.16667-1.0492-0.60078-1.4492-1.3008-0.4667-0.83333-1.1179-1.8159-1.9512-2.9492l-2.0996-2.9004c-0.5667-0.83333-1.2508-1.9496-2.0508-3.3496-1.0333-1.8333-1.6825-2.9671-1.9492-3.4004-0.8333-1.3667-1.6996-3.0004-2.5996-4.9004-1.0333-2.2333-1.8163-3.9174-2.3496-5.0508-0.3667-0.76667-0.81826-1.9488-1.3516-3.5488-0.5667-1.6333-1.0317-2.833-1.3984-3.5996-0.6-1.3333-1.2512-3.1338-1.9512-5.4004-0.4333-1.3667-0.96631-3.2679-1.5996-5.7012-0.7667-2.7333-1.3325-4.7818-1.6992-6.1484l-2.6016-10.701c-0.3333-1.7-0.54844-3.0333-0.64844-4-0.6667-4.9999-1.0504-7.9322-1.1504-8.7988-0.2667-2.4666-0.41787-3.7845-0.45117-3.9512-0.1-0.73332-0.36553-2.9834-0.79883-6.75-0.1-2.2333-0.20078-3.9155-0.30078-5.0488l-0.90039-8.4512v-0.09961c0-0.06667 0.083-0.09961 0.25-0.09961zm-8.8496 27.549c0.3 0.1 0.83291 0.25117 1.5996 0.45117 0.2333 0.1 0.30117 0.26667 0.20117 0.5-0.033 0.13332-0.13408 0.3-0.30078 0.5-0.4667 1.0333-0.73213 1.6322-0.79883 1.7988-0.2667 0.69999-0.38486 1.3512-0.35156 1.9512l-0.25 0.19922c-1.3666-0.66665-2.8821-1.0988-4.5488-1.2988-0.3-0.03333-0.26739-0.40158 0.0996-1.1016 0.7333-1.7666 2.1829-2.7667 4.3496-3zm56.098 0.20117h2e-3c1.5667-0.36667 3.0512-0.28333 4.4512 0.25 1.4333 0.49999 2.4663 1.3159 3.0996 2.4492 1.1333 2.0666 1.6333 3.933 1.5 5.5996l-0.0996 0.5c-0.1 0.2-0.0852 0.40156 0.0488 0.60156 0.067 0.1 0.15 0.13294 0.25 0.09961 0.067-0.03333 0.15-0.06628 0.25-0.09961 1.3333 0.16667 2.0679 0.28294 2.2012 0.34961 1.4 0.56665 2.4329 1.15 3.0996 1.75 1.5333 1.4333 2.4829 3.0322 2.8496 4.7988 0.4667 1.9333 0.28447 3.5671-0.54883 4.9004-1.0333 1.5999-2.3008 2.6174-3.8008 3.0508-1.5 0.43332-2.8837 0.53216-4.1504 0.29883-0.5333 0.03333-0.93252 0.03333-1.1992 0-0.4333-0.1-0.70078-0.44884-0.80078-1.0488-0.067-0.53333 0.13291-0.86668 0.59961-1 0.4667-0.2 0.95117-0.50039 1.4512-0.90039 0.3-0.23333 0.73213-0.59962 1.2988-1.0996 1-0.86667 1.6841-1.6496 2.0508-2.3496 0.1333-0.23333 0.10069-0.4504-0.0996-0.65039-0.1-0.06667-0.1833-0.06667-0.25 0-0.033 0.13332-0.0676 0.21667-0.10156 0.25-1.4333 1.7666-3.1349 3.133-5.1016 4.0996-0.3333 0.16667-0.51553 0.25-0.54883 0.25-0.067 0-0.13447-0.03294-0.20117-0.09961-0.3-0.26679-0.44922-0.50117-0.44922-0.70117 0-0.16667 0.18408-0.41668 0.55078-0.75 1.0333-0.86665 2.0817-2.1322 3.1484-3.7988l0.60156-0.95117c0.1-0.26667 0.0822-0.43333-0.0508-0.5-0.1-0.06667-0.28408-0.01628-0.55078 0.15039-1.6333 2.1333-3.0151 3.7496-4.1484 4.8496l-0.29885 0.30074c-0.2 0.16667-0.39961 0.18412-0.59961 0.05078l-0.45117-0.35156c-0.1333-0.06667-0.16591-0.15-0.0996-0.25 0.067-0.03333 0.15-0.09922 0.25-0.19922l0.90038-1.25c1.4667-2.0333 2.4337-3.7659 2.9004-5.1992 0.1-0.29999 0.032-0.50156-0.20117-0.60156-0.1333-0.06667-0.2167-0.04922-0.25 0.05078 0 0.06667-0.0158 0.16745-0.0488 0.30078-1.1667 2.0666-2.1337 3.5667-2.9004 4.5l-0.75 1.0996c-0.3333 0.43332-0.63369 0.76667-0.90039 1-0.1333 0.13332-0.36592 0.18372-0.69922 0.15039-0.4333-0.06667-0.7667-0.10156-1-0.10156 0.7667-0.79999 1.5321-1.8834 2.2988-3.25 0.8-1.5667 1.4667-3.2992 2-5.1992 0.1667-0.46667 0.10078-0.76706-0.19922-0.90039-0.1667-0.06667-0.3333 0.11745-0.5 0.55078-1.0333 2.7-1.7175 4.3667-2.0508 5-0.2333 0.46665-0.53174 0.93374-0.89844 1.4004-0.5333 0.79999-0.93447 1.3833-1.2012 1.75-0.5 0.66667-1.0504 1.0988-1.6504 1.2988l2.4004-6.1992c0.3333-0.86667 0.55039-1.8512 0.65039-2.9512 0.033-0.26667 0.0508-1.1485 0.0508-2.6484 0-0.29999-0.083-0.43372-0.25-0.40039-0.067 0-0.15 0.05039-0.25 0.15039-0.067 0.06667-0.10156 0.13255-0.10156 0.19922-0.1333 1.8666-0.56553 3.9326-1.2988 6.1992l-0.34961 1c-0.067 0.16667-0.66748 1.6338-1.8008 4.4004l-0.0996 0.09961-0.45117-0.59961c-0.4-0.49999-0.53174-1.0833-0.39844-1.75 0.2667-0.73332 0.46631-1.2992 0.59961-1.6992 0.2667-0.83333 0.4333-1.5174 0.5-2.0508 0.2-0.83332 0.29883-1.6996 0.29883-2.5996l0.20117-2c0-0.43333-0.1667-0.68333-0.5-0.75-0.1667 0-0.26748 0.08333-0.30078 0.25-0.033 0.1-0.0508 0.24922-0.0508 0.44922-0.2 2-0.40156 3.5-0.60156 4.5l-0.59965 2.0508c-0.1 0.36667-0.16592 0.68255-0.19922 0.94922 0 0.13333-0.0326 0.23411-0.0996 0.30078-0.1 0.06667-0.23369 0.03372-0.40039-0.09961-0.4667-0.36667-0.76709-0.70001-0.90039-1-0.2-0.4-0.2-0.88452 0-1.4512l0.25-0.84961c0.3-1.2666 0.31708-2.6 0.0508-4v-0.5c0-0.16665-0.11826-0.23255-0.35156-0.19922s-0.34961 0.16706-0.34961 0.40039c-0.033 0.03333-0.0162 0.23294 0.0508 0.59961 0 1.3666-0.11631 2.6322-0.34961 3.7988l-0.35156 1.7012-1.0488-0.34961c-0.4-0.13333-0.61709-0.3-0.65039-0.5-0.033-0.1-0.033-0.25117 0-0.45117 0.3667-1.5333 0.30078-3.2659-0.19922-5.1992-0.1667-0.33333-0.31787-0.44961-0.45117-0.34961-0.2667 0.13333-0.36553 0.38335-0.29883 0.75 0.3 1.2333 0.36592 2.5492 0.19922 3.9492l-0.0996 0.44922c0 0.56665-0.05 0.83411-0.15039 0.80078-0.3667 0-0.63408-0.03294-0.80078-0.09961-0.2333-0.1-0.38252-0.33452-0.44922-0.70117-0.3-1.8333-0.60039-3.0329-0.90039-3.5996-0.033-0.16665-0.084-0.28294-0.15039-0.34961-0.067-0.13333-0.18291-0.16627-0.34961-0.09961-0.3 0.13332-0.35039 0.38333-0.15039 0.75 0.2333 0.43332 0.41748 1.0671 0.55078 1.9004 0.1333 0.96665 0.26709 1.6159 0.40039 1.9492 0.067 0.23333-0.017 0.38255-0.25 0.44922-0.2667 0.06667-0.45078 0.11706-0.55078 0.15039-1 0.46667-1.6996 0.88335-2.0996 1.25-0.1667 0.16667-0.35078 0.15119-0.55078-0.04883-2.2-1.5333-3.2988-3.3841-3.2988-5.5508 0.033-2.1666 1.1825-3.7171 3.4492-4.6504 2-0.76665 4.2171-0.46626 6.6504 0.90039 0.2667 0.1 0.46631 0.11746 0.59961 0.05078v-0.45117c0.067-1.1666 0.33408-2.1337 0.80078-2.9004 1.1667-1.9 3.0988-3.1655 5.7988-3.7988zm-53.498 1.0996c0.1-0.2 0.23369-0.2 0.40039 0 0.067 0.1 0.16748 0.23372 0.30078 0.40039 0.5667 0.49999 0.88252 1.3488 0.94922 2.5488 0.067 1.2-0.15039 2.0837-0.65039 2.6504-0.2333 0.26667-0.44844 0.29961-0.64844 0.09961-0.5-0.3-0.88369-0.53255-1.1504-0.69922-0.4667-0.33333-0.66631-0.85079-0.59961-1.5508 0.8-2.0333 1.2651-3.1826 1.3984-3.4492zm-6.8496 3.75c2.4333 0.46667 4.5845 1.3504 6.4512 2.6504l0.54883 0.19922c-1.7667 1.4-3.6833 1.4504-5.75 0.15039-0.7667-0.46667-1.2996-1.4163-1.5996-2.8496-0.033-0.23333 0.083-0.28372 0.34961-0.15039zm44.051 10.801c0.3 0.2 0.69922 0.51589 1.1992 0.94922 0.4667 0.33333 0.90078 0.56589 1.3008 0.69922 0.2 0.03333 0.26592 0.21745 0.19922 0.55078-0.2 0.89999-0.084 1.9175 0.34961 3.0508 0.4667 1.2333 1.1333 2.0822 2 2.5488l2.2012 1.4512 0.0996 0.25c-0.3333 0.16667-0.51748 0.25-0.55078 0.25-1-0.06667-2.3663-0.56668-4.0996-1.5-0.6667-0.36665-1.0833-0.93451-1.25-1.7012-0.1-0.93332-0.23369-1.6155-0.40039-2.0488-0.2-0.56665-0.5333-1.8516-1-3.8516zm5.7988 0.34961c0.7-0.2 1.6341-0.1496 2.8008 0.15039 2.1 0.5 3.6833 1.9496 4.75 4.3496 0.2667 0.59999 0.21631 1.2667-0.15039 2-0.3667 0.69999-0.95 1.2833-1.75 1.75-0.5333 0.26665-1.1167 0.40039-1.75 0.40039-2.1-0.1-3.8829-1.2338-5.3496-3.4004-0.9333-1.3667-1.1175-2.5508-0.55078-3.5508 0.5667-0.89999 1.2333-1.4659 2-1.6992zm10.9 4.75c1.8667-0.16667 3.3841 0.21707 4.5508 1.1504 0.9667 0.79999 1.4667 1.7651 1.5 2.8984 0 0.83332-0.35078 1.6182-1.0508 2.3516-0.8 0.79999-1.7167 1.1488-2.75 1.0488-3.3666-0.36665-5.1167-1.7834-5.25-4.25-0.033-0.56665 0.31748-1.2333 1.0508-2 0.7-0.73332 1.3492-1.1326 1.9492-1.1992zm-52.725 2.375c0.7-0.2 1.4742-0.17579 2.3242 0.07422l0.45117 0.05078c-0.4667 1.0333-0.8833 2.6167-1.25 4.75-1.1333-1.7-2.3-2.7679-3.5-3.2012-0.1333-0.03333-0.10069-0.1651 0.0996-0.39844 0.55-0.64999 1.175-1.0754 1.875-1.2754zm3.375 1.2246c0.3-0.46667 0.65078-0.43372 1.0508 0.09961 0.6333 0.83333 0.91631 1.75 0.84961 2.75-0.033 0.76667-0.2833 1.4837-0.75 2.1504-0.5 0.69999-1.1163 1.1671-1.8496 1.4004-0.2333 0.06667-0.35156-0.0012-0.35156-0.20117 0.1333-2.3333 0.41826-4.1163 0.85156-5.3496 0.033-0.06667 0.0488-0.20039 0.0488-0.40039 0-0.16667 0.05-0.31589 0.15039-0.44922zm-5.8008 1.1992c0.2667-0.06667 0.73369 0.18333 1.4004 0.75 0.8333 0.79999 1.4167 1.4667 1.75 2 0.5333 0.79999 0.7833 1.6508 0.75 2.5508 0 0.13333-0.0326 0.19922-0.0996 0.19922-0.067-0.03333-0.11709-0.04883-0.15039-0.04883-1.1333 0.06667-2.0829-0.29962-2.8496-1.0996s-1.1504-1.8175-1.1504-3.0508c-0.1-0.73332 0.016-1.1674 0.34961-1.3008zm5.4512 7.1016c1.7667 0.16667 3.0321 0.79845 3.7988 1.8984 0.4333 0.59999 0.90039 0.83449 1.4004 0.70117 0.1333-0.03333 0.56748-0.26785 1.3008-0.70117 1.5-0.83332 3.0659-1.0484 4.6992-0.64844 0.2333 0.06667 0.4 0.31668 0.5 0.75l0.25 1.0488c0.5 1.2 1.1996 2.9829 2.0996 5.3496 0.1333 0.26667 0.16826 0.5845 0.10156 0.95117-0.067 0.2-0.15 0.48294-0.25 0.84961-0.4 1.8667-0.85156 3.1826-1.3516 3.9492-0.033 0.13333-0.099 0.21667-0.19922 0.25-0.1333 0.1-0.31748 0.11727-0.55078 0.0508-0.3-0.1-0.49961-0.15039-0.59961-0.15039-0.4333 0-0.69883 0.0504-0.79883 0.15039l0.34961-1.0508c0.3-1.0333 0.44922-2.2659 0.44922-3.6992 0.067-1.3333-0.017-2.3992-0.25-3.1992 0-0.1-0.0326-0.18333-0.0996-0.25-0.067-0.0667-0.15-0.0841-0.25-0.0508-0.3 0.2-0.43369 0.38411-0.40039 0.55078 0.2333 1 0.25038 2.3333 0.0508 4l-0.40039 2.25-0.0508 0.75c-0.033 0.53333-0.34922 0.79883-0.94922 0.79883-0.2333 0-0.34961-0.0988-0.34961-0.29883 0.067-0.2 0.0996-0.35117 0.0996-0.45117l0.0508-1.1504c0-2.1-0.28486-3.9159-0.85156-5.4492-0.2333-0.6-0.46592-0.85-0.69922-0.75-0.2 0.1-0.26592 0.26667-0.19922 0.5 0.033 0.16667 0.099 0.36628 0.19922 0.59961 0.3333 1.2 0.53291 2.6167 0.59961 4.25v0.65039c0.067 0.93333 0.016 1.7008-0.15039 2.3008-0.067 0.23333-0.2333 0.4-0.5 0.5-0.4 0.23333-0.61514 0.34961-0.64844 0.34961-0.1667-0.56667-0.25-0.9-0.25-1l-0.25-2.2012c-0.2667-1.9-0.86748-3.6326-1.8008-5.1992-0.2-0.3-0.3667-0.41628-0.5-0.34961-0.2333 0.16667-0.3167 0.38372-0.25 0.65039 0 0.0333 0.083 0.2155 0.25 0.54883 0.6 1.2667 1.0167 2.7337 1.25 4.4004l0.15039 1.0508c0.067 0.93333 0.20039 1.7318 0.40039 2.3984 0.1 0.26667 0.032 0.55156-0.20117 0.85156-0.2333 0.4-0.34961 0.68294-0.34961 0.84961-0.6-1.9667-0.96631-3.1178-1.0996-3.4512l-0.5-1.3984c-0.8333-2.1333-1.8837-3.6837-3.1504-4.6504-0.2333-0.16667-0.43291-0.16667-0.59961 0-0.1333 0.16667-0.11777 0.36628 0.0488 0.59961 1 1 1.8837 2.4496 2.6504 4.3496l0.59961 1.5c0.5667 1.3667 0.93486 2.6496 1.1016 3.8496-0.8-0.0667-1.3833-0.49883-1.75-1.2988-0.3-0.96667-0.60039-1.6508-0.90039-2.0508l-0.84961-1.1992c-1.3667-1.9-2.5179-3.15-3.4512-3.75-0.1667-0.16667-0.30039-0.16667-0.40039 0 0 0.0667-0.048 0.15-0.14844 0.25-0.033 0.0667 0.015 0.1655 0.14844 0.29883 1.1333 0.96666 2.1508 2.1837 3.0508 3.6504l1.1992 1.9512 0.55078 0.69922c0.033 0.0667 0.099 0.33412 0.19922 0.80078-0.2-0.13333-0.58174-0.18372-1.1484-0.15039-0.5 0.0333-0.8333-0.0829-1-0.34961l-1.1016-1.75c-0.8333-1.1667-1.8159-2.2674-2.9492-3.3008-0.1667-0.16667-0.36631-0.30039-0.59961-0.40039-0.2333-0.0667-0.4-0.0492-0.5 0.0508-0.1333 0.16667-0.11777 0.33333 0.0488 0.5 0.067 0.1 0.21787 0.23372 0.45117 0.40039 0.8333 0.83333 1.8333 2.0155 3 3.5488l0.84961 1.25c0.1 0.13333 0.1 0.21667 0 0.25h-0.19922c-0.6333 0.26667-1.0675 0.3345-1.3008 0.20117s-0.4-0.3-0.5-0.5c-0.4667-0.7-1.1159-1.4016-1.9492-2.1016-1-0.8-1.75-1.4163-2.25-1.8496-0.1333-0.13333-0.3-0.21667-0.5-0.25-0.2 0-0.35117 0.0504-0.45117 0.15039-0.1 0.13333-0.1 0.24961 0 0.34961 0.067 0.0667 0.18291 0.15 0.34961 0.25 1.7 1.4667 3.2349 2.9667 4.6016 4.5l0.10156 0.0996c0.067 0.0667 0.0473 0.11706-0.0527 0.15039-0.2333 0.2-0.4 0.35117-0.5 0.45117-0.2 0.13333-0.38213 0.13333-0.54883 0-0.9333-0.8-2.2841-1.6682-4.0508-2.6016-0.4667-0.26667-0.91631-0.2494-1.3496 0.0508l0.19922 0.40039c0.4333 0.1 0.91787 0.29961 1.4512 0.59961 0.2667 0.16667 0.6833 0.43411 1.25 0.80078 0.5 0.3 1.2151 0.8155 2.1484 1.5488-0.1667 0.5-0.34883 0.78294-0.54883 0.84961-1.0667 0.56666-2.5337 0.6345-4.4004 0.20117-1.8667-0.46667-3.1671-1.1837-3.9004-2.1504-0.4333-0.63333-0.63291-1.4667-0.59961-2.5 0.067-1.0333 0.34961-1.9171 0.84961-2.6504 1.0333-1.4667 2.2175-2.4492 3.5508-2.9492 0.1333-0.0333 0.33291-0.0178 0.59961 0.0488 0.2667 0.0667 0.45078 0.0667 0.55078 0 0.2333-0.16667 0.28174-0.34883 0.14844-0.54883-0.2333-0.33333-0.34961-0.51745-0.34961-0.55078-0.2-0.5-0.31631-0.88372-0.34961-1.1504-0.4333-1.6333-0.23369-3.2167 0.59961-4.75 0.8333-1.5 2.0504-2.5329 3.6504-3.0996 1.9-0.66665 3.6171-0.93216 5.1504-0.79883zm40.4 6.4492c0.55662 0.14212 0.99052 0.42512 1.4375 0.69336 0.39687 0.27071 0.66768 0.50806 0.96094 0.75195 0.3688 0.37669 0.7455 0.74491 1 1.2539 0.7 1.4333 0.65156 2.7337-0.14844 3.9004zm-25.75 4.0508 0.25 0.0996 1.0488 2.6992c0 0.53333-0.31592 1.0004-0.94922 1.4004-0.6333 0.43333-1.1508 0.49922-1.5508 0.19922-0.1667-0.13333-0.18223-0.3155-0.0488-0.54883 0.2333-0.26667 0.36514-0.46628 0.39844-0.59961 0.4333-0.9 0.70078-1.9 0.80078-3zm1.6484 4.25c0.2667 0.0667 0.58447 0.49883 0.95117 1.2988 0.4667 1.0667 1.1159 2.3671 1.9492 3.9004 0.4667 0.83333 1.1663 2.1008 2.0996 3.8008l1.1016 1.6992c-1.0333-0.8-2.1341-1.2826-3.3008-1.4492-1.2-0.16667-2.2833 0.0484-3.25 0.64844-1.1 0.66666-1.9508 1.6512-2.5508 2.9512-0.6333 1.2333-0.8 2.2663-0.5 3.0996 0.7 2.0667 1.6516 3.4504 2.8516 4.1504 0.9333 0.56667 2.1659 0.78372 3.6992 0.65039 1.7-0.1 3.0004-0.93333 3.9004-2.5 0.9-1.5 1.2333-2.9671 1-4.4004 0.2 0.46667 0.54883 1.0326 1.0488 1.6992 0.6 0.76667 0.98369 1.2996 1.1504 1.5996 0.1 0.13333 0.0842 0.26706-0.0488 0.40039-0.0489 0.0452-0.0631 0.0531-0.11133 0.0977-0.0949 0.0504-0.13289 0.0397-0.24023 0.10351l-0.53516 0.57617c-0.98276 0.89235-1.837 1.6474-2.498 2.1934-0.69051 0.60238-1.3921 0.96542-2.1055 1.0723-0.32845 0.0801-0.66312 0.15953-0.81055 0.25781-0.8316 0.56432-1.7246 0.65264-2.6621 0.39649-0.25729-0.0912-0.3865-0.0745-0.73828-0.2461h0.0508l-1.4297-0.6582c-0.27406-0.12611-0.71543-0.36384-0.91992-0.44336-0.48-0.18667-1.2213-0.57867-2-1l-3-1.7988c-0.0173 9e-3 -0.0348 9e-3 -0.0508 0-0.0539-0.0347-0.14402-0.0381-0.21875-0.0547-0.31399-0.23707-0.62564-0.4856-0.88086-0.99609-0.3333-0.7-0.69961-1.1322-1.0996-1.2988l0.7988-0.3008c1.9667-0.46667 3.1663-1.7671 3.5996-3.9004 0.1333-0.63333 0.017-1.3988-0.34961-2.2988-0.4-0.86666-0.88252-1.4674-1.4492-1.8008 2-0.0333 3.7325-0.93255 5.1992-2.6992 0.6333-0.73333 0.65038-1.7682 0.0508-3.1016-0.1-0.26667-0.05-0.51667 0.15039-0.75 0.5-0.66667 0.88174-0.96511 1.1484-0.89844zm-4.9238 0.63674c0.7 0.075 1.325 0.27995 1.875 0.61328 0.5333 0.33333 0.91709 1.0659 1.1504 2.1992-0.3333 1-1.2675 1.8508-2.8008 2.5508-1.3333 0.66667-3.0175 0.73255-5.0508 0.19922-0.4-0.1-0.69844-0.49922-0.89844-1.1992-0.2-0.66666-0.2-1.25 0-1.75 0.4667-1.2333 1.5984-2.0512 3.3984-2.4512 0.85-0.18333 1.6262-0.23711 2.3262-0.16211zm-11.062 3.0742c0.875 0.0583 1.8367 0.30495 2.8867 0.73828 0.9333 0.4 1.4004 1.0667 1.4004 2-0.033 0.56667-0.25039 1.0008-0.65039 1.3008-0.2 0.2-0.6167 0.41511-1.25 0.64844-1.5 0.6-2.9322 0.73372-4.2988 0.40039-0.43716-0.0971-0.54601-0.14539-0.82617-0.21875-0.3351-0.1288-0.69306-0.2115-0.99414-0.4082-0.45061-0.30624-0.79273-0.70535-0.88086-1.3223-0.1-0.73333 0.10001-1.3341 0.59961-1.8008 0.3-0.26667 0.85039-0.58255 1.6504-0.94922 0.7-0.31667 1.4883-0.447 2.3633-0.38867zm6.3867 3.6875c1.1333 0 2.0675 0.33333 2.8008 1 0.7667 0.73333 1.1329 1.7333 1.0996 3-0.067 0.8-0.46592 1.5345-1.1992 2.2012-0.7333 0.7-1.5337 1.0333-2.4004 1-0.9333-0.0333-1.7841-0.38411-2.5508-1.0508-0.8-0.73333-1.1488-1.5996-1.0488-2.5996 0-0.86667 0.34883-1.6671 1.0488-2.4004 0.6667-0.73333 1.4167-1.1171 2.25-1.1504zm-4.1504 2.0508 0.20117 0.15039c-0.2333 0.56667-0.28369 1.2004-0.15039 1.9004 0.067 0.33333 0.25078 0.96511 0.55078 1.8984-0.37082-0.20601-0.70507-0.5944-1.0508-0.92774-0.23499-0.24639-0.42287-0.3622-0.69922-0.7207l-0.37695-0.46289c-0.13789-0.2015-0.26255-0.38228-0.37891-0.54687l-0.0957-0.19141c-9e-3 3.9e-4 -0.0245-0.0151-0.0488-0.0488-0.0134-0.0378-0.0536-0.0309-0.0684-0.0664-0.0638-0.088-0.17669-0.25969-0.23242-0.33399-0.2333-0.23333-0.20069-0.31667 0.0996-0.25 0.7667 0.0333 1.5167-0.10039 2.25-0.40039zm16.352 0.80077c0.1 0 0.13261 0.0484 0.0996 0.14844-0.1333 0.43333-0.2167 0.73372-0.25 0.90039-0.3 1.7667-1.1004 3.3345-2.4004 4.7012l-1.5996 1.5996c-0.1 0.0667-0.20078 0.0822-0.30078 0.0488-0.1-0.0667-0.16592-0.15-0.19922-0.25l-0.65038-1.8984c-0.1333-1.7 0.55078-3.1671 2.0508-4.4004 0.8667-0.66667 1.95-0.94961 3.25-0.84961zm1.5 0.24997c0.067 0.0333 0.36514 0.23294 0.89844 0.59961 1.3 0.9 1.9841 2.2837 2.0508 4.1504-0.1667 1.7667-0.96709 3.0651-2.4004 3.8984-0.1 0.1-0.19883 0.0516-0.29883-0.14844-0.9667-1.6667-1.4008-3.5833-1.3008-5.75 0-0.56666 0.083-1.1849 0.25-1.8516 0.1333-0.7 0.40078-0.99844 0.80078-0.89844zm-2.1016 4.4493c0.1333 0.56667 0.31748 1.3826 0.55078 2.4492 0.2667 0.86666 0.63291 1.5837 1.0996 2.1504-1.5333 0.53333-3.0837 0.21745-4.6504-0.94922-0.067-0.0667-0.016-0.21784 0.15039-0.45117 0.1333-0.23333 0.33291-0.44844 0.59961-0.64844 0.7-0.5 1.45-1.3508 2.25-2.5508zm-13.662 0.5c0.875 0.2 1.6633 0.68255 2.3633 1.4492 0.1667 0.16667 0.18223 0.30039 0.0488 0.40039-1.7666 1.5333-2.7996 3.0004-3.0996 4.4004-1.0333-2.0667-2.0992-3.5163-3.1992-4.3496-0.3333-0.26667-0.44961-0.45078-0.34961-0.55078 0.5667-0.63333 1.0163-0.99961 1.3496-1.0996 1.05-0.36667 2.0117-0.45 2.8867-0.25zm-4.5879 2.25c0.1 0.0667 0.20078 0.20039 0.30078 0.40039 1.4333 1.6333 2.4992 3.4492 3.1992 5.4492 0.1 0.26667 0.0674 0.41784-0.0996 0.45117h-0.5c-0.7333 0-1.4988-0.36823-2.2988-1.1016-0.8-0.76667-1.2341-1.5496-1.3008-2.3496l-0.0508-1.1992c0-0.46667 0.083-0.88333 0.25-1.25 0.1667-0.43333 0.3333-0.56706 0.5-0.40039zm7.6016 0.34961c0.2 0.56667 0.29883 0.8845 0.29883 0.95117v1.1211c-2.1e-4 0.0174-5e-3 0.0353-6e-3 0.0527-0.13238 0.81625-0.29686 1.4316-0.49414 1.8262-0.3667 0.66667-0.95 1.1492-1.75 1.4492-0.4333 0.16667-0.6833 0.26745-0.75 0.30078-0.067 0.0333-0.11709 0.0159-0.15039-0.0508-0.2-0.43333-0.29883-0.68333-0.29883-0.75-0.067-0.3-0.016-0.61589 0.15039-0.94922 0.9333-1.7667 1.6833-2.9178 2.25-3.4512zm-5.0625 14.037c0.6583 0.0917 1.3109 0.32956 1.9609 0.71289 0.4333 0.26667 0.5167 0.54961 0.25 0.84961-0.4 0.33333-0.65 0.58333-0.75 0.75l-0.89844 1.6504c-0.3667 0.66667-0.58369 1.3178-0.65039 1.9512-0.6333-1.5-1.3-2.7016-2-3.6016-0.067-0.2-0.15-0.31628-0.25-0.34961-0.6333-0.43333-0.90078-0.79961-0.80078-1.0996 0.1-0.23333 0.48369-0.46589 1.1504-0.69922 0.6667-0.2 1.33-0.25573 1.9883-0.16406zm-4.1387 1.6641c0.2-0.1 0.56631 0.24883 1.0996 1.0488 1.3333 1.8667 2.1183 3.3667 2.3516 4.5 0.067 0.33333 0.067 0.76745 0 1.3008-0.033 0.3-0.10117 0.74961-0.20117 1.3496l-0.44922 0.0996c-1-0.2-1.8663-0.61667-2.5996-1.25-0.8333-0.73344-1.3508-1.5996-1.5508-2.5996-0.1333-1-0.05-2 0.25-3 0.2333-0.8 0.59961-1.2826 1.0996-1.4492zm7.4004 0.14844c0.7333 0.86666 1.1675 1.7349 1.3008 2.6016 0.067 0.66667-0.1 1.4826-0.5 2.4492-0.4 1-0.88447 1.6996-1.4512 2.0996-0.1667 0.13333-0.80039 0.45117-1.9004 0.95117h-0.64844c0.1-0.23333 0.13261-0.3845 0.0996-0.45117-0.033-0.56667 0.05-1.2159 0.25-1.9492 0.2667-0.83333 0.44883-1.4671 0.54883-1.9004 0.1333-0.53333 0.3833-1.0837 0.75-1.6504l1.0508-1.5z"/>
  <path d="m35.15 40.699c-0.18489 0.01575-0.33411 0.09909-0.44922 0.25-0.0806 0.16654-0.11354 0.41654-0.0996 0.75 0.0124 0.57734 0.0453 1.1122 0.0996 1.6016 1e-3 1.0237 0.11761 1.9229 0.34961 2.6992 0.21198 0.85247 0.22943 1.4358 0.0508 1.75-0.0191 0.0237-0.054 0.04115-0.10156 0.05078-0.0831 0.03333-0.19935 0.06628-0.34961 0.09961-0.20677 0.0668-0.37344 0.13268-0.5 0.19922h-0.0488c-0.15925 0.0021-0.34336 0.03501-0.55078 0.09961-0.22201 0.06693-0.68906 0.13477-1.4004 0.20117-0.6188 0.10221-1.1014 0.21849-1.4493 0.34961l-0.45117 0.30078h0.0508c-0.0936 0.20703-0.12656 0.38919-0.0996 0.54883v0.05078c0.0607 0.61966 0.394 1.0363 1 1.25h0.0488c0.51094 0.22682 1.0943 0.27721 1.75 0.15039h0.0508c0.68073-0.06836 1.2311-0.20208 1.6504-0.40039 0.0465-0.03086 0.0969-0.04831 0.15039-0.05078h0.0488l1.1504-0.25c0.0263-6.51e-4 0.0437-6.51e-4 0.0508 0 0.0405 0.02761 0.056 0.04505 0.0488 0.05078 0.0258 0.04206 0.0258 0.075 0 0.09961 7e-3 0.02291-9e-3 0.04036-0.0488 0.05078-0.4819 0.22474-1.0323 0.6569-1.6504 1.2988-0.43724 0.53815-0.68724 0.87148-0.75 1-0.1668 0.29362-0.35091 0.72774-0.55078 1.3008-0.29531 0.99726-0.37865 1.8306-0.25 2.5l0.20118 0.59961c0.29492 0.79844 0.76003 1.498 1.3984 2.0996 0.52344 0.47643 1.0738 0.82721 1.6504 1.0508 0.0387 0.01042 0.0561 0.02591 0.0508 0.04883 0.0331 0.0237 0.0486 0.04115 0.0488 0.05078-1e-3 0.03737-0.0168 0.05482-0.0488 0.05078-0.38463 0.35195-0.76836 0.70078-1.1504 1.0488l-3.0996 4c-0.32813 0.89961-0.41146 1.6167-0.25 2.1504 0.16966 0.51002 0.56888 0.84336 1.1992 1 1.3625 0.39062 3.0466 0.0069 5.0508-1.1504 0.0237 1.3e-4 0.0392 1.3e-4 0.0488 0 0.0375 0.0012 0.0549 0.0012 0.0508 0 0.0328 0.03893 0.0503 0.07188 0.0508 0.09961-6.5e-4 0.02761-0.0181 0.04505-0.0508 0.05078l-0.75 0.90039c-0.16315 0.2168-0.32982 0.43385-0.5 0.65039h-0.0508c-1.3604 0.90352-1.7596 2.3861-1.1992 4.4492 0.19023 0.83958 0.50612 1.5566 0.94922 2.1504 0.44648 0.59088 1.0298 1.1413 1.75 1.6504 0.75325 0.50234 1.7048 0.75234 2.8516 0.75h0.0996c0.0242 0.03503 0.0397 0.06797 0.0488 0.09961 0.0101 0.02539 0.0101 0.04089 0 0.04883l-0.69918 1.5508v-0.05078c-0.0848 0.23737-0.40065 0.95443-0.94922 2.1504-0.12695 0.27005-0.27812 0.57044-0.45117 0.90039 4e-3 0.01172-0.0115 0.01172-0.0488 0v0.15039c-0.0427 0.10612-0.0931 0.20495-0.15039 0.29883l-2.25 4.4004c-0.0307 0.28529-0.0307 0.58568 0 0.90039 0.0362 0.2832 0.13503 0.56615 0.29883 0.84961 0.34089 0.71458 0.89128 0.94909 1.6504 0.70117h0.0508c0.10833-0.0018 0.20716 0.01369 0.29883 0.04883 0.0371 0.01133 0.0546 0.02877 0.0508 0.05078 0.0314 0.01471 0.0489 0.03021 0.0508 0.04883-2e-3 0.01862-0.0195 0.03607-0.0508 0.05078-0.51667 0.7332-1.0341 1.4658-1.5508 2.1992h0.0508c-0.0337 0.06601-0.0841 0.1164-0.15039 0.15039h-0.0488c-0.0537 0.04583-0.10406 0.07878-0.15039 0.09961-0.0365 0.17292-0.0539 0.33958-0.0508 0.5 0.0314 0.76888 0.44807 1.3193 1.25 1.6504 0.0225 0.01042 0.04 0.02787 0.0508 0.05078 0.0216 0.04492 0.0545 0.07786 0.0996 0.09961 0.0116 0.01289 0.0116 0.03034 0 0.05078 0.76146 1.1816 1.2285 2.515 1.4004 4 0.10235 0.75768 0.25157 1.4902 0.44922 2.1992 0.16758 0.67526 0.43503 1.3749 0.80078 2.0996h-0.0508c0.0833 0.1 0.15117 0.20078 0.20117 0.30078v-0.0508c0.18437 0.0966 0.38398 0.147 0.59961 0.15039 1.0556 0.35873 2.0227 0.20951 2.9004-0.44922 0.64649-0.50299 1.129-1.1697 1.4492-2 0.13333-0.325 0.26706-0.64284 0.40039-0.95117 0.26523-0.5263 0.4474-1.1251 0.54883-1.7988 0.0999-0.60833 0.1832-1.2266 0.25-1.8516 0.0934-1.0831-0.13919-2.0152-0.69922-2.7988-0.43646 1.1969-0.9694 2.4139-1.5996 3.6504-0.275 0.50013-0.54245 0.94974-0.80078 1.3496h0.0508c-0.16875 0.28984-0.35286 0.55534-0.55078 0.79883l-0.0488 0.15039c8e-3 0.0217-9e-3 0.0392-0.0508 0.0508l-0.15051 0.0996v0.0508l-0.40039 0.19922c-0.10873 0.0954-0.19206 0.11289-0.25 0.0508-0.0609-0.0296-0.14427-0.0974-0.25-0.20117l-0.19922-0.29883-0.15039-0.30078c-0.0853-0.09961-0.10078-0.20039-0.0488-0.30078v-0.19922c0.0141-0.04193-3e-3 -0.10781-0.0508-0.19922-0.0175-0.02109-0.0349-0.05599-0.0508-0.10156 3.9e-4 -0.62578-0.14883-1.2576-0.44922-1.8984-0.20013-0.46667-0.41719-0.91823-0.65039-1.3516-0.44843-0.94232-1.1655-1.5915-2.1504-1.9492v-0.05078c-0.0993-0.04089-0.18268-0.07383-0.25-0.09961-0.0116-0.01315-0.0271-0.02865-0.0488-0.04883 4e-3 -0.01523 4e-3 -0.03268 0-0.05078v-0.05078c0.50612-0.94258 1.2057-1.8244 2.0996-2.6484h0.0508c0.56653-0.38333 1.1324-0.76706 1.6992-1.1504 1.0719-0.60755 1.7056-1.5242 1.9004-2.75v-0.09961c-0.0431-0.0431-0.0761-0.078-0.0996-0.10156-1.0988-0.19088-2.1163-0.0901-3.0508 0.30078h-0.0508c-0.0854 0.0306-0.18425 0.06354-0.29883 0.09961h-0.0508c-0.1819-0.0038-0.34857 0.02914-0.5 0.09961l-0.0488 0.05078-0.85156 0.30078-0.39844 0.09961c-9e-3 0.0079-0.0266 0.0079-0.0508 0-0.0224-0.01107-0.0399-0.02851-0.0508-0.05078l-0.34961-0.75c-0.0203-0.03541-0.0358-0.0858-0.0488-0.15039 0.0208-0.0012 0.0363-0.01669 0.0488-0.04883l1.8496-2.9004v-0.05078c0.0183-0.0022 0.0358-0.0177 0.0508-0.04883 0.0224-0.02813 0.0399-0.06107 0.0508-0.09961v-0.05078l0.14844-0.15039v-0.04883c0.0349-0.02617 0.0698-0.06107 0.10156-0.10156l0.14844-0.25 0.20117-0.29883v-0.05078l1.0996-1.0488v0.04883l0.25-0.44922c0.0491-0.1168 0.0995-0.23307 0.15039-0.34961 0.0279-0.0074 0.0434-0.02487 0.0488-0.05078 0.0426 0.0074 0.0775 0.0074 0.10156 0l0.0488 0.05078c0.38333 0.35755 0.74961 0.77422 1.0996 1.25 0.0336 0.01406 0.0511 0.02956 0.0508 0.04883-1.3e-4 0.02851-0.0176 0.04596-0.0508 0.05078l0.0508 0.09961h0.0508c0.12943 0.38333 0.2612 0.74961 0.39844 1.0996l2.4512 6.3496c8e-3 0.0332 8e-3 0.05065 0 0.05078-0.0111 0.0513-0.0285 0.08424-0.0508 0.09961l-0.0488 0.05078c-3e-3 0.03255-0.0201 0.04805-0.0508 0.04883l-0.34961 0.40039v0.05078l-0.0508 0.34961v0.30078c0.0221 0.02943 0.0396 0.04492 0.0508 0.04883 0.0251 0.10807 0.0581 0.17591 0.0996 0.20117h0.0508c0.12487 0.10169 0.32448 0.15013 0.59961 0.14844l0.15039 0.05078c0.035 0.0052 0.0505 0.0052 0.0488 0 0.028 0.03151 0.0454 0.04896 0.0508 0.05078 0.16289 0.50521 0.32956 1.0052 0.5 1.5 0.26667 0.70833 0.54961 1.4079 0.84961 2.0996 0.10273 0.32252 0.13568 0.70625 0.0996 1.1504-0.0664 0.51732-0.14973 0.94948-0.25 1.2988v0.05078c-0.33099 0.65-0.5306 1.2992-0.59961 1.9492-0.1 0.74987-0.21628 1.4999-0.34961 2.25-0.16406 0.99974-0.13112 1.9668 0.0996 2.9004h-0.0508l1.1016 1.8496 1.3984 0.80078 2.9512 0.0488c0.21094 0.11276 0.37761 0.27943 0.5 0.5v-0.0488c0.19375 0.19713 0.34297 0.42969 0.44922 0.69922 0.14896 0.4832 0.41641 1.301 0.80078 2.4512 0.41003 1.1572 0.96042 2.0893 1.6504 2.7988 0.73333 0.72813 1.4659 1.546 2.1992 2.4512 0.76953 0.90117 1.787 1.9341 3.0508 3.0996 0.15247 0.14271 0.28425 0.27643 0.39844 0.40039 0.23177 0.26485 0.48177 0.53034 0.75 0.79883l0.45117 0.45117c0.068 0.18568 0.1668 0.3349 0.29883 0.44922 0.36771 0.33529 0.98594 0.5349 1.8516 0.59961l0.84961 0.0996c0.23177 0.0601 0.43138 0.0601 0.59961 0 0.21133-0.0529 0.34505-0.16914 0.40039-0.34961 0.0509-0.22083-0.0169-0.37005-0.20117-0.44922l-0.0488-0.0508c2e-3 -5e-3 -0.0154-0.0202-0.0508-0.0488l-0.0488-0.0508c5e-3 1e-3 5e-3 -0.0161 0-0.0508-9e-3 -0.14675-0.0926-0.29597-0.25-0.44922-0.17682-0.20742-0.67682-0.45742-1.5-0.75-0.25403-0.11042-0.48854-0.2112-0.70117-0.30078l-0.0488-0.0488c-1.1936-1.2534-2.3603-2.5538-3.5-3.9004-0.38347-0.525-0.80013-1.0579-1.25-1.5996-1.0835-1.4001-2.1009-2.8013-3.0508-4.2012-0.17357-0.3-0.35768-0.59844-0.55078-0.89844-0.4638-0.71471-0.69635-1.5151-0.69922-2.4004 4e-3 -0.0179 4e-3 -0.0353 0-0.0508l0.0508-0.0488c0.66667-0.39167 1.3333-0.77539 2-1.1504 0.60221-0.3987 1.0518-1.015 1.3496-1.8496-0.099-0.23229-0.23268-0.44935-0.40039-0.65039-0.69687-0.76471-1.5961-1.1484-2.6992-1.1504-0.7 1.3e-4 -1.4016 0.0331-2.1016 0.0996-0.0182-1e-3 -0.0337-0.0168-0.0488-0.0488-0.0221 5e-3 -0.0396-0.0128-0.0508-0.0508-0.46667-1.175-0.98216-2.3746-1.5488-3.5996-0.55312-1.14-0.90391-2.2911-1.0508-3.4512v-0.04883l0.0508-0.20117 0.14844-0.34961 1.9004-3.2988c0.0285-0.02239 0.046-0.03984 0.0508-0.05078l0.19922-0.09961c0.0708-0.10833 0.13867-0.22461 0.20117-0.34961 0.0694-0.08607 0.10234-0.18685 0.0996-0.30078v-0.05078c0.0297-0.1276 0.0452-0.27682 0.0488-0.44922-0.21706-0.18776-0.43217-0.35443-0.64844-0.5-0.77617-0.42982-1.594-0.51315-2.4512-0.25h-0.0997l-0.94922 0.30078c1.3e-4 0.0053-0.0173 0.0053-0.0508 0-3e-3 -0.0038-0.0201-0.02125-0.0508-0.05078 3e-3 0.0023 3e-3 -0.01511 0-0.05078l-1.1484-5.5488c-0.12565-0.89922-0.32721-1.6996-0.60156-2.4004-0.0366 6e-3 -0.0695-0.01145-0.0996-0.05078v0.05078c-0.0375-0.01966-0.0704-0.0526-0.0996-0.09961-3.9e-4 -0.01159-3.9e-4 -0.04453 0-0.09961-0.23503-0.39961-0.58581-0.71745-1.0508-0.95117-0.21328-0.15885-0.42839-0.27513-0.64844-0.34961l-0.65039-0.19922-0.34961-0.15039-0.5-0.09961-0.40039-0.20117c-0.012 0.0043-0.0294-0.01123-0.0508-0.04883 3e-3 0.0015 3e-3 -0.01591 0-0.05078v-0.09961c3e-3 -0.01823 3e-3 -0.03567 0-0.05078 0.062-0.08216 0.11239-0.16549 0.15039-0.25 0.57175-0.78789 0.92253-1.5883 1.0508-2.4004 0.13203-0.79622 0.28125-1.8447 0.44922-3.1484 0.18373-1.2314-0.54883-2.5163-2.1992-3.8516h0.0488c-0.29948-0.20664-0.91576-0.40625-1.8496-0.59961-2e-3 -0.0041-0.0195-0.01963-0.0508-0.04883l-0.59952-0.55078c3e-3 0.0029 3e-3 -0.01458 0-0.05078-5e-3 -1.3e-4 -5e-3 -0.01563 0-0.04883 4e-3 -0.0031 4e-3 -0.02058 0-0.05078l1.3008-1.0488c0.0833-0.05 0.13372-0.10039 0.15039-0.15039h0.0488c1.0777-0.77591 2.2618-1.5104 3.5508-2.2012 0.0116-0.06055 0.0271-0.10898 0.0488-0.14844-0.13737-0.76484-0.40286-1.2997-0.79883-1.6016h-0.0508c-9e-3 -0.01042-0.0249-0.01042-0.0488 0-0.0241 0.0085-0.059 0.0085-0.10156 0-0.10377-0.03125-0.16966-0.04674-0.19922-0.04883h-0.0508c-0.73294-0.25964-1.6496-0.34297-2.75-0.25-7e-3 0.01849-0.0224 0.03398-0.0488 0.04883 0.013 0.02227 0.013 0.03971 0 0.05078-0.61185 0.24349-1.2281 0.47604-1.8496 0.69922h0.0488c-1.6569 0.74401-3.3236 1.4456-5 2.1016-8e-3 0.01029-0.024 0.01029-0.0488 0-0.0238-0.0095-0.0412-0.02695-0.0508-0.05078-0.0103-0.025-0.0103-0.05794 0-0.09961 0.24206-0.59505 0.42617-0.99622 0.55078-1.2012l0.34961-0.54883c0.1112-0.1263 0.26042-0.32591 0.44922-0.59961v-0.05078c0.0456-0.0181 0.096-0.05104 0.15039-0.09961h-0.0508l0.30078-0.25c0.034 0.0012 0.0515-0.01625 0.0508-0.05078 0.27213-0.20729 0.55508-0.52318 0.84961-0.94922v-0.05078l0.15039-0.15039h0.0488l0.0996-0.04883v-0.05078l0.35156-0.15039h0.0488c0.11653-0.03333 0.21731-0.06628 0.30078-0.09961 2.6397-0.55924 4.1727-2.1581 4.5996-4.7988 0.0161-0.26289-1e-3 -0.58073-0.0508-0.95117-0.10794-0.59792-0.25716-1.0979-0.44922-1.5v-0.04883c-0.0161-0.03698-0.0336-0.08737-0.0508-0.15039l-0.0994-0.40039c-0.32695-0.85924-0.69323-1.46-1.0996-1.8008-0.42891-0.36927-0.9793-0.58438-1.6504-0.64844-0.50377-0.06159-1.12-0.02864-1.8496 0.09961h-0.0508c-0.33581-0.05247-0.65169-0.06992-0.94922-0.05078-0.0279 8e-4 -0.0608-0.01469-0.0996-0.04883v-0.05078c-6.7e-4 -0.01042-6.7e-4 -0.02787 0-0.05078 0.028-0.02461 0.0435-0.0401 0.0488-0.04883l1.1016-0.25 0.79883-0.34961c0.0246 0.01133 0.0421 0.01133 0.0508 0 0.0637 0.02513 0.11406 0.04062 0.15039 0.04883l1.25-0.15039 0.89844-0.29883h0.0508c0.40638-0.03294 0.77266-0.21706 1.0996-0.55078l0.34961-0.29883v0.04883l0.15039-0.19922 0.0508-0.05078 0.75-0.44922h-0.0508c0.35599-0.38151 0.5401-0.58112 0.55078-0.59961v-0.05079c0.12292-0.2974 0.13842-0.58034 0.0488-0.84961v0.04883l-0.34958-0.69922-0.19922-0.05078c-0.4013-0.12904-0.85091-0.14453-1.3496-0.04883l-0.40039 0.15039 0.0488-0.05078-0.64844 0.44922v0.05078l-0.20117 0.09961c-0.0242 0.0078-0.0571 0.0078-0.0996 0-0.90156 0.2513-1.7678 0.51875-2.5996 0.80078 0 0.0068-0.0175 0.0068-0.0508 0-4e-3 -0.01107-0.0195-0.02851-0.0488-0.05078 2e-3 -0.01471 2e-3 -0.03021 0-0.04883v-0.30078c0.19649-1.3307 0.16159-2.4645-0.10156-3.4004-0.28776-0.37331-0.52031-0.68919-0.69922-0.94922-0.0856-0.13724-0.20182-0.27096-0.34961-0.40039h0.0488c-0.93216-0.68138-1.6318-1.0322-2.0996-1.0508zm3.5566 12.525c0.61655-0.0125 1.1148 0.31211 1.4941 0.97461 0.0711 0.06563 0.12148 0.13346 0.15039 0.20117v0.04883c0.0243 0.05417 0.0398 0.10456 0.0488 0.15039l0.0996 0.34961v0.05078l0.0508 0.44922c2.6e-4 0.14648-0.0172 0.28021-0.0508 0.40039v0.05078c-0.14141 0.33359-0.32357 0.64948-0.54883 0.94922-0.11302 0.23073-0.24674 0.43034-0.40039 0.59961l-0.80078 0.45117c-0.11211 0.05469-0.31172 0.10508-0.59961 0.15039-0.0167 0.0018-0.0322 0.0018-0.0488 0-0.38385-0.06641-0.80052-0.30091-1.25-0.70117h0.0488c-0.13932-0.08047-0.27304-0.1793-0.40039-0.29883 4e-3 0.0023 4e-3 -0.01511 0-0.05078-0.0273-0.08932-0.0603-0.15521-0.0996-0.19922-0.23737-0.41745-0.25286-1.0182-0.0488-1.8008 0.27813-0.92565 0.84401-1.476 1.6992-1.6504 0.23187-0.07917 0.45073-0.12083 0.65625-0.125zm1.416 16.75c0.80678 0.02944 1.5659 0.22256 2.2773 0.57617h-0.0488c0.0719 0.01523 0.12031 0.03073 0.14844 0.04883 0.05 0.01719 0.0849 0.03463 0.10156 0.05078h0.0488c0.0767 0.07305 0.12708 0.13893 0.15039 0.19922h0.0508l0.25 0.84961v0.05078l0.0996 0.94922c-0.0374 0.31667-0.17112 0.6345-0.40039 0.95117l0.0508-0.05078c-0.11627 0.29805-0.2345 0.5151-0.35156 0.65039l-0.0488 0.05078c-0.18451 0.15104-0.38412 0.28281-0.59961 0.39844h-0.0508c-0.20391 0.08828-0.42096 0.15612-0.65039 0.20117-0.70299-0.0067-1.2863-0.03961-1.75-0.09961-0.18985-0.04596-0.37201-0.09635-0.54883-0.15039-2e-3 0.01185-0.0195 0.01185-0.0508 0l-0.59961-0.55078c-0.6569-0.94948-0.75768-2.0328-0.30078-3.25 5e-3 -0.0025 5e-3 -0.01796 0-0.04883l0.84961-0.70117c0.0314-0.01276 0.0489-0.02825 0.0508-0.04883l0.44922-0.05078h0.0508c0.27952-0.0262 0.55334-0.03521 0.82227-0.02539zm9.627 27.826c0.0387-0.0011 0.0736-0.0011 0.10156 0 0.0293-3.9e-4 0.0448-3.9e-4 0.0488 0 0.99779 1.1047 1.5811 2.4535 1.75 4.0488 0.0589 0.39193 0.1267 0.77565 0.20117 1.1504 6e-3 0.0172 6e-3 0.0346 0 0.0508l-0.0507 0.0996c-0.0706 0.49466-0.23724 0.79505-0.5 0.90039v-0.0508c-0.10885 0.0973-0.29297 0.14766-0.55078 0.15039-0.58477 1e-3 -1.0344-0.0491-1.3496-0.15039-3e-3 0.0131-0.0182 0.0131-0.0488 0 3e-3 -0.0143 3e-3 -0.0318 0-0.0508-0.20963-1.4688-0.1108-3.2517 0.29883-5.3496l0.0996-0.75c-1.3e-4 -0.0047-1.3e-4 -0.02016 0-0.04883z"/>
 </g>
 <g transform="translate(-664.95)">
  <path transform="translate(160.15,84.1)" d="m509.8-84.1c-3.3333 0-5 1.6667-5 5v158.2c0 3.3333 1.6667 5 5 5h93.201c3.3333 0 5-1.6667 5-5v-158.2c0-3.3333-1.6667-5-5-5zm8.3008 7.1992h76.6c4.6667 0 7 2.3333 7 7v139.8c0 4.6667-2.3333 7-7 7h-76.6c-4.6667 0-7-2.3333-7-7v-139.8c0-4.6667 2.3333-7 7-7z" fill="#ef1d1e"/>
  <path transform="translate(160.15,84.1)" d="m518.1-76.901c-4.6667 0-7 2.3333-7 7v139.8c0 4.6667 2.3333 7 7 7h76.6c4.6667 0 7-2.3333 7-7v-139.8c0-4.6667-2.3333-7-7-7z" fill="none" stroke="#000" stroke-width="1.2"/>
 </g>
</svg>
