<svg width="103.2" height="168.2" preserveAspectRatio="none" version="1.1" viewBox="0 0 103.2 168.2" xmlns="http://www.w3.org/2000/svg">
 <path d="m13.301 7.1992c-4.6667 0-7 2.3333-7 7v139.8c0 4.6667 2.3333 7 7 7h76.6c4.6667 0 7-2.3333 7-7v-139.8c0-4.6667-2.3333-7-7-7z" fill="#fff"/>
 <path d="m26.852 47.35c-0.33333 0.4-0.66667 0.70039-1 0.90039-0.36667 0.23333-0.91706 0.48333-1.6504 0.75l-2.2012 0.69922c-2.185 0.45606-3.887 1.6823-4.9805 3.582 0.15908 1.1925 8.836 1.5675 9.2552 2.8253 1.3612 2.8833 2.7791 6.1579 3.5768 9.2431l1.4492 6.75c0.16667 0.66667 0.41667 1.6841 0.75 3.0508 0.8 2.9667 1.6992 5.3833 2.6992 7.25 1.3667 2.5333 3.2174 4.9171 5.5508 7.1504 0.53333 0.53333 2.2504 2.0663 5.1504 4.5996 1.2 0.33333 2.5159 0.58333 3.9492 0.75 1.4 0.13333 3.4 0.21667 6 0.25 1.8 0.0667 3.2341-0.0167 4.3008-0.25 0.2-0.0333 0.4655-0.10117 0.79883-0.20117 1.1165-1.7125 3.3982-2.3847 4.345-3.0994 0 0-19.037-58.102-37.993-44.25zm50.357 5.5957 1.2363 7.4238 12 2.4297 4.8828-6.7598zm-4.2422 61.605 1.0605 7.3359 13.574 0.60547 2.8652-6.6152zm-36.416 33.014-5.834 9.457 8.4414 2.166 8.6172-4.5957z" fill="#faea01"/>
 <path d="m43.301 46c-9.1174-8.7592-16.503-1.6031-17.25 2.9 0.26667 0.33333 0.55 0.41667 0.85 0.25 0.1-0.03333 0.21667-0.11667 0.35-0.25s0.36667-0.3 0.7-0.5l3.4-0.95c2.0835-0.04518 4.1001 0.28815 6.05 1h0.05c1.6 0.76667 2.95 1.9667 4.05 3.6 0.0667 0.23333 0.13333 0.48333 0.2 0.75 2.7955 3.1232 3.35 8.85 3.35 8.85-1.3333 0.6-2.4167 1.2333-3.25 1.9-2.5614 1.7212-2.8427 7.2569-2.25 9.45 0 0.6 0.0167 1.2167 0.05 1.85 0.0333 0.06667 0.0667 0.15 0.1 0.25 0.7 1.8 1.6 3.4333 2.7 4.9 1.4667 1.9333 3.0667 3.5 4.8 4.7 2.4667 1.7667 4.8333 2.9167 7.1 3.45h0.05l0.7 0.1 0.65-0.1 0.4 0.35c2.0667 1.7333 4.0667 2.8167 6 3.25l1.15 0.25s2.1828 2.3749 3.1 4.2l1.65-0.3 0.45-0.2 0.2 0.05 0.35-0.05 1.45-0.4c0.23333-0.06667 0.4-0.15 0.5-0.25l0.15 0.05 0.4-0.1 1.9-0.65 0.05-0.05 0.15 0.15c0.16667 0.03333 0.33333 0.11667 0.5 0.25l3.35 2.65c6.5612 4.9817 13.57 6.1357 24.6 6.1745l-0.1-13.975s-16.204 3.4871-23.15-1.05c-0.93333-0.5-1.75-1.2833-2.45-2.35-4.9973-9.1592-13.693-17.821-23.25-24.35" fill="#289654"/>
 <path d="m3.9512 1.75c-0.4 0-0.73333 0.13373-1 0.40039-0.26667 0.26666-0.40039 0.6-0.40039 1v19.4c5.7748-0.73218 26.742 2.4209 27.699-5.75 0.3787-5.3451 6.3407-2.2185 9.75-2.9004 3.0667-0.86667 5.0337-4.9171 5.9004-12.15zm44.049 0c1.8536 10.604 3.113 11.976 12.102 11.9 1.1964 3.9311 2.2624 5.4264 19.199 4.4492 9.4463 1.0508-4.8149 5.6166 22.25 4.5v-20.85zm10.25 35.5c-2.9938 2.0529-0.09584 6.5122 2.8516 3.5996 0.26667-0.76666 0.58255-1.3829 0.94922-1.8496 0.0667-0.06667 0.15-0.11706 0.25-0.15039 5.5248 1.8311 5.0212-5.2393 0.19925-4-1.9231-4.9865-7.283-0.99015-4.25 2.4004zm13.15 0.55078c-2.2266 0-3.9492 1.7387-3.9492 3.9492 0 2.2104 1.7226 3.9492 3.9492 3.9492 2.2275 0 3.9512-1.7374 3.9512-3.9492 0-2.2119-1.7238-3.9492-3.9512-3.9492zm7.2402 11.877c-10.955-0.63236-9.1665 9.9143-1.6172 11.064-1.3952 5.4605 5.243 6.6086 7.9766 3.3086 3.124 1.8745 5.8507 2.4229 7.3515-1.3008 11.169 0.08679 9.7877-12.887 1.0859-13.367-1.3577-7.1318-12.504-8.0694-14.797 0.29492zm-12.34-3.127c-1.7745 0-3.3008 1.5244-3.3008 3.2988 0 1.7263 1.3972 3.3008 3.3008 3.3008 1.8564 0 3.3008-1.4444 3.3008-3.3008 0-1.9023-1.5755-3.2988-3.3008-3.2988zm-8.6992 2.0996c-1.1676 0-2.1504 0.98276-2.1504 2.1504 0 1.0978 0.83386 2.1484 2.1504 2.1484 1.2511 0 2.1484-0.8974 2.1484-2.1484 0-1.3165-1.0506-2.1504-2.1484-2.1504zm-22.701 0.80859c-0.475-0.0063-0.87422 0.09102-1.1992 0.29102-0.46667 0.23333-0.71667 0.63255-0.75 1.1992-0.0333 0.56666 0.18373 1.0182 0.65039 1.3516 0.4 0.26667 0.83216 0.44883 1.2988 0.54883h0.45117c0.73333 0 1.4155-0.21706 2.0488-0.65039l0.15039-0.25c0.16667-0.2 0.25-0.33177 0.25-0.39844 0.0333-0.23333 0.0508-0.4 0.0508-0.5 0.0333-0.33333-0.18372-0.65117-0.65039-0.95117-0.5-0.33333-1.1008-0.53294-1.8008-0.59961-0.175-0.025-0.34167-0.03893-0.5-0.04102zm49.801 5.791 0.84961 0.05078c0.0333 0 0.16706 0.04844 0.40039 0.14844l0.54883-0.04883 1.6016 0.40039 0.44922 0.29883 0.5 0.15039 0.0996 0.09961c0.53333 0.26667 0.96745 0.58451 1.3008 0.95117l0.40041 0.59961c0.2 0.2 0.31631 0.33372 0.34961 0.40039 0.3 0.56667 0.49961 1.1151 0.59961 1.6484 0.05366 0.457-0.1421 1.25-1.1504 1.25 0 0-2.0273-1.6748-6.0996 0.20117-1.9915-2.425-5.2891-2.0703-5.2891-2.0703-0.28558-0.40686-0.4499-1.0615-0.31053-1.5801 0.33333-0.46667 0.80039-0.88333 1.4004-1.25v-0.05078c0.1-0.06667 0.24922-0.11511 0.44922-0.14844l0.65039-0.40039c0.66667-0.26667 1.2171-0.43333 1.6504-0.5h0.5zm-10.65 10.25c-1.2755 0-2.25 0.97457-2.25 2.25 0 1.2754 0.97448 2.25 2.25 2.25 1.2755 0 2.25-0.97457 2.25-2.25 0-1.2754-0.97448-2.25-2.25-2.25zm19.75 14.1c-2.0065 0-3.5508 1.6276-3.5508 3.5 0 1.8008 1.3903 3.5 3.5508 3.5 2.1 0 3.5508-1.5499 3.5508-3.5 0-2.0195-1.6079-3.5-3.5508-3.5zm-21.301 31.4c-0.0667 0.23333-0.19844 0.45039-0.39844 0.65039-0.0667 0.0667-0.1345 0.11706-0.20117 0.15039-1.7701-0.70706-6.6954-2.3081-8.9492 2.5-2.4854 6.0113 3.6282 10.671 9.9427 9.7808 1.9712 3.0434 5.807 2.5144 8.7636 0.73467 6.3987 3.9277 8.801 0.19046 9.3933-1.0663 9.515-1.3811 7.43-11.395-1.7511-11.152-1.7132-9.7848-14.721-9.1204-16.8-1.5983zm-16.6 3.3496c-2.1137 0.13993-4.0164 1.6385-4.3242 4.1152l7.3379 2.7793c2.798-2.876 0.19205-7.1067-3.0136-6.8945zm25.051 1.4512 0.44922 0.0488h0.0996l0.40039-0.0488c0.4 0 0.95039 0.0659 1.6504 0.19922 0.1 0.0333 0.1833 0.0663 0.25 0.0996l0.50001 0.15039 0.30078 0.0508c0.5 0.2 0.91667 0.43255 1.25 0.69922l0.54882 0.50002c0.16667 0.1 0.28291 0.1833 0.34961 0.25l0.0508 0.0508c0.33119 0.36432 0.64508 0.86267 0.94336 1.4902l-0.14258 0.908c-4.8026 0.88544-5.8008 1.9005-5.8008 1.9005s-2.0226-2.8086-6.5508-1.4999c-0.71918-0.15311-1.0635-1.1442-0.69922-1.5996 0.3-0.36667 0.71667-0.80078 1.25-1.3008l0.40037-0.19933 0.5-0.44921c0.46667-0.26667 0.91628-0.48372 1.3496-0.65039l0.5-0.0996 0.55078-0.20117c0.56667-0.13333 1.1829-0.23213 1.8496-0.29883zm10.75 13.1c-1.431 1.0423-1.8211 3.5669-0.74999 5 1.2729 1.703 6.2651 2.716 6.6973-2.0137 0.29715-3.2518-3.7205-4.6082-5.9473-2.9863zm-69.15 5.5488c-1.6052 0-2.9004 1.2801-2.9004 2.9004 0 1.6151 1.2852 2.9004 2.9004 2.9004 1.6151 0 2.9004-1.2852 2.9004-2.9004 0-1.6202-1.2952-2.9004-2.9004-2.9004zm5.0898 14.197c-9.6314 0.25987-8.9771 13.481 2.7109 12.504 2.3607 2.0345 5.6865 2.8084 9.1993-1.3496 6.058 1.8623 8.0988 0.45692 8.5996-2.2012 0 0 9.2456-2.8576 9.4974-6.4887 0.39521-5.6994-5.8929-9.3669-14.031-6.4311-4.059-10.156-15.853-7.8276-15.977 3.9668zm34.311-7.7969c-4.1849 2.9591 2.4617 8.2334 4.75 3.7012 0.24376-0.4828-1.0039-0.81042-1.75-0.90036-0.77081-1.3593-1.2224-2.8365-3-2.8008zm-47.951 4.8496c-3.0052 0.42748-3.2152 1.8213-3.8613 3.7812-0.40155 1.218 0.79099 4.1237 4.0117 4.5195 3.0753 0.37799 5.2951-2.5993 4.1504-5.8496-0.58938-1.6735-2.4763-3.0592-4.3008-2.4512-6e-6 0 0 2e-5 0 2e-5zm50.551 2.8008c-2.0856 0-3.75 1.6646-3.75 3.75 0 2.0856 1.6646 3.75 3.75 3.75 2.0856 0 3.75-1.6646 3.75-3.75 0-2.0856-1.6646-3.75-3.75-3.75zm-25.75 2.1992 0.65039 0.0508 0.69916 0.0996 0.25 0.0508c0.65078 0.12617 1.3174 0.37617 2 0.75 0.12553 0.0503 0.2089 0.11612 0.25 0.19922 0.0853 0.11677 0.18607 0.18467 0.30078 0.20117 0.1686 0.0562 0.28491 0.10474 0.34961 0.14844 0.0232 0.0274 0.0407 0.0448 0.0508 0.0508 0.39206 0.26497 0.89206 0.69909 1.5 1.3008l0.0488 0.0488c0.29479 0.3694 0.29479 0.72018 0 1.0508-2e-4 0.033-0.0157 0.0486-0.0488 0.0488-0.21992 0.37527-0.5707 0.55978-1.0508 0.55078l-1.1992 0.0508c-0.0957 8e-3 -0.19648 0.041-0.30078 0.0996-0.14349 0.13802-0.42643 0.27174-0.84961 0.40039-0.0792-1e-3 -0.1625 0.0145-0.25 0.0488l-0.40035 0.2012c-0.0642 0.0421-0.13012 0.0905-0.19922 0.14844-0.0287 0.0841-0.0458 0.1675-0.0508 0.25-0.0301 0.29115-0.14636 0.57604-0.34961 0.85156 8e-3 0.0329 8e-3 0.0484 0 0.0488l-0.15039 0.30078-0.19922 0.25c-0.0509 0.0377-0.10129 0.0881-0.15039 0.15039-0.14323 0.1788-0.32734 0.27763-0.55078 0.29883l-1.0996 0.0508c-0.29669 0.0137-0.52956-0.11628-0.69922-0.34961-0.0346-0.0487-0.085-0.0991-0.15039-0.15039l-0.15039-0.0996c-0.016-3e-3 -0.0489-0.0207-0.0996-0.0508-0.25807-0.0894-0.49258-0.22318-0.70117-0.40039-0.0351-0.0294-0.0835-0.0623-0.14844-0.0996-0.0655-6e-3 -0.13337-6e-3 -0.20117 0l-0.34961 0.0508-0.30078-0.0508c-8e-3 -2e-3 -0.0239-2e-3 -0.0488 0h-0.15043l-0.5 0.0508h-0.0508c-0.48932-0.01-0.88854-0.22682-1.1992-0.65039l-0.5-0.80078c-0.0732-0.13242-0.0907-0.28164-0.0508-0.44922v-0.0508c0.0858-1.1423 0.46953-2.0745 1.1504-2.7988 0.028-0.0313 0.0458-0.0662 0.0508-0.10156 0.078-0.0671 0.19427-0.13292 0.34961-0.19922 0.11773-0.0247 0.2011-0.0906 0.25-0.19922 0.0871-0.10911 0.18789-0.22734 0.30078-0.35156 0.51836-0.31185 1.1017-0.56185 1.75-0.75h0.54883l0.5508-0.1484z" fill="#ef1d1e"/>
 <path d="m45.404 1.6914c-0.4293 3.5832-1.1333 6.357-2.0781 8.3027-0.9439 1.9438-2.0947 3.0353-3.457 3.4219-0.622 0.15467-1.241 0.23161-1.8594 0.23242-1.9957-0.3888-3.5697-0.59766-4.709-0.59766-3e-3 -3.2e-5 -7e-3 -3.2e-5 -0.01 0-1.1194 0.01805-2.0477 0.33108-2.6699 0.99414-0.6208 0.66143-0.88954 1.6123-0.87304 2.7559 0 1.0949-0.6377 2.0356-2.1504 2.918-5e-3 0.0025-9e-3 0.0051-0.0137 0.0078-1.0111 0.63193-2.2246 1.1124-3.6465 1.4355-6e-3 0.0012-0.0117 0.0025-0.0176 0.0039-2.2417 0.5848-5.0513 0.88476-8.4219 0.88476h-7.1426c-1.8065-0.03346-3.7447-0.03341-5.8164 0l0.0156 1c2.0617-0.03325 3.9898-0.03321 5.7832 0 3e-3 3.2e-5 7e-3 3.2e-5 0.01 0h7.1504c3.4227 0 6.3065-0.30133 8.6621-0.91406 1.5092-0.34299 2.8261-0.8607 3.9473-1.5605 1.6823-0.98364 2.6406-2.2727 2.6406-3.7754v-8e-3c-0.015-0.98593 0.20911-1.6423 0.60351-2.0625 0.3941-0.41988 1.0072-0.66401 1.9531-0.67969 1.0393 4.85e-4 2.5836 0.19364 4.5976 0.58984 0.0315 0.0063 0.0636 0.0096 0.0957 0.0098 0.70829 0 1.4164-0.08945 2.1211-0.26562 5e-3 -0.0012 0.0104-0.0025 0.0156-0.0039 1.7026-0.48114 3.0661-1.845 4.0879-3.9492 1.0218-2.1042 1.7346-4.973 2.1719-8.623zm2.1152 0.19531c0.1876 0.65665 0.43958 1.8872 0.73828 3.6465v0.00195c0.3766 2.1565 1.1161 4.1663 2.2129 6.0176 0.5963 1.0136 1.7508 1.6839 3.3555 2.0938 1.508 0.3852 3.5274 0.51011 5.9082 0.47266 0.1723 0.54585 0.33218 1.0465 0.45508 1.3242v2e-3c0.4397 1.0493 1.3247 1.8559 2.5566 2.4004 1.2327 0.54496 2.8218 0.8511 4.7774 0.95312 2.6596 0.16801 6.5771 0.09744 11.746-0.19922 2.1097 0.12696 3.3157 0.89565 3.9121 2.3867-1e-5 0.0013-1e-5 0.0026 0 0.0039 0.4819 1.1647 1.6698 1.8701 3.3281 2.1523 0.0277 5e-3 0.0558 0.0076 0.084 0.0078l14.951-0.05078-4e-3 -1-14.881 0.05078c-1.4605-0.25261-2.2383-0.77638-2.5547-1.541-0.7377-1.8375-2.4317-2.8674-4.7832-3.0078-0.0195-0.0011-0.0391-0.0011-0.0586 0-5.1897 0.29941-9.0958 0.36338-11.689 0.19922-3e-3 -3.2e-5 -7e-3 -3.2e-5 -0.01 0-1.8778-0.09797-3.3567-0.3994-4.4238-0.87109-1.0672-0.47171-1.7136-1.0902-2.041-1.873v-4e-3c1e-5 -2e-3 1e-5 -0.0039 0-0.0059-0.1131-0.25447-0.29645-0.78432-0.52735-1.543-0.0658-0.21515-0.26727-0.35982-0.49218-0.35352-2.5387 0.06594-4.5517-0.09923-6.0137-0.47266-1.4619-0.37341-2.3385-0.94447-2.7422-1.6309v-0.0019c-1.0354-1.7472-1.729-3.6363-2.0859-5.6778v-0.00391c-0.3009-1.7711-0.54952-3.0074-0.76172-3.75zm6.582 26.963c-0.6 0.16667-0.90039 0.58335-0.90039 1.25-0.033 0.66667 0.10039 1.3837 0.40039 2.1504 0.1 0.23333 0.41592 0.88256 0.94922 1.9492l0.0996 0.20117c0.22986 0.48525 0.68375 1.1959 1.1484 1.916 0.0776 0.11514 0.0707 0.16502 0.15234 0.2832h0.0195c0.0784 0.1184 0.0956 0.1766 0.17969 0.30078 0.5333 1.1 0.7 2.1504 0.5 3.1504-0.1333 0.7 0.16709 1.3163 0.90039 1.8496 0.7333 0.49999 1.4659 0.64922 2.1992 0.44922 0.1-0.03333 0.20078-3.9e-4 0.30078 0.09961 0.6667 0.83332 1.25 1.5349 1.75 2.1016 0.3667 0.4 0.68252 0.73335 0.94922 1 0.1667 0.16667 0.5 0.44961 1 0.84961 0.2667 0.39999 0.1 0.84961-0.5 1.3496-0.1 0.06667-0.16592 0.23333-0.19922 0.5-0.1 0.26667-0.1833 0.43333-0.25 0.5-0.1333 0.13333-0.18369 0.40079-0.15039 0.80078 0.033 0.33333-0.05 0.53294-0.25 0.59961-0.8 0.16665-1.3659 0.21706-1.6992 0.15039-0.6-0.1-1.0341-0.51667-1.3008-1.25-0.2-0.63332-0.84922-0.95117-1.9492-0.95117-0.4333 0-0.83447 0.11628-1.2012 0.34961s-0.6167 0.55117-0.75 0.95117c-0.1666 0.49999-0.39922 0.78294-0.69922 0.84961-0.033 0-0.084 0.01745-0.15039 0.05078-0.2333 0-0.53369-0.06784-0.90039-0.20117-0.1-0.03333-0.58252-0.04883-1.4492-0.04883l-0.0508 0.25c0.2 0.3 0.58369 0.49961 1.1504 0.59961 0.2333 0.1 0.65 0.15039 1.25 0.15039 0.4667 0.1 0.66631 0.46628 0.59961 1.0996l0.10162 0.099612c0.6333 0.73332 1.3484 1.1171 2.1484 1.1504 0.8667 0.03333 1.6167-0.3504 2.25-1.1504 0.033-0.03333 0.10117-0.23296 0.20117-0.59961 0.067-0.23333 0.2333-0.36706 0.5-0.40039h0.90039c0.3333-0.03333 0.61631-0.09922 0.84961-0.19922 0.3-0.1 0.51709-0.01667 0.65039 0.25 0.5667 1.4 1.5318 2.1829 2.8984 2.3496 1.3 0.19999 2.3679-0.13335 3.2012-1l0.65039-0.59961c0.067 0.1 0.28174 0.3151 0.64844 0.64844 0.2667 0.23333 0.38486 0.50078 0.35156 0.80078-0.1 0.73332-0.0852 1.433 0.0488 2.0996 0.1667 0.93332 0.53291 1.7841 1.0996 2.5508 0.9 1.2 2.1675 2.0488 3.8008 2.5488 0.1 0.03333 0.35 0.03333 0.75 0 0.2667 0 0.35 0.20158 0.25 0.60156-0.3333 1.0333-0.28291 1.9151 0.15039 2.6484 0.6333 1.0667 1.55 1.8012 2.75 2.2012 0.3333 0.13332 0.6667 0.21667 1 0.25 0.4 0.06667 0.79922 0.06667 1.1992 0 0.5-0.06667 0.96709-0.23335 1.4004-0.5 0.1-0.03333 0.2667-0.14961 0.5-0.34961 0.14591-0.07295 0.29171 0.0034 0.4375 0.07227 0.0584 0.07552 0.0378 0.15104 0.11328 0.22656h-0.05075l0.30078 0.30078c0.46555 0.43229 0.66289 0.74719 0.59766 0.94726-1.6e-4 4.82e-4 2e-3 0.0015 2e-3 2e-3 1e-4 5.92e-4 -9e-5 0.0014 0 2e-3v0.04883c-0.0307 0.92188-0.31085 1.5236-0.73828 1.9355-0.0994 0.12719-0.14546 0.22765-0.26172 0.36328-0.5 0.56665-1.2345 1.2004-2.2012 1.9004-1.3 0.93332-2.0829 1.5012-2.3496 1.7012-0.2667 0.23333-0.49922 0.31667-0.69922 0.25-0.1-0.06667-0.28408-0.25078-0.55078-0.55078-0.7-1.0667-1.3163-1.7992-1.8496-2.1992-0.1333-0.1-0.23408-0.20078-0.30078-0.30078-0.1333-0.2-0.1333-0.36667 0-0.5 0.4-0.46667 0.63447-0.98413 0.70117-1.5508 0.033-0.5-0.068-1.0484-0.30078-1.6484-0.033-0.06667-0.0488-0.11706-0.0488-0.15039-0.4-0.83333-1.2334-1.2829-2.5-1.3496-0.6-0.03333-1.1833 0.23217-1.75 0.79883-0.1667 0.16667-0.30039 0.35078-0.40039 0.55078-0.3 0.43332-0.4667 0.88294-0.5 1.3496 0 0.16667 0.0148 0.31589 0.0488 0.44922 0.067 0.49999 0.30117 0.96707 0.70117 1.4004 0.4667 0.53333 1.05 0.86668 1.75 1 0.1 0.03333 0.36553-0.01706 0.79883-0.15039 0.3333-0.1 0.60078-0.03216 0.80078 0.20117 0.2333 0.29999 0.5667 0.76707 1 1.4004 0.4333 0.53333 0.81709 0.95001 1.1504 1.25 0.3333 0.33333 0.44961 0.61628 0.34961 0.84961-0.0241 0.07296-0.23578 0.23905-0.4375 0.40039-1.1387 0.68406-2.3726 1.4159-3.0117 1.8496h-0.05083l-2.25 1.25c-0.0333 0-0.0663 0.0155-0.0996 0.04883-0.12497 0.04686-0.23391 0.20649-0.35156 0.30469-0.0117-0.01613-0.038 0.01509-0.0488-0.0039-0.7667-0.86665-1.3325-1.5159-1.6992-1.9492-0.7667-0.89999-1.5516-1.7837-2.3516-2.6504-1.1333-1.2-2.3155-2.3512-3.5488-3.4512l-3.6504-2.8985c-0.2667-0.23333-0.5167-0.4504-0.75-0.65039-0.8333-0.73333-1.5833-1.3845-2.25-1.9512-0.6333-0.5-1.2167-0.98255-1.75-1.4492-2.0333-1.6666-3.6341-3.6996-4.8008-6.0996-0.033-0.03333-0.0488-0.06628-0.0488-0.09961-0.9667-1.5-1.8833-3.0349-2.75-4.6016l-0.15042-0.34961c-0.3-0.49999-0.56748-1.0155-0.80078-1.5488-0.9-1.8-1.9833-3.3504-3.25-4.6504-0.4333-0.36667-0.88291-0.73294-1.3496-1.0996-0.067-0.06667-0.13252-0.11706-0.19922-0.15039-0.5333-0.43333-1.1012-0.81706-1.7012-1.1504-0.6-0.36667-1.1988-0.7-1.7988-1-1.1667-0.59999-2.4341-0.91588-3.8008-0.94922h-0.15039c-0.7667 0.06667-1.7492 0.23335-2.9492 0.5-1.2333 0.23333-2.2508 0.7159-3.0508 1.4492-0.5 0.4-0.93213 0.83413-1.2988 1.3008-0.1 0.1-0.20078 0.21628-0.30078 0.34961-0.2 0.23332-0.38213 0.48333-0.54883 0.75-0.2667 0.49999-0.50117 1.0659-0.70117 1.6992l-0.34961 1.3496-4.1992 1c-0.7667 0.1-1.5012 0.3345-2.2012 0.70117-0.2667 0.1-0.49922 0.23372-0.69922 0.40039l-0.20117 0.19922-2.7988 2.5c-0.1333 0.2-0.15038 0.39962-0.0508 0.59961 0.067 0.13333 0.16748 0.26706 0.30078 0.40039l2.5488 0.19922h0.5508c1.3333 0.1 2.5833 0.30158 3.75 0.60156 1 0.26667 2.0175 0.53217 3.0508 0.79883l0.64844 2.0508c0 0.06667 0.0168 0.13255 0.0508 0.19922 0.2 0.43333 0.48291 1.0496 0.84961 1.8496 0.6333 1.3333 1.5675 3.1841 2.8008 5.5508 0 0.03333 0.0148 0.05078 0.0488 0.05078 0 0.06667 0.035 0.13255 0.10156 0.19922 0 0.13333 0.0148 0.26706 0.0488 0.40039 0.1 0.53332 0.23369 1.1322 0.40039 1.7988 0.1 0.49999 0.20078 1.0349 0.30078 1.6016 0.6667 3.1666 1.4496 6.0485 2.3496 8.6484 0.9333 2.7 2.3171 5.2349 4.1504 7.6016 1.2666 1.6333 3.1329 3.5655 5.5996 5.7988l3.2988 2.75c-0.7667 0.06667-1.2492 0.13451-1.4492 0.20117-0.7667 0.3-1.35 0.56551-1.75 0.79883-0.067 0.03333-0.11709 0.06628-0.15039 0.09961-0.3333 0.23333-0.59883 0.51824-0.79883 0.85156-0.2 0.26667-0.35117 0.5651-0.45117 0.89844-0.1667 0.43332-0.30039 0.68333-0.40039 0.75-0.7 0.43332-1.3667 1.0516-2 1.8516-0.3 0.46667-0.53252 0.8-0.69922 1v0.39844c-0.1333 0.0333-0.28252 0.10117-0.44922 0.20117-0.35724 0.23114-1.6469 0.95442-2.6797 1.543-0.24008 0.12402-0.3548 0.10052-0.62109 0.25586-0.25775 0.15649-0.27369 0.24811-0.51562 0.40039-0.21358 0.11986-0.20233 0.12076-0.4336 0.25-1.8 1-3.1837 1.9012-4.1504 2.7012-1.9667 1.6667-3.4667 3.7326-4.5 6.1992-1 2.4667-1.3837 4.9667-1.1504 7.5 0.067 0.56667 0.18291 1.0492 0.34961 1.4492 0.1 0.23333 0.25117 0.56667 0.45117 1 0.033 0.23333 0.082 0.46784 0.14844 0.70117 0.12846 0.34688 0.51474 0.55044 0.73242 0.84766 0.11316 0.13832 0.12334 0.32838 0.26758 0.45117l0.25 0.25c0.0179 0.0161 0.0353 0.0336 0.0508 0.0508 0.0327 0.0436 0.0999 0.028 0.13672 0.0644 0.19169 0.15764 0.23569 0.39721 0.46289 0.53516 1.1667 0.7 2.9845 1.5837 5.4512 2.6504 3.2333 1.3667 5.2488 2.2 6.0488 2.5 2.0333 0.76667 5.1013 1.8674 9.2012 3.3008 1.7666 0.7 4.35 1.7988 7.75 3.2988 2.8333 1.2 4.7829 2.1341 5.8496 2.8008 0.1333 0.1 0.19922 0.18333 0.19922 0.25 0.033 0.0333 6.9e-4 0.0992-0.0996 0.19922-0.7 0.8-1.0004 1.7012-0.90039 2.7012s0.56709 1.8488 1.4004 2.5488c0.7 0.6 1.5004 0.86745 2.4004 0.80078 1.3333-0.1 2.2829-0.68333 2.8496-1.75 0.2333-0.26667 0.34961-0.38294 0.34961-0.34961 0.8 0.73333 1.2496 1.1655 1.3496 1.2988 0.3 0.43333 0.75156 1.0496 1.3516 1.8496 0.5333 0.73333 0.88213 1.4174 1.0488 2.0508 0.2333 0.7 0.15 1.3008-0.25 1.8008-0.2333 0.3-0.5667 0.44922-1 0.44922-0.5-0.0333-0.86631-0.0663-1.0996-0.0996l-0.15039-1.0508-0.0488-0.19922c-0.4-0.96667-0.9833-1.7012-1.75-2.2012-0.7667-0.53333-1.6175-0.74844-2.5508-0.64844-0.8333 0.0667-1.6163 0.36511-2.3496 0.89844l-0.75 1.0508c-0.3333 0.4-0.75 0.46589-1.25 0.19922-0.6-0.1-1.0496-0.18333-1.3496-0.25-0.5333-0.13333-0.81826-0.49961-0.85156-1.0996 0-0.43333-0.1667-0.98373-0.5-1.6504-0.7-1.4-1.9829-2.5163-3.8496-3.3496-1.8333-0.83333-3.5155-1.0833-5.0488-0.75-1.9333 0.4-3.3675 0.84961-4.3008 1.3496l-0.15039 0.0508-0.0488-0.15039c-0.067-0.73333-0.45039-1.7004-1.1504-2.9004-0.8333-1.3333-2.0504-2.3488-3.6504-3.0488s-3.1659-0.89961-4.6992-0.59961c-0.6 0.26667-1.0671 0.44883-1.4004 0.54883-0.48747 0.12187-0.93927-0.0776-1.3711-0.45703-0.26655-0.23422-0.4572-0.42806-0.69727-0.64844-0.33578-0.35637-0.72456-0.76633-0.93164-0.99414-0.3835-0.4048-0.63921-0.71786-0.92773-1.0547-0.2878-0.35775-0.51794-0.72423-0.7793-1.0859-0.9047-1.2291-1.66-2.8634-2.3887-4.5723-0.58911-1.3717-1.1851-2.8287-1.8262-4.9414-0.26947-0.91189-0.44761-1.3843-0.7793-2.5957-0.3-0.96667-0.68174-2.4163-1.1484-4.3496l-1.25-4.8496c-0.3667-1.9333-0.73486-3.35-1.1016-4.25-0.2-0.56666-0.43252-1.4-0.69922-2.5-0.2667-1.1333-0.48369-1.9512-0.65039-2.4512-0.2667-0.86667-0.61553-2.483-1.0488-4.8496-0.13883-0.62465-0.2094-0.96053-0.3125-1.4316-0.15282-1.0731-0.29341-2.1461-0.48828-3.2188v-0.04883l-0.15039-1.2012c-0.19023-1.1855-0.42279-2.0693-0.69922-2.6504-0.18883-0.3819-0.66799-0.48268-0.96289-0.76172-0.3636-0.38995-0.61891-0.85931-1.1367-1.1367-0.4333-0.23333-0.71826-0.35156-0.85156-0.35156-0.3333 0-0.53291 0.28491-0.59961 0.85156-4e-3 0.05336 0.0169 0.1741 0.0137 0.23047-3e-3 0.0087-0.0104 0.01071-0.0137 0.01953l0.0137-0.01367c-0.0292 0.52178 0.0544 1.3522 0.11914 2.1309 0.0333 0.62288-0.0767 1.076 0.0684 1.832l0.14844 1.1504v0.04883c0.0627 0.7483 0.24685 1.7154 0.55078 2.9004 0.29375 1.0772 0.49336 2.0443 0.59961 2.9004l0.25 1.6992c0.19851 1.0791 0.51448 2.2594 0.83203 3.4414l0.71875 4.0098c0.3333 1.8667 0.73252 3.6167 1.1992 5.25 0.14325 0.51559 0.39642 1.38 0.6875 2.3633l0.8125 3.9356c0.0641 0.42448 0.21524 0.99232 0.45117 1.7012v0.0488l0.11719 0.35547c0.0673 0.26584 0.15053 0.57473 0.23242 0.88281-5e-3 0.037 0.0214 0.0789 0 0.11328-0.028 0.12578-0.0959 0.20911-0.20117 0.25-0.10143 0.0811-0.21771 0.11407-0.34961 0.0996-0.10221-0.0235-0.20104-0.0913-0.29883-0.20117l-0.01-0.0117c-2.8855-3.4462-5.023-6.2916-6.291-8.4375-0.6667-1.1333-1.7326-2.8-3.1992-5-0.2667-0.53333-0.48369-0.91706-0.65039-1.1504-0.2667-0.46667-0.53408-0.74961-0.80078-0.84961-0.19941-0.0798-0.33895 0.068-0.52344 0.0449-0.10909-0.0251-0.15668-0.19232-0.27539-0.19531-0.33425 1e-3 -0.65208 0.0847-0.95117 0.25-2.0609 1.6328-0.67176 3.4332 0.34973 5.3496l0.85156 1.7012v0.0488c0.47475 1.0705 1.4983 2.4168 2.293 3.6484 0.2997 0.48811 0.41466 0.76769 0.75586 1.3027 0.26027 0.42711 0.54621 0.77637 0.81055 1.1914 0.12762 0.16882 0.15634 0.28762 0.28906 0.45898l0.5664 0.79492c0.79 1.1834 1.5603 2.4243 2.3848 3.5039 0.8 1.1 2.7826 3.6174 5.9492 7.5508 0.3 0.36667 0.35039 0.7155 0.15039 1.0488-0.1333 0.2-0.31748 0.48489-0.55078 0.85156-0.033 0.13333-0.13213 0.18177-0.29883 0.14844-2.2667-0.66667-3.9333-1.25-5-1.75-0.1333-0.0333-0.35039 0.0171-0.65039 0.15039v0.20117c1.3667 0.76667 2.5663 1.3151 3.5996 1.6484 0.9667 0.3 1.4667 0.45117 1.5 0.45117 0.5333 0.3 0.81631 0.8 0.84961 1.5 0.1 1.2 0.9334 1.9829 2.5 2.3496 1.1333 0.26667 2.0345 0.0825 2.7012-0.55078 0.18241-0.24321 0.36453-0.27126 0.54688-0.18164 0.0274 0.0394 0.0201 0.0959 0.0527 0.13281 0.24167 0.26953 0.70872 0.6862 1.4004 1.25l0.59961 0.44922c0.26898 0.20443 0.38731 0.19147 0.60547 0.32227 0.12026 0.0789 0.16058 0.12166 0.34375 0.22851 0.3 0.16667 0.41826 0.33333 0.35156 0.5l-0.65039 1.9004c-0.3333 1.2333-0.40117 2.2159-0.20117 2.9492 0.033 0.23333 0.033 0.36706 0 0.40039-0.033 0.0333-0.14961 0.0663-0.34961 0.0996-2.0667 0.23333-3.6325 0.84961-4.6992 1.8496-1.6333 1.5333-2.1837 3.5333-1.6504 6l-1.8496-2.0488c-0.5-0.53333-0.60078-1.1012-0.30078-1.7012 0.3333-0.76667 0.51748-1.1833 0.55078-1.25 0.1667-0.5 0.21709-0.96706 0.15039-1.4004-0.3333-2.3667-1.4671-3.8492-3.4004-4.4492-2.4-0.73333-4.3012 0.0341-5.7012 2.3008-0.6667 1.0667-0.86631 2.2488-0.59961 3.5488 0.3 1.4 1.083 2.4329 2.3496 3.0996 0.8667 0.46666 1.7833 0.68372 2.75 0.65039 0.9667-0.0333 1.7516-0.29883 2.3516-0.79883 0.2667-0.2 0.5167-0.18423 0.75 0.0488l8.8496 10.551 0.7988-0.34964-2.5488-3.5506c0.4333 0.1 1.0671 0.29961 1.9004 0.59961 0.7667 0.23333 1.4488 0.28372 2.0488 0.15039l0.0996-0.0508c0.4667-0.1 0.8-0.14844 1-0.14844 0.3667 0.0667 0.63408 0.31667 0.80078 0.75 2.1445 1.741 4.777 1.2529 7.0508 0.0996 0.7-0.46667 1.1651-1.0829 1.3984-1.8496 0.1-0.23333 0.23369-0.28372 0.40039-0.15039 0.8333 0.66667 1.9671 1.0329 3.4004 1.0996 0.5 0.0333 1.4167-0.10039 2.75-0.40039 0.6333-0.1 1.2167-0.43333 1.75-1 0.5667-0.6 0.86709-1.1988 0.90039-1.7988v-0.30075c0.033-0.0667 0.1167-0.11706 0.25-0.15039 1.1667-0.0333 2.6163-0.4655 4.3496-1.2988l1.0508-0.75c0.4333-0.3 0.83252-0.40078 1.1992-0.30078 1.3286 0.33821 2.1144 0.69529 2.9356 1.0508l3.0137 1.2988c1.1938 0.57539 2.2112 1.1083 3.0508 1.5996l0.94336 0.53125c0.31854 0.22287 0.94369 1.988 3.3574 2.2695l30.901 0.11488 0.052-16.465c-3.2-2.9-5.95-5.1829-8.25-6.8496-0.57388-0.43041-0.79875-0.54648-1.3203-0.92969-0.02-0.0151-0.0642-0.0555-0.084-0.0703-0.11861-0.0892-0.32137-0.20952-0.44531-0.30078-1.8579-1.352-3.7629-2.7474-4.9004-3.4492-0.2667 0-0.36748-0.0833-0.30079-0.25 0.067-0.1 0.18487-0.15039 0.35157-0.15039 0.3667-0.1 0.91514-0.29961 1.6484-0.59961 0.6333-0.2 1.1683-0.30078 1.6016-0.30078 0.1333 0.0333 0.31553-0.0171 0.54883-0.15039 0.1333-0.0667 0.33291-0.18294 0.5996-0.34961 0.5-0.2 0.85079 0.10039 1.0508 0.90039 0.5 1.6 1.5329 2.5496 3.0996 2.8496 1.9333 0.36667 3.4179-0.33294 4.4512-2.0996 0.7667-1.2333 0.71631-2.6345-0.15039-4.2012-0.6-1.0667-1.5671-1.6655-2.9004-1.7988-1.3333-0.16667-2.4671 0.16667-3.4004 1-0.2 0.16667-0.46553 0.73255-0.79883 1.6992-0.2667 0.73333-0.73369 1.1171-1.4004 1.1504h-0.25c-0.2667-0.1-0.45078-0.13303-0.55078-0.0996-1.0333 0.26667-1.8163 0.48372-2.3496 0.65039-0.9333 0.26667-1.7008 0.56511-2.3008 0.89844-0.16669 0.0667-0.31591 0.0841-0.44921 0.0508-0.1667-0.0333-0.23252-0.18255-0.19922-0.44922 0.0556-0.27163 0.0368-0.31952 0.0742-0.53711 0.11609-0.28585 0.25157-0.60982 0.27148-0.71289 6e-3 -0.0249 6e-3 -0.0598 0-0.10156 0.1179-0.28251 0.0869-0.67804 0.0957-1.043 0.052-0.0205 0.10019-0.0495 0.14258-0.0859l0.0996-0.39843c4e-3 -0.01 7e-3 -0.0194 0.01-0.0293 0.1038-0.55373 0.1582-1.0312 0.1582-1.4434 0-0.76834-0.13083-1.355-0.33203-1.8672 0.01-0.0136 0.0103-0.0312 0.0312-0.0312 0.1-0.0333 0.23369-3e-4 0.40039 0.0996 0.8667 0.56667 2.0837 0.74883 3.6504 0.54883 1.1333-0.13333 2.0655-0.5655 2.7988-1.2988 0.5-0.5 0.76748-1.0329 0.80078-1.5996 0-0.3 0.11631-0.45117 0.34961-0.45117 2.7667-0.0667 4.6833-1.0492 5.75-2.9492 0.5-0.86667 0.68408-1.8841 0.55078-3.0508-0.1-1.2-0.50117-2.1496-1.2012-2.8496-0.9333-0.93333-1.7492-1.6-2.4492-2-1.2-0.73333-2.6496-0.95039-4.3496-0.65039-0.1-1.2-0.5167-2.3996-1.25-3.5996l-0.0996-0.0996c-0.6333-0.66667-1.0016-1.0329-1.1016-1.0996-0.8-0.8-1.8-1.4182-3-1.8516l-1.6484-0.5c-1.1-0.3-2.0012-0.41628-2.7012-0.34961-2.0333 0.33333-3.5004 0.85078-4.4004 1.5508-2 1.5333-3.0833 3.233-3.25 5.0996-0.033 0.23333-0.14961 0.28372-0.34961 0.15039-1.3-1.1-3.1488-1.5012-5.5488-1.2012-1.3 0.2-2.5675 1.2349-3.8008 3.1016 0 0.0333-0.0187 0.0663-0.0527 0.0996-0.46669 0.73333-0.67978 1.7159-0.64648 2.9492 0 0.3 0.0148 0.58294 0.0488 0.84961v0.10156c0.033 0.33333 0.10117 0.63177 0.20117 0.89844 0.033 0.1 0.082 0.21823 0.14844 0.35156h-0.0488l0.15039 0.25 0.54883 1.1484c0.2333 0.26667 0.4833 0.6349 0.75 1.1016 0.2 0.3 0.43447 0.58294 0.70117 0.84961 0.3333 0.33333 0.69961 0.63372 1.0996 0.90039 0.3 0.2 0.61592 0.39961 0.94922 0.59961 0.067 0.0333 0.15 0.0663 0.25 0.0996 0.7 0.23333 1.7311 0.45039 3.0976 0.65039 0.2667 0.0333 0.51671 0.0663 0.75 0.0996l2.25-0.0996c0.1667 0.73333 0.40313 1.1655 0.70313 1.2988 0.2667 0.13333 0.46631 0.3 0.59961 0.5l1.1973 0.60156c1.1998 0.26338 2.3479 0.27208 3.4707 0.17578-0.2899 0.59764-0.62478 1.5115-1.0469 2.875-0.018 0.039-0.0289 0.0835-0.0469 0.12305l-2.627-0.125c-0.39999-0.43333-0.83212-0.81706-1.2988-1.1504l-4.5508-2.5996c-1.3667-0.76667-2.7659-1.5167-4.1992-2.25l-0.90039-0.40039c-0.5-0.23333-0.98252-0.46589-1.4492-0.69922l-0.70117-0.40039c-0.2-0.1-0.38213-0.18333-0.54883-0.25-0.8-0.33333-1.3504-0.56589-1.6504-0.69922-0.1333-0.0667-0.1333-0.21784 0-0.45117 0.067-0.1 0.16553-0.26667 0.29882-0.5 0.4-0.7 0.5667-1.5488 0.5-2.5488-0.1-1.0333-0.39843-1.8337-0.89843-2.4004-0.6333-0.73333-1.4667-1.2159-2.5-1.4492-1.0667-0.23333-2.0512-0.16745-2.9512 0.19922-0.7333 0.33333-1.3321 0.83333-1.7988 1.5-0.3333 0.5-0.6667 1.2326-1 2.1992-0.067 0.3-0.26827 0.40078-0.60157 0.30078-0.36669-0.2-0.63212-0.31628-0.79882-0.34961-0.1667 0-0.4167-0.0833-0.75-0.25-0.3-0.13333-0.55-0.21667-0.75-0.25-0.1333-0.1-0.23408-0.16784-0.30078-0.20117h0.0527c-0.1667-0.0333-0.35078-0.0818-0.55078-0.14844-0.1667-0.0333-0.3333-0.0837-0.5-0.15039-0.2 0.0667-0.38213 0.0822-0.54883 0.0488-0.23839-0.0867-0.55076-0.11769-0.8457-0.16211l-1.1602-0.48633c-0.46667-0.23333-0.85039-0.50078-1.1504-0.80078l-0.40039-0.44922-0.20117-0.0742c-0.0102-0.0796-0.0209-0.19313-0.0312-0.26172 0.17256-0.28727 0.46482-0.6492 0.7168-0.98632 0.57898-0.78554 1.3901-1.599 2.2363-2.418 0.84087-0.87013 1.5357-1.6603 2.7051-2.7109 0.039-0.0346 0.0799-0.07 0.11719-0.10352 3.5966-3.22 8.7118-7.2688 15.336-12.135l1.3242-0.71094c0.3667-0.26667 0.61671-0.23373 0.75 0.09961v0.05078c0.2333 0.5 0.5337 0.66667 0.9004 0.5 0.1333-0.06667 0.166-0.2004 0.0996-0.40039-0.13329-0.2-0.2167-0.33372-0.25-0.40039l-2.0996-3.3008c0.79999-0.2 1.4512 0.0016 1.9512 0.60156 0.2667 0.36667 0.63291 0.95001 1.0996 1.75l0.10156 0.04883c0.2667 0.26667 0.63291 0.70078 1.0996 1.3008 0.1 0.29999 0.23369 0.36588 0.40039 0.19922 0.2-0.19999 0.21708-0.41706 0.0508-0.65039l-1.5508-2.5-0.15039-0.34961c0.1333-0.03333 0.3-0.08372 0.5-0.15039 0.7667 0.1 1.3345 0.48374 1.7012 1.1504l0.25 0.34961c0.1333 0.16667 0.51514 0.56784 1.1484 1.2012 0.033 0.03333 0.1167 0.01588 0.25-0.05078 0.2-0.16665 0.21708-0.39923 0.0508-0.69922l-1.1056-1.6504c-0.1-0.1-0.15039-0.16588-0.15039-0.19922 0-0.03333 0.083-0.08372 0.25-0.15039 0.9-0.4 1.6829-0.18293 2.3496 0.65039l0.75 0.94922c0.6333 0.73332 1.2341 1.4 1.8008 2l0.54883 0.55078c1.0667 1.0333 2.0008 1.7988 2.8008 2.2988 0.1 0.16667 0.33252 0.31784 0.69922 0.45117l0.85156 0.39844c1.2666 0.73332 2.7163 1.4504 4.3496 2.1504 1.1333 0.46667 2.1837 0.81745 3.1504 1.0508l-0.25-0.0508c3.1666 0.8 4.9167 1.2167 5.25 1.25 0.4667 0.0667 1.7651 0.0996 3.8984 0.0996 1.7667 0 2.9004-0.0155 3.4004-0.0488l-0.0996-1.3008c-0.5 0.0333-1.6008 0.0508-3.3008 0.0508-2.0666 0-3.3167-0.0329-3.75-0.0996-0.3333-0.0333-1.3818-0.23489-3.1484-0.60156-0.033-0.0333-0.068-0.0488-0.10156-0.0488l-3.3984-0.75c-0.4-0.16667-0.78369-0.31784-1.1504-0.45117l-0.55078-0.25 0.3496 0.15039-3.6484-1.8497c-0.5-0.23333-0.86826-0.41745-1.1016-0.55078-1.0333-0.63333-1.8996-1.2651-2.5996-1.8984l-0.04883-0.050781c-0.5667-0.53332-1.2837-1.2504-2.1504-2.1504-0.6333-0.63332-1.3329-1.3504-2.0996-2.1504-0.1667-0.16667-0.083-0.25 0.25-0.25 0.1333-0.03333 0.26514-0.04883 0.39844-0.04883 0.033 0.06667 0.084 0.13255 0.15039 0.19922 0 0.03333 0.0326 0.08372 0.0996 0.15039l1.2012 0.90039c1.7667 1.3 3.4663 2.4337 5.0996 3.4004 1.6 0.96665 3.1504 1.7826 4.6504 2.4492 1.4667 0.66665 2.8659 1.1667 4.1992 1.5 0.1 0 0.21631 0.0174 0.34961 0.0508 3.5 0.86665 7.4012 1.0488 11.701 0.54883l-0.1504-1.1992c-4.2333 0.49999-8.0841 0.31588-11.551-0.55078h-0.0488c-0.36681-0.1-0.7504-0.21629-1.1504-0.34963-1.7333-0.53332-3.5996-1.3492-5.5996-2.4492s-4.1337-2.4683-6.4004-4.1016c-0.4333-0.3-0.85-0.59844-1.25-0.89844 0.1667-0.1 0.36631-0.20078 0.59961-0.30078 0.067 0.1 0.15 0.20078 0.25 0.30078 0.5667 0.3 1.0996 0.59844 1.5996 0.89844 3.2667 1.8333 5.9837 3.2016 8.1504 4.1016 1.0667 0.43333 2.0008 0.76667 2.8008 1 0.3 0.06667 0.64883 0.13255 1.0488 0.19922l0.60156 0.09961c2.4333 0.3 6.1155 0.3 11.049 0l-0.0488-1.1992c-4.9666 0.29999-8.6334 0.29999-11 0-0.1667-0.03333-0.31787-0.06628-0.45117-0.09961h-0.15039c-0.2667-0.06667-0.5167-0.11706-0.75-0.15039-2.0333-0.56667-4.9501-1.8845-8.75-3.9512-0.8667-0.46667-1.7659-0.96668-2.6992-1.5 0.1667-0.03333 0.35078-0.08177 0.55078-0.14844 1.3666 0.63333 2.6825 1.1818 3.9492 1.6484 1.6 0.59999 3.1 1.0845 4.5 1.4512 1.0333 0.23332 2.0992 0.4155 3.1992 0.54883l0.60156 0.10156c1.4333 0.13333 2.9159 0.18177 4.4492 0.14844 1.0667-0.03333 2.0008-0.06628 2.8008-0.09961h0.0488l3.8008-0.34961-0.1504-1.1992-3.75 0.34961c-0.8333 0.03333-1.7675 0.06628-2.8008 0.09961-1.5333 0.03333-2.9984-0.01706-4.3984-0.15039-1.2-0.13332-2.3667-0.33294-3.5-0.59961l-1-0.30078c-2.1333-0.6-4.4667-1.4818-7-2.6484 0.3667-0.13333 0.76592-0.10039 1.1992 0.09961 0.9 0.39999 1.4 0.59961 1.5 0.59961 0.7 0.1 1.7659 0.33255 3.1992 0.69922 0.3333 0.03333 0.76748 0.11667 1.3008 0.25l0.0996 0.05078c0.6667 0.2 1.8508 0.30078 3.5508 0.30078h0.29883c2.5333 0 6.3513-0.43413 11.451-1.3008l-0.19922-1.3008c-5.0333 0.86665-8.7833 1.3008-11.25 1.3008h-0.29883c-1.5 0-2.5679-0.08333-3.2012-0.25-0.1667-0.06667-0.31592-0.06667-0.44922 0-2.5-0.36667-5.1008-1.0508-7.8008-2.0508-0.2333-0.1-0.41553-0.28217-0.54883-0.54883-0.1333-0.36667-0.23408-0.63412-0.30078-0.80078-0.033-0.13332 0.017-0.23216 0.15039-0.29883 0.067-0.03333 0.16748-0.10117 0.30078-0.20117 3.2333-2.4666 5.0821-3.8504 5.5488-4.1504 0.10851-0.06781 0.2915-0.2536 0.42774-0.36524l0.77342-0.58398c0.38821-0.28302 0.78458-0.45962 1.1992-0.40039 0.2667 0.03333 0.66592 0.06628 1.1992 0.09961 0.4667 0.03333 0.83486 0.10117 1.1016 0.20117 0.2667 0.13332 0.69883 0.28256 1.2988 0.44922 0.4667 0.23333 0.60039 0.66745 0.40039 1.3008-0.1333 0.43332-0.083 0.93333 0.15039 1.5 0.8333 1.9666 2.2655 2.8504 4.2988 2.6504 0.8-0.03333 1.5849-0.40158 2.3516-1.1016 0.7667-0.7 1.1833-1.4326 1.25-2.1992 0.1-1.1333-0.11709-2.05-0.65039-2.75-0.5333-0.73332-1.5179-1.3496-2.9512-1.8496-1.2333-0.46667-2.4484 0.04883-3.6484 1.5488-0.1667 0.26665-0.31787 0.36745-0.45117 0.30078-1.2667-0.59999-2.4837-0.95078-3.6504-1.0508 0.5-0.26667 1.1841-0.74923 2.0508-1.4492 0.8667-0.66665 1.5508-1.1337 2.0508-1.4004 1.3666-0.73332 2.7155-1.933 4.0488-3.5996 0.6667-0.83332 1.1337-1.5 1.4004-2 0.3667-0.79999 0.48291-1.583 0.34961-2.3496-0.067-0.33333-0.13252-0.65118-0.19922-0.95117-0.1667-0.66667-0.38369-1.2655-0.65039-1.7988-0.6-1.2-1.4333-2.1341-2.5-2.8008l-0.44922-0.5c0.1333 0 0.33291-0.01549 0.59961-0.04883 1.5667 0.1 3.0822-0.23335 4.5488-1 0.51496-0.26778 5.594-3.1042 2.1504-9.1504-1.3333-2.2666-3.0329-3.5167-5.0996-3.75h-0.55078c-0.2333-0.06667-0.38252-0.23335-0.44922-0.5-0.3-1.2-0.8-2.1341-1.5-2.8008-0.5-0.49999-1.0175-0.93216-1.5508-1.2988-2.1333-1.4666-4.4667-1.7845-7-0.95117-0.7667 0.23333-1.4488 0.55118-2.0488 0.95117-1.3333 0.83332-2.3004 2.0155-2.9004 3.5488 0 0.03333-0.05 0.30078-0.15039 0.80078-0.067 0.29999-0.20039 0.44922-0.40039 0.44922-0.9333-0.1-1.6329-0.16588-2.0996-0.19922-0.8-0.03333-1.6333-0.38412-2.5-1.0508-0.9664-0.8333-1.7321-1.4496-2.2988-1.8496 1.2-0.06667 2.0663-0.29922 2.5996-0.69922 0.3667-0.26665 0.7-0.6 1-1 0.2333-0.36665 0.43291-0.76784 0.59961-1.2012 0.3-0.89999 0.35039-1.7663 0.15039-2.5996-0.2333-0.36667-0.4-0.64962-0.5-0.84961-0.2-0.33333-0.1167-0.65118 0.25-0.95117 0.5-0.43333 0.94961-0.73177 1.3496-0.89844 0.1667-0.06667 0.25-0.21784 0.25-0.45117 0.033-0.13332-0.083-0.19922-0.34961-0.19922-0.2-0.03333-0.41709 0.01706-0.65039 0.15039-0.3 0.16667-0.49961 0.25-0.59961 0.25-0.1 0.03333-0.31709 0.20001-0.65039 0.5-0.2667 0.23333-0.53408 0.24881-0.80078 0.04883-0.8333-0.63332-1.7829-0.89883-2.8496-0.79883-1.0667 0.06667-1.9833 0.4659-2.75 1.1992-0.85358 0.78788-1.2432 2.0722-1.1914 3.8301-0.40457-0.35757-0.86047-0.74705-1.0606-0.98047-0.20085-0.24102-0.63584-0.60819-0.99414-0.93359l-0.85352-1.0156c0.8-0.13333 1.4337-0.49961 1.9004-1.0996 0.5-0.63332 0.63369-1.3349 0.40039-2.1016-0.2667-0.76665-0.66787-1.3326-1.2012-1.6992-0.6333-0.4-1.3833-0.43293-2.25-0.09961-0.2333 0.06667-0.38252 0.08216-0.44922 0.04883-0.1-0.03333-0.16787-0.1651-0.20117-0.39844-0.1333-0.49999-0.34844-0.91667-0.64844-1.25-0.1667-0.16667-0.36826-0.31784-0.60156-0.45117-0.6333-0.33332-1.3659-0.41665-2.1992-0.25-0.1333 0.03333-0.31748 0.16706-0.55078 0.40039-0.2 0.2-0.34922 0.25039-0.44922 0.15039-0.59843-0.7545-1.2339-1.6404-1.873-2.5371l-0.57813-0.8125c-0.23333-0.33333-0.53372-0.5-0.90039-0.5-0.0412 0-0.0389 0.0654-0.0781 0.06836-0.17877-0.04183-0.32931-0.32547-0.51954-0.26953zm5.7988 4.2501c0.4333-0.03333 0.81709 0.08294 1.1504 0.34961 0.3667 0.26665 0.56631 0.61745 0.59961 1.0508 0.1333 1.4333-0.59922 2.1504-2.1992 2.1504-0.9333-0.2-1.4004-0.81629-1.4004-1.8496 0-1.1333 0.61631-1.7012 1.8496-1.7012zm3.8496 2.2499c0.5333-0.06667 0.98486 0.03411 1.3516 0.30078 0.4 0.26665 0.61514 0.6504 0.64844 1.1504 0.067 0.53333-0.065 0.98294-0.39844 1.3496-0.3 0.33332-0.73408 0.51549-1.3008 0.54883-1.0667 0-1.6829-0.54845-1.8496-1.6484 0.1667-1.0333 0.68213-1.6012 1.5488-1.7012zm-4.6484 2.4004c1.2 0 1.8667 0.68414 2 2.0508 0.1333 0.4 0.033 0.76628-0.30078 1.0996-0.3 0.36665-0.68369 0.58372-1.1504 0.65039-0.7 0.1-1.2833-0.06667-1.75-0.5-0.4667-0.43332-0.68369-0.95079-0.65039-1.5508 0.1-1.1 0.71826-1.6833 1.8516-1.75zm11.949 0.55078c0.1667-0.03333 0.28291-0.03333 0.34961 0 0.067 0.03333 0.4 0.13217 1 0.29883 0.4 0.1 0.71787 0.23372 0.95117 0.40039 0.1667 0.1 0.25 0.18333 0.25 0.25 0 0.03333-0.05 0.11667-0.15039 0.25l-1.4512 1.5508c-0.3333-1.0333-0.69961-1.7174-1.0996-2.0508-0.033-0.03333-0.099-0.21746-0.19922-0.55078 0.033 0 0.14961-0.04844 0.34961-0.14844zm-9.0996 0.29883c0.0534 0.09076 0.20616 0.20356 0.27149 0.29688-0.0616 0.0302-0.12601 0.05767-0.17188 0.10352-0.0384 0.04882-0.0624 0.14126-0.0996 0.19336-4e-3 -0.20364-0.054-0.46776 0-0.59375zm7.4004 0.5c0.4-0.23332 0.69844-0.18294 0.89844 0.15039 0.1 0.16667 0.20078 0.43413 0.30078 0.80078 0.6333 1.2 0.85039 2.2659 0.65039 3.1992l0.0488 1.5996c0 0.23333-0.066 0.36706-0.19922 0.40039-0.3667 0.06667-0.83369-0.08255-1.4004-0.44922-0.1-0.06667-0.19883-0.15-0.29883-0.25-0.9667-0.79999-1.4667-1.6333-1.5-2.5 0-1.4333 0.5-2.4178 1.5-2.9512zm4.8984 0.84961c0-0.03333 0.083 0.06745 0.25 0.30078 0.1667 0.23333 0.26748 0.43296 0.30078 0.59961v0.84961c0.1 0.79999-0.10001 1.5675-0.59961 2.3008-0.1667 0.2-0.3333 0.38412-0.5 0.55078-0.4 0.33333-0.83408 0.54844-1.3008 0.64844-0.3 0.03333-0.41631-0.08294-0.34961-0.34961l0.15039-0.75c0.033-0.29999 0.033-0.55 0-0.75-0.1-0.73332 0.10001-1.3826 0.59961-1.9492 0.2667-0.33333 0.74922-0.81785 1.4492-1.4512zm-39.398 2.6504h2e-3c0.9994 0.23323 1.9987 0.50096 2.998 0.80078 0.8 0.33332 1.5829 0.71707 2.3496 1.1504 0.1333 0.06667 0.26709 0.15 0.40039 0.25 0.4 0.26667 0.79922 0.54961 1.1992 0.84961 1.6333 1.3666 2.9841 3.1167 4.0508 5.25 0.1333 0.33332 0.28252 0.64923 0.44922 0.94922l1.6504 3c0.5333 0.89999 1.0837 1.7837 1.6504 2.6504 1.2666 2.5666 2.9663 4.7334 5.0996 6.5 0.5667 0.46667 1.15 0.94922 1.75 1.4492 0.3333 0.29999 0.69961 0.61784 1.0996 0.95117 0.6333 0.53332 1.3329 1.1322 2.0996 1.7988 0.2 0.2 0.43447 0.40156 0.70117 0.60156 0.9667 0.79999 2.0325 1.6992 3.1992 2.6992v0.05078l0.80078 0.59961c0.033 0 0.0656 0.01549 0.0996 0.04883 0.4333 0.36665 0.79961 0.7 1.0996 1 0.6667 0.63332 1.3159 1.3 1.9492 2 1.1 1.2 2.1349 2.4345 3.1016 3.7012 1.3333 1.7666 2.8333 3.883 4.5 6.3496l2.25 3.5996c0.1 0.23333 0.017 0.36706-0.25 0.40039-2.5333 0.23332-5.3841-0.54964-8.5508-2.3496-2.5-1.4-4.6163-2.7837-6.3496-4.1504-2.5-1.9333-4.6008-4.4004-6.3008-7.4004-0.3-0.49999-0.60039-1.1667-0.90039-2-0.3333-0.89999-0.59883-1.5822-0.79883-2.0488v-0.10156h-0.75c0 0.16667 0.03261 0.35078 0.09961 0.55078 0.4667 2 1.2825 3.9496 2.4492 5.8496v0.15039l-4.5-2.6992c-0.5332-0.29999-1.1651-0.73413-1.8984-1.3008-0.7667-0.66665-1.3675-1.1667-1.8008-1.5-0.5-0.4-1.0329-0.96589-1.5996-1.6992-0.6333-0.86665-1.1179-1.5004-1.4512-1.9004-0.2667-0.36667-0.5167-0.48294-0.75-0.34961-0.1667 0.13333-0.23252 0.28255-0.19922 0.44922 0.033 0.03333 0.1167 0.16706 0.25 0.40039 1.1333 1.6 2.4492 3.0826 3.9492 4.4492 2.1667 1.9666 4.4845 3.55 6.9512 4.75 0.1 0.03333 0.54961 0.36668 1.3496 1 0.1667 0.13333 0.30039 0.30001 0.40039 0.5 0.1 0.23333 0.11748 0.4 0.0508 0.5-0.1667 0.2-0.39922 0.31628-0.69922 0.34961-0.2667 0.03333-0.5167-0.03255-0.75-0.19922-0.6-0.4-1.85-1.0841-3.75-2.0508-1.5667-0.83332-2.7663-1.5833-3.5996-2.25-1.5667-1.3-2.65-2.4318-3.25-3.3984-0.1-0.2-0.20078-0.33372-0.30078-0.40039-0.1-0.16667-0.24922-0.26745-0.44922-0.30078 0.067 0.56667 0.13252 0.9 0.19922 1 0.8 1.7 2.4512 3.3667 4.9512 5 1.2666 0.8 3.1988 1.9163 5.7988 3.3496 0.8 0.56665 1.0829 1.1171 0.84961 1.6504-0.2667 0.5-0.58252 0.6841-0.94922 0.55078-0.4333-0.23333-0.74922-0.4-0.94922-0.5-2.4333-1.1-4.8016-2.7338-7.1016-4.9004-0.3667-0.36667-0.83174-0.75039-1.3984-1.1504-0.033-0.03333-0.084-0.04883-0.15039-0.04883-0.1 0-0.16787 0.0155-0.20117 0.04883-0.2 0.2-0.18292 0.39961 0.0508 0.59961 2.7333 3 5.2508 4.9845 7.5508 5.9512 1.5333 0.59999 2.4829 1.35 2.8496 2.25 0.2 0.29999 0.21553 0.55 0.0488 0.75-0.1667 0.19999-0.46514 0.23293-0.89844 0.09961-2.0667-0.46667-4.2683-1.5171-6.6016-3.1504-1.7666-1.3-3.2667-2.7826-4.5-4.4492-1.1-1.5667-1.9333-3.0841-2.5-4.5508-0.7333-2.0666-1.0821-3.7333-1.0488-5 0.033-0.56665 0.084-1.0337 0.15039-1.4004 0.033-0.23333 0.0656-0.43294 0.0996-0.59961 0.067-0.19999 0.13252-0.38216 0.19922-0.54883 0.1-0.23333 0.21631-0.4504 0.34961-0.65039 0.2-0.33333 0.43447-0.65118 0.70117-0.95117 0.9667-0.76665 1.9667-1.35 3-1.75 0.2-0.1 0.41709-0.18333 0.65039-0.25l0.19922-0.25c0.067-0.03333 0.0996-0.08177 0.0996-0.14844l0.0996-0.10156c0.1333-1.2 0.11777-2.4151-0.0488-3.6484-0.2333-1.5666-0.71787-3.0008-1.4512-4.3008-0.5333-0.96665-1.1321-1.8833-1.7988-2.75-0.1-0.03333-0.1833-0.05078-0.25-0.05078l-0.30078 0.20117v0.75c1.3 2.2 1.9996 3.6322 2.0996 4.2988 0.8 1.6333 0.98408 3.2012 0.55078 4.7012-1.4 0.43332-2.5492 1.1504-3.4492 2.1504-0.3333 0.36667-0.65117 0.74844-0.95117 1.1484-0.2 0.29999-0.38213 0.61784-0.54883 0.95117-0.1 0.19999-0.20078 0.41706-0.30078 0.65039-0.1333 0.36667-0.2167 0.74844-0.25 1.1484-0.1 0.53332-0.15039 1.0837-0.15039 1.6504 0.067 2.1 0.53369 4.0341 1.4004 5.8008 1.4333 2.9333 3.0496 5.2163 4.8496 6.8496 2.6667 2.5333 5.5175 4.2504 8.5508 5.1504 0.4333 0.13332 1.4333 0.3155 3 0.54883 0.2333 0.03333 0.49883 0.1845 0.79883 0.45117 0.1667 0.13332 0.4167 0.3659 0.75 0.69922 1.3 1.1333 3.1004 1.9337 5.4004 2.4004-1.5 0.96665-2.6163 1.583-3.3496 1.8496-0.4667 0.13333-0.69922 0.40078-0.69922 0.80078 0 0.16665 0.066 0.28294 0.19922 0.34961 0.1 0.03333 0.24922 0.06628 0.44922 0.09961 0.1333 0.06667 0.3833 0.13451 0.75 0.20117 0.3 0.06667 0.43369 0.21589 0.40039 0.44922-0.0979 0.5222-0.50071 0.85859-1.1738 1.0293-0.0386 0.0173-0.0823 0.02402-0.12109 0.04102-0.049 0.01233-0.0926 0.0293-0.1543 0.0293l-6.3496 1.25c-0.933 0.23328-1.9683 0.53371-3.1016 0.90038l-0.44922 0.15039c-0.5 0.19999-0.81592 0.68256-0.94922 1.4492-0.0916 0.30525-0.29125 0.48607-0.55078 0.5957-0.11744-0.0196-0.21981-0.0197-0.37695-0.0898-0.0584-0.1121-0.11582-0.21772-0.17383-0.30469-0.2-0.46665-0.66514-0.7845-1.3984-0.95117-0.69999-0.16665-1.3667-0.1492-2 0.05078-0.4667 0.13332-0.90078 0.3-1.3008 0.5-0.56336 0.24855-0.91088 0.64626-1.3672 0.96875-0.11344-6.4e-4 -0.23255-0.0296-0.33399 0.0312-0.085 0.0531-0.0955 0.23137-0.16016 0.31836-0.27162 0.22719-0.66234 0.3722-0.88867 0.63086-0.2667 0.26667-0.54961 0.26667-0.84961 0-0.2333-0.2-0.21777-0.48294 0.0488-0.84961 1.0333-1.4333 2.2175-2.4004 3.5508-2.9004 0.5333-0.19999 1.0992-0.31628 1.6992-0.34961 0.3333 0 0.86827-0.08333 1.6016-0.25 0.6667-0.16667 1.1821-0.25 1.5488-0.25 0.6667 0 1.5-0.05039 2.5-0.15039l2.75-0.34961c0.1667-0.06667 0.25-0.16745 0.25-0.30078 0-0.06667-0.0326-0.1151-0.0996-0.14844-0.067-0.06667-0.20039-0.11706-0.40039-0.15039-2.2-0.4-4.3492-1.4834-6.4492-3.25-2.6333-2.2333-4.3679-3.7663-5.2012-4.5996-2.2333-2.2-3.9833-4.4849-5.25-6.8516-0.9333-1.7-1.7996-3.9985-2.5996-6.8984-0.2-0.66665-0.41709-1.6008-0.65039-2.8008-0.2667-1.2667-0.48174-2.1833-0.64844-2.75-0.067-0.36667-0.13447-0.71746-0.20117-1.0508-0.1332-0.66664-0.24961-1.2655-0.34961-1.7988l-0.0996-0.30077c-0.03299-0.13332-0.05077-0.24961-0.05077-0.34961-0.033-0.1-0.0488-0.18333-0.0488-0.25h-0.10156c-0.033-0.1-0.0656-0.18333-0.0996-0.25v-0.05078c-1.9333-3.7333-3.1504-6.183-3.6504-7.3496-0.1333-0.33332-0.24961-0.64923-0.34961-0.94922-0.1333-0.46667-0.24961-0.95118-0.34961-1.4512-0.2-0.99999-0.30078-2.033-0.30078-3.0996v-0.19922c0.033-1.7 0.25039-3.1671 0.65039-4.4004 0.2667-0.79999 0.6-1.4996 1-2.0996 0.3-0.4 0.61787-0.76628 0.95117-1.0996 0.6-0.53332 1.2821-0.95 2.0488-1.25 1.2661-0.4331 2.4998-0.66765 3.6992-0.70117zm51.25 1.4883c0.8333-0.0083 1.6667 0.12878 2.5 0.41211 0.033 0 0.082 0.01745 0.14844 0.05078 1.7667 0.63333 3.0341 1.7651 3.8008 3.3984 0.2 0.49999 0.34922 1.0349 0.44922 1.6016 0.033 0.2 0.16709 0.29883 0.40039 0.29883 1.4-0.06667 2.5996 0.28412 3.5996 1.0508 2.6686 2.4227 3.8489 5.5895 2 8.7988-1.3333 1.7666-3.3159 2.5671-5.9492 2.4004l-0.34961-0.09961 0.19922-0.30078 2.5508-2.0488c0.3-0.26667 0.68369-0.73374 1.1504-1.4004 0.033-0.06667 4e-5 -0.26629-0.10156-0.59961l-0.44922 0.19922c-1.8667 1.6-3.2504 2.8171-4.1504 3.6504-0.1333 0.06667-0.24961 0.04922-0.34961-0.05078-0.067-0.06667-0.0492-0.16551 0.0508-0.29883 1.4666-2 2.4317-3.5834 2.8984-4.75 0.067-0.2 0.18486-0.36668 0.35156-0.5 0.1-0.1 0.16592-0.20078 0.19922-0.30078v-0.04883c-0.033-0.16667-0.0508-0.30039-0.0508-0.40039 0-0.2-0.083-0.30078-0.25-0.30078-0.067 0-0.18291 0.16668-0.34961 0.5l-3.4492 5.25c-0.1333 0.2-0.3 0.23294-0.5 0.09961-0.2667-0.2-0.4333-0.29883-0.5-0.29883-0.2-0.03333-0.18447-0.16706 0.0488-0.40039l0.45117-0.75c0.5667-0.89999 1.0821-2.1171 1.5488-3.6504 0.2333-0.73332 0.45039-1.5492 0.65039-2.4492 0.033-0.23333-0.066-0.46784-0.29883-0.70117-0.3 0.29999-0.4667 0.48411-0.5 0.55078-0.2333 0.63332-0.53369 1.4996-0.90039 2.5996-0.1667 0.5-0.35078 1.0329-0.55078 1.5996-0.1333 0.39999-0.33291 0.81667-0.59961 1.25-0.1667 0.36665-0.46709 0.90158-0.90039 1.6016-0.1 0.16667-0.23369 0.2151-0.40039 0.14844l-0.39841-0.19922c-0.2-0.03333-0.21708-0.2-0.0508-0.5l0.69922-1.9004c0.2-0.73332 0.38408-1.4 0.55078-2 0.2333-0.89999 0.4-1.6655 0.5-2.2988 0.067-0.39999 0.067-1.2333 0-2.5 0-0.23333-0.11631-0.3845-0.34961-0.45117-0.067 0-0.15 0.13372-0.25 0.40039-0.2 1.9333-0.48291 3.5496-0.84961 4.8496-0.1667 0.5-0.3333 0.96706-0.5 1.4004l-0.85156 2.8496c-0.1333 0.56667-0.53252 0.80117-1.1992 0.70117-0.1667 0-0.21709-0.10078-0.15039-0.30078 0.1-0.26667 0.15039-0.45078 0.15039-0.55078 0.3333-1.2667 0.55039-2.2318 0.65039-2.8984l0.19922-1.2012c0.1667-1.3 0.21709-2.5326 0.15039-3.6992-0.067-1.1333-0.21592-1.9008-0.44922-2.3008-0.1-0.26665-0.21826-0.35-0.35156-0.25-0.1667 0.06667-0.25 0.21784-0.25 0.45117 0.2 1.9333 0.16739 3.8655-0.0996 5.7988-0.033 0.06667-0.0488 0.11706-0.0488 0.15039l-0.15039 0.94922c-0.16682 0.96665-0.46711 2.4008-0.90041 4.3008-0.5-0.43333-0.71709-1.0496-0.65039-1.8496 0.1667-0.89999 0.25-1.4678 0.25-1.7012l-0.0508-0.75c0-0.36667-0.0178-0.73294-0.0508-1.0996-0.1-1.7666-0.31709-3.2667-0.65039-4.5l-0.34961-0.29883c-0.033 0.1-0.099 0.21628-0.19922 0.34961 0.1 1.7666 0.16592 2.7492 0.19922 2.9492 0.1 0.43333 0.16592 0.93335 0.19922 1.5 0 0.36667-0.0158 0.76785-0.0488 1.2012v2.25c0 0.13333-0.10078 0.31551-0.30078 0.54883-0.067-0.1-0.3167-0.16588-0.75-0.19922-0.3667 0-0.5333-0.16668-0.5-0.5l0.0996-1.7012c0-0.1-0.048-0.63296-0.14844-1.5996-0.067-0.43332-0.15-0.96629-0.25-1.5996l-0.30078-0.84961c-0.1-0.4-0.16592-0.63451-0.19922-0.70117-0.1-0.23333-0.28408-0.28177-0.55078-0.14844-0.2667 0.1-0.35 0.29961-0.25 0.59961 0.033 0.16665 0.13408 0.39923 0.30078 0.69922 0.1667 0.56667 0.28291 1.2333 0.34961 2 0.067 0.63333 0.10156 1.333 0.10156 2.0996l0.0508 1.2012c0 0.06667-0.31787 0.09961-0.95117 0.09961-0.1667 0.03333-0.25-0.03255-0.25-0.19922v-0.15039c-0.033-0.89999-0.23291-1.9175-0.59961-3.0508-0.1333-0.46665-0.3-0.96667-0.5-1.5-0.1333-0.33332-0.19922-0.51549-0.19922-0.54883-0.1333-0.2-0.3-0.2349-0.5-0.10156-0.2333 0.13333-0.30117 0.3504-0.20117 0.65039 0.033 0.16667 0.1167 0.40118 0.25 0.70117l1 4.2988-0.0488 0.05078c-0.1 0.16665-0.33447 0.3159-0.70117 0.44922-0.1333 0.03333-0.23213-0.08294-0.29883-0.34961-0.4333-1.3-1.1833-2.4667-2.25-3.5-0.033-0.06667-0.068-0.11706-0.10156-0.15039-0.2-0.19999-0.38213-0.21548-0.54883-0.04883l-0.0508 0.04883c-0.1667 0.23333-0.11631 0.48335 0.15039 0.75 0.7 0.63333 1.4171 1.8175 2.1504 3.5508v0.5l-0.70117-0.30078c-1.4666-0.49999-2.4163-0.93216-2.8496-1.2988-1.2-0.99999-1.8821-2.0679-2.0488-3.2012v-0.04883c-0.1-1.6 0.13252-2.7841 0.69922-3.5508 0.5333-0.76665 1.5992-1.3675 3.1992-1.8008 0.8-0.23333 1.7167-0.23333 2.75 0 0.4667 0.1 0.76709-0.03177 0.90039-0.39844 0.1-0.46665 0.16787-0.8 0.20117-1 0.7-2.1 2.1167-3.5167 4.25-4.25 0.8333-0.29999 1.6667-0.45456 2.5-0.46289zm-19.852 2.9629c0.4333 0 0.70078 0.0155 0.80078 0.04883 0.1667 0.13333 0.11631 0.40078-0.15039 0.80078-0.1 0.16665-0.1833 0.41667-0.25 0.75-0.033 0.43332-0.0656 0.69883-0.0996 0.79883-0.2 0.66665-0.3667 0.96706-0.5 0.90039-0.2333-0.06667-0.68291-0.08216-1.3496-0.04883-0.5333 0.06667-0.89961-0.0012-1.0996-0.20117-0.2667-0.23332-0.31709-0.56667-0.15039-1 0.067-0.19999 0.28369-0.56629 0.65039-1.0996 0.5-0.63332 1.2151-0.94922 2.1484-0.94922zm1.5508 0.29882c0.7667 0.66667 1.2163 1.2829 1.3496 1.8496 0.1333 0.56665 0.017 1.2682-0.34961 2.1016-0.067 0.13333-0.2333 0.3-0.5 0.5-0.067-0.1-0.26631-0.28412-0.59961-0.55078-0.3-0.23333-0.45117-0.48333-0.45117-0.75 0.1-0.69999 0.16787-1.2175 0.20117-1.5508 0-0.13333 0.083-0.38335 0.25-0.75 0.1333-0.3 0.16591-0.58294 0.0996-0.84961zm-10.4 1.7012c1.1667-0.03333 1.7829 0.56552 1.8496 1.7988 0.033 0.56667-0.14883 1.0008-0.54883 1.3008-0.3333 0.26665-0.75 0.38294-1.25 0.34961-0.4333 0-0.79961-0.14922-1.0996-0.44922-0.3667-0.29999-0.5333-0.71667-0.5-1.25 0.067-1.1333 0.58213-1.7167 1.5488-1.75zm-23.199 0.89844c-0.3 0.1-0.48408 0.18333-0.55078 0.25-0.2333 0.16666-0.3167 0.35078-0.25 0.55078l0.0996 0.34961c0.1 0.36667 0.21826 0.60117 0.35156 0.70117 0.2 0.16667 0.46553 0.25 0.79883 0.25l0.5-0.10156c0.2-0.1 0.31631-0.23177 0.34961-0.39844 0.033-0.26665-0.033-0.55158-0.19922-0.85156-0.067-0.3-0.18291-0.53255-0.34961-0.69922-0.2667-0.1-0.45078-0.11746-0.55078-0.05078zm-8.8496 0.10156-0.15039 1.6992-1.8496 0.09961c-1.2 0.1-2.3337 0.29961-3.4004 0.59961-0.5667 0.13333-1.1345 0.2845-1.7012 0.45117l-0.5 0.09961 0.5-0.40039 0.70117-0.59961c0.3333-0.2 0.6667-0.38412 1-0.55078 1.2333-0.6 2.3825-0.94883 3.4492-1.0488 0.6333-0.13333 1.2845-0.24961 1.9512-0.34961zm38.35 0.94922c1.6 0.13333 2.7996 0.46668 3.5996 1 0.4 0.33333 0.34961 0.53294-0.15039 0.59961-1.4333 0.33333-2.4837-0.03294-3.1504-1.0996zm-38.5 2.0508 0.15039 1.5996-4.4512-1.0996zm55.049 6.7988c0.9333-0.1 1.85 0.18294 2.75 0.84961 0.9 0.69999 1.3167 1.4675 1.25 2.3008-0.033 0.69999-0.39961 1.3163-1.0996 1.8496-0.7 0.53333-1.5004 0.78333-2.4004 0.75-0.6333 0-1.3659-0.3004-2.1992-0.90039-0.8333-0.6-1.25-1.1329-1.25-1.5996 0.033-1.1666 0.2833-2 0.75-2.5 0.4333-0.49999 1.1659-0.75 2.1992-0.75zm8 0.90039c0.9-0.06667 1.7837 0.33256 2.6504 1.1992 1 1.1 1 2.0012 0 2.7012-0.8 0.59999-1.7671 0.78216-2.9004 0.54883-0.9-0.13333-1.65-0.58294-2.25-1.3496-0.4333-0.53332-0.53213-1.0992-0.29883-1.6992 0.3-0.7 0.76709-1.0663 1.4004-1.0996zm-14.6 5.1992c0.6-0.03333 1.0845 0.1004 1.4512 0.40039 0.033 0 0.0656 0.01745 0.0996 0.05078 0.4 0.29999 0.59961 0.74962 0.59961 1.3496v0.44922c-0.1333 0.86665-0.73408 1.3337-1.8008 1.4004-0.9667 0-1.55-0.46707-1.75-1.4004-0.033-0.2-0.0488-0.43255-0.0488-0.69922-0.067-0.4 0.067-0.76629 0.40039-1.0996 0.3-0.26667 0.64883-0.41784 1.0488-0.45117zm-15.949 13.9c1.4333 1.7 2.7822 3.0333 4.0488 4-1.8666-0.56665-3.4655-1.2663-4.7988-2.0996-0.2667-0.13333-0.29931-0.24961-0.0996-0.34961 0.2667-0.13333 0.46631-0.36785 0.59961-0.70117zm35.5 0.15039c0.3 0 0.74961 0.01745 1.3496 0.05078 0.067 0 0.18291 0.08333 0.34961 0.25-0.4333 0.3-0.74922 0.89884-0.94922 1.7988s-0.48291 1.15-0.84961 0.75c-0.4667-0.53332-0.75156-0.78333-0.85156-0.75-0.033 0-0.21553-0.09883-0.54883-0.29883-0.5-0.29999-0.63369-0.55-0.40039-0.75 0.1333-0.13333 0.36592-0.3 0.69922-0.5 0.3-0.33332 0.70117-0.51746 1.2012-0.55078zm2.4492 0.65039c0.4667 0.36665 0.74961 0.66706 0.84961 0.90039 0.6 1.4 0.46826 2.5996-0.39844 3.5996-0.2 0.26665-0.35117 0.41588-0.45117 0.44922-0.1667 0.03333-0.3333-0.13333-0.5-0.5-0.067-0.16665-0.18291-0.36628-0.34961-0.59961-0.2-0.23333-0.33369-0.4-0.40039-0.5 0.033-0.53332 0.33369-1.5508 0.90039-3.0508zm-4.8125 1.8125c0.125-0.075 0.3125-0.0125 0.5625 0.1875 0.8333 0.63332 1.3837 1.0655 1.6504 1.2988 0.5667 0.56665 0.96592 1.15 1.1992 1.75 0.1 0.26665 0.0842 0.43333-0.0488 0.5h-0.40042c-0.7667 0-1.4837-0.33335-2.1504-1-0.7-0.66667-1.0333-1.3663-1-2.0996 0-0.34999 0.062-0.56172 0.1875-0.63672zm-34.188 0.4375c0.1667-0.06667 0.31787-0.06667 0.45117 0 0.1 0.06667 0.23174 0.1655 0.39844 0.29883 0.7333 0.49999 1.9 0.96707 3.5 1.4004 0.2 0.06667 0.75039 0.20039 1.6504 0.40039 0.6667 0.13333 1.1667 0.3 1.5 0.5 1.3333 0.93332 2.5 1.6659 3.5 2.1992 0.2333 0.13333 1.1345 0.55 2.7012 1.25l-0.0508 0.15039c-1.9-0.29999-3.3341-0.55-4.3008-0.75-0.8667-0.16665-1.8821-0.48256-3.0488-0.94922-1.3333-0.56667-2.3333-0.98335-3-1.25-1.1333-0.43333-2.2341-0.98374-3.3008-1.6504-0.2667-0.16667-0.31709-0.41667-0.15039-0.75 0.1667-0.4 0.21709-0.68296 0.15039-0.84961zm-0.25 2.5996 0.25 0.05078c2.1667 1.3667 4.6337 2.4985 7.4004 3.3984 1.9 0.63332 3.4659 0.95117 4.6992 0.95117 0.7333 0.03333 1.8341-0.01706 3.3008-0.15039 0.3333-0.03333 0.89922 0.03255 1.6992 0.19922 0.9 0.2 1.6171 0.30078 2.1504 0.30078-3.6 0.93332-6.3655 1.317-8.2988 1.1504-0.7-0.06667-1.5683-0.21784-2.6016-0.45117-1.6666-0.4-2.5329-0.59961-2.5996-0.59961-1.7667-0.36665-3.5671-1.3337-5.4004-2.9004-0.2333-0.2-0.34961-0.51589-0.34961-0.94922 0-0.5-0.083-0.83334-0.25-1zm-9.25 9.8008c0.2667-0.03333 0.95078 0.33294 2.0508 1.0996 0.1333 0.06667 0.19922 0.11706 0.19922 0.15039-0.033 0.03333-0.13213 0.04883-0.29883 0.04883-1.5 0.06667-2.6183 0.15-3.3516 0.25-0.1667 0.03333-1.0659 0.20001-2.6992 0.5-0.1333 0-0.28252 0.01745-0.44922 0.05078 0.1333-0.2 0.28252-0.36668 0.44922-0.5v-0.34961h0.40039c0.8667-0.63332 2.0992-1.05 3.6992-1.25zm8.6406 6.2637c-0.51481 0.40718-1.0895 0.8454-1.5742 1.2363 0.50807-0.43125 1.0286-0.84803 1.5742-1.2363zm24.234 4.2109c0.8833-0.0833 1.7583-0.0262 2.625 0.17383 1.7333 0.4 3.2333 1.3167 4.5 2.75 1.0333 1.1667 1.5333 2.4516 1.5 3.8516 0 0.56667 0.26748 0.78177 0.80078 0.64844 1.1333-0.33333 2.3504-0.23255 3.6504 0.30078 1.2666 0.53333 2.1988 1.3337 2.7988 2.4004 1.5667 2.8333 1.0163 4.9671-1.6504 6.4004-0.3 0.16667-1.0829 0.39922-2.3496 0.69922-0.6 0.16667-1.0321-0.0329-1.2988-0.59961-0.1-0.23333-0.28408-0.45039-0.55078-0.65039-0.7333-0.46667-0.93291-0.91628-0.59961-1.3496 0.1667-0.23333 0.5-0.58411 1-1.0508 0.7667-1 1.2667-1.8004 1.5-2.4004 0.1333-0.3 0.10069-0.49961-0.0996-0.59961-0.1-0.0667-0.2667 0.0167-0.5 0.25l-2.9512 3.8496c-0.3333-0.0333-0.59883-0.0488-0.79883-0.0488 0.7667-1.1 1.4992-2.7008 2.1992-4.8008 0.1667-0.43333 0.10078-0.69883-0.19922-0.79883-0.1333-0.0333-0.23408 0.0151-0.30078 0.14844-0.067 0.16667-0.11709 0.28489-0.15039 0.35156-0.2 0.66667-0.5333 1.4496-1 2.3496-0.2333 0.53333-0.61709 1.2988-1.1504 2.2988l-0.0996 0.15039c-0.1333 0.13333-0.33291 0.18372-0.59961 0.15039-0.4333-0.0333-0.66592-0.0508-0.69922-0.0508l0.1992-0.44923 0.30078-0.90039c0.8333-2.4667 1.3333-3.9492 1.5-4.4492 0.033-0.23333 0.0162-0.43294-0.0508-0.59961-0.1333-0.2-0.33291-0.10117-0.59961 0.29883l-0.34961 0.70117-2 5.4492c-0.067 0.16667-0.21787 0.28294-0.45117 0.34961-0.2 0.0667-0.39961 0.0667-0.59961 0-0.1333-0.0667-0.16601-0.1655-0.0996-0.29883 0.1-0.13333 0.15039-0.25156 0.15039-0.35156l0.59961-2.3496c0.4333-1.5 0.65039-2.75 0.65039-3.75 0.1-0.4 0.16592-0.70039 0.19922-0.90039 0.1-0.7-7.8e-4 -1.0488-0.30078-1.0488-0.2333 0-0.4 0.33333-0.5 1-0.1333 1.2333-0.43174 2.7159-0.89844 4.4492l-0.80077 3.0508c-0.1667 0.73333-0.39922 1.1655-0.69922 1.2988v-5.0996c-0.067-2.1333-0.15-3.7671-0.25-4.9004-0.033-0.2-0.2-0.61667-0.5-1.25-0.2333 0.23333-0.35156 0.3845-0.35156 0.45117-0.033 0.5-4e-5 1.0504 0.10156 1.6504 0.2333 1.1667 0.28174 2.7151 0.14844 4.6484l-0.19922 3.75c-0.2-0.43333-0.55078-0.68333-1.0508-0.75-0.1667-0.0333-0.26553-0.0992-0.29883-0.19922-0.033-0.0667-0.0508-0.23333-0.0508-0.5-0.067-0.46667-0.10156-1.1508-0.10156-2.0508 0-1.6667-0.14922-2.9167-0.44922-3.75-0.067-0.16667-0.13447-0.68216-0.20117-1.5488-0.067-0.33333-0.20039-0.5-0.40039-0.5-0.1667 0-0.25 0.16667-0.25 0.5 0.067 1.2333 0.21787 3.0822 0.45117 5.5488v1.6016c0 0.33333-0.083 0.5155-0.25 0.54883-0.4 0.0667-0.65-0.0671-0.75-0.40039-0.1333-0.5-0.23408-0.86628-0.30078-1.0996-0.5333-2.1667-0.96553-3.5833-1.2988-4.25l-0.85154-1.5996c-0.067-0.13333-0.2333-0.1506-0.5-0.0508-0.1667 0.0667-0.21514 0.20039-0.14844 0.40039 0.6667 1.4667 1.0833 2.4996 1.25 3.0996 0.3 0.93333 0.55 1.9178 0.75 2.9512l0.10156 0.69922c0.033 0.16667-0.083 0.30039-0.34961 0.40039-0.3 0.0667-0.51709 0.13255-0.65039 0.19922-0.1333 0.0667-0.20117 0.0182-0.20117-0.14844v-0.25c-0.6333-1.5-1.0325-2.4341-1.1992-2.8008-0.5333-1.0333-1.0992-1.8841-1.6992-2.5508-0.1333-0.16667-0.23408-0.28294-0.30078-0.34961-0.1333-0.13333-0.26709-0.13333-0.40039 0-0.1667 0.16667-0.20126 0.36628-0.10156 0.59961 0.067 0.13333 0.18291 0.3 0.34961 0.5 0.8333 1.2 1.4845 2.5333 1.9512 4 0.033 0.0667 0.16514 0.26823 0.39844 0.60156 0.1667 0.26667 0.21709 0.51667 0.15039 0.75l-0.25 0.44922c-0.067 0.0667-0.20039 7.8e-4 -0.40039-0.19922-0.7667-0.76666-1.3655-1.35-1.7988-1.75-0.7-0.66666-1.3512-1.1841-1.9512-1.5508-0.4-0.3-0.76631-0.51706-1.0996-0.65039-0.067-0.0333-0.16553-0.0333-0.29883 0-0.1 0-0.15039 0.0174-0.15039 0.0508-0.067 0.26667-0.016 0.46628 0.15039 0.59961l3.8496 3.3008c0.4 0.36667 0.61709 0.58177 0.65039 0.64844 0.1667 0.3 0.11631 0.65078-0.15039 1.0508l-0.30078 0.90039-2.1504 0.0996-0.59961-0.0996c-1.3-0.2-2.2825-0.39961-2.9492-0.59961h0.0488c-0.2-0.0667-0.39961-0.15-0.59961-0.25l-0.79883-0.5c-0.3-0.26667-0.58486-0.53411-0.85156-0.80078-0.3-0.36667-0.59844-0.71745-0.89844-1.0508-0.2-0.23333-0.3667-0.46589-0.5-0.69922h0.0508c-0.2-0.33333-0.3667-0.68411-0.5-1.0508-0.1-0.4-0.16592-0.83216-0.19922-1.2988 0-2.9667 1.1822-4.8329 3.5488-5.5996 1.6333-0.5 3.1334-0.36823 4.5 0.39844 0.7667 0.4 1.2667 0.55117 1.5 0.45117 0.2667-0.0667 0.5167-0.51628 0.75-1.3496 0.6333-2.0667 2.0849-3.6016 4.3516-4.6016 0.9-0.36667 1.7905-0.5905 2.6738-0.67383zm-53.25 6.4473c-0.32192 0.6605-0.64849 1.3252-0.85938 1.8789 0.0585-0.16691 0.0685-0.33522 0.13282-0.50195 0.19364-0.50205 0.49119-0.91203 0.72656-1.377zm29.176 2.5019c0.6 0.0167 1.1988 0.19206 1.7988 0.52539 0.033 0 0.084 0.0329 0.15039 0.0996l-1.0996 2-1.3496-0.84961c-0.8667-0.43333-1.3512-0.68333-1.4512-0.75-0.1667 0-0.28291-0.0174-0.34961-0.0508-0.1333-0.0667-0.1333-0.18294 0-0.34961 0.067-0.0667 0.2333-0.13255 0.5-0.19922 0.6-0.3 1.2008-0.44245 1.8008-0.42578zm2.6992 1.2754c0.5333 0.43333 0.85117 1.0167 0.95117 1.75 0.1667 1.1667-0.068 2.1008-0.70117 2.8008-0.4333-1-0.81709-1.6841-1.1504-2.0508-0.1667-0.2-0.19931-0.43255-0.0996-0.69922 0.1667-0.33333 0.26748-0.58333 0.30078-0.75 0.033-0.1 0.26592-0.45078 0.69922-1.0508zm-5.7988 0.40041c0.1-0.1 0.44883 0.0163 1.0488 0.34961 1.6667 0.73333 3 1.9504 4 3.6504l0.0996 0.25-0.29883-0.0508-5.3008-2c-0.1-0.0333-0.16592-0.11667-0.19922-0.25 0-0.23333-0.0168-0.38255-0.0508-0.44922 0.3333-0.83333 0.56787-1.3333 0.70117-1.5zm-27.633 0.35547c-0.0903 0.62623-0.12966 1.3314-0.13086 2.0977 0.0162-0.70012 0.0148-1.4004 0.13086-2.0977zm52.357 3.832c0.7167 8e-3 1.4405 0.16289 2.1738 0.46289 0.8 0.36667 1.2845 0.98294 1.4512 1.8496 0.1667 0.8-0.23447 1.5655-1.2012 2.2988-0.4667 0.4-1.3 0.66745-2.5 0.80078-0.6333 0-1.1817-0.0659-1.6484-0.19922-0.7667-0.3-1.4333-0.8-2-1.5v-0.25c-0.1333-0.56666-0.068-1.0841 0.19922-1.5508 0.033-0.1 0.099-0.21628 0.19922-0.34961 0.4333-0.6 0.83447-0.98372 1.2012-1.1504 0.7-0.28333 1.4083-0.42044 2.125-0.41211zm7.625 0.51168c1.8-0.26667 3.2825 0.21784 4.4492 1.4512 0.4667 0.53333 0.65078 1.0663 0.55078 1.5996-0.2333 0.86667-0.9 1.4829-2 1.8496-1.7 0.56667-3.3996 0.31667-5.0996-0.75-0.2667-0.2-0.46826-0.48294-0.60156-0.84961-0.1-0.43333-0.19883-0.75117-0.29883-0.95117 0.2333-1.3667 1.2333-2.1496 3-2.3496zm9.1992 7.75c0.1667 0.0333 0.25 0.11667 0.25 0.25 0 0.1-0.0326 0.18333-0.0996 0.25-0.2333 0.33333-0.4 0.76745-0.5 1.3008-0.067 0.3-0.16748 0.73216-0.30078 1.2988-0.5333-0.16667-0.93252-0.28294-1.1992-0.34961-0.4667-0.13333-0.8833-0.18372-1.25-0.15039-0.3333 0-0.44961-0.16667-0.34961-0.5 0.2333-0.73333 0.68291-1.2992 1.3496-1.6992s1.3663-0.53372 2.0996-0.40039zm1.5 0.49999c0.1667 0.13333 0.43408 0.48411 0.80078 1.0508 0.1667 0.2 0.28291 0.4655 0.34961 0.79883 0.067 0.2 0.13252 0.48489 0.19922 0.85156 0.1 0.6-0.082 1.0496-0.54883 1.3496-0.1667 0.13333-0.38369 0.1003-0.65039-0.0996-0.2667-0.23333-0.48369-0.3845-0.65039-0.45117-0.6-0.23333-0.85-0.59961-0.75-1.0996 0.2667-0.6 0.41787-1.0341 0.45117-1.3008 0.2-0.93333 0.46553-1.2996 0.79883-1.0996zm-4.6992 2.9512c0.033 0 0.2833 0.0329 0.75 0.0996 1.6 0.36667 2.85 0.91706 3.75 1.6504 0.3 0.26667 0.35039 0.44883 0.15039 0.54883-0.3 0.1-0.4667 0.15039-0.5 0.15039-0.3 0.16667-0.58486 0.25-0.85156 0.25-0.9 0.0667-1.6829-0.0825-2.3496-0.44922-0.6667-0.36667-1.0833-0.90156-1.25-1.6016-0.1-0.43333 7.8e-4 -0.64844 0.30078-0.64844zm-68.6 2.5996c1.1667 0.0667 1.9167 0.59961 2.25 1.5996-0.067 0.43333-0.36709 0.58255-0.90039 0.44922-0.3667-0.0333-1.5179-0.2155-3.4512-0.54883-0.2333 0-0.3167-0.0678-0.25-0.20117 0.5-0.96667 1.2849-1.3988 2.3516-1.2988zm-2.5 2.4004c0.2 0.0333 0.51592 0.0818 0.94922 0.14844 0.7667 0.43333 1.4663 1.1678 2.0996 2.2012 0.033 0.0667 0.0182 0.11706-0.0488 0.15039-0.067 0-0.30117 0.0155-0.70117 0.0488-1.1667 0-1.9496-0.63373-2.3496-1.9004 0.033-0.3 0.0508-0.51511 0.0508-0.64844zm4.25 0.3496 0.64844 0.0996c-0.2333 0.73333-0.4833 1.2004-0.75 1.4004-0.2 0.1-0.3667 0.0671-0.5-0.0996l-0.89844-1.1504zm11.148 1.0996c1.3667-0.16667 2.8337 0.26745 4.4004 1.3008 1.4667 0.96667 2.5171 2.5151 3.1504 4.6484 0.1667 0.33333 0.35078 0.51745 0.55078 0.55078 0.1667 0 0.34883-0.0504 0.54883-0.15039l0.30078-0.0996c2.2333-1 4.4833-1.2674 6.75-0.80078 2.2333 0.46666 3.8496 1.4337 4.8496 2.9004 1.1667 1.7667 1.2675 3.6 0.30078 5.5-0.2 0.46667-0.58369 0.90078-1.1504 1.3008-0.2 0.16667-0.7 0.48255-1.5 0.94922-1.3333 0.8-2.9167 1.4512-4.75 1.9512-0.4 0.13333-0.75078 0.0325-1.0508-0.30078-0.3-0.43333-0.55-0.73372-0.75-0.90039-0.1667-0.13333-0.19931-0.35039-0.0996-0.65039 0.1333-0.3 0.2167-0.53255 0.25-0.69922 0.2-1 0.45-1.9341 0.75-2.8008 0.1-0.3 0.4333-1.0655 1-2.2988 0.1-0.2 0.05-0.36667-0.15039-0.5-0.1333-0.0667-0.23213-0.0667-0.29883 0-0.033 0.13333-0.068 0.19922-0.10156 0.19922-1.1333 2.1333-1.8155 4.0171-2.0488 5.6504-0.067 0.4-0.18291 0.54922-0.34961 0.44922-0.033-0.0333-0.26787-0.0992-0.70117-0.19922-0.3-0.0667-0.43369-0.21589-0.40039-0.44922 0.2-2.4667 0.8667-4.7845 2-6.9512 0.2-0.4 0.13408-0.68294-0.19922-0.84961-0.1333-0.0333-0.28252 0.11589-0.44922 0.44922-1.3667 2.4667-2.0333 4.6333-2 6.5 0 0.2-0.05 0.45-0.15039 0.75-0.1 0.13333-0.29961 0.18372-0.59961 0.15039-0.3333-0.0667-0.55039-0.0492-0.65039 0.0508l-0.0996-0.25v-1.2012c0.067-1.9 0.36514-3.7992 0.89844-5.6992 0.1667-0.43333 0.14922-0.70078-0.0508-0.80078h-0.15039c-0.1667 0-0.3333 0.16667-0.5 0.5-0.6333 1.8-0.98408 3.6333-1.0508 5.5v1.6016c0.033 0.36667-0.1333 0.63216-0.5 0.79883-0.4 0.1-0.68291 0.20078-0.84961 0.30078-0.1 0.0667-0.15039-1e-3 -0.15039-0.20117 0-0.3-0.0158-0.49961-0.0488-0.59961-0.1667-0.56667-0.25-1.4329-0.25-2.5996l0.0488-1.3496c0-0.5 0.13369-2.1841 0.40039-5.0508 0-0.4-0.0326-0.59961-0.0996-0.59961-0.1333 0.0333-0.28252 0.13411-0.44922 0.30078-0.1333 0.13333-0.2167 0.26511-0.25 0.39844-0.2333 2.0333-0.38447 4.1012-0.45117 6.2012v2.5c0.033 0.3 0.1167 0.76706 0.25 1.4004 0.1 0.53333 0.017 0.99844-0.25 1.3984l-0.0996 0.25-0.25 0.25c-0.3333-1.3-0.5833-2.2651-0.75-2.8984-0.3-1.1333-0.4667-2.1004-0.5-2.9004l-0.34961-6.5996c-0.033-0.16667-0.14961-0.25-0.34961-0.25-0.4 0.0333-0.55117 0.23294-0.45117 0.59961 0.033 0.53333 0.0656 1.6167 0.0996 3.25 0.033 1.3333 0.10117 2.3992 0.20117 3.1992 0.067 0.73333 0.15 1.2837 0.25 1.6504 0.3667 1.9667 0.7 3.2341 1 3.8008l-0.14845 0.19919c-0.1-0.16667-0.33252-0.33333-0.69922-0.5s-0.6167-0.36628-0.75-0.59961c-0.4-0.7-0.8167-2.0004-1.25-3.9004l-0.40039-1.5508c-0.1667-0.4-0.28291-0.94844-0.34961-1.6484-0.1-0.96666-0.16787-1.5171-0.20117-1.6504 0.033-0.3 0.0508-0.51706 0.0508-0.65039 0-0.26667-0.11631-0.38294-0.34961-0.34961-0.2333 0-0.36709 0.13372-0.40039 0.40039 0 0.13333 0.0148 0.34844 0.0488 0.64844 0.1 1.7333 0.38486 3.5512 0.85156 5.4512 0.1667 0.66667 0.48252 1.6667 0.94922 3v0.25c-0.1333-0.0333-0.40078-0.0333-0.80078 0-0.3333 0.0667-0.54844-1e-3 -0.64844-0.20117l-0.5-0.75c-0.8667-1.5-1.4675-2.8818-1.8008-4.1484l-0.75-2.1504c-0.067-0.1-0.16748-0.11727-0.30078-0.0508-0.3 0.13333-0.39883 0.35039-0.29883 0.65039 0.2667 0.66667 0.61553 1.6841 1.0488 3.0508 0.4 1.2 0.83408 2.1826 1.3008 2.9492 0.033 0.1 0.18252 0.29961 0.44922 0.59961 0 0.13333-0.099 0.2845-0.29883 0.45117-0.6333 0.4-1.1333 0.23333-1.5-0.5-0.6667-1.1667-1.8179-2.5-3.4512-4-0.3333-0.26667-0.5833-0.3345-0.75-0.20117-0.1333 0.13333-0.16591 0.26706-0.0996 0.40039 0.067 0.0667 0.16748 0.15 0.30078 0.25 1.4667 1.6667 2.6488 3.1008 3.5488 4.3008 0.3 0.46667 0.28447 0.86589-0.0488 1.1992-0.2 0.2-0.38408 0.53333-0.55078 1-0.2 0.53333-0.34922 0.88411-0.44922 1.0508-0.1667 0.33333-0.53291 0.53294-1.0996 0.59961-0.3333 0-0.65117-0.0504-0.95117-0.15039-1.0333-0.26667-1.6321-0.41589-1.7988-0.44922-0.6667-0.23333-1.2171-0.53372-1.6504-0.90039-1.5-1.2-2.4167-2.5508-2.75-4.0508-0.4-1.7333 0.13291-3.2992 1.5996-4.6992 1.0667-0.96667 2.4-1.4512 4-1.4512 0.5 0.0333 0.8333-0.05 1-0.25s0.18378-0.58177 0.0508-1.1484c-0.2-0.76666-0.18447-1.6 0.0488-2.5 0.1333-0.53333 0.43369-1.3182 0.90039-2.3516 1.1-2.4667 3.1659-3.8659 6.1992-4.1992zm26.701 2.3496c0.5667 0.0667 1.0337 0.41745 1.4004 1.0508 0.067 0.13333 0.21592 0.36589 0.44922 0.69922 0.1 0.26667-0.16748 0.41784-0.80078 0.45117-0.7 0-1.2659 0.21511-1.6992 0.64844-0.3333-0.23333-0.48252-0.51628-0.44922-0.84961 0-0.1 0.066-0.40039 0.19922-0.90039 0.1667-0.76667 0.46709-1.1329 0.90039-1.0996zm3.5488 3.0996c0.3333 0.0333 0.51748 0.15156 0.55078 0.35156 0.1 0.43333-0.26631 0.83255-1.0996 1.1992-1.0333 0.4-1.9345 0.34961-2.7012-0.15039l-0.69922-0.65041c0.4667-0.3 0.8-0.46667 1-0.5 0.2-0.0333 0.50039-0.0992 0.90039-0.19922 0.3333-0.0667 0.61631-0.0667 0.84961 0h0.30078c0.2 0 0.49844-0.0174 0.89844-0.0508zm-51.6 1.8516c0.6667 0.13333 0.86631 0.44922 0.59961 0.94922-0.3333 0.6-0.46514 0.95078-0.39844 1.0508l-0.10156 0.19918c0.067 0.96667-0.16592 1.4008-0.69922 1.3008-0.6667-0.3-1.1337-0.46667-1.4004-0.5-0.3667 0-0.64961-0.0174-0.84961-0.0508-0.3333-0.0333-0.48252-0.14961-0.44922-0.34961 0.1333-0.9 0.78252-1.6345 1.9492-2.2012zm1.8379 0.5c0.1917-0.0333 0.44502 0.0829 0.76172 0.34961 1 0.83333 1.5 1.8663 1.5 3.0996 0.033 0.26667-0.033 0.6-0.19922 1-0.067 0.2-0.21592 0.53333-0.44922 1-0.067 0.2-0.2333 0.13411-0.5-0.19922-0.4667-0.56666-0.90078-0.93489-1.3008-1.1016-0.7-0.26667-0.98291-0.69883-0.84961-1.2988 0.3-0.66667 0.43369-1.1667 0.40039-1.5-0.033-0.1-6.9e-4 -0.23372 0.0996-0.40039 0.1-0.2 0.15039-0.33372 0.15039-0.40039 0.067-0.33333 0.19502-0.5155 0.38672-0.54883zm47.863 2.4492c0.9667-0.2 1.8-0.0508 2.5 0.44922 0.2667 0.16667 0.28223 0.33333 0.0488 0.5-0.1 0.0667-0.40039 0.4-0.90039 1-0.3333 0.36667-0.64922 0.48489-0.94922 0.35156-1.4333-0.13333-2.3675-0.23411-2.8008-0.30078-0.2-0.0333-0.2833-0.11667-0.25-0.25 0.1333-0.16667 0.20117-0.26745 0.20117-0.30078 0.4667-0.73333 1.1837-1.2159 2.1504-1.4492zm-53.051 0.80078c2.4333 0.43333 4.3675 1.3655 5.8008 2.7988 0.033 0 0.099 0.11628 0.19922 0.34961-0.6333 0.33333-1.1159 0.55039-1.4492 0.65039h-1.3008c-0.8333 0.0333-1.6492-0.35039-2.4492-1.1504-0.7667-0.8-1.1175-1.6159-1.0508-2.4492 0-0.16667 0.083-0.23255 0.25-0.19922zm56.449 0.64844 0.55078 1.0508v0.59961c0.033 0.93333-0.24961 1.7163-0.84961 2.3496-0.5 0.53333-1.1841 0.91706-2.0508 1.1504-0.3 0.0667-0.3833-0.1155-0.25-0.54883 0.2333-1.3667 0.88447-2.7349 1.9512-4.1016 0-0.0333 0.21514-0.2 0.64844-0.5zm-5.5488 1.3008c0.2 0.0333 0.45 0.14961 0.75 0.34961 0.4 0.1 1.0163 0.15039 1.8496 0.15039 0.3333 0 0.4167 0.10078 0.25 0.30078-0.3667 0.43333-0.6167 1.1-0.75 2-0.033 0.53333-0.16709 0.79883-0.40039 0.79883-0.2 0.0333-0.46553-0.11589-0.79883-0.44922-0.5-0.43333-0.8333-0.75117-1-0.95117-0.3-0.4-0.41826-0.84961-0.35156-1.3496-0.1-0.63333 0.051-0.91628 0.45117-0.84961zm-18.5 3.4258c0.7167-0.0333 1.4492 0.14011 2.1992 0.52344 0.2333 0.13333 0.5667 0.31745 1 0.55078 0.4 0.2 0.68291 0.46745 0.84961 0.80078 0.2667 0.53333 0.28378 1.0818 0.0508 1.6484-0.2333 0.56666-0.61709 0.93489-1.1504 1.1016-2.1333 0.7-4.0325 0.64961-5.6992-0.15039-0.3-0.13333-0.55-0.48411-0.75-1.0508 0.2667-1.4 0.73369-2.2992 1.4004-2.6992 0.6833-0.45 1.3829-0.69128 2.0996-0.72461zm-8.1504 1.9238c0.6333-0.1 1.3659 0.18294 2.1992 0.84961 0.8 0.63333 1.2012 1.1837 1.2012 1.6504-0.033 0.53333-0.2 0.96745-0.5 1.3008-0.2 0.16667-0.5333 0.38372-1 0.65039-1.8 0.96667-3.4996 1.0655-5.0996 0.29883-0.4667-0.23333-0.76709-0.59961-0.90039-1.0996-0.1333-0.46667-0.068-0.94922 0.19922-1.4492 0.7-1.2333 2.0004-1.9678 3.9004-2.2012z"/>
 <g transform="translate(-447.2)">
  <path transform="translate(160.15,84.1)" d="m292.05-84.1c-3.3333 0-5 1.6667-5 5v158.2c0 3.3333 1.6667 5 5 5h93.201c3.3333 0 5-1.6667 5-5v-158.2c0-3.3333-1.6667-5-5-5zm8.3008 7.1992h76.6c4.6667 0 7 2.3333 7 7v139.8c0 4.6667-2.3333 7-7 7h-76.6c-4.6667 0-7-2.3333-7-7v-139.8c0-4.6667 2.3333-7 7-7z" fill="#ef1d1e"/>
  <path transform="translate(160.15,84.1)" d="m300.35-76.901c-4.6667 0-7 2.3333-7 7v139.8c0 4.6667 2.3333 7 7 7h76.6c4.6667 0 7-2.3333 7-7v-139.8c0-4.6667-2.3333-7-7-7z" fill="none" stroke="#000" stroke-width="1.2"/>
 </g>
</svg>
