<svg width="103.2" height="168.2" preserveAspectRatio="none" version="1.1" viewBox="0 0 103.2 168.2" xmlns="http://www.w3.org/2000/svg">
 <path d="m13.301 7.1992c-4.6667 0-7 2.3333-7 7v139.8c0 4.6667 2.3333 7 7 7h76.6c4.6667 0 7-2.3333 7-7v-139.8c0-4.6667-2.3333-7-7-7z" fill="#fff"/>
 <path d="m27.967 92.365-8.2207 5.9219 6.8066 5.7461 11.887-3.4043zm-5.8457 31.475-0.34375 8.7734 9.0352-0.0527-0.0254-8.4043zm41.377 1.0977-6.1426 9.4121 7.9102 2.2539 10.033-4.4629z" fill="#faea01"/>
 <path d="m12.1 44.199c-2.9277 0-5.1504 2.3123-5.1504 5.1016 0 2.7882 2.2237 5.0996 5.1504 5.0996 2.9266 0 5.1504-2.3113 5.1504-5.0996 0-2.7891-2.2225-5.1016-5.1504-5.1016zm15.75 15.65c-2.6535 0-4.9492 2.0872-4.9492 4.9004 0 2.7531 2.1471 4.9004 4.9492 4.9004 2.8088 0 4.9512-2.1566 4.9512-4.9004 0-2.8045-2.2914-4.9004-4.9512-4.9004zm57.951 21.4c9.2944 0.6366 7.1629-11.301 1.75-11.301-7.6844-1.0926-10.62 9.7839-1.75 11.301zm-75.301-1.9004c-2.7241 0-4.8008 2.1632-4.8008 4.75 0 2.5868 2.0766 4.75 4.8008 4.75 2.7241 0 4.8008-2.1632 4.8008-4.75 0-2.5868-2.0766-4.75-4.8008-4.75zm21.963 1.2871c-1.025-0.20833-2.1137-0.1875-3.2637 0.0625-0.9 0.23333-1.7818 0.53373-2.6484 0.90039-1.1667 0.56667-2.0504 1.4678-2.6504 2.7012-0.8 1.6667-1.3329 3.283-1.5996 4.8496-0.0333 0.13333-0.10117 0.23216-0.20117 0.29883-0.1 0.06667-0.21628 0.10156-0.34961 0.10156h-0.0508c-0.6-0.1-1.1833-0.20078-1.75-0.30078-2.5-0.43333-4.6822 0.21589-6.5488 1.9492-1.5333 1.4667-2.1012 3.2012-1.7012 5.2012 0.16667 0.89999 0.5 1.7488 1 2.5488 0.93333 1.5 2.3016 2.5175 4.1016 3.0508l0.0488 0.0508c0.0667 0.0333 0.1345 0.0818 0.20117 0.14844 0.0667 0.0667 0.0996 0.15 0.0996 0.25 0.0667 0.7 0.31667 1.3841 0.75 2.0508 1.1333 1.6333 2.8 2.5171 5 2.6504 0.6-0.16667 1.1659-0.40117 1.6992-0.70117s1.0333-0.66628 1.5-1.0996l0.0508-0.0488c0.16667-0.13333 0.38372-0.23411 0.65039-0.30078 0.1-0.0333 0.19883-0.0333 0.29883 0 0.1 0 0.18333 0.0504 0.25 0.15039 0.66667 1 1.6337 1.6492 2.9004 1.9492 2.5 0.43333 4.3837-0.4155 5.6504-2.5488l0.19922-0.20117h0.0508c0.0667-0.0333 0.13255-0.0488 0.19922-0.0488h0.0508c0.33333 0 0.68216 0.0329 1.0488 0.0996 1.7333 0.26667 3.3671 0.0671 4.9004-0.59961h0.0508c0-0.0333 0.0155-0.0508 0.0488-0.0508 0.23333-0.0333 0.50078-3.3e-4 0.80078 0.0996 0.1 0 0.18333 0.0504 0.25 0.15039 0.0667 0.1 0.0996 0.20078 0.0996 0.30078 0.0333 1.0667 0.31628 2.0492 0.84961 2.9492 0.76666 1.4333 1.8849 2.0167 3.3516 1.75h0.0996c0.33333-0.13333 0.61628-0.33294 0.84961-0.59961 0.66667-0.63333 1.3663-0.70117 2.0996-0.20117 0.1 0.0333 0.16784 0.11667 0.20117 0.25 0.1 0.33333 0.21628 0.68411 0.34961 1.0508 0.3 0.73333 0.78255 1.3671 1.4492 1.9004 0 0.0333 0.0175 0.0663 0.0508 0.0996 1.3667 1.2 2.9655 1.5992 4.7988 1.1992 0.63333-0.43333 1.2516-0.8655 1.8516-1.2988 0.86667-0.66667 1.3822-1.5174 1.5488-2.5508 0.16667-0.76667 0.0833-1.5322-0.25-2.2988-0.36667-0.83333-0.78333-1.6182-1.25-2.3516-0.46667-0.1-0.86589-0.24922-1.1992-0.44922 0-0.0333-0.0175-0.0508-0.0508-0.0508-0.36667-0.2-0.78333-0.39961-1.25-0.59961-1.3333-0.2-2.5504 0.0829-3.6504 0.84961-0.0333 0.0333-0.0663 0.0508-0.0996 0.0508-0.36667 0.2-0.7155 0.38411-1.0488 0.55078-0.2 0.16667-0.4345 0.25-0.70117 0.25-0.1 0-0.18333-0.0174-0.25-0.0508-0.1-0.0667-0.16589-0.15-0.19922-0.25-0.2-0.36667-0.41706-0.71745-0.65039-1.0508-0.3-0.4-0.65078-0.71589-1.0508-0.94922-0.93333-0.56667-1.8655-1.0163-2.7988-1.3496v0.0488c-0.1-0.0333-0.16784-0.0818-0.20117-0.14844l-0.04881-0.05076c-0.0667-0.0667-0.0996-0.15-0.0996-0.25s0.0155-0.18333 0.0488-0.25v-0.0508l1.0508-1.75 0.19922-0.19922h0.0508c0.0667-0.03333 0.13255-0.05078 0.19922-0.05078h0.0508c0.46667 0 0.94922-0.04844 1.4492-0.14844 1.5333-0.33333 2.2-1.2849 2-2.8516-0.03361-0.23334-0.08376-0.54922-0.15043-0.94922v-0.05078c-0.1-0.56667-0.39844-1.0163-0.89844-1.3496l-0.05078-0.04883c-1.2667-0.76666-2.6-0.81706-4-0.15039h0.0508c-0.1 0.03333-0.20078 0.04883-0.30078 0.04883h-0.0508c-0.1-0.03333-0.18333-0.08177-0.25-0.14844l-0.0996-0.10156c-0.66667-0.46667-1.3488-0.84844-2.0488-1.1484-1.3667-0.49999-2.7678-0.90117-4.2012-1.2012-0.13333-0.03333-0.23216-0.09922-0.29883-0.19922-0.0667-0.1-0.10156-0.20078-0.10156-0.30078 0.0333-0.76666 0.0333-1.5167 0-2.25-0.03341-0.56667-0.14962-1.0996-0.34962-1.5996-0.33333-0.76666-0.78294-1.4837-1.3496-2.1504-0.0333-0.03333-0.0508-0.06628-0.0508-0.09961-0.56667-0.66666-1.1829-1.2675-1.8496-1.8008-0.9-0.66667-1.8617-1.1042-2.8867-1.3125zm36.838 3.4141c-3.1346 0-5.8008 2.4698-5.8008 5.75 0 3.2249 2.5277 5.75 5.8008 5.75 3.2719 0 5.7988-2.5262 5.7988-5.75 0-3.279-2.6651-5.75-5.7988-5.75zm17.35 7.2988c-3.398 0-6 2.6915-6 5.9512 0 3.2588 2.6033 5.9492 6 5.9492 3.3969 0 6-2.6906 6-5.9492 0-3.2596-2.6019-5.9512-6-5.9512zm-58.9 3.9004 1.3008 0.09961c0.10433 0 0.1877 0.01745 0.25 0.05078 0.0897 0.06667 0.18854 0.09961 0.29883 0.09961h0.40039l1.5 0.44922 0.44922 0.25c0.0246 0.03607 0.0418 0.05348 0.0508 0.05078l0.55078 0.19922c0.45534 0.25703 0.8875 0.59036 1.2988 1 0.0759 0.07956 0.12629 0.18034 0.15039 0.30078 0.0373 0.08985 0.0702 0.15574 0.0996 0.19922 0.0581 0.06966 0.10849 0.12005 0.15039 0.15039 0.1168 0.04974 0.2001 0.11758 0.25 0.20117 8e-3 0.03308 8e-3 0.04857 0 0.04883 0.40925 0.65169 0.6593 1.3029 0.75 1.9512v0.0488c0.0743 0.38359-0.0594 0.68398-0.40039 0.90039-0.0173 7e-3 -0.0328 7e-3 -0.0488 0-0.30899 0.13386-0.59388 0.19974-0.85156 0.19922-0.27735-8e-3 -0.64362-0.0909-1.0996-0.25l-0.34961-0.25c-0.0607-0.0293-0.14401-0.0447-0.25-0.0488-0.0706-5e-3 -0.1539 0.0105-0.25 0.0488-0.2168 0.10976-0.55013 0.1931-1 0.25l-0.65039 0.10156-0.25-0.0508c-0.0594-0.0108-0.12522-0.0108-0.19922 0-0.0765 0.0423-0.14427 0.0927-0.20117 0.15039-0.24011 0.23553-0.47266 0.38472-0.69922 0.44922-0.05 0.0459-0.10039 0.0963-0.15039 0.15039l-0.0996 0.0996c-0.0172 0.0158-0.0347 0.0332-0.0508 0.0508-0.20729 0.26927-0.45729 0.41852-0.75 0.44922l-0.44925-0.09957-0.30078-0.19922c-0.0758-0.038-0.17461-0.0558-0.29883-0.0508-0.0848 4e-3 -0.1681 0.0375-0.25 0.0996l-0.15039 0.0996c-0.1194 0.066-0.26862 0.10089-0.44922 0.10156-0.14961-1.3e-4 -0.30078-0.0505-0.45117-0.15039-0.49544-0.26563-0.86172-0.69974-1.0996-1.3008-0.0115-0.0508-0.0444-0.10117-0.0996-0.15039-0.0583-0.0556-0.12617-0.10404-0.20117-0.14844l-0.14844-0.0508c-1.1059-0.46575-1.8733-0.96576-2.3008-1.5-0.26432-0.36667-0.26432-0.73294 0-1.0996 0.41681-0.56497 0.90365-1.0439 1.4492-1.4512l0.55078-0.25c0.0457-0.01914 0.0786-0.05208 0.0996-0.09961l0.40039-0.34955c0.50847-0.19844 1.0414-0.38255 1.5996-0.55078l-0.0488 0.05078 0.34961-0.05078h0.15039c0.0504 1.2e-4 0.0988-0.01537 0.14844-0.04883l0.35156-0.09961zm-9.8555 25.365c-12.608-6.7212-16.507 11.221-6.3438 12.984 0.23333 0.0667 0.44844 0.21784 0.64844 0.45117 0.76733 0.76733-1.8105 2.184-0.39841 6.3496 3.6903 8.0166 13.04 3.2686 14.825-1.3465 4.8068 7.2684 14.165 2.9894 12.925-4.3547-0.16667-0.63333-0.0175-1.1818 0.44922-1.6484 0 0 5.5615-0.57933 7.8277-3.1252 1.0956 5.0998 3.1211 7.758 8.7465 7.4222 1.2454 7.7578 15.354 2.1958 17.629 1.4706 0 0-2.29 9.3055 7.9023 7.5996 1.1225 12.601 15.414-1.9333 2.2538-2.4707l0.44143-4.6465c12.1-0.0336-0.0589-13.815-1.9068-2.5192l-5.3432-1.0315c-0.13333-0.0333-0.23411-0.0992-0.30078-0.19922-0.0667-0.1-0.0996-0.20078-0.0996-0.30078 0-0.3 0.11628-0.49961 0.34961-0.59961 11.824-6.2808 1.152-18.65-6.9004-13.85-0.17403-0.0754-0.36587-0.10025-0.54881-0.15037-1.4668-9.6619-14.524-7.868-13.4 2.5488 0 0.23333-0.0678 0.50078-0.20117 0.80078v-0.0508c-0.0773 0.94254-3.7465-1.6053-7.3812 2.2948 0 0-0.53148-6.3908-7.1009-7.8508 2.1822-5.9401-4.0771-7.8877-7.2608-4.7464-8.2063-11.198-19.224-1.422-16.812 6.9684zm75.805-4.666c-3.983 0.19251-5.4317 2.9616-5.3984 5.4512 0.0368 2.7527 1.835 5.5432 5.3984 5.4492 3.0152-0.0795 5.4004-2.3687 5.4004-5.4492 0-3.0871-2.3968-5.5963-5.4004-5.4512zm-67.6 8.3008h0.30078c1.2333 0 2.2159 0.39922 2.9492 1.1992 0.7 0.66666 0.98294 1.5504 0.84961 2.6504v0.0996c-0.0667 1.0667-0.4155 1.9504-1.0488 2.6504v0.0996c-0.66667 0.73333-1.5329 1.1849-2.5996 1.3516h-0.10156l-0.29883 0.0488c-0.13333 0-0.2845-0.0504-0.45117-0.15039h-0.14844l-0.0508-0.0488c-1-0.5-1.7326-0.93411-2.1992-1.3008-0.63333-0.7-0.9667-1.4655-1-2.2988-0.0667-1.2 0.29961-2.2 1.0996-3 0.7-0.76666 1.5992-1.2008 2.6992-1.3008zm40.051 4.0996c0.40742 3e-3 0.69036 0.021 0.84961 0.0508 0.0425 2e-3 0.0754 2e-3 0.0996 0 0.12474 3e-3 0.24102 0.0358 0.34961 0.0996 0.0875 0.034 0.1708 0.0514 0.25 0.0508h0.15039l0.34961 0.0488c0.58177 0.11862 1.1496 0.33568 1.7012 0.65039 0.016 0.0262 0.0315 0.0438 0.0488 0.0508 0.11487 0.0516 0.1982 0.13489 0.25 0.25 0.0363 0.0931 0.0867 0.15902 0.15039 0.19922 0.10065 0.0693 0.20138 0.10261 0.30078 0.0996 0.1056 8e-3 0.20443 0.0583 0.29883 0.15039 0.0158 0.0171 0.0332 0.0345 0.0508 0.0508 0.39831 0.30781 0.78203 0.70703 1.1504 1.1992 0.29191 0.39831 0.27448 0.76458-0.0508 1.0996 8e-3 0.0166 8e-3 0.034 0 0.0508-0.24153 0.30713-0.57487 0.48933-1 0.54883h-0.44922c-0.29375 3e-3 -0.52825-0.0454-0.70117-0.14844-0.10169-0.0438-0.21797-0.0613-0.34961-0.0508-0.0907 0.0178-0.1741 0.0682-0.25 0.15039-0.27578 0.25547-0.69245 0.4221-1.25 0.5 0 8e-3 -0.0155 8e-3 -0.0488 0l-0.20117 0.0488h0.0996l-0.39844 0.0508c-0.13021 0.0165-0.24843 0.0669-0.35156 0.15039-0.29597 0.38463-0.51107 0.65013-0.64844 0.79883l-0.10156 0.0508c-1e-4 0.0327-0.0156 0.0501-0.0488 0.0508-0.16485 0.17407-0.34896 0.27293-0.55078 0.29883-0.1306 0.0156-0.24688 0.066-0.34961 0.15039l-0.30078 0.34961v0.0508c-0.1487 0.18567-0.34831 0.28453-0.59961 0.29883l-0.5293-0.0957c0.0346 0.015 0.0441 0.032 0.0801 0.0469l-0.0996-0.0508 0.0195 4e-3c-0.44169-0.19164-0.79843-0.39172-1.0195-0.60352-0.0575-0.0571-0.12537-0.10749-0.20117-0.15039-0.0737-0.01-0.157-0.01-0.25 0l-0.29883 0.0508h-0.05079l-0.34961 0.0488-0.70117-0.14844c-0.059-0.0105-0.12492-0.0105-0.19922 0l-0.94922 0.14844c-0.47083-0.0234-0.8875-0.22305-1.25-0.59961-0.20917-0.23906-0.27677-0.50456-0.20117-0.79883v-0.051c0.11419-0.38463 0.28086-0.8013 0.5-1.25 9e-3 -8e-3 9e-3 -0.0253 0-0.0508 0.065-0.10625 0.16575-0.20513 0.30078-0.29883 0.0515-0.0407 0.0845-0.0911 0.0996-0.15039 0.0547-0.0543 0.0876-0.12022 0.0996-0.19922 0.0182-0.12643 0.0686-0.26016 0.15039-0.40039h0.0508c0.3612-0.47917 0.82631-0.94622 1.3984-1.4004 0.1931-0.0893 0.34427-0.13969 0.45117-0.15039 0.0799 3e-3 0.14582-0.0125 0.19922-0.0488 0.0966-0.0432 0.16447-0.11107 0.20117-0.20117 0.0956-0.1044 0.21185-0.1877 0.34961-0.25 0.38216-0.17903 0.89766-0.3457 1.5488-0.5l0.25-0.0488 0.20117 0.0488c0.14297 0.0225 0.25921-0.0104 0.34961-0.0996 0.11875-0.0538 0.21948-0.0867 0.30078-0.0996z" fill="#ef1d1e"/>
 <path d="m17.301 13.4c-0.35231 0-0.63377 0.19956-0.93555 0.3418-0.0881 0.03773-0.2903-0.04371-0.36523 0.0078-0.051 0.03643-0.0416 0.1182-0.0879 0.1582-0.033 0.0252-0.079 0.01378-0.11133 0.04102h-0.05077c-0.0874 0.09769-0.0399 0.34012-0.11133 0.45508-0.15715 0.25694-0.40286 0.44749-0.43945 0.79492-0.046 0.25167-0.0349 0.70828-0.0332 1.1328-4e-3 0.19353-0.12862 0.25703-0.11524 0.46875l0.0488 0.59961c0.13906 1.1137 0.13906 1.8792 0 2.2988-0.18203 0.854 0.0385 2.0449 0.21094 3.1953 0.0483 0.29338-0.047 0.68829 0.0391 0.95508 0.0208 0.06745 0.0267 0.26764 0.0469 0.33984 6e-3 0.02407-2e-3 0.03637 4e-3 0.06055l6e-3 0.0059c0.27309 0.99312 0.45892 2.7452 0.63281 4.6152 0.0335 0.49664 0.16124 1.1331 0.16016 1.5781v1.6328c-0.0131 1.1034-0.0246 2.1856-0.14844 4.918 0 0.46667-0.05 1.1663-0.15039 2.0996 0 0.6-0.0178 1.4837-0.0508 2.6504-0.0247 0.77247 0.0632 1.3573 0.15039 1.9434-2.7e-4 0.0012 3.6e-4 0.0049 0 0.0059l0.0391 0.78906c9e-3 0.148 0.0137 0.30194-0.0391 0.51172l-0.19947-0.050857-1.1504-0.69922c-1.3333-0.79999-2.8179-0.90078-4.4512-0.30078-1.9333 0.73332-3.1329 2.1016-3.5996 4.1016-0.3333 1.4667-0.13369 2.8155 0.59961 4.0488 0.6667 1.1 1.6667 1.9333 3 2.5 0.2333 0.13333 0.63447 0.24961 1.2012 0.34961 0.3667 0.2 0.33399 0.61667-0.0996 1.25-0.1 0.16667-0.13486 0.35078-0.10156 0.55078 0.033 0.23333 0.13408 0.36706 0.30078 0.40039 0.1333 0.03333 0.26709-0.05 0.40039-0.25 0.033-0.13333 0.099-0.31745 0.19922-0.55078 0.1-0.43332 0.1833-0.74923 0.25-0.94922 0.1333-0.36667 0.43369-0.56628 0.90039-0.59961 1.1503-0.0986 2.3338-0.85914 3.5488-2.2539l-4e-3 0.39648c-0.0125 0.23001 9e-3 0.41965-0.0957 0.75586l-0.0507 6.5508c0 0.96665 0.11631 2.3 0.34961 4 0.21891 1.5322 0.30767 2.4697 0.36914 3.2832 0.0567 0.79398 0.12506 1.6427 0.13867 2.2363 0.11402 3.6937 0.22788 6.9642 0.3418 8.9297 0.2 3.3999 0.26787 5.9349 0.20117 7.6016 0 0.05056 0.0226 0.20574 0.0254 0.26953-0.01 0.40659 0.0255 0.88886-0.0234 1.2305 2e-3 0.02409 2e-3 0.03958 0 0.04883-0.013 0.08061 0.0464 0.13216 0.043 0.20898-0.1523 0.48228-0.59251 0.72884-1.4453 0.64062-0.3-0.03333-0.68369 0.05-1.1504 0.25-0.6333 0.26665-1.0171 0.41784-1.1504 0.45117l-0.19922 0.25c-0.1 0.06667-0.1833 0.03372-0.25-0.09961-0.1667-0.26665-0.28291-0.48374-0.34961-0.65039-0.067-0.23333-7.8e-4 -0.45039 0.19922-0.65039 1.2667-1.1 1.9004-2.35 1.9004-3.75 0-1.4667-0.35078-2.6992-1.0508-3.6992-0.6667-0.93332-1.6492-1.5671-2.9492-1.9004-1.5667-0.36667-2.9-0.1496-4 0.65039-0.7333 0.6-1.2004 0.85-1.4004 0.75l-1-0.60156c-0.69084-0.40299-1.9799-0.79004-2.1504-0.44922 0.37302 0.84702 1.688 1.2249 2.5996 1.6504 0.1667 0.1 0.20156 0.24923 0.10156 0.44922-1.0667 2.0666-0.95039 4.0667 0.34961 6 0.5667 0.8 1.4504 1.4008 2.6504 1.8008 1.2333 0.39999 2.2992 0.41546 3.1992 0.04883 0.1-0.03333 0.21631-0.08177 0.34961-0.14844 0.1333-0.06667 0.23408-0.03372 0.30078 0.09961 0.3333 0.66665 0.44961 1.0833 0.34961 1.25-1.7333 2.2666-2.3341 4.6-1.8008 7 0.2 0.89999 0.75039 1.8167 1.6504 2.75 0.9333 0.99998 1.85 1.5659 2.75 1.6992l0.34961 0.0508c0.6 0 0.86748 0.18216 0.80078 0.54883-0.1 0.5-0.05 0.9845 0.15039 1.4512 0.067 0.16667 0.3167 0.58333 0.75 1.25 0.1333 0.16667 0.31553 0.41667 0.54883 0.75 0.15955 0.23933 0.22541 0.47932 0.27929 0.71875-0.014 0.0828-0.0806 0.13804-0.0762 0.23047l0.40039 3c9e-3 0.0561 0.0531 0.0641 0.0644 0.11719 0.0566 0.31807 0.10254 0.56698 0.1836 1.0332 0.033 0.63333-0.085 1.1992-0.35156 1.6992-1.3 2.2-1.7167 4.4345-1.25 6.7012 0.033 0.13333 0.0182 0.33294-0.0488 0.59961h-0.25c-1.8-0.93333-3.7341-1.2667-5.8008-1-1.1 0.13333-2.1988 0.61589-3.2988 1.4492-1.1333 0.86666-1.8679 1.8182-2.2012 2.8516-0.3333 1.1-0.5 2.0826-0.5 2.9492 0 1.3 0.31787 2.5674 0.95117 3.8008 1.1 2.2667 2.7492 3.5322 4.9492 3.7988l1 0.0508-0.5 0.94922c-0.6333 0.83333-0.94922 2-0.94922 3.5 0 1.4667 0.29844 2.6178 0.89844 3.4512 2 2.8 4.6841 3.9163 8.0508 3.3496 2.1667-0.36667 4.1337-1.5508 5.9004-3.5508 0.0533-0.0531 0.0872-0.14323 0.11914-0.23828 0.0937 0.16301 0.16071 0.33692 0.2832 0.48828 0.0354 0.0407 0.0509 0.0737 0.0488 0.0996l0.10351 0.1875c0.46596 1.0086 0.90082 2.2472 1.2442 4.1641 0.0114 0.0834 0.12299 0.17198 0.14257 0.25587 4e-3 0.0186 6e-3 0.0241 0.01 0.043 0.0327 0.13004 0.14313 0.18244 0.18359 0.30469 0.19752 0.54308 0.37755 1.0856 0.91407 1.6465 0.0377 0.0394 0.0756 0.0288 0.11328 0.0664 0.20421 0.19034 0.49411 0.29496 0.74414 0.43945 0.44804 0.30917 0.89608 0.73192 1.3438 0.79297 0.25558 0.0548 0.77211 0.10909 1.1777 0.16406 1.4149 0.23735 3.02 0.86664 4.7578 1.7656l1.6719 0.9414c1.3621 0.84095 3.1241 2.2034 5.2441 4.0352 0.43937 0.40353 0.69327 0.63135 1.248 1.1445 0.54568 0.4911 2.4491 2.4688 4.625 4.7461l37.178 0.35346c-1.1468-0.62828-1.878-1.2854-2.7109-1.9356-0.25824-0.22052-0.41073-0.32056-0.68945-0.56445-1.6333-1.4667-2.7012-2.4008-3.2012-2.8008-0.9-0.76667-2.1984-1.5496-3.8984-2.3496-0.3667-0.16667-0.95-0.34883-1.75-0.54883-0.43925-0.12811-0.65233-0.22164-0.96094-0.33008-0.5887-0.24109-1.0663-0.42193-1.8633-0.77734-0.86765-0.41505-1.8017-0.86574-2.3262-1.0938-0.47434-0.21346-0.82715-0.28986-1.2637-0.46094l-0.0859-0.0391c-0.16473-0.0549-0.22234-0.078-0.37305-0.12891-0.61189-0.22541-1.296-0.53259-1.8281-0.66992-0.12496-0.0312-0.10508-0.0946-0.16406-0.14062-0.0466-0.0752-0.0811-0.15741-0.0859-0.25977-6.6e-4 -0.0179 0.0104-0.0366 0.0117-0.0547 0.0411-0.0596 0.0456-0.0838 0.13867-0.19531 0.2333-0.36667 0.68291-0.96745 1.3496-1.8008 0.6-0.76667 1.0496-1.3829 1.3496-1.8496 0.6-1.0667 1.0167-1.9 1.25-2.5 0.30246-0.87724 0.35511-1.7362 0.27344-2.5859 3e-3 -0.18814 0.13898-0.37632 0.12695-0.56445-3e-3 -8e-3 -3e-3 -0.0234 0-0.0488l0.0508-0.40039c0.0114-0.0995-0.0664-0.16155-0.0723-0.25391 0.0582-0.065 0.057-0.18086 0.17188-0.19726 1.3667-0.16667 2.45-0.54844 3.25-1.1484l0.30078-0.0508 0.0488 0.34961c-0.4667 1.2667-0.44962 2.5167 0.0508 3.75 0.4667 1.1667 1.2671 2.1008 2.4004 2.8008 1.2666 0.8 2.4333 1.1159 3.5 0.94922l2-0.44922c0.067 0.1 0.067 0.18333 0 0.25-0.1 0.16667-0.11708 0.53294-0.0508 1.0996 0.1333 1.5333 0.85039 2.6496 2.1504 3.3496 1.2667 0.66667 2.6 0.68393 4 0.0508 1.0667-0.5 1.7663-1.4845 2.0996-2.9512 0.3-1.4333 0.033-2.5651-0.80078-3.3984-0.1333-0.13333-0.18174-0.21667-0.14844-0.25 0-0.0333 0.048-0.0837 0.14844-0.15039 0.6-0.4 1.2841-1.0996 2.0508-2.0996-0.033-0.4-0.0508-0.70039-0.0508-0.90039-0.2333 0-0.38252 0.0329-0.44922 0.0996-0.7333 0.83333-1.1829 1.3159-1.3496 1.4492-0.63305 0.63345-1.1004 0.90082-1.4004 0.80082-1.2667-0.4-2.3675-0.51628-3.3008-0.34961 0.4667-1.3333 0.55-2.6008 0.25-3.8008-0.033-0.16667-4e-5 -0.25 0.10156-0.25 0.067-0.0333 0.13252-0.0159 0.19922 0.0508 1.2667 0.43333 2.5671 0.19883 3.9004-0.70117 1-0.66667 1.4671-1.7151 1.4004-3.1484-0.067-1.4-0.58408-2.4349-1.5508-3.1016-1.3667-0.93333-2.7659-1.0322-4.1992-0.29883-1.4667 0.76667-2.1837 1.9992-2.1504 3.6992 0 0.0667 0.0148 0.15 0.0488 0.25-0.033 0.0667-0.13213 0.0512-0.29883-0.0488-2.2333-1.1-4.183-1.1349-5.8496-0.10156-0.5 0.33333-0.85078 0.43411-1.0508 0.30078-0.1667-0.1-0.25-0.45078-0.25-1.0508v-0.34961c0.033-0.0667 0.13408-0.0822 0.30078-0.0488 1 0.1 1.9496-0.0512 2.8496-0.45117 2.6-1.0667 4.0825-2.7663 4.4492-5.0996 0.16068-0.99601 0.69738-1.5829 1.5703-1.8047 0.0582-0.027 0.11714-0.0449 0.17969-0.0449 0.0781 1.3e-4 0.14596 0.0156 0.20117 0.0488h0.0488c0.22265 1e-3 0.40677-0.0645 0.55078-0.19922 0.0366-0.0399 0.0695-0.0728 0.0996-0.0996 0.14791-0.0657 0.53164-0.24985 1.1504-0.55078 0.0336-9e-3 0.0491-0.0243 0.0488-0.0488 0.63125-0.20273 1.1312-0.40429 1.5-0.60156 0.0634-0.0866 0.14673-0.15247 0.25-0.19922 0.1639-0.043 0.19127-0.1802 0.3164-0.25 0.27017-0.17849 0.52043-0.21398 0.73438 0 2.2 2.0333 4.5508 2.3667 7.0508 1 2.1-1.1667 3.1484-2.8508 3.1484-5.0508l-0.14844-1.3984c-0.6667-2.9333-2.5504-4.5341-5.6504-4.8008-1.7-0.13333-3.2 0.50039-4.5 1.9004-0.1 0.16667-0.20078 0.30039-0.30078 0.40039-0.1 0.13333-0.24922 0.1491-0.44922 0.0488-0.9333-0.4-1.6504-0.68294-2.1504-0.84961-0.8333-0.3-1.5833-0.41628-2.25-0.34961-0.2333 0.1-0.41748 0.16589-0.55078 0.19922 0.2333 0.23333 0.36709 0.34961 0.40039 0.34961 0.1 0.0333 0.41787 0.13411 0.95117 0.30078 0.3667 0.1 0.63213 0.21628 0.79883 0.34961l1.5996 0.45117c0.6 0.16667 0.81709 0.66667 0.65039 1.5-0.22837 0.98962-0.84046 1.558-1.6484 1.9102-0.5138 0.23692-1.1015 0.46484-2.2012 0.63867-0.65508 0.0604-1.1376 0.12824-1.4492 0.20117-0.0493 0.0321-0.0997 0.0475-0.15039 0.0488h-0.0508c-0.15517 0.026-0.18466 0.14302-0.31445 0.1875-0.0864 0.0271-0.20031 0.0342-0.28516 0.0625-0.2333 0.1-0.4 0.11727-0.5 0.0508-0.033-0.0333-0.1167-0.14961-0.25-0.34961-0.9333-1.5-2.3829-2.4671-4.3496-2.9004-2.5666-0.56681-4.7179-0.20039-6.4512 1.0996l-0.0996 0.0508c-0.033 0-0.0488-0.0678-0.0488-0.20117-0.3-1.6-0.56748-2.6155-0.80078-3.0488-0.1333-0.36667-0.19922-0.61667-0.19922-0.75-0.01-0.0911 0.10071-0.13393 0.1211-0.21289 0.0244-0.0213 0.0542-0.0134 0.0781-0.0371 0.0366-0.0399 0.0695-0.0748 0.0996-0.10156l1.6894-1.5449c0.10434-0.0889 0.18164-0.12089 0.28125-0.19922 1.2183-0.93605 2.444-1.6451 3.6797-2.0547 0.35152-0.11348 0.55636-0.31151 0.8418-0.46289 0.93706-0.34583 1.6931-0.85878 2.1074-1.6875 0.4667-0.96667 1.2341-2.1508 2.3008-3.5508 0.83353-1.1461 1.1018-1.5445 1.5312-2.1562 0.23878-0.28082 0.57125-0.62683 0.71875-0.84375h-0.0508l0.10156-0.14844h0.0488c0.22113-0.2964 0.28966-0.55287 0.39258-0.81836 0.11886-0.11335 0.24487-0.19099 0.4082-0.082 0.9 0.73333 2.0337 1.0337 3.4004 0.90039 1.1667-0.13333 2.25-0.51706 3.25-1.1504 1.1-0.7 1.8655-1.6341 2.2988-2.8008 0.3667-0.93332 0.5333-2.133 0.5-3.5996-0.033-0.4 0.11787-0.68296 0.45117-0.84961 1.3666-0.66667 2.3667-1.5175 3-2.5508 0.2-0.36665 0.23261-0.61667 0.0996-0.75-0.1333-0.1-0.24961-0.1-0.34961 0-0.1333 0.13333-0.23408 0.21667-0.30078 0.25l-0.90039 1.0508c-0.3667 0.39999-0.73291 0.63255-1.0996 0.69922-0.3333 0.26667-0.60078 0.45078-0.80078 0.55078-0.3 0.23332-0.56553 0.09961-0.79883-0.40039-0.5-1.1-1.4012-1.9837-2.7012-2.6504-1.4333-0.76665-2.8151-0.96628-4.1484-0.59961-0.5 0.13333-0.73447-0.05078-0.70117-0.55078 0.0152-0.18977-0.0117-0.28481 0-0.4668 0.0206-0.27461 0.17881-0.48632 0.15039-0.7832l-0.0508-2.5c-6.7e-4 -0.95039-0.0491-1.9155-0.14844-2.8984-3e-3 -0.03425-3e-3 -0.06914 0-0.10156l0.0488-0.59961c4.3e-4 -0.57421-0.0553-0.94395-0.12305-1.2715-0.0241-0.11377-2.2e-4 -0.18593 0.17188-0.12891 1.7 0.56665 3.3667 0.3341 5-0.69922 2.3-1.4667 3.3-3.583 3-6.3496-0.1333-1.2-0.65078-2.3163-1.5508-3.3496-0.9-1.0667-1.9155-1.7178-3.0488-1.9512-0.2333-0.03333-0.36709-0.11667-0.40039-0.25v-0.40039l0.15039-1.3496c0.067-0.39999-0.1-0.63255-0.5-0.69922-0.1333-0.03333-0.2167 0.03255-0.25 0.19922-0.033 0.1-0.068 0.23372-0.10156 0.40039-0.067 0.1-0.0818 0.45079-0.0488 1.0508 0.033 0.46667-0.2167 0.73216-0.75 0.79883-0.5 0.1-0.85078 0.1-1.0508 0-0.16452-0.05484-0.15438-0.3189-0.21875-0.49414 3e-3 -0.22449 0.0499-0.39154 0.0215-0.65625l-0.0508-0.54883c-3e-3 -0.03255-3e-3 -0.0655 0-0.09961 0.13279-1.352 0.20058-2.8694 0.20136-4.5509l0.19922-6.9004c0.13203-1.5531 0.16499-4.1035 0.0996-7.6504-0.0367-0.66797-0.25379-1.2997-0.65039-1.8984-0.13372-0.24238-0.48167-0.60733-0.7793-0.94336-0.0372-0.04368-0.0334-0.11566-0.0723-0.1582l-0.90039-1.0488c-0.3667-0.33333-0.73291-0.48451-1.0996-0.45117-0.0752 0.0094-0.13191 0.21616-0.20508 0.24609-0.33359 0.10572-0.6659 0.21622-0.94336 0.60547 0.0117 0.05365-4e-3 0.10208-0.0488 0.14844-0.0785 0.1426-0.089 0.47564-0.16016 0.63867-0.0279 0.06569-0.0643 0.04147-0.0918 0.11133-0.2333 0.63332-0.41748 1.4008-0.55078 2.3008-8e-3 0.06382-0.0208 0.21027-0.0293 0.28125-0.0673 0.41667-0.22082 0.59461-0.26758 1.0684v0.15039l-1.5977 18.301c-3e-3 0.0254-3e-3 0.02318-6e-3 0.04883-5e-3 0.04506-3e-3 0.06481-8e-3 0.10938l-0.38867 4.4414c-8e-3 0.07678 0.0797 0.09585 0.0859 0.16406-3e-3 0.26325-0.0404 3.443-0.0605 5.0977-6.7e-4 0.03567-0.0253 0.10386-0.0254 0.13867l-0.0117 2.7871c-0.02 1.6421-0.0133 1.1465-0.041 3.4121-0.0151 0.2586 0.0177 0.78727 0.0234 1.1641l-0.0137 3.3223c-0.0319 0.89281-0.10034 1.5904-0.0605 2.8633-0.0474 1.8881-0.18792 2.879-0.31836 3.9648-0.1209 0.98785-0.2795 1.8144-0.5 2.3711-0.15945 0.43726-0.37788 0.87524-0.6543 1.3125-0.36423 0.56974-0.74726 1.1384-1.2852 1.7012-0.0845 0.0896-0.18799 0.19576-0.28711 0.29883-0.0638 0.0422-0.12433 0.0914-0.20312 0.10156-0.11732 0.0131-0.2336-0.0198-0.34961-0.0996-0.0806-0.0513-0.14649-0.13463-0.19922-0.25l-0.0996-0.30078c7e-3 -0.0171 7e-3 -0.0326 0-0.0488-0.28021-1.3689-0.34804-2.3689-0.20117-3 0.0225-0.0089 0.04-0.0263 0.0508-0.05078 0.34102-0.78983 0.32477-1.4499 0-2-0.0104-0.01303-0.0284-7e-3 -0.0391-0.01953 0.0581-0.33819 0.12842-0.67137 0.38672-0.92969 2.1333-2.4333 2.3174-5.0845 0.55078-7.9512-0.4667-0.63333-0.81748-1.0984-1.0508-1.3984-0.39498-0.55954-0.60514-1.1201-0.64258-1.6797 8e-3 -0.24372 0.1556-0.37035 0.0937-0.67188v-0.04883l-0.13672-0.84375c-0.0686-1.4267-0.10879-3.2667-0.125-5.4531 0.0115-0.21206 0.0981-0.33679 0.0625-0.60352-1e-3 -0.0092-1e-3 -0.02669 0-0.05078-0.0451-0.08854-0.0625-0.18737-0.0508-0.29883 0.1944-1.1253 0.22929-2.5749 0.10156-4.3496l-0.0508-0.90039c-0.10182-1.0014-0.13476-1.8852-0.0996-2.6504 4e-3 -0.05619-0.0227-0.07962-0.0195-0.13477 0.0109-0.09563 7e-3 -0.44522 0.0195-0.51562 0.0375-0.20649-0.16556-0.45867-0.18359-0.67578-0.0621-0.53596-0.0234-1.1807-0.2168-1.5742-0.0754-0.13929-0.32569-0.16873-0.42188-0.29492-0.52231-0.72671-1.0731-1.2532-1.6777-1.4043-0.20388-0.04531-0.25032-0.02466-0.4082-0.05078-0.0672-0.0208-0.073-0.0803-0.14258-0.09961l-0.5-0.05078c-0.0526 0.0024-0.0938 0.04228-0.14453 0.05078-9.7e-4 1.56e-4 -5e-3 -1.6e-4 -6e-3 0-2e-3 1.63e-4 -2e-3 0.0037-4e-3 0.0039-0.19122 0.03369-0.38008 0.07442-0.54492 0.19531v0.05078c-0.19349 0.15338-0.30976 0.353-0.34961 0.59961-8e-3 0.03255-0.0251 0.05-0.0508 0.05078l-0.19922 0.75c-0.23646 1.0414-0.37018 1.8418-0.40039 2.4004-0.0299 1.4702 0.0863 3.4702 0.34961 6 0.0223 0.16321-0.0147 0.8233-0.0312 1.3164-0.0189 0.17798 7e-3 0.4147-0.0195 0.58203-0.0138 0.08275 5e-3 0.29077-6e-3 0.38281l-0.14258 2.3184c-0.0655 1.5579-0.1333 2.5076-0.20117 2.8496l-0.15039 3c-2e-3 0.03755 0.0505 0.02871 0.0508 0.06445 4e-3 0.07459-5e-3 0.1049 0 0.18555-0.067 0.43333-0.33408 0.73372-0.80078 0.90039-1 0.36665-1.7325 1.0004-2.1992 1.9004-0.067 0.2-0.20039 0.39961-0.40039 0.59961-0.1667 0.19999-0.30039 0.28333-0.40039 0.25-0.9-0.23333-1.5667-0.4-2-0.5-0.8-0.16667-1.4996-0.21706-2.0996-0.15039-0.033 0-0.18252 0.08333-0.44922 0.25l0.34961 0.34961 2.6992 0.59961c0.1667 0.06667 0.45156 0.1345 0.85156 0.20117 0.3 0.1 0.43174 0.23372 0.39844 0.40039-0.3667 1.2667-0.31631 2.5826 0.15039 3.9492 0.5 1.4 1.3004 2.433 2.4004 3.0996 0.4667 0.26667 0.74961 0.45078 0.84961 0.55078 0.15505 0.17722 0.16169 0.44676 0.19922 0.69726l-0.0488 4.9531c-0.0653 1.6176-0.16611 2.7843-0.30078 3.5-0.16236 0.75292-0.89966 2.0366-1.7168 3.3945-0.2649 0.42205-0.31247 0.7155-0.63867 1.1738l-0.33984 0.52539-4e-3 6e-3c-0.2532 0.38778-0.43232 0.649-0.63867 0.95703-0.39679 0.37313-0.87145 0.94245-1.4609 1.793l-0.55078 0.79882v0.0508c-0.0189 0.0258 0.0117 0.0578-4e-3 0.084-0.21185 0.25043-0.4424 0.61233-0.64648 0.81642-0.1333 0.16666-0.68174 0.61628-1.6484 1.3496-0.7333 0.53333-1.2508 1.0663-1.5508 1.5996-0.5667 0.90001-0.93291 1.8845-1.0996 2.9512-0.2 1.2333-0.051 2.2818 0.44922 3.1484 0.067 0.1 0.11709 0.26668 0.15039 0.5l-0.19922 0.0508c-1.5-0.53333-2.9341-0.66706-4.3008-0.40039-1.3667 0.3-2.3337 0.90078-2.9004 1.8008-0.1667-0.16667-0.25-0.41667-0.25-0.75 0-0.43333-0.0158-0.68333-0.0488-0.75-0.9-2.5-2.8012-4.3508-5.7012-5.5508-0.2 0-0.34922-0.0155-0.44922-0.0488-0.2-0.0333-0.25039-0.15156-0.15039-0.35157 0.5-1.1 0.43408-2.3984-0.19922-3.8984-0.5-1.0667-1.5175-1.8167-3.0508-2.25-1.5-0.40001-2.7171-0.25079-3.6504 0.44922-0.2333 0.29999-0.43291 0.51706-0.59961 0.65039-0.3 0.23332-0.58291 0.0822-0.84961-0.45118-0.5-0.93332-1.5679-1.9333-3.2012-3-0.2-0.16666-0.31631-0.39922-0.34961-0.69921-0.067-0.40001-0.11709-0.63255-0.15039-0.69922 0-0.13333 0.068-0.20117 0.20117-0.20117 0.9 0.0667 1.7663-0.0825 2.5996-0.44922 0.7667-0.3 1.3325-0.56745 1.6992-0.80078 0.5667-0.4 0.93486-0.9155 1.1016-1.5488 0.067-0.3 0.19844-0.45117 0.39844-0.45117l0.15039 0.0508c1.7667 0.6 3.883 0.33255 6.3496-0.80078 0.1 0.16666 0.1 0.33333 0 0.5-0.1 0.26667-0.14844 0.43333-0.14844 0.5 0.067 1.8333 0.76631 3.1512 2.0996 3.9512 0.6 0.4 1.2667 0.61511 2 0.64844 0.8 0.0333 1.4996-0.14883 2.0996-0.54883 0.7333-0.43333 1.1829-0.61745 1.3496-0.55078 0.1667 0.0667 0.3333 0.53372 0.5 1.4004 0.3 1.3 1.0171 2.2496 2.1504 2.8496 2.0333 1.0667 3.95 1.0336 5.75-0.0996 0.7667-0.46667 1.4333-1.2341 2-2.3008 0.6333-1.1333 0.85039-2.0984 0.65039-2.8984-0.1333-0.63332-0.45117-1.4337-0.95117-2.4004-0.2667-0.56667-0.96631-1.15-2.0996-1.75-1.1667-0.63333-2.0504-0.88333-2.6504-0.75-2.1333 0.46667-3.5984 1.3988-4.3984 2.7988l-0.04993-0.29912c-0.033-1.1333-0.43252-2.0674-1.1992-2.8008-0.7333-0.7-1.6675-1.0837-2.8008-1.1504-0.2333 0.1-0.43291 0.15039-0.59961 0.15039-0.3 0.0333-0.35039-0.16627-0.15039-0.5996 0.3-0.59999 0.48408-0.93334 0.55078-1 0.3333-0.33333 0.81592-0.46706 1.4492-0.40039 1.0333 0.1 1.8841-0.2159 2.5508-0.94922 0.7-0.8 0.95-1.8 0.75-3-0.067-0.43333 0.082-0.75117 0.44922-0.95117 0.9333-0.66667 1.7008-1.8159 2.3008-3.4492 0.2-0.36667 0.16514-0.59922-0.10156-0.69922-0.3-0.13333-0.48213-0.06745-0.54883 0.19922-0.4 1.0333-1.15 2.0663-2.25 3.0996-0.2333 0.23333-0.43291 0.23333-0.59961 0-0.6-0.76665-1.6504-1.2337-3.1504-1.4004-0.1 0-0.53408 0.18412-1.3008 0.55078-0.5333 0.26667-0.98291 0.11745-1.3496-0.44922-0.1333-0.23333-0.35039-0.4349-0.65039-0.60156-1.8333-1.1667-3.6822-1.4825-5.5488-0.94922 0.3333-1.4333 0.34883-2.8171 0.0488-4.1504-0.3667-1.6666-1.2-3.0833-2.5-4.25-1.1667-1.0333-2.7655-1.6826-4.7988-1.9492-2.0333-0.3-3.7504-0.10038-5.1504 0.59961 0.1333-1.1 0.065-2.7338-0.20117-4.9004-0.0609-0.26404-0.0852-0.38246-0.13672-0.60938l-0.11328-0.58984c-0.31393-1.5689-0.37982-2.7201-0.19922-3.4512 0.0663-0.18698 0.0992-0.55326 0.0996-1.0996-1e-3 -0.0085-0.0103-0.01114-0.0117-0.01953 0.0856-0.02064 0.16456-0.08757 0.26172-0.0293 1.0333 0.33333 2.0663 0.2655 3.0996-0.20117 0.3333-0.1 0.51748-0.06706 0.55078 0.09961 0.067 0.36665 0.18291 0.91707 0.34961 1.6504 0.1 0.63333 0.0674 1.1837-0.0996 1.6504-0.1667 0.56665-0.083 0.95039 0.25 1.1504 0.2 0.1 0.34922-0.01628 0.44922-0.34961 0.3667-0.93332 0.35117-2.3345-0.0488-4.2012-0.067-0.39999-7.8e-4 -0.6655 0.19922-0.79883 1.3333-1.1 2.0329-2.4683 2.0996-4.1016 0-2.4-1.0484-4.1151-3.1484-5.1484-1.6-0.76665-3.35-0.68332-5.25 0.25l-0.0859-0.80469c-0.0123-0.09821 0.0595-0.19908 0.0352-0.29688-0.10835-0.36944-0.20443-1.3527-0.30273-2.2227-0.0335-1.3834-0.11578-2.3989-0.24805-3.0273-0.5334-2.1666-0.84932-4.1822-0.94932-6.0488l0.15039-3.3496c0.0148-0.21735-0.0795-0.63549-0.0703-0.86328l0.0195-1.7871c-1e-3 -1.6297-0.0343-2.6975-0.0996-3.2012-0.10104-1.0158-0.25026-1.9809-0.44922-2.8984v-0.05078l-0.27148-1.8613c-0.0633-0.39631-9e-3 -0.5783-0.0801-0.98828-0.28774-1.712-0.32936-2.2099-0.51758-3.4316-0.0893-0.63628-0.11366-1.0172-0.23242-1.7695l-0.39841-2.9492c-0.0992-0.83359-0.14961-1.6844-0.15039-2.5508v-0.04883l-0.34961-4.3008v-0.04883c-0.028-0.93802-0.14623-1.6551-0.35156-2.1504l-0.0488-0.05078c-0.0393-0.1002-0.18007-0.11281-0.22851-0.20508-0.0108-0.02301-0.0104-0.0715-0.0215-0.09375-0.10885-0.19789-0.38509-0.24049-0.53516-0.40039-0.32881-0.33947-0.53672-0.78359-1.0644-0.95117-0.0329 2.61e-4 -0.0833-0.01524-0.15039-0.04883-0.45664-0.16315-0.90625-0.24648-1.3496-0.25zm-6.1504 31.25c0.2-0.03333 0.43252-0.03333 0.69922 0 1.5667-0.13333 2.9504 0.51591 4.1504 1.9492 0.1667 0.23333 0.11631 0.38451-0.15039 0.45117-1.6667 0.66669-2.7829 1.2326-3.3496 1.6992-0.1 0.06667-0.1833 0.04922-0.25-0.05078-0.1-0.13333-0.2667-0.49961-0.5-1.0996-0.3-0.69999-0.76709-1.4326-1.4004-2.1992l-0.25-0.45117zm-1.6504 0.94922c0.1 0.1 0.20078 0.25117 0.30078 0.45117 1.1333 1.6 1.8329 3.85 2.0996 6.75l-0.25 1.1484c-0.6 0.06667-1.3171-0.14844-2.1504-0.64844-1.3333-0.73332-2.0504-1.9504-2.1504-3.6504-0.1333-1.7 0.38408-3.0333 1.5508-4 0.2333-0.2 0.43291-0.21745 0.59961-0.05078zm6.0508 2.4512c0.4-0.1667 0.71592-0.10082 0.94922 0.19918 0.2 0.26667 0.2833 0.68335 0.25 1.25-0.033 1.6-0.8667 2.9333-2.5 4-0.1667 0.13333-0.39922 0.23412-0.69922 0.30078-0.3667 0.1-0.63408 0.16589-0.80078 0.19922l-0.0996-0.44922c0.1333-0.49999 0.16591-1.0833 0.0996-1.75-0.1-0.73332-0.1833-1.2837-0.25-1.6504-0.033-0.26667 0.05-0.48372 0.25-0.65039 0.033-0.03333 0.23291-0.14962 0.59961-0.34961 0.6-0.4 1.3345-0.76627 2.2012-1.0996zm13.699 12.35c0.3333 0.1 0.38369 0.26667 0.15039 0.5-0.5667 0.63332-1.1345 1.6488-1.7012 3.0488-0.1 0.23333-0.2667 0.26823-0.5 0.10156-1.2-0.89999-2.2988-1.4678-3.2988-1.7012 1.4333-1.8333 3.2163-2.4826 5.3496-1.9492zm1.3242 0.86133c0.2 0.02499 0.42578 0.18828 0.67578 0.48828 0.7333 0.86665 1.1171 1.8841 1.1504 3.0508-0.1667 1.3333-0.63369 2.3992-1.4004 3.1992-0.4333 0.43333-0.78408 0.26665-1.0508-0.5-0.1-0.4-0.31514-0.79922-0.64844-1.1992l-0.90039-1.0508c-0.2-0.23333-0.23261-0.46589-0.0996-0.69922l1.75-2.9512c0.15-0.24999 0.32344-0.36289 0.52344-0.33789zm-6.9238 1.9375c0.2-0.06667 0.45-0.01628 0.75 0.15039 0.1333 0.06667 0.36592 0.20039 0.69922 0.40039 1.5 0.76665 2.9845 2.3326 4.4512 4.6992 0.1667 0.23333 0.19931 0.4 0.0996 0.5-0.1333 0.13333-0.41631 0.21667-0.84961 0.25h-0.95117c-1.3 0.1-2.4337-0.40001-3.4004-1.5-0.9667-1.0667-1.3484-2.2334-1.1484-3.5 0.1-0.63333 0.21631-0.96667 0.34961-1zm62.299 7c0.9-0.03333 1.1171 0.36784 0.65039 1.2012-0.1333 0.23332-0.16591 0.49883-0.0996 0.79883l0.0996 0.80078c0.1 2.2333-0.93291 4.2334-3.0996 6-0.7 0.56665-1.1825 0.5996-1.4492 0.09961-0.2-0.69999-0.3667-1.1671-0.5-1.4004-0.5-0.86665-0.65117-1.6496-0.45117-2.3496-0.033-1.3 0.4667-2.4822 1.5-3.5488 1-0.99999 2.1163-1.5349 3.3496-1.6016zm1.9512 0.10156c2.6333 0.83332 3.9492 2.6493 3.9492 5.4492 0.1333 0.33333 0.10069 0.75-0.0996 1.25-0.3333 0.79999-0.5 1.2341-0.5 1.3008-0.067 0.3-0.29922 0.3-0.69922 0-2.1-1.5-3.1175-3.6667-3.0508-6.5 0-0.33332 0.066-0.8004 0.19922-1.4004 0-0.1 0.068-0.13294 0.20117-0.09961zm-0.70117 5.25c0.4 1.2667 1.3845 2.4159 2.9512 3.4492l0.29883 0.19922-0.59961 0.60156c-1.9 1.3333-4.0163 1.4496-6.3496 0.34961 1.8333-1.2333 3.0659-2.7663 3.6992-4.5996zm-5.1562 4.1328c6e-3 0.0056 0.01 0.01197 0.0156 0.01758l-8e-3 -2e-3c-3e-3 -0.0046-5e-3 -0.01102-8e-3 -0.01563zm-72.242 0.16602c1-0.06667 1.75 0.01667 2.25 0.25-1.0667 1.4-1.6849 2.2333-1.8516 2.5-0.3333 0.5-0.61631 0.55039-0.84961 0.15039-0.3-0.5-0.53252-0.71706-0.69922-0.65039-0.067-0.16665-0.3167-0.38374-0.75-0.65039-0.3333-0.2-0.44961-0.36667-0.34961-0.5 0.4333-0.66667 1.1833-1.0329 2.25-1.0996zm2.9492 1c0.2-0.26665 0.39961-0.26665 0.59961 0 0.2333 0.3 0.59961 0.74961 1.0996 1.3496 0.3333 0.49999 0.48447 1 0.45117 1.5-0.033 1.2333-0.39961 2.3341-1.0996 3.3008-0.4667 0.63332-0.83486 0.63332-1.1016 0-0.3-0.83332-0.86592-1.6667-1.6992-2.5-0.3667-0.33333-0.50039-0.66667-0.40039-1 0.033-0.03333 0.2-0.28333 0.5-0.75 0.2333-0.3 0.78369-0.93374 1.6504-1.9004zm16.449 0.20117c2.7333-0.49999 5.15 0.21513 7.25 2.1484 1.9333 1.7333 2.6175 3.8845 2.0508 6.4512-0.067 0.36665-0.067 0.89962 0 1.5996 0 0.16667 0.066 0.30039 0.19922 0.40039 0.1667 0.1 0.30039 0.08255 0.40039-0.05078 0.4333-0.43332 1.0671-0.61549 1.9004-0.54883 2.2333 0.16667 3.8167 1.033 4.75 2.5996 0.9 1.5 1.2333 2.9826 1 4.4492-0.2667 1.4667-1.1329 2.7845-2.5996 3.9512-0.8667 0.7-1.95 1.2988-3.25 1.7988-0.4667 0.16667-1.05 0.2345-1.75 0.20117-0.8-0.0333-1.4008-0.0682-1.8008-0.10156l-0.40039-0.0488c-0.3333-0.1-0.5833-0.29961-0.75-0.59961l-0.29883-0.90039c-0.067-0.23333 0.017-0.4 0.25-0.5 0.1333-0.0333 0.31553-0.10117 0.54883-0.20117 1.7-1.0333 3.2834-2.4985 4.75-4.3984 0.4-0.39999 0.45039-0.6849 0.15039-0.85156-0.2-0.13333-0.38213-0.11588-0.54883 0.05078-0.1667 0.23333-0.28486 0.38255-0.35156 0.44922-1.0667 1.4333-2.7159 2.8849-4.9492 4.3516-0.3 0.16667-0.55 0.13177-0.75-0.10156l-0.0508-0.14844c0.1333-0.1 0.23408-0.18333 0.30078-0.25 1.2-1.6 1.9171-2.5516 2.1504-2.8516 0.7667-1.1333 1.35-2.1818 1.75-3.1484 0.1333-0.2 0.23213-0.36667 0.29883-0.5 0.1-0.23333 0.052-0.4-0.14844-0.5-0.2-0.06667-0.38408-7.81e-4 -0.55078 0.19922-0.1333 0.3-0.24961 0.51706-0.34961 0.65039-0.9667 1.6666-2.1663 3.4671-3.5996 5.4004l-0.40039 0.39844c-0.3 0.16667-0.68369 0.13372-1.1504-0.0996-0.2667-0.1-0.33252-0.28216-0.19922-0.54883l0.75-0.95117c0.7333-0.99999 1.4659-2.4167 2.1992-4.25 0.2667-0.69999 0.48369-1.4655 0.65039-2.2988 0.1-0.39999 0.032-0.61706-0.20117-0.65039-0.2667-0.06667-0.44883 0.1155-0.54883 0.54883-0.6333 2.0666-1.5345 4.0338-2.7012 5.9004l-1.3496 1.9004c-0.1 0.13333-0.31709 0.21667-0.65039 0.25-0.5333 0.1-0.81631 0.15039-0.84961 0.15039 0.6333-0.89999 1.2012-1.9679 1.7012-3.2012 0.3-0.7 0.68174-1.7834 1.1484-3.25 0.4333-1.2667 0.6-2.4159 0.5-3.4492-0.033-0.16667 0.034-0.55039 0.20117-1.1504 0-0.26665-0.10078-0.40039-0.30078-0.40039-0.1667-0.03333-0.28291 0.06745-0.34961 0.30078-0.1667 0.73332-0.38369 1.7992-0.65039 3.1992-0.2667 1.2666-0.56709 2.3171-0.90039 3.1504l-0.54883 1.2012c-0.6333 1.6-1.3329 2.9159-2.0996 3.9492-0.1 0.1-0.30156 0.24922-0.60156 0.44922-0.2667 0.16667-0.44883 0.33333-0.54883 0.5l1.9492-5.2988 0.25-1.0508c0.2667-1.2 0.40039-3.2155 0.40039-6.0488 0-0.69999-0.11631-1.0333-0.34961-1-0.4333 0-0.6 0.34884-0.5 1.0488 0.1 2.3-0.15 4.6004-0.75 6.9004l-0.20117 0.65039c-0.5 1.6666-1.0988 3.1492-1.7988 4.4492 0.1667-0.36665 0.23252-0.81629 0.19922-1.3496-0.1-0.76665-0.15039-1.2163-0.15039-1.3496 0.033-0.5 0.0182-1.3179-0.0488-2.4512l-0.15042-2.3496c-0.2333-1.3-0.38252-2.2826-0.44922-2.9492-0.033-0.13333-0.10117-0.23412-0.20117-0.30078l-0.29883-0.15039c-0.1 0.43332-0.15039 0.66784-0.15039 0.70117 0.067 0.76665 0.20039 1.9159 0.40039 3.4492v7.0508c-0.4667-0.26667-0.73408-0.68334-0.80078-1.25-0.033-0.63333-0.084-1.1004-0.15039-1.4004-0.2667-1.2667-0.41592-1.9837-0.44922-2.1504-0.2-0.89999-0.46748-1.7159-0.80078-2.4492-0.6-1.3-0.99922-2.1179-1.1992-2.4512-0.067-0.06667-0.30117-0.09961-0.70117-0.09961 0 0.1-0.0158 0.26668-0.0488 0.5 0.7667 1.4667 1.4004 3.1508 1.9004 5.0508l0.64844 2.5488c-1.0333-0.43333-1.7-0.85001-2-1.25-0.2333-0.33333-0.68291-1.2151-1.3496-2.6484-0.5-0.96665-1.4322-2.0171-2.7988-3.1504-0.033-0.03333-0.084-0.05078-0.15039-0.05078-0.1 0-0.16787 0.01745-0.20117 0.05078-0.1667 0.29999-0.14962 0.55 0.0508 0.75 0.7333 0.66665 1.4175 1.533 2.0508 2.5996 0.3333 0.53332 0.8333 1.5004 1.5 2.9004-0.5333 0.26665-0.96748 0.21628-1.3008-0.15039-0.3-0.5-0.55-0.86629-0.75-1.0996-0.8667-1.1333-1.8163-2.0171-2.8496-2.6504-0.2-0.1-0.3667-0.04961-0.5 0.15039-0.1333 0.23332-0.083 0.43294 0.15039 0.59961 1.3 1.0667 2.2496 2.0841 2.8496 3.0508 0.2667 0.36667 0.23399 0.59922-0.0996 0.69922-0.4333 0.16667-0.91787 0.58335-1.4512 1.25-0.4 0.46667-0.95039 0.53254-1.6504 0.19922l-0.59961-0.25c-1.6333-0.53333-2.6837-1.5663-3.1504-3.0996-0.5667-1.8666-0.38252-3.6826 0.55078-5.4492 0.9333-1.6 2.4663-2.5341 4.5996-2.8008 1.6-0.19999 3.1679-3.9e-4 4.7012 0.59961 0.3 0.13333 0.55 0.15079 0.75 0.05078 0.2333-0.13333 0.33213-0.41629 0.29883-0.84961-0.3-2.3666 0.30078-4.3841 1.8008-6.0508 1.0333-1.1333 2.4655-1.8988 4.2988-2.2988zm-21.898 0.84961c0.1333 0.1 0.28252 0.26667 0.44922 0.5 2.1667 2.1666 3.5659 3.75 4.1992 4.75 0.3667 0.56665 0.38378 0.9155 0.0508 1.0488-0.4667 0.06667-0.78252 0.1345-0.94922 0.20117h-0.70117c-1.3 0-2.3833-0.48452-3.25-1.4512-0.8333-0.99999-1.1667-2.1318-1-3.3984 0.067-0.59999 0.2333-1.0845 0.5-1.4512 0.2-0.29999 0.43447-0.36588 0.70117-0.19922zm61.699 2.5996c0.2667 0 0.6833 0.03294 1.25 0.09961l0.5 0.09961-0.0996 0.35156c-1.1667 1.5333-1.9012 2.8996-2.2012 4.0996-0.067 0.29999-0.16553 0.44922-0.29883 0.44922-0.1333-0.03333-0.48408-0.2504-1.0508-0.65039-0.8667-0.6-1.5333-1.0167-2-1.25-0.3-0.13333-0.44922-0.28255-0.44922-0.44922 0-0.13333 0.099-0.33296 0.29883-0.59961 0.9333-1.1333 1.9179-1.7845 2.9512-1.9512 0.26699-0.13334 0.6329-0.19922 1.0996-0.19922zm3.25 0.90039c1.5 1.1 2.3004 2.4333 2.4004 4-0.033 1.8333-0.6167 3.283-1.75 4.3496-0.3333 0.3-0.63369 0.23411-0.90039-0.19922-0.8333-1.2-1.5-1.95-2-2.25-0.5667-0.33332-0.84961-0.7345-0.84961-1.2012 0-0.23332 0.11631-0.6655 0.34961-1.2988 0.4667-1.0667 1.1159-2.15 1.9492-3.25 0.2333-0.33332 0.50078-0.38372 0.80078-0.15039zm-7.8496 2.9492c2.1 1.2 3.8829 2.5004 5.3496 3.9004 0.2 0.2 0.76592 0.80079 1.6992 1.8008 0.2667 0.33333 0.2667 0.58333 0 0.75l-0.59961 0.19922c-1.4 0.36667-2.7663 0.18254-4.0996-0.55078-1.3667-0.73333-2.2329-1.7818-2.5996-3.1484l-0.30078-1.25 0.25-1.6504c0.033-0.13333 0.13408-0.15079 0.30078-0.05078zm21.9 3.4512c2.2-0.03333 3.9325 0.89885 5.1992 2.7988 0.3 0.46667 0.26739 0.74961-0.0996 0.84961-0.4667 0.03333-0.74961 0.06823-0.84961 0.10156-1.5 0.56667-2.6512 1.2992-3.4512 2.1992-0.067 0.06667-0.13252 0.06667-0.19922 0-0.067-0.1-0.20039-0.36746-0.40039-0.80078-0.6333-1.4-1.7167-2.65-3.25-3.75-0.2667-0.16667-0.21631-0.31589 0.15039-0.44922 0.8667-0.43333 1.3492-0.66588 1.4492-0.69922 0.5667-0.23333 1.0512-0.31667 1.4512-0.25zm-37.951 1.0488c0.4333 0 0.91787 0.16668 1.4512 0.5 0.5667 0.36667 0.84961 0.68452 0.84961 0.95117-0.1667 0.3-0.48447 0.56551-0.95117 0.79883-0.5 0.23333-0.88174 0.41745-1.1484 0.55078-0.5 0.26665-0.8333 0.26665-1 0-0.1-0.43333-0.1833-0.75117-0.25-0.95117l-0.10156-0.29883c-0.2333-0.66667-0.28174-1.1008-0.14844-1.3008 0.1333-0.16665 0.56553-0.25 1.2988-0.25zm33.701 1.3008c0.2667-0.36667 0.58252-0.36667 0.94922 0 2.4333 2.1333 3.6504 4.4163 3.6504 6.8496 0 0.16667 0.05 0.43414 0.15039 0.80078-0.1 0.76667-0.38486 1.1155-0.85156 1.0488-0.5667-0.26667-0.9833-0.41589-1.25-0.44922-1-0.1-1.8817-0.70079-2.6484-1.8008-0.7333-1.0333-1.0667-2.0004-1-2.9004 0.067-1.4333 0.4-2.6155 1-3.5488zm-31.051 1.1992c0.067 0.36667 0.0838 0.61668 0.0508 0.75-0.1 0.8-0.53408 1.4008-1.3008 1.8008-0.5333 0.26665-1.2 0.2996-2 0.09961l-0.0996-0.59961c-0.067-0.5 0.1-0.76745 0.5-0.80078 0.5667-0.06667 0.86709-0.11706 0.90039-0.15039 0.1333-0.1 0.59844-0.33255 1.3984-0.69922zm40.65 0.84961c0.4-0.1 0.54922 0.01823 0.44922 0.35156-0.1333 0.4-0.14893 0.63255-0.0488 0.69922 0.033 1.3667-0.35039 2.5333-1.1504 3.5-0.7333 0.89999-1.7333 1.5163-3 1.8496-0.1333 0.0667-0.24961 0.0667-0.34961 0-0.1-0.1-0.11708-0.21628-0.0508-0.34961 0.2-0.43333 0.2833-0.91589 0.25-1.4492-0.033-0.13333-0.13408-0.6004-0.30078-1.4004-0.2-0.63333 0.085-1.2012 0.85156-1.7012 1.2-0.79999 2.3163-1.3 3.3496-1.5zm-71.5 4c1.4667-0.3 2.6663-0.14883 3.5996 0.45117 1.0667 0.66665 1.7663 1.7829 2.0996 3.3496 0 0.83333-0.3333 1.5174-1 2.0508-0.6333 0.53333-1.3659 0.74844-2.1992 0.64844-1.7333-0.16667-3.0996-0.81589-4.0996-1.9492-0.8-0.86667-1.0675-1.7174-0.80078-2.5508 0.3667-1.0667 1.1671-1.7334 2.4004-2zm11.65 0.85156c1.5333-0.13333 2.6825 0.5663 3.4492 2.0996 0.6333 1.2667 0.017 2.35-1.8496 3.25-1.0667 0.53333-2.2004 0.61667-3.4004 0.25-1.2667-0.4-2.0671-1.1674-2.4004-2.3008-0.2333-0.73333 9.7e-4 -1.3496 0.70117-1.8496 0.7-0.56667 1.2329-0.93296 1.5996-1.0996 0.6333-0.33333 1.2671-0.44961 1.9004-0.34961zm15 0.94922c1.1667-0.1 2.1317 0.20039 2.8984 0.90039 0.7 0.66667 1.0179 1.4671 0.95117 2.4004-0.033 1.0333-0.41709 1.8492-1.1504 2.4492-0.6667 0.53333-1.5175 0.83372-2.5508 0.90039-0.7 0.0667-1.3492-0.28411-1.9492-1.0508-0.6-0.73333-0.90039-1.5492-0.90039-2.4492 0-0.76667 0.28291-1.4663 0.84961-2.0996 0.5333-0.63333 1.1516-0.98411 1.8516-1.0508zm9.6484 1.4004c0.033 0 0.51787 0.11628 1.4512 0.34961 0.2667 0.1 0.38291 0.20078 0.34961 0.30078 0 0.0667-0.083 0.18294-0.25 0.34961-1.2667 1.3333-1.9837 2.6163-2.1504 3.8496 0 0.13333-0.0326 0.23411-0.0996 0.30078-0.1 0.0667-0.21631 0.0318-0.34961-0.10156-0.7667-0.76667-1.6329-1.1484-2.5996-1.1484-0.8-0.0333-1.1683-0.23489-1.1016-0.60156 0.033-0.1 0.21748-0.43334 0.55078-1 0.9-1.5333 2.2992-2.2988 4.1992-2.2988zm3.0508 1.25c0.067 0.13333 0.13252 0.33294 0.19922 0.59961 0.7667 0.83333 1.1 1.6337 1 2.4004 0 1.4-0.51553 2.65-1.5488 3.75-0.2333 0.2-0.38447 0.29883-0.45117 0.29883-0.1667 0.0333-0.3333-0.11589-0.5-0.44922-0.1-0.23333-0.35-0.53372-0.75-0.90039-0.4-0.4-0.65-0.71589-0.75-0.94922-0.1-0.2-0.017-0.76784 0.25-1.7012 0.3-0.83333 0.9667-1.8333 2-3 0.2333-0.26667 0.41748-0.28243 0.55078-0.0488zm-32.75 0.19922c0.0322 0.0662 0.12182 0.086 0.15625 0.15039-0.0351 3e-3 -0.0702-0.0118-0.10547 0-0.0559 0.014-0.0851 0.0455-0.13672 0.0625 0.017-0.0838 0.073-0.12467 0.0859-0.21289zm24.699 3c0.3667 0.1 0.88408 0.23372 1.5508 0.40039 0.6 0.16667 1.0825 0.36628 1.4492 0.59961 1.4333 0.93333 2.4837 1.9178 3.1504 2.9512 0.2 0.3 0.14961 0.48216-0.15039 0.54883-0.3333 0.0333-0.54844 0.0508-0.64844 0.0508-2.4333 0.2-4.1175-0.81745-5.0508-3.0508zm-24.875 1.5137c1.0167-0.0417 1.9925 0.0867 2.9258 0.38672 2.6667 0.93333 4.4496 3.0341 5.3496 6.3008 0.2 0.9 0.21708 1.6151 0.0508 2.1484-0.2333 0.63333-0.16748 1.0849 0.19922 1.3516 0.1667 0.13333 0.35078 0.13333 0.55078 0 0.1333-0.0333 0.31553-0.13411 0.54883-0.30078 1.3667-0.73333 3.1341-0.88255 5.3008-0.44922 2.5333 0.5 4.4675 1.7655 5.8008 3.7988 0.9333 1.4333 1.1484 3.0671 0.64844 4.9004-0.3333 1.3-1.0833 2.4008-2.25 3.3008-1.0667 0.8-2.2663 1.3-3.5996 1.5-0.4667 0.0667-1.0325 0.0822-1.6992 0.0488-0.7333-0.0667-1.3012-0.11706-1.7012-0.15039-0.1333-0.0333-0.24961-0.0488-0.34961-0.0488-0.1333-0.0333-0.2167 0.0171-0.25 0.15039-0.1 0.26667 0.034 0.48177 0.40039 0.64844 0.4 0.16667 0.65 0.4845 0.75 0.95117 0.033 0.23333 0.0508 0.59961 0.0508 1.0996 0.1333 2.0333-0.48486 3.8667-1.8516 5.5-0.7667 0.9-1.7317 1.4659-2.8984 1.6992-1.6667 0.4-3.0833 0.28372-4.25-0.34961-1.1333-0.6-2.1333-1.6-3-3-0.3-0.5-0.55-0.7655-0.75-0.79883h-0.05082c-0.1667 0.0333-0.28291 0.14961-0.34961 0.34961-0.033 0.1-0.0656 0.28216-0.0996 0.54883-0.9333 2.4-2.6679 4.0337-5.2012 4.9004-1.7 0.53333-3.2659 0.58372-4.6992 0.15039-1.9333-0.6-3.2841-1.8829-4.0508-3.8496-0.4667-1.1333-0.53252-2.2845-0.19922-3.4512 0.2667-0.86667 0.81709-1.8822 1.6504-3.0488 0.1333-0.2 0.16591-0.35117 0.0996-0.45117 0-0.1-0.10078-0.14844-0.30078-0.14844l-1.25-0.0508c-1.2333 0.13333-2.3825-0.30078-3.4492-1.3008-0.9333-0.86667-1.6-1.9655-2-3.2988-0.5667-1.9667-0.41748-3.7671 0.44922-5.4004 0.5667-1.1333 1.5512-1.9996 2.9512-2.5996 1.3333-0.6 2.6318-0.76667 3.8984-0.5 1.0333 0.2 2.2834 0.63216 3.75 1.2988l0.25 0.0508c0.1333 0 0.25156-0.0659 0.35156-0.19922 0.2-0.2 0.24844-0.45 0.14844-0.75-0.8333-2.5333-0.39922-5.0178 1.3008-7.4512 0.9667-1.4 2.1837-2.3496 3.6504-2.8496 1.1-0.38333 2.1571-0.59505 3.1738-0.63672zm12.525 3.336c1 0.23333 1.75 0.6849 2.25 1.3516 0.7333 1.0333 0.9 2.1167 0.5 3.25-0.067 0.13333-0.18291 0.19922-0.34961 0.19922-2.2-0.26667-4.1167 0.0163-5.75 0.84961 0.1667-0.63333 0.18378-1.3329 0.0508-2.0996-0.033-0.16667-0.2-0.81589-0.5-1.9492-0.1-0.46666-9.7e-4 -0.81745 0.29883-1.0508 0.2-0.1 0.48291-0.21628 0.84961-0.34961 0.7667-0.36667 1.6504-0.4345 2.6504-0.20117zm24.951 2.1504c1.2666-0.0333 2.3984 0.40078 3.3984 1.3008 0.9333 0.86667 1.4837 1.9326 1.6504 3.1992 0.1667 1.5 0.21709 2.4341 0.15039 2.8008 0 0.3 0.11631 0.44922 0.34961 0.44922 0.2667 0 0.4333-0.13372 0.5-0.40039 0.1333-0.33333 0.35039-0.61628 0.65039-0.84961 0.2667-0.2 0.78408-0.41706 1.5508-0.65039 1.4-0.46667 2.7488-0.5655 4.0488-0.29883 1.9333 0.5 3.3675 1.4826 4.3008 2.9492 0.8 1.2 1.2496 2.5333 1.3496 4 0.1 1.2-0.10001 2.3163-0.59961 3.3496-0.6 1.2667-1.5496 2.1833-2.8496 2.75-0.8667 0.36667-1.9849 0.63411-3.3516 0.80078-0.3667 0.0333-0.68252-0.10039-0.94922-0.40039-0.3667-0.43333-0.59922-0.68333-0.69922-0.75 0.6667-0.83333 1.0659-1.3159 1.1992-1.4492 0.4-0.43333 0.78369-1.0012 1.1504-1.7012 0.2333-0.4 0.54922-0.99883 0.94922-1.7988 0.067-0.23333 0.016-0.36706-0.15039-0.40039-0.2-0.0333-0.46553 0.15078-0.79883 0.55078-0.5333 0.86667-0.95 1.4984-1.25 1.8984-0.5333 0.73333-1.0663 1.3012-1.5996 1.7012-0.1 0.23333-0.16787 0.4-0.20117 0.5-0.1 0.2-0.23369 0.21577-0.40039 0.0488-0.1-0.0333-0.14844-0.0992-0.14844-0.19922-0.067-0.16667-0.0344-0.36628 0.0996-0.59961 0.1-0.13333 0.23369-0.31745 0.40039-0.55078 0.7-1.4667 1.2155-3.2322 1.5488-5.2988 0-0.3-0.083-0.43372-0.25-0.40039-0.2333 0-0.38252 0.0833-0.44922 0.25-0.6333 2.2333-1.2496 3.9988-1.8496 5.2988-0.1 0.4-0.21826 0.68489-0.35156 0.85156-0.1333 0.13333-0.31553 0.21667-0.54883 0.25-0.5 0.0667-0.75-0.0341-0.75-0.30078 0.1-0.33333 0.16592-0.58333 0.19922-0.75l0.0508-0.30078c0.5667-2.3667 0.79922-4.233 0.69922-5.5996-0.067-0.3-0.20039-0.44922-0.40039-0.44922-0.2333 0-0.38252 0.14922-0.44922 0.44922-0.033 1.3333-0.30078 2.9845-0.80078 4.9512l-0.44923 1.6993c-0.067 0.33333-0.25078 0.55039-0.55078 0.65039-0.3667 0.1-0.63213 0.16589-0.79883 0.19922-0.1667 0.0333-0.19931-0.10039-0.0996-0.40039 0.1333-0.63333 0.26514-1.55 0.39844-2.75 0.1-1.6333 9.7e-4 -3.5326-0.29883-5.6992 0-0.23333-0.0178-0.4-0.0508-0.5-0.033-0.2-0.14961-0.33372-0.34961-0.40039-0.033 0.13333-0.13408 0.31745-0.30078 0.55078-0.1333 0.2-0.18174 0.43255-0.14844 0.69922 0.3333 1.8667 0.38174 3.6012 0.14844 5.2012l-0.25 1.4492c-0.1333 0.63333-0.19922 1.3659-0.19922 2.1992-0.033 0.2-0.13408 0.40156-0.30078 0.60156-0.2 0.16667-0.34922 0.29844-0.44922 0.39844l-0.0508-0.84961c-0.2667-1.7-0.4333-2.9655-0.5-3.7988l-0.0508-0.65039c-0.033-0.56667-0.2-1.7837-0.5-3.6504-0.033-0.46667-0.16709-0.94922-0.40039-1.4492-0.2667-0.36667-0.5167-0.51784-0.75-0.45117-0.2333 0.13333-0.29922 0.31745-0.19922 0.55078 0.033 0.1 0.1167 0.26667 0.25 0.5 0.2333 0.93333 0.41553 2.35 0.54883 4.25l0.40039 3.1992c0.067 0.66667 0.11709 1.6841 0.15039 3.0508l-0.15039 0.15039c-0.4667-0.16667-0.78252-0.35078-0.94922-0.55078-0.2667-0.26667-0.40039-0.63294-0.40039-1.0996 0.033-0.83333-0.10039-1.9012-0.40039-3.2012l-0.55078-2.2988c-0.3-1.1333-0.58291-1.9008-0.84961-2.3008-0.2-0.3-0.3667-0.39883-0.5-0.29883-0.1667 0.1-0.21709 0.31511-0.15039 0.64844 0.5667 2.2333 0.93486 3.8167 1.1016 4.75 0.1667 0.76666 0.26553 1.5167 0.29883 2.25l0.15039 0.95117c0 0.0333 0.05 0.0992 0.15039 0.19922 0.067 0.1 0.016 0.15039-0.15039 0.15039-0.1667 0.0333-0.30039 0.0508-0.40039 0.0508-0.1667-0.0333-0.28291-0.11667-0.34961-0.25l-1-2.1016c-0.7667-1.4667-1.6329-2.7322-2.5996-3.7988-0.2-0.4-0.3667-0.68294-0.5-0.84961-0.2333-0.33333-0.46787-0.40117-0.70117-0.20117-0.1333 0.1-0.16591 0.21628-0.0996 0.34961 0 0.0667 0.05 0.18489 0.15039 0.35156l3.5996 5.8496 0.0996 0.34961c0.033 0.1 0.13408 0.16589 0.30078 0.19922-0.5333 0.2-0.95 0.13411-1.25-0.19922-0.1-0.1-0.23369-0.31706-0.40039-0.65039-0.1333-0.3-0.26709-0.49961-0.40039-0.59961-1.1333-1.1-2.4821-2.3171-4.0488-3.6504-0.2667-0.0667-0.45078-0.11706-0.55078-0.15039-0.067 0.4-0.0473 0.65 0.0527 0.75 0.3333 0.3 0.89922 0.85039 1.6992 1.6504 0.7 0.7 1.2833 1.2329 1.75 1.5996 0.2 0.13333 0.41709 0.36784 0.65039 0.70117 0.1333 0.2 0.31748 0.48294 0.55078 0.84961 0.1 0.1 0.05 0.20078-0.15039 0.30078-0.5333 0.36667-0.98291 0.3494-1.3496-0.0508-0.5333-0.56667-1.6671-1.3167-3.4004-2.25-0.4-0.2-0.65-0.18273-0.75 0.0508-0.1333 0.3 0.016 0.53255 0.44922 0.69922 1.3333 0.7 2.4012 1.45 3.2012 2.25l0.34961 0.25c-0.2 1-0.80078 1.5174-1.8008 1.5508h-0.29883c-1-0.0333-2-0.26784-3-0.70117-1.9333-0.73333-3.0516-2.4988-3.3516-5.2988-0.2667-2.1 0.3167-3.9178 1.75-5.4512 0.4333-0.5 1.1504-0.84883 2.1504-1.0488 0.9667-0.23333 1.7845-0.2506 2.4512-0.0508 1.0667 0.36667 1.8651 0.48294 2.3984 0.34961 0.3-0.0333 0.45117-0.11667 0.45117-0.25 0-0.0667-0.068-0.20039-0.20117-0.40039l-0.39844-0.84961c-0.7-1.8-0.46748-3.6004 0.69922-5.4004 1.2333-1.9667 3.2508-2.9996 6.0508-3.0996zm29.648 1.5c0.9333 0.0167 1.8675 0.35 2.8008 1l0.34961 0.15039c-0.3667 0.26667-0.73291 0.66589-1.0996 1.1992-0.3667 0.6-0.66709 1.0341-0.90039 1.3008-0.4 0.66667-0.66553 1.25-0.79883 1.75-0.1 0.33333-0.21826 0.38372-0.35156 0.15039-0.3667-0.56667-0.89961-1.1171-1.5996-1.6504-0.8-0.56667-1.3988-1.0008-1.7988-1.3008-0.6333-0.46667-0.76709-0.86589-0.40039-1.1992 0.2-0.16667 0.5333-0.33333 1-0.5 0.9333-0.61667 1.8655-0.91706 2.7988-0.90039zm-68.75 1.5508c-0.2 0.0333-0.29883 0.28333-0.29883 0.75l0.54883 5.4004c0.049 0.0649 0.099 0.13075 0.15039 0.19922 0.047 0.10963 0.11487 0.17552 0.20117 0.19922 0.1337 5e-3 0.26554 5e-3 0.39844 0-0.018-0.16511 0.033-0.36472 0.15039-0.59961v-0.0488l-0.65039-5.2012c-0.033-0.13333-0.099-0.28255-0.19922-0.44922-0.1333-0.16667-0.23408-0.25-0.30078-0.25zm72.75 0.44919c0.1 0.1 0.21826 0.29961 0.35156 0.59961 0.5 0.83333 0.69961 1.6512 0.59961 2.4512 0.1 1.8-0.76631 3.3155-2.5996 4.5488-0.067 0.0667-0.13447 0.0512-0.20117-0.0488-0.033-0.1-0.14961-0.43333-0.34961-1-0.2333-0.6-0.4-0.96628-0.5-1.0996-0.4-0.5-0.50078-1.0174-0.30078-1.5508 0.3667-0.63333 0.6167-1.1004 0.75-1.4004s0.65078-1.05 1.5508-2.25c0.2667-0.36667 0.49922-0.45 0.69922-0.25zm-65.5 0.5c-0.2667 0.0333-0.4333 0.0837-0.5 0.15039-1.469 2.0768-2.6008 3.8094-3.3984 5.1992l0.0996 0.45117c0.082 0 0.3324-0.10078 0.75-0.30078l3.0488-5.0488zm-3.5 0.3008c-0.3-0.1-0.51514 0.0667-0.64844 0.5l-1.3516 4.75c0.3 0 0.60039 0.0329 0.90039 0.0996l1.1504-4.5996c0.1333-0.4 0.11622-0.65-0.0508-0.75zm60.4 0.40038c0.1667-0.1 0.40117-0.0341 0.70117 0.19922l0.75 0.59961c1.9 1.1667 3.3651 2.9496 4.3984 5.3496 0.2 0.43333 0.15156 0.68333-0.14844 0.75h-0.80078c-1.4667 0.0667-2.6992-0.3655-3.6992-1.2988-1.1-0.96667-1.6349-2.2671-1.6016-3.9004-0.1-0.93333 0.034-1.4992 0.40039-1.6992zm-66.6 0.84963c-0.2667 0.0333-0.33252 0.25039-0.19922 0.65039 0.2 0.53333 0.71553 1.7155 1.5488 3.5488 0.033 0 0.084 0.0174 0.15039 0.0508 0.067 0.0333 0.11709 0.0992 0.15039 0.19922l0.19922-0.0996c0.1333-0.0333 0.28447-0.0663 0.45117-0.0996l-1.75-3.7012c-0.033-0.16667-0.084-0.28294-0.15039-0.34961-0.067-0.16667-0.20039-0.23255-0.40039-0.19922zm-3.3008 1.25c-0.1 0-0.14844 0.0155-0.14844 0.0488l-0.05078 0.10163c-0.067 0.23333-0.0996 0.36511-0.0996 0.39844l1 1c0.3 0.26667 0.74961 0.65039 1.3496 1.1504 0.3185 0.37813 0.75258 0.79479 1.3008 1.25 0.1564-0.038 0.30562-0.0709 0.44922-0.0996 0.018-0.0177 0.0348-0.0352 0.0508-0.0508 0.01-0.0766 0.01-0.15989 0-0.25 0-0.0888 0.0148-0.17213 0.0488-0.25l-3.75-3.25c-0.033-0.0333-0.084-0.0488-0.15039-0.0488zm13.65 1.0488-3.0488 2.1504c0 0.16667-0.0178 0.36628-0.0508 0.59961l0.0996 0.10156c0.033 0 0.084 0.0155 0.15039 0.0488 0.033 0 0.099 0.0174 0.19922 0.0508l3.1504-2.3496c0.2-0.2 0.23261-0.40156 0.0996-0.60156-0.1333-0.2-0.33291-0.2-0.59961 0zm-14.15 1.5508c-0.1-0.0333-0.19883 0.05-0.29883 0.25-0.1 0.3 0.016 0.53255 0.34961 0.69922l2.5508 1.4004c0.2667-0.2 0.5167-0.29883 0.75-0.29883-0.033-0.1-0.05078-0.20078-0.05078-0.30078l-3-1.5996c-0.1333-0.1-0.23408-0.15039-0.30078-0.15039zm17.307 0.74611c-0.046-6e-3 -0.0979-4e-3 -0.15625 4e-3 -0.2667 0.0667-0.46631 0.0841-0.59961 0.0508l-0.44922 0.14844c-0.5333 0.16667-1.4849 0.36823-2.8516 0.60156-0.2772 0.0525-0.54273 0.10091-0.79883 0.14844l-0.55078 0.80065 0.15039 0.30078c0.4397-0.12044 0.90679-0.23867 1.4004-0.35156 0.6667-0.16667 1.6337-0.39922 2.9004-0.69922 0.1333-0.0333 0.3833-0.0837 0.75-0.15039 0.3333-0.1 0.48252-0.29961 0.44922-0.59961-0.025-0.15-0.10664-0.23516-0.24414-0.25391zm-20.152 1.1329c-0.1437 6e-3 -0.2793 0.0965-0.4043 0.27148-0.1333 0.2-0.05 0.34922 0.25 0.44922l2.1016 0.5c1.4916 0.37291 2.6738 0.65586 3.5488 0.84961l0.45117-0.14844 0.0996-0.30078c-0.033-0.0333-0.084-0.0992-0.15039-0.19922l-0.25-0.25-0.19922-0.10156-0.0508-0.0488c-0.212-0.0455-0.44452-0.0959-0.69922-0.15039-2.1-0.36667-3.6175-0.64961-4.5508-0.84961-0.05-0.0167-0.099-0.0236-0.14648-0.0215zm15.096 1.621-0.0996 0.15039-0.0488 0.0488c0.033 0.1 0.0656 0.21823 0.0996 0.35156v0.0488l0.19922 0.0996 0.15039 0.10156c0.5333 0.0333 1.2659 0.0488 2.1992 0.0488 0.033 0 0.25039-0.0988 0.65039-0.29883l-0.15039-0.25-1.0488-0.25c-0.73363-0.0324-1.3845-0.0507-1.9512-0.0507zm-9.3984 1.1992-4.4004 1.3516c-0.3 0.0667-0.3833 0.24883-0.25 0.54883l0.15039 0.15039 4.7988-1.3008c0-0.13333 0.0168-0.24961 0.0508-0.34961l-0.0996-0.0996c0.067 0 0.067-0.0329 0-0.0996l-0.10156-0.0508-0.0488-0.0996zm9.6992 0.90041-0.19922 0.0996-0.15039 0.10156-0.20117 0.19922c-0.033 0.0667-0.0162 0.13255 0.0508 0.19922l0.0508 0.15039c0.2745 0.12057 0.55741 0.2543 0.84961 0.40039 0.6333 0.3 1.5655 0.76706 2.7988 1.4004 0.4 0.23333 0.63447 0.28372 0.70117 0.15039 0.067-0.0667 0.067-0.18489 0-0.35156s-0.76631-0.61628-2.0996-1.3496c-0.7935-0.44518-1.3943-0.77851-1.8008-1zm-9.3008 0.5-5 4.0996c-0.2667 0.26667-0.35 0.45078-0.25 0.55078 0.1667 0.16667 0.4167 0.13363 0.75-0.0996l4.7012-3.7012 0.19922-0.19922 0.0996-0.15039v-0.15039h-0.0488c-0.067-0.16667-0.11709-0.25-0.15039-0.25l-0.0996-0.0488zm25.602 0.15039c0.3333 0.66667 0.38174 1.3508 0.14844 2.0508-0.1333 0.4-0.4667 1.0163-1 1.8496-0.35343 0.54371-0.70722 1.5622-1.0606 2.2832-0.19017 0.41549-0.33907 0.59309-0.53906 1.0664-0.51657 1.181-0.83319 1.772-1.1621 2.3984-0.344 0.77229-0.82671 1.2465-1.4805 1.3516-0.0701 0.0242-0.126 0.0594-0.20312 0.0781-0.52774 0.0451-1.242-0.0961-2.1953-0.47656-0.024-0.0174-0.0445-0.028-0.0684-0.0449-0.83614-0.36313-1.1837-0.84431-0.99023-1.457 0.4333-0.66667 0.6833-1.1667 0.75-1.5 0.4-1.5667 0.43261-3.0996 0.0996-4.5996l-0.0996-0.19922h0.69922c1.5 0 2.8508-0.2345 4.0508-0.70117 1.3667-0.53333 2.3841-1.2329 3.0508-2.0996zm-17.4 0.59961-0.15039 0.15039-0.15039 0.19922c-0.033 0.0667-0.084 0.15-0.15039 0.25l-0.0488 0.20117c0.5 0.5 1.0659 1.0155 1.6992 1.5488 0.2 0.2 0.38408 0.23489 0.55078 0.10156 0.2-0.16667 0.23261-0.33333 0.0996-0.5zm-7.3496 0.75c-0.8333 1.3-1.5 2.5171-2 3.6504-0.1333 0.23333-0.10069 0.38255 0.0996 0.44922 0.2 0.0667 0.39961-0.0322 0.59961-0.29883l1.6992-2.8008c0-0.16667 0.0168-0.31589 0.0508-0.44922l0.0508-0.15039c-0.033-0.16667-0.033-0.30039 0-0.40039zm1.8984 0.0996-0.34961 0.15039-0.0488 0.0508-0.0508 0.0996-0.0996 0.0508c-0.025 0.11758-0.0447 0.20091-0.0527 0.25-0.1333 1-0.6004 2.8488-1.4004 5.5488-0.033 0.13333-0.082 0.31745-0.14844 0.55078-0.1667 0.56667-0.05 0.81667 0.34961 0.75 0.2-0.0333 0.33369-0.16706 0.40039-0.40039 0.1-0.3 0.16592-0.51706 0.19922-0.65039l1.5996-6.1504h-0.0488zm3.2012 0.65036v0.0508l-0.0508 0.19922v-0.0488l-0.0488 0.29883-0.0508 0.0508c0.2422 0.49011 0.4089 0.85638 0.5 1.0996 0.4667 1.4 0.94922 2.5996 1.4492 3.5996 0.1 0.16667 0.30156 0.25 0.60156 0.25 0.1 0 0.16592-0.0504 0.19922-0.15039 0.033-0.13333 0.0162-0.23216-0.0508-0.29883-0.2333-0.26667-0.41553-0.61745-0.54883-1.0508-0.1333-0.5-0.24961-0.88372-0.34961-1.1504l-1.1016-2.8496h-0.14844zm-1.8008 0.20117-0.15039 0.0996-0.0996 0.25 0.40039 3.4004c0.033 0.0667 0.033 0.1655 0 0.29883 0.033 0.1 0.1167 0.16784 0.25 0.20117h0.0508c0.3333 0 0.5-0.11823 0.5-0.35156 0.067-0.56667 0.0492-1.0822-0.0508-1.5488-0.067-0.43333-0.11709-1.1329-0.15039-2.0996v-0.0507c-0.067-0.0667-0.13252-0.11706-0.19922-0.15039-0.033-0.0333-0.21748-0.0488-0.55078-0.0488zm60.5 0.0488c0.8333-0.0333 1.5175 0.26706 2.0508 0.90039 0.5667 0.66667 0.86709 1.5659 0.90039 2.6992 0.033 0.43333-0.2167 0.93333-0.75 1.5-0.5 0.53333-0.96709 0.81823-1.4004 0.85156-1.0667 0.0667-1.9679-0.16784-2.7012-0.70117-0.7667-0.5-1.1659-1.1337-1.1992-1.9004-0.033-0.86667 0.24961-1.6322 0.84961-2.2988 0.6-0.63333 1.35-0.98411 2.25-1.0508zm-18.35 0.55085c1.6333-0.43333 2.9008-0.43333 3.8008 0 1.6666 0.83333 2.3992 2 2.1992 3.5-0.1 0.53333-0.38291 0.98294-0.84961 1.3496-0.067 0.0333-0.55117 0.28333-1.4512 0.75-0.5333 0.3-1.3492 0.44922-2.4492 0.44922-0.7333-0.1-1.2992-0.21628-1.6992-0.34961-0.7-0.2-1.2349-0.54883-1.6016-1.0488-0.6-0.86666-0.66592-1.8008-0.19922-2.8008s1.2167-1.6163 2.25-1.8496zm-7.5996 1.4492c0.3-0.0333 0.53252-0.0333 0.69922 0 1.1333 0 2.05 0.28294 2.75 0.84961 0.7 0.53333 1.0179 1.2174 0.95117 2.0508-0.033 0.7-0.40156 1.3337-1.1016 1.9004-0.6667 0.56667-1.4496 0.88255-2.3496 0.94922-0.9333 0.1-1.6329 0.0845-2.0996-0.0488-0.7667-0.16667-1.3325-0.60078-1.6992-1.3008-0.5-0.93333-0.51708-1.8829-0.0508-2.8496 0.4-0.76667 1.1325-1.2337 2.1992-1.4004 0.033 0 0.26787-0.0504 0.70117-0.15039zm19.449 1.6504c0.8333 0.13333 1.1841 0.40078 1.0508 0.80078-0.067 0.23333-0.30117 0.54922-0.70117 0.94922-1.4666 1.9667-3.3 3.4996-5.5 4.5996-0.1667 0.0667-0.29844 0.0667-0.39844 0-0.1-0.1-0.13486-0.26667-0.10156-0.5-0.2-1.6333 0.28447-3.1837 1.4512-4.6504 0.2667-0.36667 0.91592-0.68255 1.9492-0.94922 0.9667-0.23333 1.7167-0.31667 2.25-0.25zm2.3008 0.94925c0.1333 0.1 0.24961 0.25117 0.34961 0.45117 0.9 0.8 1.3341 1.7826 1.3008 2.9492 0 1.2-0.083 1.9829-0.25 2.3496-0.8667-0.8-2.2504-1.5151-4.1504-2.1484-0.1333-0.0333-0.2167-0.0682-0.25-0.10156-0.033-0.0336-7.9e-4 -0.0992 0.0996-0.19922 0.9333-0.8 1.7163-1.8504 2.3496-3.1504 0.1667-0.3 0.35078-0.35039 0.55078-0.15039zm-26 0.10156 0.25 0.94922c0.3667 2.0667 1.5992 3.0492 3.6992 2.9492 0.19018 0 0.13339 0.17662 0.17187 0.28516-3e-3 8e-3 -0.0189 8e-3 -0.0215 0.0156l-0.0488 0.52344c-0.1679 0.34649-0.41891 0.71173-0.6582 1.0742-0.53844 0.89867-1.2944 1.8452-2.3164 2.8516-0.59822 0.63428-1.22 0.9377-1.877 0.75-0.8333-0.4-1.4671-0.65-1.9004-0.75-0.42211-0.11726-0.65728-0.42089-0.91406-0.70313-0.25073-0.26867-0.48264-0.56365-0.56641-1.0664-0.0177-0.0715-0.0351-0.14378-0.0527-0.22461-0.10789-0.65178 0.0574-1.2852 0.32031-1.9121 0.30495-0.73136 0.53807-1.3264 0.76562-1.9082 0.19912-0.43464 0.23307-0.46835 0.54883-1.1856h-0.05082l0.2207-0.56445c0.17326-0.58264 0.62405-0.91874 1.3789-0.98438 0.5 0 0.85078-0.0329 1.0508-0.0996zm-29.752 2.1484 0.084 0.0918c-0.0574 0.0123-0.0924 0.0741-0.14648 0.0937zm51.652 2.2012c0.3333-0.2 0.75-0.2 1.25 0 0.2667 0.1 0.6833 0.28216 1.25 0.54883 1.0667 0.4 1.8321 0.83411 2.2988 1.3008l0.20117 0.25c-0.3333 0.63333-1.0175 1.2167-2.0508 1.75-0.6 0.3-1.4508 0.40078-2.5508 0.30078-1.1333-0.1-1.9492-0.3849-2.4492-0.85156-0.1-0.1-0.46631-0.54961-1.0996-1.3496-0.067-0.16667-0.016-0.25 0.15039-0.25 0.7667-0.23333 1.7667-0.79922 3-1.6992zm6.7734 2.5996c0.6833-0.18333 1.4421-0.13294 2.2754 0.15039 0.2 0.0333 0.23261 0.11667 0.0996 0.25-1.4666 1.3667-2.8833 2.2329-4.25 2.5996l-0.5-0.19922c0.06641-0.63335 0.25079-1.1508 0.55079-1.5508 0.5333-0.65 1.1409-1.0667 1.8242-1.25zm3.0254 1.0996c0.3333-0.13333 0.56787-0.0326 0.70117 0.30078 0.1 0.16667 0.1833 0.44961 0.25 0.84961 0.1333 0.5 0.11622 0.85078-0.0508 1.0508-0.1667 0.23333-0.5 0.23333-1 0-0.5667-0.26667-1.4175-0.40039-2.5508-0.40039 0.4333-0.16667 0.91787-0.48451 1.4512-0.95117 0.5667-0.46667 0.96592-0.74961 1.1992-0.84961zm-3.75 2.5508c1.3-0.0333 2.7012 0.16628 4.2012 0.59961 0.2667 0.0667 0.36553 0.18294 0.29883 0.34961-0.033 0.1-0.1167 0.23372-0.25 0.40039-0.5667 0.93333-1.4329 1.4004-2.5996 1.4004-1.6333 0.0667-2.6663-0.66784-3.0996-2.2012-0.1333-0.36667 0.34922-0.54883 1.4492-0.54883z"/>
 <g transform="translate(-555.75)">
  <path transform="translate(160.15,84.1)" d="m400.6-84.1c-3.3333 0-5 1.6667-5 5v158.2c0 3.3333 1.6667 5 5 5h93.199c3.3333 0 5-1.6667 5-5v-158.2c0-3.3333-1.6667-5-5-5zm8.3008 7.1992h76.6c4.6667 0 7 2.3333 7 7v139.8c0 4.6667-2.3333 7-7 7h-76.6c-4.6667 0-7-2.3333-7-7v-139.8c0-4.6667 2.3333-7 7-7z" fill="#ef1d1e"/>
  <path transform="translate(160.15,84.1)" d="m408.9-76.901c-4.6667 0-7 2.3333-7 7v139.8c0 4.6667 2.3333 7 7 7h76.6c4.6667 0 7-2.3333 7-7v-139.8c0-4.6667-2.3333-7-7-7z" fill="none" stroke="#000" stroke-width="1.2"/>
 </g>
</svg>
