<svg width="103.2" height="168.2" preserveAspectRatio="none" version="1.1" viewBox="0 0 103.2 168.2" xmlns="http://www.w3.org/2000/svg">
 <path d="m13.301 7.1992c-4.6667 0-7 2.3333-7 7v139.8c0 4.6667 2.3333 7 7 7h76.6c4.6667 0 7-2.3333 7-7v-139.8c0-4.6667-2.3333-7-7-7z" fill="#fff"/>
 <path d="m27.75 134.4c0.18802 0.87109 0.77135 1.7378 1.75 2.6 0.89049 0.77357 1.7572 1.2902 2.6 1.55l0.4 0.05c0.12877 0.0189 0.22877 0.0689 0.3 0.15 0.10013 0.10977 0.15013 0.22643 0.15 0.35v0.75c7e-3 0.40925 0.09 0.95925 0.25 1.65 4e-3 0.0335 4e-3 0.0668 0 0.1v0.15c0.085 0.52578 0.16836 0.89245 0.25 1.1 0.26367 0.66485 0.73034 0.99818 1.4 1 0 0 2.6366-2.0158 3.65 0.6 0.13945 0.81693 0.52279 1.2503 1.15 1.3l0.55-0.1h-0.05c1.4823-0.40169 2.699-1.485 3.65-3.25l0.05-0.1c0.0451-0.0706 0.11173-0.13724 0.2-0.2 0.0936-0.0377 0.19362-0.0543 0.3-0.05 0.10261 5e-3 0.18594 0.0387 0.25 0.1 0.95482 0.76315 2.0382 1.1465 3.25 1.15h0.1c0.0249-2e-3 0.0415-2e-3 0.05 0l0.7 0.1c0.43451-0.0111 0.76784-0.17773 1-0.5 0.31367-0.46146 0.33034-1.0448 0.05-1.75l-0.05-0.15c-2.6e-4 -0.0496-2.6e-4 -0.0996 0-0.15-3.9e-4 -0.62279 0.0996-1.0228 0.3-1.2 0.17265-0.20039 0.55599-0.30039 1.15-0.3h0.35c0.30534 3e-3 0.55534-0.0973 0.75-0.3 11.98-16.84-21.769-31.057-24.5-4.65zm4.35-75.05c-0.21575 0.45091-0.23242 0.96758-0.05 1.55 0.26706 0.24909 0.16706 0.69909-0.3 1.35-0.0401 0.07747-0.0901 0.12747-0.15 0.15l-0.2 0.15-0.6 0.6c-0.3418 0.43841-0.3918 0.90508-0.15 1.4h-0.05c0.86641 1.4948 2.1831 2.5615 3.95 3.2-0.72797 6.3893 2.7 6.6 2.7 6.6 0.0573 0.46992 0.1406 0.85326 0.25 1.15 0.0488 0.05638 0.0821 0.12305 0.1 0.2 0.0885 0.52461 0.38854 0.84128 0.9 0.95h0.05c0.25768 0.09974 0.55768 0.14974 0.9 0.15h0.2c0.74479-0.07305 1.5115-0.27305 2.3-0.6v0.05c0.85039-0.38034 1.5671-0.847 2.15-1.4 0.0889-0.04909 0.17227-0.08242 0.25-0.1 0.11107-0.01003 0.21107 0.0066 0.3 0.05 0.0835 0.02956 0.15013 0.07956 0.2 0.15 0.60339 0.85586 1.2534 1.5392 1.95 2.05 0 0 7.2195 7.4572 7.8-5-0.0318-1.0344-0.21513-1.901-0.55-2.6-0.0611-0.10508-0.0777-0.22174-0.05-0.35 0.0601-0.13398 0.14347-0.23398 0.25-0.3 1.3098-0.64375 2.3931-1.3438 3.25-2.1h0.05c0.76328-0.59753 1.13-1.2142 1.1-1.85-0.0984-0.64492-0.53177-1.1949-1.3-1.65l-0.65-0.4c-0.10755-0.04922-0.19089-0.13255-0.25-0.25-0.0253-0.1095-0.0253-0.22617 0-0.35 0.0928-0.16484 0.30951-0.56484 0.65-1.2 0.0371-0.03724 0.0705-0.07057 0.1-0.1l0.05-0.05c0.47839-0.57435 0.67839-1.091 0.6-1.55v-0.05c-0.0684-0.45195-0.38503-0.80195-0.95-1.05h-0.05c-1.1789-0.63047-2.4289-0.94714-3.75-0.95-0.91003 0.0025-1.86 0.16913-2.85 0.5-0.0822 0.04453-0.18216 0.04453-0.3 0-0.0721-0.0011-0.1388-0.0344-0.2-0.1-0.0746-0.0707-0.12461-0.15404-0.15-0.25l-0.55-2.85v-0.05c-0.0801-0.61901-0.33008-1.119-0.75-1.5-0.29011-0.23724-0.64011-0.35391-1.05-0.35-0.37422 0.0059-0.75755 0.12253-1.15 0.35-0.0231 0.03776-0.0564 0.05443-0.1 0.05l-0.05 0.05-0.45 0.25h0.05c-0.58281 0.41628-1.0662 0.61628-1.45 0.6-0.41979 0.06289-0.88646-0.33711-1.4-1.2-0.28034-0.4905-0.66367-0.7405-1.15-0.75-0.34115 0.01745-0.70781 0.20078-1.1 0.55v0.05c-1.288 1.4898-2.2214 3.1898-2.8 5.1v0.15c6.7e-4 0.09883-0.0327 0.18216-0.1 0.25-0.0325 0.09505-0.0992 0.16172-0.2 0.2-0.0706 0.04297-0.15391 0.05963-0.25 0.05l-1.75-0.2c-0.43347 0.01367-0.9168 0.11367-1.45 0.3-8e-3 0.02721-0.0245 0.04388-0.05 0.05l-0.25 0.05c-0.74063 0.15599-1.224 0.42266-1.45 0.8l-0.05 0.05m42.3-37.1-0.05-0.05c-0.17097-0.45495-0.5043-0.70495-1-0.75-0.77982-0.06588-1.3965-0.09922-1.85-0.1-0.4832-0.0012-0.79987-0.10117-0.95-0.3-0.0988-0.09648-0.14883-0.21315-0.15-0.35-0.0108-0.2263 0.0725-0.5263 0.25-0.9 0.23399-0.42162 0.28399-0.83828 0.15-1.25v-0.05c-0.0922-0.34583-0.35885-0.62917-0.8-0.85-0.58359-0.29909-1.2503-0.44909-2-0.45-1.4842-0.0023-2.7676 0.38099-3.85 1.15-0.0832 0.05794-0.1832 0.09128-0.3 0.1-0.0723 0.0089-0.1556-0.0078-0.25-0.05-0.0678-0.04805-0.13451-0.11471-0.2-0.2-0.86211-1.5164-1.5454-2.5331-2.05-3.05v-0.05c-0.71589-0.80195-1.6159-1.202-2.7-1.2h-0.05c-0.66367 0-1.1137 0.3-1.35 0.9-0.0645 0.24323-0.0978 0.57656-0.1 1v0.2c3e-3 0.03294 3e-3 0.06628 0 0.1-0.0796 0.38594-0.17956 0.68594-0.3 0.9-0.0519 0.11367-0.13527 0.197-0.25 0.25-0.0691 0.04831-0.15247 0.06497-0.25 0.05l-0.4-0.05c-0.11601-0.01693-0.21601-0.06693-0.3-0.15l-0.15-0.15c-0.44049-0.49245-0.94049-0.74245-1.5-0.75-0.76198 0.02227-1.3453 0.48893-1.75 1.4-0.83347 1.8185-0.95013 3.4518-0.35 4.9 0.0451 0.09753 0.0617 0.19753 0.05 0.3-0.0243 0.0957-0.0743 0.17904-0.15 0.25-0.0615 0.06667-0.1448 0.1-0.25 0.1-1.7431 0.43281-3.1431 1.2161-4.2 2.35v-0.05c-0.61485 0.725-0.88151 1.3583-0.8 1.9 0.15847 0.55221 0.52513 0.93555 1.1 1.15v0.05c0.68867 0.29401 1.0387 0.61068 1.05 0.95 0.12097 0.51289-0.1457 1.1129-0.8 1.8v-0.05c-0.5418 0.66224-0.50847 1.3289 0.1 2 0.94531 0.99883 2.0286 1.6488 3.25 1.95h0.05l0.4 0.15h-0.05c0.88971 0.2319 1.4897 0.34857 1.8 0.35 0.56523 0.0011 1.0652-0.14893 1.5-0.45 8.4119 1.8629 16.2-7.4 16.2-7.4 0.58203-0.0063 1.1154-0.2396 1.6-0.7h0.05c0.75377-0.60143 1.2871-1.3848 1.6-2.35 0.31315-0.93815 0.31315-1.7882 0-2.55" fill="#fad4d1"/>
 <path d="m61.344 24.551c-0.8637 0.0012-1.5617 0.23373-2.0938 0.69922-0.5333 0.46667-0.8337 1.0675-0.9004 1.8008-0.033 0.63333 0.1837 1.1992 0.6504 1.6992 0.4667 0.5 1.1159 0.76745 1.9492 0.80078h0.7012c0.1333 0 0.2496 0.03294 0.3496 0.09961 0.067 0.06667 0.1171 0.1655 0.1504 0.29883 0.033 0.1 0.016 0.21823-0.051 0.35156-0.3 0.6-0.4996 1.3151-0.5996 2.1484l-0.051 0.5c0 0.13333-0.048 0.25156-0.1484 0.35156-0.1334 0.06667-0.2671 0.09961-0.4004 0.09961l-2.2012-0.20117c-0.9333 0-1.7821 0.16667-2.5488 0.5-0.3 0.1-0.583 0.23373-0.8496 0.40039-0.4 0.2-0.6675 0.48294-0.8008 0.84961-0.067 0.36666 0.017 0.7349 0.25 1.1016l0.9496 1.4492c0.033 0.06667 0.051 0.16745 0.051 0.30078 0 0.1-0.033 0.18333-0.1 0.25-0.067 0.1-0.15 0.16589-0.25 0.19922l-0.1504 0.05078h-0.051c-0.8333 0.16667-1.3663 0.48255-1.5996 0.94922h0.051c-0.2333 0.56666-0.1345 1.2004 0.2988 1.9004 0.6334 0.99999 1.1837 1.75 1.6504 2.25 0.7 0.79999 1.5508 1.3504 2.5508 1.6504 0.067 0 0.1325 0.03294 0.1992 0.09961 0.067 0.06667 0.1171 0.15 0.1504 0.25v0.25c-0.4 1.2-0.4504 2.3822-0.1504 3.5488v0.25c0.2667 1.0667 0.6833 1.8167 1.25 2.25 0.3 0.23333 0.6508 0.35156 1.0508 0.35156 0.5 0 0.967-0.25 1.4004-0.75h0.049l0.1-0.20117c0.033-0.06667 0.1012-0.11706 0.2012-0.15039l0.2988-0.14844c0.1-0.06667 0.2182-0.06667 0.3516 0 0.1333 0.03333 0.2321 0.11667 0.2988 0.25 0.4 0.76666 0.5841 1.2667 0.5508 1.5 0 0.46667 0.1492 0.84844 0.4492 1.1484h-0.049c0.3 0.29999 0.6488 0.45117 1.0488 0.45117l0.6504-0.09961-0.051 0.04883c2.4333-0.66666 4.1175-1.9826 5.0508-3.9492 0.033-0.1 0.1167-0.18333 0.25-0.25 0.067-0.06667 0.1674-0.08411 0.3008-0.05078 0.1 0.03333 0.1988 0.08372 0.2988 0.15039 1.1333 1.2 2.3833 1.8163 3.75 1.8496h0.051c3.3112-0.13246 5.246-3.0969 6.6002-5.7988 0.2667-1.8-0.1171-3.4337-1.1504-4.9004l-0.5996-0.84961c-0.067-0.1-0.1-0.21823-0.1-0.35156 0.033-0.13333 0.099-0.23216 0.1992-0.29883 1.4667-1.3333 2.4008-3.0175 2.8008-5.0508 0.1-0.46666 0.082-0.8504-0.051-1.1504l-0.049-0.04883v-0.05078c-0.3-0.36666-0.6682-0.58372-1.1016-0.65039h-0.049l-1-0.19922c-0.1-0.03333-0.1833-0.08372-0.25-0.15039-0.1-0.1-0.1504-0.19883-0.1504-0.29883l-0.1-1.1504c0-0.06667 0.015-0.11706 0.049-0.15039 0.1334-0.66666 0.05-1.2171-0.25-1.6504-0.3333-0.43333-0.7984-0.65039-1.3984-0.65039l-0.8008 0.10156c-1.8667 0.33333-3.3841 0.94962-4.5508 1.8496-0.067 0.06667-0.15 0.09961-0.25 0.09961-0.1333 0-0.2321-0.01745-0.2988-0.05078-0.1-0.06667-0.1678-0.15-0.2012-0.25-0.3-0.76666-0.5829-1.3151-0.8496-1.6484l-0.1988-0.30078c-0.7-1.0667-1.4171-1.6171-2.1504-1.6504h-0.051c-0.8 0.06667-1.4666 0.7004-2 1.9004-0.033 0.06667-0.066 0.11706-0.1 0.15039l-0.049 0.04883c-0.1 0.1-0.2182 0.15039-0.3516 0.15039-0.1333 0-0.2496-0.03294-0.3496-0.09961l-1-0.94922v-0.050782c-0.2333-0.26667-0.4988-0.40039-0.7988-0.40039h-0.062l-0.3985 0.05078c-0.1333 0-0.2515-0.03294-0.3515-0.09961s-0.1659-0.16745-0.1992-0.30078l-0.051-0.25c-0.5656-1.431-1.4477-2.1636-2.6445-2.1992zm-30.443 12.898c-0.7 0.03333-1.2833 0.30078-1.75 0.80078v0.05078c-0.4667 0.56667-0.6508 1.2488-0.5508 2.0488 0.067 0.56667 0.2837 1.0512 0.6504 1.4512v0.04883c0.3333 0.4 0.7674 0.59961 1.3008 0.59961h0.1c0.7333-0.03333 1.3496-0.29884 1.8496-0.79883v-0.05078c0.4667-0.49999 0.6837-1.1163 0.6504-1.8496-0.067-0.93332-0.3496-1.6-0.8496-2v0.05078c-0.3334-0.23333-0.7171-0.35156-1.1504-0.35156zm-17.75 17.5c-0.8 0-1.4512 0.25-1.9512 0.75-0.5333 0.56666-0.7988 1.3167-0.7988 2.25 0 0.79999 0.3333 1.4182 1 1.8516 0.3667 0.26667 0.8667 0.44883 1.5 0.54883h0.2988c0.7-0.06667 1.2834-0.33216 1.75-0.79883v0.04883c0.4334-0.53332 0.6679-1.1671 0.7012-1.9004 0-0.79999-0.2171-1.4492-0.6504-1.9492-0.4667-0.5-1.05-0.76745-1.75-0.80078zm54.6 5.4004c-1.3333 0.03333-2.0833 0.83374-2.25 2.4004-0.067 0.66666 0.083 1.1996 0.4492 1.5996l0.051 0.05078c0.3333 0.36666 0.8004 0.54883 1.4004 0.54883h0.25c0.6667-0.03333 1.217-0.26589 1.6504-0.69922v-0.05078c0.4333-0.5 0.6833-1.1163 0.75-1.8496 0-0.53332-0.1512-0.9655-0.4512-1.2988-0.4333-0.46666-1.0167-0.70117-1.75-0.70117zm-24 1.6504c-0.7667 0.03333-1.3829 0.31628-1.8496 0.84961-0.5333 0.53333-0.8008 1.2174-0.8008 2.0508 0 0.79999 0.2345 1.4337 0.7012 1.9004 0.088 0.08806 0.2423 0.05946 0.3398 0.13086 0 0.0052 0.01 0.0124 0.01 0.01758 0.4682 0.53333 1.067 0.80078 1.7988 0.80078 0.7327 0 1.3664-0.26745 1.9004-0.80078 0.5333-0.53333 0.8008-1.1651 0.8008-1.8984 0-0.61142-0.2306-1.1369-0.6016-1.6094-0.1067-0.21154-0.082-0.52587-0.248-0.69141-0.4667-0.5-1.1004-0.75-1.9004-0.75zm-17.699 3.1992c-0.4 0-0.7179 0.16667-0.9512 0.5-0.6333 0.69999-1.2167 1.0333-1.75 1-0.5667 0.03333-1.0822-0.3155-1.5488-1.0488-0.2-0.2-0.45-0.30078-0.75-0.30078h-0.1016c-0.3333 0.03333-0.5659 0.20001-0.6992 0.5v0.05078l-0.5508 0.94922v0.05078c-0.3333 0.46666-0.5988 0.98216-0.7988 1.5488v-0.04883c-0.1667 0.49999-0.283 1.0155-0.3496 1.5488l-0.051 0.75c0 0.1-0.05 0.20078-0.1504 0.30078-0.1 0.1-0.1988 0.15039-0.2988 0.15039-0.5334 0.03333-0.9345 0.08372-1.2012 0.15039-0.6667 0.1-1.6667 0.33255-3 0.69922-0.4667 0.1-0.9667 0.46628-1.5 1.0996l-0.1 0.15039-0.1016 0.09961c-0.2 0.2-0.2677 0.46745-0.2011 0.80078v0.04883c0.033 0.29999 0.1671 0.55 0.4004 0.75 0.3667 0.33333 0.6011 0.63373 0.7011 0.90039 0.033 0.06667 0.051 0.15 0.051 0.25 0 0.06667-0.017 0.15-0.051 0.25-0.1667 0.2-0.4341 0.48294-0.8008 0.84961-0.6 0.46666-0.7007 1.0345-0.3007 1.7012 0.8667 1.4667 1.9015 2.3329 3.1015 2.5996 0.1 0.03333 0.1833 0.08372 0.25 0.15039 0.067 0.06667 0.1152 0.15 0.1485 0.25 0.033 0.1 0.033 0.19883 0 0.29883-0.5 1.3-0.4496 2.8 0.1504 4.5 0.2333 0.63332 0.6674 0.95117 1.3007 0.95117 0.2333 0 0.4989-0.05039 0.7989-0.15039 0-0.03333 0.019-0.05078 0.053-0.05078 0.6-0.36667 1.0167-0.53333 1.25-0.5 0.1333 0 0.2496 0.05039 0.3496 0.15039 0.1333 0.1 0.3175 0.43334 0.5508 1l0.1 0.20117 0.051 0.04883c0.4333 1.1 1.0651 1.6678 1.8984 1.7012h0.3008c2.0667-0.36666 3.6326-1.5682 4.6992-3.6016 0.033-0.1 0.1012-0.16589 0.2012-0.19922 0.1-0.06667 0.1988-0.09961 0.2988-0.09961 0.067 0 0.15 0.03294 0.25 0.09961 1.2334 0.86666 2.6016 1.3008 4.1016 1.3008h0.049l1.2012-0.10156c0.6-0.1 1.0321-0.3655 1.2988-0.79883 0.2-0.4 0.2-0.86706 0-1.4004v-0.05078l-0.1504-0.5c-0.033-0.1-0.033-0.18333 0-0.25 0-0.1 0.035-0.18333 0.1016-0.25 0.067-0.06667 0.15-0.09961 0.25-0.09961l0.5996-0.15039c0.033-0.03333 0.066-0.04883 0.1-0.04883 1.0667 0 1.7663-0.43412 2.0996-1.3008 0.2667-0.86666 0.1175-1.9655-0.4492-3.2988-0.3333-0.76666-0.7171-1.4004-1.1504-1.9004-0.067-0.1-0.1171-0.18333-0.1504-0.25 0-0.1 0.027-0.20078 0.061-0.30078 0.033-0.1 0.099-0.16588 0.1992-0.19922 1-0.7 1.6667-1.6167 2-2.75 0.1-0.43333 0.05-0.78412-0.1504-1.0508-0.033-0.03333-0.053-0.06628-0.053-0.09961-0.1999-0.26667-0.5333-0.41588-1-0.44922h-0.1035l-0.5488 0.04883h0.1016l-0.2032 0.05078h-0.2968c-0.1333-0.06667-0.2167-0.13451-0.25-0.20117-0.1667-0.16667-0.1667-0.56589 0-1.1992l-0.055 0.05078 0.1015-1c0-0.06667 0.015-0.11706 0.049-0.15039 0.4-0.93333 0.1675-1.6174-0.6992-2.0508-0.4667-0.19999-0.9008-0.29883-1.3008-0.29883-0.1666 0-0.5659 0.04844-1.1992 0.14844h0.059c-0.9667 0.2-1.9007 0.66706-2.8007 1.4004-0.067 0.06667-0.15 0.09961-0.25 0.09961s-0.2008-0.0155-0.3008-0.04883c-0.1-0.06667-0.1659-0.13451-0.1992-0.20117l-0.1108-0.19921c-0.5333-1.0667-0.8996-1.7663-1.0996-2.0996-0.033-0.06667-0.051-0.11706-0.051-0.15039l-0.051-0.15039c-0.3666-0.73332-0.8318-1.1171-1.3984-1.1504zm31.25 2.9004c-0.3667 0-0.7 0.15118-1 0.45117v0.04883c-1.6 1.3667-2.4837 3.0179-2.6504 4.9512 0 0.36667-0.068 0.68255-0.2012 0.94922-0.2333 0.43333-0.4659 0.61745-0.6992 0.55078h-0.1504l-0.5-0.15039-0.049-0.05078c-0.4-0.19999-0.7682-0.29883-1.1016-0.29883-0.7666 0.03333-1.2821 0.48294-1.5488 1.3496l-0.2012 0.65039-0.1992 0.29883c-0.1 0.03333-0.2163 0.05078-0.3496 0.05078l-0.5508-0.05078c-0.4667 0.03333-0.8988 0.23294-1.2988 0.59961l-0.1016 0.10156-0.049 0.04883-0.1504 0.09961h-0.051l-0.6986 0.40038c-0.3333 0.3-0.4671 0.68372-0.4004 1.1504 0.2333 1.8333 1.15 3.2326 2.75 4.1992v-0.04883l0.5 0.25c0.1 0.06667 0.1833 0.1655 0.25 0.29883 0.033 0.1 0.033 0.21823 0 0.35156-0.4333 1.1-0.5496 2.4333-0.3496 4 0.1 0.89999 0.5341 1.3651 1.3008 1.3984 0.2333 0 0.5318-0.06589 0.8984-0.19922 0.033-0.03333 0.084-0.05078 0.1504-0.05078h0.051c0.2667 0 0.6 0.11823 1 0.35156h-0.051c0.3333 0.16667 0.5678 0.36628 0.7012 0.59961 0.033 0.06667 0.049 0.15 0.049 0.25v0.19922c0 0.76667 0.1512 1.3171 0.4512 1.6504l0.049 0.05078c0.2333 0.26667 0.6171 0.39844 1.1504 0.39844l0.6504-0.04883 0.2988-0.09961c0.067-0.06667 0.15-0.10156 0.25-0.10156 1.9667-0.23333 3.5849-1.1984 4.8516-2.8984 0.067-0.06667 0.15-0.11706 0.25-0.15039 0.067-0.03333 0.1655-0.03333 0.2988 0 0.067 0 0.15 0.03294 0.25 0.09961 1.1667 1.3 2.4341 2.1159 3.8008 2.4492 5.7364-0.07915 6.1525-4.8984 6.1525-4.8984 0.4666-1.8 0.2496-3.5849-0.6504-5.3516-0.067-0.13333-0.067-0.2651 0-0.39844 0.033-0.13333 0.1167-0.23411 0.25-0.30078 0.4667-0.26667 0.9823-0.65039 1.5489-1.1504l0.051-0.04883 0.8007-0.65039h0.049c0.5667-0.4 0.8496-0.88451 0.8496-1.4512-0.033-0.53333-0.3492-0.98294-0.9492-1.3496-0.8-0.49999-1.05-1.0988-0.75-1.7988v-0.050776l0.1503-0.30078c0.3667-0.79999 0.4656-1.4492 0.2989-1.9492-0.3-0.56666-0.8-0.93295-1.5-1.0996-1.1666-0.33333-2.1666-0.5-3-0.5-0.9 0-1.6985 0.14923-2.3985 0.44922-0.1 0.03333-0.1834 0.05078-0.25 0.05078-0.1-0.03333-0.1834-0.06628-0.25-0.09961-0.1-0.06667-0.1504-0.1345-0.1504-0.20117-0.2-0.56666-0.3336-0.9-0.4003-1v-0.04883l-0.1-0.25c-0.4-0.89999-0.9-1.3671-1.5-1.4004-0.4333 0-0.8674 0.19961-1.3007 0.59961v0.05078c-0.5333 0.46667-1.0663 0.69922-1.5996 0.69922-0.6667 0.03333-1.25-0.30001-1.75-1l-0.053-0.05078c-0.3333-0.4-0.7151-0.59961-1.1484-0.59961zm-17.15 38.85c-0.3333 0-0.6337 0.18411-0.9004 0.55078 0 0.0333-0.017 0.0508-0.051 0.0508l-0.5 0.84961c-0.4 0.7-0.7159 1.1167-0.9492 1.25-0.067 0.0333-0.15 0.0488-0.25 0.0488h-0.051c-0.1 0-0.1988-0.0329-0.2988-0.0996l-0.4512-0.34961c-0.3666-0.26667-0.6166-0.45078-0.75-0.55078-0.067-0.0333-0.1151-0.0663-0.1484-0.0996-0.3334-0.26667-0.6337-0.40039-0.9004-0.40039-0.4 0-0.7663 0.21706-1.0996 0.65039v-0.0488c-0.7667 1.1333-1.2512 2.4318-1.4512 3.8984-0.033 0.1-0.084 0.20078-0.1504 0.30078-0.1 0.0667-0.2163 0.0996-0.3496 0.0996h-0.6992c-0.3 0-0.6004 0.0174-0.9004 0.0508-0.8 0.1-1.6508 0.29961-2.5508 0.59961h0.0512c-1.2333 0.43333-1.9504 0.93333-2.1504 1.5-0.1333 0.6 0.1496 1.3674 0.8496 2.3008 0.033 0.0333 0.051 0.0663 0.051 0.0996l0.051 0.0996c0.033 0.0667 0.049 0.13255 0.049 0.19922 0.067 0.36667-0.1 0.56823-0.5 0.60156l-0.1504 0.0996c-0.033 0-0.049 0.0155-0.049 0.0488-0.3667 0.13333-0.7 0.31745-1 0.55078v0.0508c-0.1667 0.16667-0.283 0.38177-0.3496 0.64844l-0.1016 0.20117c-0.067 0.0667-0.1325 0.11706-0.1992 0.15039l-1.8008 0.64844c-0.1333 0.0667-0.2496 0.0841-0.3496 0.0508-0.1333-0.0333-0.2322-0.0992-0.2988-0.19922l-0.25-0.35156v-0.0488c-0.7334-1.2-1.4-2.0837-2-2.6504h0.049c-0.6333-0.56667-1.2825-0.95039-1.9492-1.1504l-0.4004-0.0488c-0.5333 0.0667-0.9171 0.44844-1.1504 1.1484v-0.0488l-0.049 0.15039c-0.033 0.0333-0.051 0.0818-0.051 0.14844l-0.5 0.75c-0.067 0.0667-0.15 0.11706-0.25 0.15039-0.1 0.0333-0.2008 0.0508-0.3008 0.0508-0.1-0.0333-0.1833-0.0837-0.25-0.15039l-0.5996-0.59961c-0.1333-0.13333-0.267-0.23411-0.4004-0.30078-0.2333-0.16667-0.4659-0.25-0.6992-0.25s-0.4833 0.10078-0.75 0.30078l-0.051 0.0488c-0.7666 0.46666-1.3325 1.4008-1.6992 2.8008v0.0508c-0.4667 1.1-0.5674 2.1155-0.3008 3.0488 0.033 0.13333 0.018 0.26706-0.049 0.40039-0.067 0.1-0.1675 0.18333-0.3008 0.25l-2.1992 0.75c-1 0.33333-1.6163 0.89922-1.8496 1.6992v0.05065c-0.2667 0.66667 0 1.25 0.7988 1.75h0.051l0.1 0.0996c0.5667 0.46667 0.8167 0.81745 0.75 1.0508 0.067 0.26667-0.2337 0.63294-0.9004 1.0996-0.4333 0.3-0.6833 0.61589-0.75 0.94922-0.067 0.3 0 0.60039 0.2012 0.90039 1.1 1.6333 2.4663 2.5345 4.0996 2.7012 0.1333 0 0.2496 0.0659 0.3496 0.19922 0.067 0.1 0.1 0.21628 0.1 0.34961-0.1 1.2333 0.15 2.4833 0.75 3.75 0.6333 1.4 1.55 2.1171 2.75 2.1504 0.4333 0 0.883-0.13372 1.3496-0.40039l1.0508-0.90039c0.067-0.1 0.1674-0.14844 0.3008-0.14844 0.1333 0 0.2496 0.0484 0.3496 0.14844l0.1992 0.20117c0.067 0.0667 0.1171 0.13255 0.1504 0.19922l0.2492 0.6504v0.0508c0.2667 0.36667 0.6174 0.54883 1.0508 0.54883 0.2333 0 0.4484-0.0504 0.6484-0.15039 1.6-0.76667 2.7182-2.1155 3.3516-4.0488l0.049-0.20117c0.033-0.13333 0.084-0.23216 0.1504-0.29883 0.1-0.1 0.2163-0.15039 0.3496-0.15039h0.25c1.3 0 2.7341-0.38372 4.3008-1.1504h0.049l0.051-0.0488c0.4-0.33333 0.6674-0.65117 0.8008-0.95117 0.033-0.23333 0-0.48333-0.1016-0.75v0.0508l-0.049-0.0996c-0.067-0.13333-0.067-0.26706 0-0.40039 0.033-0.13333 0.099-0.21667 0.1992-0.25l0.5-0.30078 0.051-0.0488c0.6-0.33333 0.9488-0.76745 1.0488-1.3008 0.1-0.5-0.067-1.0329-0.5-1.5996l-0.2988-0.40039c-0.067-0.1-0.1-0.21628-0.1-0.34961s0.066-0.23411 0.1992-0.30078c0.2-0.2 0.3667-0.39961 0.5-0.59961 0.067-0.1 0.1674-0.16589 0.3008-0.19922l1.7988-0.5c0.033-0.0333 0.066-0.0508 0.1-0.0508h0.051c1.2-0.1 1.8667-0.68333 2-1.75v-0.15039c0.1333-1.1333 0.3174-1.8988 0.5508-2.2988 0.033-0.0667 0.082-0.11706 0.1484-0.15039 0.067-0.2 0.095-0.39961 0.062-0.59961-0.033-0.13333-4e-4 -0.25156 0.1-0.35156 0.033-0.13333 0.1167-0.19922 0.25-0.19922l0.5-0.15039c0.1-0.0333 0.201-0.0333 0.3008 0 0.067 0 0.1325 0.0329 0.1992 0.0996l0.25 0.25c0.4667 0.46666 1.083 0.70117 1.8496 0.70117h0.3516c0.8666-0.1 1.5159-0.56706 1.9492-1.4004 0.067-0.13333 0.15-0.21667 0.25-0.25 0.1-0.0333 0.2163-0.0333 0.3496 0 0.1 0.0333 0.201 0.0992 0.3008 0.19922 0.3 0.46666 0.5655 0.81745 0.7988 1.0508 0.033 0 0.051 0.0174 0.051 0.0508 0.1667 0.23333 0.3839 0.53177 0.6504 0.89844 0.033 0.0333 0.066 0.0837 0.1 0.15039 0.3 0.83333 0.7826 1.2674 1.4492 1.3008 0.2 0 0.4347-0.0678 0.7012-0.20117 1.5333-0.76667 2.7329-1.1484 3.5996-1.1484h0.051l0.7988 0.0996c0.067 0 0.1345 0.0329 0.2012 0.0996l0.5996 0.34961c0.1 0.0333 0.1835 0.11667 0.25 0.25 0.033 0.13333 0.016 0.24961-0.051 0.34961-0.3667 0.76666-0.45 1.3849-0.25 1.8516 0.2 0.4 0.5663 0.6655 1.0996 0.79883l0.8516 0.25c0.1333 0.0333 0.2321 0.10117 0.2988 0.20117 0.067 0.1 0.084 0.21628 0.051 0.34961l-0.1 0.54883v0.0507l-0.4004 1.1992c-0.033 0.0333-0.051 0.0682-0.051 0.10156-0.033 0.1-0.033 0.21628 0 0.34961 0.033 0.1 0.018 0.21628-0.049 0.34961-0.067 0.1-0.15 0.16589-0.25 0.19922l-1.2012 0.5c-0.033 0-0.049 0.0174-0.049 0.0508-0.6667 0.16667-1.0504 0.5-1.1504 1v0.0508c-0.1 0.43333 0.067 0.88294 0.5 1.3496l0.1504 0.15039c0.4333 0.5 0.7318 0.91667 0.8984 1.25v0.0488c0.1334 0.23333 0.2013 0.48333 0.2012 0.75v0.15038c0.1333 1.6667 0.6335 2.8663 1.5 3.5996l0.049 0.0508c0.9334 0.8 1.6681 1.2167 2.2012 1.25h0.049c0.6667-0.0333 1.3334-0.53333 2-1.5 0.067-0.1 0.15-0.16784 0.25-0.20117 0.1-0.0667 0.2008-0.0667 0.3008 0 0.1 0.0333 0.2008 0.10117 0.3008 0.20117l0.1 0.15039c0.4 0.7 0.9155 1.0488 1.5488 1.0488 0.4334 0 0.8347-0.13372 1.2012-0.40039 1.9-1.3333 2.9155-2.8818 3.0488-4.6484v-0.15039c0-0.13333 0.05-0.23411 0.1504-0.30078 0.067-0.1 0.1677-0.16589 0.3008-0.19922l1.6992-0.20117c2.6073-0.86317 2.9004-7.0488 2.9004-7.0488-1.1-1.9333-2.6504-3.0496-4.6504-3.3496-0.1 0-0.1988-0.0349-0.2988-0.10156-0.1-0.0667-0.1503-0.15-0.1504-0.25-0.067-0.1-0.067-0.19883 0-0.29883l0.2988-1.0996-0.049 0.0488c0.1667-1.0667-0.017-1.9329-0.5508-2.5996-0.2667-0.33333-0.6-0.5-1-0.5-0.3333 0-0.6996 0.14922-1.0996 0.44922h-0.051l-0.2988 0.15039c-0.1331 0.0667-0.2496 0.0841-0.3496 0.0508-0.1334-0.0333-0.2341-0.0837-0.3008-0.15039-0.067-0.1-0.1-0.21628-0.1-0.34961v-0.1504l-0.051-0.40039c0-0.0667 0.017-0.13255 0.051-0.19922v-0.0508c0-0.7-0.1163-1.1826-0.3496-1.4492-0.033 0-0.051-0.0174-0.051-0.0508-0.2-0.26667-0.4848-0.40039-0.8515-0.40039h-0.059l-0.4023 0.05082c-2.3666 0.5-3.9829 1.5833-4.8496 3.25-0.067 0.1-0.15 0.16589-0.25 0.19922-0.1 0.0333-0.1988 0.0508-0.2988 0.0508-0.1334-0.0333-0.2341-0.0992-0.3008-0.19922l-0.1992-0.25c-0.067-0.1-0.1016-0.20078-0.1016-0.30078s0.035-0.20078 0.1016-0.30078l0.5488-0.69922c0.8954-1.2602 1.2264-2.438 1-3.5332-0.2479-0.69733-0.8438-1.1195-1.8496-1.2168h-0.1992c-0.067 0-0.1345-0.0174-0.2012-0.0508l-0.1-0.0488c-0.1-0.0667-0.1833-0.1345-0.25-0.20117-0.067-0.1-0.084-0.19883-0.051-0.29883s0.084-0.18333 0.1504-0.25v-0.0508c0-0.0333 0.017-0.0663 0.051-0.0996 0.3333-0.46667 0.5-0.88333 0.5-1.25v-0.19924c-0.1333-0.5-0.4337-0.86823-0.9004-1.1016-1.0667-0.5-2.0996-0.75-3.0996-0.75-1.2333 0-2.5667 0.35078-4 1.0508-0.1 0.0333-0.2008 0.0508-0.3008 0.0508s-0.1833-0.0349-0.25-0.10156c-0.067-0.0667-0.117-0.13255-0.1504-0.19922l-0.1988-0.44924c-0.4333-1-0.7996-1.7016-1.0996-2.1016-0.4667-0.73333-1.0171-1.2992-1.6504-1.6992-0.1 0-0.1659-0.0174-0.1992-0.0508-0.2334-0.16667-0.4504-0.25-0.6504-0.25zm14.449 9.2676c0.01 0.0191 0.045 0.0136 0.051 0.0332l-0.051-0.0508zm-13.4 13.834c-0.7333 0-1.3166 0.25-1.75 0.75h-0.049c-0.1326 0.12521-0.096 0.36317-0.1992 0.50781-0.098 0.0695-0.2096 0.1063-0.3008 0.19141-0.4667 0.5-0.7012 1.1008-0.7012 1.8008s0.2345 1.2833 0.7012 1.75c0.5 0.5 1.0988 0.75 1.7988 0.75 0.7024-3e-3 1.1539-0.18745 1.3516-0.55078 0.01-0.0139 0.015-0.0518 0.023-0.0664 0.2353-0.13504 0.5172-0.11155 0.7266-0.33398v-0.0488c0.6333-0.7 0.9163-1.5004 0.8496-2.4004-0.1-0.66667-0.35-1.2345-0.75-1.7012-0.4-0.4-0.9-0.61511-1.5-0.64844zm24.551 15.75c-0.6667 0-1.2326 0.23255-1.6992 0.69922-0.4 0.4-0.6016 0.95039-0.6016 1.6504 0.067 0.7 0.3167 1.2833 0.75 1.75 0.4667 0.43333 1.0849 0.66589 1.8516 0.69922h0.2988c0.7 0 1.2678-0.19961 1.7012-0.59961 0.3-0.33333 0.4666-0.75 0.5-1.25 0.033-0.93333-0.2012-1.6504-0.7012-2.1504-0.5333-0.53333-1.2329-0.79883-2.0996-0.79883zm-28.4 2.5488c-1.2 0.1-1.9325 0.88294-2.1992 2.3496v0.0508l-0.051 0.0508v0.39843c-0.1 0.6 0.084 1.1349 0.5508 1.6016h-0.051c0.3333 0.33333 0.8004 0.5 1.4004 0.5h0.051c0.9333 0 1.5825-0.35078 1.9492-1.0508 0.2-0.4 0.3337-0.96589 0.4004-1.6992 0-0.73333-0.1841-1.3012-0.5508-1.7012-0.3333-0.33333-0.7655-0.5-1.2988-0.5z" fill="#ef1d1e"/>
 <path d="m57.848 13.65c-0.132 0.0661-0.215 0.11725-0.2481 0.15039l-0.6992 3.0488c-0.1 0.33333-0.3171 0.44961-0.6504 0.34961l-2.25-0.89844c-0.5667-0.23333-0.9833-0.11706-1.25 0.34961-0.5333 0.93332-0.8337 1.4663-0.9004 1.5996-0.4667 1.4-0.4373 2.7508 0.1 4.0508 0.1667 0.33333 0.2345 0.5155 0.2012 0.54883-0.1 0.16667-0.2841 0.28294-0.5508 0.34961-1.3333 0.23333-2.6492 0.85158-3.9492 1.8516-0.6333 0.46667-0.9996 1.0655-1.0996 1.7988-0.1 0.76667 0.1151 1.2667 0.6484 1.5 1.4667 0.7 1.6837 1.6845 0.6504 2.9512-0.2667 0.33333-0.4004 0.69961-0.4004 1.0996-0.033 0.39999 0.1004 0.70039 0.4004 0.90039 1.4 1.0667 2.6345 1.7159 3.7012 1.9492 0.4666 0.1 1.1818 0.15039 2.1484 0.15039 0.8334 0.13332 1.3837 0.6159 1.6504 1.4492 0.067 0.16667 0.2333 0.43412 0.5 0.80078 0.1 0.29999-0.15 0.51706-0.75 0.65039-1.4333 0.36667-1.9837 0.95001-1.6504 1.75 0.8 2.3 2.1508 3.8485 4.0508 4.6484 0.1333 0.06667 0.4008 0.11706 0.8008 0.15039 0.2666 0.1 0.3325 0.33452 0.1992 0.70117-0.6 1.7-0.5707 3.2485 0.1 4.6484 0.4 0.93332 0.7178 1.4837 0.9512 1.6504 0.2333 0.16667 0.6829 0.13373 1.3496-0.09961l0.7988-0.30078c0.2-0.06667 0.5004-0.28177 0.9004-0.64844 0.3667-0.16667 0.6671 0.0155 0.9004 0.54883 0.1667 0.26667 0.3159 0.76668 0.4492 1.5 0.3667 1.2 1.0334 1.6496 2 1.3496 2.7667-0.89999 4.5341-2.5318 5.3008-4.8984 0.6667 1.1667 1.8333 2.0329 3.5 2.5996 0.1333 0.03333 0.4337 0.03333 0.9004 0 0.3333-0.06667 0.5504 0.01667 0.6504 0.25 0.5 1.0667 0.9825 2.433 1.4492 4.0996 0.7333 2.6 1.2159 4.5496 1.4492 5.8496 0.5667 2.5 0.9 4.5679 1 6.2012 0.033 0.83332 0.1516 2.1163 0.3516 3.8496 0.067 3.8333 0.067 6.3663 0 7.5996-0.033 0.73332-0.3667 3.7005-1 8.9004l-0.5196 4.6191c-0.012 0.0068-0.018 0.02621-0.031 0.03125-0.057 0.05044-0.1224 0.06205-0.1875 0.07422l-3.0635-2.875c-0.2667-0.26667-0.7996-0.9159-1.5996-1.9492-0.6333-0.86665-1.2167-1.4849-1.75-1.8516-0.3333-0.2-0.5678-0.34922-0.7012-0.44922-0.3-0.2-0.4492-0.36667-0.4492-0.5-0.067-1.5333-0.4174-2.8492-1.0508-3.9492l-0.1484-0.20117c0-0.06667 0.083-0.13255 0.25-0.19922 1.1-0.5 2.2492-1.4012 3.4492-2.7012 0.3333-0.36667 0.5174-0.63217 0.5508-0.79883 0.1-0.33333-0.1016-0.61628-0.6016-0.84961-1.5333-0.79999-1.8492-1.9512-0.9492-3.4512 0.3333-0.59999 0.3177-1.0496-0.051-1.3496-1.2-1.0333-3.0333-1.4829-5.5-1.3496-0.5666 0.29999-0.9988 0.49961-1.2988 0.59961-0.5667 0.16667-0.8845-0.18413-0.9512-1.0508 0-0.03333-0.2655-0.54884-0.7988-1.5488-0.3333-0.6-0.1841-1.1679 0.4492-1.7012 0.3333-0.23333 0.7345-0.7159 1.2012-1.4492 0.4666-0.59999 1.05-0.83255 1.75-0.69922 0.7666 0.13333 1.4663-0.15158 2.0996-0.85156 0.6-0.7 0.817-1.4326 0.6504-2.1992-0.1334-0.69999-0.55-1.233-1.25-1.5996-0.7-0.36667-1.3667-0.41706-2-0.15039-0.5667 0.23333-1.0008 0.68296-1.3008 1.3496-0.3333 0.66667-0.3837 1.25-0.1504 1.75 0.2333 0.53333 0.1 1.0663-0.4004 1.5996-0.8666 0.96665-1.5333 1.8833-2 2.75-0.5 0.86665-1.1666 1.4016-2 1.6016-0.8666 0.23333-1.7 0.08216-2.5-0.45117-1.3666-0.89999-2.4151-0.78371-3.1484 0.34961l-1.0506 1.5508-0.8496-1.8496c0.9333-0.36667 1.4488-0.58372 1.5488-0.65039 1.1-0.56665 2.1349-1.3671 3.1016-2.4004 0.4333-0.43332 0.6329-0.85 0.5996-1.25-0.067-0.43332-0.3845-0.76667-0.9512-1-0.6-0.23332-0.9992-0.56667-1.1992-1-0.2-0.43332-0.1496-0.83256 0.1504-1.1992 0.4-0.56667 0.5996-0.88451 0.5996-0.95117 0.2-0.46667 0.3337-0.81551 0.4004-1.0488 0.067-0.43333-0.1-0.75117-0.5-0.95117-2.5667-1.4-5.183-1.4659-7.8496-0.19922 0.1666-1.3333-0.1008-2.8159-0.8008-4.4492-0.3-0.73332-0.4996-1.15-0.5996-1.25-0.3667-0.36665-0.8667-0.33372-1.5 0.09961-0.9667 0.63332-1.7012 0.98216-2.2012 1.0488-0.8 0.06667-1.4821-0.39845-2.0488-1.3984l-0.3008-0.050781c-0.1-0.03333-0.1-0.14962 0-0.34961 0.2667-0.46667 0.4663-0.76706 0.5996-0.90039 0.2412-0.24114 0.5912-0.35603 0.9961-0.40625l0.055 0.0059 0.5-0.04883 0.3008-0.15039h0.049c0.5567-0.16758 0.9908-0.35169 1.3008-0.55078 0.042-0.02405 0.047-0.05974 0.088-0.08398 0.899-0.48414 1.7743-1.1364 2.6113-2.0664 0.2327-0.26118 0.2507-0.57109 0.4316-0.84375 0.3343-0.51722 0.6539-1.0398 0.8204-1.6113 0.071-0.24586 0.2005-0.47856 0.2363-0.73242 0.1228-0.77657 0.1254-1.5917-0.037-2.4609v-0.050824c-0.027-0.15442-0.2021-0.12537-0.2578-0.24414-0.043-0.14188 0.01-0.26232-0.043-0.40625-0.1667-0.33332-0.3508-0.5-0.5508-0.5-0.3596 0.0899-0.4671 0.15623-0.7637 0.24024l-0.3847 0.06055 0.049-0.05078c-0.3509 0.09697-0.4825 0.23065-0.7734 0.33789-0.1817 0.06665-0.5432 0.15101-0.6758 0.21289-0.1144 0.0466-0.165 0.15115-0.2734 0.20312-0.1904 0.10494-0.5336 0.18422-0.6778 0.29688v-0.05078c-0.2965 0.27138-0.3971 0.48501-0.6523 0.74414-0.1593 0.15636-0.4113 0.22832-0.5469 0.40625-0.5697 0.6836-0.9196 1.1643-1.1973 1.5801-0.023 0.03613-0.081 0.08332-0.1035 0.11914 0 0.0084 3e-4 0.01891-0.01 0.02734-0.02 0.03052-0.076 0.09415-0.094 0.12305-0.4667 0.7-0.7322 1.4171-0.7988 2.1504 0 0.10613 0.038 0.56691 0.08 1.0742 0 0.11493-0.086 0.20994-0.08 0.32617v0.04883c0 0.0609 0.055 0.10147 0.066 0.1582 0 0.34751-0.014 0.68566-0.1172 0.89258-0.4667 0.96665-0.7826 1.6004-0.9492 1.9004-0.4334 0.66665-0.9334 1.1822-1.5 1.5488-0.1667-0.73333-0.2849-1.15-0.3516-1.25l-1.7988-3.75c-0.4-0.79999-0.933-1.7322-1.5996-2.7988-0.8-1.1667-1.4008-2.0504-1.8008-2.6504-0.4-0.36667-0.7004-0.66706-0.9004-0.90039-0.3667-0.36665-0.417-0.81629-0.1504-1.3496 0.4334-0.76665 0.2337-1.6659-0.5996-2.6992-0.5667-0.69999-1.3496-0.88411-2.3496-0.55078-0.7333 0.23333-1.2159 0.73335-1.4492 1.5-0.2667 0.76665-0.2182 1.6 0.1484 2.5 0.2334 0.5 0.65 0.83333 1.25 1 0.6334 0.16667 1.2671 0.11628 1.9004-0.15039 0.1333-0.06667 0.3-0.01628 0.5 0.15039 0.7 0.76665 1.6845 2.133 2.9512 4.0996 1.3 1.9666 2.3 3.8679 3 5.7012l0.5488 1.1484c0.1667 0.43332 0.196 0.80158 0.1 1.1016-0.067 0.26667-0.2992 0.81512-0.6992 1.6484-0.3333 0.66665-0.5329 1.2345-0.5996 1.7012-0.1 0.63332-0.35 0.69922-0.75 0.19922-1.5-1.4666-2.6163-2.5655-3.3496-3.2988l-0.6977-0.55079c-0.3-0.23333-0.4492-0.43296-0.4492-0.59961 0-0.0896-0.081-0.1596-0.088-0.24805 0-0.02323 0.034-0.02855 0.037-0.05273v-0.04883c0.034-0.272-0.3761-0.81274-0.4922-1.1758-0.1745-0.47401-0.1857-0.99097-0.5078-1.4258-0.032-0.04607-0.1217-0.11303-0.1562-0.16016-0.092-0.1403-0.038-0.19198-0.1426-0.33984-0.5873-0.74167-1.0945-1.0424-1.625-1.4688-0.099-0.08534-0.1215-0.14291-0.2266-0.23047-0.016-0.01387-0.043-0.01173-0.059-0.02539-0.2214-0.15796-0.4804-0.52405-0.6914-0.625-0.3302-0.17421-1.0157-0.2529-1.5625-0.36914-0.2348-0.06092-0.3848-0.24526-0.6367-0.28125-0.1872-0.02674-0.6159 9.84e-4 -0.8555-0.01367l-1.4935-0.18555c-0.2016 0.0028-0.2598 0.12518-0.4277 0.15625-0.1763 0.0059-0.2329-0.01433-0.4219-0.0059-0.2-0.03333-0.3667-0.05078-0.5-0.05078-0.2667 0-0.4004 0.11628-0.4004 0.34961-0.034 0.30215 0.066 0.53791 0.1 0.80664 3e-4 0.0857-0.07 0.15372-0.051 0.24414l-0.049-0.05078c0.026 0.09907 0.1297 0.18305 0.1601 0.28125 0.029 0.09873-1e-4 0.22701 0.039 0.32031 0.418 1.045 1.0082 1.9379 1.6973 2.7441v0.0059c0 0.0044 0.01 0.0074 0.014 0.01172 0.516 0.60063 1.0696 1.1686 1.7364 1.6367 1.1916 0.81776 2.4836 1.1776 3.8222 1.3242 0.1911 0.04433 0.3297 0.13769 0.5274 0.17578h0.1992c0.1665-8.61e-4 0.3014-0.0359 0.416-0.0918 0.1992-0.0062 0.3817 0.0632 0.584 0.04297 0.033 0 0.1496-0.06784 0.3496-0.20117 0.1667-0.06667 0.3179-0.03177 0.4512 0.10156l3.75 3.5996c-0.2333 0.03333-0.5841 0.04883-1.0508 0.04883-0.8 0.06667-1.267 0.15-1.4004 0.25-0.5666 0.16667-0.9833 0.31784-1.25 0.45117-0.4333 0.19999-0.5825 0.58374-0.4492 1.1504 0.3333 1.2-0.066 2.2833-1.1992 3.25-0.4334 0.43333-0.4197 0.94884 0.049 1.5488 0.8667 1.2 2.1671 2.1341 3.9004 2.8008-2.0667-0.33333-3.8826 0.25001-5.4492 1.75l-0.2466-0.1504c-0.067-0.36667-0.2508-0.81629-0.5508-1.3496-0.3667-0.6-0.5992-1.0341-0.6992-1.3008-0.3-0.83332-0.7167-1.3159-1.25-1.4492-0.5667-0.13333-1.1345 0.09922-1.7012 0.69922l-0.5 0.40039c-0.1333 0.13333-0.2322 0.18372-0.2988 0.15039-0.1-0.03333-0.1504-0.11668-0.1504-0.25-0.1-0.56667-0.1678-0.98335-0.2012-1.25-0.067-0.53333 0-0.96745 0.2012-1.3008 0.095-0.1419 0.073-0.28386 0.1582-0.42578 0.1376-0.07335 0.2927-0.13358 0.3418-0.27344 0.025 1.3e-4 0.04-0.01732 0.049-0.05078 1.1324-2.3617 1.2991-4.511 0.5-6.4492-0.062-0.1432-0.1768-0.22478-0.2461-0.35938-0.065-0.12689-0.1637-0.22973-0.2383-0.34961-0.6829-1.1276-1.5875-2.0001-2.8652-2.4414-0.044 0.0049-0.094-0.01252-0.1504-0.05078-0.024 3e-3 -0.072 3e-3 -0.1484 0-0.1011-9.45e-4 -0.1365 0.10214-0.2227 0.125-0.093 0.02455-0.2099-0.02491-0.2773 0.07617-0.026 0.04708-0.026 0.06322-0.051 0.10938-0.072 0.06496-0.1971 0.04594-0.25 0.14062v0.04883c-0.3663 0.66301-0.5522 1.3057-0.7598 1.9512-0.029 0.07717-0.1171 0.2285-0.1406 0.29883-0.011 0.03169 0 0.06017-0.012 0.0918-0.1732 0.63242-0.2131 1.2501-0.2324 1.8652-0.01 0.27728-0.1356 0.57262-0.1055 0.84375 0.011 0.0812 0.046 0.13319 0.059 0.21289 0.01 0.06139-0.016 0.12629-0.01 0.1875 0.066 0.43705 0.2659 0.7509 0.3789 1.1445 0.1547 0.53901 0.2839 1.1076 0.5137 1.5586 0.154 0.29169 0.3845 0.51281 0.5742 0.77148 0.2722 0.38132 0.4888 0.8269 0.8321 1.125 0.1055 0.08788 0.3134 0.21009 0.4746 0.31641 0.031 0.02271 0.045 0.06175 0.076 0.08398 0.033 0.0081 0.049 0.0081 0.049 0 0.1104 0.06978 0.1646 0.1221 0.2968 0.19922 0.3 0.23333 0.4337 0.55118 0.4004 0.95117l0.049 1.0488c-0.4-0.16665-0.6656-0.3159-0.7989-0.44922-0.9333-0.99999-1.6833-0.90116-2.25 0.29883-0.1333 0.29999-0.2671 0.41823-0.4004 0.35156-0.067-0.03333-0.1673-0.16707-0.3007-0.40039-0.2666-0.53333-0.6833-1.1671-1.25-1.9004-0.6333-0.79999-1.0985-1.4163-1.3985-1.8496-0.6334-0.7-1.05-1.2329-1.25-1.5996-0.3667-0.69999-0.2834-1.45 0.25-2.25 0.5-0.76665 0.4496-1.5845-0.1504-2.4512-0.5667-0.86665-1.3351-1.2988-2.3007-1.2988-0.6 0-1.1844 0.25001-1.75 0.75-0.5667 0.5-0.9011 1.0484-1 1.6484-0.1 0.73332 0.084 1.4349 0.5507 2.1016 0.4333 0.66667 0.9993 1.0484 1.6993 1.1484 0.2322 0.03333 0.584 0.05078 1.0507 0.05078 0.3667 0.06667 0.6496 0.25079 0.8496 0.55078 0.1667 0.26667 0.566 0.78217 1.1993 1.5488 0.5 0.63333 0.8507 1.1663 1.0507 1.5996 0.2667 0.49999 0.7997 1.1841 1.5997 2.0508 0.6322 0.79999 0.7496 1.6159 0.3496 2.4492-0.067 0.1-0.032 0.53413 0.1015 1.3008-0.067 0.5-0.5008 0.43411-1.3008-0.19922l-0.6503-0.5c-0.2-0.2-0.7989-0.61667-1.7989-1.25-0.6605-0.402-1.0099-0.89609-1.25-1.4219-0.036-0.12558 0.1041-0.25479 0-0.37891l-1.9297-2.2773c-0.1698-0.18761-0.1762-0.32856-0.3711-0.52344-0.2831-0.24612-0.6636-0.43631-0.9785-0.66406-0.4735-0.38604-0.945-0.77716-1.4765-1.002-0.072-0.04004-0.1227-0.09349-0.1953-0.13281-0.6-0.33333-1.2823-0.48451-2.0489-0.45117-0.4334 0.03333-1.1175 0.16707-2.0508 0.40039-0.4667 0.1-0.8329 0.21628-1.0996 0.34961-0.053 0.0299-0.039 0.08002-0.088 0.11133-0.049 0.01849-0.099 0.03388-0.1621 0.03906-0.2903 0.04179-0.5247 0.17552-0.7011 0.40039-0.1843 0.38944-0.1837 0.75422-0.047 1.0996v0.0039l0.248 0.49609c0.1236 0.26047 0.3373 0.38438 0.4805 0.61524l0.2695 0.38476c0.031 0.04054 0.07 0.05007 0.1016 0.08984 0.3117 0.40958 0.559 0.91674 0.9473 1.2109 0.4465 0.34182 0.8738 0.50426 1.3125 0.77148 0.1721 0.10892 0.3113 0.33641 0.4882 0.42773 0.2017 0.09933 0.3677 0.10318 0.5645 0.18945 0.6224 0.29853 1.2318 0.47312 1.8379 0.61719 0.3633 0.08801 0.7306 0.18923 1.0742 0.22461 0.1889 0.01664 0.387 0.11799 0.5742 0.11914 0.3845-1.46e-4 0.8517-0.14116 1.2852-0.22461 0.1464-0.03135 0.3229 0.01804 0.4648-0.02539 0.037-0.0093 0.1202-0.06412 0.168-0.08398 0.1357-0.03685 0.2408-0.02227 0.3809-0.06641h0.051c0.075-0.01712 0.089-0.12314 0.1485-0.16211 0.1631-0.04388 0.3257-0.08727 0.4511-0.03711l0.9004 0.44922c0.3667 0.2 0.667 0.39961 0.9004 0.59961 0.2666 0.26665 1.0652 0.85001 2.3985 1.75-1.3 0.16667-2.2507 0.33333-2.8496 0.5-1.0333 0.26665-1.8678 0.71824-2.5 1.3516-0.4333 0.43333-0.666 0.74922-0.6993 0.94922-0.1333 0.4 0.084 0.78372 0.6504 1.1504 0.3666 0.23332 0.5819 0.51628 0.6485 0.84961 0.067 0.36667-0.1 0.75039-0.5 1.1504-0.3666 0.29999-0.6322 0.55-0.7989 0.75-0.2667 0.29999-0.3344 0.58294-0.2011 0.84961 0.7667 1.4 1.6504 2.2837 2.6504 2.6504 0.2989 0.13332 0.6836 0.26706 1.1503 0.40039 0.2667 0.2 0.2667 0.61668 0 1.25-0.3667 0.86665-0.351 2.0334 0.051 3.5 0.2666 0.73333 0.5496 1.1829 0.8496 1.3496 0.3333 0.19999 0.8489 0.14961 1.5489-0.15039 0.2-0.06667 0.4848-0.21589 0.8515-0.44922 0.3666-0.06667 0.6825 0.11551 0.9492 0.54883 0.2333 0.4 0.2333 0.71784 0 0.95117-0.3333 0.2-0.5514 0.34922-0.6503 0.44922-0.2 0.3-0.3493 0.51706-0.4493 0.65039-0.2 0.23332-0.45 0.36706-0.75 0.40039-0.1172 0.01414-0.1895 0.08094-0.3027 0.09961h-0.045c-0.033 0.0033-0.068 0.0033-0.1016 0l-0.248-0.05078c-0.134 0.01992-0.3006 0.07031-0.5 0.15039-0.1887 0.10326-0.3003 0.2375-0.4766 0.3457-1.0472 0.42967-1.9475 1.0294-2.5234 2.0039-0.1322 0.21615-0.1454 0.44243-0.2598 0.66016-0.1479 0.23607-0.3759 0.43985-0.4902 0.68945-0.095 0.23439-0.1203 0.75969-0.1973 1.0684-0.197 0.65109-0.3235 1.3081-0.3672 1.9727-0.019 0.19149-0.068 0.25379-0.084 0.45898l-0.051 0.75c-0.01 0.08646-0.024 0.1543-0.051 0.20117-0.075 0.97681 0.043 1.6764 0.3515 2.0996 0.06 0.0647 0.1671 0.0494 0.2344 0.10156 0 7e-3 0.011 0.0429 0.016 0.0488 0.064 0.12868 0.2547 0.0433 0.3535 0.11328 0.1836 0.0753 0.3207 0.2288 0.545 0.23633l0.1347-0.0215c0.031-8e-3 0.034 0.0316 0.066 0.0215 0.043-0.0112 0.075-0.039 0.1172-0.0508l0.6328-0.0996c0.2123-0.0491 0.3945-0.14791 0.5489-0.29883 0.043-0.0425 0.094-0.0773 0.1504-0.10156 0.1199-0.0523 0.2013-0.14918 0.3164-0.20703 0.104-0.0586 0.2332-0.079 0.3339-0.14258 0.1311-0.0837 0.2044-0.20118 0.3282-0.28906 0.5047-0.33446 0.9606-0.7253 1.3535-1.1895 0.2005-0.22424 0.3675-0.46761 0.5351-0.71094 0.1171-0.18202 0.2791-0.31223 0.3829-0.50976 0.063-0.10887 0.1086-0.37893 0.1699-0.50391 0.1121-0.24102 0.2953-0.44086 0.3808-0.69726 0.218-0.65385 0.2748-1.0739 0.3868-1.5742 0.098-0.36279 0.22-0.50886 0.3125-0.92578v0.050829l0.051-0.40039-0.2011-1.9004c-0.032-0.15975-0.2059-0.3672-0.3868-0.57812-0.011-0.02136 6e-4 -0.04906-0.012-0.07031-0.1334-0.29999-0.067-0.6004 0.1992-0.90039l0.75-0.75c0.067-0.1 0.15-0.06706 0.25 0.09961l0.1993 0.40039c0.4334 0.43332 0.8344 0.63294 1.2011 0.59961 2-0.16667 3.6493-1.3004 4.9493-3.4004 0.067-0.1 0.15-0.33256 0.25-0.69922 0.1667-0.23333 0.467-0.16744 0.9003 0.19922 1.4 1.2 3.2333 1.6012 5.5 1.2012 1.1667-0.23333 1.566-0.78374 1.1993-1.6504-0.2-0.56667-0.2485-0.98335-0.1485-1.25 0.1333-0.3 0.4996-0.51706 1.0996-0.65039 0.7333-0.2 1.216-0.36667 1.4493-0.5 0.4667-0.26667 0.7011-0.70079 0.7011-1.3008 0-1.9-0.5834-3.4155-1.75-4.5488-0.2334-0.23333-0.3167-0.45039-0.25-0.65039 0.033-0.13333 0.1825-0.28255 0.4492-0.44922 0.8333-0.59999 1.3333-1.0845 1.5-1.4512 0.1333 0.96665 0.4667 1.4667 1 1.5 0.4 0.03333 0.7664 0.03333 1.0997 0 2.0333-0.06667 3.5836-0.83218 4.6503-2.2988 0.1-0.1 0.2008-0.08451 0.3008 0.04883 0.5666 1.1667 1.3166 2.0679 2.25 2.7012 0.1666 0.13333 0.1319 0.2651-0.1015 0.39844-0.4333 0.23333-0.7493 0.41745-0.9493 0.55078-0.4 0.23333-0.584 0.58413-0.5507 1.0508 0.1334 1.7666 1.2011 3.2667 3.2011 4.5 0.033 0.03333 0.1826 0.08177 0.4493 0.14844 0.2 0.03333 0.2503 0.10117 0.1503 0.20117-0.3667 0.43332-0.5663 1.0167-0.5996 1.75-0.033 0.39999-0.051 0.98333-0.051 1.75-0.067 0.89999 0.034 1.4988 0.3007 1.7988 0.2667 0.33332 0.817 0.46706 1.6504 0.40039 1.5333-0.06667 2.3163 0.58453 2.3496 1.9512 0.033 1.1333 0.5993 1.6333 1.6993 1.5l1-0.20117c2-0.26665 3.717-1.4334 5.1503-3.5 1.4333 1.1667 2.2667 1.8333 2.5 2 0.1333 0.1 0.4337 0.25117 0.9004 0.45117 0.4 0.13333 0.6656 0.3 0.7989 0.5 0.3334 0.4 0.5678 1.2489 0.7011 2.5488 0.096 0.7305 0.3831 1.3792 0.5391 2.084 0.05 0.23987-0.018 0.40813 0.062 0.66602l0.1504 0.59961c0.048 0.16218 0.2664 0.707 0.375 1.0059 0.1537 0.46922 0.1904 0.98858 0.373 1.4453 0.7 1.7667 1.1167 2.85 1.25 3.25 0.4 1.2667 0.5996 2.4159 0.5996 3.4492 0 2.1 0.1164 4.0845 0.3497 5.9512 0.1333 1.1 0.4336 2.3326 0.9003 3.6992 0.1 0.36667 0.5341 1.5663 1.3008 3.5996l4.6758 11.895c-0.019 0.0848-0.046 0.16249-0.123 0.20508-0.02 0.0309-0.063 0.033-0.09 0.0547 0-2e-3 -0.011-2e-3 -0.014-4e-3 -1.6-0.8-3.6503-1.5674-6.1503-2.3008-0.2333-0.0667-0.3497-0.11511-0.3497-0.14844-0.033-0.0667-9e-4 -0.18489 0.1-0.35156 0.2-0.3 0.2677-0.5655 0.2011-0.79883-0.2-0.86667-0.8008-1.7-1.8008-2.5s-1.9496-1.2167-2.8496-1.25c-0.3333 0-0.5504-0.0329-0.6504-0.0996-0.1-0.1-0.065-0.3345 0.1016-0.70117 0.2-0.43333 0.2678-0.98373 0.2012-1.6504-0.033-1.2-0.2504-1.95-0.6504-2.25s-1.1171-0.24961-2.1504 0.15039c-0.4667 0.16667-0.7671 0.18393-0.9004 0.0508-0.067-0.1-0.117-0.36745-0.1504-0.80078 0-0.8-0.083-1.3329-0.25-1.5996-0.3666-0.56667-0.8666-0.79922-1.5-0.69922-0.7 0.26667-1.2155 0.44883-1.5488 0.54883-1.5 0.46667-2.6512 1.5829-3.4512 3.3496l-0.1015 0.10156-1.0997-0.75c-0.1333-0.13333-0.1333-0.20117 0-0.20117 0.4-0.23333 0.7508-0.58216 1.0508-1.0488 0.1333-0.2 0.3659-0.65156 0.6992-1.3516 0.4667-0.93333 0.616-1.6484 0.4493-2.1484-0.1666-0.53333-0.7152-0.91706-1.6485-1.1504-0.7-0.16667-1.0837-0.41667-1.1504-0.75-0.033-0.2 0.1004-0.58372 0.4004-1.1504 0.067-0.13333 0.1152-0.24961 0.1485-0.34961 0.067-0.2 0.051-0.36667-0.049-0.5-0.4667-1.0333-1.4996-1.6167-3.0996-1.75-1.6667-0.1-3.2344 0.24883-4.7011 1.0488-0.3333 0.2-0.5504 0.16697-0.6504-0.0996-0.8333-1.9333-1.6996-3.3171-2.5996-4.1504-0.067-0.0333-0.1-0.13216-0.1-0.29883 0.2667-0.1 0.6504-0.31706 1.1504-0.65039 0.4667-0.26667 0.866-0.33255 1.1993-0.19922 0.1808 0.062 0.5004-0.0217 0.6972 0.0234 0.1878 0.23682 0.4311 0.37573 0.7539 0.375h0.1l0.5-0.0488c0.041-5e-3 0.074-5e-3 0.1 0l0.3008 0.0488h0.2989c0.525 4e-3 1.0424-0.0619 1.5507-0.19922 0.048-0.0123 0.073-0.0401 0.1211-0.0527 0.032-5e-3 0.046 7e-3 0.078 2e-3 2.0918-0.33572 3.5032-1.5353 4.5546-3.1914 0.091-0.15236 0.2684-0.2465 0.3457-0.4082 0.01-6.7e-4 0.01-0.0162 0-0.0488l0.1016-0.15039h0.051c0.051-0.0735 8e-4 -0.12157 0.039-0.19336 0.1103-0.23515 0.3143-0.35148 0.4082-0.60742 0.3333-0.93337 0.1667-1.6-0.5-2-0.2496-0.13311-0.8324-0.0321-1.2481-0.04883-0.4171-0.01678-0.6676-0.15095-1.2519-0.05078-1.1665 0.21387-2.3772 0.76828-3.6114 1.5039-0.4825 0.2695-0.931 0.63799-1.3886 0.98047-0.4348 0.32032-0.8559 0.53343-1.2989 0.91601-0.039 0.0386-0.206 0.3337-0.2754 0.43359-0.2491 0.24937-0.5347 0.39197-0.7754 0.66602v0.0508c-0.1258 0.14353-0.026 0.31569-0.045 0.47266-0.3433 0.49442-0.7289 0.87851-1.2051 1.0273-0.2333 0.0333-0.7836 0.24844-1.6503 0.64844-0.067-0.26667-0.4156-0.76667-1.0489-1.5-0.5334-0.6-0.7348-1.2163-0.6015-1.8496 0.1-0.6 0.017-1.2668-0.25-2-0.1333-0.36665-0.4319-0.98295-0.8985-1.8496-0.2426-0.42969-0.5607-0.63775-0.832-0.98242-0.1467-0.18016-0.2852-0.36788-0.4492-0.53125-0.605-0.6298-1.2786-1.0567-2.0117-1.3086-0.245-0.11771-0.3921-0.33042-0.6582-0.42773h0.051c-0.25-0.06601-0.5-0.09896-0.75-0.09961-0.3854 0.0049-0.7187 0.15416-1 0.44922-1e-3 1e-3 -1e-3 0.0029 0 0.0039-0.017 0.03584-0.1408 0.0049-0.1484 0.04687-0.03 0.20352 0.026 0.38777 0.012 0.58789-0.028 0.1752-0.1557 0.29961-0.1113 0.51172 0.048 0.30232 0.089 0.44581 0.1348 0.69336 0.096 1.119 0.3535 2.2025 0.9648 3.207 0.7 1.1333 1.2833 1.8988 1.75 2.2988 0.4352 0.38077 1.0092 0.36334 1.5234 0.51758 0.2465 0.13376 0.4103 0.37301 0.6758 0.48242l0.5 0.10156c0.072-8e-3 0.1098-0.0786 0.1738-0.10156 0.244 3e-3 0.6623 0.26812 1.3262 0.90039 0.7 0.66667 1.0334 1.1008 1 1.3008l-0.6992 0.90039c-0.3333 0.46667-0.6337 0.83294-0.9004 1.0996-0.1667 0.26667-0.3159 0.44883-0.4492 0.54883-0.2 0.2-0.4345 0.2-0.7012 0-0.6-0.46667-1.0651-0.76511-1.3984-0.89844-0.5-0.23333-0.8004-0.35156-0.9004-0.35156-0.3333-0.1-0.6008-0.0322-0.8008 0.20117-0.8 0.8-1.3155 1.9163-1.5488 3.3496-0.033 0.2-0.084 0.53333-0.1504 1-0.1333 0.33333-0.4841 0.43411-1.0508 0.30078-0.7-0.16667-1.4655-0.13363-2.2988 0.0996-0.4667 0.13333-1.2012 0.43373-2.2012 0.90039-0.9333 0.46667-1.4663 0.88333-1.5996 1.25-0.1333 0.4 0.084 0.94844 0.6504 1.6484 0.4 0.46666 0.5667 0.83489 0.5 1.1016-0.067 0.23333-0.3496 0.43294-0.8496 0.59961-0.2667 0.1-0.6 0.48373-1 1.1504-0.3667 0.53333-0.8182 0.76589-1.3516 0.69922-0.033 0-0.2833 0.13372-0.75 0.40039-0.3333 0.16667-0.5988 0.0155-0.7988-0.45117-0.5-1.2-1.0678-2.0333-1.7012-2.5-0.5666-0.53333-0.9988-0.93255-1.2988-1.1992-0.5333-0.4-1.1012-0.50078-1.7012-0.30078-0.2333 0.1-0.4329 0.28411-0.5996 0.55078-0.1667 0.36667-0.3004 0.63411-0.4004 0.80078-0.3 0.53333-0.4821 0.81628-0.5488 0.84961-0.2667 0.23333-0.6175 0.11706-1.0508-0.34961-0.5333-0.46666-0.8996-0.75156-1.0996-0.85156-0.4667-0.23333-0.8659-0.13255-1.1992 0.30078-1.6667 2.1667-2.2345 4.1996-1.7012 6.0996 0.1 0.2 0.05 0.31628-0.1504 0.34961l-2.8496 1.0508c-1.1 0.4-1.6988 1.0667-1.7988 2-0.033 0.33333 0.083 0.63372 0.3496 0.90039 0.1 0.0667 0.3829 0.24883 0.8496 0.54883 0.9667 0.63333 0.951 1.3504-0.051 2.1504-0.8666 0.7-1.1321 1.3163-0.7988 1.8496 0.9333 1.8333 2.3829 2.75 4.3496 2.75 0.2667 0 0.3674 0.11823 0.3008 0.35156-0.1 1.4 0.049 2.5318 0.4492 3.3984 0.7667 1.6 1.4992 2.5671 2.1992 2.9004 0.8334 0.36667 1.8004 3.9e-4 2.9004-1.0996 0.3333-0.33333 0.6163-0.46706 0.8496-0.40039 0.1334 0.0667 0.3504 0.28372 0.6504 0.65039 0.1333 0.16667 0.2671 0.48255 0.4004 0.94922 0.1667 0.4 0.4496 0.53372 0.8496 0.40039 1.0333-0.33333 2.0837-1.2326 3.1504-2.6992 0.2333-0.26667 0.4329-0.81706 0.5996-1.6504 0.2333-0.63333 0.7837-0.88333 1.6504-0.75 1.4 0.2 2.7837-0.26706 4.1504-1.4004 0-0.0667 0.066-0.0337 0.1992 0.0996 0.3667 0.46666 1.0178 1.0016 1.9512 1.6016 0.3333 0.2 0.8663 0.41511 1.5996 0.64844 0.6 0.3 0.9159 0.76706 0.9492 1.4004l-0.049 0.59961c-0.067 0.46666-0.1849 0.8-0.3516 1-0.1666 0.23333-0.4496 0.36706-0.8496 0.40039-0.7667 0.16667-1.3325 0.28294-1.6992 0.34961-0.6333 0.16667-0.9996 0.21706-1.0996 0.15039-0.1223-0.0978-0.3674-0.10374-0.5137-0.18359-0.086-0.0745-0.062-0.21446-0.1875-0.26563 3e-4 9e-3 -0.015 9e-3 -0.049 0l-0.2998-0.15041-0.8008-0.25 0.051 0.0508c-0.1665-0.0311-0.4165-0.0486-0.75-0.0508-0.3627 4.1e-4 -0.6596 0.19839-1.0078 0.24219-0.7495 0.0712-1.4785 0.221-2.1699 0.51953-0.3821 0.16525-0.7463 0.38316-1.1075 0.61133-0.2825 0.18126-0.5933 0.25359-0.8652 0.47656-0.2438 0.19848-0.2548 0.44908-0.4687 0.6543-0.4021 0.3735-0.8588 0.5822-1.2305 1.0469l-0.2012 0.25c-0.017 0.0171-0.032 0.0326-0.049 0.0488-0.6153 0.61652-0.8032 1.2192-0.7754 1.8144 0 0.0128-0.022 0.0223-0.025 0.0352-0.033 0.089 0.052 0.0743 0.033 0.15039 0.021 0.133-0.036 0.26848 0.018 0.40039 0.01 0.0189 0.069 0.0129 0.08 0.0312 0.051 0.0819-0.048 0.2948 0.07 0.31836 0.6671 0.20015 1.0171 0.20088 1.5254 0.30078 0.3168 0.0695 0.3552 0.2812 0.7734 0.29883h0.3496c0.071-2e-5 0.1232-0.0397 0.1934-0.041 0.05 2e-3 0.1595 0.041 0.207 0.041 0.6 0 1.5167-0.19961 2.75-0.59961 0.087-0.0221 0.1605-0.0913 0.2461-0.11719 0.4019-0.15372 0.7877-0.3424 1.1621-0.55469 0.7074-0.38221 1.3747-0.91285 2.0039-1.584 0.213-0.21565 0.4866-0.30157 0.6875-0.54297 0.2472-0.25065 0.3983-0.60143 0.4512-1.0508 0.01-0.0247 0.01-0.0577 0-0.0996l0.049-0.20117c0.013-0.0429-0.024-0.0842-0.018-0.12695 0.1399-0.43718 0.4186-0.70712 0.8692-0.77149 1.1666-0.16667 1.9166-0.31784 2.25-0.45117 0.6-0.26667 1.0166-0.21628 1.25 0.15039 0.1333 0.2 0.2651 0.58372 0.3984 1.1504 0.1334 0.33333 0.3175 0.43216 0.5508 0.29883 0.3-0.16667 0.7496-0.33333 1.3496-0.5 0.4667-0.2 0.7845-0.31628 0.9512-0.34961 0.4-0.0667 0.7159 0.0496 0.9492 0.34961 0.6667 0.86666 1.0504 1.4016 1.1504 1.6016 0.3 0.66667 0.2496 1.3159-0.1504 1.9492 0 0.0333-0.083 0.31628-0.25 0.84961-0.1 0.33333-0.2492 0.4845-0.4492 0.45117-0.7334-0.2-1.3167-0.15156-1.75 0.14844-0.4 0.23333-0.7508 0.70039-1.0508 1.4004-0.4333 1-0.404 1.8508 0.1 2.5508 0.6333 0.8 1.3833 1.0326 2.25 0.69922 1.3-0.5 1.8833-1.2829 1.75-2.3496-0.1667-0.83333-0.2829-1.4496-0.3496-1.8496-0.067-0.7 0.1174-1.3008 0.5508-1.8008 0.1-0.1 0.1988-0.3655 0.2988-0.79883 0.067-0.36667 0.1675-0.58372 0.3008-0.65039 1.6-0.6 2.8829-1.9004 3.8496-3.9004 0.067-0.16667 0.2004-0.18393 0.4004-0.0508 1.0333 0.86666 2.1167 1.3667 3.25 1.5 0.7333 0.0667 1.3496-0.0322 1.8496-0.29883 0.4667-0.3 0.6159-0.68372 0.4492-1.1504-0.1-0.26667-0.1484-0.79961-0.1484-1.5996 0-0.5 0.2325-0.81784 0.6992-0.95117 0.9333-0.16667 1.4663-0.11628 1.5996 0.15039 0.3333 0.53333 1.0833 1.2174 2.25 2.0508 0.067 0.0667 0.183 0.13255 0.3496 0.19922 0.1334 0.0667 0.1682 0.16745 0.1016 0.30078-0.2334 0.6-0.5008 0.94883-0.8008 1.0488-0.1465 0.0507-0.196 0.11535-0.3301 0.16797-0.085-0.03-0.1668-0.0663-0.2695-0.0664-0.2508 8e-3 -0.5008 0.0915-0.75 0.25l-0.5 0.5c-0.8389 0.65403-1.4223 1.2025-1.75 1.6484-0.2232 0.3339-0.2869 0.70748-0.457 1.0547-0.1591 0.29463-0.2834 0.60619-0.3985 0.92187-0.266 0.77089-0.3853 1.5782-0.4062 2.4102-0.01 0.2889-0.1567 0.51238-0.1387 0.81445 0 0.26162 0.078 0.40026 0.1035 0.62109 0.01 0.0448-0.011 0.084 0 0.12891 0.022 0.0613 0.039 0.10753 0.049 0.14258 0.047 0.25936 0.05 0.5884 0.1387 0.78125l0.014 0.0762c0.05 0.13472 0.2073 0.10255 0.2793 0.20313 0.1582 0.1893 0.2884 0.42256 0.5195 0.49609 0.022 6e-3 0.081-0.047 0.1035-0.043 0.085 0.0174 0.1013 0.14202 0.1973 0.14258 0.2891-8e-3 0.6049-0.12381 0.9492-0.34961h-0.049c0.1907-0.12672 0.2717-0.30544 0.4512-0.4375 0.2846-0.15869 0.4051-0.0631 0.748-0.3125 0.5333-0.4 1.0508-0.96589 1.5508-1.6992 0.022-0.0217 0.3103-0.47726 0.4062-0.61914 0.047-0.0693 0.093-0.13877 0.1387-0.20898 0.2097-0.31639 0.2725-0.39525 0.7051-1.0723 0.6325-1.0219 0.7968-1.9235 0.7363-2.7676 0-0.0123 0.023-0.0208 0.025-0.0332 0.01 3.9e-4 0.01-0.0151 0-0.0488 0.1169-0.42995 0.066-0.86406-0.1504-1.3008-0.051-0.0869-0.082-0.18514-0.062-0.29688v-2e-3c-0.2871-1.2324-0.052-2.3024 1.0508-3.1016l0.1016-0.25c0.1-0.0333 0.2492-0.24844 0.4492-0.64844 0.1334-0.3 0.3504-0.35039 0.6504-0.15039 0.7 0.5 1.233 1.0988 1.5996 1.7988 0.6 1.0333 1.6504 2.4674 3.1504 4.3008 0.033 0.0333 0.2184 0.23294 0.5507 0.59961 0.2332 0.2 0.3323 0.36667 0.2989 0.5-0.2333 0.86667-0.1646 1.5508 0.2011 2.0508 0.5999 0.83333 1.4664 1.2171 2.5997 1.1504 1-0.0333 1.684-0.4849 2.0507-1.3516 0.4333-0.9 0.1156-1.8167-0.9511-2.75-0.9667-0.86667-1.9667-0.95-3-0.25-0.2667 0.2-0.4837 0.16697-0.6504-0.0996l-3.0489-4.1992c-0.1323-0.2-0.099-0.36667 0.1016-0.5 2.0333-1.1333 3.0992-2.8174 3.1992-5.0508 0-0.2 0.1008-0.31628 0.3008-0.34961 0.2929-0.0488 0.511 0.12716 0.7324 0.29297 0.1559 0.21505 0.4716 0.47838 0.6973 0.71484 0.065 0.0908 0.094 0.13787 0.1699 0.24219 0.08 0.0614 0.2697 0.23191 0.3614 0.30469 0.1736 0.15739 0.2329 0.27956 0.4335 0.44531 0.4991 0.43073 0.7821 0.68073 0.8497 0.75 0.4645 0.46132 1.1373 0.89774 1.7148 1.3457 0.6117 0.55273 1.263 1.1619 1.6914 1.4551 0.7667 0.53333 1.8501 1.2 3.25 2 1.5333 0.86667 2.6168 1.4984 3.25 1.8984 2.7333 1.7333 4.6325 3.2178 5.6992 4.4512 0.7171 0.77223 1.1382 1.8778 1.4903 3.0606 0.1408 0.43995 0.3001 0.81965 0.4082 1.3633 0.071 0.50222 0.1774 1.2733 0.4511 3.3262 0.1667 1.2 0.133 3.0333-0.1015 5.5 0.026 0.10465 0.04 0.32117 0.049 0.54883-0.2051 0.16406-0.3059 0.38112-0.3008 0.65039v0.40044c0.01 0.22487 0.074 0.42448 0.2012 0.59961l0.049 0.0508c0.2085 0.16263 0.4255 0.24597 0.6504 0.25h13.449c0.2197-2.6e-4 0.4038-0.0836 0.5508-0.25h0.051c0.1625-0.19765 0.2459-0.41471 0.25-0.65039v-33.199c9e-4 -0.0289-0.032-0.033-0.033-0.0606 0.054-0.0446 0.2033 0.0404 0.2305-0.041 0.1-0.3-0.067-0.51511-0.5-0.64844-0.1-0.2-0.1833-0.35117-0.25-0.45117l-0.4317-0.82617c-0.035-0.0703-0.022-0.15542-0.066-0.22266l-0.7168-1.2793-1.7851-3.4219c-1.4667-2.6-2.5327-4.5826-3.1993-5.9492-0.6-1.2667-1.4004-3.2337-2.4004-5.9004-0.7-1.8333-1.0836-3.0659-1.1503-3.6992-0.2-1.4-0.016-3.0337 0.5507-4.9004 0.2387-0.85237 0.4262-2.1768 0.6387-3.2734l0.2109-1.0273v-0.04883c0.1278-0.7373 0.2829-1.2177 0.4004-2.0508 0.089-0.71694 0.062-1.3485 0.1075-2.0332l0.1425-1.916c0.01-0.06139-0.028-0.10708-0.033-0.16406 0-0.6811-0.04-1.3306-0.086-1.9766-0.01-0.25666 0.071-0.39593 0.018-0.71094v-0.04883l-0.2676-1.3848c-0.06-0.35985-0.055-0.76776-0.1309-1.1152-0.6-3-0.8848-5.75-0.8515-8.25 0.1334-5.4333 0.085-9.7842-0.1485-13.051-0.1334-2.1666-0.234-3.783-0.3007-4.8496-0.1-2.3-0.1504-3.4667-0.1504-3.5 0.067-1.9333 0.032-3.2163-0.1016-3.8496-0.2-1.0667-0.1341-2.0996 0.1992-3.0996 0.2667-0.76665 0.7667-1.6504 1.5-2.6504 0.2334-0.33333 1.1171-1.4845 2.6504-3.4512 0.5869-0.77033 0.9294-1.3143 1.375-1.9531l0.078-0.0957v0.04883c0.192-0.2537 0.198-0.34089 0.3477-0.55664 0.2042-0.30404 0.5314-0.7219 0.6992-0.99219 0.1878-0.29337 0.6321-1.2196 0.8984-1.707l0.057-0.04297v-0.05078l0.5-0.59961 1.8984-3.6504c0.067-0.11406 0.1016-0.24779 0.1016-0.40039v-12.199l-0.1016-0.59961c-0.01-0.03333-0.01-0.08372 0-0.15039l0.1016-0.59961v-2.3496c0.01-0.36754-0.2211-0.56129-0.4863-0.72656l0.5312-0.97461c0.3-0.46665 0.3157-0.8 0.051-1-0.2333-0.16665-0.4504-0.01549-0.6504 0.45117l-1.043 1.7383c-0.019 0.02371-0.054 0.01517-0.072 0.04102l-0.3672 0.69141-6.0207 10.029c-1.1 1.4667-1.9159 2.5655-2.4492 3.2988-1.5334 2.0333-3.0334 3.8667-4.5 5.5-0.2667 0.36667-1.2008 1.3338-2.8008 2.9004-0.6667 0.56665-1.0329 0.75078-1.0996 0.55078-0.1-0.43332-0.3345-0.86745-0.7012-1.3008-0.4333-0.5-0.7492-0.88372-0.9492-1.1504 0.3333 0 0.6163-0.14923 0.8496-0.44922 1.5667-1.7 2.4175-3.3841 2.5508-5.0508 0.067-0.53332 0.034-0.89961-0.1-1.0996-0.1334-0.26667-0.4512-0.41588-0.9512-0.44922-1.1333-0.03333-1.6992-0.78335-1.6992-2.25 0-0.63332-0.017-1.0345-0.051-1.2012-0.1-0.43332-0.3829-0.71628-0.8496-0.84961-0.3-0.1-0.6837-0.11746-1.1504-0.05078-0.6667 0.1-1.0659 0.15039-1.1992 0.15039l0.1992-0.40039 0.3008-0.89844c0.1333-0.33332 0.2825-0.5349 0.4492-0.60156 0.1105-0.03489 0.2439-0.13964 0.3574-0.18359 0.031 0.0043 0.062 0.03458 0.094 0.03516 0.1984-0.01003 0.3981-0.09336 0.5996-0.25l0.3496-0.25c0.021-0.02519 0.034-0.0577 0.045-0.0918 0.2078-0.12126 0.3891-0.16109 0.6055-0.30859 1.169-0.80278 1.8812-1.7164 2.4609-2.6621 0.047-0.07478 0.15-0.1332 0.1934-0.20898 0.4261-0.76438 0.4634-1.623 0.5137-2.4785 0.051-0.4631 0.3306-0.85917 0.2812-1.3516l-0.1504-0.84961v0.05078c-0.016-0.05859-0.081-0.0364-0.1-0.08984-0.035-0.13903-0.062-0.38082-0.1016-0.46094-0.1656-0.36426-0.4478-0.49475-0.8437-0.39844-0.027-0.0025-0.037-0.04989-0.062-0.05078-0.1743 0.0044-0.3565 0.05479-0.5488 0.15039v0.04883l-0.545 0.30078h-0.051c-0.1903 0.10273-0.2463 0.20414-0.4161 0.30664-0.4231 0.24038-0.7944 0.52639-1.1367 0.83789-0.1499 0.13432-0.4323 0.27013-0.5468 0.4043h-0.049c-0.1372 0.17672-0.1902 0.34088-0.3144 0.51562-0.023 0.03322-0.063 0.05217-0.086 0.08594-0.047 0.06872-0.025 0.10219-0.07 0.16992-0.898 1.3264-1.4531 2.6008-1.5879 3.8105 0 0.05899-0.092 0.16139-0.092 0.21875 0 0.02561 0.01 0.09136 0.01 0.11914-5e-4 0.01011-0.01 0.02115-0.01 0.03125 5e-4 0.01301 0.011 0.02227 0.012 0.03516 0.01 0.33222 0.029 0.74899 0.088 1.3652 0.033 0.6-0.067 1.1-0.3007 1.5-0.067 0.1-0.1829 0.49923-0.3496 1.1992-0.1333 0.46667-0.3504 0.76706-0.6504 0.90039-0.4666 0.23332-1.3485 0.78374-2.6485 1.6504-0.1667-0.2-0.3681-0.61667-0.6015-1.25-0.2-0.53332-0.4326-0.9345-0.6993-1.2012-0.3333-0.33332-0.3333-0.55039 0-0.65039 0.1667-0.06667 0.5833-0.34961 1.25-0.84961 0.6-0.46665 1.0341-1.1663 1.3008-2.0996 0.3-0.99999 0.3-1.8004 0-2.4004-0.2667-0.49999-0.6834-0.80039-1.25-0.90039-0.6667 0.03333-1.1667 0.03333-1.5 0-0.5667-0.03333-0.9348-0.18255-1.1015-0.44922-0.1666-0.23333-0.1666-0.61706 0-1.1504 0.2-0.69999 0.3007-1.0837 0.3007-1.1504 0.033-0.46667-0.1507-0.8-0.5507-1-0.3666-0.23333-1.016-0.38255-1.9493-0.44922-1.6667-0.13333-3.184 0.36668-4.5507 1.5-0.1 0.1-0.1833 0.13293-0.25 0.09961-0.1 0-0.1293-0.06589-0.1-0.19922 0-0.03333-0.1337-0.36668-0.4004-1-1.0333-2.4-2.6826-3.7333-4.9493-4-0.1-0.03317-0.2328-0.03284-0.3984 0zm41.037 5.6797 0.016-0.0293-0.051 0.04883c0.01-0.01308 0.026-7e-3 0.035-0.01953zm-40.285-4.5293c0.9 0 1.5996 0.29844 2.0996 0.89844 0.4334 0.49999 0.8849 1.1512 1.3516 1.9512 0.2666 0.46665 0.6484 1.1488 1.1484 2.0488 0.2334 0.43332 0.5008 0.43332 0.8008 0 0.4667-0.66667 1.3329-1.1492 2.5996-1.4492 1.2667-0.26667 2.2667-0.20078 3 0.19922 0.4 0.16667 0.4833 0.4845 0.25 0.95117-0.4 0.79999-0.4504 1.4667-0.1504 2 0.3 0.53332 0.8834 0.81628 1.75 0.84961 0.4 0 1.0008 0.03294 1.8008 0.09961 0.1333 0 0.2341 0.06784 0.3008 0.20117 0.2333 0.63333 0.2177 1.3329-0.051 2.0996-0.2667 0.73332-0.6833 1.3322-1.25 1.7988-0.4 0.33332-0.7508 0.5-1.0508 0.5-0.3 0.03333-0.6663-0.09844-1.0996-0.39844-0.4-0.23333-0.7663-0.14999-1.0996 0.25-0.5333 0.6-0.8163 0.91589-0.8496 0.94922l-0.2012 0.40039c-0.033 0.03333-0.1321 0.2155-0.2988 0.54883-0.1333 0.23333-0.3 0.33411-0.5 0.30078-0.2667-0.03333-0.4837-0.16706-0.6504-0.40039-0.2-0.29999-0.3492-0.51706-0.4492-0.65039-0.1334-0.2-0.034-0.29883 0.2988-0.29883 0.5 0 0.8333-0.13372 1-0.40039 0.033-0.03333 0.033-0.09922 0-0.19922 0-0.1-0.015-0.15039-0.049-0.15039l-1.0504-0.15039c-0.047 0.0095-0.2261-0.02291-0.2988-0.02148 0.044 0.25286 0.1 0.50066 0.1 0.77148 0 0.18932-0.017 0.37344-0.051 0.55078-0.1041-0.06667-0.2203-0.10156-0.3496-0.10156l-0.2502-0.19922c-0.1801-0.07721-0.3797-0.1276-0.5996-0.15039h-0.2012c-0.1667-0.06667-0.3159-0.04922-0.4492 0.05078-0.1667 0.06667-0.283 0.24883-0.3496 0.54883l-0.1504 0.5c0 0.13333-0.05 0.25156-0.1504 0.35156l-0.4004 0.39844-0.1504 0.10156-0.2988 0.04883-0.7012-0.04883-0.5 0.04883c-0.2 0-0.3318 0.08334-0.3984 0.25-0.067 0.06667-0.1016 0.20039-0.1016 0.40039l-0.049 0.15039-0.051 1.0996c-0.013 0.05039-0.028 0.10078-0.049 0.15039-0.018-0.0042-0.033-0.0151-0.051-0.01953v0.06836c0.4333 1.2-0.1326 1.7174-1.6992 1.5508-0.4-0.03333-0.7682-0.03333-1.1016 0-1.2 0.1-2.3492 0.51668-3.4492 1.25-0.4 0.26667-0.9 0.35-1.5 0.25l-1.5-0.40039c-1.1333-0.33332-2.0829-0.89923-2.8496-1.6992-0.2667-0.26667-0.2915-0.53412-0.061-0.80078 0.6998-0.79999 1.0331-1.55 1-2.25-0.059-0.8-0.5918-1.4163-1.5918-1.8496-0.7667-0.3-0.751-0.85039 0.051-1.6504 1.0666-1.1666 2.5996-1.9167 4.5996-2.25 0.3667-0.06667 0.5837-0.18294 0.6504-0.34961 0.067-0.13333 1e-4 -0.35039-0.2011-0.65039-0.9333-1.3333-0.9333-2.9496 0-4.8496 0.3667-0.79999 0.8007-1.0674 1.3007-0.80078 0.2667 0.13333 0.6 0.40078 1 0.80078 0.8333 0.33333 1.467 0.30039 1.9004-0.09961 0.3333-0.26667 0.5659-0.81707 0.6992-1.6504 0-0.4 0.019-0.70039 0.053-0.90039 0.067-0.36665 0.2488-0.54883 0.5488-0.54883zm-0.9004 5.5996c-0.2 0.19999-0.2293 0.45-0.1 0.75l1.4551 3.1641c0.046 0.01753 0.09 0.03516 0.1445 0.03516 0.2 0.06667 0.4016 7.74e-4 0.6016-0.19922 0.105-0.10477 0.1073-0.23897 0.1113-0.37305-0.2113-0.57705-0.7492-1.629-1.6621-3.2266-0.1667-0.23333-0.3508-0.28372-0.5508-0.15039zm5.5508 0.84961c-0.3-0.03333-0.4492 0.13333-0.4492 0.5 0 0.26667-0.1182 0.66589-0.3516 1.1992-0.067 0.15221-0.041 0.23509-0.086 0.37109 0.01 0.03591 0.046 0.08923 0.1367 0.17969l0.1504 0.15039h0.25c0.13-0.0371 0.2258-0.08617 0.293-0.14648 0.2008-0.68657 0.4062-1.3821 0.4062-1.7031 0-0.36665-0.1163-0.55078-0.3496-0.55078zm4.1504 1.8008c-0.2 0.2-0.3512 0.31628-0.4512 0.34961l-2.041 1.3711c0.01 0.15439 0.048 0.28425 0.1426 0.37891 0.1 0.1 0.2318 0.15039 0.3984 0.15039 0.012 0.02015 0.015 0.04415 0.027 0.06445l1.8242-1.2148c0.5666-0.33333 0.7333-0.66668 0.5-1-0.1-0.16667-0.2337-0.19961-0.4004-0.09961zm-11.65 1.0488c-0.2-0.1-0.3841-0.03216-0.5508 0.20117-0.1333 0.26667-0.065 0.44883 0.2012 0.54883l2.4199 1.1211c0.018-0.05336 0.01-0.11738 0.029-0.16992l0.3496-0.10156 0.2012-0.39844c0-0.01292-0.01-0.02253-0.01-0.03516zm14 3.4004c0.3 0 0.6004 0.18413 0.9004 0.55078l0.6992 1 1.0508 2.0996c0.2 0.49999 0.45 0.75 0.75 0.75 0.2-0.03333 0.5004-0.21745 0.9004-0.55078 1.0333-0.93332 2.4984-1.5826 4.3984-1.9492 1.2-0.2 1.6341 0.21668 1.3008 1.25 0 1.1333 0.1337 1.8659 0.4004 2.1992 0.2667 0.33333 0.8829 0.58335 1.8496 0.75 0.4667 0.06667 0.6508 0.33412 0.5508 0.80078-0.5 2.2333-1.6512 3.9833-3.4512 5.25-0.033 0.03333-0.049 0.08372-0.049 0.15039-0.033 0.1-0.033 0.14844 0 0.14844 0.3333 0.33332 0.7655 0.90117 1.2988 1.7012 0.8667 1.2666 1.2 2.6988 1 4.2988-0.033 0.2-0.2504 0.30078-0.6504 0.30078h-1.1484c-0.6667 0.06667-1.1008 0.26629-1.3008 0.59961-0.2667 0.6-0.3326 1.1174-0.1992 1.5508l0.1992 0.69922c0.1 0.5 0.017 0.90118-0.25 1.2012-0.2667 0.23333-0.7667 0.41551-1.5 0.54883-1.6667 0.3-3.1492-0.36668-4.4492-2l-0.9002-0.84961c-0.1667 0.3-0.4167 0.71668-0.75 1.25-0.8 2.0333-2.3833 3.3492-4.75 3.9492-0.5667 0.16667-0.8496-0.06589-0.8496-0.69922 0-0.56665-0.2675-1.2508-0.8008-2.0508-0.4333-0.76665-1.1329-0.83254-2.0996-0.19922-0.1 0.06667-0.2996 0.25079-0.5996 0.55078-0.2334 0.23333-0.4504 0.34961-0.6504 0.34961s-0.3841-0.06784-0.5508-0.20117c-0.4-0.33333-0.7004-1-0.9004-2-0.3-1.1667-0.1818-2.3489 0.3516-3.5488 0.2333-0.6 0-0.96628-0.7012-1.0996-0.9333-0.2-1.7492-0.65158-2.4492-1.3516-0.4667-0.46667-1.0345-1.2322-1.7012-2.2988-0.3666-0.63333-0.3803-1.0674-0.049-1.3008 0.2-0.1 0.5663-0.19883 1.0996-0.29883 1.2333-0.39999 1.4504-1.1016 0.6504-2.1016l-0.9512-1.3984c-0.1666-0.26665-0.083-0.50117 0.25-0.70117 1.1334-0.59999 2.6334-0.81706 4.5-0.65039 0.8334 0.1 1.3837 0.05156 1.6504-0.14844 0.3-0.2 0.4841-0.71746 0.5508-1.5508 0.1667-1.7 0.967-3.0992 2.4004-4.1992 0.1333-0.1 0.2651-0.08451 0.3984 0.04883l1.0508 1.0508c0.8667 0.96665 1.5837 0.88331 2.1504-0.25 0.4667-1.0667 0.9163-1.6171 1.3496-1.6504zm-12.199 0.04492-0.3516 0.05469-3.2988 0.84961c-0.1 0.03333-0.2008 0.10117-0.3008 0.20117-0.067 0.13332-0.067 0.24961 0 0.34961 0.1667 0.2 0.3837 0.30078 0.6504 0.30078 0.033 0 0.2504-0.05039 0.6504-0.15039l2.7558-0.53711c0-5e-3 3e-4 -0.0087-0.01-0.01367l0.1504-0.09961 0.1484-0.25c0-0.16667-0.066-0.35078-0.1992-0.55078-0.066-0.06654-0.1324-0.11498-0.1992-0.14844zm1.1797 2.0195c-0.589 0.58995-1.0742 1.21-1.3809 1.8848-0.1667 0.26665-0.1804 0.43333-0.049 0.5 0.2333 0.16667 0.4155 0.2345 0.5488 0.20117l0.2012-0.09961 1.1094-1.4316c0.01-0.04013 0.039-0.07689 0.039-0.11914 0.057-0.1138 0.024-0.24753-0.1-0.40039 0.064-0.13619 0.029-0.26992-0.1016-0.40039-0.045-0.05997-0.1821-0.08828-0.2675-0.13477zm8.9687 2.9356c-0.4 0.06667-0.5492 0.50079-0.4492 1.3008 0.1397 0.8386 0.153 1.4613 0.209 2.1562 0.049-0.01375 0.091-0.0447 0.1406-0.05664 0.073 0.06823 0.1736 0.11862 0.3008 0.15039 0.212 0.06058 0.3879 0.01276 0.5449-0.0918l-0.2949-2.3594c-0.1-0.76665-0.2512-1.1329-0.4512-1.0996zm3.8516 1.1993c-0.2-0.1-0.3667 0.03372-0.5 0.40039-0.067 0.2-0.2837 0.63412-0.6504 1.3008-0.1554 0.27628-0.1922 0.46777-0.2852 0.69922 0.2728 0.10492 0.5138 0.28635 0.7618 0.45117l0.873-1.9512c0.1667-0.49999 0.1008-0.80039-0.1992-0.90039zm-8.0508 1.5507c-0.1-0.06667-0.1833-0.04922-0.25 0.05078-0.067 0.06667-0.084 0.18294-0.051 0.34961 0 0.19999 0.035 0.31628 0.1016 0.34961l1.8515 1.6152c0.1418-0.19138 0.2698-0.38695 0.4473-0.56445 0.024-0.02437 0.053-0.03687 0.078-0.06055l-1.9277-1.541c-0.1-0.1-0.1833-0.16589-0.25-0.19922zm11.85 0.65039c-0.1-0.16667-0.2822-0.15119-0.5488 0.04883l-2.9141 1.6523c0.024 0.04625 0.024 0.12017 0.062 0.14844 0.1 0.09987 0.2007 0.15026 0.3008 0.15039 0.07 0.11245 0.087 0.23455 0.1426 0.34961l2.7578-1.75c0.2667-0.13333 0.3325-0.33296 0.1992-0.59961zm-44.35 2.4492c0.7667-0.06667 1.1833 0.41785 1.25 1.4512 0.033 0.5-0.1159 0.91668-0.4492 1.25-0.3 0.3-0.7012 0.46667-1.2012 0.5-0.3 0.03333-0.55-0.1004-0.75-0.40039-0.2-0.26667-0.3163-0.56706-0.3496-0.90039-0.1667-1.2 0.3333-1.8337 1.5-1.9004zm30.6 0.45117c-0.2 0-0.3337 0.13177-0.4004 0.39844-0.033 0.1 0 0.16784 0.1016 0.20117 0.033 0.03333 0.099 0.04883 0.1992 0.04883 0.4215 0.16213 1.4758 0.36064 3.0645 0.58594 0.1687-0.07394 0.3079-0.16813 0.3359-0.33594v-0.14844c0-0.15174-0.035-0.25146-0.09-0.32031zm10.957 0.50586c-0.038 0.09606-0.1074 0.16841-0.1074 0.29297l0.0508 0.15039c0 0.13333 0.066 0.24961 0.1992 0.34961l0.1504 0.05078c-5e-4 0.02738-0.011 0.05092-0.012 0.07813l2.0117-0.0293c0.067 0 0.3012-0.14922 0.7012-0.44922-0.1-0.2-0.1834-0.30078-0.25-0.30078-0.6413-0.0475-1.7133-0.09531-2.7442-0.14258zm-7.625 2.1621-2.582 1.5312c-0.2667 0.2-0.3829 0.38412-0.3496 0.55078 0.067 0.16667 0.2333 0.19961 0.5 0.09961 0.5678-0.15487 1.5663-0.75975 2.5938-1.3945 0.037-0.03595 0.097-0.08134 0.1054-0.10547 0.067-0.23333 0.051-0.41745-0.049-0.55078-0.058-0.08752-0.1476-0.08164-0.2188-0.13086zm7.3809 0.63867c-0.026 0.04558-0.036 0.09775-0.062 0.14258h-0.1v0.05078c-0.1-0.03333-0.2008-3.9e-4 -0.3008 0.09961-0.1333 0.06667-0.1992 0.1655-0.1992 0.29883l-0.01 0.02148c0.1605 0.09721 0.2292 0.17907 0.4082 0.2793 0.9666 0.5 1.6159 0.88372 1.9492 1.1504 0.067 0.03333 0.183 0.09922 0.3497 0.19922 0.1667 0.06667 0.3177 0.03372 0.4511-0.09961 0.1666-0.16667 0.196-0.31589 0.1-0.44922-0.033-0.06667-0.1671-0.1849-0.4004-0.35156-0.9574-0.62447-1.5143-0.93903-2.1855-1.3418zm-5.9219 1.1738c-0.3488 0.66681-0.6954 1.3268-1.1914 2.418-0.033 0.1-0.1166 0.26667-0.25 0.5-0.1 0.23333-0.05 0.3845 0.1504 0.45117 0.1667 0.1 0.3333 0.06706 0.5-0.09961 0.067-0.1 0.183-0.26667 0.3496-0.5 0.1-0.06667 0.1834-0.2004 0.25-0.40039 0.3928-0.87905 0.5392-1.1614 0.7852-1.6836-0.026-0.01097-0.058-6e-3 -0.084-0.01758v-0.14844l-0.1504-0.25c-0.09-0.1196-0.216-0.20357-0.3594-0.26953zm3.7539 0.72266c-0.2786 0.10948-0.5943 0.12605-0.8984 0.17188 0.07 0.19106 0.067 0.31722 0.1543 0.52344 0.4333 1.1 0.6988 1.8016 0.7988 2.1016 0.1 0.43333 0.2841 0.6155 0.5508 0.54883 0.3333-0.06667 0.4167-0.31667 0.25-0.75zm11.775 2.5918c-0.2661 0.32865-0.6446 0.55469-1.2695 0.55469h-0.7695l0.8691-0.1504c0.2-0.03333 0.5159-0.08372 0.9492-0.15039 0.1243-0.03389 0.1309-0.18556 0.2207-0.25391zm-3.0078 1.1953-0.01 0.04883v-0.03906c0-5e-3 0.011-0.0049 0.012-0.0098zm-0.01 0.07816c0 0.06386 0.014 0.13829 0.045 0.23047l0.25 0.90039-0.049-0.05078c0.014 0.06522-0.04 0.10646-0.031 0.16992-0.018-0.06158-0.1097-0.04903-0.1191-0.11914l-0.051-0.30078c-0.031-0.52354-0.043-0.76199-0.045-0.83008zm-37.705 5.2304c0.2667-0.29999 0.5012-0.28253 0.7012 0.05078 1.0667 1.8 2.4504 2.1004 4.1504 0.90039 0.1-0.1 0.2666-0.20078 0.5-0.30078 0.4333-0.23333 0.7996-0.28371 1.0996-0.15039 0.3 0.16667 0.4822 0.50001 0.5488 1 0.1 0.89999 0.3171 2.1171 0.6504 3.6504l0.1526 0.5c0.033 0.26667 0.2329 0.31704 0.5996 0.15039 2.4333-1.0667 4.7337-1.0512 6.9004 0.04883 0.4333 0.2 0.5671 0.46745 0.4004 0.80078-0.2667 0.33333-0.4333 0.55039-0.5 0.65039-0.6 0.99999-0.9004 1.6822-0.9004 2.0488 0.033 0.53332 0.5004 1.0508 1.4004 1.5508 0.6 0.33333 0.8829 0.66667 0.8496 1-0.067 0.23333-0.3341 0.56667-0.8008 1-1.1333 0.96665-2.3833 1.7167-3.75 2.25-0.5666 0.23333-0.6655 0.56667-0.2988 1s0.6167 1.2008 0.75 2.3008c0.1333 1.0333 0.104 1.8492-0.1 2.4492-0.2334 0.83332-0.6345 1.1996-1.2012 1.0996-0.6333-0.29999-1.1004-0.48216-1.4004-0.54883-0.5333-0.1-0.9151-0.03411-1.1484 0.19922-0.1334 0.13333-0.2845 0.44922-0.4512 0.94922l-0.5 1.3008c-0.7-0.26667-1.2155-0.51667-1.5488-0.75-0.8667-0.59999-1.6516-1.5826-2.3516-2.9492-0.2666-0.43332-0.5166-0.41784-0.75 0.04883-0.3333 0.63333-0.9825 1.2167-1.9492 1.75-0.9333 0.46667-1.8171 0.73412-2.6504 0.80078l-0.8496-0.09961c-0.1333-0.03333-0.2671-0.21745-0.4004-0.55078-0.067-0.16667-0.15-0.58335-0.25-1.25-0.067-0.5-0.2004-0.89922-0.4004-1.1992-0.2666-0.36665-0.6833-0.51784-1.25-0.45117-0.5 0.06667-0.8488 0.03372-1.0488-0.09961-0.2333-0.13333-0.3167-0.41629-0.25-0.84961 0-1.0333 0.3004-2.1496 0.9004-3.3496 0.2666-0.43332 0.1329-0.71823-0.4004-0.85156-2-0.56667-3.4012-1.5822-4.2012-3.0488-0.1-0.2 8e-4 -0.41706 0.3008-0.65039l0.6992-0.65039c0.6-0.76665 0.7667-1.4837 0.5-2.1504-0.2333-0.6-0.15-0.98177 0.25-1.1484 0.2334-0.1 0.6171-0.20078 1.1504-0.30078 0.4333-0.2 0.9837-0.26588 1.6504-0.19922 0.9 0.1 1.4659 0.13294 1.6992 0.09961 0.3667-0.03333 0.6012-0.20001 0.7012-0.5 0.033-0.33333 0.066-0.56784 0.1-0.70117 0.5333-1.7666 1.4326-3.3829 2.6992-4.8496zm-28 2.75c1.0334 0.06667 1.5508 0.66746 1.5508 1.8008 0 1.1-0.5504 1.6988-1.6504 1.7988-1.2-0.2-1.7988-0.70001-1.7988-1.5 0-1.4 0.6318-2.0996 1.8984-2.0996zm30.403 2.4004c-0.3 0.06667-0.4492 0.33413-0.4492 0.80078 0.073 1.2578 0.089 1.5597 0.1094 1.9219 0.035 0.01722 0.05 0.07008 0.09 0.07813 0.1163 0.04649 0.2326 0.04649 0.3496 0h0.051c0.095 0.06364 0.1917 0.05785 0.2871 0l-0.0375-2.0508c-0.067-0.5-0.2004-0.75-0.4004-0.75zm4.4004 1.3496c-0.2-0.13332-0.3841-0.08294-0.5508 0.15039l-1.4199 1.7031 0.07 0.24609c0.1333 0.2 0.333 0.26784 0.5996 0.20117l1.3516-1.75c0.1666-0.2 0.151-0.38412-0.051-0.55078zm-8.0508 0.95117c-0.1666 0.16667-0.196 0.31589-0.1 0.44922l0.9922 1.1348c0.1047 0.0058 0.2118 0.02292 0.3086-0.03516l0.1996-0.099606 0.1504-0.099609 0.0742-0.15039-1.2734-1.1992c-0.1667-0.1-0.2849-0.1-0.3516 0zm27.852 0.69922c0.4 0 0.7159 0.08333 0.9492 0.25 0.3 0.2 0.4337 0.48296 0.4004 0.84961-0.1333 1.1-0.6663 1.6678-1.5996 1.7012-0.8334 0.03333-1.2171-0.36784-1.1504-1.2012 0.1333-1.1 0.6004-1.6329 1.4004-1.5996zm-30.4 1.4492c-0.2667-0.1-0.4663-0.03216-0.5996 0.20117-0.2 0.26665-0.1863 0.43333 0.049 0.5 0.4333 0.16665 1.0671 0.39923 1.9004 0.69922 0.4273 0.17479 0.7479 0.22451 1.1074 0.32031 0.09-0.13127 0.1426-0.29864 0.1426-0.51953 0-0.14307-0.019-0.23236-0.031-0.33789-0.8219-0.26315-1.6831-0.54118-2.0196-0.61328-0.2333-0.13333-0.4155-0.21667-0.5488-0.25zm12.4 0.30082c-0.1295 0-0.807 0.15294-1.9414 0.43555 0.092 0.23881 0.1013 0.51018 0.1465 0.76758 0.5791-0.1035 1.0941-0.17884 1.9433-0.40234 0.1-0.03333 0.2182-0.10117 0.3516-0.20117 0.1-0.13332 0.1484-0.23216 0.1484-0.29883 0-0.13333-0.083-0.21667-0.25-0.25-0.1666 0-0.2984-0.01745-0.3984-0.05078zm-2.0039 2.8359-0.047 0.06445-0.1 0.09961-0.051 0.15039v0.29883l0.051 0.15039 0.059 0.05859c0.418 0.16673 0.9644 0.406 1.2402 0.49219 0.1 0.03333 0.2667 0.11667 0.5 0.25 0.2 0.06667 0.3667-0.0012 0.5-0.20117 0.1334-0.26667 0.017-0.48177-0.3496-0.64844-0.7261-0.45064-1.2646-0.58354-1.8027-0.71484zm-7.8301 0.08008c-0.369 0.15723-0.6347 0.29462-1.166 0.48438-0.3667 0.19999-0.5334 0.43256-0.5 0.69922 0.033 0.16667 0.1166 0.23451 0.25 0.20117 0.1 0 0.2163-0.0349 0.3496-0.10156 0.3333 0 0.717-0.11628 1.1504-0.34961 0.1-0.05275 0.1061-0.04339 0.1933-0.08789 0.037-0.07128 0.1055-0.15214 0.1055-0.21094l-0.1-0.25-0.051-0.20117-0.1015-0.09961zm-18.916 0.2832c0.7333 0.89999 1.4988 1.3671 2.2988 1.4004 0.7667 0 1.5496-0.43217 2.3496-1.2988 0.2667-0.26665 0.5012-0.26665 0.7012 0 0.1 0.16667 0.2163 0.41668 0.3496 0.75 0.4667 0.76665 1.1004 1.9663 1.9004 3.5996 0.1667 0.26665 0.3992 0.21628 0.6992-0.15039 1-1.0667 2.033-1.7004 3.0996-1.9004 0.8-0.19999 1.4512-0.18253 1.9512 0.05078 0.3 0.13332 0.3988 0.3504 0.2988 0.65039-0.067 0.13333-0.15 0.34844-0.25 0.64844 0.033 0.36665 4e-4 0.91707-0.1 1.6504-0.033 0.66667 0.1663 1.1667 0.5996 1.5 0.2 0.13333 0.4675 0.20117 0.8008 0.20117 0.2-0.03333 0.4829-0.06823 0.8496-0.10156 0.3333 0.03333 0.4496 0.2 0.3496 0.5-0.2666 1.0333-1.0825 1.95-2.4492 2.75-0.3 0.13333-0.4667 0.3-0.5 0.5 0 0.16667 0.1492 0.31784 0.4492 0.45117 0.6 0.36665 1.1504 1.1167 1.6504 2.25 0.4667 1.1666 0.6004 2.0659 0.4004 2.6992-0.1667 0.43333-0.6008 0.65039-1.3008 0.65039-0.8333 0.06667-1.3992 0.33413-1.6992 0.80078-0.3 0.43333-0.3 1.0322 0 1.7988 0.1333 0.26667 0.1333 0.48372 0 0.65039s-0.3329 0.26745-0.5996 0.30078c-2.2 0.3-4.0508-0.3008-5.5508-1.8008-0.1333-0.13333-0.2825-0.18372-0.4492-0.15039-0.1333 0.06667-0.2341 0.20039-0.3008 0.40039l-0.4492 0.94922c-0.8333 1.8-2.1841 2.8678-4.0508 3.2012-0.3333 0.06667-0.6163-0.06706-0.8496-0.40039-0.067-0.06667-0.2333-0.40001-0.5-1-0.4-0.93332-0.8496-1.4837-1.3496-1.6504-0.5-0.16665-1.2171 0.01745-2.1504 0.55078-0.4333 0.26665-0.7008 0.16588-0.8008-0.30078-0.5666-1.4666-0.6151-2.8-0.1484-4 0.2333-0.59999 0.3496-0.91588 0.3496-0.94922 0.033-0.4-0.3-0.63451-1-0.70117-1.1-0.1-2.0845-0.85003-2.9512-2.25-0.1-0.2-0.05-0.39961 0.1504-0.59961 0.7667-0.66665 1.1504-1.25 1.1504-1.75 0.033-0.49999-0.3174-1.0988-1.0508-1.7988-0.1333-0.23333-0.1818-0.36706-0.1484-0.40039 0.6333-0.63333 1.0655-0.98412 1.2988-1.0508 1.2667-0.33332 2.2337-0.55039 2.9004-0.65039 0.2-0.03333 0.8667-0.09922 2-0.19922 0.2333-0.06667 0.3496-0.18296 0.3496-0.34961l0.1-1.6504c0.067-0.56665 0.15-0.98333 0.25-1.25 0.1334-0.33333 0.3504-0.76746 0.6504-1.3008 0.3667-0.56667 0.6012-0.98335 0.7012-1.25zm25.533 1.5606c-0.1577 0.0063-0.2887 0.08007-0.3848 0.24023-0.047 0.10952-0.039 0.21993-0.055 0.33008l1.2051 1.7695c0.033 0.06667 0.084 0.15 0.1504 0.25 0.067 0.1 0.1674 0.1 0.3008 0 0.2666-0.16665 0.3151-0.38374 0.1484-0.65039-0.5031-0.95829-0.9315-1.4291-1.3652-1.9395zm-4.9844 0.08985c-0.021 0-0.035 0.02099-0.055 0.02344l-1.2461 1.5762c-0.1 0.16667-0.1348 0.2849-0.1015 0.35156 0.067 0.06667 0.1674 0.06667 0.3007 0 0.4667-0.13333 0.9008-0.40078 1.3008-0.80078 0.015-0.03127 0.3052-0.38472 0.4453-0.5625-0.067-0.22519-0.1645-0.39052-0.2949-0.48828-0.1-0.1-0.1988-0.13294-0.2988-0.09961zm2.3008 0.99996v0.05078l-0.1621 0.04687c0.067 0.58388 0.1088 1.1472 0.2617 1.8027 0 0.4 0.1337 0.54922 0.4004 0.44922 0.2-0.03333 0.2659-0.23294 0.1992-0.59961-0.088-0.70557-0.1019-1.1156-0.1308-1.5879l-0.02-0.01172c-0.1333-0.1-0.3155-0.15039-0.5488-0.15039zm13.4 0.15039c0.1333 0 0.2825 0.10078 0.4492 0.30078 0.6333 0.79999 1.3659 1.2322 2.1992 1.2988 0.9 0.1 1.7334-0.2159 2.5-0.94922 0.4667-0.43333 0.8175-0.48372 1.0508-0.15039 0.1333 0.16667 0.2826 0.5 0.4492 1 0.2 0.36667 0.4171 0.96746 0.6504 1.8008 0.067 0.16667 0.2004 0.28294 0.4004 0.34961 0.2 0.03333 0.3841 3.9e-4 0.5508-0.09961 1.3-0.83332 3.0829-0.9341 5.3496-0.30078 0.7667 0.2 1.1 0.55079 1 1.0508-0.067 0.3-0.2508 0.71668-0.5508 1.25-0.3333 1.2 0.05 2.1322 1.1504 2.7988 0.7 0.43333 0.7293 0.85001 0.1 1.25-1.1667 1.1333-2.1492 1.8329-2.9492 2.0996-0.2 0.06667-0.3512 0.2004-0.4512 0.40039-0.1 0.23333-0.065 0.50078 0.1016 0.80078 1.0666 1.6333 1.3496 3.3504 0.8496 5.1504-0.033 0.23333-0.2175 0.31667-0.5508 0.25-1.0667-0.29999-2.0337-0.15077-2.9004 0.44922-0.8666 0.56665-1.3821 1.3671-1.5488 2.4004-0.067 0.26665-0.1 0.6504-0.1 1.1504-1.1667-0.29999-2.4671-1.2167-3.9004-2.75-0.2-0.2-0.3996-0.30078-0.5996-0.30078l-0.1504 0.05078c-0.2 0.06667-0.3337 0.18294-0.4004 0.34961-1.1667 1.8666-2.7326 2.9171-4.6992 3.1504l-0.6504 0.19922c-0.6667 0.13333-1.033-0.05078-1.0996-0.55078 0.033-0.6 0-1.0167-0.1016-1.25-0.2-0.53333-0.6651-0.98294-1.3984-1.3496-0.7334-0.36665-1.3516-0.41706-1.8516-0.15039-0.4666 0.23333-0.7321 0.06667-0.7988-0.5-0.2333-1.6333-0.067-3.0151 0.5-4.1484 0.2-0.36665 0.099-0.66707-0.3008-0.90039-0.5-0.2-0.8333-0.36668-1-0.5-1.4-0.86667-2.2004-2.0508-2.4004-3.5508-0.033-0.19999 0.085-0.36667 0.3516-0.5l0.6484-0.34961c0.3-0.23333 0.4667-0.36706 0.5-0.40039 0.2334-0.13332 0.5008-0.14881 0.8008-0.04883 0.5667 0.16667 0.9833 0.04844 1.25-0.35156 0.1-0.16667 0.2667-0.59884 0.5-1.2988 0.1333-0.43333 0.3504-0.66784 0.6504-0.70117 0.1667 0 0.4167 0.06784 0.75 0.20117 1.2333 0.56665 2.0996 0.2992 2.5996-0.80078 0.2-0.39999 0.3008-0.81667 0.3008-1.25 0.1333-1.6666 0.8988-3.1163 2.2988-4.3496 0.1667-0.13333 0.3178-0.21667 0.4512-0.25zm-33.352 1.4492c-0.2333 0-0.3166 0.18412-0.25 0.55078 0 1.2153 0.036 2.0729 0.092 2.7344l0.059 0.11523c0.067 0.13333 0.1675 0.20117 0.3008 0.20117h0.1992c0.114-0.01899 0.1747-0.07182 0.25-0.11523l-0.1998-2.9355c-0.067-0.36667-0.2178-0.55077-0.4512-0.55078zm3.9512 1.25c-0.1333-0.16667-0.2671-0.11626-0.4004 0.15039l-1.3496 2c-0.074 0.14881-0.1019 0.172-0.1563 0.26758 0.024 0.05188 0.019 0.05694 0.057 0.13281l0.1484 0.15039c0.2 0.06667 0.3337 0.08216 0.4004 0.04883 0.1279 0 0.2616-0.11628 0.4004-0.34961 0.014 0.0092 0.025 0.02188 0.039 0.03125 0.3875-0.74589 0.8026-1.5556 1.0117-1.8809 0.1-0.13333 0.1137-0.24961 0.049-0.34961-0.1-0.06667-0.1659-0.13451-0.1992-0.20117zm-7.9004 1c0 0.1-0.017 0.23374-0.051 0.40039 0 0.13333 0.05 0.24961 0.1504 0.34961 0.3578 0.33222 0.9403 0.90884 1.5332 1.4961 0.059-0.06381 0.1053-0.13264 0.168-0.19531 0.1375-0.13756 0.2944-0.22986 0.4414-0.3457l-1.6914-1.5547c-0.2667-0.06667-0.4508-0.11706-0.5508-0.15039zm40 0.10156c-0.1333-0.03333-0.2341-3.9e-4 -0.3008 0.09961-0.067 0.13332-0.1325 0.23216-0.1992 0.29883-0.1667 0.16667-0.196 0.36823-0.1 0.60156 0.1333 0.36667 0.1992 0.56628 0.1992 0.59961l-0.1504 1.1992c-0.065 0.42303-0.062 0.79531 0 1.123 0.3006 0.024 0.5799 0.09139 0.8516 0.17383v-2.3965h0.1v-1.0996c0-0.33333-0.1337-0.53294-0.4004-0.59961zm4.1504 1.0996c-0.1-0.2-0.2337-0.16707-0.4004 0.09961l-2.4121 3.1152c0.053 0.013 0.1109 0.02093 0.1621 0.03516v0.04883c0 0.23333 0.1337 0.3845 0.4004 0.45117 0.016 0.0053 0.029-0.01322 0.045-0.0098 0.037-0.03388 0.065-0.04981 0.1055-0.08984l1.1992-1.5c0.4667-0.59999 0.8174-1.1349 1.0508-1.6016 0.1-0.16667 0.05-0.34884-0.1504-0.54883zm-33.4 0.15039-2.5293 1.2461c0.1622 0.21954 0.3086 0.44454 0.4199 0.68164 0.5556-0.24671 0.9715-0.43324 1.7598-0.7793 0.4667-0.2 0.7167-0.49844 0.75-0.89844 0-0.03333-0.068-0.10117-0.2012-0.20117-0.1-0.06667-0.1659-0.08216-0.1992-0.04883zm24.1 0.79882-0.049 0.05078c0 0.29999 0.015 0.46667 0.049 0.5 0.4531 0.59468 1.2556 1.595 2.166 2.7188 0.1722-0.05218 0.3091-0.14816 0.3848-0.31836 0.095-0.15802 0.1014-0.35236 0.047-0.57031l-1.6465-2.0312c-0.2667-0.26667-0.5845-0.38294-0.9512-0.34961zm-37.25 1.1504c-0.2667 0-0.4159 0.06589-0.4492 0.19922 0 0.26665 0.1163 0.41784 0.3496 0.45117l2.5625 0.37109c0.2597-0.11491 0.482-0.23345 0.5371-0.37109 0.033-0.03333-0.033-0.13412-0.1992-0.30078l-0.168-0.0957c-0.7214-0.07901-1.1738-0.14818-2.6328-0.25391zm49.301 0.90039c-0.8 0.16665-2.1333 0.75001-4 1.75-0.034 0.01866-0.052-0.01448-0.084 0 0.025 0.08621 0.029 0.19454 0.084 0.25l0.2988 0.15039c0.2249 0.05 0.409 0.03255 0.5508-0.05078 0.034 0.05599 0.044 0.11026 0.074 0.16602 0.8689-0.38975 1.8668-0.84208 3.3262-1.5156 0.2333-0.1 0.2992-0.28412 0.1992-0.55078-0.033-0.16665-0.1825-0.23255-0.4492-0.19922zm-36.6 0.04883c-0.7759-0.08167-1.0806 1.42e-4 -1.5313 0.03125l-0.07 0.07031-0.1 0.29883c0 0.21111 0.1129 0.34706 0.2383 0.47461 0.5031-0.03631 0.9625-0.08633 1.3125-0.17383 0.1667-0.03333 0.3992-0.06628 0.6992-0.09961 0.2667-0.06667 0.4004-0.2004 0.4004-0.40039 0-0.36667-0.2829-0.41706-0.8496-0.15039zm-10.055 1.8613c-0.3647 0.20688-0.9113 0.47699-1.1465 0.63867-0.2667 0.13333-0.4488 0.23411-0.5488 0.30078-0.2 0.13333-0.2504 0.3-0.1504 0.5 0.1667 0.3 0.5329 0.28253 1.0996-0.05078l1.4141-0.74609c-0.071-0.1514-0.1624-0.29404-0.2149-0.45312l-0.3496-0.09961c-0.049-0.01981-0.063-0.06414-0.1035-0.08984zm31.654 0.03906c-0.4 0.03333-0.6345 0.05078-0.7012 0.05078l0.25 0.44922c0.067 0.16667 0.1849 0.26745 0.3516 0.30078l3.3008 0.79102c0.034-0.01812 0.062-0.01761 0.098-0.04102l0.1016-0.34961c0-0.2-0.035-0.35117-0.1016-0.45117l-0.082-0.05469-2.5664-0.69531c-0.1667-0.03333-0.3837-0.03333-0.6504 0zm-23.221 0.51953c-0.039 0.08769-0.035 0.1969-0.08 0.28125v0.63086l1.5996 1.2695c0.1334 0.13333 0.3175 0.13333 0.5508 0 0.2-0.13333 0.1707-0.2845-0.1-0.45117-0.6922-0.79867-1.316-1.1681-1.9707-1.7305zm35.121 1.3438v0.08789c0 0.16667 0.033 0.29844 0.1 0.39844 0 0.06667 0.066 0.1345 0.1992 0.20117l0.25 0.04883c-0.01 0.12475-0.059 0.22934-0.076 0.34961 0.5137 0.13054 0.8815 0.22226 1.5762 0.40039 0.6667 0.16667 1.1163 0.13372 1.3496-0.09961 0.2-0.26665 0.051-0.48372-0.4492-0.65039zm-41.881 0.11719c-0.3285 0.70078-0.5343 1.1091-1.1191 2.4199-0.1334 0.26667-0.1197 0.51667 0.049 0.75 0.1 0.06667 0.2008 0.04922 0.3008-0.05078 0.067-0.03333 0.1655-0.13217 0.2988-0.29883 0.3667-0.4 0.7175-1.0008 1.0508-1.8008 0.1254-0.28416 0.1148-0.25523 0.2129-0.47656-0.2726-0.16076-0.5482-0.31273-0.793-0.54297zm4.2305 0.32031-0.3496 0.34961c-0.038 0.053-0.041 0.08719-0.068 0.13477l0.418 1.0645c0.1667 0.23333 0.3004 0.31667 0.4004 0.25 0.2-0.06667 0.2659-0.21589 0.1992-0.44922-0.1799-0.7557-0.2555-0.92413-0.377-1.3496-0.077 0.0032-0.1187-0.02969-0.2226 0zm28.797 0.63476c-0.6424 0.20924-1.6744 0.56397-1.8965 0.61524-0.1667 0.06667-0.3179 0.1655-0.4512 0.29883s-0.1837 0.26707-0.1504 0.40039c0.033 0.2 0.2834 0.21745 0.75 0.05078 1.2634-0.31586 1.5416-0.3983 2.1621-0.5625 0.034-0.14391 0.065-0.28504 0.039-0.38867-0.084-0.22305-0.2348-0.35482-0.4512-0.39844 0-0.0049-8e-4 -0.01067 0-0.01563zm8.5722 1.8652c-0.047 0.06276-0.068 0.13843-0.1191 0.19922l-0.1504-0.04883-0.1 0.04883c-0.2 0.06667-0.3337 0.15-0.4004 0.25-0.016 0.01559 8e-4 0.05229-0.016 0.07031l2.1152 2.2305c0.2667 0.33332 0.5341 0.39922 0.8008 0.19922 0.1333-0.13332 0.1627-0.24961 0.1-0.34961-0.1333-0.1-0.2167-0.18333-0.25-0.25-0.4252-0.53711-1.2399-1.4819-1.9805-2.3496zm-7.2793 0.35547-1.3906 1.5938c-0.2333 0.23333-0.247 0.43294-0.049 0.59961 0.2666 0.1 0.4488 0.08451 0.5488-0.04883 0.5846-0.58458 1.0418-1.1147 1.5352-1.6602-0.2222-0.14223-0.4404-0.2945-0.6446-0.48438zm3.6602 1.0938c-0.067 0-0.15 0.05039-0.25 0.15039l-0.078 0.07813 0.027 1.5215c0 0.3 0.1337 0.51706 0.4004 0.65039l0.1 0.05078c0.1333 0 0.2341-0.15117 0.3008-0.45117 0.1333-0.43332 0.1992-0.94883 0.1992-1.5488l-0.01-0.16016c-0.015 0.0013-0.028 0.0086-0.043 0.0098-0.088-0.2-0.2542-0.30078-0.5-0.30078l-0.051 0.05078zm11.156 2.1484c0 0.01765 7e-4 0.03507 0 0.05273-0.029 0.10341-0.1487 0.07752-0.1894 0.16406 0.046-0.09407 0.1663-0.10033 0.1933-0.2168zm-0.998 0.91016c-0.051 0.0086-0.052 0.08856-0.1074 0.0918l-0.4434-0.07031c0.2098-0.0057 0.464-0.0092 0.5508-0.02148zm-29.658 19.791c0.7 0.43333 1.2988 1.1 1.7988 2 0.3 0.5 0.6837 1.3004 1.1504 2.4004 0.2667 0.53333 0.6678 0.66706 1.2012 0.40039 1.2666-0.6 2.3655-0.96628 3.2988-1.0996 1.2333-0.16667 2.3845 0.0329 3.4512 0.59961 0.4 0.2 0.5318 0.46745 0.3984 0.80078-0.067 0.16667-0.2159 0.39922-0.4492 0.69922-0.4333 0.93333-0.1659 1.6174 0.8008 2.0508l1 0.14844c0.3666 0.0333 0.5818 0.1845 0.6484 0.45117 0.2 0.83333-0.083 1.7829-0.8496 2.8496-0.3667 0.6-0.7988 1.0341-1.2988 1.3008-0.4 0.23333-0.5667 0.54922-0.5 0.94922 0.067 0.23333 0.1984 0.56667 0.3984 1 0.2 0.6 0.1707 1.0496-0.1 1.3496-0.067 0.13333-0.1829 0.1506-0.3496 0.0508-0.1333-0.16667-0.2496-0.26745-0.3496-0.30078-0.9-0.26667-1.8341-0.26667-2.8008 0-0.6333 0.13333-1.517 0.48411-2.6504 1.0508-0.2666 0.13333-0.4818 0.0829-0.6484-0.15039-0.1334-0.33333-0.2341-0.53294-0.3008-0.59961-0.1333-0.3-0.4008-0.66628-0.8008-1.0996-0.2501-0.28858-0.3402-0.4531-0.4902-0.66406l-0.1094-0.0371-0.4492-0.29883c-0.033-0.0333-0.1496-0.0837-0.3496-0.15039l-0.25-0.0996c-0.2-0.0667-0.5004-0.10156-0.9004-0.10156l-0.3008 0.0508-0.1504 0.0996-0.1988 0.15035c0 2e-3 -0.05 0.0185-0.057 0.0215-0.025 0.0516-0.014 0.12868-0.043 0.17774-0.3 0.5-0.7012 0.76745-1.2012 0.80078-0.5333 0.0667-0.9829-0.0496-1.3496-0.34961-0.1054-0.0879-0.081-0.26269-0.1582-0.36914-0.037-0.0186-0.1066-0.0101-0.1406-0.0312l-0.5-0.19922c-0.3667 0.16667-0.6341 0.25-0.8008 0.25h-0.1504l-0.1 0.0996-0.1992 0.25c-0.1667 0.1-0.3334 0.13299-0.5 0.0996l-0.061-0.0508h-0.051c-0.1113-0.0615-0.1946-0.16029-0.25-0.29883v-0.0898l-2.5997 1.0391c-0.4667 0.16667-0.6003 0.35078-0.4003 0.55078 0.1667 0.16667 0.3836 0.25 0.6503 0.25 0.2331 0.0333 0.4331-0.0345 0.5997-0.20117 0.1334-0.1 0.3348-0.18333 0.6015-0.25 0.2666-0.0667 0.4488-0.13255 0.5488-0.19922 0.033-0.0333 0.067-0.0333 0.1016 0 0.067 0 0.1016 0.0174 0.1016 0.0508 0.1 0.1 0.1138 0.18333 0.049 0.25-0.3667 0.56667-0.6168 1.4833-0.75 2.75v0.0996c-0.033 0.4-0.167 0.6655-0.4004 0.79883-0.1333 0.0667-0.4164 0.11706-0.8496 0.15039-0.4 0.0667-0.9659 0.23333-1.6992 0.5-0.1333 0.0333-0.2167 0.0333-0.25 0v-0.19922l0.3496-2.7012c0.1-0.5-0.1326-0.75-0.6992-0.75-0.9334 0.0333-1.8849-0.3155-2.8516-1.0488-0.9666-0.73333-1.5655-1.5512-1.7988-2.4512-0.1-0.43333 0.016-0.76667 0.3496-1 0.2-0.1 0.5159-0.24922 0.9492-0.44922 1-0.6 1.1512-1.35 0.4512-2.25-0.5667-0.73333-0.8012-1.2333-0.7012-1.5s0.6175-0.56706 1.5508-0.90039c1.9-0.63333 3.5337-0.76706 4.9004-0.40039 0.1667 0.0333 0.2655 3e-4 0.2988-0.0996v-0.29883c-0.033-1.5667 0.4182-3.0667 1.3516-4.5 0.1333-0.2 0.2825-0.25039 0.4492-0.15039 0.1 0.0333 0.2337 0.11667 0.4004 0.25 0.3 0.16667 0.7167 0.48255 1.25 0.94922 0.5333 0.33333 1.0488 0.3506 1.5488 0.0508 0.3334-0.2 0.6667-0.55078 1-1.0508 0.1667-0.3 0.4167-0.73216 0.75-1.2988l0.059-0.0508c0.067-0.1 0.2004-0.11727 0.4004-0.0508zm-2.8008 5.5508c-0.2 0.0667-0.2659 0.26628-0.1992 0.59961l0.5 3.0996h0.1992l0.1-0.0488 0.1016 0.0488 0.2988-0.0488 0.055-0.0547c-0.047-0.58439-0.1035-1.2536-0.1035-1.3457-0.1-0.76667-0.2841-1.4159-0.5508-1.9492-0.1667-0.23333-0.3004-0.33411-0.4004-0.30078zm4.9004 1.4004c-0.2-0.1-0.3996-0.0167-0.5996 0.25-0.6221 0.83663-0.8396 1.3244-1.1582 1.8984 0 1e-3 0.01 5.2e-4 0.01 2e-3l0.051 0.14844 0.1 0.10156c0.098 0.13097 0.2468 0.19299 0.4415 0.19531l1.1582-1.8457c0.2-0.3 0.2-0.55 0-0.75zm-8.3496 0.69936c-0.1667 0.16667-0.1667 0.33333 0 0.5l1.9101 2.4199 0.2403-0.0703c0.1-0.1 0.1484-0.16589 0.1484-0.19922l0.1504-0.40039h-0.049c0-0.0343-0.029-0.0626-0.035-0.0957-0.6385-0.96667-1.2775-1.7074-1.916-2.1543-0.2-0.16667-0.3492-0.16667-0.4492 0zm-16.801 1.9002c0.5333 0.1 1.0663 0.38294 1.5996 0.84961 0.4334 0.4 0.8675 0.96784 1.3008 1.7012 0.2667 0.4 0.6504 1.0163 1.1504 1.8496 0.1667 0.26667 0.4825 0.28243 0.9492 0.0488l1.75-0.69922c0.3-0.1 0.4996 7.8e-4 0.5996 0.30078 0.4 1 1.0841 1.7829 2.0508 2.3496 0.6333 0.4 1.6004 0.76628 2.9004 1.0996l0.25 0.0996c0.033 0.0333 0.016 0.11667-0.051 0.25-0.3333 0.8-0.4167 1.6004-0.25 2.4004 0.067 0.36667-0.017 0.68255-0.25 0.94922-0.1 0.1-0.3325 0.26667-0.6992 0.5-0.3333 0.16667-0.3837 0.43411-0.1504 0.80078 0.2 0.46667 0.45 0.86589 0.75 1.1992 0.5333 0.66666 0.4326 1.2016-0.3008 1.6016-0.6 0.3-0.9818 0.58294-1.1484 0.84961-0.2334 0.4-0.204 0.88255 0.1 1.4492 0.067 0.0667-0.05 0.20039-0.3496 0.40039-1.6 0.8-3.0516 1.1663-4.3516 1.0996-0.4-0.1-0.6829-0.0167-0.8496 0.25-0.1 0.1-0.2337 0.45078-0.4004 1.0508-0.5666 1.7-1.5318 2.8667-2.8984 3.5-0.2667 0.13333-0.4682 0.05-0.6016-0.25-0.1333-0.36667-0.2496-0.61667-0.3496-0.75-0.7667-1-1.6-1.0504-2.5-0.15039l-0.5488 0.55078c-0.5667 0.33333-1.1171 0.36637-1.6504 0.0996-0.5-0.23333-0.9167-0.71784-1.25-1.4512-0.6667-1.4-0.8508-2.6984-0.5508-3.8984 0.1333-0.63333 0.05-0.96667-0.25-1-0.4 0.0667-0.6829 0.0996-0.8496 0.0996-1.4667-0.0333-2.7167-0.81628-3.75-2.3496-0.1-0.16667 8e-4 -0.35078 0.3008-0.55078 0.8666-0.53333 1.3163-1.1167 1.3496-1.75 0.033-0.66667-0.3678-1.3004-1.2012-1.9004-0.4666-0.33333-0.6663-0.61628-0.5996-0.84961 0.1667-0.53333 0.6337-0.93255 1.4004-1.1992 0.6667-0.23333 1.6841-0.58411 3.0508-1.0508 0.3-0.13333 0.3988-0.33294 0.2988-0.59961-0.1333-0.3-0.2322-0.51706-0.2988-0.65039-0.2-0.63333-0.1167-1.55 0.25-2.75 0.4-1.2 0.8651-1.9829 1.3984-2.3496 0.2334-0.16667 0.4679-0.13363 0.7012 0.0996 0.7333 0.8 1.367 1.1508 1.9004 1.0508 0.4666-0.1 0.9492-0.6 1.4492-1.5 0.067-0.1 0.15-0.28411 0.25-0.55078 0.1-0.2 0.2163-0.28333 0.3496-0.25zm28.35 0.15039-3.1836 1.3906c0 0.0566-0.037 0.0949-0.016 0.1582l0.051 0.20117 0.049 0.0996 0.2012 0.15039h0.1992c0.012 0.0357 0.012 0.0717 0.023 0.10742l3.0762-1.4082c0.1667-0.0667 0.283-0.28372 0.3496-0.65039-0.4-0.0667-0.65-0.0822-0.75-0.0488zm-15.148 1.1504c-0.3 0-0.4512 0.0833-0.4512 0.25 0 0.16667 0.1337 0.29844 0.4004 0.39844 0.8 0.4 1.9008 0.75078 3.3008 1.0508 0.4 0.0667 0.6151 0.0996 0.6484 0.0996 0.1436 0 0.1271 0.12968 0.25 0.14648v-0.19531c0.2007-0.0703 0.3189-0.18854 0.3516-0.35156 0.063-0.095 0.057-0.20699 0-0.33203zm28.572 0.0996c0.3667-0.0667 0.5663 0.0671 0.5996 0.40039 0.033 0.16667 0.016 0.43216-0.051 0.79883 0.033 0.23333 0.051 0.56667 0.051 1 0.033 0.36667 0.1826 0.63411 0.4492 0.80078 0.5 0.33333 1.1181 0.28294 1.8515-0.15039 0.5665-0.33333 0.933-0.39922 1.0997-0.19922 0.4 0.5 0.5163 1.1163 0.3496 1.8496-0.033 0.1-0.1341 0.48373-0.3008 1.1504-0.1333 0.43333-0.1992 0.79961-0.1992 1.0996l0.051 0.40039c0.1 0.2 0.3152 0.26589 0.6485 0.19922l0.75-0.0996c1.7667 0.26667 3.1175 1.2822 4.0508 3.0488 0.2 0.33333-0.083 0.65117-0.8496 0.95117-0.8333 0.43333-1.2832 0.81706-1.3497 1.1504-0.067 0.33333 0.2164 0.81589 0.8497 1.4492 0.1 0.1 0.2667 0.21628 0.5 0.34961 0.1667 0.16667 0.2168 0.33333 0.1503 0.5-0.3 0.63333-0.8503 1.0345-1.6503 1.2012-1.0333 0.1-1.8165 0.18333-2.3497 0.25-0.3667 0.0667-0.5507 0.24883-0.5507 0.54883-0.033 0.2-0.016 0.48294 0.051 0.84961-0.1334 1.5333-1.017 2.8667-2.6503 4-0.4333 0.33333-0.7998 0.38372-1.0997 0.15039-0.2667-0.36667-0.4681-0.63216-0.6015-0.79883-0.7666-1.0667-1.4992-1.0667-2.1992 0-0.5333 0.8-0.9829 1.1992-1.3496 1.1992-0.3-0.0333-0.8504-0.38412-1.6504-1.0508-0.4667-0.4-0.7828-0.9-0.9493-1.5-0.1-0.33333-0.1835-0.91667-0.25-1.75 0-0.26667-0.1007-0.6-0.3007-1-0.2-0.43333-0.5508-0.93334-1.0508-1.5-0.3-0.33333-0.4492-0.54844-0.4492-0.64844-0.033-0.16667 0.1663-0.33333 0.5996-0.5 0.3466-0.1156 1.0092-0.4631 1.5117-0.69336 0-3e-3 1e-3 -5e-3 -0.01-8e-3 0.074-0.0405 0.1418-0.0909 0.2012-0.15039l0.049-0.59961 0.1504-0.44922c0.1333-0.0667 0.1837-0.15 0.1504-0.25 0.067 0 0.1-0.0504 0.1-0.15039l0.084-0.12695 0.1953-0.54493c0.024-0.16281 0.047-0.33264 0.07-0.42773 0.066-0.13288 0.077-0.17311 0.1-0.23242v-0.0684c0-0.014 0.029-2e-3 0.035-0.0137 0-5e-3 0.02-0.0318 0.02-0.0352l-0.055-1.1016v-0.0391c-0.5894-0.39254-1.1404-0.85767-1.8574-1.0098-0.3667-0.0667-0.5333-0.23333-0.5-0.5 0.033-0.13333 0.1496-0.41628 0.3496-0.84961 0.6-1.1667 0.7008-2.6182 0.3008-4.3516 0.2333 0.43333 0.7023 0.90039 1.4023 1.4004 0.1667 0.13333 0.314 0.20117 0.4473 0.20117 0.1999 0 0.3533-0.15117 0.4531-0.45117 0.067-0.33333 0.1132-0.55039 0.1465-0.65039 0.7334-1.6 2.2198-2.6155 4.4531-3.0488zm-16.225 1.9121c-0.094 0.13172-0.1129 0.293-0.049 0.48828l0.051 0.19922 0.1 0.0996c0.015 0.0204 0.03 0.0294 0.045 0.0449l3.3047-0.0449c0.1333 0 0.333 0.0329 0.5996 0.0996 0.2334 0.0333 0.3671-0.0655 0.4004-0.29883 0.033-0.3-0.083-0.46667-0.3496-0.5-0.3333 0-0.5504-0.0174-0.6504-0.0508-0.3835-0.0255-1.8913-0.0315-3.4512-0.0371zm-26.949 1.2871c-0.2666 0.0333-0.2666 0.35117 0 0.95117 0.1854 0.58236 0.5014 1.5944 0.834 2.6602l0.2676 0.0898 0.2988-0.0508 0.25-0.25 0.047-0.14258c-0.3205-0.85884-0.6577-1.7641-0.8457-2.2578-0.1334-0.33333-0.2341-0.56589-0.3008-0.69922-0.1667-0.23333-0.3508-0.33411-0.5508-0.30078zm25.051 0.20117c0.1333-0.3 0.4008-0.25156 0.8008 0.14844 0.7666 0.73333 1.4992 1.6345 2.1992 2.7012 0.3333 0.5 0.6996 0.66667 1.0996 0.5 0.2667-0.0667 0.633-0.26628 1.0996-0.59961 1.7667-0.8 3.2182-0.95117 4.3516-0.45117 0.1666 0.13333 0.2151 0.26706 0.1484 0.40039-0.3333 0.63333-0.3333 1.3174 0 2.0508 0.3334 0.73333 0.8837 1.15 1.6504 1.25 0.5 0.0333 0.75 0.26589 0.75 0.69922 0 0.0667-0.083 0.41745-0.25 1.0508-0.2667 0.93333-1.0167 1.7163-2.25 2.3496-0.9667 0.5-1.0829 1.1337-0.3496 1.9004 1.1667 1.2333 1.6667 2.5318 1.5 3.8984-0.033 0.16667-0.099 0.26745-0.1992 0.30078-0.1334-0.0333-0.2341-0.0508-0.3008-0.0508-1.6667 0-2.4826 0.83333-2.4492 2.5 0.033 0.16667 0.1321 0.5349 0.2988 1.1016 0.033 0.43333-0.3 0.54961-1 0.34961-1.1667 0.1-2.25-0.30117-3.25-1.2012-0.5333-0.46667-0.95-0.5655-1.25-0.29883-0.1 0.1-0.2996 0.46628-0.5996 1.0996-0.8333 1.5333-1.8508 2.4674-3.0508 2.8008-0.2666 0.0667-0.4333-0.0167-0.5-0.25-0.067-0.3-0.1325-0.50156-0.1992-0.60156-0.5667-0.9-1.1171-1.4155-1.6504-1.5488-0.5333-0.16667-1.2833-0.0329-2.25 0.40039-0.5333 0.26667-0.8996 0.16589-1.0996-0.30078-0.067-0.6-0.1326-0.99922-0.1992-1.1992-0.1334-0.6-0.2012-1.1-0.2012-1.5-0.033-0.3-4e-4 -0.66823 0.1-1.1016 0.1334-0.56667-0.016-0.88255-0.4492-0.94922-0.5333 0-0.8996-0.0329-1.0996-0.0996-0.7-0.16667-1.4675-0.60078-2.3008-1.3008-0.8333-0.73333-1.3159-1.4329-1.4492-2.0996-0.033-0.0667 0.05-0.18294 0.25-0.34961 0.1667-0.13333 0.3333-0.23411 0.5-0.30078 0.7333-0.3 1.1325-0.71667 1.1992-1.25 0.033-0.36667-0.1159-0.91706-0.4492-1.6504-0.033-0.0667-0.1671-0.21589-0.4004-0.44922-0.2-0.16667-0.2504-0.30039-0.1504-0.40039 0.5-0.63333 1.033-1.0326 1.5996-1.1992 1.2667-0.4 2.2337-0.55117 2.9004-0.45117 0.2 0.0333 0.3163-0.0151 0.3496-0.14844 0.033-0.13333 0.033-0.25156 0-0.35156-0.1-0.4-0.1137-0.79922-0.049-1.1992 0.033-0.46667 0.2329-1.2167 0.5996-2.25 0.3333-0.86667 0.8004-1.3841 1.4004-1.5508 0.2-0.0667 0.3822 1e-3 0.5488 0.20117 0.1 0.1 0.2337 0.26667 0.4004 0.5 0.5333 0.46667 1.1845 0.58294 1.9512 0.34961 0.7666-0.2 1.3325-0.68255 1.6992-1.4492zm18.543 0.54882c-0.3334 0.1-0.5175 0.18333-0.5508 0.25-0.7321 1.4381-1.1089 2.5773-1.4512 3.6875l0.01 0.0137c0.2 0.2 0.3666 0.26589 0.5 0.19922 0.1027 0 0.158-0.0543 0.2304-0.0879 0.3572-0.83823 0.7543-1.7853 1.4688-3.6113 0.033-0.0333 0.01-0.11667-0.059-0.25-0.033-0.13333-0.082-0.20117-0.1484-0.20117zm-38.844 0.20117c-0.2666-0.13333-0.4333-0.0171-0.5 0.34961-0.3411 0.68236-0.6456 1.4384-0.9453 2.2031l0.047 0.0469c0.1 0.0667 0.2492 0.0996 0.4492 0.0996 0.1667 0 0.3004-0.0329 0.4004-0.0996l0.027-0.0273 0.7227-1.873c0.1333-0.36667 0.066-0.59922-0.2012-0.69922zm33.443 1.0488c-0.2 0.2-0.2504 0.41706-0.1504 0.65039 0.033 0.16667 0.1167 0.36628 0.25 0.59961 0.1252 0.43821 0.4317 1.2235 0.6875 1.9102l0.07 0.041c0.1 0.0667 0.2008 0.0667 0.3008 0l0.2988-0.20117c0.083-0.0553 0.091-0.0926 0.082-0.125-0.2836-0.86755-0.5737-1.7369-0.9394-2.625-0.067-0.16667-0.2508-0.25-0.5508-0.25zm-29.256 0.28921c-0.2249 0.0582-0.4871 0.26133-0.7871 0.61133h-0.1c-0.5531 0.2151-1.4975 0.87367-2.6738 1.7969-0.01 0.0844-0.059 0.15232-0.025 0.2539l0.049 0.19922 0.1 0.0996c0.077 0.10218 0.2104 0.13042 0.3457 0.1543l2.5547-1.7031c0.1667-0.1 0.4341-0.28411 0.8008-0.55078 0.3-0.26667 0.3988-0.46628 0.2988-0.59961-0.15-0.23333-0.3376-0.31995-0.5625-0.26172zm14.312 0.662c-0.1666 0.26667-0.2325 0.41589-0.1992 0.44922 0.2 0.4 0.3492 1.0667 0.4492 2 0.079 0.68693 0.2335 1.1304 0.3965 1.5449v6e-3l0.1504 0.0996c0.1667 0.0667 0.3159 0.0667 0.4492 0 0.08-0.0533 0.1209-0.0985 0.1758-0.14648-0.019-0.0701-0.06-0.077-0.076-0.1543-0.1-0.83333-0.1834-1.4496-0.25-1.8496-0.1334-0.73333-0.3834-1.3167-0.75-1.75zm-26.6 0.49997c-0.1333 0.16667-0.066 0.38177 0.2012 0.64844 0.3333 0.23333 0.7655 0.46784 1.2988 0.70117 0.2239 0.0995 0.598 0.25525 0.9707 0.41016l0.1797-0.0606 0.1992-0.30078 0.051-0.25-0.057-0.16992-2.1934-0.97852c-0.3333-0.2-0.5504-0.2-0.6504 0zm49.301 0.69922c-0.1667-0.2-0.4167-0.18273-0.75 0.0508l-1.5508 1.3965v0.0527c0 0.1 0.05 0.15039 0.1504 0.15039-0.033 0.0333 0 0.0837 0.1 0.15039l0.2012 0.19922c0.065 0.0244 0.1124 0.0343 0.1582 0.041 0.057-0.0658 0.081-0.0694 0.1406-0.14063 0.5-0.56667 0.9496-0.95039 1.3496-1.1504 0.3667-0.23333 0.4345-0.48333 0.2012-0.75zm-17.852 0.69921c-0.1667-0.1-0.3004-0.0825-0.4004 0.0508-0.1 0.16667-0.1833 0.28294-0.25 0.34961-0.2 0.4-0.3511 0.68294-0.4511 0.84961-0.1 0.2-0.2319 0.53333-0.3985 1-0.027 0.0648-0.062 0.0641-0.09 0.12109l0.041 0.0801 0.25 0.25 0.25 0.15039c0.024 0.0121 0.05-7e-3 0.074 0l1.0235-2c0.2667-0.43333 0.2521-0.71823-0.049-0.85156zm-18.998 1.4512-2.582 0.0703c-0.039 0.0276-0.079 0.0559-0.1192 0.0801l-0.1 0.0996c-0.1645 0.19741-0.179 0.42709-0.053 0.68945 0.2642-0.0241 0.4351 0.027 0.7519-0.0391 0.8334-0.13333 1.4516-0.18372 1.8516-0.15039 0.1 0.0333 0.2821-0.0345 0.5488-0.20117l0.2012-0.39844zm-10.629 0.0723-3.1211 0.27734c-0.2334 0-0.3516 0.11628-0.3516 0.34961-0.067 0.23333 0.067 0.34961 0.4004 0.34961l3.0059-0.0723c0.027-0.0313 0.081-0.0258 0.094-0.0762l0.1504-0.15039c-0.033-0.1-0.033-0.20078 0-0.30078h-0.049c0.033-0.0667 0.016-0.1655-0.051-0.29883zm21.228 0.0273c-0.1 0.0333-0.1294 0.0992-0.1 0.19922 0.033 0.13333 0.082 0.23411 0.1484 0.30078l1.4258 1.2441c0.028-0.0298 0.045-0.0643 0.074-0.0937v-0.0508c0.1133-2e-3 0.2141-0.0345 0.3008-0.0996l0.1504-0.15039v-0.15039c0.026-0.0183 0.056-0.0272 0.082-0.0449l-1.0332-1.0039c-0.3333-0.33333-0.6821-0.38372-1.0488-0.15039zm12 0.65038c-0.1333 0-0.2671 0.0329-0.4004 0.0996l-3.1504 1.5c-0.01 0.0318 0.027 0.073 0 0.0996h0.051c0 0.1 0.066 0.18333 0.1992 0.25 0.045 0.03 0.078 0.0474 0.1 0.0508 0.034 0.0605 0.034 0.13192 0.062 0.19336l2.6406-1.1445c0.5333-0.23333 0.7833-0.51628 0.75-0.84961 0-0.1-0.083-0.16589-0.25-0.19922zm13.162 0.99611-0.062 0.25391c0.1 0 0.1 0.0504 0 0.15039l0.1504 0.34961 0.1035 0.17188c0.3167-0.0129 0.6258-0.0232 1.1406-0.0723 0.033 0 0.2329 0.0659 0.5996 0.19922 0.2333 0.1 0.433 0.0671 0.5997-0.0996l0.1557-0.4492c-0.8333-0.26667-1.3333-0.40039-1.5-0.40039-0.5278-0.0278-0.7697-0.07-1.1875-0.10352zm-38.74 0.83792-0.072 0.0156-0.1504 0.0996-0.1992 0.20117c-0.07 0.07-0.084 0.19542-0.1055 0.31445l3.4043 1.9356c0.2334 0.1 0.4175 0.0651 0.5508-0.10156 0.1667-0.2 0.151-0.36667-0.051-0.5zm-7.3203 0.416c-0.6 0.65911-1.4237 1.5721-1.6016 1.75-0.2 0.2-0.2294 0.39961-0.1 0.59961 0.1333 0.3 0.3484 0.3 0.6484 0 0.3933-0.34703 1.0667-1.011 1.7012-1.6309 0-0.0565-0.019-0.11343 0-0.16992h-0.051c0.033-0.0667 0.018-0.1655-0.049-0.29883l-0.25-0.25c-0.1233-0.0274-0.2073-9e-3 -0.2988 0zm18.799 0.74999c-0.3667 0-0.6167 0.11628-0.75 0.34961-0.033 0.0333-0.018 0.0837 0.049 0.15039 0.067 0.1 0.1171 0.15039 0.1504 0.15039 0.9913 0.23603 2.0757 0.2294 3.1504 0.24805 0.066-0.0498 0.1349-0.0841 0.1992-0.14844 0.1608-0.19291 0.173-0.43476 0.057-0.7207zm26.695 0.35349c-0.079 0.0587-0.1735 0.10816-0.1953 0.19531-0.033-0.0333-0.051-0.0159-0.051 0.0508l-0.051 0.15039-0.049 0.0996 0.057 0.25195 1.0879 0.74805c0.3 0.23333 0.5325 0.2506 0.6992 0.0508 0.1333-0.2 0.05-0.40156-0.25-0.60156-0.6024-0.37294-0.9667-0.67121-1.248-0.94531zm-39.846 0.0469c-0.1 0-0.2337 0.0484-0.4004 0.14844l-0.082 0.084c0.288 0.59768 0.5659 1.1824 1.1816 2.2168 0.1667 0.23333 0.3508 0.29922 0.5508 0.19922 0.2-0.0667 0.2293-0.26628 0.1-0.59961l-0.8809-1.8144c-0.01 5e-3 -0.014 0.0111-0.019 0.0156l-0.1-0.15039zm24.422 0.32997-0.2715 0.16992c-0.1 0.0667-0.1834 0.19844-0.25 0.39844v0.10156l0.016 0.0625c0.8176 0.0495 1.7969 0.0859 3.2344 0.0859 0.4 0 0.6151-0.0988 0.6484-0.29883 0.033-0.26667-0.1159-0.40039-0.4492-0.40039-1.2927-0.0791-2.1364-0.10253-2.9277-0.11914zm-27.322 0.11925-0.3008 0.0996-0.2988 2.2012h0.049v0.64844c0 0.5 0.1008 0.76745 0.3008 0.80078 0.2 0.0333 0.3337-0.18372 0.4004-0.65039l0.4394-2.7578c-0.067-0.12795-0.1777-0.22616-0.3398-0.29102zm36.76 1.1523c-0.265 0.35452-0.308 0.38608-0.7149 0.94727-0.067 0.1-0.1848 0.26667-0.3515 0.5 0.033 0.1 0.134 0.18333 0.3007 0.25 0.2 0.1 0.3841 0.0671 0.5508-0.0996 0.067-0.0667 0.1656-0.20039 0.2989-0.40039l0.58-0.7832c-0.014-0.0554-0.04-0.11057-0.123-0.16602-0.067-0.13333-0.1675-0.20117-0.3008-0.20117-0.07-0.0468-0.1512-0.0593-0.2402-0.0469zm3.3906 0.34766c-0.2-0.0667-0.3841-0.0163-0.5508 0.15039l-0.061 0.0898c0.065 0.35407 0.1425 0.76449 0.2558 1.3594 0.033 0.16667 0.033 0.43411 0 0.80078 0 0.3 0.099 0.53255 0.2989 0.69922l0.4511 0.20117 0.1485-0.40039c0.067-0.56667 0.018-1.3341-0.1485-2.3008-0.028-0.17968-0.02-0.2172-0.043-0.37891-0.1173-0.10664-0.2344-0.19139-0.3516-0.2207zm-13.529 0.42771c-0.277 0.0325-0.4614 0.19085-0.5215 0.52149v0.10156l3 2c0.1667 0.1 0.3178 0.1 0.4512 0 0.1333-0.1 0.1333-0.25117 0-0.45117-0.5039-0.50381-1.5333-1.2517-2.9297-2.1719zm-6.9512 0.33206-0.7695 0.64062c-0.3 0.26667-0.3833 0.54961-0.25 0.84961 0.1333 0.16667 0.3659 0.11628 0.6992-0.15039 0.2132-0.1421 0.5758-0.43423 0.9238-0.71094 0.011-0.0949 0.062-0.16658 0.027-0.28906l-0.051-0.0488c-0.067-0.13333-0.1674-0.21667-0.3008-0.25zm28.682 0.39062c0.1641 0.10943 0.3107 0.0452 0.4648 0.0547l-0.3633 0.043c-0.022-0.0307-0.08-0.0671-0.1015-0.0977zm-23.502 0.94921c-0.2 0-0.3492 0.10078-0.4492 0.30078l-0.016 0.043 0.7148 1.9062c0.033 0.13333 0.1167 0.20117 0.25 0.20117 0.1 0 0.2163-0.0174 0.3496-0.0508 0.1667 0.0333 0.2016-0.05 0.1016-0.25-0.2676-0.9367-0.46-1.4659-0.668-2.0742-0.094-0.0273-0.1805-0.11026-0.2832-0.0762zm-3.3594 0.35746-0.8398 3.043c0.033 0.1 0.033 0.23372 0 0.40039 0.033 0.1 0.1167 0.16589 0.25 0.19922 0.033 0.0333 0.099 0.0333 0.1992 0 0.1 0 0.1504-0.0155 0.1504-0.0488l1.1133-3.3438-0.3125-0.15625zm26.76 9.7422c0.6333 0 1.1159 0.16667 1.4492 0.5 0.3334 0.36667 0.4845 0.86667 0.4512 1.5-0.033 0.66666-0.5663 1-1.5996 1-1.1-0.0667-1.6679-0.59961-1.7012-1.5996 0-0.43333 0.1512-0.78216 0.4512-1.0488 0.2666-0.23333 0.5825-0.35156 0.9492-0.35156zm-28.301 2.5507c0.7-0.0667 1.0508 0.36745 1.0508 1.3008-0.033 0.56667-0.1167 0.98333-0.25 1.25-0.2333 0.4-0.6326 0.59961-1.1992 0.59961-0.7334 0.0333-1.0841-0.40078-1.0508-1.3008 0.1333-0.63333 0.2341-1.0171 0.3008-1.1504 0.2333-0.43333 0.6151-0.66589 1.1484-0.69922z"/>
 <g transform="translate(-1004.2)">
  <path transform="translate(160.15,84.1)" d="m849.1-84.1c-3.3333 0-5 1.6667-5 5v158.2c0 3.3333 1.6667 5 5 5h93.199c3.3333 0 5-1.6667 5-5v-158.2c0-3.3333-1.6667-5-5-5zm8.3008 7.1992h76.6c4.6667 0 7 2.3333 7 7v139.8c0 4.6667-2.3333 7-7 7h-76.6c-4.6667 0-7-2.3333-7-7v-139.8c0-4.6667 2.3333-7 7-7z" fill="#ef1d1e"/>
  <path transform="translate(160.15,84.1)" d="m857.4-76.901c-4.6667 0-7 2.3333-7 7v139.8c0 4.6667 2.3333 7 7 7h76.6c4.6667 0 7-2.3333 7-7v-139.8c0-4.6667-2.3333-7-7-7z" fill="none" stroke="#000" stroke-width="1.2"/>
 </g>
</svg>
