<svg width="103.2" height="168.2" preserveAspectRatio="none" version="1.1" viewBox="0 0 103.2 168.2" xmlns="http://www.w3.org/2000/svg">
 <path d="m13.301 7.1992c-4.6667 0-7 2.3333-7 7v139.8c0 4.6667 2.3333 7 7 7h76.6c4.6667 0 7-2.3333 7-7v-139.8c0-4.6667-2.3333-7-7-7z" fill="#fff"/>
 <path d="m52.014 34.016c-19.335 25.583-24.943 52.393-28.463 82.484l-1.1504 11.6v1.0488c0 0.66666-0.0504 1.1512-0.15039 1.4512-0.13333 0.33333-0.0829 0.64922 0.15039 0.94922h0.0488c0.16667 0.26667 0.45156 0.40039 0.85156 0.40039l25.324-1.3477c0.0883-33.805 6.4104-61.377 27.752-94.07z" fill="#ef1d1e"/>
 <path d="m22.811 26.111c-0.45762-0.0245-0.89442 0.10573-1.3106 0.38867-0.6667 0.4-1 1.183-1 2.3496-0.013 0.54391 0 0.7371 0 1.1543-0.017 0.49182-0.038 0.98536 0 1.4531v0.29297c0.061 0.67108 0.18931 1.2739 0.34961 1.8457 4e-4 1e-3 -3e-4 3e-3 0 4e-3 4e-4 3e-3 0 7e-3 0 0.01 0.1016 0.36029 0.2046 0.71828 0.3457 1.0391 0.2 0.5 0.16739 0.95156-0.0996 1.3516-0.2667 0.43333-0.69883 0.71628-1.2988 0.84961-0.6333 0.1-1.3679 0.38294-2.2012 0.84961-1.2 0.63333-1.8996 0.98411-2.0996 1.0508-0.1571 0.0589-0.47512 0.0637-0.73632 0.0879-0.074-0.01-0.1288-0.0391-0.21289-0.0391h-0.20117l-0.15039-0.0488-0.19922 0.0488c-0.2485 0.056-0.46236 0.1416-0.69726 0.20898-0.1012 0.0198-0.27202 0.0138-0.35352 0.041-0.1975 0.0668-0.36183 0.15643-0.54883 0.23047-0.06 0.0226-0.11502 0.0488-0.17382 0.0723-0.4003 0.16634-0.78056 0.34634-1.1309 0.54688-0.1459 0.0829-0.28223 0.17387-0.41992 0.26367-0.2836 0.18494-0.55233 0.37956-0.79883 0.58984-0.1111 0.0954-0.21612 0.1957-0.32032 0.29688-0.2484 0.2399-0.47839 0.49216-0.68359 0.76172-0.038 0.0491-0.087 0.0885-0.12305 0.13867-0.035 0.0483-0.0461 0.0962-0.0781 0.14453-0.1045 0.15355-0.23087 0.29259-0.32227 0.45508-0.2 0.36667-0.25039 0.75039-0.15039 1.1504 0.1 0.43333 0.33447 0.79961 0.70117 1.0996 0.295 0.2397 0.67201 0.29632 1.0996 0.24023 0.3312-0.0103 0.6754-0.13505 1.0293-0.34961 0.045-0.0229 0.076-0.0159 0.12109-0.041 0.034-0.0181 0.0617-0.0419 0.0957-0.0606 0.037-0.0196 0.078-0.0391 0.15429-0.0391 0.1544-0.0921 0.26381-0.22298 0.41211-0.32031 0.623-0.39198 1.1995-0.83052 1.7129-1.332 0.075-0.0726 0.16178-0.13448 0.23438-0.20899 0.4976-0.51755 0.92255-1.1072 1.3106-1.7344 0.1149-0.17795 0.2732-0.31799 0.3789-0.50391 0.067-0.11552 0.076-0.2271 0.10742-0.33984 0.028-0.0562 0.0658-0.10321 0.0937-0.16016 0.2-0.4 0.5837-0.70039 1.1504-0.90039 0.29999-0.13333 0.78251-0.3155 1.4492-0.54883l2.0996-0.90039c0.2667-0.13333 0.36748-0.0674 0.30078 0.19922-0.033 0.73333-0.33369 2.4174-0.90039 5.0508-0.3 1.4-0.43369 2.2992-0.40039 2.6992 0.067 0.73333-0.1833 1.2837-0.75 1.6504-0.7 0.33333-1.2 0.61628-1.5 0.84961-0.7637 0.53666-1.7516 0.90931-2.8476 1.2031v-2e-3l-0.5-0.10156-0.19922 0.0508c-0.4603 0.0942-0.87975 0.29775-1.3106 0.4707-0.052 6e-3 -0.088 0.0235-0.14062 0.0293-1.1333 0.13333-2.2321 0.90078-3.2988 2.3008-0.8269 1.0774-1.2781 2.0601-1.3516 2.9492-0.074 0.25956-0.0461 0.50716 0.0449 0.74609 0.01 0.0336-2.4e-4 0.0702 0.01 0.10352 0.1333 0.5 0.40078 0.78294 0.80078 0.84961 0.2718 0.0453 0.56459-0.0245 0.86719-0.14844 0.07-0.0222 0.17712-0.0176 0.23242-0.0508 1.002-0.58944 1.8822-1.2549 2.6758-1.9746 0.091-0.0788 0.29445-0.20116 0.37305-0.27539 0.7861-0.70479 1.3498-1.4517 1.7832-2.2227 0.11909-0.17786 0.25708-0.34386 0.36718-0.52734 0.021-0.0416 0.0211-0.0834 0.0391-0.125 0.3506-0.70872 0.97082-1.3222 1.9121-1.8242 1.2666-0.66666 2.0167-1.1182 2.25-1.3516 0.2667-0.23333 0.31514-0.1655 0.14844 0.20117l-0.64844 6.5c0 0.0333-0.05 1.0159-0.15039 2.9492-0.067 0.53333-0.33408 0.9345-0.80078 1.2012l-1.1504 0.64844c-0.5 0.26667-0.86631 0.48372-1.0996 0.65039-0.2896 0.21719-0.68601 0.35237-1.1328 0.44727-0.1052-0.0315-0.21911-0.0977-0.31641-0.0977h-0.34961l-1.303 0.30064c-0.028 8e-3 -0.0531 0.0231-0.0801 0.0312-0.025 2e-3 -0.2123 0.0195-0.2207 0.0195-0.4702 0.10449-1.086 0.4744-1.7812 0.98828-0.044 0.0316-0.088 0.0611-0.13086 0.0937-0.1509 0.11482-0.2764 0.18308-0.4375 0.31641-1.0333 0.83333-1.5837 1.5174-1.6504 2.0508-0.1333 0.66667 0.018 1.1337 0.45117 1.4004 0.053 0.0354 0.14052 0.0251 0.19922 0.0527 0.1093 0.057 0.20851 0.12479 0.34961 0.14649h0.19922c0.42 0.04 0.8999 8.2e-4 1.5-0.19922 0.8667-0.3 1.6321-0.8 2.2988-1.5 0.1194-0.12796 0.29157-0.41547 0.42187-0.57617 0.159-0.19289 0.32802-0.35639 0.47852-0.57422l0.20117-0.19922c0.3129-0.31293 0.49127-0.63692 0.60937-0.96484 0.2743-0.37849 0.72823-0.75823 1.3906-1.1367 0.8667-0.46667 1.4151-0.8 1.6484-1 0.3333-0.26667 0.53486-0.38294 0.60156-0.34961 0.1667 0.0667 0.21514 0.18294 0.14844 0.34961l-0.14844 0.35156c-0.067 4.3-0.15 7.083-0.25 8.3496 0 0.26667-0.20156 0.51667-0.60156 0.75-0.5333 0.26667-0.84922 0.46628-0.94922 0.59961-0.5667 0.63333-1.4175 1.1159-2.5508 1.4492-0.013 4e-3 -9e-3 2e-3 -0.0215 6e-3l-0.47851 0.0449-0.29883 0.0996-0.20117 0.0996h-0.0996c-0.4112 0.12924-0.77378 0.29661-1.1426 0.45898-0.1107 0.0395-0.56482 0.1701-0.60742 0.19141-1.7333 0.8-2.9155 2.05-3.5488 3.75-0.2 0.46667-0.10117 0.90078 0.29883 1.3008 0.243 0.26503 0.63721 0.34799 1.0996 0.34961 0.2355 8.3e-4 0.4576 0.0167 0.75-0.0508 2.5-0.76667 4.1841-2.1988 5.0508-4.2988 0.2667-0.6 0.74922-1.1504 1.4492-1.6504 0.96669-0.7 1.5171-1.1167 1.6504-1.25 0.1667-0.2 0.25-0.14961 0.25 0.15039v2.6504h0.20117c-0.033 1.4667-0.0527 2.5655-0.0527 3.2988 0 1.3333 0.0346 2.4341 0.10157 3.3008 0.1 0.7-0.049 1.2988-0.44922 1.7988-0.033 0.0333-0.46748 0.45-1.3008 1.25-0.3411 0.31977-0.83143 0.54703-1.3906 0.73047-0.1117-0.0423-0.22657-0.0801-0.35937-0.0801l-0.44922 0.0508h-0.0508c-0.3 0-0.49961 0.0155-0.59961 0.0488h-0.0527c-1.5 0.43333-2.6821 0.95078-3.5488 1.5508-0.74329 0.51619-1.2959 1.1544-1.7578 1.8496-0.6072 0.75241-0.97158 1.4904-0.89258 2.2012 0.067 0.46667 0.33409 0.88333 0.80079 1.25 0.46669 0.36667 0.9163 0.48294 1.3496 0.34961 0.1437-0.0351 0.261-0.11057 0.4004-0.15234 0.54969-0.11337 1.0756-0.32679 1.5801-0.63282 1.315-0.7384 2.3551-1.9054 3.168-3.4238 7e-4 -1e-3 7e-4 -3e-3 0-4e-3 0.4-0.59167 0.68291-1.0883 0.84961-1.4883 0.035-0.0984 0.0347-0.18097 0.0547-0.27344 0.2304-0.38769 0.55257-0.73922 1.0469-1.0254 0.9333-0.63333 1.4333-0.96667 1.5-1 0.033-0.0333 0.084 0.11589 0.15039 0.44922 0.067 0.3 0.0996 0.55 0.0996 0.75-0.067 0.7-7.8e-4 1.7504 0.19922 3.1504-0.033 1.8333 0.05 3.1996 0.25 4.0996 0.1333 0.63333-0.016 1.1508-0.44922 1.5508-0.6 0.4-1.0167 0.73333-1.25 1l-0.15039 0.15039c-0.3595 0.53923-1.0626 0.91206-1.9219 1.209-0.1132-0.0304-0.19613-0.10938-0.32813-0.10938-0.3333 0-0.64922 0.11628-0.94922 0.34961-0.033 0.0333-0.084 0.0508-0.15039 0.0508-0.3288 0.10962-0.60424 0.24982-0.90234 0.37695-0.773 0.25336-1.4587 0.64386-2.0664 1.1602-0.019 0.0152-0.0357 0.0315-0.0547 0.0469-0.2624 0.22812-0.5151 0.47207-0.7461 0.75-0.1981 0.22431-0.36874 0.46407-0.52734 0.71093-0.048 0.0734-0.10645 0.12899-0.15234 0.20508-0.034 0.0616-0.0413 0.10977-0.0723 0.16992-0.07 0.12982-0.16862 0.24339-0.22852 0.37891-0.039 0.0974-0.0237 0.17731-0.0527 0.27148-0.4779 1.2741-0.22308 2.1828 0.85352 2.6797 0.28309 0.12132 0.70576 0.0943 1.1973-6e-3 0.5943-0.0446 1.2032-0.28209 1.8223-0.65039 0.5713-0.27695 1.051-0.56888 1.3301-0.89453 0.2338-0.27174 0.428-0.5519 0.6211-0.83203 0.3306-0.43325 0.58551-0.89882 0.79101-1.3848 0-7e-3 0.01-0.014 0.0117-0.0215 8e-4 -2e-3 7e-4 -4e-3 0-6e-3 0.065-0.15583 0.17241-0.29385 0.22461-0.45508v-0.05032l0.0996-0.25v0.0508c0.039-0.13976 0.0102-0.24052 0.0352-0.37305 0.1104-0.43459 0.18774-0.87639 0.21484-1.3281 0-0.1 0.18213-0.23372 0.54883-0.40039l2.4004-2.1484 0.20117 1.5c0.4333 3.0667 0.66592 4.9155 0.69922 5.5488 0.033 0.46667 0.26592 2.2012 0.69922 5.2012 0.067 0.5-0.1 0.91667-0.5 1.25-0.5333 0.33333-0.89961 0.61628-1.0996 0.84961-0.358 0.47736-0.96275 0.79944-1.748 1.0098-0.019-6.7e-4 -0.0318-0.01-0.0508-0.01-0.3 0-0.6333 0.0504-1 0.15039-0.4615 0.15823-0.86216 0.37747-1.2559 0.60352-0.025 0.0134-0.12263 0.0318-0.14453 0.0449-0.027 0.0193-0.0453 0.0393-0.0723 0.0586-0.2751 0.17126-0.50415 0.38925-0.74415 0.59571-0.16009 0.13503-0.3293 0.27047-0.4707 0.40625-0.049 0.0522-0.11656 0.0866-0.16406 0.14062-0.029 0.0336-0.0316 0.0716-0.0606 0.10547-0.8136 0.85072-1.3007 1.714-1.3887 2.5938-0.1333 0.93333 0.3667 1.6504 1.5 2.1504 0.2364 0.11196 0.49156 0.12442 0.75586 0.0879 0.017 1e-3 0.0279 0.0109 0.0449 0.0117h0.0488c0.04 0 0.071-0.0338 0.10937-0.0391 0.039-0.0107 0.08-0.0292 0.11915-0.043 0.109-0.0324 0.22466-0.0391 0.32226-0.11719 0.1286-0.0965 0.21699-0.20578 0.33789-0.30469 0.156-0.10943 0.29724-0.14433 0.46094-0.29492 0.1932-0.17286 0.3586-0.39653 0.5332-0.60351 0.044-0.0475 0.087-0.0946 0.12891-0.14258 0.1285-0.16241 0.25124-0.33377 0.36914-0.51563 0.1951-0.26172 0.41841-0.51382 0.57031-0.78906l1.0488-2.5508v0.0511c0.046-0.14906 0.0457-0.28465 0.0527-0.42188 0.193-0.40917 0.52068-0.81924 1.0469-1.2285 0.3-0.3 0.78447-0.71667 1.4512-1.25 0.1333-0.1 0.19922-0.0322 0.19922 0.20117 0.2 1.7333 0.8667 4.3167 2 7.75 0.2667 0.83333 0.38291 1.7655 0.34961 2.7988-0.033 0.23333-0.13213 1.1829-0.29883 2.8496-0.1 1-0.1833 2.5678-0.25 4.7012l-0.20117 5.75c0 0.5 0.21709 0.73255 0.65039 0.69922 3.1333-0.26667 4.9337-0.38294 5.4004-0.34961 0.8333 0.0333 1.9826 3.2e-4 3.4492-0.0996 1.6667-0.13333 2.8333-0.20117 3.5-0.20117 1.2667-0.0333 2.9334-0.11667 5-0.25 2.5667-0.16667 4.2333-0.2655 5-0.29883l3.25-0.0508c0.1333 0 0.2167-0.0988 0.25-0.29883 0.033-0.46666 0.033-1.4841 0-3.0508 0-1.2667 0.05-2.2841 0.15039-3.0508 0.2-1.4333 0.33369-3.633 0.40039-6.5996l0.84961-8.7988c0.2667-2.8 0.5167-4.8833 0.75-6.25 0.2333-1.4 0.65-3.4678 1.25-6.2012 0.2667-1.3 0.65039-3.2671 1.1504-5.9004 0.2667-1.2667 0.71631-3.1484 1.3496-5.6484 0.3333-1.3333 0.8333-3.3508 1.5-6.0508 1.1-3.8 1.7163-5.8659 1.8496-6.1992 1.1667-3.0333 2.1512-5.5004 2.9512-7.4004 1.3-2.9667 2.7496-5.9337 4.3496-8.9004l11-19.199c0.2667-0.46666 0.2667-0.85039 0-1.1504-0.2-0.26667-0.50039-0.40039-0.90039-0.40039-1.8667-0.2-3.2833-0.31628-4.25-0.34961-0.9667-0.0333-2.1663-0.14961-3.5996-0.34961-1.6333-0.23333-2.8504-0.4-3.6504-0.5l-11.1-1.25c-0.5667-0.1-1.0667 0.0318-1.5 0.39844-0.2 0.13333-0.55078 0.51706-1.0508 1.1504-0.6333 0.76667-1.4317 1.8674-2.3984 3.3008l-1.7948 2.5996c-0.7 1.0333-1.2504 1.9171-1.6504 2.6504-0.3667 0.73333-1.0663 1.9329-2.0996 3.5996-0.9 1.5333-1.5841 2.7504-2.0508 3.6504-0.9333 1.7667-1.8829 3.6988-2.8496 5.7988-1.3 3.2333-2.3155 5.65-3.0488 7.25-0.2 0.46666-0.81826 2.3174-1.8516 5.5508l-1.6992 5.4492c-0.6 2.1-1.1 4.0341-1.5 5.8008-0.1333 0.53333-0.3 0.86667-0.5 1-0.2333 0.2-0.63252 0.23301-1.1992 0.0996-0.4216-0.0862-0.83074-0.0891-1.2441-0.12305-0.015-0.0152-0.0436-9e-3 -0.0566-0.0273-0.1333-0.0667-0.26709-0.0996-0.40039-0.0996l-0.29492 0.0527c-0.7654-4e-3 -1.5176 0.0685-2.2539 0.24805-0.3 0.0667-0.6333 0.0163-1-0.15039-0.3667-0.23333-0.65156-0.38255-0.85156-0.44922l-2.5-0.90039-0.0996-0.30078c-0.1333-4-0.19922-7.0155-0.19922-9.0488 0-0.16667-0.0346-0.43411-0.10156-0.80078 0-0.36667 0.11631-0.58372 0.34961-0.65039 0.1-0.0333 0.29961 0.0674 0.59961 0.30078 0.3667 0.3 0.6167 0.48216 0.75 0.54883 0.4162 0.1224 0.83194 0.42626 1.248 0.81836 0.058 0.43433 0.36488 0.82983 0.95118 1.1816 0.033 0.0333 0.068 0.0508 0.10156 0.0508l0.29883 0.25v0.0508c0.1596 0.15959 0.34608 0.28086 0.52148 0.41797 0 4e-3 0.0253 0.0279 0.0293 0.0312 0.02 0.0159 0.0386 0.0234 0.0586 0.0391 0.1773 0.1327 0.35778 0.26066 0.55078 0.3711 1.5139 1.0252 2.9802 1.318 4.3906 0.78906 0.8333-0.26667 1.25-0.91589 1.25-1.9492 0-0.48303-0.20657-0.89798-0.57617-1.2578-0.014-0.0135-0.0309-0.0258-0.0449-0.0391-0.2637-0.24423-0.59069-0.46628-1.0293-0.65234-1.7071-0.70909-3.3824-0.94744-5.0274-0.74609l-0.12304-4e-3c-0.144 0-0.22821 0.0664-0.34961 0.0918-0.2835 0.05-0.56791 0.081-0.84961 0.1582-0.1667 0.0667-0.55039-0.11745-1.1504-0.55078-0.2667-0.16667-0.6833-0.36628-1.25-0.59961-0.4333-0.26667-0.61748-0.70078-0.55078-1.3008 0.1-0.73333 0.13486-1.9659 0.10156-3.6992-0.033-1.6 0.032-2.8345 0.19922-3.7012l0.0508-0.0488c-0.1667-0.8-0.21709-1.2496-0.15039-1.3496 0.1-0.1 0.24922-0.1 0.44922 0l0.59961 0.29883c0.3 0.1 0.7167 0.26667 1.25 0.5 0.5704 0.14879 1.0952 0.53195 1.5918 1.0312-0.03 0.26166 0.0161 0.51901 0.20899 0.76953v0.0488l0.55078 0.45117 0.10156 0.0488c0.067 0.0333 0.13252 0.0837 0.19922 0.15039 0.7821 1.1976 1.7294 2.0478 2.834 2.5644 0.024 0.014 0.0483 0.0294 0.0723 0.043 0.5745 0.32556 1.1062 0.51047 1.5938 0.54297 1.1667 0.1 2.1337-0.38255 2.9004-1.4492 0.6667-1.0333 0.43408-2.0178-0.69922-2.9512-0.679-0.5658-1.7398-0.92463-3.043-1.1543-0.014-3e-3 -0.029-7e-3 -0.043-0.01-0.2183-0.0376-0.37953-0.10649-0.61523-0.13477-0.8932-0.12464-1.6014-0.15448-2.2227-0.13672l-0.27734-0.0137c-0.1343 0-0.22109 0.0469-0.33789 0.0645-0.1268 0.0168-0.30121 0.01-0.41211 0.0352-0.5 0.1-1.0659-0.0492-1.6992-0.44922-0.8333-0.46666-1.3837-0.73411-1.6504-0.80078-0.8-0.2-1.2341-0.59922-1.3008-1.1992-0.033-0.36667 0.05-0.95 0.25-1.75 0.1-0.96666 0.20078-2.4008 0.30078-4.3008l0.15039-1.4492c0-0.26667 0.13369-0.31706 0.40039-0.15039 1.2333 0.6 3.1151 1.4004 5.6484 2.4004 0.042 0.0167 0.074 0.11688 0.11328 0.15039-0.011 0.34318 0.095 0.667 0.4375 0.94922l0.0996 0.0996c0.062 0.0943 0.13687 0.16037 0.20117 0.25 0.275 0.3836 0.56545 0.73286 0.87695 1.0312 0.108 0.10388 0.22985 0.18346 0.34375 0.27734 0.2491 0.20625 0.50079 0.40653 0.77149 0.5625 0.091 0.0516 0.19146 0.0863 0.28515 0.13282 0.3109 0.15544 0.629 0.29426 0.9668 0.38671 0.198 0.0566 0.4159 0.0811 0.625 0.11915 0.1624 0.0252 0.31247 0.0778 0.48047 0.0898l0.0606-8e-3c0.1332 0.0135 0.25147 0.052 0.38867 0.0586 0.6667 0.0333 1.2829-0.18372 1.8496-0.65039 0.5667-0.5 0.86709-1.0659 0.90039-1.6992 0.014-0.1488-0.0182-0.2777-0.0332-0.41406 0-0.034 2.3e-4 -0.0683-0.01-0.10156-0.1289-0.75966-0.71244-1.33-1.8066-1.6856-0.196-0.0663-0.38908-0.10141-0.58398-0.1582-0.2912-0.0959-0.58362-0.18608-0.88282-0.24219-1.0378-0.22741-2.0582-0.31355-3.0644-0.26563l-0.26953-0.0332c-0.3219 0-0.6013 0.0549-0.8457 0.1582-0.2176 0.0329-0.4382 0.0457-0.6543 0.0918-0.3333 0.0667-0.69961-1e-3 -1.0996-0.20117-0.4-0.26667-0.71592-0.43333-0.94922-0.5-0.7-0.26667-1.95-0.83255-3.75-1.6992-0.2667-0.1-0.36748-0.36745-0.30078-0.80078l0.80078-5.5c0.2333-1.5 0.36709-2.4167 0.40039-2.75 0-0.0667 0.14922-0.43294 0.44922-1.0996l1.1504 0.70117c1.9333 1.0667 3.3655 1.9 4.2988 2.5 0.1025 0.0797 0.20033 0.21936 0.29883 0.34961-0.09 0.21652-0.1066 0.43387 0 0.65039 1.1333 2.2 2.9667 3.4829 5.5 3.8496l0.40039 0.0488c0.212 0 0.38939-0.091 0.58789-0.12695 0.028-4e-3 0.054-0.0135 0.082-0.0176 0.2569-0.0535 0.52587-0.0726 0.75976-0.1875 0.023-8e-3 0.0473-9e-3 0.0703-0.0176 1.1-0.43333 1.6659-1.0671 1.6992-1.9004 0.023-0.54169-0.32159-1.0207-0.83399-1.4707-0.1886-0.2016-0.41805-0.37675-0.68555-0.52735-0.056-0.0317-0.072-0.0704-0.13085-0.10156-0.04-0.0192-0.089-0.0282-0.12891-0.0469-0.1321-0.0603-0.28354-0.1082-0.43164-0.1582-0.8375-0.33396-1.7495-0.58588-2.7891-0.69531-0.4667-0.0333-1.6333-0.0663-3.5-0.0996-0.3667 0-0.75039-0.16667-1.1504-0.5-0.6-0.5-0.94883-0.7655-1.0488-0.79883-0.3-0.16667-1.4996-0.88372-3.5996-2.1504-0.2333-0.13333-0.3167-0.49961-0.25-1.0996 0.067-0.63333 0.21592-1.0345 0.44922-1.2012 0.071-0.0565 0.1187-0.12221 0.1875-0.17969 0.054-0.0357 0.10791-0.0239 0.16211-0.0703l0.0996-0.0996c0-0.0333 0.0168-0.0508 0.0508-0.0508 0.2667-0.2 0.46631-0.39961 0.59961-0.59961v-0.0488c0.01-8e-3 0.01-0.0159 0.0137-0.0234 1.147-1.2555 1.7837-2.7136 1.9473-4.3594 0.028-0.18961 0.0748-0.37672 0.0898-0.56836v-0.0488c0.01-0.0379-0.0108-0.0755-0.01-0.11328 3e-4 -0.0305 0.01-0.0573 0.01-0.0879 0.033-0.96667-0.43369-1.7671-1.4004-2.4004-0.49941-0.33293-0.97775-0.51177-1.4356-0.53711zm30.34 8.6876c0.3 0 0.64883 0.0329 1.0488 0.0996 2.5 0.36667 5.4671 0.7 8.9004 1 0.9667 0.0667 2.4337 0.21784 4.4004 0.45117l7.25 0.54883h0.5c0.1667 0.0333 0.18378 0.1845 0.0508 0.45117l-9.1504 15.25c-2.1 3.8333-3.4663 6.4167-4.0996 7.75-1.1333 2.5667-2.0016 4.4833-2.6016 5.75-0.3333 0.76667-0.73252 1.7667-1.1992 3-0.6333 1.6667-1.0171 2.6822-1.1504 3.0488-0.6 1.4333-1.2667 3.6833-2 6.75-0.8 2.9-1.3833 5.0841-1.75 6.5508-0.1 0.5-0.54961 2.6163-1.3496 6.3496l-2.6992 15.9c-0.4 3.5-0.61709 5.75-0.65039 6.75-0.1667 3.0333-0.25 4.7329-0.25 5.0996 0 0.66667-0.068 1.6008-0.20117 2.8008-0.1333 1.3333-0.19922 2.2829-0.19922 2.8496-0.1667 1.8667-0.19931 3.2659-0.0996 4.1992 0.067 0.13333 0.0996 0.25156 0.0996 0.35156 0.033 0.2-0.083 0.29883-0.34961 0.29883-1.1667 0.13333-2.0504 0.20117-2.6504 0.20117l-5.9492 0.19922c-2.4 0.13333-4.2004 0.19922-5.4004 0.19922-4.0333 0.13333-7.0508 0.20117-9.0508 0.20117-0.5333 0.13333-0.95 0.19922-1.25 0.19922-0.2 0-0.2833-0.0659-0.25-0.19922 0.1-0.33333 0.16787-0.76745 0.20117-1.3008v-1.3496l1-9.8496c0.1-1.1 0.24922-2.7667 0.44922-5 0.3667-2.4 0.68252-5.0996 0.94922-8.0996 0.067-1.1667 0.2333-2.8333 0.5-5 0.2333-1.5333 0.53369-3.1671 0.90039-4.9004 0.5-2.7333 0.90117-4.7178 1.2012-5.9512l2.0996-7.6992c0.067-0.23333 0.28369-1.0008 0.65039-2.3008 0.3-0.93333 0.49961-1.7163 0.59961-2.3496 0.4-1.7 0.93291-3.6167 1.5996-5.75 0.5333-1.9333 1.1825-3.7337 1.9492-5.4004 0.3667-0.76667 0.83369-1.9663 1.4004-3.5996 0.5333-1.6 0.98291-2.7822 1.3496-3.5488 0.5333-1.1333 1.3183-2.8174 2.3516-5.0508 0.9-1.9 1.7663-3.5337 2.5996-4.9004 0.2667-0.43333 0.91592-1.5671 1.9492-3.4004 0.8-1.4 1.4841-2.5163 2.0508-3.3496l2.0996-2.9004c0.8333-1.1333 1.4825-2.1159 1.9492-2.9492 0.4-0.7 0.88447-1.1341 1.4512-1.3008 0.2-0.0667 0.45-0.0996 0.75-0.0996zm21.875 28.982c-0.275 0.0208-0.5667 0.0763-0.875 0.16797-1.0236 0.29245-1.5717 0.95226-1.6973 1.9375-8.9e-4 4e-3 0 7e-3 0 0.0117 0 0.23333-0.0326 0.4-0.0996 0.5v0.35156c0.054 0.21695 0.11306 0.34996 0.16796 0.55469 0.1126 0.89148 0.32083 1.7999 0.73243 2.7441 0.1937 0.43037 0.75506 1.376 1.2266 2.1953 0.035 0.0794 0.0742 0.15879 0.0742 0.25586 0.1356 0.33902 0.30214 0.59039 0.49804 0.76563 0.05 0.0835 0.05 0.0974 0.10157 0.18359 0.1 0.16667 0.11552 0.41667 0.0488 0.75-0.1 0.4-0.1326 0.65-0.0996 0.75 0.2 0.83333 3.9e-4 1.4167-0.59961 1.75-0.7667 0.3-1.3171 0.55-1.6504 0.75-1.1 0.66667-1.9837 1.0659-2.6504 1.1992-0.069 0.0173-0.20255-0.0178-0.28515-0.0117-0.047-0.0178-0.061-0.0762-0.11328-0.0879-0.6-0.13333-1.2008-0.19922-1.8008-0.19922-1.2119 0-2.2916 0.2959-3.2617 0.83984-0.042 0.0235-0.086 0.0398-0.12696 0.0645-0.3218 0.1902-0.62727 0.4166-0.92187 0.66797-0.013 0.0107-0.0271 0.0165-0.0391 0.0273-0.012 9e-3 -0.0134 0.0144-0.0254 0.0234-0.073 0.0635-0.15361 0.10854-0.22461 0.17578-0.029 0.0287-0.0433 0.0555-0.0703 0.084-0.1943 0.16333-0.42549 0.34225-0.52929 0.4668-0.3 0.3-0.4667 0.61589-0.5 0.94922-0.2 1 0.098 1.6841 0.89843 2.0508 0.6667 0.3 1.4516 0.28269 2.3516-0.0508 1.1-0.4 1.85-0.71589 2.25-0.94922 0.7179-0.38885 1.2184-0.87002 1.5605-1.4199 0.4104-0.42028 0.7841-0.87127 1.0879-1.3809v-0.0488c0-6e-3 -2.3e-4 -0.012 0.01-0.0176 0.3957-0.35762 0.87331-0.67211 1.4453-0.93359l2.8496-1.3496c0.2667-0.16667 0.36748-0.11628 0.30078 0.15039l-0.20117 4.3496-0.15039 0.90039c-0.033 0.4-0.033 0.71589 0 0.94922 0.1333 0.66666 0.017 1.1841-0.34961 1.5508-0.2 0.23333-0.64961 0.50078-1.3496 0.80078l-2.75 1.3984c-0.1588 0.0953-0.31766 0.0864-0.47656 0-0.2293-0.17685-0.49172-0.29883-0.82422-0.29883l-0.34961 0.0488h-0.24999l-0.5 0.10156c-0.021 5e-3 -0.0239 0.0107-0.0449 0.0156-1.4885 0.17904-2.8738 0.70523-4.1543 1.584-1.1 0.73333-1.6833 1.5163-1.75 2.3496-0.013 0.18032 0.0465 0.30203 0.0605 0.46094 0 0.14448 0.01 0.2871 0.0547 0.41992 0.1164 0.42941 0.31329 0.79324 0.68359 1.0195 0.3565 0.23769 0.79143 0.3025 1.2656 0.28125 0.029 1e-3 0.0559 0.0176 0.0859 0.0176 0.2609 0 0.48303-0.0746 0.70313-0.15625 0.087-0.0253 0.15609-0.0108 0.24609-0.043 1.9907-0.67291 3.4433-1.808 4.4199-3.3535l0.63086-0.89648-0.0508 0.0508c0.039-0.0682 0.0374-0.13049 0.0664-0.19726 0.2535-0.4215 0.6609-0.76684 1.2832-1.0039 0.9333-0.36667 1.4837-0.61667 1.6504-0.75 0.067-0.1 0.25078-0.16589 0.55078-0.19922 0.7333-0.5 1.0317-0.30039 0.89844 0.59961-0.4 4.0667-0.66553 6.5163-0.79883 7.3496-0.033 0.26667-0.21748 0.50117-0.55078 0.70117-0.4333 0.16667-0.73369 0.31589-0.90039 0.44922-0.2 0.16667-0.58174 0.35078-1.1484 0.55078-0.5667 0.16667-0.95039 0.34883-1.1504 0.54883-0.3667 0.36667-0.88408 0.55078-1.5508 0.55078-0.2667-0.2-0.54961-0.30078-0.84961-0.30078-0.2333 0-0.61709 0.11628-1.1504 0.34961l-0.25 0.10156c-0.3969 0.16759-0.67436 0.32184-1.0059 0.48242-0.1136 0.051-0.22128 0.10481-0.33008 0.15821-0.4287 0.2188-0.78203 0.42933-1.0859 0.63476-0.1267 0.0863-0.2573 0.17069-0.375 0.26172-0.087 0.0691-0.23104 0.14543-0.30274 0.21289-0.078 0.078-0.11695 0.16825-0.18945 0.24805-0.5509 0.52444-1.018 1.0938-1.3106 1.752-0.4333 1.0667-0.31709 1.8651 0.34961 2.3984 0.4333 0.33333 0.95078 0.45156 1.5508 0.35156 0.2667-0.0333 0.7667-0.2 1.5-0.5 1-0.4 1.8663-1.0667 2.5996-2 0.033-0.0442 0.082-0.15189 0.11524-0.19922 0.3583-0.46462 0.67844-0.97236 0.93554-1.5508l0.0488-0.14844v-2e-3c0.1927-0.35208 0.33948-0.52861 0.55078-0.95117 0.2-0.43333 0.59922-0.78216 1.1992-1.0488 0.3667-0.13333 0.89961-0.33294 1.5996-0.59961l0.55078-0.25 0.75-0.45117v1.4512c-0.2667 1.3-0.46631 2.2826-0.59961 2.9492-0.6667 3.5-1.0833 5.6008-1.25 6.3008 0 0.1-0.38369 0.33255-1.1504 0.69922l-2.5508 1.4492c-0.132 0.0825-0.26263 0.12771-0.39453 0.13672-0.2068-0.23251-0.47427-0.38672-0.85547-0.38672h-0.1484l-0.20117-0.0488-0.69922 0.15039c-0.03 8e-3 -0.0364 0.0159-0.0664 0.0234-0.097 0.0152-0.18626 6e-4 -0.28516 0.0254-0.2667 0.0333-0.85 0.23294-1.75 0.59961-0.1993 0.0712-0.33318 0.1895-0.51758 0.27148-0.053 0.0269-0.18392 0.0531-0.23242 0.0801-0.095 0.0488-0.1597 0.11641-0.25 0.16797-0.8711 0.46918-1.6174 1.0307-2.1016 1.7812-0.5 0.76667-0.56592 1.4992-0.19922 2.1992 0.6333 1.1667 1.4667 1.5174 2.5 1.0508 0.1491-0.0639 0.28068-0.16095 0.42578-0.23242 0.086-0.0381 0.13261-0.0224 0.22461-0.0684h-0.0508c0.034-0.019 0.069-0.0622 0.10351-0.082 1.7711-0.94972 3.2489-2.4477 4.3965-4.5664 0.1333-0.26667 0.45117-0.50117 0.95117-0.70117 0.3-0.13333 0.73213-0.3155 1.2988-0.54883l1.2012-0.60156c0.1 0.6 0.05 1.3016-0.15039 2.1016-0.2667 0.86667-0.45078 1.5333-0.55078 2-0.6333 3-1.5171 6.0659-2.6504 9.1992-0.4 1.5667-0.74883 2.7159-1.0488 3.4492l-0.25 0.45117c-0.1663 0.28832-0.24231 0.65433-0.38281 0.96484-0.145 0.1171-0.25206 0.27809-0.31836 0.48438-0.043 0.1667-0.0344 0.32834-0.0684 0.49414-0.1134 0.33017-0.29091 0.60516-0.37891 0.95703-0.3 1.5-0.017 3.0484 0.84961 4.6484 0.3 0.46666 0.73408 1.2167 1.3008 2.25 0.3598 0.50796 0.77383 0.72418 1.1738 1.0176 0.2438 0.27649 0.49556 0.6157 0.72656 0.7832l0.33985 0.12891c0.4422 0.26195 0.88595 0.52202 1.1602 0.9707 0.067 0.13333 0.33213 0.71667 0.79883 1.75l0.40039 0.80078c0.067 0.13333-0.11748 0.38333-0.55078 0.75l-5.2989 5.3496-0.65039 0.80078-0.10156-0.20117c-0.2-0.6-0.38408-1.0322-0.55078-1.2988-0.222-0.44398-0.1476-0.99935 0-1.582 0.1301-0.11758 0.2147-0.27203 0.25-0.46875 0.045-0.26046 0.0286-0.49266 0.0586-0.74609 0.095-0.27882 0.29102-0.80474 0.29102-0.85352 0.034-0.38983-0.18041-0.89895-0.2207-1.3242-0.051-0.67832-0.14674-1.3385-0.33204-1.957-0.065-0.20506-0.0167-0.35674-0.0957-0.56836-0.06-0.15177-0.25317-0.25941-0.32226-0.4082-0.4301-0.96991-0.9804-1.8874-1.7793-2.6934-0.1186-0.11873-0.2019-0.18462-0.25-0.19922-0.075-0.0429-0.14132-0.0933-0.19922-0.15039l-0.0508-0.0488c-0.061-0.0456-0.14951-0.0512-0.22461-0.0762-0.247-0.22312-0.29882-0.51101-0.57422-0.72461-0.3333-0.26667-0.75-0.29968-1.25-0.0996-0.1536 0.0614-0.16134 0.20763-0.27734 0.29102-0.01 4e-3 -0.0174 4e-3 -0.0234 8e-3 -0.018 0.0127-0.024 0.0463-0.041 0.0605-0.2164 0.17887-0.49649 0.32078-0.55859 0.58984-0.4 1.7-0.18291 3.4829 0.65039 5.3496 0.2157 0.49443 0.5189 0.87176 0.7832 1.3008 0.2576 0.48167 0.48481 0.96011 0.81641 1.4492h0.0527c0.1841 0.21346 0.3827 0.32389 0.5918 0.36719 0.377 0.35683 0.7224 0.75587 1.1582 1.0332 0.2667 0.16667 0.44883 0.5 0.54883 1 0.1667 0.6 0.30039 0.98372 0.40039 1.1504 0.1667 0.23333 0.28291 0.45039 0.34961 0.65039 0.2 0.56667 0.033 1.0822-0.5 1.5488-0.6667 0.43333-1.1337 0.76667-1.4004 1-3.1 2.7667-5.3984 4.85-6.8984 6.25-1.1333 1-1.8175 1.8508-2.0508 2.5508-0.1667 0.4-0.13409 0.66745 0.0996 0.80078 0.1667 0.1 0.3333-0.0337 0.5-0.40039 0.3-0.53333 0.81748-1.1167 1.5508-1.75 0.9667-0.9 1.5325-1.4329 1.6992-1.5996 0.6-0.6 1.5671-1.4508 2.9004-2.5508 0.4667-0.5 1.0829-0.55039 1.8496-0.15039 0.8333 0.36667 1.3333 0.55078 1.5 0.55078 0.3188-0.0168 0.41991 0.26744 0.62891 0.40234 0 0.25216 0.063 0.49069 0.27148 0.69727 0.259 0.22959 0.52316 0.40376 0.78516 0.60352 0.062 0.10991 0.17074 0.41418 0.21484 0.44726 0.4403 0.32667 1.0634 0.43978 1.5762 0.68164 0.2946 0.14551 0.59058 0.27519 0.88868 0.38477 0.4336 0.15197 0.75617 0.43311 1.2344 0.5332 0.4148 0.0976 0.92437-0.01 1.3848-0.0117 0.039 7.5e-4 0.076 0.0115 0.11523 0.0117 0.065-1.4e-4 0.13011-0.014 0.19531-0.0156 0.5616-0.0286 1.1293-0.0684 1.7559-0.23829 0.7635-0.17936 1.5215-0.46253 2.2754-0.85156 0.1846-0.0873 0.33434-0.0982 0.52344-0.19531 0.095-0.0438 0.058-0.11788 0.14258-0.16406 0.053-0.0316 0.1056-0.0533 0.1582-0.0859h0.0508c0.2413-0.15347 0.35905-0.36948 0.40625-0.62305 0.1514-0.21574 0.54297-0.37631 0.54297-0.62695 0-0.0753-0.18482-0.13874-0.19922-0.21289 0-0.0178 0.01-0.0371 0-0.0371 0.1229-0.45911-0.028-0.79245-0.45117-1-0.2665-0.15039-0.54951-0.28412-0.84961-0.40039-1.2761-0.57187-2.5866-0.8526-3.9141-0.97852-0.5008-0.0529-1.0006-0.11643-1.5078-0.0937-1.1364 0.0311-2.2777 0.19108-3.4277 0.52344-0.21 0.0419-0.36025 0.1664-0.47265 0.3418-0.1621 0.0661-0.31572 0.034-0.47852 0.10742-0.4333 0.2-0.96631 0.18429-1.5996-0.0488-0.033 0-0.56631-0.2345-1.5996-0.70117l-0.30078-0.15039 4.5508-4.1484c0.1667-0.16667 0.5-0.18397 1-0.0508 1.2667 0.36667 3.2008 0.68255 5.8008 0.94922 0.1816 0.0181 0.25886 0.15832 0.38086 0.24609 0.027 0.17994 0.10778 0.34916 0.26758 0.50391h0.0508c0.096 0.0875 0.20519 0.15099 0.30469 0.23242 0.02 0.031 0.0877 0.15997 0.0957 0.16797 0.1176 0.10718 0.27965 0.11523 0.40235 0.21094 0.4261 0.29114 0.86955 0.55004 1.3476 0.74023 0.037 0.0138 0.078 0.0182 0.11524 0.0312 0.5277 0.20121 1.0963 0.31018 1.6953 0.35156 0.2614 0.0257 0.51556 0.0658 0.78906 0.0664 0.2552-3.2e-4 0.4988-0.0672 0.75-0.0898 0.2294-0.0316 0.41229 0.0414 0.65039-0.01 0.1359-0.0311 0.1803-0.0735 0.3086-0.10547 0.7435-0.15457 1.474-0.38208 2.1816-0.74023 0-2e-3 0.01-2e-3 0.01-4e-3 0.036-0.0187 0.11639-0.0319 0.15039-0.0508 0.078-0.0377 0.112-0.1197 0.1875-0.16016 0.9237-0.50876 1.6399-1.0812 2.0625-1.7402l0.0488-0.0488c0.1928-0.25911 0.22541-0.50911 0.0996-0.75-0.037-0.0872-0.0518-0.17057-0.0488-0.25 0-0.31485-0.13109-0.54935-0.40039-0.70117-0.6623-0.38821-1.3243-0.65714-1.9863-0.83984-0.548-0.17154-1.1363-0.25-1.7559-0.25782l-0.01-2e-3c0 1e-5 -0.01 2e-3 -0.0137 2e-3 -0.6285-6e-3 -1.2334-0.0644-1.9356 0.0977-0.4873 0.11562-0.71614 0.36551-1.1523 0.50781-0.7508 0.22924-1.5114 0.46807-2.3984 0.8418-0.017 9e-3 -0.0348 0.0262-0.0508 0.0508l-0.44922 0.15039c-0.1907 0.0816-0.31568 0.24069-0.42188 0.42188-0.044 0.0337-0.13443 0.0437-0.17773 0.0781-0.2667 0.16667-0.79961 0.18237-1.5996 0.0488-1.4-0.2-2.7837-0.45-4.1504-0.75-0.5667-0.0667-0.88447-0.1655-0.95117-0.29883-0.067-0.13333-0.016-0.24961 0.15039-0.34961l0.45117-0.30078 5.3496-5.5996c0.2-0.26667 0.48291-0.41784 0.84961-0.45117h1.1992c0.4667 0 0.86787-0.0484 1.2012-0.14844 0.4333-0.13333 0.96631 0.0333 1.5996 0.5 0.053 0.0378 0.11427 0.0386 0.16797 0.0742 0.079 0.0578 0.12932 0.13484 0.23242 0.17578h-0.0508c0.108 0.0225 0.18366 0.0132 0.28906 0.0332 1.1 0.59073 2.272 0.84652 3.5606 0.56641 1.1526-0.25804 2.1797-0.66117 3.1016-1.1856 0.064-0.0276 0.13542-0.0356 0.19922-0.0644 1.3237-0.61849 2.2578-1.4189 2.8008-2.4004 0.1817-0.29485 0.17446-0.56951 0.0391-0.83203-0.01-0.057 0.13088-0.1673 0.10938-0.21875-0.037-0.11017-0.21112-0.10109-0.26172-0.19922-0.062-0.59848-0.4529-0.98575-1.1875-1.1504l-0.36328-0.0332c-0.044-9e-3 -0.0399-0.0588-0.0859-0.0664-0.089-0.0125-0.17507 0.043-0.26367 0.0332l-0.88672-0.084h-0.0508c-0.8014 4e-3 -1.6173 0.13802-2.4492 0.40039-0.1125 0.0381-0.21828 0.1-0.33008 0.14062-0.444 0.14357-0.88622 0.35505-1.3281 0.56836-0.9735 0.45645-1.9279 0.97823-2.8418 1.6406h-0.0508c-0.1842 0.13757-0.27933 0.3119-0.32813 0.5039-0.1728 0.15182-0.34908 0.18493-0.52148 0.34766-0.2333 0.2-0.5667 0.31628-1 0.34961-0.1333 0-0.49961-0.0174-1.0996-0.0508-0.3-0.0333-0.43369-0.0992-0.40039-0.19922 0-0.0667 0.14922-0.30117 0.44922-0.70117l3.7949-4.8496c0.1667-0.23333 0.44961-0.34961 0.84961-0.34961 0.4667 0 0.76709-0.0504 0.90039-0.15039 0.5-0.3 1.0175-0.28269 1.5508 0.0508 0.2269 0.13239 0.21221 0.11538 0.38281 0.21289 0.043 0.025 0.067 0.0667 0.11719 0.0859 0.026 0.01 0.0502 0.0122 0.0762 0.0215 0.287 0.1614 0.71614 0.41059 0.77344 0.42969 0.1833 0.0423 0.42398-0.0888 0.61328-0.0645 0.3827 0.0656 0.76342 0.11121 1.1367 0.11328 0.7712-4e-3 1.5174-0.17837 2.248-0.46289 0.1274-0.0426 0.22226 0.0114 0.35156-0.0371 0.3075-0.12762 0.51101-0.37224 0.78711-0.53516 0.2738-0.16701 0.54665-0.3439 0.81445-0.55273 0.2749-0.22495 0.57535-0.42152 0.81055-0.69141 0.046-0.0439 0.093-0.074 0.13867-0.11914l0.0488-0.0508 0.90039-1.0996c0.1339-0.15534 0.19972-0.32201 0.19922-0.5v-0.0996c0.021-0.0799 0-0.15054 0-0.22461 0.012-0.0297 0.0349-0.0462 0.0469-0.0762 0.011-0.0288-0.048-0.0626-0.043-0.0918 0-0.02-0.0213-0.0371-0.0273-0.0566 0.015-0.22475-0.027-0.45363-0.33008-0.70117-0.1943-0.17492-0.45972-0.24279-0.69922-0.34961-0.07-0.0607-0.11797-0.16644-0.20117-0.20117h-0.0488c-0.042-2e-3 -0.092-2e-3 -0.15039 0v-2e-3c-0.036-9e-3 -0.0587-0.0389-0.0957-0.0469-0.033-8e-3 -0.0608 1e-3 -0.0937-6e-3l-0.15625-0.0449c-0.3785-0.104-0.7952-0.15439-1.25-0.15039-0.1732 6.6e-4 -0.34498 0.0483-0.51758 0.0664-0.1712 0.0128-0.33981 0.039-0.50781 0.0664-0.3084 0.063-0.61548 0.16811-0.92188 0.28711-0.29899 0.10146-0.61424 0.12998-0.90234 0.28125-0.182 0.091-0.37179 0.37802-0.55469 0.49414-0.585 0.39716-1.1677 0.85751-1.7461 1.4551-0.029 0.0335-0.02 0.10137-0.043 0.14062-0.3042 0.32288-0.59945 0.41813-0.90625 0.8086-0.1667 0.23333-0.48447 0.35156-0.95117 0.35156-0.5333 0.0667-0.89961 0.15-1.0996 0.25-0.033-0.0333-0.1167 0.0151-0.25 0.14844-0.1 0.1-0.15039 0.0341-0.15039-0.19922 0-0.13333 0.10078-0.31745 0.30078-0.55078 1-1.8 1.6337-2.8988 1.9004-3.2988 0.1333-0.16667 0.3833-0.31784 0.75-0.45117 0.4333-0.16667 0.71631-0.29844 0.84961-0.39844 0.1417-0.11629 0.19463-0.26903 0.32813-0.38867 0.1759-0.12708 0.35328-0.25035 0.52148-0.41211v0.0508c0.4969-0.49204 0.95688-1.1541 1.3965-1.9082 0.1829-0.29714 0.34259-0.60361 0.48829-0.91602 0.88579-1.9146 1.189-3.7253 0.86523-5.4258-0.017-0.0843-0.1036-0.17565-0.1582-0.26367-0.03-0.12195-2e-5 -0.38365-0.041-0.48633-0.067-0.17816-0.18287-0.20042-0.26367-0.33398-0.011-0.21421-0.074-0.40884-0.23633-0.56641h-0.05089c-0.073-0.0639-0.16018-0.0602-0.23828-0.0996-0.1184-0.0597-0.23063-0.14677-0.36133-0.15039-0.1496 1.3e-4 -0.30077 0.0505-0.45117 0.15039-0.1057 0.0591-0.19137 0.12832-0.29297 0.18945-0.022 0.012-0.0346-3e-3 -0.0566 0.01-0.047 0.027-0.067 0.0721-0.11328 0.0996-0.8843 0.55526-1.6089 1.1901-2.1699 1.9082-0.1808 0.22597-0.33358 0.46963-0.48438 0.71485-0.3553 0.59765-0.6226 1.2398-0.7832 1.9355-0.072 0.26498-0.25133 0.46126-0.29883 0.74219-0.048 0.36789 0.0667 1.0133 0.0957 1.5117 0.031 0.54032-0.018 0.94514 0.10352 1.6387 0.1333 0.7-4e-5 1.45-0.39844 2.25-0.5333 0.83333-0.91709 1.4826-1.1504 1.9492l-0.75 1.3008-0.20117-0.45117c-0.1333-0.43333-0.083-0.98373 0.15039-1.6504 0.1124-0.31213 0.099-0.38483 0.16992-0.61719l0.0312-0.0312c0.07-0.17239 0.084-0.37201 0.12891-0.55664 0.022-0.11253 0.12109-0.37165 0.12109-0.44336 9e-4 -0.0164-0.0117-0.0266-0.0117-0.043 0.054-0.47002 0.051-0.96692-0.043-1.5078-0.06-0.55651-0.20892-1.1398-0.44921-1.75-0.091-0.26809-0.19899-0.49906-0.30079-0.74219-0.095-0.2274-0.035-0.54207-0.15039-0.75781-0.1011-0.17186-0.41977-0.45284-0.57617-0.65234-0.3026-0.45749-0.64141-0.82867-1.0078-1.1406-0.1386-0.13587-0.16111-0.21326-0.31641-0.35742-0.8-0.83333-1.3484-0.71706-1.6484 0.34961-0.3 0.96666-0.5171 1.7012-0.6504 2.2012-0.049 0.21322-0.0158 0.37503-0.0488 0.57813-0.012 0.0988-0.0418 0.16683-0.0508 0.27148v0.0508c-0.096 0.47788-0.1225 0.92031-0.0918 1.334 0 0.0347-0.0128 0.0809-0.01 0.11523 0.01 0.0772 0.073 0.13121 0.082 0.20703 0.043 0.25453 0.0731 0.51422 0.16797 0.74219 0.1147 0.25893 0.2685 0.46047 0.4043 0.6875 0.1436 0.27712 0.1385 0.61001 0.3457 0.86328 0.1942 0.24526 0.49821 0.24704 0.72071 0.42969 0.098 0.0831 0.17549 0.19556 0.27929 0.26953v0.0507c0.184 0.12373 0.38557 0.20707 0.60157 0.25 0.016 8e-3 0.0308 0.025 0.0488 0.0508l0.15039 0.0488-0.0508-0.0488 0.0215 4e-3c0.2122 0.0735 0.34978 0.3128 0.58008 0.3457 0.33329 0.0667 0.51552 0.26628 0.54882 0.59961 0 0.4 0.0326 0.68294 0.0996 0.84961l0.055 0.15028c0.3 0.9 0.1333 1.7837-0.5 2.6504-0.8333 0.93333-1.4167 1.6329-1.75 2.0996-0.4667 0.66667-1.1508 1.4826-2.0508 2.4492-1.1 1.2333-1.7996 2.0337-2.0996 2.4004-0.3333 0.36667-0.56592 0.41706-0.69922 0.15039l-0.0996-0.30078c-0.067-0.33333-0.21787-0.7655-0.45117-1.2988-0.3-0.56667-0.4667-0.98333-0.5-1.25-0.018-0.19746 0.18897-0.60226 0.29687-0.91601 0.069-0.0977 0.1292-0.20204 0.1543-0.33399l0.0723-0.36914c0.018-0.0361 8e-3 -0.045 0.0254-0.082 0.01-0.0208 0-0.0456 0-0.0664l0.0488-0.23242c0.01-0.0164 0.01-0.0339 0-0.0508l0.0508-0.15039v0.0508l0.0508-0.25c0-0.30821-0.06-0.59588-0.082-0.89648-0.01-0.83103-0.19183-1.7116-0.54492-2.6387-0.1023-0.28945-0.18291-0.58601-0.3125-0.86718-0.075-0.15485-0.078-0.2899-0.16211-0.44727-0.088-0.16146-0.19771-0.1813-0.28711-0.33398-0.5516-0.96846-1.2168-1.9012-2.1113-2.7656v-0.0508c-0.129-0.0914-0.31393-0.17616-0.51563-0.25781-0.1188-0.0844-0.21533-0.32026-0.33593-0.39258-0.4333-0.2-0.58252-0.48294-0.44922-0.84961 0.1-0.2 0.28408-0.51589 0.55078-0.94922 0.4667-1.6 1.2321-3.9837 2.2988-7.1504l1.5508-5.4512c0.1-0.36667 0.23369-1.0159 0.40039-1.9492 0.9145 0.26128 1.7455 0.91799 2.5 1.9473v0.0528l0.25 0.44922c0.3333 0.6 0.59883 1.0167 0.79883 1.25h0.0508c0.2277 0.27319 0.46567 0.50398 0.70117 0.74219 0.019 0.022 0.13534 0.19588 0.14844 0.20898 0.3005 0.30055 0.57598 0.46191 0.86328 0.68945 0.1298 0.0997 0.25472 0.22058 0.38672 0.31055 0 2e-3 -2.4e-4 2e-3 0.01 4e-3 0.682 0.47099 1.3375 0.80405 1.9414 0.8457 0.3 0 0.7167 0.0329 1.25 0.0996 0.4333-0.0333 0.81709-0.18255 1.1504-0.44922 0.3581-0.28649 0.56888-0.6024 0.70898-0.93164 0.012-0.0286 0.0242-0.057 0.0332-0.0859 0.207-0.56804 0.13668-1.1903-0.29102-1.8828-0.063-0.10553-0.1522-0.1785-0.2207-0.27734-0.1447-0.2352-0.30805-0.44792-0.49805-0.6211-0.8373-0.87494-1.97-1.3704-3.375-1.5176-0.6272-0.17055-1.2094-0.2832-1.707-0.2832h-0.40039l-0.24023 0.0215c-1.1578-0.24076-2.3907-0.73515-3.709-1.5215-0.1333-0.1-0.18369-0.26667-0.15039-0.5 0.033-0.13333 0.099-0.33489 0.19922-0.60156 0.4667-1.8333 0.81748-3.6492 1.0508-5.4492 0-0.0333 0.05-0.26589 0.15039-0.69922 0.067-0.26667 0.0818-0.51667 0.0488-0.75 0.3333 0.3 0.95156 0.61589 1.8516 0.94922 0.6152 0.25635 1.0475 0.51318 1.3867 0.76953 0.1208 0.38114 0.44532 0.78991 1.0117 1.2305l0.25 0.30078c1.3087 1.2775 2.6941 1.9935 4.1484 2.1934 0.068 0.0117 0.13482 0.0475 0.20312 0.0566 0.019 1e-3 0.0318-0.01 0.0508-0.01 0.016 2e-3 0.0318 8e-3 0.0488 0.01h0.19922c0.3293 0 0.62348-0.0804 0.89258-0.21094 0.011-6e-3 0.0203-0.0176 0.0312-0.0234 0.2076-0.10607 0.40517-0.23073 0.57617-0.41602 0.054-0.0647 0.064-0.14879 0.10547-0.21875 0.059-0.0733 0.14111-0.0985 0.19531-0.18164 0.2333-0.36667 0.18291-0.93255-0.15039-1.6992-0.3333-0.7-0.73252-1.2174-1.1992-1.5508-1.5333-0.96667-3.4345-1.2496-5.7012-0.84961-0.6 0.1-1.2337-7.8e-4 -1.9004-0.30078-0.7667-0.4-1.35-0.68294-1.75-0.84961-0.067-0.0333-0.067-0.0992 0-0.19922 0.067-0.1 0.10156-0.16784 0.10156-0.20117l1.0488-7.3496c1.9333 0.8 3.0167 1.2671 3.25 1.4004 0.5667 0.36667 1.3496 1.0663 2.3496 2.0996 0.7667 0.66667 1.6833 1.0329 2.75 1.0996 1.0333 0.0667 1.95-0.16589 2.75-0.69922 0.7-0.43333 1.0179-1.0496 0.95117-1.8496-0.02-0.58981-0.27384-1.0822-0.71094-1.498-0.054-0.0625-0.077-0.1457-0.13867-0.20312-0.048-0.0333-0.15343-0.0663-0.20703-0.0996-0.2416-0.16629-0.51905-0.31758-0.84375-0.44922-0.059-0.0225-0.12625-0.0262-0.18555-0.0469-0.087-0.0346-0.12104-0.069-0.21484-0.10352l-0.25-0.0996c-0.6-0.16667-1.1988-0.25-1.7988-0.25-0.8958 0-1.8852 0.23157-2.9414 0.63281-0.1244 0.038-0.24871 0.0749-0.375 0.11719h-0.0352c-0.012 4e-3 -0.0144 0.0151-0.0254 0.0195-0.1942 0.0659-0.37512 0.10371-0.57422 0.17969-0.2 0.0667-0.50039 0.0337-0.90039-0.0996-0.4667-0.23333-0.8-0.3845-1-0.45117l-1.25-0.5c-0.3333-0.16667-0.48252-0.44961-0.44922-0.84961l0.65019-7.0998c0-0.0333 0.0326-0.26589 0.0996-0.69922 0.067-0.26667 0.0492-0.51667-0.0508-0.75-0.067-0.16667 0.017-0.21706 0.25-0.15039l1.75 0.5c0.7 0.23333 1.2679 0.46589 1.7012 0.69922 0.056 0.0318 0.13015 0.15435 0.18945 0.20312 0.1289 0.32945 0.34727 0.64934 0.75977 0.94727h0.0508c0.059 0.0491 0.10927 0.0641 0.16797 0.11133 0.1643 0.19076 0.35022 0.44462 0.48242 0.53906 0.8141 0.60476 1.6384 0.94298 2.4688 1.1582 0.1296 0.038 0.25446 0.0601 0.38086 0.0859 0.2334 0.0437 0.46452 0.14321 0.69922 0.15625 0.9873 0.0658 1.8152-0.21949 2.5137-0.78906 0.3627-0.29578 0.70153-0.64419 0.98633-1.1113 0.4-0.66667 0.43261-1.2171 0.0996-1.6504-0.012-0.0173-0.0349-0.0279-0.0469-0.0449-8e-4 -2e-3 -7e-4 -4e-3 0-6e-3l-0.0508-0.0488c-0.2667-0.43333-0.74922-0.75117-1.4492-0.95117v8e-3c-0.091-0.0312-0.1531-0.0803-0.25-0.10742-0.3645-0.10054-0.78066-0.13572-1.1973-0.16992-0.1547-0.0227-0.22355-0.0622-0.40235-0.0801l-0.85156-0.0488-0.94922 0.14844h-0.0508c-1.2 0.13333-2.0817 0.2845-2.6484 0.45117h0.0488c-0.09 0.0358-0.13814 0.0953-0.21484 0.13867-0.1534 0.0278-0.45229 0.0884-0.58399 0.11133-0.4 0.0333-0.9-0.0675-1.5-0.30078-0.69999-0.33333-1.2175-0.56589-1.5508-0.69922-0.6-0.26667-0.86748-0.70078-0.80078-1.3008 0.033-0.33333 0.1167-0.81589 0.25-1.4492-0.067-1.0333-0.032-2.6012 0.10156-4.7012-0.032-0.38738 0.11419-0.75716 0.42579-1.1133 0.1806-0.16854 0.34665-0.389 0.50195-0.64063 0.072-0.0967 0.24728-0.29732 0.27148-0.3457 0.052-0.11269 0.07-0.22688 0.11719-0.33984 0.01-0.0243 0.0232-0.0358 0.0332-0.0605v0.0508l0.0488-0.15039v-0.0488c0.014-0.0388 0.0144-0.0765 0.0274-0.11523 0.3825-1.0183 0.62304-2.0452 0.62304-3.0859 0-1.5333-0.43213-2.7833-1.2988-3.75-0.525-0.575-1.2004-0.83008-2.0254-0.76758zm-55.525 17.668 0.5 0.25c0.2667 0.1 0.71631 0.24922 1.3496 0.44922 0.5333 0.2 0.88408 0.4345 1.0508 0.70117 1.0134 1.4307 2.5904 2.6077 4.6699 3.5586 0.1392 0.0762 0.27705 0.14678 0.40625 0.18946 0.1129 0.0483 0.20832 0.10535 0.32422 0.15234-0.1667 0.36667-0.26748 0.59922-0.30078 0.69922l-1.25 6.3008c-0.1667 0.8-0.31592 1.2651-0.44922 1.3984-0.3 0.3-0.81748 0.15078-1.5508-0.44922-1-0.8-2.2326-1.5171-3.6992-2.1504-0.5667-0.26667-0.9-0.73373-1-1.4004-0.033-0.36667-0.033-0.91511 0-1.6484-0.067-1.1-0.10156-2.4508-0.10156-4.0508 0-0.9 0.0168-2.2333 0.0508-4zm0.40039 11.6 5 3.1504c0.2333 0.0667 0.4 0.13255 0.5 0.19922 0.2 0.0667 0.2833 0.21784 0.25 0.45117-0.5 2.5-0.81787 4.3837-0.95117 5.6504l-1.1992 12.399c-0.1 0-0.1833-0.0988-0.25-0.29883-0.3-1.3667-0.74961-3.3996-1.3496-6.0996-0.6-3.2667-1.0012-5.7337-1.2012-7.4004-0.1333-1.1-0.39883-3.7841-0.79883-8.0508zm-11.162 24.051c2e-3 -2e-3 0.01 4e-3 0.0117 2e-3v-2e-3zm0.0117 2e-3c-3.9e-4 0.0656-0.0172 0.1155-0.0508 0.14844-0.2499 0.26129-0.29157 0.56598-0.48047 0.83984-0.044 0.0248-0.0689 0.0266-0.11914 0.0586-0.2693 0.30037-0.43688 0.68236-0.55078 1.1074-0.3624 1.0135-0.47461 2.0784-0.0996 3.2441 0.4551 1.3107 1.0181 2.3572 1.6523 3.2305 0.1933 0.32148 0.37086 0.63946 0.59766 0.96875h0.0508c0.1788 0.19284 0.37841 0.32656 0.59961 0.40039l0.125 0.0195c0.1341 0.10498 0.2352 0.28983 0.375 0.38086 0.4667 0.3 0.81748 0.8 1.0508 1.5 0.2 0.76667 0.38213 1.3326 0.54883 1.6992l1.9004 4.3008c0.1333 0.33333 1.1179 2.283 2.9512 5.8496 0.4333 0.73333 0.74922 1.2992 0.94922 1.6992l0.15039 0.30078h-0.34961c-1-0.23333-1.7345-0.45039-2.2012-0.65039-0.072-0.0289-0.1446-0.16549-0.2168-0.23828 0.01-0.20329-0.035-0.4072-0.18359-0.61133v0.0488c-0.119-0.1504-0.27214-0.24431-0.39844-0.38281-0.03-0.0576-0.076-0.17432-0.10156-0.2168-0.3333-0.63333-0.86631-1.1159-1.5996-1.4492-0.2333-0.1-0.9-0.31706-2-0.65039-0.2962-0.079-0.67549-0.0274-0.99219-0.0742-0.5038-0.0705-1.0326-0.13517-1.6582-0.17578h-0.0488c-0.3829 2e-3 -0.66591-0.015-0.84961-0.0508h-0.0508c-0.288 6e-3 -0.50771 0.16567-0.69141 0.40625-0.2979 0.11585-0.8755 0.14731-0.9082 0.34375-0.036 0.1257 0.0374 0.2545 0.0254 0.38086-0.01 8e-3 -0.0164 0.0109-0.0254 0.0195-0.2107 0.38711-0.19537 0.77083 0.0488 1.1504h0.0508c0.1394 0.16185 0.28789 0.27584 0.42969 0.42578 0.201 0.29141 0.34522 0.5807 0.66992 0.875 0.2404 0.21214 0.56121 0.27243 0.82031 0.44922 0.6026 0.43996 1.2264 0.77416 1.8672 1.0215 0.1113 0.0356 0.21042 0.0942 0.32422 0.125 0.7095 0.23549 1.434 0.40026 2.1894 0.4043 0.3249 2.4e-4 0.74779-0.11345 1.1172-0.16406 0.066-6e-3 0.11524 0.0204 0.18164 0.0137 0.092-0.0131 0.17522-0.0598 0.26562-0.0781 0.2891-0.053 0.52019-0.0417 0.83399-0.12305 0.1326-0.0424 0.21434-0.1274 0.30664-0.20313 0.4531-0.2107 0.94814-0.25634 1.4941-0.0957 0.3333 0.0667 0.8333 0.21589 1.5 0.44922 0.7333 0.16667 1.3496 0.63372 1.8496 1.4004 0.2667 0.4 0.63291 1.0667 1.0996 2 1.8333 2.6333 3.2171 4.5171 4.1504 5.6504l1.1504 1.4004c-1.7-0.23333-2.7659-0.35156-3.1992-0.35156-0.4-0.0333-0.71787-0.16511-0.95117-0.39844-0.031-0.0468-0.19165-0.27084-0.28125-0.39844-0.1351-0.49627-0.43385-0.91007-0.96875-1.2031l-0.0996-0.0488c-8e-4 -0.0157-0.0197-0.0332-0.0527-0.0508-0.1461-0.10015-0.3079-0.17525-0.46289-0.26172-0.3244-0.20775-0.71123-0.35088-1.1074-0.48437-0.1188-0.0379-0.24048-0.0681-0.36328-0.0996-0.3727-0.0998-0.68523-0.26412-1.1152-0.30469-0.1798-0.015-0.36277 0.10013-0.54297 0.0957-0.1252-5e-3 -0.22902-0.0453-0.35742-0.0449-1.0961-4e-3 -2.129 0.19544-3.0996 0.59961-0.017 8e-3 -0.0338 0.0259-0.0508 0.0508-0.011 3e-3 -0.0154 0.0123-0.0254 0.0156-0.259 0.0903-0.51169 0.0234-0.77149 0.13476-0.6 0.26667-0.83447 0.66589-0.70117 1.1992 0.013 0.0331 0.10381 0.16985 0.12891 0.21875-0.019 0.23931 0.027 0.47078 0.2207 0.68164 0.5829 0.61045 1.176 1.0833 1.7734 1.4941 0.5295 0.39905 1.11 0.70532 1.748 0.90625 0.5108 0.18249 1.026 0.29867 1.5469 0.3418 0.174 0.0115 0.30212 0.10742 0.48242 0.10742 0.1378 0 0.21796-0.10546 0.35156-0.11328 0.9859-0.0785 2.028-0.37632 3.1484-0.98633v0.0488c0.056-0.0364 0.068-0.087 0.11328-0.12695 0.3881-0.24966 0.80081-0.44406 1.2871-0.47266 0.3333-0.0333 0.8333-3.2e-4 1.5 0.0996l2.5 0.25c0.2667 0.0333 0.5167 0.16706 0.75 0.40039 0.1667 0.16667 0.36631 0.41667 0.59961 0.75 0.5333 0.6 1.2175 1.2841 2.0508 2.0508 0.5 0.4 1.2151 1.0337 2.1484 1.9004 0.4333 0.4 1.1 0.94844 2 1.6484 0.6 0.53333 1.0167 1.0682 1.25 1.6016 0.067 0.1 0.15 0.16589 0.25 0.19922 0.1333 0.0333 0.2167-0.0326 0.25-0.19922 0-0.56666 0.1667-1.2004 0.5-1.9004 0.2-0.4 0.51787-0.98333 0.95117-1.75 0.9667-2.2 1.5655-3.5837 1.7988-4.1504 0.1-0.26667 0.31709-0.43333 0.65039-0.5 0.3667 0 0.63408-0.0329 0.80078-0.0996 0.1-0.0333 1.0825-0.33372 2.9492-0.90039 0.2333-0.1 0.46787-0.0826 0.70117 0.0508 0.6333 0.36667 1.3833 0.54883 2.25 0.54883 0.5 0 1.25-0.0833 2.25-0.25 0.7-0.1 1.4325-0.3655 2.1992-0.79883 0.3667-0.2 0.98291-0.63411 1.8496-1.3008 0.157-0.12208 0.098-0.26745 0.22656-0.39258 0.2078-0.23796 0.36233-0.47346 0.42383-0.70703 1e-3 -9e-3 -9e-4 -0.0163 0-0.0254 0.2169-0.375 0.66709-0.725 0.65039-1.125-0.033-0.4-0.2-0.71589-0.5-0.94922s-0.6333-0.35156-1-0.35156c-0.9667 0.0333-1.7012 0.0837-2.2012 0.15039-0.8333 0.0667-1.5329 0.26628-2.0996 0.59961-0.9667 0.5-1.6837 0.88372-2.1504 1.1504-0.8667 0.43333-1.4984 0.93333-1.8984 1.5-0.4 0.5-1.0008 0.88372-1.8008 1.1504-1.2667 0.36667-1.9333 0.56628-2 0.59961l-0.75 0.40041c0.2667-0.83333 0.66592-1.8159 1.1992-2.9492 0.2667-0.63333 0.70078-1.5849 1.3008-2.8516 0.7667-1.5333 1.2667-2.6322 1.5-3.2988 0.1667-0.4 0.46709-0.56667 0.90039-0.5 0.4333 0 0.71631-0.0504 0.84961-0.15039 0.1667-0.1 0.44961-0.20078 0.84961-0.30078s0.68291-0.19883 0.84961-0.29883c0.3333-0.2 0.63369-0.2 0.90039 0 0.08 0.0481 0.22649 0.17721 0.33789 0.26367 0.03 0.0459 0.0265 0.0905 0.0625 0.13672 0.1107 0.0528 0.17623 0.0797 0.26953 0.12305 0.013 0.0117 0.0183 0.0133 0.0312 0.0254 0.01 5e-3 0.0193-1e-3 0.0293 4e-3 0.1056 0.0487 0.23716 0.11104 0.31836 0.14649l-0.0508-0.0488 1.6504 0.25h0.0508l0.24805-0.0352c0.027-2e-3 0.0492 0.0123 0.0762 0.01l-0.0234 0.0254c0.022-6e-3 0.0386-0.0137 0.0606-0.0195 0.169-0.0184 0.31823 0.10845 0.49023 0.0684 0.5667-0.16667 1.4329-0.56589 2.5996-1.1992 0.9402-0.52012 1.569-1.1118 2.041-1.7402 0-3e-3 0.01-6e-3 0.01-0.01 0.026-0.031 0.0317-0.0764 0.0547-0.10937 0.2687-0.38459 0.54763-0.76732 0.64453-1.1914 0.068-0.28976-0.40278-0.44433-0.61328-0.66406-0.018-0.0585-1.1e-4 -0.13679-0.0371-0.18555-0.078-0.14805-0.21139-0.26432-0.40039-0.34961-0.028-0.0144-0.0579-0.0196-0.0859-0.0332-0.045-0.0162-0.0145-0.0509-0.0625-0.0664-0.055-0.0154-0.10576-2e-3 -0.16016-0.0156-0.42489-0.17278-0.86594-0.28408-1.3398-0.28516-0.1997 3e-3 -0.4167 0.056-0.625 0.0859-0.109 7e-3 -0.21602 0.0332-0.32422 0.0469-0.2575 0.0533-0.52482 0.13729-0.79492 0.23047-0.386 0.10611-0.77985 0.14775-1.1562 0.33594-0.1809 0.0904-0.4342 0.387-0.625 0.50586-0.6024 0.35909-1.2206 0.77142-1.875 1.2949h0.0488c-0.1317 0.11571-0.22119 0.25162-0.27149 0.4082-4e-4 1e-3 0 3e-3 0 4e-3 -0.2602 0.24911-0.45316 0.30051-0.72656 0.58789-0.2333 0.23333-0.59961 0.41745-1.0996 0.55078-0.5667 0.16667-0.9833 0.29844-1.25 0.39844-0.5333 0.26667-0.83369 0.40039-0.90039 0.40039-0.1333 0-0.2167-0.0329-0.25-0.0996-0.067-0.0667 0.084-0.45039 0.45117-1.1504 0.6-1.1667 1.4333-2.9167 2.5-5.25 0.3333-0.66667 0.86631-1.6163 1.5996-2.8496 0.2667-0.53333 0.71631-0.89961 1.3496-1.0996 1.0667-0.3 1.6171-0.46667 1.6504-0.5 0.4333-0.26667 0.9333-0.35 1.5-0.25 0.3333 0.0667 0.81592 0.23333 1.4492 0.5 0.1152 0.0326 0.22865-0.0276 0.34375-4e-3 0 4.9e-4 2e-3 3e-3 0.0117 4e-3 0.1997 0.0313 0.46523 0.0468 0.79883 0.0488 0.2547 1e-3 0.49187-0.0388 0.73437-0.0664 0.3918-0.0532 0.78373-0.10543 1.1738-0.26172 0.1291-0.0444 0.26758-0.0669 0.39258-0.12109 0.4845-0.22263 0.92068-0.54656 1.334-0.91797 0.1546-0.12311 0.31055-0.14174 0.46485-0.28125l0.32422-0.32422 0.12695-0.0762h-0.0527c0.1004-0.0716 0.25157-0.20534 0.45117-0.40039l0.0508-0.0508c0.025-0.0312 0.0239-0.0626 0.0449-0.0937l0.20508-0.20508c0.4333-0.43333 0.58447-0.91784 0.45117-1.4512-0.09-0.28823-0.3884-0.38558-0.5957-0.56641-0.01-0.01-2.7e-4 -0.0234-0.01-0.0332-0.098-0.17198-0.2511-0.29477-0.4375-0.39063-0.031-0.0105-0.0315-0.0492-0.0625-0.0586-0.055-0.0175-0.11257-4e-3 -0.16797-0.0195-0.079-0.0247-0.13977-0.0653-0.23047-0.0801l-1.1504-0.10156h-0.0508c-0.012 1.4e-4 -0.0251 4e-3 -0.0371 4e-3 -0.8432-8e-3 -1.6947 0.11264-2.5625 0.4961-0.1851 0.0823-0.32936 0.30925-0.50976 0.4082v2e-3c-0.3585 0.198-0.72089 0.42871-1.0879 0.6914-0.4828 0.35951-0.9828 0.79167-1.5 1.2988h-0.0508c-0.083 0.0737-0.094 0.16314-0.14258 0.24414 0 3e-3 -0.0117 3e-3 -0.0117 6e-3 -0.3 0.33333-0.73213 0.63372-1.2988 0.90039-0.6 0.33333-1.1504 0.5-1.6504 0.5l2.25-4.1504c0.1517-0.27303 0.48236-0.45676 0.91016-0.5918 0.097-0.016 0.19916-0.0184 0.28906-0.0586h-0.0488c0.065-0.0419 0.11083-0.10474 0.17383-0.14844 0.3161-0.11747 0.65789-0.23409 0.77539-0.35156 0.9289-0.85742 1.5567-2.0391 2.043-3.373 0.075-0.20098 0.14855-0.42701 0.22265-0.65234 0.1-0.33759 0.25989-0.60972 0.33399-0.97461 0.019-0.0975 0.0113-0.11926 0.0273-0.20899 0.024-0.0879 0.0502-0.1497 0.0742-0.24023l0.0488-0.19922v-0.0513c0.044-0.14235 0.033-0.29377 0-0.44727 0.01-0.0929 0.0469-0.28282 0.0469-0.35351 0.033-0.56667-0.10039-1.0667-0.40039-1.5-0.2333-0.3-0.54922-0.38333-0.94921-0.25-0.2074 0.082-0.22491 0.2365-0.41211 0.32617l-0.33789 0.0742c-0.034 3e-3 -0.069 3e-3 -0.10157 0-0.079 0.0134-0.17753 0.0638-0.29883 0.15039l-0.0508 0.0508c-0.5598 0.37894-1.0531 0.9078-1.5039 1.5332-0.026 0.0469-0.12249 0.0673-0.14649 0.11524-0.064 0.11595-0.0396 0.0661-0.0996 0.17383v-0.0234c-0.013 0.0248-0.0407 0.0927-0.0547 0.11914-0.7158 1.2938-1.2146 2.1816-1.2441 2.1816-0.1191 0.27492-0.0237 0.48247-0.0957 0.74219l-0.0567 0.10738c0.01 6.7e-4 0.01 0.0181 0 0.0508-0.3056 0.7763-0.40638 1.443-0.30078 2h0.0527c0 0.016 0.0146 0.0217 0.0176 0.0371 0.096 0.59276 0.074 1.1938-0.2207 1.8125-0.4333 0.7-0.73174 1.2504-0.89844 1.6504-0.2333 0.6-0.60156 1.3326-1.1016 2.1992l-4.7988 8.8008c-0.7 1.6667-1.2504 2.9167-1.6504 3.75l-1.6992 3.8496c-0.1-0.3-0.28408-0.73411-0.55078-1.3008-0.2333-0.5-0.38252-0.93216-0.44922-1.2988-0.033-0.2 0.015-0.48489 0.14844-0.85156 0.01-0.0188 0.0271-0.0598 0.0371-0.0801 0.3511-0.29366 0.54549-0.68998 0.46289-1.2695v-0.24999c0.01-0.20917-0.0281-0.42324-0.0391-0.63477 0-0.31004 0.10536-0.58272 0.0391-0.91406-0.1-0.46666-0.29961-1.1837-0.59961-2.1504-0.1597-0.54055-0.48473-1.0097-0.80273-1.4824-0.024-0.0505-0.0219-0.0655-0.0469-0.11719l-0.15035-0.30078v-0.0508c-0.1472-0.32333-0.40925-0.53259-0.78125-0.63867-0.3953-0.36493-0.75018-0.74796-1.2676-1.0606-0.5-0.3-0.88369-0.40078-1.1504-0.30078-0.5333 0.23333-0.83369 0.71784-0.90039 1.4512-0.046 0.43543 0.12979 0.64178 0.11719 1.043-0.085 1.1585 0.0401 2.2937 0.38086 3.4043 0.082 0.2505-0.01 0.67743 0.10156 0.90234 0.1365 0.26747 0.36061 0.31597 0.50781 0.55664 0.4991 0.9166 1.1726 1.7187 2.043 2.3926 0.073 0.0547 0.1444 0.0555 0.2168 0.0879 0.1273 0.0792 0.20013 0.29554 0.33203 0.36328 0.4 0.2 0.70039 0.58373 0.90039 1.1504 0.2667 0.76667 0.45078 1.2163 0.55078 1.3496 0.4 0.63333 0.43261 1.3329 0.0996 2.0996-0.5 0.83333-0.8333 1.4671-1 1.9004-1.1333 3-2.0325 5.25-2.6992 6.75l-1.1016 2.25c-0.067 0.16667-0.13252 0.23255-0.19922 0.19922-0.067-0.1-0.13252-0.16589-0.19922-0.19922l-5.6016-5.0996c-0.2-0.3-0.2833-0.48411-0.25-0.55078 0.3333-0.63333 0.5833-0.98411 0.75-1.0508 1.7333-0.46667 2.9833-1.5984 3.75-3.3984 0.04-0.0852 0.0749-0.32348 0.11523-0.42383 0.3243-0.73037 0.57145-1.5101 0.68555-2.377v-0.1504c7e-4 -5e-3 -6e-4 -9e-3 0-0.0137 0.016-0.0836 0.0367-0.0991 0.0527-0.18555 0.1-0.36667 0.1-0.75039 0-1.1504s-0.28604-0.70039-0.55274-0.90039c-0.1337-0.10698-0.3182-0.0749-0.4707-0.13086-0.1521-0.22669-0.35431-0.36329-0.62891-0.36914h-0.0996c-0.9659 0.0548-1.9 0.73894-2.8008 2.0508-0.2906 0.41463-0.53468 0.85187-0.73828 1.3086-0.024 0.0592-0.089 0.08-0.11133 0.14063-0.028 0.0764 0.0113 0.14657-0.0137 0.22266-0.1243 0.32022-0.25244 0.63853-0.33594 0.97851-0.2205 0.97721-0.2205 1.826 0 2.5488 0.022 0.0551 0.0638 0.0879 0.0918 0.13672 0.099 0.71975 0.097 1.4059-0.29297 1.9629-0.1 0.1-0.16592 0.13489-0.19922 0.10156-0.033-0.0667-0.0656-0.11706-0.0996-0.15039-2.0667-2.0667-3.8516-4.2333-5.3516-6.5-0.6667-0.83333-1.1163-1.4845-1.3496-1.9512-0.067-0.16667-0.0492-0.41667 0.0508-0.75 0.1-0.36667 0.24922-0.68255 0.44922-0.94922 0.1667-0.3 0.3333-0.44922 0.5-0.44922 0.4793-0.0504 0.84558-0.35142 1.2676-0.5293 0.2756-0.0671 0.54835-0.16614 0.81445-0.34179 0.2628-0.1772 0.51195-0.38468 0.74805-0.6211 0.023-0.0249 0.0473-0.0328 0.0703-0.0586 0.4071-0.448 0.75151-0.96747 1.0664-1.5195 0.1139-0.20745 0.27871-0.30215 0.38281-0.53125 0.083-0.18029 0.078-0.31893 0.14648-0.49219v-8e-3c0.2135-0.5236 0.36016-1.0232 0.44336-1.5 0.034-0.22532 0.0264-0.43079 0.0274-0.64063 0.011-0.23688 0.0533-0.48478 0.0293-0.70898-0.02-0.22474-0.095-0.40265-0.21679-0.53711-0.025-0.0643-2.1e-4 -0.1506-0.0332-0.21289-0.2-0.4-0.51592-0.59961-0.94922-0.59961-0.21089 0-0.56544 0.10793-0.99414 0.27148l-0.15625 0.0293-0.19921 0.0996c-0.5573 0.20911-0.92547 0.39128-1.1016 0.54883-0.3014 0.30286-0.5669 0.62427-0.8125 0.95508-0.01 7e-3 -0.0116 0.0125-0.0176 0.0195-0.5816 0.78856-1 1.6586-1.2656 2.6055-0.041 0.12542-0.1162 0.18965-0.1543 0.32031-0.015 0.0662-2e-3 0.33947-0.0137 0.44141-0.026 0.13801-0.0689 0.26709-0.0879 0.4082v0.0511c0 0.0853 0.0493 0.21764 0.0703 0.32422 0 0.29039-0.0325 0.37477-0.0195 0.77539 0.067 0.8-0.067 1.4163-0.40039 1.8496l-0.40039 0.40039-3.0996-4.7988c-0.4667-0.73333-0.98408-1.7333-1.5508-3-0.1667-0.36667-0.11631-0.9345 0.15039-1.7012 0.067-0.26667 0.16748-0.65039 0.30078-1.1504 0.033-0.23333 0.14961-0.4155 0.34961-0.54883 0.093-0.0699 0.24237-0.14079 0.38477-0.21094 0.1127-0.0335 0.22925-0.0591 0.31445-0.13867 0.6121-0.51211 1.1142-1.1324 1.5059-1.8574v-2e-3c0.1058-0.1903 0.18068-0.41951 0.27148-0.62891 0.2422-0.57091 0.44932-1.1791 0.57422-1.8633l0.0957-0.5293c0.021-0.14001 0.086-0.22409 0.10351-0.36914 0.01-0.0394-0.01-0.0892 0-0.1289 0.1669-0.75092 0.25137-1.4126 0.20117-1.9219l-0.0488-0.44922v-0.0507c-0.034-0.17568-0.10401-0.31513-0.19921-0.42773v-0.0723c-0.067-0.46667-0.26631-0.8-0.59961-1s-0.69961-0.18269-1.0996 0.0508c-0.9052 0.54312-1.5904 1.435-2.168 2.5-0.3614 0.59788-0.66021 1.2928-0.88281 2.0996v0.0195c-0.025 0.0885-0.0737 0.13981-0.0977 0.23047-0.024 0.10691 0.0376 0.13871 0.0176 0.24219-0.3109 1.2725-0.32472 2.3665 0.084 3.207 0.043 0.0752 0.097 0.12269 0.14649 0.17969 0.01 0.0161-0.01 0.0545 0 0.0703 0.2333 0.36667 0.3167 0.81628 0.25 1.3496-0.1 0.66666-0.13457 1.1008-0.10157 1.3008v0.0996c-0.1 0.1-0.15039 0.18333-0.15039 0.25l-0.44922-0.75c-1.7-3.8333-2.7679-6.4322-3.2012-7.7988-0.019-0.0568 0.0441-0.13029 0.0371-0.18945 0.1627-0.0992 0.29008-0.24317 0.36328-0.46094 0.1409-0.4453 0.23637-0.89079 0.29297-1.334 6e-4 -2e-3 0.0117-0.0136 0.0117-0.0156 0-0.0163-0.0117-0.0325-0.0117-0.0488 0.1179-0.99557 1e-5 -1.9838-0.30469-2.9688-0.038-0.12758 0.01-0.25523-0.0391-0.38281-0.097-0.2594-0.37303-0.67119-0.51953-0.97266-0.1979-0.41415-0.40228-0.8329-0.70508-1.3203-0.1549-0.26052-0.19635-0.4243-0.37695-0.70703-0.055-0.0827-0.20263-0.14918-0.26562-0.23047-0.2456-0.35724-0.44128-0.67986-0.73438-1.0703-0.1551-0.21327-0.37024-0.32954-0.64844-0.34961l-0.20703 0.041c-0.1638-0.1083-0.21343-0.23664-0.39453-0.3418-0.0942-0.0629-0.15257-0.073-0.1875-0.0469z"/>
 <g transform="translate(-217.75 -186.3)">
  <path transform="translate(160.15,84.1)" d="m62.6 102.2c-3.3333 0-5 1.6667-5 5v158.2c0 3.3333 1.6667 5 5 5h93.199c3.3333 0 5-1.6667 5-5v-158.2c0-3.3333-1.6667-5-5-5zm8.3008 7.1992h76.6c4.6667 0 7 2.3333 7 7v139.8c0 4.6667-2.3333 7-7 7h-76.6c-4.6667 0-7-2.3333-7-7v-139.8c0-4.6667 2.3333-7 7-7z" fill="#ef1d1e"/>
  <path transform="translate(160.15,84.1)" d="m70.901 109.4c-4.6667 0-7 2.3333-7 7v139.8c0 4.6667 2.3333 7 7 7h76.6c4.6667 0 7-2.3333 7-7v-139.8c0-4.6667-2.3333-7-7-7z" fill="none" stroke="#000" stroke-width="1.2"/>
 </g>
</svg>
