<svg width="103.2" height="168.2" preserveAspectRatio="none" version="1.1" viewBox="0 0 103.2 168.2" xmlns="http://www.w3.org/2000/svg">
 <path transform="translate(-166.15,-102.2)" d="m179.45 109.4c-4.6667 0-7 2.3333-7 7v139.8c0 4.6667 2.3333 7 7 7h76.6c4.6667 0 7-2.3333 7-7v-139.8c0-4.6667-2.3333-7-7-7z" fill="#fff" stroke="#000" stroke-width="1.2"/>
 <path d="m83.36 21.7c-1.025 0.025-2.0129 0.42422-2.9629 1.1992-1.2 0.96666-1.8996 2.1333-2.0996 3.5-0.3333 2.3333-0.19961 4.6667 0.40039 7 0.1333 0.53333 0.26709 1.3667 0.40039 2.5 0.033 0.26667-0.083 0.35-0.34961 0.25-1.7333-0.43333-3.1171-0.44904-4.1504-0.0488-0.7667 0.33333-1.2512 1.0504-1.4512 2.1504-0.2 1.1667 0.10039 2.2326 0.90039 3.1992 0.8333 0.96667 1.8333 1.4492 3 1.4492 0.7667 0 1.5167-0.38177 2.25-1.1484 0.7333-0.76666 1.0667-1.5516 1-2.3516-0.033-1.0669 0.35039-1.2992 1.1504-0.69925 2.9333 2.1667 4.4508 4.75 4.5508 7.75 0.1 2.4667-7.8e-4 4.6333-0.30078 6.5-0.5 2.6667-1.0175 4.7829-1.5508 6.3496l-4.0996 12.201c-0.7667 2.0667-1.3325 3.6151-1.6992 4.6484-0.6667 1.8333-1.1841 3.3837-1.5508 4.6504-0.1667 0.56667-0.53291 1.0163-1.0996 1.3496-0.9333 0.53333-1.4159 0.81823-1.4492 0.85156-0.9667 0.83333-1.6683 1.9322-2.1016 3.2988-0.5333 1.8-0.74844 3.4163-0.64844 4.8496 0.1 2.5 0.6833 4.8682 1.75 7.1016 0.2 0.46667 0.18282 0.88333-0.0508 1.25-0.3 0.36667-0.49961 0.64961-0.59961 0.84961-0.7333 1.4333-0.9833 3.4159-0.75 5.9492 0.1792 1.9206 1.0842 3.6208 2.3652 5.207l0.38477 0.64258c0.098 0.14132 0.22098 0.23585 0.35938 0.30273 0.1558 0.15809 0.22282 0.34359 0.39062 0.49805 0.5667 0.53333 1.0492 1.2504 1.4492 2.1504 0.4 1.0667 0.71787 1.8671 0.95117 2.4004l0.54883 1c0.5667 0.73333 0.68291 1.5163 0.34961 2.3496-0.5 0.93333-0.8333 1.6504-1 2.1504l-0.14844 0.29883c-0.3667 0.9-0.6167 1.2663-0.75 1.0996-0.067-0.1-0.36709-0.38294-0.90039-0.84961-0.4-0.33333-0.58408-0.73255-0.55078-1.1992 0-0.0828-0.0333-0.13732-0.0312-0.21875 0.012-0.0122 0.0253-0.0264 0.0312-0.0312 0.061-0.13568 0.0936-0.25196 0.0996-0.34961v-0.0508c0.079-0.77964-0.12504-1.589-0.55274-2.4199-0.059-0.15846-0.16572-0.28346-0.23632-0.4336-0.2412-0.39272-0.52886-0.78941-0.88086-1.1934-0.2303-0.26999-0.34301-0.62239-0.62891-0.85351-0.1125-0.0895-0.19203-0.0522-0.30273-0.13477-1.0105-0.92942-2.0596-1.4273-3.1484-1.4648h-0.0488c-0.026 1.2e-4 -0.0453 0.0153-0.0703 0.0176-0.1152-0.0108-0.26846-0.16797-0.38086-0.16797-0.7333 0-1.0667 0.44961-1 1.3496 0 2.5333 0.71709 4.3667 2.1504 5.5 0.1122 0.0946 0.30738 0.0869 0.42578 0.17383 0.6944 0.54438 1.5244 0.96411 2.5254 1.2266h0.34961c0.031-4.6e-4 0.054-0.0184 0.084-0.0215 0.25329 0.0518 0.39741 0.2386 0.66601 0.27149 0.6 0.0667 1.2337 0.66745 1.9004 1.8008 0.1 0.13333 0.0832 0.35039-0.0508 0.65039-0.1667 0.3-0.28291 0.53255-0.34961 0.69922-0.1667 0.36667-0.68408 1.3008-1.5508 2.8008-0.6667 1.1333-1.1337 2.0984-1.4004 2.8984-0.1 0.4-0.23174 0.55117-0.39844 0.45117-0.7667-0.33333-1.0671-0.69961-0.90039-1.0996 0.2333-0.66666 0.24883-1.3508 0.0488-2.0508-0.072-0.2354-0.30014-0.64454-0.46094-0.97852-0.01-0.0124-0.0116-0.0247-0.0176-0.0371-0.1318-0.27115-0.18209-0.45078-0.37109-0.78516-0.9333-1.7667-2.5496-3.1-4.8496-4-0.3667-0.13333-0.7-0.0151-1 0.35156-0.3333 0.33333-0.46709 0.75-0.40039 1.25 0.2 1.7 0.45 2.8667 0.75 3.5 0.1456 0.3288 0.41379 0.45777 0.58789 0.74024 0.041 0.0678 0.07 0.14261 0.11328 0.20898 0.032 0.0509 0.0646 0.10132 0.0996 0.15039v0.0488c0.2706 0.39872 0.59235 0.73421 0.93945 1.0391 0.2204 0.18394 0.42929 0.38603 0.67578 0.52734 0.6433 0.40237 1.3876 0.68115 2.2344 0.83399h0.15039c0.1173-3e-3 0.2142-0.0451 0.3125-0.0859 0.053 1e-3 0.083 0.0371 0.13672 0.0371 0.4333 0 0.78408 0.2655 1.0508 0.79883s0.28213 1.0333 0.0488 1.5l-2.75 5.5508c-1.4333 2.5333-2.4488 4.45-3.0488 5.75-0.8667 1.4333-1.5004 2.5322-1.9004 3.2988-0.2 0.4-0.3667 0.53372-0.5 0.40039-0.4-0.4-0.4833-0.74883-0.25-1.0488 0-4e-3 8e-4 -0.0132 0-0.0176 0.1906-0.11714 0.33808-0.27971 0.39648-0.5332 0.1962-0.83022 0.27096-1.6286 0.25586-2.4023 0.01-0.25073 0.16253-0.37835 0.14454-0.64844-0.055-0.46946-0.28407-0.88648-0.41797-1.332 0-0.0157-0.01-0.0312-0.0137-0.0469-0.4407-1.4343-1.1581-2.7846-2.4199-3.9707-0.4667-0.4-0.86592-0.56667-1.1992-0.5-0.1113 0.0371-0.10222 0.18767-0.19921 0.23828-0.034-7e-3 -0.068-0.0361-0.10157-0.0371-0.2273 0.0167-0.42691 0.0651-0.59961 0.14844h0.0508c-0.1952 0.1444-0.31151 0.3789-0.3496 0.70117-0.02 0.14084-9e-3 0.27438-0.0215 0.41406 0 0.0177-0.0263 0.0172-0.0293 0.0352-0.036 0.17853 0.02 0.3872 0 0.57031-0.023 0.4581-0.0378 0.91409-0.01 1.3594 0.076 1.2999 0.34989 2.6639 1.0586 4.1699 0.083 0.19064 0.35286 0.36024 0.47266 0.54687 0.1 0.16609 0.16764 0.34006 0.27734 0.50391 0.1144 0.12468 0.24517 0.20702 0.38477 0.26562 0.278 0.29247 0.38837 0.60331 0.76367 0.88477 0.5333 0.36667 0.83369 0.88216 0.90039 1.5488 0.067 0.66666-0.083 1.2674-0.44922 1.8008l-4.3496 6.1504c-1.4 2.1333-2.3167 3.4337-2.75 3.9004l0.54883 0.34961c0.3667-0.43333 0.88408-1.0845 1.5508-1.9512 0.6333-0.73333 1.2321-1.2818 1.7988-1.6484 0.3-0.2 0.6333-0.35117 1-0.45117 0.5667-0.16667 1.4349-0.39922 2.6016-0.69922 2.4333-0.93333 3.8829-1.5012 4.3496-1.7012 0.5-0.23333 1.2655-0.56667 2.2988-1 0.9-0.4 1.6171-0.78177 2.1504-1.1484 0.7-0.46666 1.4171-0.73411 2.1504-0.80078 0.6-0.0667 1.35-7.8e-4 2.25 0.19922 1.3 0.23333 3.5171 0.31667 6.6504 0.25 0.2333-0.0333 0.41553 0.0849 0.54883 0.35156 0.1667 0.33333 0.30039 0.53294 0.40039 0.59961 0.1056 0.0611 0.36709 0.0703 0.49219 0.125 0.1207 0.0957 0.25092 0.22158 0.35742 0.27539 0.5566 0.16993 1.1682 0.2518 1.8144 0.27734 0.123 0.0152 0.15741 0.0593 0.28711 0.0723 0.7333 0.0667 1.4988-0.0341 2.2988-0.30078 0.1667-0.0667 0.85078-0.34961 2.0508-0.84961 0.096-0.0391 0.12775-0.15245 0.21875-0.19727l0.83008-0.40234c0.034-8e-3 0.0508-8e-3 0.0508 0 0.2103-0.0899 0.34399-0.22357 0.40039-0.40039 0.061-0.13216 0.0283-0.25487 0.0293-0.38086 0.146-0.18754 0.40123-0.24904 0.51953-0.46875 0.3333-0.7 0.068-1.2329-0.79883-1.5996-0.099-0.0411-0.24801 0.0103-0.34961-0.0254-0.17-0.087-0.31478-0.1947-0.55078-0.22461-0.042-3e-3 -0.093-3e-3 -0.15039 0-0.3475-0.10333-0.7642-0.15372-1.25-0.15039-0.5507-4.2e-4 -1.0908 0.0458-1.623 0.12305-0.1228 0.0183-0.20077-0.0465-0.32617-0.0234-0.2088 0.0369-0.2403 0.13861-0.4375 0.17969-1.1652 0.25583-2.29 0.67946-3.3633 1.3203-0.04 0.0262-0.0519 0.0666-0.0859 0.0957-0.2087 0.14698-0.69978 0.19-0.86328 0.35352-0.1667 0.16667-0.44961 0.25-0.84961 0.25-2.3 0-4.6334-0.14922-7-0.44922-0.033 0-0.1167-0.0659-0.25-0.19922-0.033-0.2 0.083-0.26784 0.34961-0.20117l8-6.2988 0.15039-0.0508c0.5293 0.29642 1.0215 0.0997 1.5234 0.0332 0.027 2e-3 0.0482 0.0173 0.0762 0.0176 0.033 1.2e-4 0.0579-0.0136 0.0899-0.0156 0.23229-0.0494 0.48238 0.1437 0.70898 0.0156 0.4667-0.26667 1.0849-0.75117 1.8516-1.4512 1.0902-0.79289 1.8289-1.7334 2.3887-2.75h0.01c0.381-0.56251 0.57418-1.1511 0.67578-1.752 0.038-0.15788 0.14828-0.28508 0.17578-0.44727 0.032-0.21398-0.12179-0.26704-0.11719-0.45703 0-0.0828 0.0246-0.16069 0.0156-0.24414v-0.0488c-0.01-0.0831-0.0376-0.19935-0.0996-0.34961-0.031-0.0644-0.0468-0.13229-0.0488-0.20117 0-0.0695 0.0178-0.13542 0.0488-0.19922 0.116-0.25235 0.10067-0.48685-0.0488-0.70117-0.01-0.0167-0.0268-0.0322-0.0508-0.0488-0.1538-0.29333-0.38632-0.4445-0.69922-0.45117h-0.0508c-0.033 3e-3 -0.0656 3e-3 -0.0996 0l-0.25-0.0488c-0.1404 0.0134-0.27409 0.0638-0.40039 0.15039h-0.0527c-0.3478 0.17247-0.65927 0.3774-0.98047 0.57422-0.072 0.0393-0.093-0.019-0.16797 0.0254-1.9 1.1-3.2179 2.4159-3.9512 3.9492-0.2368 0.58022-0.22963 0.68608-0.39063 1.1191l-0.4082 0.93164c-0.061 0.14213-0.0478 0.2607-0.0508 0.38477-0.046 0.16603-0.2349 0.60893-0.25 0.71484-0.033 0.36667-0.2833 0.71745-0.75 1.0508-0.5667 0.4-0.9833 0.69844-1.25 0.89844l-2.6992 2.1016c-0.4667 0.43333-1.8834 1.4159-4.25 2.9492-2.0667 1.3333-3.7334 2.3004-5 2.9004-3.7 1.6333-6.3512 2.6837-7.9512 3.1504l-1.1504 0.44922 3.5-5.0508c1.4333-2.0667 3.35-5.2992 5.75-9.6992 0.5-0.96667 1.1841-2.4492 2.0508-4.4492 0.1333-0.3 0.40078-0.45117 0.80078-0.45117 0.6 0.0333 0.91592 0.0508 0.94922 0.0508 1.4311-0.37967 2.65-0.30578 3.7226 0.082 0.5364 0.37994 1.1716 0.61828 1.9766 0.61719 0.2646-7.2e-4 0.5648-0.0787 0.8457-0.11523 1.2539-4e-3 2.5808-0.28676 4.0547-1.1348 1.0561-0.62406 1.5698-1.1735 2.125-1.7285 0.258-0.19148 0.52349-0.36462 0.77539-0.57031 0.1792-0.16146 0.27998-0.34557 0.30078-0.55078v-0.0508c0.014-0.0753-0.0456-0.13483-0.0566-0.20508 0.072-0.25011 0.27358-0.57295 0.20508-0.74414-0.1333-0.33333-0.6333-0.56589-1.5-0.69922-0.4264-0.0524-0.66189 0.0771-1.0547 0.0566-0.2941-0.0549-0.59191-0.10639-0.94531-0.10742-0.6489 2e-3 -1.3294 0.10684-2.0274 0.26562-0.19 0.0442-0.49557-0.022-0.67187 0.0352-1.3839 0.40703-2.4244 0.98119-3.2988 1.6367-0.3092 0.21482-0.64109 0.41367-0.90039 0.66211-0.1017 0.10974-0.16173 0.23985-0.20703 0.37695-0.095 0.11754-0.26055 0.20099-0.34375 0.32422-0.1667 0.26667-0.4167 0.39844-0.75 0.39844-0.4667 0.0333-0.74961 0.0682-0.84961 0.10156-0.3 0.16667-0.9667 0.31589-2 0.44922h-0.30078c0.1333-0.46667 0.26709-0.83294 0.40039-1.0996 0.2667-0.56667 1.5167-2.933 3.75-7.0996 0.1333-0.3 0.51709-0.48411 1.1504-0.55078 1.2333-0.0667 2.2488-0.28372 3.0488-0.65039 0.3333-0.16667 0.63369-0.16667 0.90039 0 0.05 0.0298 0.14728 0.0959 0.20898 0.13477 0.063 0.0558 0.10281 0.12862 0.19141 0.16601 0.025-9e-3 0.0428-9e-3 0.0508 0 0.01 5e-3 0.0232 5e-3 0.0332 0.01 0.08 0.0525 0.1238 0.0786 0.2168 0.14062 0.1333 0.0395 0.26173 0.0232 0.39453 0.0566 0.5659 0.17448 1.1703 0.29326 1.8555 0.29297 0.027 1e-5 0.0531-0.0115 0.0801-0.0117 0.9876 0.029 1.9638-0.0699 2.9199-0.38867 0.3568-0.13187 0.62444-0.461 0.96484-0.62891 0.1787-0.0868 0.35596-0.12222 0.53516-0.2207 0.6656-0.3986 1.2652-0.83409 1.8066-1.3027 0.2624-0.22268 0.5917-0.29673 0.8418-0.54688 0.9-0.9 1.2179-1.7178 0.95117-2.4512-0.2333-0.73333-1.0163-1.0492-2.3496-0.94922-1.3667 0.0333-2.1671 0.0663-2.4004 0.0996-0.9 0.1-1.6829 0.33255-2.3496 0.69922-0.089 0.0532-0.12374 0.13134-0.21094 0.18555-0.8104 0.37088-1.5821 0.83633-2.2891 1.4648-0.076 0.0672-0.17668 0.10014-0.30078 0.0996 0.079 0.059 0.013 0.2431-0.19922 0.55078l-0.10156 0.19922c-0.01 2.7e-4 -0.0228 0.0177-0.0488 0.0508-0.058 0.0899-0.0588 0.19877-0.0918 0.29688-0.1218 0.14821-0.34748 0.24951-0.45898 0.40234-0.2333 0.33333-0.63252 0.56784-1.1992 0.70117l-1.3419 0.34925c-0.6 0.1-1.0516 0.18333-1.3516 0.25l-0.64844 0.0996 0.19922-0.65039c1.4667-2.6333 2.3329-4.4822 2.5996-5.5488 0.2333-0.83333 0.65-1.4496 1.25-1.8496 0.4333-0.33333 1.0845-0.60078 1.9512-0.80078 0.2049-0.0586 0.48166-0.0252 0.78906 0.0449 0.1056 0.10127 0.23666 0.17601 0.41016 0.20508 0.033 7e-3 0.0498 0.0249 0.0508 0.0508 0.479 0.10267 0.99453 0.15111 1.5488 0.14844 0.5067-1.7e-4 1.0006-0.0862 1.4902-0.20313 0.3418-0.083 0.68274-0.21022 1.0234-0.36718 0.2958-0.12363 0.59742-0.21051 0.88672-0.37891h-0.0508c0.4515-0.2846 0.9597-0.68418 1.5-1.1504 0.4117-0.35521 0.83758-0.73858 1.3008-1.1992 0.068-0.0911 0.13447-0.36507 0.20117-0.60351 0.1118-0.17841 0.43995-0.43996 0.49805-0.59766 0.2-0.53333 0.15156-0.93255-0.14844-1.1992-0.1667-0.13333-0.48447-0.26706-0.95117-0.40039-0.2266-0.0537-0.54771 0.12911-0.78711 0.10742-0.2015-0.0378-0.36588-0.10635-0.61328-0.10742-0.8265 3e-3 -1.6911 0.22128-2.5742 0.54101-0.1576 0.0584-0.26448-9e-3 -0.42578 0.0586-0.1387 0.0623-0.24967 0.18048-0.38477 0.25-0.09 0.0414-0.17367 0.057-0.26367 0.10156-1.2466 0.66029-2.2815 1.5091-3.1016 2.5488l-0.0488 0.0508c-0.1682 0.18923-0.22098 0.38411-0.20898 0.58399-0.043 0.0633-0.098 0.10137-0.14063 0.16601-0.1333 0.16667-0.3833 0.33333-0.75 0.5-0.7 0.3-1.0683 0.46667-1.1016 0.5 0.067-0.16667 0.45039-1.1163 1.1504-2.8496 0.4667-1.0667 0.78447-1.9678 0.95117-2.7012 0.1499-0.59985 0.62231-1.0915 1.2578-1.5293 0.013-5e-3 0.034-0.0212 0.041-0.0195 0.4305-0.17645 0.85474-0.5229 1.2734-0.95508 0.1454-0.1095 0.52127-0.33058 0.57617-0.39648 0.1604-0.19479 0.19905-0.55698 0.34375-0.77344 0.3731-0.56587 0.74402-1.1988 1.1074-1.9766 0.8413-1.9382 1.0079-3.6882 0.5-5.25-7e-4 -3e-3 0-4e-3 0-8e-3l-0.14648-1.0918c-0.033-0.43333-0.25039-0.56706-0.65039-0.40039-0.5052 0.14968-1.1154 0.72132-1.6836 1.123-0.2886 0.0823-0.5396 0.19717-0.7168 0.37695l-0.29687 0.29883c-0.1088 0.0994-0.19183 0.0936-0.30273 0.20117-0.1167 0.1135-0.0831 0.21359-0.18946 0.32617-0.6918 0.73461-1.1731 1.3864-1.3594 1.9238v0.0509l-0.10157 0.25v-0.0508c-0.056 0.18852-0.0496 0.32475-0.0976 0.50586-0.022 0.11113-0.19087 0.23566-0.20117 0.3457-0.026 0.21818 0.0453 0.34016 0.0273 0.55078-0.25208 1.3226-0.31263 2.4823-0.0273 3.3477 0.05 0.10904 0.13848 0.14777 0.20508 0.22656 0.052 0.2712-0.0281 0.67377 0.0449 0.92383 0.067 0.3-0.034 0.73411-0.30078 1.3008-0.4 0.66667-0.66553 1.1667-0.79883 1.5l-1.75 4.4004c-0.1333 0.23333-0.23408 0.28177-0.30078 0.14844l-1.1992-2.5488c-0.4333-0.96667-0.71827-1.8329-0.85157-2.5996-0.067-0.36667 0.017-0.83372 0.25-1.4004 0.3333-0.83333 0.51749-1.3004 0.55079-1.4004 0.4333-1.4333 0.4333-2.9663 0-4.5996-0.1283-0.58444-0.37944-1.0618-0.55664-1.6035-0.1968-0.83461-0.43775-1.5629-0.74415-2.1465-0.29999-0.73333-0.59843-1.2004-0.89843-1.4004-0.5-0.33333-0.81787-0.76745-0.95117-1.3008-0.067-0.3-0.0818-0.83294-0.0488-1.5996 0.067-0.73333 0.11514-1.8496 0.14843-3.3496 0-0.7 0.11827-1.5663 0.35157-2.5996 0.3333-1.4 0.51553-2.2508 0.54883-2.5508l0.8496-4.4004c0.3333-1.8333 1.2016-3.0484 2.6016-3.6484 0.1667-0.0667 0.5-0.35156 1-0.85156 0.3667-0.4 0.7833-0.59961 1.25-0.59961h0.0488c1.2094 0.0318 2.533 0.40425 3.9551 1.0742 0.015 4e-3 0.0299 0.022 0.0449 0.0254 0.012 4e-3 0.0212 2e-3 0.0332 6e-3 0.04 0.0193 0.077 0.0251 0.11719 0.0449 0.9667 0.5 2.1508 0.61628 3.5508 0.34961 1.6-0.26667 2.6329-0.93334 3.0996-2 0.2667-0.56667 0.2667-1.0996 0-1.5996-0.1129-0.20075-0.28158-0.33607-0.45118-0.4707v-0.0294c-0.012-9e-3 -0.029-5e-3 -0.041-0.0137-0.2736-0.20136-0.59531-0.34743-1.0078-0.38672-1.2333-0.0667-2.9833 0.29961-5.25 1.0996-0.1333 0.0333-0.3 0.15156-0.5 0.35156-0.028 0.0331-0.0677 0.0454-0.0977 0.0762-0.073 0.0306-0.12912 0.0407-0.20312 0.0723h-0.0508l-0.15036 0.0507h0.0508c-0.20199 0.0842-0.35439 0.20846-0.46289 0.36914-0.1727 0.0547-0.33881 0.11985-0.53711 0.13086-0.73329-0.0667-1.2817-0.0841-1.6484-0.0508l-0.5 0.10156 0.2949-0.55076c0.5-0.73333 1.0679-1.7837 1.7012-3.1504 0.079-0.17698 0.27867-0.36818 0.54297-0.56836 0.3624-0.0249 0.69966-0.17429 1.0059-0.48047 0.4756-0.45346 0.84924-0.87082 1.2441-1.2949 0.8187-0.75425 1.4734-1.489 1.7871-2.1816 0.048-0.0717 0.12502-0.15406 0.16992-0.22461 0.1-0.16667 0.14844-0.34883 0.14844-0.54883v-0.10156l0.0254-0.125c0.092-0.29167 0.24209-0.675 0.27539-0.875 0.01-0.0729-0.01-0.13235 0-0.20313 0.035-0.21083 0.036-0.42711 0-0.64648 0-7e-3 -0.01-0.0125-0.01-0.0195-0.052-0.33847-0.15514-0.65263-0.33984-0.92969-0.3-0.46667-0.86787-0.63333-1.7012-0.5-0.8 0.13333-1.3988 0.46667-1.7988 1-1.2129 1.7489-1.8176 3.2442-1.8848 4.5156-0.061 0.3566-0.13471 0.70377-0.16601 1.084v0.0508c-0.023 0.31959 0.04 0.57499 0.14258 0.80078-0.051 0.39025-0.14647 0.77409-0.29297 1.1484-0.2 0.46667-0.59922 1.1333-1.1992 2-1.1 1.6-2.2008 2.7492-3.3008 3.4492-0.067-0.26667 0.2667-1.3984 1-3.3984 0.1333-0.53333 0.43369-1.3667 0.90039-2.5 0.4667-1.0667 0.74961-1.9 0.84961-2.5 0.1333-0.63333 0.48408-1.5345 1.0508-2.7012l1.7502-5.3497c0.3-0.9 0.76709-2.2663 1.4004-4.0996 1.3667-4.5999 2.0333-8.5167 2-11.75 0-2.5333-0.35078-4.6012-1.0508-6.2012-0.5667-1.3-1.9-2.833-4-4.5996-0.3333-0.13333-0.56592-0.23216-0.69922-0.29883-0.7333-0.23333-1.1829-0.71784-1.3496-1.4512-0.067-0.4-0.13447-1.0163-0.20117-1.8496-0.1-0.63333-0.28213-1.5674-0.54883-2.8008-0.2-1.0667-0.25039-2.0163-0.15039-2.8496 0.1-1.2333 0.31709-2.2159 0.65039-2.9492 0.4333-0.93333 1.1329-1.6504 2.0996-2.1504 1-0.56667 1.9496-0.61706 2.8496-0.15039 0.9333 0.43333 1.4663 1.2163 1.5996 2.3496 0.1 0.63333 0.15039 1.0016 0.15039 1.1016 0 0.43333-0.11631 0.81511-0.34961 1.1484 0.033 0.16667 0.0488 0.30039 0.0488 0.40039 0.4333-0.16667 0.66787-0.30039 0.70117-0.40039 0.5667-0.86667 0.53409-1.9984-0.0996-3.3984-0.6333-1.4-1.5016-2.2178-2.6016-2.4512-0.35-0.075-0.69541-0.10801-1.0371-0.0996zm-31.162 7.25c-0.9667 0.23333-1.4841 1.0841-1.5508 2.5508-0.1 1.4333-0.017 2.7163 0.25 3.8496 0.4333 1.9 1.0167 3.3496 1.75 4.3496 0.4333 0.63333 0.45048 1.1004 0.0508 1.4004-0.5667 0.2-0.95039 0.38216-1.1504 0.54883-1.3 0.76666-2.2496 1.3674-2.8496 1.8008-0.2674 0.19103-0.54859 0.27592-0.83789 0.30273-0.1595-0.19144-0.35123-0.32986-0.61133-0.35351h-0.70117c-0.2221 0-0.43199 0.0404-0.65039 0.0527-0.044-2e-3 -0.092 0.0122-0.13672 0.0117-0.4072 0.028-0.81458 0.0537-1.209 0.125-0.036 8e-3 -0.068 3e-3 -0.10352 0.0117-0.05 8e-3 -0.24454 0.0787-0.30664 0.0918-0.5364 0.11917-1.0622 0.27347-1.5742 0.47461-0.3113 0.10178-0.38233 0.0969-0.76953 0.23242-1.3333 0.5-2.3488 1.3178-3.0488 2.4512-0.5667 0.96667-0.55117 1.7496 0.0488 2.3496 0.5333 0.56667 1.3163 0.70039 2.3496 0.40039 1.9333-0.53333 4.1834-2.0178 6.75-4.4512 0.5333-0.5 1.5004-1.1163 2.9004-1.8496l2.0996-1.2988 0.20117-0.0508c0.2333 0.53333 0.33213 0.91706 0.29883 1.1504-0.1 0.8-0.11553 1.7496-0.0488 2.8496 0.1333 1.2333 0.2167 2.1674 0.25 2.8008 0.1 1-0.25078 1.7829-1.0508 2.3496l-4.0488 2.5c-0.1266 0.10126-0.30984 0.10815-0.49414 0.11328-0.082-0.0274-0.15966-0.0644-0.25586-0.0644h-0.0508l-0.84961-0.0996h-0.5c-1.3333 0.33333-2.4012 0.71706-3.2012 1.1504v0.0508c-0.01 5e-3 -0.0164 0.0124-0.0254 0.0176-0.644 0.34034-1.2981 0.73283-1.9746 1.2324-0.8667 0.63333-1.2659 1.6818-1.1992 3.1484 0.067 0.83333 0.51631 1.3508 1.3496 1.5508 0.4667 0.1 0.93369 0.0671 1.4004-0.0996 0.2-0.1 0.6167-0.31706 1.25-0.65039 2.0333-1.0333 3.5159-2.6167 4.4492-4.75 0.1333-0.26667 0.3833-0.54961 0.75-0.84961 0.2333-0.13333 0.58408-0.35039 1.0508-0.65039l2.8008-2.0508 0.14844-0.14844 0.45117-0.30078 0.0996 0.5 0.34961 8.9004c0 0.66667-0.4167 1.3004-1.25 1.9004-0.1333 0.0667-0.68369 0.48334-1.6504 1.25-0.6667 0.53333-1.2655 0.89961-1.7988 1.0996-0.2458 0.0922-0.61635 0.14806-1.0606 0.18359-0.03-5e-3 -0.0598-0.0332-0.0898-0.0332l-1.5 0.25c-0.2007 0.0615-0.32953 0.16135-0.51953 0.22852-2.2612 0.70858-3.8338 1.847-4.6309 3.4707-0.4 0.9-0.24883 1.6674 0.45117 2.3008 0.4667 0.36667 1.1817 0.41511 2.1484 0.14844 1.0333-0.36667 1.9849-1.0333 2.8516-2 0.4333-0.5 1.1155-1.4496 2.0488-2.8496 0.2667-0.36667 0.86748-0.81628 1.8008-1.3496l2.75-2.25 0.25-0.15039 0.0488 0.30078-0.14844 7.7988c0.2 1.1333 0.21748 2.0016 0.0508 2.6016-0.067 0.23333-0.13252 0.36511-0.19922 0.39844-2 1.3333-3.5175 2.2674-4.5508 2.8008-0.1598 0.0799-0.46893 0.0853-0.79883 0.0801-0.068-0.0263-0.11967-0.0638-0.20117-0.0801v-0.0508l-0.25-0.0488h-0.29883c-0.1836 0.0238-0.33336 0.0774-0.50976 0.10742-0.014-4.2e-4 -0.0828-8e-3 -0.0937-8e-3 -1.8333 0-3.3992 0.68412-4.6992 2.0508-0.5 0.5-0.80039 0.83333-0.90039 1-0.3 0.46667-0.39883 0.94922-0.29883 1.4492 0.1667 0.73333 0.5833 1.1674 1.25 1.3008 0.6333 0.16667 1.3484 0.0659 2.1484-0.30078 0.911-0.39711 1.8234-1.2081 2.7344-2.2109 0.1956-0.2041 0.38186-0.42842 0.56836-0.65429 0.1991-0.24684 0.39846-0.40977 0.59766-0.68555 0.3333-0.43333 0.94961-0.8655 1.8496-1.2988l3-2.2012c0.2667-0.16667 0.45078-0.23255 0.55078-0.19922 0.2 0.1 0.26592 0.28411 0.19922 0.55078-0.2667 1.4667-0.31514 3.3155-0.14844 5.5488 0.1 0.93333-0.10156 1.7163-0.60156 2.3496-0.3333 0.43333-0.96514 0.93333-1.8984 1.5-1.2 0.66666-2.0333 1.2345-2.5 1.7012-0.4072 0.43853-0.95866 0.73264-1.6309 0.90625-0.0611-0.01-0.10388-0.0565-0.16998-0.0565l-0.40039 0.0508-0.7793 0.23828-0.7207 0.11133c-0.8333 0.1-1.75 0.49922-2.75 1.1992-1.0667 0.7-1.7333 1.3996-2 2.0996-0.2 0.53333-0.21553 1.0333-0.0488 1.5 0.1667 0.46666 0.46514 0.83489 0.89844 1.1016 0.7333 0.4 1.6849 0.24883 2.8516-0.45117 1.136-0.70682 2.1763-1.7898 3.1211-3.2422 0.052-0.0786 0.087-0.15357 0.13281-0.23047 0.2541-0.40439 0.50609-0.81794 0.74609-1.2773 0.1333-0.26667 0.39883-0.53216 0.79883-0.79883 0.2333-0.13333 0.58408-0.35039 1.0508-0.65039l3.3496-2.4004 0.34961-0.19922 0.15039 0.44922c-0.1667 0.3-0.23252 0.68372-0.19922 1.1504 0.067 0.5 0.0818 0.88372 0.0488 1.1504-0.1 3.9-0.1833 6.8322-0.25 8.7988-0.033 0.23333-0.16709 0.50078-0.40039 0.80078-0.3 0.36667-0.48213 0.63216-0.54883 0.79883-0.2632 0.64698-0.14187 1.1143-0.29687 1.7109-0.202 0.70573-0.33094 1.409-0.36524 2.1094-0.017 0.43121-0.29138 0.98266-0.23828 1.3809 0.2403 1.5073 0.9128 2.9265 1.7832 4.3047 0.159 0.39138 0.36452 0.6639 0.60352 0.85351 0.3174 0.42792 0.53356 0.87597 0.91406 1.291 0.2 0.2 0.31631 0.56628 0.34961 1.0996v1.3516c0.033 0.56667 0.0162 1.433-0.0508 2.5996l-0.0488 0.19922-0.25-0.0996c-1.1333-0.66667-1.9512-1.1996-2.4512-1.5996-0.1333-0.13333-0.24961-0.36784-0.34961-0.70117-0.1-0.46667-0.16592-0.73216-0.19922-0.79883-0.666-1.5386-1.6581-2.589-2.7988-3.416-0.3605-0.29048-0.73932-0.53978-1.1406-0.73829-0.1679-0.0776-0.28504-0.23129-0.46094-0.29687-0.5667-0.23333-1.0512-0.36511-1.4512-0.39844-0.1519-0.0172-0.16834 0.0806-0.30274 0.0781-0.067-6e-3 -0.12916-0.0251-0.19726-0.0293-0.054-4e-3 -0.11942-0.019-0.19922-0.0488-0.2038 0.0226-0.36255 0.14066-0.49805 0.30469-0.2541 0.12638-0.4734 0.28312-0.5625 0.54883-0.1477 0.1473-0.24553 0.33316-0.24023 0.5957 2e-4 0.34987 2e-4 0.56692 0 0.65039 0.3299 0.955 0.90034 1.8006 1.6523 2.5644 0.3949 0.45665 0.92594 0.83856 1.4609 1.2188 0.4142 0.32249 0.67518 0.59243 1.2383 0.9668 0.1014 0.0606 0.36196 0.1026 0.50586 0.1582 0.057 0.0254 0.084 0.067 0.14258 0.0918 0.066 0.0274 0.12931-0.0106 0.19531 0.0137 0.2576 0.0781 0.40346 0.16932 0.75586 0.23633l0.90039 0.15039c0.1938-0.0187 0.35189-0.10994 0.49219-0.23633 0.1673-0.0264 0.34161 0.0827 0.50781 0.0352 0.2-0.0667 0.5333 0.0671 1 0.40039 0.5667 0.43333 0.96592 0.68333 1.1992 0.75 0.5667 0.2 0.93291 0.53333 1.0996 1 0.067 0.23333 0.0996 0.73333 0.0996 1.5 0 1-0.066 2.3333-0.19922 4-0.1667 1.9667-0.26748 3.3174-0.30078 4.0508 0 0.13333-0.066 0.39883-0.19922 0.79883l-3.0508-1.8497c-0.4333-0.2-0.7667-0.59922-1-1.1992-0.3667-0.83333-0.59922-1.3178-0.69922-1.4512-0.9333-1.3-1.7163-2.2322-2.3496-2.7988-0.1016-0.088-0.23584-0.0774-0.33984-0.1582-0.4905-0.39453-1.0181-0.72745-1.6113-0.94336-0.064-0.0161-0.12982-0.0491-0.19922-0.0996-0.2678-0.19467-0.53528-0.2935-0.80078-0.29883-0.036 3e-3 -0.12087 0.0446-0.16797 0.0566-0.084-0.0148-0.14557-0.0959-0.23047-0.10742-0.4574-0.0704-0.55566 0.0825-0.81836 0.13281-0.1052-0.0554-0.20443-0.12227-0.33203-0.13281l-0.30078 0.0508c-0.3245 0.0629-0.52411 0.278-0.59961 0.64844-0.2277 1.2277 0.20638 2.5281 1.3008 3.9004h0.0488c0.05 0.063 0.11286 0.11221 0.16406 0.17383 0.2763 0.37061 0.59941 0.6931 0.94141 0.99609 0.4597 0.41764 0.95224 0.7998 1.4941 1.1309 0.054 0.0305 0.1047 0.0394 0.1582 0.0684 0.017 8e-3 0.026 0.0236 0.043 0.0312 0.051 0.0248 0.088 0.0251 0.13867 0.0488 0.6434 0.3295 1.2696 0.53612 1.8809 0.65234 0.149 0.0312 0.2912 0.0466 0.4336 0.0645 0.1811 0.0197 0.36867 0.0835 0.54687 0.084h0.40039c0.1285-0.0268 0.21941-0.086 0.32031-0.13672 0.1012-0.0209 0.23163 0.0165 0.32813-0.0137 0.3-0.1 0.65078 7.8e-4 1.0508 0.30078 0.5667 0.43333 0.91748 0.66589 1.0508 0.69922 0.2667 0.1 0.6833 0.28411 1.25 0.55078 0.7 0.13333 0.96553 0.61589 0.79883 1.4492-0.8667 4.3666-1.3163 6.6845-1.3496 6.9512-0.1 0.6-0.31709 0.85-0.65039 0.75-0.4-0.23333-0.68291-0.36706-0.84961-0.40039-0.6333-0.26667-1.1159-0.46628-1.4492-0.59961-0.4667-0.16667-0.83486-0.56784-1.1016-1.2012-0.01-0.0279-0.0154-0.0256-0.0254-0.0527-0.014-0.0326 2e-3 -0.0627-0.0215-0.0957v-0.0508c-0.1136-0.25652-0.26062-0.50408-0.42382-0.74609-0.088-0.15601-0.20335-0.48073-0.27735-0.55469-0.1222-0.12606-0.28641-0.16805-0.41211-0.28711-0.5032-0.5074-1.1305-0.97872-1.8867-1.4121-0.1616-0.1012-0.31811-0.13829-0.47851-0.22852-0.2912-0.15769-0.51697-0.44252-0.82227-0.57226-0.2764-0.11517-0.52652-0.12081-0.79492-0.20313-0.407-0.1377-0.81174-0.24507-1.2109-0.30859-0.1822-0.0229-0.36487-0.0424-0.54297-0.0488-0.1507-0.0113-0.30157-0.0385-0.45117-0.0391-0.2115-2.6e-4 -0.38759 0.0504-0.52929 0.15039-0.2881 0.0426-0.5945 0.01-0.8711 0.0996-0.3667 0.1-0.43252 0.51667-0.19922 1.25 0.09 0.21709 0.24876 0.3155 0.34766 0.51758 0.01 0.0292-0.01 0.052 0 0.082 0.2822 0.71004 0.77177 1.346 1.3555 1.9473 0.2417 0.26157 0.48946 0.51312 0.75976 0.72461 0.052 0.0405 0.082 0.0889 0.13477 0.12891 0.6252 0.40855 1.2682 0.70007 1.9238 0.91016 0.1753 0.0514 0.29346 0.20253 0.47656 0.24023 0.9667 0.2 2.1663 0.29883 3.5996 0.29883 0.5667 0.0333 1.2179 0.23489 1.9512 0.60156 0.1333 0.0333 0.78252 0.38216 1.9492 1.0488 0.1 0.0333-0.034 0.61667-0.40039 1.75-0.5667 1.8333-0.99883 3.2171-1.2988 4.1504-0.5333 1.5667-1.0837 2.9-1.6504 4l-1.7012 3.3008c-1.4333-1.8-2.2317-2.8174-2.3984-3.0508-0.1-0.13333-0.052-0.48412 0.14844-1.0508 0.031-0.19028-0.10866-0.35613-0.10156-0.54297-1e-4 -2e-3 0-4e-3 0-6e-3v-0.1502c-3e-4 -0.40495-0.051-0.73828-0.15039-1-0.032-0.0965-0.083-0.1771-0.11719-0.27148-0.1-0.32054-4e-5 -0.66888-0.18164-0.97852-0.2004-0.38247-0.67937-0.85109-1.0391-1.2832-0.1268-0.16795-0.25709-0.33292-0.39649-0.49024-0.1885-0.20227-0.24434-0.36386-0.46484-0.57617-0.063-0.0592-0.15445-0.051-0.21875-0.10742-0.4766-0.42404-0.99223-0.81464-1.582-1.1426-0.1355-0.0854-0.33511-0.15324-0.59961-0.20117h-0.0508l-0.10157-0.0488h-0.25l-0.20898 0.0352c-0.2493-0.0651-0.42846-0.29866-0.68945-0.33594-0.1978-0.0264-0.29378 0.12191-0.45508 0.1582-0.054-0.0109-0.086-0.06-0.14649-0.0586-0.1682 3e-3 -0.30004 0.0382-0.39843 0.10156-0.023 0.0197-0.058 0.0352-0.10157 0.0488-0.1853 0.1013-0.31704 0.25247-0.39843 0.45117-0.046 0.22995-0.0292 0.47995 0.0508 0.75l0.58593 1.4824c0.099 0.30956 0.11408 0.34035 0.26368 0.81641 0.2333 0.83333 0.50078 1.5 0.80078 2 0.2829 0.45259 0.769 0.8413 1.2207 1.2402 0.079 0.0838 0.14622 0.18019 0.22852 0.25977h0.0273c0.2319 0.18445 0.47003 0.36678 0.74023 0.53906 0.1744 0.1272 0.24917 0.20609 0.48047 0.36133l0.30078 0.19922c0.1811 0.0884 0.36519 0.13879 0.55079 0.15039l0.0527-8e-3c0.3827 0.18079 0.66236 0.39456 1.0977 0.55859 0.4667 0.16667 0.8833 0.5 1.25 1 0.2333 0.3 0.55117 0.74961 0.95117 1.3496 0.6333 0.7 0.73213 1.3667 0.29883 2-0.6333 0.7-1.05 1.2329-1.25 1.5996-0.6 1-1.8151 2.75-3.6484 5.25-0.1 0.16667-0.28408 0.11628-0.55078-0.15039l-4.9491-5.1991c-1.3333-1.4-2.5175-2.7004-3.5508-3.9004-0.1667-0.2-0.21709-0.45-0.15039-0.75 0.033-0.2 0.10117-0.53333 0.20117-1v-0.90039c0-0.36667-0.035-0.66511-0.10156-0.89844l0.10156-0.20117c0.2093-0.0837 0.28198-0.35345 0.45508-0.48633 0.2271-0.0796 0.42252-0.21294 0.54492-0.46289 0.029-0.0697 0.0374-0.1228 0.0644-0.19141 0.1046-0.16734 0.30361-0.20593 0.38281-0.4082 0.1667-0.4 0.35079-1.0512 0.55079-1.9512 0.49999-1.7667 0.23251-3.7163-0.80079-5.8496-0.3-0.73333-0.66631-1.2663-1.0996-1.5996-0.4333-0.43333-0.85-0.28411-1.25 0.44922-0.1177 0.18182-0.12071 0.20616-0.2246 0.36914-0.1006 0.0667-0.1929 0.15991-0.2754 0.28125-0.3253 0.45126-0.56306 0.92936-0.75976 1.4199-0.025 0.0475-0.12063 0.19038-0.14063 0.23047-0.044 0.0939-0.01 0.17831-0.0449 0.27149-0.1559 0.51307-0.24518 1.0477-0.26758 1.6016-0.012 0.27137-0.17751 0.56094-0.13671 0.82617 0.23329 1.3333 0.4329 2.2674 0.5996 2.8008 0.1084 0.3613 0.31228 0.61303 0.45118 0.93945 0.058 0.16533 0.085 0.28777 0.14843 0.46094v-0.0508c0.033 0.0732 0.088 0.10623 0.12891 0.16602 0.1818 0.3521 0.29908 0.77817 0.52148 1.084 0.2 0.3 0.2833 0.74961 0.25 1.3496-0.067 0.83333-0.0838 1.3663-0.0508 1.5996-0.4-0.56667-1.1655-1.5667-2.2988-3-0.9667-1.2-1.6837-2.1826-2.1504-2.9492-0.83329-1.0667-1.4167-1.8826-1.75-2.4492-0.6-0.9-1.0341-1.5841-1.3008-2.0508-0.4333-0.8-0.61552-1.55-0.54882-2.25 0.067-0.46667 0.19843-0.91628 0.39843-1.3496 0.067-0.16667 0.10157-0.41667 0.10157-0.75 0-0.16667-0.0168-0.43411-0.0508-0.80078-0.033-1.5333 0.74961-2.4326 2.3496-2.6992 0.2189-0.0304 0.42198-0.26884 0.63868-0.32812 0.75939-0.21947 1.5065-0.60535 2.2422-1.1543 0.2025-0.1557 0.41874-0.13559 0.61914-0.31836 0.087-0.0796 0.0739-0.17726 0.15625-0.25781 1.0936-1.0027 1.6812-1.9838 1.7949-2.9473 0.021-0.0864 0.13193-0.15687 0.14843-0.24414 0.2-0.96667 0.16739-1.4996-0.0996-1.5996-0.1231-0.0521-0.24614-2e-3 -0.36914-0.043-0.099-0.26264-0.27648-0.44794-0.58008-0.50781l-0.5-0.0508h-0.0508c-1.1163 0.0248-2.2256 0.54927-3.3301 1.5215-0.12359 0.10711-0.30382 0.10718-0.41992 0.22852-0.096 0.10215-0.19286 0.32295-0.28906 0.4414-0.02 0.0217-0.0405 0.0366-0.0606 0.0586-1.1931 1.2986-1.7589 2.548-1.6992 3.748v2e-3c-0.094 0.40127-0.13091 0.42831-0.25 1-0.067 0.2-0.21788 0.35117-0.45118 0.45117v-18c0.8333 0.33333 2.2345 0.88373 4.2012 1.6504 0.16649 0.0925 0.36413 0.28605 0.58203 0.54297 0.057 0.13442 0.088 0.29469 0.16797 0.40625v-0.0508c0.10059 0.10817 0.2102 0.18477 0.3125 0.28711 0.03 0.0445 0.0549 0.0664 0.0859 0.11328 1.3667 1.5 3.0683 2.4012 5.1016 2.7012 0.59999 0.0667 1.0321 0.0822 1.2988 0.0488 0.4667-0.0333 0.8833-0.18255 1.25-0.44922 1.3667-1.0667 1.2833-2.0996-0.25-3.0996-0.7-0.46666-1.5488-0.83489-2.5488-1.1016-0.5667-0.16667-1.4679-0.34883-2.7012-0.54883-0.5819-0.0831-1.2346-0.0523-1.9316 0.0488h-0.11718c-0.011 0.0113-0.0154 8e-3 -0.0254 0.0176-0.094 0.0152-0.17899 0.0147-0.27539 0.0332-0.6333 0.1-1.3659-0.0492-2.1992-0.44922-0.9-0.5-1.5841-0.83333-2.0508-1l-0.80078-0.35156c-0.4-0.13333-0.59961-0.3155-0.59961-0.54883l0.0508-0.20117c0.2-0.4 0.25039-0.9 0.1504-1.5-0.1333-0.8-0.1837-1.3-0.1504-1.5 0.033-0.4 0.033-1.183 0-2.3496 0-0.96667 0.05-1.7322 0.1504-2.2988 0.033-0.1 0.1167-0.13489 0.25-0.10156 0.93329 0.3 2.35 0.76706 4.25 1.4004 0.67939 0.18529 1.4374 0.76739 2.2598 1.668 0.3667 0.51998 0.83554 0.96895 1.4902 1.2832 0.13679 0.073 0.42996 0.12345 0.60156 0.19141 0.2103 0.10353 0.35485 0.20274 0.59765 0.30859 0.8667 0.36667 1.9829 0.58177 3.3496 0.64844 0.8333 0.1 1.7829-0.15 2.8496-0.75 0.6-0.33333 0.90039-0.86628 0.90039-1.5996-0.033-0.96667-0.59922-1.7167-1.6992-2.25-2.2663-1.0663-4.9004-1.1655-7.9004-0.29883-0.8 0.26667-1.6663 0.19883-2.5996-0.20117-1.3667-0.6-2.1341-0.91589-2.3008-0.94922l-0.75-0.20117c-1.0667-0.5-1.4833-1.6822-1.25-3.5488 0.2-1.9 0.23457-3.7508 0.10157-5.5508-0.067-0.6-0.032-1.4488 0.10156-2.5488 0.033-0.13333 0.13213-0.16823 0.29883-0.10156 0.067 0.0667 0.20039 0.15 0.40039 0.25 0.2 0.0667 0.7 0.25078 1.5 0.55078 0.6333 0.26667 1.1663 0.43333 1.5996 0.5 0.2305 0.0329 0.44457 0.18283 0.64257 0.44336 0.026 0.0343 0.0256 0.0747 0.0586 0.10742 0.019 0.0225 0.0415 0.0364 0.0605 0.0586 0.094 0.13131 0.18729 0.26426 0.33789 0.49023 1.0667 1.0667 2.1171 1.7837 3.1504 2.1504 0.9528 0.31761 1.9734 0.32395 3.0312 0.1582 0.045-5e-3 0.13022-2e-3 0.16992-8e-3 0.027-5e-3 0.0463-0.018 0.0723-0.0234 0.1941-0.037 0.37662-0.0232 0.57422-0.0762 0.8667-0.23333 1.3512-0.75078 1.4512-1.5508 0.1333-1.0333-0.43447-1.7659-1.7012-2.1992-2.2-0.86666-4.2988-1.0508-6.2988-0.55078-0.76669 0.16667-1.5671 0.0659-2.4004-0.30078-0.9333-0.53333-1.6504-0.86667-2.1504-1-0.7-0.2-1.0333-0.63216-1-1.2988 0-0.4 0.05-0.96784 0.15039-1.7012-0.1333-1.2333-0.1333-3.1326 0-5.6992 0-0.5 0.21709-0.63372 0.65039-0.40039 0.6667 0.33333 1.6492 0.81784 2.9492 1.4512 0.6314 0.33429 1.1736 0.6874 1.6602 1.0527 0.019 0.0196 0.02 0.0262 0.041 0.0469v0.0488c0.17849 0.15489 0.36372 0.27023 0.54492 0.41016 0.1463 0.13148 0.32618 0.2553 0.45508 0.39062 0.89999 0.93333 2.3651 1.4992 4.3984 1.6992 0.7333 0.0667 1.3845-0.0651 1.9512-0.39844 0.5667-0.33333 0.88252-0.80039 0.94922-1.4004 0.1-0.66667-0.10001-1.1841-0.59961-1.5508-0.1667-0.16667-0.6667-0.43216-1.5-0.79883-1.1333-0.46666-2.55-0.73411-4.25-0.80078-0.2365-0.0236-0.56632 0.0472-0.88671 0.10742l-0.11329-8e-3 -0.17773 0.043c-0.028 7e-3 -0.0413-1e-3 -0.0703 8e-3l-0.59961 0.15039-0.59961 0.14844c-0.3333 0.0333-0.73447-0.0829-1.2012-0.34961-0.5333-0.33333-0.93252-0.56589-1.1992-0.69922l-0.59961-0.34961c-0.2333-0.13333-0.43486-0.21667-0.60156-0.25-0.9-0.2-1.3496-0.90156-1.3496-2.1016l-0.0508-3.8496c0-1-0.05-1.6337-0.1504-1.9004-0.1-0.3-0.05-0.8155 0.1504-1.5488l1.5 0.59961c0.63999 0.12308 1.4623 0.55137 2.375 1.1289 0.074 0.11681 0.14743 0.23209 0.27343 0.32031 1.1412 0.86087 2.2566 1.4446 3.3496 1.8125 0.2324 0.0939 0.50137 0.24111 0.70117 0.28906 1.3271 0.30414 2.4964 0.23104 3.5254-0.17578l-0.0234 0.0254c0.016-7e-3 0.0221-0.024 0.0371-0.0312 0.2073-0.0826 0.41818-0.15802 0.61328-0.26953 0.2333-0.13333 0.43291-0.35039 0.59961-0.65039s0.23252-0.55 0.19922-0.75c-0.1465-1.0257-0.61987-1.6684-1.3848-1.9727-0.073-0.0377-0.15918-0.0634-0.23828-0.0957-0.028-8e-3 -0.0482-0.0251-0.0762-0.0312-0.071-0.0171-0.12316-0.0227-0.19336-0.0391-0.2564-0.0809-0.49474-0.17867-0.80664-0.21094l-0.57032-0.0703c-0.81179-0.14947-1.5489-0.25858-2.1289-0.2793-0.1061-3e-3 -0.19999 0.0246-0.30469 0.0254-0.038-2e-3 -0.21929-0.0254-0.24609-0.0254-1 0-1.9167 0.18411-2.75 0.55078-0.054 0.0249-0.079 0.0658-0.12696 0.0937-0.104 0.0435-0.22016 0.0574-0.32226 0.10547-0.2333 0.1-0.60156 0.0341-1.1016-0.19922-0.5667-0.33333-0.9833-0.55039-1.25-0.65039l-0.5-0.20117c-0.4667-0.13333-0.81553-0.24961-1.0488-0.34961-0.3667-0.16667-0.46748-0.53294-0.30078-1.0996 0.033-0.13333 0.084-0.51706 0.15039-1.1504 0.033-0.5 0.16709-0.89922 0.40039-1.1992 0.4-0.5 0.70039-1.1512 0.90039-1.9512 0.1-0.4 0.21631-1.1326 0.34961-2.1992 0.2667-2.2-7.8e-4 -3.8667-0.80078-5-0.7-1-1.5333-1.3837-2.5-1.1504-1 0.23333-1.5504 0.78372-1.6504 1.6504-0.4333 3.0333 0.13447 6.0333 1.7012 9 0.6333 1.1 0.35039 1.8829-0.84961 2.3496-0.8 0.33333-1.55 0.83333-2.25 1.5-0.1933 0.19324-0.42028 0.27264-0.67578 0.24805-0.1829-0.14681-0.40821-0.24805-0.72461-0.24805h-0.25c-0.7406 0.039-1.4373 0.23543-2.1094 0.51367-0.5569 0.19092-1.0926 0.44046-1.5918 0.78711-1.1333 0.8-1.9317 1.8833-2.3984 3.25-0.1 0.36667-0.0674 0.73294 0.0996 1.0996 0.1667 0.36667 0.43213 0.66706 0.79883 0.90039 0.1959 0.10883 0.41241 0.14886 0.63671 0.1582 0.057 8e-3 0.10447 0.041 0.16407 0.041 0.047 0 0.088-0.0419 0.13476-0.0469 0.082-0.0119 0.17777-0.0698 0.26367-0.0937 0.151-0.0498 0.30958-0.052 0.45118-0.1582l0.0508-0.0508c0.017-0.0111 0.0357-0.0336 0.0527-0.0449 0.1521-0.0794 0.28587-0.0934 0.44727-0.20508 1.2333-0.86667 2.4659-2.1826 3.6992-3.9492 0.3333-0.46666 0.90117-0.95117 1.7012-1.4512 0.9333-0.6 1.5321-1.0322 1.7988-1.2988l0.70117-0.5c0.2667 0.43333 0.36553 1.0322 0.29883 1.7988-0.067 1.0667-0.0818 1.7004-0.0488 1.9004 0.1 0.66667 0.14844 1.6996 0.14844 3.0996s0.035 2.4504 0.10156 3.1504c0 0.0667-0.05 0.13255-0.15039 0.19922-0.6333 0.46666-1.1179 0.81745-1.4512 1.0508-0.5667 0.43333-1.0996 0.73372-1.5996 0.90039-0.332 0.11302-0.58417 0.2336-0.88477 0.34961h-0.0156c-0.2333 0-0.43291 0.0504-0.59961 0.15039h-0.0488c-0.3901 0.16193-0.72635 0.42896-1.0938 0.63477-0.3523 0.18657-0.72831 0.37094-1.0078 0.56445-0.033 0.0208-0.0529 0.0492-0.0859 0.0703-0.2354 0.17054-0.45684 0.36758-0.68164 0.5586-0.4653 0.374-0.88197 0.77656-1.2305 1.2207-0.1603 0.18057-0.34825 0.30685-0.50195 0.5-0.072 0.1128-0.13062 0.36031-0.19922 0.50781-0.027 0.0511-0.0736 0.0907-0.0996 0.14258-0.1453 0.30677-0.15939 0.48236-0.24219 0.72656-0.034 0.11143-0.074 0.15194-0.10742 0.27344l-0.0176 0.0977c-0.028 0.1176-0.12587 0.30394-0.13477 0.40234-0.01 0.0881 0.0244 0.16159 0.0254 0.24609l-0.0253 0.15444c0.01 0.0705 0.0466 0.10838 0.0605 0.17383 0.032 0.16578 0.086 0.32437 0.16406 0.47461 0.059 0.12118 0.12739 0.23102 0.20899 0.32422 0.046 0.0566 0.061 0.12367 0.11523 0.17773 0.6333 0.56667 1.3175 0.61706 2.0508 0.15039 2.0706-1.3615 3.4995-3.2117 4.3633-5.4902 0.06-0.12694 0.1283-0.23053 0.1875-0.36133 0.032-0.0804 0.0318-0.19317 0.0488-0.28906 0.061-0.19165 0.14828-0.36289 0.20118-0.56055 0.067-0.16667 0.36513-0.34883 0.89843-0.54883 0.8333-0.56666 1.3004-0.93489 1.4004-1.1016 0.033-0.0333 0.16709-0.13216 0.40039-0.29883 0.1667 0.56667 0.23252 0.98333 0.19922 1.25-0.2667 1.9333-0.28213 3.7163-0.0488 5.3496 0.1 0.86667-0.10001 1.6341-0.5996 2.3008-0.2667 0.33333-0.83448 0.81589-1.7012 1.4492-0.3644 0.25053-0.95333 0.50142-1.6445 0.75195-0.039-0.0115-0.063-0.0457-0.10547-0.0527l-0.44922 0.10156 0.0488-0.0508c-0.6694 0.23488-1.1932 0.49248-1.7344 0.74805-0.6129 0.22245-1.134 0.45307-1.4648 0.70117-0.3224 0.22686-0.59384 0.48734-0.86914 0.74414-0.021 0.0197-0.0601 0.0368-0.0801 0.0566-0.015 0.0152-0.0241 0.0298-0.0391 0.0449-0.3252 0.31554-0.60688 0.65825-0.86328 1.0176-0.011 0.0154-0.0242 0.0314-0.0351 0.0469-0.082 0.117-0.18878 0.21813-0.26368 0.33984-0.123 0.20075-0.15915 0.40541-0.25195 0.60742-0.032 0.075-0.0668 0.14968-0.0937 0.22461-0.3085 0.76479-0.47582 1.5356-0.35352 2.3184 0.075 0.34834 0.3596 0.62247 0.75 0.85937 0.2513 0.23483 0.58563 0.35158 0.98633 0.37305 0.3872 0.0606 0.75 0.0457 1.0625-0.13281 1.4206-0.77994 2.5701-2.1516 3.4785-4.0488 0.016-0.0334 0.0309-0.0679 0.0469-0.10156 0.1613-0.34359 0.32981-0.66934 0.47461-1.0488 0.2667-0.73333 0.50117-1.2333 0.70117-1.5 0.3-0.5 0.73213-0.83333 1.2988-1 0.067-0.0333 0.26827-0.16706 0.60157-0.40039l0.94921-0.94922 0.0508 1.4492c0.033 2.0667 0.0488 3.6345 0.0488 4.7012-0.033 1.8-0.1167 3.3659-0.25 4.6992-0.033 0.26667-0.25039 0.51667-0.65039 0.75-0.4667 0.26667-0.74961 0.46628-0.84961 0.59961-0.2961 0.39483-0.7385 0.59473-1.2539 0.69727-0.1692-0.11715-0.35951-0.19727-0.59571-0.19727h-0.30078c-0.7638 0.0849-1.4616 0.35595-2.1309 0.71094-0.2678 0.13546-0.53796 0.28028-0.81836 0.5039-0.097 0.0718-0.20628 0.10737-0.30078 0.18555-0.1781 0.15031-0.26587 0.3296-0.41797 0.48828-0.1124 0.11476-0.21783 0.1846-0.33203 0.3125-0.1355 0.15633-0.19039 0.2846-0.30469 0.4336-0.071 0.10795-0.1641 0.20892-0.2246 0.32031-0.4596 0.66889-0.76954 1.2851-0.76954 1.7949-0.067 1.1333 0.28213 1.8678 1.0488 2.2012 0.4 0.2 0.8167 0.21571 1.25 0.0488 0.1225-0.0459 0.34116-0.20368 0.50586-0.29883 0.027-0.0159 0.055-0.0316 0.082-0.0488 0.1741-0.10467 0.29618-0.14737 0.51368-0.30273 1.4-1.1 2.5317-2.7492 3.3984-4.9492 0.1-0.23333 0.30157-0.46589 0.60157-0.69922 0.16669-0.13333 0.43212-0.33489 0.79882-0.60156l0.75-0.39844c-0.1 2.0333-0.15039 3.0663-0.15039 3.0996-0.033 0.46667-0.0143 1.1159 0.0527 1.9492 0.067 0.96667 0.0996 1.6178 0.0996 1.9512l0.0508 1.5996c0.1 4.1667 0.16592 6.6667 0.19922 7.5 0 3.5 0.11631 6.1163 0.34961 7.8496 0 1.2667 0.0168 2.2163 0.0508 2.8496l0.0996 1.5508c0.1 1.1667 0.15039 2.0504 0.15039 2.6504 0.033 0.4-0.033 1.3651-0.19922 2.8984v0.20117l-0.10156 0.15039-0.14844-0.10156c-0.5667-1-0.9833-1.7326-1.25-2.1992-0.5-0.86667-0.86826-1.6167-1.1016-2.25-0.1333-0.33333-0.4667-1.0659-1-2.1992-0.4-0.93333-0.68291-1.7008-0.84961-2.3008-0.033-0.2-6.9e-4 -0.46745 0.0996-0.80078 0.067-0.2 0.16748-0.48294 0.30078-0.84961 0.01-0.0351-0.01-0.0761 0-0.11133 0.1767-0.44057 0.25066-0.83972 0.19726-1.1875v-2e-3l-0.16015-0.64063c-0.094-1.0427-0.34986-2.1295-0.93946-3.3086-0.2333-0.53333-0.66553-1.1167-1.2988-1.75-0.8-0.76667-1.3-1.2996-1.5-1.5996-0.1667-0.23333-0.43409-0.29922-0.80079-0.19922-0.3333 0.0667-0.56592 0.24883-0.69921 0.54883-0.1547 0.39915-0.1114 0.73562-0.2168 1.1191l-0.084 0.18164c-0.03 0.1531-0.0141 0.28707-0.0371 0.4375-0.4007 1.922-0.35829 3.7035 0.53711 5.2129 1.1 1.8 2.2492 2.9318 3.4492 3.3984 0.1 0.0333 0.20078 0.15156 0.30078 0.35156 0.1 0.26667 0.16592 0.44883 0.19922 0.54883 0.7333 1.7333 1.3012 3.0337 1.7012 3.9004 0.7 1.4667 1.3821 2.6992 2.0488 3.6992l0.0527 0.30078-0.25-0.0508c-0.8296-0.18437-1.3922-0.6517-1.7969-1.2891v-0.01h0.0508c-0.2945-0.43096-0.64139-0.76411-0.99609-1.084-0.6188-0.68552-1.3336-1.2062-2.2539-1.3672-0.4085-0.0817-0.61569-0.07-0.96289-0.12305 0-3.7e-4 -0.0117 3.7e-4 -0.0117 0-0.6397-0.0974-1.3445-0.22656-1.7754-0.22656-0.3379-0.0112-0.59721 0.12156-0.91211 0.15234-0.3021 0.0166-0.43957 0.0173-0.88867 0.0488-0.1869 2e-3 -0.35366 0.072-0.50976 0.18555-0.1193 0.0404-0.27348 0.0165-0.38868 0.0644-0.5333 0.23333-0.7 0.54922-0.5 0.94922 0.3333 0.43333 0.51553 0.70078 0.54883 0.80078 0.037 0.0697 0.10749 0.0966 0.14649 0.16406 0.3453 0.61421 0.84191 1.1136 1.4121 1.5547 0.9642 0.81049 2.0988 1.4142 3.5918 1.5801 0.2917 0.0365 0.67022-0.0663 1.0117-0.10938 0.031 4.4e-4 0.0569 0.01 0.0879 0.01l1.6504-0.15039c0.2171-0.0396 0.3837-0.12291 0.5-0.25l0.0508-0.0488c0.033-0.0338 0.0238-0.0857 0.0488-0.12305 0.102-0.0347 0.1406-0.0401 0.25-0.0781 0.4-0.1 1.0841 0.0163 2.0508 0.34961 0.3667 0.0333 0.66709 0.21745 0.90039 0.55078l0.44922 0.90039c1.7333 2.7333 3.0841 4.7333 4.0508 6l0.25 0.44922h-0.45117l-6.4004-0.69922c-0.082 0-0.18119-0.1271-0.27539-0.21484-0.026-0.21132-0.10044-0.39703-0.27344-0.53516-0.6548-0.57202-1.3706-0.97888-2.1367-1.2441-0.25409-0.0919-0.52183-0.16547-0.80273-0.2207-0.4227-0.0844-0.85705-0.13514-1.3106-0.13477-0.1154-7e-4 -0.21863 0.0357-0.33203 0.041-0.2552 8e-3 -0.44745-0.0707-0.71875-0.041-0.2544 0.0289-0.35554 0.15735-0.58984 0.19922 0 7.9e-4 2.3e-4 -1e-3 -0.01 0-0.3102 0.0312-0.77719 0.14753-1.4004 0.34961-0.017-8e-3 -0.0318-8e-3 -0.0488 0l-0.25 0.0508c-0.1827 0.0423-0.32407 0.17589-0.45507 0.33008-0.1763 0.0983-0.49439 0.10465-0.64649 0.21875-1.2666 0.86666-1.2317 1.8182 0.10156 2.8516 1.7 1.2 3.6496 1.5159 5.8496 0.94922 0.1152-0.0266 0.66776-0.27193 0.87696-0.3457 0.1664-0.0401 0.29745-0.0576 0.47265-0.10352h0.0508l0.64844-0.15039h-0.0488c0.2646-0.0935 0.44572-0.23681 0.57032-0.41406 0.325-0.13685 0.33841-0.11781 0.72851-0.28711 0.3667-0.16667 0.83369-0.23255 1.4004-0.19922 0.3667 0 0.88408 0.0329 1.5508 0.0996l0.34961 0.0508c0.3333 0.0333 0.8333 0.11667 1.5 0.25 0.6333 0.1 1.1333 0.1 1.5 0 0.7333-0.16667 1.3167-0.0174 1.75 0.44922 0.2667 0.26667 0.58252 0.71628 0.94922 1.3496 0.8 1 2.0675 2.4845 3.8008 4.4512-1.9 0.56667-3.1325 0.9-3.6992 1-0.3186 0.0637-0.68961-0.0627-1.0996-0.33398-0.77249-0.64348-1.8542-0.96876-3.252-0.9668-0.1598 1.7e-4 -0.33144 0.0264-0.49414 0.0332-1.2722-0.0681-2.5041-6e-3 -3.6543 0.31641-1.1 0.26667-2.3171 0.81706-3.6504 1.6504-0.4667 0.3-0.6333 0.66628-0.5 1.0996s0.53252 0.8849 1.1992 1.3516c1.4333 0.9 3.1833 1.2663 5.25 1.0996 2.0333-0.13333 3.5837-0.70117 4.6504-1.7012 0.7333-0.7 1.6829-1.2659 2.8496-1.6992 0.6667-0.23333 1.6667-0.54922 3-0.94922 0.1667-0.1 0.44961 0.0996 0.84961 0.59961 1.3 1.4333 2.7012 2.7822 4.2012 4.0488l0.15039 0.10156c0.3667 0.33333 0.86671 0.93216 1.5 1.7988 0.3667 0.4 0.7 0.48333 1 0.25 0.1667-0.13333 0.36631-0.41628 0.59961-0.84961 1.9333-2.6 3.0321-4.1329 3.2988-4.5996 0.2667-0.4 0.6833-0.61706 1.25-0.65039 0.7667-0.0333 1.2183-0.0837 1.3516-0.15039 0.49-0.24502 1.0856-0.0799 1.7442 0.32227 0.072 0.0407 0.11467 0.10236 0.20507 0.1289v-0.0507c0.083 0.0183 0.14547 0.011 0.22657 0.0273 0.99039 0.47492 2.1804 0.55278 3.623 0.12305 1.5931-0.46253 2.7576-1.1591 3.6973-1.9785 0.3518-0.262 0.70373-0.50976 1.0527-0.82227l0.0508-0.0488c0.1489-0.11237 0.2323-0.26354 0.25-0.45117v-0.0488c0.043-0.1944 8e-3 -0.36107-0.10156-0.5-1e-4 -2e-3 0-2e-3 0-4e-3 0.046-0.44834-0.21205-0.781-0.71875-1.0195-0.1151-0.15749-0.26347-0.281-0.48047-0.32812l-1.5996-0.14844h-0.0508c-0.6933 8e-3 -1.3889 0.15106-2.0859 0.36133-0.67999 0.16422-1.3171 0.48324-1.9453 0.83398-0.5718 0.32467-1.1444 0.69502-1.7188 1.1543-0.069 0.055-0.099 0.12882-0.14453 0.19531-0.2869 0.27065-0.6303 0.33725-0.9043 0.6543-0.2333 0.26667-0.59961 0.45078-1.0996 0.55078l-1.2029 0.1993c-0.1 0.0333-0.13261 3.2e-4 -0.0996-0.0996 0-0.0667 0.0326-0.1345 0.0996-0.20117 1.9333-3.3333 3.4837-6.4651 4.6504-9.3984 0.2-0.46666 0.41709-1.2341 0.65039-2.3008 0.2-0.6 0.50039-0.96628 0.90039-1.0996l0.34961-0.0996c0.4667-0.0333 0.98213-0.25039 1.5488-0.65039 0.8667-0.6 1.3183-0.90039 1.3516-0.90039 0.3216-0.16081 0.79764-0.23458 1.3984-0.24023 0.081 0.0367 0.1605 0.0787 0.25 0.0898l0.5-0.0996c0.2562-0.0973 0.48181-0.2376 0.72461-0.35352 0.9956-0.32673 1.9761-0.88454 2.9258-1.9473 0.1855-0.21538 0.19747-0.42248 0.35937-0.63672 0.455-0.56291 0.87774-1.1712 1.2402-1.8633 0.072-0.17098 0.099-0.33276 0.084-0.48828 0.066-0.18513 0.26901-0.3762 0.31641-0.56055 0.2-0.73333 0.066-1.2837-0.40039-1.6504-0.033-0.0243-0.0691-8.8e-4 -0.10156-0.0234-0.1237-0.16185-0.28055-0.28177-0.49805-0.32617-0.043-0.0209-0.094-0.0383-0.15039-0.0508l-0.0996-0.0488c-0.2075-0.0517-0.3742-0.0866-0.5-0.10156l-0.25 0.0508c-0.084 0.0163-0.1661 0.0532-0.25 0.0742-0.034 7e-3 -0.0656-0.032-0.0996-0.0234-0.092 0.0314-0.14888 0.0877-0.23828 0.1211-0.4512 0.14923-0.89263 0.38933-1.3281 0.67968-0.5048 0.30789-0.92327 0.67759-1.293 1.082-0.046 0.0473-0.095 0.0682-0.14062 0.11719-0.045 0.0501-0.064 0.10583-0.10742 0.15625-0.1514 0.19012-0.36769 0.3336-0.49219 0.54297-0.1059 0.16859-0.097 0.2887-0.19336 0.45312-0.5083 0.79702-0.90691 1.6185-1.0703 2.4942-0.085 0.28208-0.33982 0.6367-0.38672 0.90234-0.067 0.33333-0.3167 0.61628-0.75 0.84961-0.6333 0.33333-0.98408 0.51745-1.0508 0.55078-0.1333 0.1-0.74961 0.48372-1.8496 1.1504l1.1504-4.7012c0.3667-1.6 0.66709-3.1659 0.90039-4.6992 0.4-2.0667 0.61709-3.4329 0.65039-4.0996 0-0.0333 0.11631-1.2174 0.34961-3.5508 0.1333-1.4 0.16591-2.5822 0.0996-3.5488-0.067-0.73333 0.15039-1.2178 0.65039-1.4512l0.65036-0.0997c0.5 0 0.94961-0.19961 1.3496-0.59961 0.3667-0.3 0.84922-0.43372 1.4492-0.40039 0.3333 0 0.8333 0.0174 1.5 0.0508 0.2118-0.0261 0.35394-0.14876 0.55664-0.1875 0.7844-0.0632 1.532-0.31344 2.2422-0.75195 0.3994-0.21539 0.72937-0.52803 1.0762-0.81641 0.039-0.0364 0.075-0.0796 0.11328-0.11719 0.5344-0.46617 1.1067-0.88147 1.5117-1.5273 0.4594-0.66818 0.6811-1.4646 0.9707-2.2246 0.1737-0.35514 0.3626-0.6351 0.5293-1.0254 0.029-0.0664-0.011-0.12036 0-0.18359 0.01-0.0426 0.0408-0.0743 0.0508-0.11719 0.029-0.13028-0.0528-0.20208-0.0508-0.31836v-0.0313c-8e-4 -4e-3 -0.01-4e-3 -0.01-8e-3 -0.01-0.66286-0.35074-1.1464-1.2441-1.3418-0.1269-0.0267-0.26242 0.016-0.39062 0l-0.45899-0.0508h-0.0508c-0.1035 2e-3 -0.21832 0.0413-0.32422 0.0508-0.8975 0.0466-1.8152 0.25025-2.7754 0.79883-0.294 0.17212-0.35778 0.44559-0.61328 0.63476-0.5455 0.40144-1.0663 0.84234-1.5371 1.3652-1.1275 1.2406-1.6665 2.48-1.6836 3.7168-0.068 0.25549-0.28411 0.66654-0.31641 0.88476-0.033 0.2-0.2833 0.41511-0.75 0.64844-0.6 0.23333-1.0167 0.41745-1.25 0.55078h-0.0488l-1 0.44922c0.067-0.23333 0.0492-0.58216-0.0508-1.0488-0.067-0.43333-0.0838-0.76667-0.0508-1 0.1667-1.1333 0.18408-2.1508 0.0508-3.0508-0.2333-1.1-0.016-2.1833 0.65039-3.25 0.034-0.0529 0.0285-0.12981 0.0606-0.18359 0.04-0.0598 0.10392-0.0996 0.13672-0.16602 0.1956-0.55061 0.34131-1.0746 0.47461-1.5938 0.3503-1.1063 0.49058-2.3518 0.42578-3.7324v-0.0859c-0.037-0.69959 0.0473-1.3184-0.0957-2.0879-0.2172-1.249-1.1338-2.512-2.457-3.7832-0.1885-0.2005-0.21526-0.2898-0.44336-0.51758l-0.15039-0.14844c-0.023-0.0226-0.0609-0.0136-0.0859-0.0332-0.067-0.0563-0.095-0.11159-0.16406-0.16797-0.3-0.26667-0.44922-0.65039-0.44922-1.1504 0.033-0.26667 0.084-0.68334 0.15039-1.25 0-1.2 0.066-2.9984 0.19922-5.3984l0.0508-0.35156 0.25 0.20117c0.7667 0.56667 1.9004 1.15 3.4004 1.75 0.2968 0.099 0.54319 0.28084 0.74219 0.54297-0.017 0.22518 0.028 0.42204 0.20703 0.55664 0 0.0333 0.0168 0.0508 0.0508 0.0508l1.25 1.3496c0.019 0.0176 0.0494 0.0294 0.0684 0.0469 0.5832 0.53456 1.2525 1.0297 2.0801 1.4531 1.6 0.8 2.8849 1.1488 3.8516 1.0488 0.202-0.0245 0.31353-0.10122 0.48633-0.14258 0.029-8e-3 0.0579-0.0145 0.0859-0.0234 0.7157-0.1892 1.2447-0.48586 1.4277-0.98242 0.3-0.8 0.015-1.5674-0.85156-2.3008-2.0666-1.7333-4.8496-2.4504-8.3496-2.1504-0.2 0.0333-0.64961-0.14883-1.3496-0.54883l-3.0996-1.7012c-0.067-0.0333-0.0996-0.16706-0.0996-0.40039v-2.9492c-0.033-1.2 0.015-2.1826 0.14844-2.9492 0.033-0.1 0.0182-0.28411-0.0488-0.55078l-0.0508-1.4004c0.2333 0.0667 0.59961 0.16745 1.0996 0.30078 0.66669 0.3 1.6337 0.74961 2.9004 1.3496 0.1649 0.055 0.30508 0.15941 0.42968 0.29492 0.012 0.16032 0.064 0.31355 0.16993 0.45508l0.20117 0.25c0.033 0.0333 0.0488 0.0663 0.0488 0.0996 0.041 0.0915 0.13059 0.14644 0.18359 0.22851 0.033 0.0512 0.091 0.19653 0.11719 0.22266 0.064 0.0585 0.11628 0.0922 0.17968 0.14844 0.048 0.0442 0.068 0.11022 0.1211 0.15039h0.0488c0.1738 0.15869 0.35174 0.27946 0.52734 0.42187 0.6902 0.55736 1.3322 1.0206 1.873 1.2793 0.3326 0.16128 0.67497 0.22695 1.0137 0.32422 0.069 0.0208 0.13763 0.0479 0.20703 0.0664 0.2781 0.0689 0.55764 0.1224 0.83984 0.14843 0.1138 0.0151 0.22545 0.0514 0.33985 0.0606h0.29883l0.40039-0.0508c0.01-1e-3 -2.4e-4 -4.5e-4 0.01-2e-3 0.098-9e-3 0.19262 0.0159 0.29102 2e-3 0.3335-0.0541 0.56289-0.15885 0.83789-0.24219 0.04-0.0109 0.24922-0.0504 0.26172-0.0566l0.0273-0.0273c0.5996-0.21983 1.0974-0.4913 1.373-0.87305 0.5667-0.86667 0.34961-1.6167-0.65039-2.25-1.5-0.9-3.25-1.4-5.25-1.5-0.1585 0-0.56053 0.0318-0.83203 0.0469-0.1361-0.0125-0.22709-0.0354-0.36719-0.0469h-0.15039l-1 0.0996c-0.3763 0.0116-0.79608 0.0424-1.0508 0-0.3667-0.0667-0.79883-0.25078-1.2988-0.55078-0.5333-0.36667-0.95-0.61667-1.25-0.75l-0.75-0.29883c-0.7667-0.2-1.1349-0.7-1.1016-1.5 0.033-0.76667 0.0508-3.0671 0.0508-6.9004 0-0.2 0.0168-0.30078 0.0508-0.30078 0.033-0.0667 0.13213-0.0492 0.29883 0.0508 1.744 0.93284 3.074 1.7496 4.2012 2.5098v0.041c0.6069 0.52964 1.199 0.8826 1.7949 1.2734 0.026 0.023 0.078 0.0534 0.10352 0.0762 1.6667 1.5333 3.3837 2.0488 5.1504 1.5488 0.6667-0.2 1.1163-0.59922 1.3496-1.1992 0.3667-0.83333 0.084-1.5659-0.84961-2.1992-2.1667-1.5-4.25-2.0174-6.25-1.5508-0.7333 0.16667-1.4329 0.13365-2.0996-0.0996-0.2667-0.0667-0.85-0.34961-1.75-0.84961-0.3-0.16667-0.58291-0.26745-0.84961-0.30078-0.5667-0.16667-0.91748-0.48255-1.0508-0.94922-0.067-0.26667-0.067-0.71823 0-1.3516 0.067-0.76667 0.0996-1.6833 0.0996-2.75 0-0.63333-0.0158-1.55-0.0488-2.75 0-0.4 0.066-0.63255 0.19922-0.69922 0.1-0.0667 0.31709-0.0163 0.65039 0.15039 1.7333 0.86667 3.0667 1.4326 4 1.6992l0.19922 0.0508c0.1226 0.0306 0.35293 0.30937 0.64453 0.73438 0 5e-3 -2.4e-4 0.0103 0.01 0.0156v-0.01c0.023 0.034 0.0258 0.0221 0.0508 0.0586 0.2889 0.46015 0.67136 0.86943 1.0977 1.2539 0.023 0.0214 0.0493 0.0395 0.0723 0.0605 0.3599 0.31572 0.77011 0.60351 1.2246 0.86719 0.10279 0.0589 0.20404 0.11952 0.31054 0.17383 0.5994 0.31761 1.2444 0.61072 1.9941 0.8457 1.2333 0.43333 2.2837 0.43333 3.1504 0 0.6-0.36667 0.9333-0.89961 1-1.5996 0.1667-0.96666-0.13369-1.7167-0.90039-2.25-1.1667-0.76666-2.4825-1.1833-3.9492-1.25-1.0667-0.0667-2.4679 0.0651-4.2012 0.39844l-0.5-0.0488c-0.7333-0.4-1.2817-0.66745-1.6484-0.80078-1.3-0.8-2.3349-1.3-3.1016-1.5-0.3-0.0667-0.44922-0.36706-0.44922-0.90039 0.1667-0.7 0.18378-1.6651 0.0508-2.8984-0.1333-1.3667-0.16826-2.3182-0.10156-2.8516 0.033-0.36667 0.16709-0.54883 0.40039-0.54883l0.25 0.0488c0.6667 0.33333 1.6996 0.76745 3.0996 1.3008 0.3 0.13333 0.70117 0.44922 1.2012 0.94922 0.5333 0.46666 0.95 0.8 1.25 1 1.7 0.96666 3.3492 1.3174 4.9492 1.0508 0.5-0.0667 0.90117-0.29922 1.2012-0.69922 0.3333-0.43333 0.48252-0.91784 0.44922-1.4512-0.033-0.56667-0.48291-1.0996-1.3496-1.5996-0.8333-0.5-1.8179-0.78294-2.9512-0.84961-0.6333-0.0333-1.6663 0.0171-3.0996 0.15039-0.6 0.13333-1.0496 0.21667-1.3496 0.25-0.5667 0.13333-1.0337 0.0829-1.4004-0.15039-1-0.53333-1.6667-0.85117-2-0.95117l-0.44922-0.0488c-0.2333-0.0333-0.34961-0.35117-0.34961-0.95117l-0.35156-6.5c0-0.26667 0.083-0.39844 0.25-0.39844 0.1 0 0.23369 0.0484 0.40039 0.14844 0.7667 0.16667 1.5671 0.5 2.4004 1 0.041 0.031 0.51417 0.35673 0.66797 0.46484 0.6596 0.59378 1.3869 1.0835 2.1895 1.459 1.5046 0.88621 3.1132 1.2359 4.8418 0.97656 1.1333-0.16667 1.7845-0.78294 1.9512-1.8496 0.2-1.1667-0.40078-2.0659-1.8008-2.6992-1.2-0.53333-2.8667-0.61667-5-0.25-1.4 0.36667-2.4504 0.54883-3.1504 0.54883-0.2333 0.0333-0.58213-0.0655-1.0488-0.29883-0.5-0.23333-0.85078-0.35156-1.0508-0.35156-0.5333-0.0667-0.79883-0.28177-0.79883-0.64844 0-0.2 0.0346-0.51784 0.10157-0.95117-0.1537-0.52241-0.056-1.1709 0.24414-1.9199 0.1466-0.30725 0.25786-0.64271 0.35156-0.99219 0.1805-0.52448 0.30469-0.96956 0.30469-1.2383 0.033-0.76667 0.1167-1.8984 0.25-3.3984-0.033-1.3-0.43448-2.3678-1.2012-3.2012-0.7333-0.73333-1.4329-1.0163-2.0996-0.84961zm23.949 8.25c0.3667 0.0333 0.96748 0.0508 1.8008 0.0508 0.7333 0.0667 1.1325 0.34961 1.1992 0.84961 0.1667 0.86667 0 1.6496-0.5 2.3496-0.4333 0.66667-0.94883 1-1.5488 1-0.6333 0-1.2167-0.26745-1.75-0.80078-0.5333-0.56667-0.80078-1.1829-0.80078-1.8496-0.1-0.53333 0.016-0.95 0.34961-1.25 0.3333-0.3 0.75-0.41628 1.25-0.34961zm-0.19922 45.699-1.4004 7c-0.5 2.6333-0.80039 4.9008-0.90039 6.8008-0.8333-2.9667-1.1821-5.3329-1.0488-7.0996 0.2-2.5667 1.3163-4.8012 3.3496-6.7012z"/>
 <g transform="translate(-326.3,-186.3)">
  <path transform="translate(160.15,84.1)" d="m171.15 102.2c-3.3333 0-5 1.6667-5 5v158.2c0 3.3333 1.6667 5 5 5h93.199c3.3333 0 5-1.6667 5-5v-158.2c0-3.3333-1.6667-5-5-5zm8.2988 7.1992h76.6c4.6667 0 7 2.3333 7 7v139.8c0 4.6667-2.3333 7-7 7h-76.6c-4.6667 0-7-2.3333-7-7v-139.8c0-4.6667 2.3333-7 7-7z" fill="#ef1d1e"/>
  <path transform="translate(160.15,84.1)" d="m179.45 109.4c-4.6667 0-7 2.3333-7 7v139.8c0 4.6667 2.3333 7 7 7h76.6c4.6667 0 7-2.3333 7-7v-139.8c0-4.6667-2.3333-7-7-7z" fill="none" stroke="#000" stroke-width="1.2"/>
 </g>
</svg>
