<svg width="103.2" height="168.2" preserveAspectRatio="none" version="1.1" viewBox="0 0 103.2 168.2" xmlns="http://www.w3.org/2000/svg">
 <path d="m13.301 7.1992c-4.6667 0-7 2.3333-7 7v139.8c0 4.6667 2.3333 7 7 7h76.6c4.6667 0 7-2.3333 7-7v-139.8c0-4.6667-2.3333-7-7-7z" fill="#fff"/>
 <path d="m84.25 49.249c-0.45078-0.24597-0.88412-0.3793-1.3-0.4-0.5591 0.10775-0.95594-0.21714-1.45-0.45-0.45521-0.19649-0.83854-0.29649-1.15-0.3-0.03281 3e-3 -0.06615 3e-3 -0.1 0l-1.65-0.35c-2.1152-5.1201-1.0726-11.619-2.3-11.9-4.5257 6.131-9.1115 14.126-13.8 20.2-0.06263 0.13568-0.16263 0.21901-0.3 0.25-0.13464 0.0272-0.26797-6e-3 -0.4-0.1l-0.15-0.1c-0.01015-6e-3 -0.02682-0.0227-0.05-0.05l-0.15-0.15c-0.32708-0.32682-0.66042-0.54349-1-0.65-0.10964-0.0121-0.20964-0.0788-0.3-0.2l-0.1-0.15-0.1-0.1c-0.72969-0.71849-1.663-1.1518-2.8-1.3-0.04687-0.0107-0.09687-0.044-0.15-0.1l-0.8-0.05c-0.11693-0.0139-0.21693-0.0639-0.3-0.15-0.0862-0.0833-0.1362-0.18333-0.15-0.3-0.06225-0.536 1.033-1.0954-0.15-3.05-0.0033-0.0325-0.01993-0.0659-0.05-0.1v-0.05l-0.3-0.35c-0.05521-0.0623-0.08854-0.14567-0.1-0.25-0.02792-0.40827 0.31898-0.46051 0.5-1.7 0.01341-0.18841-0.03659-0.40508-0.15-0.65l-0.25-0.3c-0.41054-0.57163 0.61519-0.91665 0.9-2.8 0.04154-0.21224 0.0082-0.39557-0.1-0.55 1.1493-4.1307 6.2186-7.8032 9.35-10.65l8.4-8.5c-3.6117-2.3099-9.7131 2.4516-10.25 2.4-6.904-3.8602-32.122 23.087-28.212 30.738l6.2625 3.8625c-15.291 2.8472-29.478 17.79-29.287 20.726 1.3839-0.89154 3.3838-0.92996 4.6839-0.71742l15.218 15.189c4.5078 7.0745 41.064-0.53017 46.91-8.4468 3.5397-4.7934-14.013-3.548-19.475-3.85-0.66693-0.77808-0.49096-2.0755-2.1-4.65-0.56667-0.9-1.2-1.5833-1.9-2.05 3.4504-4.0851 6.8717-8.216 9.75-13.2l24.2-11.05 0.1-0.05c0.3819-0.1707 0.5819-0.45403 0.6-0.85" fill="#f79e33"/>
 <path d="m14.4 78.449c0.85193-0.85167 5.5542-2.7152 5.9492-3.9004 1.7191-3.5032 4.2197-5.5147 6.5508-7.8496-8.6858-10.987-10.119-22.4-10.119-22.4-1.0726 1.5114-9.7827 17.313-2.3809 34.15zm45.014 5.4225c0.99678 2.5563 4.3892 0.78126 7.6633 1.9644 3.3009 0.0641 8.6768-2.0242 10.473 1.3123 0 3.0896-33.654 13.511-39.145 8.4883 0-4.4241 7.7595-10.248 4.4941-12.969 0 0-12.63 2.7414-20.91-2.0596l-6.3882 0.63363c26.228 42.497 74.615 11.411 72.692-10.631-15.416 12.036-30.454 9.4584-28.88 13.261z" fill="#ef1d1e"/>
 <path d="m20.25 5.3984c-0.3 0.16667-0.26749 0.5 0.09961 1 0.4333 0.56666 0.90039 1.5182 1.4004 2.8516 0.3333 0.56667 0.6667 1.2992 1 2.1992 0.2 0.53333 0.48301 1.3163 0.84961 2.3496 0.6667 1.7 0.3333 3.0508-1 4.0508-0.4666 0.33333-1.3 0.68216-2.5 1.0488-0.2891 0.16188-0.57809 0.53742-0.86719 0.76367-0.1577 0.12879-0.26724 0.0833-0.43164 0.23633-0.2807 0.27222-0.42048 0.47007-0.64258 0.71094-0.1859 0.19666-0.37269 0.26711-0.55859 0.49023-0.071 0.0879-0.04102 0.15528-0.10742 0.24219-0.036 0.0462-0.10968 0.11359-0.14258 0.1582-0.1877 0.28227-0.09701 0.42718-0.22852 0.68164-0.4647 0.79743-1.0215 1.614-1.0215 2.3184 0 0.7 0.01678 1.0663 0.05078 1.0996 0.1 0.46667 0.44883 0.63333 1.0488 0.5 0.9667-0.2 2.1179-0.66706 3.4512-1.4004 0.7-0.36667 1.3667-1.1826 2-2.4492 0.3446-0.67108 0.2906-1.0648 0.4082-1.5781 0-0.0225 0.03901-0.0498 0.04102-0.0723v-0.0508c2e-4 -3e-3 0-0.0141 0-0.0176 0.073-0.3737 0.35899-0.89651 0.30469-1.1816-0.1-0.4 2.8e-5 -0.78372 0.29883-1.1504 0.4667-0.46667 0.7167-0.74961 0.75-0.84961 0.067 0.0667 0.16748 0.13255 0.30078 0.19922l0.8457 2.9005c0.4667 1.9 0.76709 3.2837 0.90039 4.1504 0.067 0.36667 0.2333 0.89961 0.5 1.5996 0.1667 0.63333 0.10078 1.1663-0.19922 1.5996-0.3294 0.48148-1.0905 0.79521-1.8633 1.1035-0.016-3e-4 -0.02111-4e-3 -0.03711-4e-3 -0.3199 3e-3 -0.60291 0.10345-0.84961 0.30078-0.044 0.0359-0.09499 0.0534-0.15039 0.0508-0.5083 0.17211-1.0576 0.88254-1.5957 1.4394-0.3577 0.309-0.8658 0.40185-1.1543 0.81055-0.7 1.0333-1.1341 2.2833-1.3008 3.75-0.1 1.2333 0.36709 1.7333 1.4004 1.5 0.3667-0.0667 0.76592-0.21784 1.1992-0.45117l1.0508-0.59953c0.9457-0.57963 1.6235-1.3195 2.1504-2.1504 0.049-0.077 0.15402-0.12008 0.19922-0.19922 0.2205-0.38287 0.06603-0.79258 0.17383-1.1836 0.1717-0.54834 0.50448-1.1469 0.42578-1.6172-0.041-0.10143-0.10274-0.15778-0.15234-0.24023-0.021-0.12256 0.08373-0.23608 0.05273-0.35938-0.1-0.33333 0.15-0.71706 0.75-1.1504 0.1333-0.0667 0.24961 0.18333 0.34961 0.75l0.55078 3.7012 0.15039 0.59961c0.033 0.26667-0.01699 0.46628-0.15039 0.59961-0.1568 0.14636-0.20268 0.39176-0.33008 0.56445-0.049 0.0415-0.10182 0.0759-0.16992 0.0859-0.1345 0.15534-0.25081 0.35495-0.34961 0.59961v-0.0508c-0.024 0.0937 0.01223 0.1782-0.0098 0.27148-0.047 0.12532-0.15481 0.19588-0.19141 0.33008-0.1 0.33333-0.19883 1.0155-0.29883 2.0488-0.1 0.96667 0.067 1.9841 0.5 3.0508 0.2333 0.6 0.7333 1.5167 1.5 2.75 0.3666 0.56667 0.71553 0.84961 1.0488 0.84961 0.3 0 0.6334-0.28294 1-0.84961 0.165-0.24749 0.18189-0.56915 0.30859-0.83594 0.03-0.0587 0.12238-0.0455 0.14258-0.11523v0.0508c0.05-0.14205 0.0098-0.31108 0.05078-0.45508 0.1657-0.44883 0.43165-0.84753 0.49805-1.3457 0.1667-1.3333 0.18388-2.4167 0.05078-3.25-0.04-0.26402-0.27116-0.42716-0.34766-0.67188-0.1898-0.84408-0.49928-1.475-0.95508-1.8457-0.074-0.0805-0.06598-0.20411-0.14648-0.28125-0.6333-0.6-1.0171-1.5012-1.1504-2.7012-0.3-2.1667-0.51709-3.8333-0.65039-5 0.1333 0.26667 0.4667 0.51667 1 0.75 0.5 0.23333 0.80039 0.50078 0.90039 0.80078 0.1366 0.43711 0.28769 0.62102 0.42969 0.96289 0.01 0.0713 0.01053 0.19275 0.01953 0.23633 0.037 0.0992 0.15196 0.14401 0.19336 0.24023 0.1368 0.27864 0.26425 0.71648 0.40625 0.91016 0.3742 0.54632 0.86642 0.78176 1.291 1.1953 0.2473 0.22103 0.32018 0.56441 0.60938 0.75586 0.097 0.0674 0.22151 0.0433 0.32031 0.10547 1.0289 0.70967 2.1829 1.0904 3.4629 1.1387 0.061 3e-3 0.10707 0.0532 0.16797 0.0547l0.07031-0.01c0.2063 7.9e-4 0.36552 0.12533 0.57812 0.10938 0.4333-0.0333 0.71816-0.0992 0.85156-0.19922 0.2333-0.16667 0.26581-0.5 0.09961-1l-0.84961-1.9492c-0.052-0.13043-0.22361-0.21923-0.28711-0.3457-0.086-0.14903 3.7e-5 -0.31313-0.16406-0.45508 0 2e-3 -0.01683-0.0154-0.04883-0.0508l-0.75-0.89844-0.05074-0.0505c-0.1619-0.16047-0.33259-0.22117-0.49609-0.36133-0.1738-0.14899-0.208-0.34721-0.4043-0.48828-0.1858-0.13354-0.36403-0.0976-0.54883-0.20898-0.5586-0.33863-1.1279-0.54007-1.7051-0.65039-0.2968-0.069-0.60238-0.33232-0.89648-0.3418l-0.94921 0.15039c-0.4 0.0667-0.7333 0.0163-1-0.15039-0.9-0.4-1.5337-0.69844-1.9004-0.89844-0.2333-0.2-0.4-0.38411-0.5-0.55078-0.2333-0.6-0.45039-1.4333-0.65039-2.5-0.2333-1.3-0.4-2.1333-0.5-2.5-0.1666-0.63333-0.13184-0.93372 0.10156-0.90039 0.033 0 0.2833 0.13372 0.75 0.40039 0.067 0.0333 0.43291 0.14961 1.0996 0.34961 0.4333 0.1 0.71631 0.29961 0.84961 0.59961 0.084 0.18062 0.35164 0.30548 0.46094 0.47851 0.016 0.0694-0.04472 0.15765-0.01172 0.22266 0.028 0.0718 0.04578 0.13763 0.05078 0.19922 0.1404 0.26667 0.307 0.45078 0.5 0.55078 0.017 0.0233 0.03378 0.0388 0.05078 0.0488l0.39844 0.30078c0.4201 0.29444 0.57867 0.38905 0.79297 0.52734 0.1383 0.0964 0.15899 0.22927 0.30859 0.32227 0.9333 0.56667 2.35 0.95039 4.25 1.1504 0.9333 0.13333 1.5651-0.2 1.8984-1 0.067-0.23333-0.08202-0.58412-0.44922-1.0508-0.082-0.13157-0.12738-0.15351-0.20508-0.27149-0.039-0.0752-0.0327-0.15715-0.0957-0.22851-0.1049-0.11441-0.15877-0.13112-0.25977-0.23828-0.2348-0.31746-0.50545-0.74458-0.68945-0.91016-0.6368-0.57519-1.0561-0.80552-1.541-1.1406 0-2e-3 -0.0098-8e-3 -0.0098-0.01v-2e-3c-0.2965-0.20414-0.70591-0.58584-0.94531-0.69922-0.3964-0.17175-0.82182 0.0659-1.2285 0.041-0.2183-0.0301-0.39389-0.18555-0.62109-0.18945l-1.0508 0.0996c-0.083 0.01-0.07904 0.12281-0.14844 0.14844-0.017 8e-3 -0.03278-6e-3 -0.05078 2e-3 -0.6667 0.3-1.1667 0.36589-1.5 0.19922-1.1667-0.5-2.1512-0.86628-2.9512-1.0996-0.2-0.0333-0.33184-0.11667-0.39844-0.25-0.033-0.16667-0.06796-0.30039-0.10156-0.40039-0.4333-1.5667-0.7666-2.7333-1-3.5-0.4-1.4-0.84961-2.5337-1.3496-3.4004-0.033-0.0333-0.05078-0.2-0.05078-0.5l0.10156-0.0488h0.04883c0.4667 0.16667 1.1683 0.34883 2.1016 0.54883 0.7164 0.28035 1.2741 0.7371 1.7285 1.3086 0.025 0.0259-0.01052 0.0668 0.02148 0.0918 0.088 0.0711 0.17372 0.0922 0.26172 0.16016 0.7381 1.0036 1.8288 1.7493 3.3379 2.1894 1.6333 0.5 3.0829 0.48423 4.3496-0.0488 0.3667-0.13333 0.68262-0.3 0.94922-0.5 0.3333-0.3 0.43408-0.5345 0.30078-0.70117-0.079-0.10296-0.09602-0.11472-0.16992-0.21094 1e-4 -0.059 0.07931-0.0748 0.07031-0.13867-0.052-0.30934-0.32828-0.42616-0.61328-0.53516-0.3293-0.41239-0.7481-0.95575-0.9375-1.1641-0.7-0.73333-1.45-1.2508-2.25-1.5508-1.1-0.4-1.9837-0.59961-2.6504-0.59961-0.1548 0-0.2594 0.14306-0.4082 0.16016-0.7091 0.0347-1.3647 0.14521-1.8906 0.43945l-0.05078 0.0508c-0.1066 0.0653-0.07401 0.22637-0.13281 0.32422-0.019 0.0169-0.04741 8e-3 -0.06641 0.0254-0.1 0.1-0.2667 0.11577-0.5 0.0488-1.4-0.43333-2.4679-0.64844-3.2012-0.64844l-0.20308-0.05056c-0.5 0-0.85078-0.25-1.0508-0.75-0.3666-0.96667-0.96553-2.1992-1.7988-3.6992-0.4-0.53333-0.78369-0.73489-1.1504-0.60156zm78.85 4.1504c-1.3333 0.66667-2.1492 1.1008-2.4492 1.3008-1.7 1.0333-3.483 2.3163-5.3496 3.8496-0.1667 0.16667-0.43408 0.44961-0.80078 0.84961-0.3333 0.3-0.6667 0.41628-1 0.34961-0.3-0.1-0.69922-0.16589-1.1992-0.19922l-1.2012-0.0996c-0.8666-0.13333-1.5333-0.45117-2-0.95117-0.029-0.0312-0.16201-0.0682-0.19531-0.0996-0.841-0.63803-1.817-1.1619-2.9551-1.5488-0.05-0.0155-0.09804-9e-3 -0.14844-0.0234-0.1228-0.0443-0.1208-0.0823-0.25-0.12695-2.3-0.76667-4.5171-0.71627-6.6504 0.15039-0.9333 0.36667-1.7008 1.0159-2.3008 1.9492-0.1481 0.22224 0.04792 0.38217 0.04492 0.57812 0 0.14071-0.12912 0.28013-0.04492 0.42188v0.0508c0.018 0.0246 0.06298 0.0281 0.08398 0.0508 0.044 0.0593-0.04637 0.14306 0.01563 0.19922 0.2 0.2 0.55078 0.41511 1.0508 0.64844 0.032 0.0219 0.06566 0.0274 0.09766 0.0488v4e-3c1.5688 1.0532 3.1999 1.5814 4.8965 1.5488 0.2054 0 0.25542-0.0727 0.44922-0.0781 0.034 3.2e-4 0.06796 0.0274 0.10156 0.0273 0.1715-4.2e-4 0.35494-0.12673 0.52734-0.13672 1.2736-0.0939 2.5483-0.18783 3.2227-0.5625 0.3292-0.21304 0.49866-0.3191 0.72656-0.46484 0.1779-0.0809 0.34474-0.0464 0.52344-0.13672h0.04883c0.096-0.052 0.10002-0.2075 0.16602-0.29297 0.3724-0.21553 0.73331-0.4018 1.0371-0.45703 0.5333-0.0667 0.99648-0.0492 1.3965 0.0508 0.4333 0.0333 1.0671 0.13411 1.9004 0.30078 0.1667 0 0.1667 0.0833 0 0.25-1.0333 0.93333-1.5992 1.4333-1.6992 1.5-0.4333 0.3-0.98369 0.86589-1.6504 1.6992-0.7 0.66667-1.5004 0.94961-2.4004 0.84961-0.1827-0.0289-0.64328 0.43171-0.89258 0.51953-0.3034 0.16775-0.5976 0.14192-0.9043 0.38086-0.095 0.0775-0.16171 0.20914-0.25391 0.29102-0.3933 0.27971-0.56383 0.16948-1.0488 0.60937-1.3656 1.2263-1.9515 2.783-2.0586 4.5449-0.039 0.19017-0.05717 0.37136-0.07617 0.55274 0 0.16034-0.0755 0.28666-0.0625 0.45117 0 1.1 0.01483 1.7182 0.04883 1.8516 0.067 0.26667 0.13447 0.69883 0.20117 1.2988 0.1333 0.46667 0.48223 0.65078 1.0488 0.55078 0.3416-0.0621 0.6433-0.25705 0.9668-0.37891l0.13281-0.0215c0.031-0.0154 0.05689-0.0488 0.08789-0.0644 0.9793-0.41537 1.9037-1.0105 2.7129-1.9863 1.3667-1.7 2.0992-3.4326 2.1992-5.1992 0.067-0.86667 0.15-1.4674 0.25-1.8008 0.1667-0.63333 0.46709-1.1333 0.90039-1.5 0.5-0.4 1.1163-0.96589 1.8496-1.6992 0.9667-0.93333 1.5675-1.5167 1.8008-1.75l0.30078-0.15039 0.09961 0.30078c0.1 0.26667 0.15039 0.63294 0.15039 1.0996-0.067 0.46667-0.30117 1.0171-0.70117 1.6504-0.015 0.0217-0.01139 0.0197-0.02539 0.041-0.107 0.0742-0.22912 0.0789-0.32422 0.20898h0.05273c-0.067 0.12219-0.03861 0.25602-0.09961 0.37891-0.2042 0.31889-0.49464 0.75485-0.55274 0.87109-0.3362 0.80693-0.33754 1.8182-0.40234 2.791 0 0.11945-0.05374 0.23346-0.05273 0.35351-0.011 0.35815-0.16883 0.62622-0.14453 1.0059 0.1 1.7333 0.6833 3.2488 1.75 4.5488 0.1333 0.16667 0.34844 0.44961 0.64844 0.84961 0.2667 0.3 0.55156 0.35039 0.85156 0.15039 0.2276-0.14633 0.47173-0.70413 0.70703-1.0488h0.04297c0.019-0.0416 0.02397-0.0853 0.04297-0.12695 0.2195-0.34252 0.42975-0.4611 0.65625-0.97461 0.7333-1.6 0.96592-3.3151 0.69922-5.1484-0.1666-1.0667-0.31592-1.8167-0.44922-2.25-0.02-0.0662-0.0737-0.10352-0.0957-0.16797-0.1482-0.44536-0.38589-0.76593-0.61719-1.0957-0.1429-0.21697-0.21062-0.49967-0.38672-0.6875-0.1703-0.13244-0.27084-0.19372-0.39844-0.2832-0.023-0.0149-0.02974-0.0521-0.05273-0.0664v0.0273c-0.077-0.0525-0.1906-0.14211-0.25-0.17773-0.2666-0.23333-0.38291-0.51628-0.34961-0.84961v-0.0508c-0.033-0.73333-0.04883-1.2818-0.04883-1.6484-0.2334-0.2-0.26816-0.36667-0.10156-0.5 2.4-1.9667 3.8167-3.1178 4.25-3.4512l4.25-2.9492c0.2334-0.13333 0.28369-0.36784 0.15039-0.70117-0.033-0.0333-0.09902-0.0663-0.19922-0.0996-0.1-0.0333-0.1833-0.0333-0.25 0zm-27.85 13.201c-2.1333 0.1-3.8833 0.64844-5.25 1.6484-0.2333 0.16667-0.63262 0.45156-1.1992 0.85156-0.5 0.3-1 0.31577-1.5 0.0488-0.7333-0.33333-1.8167-0.3003-3.25 0.0996-1.6667 0.5-3.4516 1.5-5.3516 3-3.2666 2.4667-5.6484 4.3833-7.1484 5.75-2.2 2-4.4675 4.4341-6.8008 7.3008-1.9 2.3-3.6675 4.833-5.3008 7.5996-1.3 2.3667-1.7166 4.8008-1.25 7.3008 0.2334 1.0667 0.80117 1.9155 1.7012 2.5488 0.2 0.13333 0.41699 0.26706 0.65039 0.40039 0.4666 0.26667 1.1663 0.61745 2.0996 1.0508 0.3666 0.2 0.7 0.39961 1 0.59961-0.5333 0.13333-1.1012 0.33294-1.7012 0.59961-1.3666 0.46667-3.0488 1.1178-5.0488 1.9512h0.04883c-2.0333 0.8-3.8822 1.6488-5.5488 2.5488h0.04883c-0.067 0.0333-0.11514 0.0508-0.14844 0.0508-1.9-2.3667-3.3845-4.6012-4.4512-6.7012-0.067-0.16667-0.15-0.33333-0.25-0.5-0.9666-2-1.8988-4.2151-2.7988-6.6484-1.1-3-1.6834-6.0504-1.75-9.1504 0-0.26667-0.18408-0.51667-0.55078-0.75-0.2333-0.13333-0.46592-0.05-0.69922 0.25l-0.95118 1.3496c-1.0666 1.9-2.0667 4.2004-3 6.9004-0.3 0.8-0.8 2.7671-1.5 5.9004-0.1333 0.7-0.24961 1.4151-0.34961 2.1484-0.2 1.6-0.2833 3.3016-0.25 5.1016 0.067 2.9 0.41748 5.5492 1.0508 7.9492 0.8 3.1333 1.4667 5.2341 2 6.3008-0.067 0.0333-0.13447 0.0992-0.20117 0.19922-0.2666 0.2-0.53223 0.46745-0.79883 0.80078v-0.05078c-0.5333 0.53333-1.0179 1.4171-1.4512 2.6504-0.033 0.0667-0.033 0.1655 0 0.29883 0 0.0667 0.04999 0.15 0.15039 0.25 0.067 0.0667 0.15 0.10156 0.25 0.10156s0.20078-0.0174 0.30078-0.0508c0.2333-0.13333 0.44844-0.24961 0.64844-0.34961 0-0.0333 0.01678-0.0508 0.05078-0.0508l0.30078-0.15039c0.1333-0.1 0.26514-0.18333 0.39844-0.25 0.4 0 0.71787-0.0833 0.95117-0.25 0.067-0.0333 0.11699-0.0663 0.15039-0.0996l0.59961 0.15042c0.1 0.16667 0.2667 0.41667 0.5 0.75 0.2 0.26667 0.51592 0.76667 0.94922 1.5 0.1333 0.26667 0.3 0.58255 0.5 0.94922 0.5 0.9 1.6338 2.4504 3.4004 4.6504 1 1.2333 2.8663 2.9833 5.5996 5.25 1.8667 1.5333 4.3008 3.0663 7.3008 4.5996 0.8666 0.46666 2.8163 1.1837 5.8496 2.1504 2.1333 0.7 3.9996 1.1496 5.5996 1.3496 2.5333 0.36667 5.3008 0.50039 8.3008 0.40039 2.9333-0.1 5.9334-0.58255 9-1.4492 2.0333-0.6 4.4326-1.5845 7.1992-2.9512 1.7667-0.86667 3.7996-2.2155 6.0996-4.0488 2.7-2.1 5.2175-4.7512 7.5508-7.9512 0.3333-0.43333 1.0833-1.6 2.25-3.5l-3.4004 17.602c-0.067 0.2-0.38262 0.56628-0.94922 1.0996-0.6 0.56667-1.0012 0.84961-1.2012 0.84961-0.2837-0.0946-0.60484 0.0349-0.89844 0l-0.90039-0.0996c-0.1559 3e-3 -0.29943 0.0835-0.45312 0.0996-0.2053 0.0365-0.38796-0.0629-0.59766 0-0.1417 0.0373-0.40691 0.19877-0.57031 0.25781-0.3105 0.10626-0.61492 0.24884-0.91602 0.41407-0.369 0.17474-0.618 0.22849-1.0625 0.47851-1.8 1-2.8679 2.5155-3.2012 4.5488-0.033 0.1-0.01622 0.51667 0.05078 1.25 0.033 0.5-0.08301 0.88372-0.34961 1.1504-1.0333 1.0667-1.8338 2.1171-2.4004 3.1504-0.1 0.16667-0.23369 0.18393-0.40039 0.0508-1.1-1-2.633-2-4.5996-3-1.9667-1-4.4008-1.6182-7.3008-1.8516-1.6-0.13333-3.8326 0.28333-6.6992 1.25-0.5333 0.3-0.93447 0.5345-1.2012 0.70117-0.5 0.26667-0.93223 0.33255-1.2988 0.19922-1.6333-0.46667-2.4841-0.71667-2.5508-0.75-0.9666-0.23335-1.8329-0.36706-2.5996-0.40039-1.2667-0.0667-2.383-0.0318-3.3496 0.10156-0.3 0.0333-1.0345 0.28334-2.2012 0.75-0.9 0.33333-1.65 0.43216-2.25 0.29883-2.0333-0.5-4.0333-0.63372-6-0.40039-2 0.23333-3.7655 1.0667-5.2988 2.5-1.1667 1.0667-1.75 2.2682-1.75 3.6016-0.033 0.96667-0.13408 1.55-0.30078 1.75-0.2333 0.23333-0.78369 0.28177-1.6504 0.14844-0.067 0-0.3167-0.13177-0.75-0.39844-1.0666-0.5-1.9-1.3508-2.5-2.5508-0.1-0.23333-0.08222-0.45039 0.05078-0.65039 0.4333-0.4 0.71631-0.70039 0.84961-0.90039l0.05078-0.0996c0.3333-0.5 0.5833-0.86628 0.75-1.0996 0.2666-0.43333 0.5167-0.66589 0.75-0.69922 0.3339-0.0527 0.55368-0.25523 0.86328-0.33984 0.032 6e-3 0.05194 0.0372 0.08594 0.0391l0.34961-0.0508c0.033-9e-3 0.04978-0.0245 0.05078-0.0488 0.3281-0.0971 0.52771-0.18047 0.59961-0.25l0.49805-0.31055c0.3911-0.21119 0.79266-0.40884 1.1309-0.68945h0.02344c0.6193-0.35117 1.1522-0.9849 1.5996-1.9004 0.01-0.0202-2.34e-4 -0.0308 0.0098-0.0508 0.081-0.13885 0.21847-0.20286 0.29297-0.34961 0.301-0.65222 0.17071-1.1168 0.03711-1.5801-0.015-0.10659 0.0935-0.27007 0.0625-0.36914-0.01-0.0242-0.04669-0.0201-0.05469-0.043-0.017-0.0281 0.02-0.0801 0-0.10742-0.036-0.047-0.13052 0.0115-0.16992-0.0293-0.1391-0.20569-0.26598-0.42242-0.58008-0.4707-0.1743 5e-3 -0.35653 0.0551-0.54883 0.15039-0.054 0.0564-0.13341 0.081-0.22461 0.0898-0.2064 0.0263-0.28609-0.17564-0.52539-0.0898-1.7667 0.6-3.1 1.5322-4 2.7988-0.1357 0.19157-0.09001 0.43361-0.19141 0.63476-0.011 0.0235-0.04759 0.0428-0.05859 0.0664-0.025 0.0549 0.017 0.087 0 0.14063-0.2569 0.58218-0.56958 1.1489-0.54688 1.8086 0 0.13333 0.04999 0.3 0.15039 0.5 0.067 0.23333 0.01601 0.43294-0.15039 0.59961-0.4333 0.46666-1.0167 1.2012-1.75 2.2012-0.033 0-0.04883-0.0504-0.04883-0.15039l-0.05082-0.25002c-0.4333-1.8-0.66592-2.9008-0.69922-3.3008-0.033-1.2 0.39883-2.2484 1.2988-3.1484 0.8914-0.83791 1.4321-1.8607 1.7227-3.0137 0.062-0.22368-0.0096-0.46246 0.02539-0.68945 0.126-0.83465 0.26156-1.6642 0.10156-2.6484-0.1-0.6-0.31514-1.0322-0.64844-1.2988-0.1404-0.10208-0.32352 9e-3 -0.47852-0.0195-0.01-7e-3 -0.01449-0.0248-0.02148-0.0312l-0.05078-0.0488c-0.1281-0.10156-0.2948-0.15195-0.5-0.15039-0.2227-1e-3 -0.40678 0.0645-0.55078 0.19922h-0.04883c-0.1926 0.16715-0.25184 0.47872-0.42774 0.66406-0.9082 0.70952-1.6639 1.6116-2.123 2.8867-0.5666 1.6667-0.5666 3.0988 0 4.2988 0.067 0.1 0.2334 0.23372 0.5 0.40039 0.2333 0.1 0.33408 0.23372 0.30078 0.40039-0.1 1.2-0.11728 2.2174-0.05078 3.0508 0.1667 1.5667 0.56787 2.9484 1.2012 4.1484 0.7 1.3333 1.7484 2.4341 3.1484 3.3008h-0.25c-0.2333 0-0.58223 0.10078-1.0488 0.30078-0.4333 0.2-0.81709 0.28333-1.1504 0.25-0.071-0.01-0.11009 0.028-0.17969 0.0195-0.059-0.0206-0.05399-0.10997-0.12109-0.12109l-0.69922-0.0488c-0.4702 5e-3 -0.96241 0.29043-1.4414 0.4082-1.9665 0.29497-3.6082 1.0882-4.5586 2.9414-0.4667 0.83333-0.28252 1.3508 0.55078 1.5508 0.3666 0.1 0.8667 0.16589 1.5 0.19922 0.01 1e-3 0.02516-9e-3 0.03516-8e-3 0.01 7.5e-4 0.0097 7e-3 0.01367 8e-3h0.25c0.1237-7.1e-4 0.28561-0.14691 0.41211-0.1582 0.7629-0.0248 1.5343-0.0765 2.4375-0.54102 0.3479-0.1836 0.40354-0.44913 0.68164-0.65234 0.186-0.11488 0.32913-0.0676 0.51953-0.19922l0.04883-0.0488c0.2839-0.16015 0.58429-0.4431 0.90039-0.84961v-0.0509l0.25-0.30078c0.075-0.0791 0.0215-0.19313 0.0625-0.28125 0.4454-0.86116 0.94681-1.5076 1.5371-1.8184l0.5-0.19922c0.2334-0.0667 0.63447-0.0512 1.2012 0.0488 0.5 0.0667 0.89922 0.0182 1.1992-0.14844l0.25 0.34961-0.90039 2.4004c-0.4666 0.83333-1.2651 1.9167-2.3984 3.25-1.2 1.4333-2.0334 2.4992-2.5 3.1992-1.1 1.8-1.7512 3.6508-1.9512 5.5508-0.2 2.3333 0.15078 4.533 1.0508 6.5996 1.7666 4.1333 4.9489 6.7826 9.5488 7.9492 2 0.53333 3.8838 0.1845 5.6504-1.0488 1.8667-1.3 3.1496-2.4667 3.8496-3.5 0.9-1.4333 1.3012-2.9004 1.2012-4.4004-0.1-0.5-0.16777-0.86628-0.20117-1.0996 0-0.26667 0.083-0.46823 0.25-0.60156l1.3965-0.94919c0.5-0.36667 0.94961-0.89961 1.3496-1.5996 0.4667-0.83335 0.81748-1.4496 1.0508-1.8496 0.4667-0.83333 0.4667-1.4845 0-1.9512-0.1333-0.13333-0.36592-0.23216-0.69922-0.29883-0.3-0.0667-0.53447-0.0667-0.70117 0-1.9333 0.83333-3.0496 2.033-3.3496 3.5996-0.1 0.46667-0.21631 0.71667-0.34961 0.75-0.1333 0.0667-0.41631-0.0496-0.84961-0.34961-0.6667-0.43333-1.4845-0.68333-2.4512-0.75-0.5-0.0333-1.3663-3e-4 -2.5996 0.0996-0.5333 0.0667-0.84922 0.23333-0.94922 0.5-0.1 0.3-0.15039 0.49961-0.15039 0.59961-0.033 0.2 0.06503 0.39961 0.29883 0.59961 0.8333 0.76667 1.6183 1.2512 2.3516 1.4512 0.5333 0.16667 1.5488 0.28294 3.0488 0.34961 0.1333 0.0333 0.40078-0.05 0.80078-0.25 0.4-0.1 0.61699 0.11706 0.65039 0.65039v0.19923c0 1.9667-0.46709 3.6333-1.4004 5-0.7 1-1.8667 1.9167-3.5 2.75-1.7333 0.86667-3.1171 1.1671-4.1504 0.90039-1.9-0.46667-3.5492-1.2341-4.9492-2.3008-3.0333-2.3667-4.6341-5.5838-4.8008-9.6504-0.1333-2.6 0.89961-5.35 3.0996-8.25 1.2667-1.4333 2.1834-2.5322 2.75-3.2988 1-1.3333 1.5678-2.6667 1.7012-4 0-0.4 0.13184-0.59961 0.39844-0.59961 2.6-0.3 4.7008-1.0171 6.3008-2.1504l0.25-0.0508 0.05078 0.15039c-0.1334 0.13333-0.31748 0.48412-0.55078 1.0508-0.2 0.5-0.48301 0.81589-0.84961 0.94922-0.1071 0.0424-0.16888 0.15569-0.27148 0.20508l-0.0293-6e-3c-0.2139 0.0255-0.41351 0.10887-0.59961 0.25v0.0508c-0.1515 0.17654-0.18932 0.26588-0.32422 0.42969-0.5435 0.46353-0.99703 1.0684-1.3652 1.8066 0 3e-3 -0.0098 0.0102-0.0098 0.0137v0.0156c-0.2391 0.48456-0.53317 0.8826-0.69726 1.4844-0.4666 1.6-0.16631 2.6659 0.90039 3.1992 0.3667 0.2 0.73301 0.18423 1.0996-0.0488l0.90039-0.75c0.6622-0.46602 1.0249-1.2506 1.3984-2.0234 0.014-0.0271 0.03678-0.0468 0.05078-0.0742 0.1171-0.25283 0.36417-0.36761 0.45117-0.65234 0.2011-0.63994 0.03734-1.2105 0.02734-1.8106 0.027-0.31864 0.17968-0.54763 0.17188-0.89062 1e-4 -0.10354-0.13315-0.10393-0.15625-0.18945-0.031-0.13049 0.04677-0.28176 0.0098-0.41016-0.1666-0.46667-0.083-0.96667 0.25-1.5 0.1-0.2 0.31709-0.68255 0.65039-1.4492 0.2333-0.56667 0.50078-1.0008 0.80078-1.3008 0.9333-0.86667 1.6659-1.4829 2.1992-1.8496 0.4333-0.4 0.75117-0.70039 0.95117-0.90039 0.3666-0.36667 0.71553-0.53333 1.0488-0.5 0.4 0.0333 1.3845 0.30078 2.9512 0.80078 2.5666 0.8 5.0996 0.74961 7.5996-0.15039 0.9-0.36667 1.4-0.55078 1.5-0.55078 0.5666-0.16667 1.0822-0.11628 1.5488 0.15039 1.3667 0.73333 2.9345 1.0841 4.7012 1.0508 0.9-0.0333 2.4659-0.26784 4.6992-0.70117 0.7333-0.16667 1.8012-0.44961 3.2012-0.84961 1.9-0.33333 3.8651 0.33333 5.8984 2 0.067 0.0667 0.20039 0.18294 0.40039 0.34961 0.1667 0.13333 0.19921 0.3 0.09961 0.5-1.0333 2.1333-1.7833 4.0171-2.25 5.6504l-1.0488-0.34953-3.3008-0.75c-0.5333-0.13333-1.0837-0.55-1.6504-1.25-0.7-0.8-1.2155-1.3-1.5488-1.5-0.7333-0.5-1.2837-0.86628-1.6504-1.0996-0.6667-0.36667-1.3004-0.55078-1.9004-0.55078-1.0666-0.0667-1.8167 0.33451-2.25 1.2012-0.2666 0.56667-0.23214 1.0996 0.10156 1.5996 0.2267 0.30043 0.57168 0.40447 0.83008 0.65234 0.3048 0.30028 0.64678 0.56665 1.0215 0.80274 0.4665 0.28744 0.94974 0.54686 1.4941 0.70508 0.6135 0.21356 1.267 0.39181 2.0059 0.49023h0.09961c0.1526-1.3e-4 0.28629-0.035 0.40039-0.10156 0.045-0.0171 0.084-0.0226 0.125-0.0312 0.084-4e-3 0.13981 0.0375 0.22461 0.0312 0.051 0 0.21404-0.0717 0.30274-0.0957l0.04687-4e-3h0.15039c0.2777 7e-5 0.48679-0.073 0.65039-0.19336 0.1544-0.0254 0.33702-0.094 0.44922-0.0566 1.1667 0.43333 2.6667 0.8345 4.5 1.2012 0.067 0.0333 0.20039 0.0663 0.40039 0.0996 0.1666 0.0333 0.23252 0.14961 0.19922 0.34961-0.1666 0.73333-0.38369 1.4-0.65039 2-0.1 0.2-0.19883 0.55078-0.29883 1.0508-0.1333 0.43333-0.36787 0.68333-0.70117 0.75l-0.44922 0.0488c-0.5333 0.1-0.93262 0.15039-1.1992 0.15039-1.1333 0.26667-1.9841 0.43333-2.5508 0.5-1 0.13333-1.8837-3.9e-4 -2.6504-0.40039-1.7666-0.93333-3.9159-0.91607-6.4492 0.0508-1.2333 0.46667-1.8671 1.1333-1.9004 2-0.067 1.0667 0.6 1.9 2 2.5 0.1945 0.0819 0.63322 6e-3 0.89062 0.0469 0.3192 0.0691 0.65517 0.10461 1.0098 0.10351h0.54883c0.027-3e-3 0.05503-0.0165 0.08203-0.0195 0.1546-0.0142 0.20364 0.0407 0.36914 0.0195 0.4254-0.0672 0.56375-0.22664 0.90625-0.32031 0.4623-0.12629 0.93281-0.28818 1.4121-0.49609 0.09-0.0566 0.30556-0.0736 0.38086-0.13477 0.1164-0.0915 0.11882-0.0732 0.22852-0.1582 0.3086-0.15398 0.60648-0.25478 0.92188-0.44141 0.6043-0.35495 0.97384-0.68309 1.1484-0.98828 0.097-0.0525 0.38007-0.28514 0.45117-0.3125 0.1667-0.0667 1.8508-0.53177 5.0508-1.3984h0.04883l-0.20898 1.4493c-0.067 0.46667-0.2333 1.3659-0.5 2.6992-0.2 1.1-0.33369 1.9837-0.40039 2.6504 0 0.36667-0.01483 0.93451-0.04883 1.7012-0.1667 0.6-0.61826 0.94883-1.3516 1.0488-0.2 0.0333-0.91514 0.26784-2.1484 0.70117-0.3 0.16667-0.53447 0.28294-0.70117 0.34961-0.2666 0.13333-0.5167 0.1491-0.75 0.0488-1.5414-0.69365-3.3819-0.69792-5.3789-0.3418l-0.07031-8e-3c-0.049 3e-3 -0.10916 0.0382-0.16016 0.0469-0.5212 0.10266-0.98922 0.0811-1.541 0.25391-1.3333 0.4-1.9825 1.2663-1.9492 2.5996 0 0.53333 0.1667 0.98294 0.5 1.3496 0.3 0.36667 0.66631 0.61667 1.0996 0.75 0.4038 0.12952 0.86292 8.6e-4 1.291 0.0176 0.071 5e-3 0.13728 0.0328 0.20898 0.0332h0.05078l0.29688-0.0254c0.6677-0.0492 1.3636-0.23144 2.0879-0.54297 0.4226-0.16554 0.84262-0.39615 1.2617-0.63086 0.2746-0.16751 0.52064-0.19827 0.80273-0.40039 0.1804-0.1353 0.5097-0.43812 0.8125-0.71094 0.2119-0.16563 0.42767-0.25575 0.63867-0.43945h0.04883c0.2156-0.15439 0.34368-0.33453 0.42188-0.5293 0.1343-0.11124 0.31624-0.29672 0.42774-0.37109 0.2667-0.16667 1.1349-0.53294 2.6016-1.0996 0.2666-0.1 0.66592-0.18333 1.1992-0.25l-0.05078 3.0488-0.04883 0.30096c0 0.43333-0.1667 0.90039-0.5 1.4004-0.4667 0.73333-0.73408 1.1655-0.80078 1.2988-0.6 1.4667-0.94883 2.9841-1.0488 4.5508-0.015 0.1779 0.14043 0.23255 0.14453 0.39648-0.039 0.42553 0.01498 0.83031 0.20508 1.2031 0.1252 0.17523 0.25834 0.32559 0.39844 0.44922v2e-3c0.1175 0.14623 0.04402 0.42928 0.19922 0.54883 0.7 0.5 1.5837 0.31784 2.6504-0.54883 1.0333-0.9 1.5837-1.9678 1.6504-3.2012 0.033-0.9-0.20117-2.0667-0.70117-3.5-0.033-0.13333-0.2833-0.58294-0.75-1.3496-0.3333-0.56667-0.48252-1.0667-0.44922-1.5l0.29883-1.4492 0.10156-1.7012 1.2988 0.80078 0.25 0.0996c0.2 0.13333 0.5334 0.3 1 0.5 0.4 0.23333 0.63447 0.45039 0.70117 0.65039 0.017 0.0713 0.08997 0.151 0.10938 0.22266 0.017 0.0763 0.01006 0.14802 0.03906 0.22656 0.3238 0.77958 0.72044 1.4936 1.1484 2.1777 0.2562 0.44622 0.31754 0.86473 0.65234 1.3223 0.7 0.96667 1.6826 1.9163 2.9492 2.8496 0.9333 0.63333 1.8849 0.70117 2.8516 0.20117 1.1-0.63333 1.3655-1.6333 0.79883-3-0.5793-1.4366-1.7426-2.5203-3.1758-3.4414-0.4327-0.31006-0.88446-0.56941-1.3516-0.79296-0.2338-0.10604-0.37295-0.26907-0.62305-0.36524-0.1132-0.0453-0.34449-0.0502-0.49219-0.084-0.4389-0.13907-0.89132-0.24569-1.3574-0.31641l-0.59961-0.0996c-0.1655 7e-3 -0.30533 0.0404-0.42383 0.10156 0-1e-3 -0.02139-4.3e-4 -0.02539-2e-3 -0.9333-0.3-1.6504-0.73411-2.1504-1.3008-0.3667-0.23333-0.64961-0.4-0.84961-0.5-0.3333-0.2-0.48447-0.50039-0.45117-0.90039 0.1333-2.1333 0.49961-4.4492 1.0996-6.9492 0-0.43333 0.13379-0.58255 0.40039-0.44922 1.9667 0.86667 3.2845 2.1826 3.9512 3.9492 0.7666 1.9333 2.1833 3.4508 4.25 4.5508 0.7666 0.43333 1.4663 0.48177 2.0996 0.14844 0.313-0.1812 0.32774-0.61085 0.49414-0.91406 0.017-0.0257 0.02992-0.0547 0.04492-0.082 0.143-0.29322 0.44554-0.45368 0.46094-0.85351 0.033-0.9-0.28447-1.7333-0.95117-2.5-0.9-0.76667-1.5667-1.35-2-1.75-0.2099-0.20987-0.78263-0.30738-1.1113-0.48047-0.5604-0.31853-1.146-0.5712-1.7559-0.75976-0.062-0.0138-0.06901-0.0453-0.13281-0.0586-1.4666-0.26667-2.4822-0.65039-3.0488-1.1504-0.7333-0.3-1.2663-0.5345-1.5996-0.70117-0.5667-0.33325-0.75078-0.86628-0.55078-1.5996 0.1-0.83333 0.20078-1.4496 0.30078-1.8496 0.1666-0.7 0.56592-1.1167 1.1992-1.25l1.25-0.30078c0.3333-0.1 0.61631-0.0826 0.84961 0.0508 2.5 1.4 4.9167 1.5492 7.25 0.44922 0.6667-0.3 1.1512-0.66628 1.4512-1.0996 0.1-0.16667 0.1833-0.43216 0.25-0.79883 0.033-0.96666-0.4667-1.6682-1.5-2.1016-0.2757-0.11987-0.63375-6e-3 -0.93555-0.0527-0.1068-0.0123-0.20135-0.0451-0.31445-0.0469l-0.17773 0.0176c-0.3957-0.01-0.73763-0.17175-1.1738-0.0664-1.0666 0.36627-1.8825 0.59922-2.4492 0.69922-0.09 0.0138-0.2419 0.16202-0.3418 0.19727-0.5231 0.21951-1.0734 0.51203-1.6582 0.90234-0.062 0.0469-0.08297 0.1-0.13477 0.14844-0.4357 0.32744-0.88114 0.68044-1.2148 0.75195-0.033 0-0.25039 0.0174-0.65039 0.0508-0.2667 0-0.48369 0.0659-0.65039 0.19922h-0.04883c-0.1334 0-0.16816-0.0833-0.10156-0.25 0.6333-1.6 1.1179-2.7996 1.4512-3.5996 0.5666-1.4 1.1829-2.5337 1.8496-3.4004 0.7333-1.0667 1.3167-1.8167 1.75-2.25 0.7333-0.76667 1.6326-1.2163 2.6992-1.3496 1.7749-0.21798 3.3433-1.6178 4.7402-3.9883 0-4e-3 0.0098-8e-3 0.0098-0.0117 9e-4 -1e-3 -9e-4 -2e-3 0-4e-3 0.095-0.16153 0.20768-0.225 0.30078-0.39648 0.1-0.2 0.2667-0.71745 0.5-1.5508 0.2-0.63333 0.45-1.0984 0.75-1.3984 0.2-0.2 0.50039-0.35117 0.90039-0.45117v0.5c-0.1 0.6-0.2667 1.4663-0.5 2.5996-0.1667 1.0333-0.26748 1.9171-0.30078 2.6504 0 0.93333-0.06602 1.6-0.19922 2-0.2667 0.7-0.46631 1.6167-0.59961 2.75-0.2 1.5667-0.31816 2.4678-0.35156 2.7012-0.3333 1.6333-0.48252 3.3-0.44922 5l-0.30078 0.59961c-0.039 0.0521-0.06902 0.11349-0.10742 0.16602-0.012 0.014-0.02902 0.0183-0.04102 0.0332v0.0312c-0.013 0.0176-0.02411 0.037-0.03711 0.0547-0.019 0.0247-0.0335 0.0549-0.0625 0.0645l-0.25 0.30078 0.05076-0.0508c-0.1178 0.18585-0.16864 0.33981-0.27734 0.52148-0.3109 0.47223-0.64198 0.92384-0.92188 1.4277-0.1312 0.2161-0.14596 0.5594-0.25586 0.79883-0.1601 0.37558-0.22549 0.70884-0.33789 1.0625-0.162 0.53791-0.43101 0.96022-0.50781 1.5898-0.1 0.8-0.11533 1.3833-0.04883 1.75 0.1 0.6 0.40039 1.0496 0.90039 1.3496 0.4666 0.26667 0.9667 0.35 1.5 0.25 0.5-0.1 0.93223-0.36745 1.2988-0.80078 0.6667-0.8 1.1008-1.7322 1.3008-2.7988 0.1333-0.76667 0.16591-1.7996 0.09961-3.0996-0.028-0.28208-0.25988-0.80399-0.55078-1.3965-0.048-0.13317-0.07601-0.27154-0.13281-0.40235-0.3012-0.62726-0.45889-1.1936-0.36719-1.6523l0.5-1.9492c0.1667-0.5 0.26748-0.76745 0.30078-0.80078 0.067-0.0667 0.25078 1e-3 0.55078 0.20117 1.3 0.76667 2.1992 1.9159 2.6992 3.4492 0.1257 0.4023 0.43575 0.71253 0.62305 1.084 0.055 0.10104 0.11072 0.2002 0.16992 0.29688 0.8227 1.4627 1.983 2.7563 3.8066 3.7188 0.5333 0.3 1.1167 0.24961 1.75-0.15039 0.6333-0.36667 0.93369-0.81628 0.90039-1.3496-0.067-0.96667-0.58408-2.0171-1.5508-3.1504-0.9333-1.0667-1.8984-1.7663-2.8984-2.0996-0.1123-0.0421-0.42193-0.0831-0.61133-0.125-0.018-9e-3 -0.02106-0.0163-0.03906-0.0254-0.11-0.0395-0.34447-0.10535-0.70117-0.19922h-0.04883c-0.024 2e-3 -0.05661 2e-3 -0.09961 0l-0.27734-0.0449c-0.4-0.0751-0.79584-0.15298-1.0234-0.30469-0.4333-0.26667-1.1659-1.0012-2.1992-2.2012-0.3-0.26667-0.51709-0.46628-0.65039-0.59961-0.2667-0.26667-0.35-0.58255-0.25-0.94922 0.2666-0.9 0.49922-2.0163 0.69922-3.3496 0.2-1.5 0.35117-2.6337 0.45117-3.4004 0.1-0.33333 0.16592-0.58333 0.19922-0.75l0.44922 0.34961c0.033 0.0667 0.56826 0.53372 1.6016 1.4004 0.6333 0.56667 1.05 1.0822 1.25 1.5488 0.1268 0.3358 0.28226 0.4908 0.41406 0.79492l0.08594 0.25586 0.36133 0.60352c0.3275 0.64373 0.63218 1.4336 0.98828 1.8965 0.8333 1.1 1.8663 1.9159 3.0996 2.4492 1.0333 0.36667 1.8492 0.25039 2.4492-0.34961 0.5333-0.56667 0.75039-1.1171 0.65039-1.6504-0.063-0.32564-0.52456-0.65098-0.69336-0.97656-0.1146-0.27332-0.20735-0.54541-0.40625-0.82227-0.1343-0.18156-0.37708-0.3505-0.55078-0.52734-0.2496-0.25782-0.23273-0.51559-0.54883-0.77344-0.4625-0.38753-0.8687-0.3675-1.3125-0.61914-0.3609-0.21058-0.66199-0.42806-1.0879-0.63086h0.05078l-0.65039-0.29883h-0.05078c-0.2483-0.13363-0.53121-0.20146-0.84961-0.2012h-0.25781c-0.3531-0.044-0.77179-0.0702-0.99219-0.15039-0.6-0.2-1.0671-0.56628-1.4004-1.0996-0.4666-0.8-1.1004-1.4492-1.9004-1.9492-0.6666-0.36667-0.81592-0.86667-0.44922-1.5 0.1667-0.33333 0.28291-0.73451 0.34961-1.2012l0.15039-1.1992c0.1-0.73333 0.48369-2.933 1.1504-6.5996l0.15039-0.25 0.25 0.15039 1.2988 1.4492c0.3333 0.36667 0.85078 0.88412 1.5508 1.5508 0.5 0.6 0.75 1.2667 0.75 2 0 0.43333 0.04999 0.73177 0.15039 0.89844 0.3403 0.66898 0.82914 0.94695 1.2148 1.4961 0.059 0.0869 0.13972 0.16645 0.20312 0.25196 0.6576 0.88452 1.2463 1.9524 2.0312 2.502 1.1667 0.8 2.2171 0.98411 3.1504 0.55078 0.7333-0.33333 1.0667-1.0833 1-2.25-0.033-1.2333-0.7-2.4174-2-3.5508-0.3382-0.30647-0.73865-0.38861-1.0938-0.63477-0.4969-0.36066-1.0319-0.66999-1.6074-0.92968-0.2604-0.1081-0.4818-0.35583-0.75-0.43555-0.044-0.0146-0.38188-0.0285-0.54688-0.043-0.053-0.0158-0.09904-0.0416-0.15234-0.0566h-0.05078l-0.14844-0.0488c-0.025 2e-3 -0.05996 2e-3 -0.10156 0l-0.34961-0.0508c-0.026 2e-3 -0.05213 0.0159-0.07813 0.0195-0.3642-0.064-0.69828-0.16834-0.92188-0.41992l-3.0488-3.1992c-0.4333-0.43332-0.61748-0.70077-0.55078-0.80077 0.3333-1.2 0.61631-2.7155 0.84961-4.5488 0.1-0.83333 0.36748-2.2016 0.80078-4.1016 0.3666-1.7333 0.59922-3.0996 0.69922-4.0996 0-0.0333 0.13369-0.31628 0.40039-0.84961l0.15039 0.0996c0.1 0.26667 0.29961 0.63294 0.59961 1.0996 0.2667 0.46666 0.36738 0.93372 0.30078 1.4004 0 9e-3 0.01 0.0143 0 0.0234-0.029 0.12126-0.1745 0.17714-0.1543 0.32617 0.063 0.34142 0.27914 0.5651 0.36524 0.88867 0.059 1.3994 0.53814 2.589 1.4609 3.5566 0.011 0.0156 0.01244 0.0392 0.02344 0.0547 0.7257 1.03 1.5035 1.5465 2.3105 1.7812 0.041 0.0179 0.04784 0.0527 0.08984 0.0703 0.086 0.0369 0.14777 0.011 0.23047 0.0391 0.1081 0.0171 0.20886 0.10622 0.31836 0.10938l0.20898-0.0195c0.5656 0.06 1.0698-0.0392 1.4414-0.48047 0.1376-0.19652 0.0423-0.67898 0.0293-1.0606 0-0.0176 0.02548-0.0211 0.02148-0.0391l-0.01758-0.0801c-0.017-0.23493 0.08558-0.32084 0.01758-0.61914-0.5333-2.4333-1.5663-4.0671-3.0996-4.9004-0.066-0.0231-0.08594-0.0326-0.14844-0.0547-0.041-0.0283-0.06006-0.0678-0.10156-0.0957-0.048 8e-3 -0.09899-8e-3 -0.15039-0.0488-0.081-0.0495-0.21909-0.0685-0.36719-0.082-0.2423-0.0892-0.56962-0.20441-0.73242-0.26953-0.5667-0.23333-0.95039-0.59961-1.1504-1.0996-0.2667-0.26667-0.4333-0.49922-0.5-0.69922-0.3-0.4-0.51709-0.70039-0.65039-0.90039-0.2333-0.4-0.28369-0.79922-0.15039-1.1992 0.067-0.16667 0.41748-1.5 1.0508-4l1.5-5.6504c0.1333 0.26667 0.36592 0.65039 0.69922 1.1504 0.2333 0.4 0.3167 0.68294 0.25 0.84961-0.011 0.0278 0.01 0.0733 0 0.10156-0.118 0.12903-0.2746 0.20478-0.3457 0.39844l0.05078-0.0508c-0.1193 0.64037-0.05298 1.4408 0.19922 2.4004v-0.0508c0.04 0.1888 0.10779 0.24469 0.15039 0.42187v0.0293c0.023 0.0936 0.0707 0.14711 0.0957 0.23828 0.294 1.1315 0.60241 2.1949 1.0039 2.8106 0.4338 0.7158 1.0612 1.2006 1.7773 1.5781l0.02344 0.0234c0.023 5e-3 0.0262 2e-3 0.0332 0 0.3702 0.18899 0.72182 0.40005 1.166 0.5 0.2 0.0333 0.55078 0.14961 1.0508 0.34961 0.4333 0.0667 0.74922-0.16784 0.94922-0.70117 0.16-0.39114 0.11366-0.85064 0.16016-1.2793 0.027-0.0858 0.08984-0.21929 0.08984-0.26953v-0.0996c0-0.0378-0.02439-0.0869-0.02539-0.125 0-0.21662 0.10422-0.39917 0.07813-0.625-0.033-0.56666-0.2-1.3845-0.5-2.4512-0.2667-0.96667-0.86748-1.8833-1.8008-2.75-0.043-0.0398-0.07704-0.0244-0.11914-0.0625-0.6704-0.64268-1.4785-1.108-2.4316-1.3867l0.05078 0.0488-0.25586-0.0352c-0.1681-0.0219-0.40334-0.15505-0.74414-0.46484-0.3333-0.33333-0.63369-0.68216-0.90039-1.0488-0.3333-0.43333-0.46699-0.75117-0.40039-0.95117 0.9333-2.8333 1.5671-4.5833 1.9004-5.25 0.6667-1.7 1.1996-2.9655 1.5996-3.7988 0.5667-1.2333 1.0008-2.1674 1.3008-2.8008 0.5-1.1 0.96709-1.9992 1.4004-2.6992 0.8-1.3333 1.3833-2.3333 1.75-3 0.2-0.33333 0.16544-0.56784-0.10156-0.70117-0.1667-0.16667-0.3334-0.13177-0.5 0.10156-1.9 2.7-3.3167 4.983-4.25 6.8496-0.1 0.23333-0.23379 0.61706-0.40039 1.1504-0.2 0.43333-0.45 0.71628-0.75 0.84961-0.5667 0.26667-1.1675 0.43333-1.8008 0.5-1.1 0.1-2.2163-0.13451-3.3496-0.70117-0.6024-0.3012-1.3004-0.27823-1.9707-0.34961-0.073-2e-3 -0.10519-0.049-0.17969-0.0488-0.015 5e-5 -0.02992 8e-3 -0.04492 8e-3 -1.4207-0.0946-2.9351 0.127-4.6543 1.041-0.8667 0.46667-1.4675 1.3-1.8008 2.5-0.1333 0.56667 0.08399 0.93294 0.65039 1.0996l1.3496 0.30069c1.1667 0.66667 2.7345 0.75 4.7012 0.25 0.7333-0.16667 1.2333-0.31589 1.5-0.44922 0.5333-0.23333 0.96553-0.56667 1.2988-1 0.089-0.16506 0.14942-0.24481 0.22852-0.38086 0.087-0.0714 0.18588-0.0944 0.27148-0.16992 0.1547-0.12629 0.04596-0.30521 0.10156-0.45117 0.2664-0.33193 0.61643-0.51557 1.0488-0.54883l2.4004-0.5c-0.2 0.53333-0.63408 1.5663-1.3008 3.0996-0.6 1.3-1.0322 2.3504-1.2988 3.1504-0.067 0.2-0.15 0.55078-0.25 1.0508-0.1334 0.4-0.4667 0.63255-1 0.69922-1.9 0.3-2.9349 0.46667-3.1016 0.5-0.4 0.16667-0.65 0.1997-0.75 0.0996-0.018-0.0214-0.04255-0.0183-0.06055-0.0391-0.046-0.14795-0.06095-0.31657-0.18945-0.41016-0.01-0.0146-0.02483-0.032-0.04883-0.0508-0.1956-0.19544-0.37968-0.32916-0.55078-0.40039l-0.5-0.0488h-0.10156c-0.012-4.9e-4 -0.02511-9e-3 -0.03711-0.0117-0.077-0.0241-0.13339-0.12193-0.21289-0.13867-0.4278-0.10507-0.6928-8e-5 -1.0918-0.0684-0.5557-0.0905-1.124-0.23303-1.6582-0.23242-0.1769 4.9e-4 -0.33166 0.0885-0.50586 0.0996-0.4993 8e-3 -1.1556-0.18733-1.5938-0.0996-1.485 0.30936-2.7472 1.1434-3.8301 2.4004h-0.01758c-0.01 6e-3 0 0.0151 0 0.0215-0.077 0.0894-0.17169 0.13439-0.24609 0.22852-0.6 0.8-0.56749 1.4163 0.09961 1.8496 1 0.66666 2.1163 1.0678 3.3496 1.2012 0.2095 0.0215 0.37578-0.10876 0.58008-0.10547 0.01 1e-5 0.01253 6e-3 0.01953 6e-3 0.4099-6.1e-4 0.76084-0.15745 1.1484-0.2168 0.6186-0.10637 1.2858-0.0425 1.8516-0.33398 0.5-0.26667 1.1163-0.70078 1.8496-1.3008 0.081-0.0707 0.10289-0.0733 0.17969-0.13867 0.053-0.0481 0.11948-0.0615 0.17188-0.11133 0.01-7e-3 0.0096-0.0239 0.01758-0.0312 0.5328-0.44256 1.0448-0.86094 1.332-1.0176 0.1333-0.1 0.49961-0.18333 1.0996-0.25l2.4492-0.45117c-2.2666 2.0667-3.4333 3.1345-3.5 3.2012-1.1666 0.93333-2.6996 1.9004-4.5996 2.9004-2.2 1.1667-4.1671 2.0833-5.9004 2.75-2.3666 0.86667-4.4984 1.5159-6.3984 1.9492-0.8 0.16667-1.55 0.33333-2.25 0.5-2.1667 0.4-3.8683 0.61706-5.1016 0.65039h-1.2988c0.067-0.1 0.11699-0.21628 0.15039-0.34961l-0.05078-0.15039v-0.0996c-0.033-0.2-0.13408-0.38411-0.30078-0.55078-0.2333-0.23333-0.53184-0.43294-0.89844-0.59961l-0.05078-0.15039-0.05078-0.0508c-0.1-0.13333-0.23184-0.23216-0.39844-0.29883l-0.60156-0.34975-0.20312-0.05078h-0.19922l-0.25-0.0508-0.05078-0.0488h-0.05078l0.70117-0.4004c3.3666-3.7333 5.4326-6.15 6.1992-7.25 0.067-0.13333 0.15-0.24961 0.25-0.34961 1-1.3667 1.7345-2.6671 2.2012-3.9004l0.19922-0.59961c0.1-0.53333 0.20078-0.9345 0.30078-1.2012 0.1333-0.5 0.39883-0.84883 0.79883-1.0488l5.0996-2.3008c2.8666-1.3667 5.3512-2.5159 7.4512-3.4492l4.9492-2.3496c1.5-0.66666 3.7346-1.7345 6.7012-3.2012 0.3333-0.23333 0.48252-0.45039 0.44922-0.65039-0.033-0.23333-0.21748-0.38255-0.55078-0.44922l-6.1484-1.9004c-0.9667-0.33333-1.7012-0.58333-2.2012-0.75-0.8666-0.26667-1.6322-0.41589-2.2988-0.44922-1.1667-0.0667-1.7016-0.61706-1.6016-1.6504-0.033-0.4-0.04883-0.70039-0.04883-0.90039l-0.95117-6.5c-0.1666-1.7333-0.31592-3.0163-0.44922-3.8496-0.033-0.2-0.23301-0.45-0.59961-0.75-0.033-0.0333-0.08399-0.0333-0.15039 0-0.1 0.0667-0.16592 0.11706-0.19922 0.15039-2.2 3.9-3.7834 6.5163-4.75 7.8496-2.9666 4.2333-4.9008 7.1674-5.8008 8.8008-0.2667 0.46667-1.4004 2.2322-3.4004 5.2988-0.1666-0.26667-0.55039-0.54961-1.1504-0.84961-0.6-0.3-1.0166-0.61589-1.25-0.94922-0.9-1.1333-2.2663-1.55-4.0996-1.25-0.033 0-0.06561-0.0504-0.09961-0.15039l0.44922-0.84961c0.4-0.73333 0.38467-1.5182-0.04883-2.3516-0.2-0.43333-0.64961-0.56511-1.3496-0.39844 1.2-1.1 1.5333-2.0341 1-2.8008-0.2667-0.4-0.31709-0.76628-0.15039-1.0996 0.2666-0.33333 0.41592-0.60078 0.44922-0.80078 0-0.13333 0.06797-0.33294 0.20117-0.59961 0.1333-0.2 0.14863-0.61667 0.04883-1.25-0.067-0.53333 0.05001-0.93255 0.34961-1.1992 0.3333-0.3 0.88379-1.0171 1.6504-2.1504 0.3667-0.5 1.0004-1.1337 1.9004-1.9004 0.9-0.83333 1.5337-1.4826 1.9004-1.9492 0.3333-0.43333 0.8333-0.91784 1.5-1.4512 1-0.83333 1.5504-1.2829 1.6504-1.3496l5.5-5c1.6666-1.5333 2.8663-2.7504 3.5996-3.6504 0.3333-0.4 0.3333-0.74883 0-1.0488-0.7333-0.6-1.7004-0.85-2.9004-0.75zm1.1992 1.3984 0.55078 0.10156c-0.2 0.33333-0.34922 0.54844-0.44922 0.64844-1.2 1.1667-3.0838 2.8508-5.6504 5.0508-0.4 0.36667-1.433 1.3008-3.0996 2.8008-1.3 1.1333-2.3349 2.0829-3.1016 2.8496-2.3 2.3333-3.7496 3.8992-4.3496 4.6992-0.4 0.5-0.71592 1.0174-0.94922 1.5508-0.1333 0.26667-0.36787 0.43333-0.70117 0.5-0.3 0.0667-0.56553 0.0337-0.79883-0.0996-0.1333-0.0667-0.11807-0.20039 0.04883-0.40039l1.5-2.0508c1.6667-2.3 3.4516-4.3504 5.3516-6.1504 1.3-1.5333 2.3155-2.6651 3.0488-3.3984l7.1504-5.8008c0.2333-0.2 0.71592-0.30078 1.4492-0.30078zm-4.0488 0.40039c0.1333-0.0333 0.3833 0.0345 0.75 0.20117-0.2 0.23333-0.46748 0.54922-0.80078 0.94922-2.3333 1.5-4.25 3.0659-5.75 4.6992-1.1333 1.2333-2.8659 3.0667-5.1992 5.5-1.9333 2.1333-3.5496 4.3-4.8496 6.5-0.1334 0.23333-0.3834 0.3845-0.75 0.45117-0.7 0.0667-1.2 0.15-1.5 0.25-0.1334 0.0667-0.48408 0.13255-1.0508 0.19922l-0.19922-0.0488 0.09961-0.15039c3.4999-4.3333 5.3992-6.6667 5.6992-7 0.5-0.56667 2.4497-2.5008 5.8496-5.8008 2.4-2.3333 4.6345-4.0833 6.7012-5.25zm-6.4004 2.2012h0.59961c-0.2333 0.33333-0.38252 0.5155-0.44922 0.54883-0.2 0.2-1.0838 1.0004-2.6504 2.4004-1.0667 0.96667-1.933 1.8-2.5996 2.5l-3.75 4.1992c-1.7667 2-3.4179 4.1841-4.9512 6.5508l-0.04883 0.0508c-0.2333 0.33333-0.5667 0.61628-1 0.84961-0.2667 0.1-0.65039 0.26667-1.1504 0.5l-0.5-0.25c0.067-0.43333 0.16738-0.71628 0.30078-0.84961 0.6333-0.73333 1.8659-2.2837 3.6992-4.6504 1.5-1.9667 2.783-3.4841 3.8496-4.5508 2.9-2.9667 5.2838-5.2167 7.1504-6.75 0.5667-0.43333 1.0667-0.6155 1.5-0.54883zm-5.0508 2.1484c-3.3666 3.3-5.8996 5.9841-7.5996 8.0508-0.7333 0.93333-2.1655 2.883-4.2988 5.8496l-1.4512 1.9512c-0.1 0.13333-0.28223 0.26511-0.54883 0.39844-0.6667 0.0667-1.1512 0.18489-1.4512 0.35156-0.2333 0.13333-0.86709 0.39883-1.9004 0.79883l-0.29883-0.0488 0.04883-0.25c0.4667-0.46666 1.0171-1.1837 1.6504-2.1504 0.7333-1.1 1.2508-1.8345 1.5508-2.2012l3.25-3.7988c0.3666-0.46667 0.91709-0.98411 1.6504-1.5508l9.0488-7.1992zm19.201 7.8518c0.033 0.26667 0.09902 1.1659 0.19922 2.6992 0.067 1.0333 0.16748 1.8492 0.30078 2.4492 0.2 0.83333 0.06601 1.5833-0.40039 2.25-0.2667 0.4-0.73369 0.96784-1.4004 1.7012l-3.7988 4.9492c-0.1334 0.23333-0.1334 0.41745 0 0.55078l0.09961 0.0488c0.033 0 0.13223-0.0833 0.29883-0.25 0.5333-0.43333 1.1341-1.0651 1.8008-1.8984 0.8333-1.1333 1.3663-1.8174 1.5996-2.0508l2.0996-2.5 0.40039 2.9004c0.033 0.33333-0.10039 0.61628-0.40039 0.84961-0.1333 0.13333-0.3833 0.28255-0.75 0.44922-1.3333 0.9-2.7984 2.0667-4.3984 3.5l-1.9004 1.7012c-0.3333 0.33333-0.43408 0.64922-0.30078 0.94922 0.5667-0.23333 0.91748-0.4 1.0508-0.5 0.5333-0.43333 1.983-1.6155 4.3496-3.5488 1.2333-0.96666 2.1675-1.6682 2.8008-2.1016 0.3333-0.23333 0.76553-0.28177 1.2988-0.14844 0.7667 0.16667 1.1833 0.25 1.25 0.25 0.2667 0 0.6834 0.13177 1.25 0.39844l-12.949 7.75c-0.8333 0.53333-1.6512 0.98489-2.4512 1.3516l-0.34961 0.25c-0.1666 0.3-0.18193 0.51511-0.04883 0.64844 0.1666 0.3 0.44961 0.35039 0.84961 0.15039l0.25-0.15039c0.6333-0.43333 1.6159-1.0496 2.9492-1.8496 1.3333-0.76667 2.3179-1.3829 2.9512-1.8496 0.7333-0.53333 1.7333-1.1496 3-1.8496 1.7333-0.96667 2.7488-1.5345 3.0488-1.7012l3.3496-2.1484c0.3667-0.26667 0.76787-0.30156 1.2012-0.10156 0.2333 0.1 0.58223 0.26667 1.0488 0.5 0.3333 0.0667 1.9846 0.60156 4.9512 1.6016l-21.65 9.8982c-0.7667 0.33333-1.5826 0.71706-2.4492 1.1504-0.3333 0.16667-0.68408 0.33333-1.0508 0.5-0.6333 0.33333-2.4493 1.1667-5.4492 2.5-0.2334 0.1-0.91748-0.0163-2.0508-0.34961-1.5666-0.4-2.7333-1.1326-3.5-2.1992-0.4-0.6-0.41728-0.96823-0.05078-1.1016 0.2-0.1 0.55078-0.18333 1.0508-0.25 0.4667-0.2 1.4996-0.56628 3.0996-1.0996 1.3-0.43333 2.333-0.85 3.0996-1.25 0.2-0.1 0.73486-0.31706 1.6016-0.65039 0.1666-0.0667 0.31592-0.15 0.44922-0.25 0.067-0.0667 0.13262-0.15 0.19922-0.25 0.1667-0.2 0.18388-0.56628 0.05078-1.0996-0.033-0.13333 0.1333-0.46667 0.5-1 1.5666-2.3 2.7159-4.0326 3.4492-5.1992 0.9333-1.4333 2.2338-3.3345 3.9004-5.7012 1.3333-1.8333 2.3179-3.2326 2.9512-4.1992 1.1-1.7 1.9663-3.2659 2.5996-4.6992zm-1.3008 5.949c-0.1666-0.0667-0.34883-7.8e-4 -0.54883 0.19922-0.3333 0.26667-0.60078 0.5845-0.80078 0.95117l-10.65 15.549c0 0.0667-0.06602 0.15-0.19922 0.25-0.067 0.1-0.05117 0.20078 0.04883 0.30078l0.55078 0.55078c0.4667-0.4 0.7167-0.61706 0.75-0.65039l1.75-2.8008c1.5666-2.2 2.7159-3.8822 3.4492-5.0488l5.5-8.8008c0.1-0.1 0.16787-0.18333 0.20117-0.25 0.067-0.0667 0.04922-0.15-0.05078-0.25zm-20.15 0.55081c0.2334-0.0333 0.41748 0.05 0.55078 0.25-0.2 1.2333-1.0004 2.3651-2.4004 3.3984-0.8333 0.63333-1.9167 1.2671-3.25 1.9004-1.1 0.53333-2.1 0.89961-3 1.0996l-0.04883 0.0508c-0.067 0-0.067-0.0659 0-0.19922 0.067-0.23333 0.09961-0.36706 0.09961-0.40039-0.1667-1.2 0.25-2.7 1.25-4.5 0.1-0.16667 0.63291-0.33333 1.5996-0.5l4.5508-0.95117c0.1333 0 0.34844-0.0484 0.64844-0.14844zm-8.75 2.0996h0.10156l0.34961 0.0488-0.15039 0.35159c-0.3 1.0333-1.0171 1.8163-2.1504 2.3496-0.6333 0.3-1.6159 0.69922-2.9492 1.1992-1.0333 0.4-1.8163 0.71784-2.3496 0.95117-0.1334 0.0667-0.23408 0.1655-0.30078 0.29883-0.1333 0.13333-0.15058 0.21667-0.05078 0.25 0.3333 0.2 0.73447 0.23303 1.2012 0.0996 0.9666-0.3 2.1992-0.76511 3.6992-1.3984 0.1333-0.0333 0.65078-0.28333 1.5508-0.75 0.2-0.1 0.33369-0.13489 0.40039-0.10156 0.067 0.0333 0.11514 0.16706 0.14844 0.40039 0.033 0.76667-0.19922 1.3829-0.69922 1.8496-0.2667 0.23333-0.81709 0.58411-1.6504 1.0508-1.7 0.86667-3.0663 1.4674-4.0996 1.8008-0.2333 0.0667-0.34961 0.21589-0.34961 0.44922 0.067 0.16667 0.29922 0.25 0.69922 0.25 0.7333-0.1 1.5337-0.35 2.4004-0.75 0.1333-0.0667 0.8833-0.43294 2.25-1.0996l0.19922-0.0996c0.6-0.6 1.0516-0.73372 1.3516-0.40039 0.2333 0.23333 0.36514 0.63255 0.39844 1.1992 0.033 0.36667-0.16631 0.66706-0.59961 0.90039-0.2333 0.1-0.58223 0.26667-1.0488 0.5-0.3667 0.3-0.88408 0.60039-1.5508 0.90039-0.9 0.4-1.4504 0.65-1.6504 0.75v0.25c0.1333 0.33333 0.3834 0.43216 0.75 0.29883 0.9-0.26667 1.9834-0.76667 3.25-1.5 0.3333-0.23333 0.5834-0.4 0.75-0.5 0.2667-0.2 0.50117-0.29883 0.70117-0.29883 0.2333 0 0.63252 0.31589 1.1992 0.94922 0.6333 0.66667 0.69922 1.1337 0.19922 1.4004-0.2666 0.16667-0.69883 0.33333-1.2988 0.5-0.3333 0.26667-0.80039 0.54961-1.4004 0.84961-0.6333 0.23333-1.1159 0.43294-1.4492 0.59961-0.033 0.0333-0.06796 0.0508-0.10156 0.0508-0.2333 0.13333-0.3166 0.3-0.25 0.5 0.1334 0.3 0.3834 0.38333 0.75 0.25 0.6-0.1 1.3016-0.36745 2.1016-0.80078 0.3666-0.2 0.74844-0.41511 1.1484-0.64844 0.6667-0.4 1.1338-0.75078 1.4004-1.0508 0.1-0.13333 0.23369-0.11607 0.40039 0.0508 0.5333 0.63333 0.75039 1.1818 0.65039 1.6484l-0.05078 0.0508c-0.1666 0.46667-0.75 0.91628-1.75 1.3496l-1.5996 0.90033c-0.2667 0.13333-0.35 0.31745-0.25 0.55078 0.1333 0.23333 0.33301 0.28177 0.59961 0.14844 1.7333-0.83333 2.9175-1.5329 3.5508-2.0996l0.54883-0.34961c0.3667 0.8 0.55078 1.2341 0.55078 1.3008 0.2 1.4333 0.50039 2.5167 0.90039 3.25 0.3333 0.56667 1.0329 1.2159 2.0996 1.9492l0.30078 0.19922-0.20117 0.15039c-0.5 0.33333-1.3004 0.75-2.4004 1.25-0.9666 0.5-1.6488 1.0833-2.0488 1.75-0.4667 0.8-0.6333 1.6178-0.5 2.4512 0.033 0.2 0.1167 0.34922 0.25 0.44922 0.1666 0.1 0.3333 0.0341 0.5-0.19922 0.1333-0.16667 0.19922-0.40117 0.19922-0.70117 0.033-0.76667 0.33369-1.4159 0.90039-1.9492 0.2-0.2 0.80078-0.60117 1.8008-1.2012 1.3333-0.83333 2.1492-1.2829 2.4492-1.3496 0.3333-0.0667 0.75-0.0667 1.25 0 0.2667 0.0333 0.6833 0.11667 1.25 0.25 0.067 0.0333 0.01601 0.13411-0.15039 0.30078-0.1333 0.2-0.26699 0.31628-0.40039 0.34961-2.4333 1.1667-3.7822 2.7171-4.0488 4.6504-0.067 0.46667-0.03439 0.8 0.09961 1 0.2 0 0.34922-0.0329 0.44922-0.0996l0.10156-0.35156c0.033-0.16667 0.13223-0.33333 0.29883-0.5l0.09961-0.14844h0.05273c0.2-0.76666 0.58369-1.4508 1.1504-2.0508 0.3666-0.36667 1.0663-0.89961 2.0996-1.5996 1.2-0.8 2.2175-1.5345 3.0508-2.2012 0.3666-0.3 0.8667-0.59844 1.5-0.89844 1.0333-0.46666 1.5992-0.71667 1.6992-0.75-1 2.0667-2.25 3.8826-3.75 5.4492-0.5333 0.53333-1.0159 1.1496-1.4492 1.8496l-0.5 0.70117c-0.2 0.23333-0.41709 0.48333-0.65039 0.75l-0.30078 0.29883-0.65039 0.65039c-0.4 0.3-0.86514 0.66628-1.3984 1.0996l-0.95117 0.75c-0.2 0.16658-0.34922 0.30038-0.44922 0.40038l-0.15039 0.15039c-0.3 0.13333-1.1837 0.61589-2.6504 1.4492-2.5 1.4-5.0988 2.3845-7.7988 2.9512-1.1667 0.33333-2.3508 0.56589-3.5508 0.69922-2.8333 0.5-5.6996 0.71706-8.5996 0.65039-3.3-0.0667-6.3504-0.88451-9.1504-2.4512-0.033-0.0333-0.08399-0.0488-0.15039-0.0488-0.1333-0.0667-0.24961-0.0667-0.34961 0-0.1 0.0333-0.1833 0.0663-0.25 0.0996h-0.10156c-0.2667 0.0333-0.6 0.0663-1 0.0996l-2-0.0488c-0.1667 0-0.31777 0.0155-0.45117 0.0488-0.7 0-1.2329-0.0155-1.5996-0.0488-0.1333 0-0.23223-0.0174-0.29883-0.0508 0.4666-0.26667 0.78252-0.45078 0.94922-0.55078h0.05078c0.6-0.33333 1.1155-0.53294 1.5488-0.59961 1.3-0.26667 2.0171-0.44883 2.1504-0.54883s0.18369-0.20078 0.15039-0.30078l-2.3008-0.15039c-0.5333 0.0333-1.2155 0.26784-2.0488 0.70117-0.033 0-0.05078 0.0155-0.05078 0.0488-0.2 0.13333-0.7 0.43372-1.5 0.90039l0.05078-0.0508c-0.4667 0.23333-1.0849 0.56667-1.8516 1l-0.25 0.15039c0.1667-0.36667 0.36816-0.66706 0.60156-0.90039 0.2333-0.3 0.46592-0.53255 0.69922-0.69922l0.10156-0.0996c0.067-0.1 0.15-0.15039 0.25-0.15039 0.033-0.0333 0.06561-0.0508 0.09961-0.0508 0.1334-0.13333 0.33486-0.26511 0.60156-0.39844 0.1666-0.0333 0.39922-0.1845 0.69922-0.45117 0.2-0.13333 0.46748-0.28255 0.80078-0.44922h0.04883l0.30078-0.20117c0.6-0.33333 1.1504-0.66667 1.6504-1 0.4666-0.16643 0.78252-0.31589 0.94922-0.44922 0.2667-0.13333 0.48369-0.41628 0.65039-0.84961 0.3666-0.4 0.64961-0.81667 0.84961-1.25 0.067-0.16667 0.16738-0.43411 0.30078-0.80078 0.2-0.3 0.45-0.60039 0.75-0.90039v-0.0488c0.2666-0.33333 0.56514-0.68411 0.89844-1.0508 1.1333-1.3667 2.2671-2.45 3.4004-3.25h0.05078c0-0.0333 0.01483-0.0488 0.04883-0.0488 0.3333-0.23373 0.76748-0.50078 1.3008-0.80078 1.5666-0.9 3.3341-1.7333 5.3008-2.5v-0.0508c2-0.83333 3.6667-1.4651 5-1.8984 0.7333-0.3 1.3825-0.51706 1.9492-0.65039h0.05078c0.067-0.0333 0.15-0.0663 0.25-0.0996l0.29883 0.29883c0.3 0.1 0.55 0.31706 0.75 0.65039l0.05078 0.25 0.29883 0.75c0.1 0.2 0.15039 0.38411 0.15039 0.55078 0.033 0.16667 0.06756 0.39922 0.10156 0.69922 0.1334 0.5 0.26709 1.3004 0.40039 2.4004 0.033 0.33333 0.26787 0.5 0.70117 0.5 0.1 0 0.21631-0.0833 0.34961-0.25 0.1-0.13333 0.15039-0.26706 0.15039-0.40039 0.1666-1.4667 0.19921-2.5829 0.09961-3.3496-0.1333-1.2333-0.55-2.2663-1.25-3.0996-0.5667-0.7-1.2837-1.3182-2.1504-1.8516-0.6-0.36667-1.2667-0.68255-2-0.94922-0.8667-0.33333-1.5508-0.98255-2.0508-1.9492-0.5-0.96666-0.61621-1.9182-0.34961-2.8516 0.4333-1.3333 1.0167-2.8663 1.75-4.5996 0.1667-0.43333 0.51748-0.74922 1.0508-0.94922 0.2666-0.1 0.69883-0.25117 1.2988-0.45117 0.3333-0.16666 1.2675-0.48255 2.8008-0.94922zm-29.449 0.34961c0.4333 2.0667 1.133 4.5163 2.0996 7.3496 0.6333 2 1.4008 3.9496 2.3008 5.8496 0.4 0.86666 0.83223 1.7349 1.2988 2.6016 1.2333 2.2 2.5008 4.0488 3.8008 5.5488-1.2 0.8-2.3841 1.9163-3.5508 3.3496-0.3333 0.36667-0.63184 0.73489-0.89844 1.1016h-0.050781c-1.1 1.3333-1.7492 2.3333-1.9492 3v0.0488c-0.067 0.16667-0.13447 0.30039-0.20117 0.40039-0.1333 0.13333-0.28262 0.24961-0.44922 0.34961-0.1667 0.0667-0.38369 0.15-0.65039 0.25-0.033 0-0.06561 0.0174-0.09961 0.0508-0.2333 0.1-0.83408 0.46628-1.8008 1.0996-0.033 0-0.04883 0.0174-0.04883 0.0508-0.3667 0.16667-0.66709 0.33333-0.90039 0.5-0.033 0-0.05274 0.0155-0.05274 0.0488-0.067 0.0667-0.067 0.1345 0 0.20117-0.067-0.0332-0.13252-0.0508-0.19922-0.0508-0.067 0-0.13447 0.0329-0.20117 0.0996-0.033 0-0.04883 0.0174-0.04883 0.0508-0.2-0.3-0.3667-0.71667-0.5-1.25-0.6667-2.2-1.1163-3.8667-1.3496-5-0.2667-1.9333-0.48379-3.4004-0.65039-4.4004-0.2333-1.6667-0.26591-3.6996-0.09961-6.0996 0.033-0.63333 0.09902-1.2845 0.19922-1.9512 0.2-1.8 0.56631-3.5984 1.0996-5.3984 0.8667-3.1 1.8008-5.5341 2.8008-7.3008zm38 1.25c0.1 0.0667 0.1833 0.18294 0.25 0.34961-0.1 0.8-0.45078 1.4996-1.0508 2.0996-0.3 0.3-0.89883 0.7845-1.7988 1.4512-0.5667 0.43333-1.2837 0.83255-2.1504 1.1992-1.0333 0.36667-1.8008 0.64961-2.3008 0.84961l-0.09961 0.0508c-0.1 0-0.1833-0.10078-0.25-0.30078l-0.25-0.5c-0.067-0.33333-0.13252-0.56589-0.19922-0.69922-0.2-0.5-0.16749-0.78294 0.09961-0.84961 0.2-0.0667 0.51592-0.0667 0.94922 0 2.9333-1 5.0671-2.1512 6.4004-3.4512 0.1667-0.16685 0.30039-0.23257 0.40039-0.19924zm0.15039 3.1992c0.067-0.0667 0.09961-0.0667 0.09961 0 0.5 0.76666 0.63369 1.3674 0.40039 1.8008-0.7667 1.6333-2.4179 2.9841-4.9512 4.0508-0.1333 0.0333-0.56553-0.31745-1.2988-1.0508-0.2333-0.33333-0.41748-0.56589-0.55078-0.69922-0.2666-0.3-0.5167-0.50156-0.75-0.60156 1.7667-0.36667 3.133-0.84922 4.0996-1.4492 0.5667-0.36667 1.0008-0.64961 1.3008-0.84961 0.4667-0.33333 0.83301-0.66667 1.0996-1 0.1333-0.13333 0.31748-0.20117 0.55078-0.20117zm29.299 1.8008-22.449 10.699c-0.3667 0.13333-0.51592 0.31745-0.44922 0.55078 0.033 0.16667 0.13223 0.26745 0.29883 0.30078 0.067 0.0333 0.20039 0.0663 0.40039 0.0996l0.25-0.0508c1.3333-0.63333 2.4341-1.1488 3.3008-1.5488 1.1333-0.53333 1.8329-0.85117 2.0996-0.95117 1-0.43333 2.4826-1.1833 4.4492-2.25l11.9-5.9492c0.4667-0.16667 0.6333-0.43411 0.5-0.80078 0-0.0667-0.10078-0.0996-0.30078-0.0996zm-26.898 2.4004c0.9 0.1 1.65 0.44883 2.25 1.0488l0.14844 0.20117-1.25 0.69922c-0.4333 0.2-1.2667 0.48294-2.5 0.84961-1.0666 0.33333-1.8825 0.65117-2.4492 0.95117-0.4 0.23333-0.7333 0.34961-1 0.34961-0.3667-0.0333-0.71748-0.28333-1.0508-0.75-0.5333-0.73333-0.54863-1.15-0.04883-1.25 0.7 0 1.0992-0.0833 1.1992-0.25 0.3333-0.43333 1.1163-1.0167 2.3496-1.75 0.4-0.23333 1.1849-0.26637 2.3516-0.0996zm2.8496 1.9004c0.2-0.13333 0.43262-0.1003 0.69922 0.0996 0.1333 0.13333 0.33301 0.3155 0.59961 0.54883 0.2 0.13333 0.40156 0.38333 0.60156 0.75 0.2 0.4 0.14961 0.68489-0.15039 0.85156-0.1667 0.0667-0.43408 0.13255-0.80078 0.19922-0.1333 0.0667-0.28262 0.13255-0.44922 0.19922-1.0667 0.46666-2.0512 0.81745-2.9512 1.0508-0.6 0.16667-2.0496 0.68412-4.3496 1.5508-0.3333 0.16667-0.5 0.0484-0.5-0.35156 0.067-0.7-0.017-1.2155-0.25-1.5488 0.1667-0.23333 0.4167-0.41745 0.75-0.55078l0.45117-0.15039c0.1333-0.0333 0.28252-0.0818 0.44922-0.14844 0.1667-0.0667 1.1667-0.4349 3-1.1016 1.2333-0.43333 2.2004-0.89844 2.9004-1.3984zm-20.4 9.8496c-1.0667 0.4-1.9 0.70039-2.5 0.90039-1.1333 0.43333-1.9996 0.98177-2.5996 1.6484 0.2 0.0667 0.41699 0.0667 0.65039 0 0.1333-0.0333 0.33291-0.0992 0.59961-0.19922l4.4492-1.5c-0.3333-0.16683-0.53291-0.44963-0.59961-0.84963zm2.0508 1.0488c-1.7 0.66666-2.9849 1.1667-3.8516 1.5-1.5 0.56666-2.6996 1.2004-3.5996 1.9004-0.033 0-0.14961 0.16667-0.34961 0.5l0.44922 0.0996c0.1334-0.0333 0.31748-0.0663 0.55078-0.0996 1.1333-0.66667 3.4008-1.5833 6.8008-2.75 0.2-0.0667 0.31631-0.20039 0.34961-0.40039v-0.54883c0-0.0667-0.03261-0.11706-0.09961-0.15039-0.067-0.0667-0.15-0.0841-0.25-0.0508zm0.39844 1.9512c-0.2333 0.2-0.41553 0.29883-0.54883 0.29883-0.5 0.1-1.1337 0.35-1.9004 0.75-0.4333 0.23333-1.1 0.55117-2 0.95117-0.7667 0.4-1.4004 0.84961-1.9004 1.3496 1.2333-0.36667 3.3167-1.2 6.25-2.5 0.5-0.23333 0.73447-0.41745 0.70117-0.55078-0.1667-0.3-0.36816-0.39883-0.60156-0.29883zm-12.199 1.7988c-0.3 0.0667-0.55 0.1345-0.75 0.20117-0.3 0.1-0.56738 0.23372-0.80078 0.40039-0.3 0.13333-0.66631 0.24961-1.0996 0.34961v-0.0508c-0.3333 0.0667-0.68223 0.1345-1.0488 0.20117-0.2334 0.0333-0.41748 0.11667-0.55078 0.25-0.8 0.46667-1.05 1.1818-0.75 2.1484 0.3 0.93333 0.86592 1.2667 1.6992 1 0.5-0.16667 0.85078-0.38177 1.0508-0.64844 0.067-0.0667 0.13262-0.15 0.19922-0.25 0.1-0.1 0.1834-0.30156 0.25-0.60156 0.067-0.26667 0.10156-0.64844 0.10156-1.1484l0.04883-0.10156c0.1667-0.3 0.38369-0.49961 0.65039-0.59961l0.55078-0.19922c0.3-0.1 0.59844-0.15039 0.89844-0.15039l0.40039-0.0508 0.09961-0.0488c-0.033-0.26667-0.1166-0.46628-0.25-0.59961-0.1333-0.13324-0.36592-0.16822-0.69922-0.10155zm58.047 0.80078h0.0039c0.033 0.4-0.06798 0.93294-0.30078 1.5996-0.3 0.83333-0.4667 1.3837-0.5 1.6504-0.3333 1.7333-0.86631 3.15-1.5996 4.25-0.3 0.4-0.68369 0.59961-1.1504 0.59961-0.3132 0-0.5517-0.13046-0.7832-0.27344-0.018-0.0256 4.22e-4 -0.0505-0.01758-0.0762l-0.04883-0.0508c-0.6271-0.60117-1.4604-0.89961-2.5-0.89844-0.1118 1e-3 -0.15344 0.0134-0.24414 0.0176-0.1342-8e-3 -0.28067 0.0265-0.41797 0.0293-0.01 2e-3 -0.03106-1.2e-4 -0.03906 2e-3 -0.034 3e-3 -0.06661 3e-3 -0.09961 0h-0.29883c-0.8218 0.0477-1.5736 0.28958-2.2832 0.64844-0.078 0.0343-0.1386 0.0159-0.2168 0.0527l-0.10156 0.0488c-0.5666 0.26667-1.0822 0.70078-1.5488 1.3008-0.019 0.0185-0.17489 0.24005-0.21289 0.28711-0.058 0.0675-0.131 0.0916-0.1875 0.16211l-0.05273 0.0508v0.0488l-0.14062 0.24805c-0.1902 0.25642-0.23489 0.2988-0.55859 0.75195-0.3 0.43333-0.10039 0.81706 0.59961 1.1504 0.3973 0.18695 0.96932 0.0519 1.4199 0.14062 0.036 0.0113 0.04108 0.0525 0.08008 0.0605 0.6372 0.16875 1.2051 0.25209 1.7012 0.25 0.1086-2.6e-4 0.22849-0.0954 0.33789-0.10156 0.191-0.0209 0.31382 0.0845 0.51172 0.0508 0.5381-0.0936 0.84811-0.42833 1.3164-0.5957 0.5638-0.18856 1.1021-0.16974 1.6836-0.50391l0.59961-0.5 0.05078-0.0508c0-1e-3 6e-4 -3e-3 0-4e-3 0.026-0.0222 0.07461-0.0223 0.09961-0.0449 0.2666-0.33333 0.48369-0.58333 0.65039-0.75 0.2666-0.3 0.54961-0.48411 0.84961-0.55078h0.40039c-1.3 2.4667-2.8175 4.7826-4.5508 6.9492-1.9333 2.3667-4.1504 4.5004-6.6504 6.4004-2.2 1.6333-4.8163 3.1333-7.8496 4.5-1.9333 0.86667-4.3326 1.6496-7.1992 2.3496-1.7333 0.4-3.9504 0.6345-6.6504 0.70117-1.7333 0.1-3.0163 0.13303-3.8496 0.0996-2.4 0-5.2838-0.5-8.6504-1.5-2.6667-0.8-4.7345-1.6333-6.2012-2.5-2.7-1.4667-4.8996-2.8833-6.5996-4.25-2.2-1.7667-4.1826-3.7492-5.9492-5.9492-1.1-1.3667-2.0167-2.6341-2.75-3.8008-0.4333-0.7-0.78408-1.3492-1.0508-1.9492 1.9667 0.16667 3.6334 0.0484 5-0.35156 0.1333 0.0333 0.26709 0.10117 0.40039 0.20117 2.8 1.4333 5.6838 2.4159 8.6504 2.9492 2.8333 0.36667 5.6338 0.1845 8.4004-0.54883 0.9333-0.13333 1.85-0.33489 2.75-0.60156l0.94922 1.9512c-0.033 0.0333-0.05078 0.0663-0.05078 0.0996-0.2333 0.86667-0.74883 1.7659-1.5488 2.6992-0.4667 0.5-1.1508 1.2674-2.0508 2.3008-1.2333 1.7667-1.9659 3.1504-2.1992 4.1504-0.1 0.46667 0.11709 0.98216 0.65039 1.5488 0.5333 0.6 1.1322 0.96823 1.7988 1.1016 2.9666 0.76667 6.3834 0.68333 10.25-0.25 1.1667-0.26667 2.9012-0.6349 5.2012-1.1016l10.75-2.6992c3.3666-1 6.2988-1.9826 8.7988-2.9492 1.1-0.43333 2.35-1.0167 3.75-1.75 0.4667-0.2 0.68369-0.58372 0.65039-1.1504-0.067-0.56667-0.45039-1.0337-1.1504-1.4004-0.6666-0.33333-1.4826-0.58333-2.4492-0.75-0.3-0.0667-1.1508-0.16745-2.5508-0.30078-1.2666-0.16667-2.9333 0.0349-5 0.60156-0.2666 0.1-0.58262 0.0496-0.94922-0.15039-0.3667-0.23333-0.64961-0.3845-0.84961-0.45117-0.6333-0.26667-1.3679-0.3655-2.2012-0.29883-0.2333 0.0333-0.95039 0.18255-2.1504 0.44922l-0.25 0.0508c-0.3 0.0667-0.4666-0.1-0.5-0.5-0.067-0.23341-0.21592-0.45039-0.44922-0.65039-0.1667-0.0667-0.30039-0.13255-0.40039-0.19922-0.067 0-0.13252 0.0155-0.19922 0.0488l0.09961-0.0996-0.05078-0.0508 0.5-0.54883-0.10156-0.5h0.30078c1.4666 0.0333 3.0171-0.0829 4.6504-0.34961 3.4999-0.6 7.3663-1.8674 11.6-3.8008 3.8333-1.7667 7.4671-4.0167 10.9-6.75zm-31.496 8c0.1333 0 0.26514 0.0174 0.39844 0.0508l0.050781 0.04881c0.1 0.0667 0.24922 0.0996 0.44922 0.0996 0.067 0.0333 0.11709 0.0682 0.15039 0.10156l0.59961 0.29883c0.2334 0.1 0.30117 0.23372 0.20117 0.40039-0.1333 0.33333-0.40078 0.51745-0.80078 0.55078h-0.84961c-0.6667 0.0333-1.1492 0.0663-1.4492 0.0996-0.4667 0-0.86787 0.0659-1.2012 0.19922l-0.19922 0.0508c-0.2333 0-0.28369-0.13372-0.15039-0.40039 0.1333-0.4 0.48408-0.76628 1.0508-1.0996 0.5666-0.26667 1.15-0.40039 1.75-0.40039zm-3.2012 0.0996c0.1 0 0.15039 0.0174 0.15039 0.0508 0.067 0.1-0.29961 0.74922-1.0996 1.9492l-4.5508 1.5508c-0.2333 0.0333-0.3167 0.16706-0.25 0.40039 0.067 0.26667 0.21777 0.3655 0.45117 0.29883 1.4-0.13333 2.65-0.51706 3.75-1.1504l0.29883-0.0488 0.05078 0.29883c-0.3667 1.0333-0.6167 1.7-0.75 2-0.1333 0.23333-0.35039 0.36706-0.65039 0.40039-0.3333 0.0333-0.5833 0.0663-0.75 0.0996-0.7667 0.26667-1.9159 0.51667-3.4492 0.75-0.2667 0.0667-0.40039 0.20039-0.40039 0.40039-0.033 0.16667-7.91e-4 0.25 0.09961 0.25 0.067 0.0333 0.15 0.0508 0.25 0.0508 0.5667 0.1 1.2333 0.0496 2-0.15039 0.4333-0.1 1.1-0.28411 2-0.55078 0.033 0 0.2-0.0484 0.5-0.14844l0.10156 1.3496c0 0.1-0.09903 0.19883-0.29883 0.29883-0.6667 0.33333-1.5 0.61823-2.5 0.85156-1.1333 0.26667-2.0016 0.48177-2.6016 0.64844-0.2666 0.1-0.38291 0.20078-0.34961 0.30078 0.067 0.23333 0.21777 0.34961 0.45117 0.34961 0.5333 0 1.2988-0.0833 2.2988-0.25l1.8496-0.54883c0.1667-0.0333 0.38379-0.15156 0.65039-0.35156 0.2667-0.13333 0.46631-0.16637 0.59961-0.0996 0.1334 0.0667 0.2167 0.26628 0.25 0.59961-0.033 0.36667-0.01622 0.61667 0.05078 0.75 0.033 0.0667-0.03302 0.10156-0.19922 0.10156-0.2334 0.0333-0.4 0.0488-0.5 0.0488l-4.8535 1.1504c-0.4333 0.1-0.66592 0.15039-0.69922 0.15039-0.2667 0.1-0.40039 0.24922-0.40039 0.44922 0.033 0.2 0.16709 0.30078 0.40039 0.30078 0.1667 0 0.38369-0.0329 0.65039-0.0996 2.7-0.3 4.6322-0.71667 5.7988-1.25 0.1334-0.0667 0.25156-0.0337 0.35156 0.0996 0.067 0.23333 0.18291 0.43294 0.34961 0.59961 0.9666 0.53333 0.89883 0.89961-0.20117 1.0996-3.4999 0.66667-5.7655 1.0329-6.7988 1.0996-0.067 0-0.38447 0.18411-0.95117 0.55078 1.8333 0.13333 3.9671-0.0333 6.4004-0.5 0.3333-0.0333 0.8334-0.18255 1.5-0.44922 0.6-0.2 1.0671-0.33372 1.4004-0.40039 0.3667-0.0333 0.83369 0.0829 1.4004 0.34961l1.3496 0.75c0.1667 0.0667 0.13409 0.15-0.09961 0.25l-6.5 1.4492c-2.0333 0.46666-3.3841 0.70117-4.0508 0.70117-1.3333 0.0333-2.3333 0.0488-3 0.0488-1.1666-0.0667-2.1492-0.28177-2.9492-0.64844-0.3667-0.16667-0.55078-0.58333-0.55078-1.25 0.033-0.6 0.2-1.1678 0.5-1.7012 0.3-0.53333 0.85039-1.2155 1.6504-2.0488 0.8-0.9 1.333-1.5841 1.5996-2.0508 0.5-0.8 0.88369-1.4008 1.1504-1.8008 0.3333-0.63333 0.55039-1.2322 0.65039-1.7988 0-0.6-0.15117-1.2008-0.45117-1.8008-0.1-0.23333-0.21631-0.45039-0.34961-0.65039 2.1-0.3 3.9838-0.99961 5.6504-2.0996 0.5667-0.3 1.183-0.53255 1.8496-0.69922 0.4-0.0667 0.88447-0.1345 1.4512-0.20117zm3.4512 2.4004c0.5333-0.0333 0.98291-3e-4 1.3496 0.0996 0.1 0.0333 0.1833 0.10117 0.25 0.20117 0.2666 0.13333 0.5167 0.3155 0.75 0.54883l-1 0.20117c-1.8333 0.23333-3.3334 0.65-4.5 1.25-0.033 0.0333-0.08399 0.0488-0.15039 0.0488l-0.55078 0.0508c-0.1666 0-0.23252-0.13372-0.19922-0.40039 0.1667-1.0667 0.61631-1.6829 1.3496-1.8496 0.4-0.1 0.75078-0.13303 1.0508-0.0996 0.3666 0.0333 0.91709 0.0159 1.6504-0.0508zm2.1484 2c0.5-0.0333 0.96709 0.31745 1.4004 1.0508-0.1666 0.2-0.30039 0.29883-0.40039 0.29883-0.7 0.13333-1.4829 0.38333-2.3496 0.75-1.0333 0.43333-1.8163 0.73372-2.3496 0.90039s-1.0837 0.38372-1.6504 0.65039l-1.0488 0.44922c-0.2334 0.13333-0.3167-0.13216-0.25-0.79883-0.3-1.0667 3.9e-5 -1.7333 0.89844-2l1-0.30078c2.1-0.6 3.6834-0.93333 4.75-1zm4.9004 1.4004c0.9-0.0667 1.8496 0.0496 2.8496 0.34961l0.15039 0.19922c-0.1 0.1-0.1833 0.15039-0.25 0.15039-3.1 1-5.7337 1.9496-7.9004 2.8496l-3.4492 1.4004c-0.3667 0.2-0.63408 0.33372-0.80078 0.40039-0.3333 0.16667-0.61631 0.18393-0.84961 0.0508-0.3-0.1-0.51699-0.35-0.65039-0.75-0.1666-0.56666-0.28291-0.9-0.34961-1l1.4004-0.65041 7-2.4512zm10.25 0.44922c0.1 0.0333 0.15039 0.11667 0.15039 0.25 0.033 0.2-0.06798 0.33372-0.30078 0.40039-5.3333 1.6667-8.4496 2.6492-9.3496 2.9492-2.7666 0.9-5.3326 1.8516-7.6992 2.8516-0.4667 0.23333-0.91631 0.19844-1.3496-0.10156-0.5333-0.36661-0.88408-0.56624-1.0508-0.59957l6.1504-2.4004c2.7666-1.1667 5.3326-1.9496 7.6992-2.3496l2.7012-0.59961c1.1-0.23333 2.0322-0.34961 2.7988-0.34961 0.067 0 0.15-0.0174 0.25-0.0508zm2.9512 0.75c0.1333-0.0333 0.26514 0.0171 0.39844 0.15039 0.067 0.0333 0.15 0.11667 0.25 0.25l-0.75 0.55078c-1.0666 0.76667-2.7488 1.6155-5.0488 2.5488-1.8333 0.53333-3.1841 0.9345-4.0508 1.2012-3.3333 0.96667-5.3992 1.55-6.1992 1.75-1.7667 0.4-2.8675 0.6655-3.3008 0.79883l-1.0996-0.65035c0.067-0.13333 0.20039-0.21667 0.40039-0.25 0.067-0.0333 0.20039-0.0818 0.40039-0.14844l8.25-3c0.9-0.3 2.2818-0.73411 4.1484-1.3008 1.5667-0.53333 2.9175-1.0508 4.0508-1.5508 0.3-0.13333 0.7167-0.23216 1.25-0.29883 0.3 0 0.73408-0.0174 1.3008-0.0508zm-22 23.85c3.2666-0.2 5.3829 0.0849 6.3496 0.85156-2.6667 0.66667-4.6841 1.0988-6.0508 1.2988-2.1333 0.33333-4.1992 0.15117-6.1992-0.54883 0.6666-0.86666 2.6338-1.4016 5.9004-1.6016zm-13.701 0.45114c1.1667 0.0333 2.6996 0.28333 4.5996 0.75-2.6666 1.1333-5.6996 1.1333-9.0996 0 1.3667-0.56667 2.8667-0.81667 4.5-0.75zm-13.199 1.1504c1.7666-0.2 3.4488-0.13411 5.0488 0.19922l0.25 0.0996-1.3984 1.1504c-0.4333 0.4-1.0671 0.98333-1.9004 1.75-0.7333 0.7-1.4175 1.2174-2.0508 1.5508-1.6333 0.9-3.2496 1.4659-4.8496 1.6992-0.9 0.13333-1.1325-0.53333-0.69922-2 0.3333-1.2 1.0329-2.2174 2.0996-3.0508 1.0333-0.76667 2.2-1.2318 3.5-1.3984zm8.6992 20.699h0.5l-0.04883 0.40039c-0.7667 1.9-1.6834 3.1655-2.75 3.7988l-0.35156 0.15039-0.09961-0.25c0-0.76667 0.30039-1.5826 0.90039-2.4492 0.5667-0.86667 1.183-1.4171 1.8496-1.6504zm-9 3.1504h2.25c0.8333 0.1 1.533 0.3655 2.0996 0.79883 0.1334 0.0667 0.31748 0.30117 0.55078 0.70117l-0.69922 0.15039c-1-0.13333-1.7345-0.23411-2.2012-0.30078-0.8666-0.16667-1.5488-0.46706-2.0488-0.90039l-0.30078-0.29883z"/>
 <g transform="translate(0 -186.3)">
  <path transform="translate(160.15,84.1)" d="m-155.15 102.2c-3.3333 0-5 1.6667-5 5v158.2c0 3.3333 1.6667 5 5 5h93.199c3.3333 0 5-1.6667 5-5v-158.2c0-3.3333-1.6667-5-5-5zm8.3008 7.1992h76.6c4.6667 0 7 2.3333 7 7v139.8c0 4.6667-2.3333 7-7 7h-76.6c-4.6667 0-7-2.3333-7-7v-139.8c0-4.6667 2.3333-7 7-7z" fill="#ef1d1e"/>
  <path transform="translate(160.15,84.1)" d="m-146.85 109.4c-4.6667 0-7 2.3333-7 7v139.8c0 4.6667 2.3333 7 7 7h76.6c4.6667 0 7-2.3333 7-7v-139.8c0-4.6667-2.3333-7-7-7z" fill="none" stroke="#000" stroke-width="1.2"/>
 </g>
</svg>
