<svg width="103.2" height="168.2" preserveAspectRatio="none" version="1.1" viewBox="0 0 103.2 168.2" xmlns="http://www.w3.org/2000/svg">
 <path d="m13.299 7.1992c-4.6667 0-7 2.3333-7 7v139.8c0 4.6667 2.3333 7 7 7h76.6c4.6667 0 7-2.3333 7-7v-139.8c0-4.6667-2.3333-7-7-7z" fill="#fff"/>
 <path d="m47.648 19.574c-0.45-0.0167-0.88213 0.0909-1.2988 0.32422-0.9333 0.5-1.4004 1.4671-1.4004 2.9004 0 1.0333 0.19961 2.2174 0.59961 3.5508 0.5333 1.5 0.91709 2.6337 1.1504 3.4004 0.033 0.13333 0.16709 0.3155 0.40039 0.54883s0.36709 0.45039 0.40039 0.65039v0.19922c-0.033 0.33333-0.26787 0.56784-0.70117 0.70117l-4.5996 1.1992c-0.1231 0.041-0.24614-0.0258-0.36914-0.0606-0.029-0.0222-0.0501-0.0719-0.0801-0.0898-0.067 0-0.11709-0.0329-0.15039-0.0996-0.3-0.13333-0.53447-0.19922-0.70117-0.19922h-0.92578c-1.4957-0.12411-2.7821-0.045-3.8223 0.27344-0.069 0.0224-0.13046 0.0547-0.19726 0.0801-0.2976 0.10278-0.59562 0.20444-0.85352 0.3457-1.0667 0.53333-1.6345 1.3841-1.7012 2.5508-0.067 1.2 0.2667 1.9829 1 2.3496 0.3387 0.14817 0.6969 0.205 1.0625 0.21875 0.049 3e-3 0.088 0.0312 0.13867 0.0312 0.027 0 0.10311-0.0388 0.13281-0.041 0.123-6e-3 0.24129 0.0126 0.36719-0.01 0.2803-0.0467 0.70979-0.24224 1.1211-0.41992l-0.0215 0.0215 0.24805-0.10742c0.098-0.0459 0.14705-0.042 0.25195-0.0937 0.4002-0.19142 0.81207-0.4483 1.2305-0.75781 0.545-0.38512 1.1298-0.87024 1.7695-1.4922v0.0508l1.0996-1.0508c0.1667-0.13333 0.28291-0.26706 0.34961-0.40039v-0.0488c0.015-0.0446-2.8e-4 -0.10836 0.0117-0.15625 0.1356-0.13148 0.41254-0.26305 0.83984-0.39453l1.1992-0.25c0.8667-0.23333 1.7833-0.43294 2.75-0.59961 0.4333-0.0667 0.65039 0.0496 0.65039 0.34961-0.067 0.36667-0.0996 0.60117-0.0996 0.70117 0.1333 1.6 0.26514 4.0322 0.39844 7.2988l-0.0996 0.25c-0.7333 0.36667-1.2837 0.63411-1.6504 0.80078-0.6667 0.3-1.2325 0.49961-1.6992 0.59961-0.2615 0.0581-0.706 8e-3 -1.2207-0.0859-0.011-2e-3 -0.0183-0.0122-0.0293-0.0137h-0.15039c-0.8667-0.16667-1.4171-0.2345-1.6504-0.20117l-1.2988 0.10156c-2.4 0.3-4.1829 1.1159-5.3496 2.4492-0.5667 0.6-0.50078 1.35 0.19922 2.25 0.4 0.56667 1.0841 0.81667 2.0508 0.75 1.8333-0.0333 3.6821-0.73294 5.5488-2.0996 0.5333-0.33333 1.1496-0.91667 1.8496-1.75 0.3333-0.43333 0.88369-0.78411 1.6504-1.0508 0.9333-0.33333 1.5341-0.58333 1.8008-0.75 0.1333 0.0667 0.19922 0.1345 0.19922 0.20117l0.59961 9.8496c0.1 0.53333-0.13252 0.86667-0.69922 1-0.1667 0.0333-0.60078 0.23294-1.3008 0.59961-0.5333 0.26667-0.99844 0.36745-1.3984 0.30078-0.07-0.01-0.60436-0.12755-0.78906-0.16406-0.041-8e-3 -0.068-0.0313-0.11133-0.0371l-0.30469-0.0488c-0.4496-0.0926-0.60911-0.119-1.4453-0.30078-0.4-0.0667-0.86709-0.0337-1.4004 0.0996-0.6 0.16667-1.0496 0.28294-1.3496 0.34961-1.1 0.23333-2.2996 0.96784-3.5996 2.2012-0.8 0.76667-0.90078 1.6329-0.30078 2.5996 0.4 0.73333 1.1325 1.0163 2.1992 0.84961 1.3-0.2 3.0849-0.93255 5.3516-2.1992 0.7333-0.36667 1.4484-1.0333 2.1484-2 0.2667-0.4 0.73369-0.70039 1.4004-0.90039 0.9-0.3 1.4329-0.49961 1.5996-0.59961 0.1333-0.0667 0.20117 0.1 0.20117 0.5 0.067 2.2 0.15 3.8667 0.25 5l0.44922 5.1992c0.033 0.23333-0.083 0.41745-0.34961 0.55078-0.3 0.13333-0.51709 0.24961-0.65039 0.34961-0.9221 0.75662-1.9853 1.1431-3.1758 1.1953l-0.57422-0.0957h-1.6992l-0.0449 6e-3c-0.7983-0.0159-1.7197 0.12971-2.7832 0.46289-0.1246 0.0308-0.36396 0.0494-0.47266 0.082-0.712 0.22379-1.3308 0.54002-1.9062 0.90039-0.7838 0.43378-1.4189 0.8903-1.7441 1.3984l-0.25 0.45117c-0.1667 0.5-0.13174 0.96706 0.10156 1.4004 0.3333 0.56667 1.0329 0.84961 2.0996 0.84961 2.6666-0.13333 4.9825-1.1663 6.9492-3.0996 0.8667-0.86666 2.3163-1.8337 4.3496-2.9004l0.20117-0.15039 0.0488 0.25c0.067 1.7667 0.11709 3.0826 0.15039 3.9492 0.067 1.6 0.16748 2.9178 0.30078 3.9512 0.1 0.66667-0.051 1.1667-0.45117 1.5-0.5667 0.33333-0.9833 0.58333-1.25 0.75-0.7 0.46667-1.7833 1.1004-3.25 1.9004-0.205 0.12813-0.48735 0.17757-0.81055 0.1875l-0.0391-0.0391c-0.1667-0.0667-0.34883-0.0996-0.54883-0.0996-0.1556 0-0.33006 0.0378-0.50586 0.0781-0.061-5e-3 -0.27702-0.0273-0.29492-0.0273-1.8333 0.2-3.5504 0.88216-5.1504 2.0488-0.6333 0.5-1.05 1.1512-1.25 1.9512-0.2 0.76667-0.14961 1.5167 0.15039 2.25 0.2 0.46667 0.59922 0.73216 1.1992 0.79883 0.6 0.0667 1.2667-0.0826 2-0.44922 0.8333-0.4 2.0349-1.3826 3.6016-2.9492 0.3-0.3 0.66631-0.7845 1.0996-1.4512 0.5-0.73333 0.86631-1.2333 1.0996-1.5 0.2333-0.3 0.75078-0.60039 1.5508-0.90039l2.8496-1.75c0.3667 6.4332 0.56631 9.7667 0.59961 10 0.033 0.46666-0.05 0.85039-0.25 1.1504-0.1333 0.16667-0.41631 0.40117-0.84961 0.70117-0.7333 0.63333-1.2837 1.1159-1.6504 1.4492-0.5313 0.42506-1.0764 0.60449-1.6289 0.64844-0.074-0.0161-0.1388-0.0488-0.2207-0.0488h-0.1503c-0.3539 0.0253-0.59456 0.0656-0.91016 0.0957-2.5768-0.0643-4.7707 0.73553-6.5391 2.5039-0.8667 0.86666-1.1167 1.8667-0.75 3 0.4 1.1 1.0821 1.7008 2.0488 1.8008 0.6667 0.0667 1.3333-0.0671 2-0.40039 0.2667-0.16667 0.81709-0.55039 1.6504-1.1504 1.3333-1.0333 2.1841-1.8822 2.5508-2.5488 0.1667-0.3 0.39922-0.74961 0.69922-1.3496 0.2667-0.5 0.54961-0.90117 0.84961-1.2012 0.2-0.2 0.71748-0.59922 1.5508-1.1992 0.7-0.5 1.2155-0.96706 1.5488-1.4004l0.40039 6.5996c0.1 1.4 0.11708 2.2333 0.0508 2.5-0.033 0.16667-0.38408 0.5-1.0508 1-1.0667 0.76667-1.7992 1.4004-2.1992 1.9004-0.3333 0.4-0.75 0.59961-1.25 0.59961-0.5667-0.1-0.9833-0.15039-1.25-0.15039s-0.95078 0.16667-2.0508 0.5c-0.8667 0.3-1.6496 0.91823-2.3496 1.8516-0.7 0.96667-1.0663 1.8833-1.0996 2.75-0.033 0.73333 0.35039 1.3167 1.1504 1.75 0.7333 0.43333 1.4659 0.3655 2.1992-0.20117 1.9667-1.3 3.4163-3.2167 4.3496-5.75 0.1333-0.3 0.43369-0.61589 0.90039-0.94922l1.6504-1.1504 0.90039-0.80078c0.1667 0.73333 0.25 1.1849 0.25 1.3516 0.067 2.7333 0.067 5.4833 0 8.25 0 0.2-0.13369 0.36667-0.40039 0.5-0.3667 0.2-0.58369 0.33177-0.65039 0.39844-0.8333 0.9-1.5 1.5337-2 1.9004-0.2 0.13333-0.51592 0.20117-0.94922 0.20117-0.033 0-0.0354 6e-3 -0.0664 6e-3 -0.012-2.6e-4 -0.0212-6e-3 -0.0332-6e-3l-0.44922 0.0488c0 1.9e-4 -0.01 2e-3 -0.01 2e-3 -0.1786 0.0167-0.44282 0.0161-0.54102 0.0488-0.077 0.0198-0.1446 0.0763-0.2207 0.0996-0.3355 0.0995-0.67036 0.24694-1.0059 0.45117-0.6927 0.37579-1.3603 0.85201-1.9727 1.5488-0.9667 1.0333-1.5325 2.0663-1.6992 3.0996-0.3 1.3333 4e-5 2.2829 0.89844 2.8496 0.8333 0.53333 1.7171 0.36666 2.6504-0.5 1.1-0.96667 2.0167-2.3659 2.75-4.1992 0.6333-1.5333 1.0675-2.5004 1.3008-2.9004 0.6333-1.0333 1.4667-1.7329 2.5-2.0996l0.0488 10.301c-0.067 2.9667-0.11514 5.1992-0.14844 6.6992 0 2.4667-0.05 4.9841-0.15039 7.5508-0.033 1.0667-0.0182 2.4988 0.0488 4.2988 0.067 2.1667 0.10156 3.6008 0.10156 4.3008 0 2.0667-0.05 4.1326-0.15039 6.1992l-0.0508 1.2012c-0.033 0.3-0.13213 0.63333-0.29883 1-0.2333 0.43333-0.4 0.76667-0.5 1-0.2333 0-0.41748-0.0678-0.55078-0.20117-2.2667-1.6-4.2996-3.4333-6.0996-5.5-2.2667-2.6333-3.7996-4.55-4.5996-5.75-0.1333-0.23333-0.16826-0.43294-0.10156-0.59961l0.40039-0.80078c0.1-0.26667 0.29961-0.8655 0.59961-1.7988 0.2333-0.73333 0.45039-1.3167 0.65039-1.75 0.05-0.10082 0.39823-0.18715 0.54883-0.2832 0.03-7e-3 0.08-7e-3 0.10156-0.0176h0.0508c0.9151-0.38401 1.6474-0.97562 2.2363-1.7324 0.3972-0.45061 0.67862-0.99604 0.91992-1.5742l0.043-0.043c0.016-0.0395 0.0289-0.11291 0.0449-0.1543 0.10429-0.27677 0.28516-0.49033 0.35546-0.79492 0.3667-1.3 0.56631-2.0345 0.59961-2.2012 0.1165-0.58269 0.0652-1.0903 0.0352-1.6074 0-0.0352 0.0106-0.0563 0.0156-0.0918v-0.1504c0-0.0167-0.0118-0.0285-0.01-0.0449-0.014-0.12718 0.0328-0.28118 0.01-0.4043-0.1-0.53333-0.23369-0.83372-0.40039-0.90039-0.3333-0.16667-0.69961-0.13365-1.0996 0.0996-0.99999 0.36667-1.7171 0.68255-2.1504 0.94922-0.2237 0.14511-0.3679 0.39422-0.5664 0.57226-0.1275 0.11482-0.24819 0.2408-0.36719 0.36914-0.3225 0.35277-0.62173 0.73558-0.86523 1.1914-0.1369 0.23486-0.28265 0.45641-0.40235 0.71875v0.0488c-0.7798 1.6293-0.97941 3.2126-0.59961 4.75 0.086 0.26519 0.2691 0.42086 0.4961 0.52539 0.029 0.0755 0.0227 0.14891 0.0547 0.22461 0.067 0.23333 0.0344 0.56667-0.0996 1-0.2333 0.5-0.38447 0.88372-0.45117 1.1504l-0.5 1.6992-0.0996 0.25-0.19922 0.35156-0.25-0.20117c-1.7667-2.3667-3.7667-5.2988-6-8.7988-0.067-0.16667-0.0512-0.36823 0.0488-0.60156 0.4667-0.66667 0.7167-1.0484 0.75-1.1484 0.1-0.5 0.40039-0.85078 0.90039-1.0508 0.02-9e-3 0.0649-0.0278 0.0859-0.0371 0.055 9e-3 0.10936 0.0371 0.16406 0.0371 0.1526-1.3e-4 0.28629-0.0331 0.40039-0.0996 0.7863-0.37175 1.5363-1.0559 2.25-2.0508 0.3956-0.57475 0.67385-1.1767 0.96485-1.7754 0.08-0.16371 0.20845-0.20162 0.28515-0.375 0.1333-0.33333 0.33291-0.79844 0.59961-1.3984 0.2-0.56666 0.2833-1.0841 0.25-1.5508v-0.0352c8e-4 -5e-3 0-0.0103 0-0.0156v-0.0488c0.044-0.18503 0.0262-0.35169-0.0508-0.5v-0.0508c0-7e-3 -0.01-9e-3 -0.0117-0.0156-0.012-0.0973-0.0251-0.37255-0.0371-0.38476-0.067-0.4-0.30117-0.6655-0.70117-0.79883-0.3663-0.12819-0.81973 0.14308-1.2363 0.24609-0.041-6e-3 -0.07-0.0468-0.11328-0.0469-0.1779-3e-3 -0.3445 0.0477-0.5 0.15039-0.015 8e-3 -0.026 0.0188-0.041 0.0273-0.1289 0.0656-0.22618-0.0129-0.35938 0.0723-0.2342 0.14502-0.34239 0.38526-0.55469 0.54687-0.5701 0.43079-1.057 0.92106-1.4785 1.457-0.2098 0.28113-0.4269 0.55705-0.5957 0.86914-0.1481 0.25346-0.29933 0.50448-0.41993 0.77734-0.3062 0.70268-0.47458 1.4076-0.55468 2.1152-0.01 0.0509-0.0379 0.0834-0.0449 0.13477-0.025 0.15443 0.0569 0.252 0.0469 0.39844-0.013 0.39998-0.057 0.79961 0 1.2012 0.024 0.15824 0.10369 0.26393 0.17969 0.37305 0.022 0.0512-5.2e-4 0.12811 0.0215 0.17773 0.1667 0.3 0.11631 0.63333-0.15039 1-0.3 0.5-0.4667 0.81589-0.5 0.94922-0.1 0.2-0.16787 0.35117-0.20117 0.45117-0.5333-0.73333-1.0992-1.6345-1.6992-2.7012-0.3333-0.63333-0.81592-1.6004-1.4492-2.9004l-1.9004-3.5996c-0.1-0.13333-0.0674-0.33294 0.0996-0.59961 0.1333-0.23333 0.31748-0.45039 0.55078-0.65039 0.1664-0.1456 0.2773-0.16412 0.4043-0.21875 0.1861 0.073 0.3817 0.12075 0.5957 0.11914 0.3299-6e-3 0.67883-0.10638 1.0488-0.30078 0.4952-0.25615 0.93962-0.55668 1.3574-0.88281 0.1003-0.0719 0.24765-0.0359 0.34375-0.11719 0.1642-0.14491 0.37548-0.53471 0.55078-0.73828 0.4052-0.43291 0.76091-0.91047 1.0664-1.4336 0.1006-0.1622 0.17765-0.19937 0.28125-0.37695 0.8252-1.359 1.1726-2.8622 1.291-4.4336 0.053-0.26911 0.18759-0.79408 0.20899-0.9668v-0.0508c0.013-0.20511-0.068-0.37461-0.11133-0.5586 0-0.0664 0.0177-0.12466 0.0117-0.1914-0.028-0.22363-0.15522-0.33891-0.19922-0.54492 0-0.0548-0.01-0.1084 0-0.1543 0.044-0.28099-0.024-0.49804-0.20117-0.65039-0.062-0.047-0.10939-0.0968-0.14649-0.14844v-0.01c-0.031-0.0851-0.0488-0.16615-0.0488-0.24219-0.01-0.22721-0.09-0.44232-0.25-0.64844-0.01-8e-3 -0.0222-4e-3 -0.0312-0.0117-0.035-0.0506-0.0304-0.14093-0.0664-0.18945-0.2667-0.36667-0.46631-0.73294-0.59961-1.0996-0.2-0.46667-0.46748-1.2341-0.80078-2.3008-1.1333-3.2-1.9492-5.5992-2.4492-7.1992-0.2-0.56667-0.45-1.4174-0.75-2.5508-0.067-0.13333-0.0344-0.21667 0.0996-0.25 0.067-0.0333 0.18291-0.0663 0.34961-0.0996 0.1-0.1 0.31709-0.21628 0.65039-0.34961 0.3-0.13333 0.49961-0.26706 0.59961-0.40039 0.3-0.36667 0.68369-0.58372 1.1504-0.65039 0.088 0 0.48992 0.0187 0.82422 0.0332 0.029 2e-3 0.0462 0.0176 0.0762 0.0176h0.25c0-2e-3 0.0107-2e-3 0.0137-4e-3 0.046 2e-3 0.0379 2e-3 0.0859 4e-3 0.7597 0 1.5057-0.26784 2.2461-0.67188 0.084-0.046 0.17151-0.0856 0.25391-0.13671 0.1492-0.091 0.30082-0.13473 0.44922-0.24219 0.6164-0.44634 1.0294-0.95685 1.3476-1.498v-2e-3c8e-4 -1e-3 7e-4 -3e-3 0-4e-3 0.179-0.30574 0.36522-0.60933 0.44922-0.94531 0.2-0.7-0.017-1.2659-0.65039-1.6992-0.7-0.43333-1.3008-0.5845-1.8008-0.45117-0.1606 0.0428-0.2863 0.14589-0.4375 0.20508-0.099 0.0351-0.19672 0.0902-0.29492 0.13867-0.6589 0.31947-1.2539 0.74838-1.7168 1.4062-0.1621 0.19808-0.5141 0.93199-0.7832 1.4316-0.1215 0.21669-0.24769 0.3801-0.36719 0.61914-0.012 0.0278-0.01 0.0525-0.0156 0.0801-0.1165 0.23458-0.15261 0.2453-0.28321 0.51953-0.1333 0.3-0.43369 0.58294-0.90039 0.84961-0.6 0.26667-1.0341 0.48372-1.3008 0.65039-0.4667 0.26667-0.73213 0.23365-0.79883-0.0996-0.033-0.16667-0.0508-0.43411-0.0508-0.80078-0.4-1.1-0.95039-2.7822-1.6504-5.0488-0.2333-0.66666-0.49883-2-0.79883-4 0-0.1-0.05-0.28411-0.15039-0.55078-0.067-0.23333-0.0344-0.36706 0.0996-0.40039 0.3-0.0667 0.73408-0.20039 1.3008-0.40039 0.4808-0.0962 0.91239 0.0358 1.3008 0.37109 0.1644 0.18945 0.37643 0.35247 0.64843 0.48047h0.0508l0.12305 0.0625c0.5525 0.33177 1.1579 0.6015 1.877 0.73633 1.1 0.2 1.9817 0.10117 2.6484-0.29883 1.4-0.86666 2.15-1.7504 2.25-2.6504 0.012-0.15026-0.0563-0.26579-0.0703-0.4043 0.01-0.20891-0.043-0.40251-0.10352-0.59375-0.012-0.027-9e-3 -0.0614-0.0215-0.0879-0.026-0.0695-0.0187-0.14771-0.0547-0.21484-0.1312-0.16696-0.3176-0.27327-0.5-0.38477-0.078-0.0666-0.10782-0.15392-0.19922-0.21484-0.6667-0.43333-1.4167-0.51667-2.25-0.25-2.1667 0.66667-3.7829 1.4341-4.8496 2.3008-0.4 0.3-1.1675 0.44922-2.3008 0.44922-0.3-0.0333-0.4667-0.2-0.5-0.5-0.033-0.2-0.0508-0.46745-0.0508-0.80078-0.2667-1-0.56709-2.6163-0.90039-4.8496-0.1-0.46667-0.23369-1.1333-0.40039-2-0.1333-0.53333 0.13408-0.79883 0.80078-0.79883 1.2333 0 2.1984 0.14922 2.8984 0.44922 1.5333 0.73333 3.2679 0.73333 5.2012 0 1.2667-0.46667 2.0825-1.1004 2.4492-1.9004l0.10156-0.25c0.3667-1 0.31826-1.75-0.14844-2.25-0.4333-0.43333-1.1175-0.6-2.0508-0.5-2.5667 0.33333-4.8341 1.3508-6.8008 3.0508-0.3667 0.33333-0.93252 0.5-1.6992 0.5-0.3667 0-0.63408-0.0174-0.80078-0.0508-0.2333-0.0333-0.43291-0.7-0.59961-2l-0.94922-6.4004c-0.067-0.5 0.083-0.75 0.44922-0.75l0.75-0.0488c0.5333-0.3 1.1845-0.38333 1.9512-0.25 0.167 0.0418 0.54447 0.15769 0.79297 0.22852 0.026 7e-3 0.0286 0.0146 0.0566 0.0215h-0.0508l0.12305 0.0176c0.3222 0.0931 0.53086 0.14411 0.97656 0.28125 0.7667 0.13333 1.6833 0.0675 2.75-0.19922 1.9333-0.5 3.2183-1.3159 3.8516-2.4492 0.5-0.9 0.4167-1.7682-0.25-2.6016-0.4333-0.6-1.1833-0.73177-2.25-0.39844-2 0.6-4.3334 1.9818-7 4.1484-0.2667 0.23333-0.85 0.3845-1.75 0.45117l-0.45117 0.0488-0.25-0.5c-0.1333-0.4-0.19922-0.71589-0.19922-0.94922-0.033-0.5 0.083-1.0833 0.34961-1.75 0.1333-0.36667 0.35039-0.93255 0.65039-1.6992 0.7333-2.4333 0.34961-4.5167-1.1504-6.25-0.7667-0.9-1.6504-1.1016-2.6504-0.60156-0.5333 0.26667-0.83369 0.66784-0.90039 1.2012-0.033 0.26667-0.0162 0.78216 0.0508 1.5488 0.1 1.0667 0.4333 2.1674 1 3.3008 0.1857 0.37144 0.60671 1.0113 0.91211 1.5195 0.015 0.026 0.0221 0.0541 0.0371 0.0801 0.012 0.0117 0.0144 0.012 0.0254 0.0234 0.2842 0.46898 0.44367 0.79564 0.82617 1.377 0.2333 0.33333 0.34961 0.75 0.34961 1.25-0.033 0.93333-0.033 1.6174 0 2.0508l0.65039 6.3496c0.033 0.0667 0.0488 0.13255 0.0488 0.19922 0 0.0667-0.0326 0.0841-0.0996 0.0508-0.1667-0.0667-0.60078-0.1345-1.3008-0.20117-0.2978 0-0.55735-0.0499-0.78125-0.14844-0.067-0.15302-0.17236-0.28684-0.31836-0.40039-0.033 0-0.0508-0.0174-0.0508-0.0508-0.4651-0.46507-0.96647-0.84386-1.4844-1.1797-0.2315-0.16429-0.50919-0.29532-0.77149-0.4375-0.2399-0.12064-0.48613-0.22485-0.73633-0.32031-0.3555-0.15186-0.65649-0.34461-1.0586-0.46289-1.7333-0.46667-3.2159-0.11589-4.4492 1.0508-0.3333 0.33333-0.45156 0.80039-0.35156 1.4004s0.38486 1.1659 0.85156 1.6992c0.4333 0.46667 1.3655 0.7845 2.7988 0.95117 1.0333 0.1 2.0004 0.11571 2.9004 0.0488 0.3667-0.0333 0.8667-0.23294 1.5-0.59961 0.6-0.33333 1.0825-0.51745 1.4492-0.55078 0.8667-0.0667 1.4849 0.0516 1.8516 0.35156 0.4333 0.33333 0.64844 0.96511 0.64844 1.8984 0 0.73333 0.11826 1.6171 0.35156 2.6504 0.3 1.2 0.49961 2.1012 0.59961 2.7012l0.54883 3.5c-1.3333-0.3-2.0484-0.46667-2.1484-0.5-0.089-0.0506-0.19176-0.17151-0.28516-0.24609-0.011-0.0664 0.0104-0.14203-0.0156-0.20508-0.067-0.0333-0.0996-0.0837-0.0996-0.15039-0.067-0.13333-0.18291-0.28255-0.34961-0.44922-0.9774-0.97736-2.2176-1.5511-3.6973-1.7539-0.1297-0.0247-0.21722-0.075-0.35352-0.0957-1.5333-0.23333-2.7329-0.0996-3.5996 0.40039-0.9333 0.5-1.3345 1.1996-1.2012 2.0996 0.2 1.0333 0.90156 1.7 2.1016 2 2.0666 0.53333 4.3651 0.28333 6.8984-0.75 0.5-0.2 1.1667-0.0178 2 0.54883 0.8333 0.56666 1.3004 1.1171 1.4004 1.6504 0.3667 1.8667 0.85117 3.8512 1.4512 5.9512 0.8 2.9333 1.3833 4.8984 1.75 5.8984 0.2 0.53333 0.6167 1.9674 1.25 4.3008 0.2667 0.86667 0.66592 1.9674 1.1992 3.3008 0.7 1.7333 1.1341 2.8322 1.3008 3.2988l0.19922 0.45117 0.34961 0.54883c0.2333 0.6-0.15039 1.1678-1.1504 1.7012-1.2333 0.63333-2.3825 2.0326-3.4492 4.1992-0.5667 1.2333-0.9 2.4659-1 3.6992v1.3516c0.05 0.26073 0.0577 0.38129 0.0937 0.5957 0.01 0.085-2.3e-4 0.16866 0.01 0.25391v0.0488c0 0.0423 0.0505 0.0928 0.0625 0.13672 0.024 0.17081 0.0759 0.43508 0.0879 0.56445 0.033 0.63333-0.15079 1.1663-0.55079 1.5996-0.39999-0.76667-0.86513-1.7667-1.3984-3-0.9333-2-1.5845-3.5329-1.9512-4.5996-0.067-0.16667-0.016-0.41667 0.15039-0.75 0.1667-0.43333 0.25-0.71628 0.25-0.84961 0.099-0.62418 0.43452-1.0969 0.98632-1.4297 0.023 2e-3 0.0415 0.0287 0.0645 0.0293 0.1068-0.0107 0.23854-0.0611 0.39843-0.15039 0.3498-0.17745 0.67201-0.38463 0.97461-0.61133 0.076-0.035 0.095-0.0512 0.17579-0.0879 0.1225-0.0689 0.17691-0.22567 0.2871-0.31055 0.2566-0.23447 0.49279-0.48896 0.70899-0.76562 0.071-0.10976 0.19291-0.15331 0.25391-0.27539 0.018-0.0299 0.0396-0.11871 0.0586-0.15234 0.1569-0.23846 0.31031-0.48059 0.44141-0.7461 0.563-1.1454 0.75262-2.2972 0.61132-3.4531 0.046-0.32156 0.092-0.42722 0.13868-0.79688 0-0.5-0.083-0.81784-0.25-0.95117-0.8333-0.36667-1.4321-0.48294-1.7988-0.34961-0.1233 0.0436-0.17187 0.15399-0.28907 0.20312-0.20939 0.0636-0.40881 0.1283-0.51171 0.19727-0.5507 0.30716-0.99648 0.7043-1.3926 1.1445-0.1474 0.16449-0.3129 0.31316-0.4375 0.49805-0.4753 0.6881-0.80041 1.5064-0.97071 2.457l-0.29882 1.5996c-0.015 0.22018 0.0176 0.41979 0.0996 0.59961l0.30078 0.5 0.0488 0.0508c0.014 0.0164 0.0678 0.0551 0.0898 0.0762 0.034 0.21389 0.11133 0.55407 0.11133 0.67383 0 0.23333-0.068 0.50078-0.20117 0.80078-0.1667 0.33333-0.28291 0.59883-0.34961 0.79883l-0.25386 0.90081c-1.0333-3.3-1.6671-5.2826-1.9004-5.9492-0.2333-0.66666-0.45039-1.6667-0.65039-3-0.2667-1.3667-0.49922-2.3841-0.69922-3.0508l-0.0508-0.34961c-0.067-0.5 0.034-1.0504 0.30078-1.6504 0.1667-0.33333 0.4167-0.81589 0.75-1.4492 1-2.6 0.80039-4.8674-0.59961-6.8008-0.1333-0.2-0.35039-0.53333-0.65039-1-0.3-0.3-0.6333-0.36589-1-0.19922-0.9 0.4-1.5008 1.2488-1.8008 2.5488-0.068 0.32696 0.037 0.66353 0 0.99219-0.04 0.37939-0.0558 0.78353-0.0488 1.209-2e-4 0.2964 0.0258 0.56888 0.0488 0.8457 0.036 0.43624-0.09 0.86346 0 1.3027 0.2667 1.0667 0.6 1.8012 1 2.2012 0.5333 0.46667 0.8667 1.1488 1 2.0488l0.20117 1.5508c0.1667 1.1667 0.55039 2.9671 1.1504 5.4004 0.5333 2.0667 1.0159 3.5996 1.4492 4.5996v0.25l-0.34961-0.0996c-0.3333-0.1-0.63369-0.25117-0.90039-0.45117-0.2616-0.19185-0.40366-0.62211-0.60156-0.94141v-8e-3c0-0.19349-0.071-0.3776-0.20117-0.55078-0.1763-0.2254-0.37335-0.39067-0.55665-0.5957-0.50539-1.1255-1.5023-1.9875-3.1426-2.5039-0.113-0.0371-0.15513 7e-3 -0.26563-0.0273-0.705-0.3313-1.4015-0.56062-2.084-0.57227l-1 0.0996-0.25 0.0996c-0.025 0.0112-0.0521 8e-3 -0.0781 0.0156-0.1575 4e-3 -0.38365-0.0697-0.53125-0.0547-0.1375-0.0851-0.2788-0.15909-0.4414-0.16016l-0.34766 0.0762c-0.063 0.0151-0.19115-0.043-0.25195-0.0254-0.1283 0.0513-0.085 0.25975-0.1543 0.36524-0.023 0.0403-0.0397 0.084-0.0547 0.1289-0.06 0.15522-0.2233 0.21547-0.1914 0.45508 0.018 0.27293 0.19298 0.52823 0.30078 0.79102 0.025 0.0607 0.0158 0.15707 0.0488 0.20898h0.0312c0.074 0.14766 0.067 0.30465 0.16992 0.44922 0.2282 0.28964 0.72767 0.49248 1.0137 0.76367 0.8283 0.8109 1.6862 1.4802 2.5879 1.9492 0.1062 0.0549 0.13835 0.13374 0.24805 0.1875 0.3012 0.15983 0.61607 0.17763 0.92187 0.29101 0.2766 0.0962 0.55284 0.19561 0.83594 0.26172 0.4275 0.0984 0.85687 0.1737 1.293 0.1836 0.152 0.011 0.29552 0.0616 0.44922 0.0645l0.55078-0.0996c0.041-0.0148 0.066-0.0459 0.10351-0.0644 0.3168-0.0457 0.62412 5e-3 0.94532-0.0859l0.25-0.0508c0.3667 0 0.85117 0.25 1.4512 0.75 0.6333 0.26667 1.0829 0.76667 1.3496 1.5 0.2667 0.9 0.48369 1.5512 0.65039 1.9512 0.7667 1.7333 1.7821 3.8651 3.0488 6.3984 0.3333 0.56666 0.5833 1.0008 0.75 1.3008 0.3333 0.53333 0.53291 1.0159 0.59961 1.4492 0.033 0.23333-0.083 0.30117-0.34961 0.20117-0.2667-0.13333-0.48369-0.20117-0.65039-0.20117-0.4669-0.0778-0.76559-0.41697-1.0508-0.77734v-2e-3c-2e-4 -0.14103-0.0316-0.28153-0.0976-0.41992h0.0488c-0.6275-1.4249-1.6275-2.5082-3-3.25-1.3594-0.79867-3.0086-1.1979-4.9492-1.1992l-1.4512 0.0996c-0.01-5.3e-4 -0.0369 5.4e-4 -0.0469 0-0.8333 0-1.3179 0.18216-1.4512 0.54883-0.1667 0.5-0.066 1.0504 0.30078 1.6504 0.1779 0.30927 0.51907 0.47088 0.73047 0.75 0.4231 0.55008 0.91097 1.0592 1.4805 1.5176 0.4047 0.31627 0.79854 0.64169 1.2734 0.89453 0.097 0.0571 0.16552 0.13229 0.26562 0.1875h-0.0527c1.0797 0.56891 2.1648 0.86299 3.252 1.0273 0.1337 0.0253 0.21261 0.10066 0.34961 0.12305 0.065 8e-3 0.17118-0.0493 0.23828-0.0449 0.2371 0.0199 0.47344 0.095 0.71094 0.0957 0.606 1e-3 1.106-0.0494 1.5-0.15039 0.025-0.0267 0.0437-0.0441 0.0527-0.0508 0.2763-0.0426 0.4428-0.18962 0.5586-0.38672 0.25049-0.0863 0.53442-0.0902 0.89062 0.0879 0.6333 0.26667 0.99961 0.41589 1.0996 0.44922 0.8 0.16667 1.4163 0.68411 1.8496 1.5508 0.4333 1 0.80156 1.7171 1.1016 2.1504 0.4333 0.56667 0.9333 1.3322 1.5 2.2988 0.8333 1.3667 1.3159 2.1496 1.4492 2.3496l1.3496 1.9004-0.0508-0.0488-6.6504-1.8516c-0.1292-0.0431-0.14736-0.14192-0.19336-0.22656 0.04-0.17412 0.0482-0.33606-0.01-0.47266v-0.19922c-0.072-0.22123-0.18841-0.38789-0.34961-0.5v-0.0509c-0.6335-0.65518-1.2656-1.1686-1.8965-1.6172-0.2168-0.16022-0.43542-0.31825-0.66992-0.45508-0.8726-0.51993-1.7419-0.8296-2.6094-0.95312-0.1748-0.0359-0.29351-0.14632-0.47461-0.17383-1.0278-0.14178-1.558-0.14639-2.3125-0.21289-0.1324-0.0195-0.14471-0.0157-0.28711-0.0371l-1.3496-0.20117c8e-4 -8e-3 -0.0168-8e-3 -0.0508 0l-0.0996-0.0488c-0.2094 5e-3 -0.37875 0.0968-0.53125 0.22852-0.6888 0.0717-1.273 0.22236-1.4688 0.66992-0.2333 0.46666-0.082 1.0345 0.45118 1.7012 1.4 1.8 3.2818 3.0326 5.6484 3.6992 1.1621 0.35453 2.3776 0.41769 3.6211 0.33008 0.5335-0.0115 1.0343-0.0281 1.3301-0.0801 0.2247-0.0295 0.39575-0.10765 0.52735-0.22266 0.2608-0.0618 0.50728-0.0469 0.77148-0.12695 0.3333-0.0667 0.76748-0.0337 1.3008 0.0996 0.3333 0.1 0.80039 0.25117 1.4004 0.45117 0.3667 0.0667 0.89961 0.21589 1.5996 0.44922 0.6 0.16667 1.1175 0.25 1.5508 0.25l0.5996 0.0996c0.5333 0.13333 0.98291 0.46667 1.3496 1 0.3667 0.7 0.66709 1.2 0.90039 1.5l3 3.9004c0.4 0.46667 0.66553 0.83294 0.79883 1.0996 0.1667 0.23333 0.083 0.31667-0.25 0.25l-4-0.19922c-0.1736-0.0248-0.36649-0.19868-0.55859-0.37109-0.039-0.17973-0.11334-0.34147-0.24024-0.47852-1.0492-1.0312-2.4993-1.6816-4.293-2.0039-0.2084-0.0444-0.34005-0.21515-0.55664-0.2461-0.4618-0.0616-1.4192 5e-3 -2.1016 0-0.7952-5e-3 -1.3549-0.0718-2.4492 0-1.5333 0.16667-2.5159 0.68216-2.9492 1.5488-0.2667 0.43333-0.20079 0.88294 0.19921 1.3496 1.1667 1.5 2.7675 2.5174 4.8008 3.0508 2.0333 0.53333 3.95 0.43255 5.75-0.30078 0.088-0.0352 0.51791-0.32611 0.79101-0.5h0.01l0.65039-0.29883c0.1254-0.0551 0.19425-0.14951 0.28515-0.22851 0.5021-0.29047 0.98517-0.50125 1.4141-0.47266l4.3008 0.20117c0.3333 0.0667 0.63369 0.28372 0.90039 0.65039 0.3333 0.43333 0.5833 0.74922 0.75 0.94922 1.0333 1.3 1.8996 2.1992 2.5996 2.6992 0.1333 0.1 0.35039 0.31706 0.65039 0.65039 0.2333 0.33333 0.46592 0.55039 0.69922 0.65039 0.033 0 0.0508 0.0659 0.0508 0.19922-0.8333 0.16667-1.2675 0.26745-1.3008 0.30078l-0.65039 0.0996c-0.4667 0.0333-0.99961-0.0829-1.5996-0.34961-0.6667-0.3-1.1821-0.49961-1.5488-0.59961-1.9667-0.66667-3.8504-0.68397-5.6504-0.0508-0.371 0.12905-0.58994 0.35928-0.93164 0.50781-0.7241 0.2776-1.4225 0.60692-2.0684 1.043-0.062 0.0342-0.092 0.11325-0.14258 0.16406-0.2065 0.14784-0.51733 0.22567-0.70703 0.38477-0.6333 0.53333-0.93369 0.95-0.90039 1.25 0 0.33333 0.3333 0.66667 1 1 1.3333 0.66666 2.5988 1 3.7988 1 3.1 0 5.2337-0.63177 6.4004-1.8984 0.6333-0.7 1.4337-1.1845 2.4004-1.4512 0.4667-0.16667 1.1992-0.34883 2.1992-0.54883 0.5-0.13333 1.0833 0.0992 1.75 0.69922 0.1667 0.1 0.43408 0.26667 0.80078 0.5 0.8 0.36667 1.0675 0.80078 0.80078 1.3008-0.4333 0.53333-0.71826 0.93255-0.85156 1.1992-0.3333 0.8-1.2655 2.8174-2.7988 6.0508l-0.55078 0.89844c-0.1667 0.36667-0.14952 0.58372 0.0508 0.65039 0.1667 0.0667 0.34883-0.0496 0.54883-0.34961 2.1-3.1667 3.5012-5.4826 4.2012-6.9492 0.2333-0.46666 0.63252-0.76706 1.1992-0.90039 0.3333-0.1 0.8333-0.21628 1.5-0.34961 0.3-0.13333 0.74961-0.26706 1.3496-0.40039 0.4-0.23333 0.8167-0.30117 1.25-0.20117 0.011 3e-3 0.0807 0.0327 0.0957 0.0371 0.093 0.10521 0.20967 0.19373 0.35547 0.26367h-0.0508c0.2205 0.0735 0.43414 0.0648 0.65234 0.11133 0.05 0.021 0.0456 0.0164 0.0996 0.0391 0.035 0.0132 0.08-0.0142 0.11523-2e-3 0.295 0.0511 0.59407 0.15099 0.88477 0.15234 0.4501-1e-3 0.91139-0.10038 1.3711-0.18555 0.3877-0.0532 0.72041 0.12416 1.1289-0.0156 0.3848-0.13796 0.5842-0.46123 0.9375-0.63086 0.1889-0.0832 0.3721-0.12225 0.5625-0.21875 1.1462-0.5528 2.0176-1.1992 2.627-1.9336 0.045-0.0515 0.12933-0.0647 0.17383-0.11719l0.69922-0.79883c0.2333-0.4 0.18291-0.78372-0.15039-1.1504-0.3667-0.43333-0.96553-0.68333-1.7988-0.75-0.5336-0.0593-1.0003 0.0575-1.5059 0.0723-0.063-1e-3 -0.13291-0.0212-0.19531-0.0215-0.2719 1.4e-4 -0.53854 0.0361-0.80664 0.0684-1.3792 0.18158-2.6873 0.55337-3.8418 1.3301-0.7333 0.46666-1.2508 0.85039-1.5508 1.1504-0.027 0.0233-0.0287 0.0584-0.0547 0.082-0.031 0.0254-0.0667 0.0426-0.0977 0.0684-0.1414 0.11211-0.25771 0.29622-0.34961 0.55078 0 0.0366-0.0188 0.085-0.0508 0.14844 0 7e-3 2e-4 0.0128 0 0.0195-0.1614 0.26263-0.41915 0.48134-0.49805 0.78125-0.033 0.16667-0.43252 0.33333-1.1992 0.5-0.5333 0.1-0.93252 0.18333-1.1992 0.25l-0.40039 0.0996 0.15039-0.44922c0.4667-0.63333 0.91631-1.4163 1.3496-2.3496 0.2667-0.56666 0.61553-1.4 1.0488-2.5 0.7667-1.8 1.9179-4.4841 3.4512-8.0508l1-2.3496c0.1667-0.53333 0.51553-0.88411 1.0488-1.0508 0.1-0.0333 0.38486-0.11667 0.85156-0.25 0.3333-0.1 0.59883-0.19883 0.79883-0.29883 0.6-0.33333 1.3675-0.65117 2.3008-0.95117 0.1249-0.0312 0.28218 0.0502 0.42188 0.0703 0.1022 0.18776 0.24731 0.34323 0.47851 0.42969h-0.0506c0.6727 0.168 1.3064 0.25133 1.9004 0.25 0.7039-4e-3 1.3804-0.18592 2.043-0.45313 0.1474-0.056 0.31133 0.0238 0.45703-0.0469 0.1702-0.0827 0.35379-0.33637 0.52539-0.4375 0.074-0.0458 0.15151-0.0621 0.22461-0.11133 0.5612-0.36925 1.3-1.0271 2.1504-1.8672 0.2372-0.2459 0.45942-0.30532 0.69922-0.58398 0.5333-0.7 0.34922-1.3492-0.55078-1.9492-1.2666-0.8-2.85-0.81731-4.75-0.0508-1.389 0.60277-2.3091 1.4192-2.9766 2.3516-0.1923 0.17248-0.37607 0.30845-0.57227 0.49805-0.1176 0.14193-0.16488 0.28717-0.20508 0.43164-0.2498 0.40942-0.5623 0.77223-1.0957 0.96875-0.9 0.33333-1.4155 0.55039-1.5488 0.65039-0.6333 0.4-1.0849 0.59961-1.3516 0.59961h-0.0488l3.0996-8.1992c0.3333-0.96667 0.76748-2.4337 1.3008-4.4004 0.067-0.23333 0.24883-0.38255 0.54883-0.44922 0.4 0 0.66748-0.0504 0.80078-0.15039 0.2333-0.2 0.66553-0.38411 1.2988-0.55078 0.3333-0.26667 0.65117-0.28237 0.95117-0.0488 0.5 0.4 0.76553 0.59961 0.79883 0.59961 1.8333 0.5 3.6667 0.21706 5.5-0.84961 0.3317-0.20826 0.48761-0.66109 0.78711-0.91406 0.8021-0.62327 1.5055-1.3381 2.0137-2.2363 0.034-0.0587 0.0415-0.11865 0.0625-0.17773 0.1465-0.25282 0.40561-0.34953 0.53711-0.62305 0.1333-0.26667-3.9e-4 -0.6-0.40039-1-0.4-0.36667-0.8167-0.58372-1.25-0.65039-0.1521-0.0241-0.31555 0.0595-0.46875 0.0469-0.1438-0.0152-0.27589-0.0477-0.42969-0.0469-0.594 1e-3 -1.2201 0.10602-1.8691 0.2793-0.3362 0.0929-0.67598 0.22089-1.0176 0.36523-0.2402 0.0923-0.46774 0.14192-0.71484 0.25586-0.7445 0.37592-1.3853 0.81379-1.959 1.291-0.064 0.0501-0.12475 0.0576-0.18945 0.10938-0.093 0.0814-0.24041 0.3095-0.34961 0.43555-0.2533 0.25307-0.54025 0.48594-0.75195 0.76367-0.053 0.0673-0.0344 0.16144-0.0664 0.23633-0.2956 0.39675-0.58253 0.74774-0.83203 0.91406-0.3 0.23333-1.1508 0.63451-2.5508 1.2012l1.1504-4.8008c0.1333-0.53333 0.39883-1.3008 0.79883-2.3008 0.033-0.1 0.26787-0.16589 0.70117-0.19922 0.064-0.0327 0.099-0.0986 0.16211-0.13281 0.2332-0.0741 0.4632-0.19525 0.6875-0.41797 0.2599-0.22181 0.46737-0.47332 0.69727-0.71289 0.6113-0.56805 1.1156-1.2578 1.5312-2.0488 0.022-0.0412 0.0415-0.0835 0.0625-0.125 0.2541-0.503 0.58256-0.92107 0.75976-1.5117 0.1333-0.46666 0.33291-1.1837 0.59961-2.1504 0.2-0.83333 0.25039-1.5678 0.15039-2.2012-0.1667-1.1667-0.45156-2.4651-0.85156-3.8984-0.067-0.16667-0.067-0.30039 0-0.40039 0-0.0333 0.10078-0.11667 0.30078-0.25 1.0333-0.7 1.8492-1.5178 2.4492-2.4512 0.1333-0.23333 0.35039-0.31667 0.65039-0.25 3.4667 1.1667 5.6663 1.9671 6.5996 2.4004 0.2 0.1 0.3667 0.29961 0.5 0.59961 0.1667 0.36667 0.28486 0.60117 0.35156 0.70117 2.1666 2.5667 4.6318 3.6655 7.3984 3.2988 0.6333-0.1 1.1683-0.29961 1.6016-0.59961 0.4667-0.4 0.7167-0.88255 0.75-1.4492 0.033-0.96667-0.68369-1.7496-2.1504-2.3496-1.9-0.73333-3.5163-1.0841-4.8496-1.0508h-1.1504c-0.4667 0.0333-0.85039 0.0992-1.1504 0.19922-0.3 0.13333-0.61592 0.10032-0.94922-0.0996-0.3333-0.23333-0.60078-0.38255-0.80078-0.44922-1.2667-0.53333-2.2337-0.91706-2.9004-1.1504-1.1-0.4-2.0825-0.70039-2.9492-0.90039 0.5-0.66667 1-1.5504 1.5-2.6504 0.7667-1.7 1.1988-2.6322 1.2988-2.7988 0.1333-0.3 0.36787-0.41628 0.70117-0.34961 0.1667 0.0333 0.43213 0.0992 0.79883 0.19922 1.7 0.0667 2.9675 0.0667 3.8008 0h0.0996c0.3 0 0.65078 0.13372 1.0508 0.40039 0.1319 0.0879 0.15497 0.0888 0.26367 0.1582 0.032 0.0168 0.0529 0.0795 0.0859 0.0918h0.0508c0.012 4e-3 0.0212 5e-3 0.0332 0.01 0.2014 0.12334 0.47201 0.30207 0.56641 0.33984 2.5333 0.86667 4.7988 0.88397 6.7988 0.0508 0.7667-0.36667 1.3345-0.91706 1.7012-1.6504 0.4-0.83333 0.36739-1.5833-0.0996-2.25-0.3333-0.5-1-0.78294-2-0.84961-3.2-0.16667-5.8337 0.73256-7.9004 2.6992l-0.34961 0.0508h-2.4512c-0.9 0-1.65-0.0504-2.25-0.15039-0.5333-0.1-0.73291-0.29961-0.59961-0.59961 0.067-0.16667 0.18291-0.33333 0.34961-0.5 0.3333-0.76666 0.69961-1.8016 1.0996-3.1016 0.4667-1.5667 0.78447-2.5996 0.95117-3.0996 0.067-0.26667 0.24883-0.40039 0.54883-0.40039 0.4667-0.0333 0.7167-0.0663 0.75-0.0996 1.3-0.53333 2.3504-0.86667 3.1504-1l0.55078-0.0996c0.2594-0.0472 0.64919-1e-3 1.0254 0.0352 0.048 0.0161 0.071 0.0528 0.125 0.0644 0.4785 0.10634 1.0125 0.13863 1.5547 0.16016 0.048 4e-3 0.21154 0.041 0.24414 0.041 0.033 2e-3 0.0627-7e-3 0.0957-6e-3 0.02 1.1e-4 0.0347 6e-3 0.0547 6e-3 0.1267 0 0.24259-0.0243 0.36719-0.0293 1.1648-7e-3 2.2694-0.18662 3.2832-0.62109 1.3667-0.56667 2.3337-1.4504 2.9004-2.6504 0.2667-0.6 0.16592-1.1833-0.30078-1.75-0.5-0.56667-1.1337-0.81667-1.9004-0.75-1.1333 0.13333-1.7167 0.19922-1.75 0.19922-0.6667 0.13333-1.2325 0.36784-1.6992 0.70117-1.3667 0.93333-2.45 1.9333-3.25 3-0.3333 0.4-0.81787 0.70039-1.4512 0.90039-0.7333 0.13333-1.1984 0.24961-1.3984 0.34961-0.2667 0.1-0.61748 0.19883-1.0508 0.29883-0.6 0.13333-0.95078 0.21667-1.0508 0.25-0.2333 0.1-0.33213 0.0341-0.29883-0.19922 0.2667-1.2667 0.41592-1.9837 0.44922-2.1504l0.0508-0.25c0.095-0.38194 0.36903-0.74806 0.79883-1.0996 0-0.0333 0.0168-0.0508 0.0508-0.0508 0.6-0.46667 0.96631-0.78255 1.0996-0.94922 0.1107-0.15639 0.1819-0.30307 0.2832-0.45703 0.039-0.0539 0.07-0.11641 0.10742-0.17188 1.2199-1.9094 1.75-3.6408 1.5098-5.1719-0.2-1.2-0.76592-1.9326-1.6992-2.1992-0.8667-0.26667-1.5333 7.8e-4 -2 0.80078-0.9667 1.6333-1.4008 3.2496-1.3008 4.8496 0.1568 0.94112 0.20732 1.4528 0.29492 2.1172l0.0547 0.43164v0.05049c0 0.0354 0.0184 0.0583 0.0234 0.0918 0.03 0.2528 0.11015 0.70633 0.12695 0.9082 0.033 0.26667 6.9e-4 0.58255-0.0996 0.94922-0.4 0.96666-0.68291 1.7012-0.84961 2.2012l-0.15039 0.54883c-0.1667 0.4-0.3333 0.58411-0.5 0.55078-0.1333-0.0333-0.49961-0.34922-1.0996-0.94922-0.2-0.23333-0.51787-0.58411-0.95117-1.0508-0.3667-0.4-0.73291-0.70039-1.0996-0.90039-0.4284-0.23071-0.69232-0.61078-0.79492-1.1348 0.1164-0.7445-0.21469-1.6432-1.0547-2.7148-0.033 0-0.0508-0.0174-0.0508-0.0508-0.058-0.0777-0.15986-0.12828-0.22266-0.20313-0.6292-0.76473-1.423-1.4228-2.4277-1.9453-0.7667-0.36667-1.3984-0.50039-1.8984-0.40039-0.5333 0.13333-0.93447 0.41628-1.2012 0.84961-0.2333 0.43333-0.24883 0.91589-0.0488 1.4492 0.5 1.2333 1.3159 2.2004 2.4492 2.9004 0.8333 0.5 2.0504 0.94961 3.6504 1.3496 0.4 0.1 0.79922 0.3345 1.1992 0.70117l1.0508 1.0488c0.5333 0.76666 0.98291 1.2667 1.3496 1.5 0.5333 0.33333 0.80078 0.7345 0.80078 1.2012 0.033 0.3-0.085 0.76706-0.35156 1.4004l-1.5488 4.5996c-0.067 0.2-0.20039 0.25039-0.40039 0.15039l-4.0996-2.75c-0.049-0.0365-0.077-0.0936-0.11914-0.13672 0-0.10751 0.0576-0.19666 0.0176-0.31445-0.186-0.48821-0.43318-0.84975-0.67188-1.2285-0.032-0.069-0.073-0.1327-0.10937-0.19921-0.088-0.12867-0.16301-0.28368-0.25781-0.39844-0.3972-0.54666-0.93861-1.0113-1.6621-1.373-1.3333-0.66667-2.5155-0.71706-3.5488-0.15039-0.5667 0.33333-0.91748 0.78294-1.0508 1.3496-0.1667 0.66667 0.05 1.25 0.65039 1.75 1.6 1.5 3.1155 2.0833 4.5488 1.75 0.99999-0.23333 1.9671-0.0492 2.9004 0.55078 0.9667 0.8 1.7167 1.3329 2.25 1.5996 0.7667 0.36667 1.0845 0.86667 0.95117 1.5-0.3667 0.7-0.6167 1.2-0.75 1.5-0.3333 0.8-0.8333 1.6837-1.5 2.6504-0.067 0.13333-0.66748 0.94922-1.8008 2.4492-0.7 0.9-1.7659 1.3845-3.1992 1.4512-0.5333 0.0333-1.0333 0.23294-1.5 0.59961-0.2 0.16667-0.55078 0.56589-1.0508 1.1992-1.168 1.3627-1.7188 3.1108-1.9883 5.0352-0.165 0.7383-0.2768 1.4762-0.3125 2.2148-0.089 1.5892 0.17838 2.8721 0.80078 3.8496 0.035 0.0504 0.085 0.0724 0.125 0.11328 0.062 0.12501 0.055 0.31988 0.125 0.4375 0.1667 0.3 0.1667 0.66628 0 1.0996l-0.44922 1.1504c-0.033 0.23333-0.43447 1.7992-1.2012 4.6992l-0.90039 2.9004c-0.067 0.1-0.11514 0.18333-0.14844 0.25l-0.25-0.34961-0.15039-0.30078c-0.2666-0.53321-0.40039-1.1826-0.40039-1.9492 0-0.20524 0.0164-0.63735 0.0234-0.94727 0.01-0.0202 0.0214-0.0316 0.0274-0.0527v0.0508l0.19922-0.70117c0.017-0.1475 0.021-0.29667 0-0.44922-0.2854-1.4259-0.6188-2.5926-1-3.5-0.027-0.0596-0.0677-0.10362-0.0957-0.16211-0.1648-0.33919-0.36463-0.66369-0.58203-0.98047-0.4726-0.72656-1.0061-1.3889-1.6719-1.9082-0.1435-0.10428-0.30007-0.11771-0.45117-0.16797-0.3151-0.23957-0.43983-0.56034-0.79883-0.78125-0.6-0.36667-1.1-0.4345-1.5-0.20117-0.4 0.2-0.59961 0.66706-0.59961 1.4004 0 0.13381 0.0624 0.20496 0.0644 0.33594-0.1458 0.99454 0.094 2.2319 0.71484 3.709 0.26 0.77035 0.63385 1.4258 1.0606 2.0274 0.7309 1.1419 1.4876 1.9267 2.2676 2.3887 0.8599 0.46707 1.5306 1.1227 1.9414 2.0391l0.70117 1.5c0.1667 0.33333 0.033 1.0504-0.40039 2.1504-1.2667 3.2-2.1833 5.5992-2.75 7.1992-0.3667 1.1-0.89961 2.5012-1.5996 4.2012-1 2.3333-1.5833 3.7171-1.75 4.1504-1.2667 3-2.1349 4.8818-2.6016 5.6484-0.067 0.3-0.15 0.5345-0.25 0.70117 0.1-1.9667 0.16787-3.1333 0.20117-3.5 0.2333-2.0667 0.29922-5.1674 0.19922-9.3008l0.15039-5.25c0.067-1.9667 0.067-3.4492 0-4.4492-0.033-1.0667 0.017-2.6674 0.15039-4.8008v-2.5996c0-0.46667-0.0168-1.1663-0.0508-2.0996-0.033-0.86667-0.0162-1.5837 0.0508-2.1504 0.1333-0.96667 0.10069-2.4667-0.0996-4.5l-0.45117-20.449-0.15039-0.45117c0-0.3 0.05-0.49961 0.15039-0.59961 0.1333-0.0667 0.36787-0.0667 0.70117 0 1.1667 0.16667 2.2325 0.38372 3.1992 0.65039 0.1333 0.0333 0.36592 0.29883 0.69922 0.79883 1.7333 2.1333 3.9175 3.05 6.5508 2.75 0.8-0.1 1.3175-0.63294 1.5508-1.5996 0.1667-0.9-0.20157-1.6326-1.1016-2.1992-1.2-0.7-2.9655-1.0178-5.2988-0.95117-0.7 0-1.6496-0.0833-2.8496-0.25-1.3667-0.2-2.3183-0.31628-2.8516-0.34961-0.4-0.0333-0.65-0.16706-0.75-0.40039v-0.69922l-0.39844-9.8008c0-0.33333 0.099-0.44961 0.29883-0.34961 0.1333 0.0333 0.3 0.11667 0.5 0.25 0.5 0.1 1.2345 0.26667 2.2012 0.5 0.8667 0.23333 1.5817 0.48333 2.1484 0.75 0.1511 0.0755 0.54881 0.34586 0.84961 0.53906 0.044 0.0337 0.05 0.0802 0.10156 0.11133l0.34961 0.19922 0.0996 0.10156c0.2175 0.12139 0.44426 0.19049 0.66406 0.29883 0.3646 0.21222 0.75641 0.46442 1.0371 0.55078 1.6 0.53333 2.4992 0.81628 2.6992 0.84961 1 0.2 1.9167 0.0333 2.75-0.5 0.7333-0.43333 1.0163-1.0167 0.84961-1.75-0.2-0.86667-0.63213-1.4326-1.2988-1.6992-1.1333-0.4-2.4337-0.55117-3.9004-0.45117-0.2667 0.0333-1.5845 0.2-3.9512 0.5-0.4 0.0333-0.9-0.05-1.5-0.25-0.8667-0.26667-1.3667-0.41589-1.5-0.44922l-1.7988-0.45117c-0.3667-0.1-0.60117-0.24922-0.70117-0.44922-0.067-0.13333-0.11514-0.38333-0.14844-0.75-0.033-1.5667-0.15156-3.9174-0.35156-7.0508 0-0.16667 0.068-0.25 0.20117-0.25l0.25 0.0508c0.5 0.23333 1.3663 0.51628 2.5996 0.84961 1.1333 0.33333 1.9996 0.68411 2.5996 1.0508 1.7667 1.1333 3.6175 1.7671 5.5508 1.9004 0.4667 0.0333 1.0171-0.16823 1.6504-0.60156 0.6333-0.46667 1.0151-0.91628 1.1484-1.3496 0.1-0.5-0.049-1.0329-0.44922-1.5996-0.4-0.53333-0.91749-0.89961-1.5508-1.0996-1.5-0.43333-3.3488-0.26667-5.5488 0.5-1.6667 0.56667-3.1996 0.51628-4.5996-0.15039-0.6-0.16667-1.0516-0.31589-1.3516-0.44922l-0.29883-0.10156c-0.2-0.1-0.31631-0.28216-0.34961-0.54883-0.034-0.13345-0.0508-0.35039-0.0508-0.65039l-0.59961-10.35c-0.033-0.26667-0.0182-0.41784 0.0488-0.45117 0.033-0.1 0.18447-0.1 0.45117 0 0.9 0.4 2.5996 1.0337 5.0996 1.9004 0.075 0.025 0.17742 0.17701 0.26172 0.24414 0.041 0.15215 0.12028 0.28822 0.23828 0.40625v-0.0508c0.1585 0.14722 0.31776 0.252 0.47656 0.38672 0.1495 0.19024 0.32303 0.43306 0.42383 0.51367 2.1333 1.6333 4.3 2.1663 6.5 1.5996 1.3667-0.3 2.0159-1.1488 1.9492-2.5488-0.067-0.86667-0.73331-1.5508-2-2.0508-1.9-0.73333-3.8496-0.70032-5.8496 0.0996-0.9667 0.36667-2.05 0.35096-3.25-0.0488-1.3-0.6-2.3-0.96628-3-1.0996-0.8-0.16667-1.2825-0.5349-1.4492-1.1016-0.067-0.16667-0.11709-0.75-0.15039-1.75-0.067-1.0667-0.25078-2.683-0.55078-4.8496-0.067-0.66667-0.067-1.6822 0-3.0488 0-0.13333 0.11631-0.16823 0.34961-0.10156l2 0.85156c0.79999 0.33333 1.4337 0.64922 1.9004 0.94922l0.51953 0.34766c0.101 0.21342 0.25795 0.40559 0.53125 0.55273 0.3686 0.22243 0.69483 0.31998 1.0488 0.5 0 1e-3 -2.4e-4 3e-3 0.01 4e-3 0.8971 0.56394 1.7453 0.94707 2.543 1.1465 1.4652 0.33812 2.8042 0.20913 4.0312-0.33398 0.014-4e-3 0.0544-0.0134 0.0684-0.0176l0.0332-0.0312c0.1893-0.0881 0.38281-0.15831 0.56641-0.26758 0.6-0.3 0.90039-0.88333 0.90039-1.75 0.067-0.83333-0.21631-1.4496-0.84961-1.8496-0.8667-0.56666-1.8667-0.86706-3-0.90039-0.7 0-1.7504 0.13372-3.1504 0.40039-0.4333 0.0667-0.91592 0.24883-1.4492 0.54883-0.6 0.3-1.0496 0.5345-1.3496 0.70117-0.1333 0.1-0.3 0.1-0.5 0-1.3333-0.76666-2.75-1.4333-4.25-2-0.1-0.0667-0.15039-0.15-0.15039-0.25 0-0.96666-0.10078-2.4008-0.30078-4.3008-0.2333-1.9-0.34961-3.3341-0.34961-4.3008-0.033-0.5 0.068-0.75 0.30078-0.75 0.1333 0 0.34844 0.0833 0.64844 0.25 0.5333 0.13333 1.3337 0.31745 2.4004 0.55078 0.9667 0.23333 1.7671 0.48333 2.4004 0.75 0.1234 0.037 0.28858 0.21413 0.42578 0.29688 0.043 0.0505 0.064 0.10697 0.125 0.15234 0.4799 0.42414 0.97776 0.75608 1.4727 1.1055 0.051 0.039 0.19226 0.17472 0.22656 0.19531 0.1059 0.08 0.2074 0.13394 0.3125 0.20898 0.093 0.0598 0.18404 0.12836 0.27734 0.18555 1.5433 1.0452 2.9997 1.5842 4.3594 1.5547 1.6333-0.0667 2.5849-0.71589 2.8516-1.9492 0.01-0.0277-1.3e-4 -0.0488 0.01-0.0762 0.011-0.0429-5.4e-4 -0.0999 0.01-0.14453 0.2102-1.4364-0.24581-2.4236-1.416-2.9297-0.053-0.0202-0.10325-0.0295-0.15625-0.0488-0.058-0.0266-0.084-0.0772-0.14453-0.10156-0.3049-0.0984-0.6013-0.15137-0.9004-0.2207-0.13009-0.034-0.26007-0.0674-0.38867-0.0957-0.1604-0.0307-0.31971-0.0559-0.47851-0.0781-1.1411-0.1905-2.2237-0.17749-3.2324 0.0957 0 0-0.0829 0.0339-0.0879 0.0352-0.79869 0.16613-1.6157 0.41151-2.4609 0.76367-0.072 0.0359-0.11007 0.0868-0.16797 0.1289-0.2237 0.0283-0.44241 0.0487-0.63281 0.0215-0.5667-0.0667-1.2508-0.21589-2.0508-0.44922l-2-0.59961c-0.66669-0.23333-1.1163-0.33411-1.3496-0.30078-0.3333 0-0.56592-0.18411-0.69922-0.55078v-0.19944c-0.067-0.33333-7.8e-4 -0.60078 0.19922-0.80078 0.015-0.0136 0.026-0.0293 0.041-0.043 0.1827-0.0999 0.35407-0.24938 0.50977-0.45703 0.056-0.076 0.087-0.15604 0.14062-0.23242 0.8165-0.95808 1.3927-2.0756 1.709-3.3672 0.2333-1 0.2333-2.25 0-3.75-0.1667-1-0.7171-1.7655-1.6504-2.2988-0.4833-0.26667-0.9504-0.40911-1.4004-0.42578zm41.744 99.926 2e-3 2e-3c1e-3 1e-4 3e-3 -2e-3 4e-3 -2e-3zm2e-3 2e-3c-0.33299-0.0324-0.78074 0.0643-1.3457 0.29688-1.6 0.63333-2.7821 2.0171-3.5488 4.1504-0.7 2-0.83369 3.9826-0.40039 5.9492 0.033 0.23333 6.9e-4 0.46784-0.0996 0.70117-0.1667 0.23333-0.28486 0.4155-0.35156 0.54883l-1.1992 2.25c-0.033 0.0667-0.084 0.0841-0.15039 0.0508l-0.15039-0.15039c-0.4333-0.4-0.71631-0.73333-0.84961-1-0.2-0.36667-0.23261-0.83373-0.0996-1.4004 0.01-0.0538-0.0265-0.10457-0.0195-0.1582 0-0.10044 0.0415-0.18063 0.0195-0.29102l0.0508 0.0996-0.12109-0.29297c-0.022-0.99985-0.41499-1.9738-1.4297-2.9062-0.1905-0.16848-0.615-0.29068-0.8457-0.45117-0.5047-0.39812-1.0585-0.73466-1.7051-0.94922-0.089-0.0451-0.1725-0.0955-0.25-0.15039-0.1965-0.264-0.47941-0.39772-0.84961-0.40039 0-4e-5 2.3e-4 2e-3 -0.01 2e-3 -0.082-0.0302-0.107-0.0718-0.1914-0.10156-0.6-0.26667-1.0845-0.0825-1.4512 0.55078-0.2333 0.43333-0.26787 1.0167-0.10157 1.75 0.2 1.1333 0.71749 2.1159 1.5508 2.9492 0.2171 0.21715 0.68087 0.44847 0.97657 0.66992 0.1258 0.10842 0.24094 0.22918 0.37304 0.33008 0.2237 0.16101 0.43038 0.25282 0.64258 0.36523 0.273 0.16356 0.39273 0.3185 0.70703 0.48438 0.1 0.0667 0.28408 0.10156 0.55078 0.10156 0.3-0.0333 0.6004 0.0151 0.9004 0.14844 0.1 0.0333 0.3829 0.1845 0.8496 0.45117 0.8 0.53333 1.0829 1.1167 0.84961 1.75-0.4333 0.73333-0.74922 1.2663-0.94921 1.5996-1.2667 2.4667-2.2337 4.3174-2.9004 5.5508-0.3333 0.63333-1.1512 2.0151-2.4512 4.1484l-1 1.5508-1.2988-0.75c-0.79999-0.46667-1.2845-1.0674-1.4512-1.8008-0.028-0.11057-0.11364-0.18638-0.14843-0.29297v-6e-3c0-6e-3 -0.01-0.0112-0.0117-0.0176-0.4202-1.2629-1.2454-2.2796-2.5898-2.9824-0.2557-0.14062-0.56122-0.048-0.82422-0.1543-0.3755-0.15684-0.75898-0.30145-1.1758-0.39648-0.01-0.0223-0.0238-0.0378-0.0488-0.0488-0.2504-0.10039-0.61671-0.15078-1.0996-0.15039l-0.67188 0.0391c-0.1682 0.0107-0.30782-0.11215-0.47852-0.0898-0.2058 0.0284-0.24718 0.1027-0.42578 0.13867-0.09 2e-3 -0.12191 0.0124-0.22461 0.0117-0.2941-4e-3 -0.49625 0.10774-0.65625 0.27539-0.1992 0.084-0.56626 0.12064-0.69336 0.22461-0.3333 0.3-0.43408 0.74961-0.30078 1.3496 0.015 0.0628 0.099 0.0911 0.11719 0.15234 0.022 0.27661 0.108 0.52908 0.2832 0.74805 0.3443 0.45474 0.76597 0.85587 1.2305 1.2266 0.085 0.06 0.078 0.16589 0.16992 0.22266 0.2329 0.16823 0.3982 0.15041 0.6211 0.29101 0.5038 0.31393 1.0147 0.62258 1.6289 0.85938 0.1412 0.0411 0.26555 0.0591 0.40235 0.0937 0.1673 0.0442 0.38737 0.23308 0.54687 0.25586 0.1869 0.0311 0.41473-0.0435 0.60742-0.0273 0.3073 0.04 0.61218 0.0771 0.89258 0.0781l0.95118-0.0508c0.089-0.0141 0.18203-0.0835 0.27343-0.125 0.1843-0.0317 0.33679 0.0197 0.52539-0.0234 0.3-0.0667 0.6333-7.8e-4 1 0.19922 0.2 0.1 0.50039 0.26667 0.90039 0.5 0.1 0.0333 0.33252 0.14961 0.69922 0.34961 0.3 0.13333 0.55 0.20117 0.75 0.20117h0.15039l0.20118 0.0488c-0.1333 0.36667-0.2671 0.61667-0.4004 0.75-0.4667 0.46667-0.9667 1.1178-1.5 1.9512l-1.3496 2.0996c-1.9333 2.7-3.0167 4.2504-3.25 4.6504-0.3667 0.56667-1.2504 2.1326-2.6504 4.6992-0.1 0.13333-0.16787 0.23411-0.20117 0.30078-0.033 0.13333 0.017 0.23216 0.15039 0.29883 0.4 0.2 0.71788 0.0663 0.95118-0.40039 0.59999-1.2667 1.5321-2.7822 2.7988-4.5488 1.7667-2.4667 2.7841-3.9163 3.0508-4.3496 0.3667-0.56666 0.88213-0.91745 1.5488-1.0508 0.4-0.1 0.9833-0.21628 1.75-0.34961 1.1333-0.4 2.9008-0.9 5.3008-1.5 0.2-0.0667 0.34922-0.0512 0.44922 0.0488l0.20117 0.25c0.3838 0.18421 0.86307 0.11241 1.2891 0.18359 0.106 0.0182 0.19104 0.0679 0.31054 0.0664h0.14844c0.3596 0.0252 0.66288 0.20045 1.0508 0.15039 0.152-0.0179 0.52461-0.13433 0.72461-0.17383 0.3151-0.0589 0.68756-0.15227 1.0977-0.26562 0.3308-0.0876 0.4777-0.0917 0.8789-0.21094 0.087-0.0258 0.15639-0.10806 0.24219-0.13867l0.70703-0.25977h0.0508c0.9285-0.30729 1.8122-1.1755 2.6504-2.6016 0.13789-0.21843 0.14731-0.44954 0.0703-0.69141 0.023-0.0848-0.0305-0.16589-0.0215-0.25-4e-4 -0.0528-0.01-0.10944 0-0.1582l0.10157-0.44922c-0.018-0.19146-0.0821-0.34882-0.19336-0.47461-0.016-0.0247 9e-3 -0.0515-0.0117-0.0762-0.1333-0.2-0.36592-0.33372-0.69922-0.40039l-0.90039-0.14844c-0.1197-0.0171-0.24884 0.081-0.36914 0.0723-0.045-1e-3 -0.086-0.0234-0.13086-0.0234-0.5863 8e-3 -1.2455 0.18031-1.9375 0.42578-0.3911 0.12097-0.76401 0.0202-1.1621 0.22461-0.033 0.0333-1.0508 0.7-3.0508 2-0.1174 0.0705-0.27148 0.36564-0.42188 0.63477-0.046 0.069-0.11617 0.12987-0.13867 0.20703-0.015 0.0309-0.0241 0.026-0.0391 0.0586-0.2333 0.43333-0.50078 0.68333-0.80078 0.75-1.8 0.43333-3.1333 0.81706-4 1.1504-1.5 0.3-2.5833 0.66628-3.25 1.0996 1.5-2.1333 2.9496-4.4163 4.3496-6.8496 0.9667-1.6667 1.9667-3.5 3-5.5 0.1667-0.23333 0.3333-0.35156 0.5-0.35156l0.20117-0.0488c1.4-0.0333 2.8496-0.35117 4.3496-0.95117 0.1333-0.0667 0.26709-0.0318 0.40039 0.10156 0.1333 0.13333 0.23213 0.21667 0.29883 0.25 1.6 0.76667 3.2337 0.93333 4.9004 0.5 1.7667-0.43333 3.1329-1.4837 4.0996-3.1504 0.5083-0.8848 0.58616-1.5271 0.41406-2.0293-0.075-0.31676-0.28386-0.5493-0.66406-0.67187h0.0527c-0.036-0.0114-0.073-7e-3 -0.10937-0.0176-0.094-0.0433-0.079-0.14829-0.19141-0.18164-0.5443-0.14762-1.0576-0.0724-1.584-0.0898-0.022-1.6e-4 -0.0435-0.01-0.0645-0.01-0.012 6e-5 -0.0231 4e-3 -0.0351 4e-3 -1.3393-0.0237-2.6418 0.22149-3.8652 1.0449-0.7333 0.46666-1.2663 0.83489-1.5996 1.1016-0.6 0.46667-1.0516 0.94922-1.3516 1.4492-0.2667 0.46667-0.6833 0.76706-1.25 0.90039-0.6667 0.1-1.1492 0.21628-1.4492 0.34961-0.1 0.0333-0.78408 0.2-2.0508 0.5l-0.34961 0.0508 0.0996-0.30078c1-1.5 2.3004-3.8333 3.9004-7 0.1-0.16667 0.33447-0.28294 0.70117-0.34961 0.4333-0.1 0.69883-0.18333 0.79883-0.25 0.1666-0.0803 0.25075-0.23742 0.40625-0.32812 0.5266-0.2735 1.0028-0.63363 1.3984-1.1289 0.4153-0.44827 0.71719-1.0015 0.99218-1.5801 0.06-0.12867 0.11908-0.25784 0.17188-0.39062 0.1675-0.41669 0.42985-0.74463 0.53125-1.2227 0.3266-1.4572 0.2624-2.826 0-4.1504 0-0.0176-5e-4 -0.0311 0-0.0488v-0.0508c0-0.0493-0.033-0.0853-0.043-0.13086-0.079-0.35391-0.085-0.72397-0.20703-1.0684-0.0997-0.299-0.31702-0.46394-0.64844-0.49805zm-77.672 21.01c-0.11593-0.0244-0.22481-0.0126-0.32422 0.0371-0.4667 0.2-0.76514 0.64961-0.89844 1.3496-0.061 0.2623 0.0487 0.4788 0.0137 0.73437-0.1712 1.1226-0.16596 2.1049 0.0566 2.918 0.04 0.14248 0.11221 0.27616 0.16211 0.41602 0.056 0.14359 0.096 0.2992 0.16602 0.43164v0.0508c0.6636 1.2816 1.3806 2.2642 2.1504 2.9492 0.2464 0.19204 0.50328 0.2996 0.76758 0.33789 0.3254 0.2108 0.46339 0.34029 0.93359 0.61328 0.1667 0.1 0.38174 0.35 0.64844 0.75 0.2333 0.56667 0.43486 0.98333 0.60156 1.25l2.2988 3.8496c0.1 0.16667 0.13456 0.25 0.10156 0.25h-1.0488c-0.1233-0.0308-0.21492-0.18957-0.32422-0.27734-0.02-0.18256-0.10659-0.35833-0.27539-0.52344h0.0488c-0.5899-0.6157-1.2422-1.0707-1.9355-1.4219-0.1006-0.0563-0.19559-0.12056-0.30079-0.16992-0.75349-0.33205-1.571-0.49823-2.4414-0.53125-0.046-7.8e-4 -0.075-0.0254-0.1211-0.0254-0.021 0-0.0376 0.01-0.0586 0.01-0.032-4.5e-4 -0.0607-0.01-0.0937-0.01-0.72-2e-3 -1.3902 0.13827-2.0332 0.35156-0.1175 0.0397-0.22169 0.0977-0.33399 0.14454-0.3143 0.12573-0.63849 0.22298-0.93359 0.40234-0.206 0.11011-0.31546 0.26138-0.38086 0.43164-0.08 0.0701-0.19373 0.0941-0.26953 0.16992-0.3333 0.33333-0.39922 0.66667-0.19922 1 0.1648 0.14833 0.23 0.23017 0.3457 0.3457 0.024 0.0334 0.0256 0.0712 0.0566 0.10352v0.0508c1.1827 1.3495 2.7989 2.0316 4.8496 2.0488l0.30078-0.0488c0.042-2e-3 0.0746-2e-3 0.0996 0 0.4294-3.9e-4 0.9798-0.0837 1.6504-0.25l0.5-0.15039c0.3704-0.10996 0.59443-0.31498 0.73633-0.57422 0.3491-0.19155 0.68399-0.34906 0.96289-0.37695 1.0333-0.1 1.8996 0.23333 2.5996 1 0.7 0.96666 1.2504 1.6682 1.6504 2.1016l2.9473 3.1992c0.067 0.0667 0.15 0.0996 0.25 0.0996 0.1-0.0333 0.16787-0.0992 0.20117-0.19922 0.067-0.3 0.016-0.55-0.15039-0.75-0.2-0.26667-0.76592-0.90039-1.6992-1.9004-0.7-0.76667-1.2175-1.4333-1.5508-2-0.033-0.0667 0.11592-0.38255 0.44922-0.94922 0.3333-0.56666 0.55039-0.85156 0.65039-0.85156 0.3008-0.0208 0.60144-0.36216 0.90234-0.4668 0.6217-0.16208 1.1881-0.44775 1.6914-0.875 0.1021-0.089 0.20454-0.0596 0.30664-0.1582 0.1223-0.12229 0.1077-0.2502 0.2168-0.37305 0.3002-0.34207 0.58418-0.72075 0.83398-1.1758v0.0488c0.155-0.29356 0.20556-0.57625 0.31836-0.86524 0.051-0.16343 0.25285-0.31995 0.28125-0.48437 0.033-0.23191 0.0238-0.22555 0.0488-0.41016 0.1769-0.72725 0.24989-1.4413 0.15039-2.1387v-0.0507c-0.014-0.0707-0.10279-0.15624-0.14649-0.23242-0.03-0.13103-0.01-0.29601-0.0527-0.41797-0.082-0.17228-0.1951-0.0872-0.2832-0.20899 0-0.0155-0.0166-0.025-0.0176-0.041-0.041-0.0441-0.0736-0.0945-0.0996-0.15039-0.1003-0.20573-0.24952-0.33751-0.44922-0.39844-0.076-0.03-0.159-0.0474-0.25-0.0508h-0.1523c-0.7905 4e-3 -1.4942 0.35814-2.1484 0.9082-0.035 0.0275-0.067 0.0122-0.10156 0.041-0.036 0.0281-0.0363 0.0653-0.0703 0.0937-0.10669 0.0992-0.22707 0.14349-0.33007 0.25781-0.3942 0.41741-0.70667 0.9303-0.98047 1.4883-0.022 0.0577-0.10054 0.10161-0.11914 0.16016-0.025 0.0746-0.0356 0.17404-0.0606 0.25-0.077 0.18671-0.17473 0.35004-0.24023 0.55078-0.2066 0.63479-0.29774 1.2518-0.33594 1.8613-0.047 0.24389-0.12296 0.4358-0.16406 0.68945-0.033 0.16667-6.9e-4 0.53294 0.0996 1.0996 0.1 0.46667 0.052 0.85039-0.14844 1.1504l-0.45117 0.84961c-0.4-0.33333-0.63252-0.55039-0.69922-0.65039l-4.0996-6.5h-0.0508c-0.1667-0.3-0.1667-0.60039 0-0.90039l0.40039-0.79883c0.018-0.10347-0.0433-0.20707-0.0312-0.31055l0.0293-0.1289c0.058-0.4447-0.04-1.0307-0.21875-1.6894-0.06-0.25718 0.0169-0.51436-0.0801-0.77149-0.1386-0.32547-0.25328-0.3728-0.38868-0.66016l-0.21093-0.58984c-0.192-0.56594-0.64365-1.1857-1.2148-1.8301-0.1067-0.12743-0.23173-0.47136-0.33593-0.57031l-1.1992-1.1992c-0.1-0.1-0.29961-0.28411-0.59961-0.55078-0.13275-0.0996-0.25677-0.16229-0.37305-0.1875z"/>
 <g transform="translate(-108.55 -186.3)">
  <path transform="translate(160.15,84.1)" d="m-46.599 102.2c-3.3333 0-5 1.6667-5 5v158.2c0 3.3333 1.6667 5 5 5h93.199c3.3333 0 5-1.6667 5-5v-158.2c0-3.3333-1.6667-5-5-5zm8.2988 7.1992h76.6c4.6667 0 7 2.3333 7 7v139.8c0 4.6667-2.3333 7-7 7h-76.6c-4.6667 0-7-2.3333-7-7v-139.8c0-4.6667 2.3333-7 7-7z" fill="#ef1d1e"/>
  <path transform="translate(160.15,84.1)" d="m-38.3 109.4c-4.6667 0-7 2.3333-7 7v139.8c0 4.6667 2.3333 7 7 7h76.6c4.6667 0 7-2.3333 7-7v-139.8c0-4.6667-2.3333-7-7-7z" fill="none" stroke="#000" stroke-width="1.2"/>
 </g>
</svg>
