<svg width="103.2" height="168.2" preserveAspectRatio="none" version="1.1" viewBox="0 0 103.2 168.2" xmlns="http://www.w3.org/2000/svg">
 <path transform="translate(-287.05,-102.2)" d="m300.35 109.4c-4.6667 0-7 2.3333-7 7v139.8c0 4.6667 2.3333 7 7 7h76.6c4.6667 0 7-2.3333 7-7v-139.8c0-4.6667-2.3333-7-7-7z" fill="#fff" stroke="#000" stroke-width="1.2"/>
 <path d="m3.6848 125.3-0.36796 38.05 97.433 0.20416s0.39527-37.14 0-38.254m-56.6-74.8c-0.06983 3.6447 3 7.1 3 7.1l0.8-0.45c0.18893-0.19713 0.3056-0.43047 0.35-0.7l0.65-4.6v-0.15l-0.05-0.3c0-1.7339-0.87612-3.85-2.45-3.85-1.5974 0.0016-2.1333 1.5945-2.3 2.95zm10.444-2.0777c-0.84556 0.07246-1.629 0.5558-2.0942 1.3777h-0.05c-1.1141 1.8897-1.5474 3.723-1.3 5.5 1e-3 0.0426 1e-3 0.0759 0 0.1v0.9l0.1 0.55-0.05-0.05c0.0984 0.26966 0.23177 0.45299 0.4 0.55 0.27063 0.21144 0.55318 0.0864 0.85 0.1 0.21041-0.0682 0.36041-0.16823 0.45-0.3 0.0509-0.0215 0.10093-0.0548 0.15-0.1l0.8-0.85h0.05c0.62239-0.66667 1.2557-1.8333 1.9-3.5 0.39364-0.90075 1.8034-4.5356-1.2058-4.2777zm-37.394 18.79c-0.86262 3.3439-2.2548 6.1907-4.65 8.7875-0.42775 1.334 1.1839 2.3099 2.1 2.7 2.3444 1.1521 4.2944 1.9354 5.85 2.35l0.8 0.2c2.1069 0.60143 3.7402 0.93477 4.9 1h1.05l5.5-1.2c0.02366 0.0026 10.49 11.428 13.095 13.63 2.9703-0.83208 9.7794-13.37 10.205-17.73 0.92209-0.34364 5.2905 3.5507 14.15 1.9 2.7971-0.51601 4.9138-1.216 6.35-2.1h-0.05c0.35925-0.19883 0.50925-0.49883 0.45-0.9-0.0167-0.0984 0-0.19844 0.05-0.3 0.20208-0.325 0.18541-0.65833-0.05-1l-0.3-0.4c-0.0183-0.016-0.035-0.0327-0.05-0.05-0.44206-0.82057-0.92539-2.1206-1.45-3.9l-0.1-0.3v-0.05c-0.022-0.1125-0.272-0.8125-0.75-2.1-6.4793-16.634-18.472-8.8097-20.7-6.3-0.81406 1.1402-1.4807 2.1902-2 3.15-0.19653 0.35999-0.37966 0.76343-0.55 1.15-0.41276 0.96914-0.42943 2.1358-0.05 3.5 0.0509 0.1194 0.0509 0.23607 0 0.35-0.0531 0.11315-0.13647 0.19649-0.25 0.25-0.10521 0.0508-0.22187 0.0508-0.35 0l-10.15 1.6h-0.25c-3.1164 0-4.4444 1.658-5 1.65-0.0961-7e-3 -0.19609-0.0567-0.3-0.15-0.0734-0.0561-0.12344-0.13947-0.15-0.25l-0.1-0.45c-4e-3 -0.0329-4e-3 -0.0663 0-0.1v-0.2c-0.29844-0.53112-0.89844-2.0478-1.8-4.55-1.864-5.3978-10.991-8.9902-15.45-0.1875zm19.3-17.062c-0.0458-6.124-8.4304-1.3784-4.2 5.65l0.6 1.1h-0.05c0.20482 0.3181 0.47149 0.50143 0.8 0.55 0.53718-0.03298 0.69665-0.36537 1-0.75 1.0382-1.9968 1.6548-4.1801 1.85-6.55" fill="#1ca4da"/>
 <path d="m34.05 56.55c-0.18919 0.0246-0.35586 0.10793-0.5 0.25-0.0579 0.0571-0.12382 0.09-0.19922 0.0996-5e-3 0.0599-0.0557 0.16065-0.15039 0.30078l0.0488-0.0508c-1.2009 2.3857-1.8501 4.8372-1.9492 7.3516v0.0488c-0.0227 0.33672 0.0607 0.82123 0.25 1.4512 0.0957 0.12708 0.24492 0.29375 0.44922 0.5 0.63164 0.60495 1.3487 0.95378 2.1504 1.0488l0.0996-0.19922v-0.0508c0.61224-0.85521 0.98047-1.5548 1.1016-2.0996v0.0508c0.55313-2.7936 0.58608-5.1773 0.0996-7.1504-0.15729-0.39922-0.27357-0.69961-0.34961-0.90039l-0.10156-0.0996c-0.0189-0.0245-0.0344-0.0574-0.0488-0.0996-0.12682-0.22669-0.34388-0.36042-0.65039-0.40039zm13.551 0.45117c-0.34505-8e-3 -0.6125 0.12397-0.80078 0.39844l-0.59961 0.95117c-0.83555 1.3918-1.32 2.6089-1.4512 3.6504l-0.19922 1.9492c-0.0142 0.13164-0.0801 0.23242-0.19922 0.30078-0.0844 0.10599-0.2026 0.15443-0.35156 0.14844-0.12123-0.0131-0.2375-0.079-0.34961-0.19922-0.65989-0.72239-1.377-1.3716-2.1504-1.9492-0.0172-0.0155-0.0327-0.0329-0.0488-0.0508l-0.0996-0.0996c-0.39505-0.39284-0.79622-0.6099-1.2012-0.65039l-0.69922 0.15039c-0.36485 0.2362-0.54896 0.70326-0.55078 1.4004v0.25c-0.11328 1.3215 0.37123 2.7382 1.4512 4.25 1.0354 1.4831 2.1846 2.4656 3.4492 2.9492 0.0571 0.0349 0.10746 0.0678 0.15039 0.0996 0.0253 0.0116 0.0408 0.0291 0.0488 0.0508h0.0508c0.48841 0.25143 0.83919 0.38516 1.0508 0.40039 0.76966-0.0231 1.2193-0.49012 1.3496-1.4004v-0.0508c3e-3 -0.0851 0.0356-0.16849 0.0996-0.25 0.0718-0.0906 0.15508-0.15651 0.25-0.19922 0.42083-0.11341 0.73672-0.49714 0.94922-1.1504 0.0239 2.6e-4 0.0414-0.0172 0.0508-0.0508l0.0996-0.19922-0.0488 0.0508c0.30703-0.70911 0.58998-1.7091 0.84961-3l0.15039-0.95117c0.0219-0.10365 0.0703-0.20248 0.14844-0.29883 0.11015-0.0641 0.22838-0.099 0.35156-0.10156 0.12187 2e-3 0.2207 0.0369 0.29883 0.10156 0.1112 0.0875 0.17904 0.18633 0.20117 0.29883l0.0996 0.55078 0.29883 0.69922c0.11667-0.0948 0.23489-0.26146 0.35156-0.5v-0.0488c0.2332-0.31419 0.64987-0.71536 1.25-1.2012h0.0488l0.6504-0.79884v-0.0508c0.12565-0.13724 0.35821-0.40469 0.69922-0.80078h0.0508c0.0697-0.0704 0.13555-0.13633 0.19922-0.19922v-0.0508c0.21615-1.3774 1e-3 -2.6932-0.64844-3.9492-9e-3 2.6e-4 -0.026-0.0172-0.0508-0.0508-0.11328-0.27031-0.36328-0.40209-0.75-0.39844h-0.0996c-0.37721 0.0501-0.62721 0.2323-0.75 0.54883v0.0508c4e-3 0.0878-0.0135 0.17109-0.0508 0.25-0.51992 0.92448-0.91914 1.8237-1.1992 2.6992-0.0155 0.14141-0.0833 0.24219-0.20117 0.30078-0.0819 0.0835-0.18073 0.11642-0.29883 0.0996-0.12787-0.0203-0.24414-0.0862-0.34961-0.19922-0.0647-0.0677-0.0996-0.16849-0.10156-0.30078-0.034-0.93333-0.23361-1.8829-0.59961-2.8496-0.088-0.3582-0.32057-0.55781-0.69922-0.59961zm-44.05 45.75 0.15038 25.35 11.85 6.4004c0.20104 1.6465 0.31732 2.8132 0.34961 3.5l0.70117 9.5c0.17973 0.29362-0.0031 0.64845-0.20117 0.69918l-13.049 8.5996-0.05078 9.4512 32.449-1.4004 25.451-16.849c0.10261 0.11862 0.153 0.2349 0.15039 0.34961l-0.30078 5.9492c-0.0984 1.2039-0.14883 1.8202-0.15039 1.8496v0.0508c-0.13281 1.5527-0.1987 3.4868-0.19922 5.8008l13.049 1.1484 1.1504-25.099 15.801-10.4v-0.0488c0.56732-0.59505 0.76693-1.2947 0.59961-2.0996l-0.59958-1.8516c-0.0504-0.36289-0.25001-0.62839-0.59961-0.79883-0.59232-0.12487-1.7435-0.50859-3.4512-1.1504-1.8948-0.71341-3.3774-1.2134-4.4492-1.5-0.89075-0.23307-1.4915-0.45013-1.8008-0.65039-0.47083-0.31068-0.97083-0.47735-1.5-0.5l-0.34962 0.0508c-14.932-8.1425-36.77-4.1153-54.662-5.7949zm25.75 24.75c0.11276-0.0203 0.21354-5e-3 0.30078 0.0488l0.19922 0.0996c0.11445 0.0515 0.19779 0.1193 0.25 0.20117 0.0493 0.11107 0.0668 0.2099 0.0508 0.29883l-0.0508 0.25 0.44922 1.6016c0.0545 0.10951 0.0545 0.20834 0 0.29883-0.0297 0.12474-0.0956 0.20807-0.19922 0.25-0.10182 0.0789-0.2181 0.11186-0.34961 0.0996l-0.34961-0.0488c-0.20469 0.0206-0.43919 0.10393-0.70117 0.25-0.29284 0.26015-0.80834 0.51015-1.5488 0.75l-0.25 0.15039c-3.9e-4 9e-3 -0.0178 9e-3 -0.0508 0-1.6967 0.66823-3.8305 1.0171-6.4004 1.0488h-0.19922c-1.2668-1e-3 -2.5342-0.28428-3.8008-0.84961-0.0673-0.0285-0.13321-0.0789-0.19922-0.15039-0.031-0.043-0.0639-0.10889-0.0996-0.19922l-0.10156-0.34961c-0.0116-0.0578-0.0116-0.12564 0-0.20117 0.0238-0.0833 0.0587-0.16667 0.10156-0.25l0.25-0.29883c0.0319-2e-3 0.0474-0.0194 0.0488-0.0508 1.172-0.93959 2.7398-1.6237 4.7012-2.0508h-0.0507c1.3917-0.33021 2.7754-0.49687 4.1504-0.5l1.5488 0.0508c0.19961 0.0306 0.4845 0.0481 0.85156 0.0508h0.0488l0.65042-0.10156c0.0418-2e-3 0.0747-2e-3 0.0996 0 0.14193-0.0224 0.2582-0.10573 0.34961-0.25 0.0901-0.0737 0.19089-0.12214 0.30078-0.14844z" fill="#faea01"/>
 <path d="m3.3777 4.0016-0.027325 5.25c1.4667 1.4 2.9492 2.3496 4.4492 2.8496 3.6487 1.0811 5.7788-0.45117 6.0508-0.45117 0.18509-0.05869 0.37093 0.14418 0.54882 0.5 0.43333 0.9 1.1678 1.6674 2.2012 2.3008 1.0333 0.6 2.0818 0.90039 3.1484 0.90039 0.66666 0 1.2849-0.13372 1.8516-0.40039 0.3-0.16667 0.53255-0.36628 0.69922-0.59961 0.30432-0.34467 0.59102-0.22772 1.0508-0.20117 1.5067-0.09263 2.5367-1.0979 3.5-2.1484 0.1-0.1 0.19883-0.15039 0.29883-0.15039 0.13333 0 0.24961 0.0329 0.34961 0.0996 0.3 0.16667 0.81745 0.25 1.5508 0.25 4.328 0.07028 6.1376-4.5742 6.8008-8.1992zm41.291 1.7656s-0.73494 2.7485-0.23828 3.8554c1.2865 2.8675 6.2425 0.56994 8.8184 9.0781 0 0.13333-0.0155 0.24961-0.0488 0.34961l-0.30078 0.45117-1.0488 0.14844c-0.46666 0-0.90078 0.15117-1.3008 0.45117v0.0488c-5.9186 4.1779-3.5736 11.051 2.5996 11.051 1.2 0 2.5178-0.25 3.9512-0.75 0.1-0.0667 0.21628-0.0667 0.34961 0 2.6431 3.1632 5.9396 5.4 13.6 1.4491 2.7681 1.797 5.552 1.6858 8.3496-0.08179 1.486 0.48614 2.1476 3.0054 6.8008 0.23212 7.3122 5.6068 11.69-0.8357 14.6-4.9004v-23.148zm5.6312 108.58c-0.56039 1.0087 0.49849 1.75 0.80081 1.75l0.0996 0.0488c0.96667 0.5 2.4667 0.78489 4.5 0.85156l1.3496 0.0996 3-0.55078 0.84961-0.29883c0.47558-0.28208 0.56953-0.68673 0.75002-1.1504 0-2.9152-9.5859-3.0566-11.35-0.74992zm-29.85 13.5c-1.5119 0.35808-4.7287 1.5476-4.9004 3.3496 0.54344 2.3986 5.3969 2.2631 7.5996 2.1992 2.3-0.36667 3.9667-0.7155 5-1.0488 0.7-0.3 1.2174-0.56745 1.5508-0.80078h0.0488c0.89769-0.61339 1.2956-1.3531 1.3516-2.3496-1.8663-2.7707-8.6617-1.892-10.65-1.3496zm47.1 8.5c-1.7132 0.0925-4.8693 0.45303-5 1.6504 0.02022 0.81738 0.49211 1.0457 1.1504 1.3496 1.9333 0.86667 4.0826 1.2988 6.4492 1.2988h0.0508l0.40039-0.0488h0.0996l1.1992 0.0488c0.7 0 1.3337-0.0833 1.9004-0.25l0.15039-0.0488c0.66667-0.23333 1.1492-0.56667 1.4492-1 0.6152-2.0506-4.6194-3-7.8496-3z" fill="#ef1d1e"/>
 <path d="m49.2 6.0008c0.4333 1.9333 1.2492 3.3326 2.4492 4.1992 0.8667 0.6 2.233 1.0496 4.0996 1.3496 2.4 0.33333 3.8012 1.4167 4.2012 3.25 0.3 1.7-0.10117 2.9345-1.2012 3.7012-1.0667 0.8-2.3167 0.86589-3.75 0.19922-1-0.46667-1.8488-1.5829-2.5488-3.3496-0.7667-2.1-2.5167-3.5167-5.25-4.25-0.6-0.16667-1.0341-0.33333-1.3008-0.5-0.4333-0.23333-0.73369-0.59961-0.90039-1.0996-0.3667-1.2-0.23291-2.4674 0.40039-3.8008 0 0-1.0142-0.059682-1.2988 1.1504-0.4 1.6-0.25078 2.9004 0.44922 3.9004 0.3667 0.5 0.91709 0.88177 1.6504 1.1484 0.4333 0.16667 1.0671 0.36823 1.9004 0.60156 1.7333 0.76667 2.8496 1.8151 3.3496 3.1484 0.3 0.8 0.76709 1.6508 1.4004 2.5508 0.033 0.0667 0.18252 0.20039 0.44922 0.40039 0.2 0.16667 0.2833 0.31589 0.25 0.44922-0.033 0.16667-0.14961 0.26745-0.34961 0.30078h-0.5c-1.9667 0.4-3.4841 1.3826-4.5508 2.9492-0.7333 1.0667-1.15 2.1674-1.25 3.3008-0.1 1.2667 0.2333 2.3655 1 3.2988 1.8333 2.2333 4.4496 2.9504 7.8496 2.1504 0.2-0.0333 0.50039-0.2155 0.90039-0.54883 0.4-0.2 0.75078-0.0178 1.0508 0.54883 1.1667 2.0333 2.9322 3.1845 5.2988 3.4512 2.7 0.3 5.1845-0.35117 7.4512-1.9512 0.4333-0.33333 0.83252-0.33333 1.1992 0 0.6667 0.63333 1.3663 1.0171 2.0996 1.1504 1.5667 0.33333 3.1675 0.0329 4.8008-0.90039 0.1667-0.0667 0.39922-0.24883 0.69922-0.54883 0.3-0.2 0.60039-0.11667 0.90039 0.25 0.5 0.56667 1.1996 0.9155 2.0996 1.0488 0.9333 0.16667 1.7008 0.0504 2.3008-0.34961 0.6333-0.4 1.1663-0.59961 1.5996-0.59961 0.5 0 0.98447 0.30039 1.4512 0.90039 0.6333 0.83333 1.8329 1.3159 3.5996 1.4492 2.3333 0.13333 4.5-0.71745 6.5-2.5508l0.1504-1.8984c-1.1333 1.2-2.2167 2.0488-3.25 2.5488-1.2667 0.6-2.6349 0.76667-4.1016 0.5-1.5333-0.3-2.6825-1.0829-3.4492-2.3496-0.2-0.3-0.3667-0.46667-0.5-0.5-0.2-0.0667-0.43252 0.0341-0.69922 0.30078-1.2 1.3-2.5683 1.7322-4.1016 1.2988-0.7-0.13333-1.1167-0.41628-1.25-0.84961-0.033-0.1 0.05-0.24922 0.25-0.44922 0.1-0.13333 0.25117-0.31745 0.45117-0.55078 0.4667-0.53333 0.76709-0.98294 0.90039-1.3496 0-0.33333 0.14922-0.41667 0.44922-0.25 1.1333 0.63333 2.4996 0.56549 4.0996-0.20117 0.7667-0.36667 1.2163-0.49844 1.3496-0.39844 1.1333 0.76667 2.5171 0.89844 4.1504 0.39844 3.1667-0.86667 5.1841-2.7659 6.0508-5.6992 0.2667-0.93333 0.13291-1.9663-0.40039-3.0996-0.5667-1.1333-1.2992-1.8174-2.1992-2.0508-0.4667-0.13333-0.68369-0.28255-0.65039-0.44922 0.1667-0.23333 0.30039-0.43294 0.40039-0.59961 0.8-1.4 0.94922-2.6345 0.44922-3.7012-0.4333-1-1.2337-1.75-2.4004-2.25-1.1667-0.53333-2.2655-0.63216-3.2988-0.29883-0.7333 0.26667-1.3341 0.33255-1.8008 0.19922-0.4667-0.1-0.99961-0.45078-1.5996-1.0508-1.8-1.8-4.1508-2.1333-7.0508-1-1.6667 0.66666-2.3837 1.6841-2.1504 3.0508 0.2 1.7667 0.95 2.8326 2.25 3.1992 0.2667 0.0667 0.61748-0.0496 1.0508-0.34961l0.15039-0.29883-0.34961-0.15039c-0.5667-0.0333-1.0841-0.36667-1.5508-1-0.4333-0.6-0.58252-1.1833-0.44922-1.75 0.3-1.2 1.3329-1.8667 3.0996-2 2.7666-0.26667 4.5825 0.76628 5.4492 3.0996 0.3 0.73333 0.7167 0.79922 1.25 0.19922 0.8667-1.0667 2.1496-1.3651 3.8496-0.89844 1.9667 0.53333 2.8175 1.4151 2.5508 2.6484-0.4 2.0333-1.3826 3.3337-2.9492 3.9004-0.1667 0.13333-0.30039 0.23411-0.40039 0.30078-0.1667 0.1-0.3333 0.0826-0.5-0.0508-1.6-1.2333-3.5012-1.3496-5.7012-0.34961-0.6333 0.3-1.7167 0.98412-3.25 2.0508-1.3666 0.9-2.4984 1.5163-3.3984 1.8496-0.5 0.2-1.1183 0.25039-1.8516 0.15039-0.8-0.1-1.2321-0.3345-1.2988-0.70117-0.2-0.9-3.9e-4 -1.6326 0.59961-2.1992 1-0.93333 2.1667-1.2841 3.5-1.0508l0.40039 0.30078c0.1333 0.1 0.26709 0.0322 0.40039-0.20117 0.2-0.43333 0.033-0.78216-0.5-1.0488-0.6333-0.33333-1.5345-0.31757-2.7012 0.0488-1.1333 0.36667-1.8988 0.90156-2.2988 1.6016l-0.5-0.10156c-0.6667-1.4-2.1183-2.2818-4.3516-2.6484 0.8-0.4 1.4183-1.1674 1.8516-2.3008 0.4333-1.1 0.49922-2.0671 0.19922-2.9004-0.5-1.4-1.1996-2.4-2.0996-3-0.8-0.5-1.833-0.73255-3.0996-0.69922-0.9333 0-1.8675 0.34883-2.8008 1.0488-1.0333 0.76666-1.7329 1.6833-2.0996 2.75-0.1667 0.53333-0.55039 0.85117-1.1504 0.95117-0.5667 0.13333-1.0841-3.9e-4 -1.5508-0.40039-0.6667-0.53333-1.2655-0.83372-1.7988-0.90039-1.9333-0.3-3.1833-0.55-3.75-0.75-1.9-0.53333-3.1345-2.0663-3.7012-4.5996zm-14.801 0.6992c-0.2667 1.4-0.88291 2.5163-1.8496 3.3496-0.9333 0.8-2.1 1.2167-3.5 1.25-0.6333 0-0.98408-0.0504-1.0508-0.15039-0.1-0.13333-0.032-0.48216 0.20117-1.0488 0.3667-0.93333 0.34962-1.6678-0.0508-2.2012-0.9-1.1333-2.0337-1.7322-3.4004-1.7988-1.2666-0.0667-2.4333 0.33255-3.5 1.1992-1.1 0.86667-1.6659 1.8841-1.6992 3.0508-0.1 1.2667 0.46592 2.35 1.6992 3.25 0.2667 0.2 0.25117 0.38216-0.0488 0.54883-0.9333 0.46666-2.0341 0.43363-3.3008-0.0996-1.3-0.5-2.1992-1.2655-2.6992-2.2988-0.2-0.46666-0.50039-0.86784-0.90039-1.2012-0.3333-0.26667-0.61631-0.28243-0.84961-0.0488l-0.59961 0.64844c-1.5 0.56666-3.1008 0.58393-4.8008 0.0508-1.3333-0.4-2.6996-1.2837-4.0996-2.6504l1.0488 2.1504c1.8 1.1333 3.3679 1.7341 4.7012 1.8008 1.5333 0.0667 2.5992-0.0516 3.1992-0.35156 0.4-0.16667 0.68291-0.25 0.84961-0.25 0.2667 0 0.5167 0.16667 0.75 0.5 2.1333 2.8667 4.4338 3.7 6.9004 2.5 0.2-0.0667 0.46748-0.21589 0.80078-0.44922 0.3-0.2 0.6333-0.28333 1-0.25 1.4 0.0333 2.6655-0.68373 3.7988-2.1504 0.2-0.2 0.35117-0.26589 0.45117-0.19922 1.2667 0.8 2.7996 0.74961 4.5996-0.15039 2.1333-1.0333 3.3175-3.0333 3.5508-6zm-10.25 0.44919c2.0333 0 3.1012 0.61823 3.2012 1.8516 0.033 0.5-0.1333 1.0155-0.5 1.5488-0.1667 0.2-0.51748 0.60117-1.0508 1.2012-1.2 1.3667-2.4171 1.7659-3.6504 1.1992-0.7667-0.36667-1.2492-0.89961-1.4492-1.5996-0.2-0.63333-0.14961-1.3329 0.15039-2.0996 0.2333-0.56666 0.68291-1.0667 1.3496-1.5 0.6667-0.4 1.3159-0.60156 1.9492-0.60156zm43.9 1.2012c0.7667 0.0667 1.4837 0.49883 2.1504 1.2988s1 1.6333 1 2.5c0 1.1333-0.43408 2.1837-1.3008 3.1504s-1.8163 1.4512-2.8496 1.4512c-0.2333-0.0333-0.36709-0.0837-0.40039-0.15039-0.033-0.0667-0.0162-0.20039 0.0508-0.40039 0.3-0.63333 0.19922-1.4337-0.30078-2.4004s-1.0988-1.5326-1.7988-1.6992l-1.75-0.30078c-0.4333-0.0667-0.6-0.21589-0.5-0.44922 0.2333-0.23333 0.34961-0.36706 0.34961-0.40039 1.3667-1.9333 3.1496-2.7996 5.3496-2.5996zm-7.0996 4.5c0.8333-0.4 1.8159-0.36697 2.9492 0.0996 1.1 0.46667 1.7667 1.1333 2 2 0.1333 0.63333-0.084 1.4008-0.65039 2.3008-0.6 0.86667-1.3151 1.4984-2.1484 1.8984-1.1 0.5-2.3171 0.55039-3.6504 0.15039 0.5667-0.36667 1.0163-1.0333 1.3496-2 0.3-0.93333 0.33261-1.6988 0.0996-2.2988-0.033-0.83333-0.18252-1.4341-0.44922-1.8008-0.067-0.1-0.0344-0.18333 0.0996-0.25 0.1 0 0.23369-0.0329 0.40039-0.0996zm9.5996 4.4492c0.7333 0.1 1.4329 0.41784 2.0996 0.95117 0.6333 0.56667 1.0171 1.1829 1.1504 1.8496 0.1 0.66667-0.18291 1.5504-0.84961 2.6504s-1.3179 1.7318-1.9512 1.8984c-0.2667 0.1-0.46631 0.15039-0.59961 0.15039-0.3333 0-0.55039-0.23255-0.65039-0.69922-0.4333-1.5-1.6329-2.3663-3.5996-2.5996-2.2-0.23333-4.0159 0.6155-5.4492 2.5488-0.1667 0.23333-0.46709 0.36706-0.90039 0.40039h-1.0508c-1.6666 0.1-3.0329-0.4-4.0996-1.5-0.5667-0.56667-0.96592-1.2004-1.1992-1.9004-0.067-0.83333 0.15039-1.3663 0.65039-1.5996 0.1667-0.1 0.63174 0.0667 1.3984 0.5 0.4 0.2 0.91748 0.25039 1.5508 0.15039 0.8333-0.13333 1.3333-0.20117 1.5-0.20117l1.6504 0.45117c0.8667 0.23333 1.7833 0.15 2.75-0.25 0.5667-0.2 1.4-0.60117 2.5-1.2012 0.5333-0.23333 1.3337-0.61511 2.4004-1.1484 0.9667-0.4 1.8659-0.55117 2.6992-0.45117zm-47.951 0.70117c-0.26566-0.16497-0.48222-0.11747-0.64844 0.14844-0.1587 0.25391-0.023 0.70065 0.33203 1.2871 0.013 0.0696-0.0104 0.14549 0.0176 0.21289v-0.0488l0.65039 1.1992h-0.0508c2.8296 4.587 4.9129 8.4883 6.25 11.701 0.1723 0.3668 0.68968 1.7156 1.5508 4.0488l0.84961 2.4511c0.987 2.5464 1.6537 4.6297 2 6.25h0.0508l0.0996 0.5c0.057 0.31029 0.21382 0.35758 0.29492 0.60352l0.1543 0.49609c-1.2 0.53333-2.0004 1.2329-2.4004 2.0996-0.6333 1.3-0.91631 2.3329-0.84961 3.0996 0.1333 1.6667 0.8 3.25 2 4.75 0.033 0.0667 0.13408 0.1345 0.30078 0.20117 0.1333 0.1 0.16786 0.23177 0.10156 0.39844-0.1333 0.36667-0.41631 0.90156-0.84961 1.6016-0.3667 0.63333-0.5333 1.2167-0.5 1.75 0 0.13333-0.0346 0.28255-0.10156 0.44922-0.096 0.22323-0.22611 0.25687-0.38281 0.14453l-0.41798-0.59375-0.0508-0.0508c-0.7389-1.1714-2.0219-2.8555-3.8496-5.0508l-1.3496-1.6484c-0.7586-0.94726-2.1927-2.4143-4.3008-4.4004l-0.64844-0.59961c-1.1197-1.043-2.5712-2.26-4.3516-3.6504-0.7955-0.63074-1.9506-1.2049-2.8691-1.8164-0.5182-0.33409-1.0024-0.77805-1.5293-1.084-0.3616-0.20262-0.45457-0.20162-0.79297-0.38672-0.8194-0.47968-1.4095-0.99565-2.3086-1.4629l-2.6992-1.3496c-0.1141-0.0665-0.24779-0.10143-0.40039-0.10156-0.1165-9.6e-4 -0.15946 0.11397-0.25586 0.14453-0.96999-0.30881-1.6081-0.26808-1.7442 0.0567-0.04159 0.46192 0.19789 0.54153 0.5 0.84955 1.3877 0.80949 3.2693 2.5883 5.334 4.7266 0.8072 0.83149 1.4222 1.5701 2.0449 2.3125 1.0696 1.2812 2.1392 2.5631 3.209 4.1524 0.1209 0.18166 0.26113 0.39433 0.39453 0.5957 1.5177 2.3262 3.1051 4.9578 4.7598 7.8867 0.2949 0.56001 0.84889 1.414 1.0586 1.877v8e-3c0.118 0.56394-0.17381 1.0225-1.0039 1.3418-0.5 0.2-1 0.56628-1.5 1.0996-1.1 1.2333-2.0167 3.0163-2.75 5.3496-0.63329 2.1667-1.7845 4.2674-3.4512 6.3008-0.1566 0.21921-0.29477 0.26257-0.42187 0.1875-1.4984-1.0092-2.989-1.7964-4.4727-2.418-0.1567-0.0702-0.2432-0.15125-0.4043-0.2207-0.63329-0.3-1.1004-0.51511-1.4004-0.64844-1.0129-0.39568-1.5772-0.33776-2.3496 0.24999l2.7031 2.2012c1.6014 1.449 3.0773 2.8982 4.3965 4.3477 1.2259 1.308 2.7203 3.6092 4.375 6.4961 0.2457 0.45165 0.51193 0.92583 0.70313 1.3145 0.4306 0.79274 0.91752 1.8859 1.4492 3.2285 0.4665 1.1563 0.81377 2.1314 1.1387 3.0723 0.4385 1.273 0.88113 2.5181 1.2695 4.0938 0.017 0.069 0.0299 0.1419 0.0469 0.21093 0.69429 2.9244 1.1325 5.049 1.2676 6.2344l0.19922 1.5v0.0508c0.2358 1.9302 0.33658 3.5135 0.30078 4.75 0 0.0585-0.0188 0.10691-0.0508 0.14844l-0.0488 0.15039c-0.034 0.13546-0.01 0.24769-0.0195 0.375-0.1079 0.0278-0.10958 0.17771-0.33007 0.0762-2.1-1.1-3.6833-1.9178-4.75-2.4512l-12.201-6.4004-0.09961 1.1016 13.404 6.949c0.4667 0.23333 1.6159 0.83412 3.4492 1.8008 0.5888 0.32242 0.95057 0.47876 1.4512 0.73633v0.0137l0.98047 0.48242c0.3097 0.15021 0.75353 0.39939 1.0195 0.51758 0.4333 0.16667 1.0825 0.5 1.9492 1 0.8667 0.46667 1.5333 0.8 2 1 0.5333 0.2 1.45 0.7 2.75 1.5 0.1667 0.1 1.6337 0.8655 4.4004 2.2988 0.6 0.3 1.4837 0.78451 2.6504 1.4512 0.4013 0.16607 1.1781 0.5565 1.7227 0.8086 0.5567 0.313 0.99538 0.5903 1.6758 0.9414l1.4004 0.69922c0.2676 0.12656 0.50207 0.19245 0.70117 0.19922 0.012 3.5e-4 0.0232 7e-3 0.0352 8e-3 0.1223 0.0605 0.32618 0.17008 0.45508 0.23438 0.2188 0.2066 0.44658 0.3861 0.70898 0.45898 0.7806 0.29974 1.6139 0.7668 2.5 1.4004v-0.051l1.1504 0.65039c0.017 0.0239 0.0318 0.0394 0.0488 0.0488 0.1777 0.13333 0.37926 0.20117 0.60156 0.20117 0.014 2.1e-4 0.0202-0.0134 0.0332-0.0137 0.064 0.095 0.17671 0.19777 0.0664 0.26367l-6.7012 4.25c-0.4 0.33333-0.69844 0.56589-0.89844 0.69922-0.4 0.23333-0.76826 0.26637-1.1016 0.0996-3.5-1.8667-6.1318-3.2659-7.8984-4.1992-3.9332-1.9667-6.8675-3.4667-8.8008-4.5-6.1332-3.2-9.4667-4.9326-10-5.1992-1.2-0.6-2.7-1.4004-4.5-2.4004-2.5667-1.4-4.0667-2.2178-4.5-2.4512l-0.25 0.85156 12.9 6.75c1.6667 0.83333 4.1337 2.1492 7.4004 3.9492l3.4492 1.75 0.34961 0.30078-0.44922 0.0996-2.5-0.0996c-1.3 0-2.7341 0.16667-4.3008 0.5-2.2 0.53333-3.8821 1.2988-5.0488 2.2988-0.1667 0.13333-0.38369 0.36784-0.65039 0.70117-0.2667-0.3-0.65039-0.58489-1.1504-0.85156-0.6-0.26667-1.0496-0.48177-1.3496-0.64844l-9.0508-5-0.25 0.89842 9.9512 5.25c0.8333 0.43333 1.3333 0.75117 1.5 0.95117 0.4333 0.43333 0.54961 1.0167 0.34961 1.75v0.3497c-0.3333-0.1-0.51748-0.15039-0.55078-0.15039l-4.9492-2.5996c-2.5667-1.4333-4.5008-2.4837-5.8008-3.1504l-0.24999 1.3008c0.7333 0.46667 1.8496 1.1159 3.3496 1.9492l4.7012 2.4004c-0.7-0.0333-2.0837-0.0333-4.1504 0-1.6 0-2.8829-0.0659-3.8496-0.19922l-0.05078 0.79883c1.4667 0.0667 2.55 0.1345 3.25 0.20117 0.9 0.1 2.2508 0.0826 4.0508-0.0508 1.6 0 2.9004 0.33333 3.9004 1 0.3667 0.23333 0.56631 0.53372 0.59961 0.90039 0 0.1-0.0326 0.41589-0.0996 0.94922-0.033 0.16667-0.15156 0.25-0.35156 0.25-0.2667-0.0667-0.44883-0.0996-0.54883-0.0996l-2.4004-0.15039c-1.7667 0-3.6329 0.13372-5.5996 0.40039-5.2697 0.81072-3.9507 7.5095-1 8.0996 0.3667 0.1 0.95 0.15039 1.75 0.15039l8.5488 0.15039c0.067 0 0.15-0.0174 0.25-0.0508 0.1 0 0.15039 0.0678 0.15039 0.20117l0.20117 2.2988c0.033 0.2-0.085 0.30078-0.35156 0.30078h-11.549l-0.05078 0.7988c2.3 0.13333 3.8679 0.16823 4.7012 0.10156 0.3333-0.0333 0.88174-0.0333 1.6484 0 0.6667 0.0667 1.2016 0.0667 1.6016 0 0.5333-0.0667 1.4325-0.10156 2.6992-0.10156l-2.3008 1.5c-0.6 0.43333-1.0496 0.76667-1.3496 1-0.5333 0.36667-1.0004 0.58372-1.4004 0.65039-0.8667 0.13333-1.9151 0.20117-3.1484 0.20117-1.4 0.0333-2.4679 0.0488-3.2012 0.0488 0 0-0.93786 0.84961-0.10156 0.84961h4.5l0.30078 0.0508c-0.067 0.13333-0.13447 0.21667-0.20117 0.25l-4.5 2.8008 0.00195 1.2988 24.701-16.15c1.1667-0.73333 2.8818-1.8826 5.1484-3.4492l30.727-19.988c0.01-6e-3 0.0155-4e-3 0.0215-0.0117l1.7012-1c0.2581-0.13099 0.55849-0.36354 0.90039-0.69922l0.082-0.11133c0.1881-0.0709 0.36831-0.22547 0.56641-0.18945 0.1 0.0333 1.1175 0.38412 3.0508 1.0508l0.27343 0.0996h-0.0215c0.031 9e-3 0.0305 5e-3 0.0606 0.0137l2.1113 0.76953 0.17578 0.11719 0.98242 0.30469 2.3184 0.84375 0.75 0.40039c-0.2 0.33333-0.31631 0.5-0.34961 0.5-0.8667 0.43333-2.6167 1.5671-5.25 3.4004-3.2 2.0333-5.5508 3.6167-7.0508 4.75-0.7333 0.53333-1.6829 1.1671-2.8496 1.9004-1.7333 1.1-2.7004 1.7163-2.9004 1.8496l-22.25 15.1c-2 1.2667-3.4671 2.2667-4.4004 3-0.5333 0.4-1.2329 0.88451-2.0996 1.4512-1.2333 0.76667-1.9329 1.1988-2.0996 1.2988l-16.85 11.4 0.59961 0.84961c1.3333-1.0667 3.4496-2.4988 6.3496-4.2988l58.352-39.551c0.3333-0.2 0.81787-0.55078 1.4512-1.0508 0.6-0.3 1.1988-0.24961 1.7988 0.15039 0.5667 0.36667 1.2663 0.63411 2.0996 0.80078 1 0.23333 2.3179 0.65 3.9512 1.25 1.8667 0.7 3.1671 1.1671 3.9004 1.4004l-3.0508 1.8984c-2.8333 1.9-4.9671 3.3012-6.4004 4.2012l-8.25 5.25c-0.5 0.4-0.88369 0.68294-1.1504 0.84961-0.4667 0.3-0.93174 0.41628-1.3984 0.34961-1.2667-0.2-2.8016-0.18273-4.6016 0.0508-0.8333 0.1-1.3992 0.21628-1.6992 0.34961-0.5667 0.26667-0.91748 0.70078-1.0508 1.3008-0.067 0.3-0.18291 1.1818-0.34961 2.6484l-0.0996 1.0508c-0.1 0.83333-0.23369 1.3333-0.40039 1.5-0.4 0.3-0.93291 0.66628-1.5996 1.0996-0.9333 0.56667-1.4837 0.9-1.6504 1l-29 18.85 0.55078 0.80078 3.25-2.1992c1.4333-0.93333 3.5671-2.3345 6.4004-4.2012l7-4.4492c1.4666-0.96667 3.6333-2.4667 6.5-4.5 1.9333-1.3 4.8501-3.1837 8.75-5.6504-0.2 0.23333-0.23486 0.65-0.10156 1.25 0.1 0.56667 9.7e-4 0.95039-0.29883 1.1504-0.4333 0.3-2.0167 1.3988-4.75 3.2988l-21.701 14.852 3-0.15037c0.1667-0.13333 1.9845-1.3678 5.4512-3.7012 0.2667-0.16667 0.66592-0.46511 1.1992-0.89844 0.4333-0.33333 0.81709-0.51745 1.1504-0.55078l3.75 0.15039c1.0667 0.0667 2.6829 0.11706 4.8496 0.15039 0.4667 0.0333 2.583 0.0488 6.3496 0.0488 0.1667 0 0.25 0.0504 0.25 0.15039l-0.0508 4.5996 0.90233 0.30075s0.0148-3.1837 0.0488-4.1504c0-1.7667 0.05-3.1504 0.15039-4.1504 0.067-1.5667 0.13252-2.7333 0.19922-3.5 0-0.0333 0.15117-3.1168 0.45117-9.25l0.15039-2.8496 0.0996-0.65039c0-0.66667 0.099-0.96706 0.29883-0.90039 0.4 0.1 0.9833 0.30156 1.75 0.60156 2.7667 0.93333 5.6834 1.1329 8.75 0.59961 0.1 0 0.2667-0.0329 0.5-0.0996 0.2 0 0.2833 0.18216 0.25 0.54883-0.3333 2.9-0.53291 5.1171-0.59961 6.6504-0.1 1.5333-0.1833 3.8163-0.25 6.8496v1.3008c-0.1333 0.46667-0.19922 1.1488-0.19922 2.0488 0.033 0.96666 6.9e-4 1.6508-0.0996 2.0508-0.067 0.36667-0.10156 0.91706-0.10156 1.6504 0 0 1.4648 3.0182 1.6016-0.40039 0-1.8333 0.048-3.1996 0.14844-4.0996 0.2667-2.8 0.38486-4.9008 0.35156-6.3008v-0.19922c0.033-0.0333 0.099-0.0508 0.19922-0.0508 2.9333 0.0667 4.7008 0.1345 5.3008 0.20117 0.6333 0.0667 1.4492 0.0822 2.4492 0.0488l2.4492-0.0488c2.8 0 4.8834 0.19961 6.25 0.59961 0.6333 0.23333 1.05 0.54922 1.25 0.94922 0.3 0.63333 0.28447 1.1333-0.0488 1.5-0.7 0.83333-1.6671 1.2829-2.9004 1.3496-3.6333 0-6.3504 0.0504-8.1504 0.15039-0.8667 0-1.5159 0.0329-1.9492 0.0996-0.7333 0.13333-1.2663 0.56745-1.5996 1.3008l-0.10156 0.34961c-0.4 1.2-0.29922 2.2504 0.30078 3.1504 0.6 0.86667 1.5341 1.3841 2.8008 1.5508 0.4333 0.0667 1.4488 0.0996 3.0488 0.0996l2.0996 0.15039c0.8 0.0333 1.4841 0.0159 2.0508-0.0508 0.7-0.1 1.7329-0.15039 3.0996-0.15039l8.3008-0.0488s-1.0038-0.8779-1.75-0.95117c-2.5 0-4.1008 0.0329-4.8008 0.0996s-1.5159 0.0667-2.4492 0c-1.1-0.0667-1.9333-0.11511-2.5-0.14844-1.8667 0.0333-3.2679 0.0488-4.2012 0.0488-1.6666 0-3.0484-0.21706-4.1484-0.65039-1-0.4-1.4167-1.2159-1.25-2.4492l0.0996-0.55078c0.2667-0.63333 0.73369-0.94922 1.4004-0.94922l7.5-0.19922c0.5667-0.0333 1.6829-0.0508 3.3496-0.0508 1.4 0 2.5163-0.0329 3.3496-0.0996 1.5333-0.16667 2.6496-0.55039 3.3496-1.1504 1.6774-1.2257 1.5982-3.4643 0.5508-5.3496-0.4667-0.83333-1.0675-1.5-1.8008-2-0.9333-0.63333-2.1-1.0674-3.5-1.3008-1.6-0.2-2.8171-0.34922-3.6504-0.44922-0.6333-0.1-1.5151-0.13303-2.6484-0.0996-1.2333 0-2.1345-0.0349-2.7012-0.10156-1.1667-0.13333-2.5504-0.21667-4.1504-0.25l-4.1992-0.14834c-0.3667-0.0333-0.48291-0.2-0.34961-0.5 0.1667-0.26667 0.21709-0.61745 0.15039-1.0508-0.033-0.46667 0.19922-0.69922 0.69922-0.69922 0.7 0.0333 2.5663 0.0488 5.5996 0.0488 2.3 0 4.1663 0.0504 5.5996 0.15039 0.5333 0.0333 2.1341 0.0508 4.8008 0.0508h7.9004l-0.30078-0.65036c-2.4-0.1-3.6171-0.15039-3.6504-0.15039-4.3-0.0667-6.8659-0.13255-7.6992-0.19922-0.9667-0.0667-2.2341-0.0841-3.8008-0.0508h-3.8496c-1.1333 0-2.7671-0.0659-4.9004-0.19922-0.1333 0-0.23213-0.0504-0.29883-0.15039-0.1667-0.66667-0.10078-1.2171 0.19922-1.6504 0.3333-0.46667 0.80039-0.65078 1.4004-0.55078 0.6667 0.1 2.1492 0.11727 4.4492 0.0508h4.7012c2.4333-0.0667 4.5496-0.0337 6.3496 0.0996 0.9333 0.0333 2.1175 0.0333 3.5508 0 0.8-0.0333 1.9821-0.0837 3.5488-0.15039l0.05077-0.64844h-3.5508c-0.2667 0-0.78213-0.0349-1.5488-0.10156-0.6667-0.0667-1.2016-0.0822-1.6016-0.0488-0.3667 0.0333-1.9984 0.0488-4.8984 0.0488-0.9 0.0333-1.6016 0.0508-2.1016 0.0508-0.8333 0.0333-1.5329 3e-4 -2.0996-0.0996-0.2667-0.0667-0.65039-0.0667-1.1504 0-0.6 0.0667-0.99922 0.0996-1.1992 0.0996-2.6667-0.13333-4.6667-0.11607-6 0.0508-0.067 0-0.15-0.0833-0.25-0.25-0.033 0-0.0162-0.0349 0.0508-0.10156l0.84961-0.54883c0.4333-0.26667 1.0496-0.71628 1.8496-1.3496 0.7333-0.46666 1.4504-0.63333 2.1504-0.5 1.0667 0.2 2.6325 0.24844 4.6992 0.14844 0.5 0.0333 2.6337 3e-4 6.4004-0.0996l8.4004-0.0996v-0.69923l-19.6-0.0508 2.75-1.9492c0.6333-0.46666 1.1663-0.73411 1.5996-0.80078 1.0667-0.1 2.5996-0.15039 4.5996-0.15039 2.1333 0 3.6663-0.0329 4.5996-0.0996h6.25l-0.25-0.84961c-1.4667 0.0667-3.6663 0.0996-6.5996 0.0996-1.9 0.0667-3.7992 0.0667-5.6992 0-0.3 0.0667-0.53447 0.0996-0.70117 0.0996-0.2667 0.0333-0.46631-0.0655-0.59961-0.29883l1.0508-0.70117c1.4333-1.1333 2.7821-1.6663 4.0488-1.5996 0.6333 0.0333 3.4667 0.0508 8.5 0.0508 0 0 1.1004-0.85156 0.30078-0.85156h-4.6504c-1.6-0.13333-2.7841-0.16637-3.5508-0.0996-0.7 0.0667-1.0488-0.0825-1.0488-0.44922 0.1333-0.46667 0.19922-0.81745 0.19922-1.0508 0.033-0.26667 0.14961-0.40039 0.34961-0.40039 0.1 0 0.2667 0.0174 0.5 0.0508 2.6667-0.0333 5.3004-0.0333 7.9004 0l-0.5996-1.0509c-3.4 0.16667-5.9329 0.18393-7.5996 0.0508-0.2-0.0333-0.33369-0.0663-0.40039-0.0996-0.067-0.0667-0.0838-0.18294-0.0508-0.34961 0.1333-0.63333-0.16514-1.0849-0.89844-1.3516l-0.25-0.0996c-4.1999-1.6-7.3667-2.7667-9.5-3.5-0.9-0.33333-1.4504-0.58333-1.6504-0.75-0.5-0.36667-0.69961-0.95-0.59961-1.75l0.0996-1.1504c-0.058-2.3355-0.0629-3.4866-0.0449-4.1602 0.01-0.4846 0.10075-1.2258 0.15625-1.8555 0.1864-1.9721 0.40428-3.6283 0.64648-5.043l1.1914-6.4414c0.022-0.0975 0.072-0.18086 0.15039-0.25 0.078-0.0781 0.1609-0.12657 0.25-0.14844 0.1207-0.0147 0.22148 1e-3 0.30078 0.0488 0.059 0.0247 0.079 0.0735 0.11328 0.11328 0.033 0.0726 0.0479 0.10115 0.0859 0.1875 2.1667 3.8333 3.4496 6.1667 3.8496 7 0.2667 0.56667 0.98369 1.9155 2.1504 4.0488 0.9 1.6667 1.5841 3.0349 2.0508 4.1016 0.8479 1.8801 1.0318 2.3288 1.4922 3.373 0.087 0.23237 0.33595 0.71931 0.40625 0.92578v0.0508c0.01 0.0184 0.0321 0.0136 0.0391 0.0312 0.1757 0.40499 0.68652 1.5308 0.76172 1.7188l0.44922 0.44922 0.35156-0.40039c0.2-0.2 0.29883-0.48294 0.29883-0.84961v-0.84959c0.056-0.44414 0.057-1.148 0.043-1.916 0.022-0.31809 0.10812-0.45086 0.10742-0.83398v-2.5996c0.033-1.1161-0.0328-1.9572-0.0508-2.9316-0.011-0.86072 0.053-1.3476 0-2.418-0.01-0.13826-0.0418-0.25896-0.0488-0.39648-1e-4 -1e-3 1e-4 -3e-3 0-4e-3 -1e-3 -0.0144 2.3e-4 -0.0247-0.01-0.0391-0.11409-2.1008-0.34014-4.1336-0.74414-6.0606-0.033-0.16075-0.0899-0.2326-0.12304-0.39062-0.4469-2.0484-0.84224-3.5901-1.1777-4.5606-0.1374-0.44742-0.47086-0.77572-0.63476-1.207-0.2936-0.78142-0.48866-1.9303-0.81446-2.5918-0.4424-0.88481-1.0412-1.2392-1.5488-1.9023-0.2282-0.32254-0.30249-0.73845-0.55078-1.0488-0.3038-0.36765-0.65237-0.54687-0.97657-0.83008-0.1563-0.12138-0.26263-0.41474-0.42383-0.51953-0.2772-0.19797-0.37617-0.20462-0.60937-0.35547-0.059-0.0331-0.11608-0.0728-0.17578-0.10351-0.4581-0.28522-0.99823-0.65795-1.2656-0.74024-0.8333-0.3-1.6492-0.23411-2.4492 0.19922-0.067 0.0333-0.3167 0.0992-0.75 0.19922-0.3058 0.0706-0.64918-0.0454-0.98828-0.14063-0.3514-0.22699-0.84016-0.43044-1.4141-0.61914-0.069-0.0343-0.18855-0.11221-0.24805-0.13867-0.035-0.0157-0.0626 3e-3 -0.0976-0.0117-0.09-0.0258-0.10813-0.0648-0.20313-0.0898-0.8664-0.20104-1.5815-0.29987-2.1484-0.29883-0.1469-1e-3 -0.21514 0.0299-0.33204 0.041-0.1007 0.0162-0.21906-0.065-0.31836-0.041-0.053 0.012-0.064 0.0817-0.11523 0.0957-0.01 3e-3 -0.0272 1.2e-4 -0.0352 4e-3 -0.078 0.0635-0.1613 0.0965-0.25 0.0996h-0.0996c-0.67317 0.0853-1.0892 0.40815-1.3008 0.91797v-0.0176l-0.0488 0.0508c0.01-0.0181 0.0379-0.0137 0.0449-0.0312l-0.0859 0.43555c-0.089 0.14006-0.28488 0.13531-0.35938 0.29492-0.5134 1.0872-0.55627 1.5958-0.95117 2.5371-0.8604 2.0071-1.7086 3.9978-2.0488 5.3125l-0.15039 0.55078-0.15039 0.54883c-0.016 0.0728-0.0211 0.10952-0.0371 0.18164-0.141 0.6103-0.29871 1.2707-0.66211 2.5684-0.3667 1.3667-0.60117 2.4674-0.70117 3.3008-0.1 0.86667-0.28213 2.1671-0.54883 3.9004-0.1262 0.96746-0.1249 1.6791-0.1582 2.4609-0.018 0.12349-0.078 0.22262-0.1914 0.28906-0.085 0.10508-0.20287 0.15547-0.35157 0.15039-0.1023-4e-3 -0.19987-0.0596-0.29687-0.1289-0.05-0.32915-0.18233-1.1771-0.20313-1.3223l-0.64843-5.9004c-0.058-1.5343-0.098-2.5744-0.13086-3.4297 0.01-1.587 0.064-2.6478 0.14257-3.4648 0.2179-1.6242 0.33789-2.5928 0.33789-2.7539 0.078-1.3754 0.13772-2.2459 0.19532-3.0762l0.30468-2.2754c1e-3 -4e-3 5e-4 -6e-3 0-0.01 0.1645-0.62745 0.24805-1.126 0.24805-1.4902 0-1.2 0.25-2.4326 0.75-3.6992 0.037-0.29372 0.073-0.40727 0.10938-0.64258 0.076-0.21853 0.10565-0.6214 0.18945-0.80664v-0.0506c0.039-0.0702-0.0318-0.13386-0.01-0.20312 0-0.0101-2.3e-4 -0.0371 0.01-0.0469 0.2333-0.63333 0.78369-0.93372 1.6504-0.90039 0.5 0.0667 0.98447 0.0163 1.4512-0.15039 2.1333-0.53333 3.9163-1.1826 5.3496-1.9492 0.4-0.2 0.70039-0.45 0.90039-0.75 0.2333-0.3 0.28174-0.53255 0.14844-0.69922-0.7667-0.9-1.3325-1.9833-1.6992-3.25l-1.9003-6.0508c-0.1333-0.36667-0.23213-0.63411-0.29883-0.80078-0.1333-0.33333-0.16826-0.58333-0.10156-0.75 0.5-1.2 1.25-2.733 2.25-4.5996 1.7667-3.2333 3.9334-6.3167 6.5-9.25 1.3333-1.5333 2.75-3.0004 4.25-4.4004 2.1667-1.9667 4.2016-3.5655 6.1016-4.7988 1.5455-0.93376 2.6441-1.5419 3.3809-1.8848 0.079-0.0354 0.16219-0.067 0.24219-0.10156 1.286-0.59611 2.5146-0.96769 3.6758-1.0644 0 0 2.8282-1.9491-2.5957-1.9491-0.6667-0.0333-1.5329-3e-4 -2.5996 0.0996-1.3667 0.13333-2.2504 0.19922-2.6504 0.19922-1.8333 0-4 0.41667-6.5 1.25-2.5168 0.82517-4.7311 1.8914-6.8008 3.0742-0.1678 0.0941-0.332 0.12913-0.5 0.22656-0.3062 0.18914-0.73135 0.55091-1.0566 0.76758-0.68909 0.45061-1.4584 0.83692-2.0918 1.332-0.2404 0.18032-0.7291 0.68949-1 0.91016-0.343 0.26746-0.59267 0.39962-0.95117 0.68945v-0.0488c-0.788 0.68744-1.5056 1.544-2.2695 2.2891-0.69399 0.65902-1.0794 0.9095-1.8808 1.7109-0.2005 0.20965-0.45703 0.60927-0.66993 0.86133-0.3666 0.40285-0.7681 0.72155-1.1289 1.1387-0.5699 0.73359-1.3878 1.9662-2.4512 3.6992l-0.75 1.25c-0.01 0.0357-0.0198 0.0686-0.0488 0.0996-0.097 0.17588-0.0232 0.28784-0.0762 0.44726-0.2035 0.34094-0.49293 0.55274-0.92383 0.55274-1.5667-0.0667-2.7004 1e-3 -3.4004 0.20117-1.5333 0.46667-2.7175 0.94922-3.5508 1.4492-1.1667 0.73333-2.0155 1.7004-2.5488 2.9004 0.2333-1.1333 0.15-2.2671-0.25-3.4004-0.1667-0.23333-0.28291-0.4-0.34961-0.5-0.1333-0.23333-0.1333-0.4155 0-0.54883 1.4666-1.4 2.4996-2.9174 3.0996-4.5508 0.4333-1.3 0.63291-2.2341 0.59961-2.8008 0-0.46667-0.13369-0.84844-0.40039-1.1484-0.3-0.33333-0.69922-0.4845-1.1992-0.45117-1.0667 0-1.8341 0.40117-2.3008 1.2012-1.3333 2.1667-1.8159 4.4322-1.4492 6.7988 0.1667 0.8 0.21709 1.2496 0.15039 1.3496-0.2333 0.3-0.58408 1.0345-1.0508 2.2012-0.3667 0.8-0.58369 1.6663-0.65039 2.5996 0 0.8 0.13369 1.5326 0.40039 2.1992 0.3333 0.8 0.55039 1.3678 0.65039 1.7012 0.2 0.63333 0.25039 1.2322 0.15039 1.7988-0.033 0.16667 0.033 0.63372 0.19922 1.4004l0.0996 0.34961h-0.34961l-0.65039-0.14844-0.33985-1.5352-0.41015-2.5664c-0.013-0.10483-0.15872-0.0888-0.19532-0.17188l-0.30467-1.3771 0.15234-1.6504c0-1.2333-0.0326-2.15-0.0996-2.75-0.033-0.3-0.18447-0.8-0.45117-1.5-0.2667-0.63333-0.38291-1.1004-0.34961-1.4004l0.59961-3.2988c0.2-1.3 0.23486-2.4182 0.10156-3.3516s-0.51709-1.6659-1.1504-2.1992c-0.7333-0.63333-1.5512-0.68372-2.4512-0.15039-0.2 0.13333-0.34922 0.0829-0.44922-0.15039-0.057-0.14625-0.15214-0.28942-0.21094-0.43555-0.051-0.12837 0.0219-0.23309-0.0391-0.36328-0.8685-1.8605-1.5286-3.0144-2.248-4.3711-0.3772-0.7245-0.63753-1.4581-1.0527-2.1797-1.6666-2.9333-2.9651-5.1-3.8984-6.5-0.049-0.0731-0.12197-0.16097-0.17187-0.23438-0.1953-0.30449-0.38193-0.66651-0.57813-0.96484-0.4775-0.71146-1.7624-2.4789-3.8516-5.3008l-1.25-1.5488c-0.01 2.6e-4 -0.0238-0.0172-0.0488-0.0508l-0.30078-0.44922c-0.7508-1.0031-1.3671-1.7376-1.8496-2.2012-0.2184-0.18463-1.5013-1.235-3.8496-3.1504l-0.0508-0.0488-1.6992-1.3496-0.0508-0.0508c-0.1338-0.10156-0.31603-0.15195-0.54883-0.15039-0.033 0-0.0647 0.0209-0.0977 0.0234-0.15095-0.14031-0.29464-0.26807-0.40234-0.32227zm71.551 0.44922c0.4-0.16667 0.78369-0.11628 1.1504 0.15039 1.2667 1 1.9159 2.0659 1.9492 3.1992-0.3 2.1333-1.6488 3.8329-4.0488 5.0996-1.3333 0.7-2.4845 0.91706-3.4512 0.65039-0.067-0.0333-0.2333-3e-4 -0.5 0.0996-0.1667 0.0333-0.28291-0.0325-0.34961-0.19922 0.3-0.26667 0.53447-0.48372 0.70117-0.65039 2.1666-1.9333 3.0155-3.9488 2.5488-6.0488-0.1333-0.56666-0.10069-0.96784 0.0996-1.2012 0.1-0.1 0.40039-0.26667 0.90039-0.5 0.2333-0.1 0.5667-0.29961 1-0.59961zm-5.1992 0.5c1 0.23333 1.6667 0.75078 2 1.5508 0.5 1.2333 0.18213 2.65-0.95117 4.25-1.4 1.9-3.2992 3.0318-5.6992 3.3984-0.5667 0-1.0841-0.18216-1.5508-0.54883-0.6-0.53333-1.1-0.30078-1.5 0.69922-0.5667 1.3-1.5492 2.4008-2.9492 3.3008-1.4333 0.93333-2.8171 1.2822-4.1504 1.0488-1-0.16667-1.6667-0.58334-2-1.25-0.3333-0.66667-0.73252-0.86628-1.1992-0.59961-0.5 0.43333-0.86631 0.71628-1.0996 0.84961-1.1667 0.76666-2.5834 1.3345-4.25 1.7012-1.9333 0.4-3.7008 0.0492-5.3008-1.0508-1.0667-0.7-1.7004-1.4829-1.9004-2.3496-0.1667-0.63333-0.56592-0.8-1.1992-0.5-3.6 1.4-6.3675 1.0841-8.3008-0.94922-0.5-0.5-0.81592-1.1337-0.94922-1.9004-0.1333-0.73333-0.083-1.4678 0.15039-2.2012 0.4667-1.3667 1.4318-2.5333 2.8984-3.5 0.7667-0.53333 1.2841-0.4655 1.5508 0.20117l0.25 0.69922c0.2667 1.4333 1.4004 2.5496 3.4004 3.3496 0.3667 0.13333 0.83369 0.21667 1.4004 0.25 0.3 0.0333 0.76514 0.0508 1.3984 0.0508h0.55078c0.1667 0.0667 0.19931 0.28372 0.0996 0.65039-0.2667 0.93333-0.05 1.9004 0.65039 2.9004 0.6667 0.93333 1.4671 1.5167 2.4004 1.75 0.8667 0.2 1.7504 0.11667 2.6504-0.25 0.4333-0.2 1.1988-0.65156 2.2988-1.3516 1.1333-0.76667 1.8175-1.7822 2.0508-3.0488 0.067-0.3 0.3167-0.48411 0.75-0.55078 0.4 0 0.68291-0.0504 0.84961-0.15039 1.2-0.53333 2.1341-1.4326 2.8008-2.6992 0.1-0.23333 0.1833-0.34961 0.25-0.34961 0.1-0.1 0.24922-0.0341 0.44922 0.19922 1 1.1667 2.6008 1.3333 4.8008 0.5 0.8667-0.33333 1.9655-0.94961 3.2988-1.8496 1.4333-1 2.4837-1.6492 3.1504-1.9492 0.9667-0.46666 1.9337-0.56745 2.9004-0.30078zm-23.525 3.7871c0.7833 8e-3 1.4742 0.19583 2.0742 0.5625 0.5667 0.33333 0.93486 0.85078 1.1016 1.5508 0.2 0.7 0.099 1.3163-0.30078 1.8496-1.4 1.8667-3.0492 2.8008-4.9492 2.8008-1.2667 0.0333-2.1504-0.61784-2.6504-1.9512-0.2667-0.6-0.23399-1.1988 0.0996-1.7988 0.2667-0.5 0.70078-0.93411 1.3008-1.3008 0.3333-0.2 0.73252-0.23303 1.1992-0.0996 0.5 0.13333 0.85078 0.41628 1.0508 0.84961 0.3 0.6 0.05 1.2337-0.75 1.9004-0.2 0.16667-0.26787 0.38372-0.20117 0.65039 0.033 0.13333 0.10117 0.18177 0.20117 0.14844 0.033 0 0.099-0.0329 0.19922-0.0996 0.5333-0.26667 0.95-0.74922 1.25-1.4492 0.3-0.66667 0.35039-1.2674 0.15039-1.8008-0.1667-0.43333-0.65117-0.78216-1.4512-1.0488l-0.94922-0.25c0.9667-0.35 1.8417-0.522 2.625-0.51367zm-30.725 25.264c0.6667 0.3 0.96709 0.98216 0.90039 2.0488-0.2 2.2667-0.7833 4.3674-1.75 6.3008l-0.15039 0.19922c-0.6333-1.1-1.0829-1.9488-1.3496-2.5488-0.5667-1.3-0.51826-2.7671 0.14844-4.4004 0.1667-0.4 0.31787-0.65 0.45117-0.75 0.1667-0.13333 0.4167-0.36784 0.75-0.70117 0.3-0.26667 0.6333-0.31511 1-0.14844zm11.35 0.54883c0.3333-0.2 0.63369-0.16697 0.90039 0.0996 0.4667 0.33333 0.76709 0.80039 0.90039 1.4004 0.067 0.2 0.13252 0.76784 0.19922 1.7012l-0.65039 4.5996c0 0.0574-0.092 0.16957-0.21484 0.30078-0.2542-0.46244-0.52006-0.94159-1.0352-1.8008l-0.12695-0.19922c-0.1036-0.19717-0.46216-0.87934-0.47266-0.90039-0.4667-1.1-0.6333-2.1504-0.5-3.1504 0.1333-0.96667 0.4667-1.6508 1-2.0508zm8.9004 0.70116c0.1333-0.0333 0.28252 0.05 0.44922 0.25s0.23447 0.41511 0.20117 0.64844c-0.2 1-0.40156 1.7345-0.60156 2.2012-0.6 1.5333-1.1988 2.6322-1.7988 3.2988l-0.84961 0.85156-0.25 0.0996-0.0508-0.25v-1c-0.2333-1.6667 0.16592-3.3663 1.1992-5.0996 0.3667-0.6 0.93447-0.93333 1.7012-1zm-19 4.9492c0.1973 0.73178 0.15245 0.58062 0.31445 1.1836 0.3318 1.4191 0.55808 2.4334 1.2344 5.166 0.036 0.0743 0.0528 0.14218 0.0508 0.20117-0.078 0.68437-0.012 1.1669 0.19922 1.4492l0.0508 0.0508c0.038 0.0505 0.1148 0.0334 0.1582 0.0742 0.2022 1.0475 0.38518 1.9305 0.64258 3.4746l0.79883 4.9004c0.067 0.36667 7.8e-4 0.58372-0.19922 0.65039-0.2667 0.0333-0.46631 0.0488-0.59961 0.0488-0.6333 0.0667-1.3175 0.30117-2.0508 0.70117-0.8 0.5-1.4163 0.86628-1.8496 1.0996-0.1333 0.1-0.2167 0.11727-0.25 0.0508v-0.25c-0.067-1.2333-0.13447-1.9833-0.20117-2.25-0.1667-0.86666-0.5-1.5682-1-2.1016-0.033-0.0667 0.017-0.19844 0.15039-0.39844 1.2333-1.2667 1.9833-3.0167 2.25-5.25 0.2-1.2667 0.1167-2.8345-0.25-4.7012-0.033-0.33333-0.16709-0.66667-0.40039-1-0.3-0.5-0.23213-1.0504 0.20117-1.6504 0.5-0.73333 0.75-1.2159 0.75-1.4492zm-1.8008 3.25c0.1 0.2 0.25117 0.48294 0.45117 0.84961 0.5 1.8667 0.44961 4.1167-0.15039 6.75-0.067 0.33333-0.25078 0.73451-0.55078 1.2012l-0.75 1.1992c-0.067 0.0667-0.13252 0.0996-0.19922 0.0996-0.067-0.0333-0.0996-0.11667-0.0996-0.25-0.4667-1.3333-0.68369-2.2326-0.65039-2.6992 0.1-2.4333 0.71631-4.7667 1.8496-7zm13.451 0.44921c0.6333 1.9333 0.73213 4.0012 0.29883 6.2012-0.2048 1.1263-0.42804 1.8397-0.65234 2.5332-0.1584 0.47828-0.32008 0.87813-0.48438 1.209-0.086 0.12915-0.21577 0.44015-0.26367 0.4082-0.2-0.1-0.41514-0.50117-0.64844-1.2012-0.3-0.7-0.45117-1.5159-0.45117-2.4492 0-0.1953 0.081-0.81881 0.12109-1.2207 0.1639-1.2913 0.50073-2.421 1.0156-3.3828 0.103-0.202 0.1287-0.39532 0.2539-0.59961l0.10938-0.14649c0.015-0.0172 0.0328-0.0346 0.0508-0.0508 0.132-0.13288 0.018-0.27064 0.11133-0.4043zm4.4492 0c0.5667 1.1333 0.75078 2.3 0.55078 3.5-0.1667 0.8-0.5833 1.8504-1.25 3.1504l-0.20117 0.25-0.29883-0.65039c-0.4333-1.9667-0.052-3.9667 1.1484-6zm8.75 0.4004c3.0667-0.4 5.9833 0.48373 8.75 2.6504 0.088 0.0717 0.14537 0.18997 0.23047 0.26562 0.6651 0.6978 1.3252 1.3991 1.8106 2.2168 0.49 0.83124 0.92386 1.7495 1.2598 2.8184l1.3496 3.8984c0.6 2 1.1504 3.4516 1.6504 4.3516l0.39844 0.59961c-1.7333-0.93333-3.6984-2.5341-5.8984-4.8008-1.9333-1.9667-4.4334-3.833-7.5-5.5996-2.6667-1.4667-4.8683-2.3833-6.6016-2.75h-1.8984c1.4666-2.0667 3.6159-3.2837 6.4492-3.6504zm-20.9 4.0996c0.067-0.0222 0.12059 0.033 0.18359 0.0332 0.3273 0.14279 0.73222 0.52583 1.1035 0.80469 1.649 1.3869 2.9944 2.8868 3.8633 4.5625 0.4 0.8 0.5667 1.3504 0.5 1.6504-0.067 0.5-0.26631 0.69961-0.59961 0.59961-0.4-0.23333-0.65-0.36706-0.75-0.40039-0.9606-0.36024-1.8684-1.2049-2.748-2.2949-0.1004-0.12253-0.25755-0.24696-0.34375-0.36914-0.9669-1.3481-1.4378-2.5685-1.3086-3.6348v-0.59961c0-0.2 0.0326-0.31823 0.0996-0.35156zm15.201 0.49998c1.5 0.0667 3.3488 0.66745 5.5488 1.8008 2.1667 1.1333 4 2.2826 5.5 3.4492-1.3667-0.63333-2.1321-0.98216-2.2988-1.0488-2.5667-1.0333-4.2683-1.6671-5.1016-1.9004-1.9333-0.6-3.7318-0.83255-5.3984-0.69922-0.1333 0.0333-0.36787 0.0159-0.70117-0.0508l0.34961-0.55078c0.1667-0.46667 0.43408-0.78255 0.80078-0.94922 0.3-0.1 0.73408-0.11727 1.3008-0.0508zm-30.701 0.0508c1.4544-0.0642 2.6932 0.29447 3.832 0.84766 0.8447 0.4614 1.6516 0.92349 2.002 1.4004 0.6755 0.72096 1.2382 1.5382 1.5664 2.5527 0.1333 0.3 0.017 0.41628-0.34961 0.34961-1.6667-0.23333-3.533-0.0841-5.5996 0.44922-0.7333 0.2-2.5512 0.89961-5.4512 2.0996-1.1333 0.43333-2.6992 1.3171-4.6992 2.6504l-0.25 0.0508 0.0488-0.15039c0.4667-0.66667 0.90078-1.5833 1.3008-2.75 0.4333-1.3 0.7667-2.2671 1-2.9004 0.6-1.4333 1.4663-2.5671 2.5996-3.4004 1.2-0.83333 2.5333-1.2326 4-1.1992zm28.301 2.6504c0.2333 0 0.5667 0.0155 1 0.0488 0.2667-0.0667 0.6-0.0667 1 0 0.2333 0 0.58213 0.0349 1.0488 0.10156 1.3 0.0667 3.1508 0.49883 5.5508 1.2988 1.7 0.56667 3.2833 1.2178 4.75 1.9512 0.6667 0.33333 1.9341 1.1667 3.8008 2.5 0.5 0.33333 1.4651 1.0833 2.8984 2.25 1.1667 0.96667 2.1512 1.6818 2.9512 2.1484l0.40039 0.10156c-1.4 0.83333-3.4175 1.5-6.0508 2-1.4567 0.25897-3.4092 0.34647-5.7773 0.29102-0.1221-8e-3 -0.24053-0.0227-0.36133-0.0332-1.4113-0.0718-2.6528-0.40635-3.8262-0.8457-0.6432-0.23183-1.1984-0.46747-1.6406-0.70703-0.9245-0.48495-1.8872-0.97363-2.3438-1.4062-0.2-0.2-0.38408-0.51589-0.55078-0.94922-0.2-0.56667-0.33369-0.9-0.40039-1-0.2667-0.46667-1.0167-1.2845-2.25-2.4512-0.5333-0.5-0.89961-1.2655-1.0996-2.2988-0.2333-1.0333-0.20069-1.8667 0.0996-2.5 0.1333-0.33333 0.40078-0.5 0.80078-0.5zm-20.35 3.3496c0.1333 0 0.23213 0.0659 0.29883 0.19922 0.067 0.0667 0.11709 0.18489 0.15039 0.35156 0.067 0.16667 0.11709 0.43216 0.15039 0.79883-0.3667 0-0.64961-0.0155-0.84961-0.0488-1.6667-0.23333-3.2016-0.23333-4.6016 0l-2.8984 0.44922c-1.9667 0.43333-3.5345 0.90039-4.7012 1.4004h-0.5c1-0.4 2.4167-1.0008 4.25-1.8008 1.6-0.66667 3.0167-1.0659 4.25-1.1992 1-0.1 2.4845-0.15039 4.4512-0.15039zm16 1.5508c1.9 0.0333 3.4 0.59922 4.5 1.6992 1.6333 1.5333 2.3484 3.3337 2.1484 5.4004-0.2667 1.9-0.81514 3.6655-1.6484 5.2988-0.2 0.43333-1.1516 2.1504-2.8516 5.1504-0.3 0.5-0.89883 1.3837-1.7988 2.6504-0.1528 0.21385-0.20826 0.33953-0.34766 0.54102l-1.457 1.8711c0.3542-1.8276 0.63561-3.3555 0.75391-4.2129 0.3667-2.9333 0.31631-5.7163-0.15039-8.3496-0.4333-2.1333-0.9333-3.8-1.5-5-0.3667-0.9-0.66514-1.5822-0.89844-2.0488-0.3667-0.7667-0.80078-1.3674-1.3008-1.8008l0.2207-0.18945c1.2358-0.67774 2.6622-1.0418 4.3301-1.0098zm-18.102 0.39842c0.6-0.0667 1.5167 0.0167 2.75 0.25 0.2667 0.0667 0.4333 0.25078 0.5 0.55078 0.033 0.16667 0.068 0.43411 0.10156 0.80078 0.2 0.63333 0.14961 1.3155-0.15039 2.0488-0.1667 0.43333-0.46709 1.0496-0.90039 1.8496-0.3333 0.9-0.3333 1.9174 0 3.0508 0.059 0.15715-0.061 0.27834-0.11719 0.41211-0.1107 0.0419-0.22143 0.0527-0.33203 0.13867l0.0488-0.0508c-0.4052 0.38765-0.8833 0.51073-1.3457 0.69141-1.2658 0.43287-2.6609 0.76468-4.5547 0.70898-1.0333-0.0667-2.8667-0.45039-5.5-1.1504-1.5-0.4-3.3992-1.1674-5.6992-2.3008-0.8667-0.43333-1.3996-0.81511-1.5996-1.1484-0.1333-0.26667-0.068-0.51667 0.19922-0.75 0.067-0.0333 0.3167-0.16706 0.75-0.40039 2.7333-1.4333 4.8845-2.4333 6.4512-3 2.0666-0.73333 4.2663-1.2333 6.5996-1.5zm9.9512 1.4511c0.5 0.0333 0.9167 0.28333 1.25 0.75 0.2 0.26667 0.45 0.69883 0.75 1.2988 0.8333 1.4333 1.5833 3.6678 2.25 6.7012 0.3333 1.8333 0.61631 3.9671 0.84961 6.4004 0.1 1.2667 0.13261 3.1988 0.0996 5.7988-0.8-1.2-2.3659-2.8667-4.6992-5-2.3-1.9667-4.2167-3.8659-5.75-5.6992-1.0333-1.2333-1.5333-2.6674-1.5-4.3008 0.033-1.6667 0.6167-3 1.75-4 1.5-1.3333 3.1667-1.9826 5-1.9492zm2.75 0.0488c0.1333-0.0333 0.26709 0.0171 0.40039 0.15039 0.5333 0.53333 0.99844 1.2174 1.3984 2.0508 0.1333 0.36667 0.40078 1.1322 0.80078 2.2988 0.7333 2.1 1.1675 4.0012 1.3008 5.7012 0.1 2.0333 0.05 4.0488-0.15039 6.0488 0 0.0667-0.05 0.15-0.15039 0.25-0.1333-0.13333-0.19922-0.24961-0.19922-0.34961l-0.15039-1.5488c-0.3-2.8-0.58291-4.8833-0.84961-6.25-0.6333-2.9-1.55-5.4833-2.75-7.75-0.1333-0.26667-0.10069-0.41784 0.0996-0.45117 0.067 0 0.15-0.0504 0.25-0.15039zm-25.701 7.6016 0.25 0.0488c1.9333 0.66667 3.2337 1.1008 3.9004 1.3008 1.4667 0.43333 2.8175 0.69883 4.0508 0.79883l3 0.20117c0.2592 0.0288 0.40768 0.22214 0.51758 0.47461 0.045 0.13155 0.0931 0.40961 0.13867 0.55859 0.014 0.12745 0.029 0.20909 0.043 0.36719 0.4333 1.7333 0.85 3.7992 1.25 6.1992 0.2667 1.5333 0.6 3.8667 1 7 0.2595 1.6437 0.29767 3.987 0.38867 6.1641-0.072 0.0555-0.13768 0.11809-0.23828 0.13672-0.1085 0.0197-0.22471-0.0152-0.34961-0.10156-0.086-0.0479-0.15407-0.13127-0.20117-0.25-0.1769-0.61448-0.48005-1.2244-0.68555-1.8379-0.1461-0.44712-0.26276-1.0398-0.41406-1.4609-0.304-0.82815-0.62064-1.3829-0.92773-2.1387-0.261-0.61005-0.50357-1.221-0.79297-1.8301-0.4105-0.91859-0.81212-2.0408-1.2285-2.832-0.5754-1.0709-1.2812-1.9625-1.918-2.9492-0.031-0.05-0.051-0.10038-0.082-0.15039-0.047-0.074-0.10329-0.13144-0.15039-0.20508-0.6214-0.94208-1.1711-1.9822-1.8496-2.8457-0.524-0.67374-0.78091-0.84118-1.2578-1.4258-1.0869-1.3881-2.239-2.6591-3.4199-3.877-0.256-0.25115-0.69118-0.84366-0.92188-1.0469zm35.852 5.2988c0.2 0.83333 0.082 1.8663-0.35156 3.0996-0.031 0.40184-0.10981 1.2364-0.16211 1.832-0.014 0.12619-0.053 0.23656-0.13672 0.31836-0.091 0.0921-0.20721 0.14245-0.34961 0.15039-0.044 3.9e-4 -0.091-0.0435-0.13672-0.0586-0.04-0.84183-0.094-2.1213-0.11328-2.291-0.067-0.4 0.083-0.88451 0.44922-1.4512 0.4667-0.73333 0.73408-1.2663 0.80078-1.5996zm-14.826 2.5078c0.2719 0.0618 0.44303 0.11095 0.47461 0.14258 0.2333 0.3 0.61709 0.68372 1.1504 1.1504 0.3746 0.43704 0.48567 0.89123 0.42187 1.3574-0.01 0.0139-0.0105 0.0322-0.0215 0.043-0.097 0.34284-0.14739 0.64128-0.15039 0.89844v2.8516c0 0.0134 7e-4 0.0391 0 0.0527 0 0.1323-0.0459 0.24774-0.14844 0.3457-0.079 0.0943-0.19561 0.14466-0.34961 0.15039-0.1152 5e-3 -0.23151-0.0457-0.34961-0.15039-0.085-0.0686-0.13499-0.16745-0.15039-0.29883l-0.11133-0.95508c-0.018-0.18378-0.0201-0.46814-0.0391-0.64453l-0.125-0.74805-0.375-3.2031v-0.0995l-0.0996-0.5v-0.0508c-0.019-0.14992-0.10095-0.20337-0.12695-0.3418zm18.043 25.889c0.2644 0.0129 0.4993 0.0553 0.7539 0.0781 1.1338 0.0768 2.2339 0.22096 3.2285 0.57617 0.3333 0.16667 0.5 0.36628 0.5 0.59961-0.067 0.33333-0.4 0.56589-1 0.69922-1.2333 0.23333-2.1325 0.41745-2.6992 0.55078-1.2667-0.0667-2.2183-0.13255-2.8516-0.19922-1.0667-0.0667-1.9659-0.28372-2.6992-0.65039-0.4-0.2-0.5667-0.36667-0.5-0.5 0.3-0.36667 0.66631-0.60117 1.0996-0.70117 1.4806-0.33433 2.8622-0.4686 4.168-0.45313zm-5.6406 2.6035c0.1413-0.21621 0.48717-0.22753 1.0723 0 2.5667 1.1333 5.4 1.1506 8.5 0.0508 0.1667-0.0667 0.23447-0.0163 0.20117 0.15039-0.067 1.3667-0.15 2.3996-0.25 3.0996-0.033 0.13333-0.30078 0.36589-0.80078 0.69922-1.8667 1.1667-3.2833 2.0504-4.25 2.6504-1.6667 1.0667-3.0329 2.0008-4.0996 2.8008-0.067 0.0333-0.43291 0.2-1.0996 0.5l0.65039-8.3516-0.0254-0.28906c0.03-0.4392 0.087-0.86184 0.10156-1.3106zm39.674 8.5508c0.033 0.0667 0.0488 0.29922 0.0488 0.69922 0.1667 0.66667-0.033 1.2345-0.59961 1.7012-0.7667 0.46667-1.3325 0.8155-1.6992 1.0488-2.7667 1.8-5.1349 3.3833-7.1016 4.75-2.4333 1.7-4.6329 3.1167-6.5996 4.25-0.1333 0.1-0.39883 0.0845-0.79883-0.0488l-1-0.40039c-0.6667-0.13333-0.68378-0.36784-0.0508-0.70117l17.6-11.25c0.1333-0.0667 0.20117-0.0822 0.20117-0.0488zm-63.15 3.2246c0.9833 0.13333 1.9155 0.40755 2.7988 0.82422 0.1333 0.0667 0.20117 0.15 0.20117 0.25 0.033 0.2 0.0488 0.31823 0.0488 0.35156-0.2667 0.8-1.0651 1.4492-2.3984 1.9492-1.3333 0.46667-2.9516 0.81745-4.8516 1.0508-0.9333 0.16667-2.0321 0.1997-3.2988 0.0996-0.3-0.0333-0.70117-0.11667-1.2012-0.25-0.5667-0.13333-0.9833-0.21667-1.25-0.25-0.5333-0.0667-0.79883-0.34961-0.79883-0.84961 0.033-0.43333 0.41709-0.86745 1.1504-1.3008 0.9-0.56667 1.9484-1.0008 3.1484-1.3008 0.7333-0.16667 1.8516-0.34883 3.3516-0.54883 1.0833-0.15 2.1163-0.15863 3.0996-0.0254zm3.75 0.27541 0.25 0.0996 8.75 4.4004-7.9512 5.1992c-0.2-1.9-0.31631-3.3167-0.34961-4.25-0.033-1.7-0.0656-2.5992-0.0996-2.6992-0.067-1-0.25078-1.8508-0.55078-2.5508zm-1.1504 3.1992c0.1 0.0667 0.16592 0.18294 0.19922 0.34961v2.9004c0 0.86667 0.068 1.5837 0.20117 2.1504 0.3667 1.5-0.16631 2.6163-1.5996 3.3496-0.3 0.16667-1.9008 1.1996-4.8008 3.0996l-6 3.8516-0.30078 0.14844-0.0488-0.34961-0.65042-9.0996c-0.033-0.5-0.21748-2.2326-0.55078-5.1992 1.5333 0.66667 3.0004 0.98255 4.4004 0.94922 2.7667-0.0667 5.0167-0.43294 6.75-1.0996 1.0667-0.46667 1.7508-0.8 2.0508-1 0.1333-0.1 0.24961-0.11727 0.34961-0.0508zm34.6 6c1.8-0.36667 4.2167-0.36667 7.25 0 0.1667 0.0333 1.0679 0.36667 2.7012 1l0.25 0.30078c-0.1 0.2-0.46826 0.41706-1.1016 0.65039-0.4 0.13333-0.88252 0.21667-1.4492 0.25-0.6333-0.0333-1.1159-0.0508-1.4492-0.0508-2.4667 0.0667-4.6508-0.33255-6.5508-1.1992-0.1667-0.0333-0.30039-0.0682-0.40039-0.10156-0.1333-0.0667-0.19922-0.1655-0.19922-0.29883 0.033-0.23333 0.14961-0.3845 0.34961-0.45117 0.1333-0.0333 0.33291-0.0663 0.59961-0.0996zm-48.75 0.15039c0.033 0 0.14961 0.23255 0.34961 0.69922v0.25c0.033 0.96666-0.11592 1.5674-0.44922 1.8008-0.3 0.23333-0.98408 0.28372-2.0508 0.15039-1.2666-0.13333-2.2667-0.18372-3-0.15039-1.1 0.0667-2.0825 0.29922-2.9492 0.69922-0.6 0.26667-0.90039 0.66784-0.90039 1.2012-0.033 0.53333-0.0162 0.89961 0.0508 1.0996 0.1333 0.4 0.49961 0.70039 1.0996 0.90039-1.7667-0.0667-2.9004-0.51628-3.4004-1.3496-0.5667-1-0.41553-2.2849 0.45117-3.8516 0.4667-0.83333 1.3659-1.2829 2.6992-1.3496 1.8-0.13333 4.4996-0.16637 8.0996-0.0996zm0.0508 3.5996c0.3667 0 0.54883 0.16667 0.54883 0.5 0 0.8 0.05 1.6178 0.15039 2.4512 0.033 0.2 6.9e-4 0.28333-0.0996 0.25-0.1-0.0667-0.1-0.1345 0-0.20117-4.2667 0-6.6504-0.0155-7.1504-0.0488-1.1333 0-1.7167-0.45156-1.75-1.3516 0-0.83333 0.46709-1.2829 1.4004-1.3496 1.5333-0.1 3.8337-0.18333 6.9004-0.25zm60 4.25h2e-3l11.547 0.45117c0.7-0.0333 2.4849 0.11589 5.3516 0.44922 1.6 0.2 2.9817 0.76589 4.1484 1.6992 1.6136 1.2909 2.4082 4.4381 0.5 5.8516-0.3667 0.26667-0.96553 0.49922-1.7988 0.69922-0.2333 0.0333-1.0008 0.0992-2.3008 0.19922l-0.29883-0.0488 0.0996-0.15039c1.0667-0.76667 1.3496-1.7337 0.84961-2.9004-0.3-0.8-1.1837-1.3659-2.6504-1.6992-1.3333-0.26667-2.6996-0.38294-4.0996-0.34961l-11.1-0.40039c-0.6667 0-0.90117-0.26745-0.70117-0.80078 0.1333-0.3 0.16826-0.74961 0.10156-1.3496-0.067-0.6-0.0512-1.0341 0.0488-1.3008 0.033-0.13333 0.0676-0.21667 0.10156-0.25 0-0.0992 0.0681-0.13174 0.19922-0.0996zm-14.301 2.4512c-0.1333 0.3-0.18369 0.46667-0.15039 0.5 0.1333 0.83333-0.033 1.2984-0.5 1.3984h-1.5l-0.19924-0.0488 0.15039-0.15039zm-2.3496 2.6484c0.1667 0 0.80039 0.0678 1.9004 0.20117 0.1333 0.0667 0.19922 0.36706 0.19922 0.90039 0 0.3-0.0326 0.74961-0.0996 1.3496 0.1 0.8-0.25078 1.1333-1.0508 1-0.8333-0.16667-1.9167-0.2345-3.25-0.20117h-3.75c0.5-0.33333 1.2171-0.83334 2.1504-1.5 0.8333-0.6 1.5504-1.0651 2.1504-1.3984 0.4667-0.26667 1.05-0.38489 1.75-0.35156zm-3.75 4.2012c1 0.16667 2.5504 0.18243 4.6504 0.0488 0.8333-0.0333 1.1821 0.36784 1.0488 1.2012l-0.19922 1.5996c-0.067 0.7-0.36709 1.0333-0.90039 1-0.6333-0.2-1.0829-0.28333-1.3496-0.25-0.5667 0.1-1.2663 0.13303-2.0996 0.0996-0.9667-0.0333-1.6837-0.0663-2.1504-0.0996-3.1333 0-5.4996-0.0504-7.0996-0.15039l-0.5-0.0488c1.8667-1.3 2.8337-1.9841 2.9004-2.0508 1.4666-1.2667 3.3659-1.7163 5.6992-1.3496z"/>
 <g transform="translate(-447.2,-186.3)">
  <path transform="translate(160.15,84.1)" d="m292.05 102.2c-3.3333 0-5 1.6667-5 5v158.2c0 3.3333 1.6667 5 5 5h93.201c3.3333 0 5-1.6667 5-5v-158.2c0-3.3333-1.6667-5-5-5zm8.3008 7.1992h76.6c4.6667 0 7 2.3333 7 7v139.8c0 4.6667-2.3333 7-7 7h-76.6c-4.6667 0-7-2.3333-7-7v-139.8c0-4.6667 2.3333-7 7-7z" fill="#ef1d1e"/>
  <path transform="translate(160.15,84.1)" d="m300.35 109.4c-4.6667 0-7 2.3333-7 7v139.8c0 4.6667 2.3333 7 7 7h76.6c4.6667 0 7-2.3333 7-7v-139.8c0-4.6667-2.3333-7-7-7z" fill="none" stroke="#000" stroke-width="1.2"/>
 </g>
</svg>
