<svg width="103.2" height="168.2" preserveAspectRatio="none" version="1.1" viewBox="0 0 103.2 168.2" xmlns="http://www.w3.org/2000/svg">
 <path d="m13.301 7.1992c-4.6667 0-7 2.3333-7 7v139.8c0 4.6667 2.3333 7 7 7h76.6c4.6667 0 7-2.3333 7-7v-139.8c0-4.6667-2.3333-7-7-7z" fill="#fff"/>
 <path d="m38.3 74.849c-0.38489-1.3307-1.1182-2.4141-2.2-3.25-1.0867-0.83737-2.3367-1.2874-3.75-1.35l-0.7-0.05c-0.84987 4e-3 -1.5832 0.154-2.2 0.45-1.5387 0.74466-3.0053 1.828-4.4 3.25-1.4608 1.5284-2.7275 3.5117-3.8 5.95-0.72435 1.5505-1.4577 3.7338-2.2 6.55l0.05-0.05c-0.0474 0.30729-0.0141 0.57396 0.1 0.8l0.25 0.35c0.0657 0.0905 0.0991 0.19049 0.1 0.3-1e-3 0.11068-0.0347 0.21068-0.1 0.3l-0.15 0.15c-0.19739 0.36081-0.19739 0.69414 0 1 0.19049 0.26745 0.45716 0.40078 0.8 0.4h0.25c0.43451-0.0918 0.66784-0.12513 0.7-0.1 0.0371-0.0391 0.0705-0.0724 0.1-0.1 0.83568-0.43555 1.9857-0.65221 3.45-0.65h2.7c0.90937-2e-3 2.3427 0.11467 4.3 0.35l1.95 0.15c1.6392 2.6e-4 3.2225-0.31641 4.75-0.95v-0.05l0.2-0.05 0.9-0.45c0.13776-0.0563 0.27109-0.0729 0.4-0.05 0.12083 0.0543 0.20417 0.1376 0.25 0.25 1.6461 2.7367 3.4461 4.8867 5.4 6.45l5.55 4.6-0.05-0.05 0.45 0.3c0.1043 0.0541 0.2043 0.0874 0.3 0.1l0.5-0.1c0.15755-0.0671 0.27422-0.18373 0.35-0.35 0.0582-0.075 0.12487-0.14167 0.2-0.2 0.0777-0.0314 0.16107-0.0481 0.25-0.05h0.15c0.14115-3e-3 0.25781-0.0367 0.35-0.1 0.0233-0.0197 0.04-0.0363 0.05-0.05 0.21953-0.0986 0.36953-0.1819 0.45-0.25l3.15-3.1h-0.05c1.879-1.9826 3.2457-3.8992 4.1-5.75l0.25-0.55v-0.05c1.0039-2.1178 1.5039-3.9512 1.5-5.5l-0.45-2.35c-0.0249-0.13425-8e-3 -0.26758 0.05-0.4 0.0962-0.0999 0.21289-0.16653 0.35-0.2 0.12474-0.0251 0.24141-8e-3 0.35 0.05 0.72292 0.44974 1.5396 0.76641 2.45 0.95 1.4178 0.36979 3.2345 0.55313 5.45 0.55h5.65c0.61159-3e-3 1.0616 0.0473 1.35 0.15 0.14883 0.063 0.36549 0.0963 0.65 0.1h0.65c0.26732-5e-3 0.48399-0.122 0.65-0.35v-0.05c0.20287-0.20768 0.26953-0.44101 0.2-0.7l-0.05-0.2c8e-3 1.3e-4 8e-3 -0.0165 0-0.05-0.0548-0.3168-0.12147-0.5668-0.2-0.75-0.0343-0.0543-0.0509-0.12093-0.05-0.2v-0.05c-3e-3 -0.0797 0.014-0.16302 0.05-0.25 0.0435-0.0541 0.0935-0.10413 0.15-0.15 0.25495-0.19492 0.33828-0.47825 0.25-0.85l-0.3-1.4c-0.21745-1.0897-0.43411-1.9064-0.65-2.45-8e-3 -0.0168-0.025-0.0335-0.05-0.05-0.66992-2.016-1.4532-3.6827-2.35-5-1.1378-1.7418-2.5878-3.0918-4.35-4.05-2.1625-1.1548-3.9958-1.7382-5.5-1.75-0.47813-3e-3 -0.84479 0.0133-1.1 0.05-2.6e-4 0.0257-0.0169 0.0423-0.05 0.05-2.552 0.36406-4.2686 1.6474-5.15 3.85 4e-3 0.088-0.0127 0.17135-0.05 0.25-0.28945 0.51511-0.37279 0.98177-0.25 1.4v0.05c0.0858 0.22813 0.21914 0.41146 0.4 0.55 0.0854 0.0649 0.13542 0.1482 0.15 0.25 0.0499 0.1 0.0499 0.2 0 0.3-0.0151 0.10287-0.0651 0.1862-0.15 0.25-0.0902 0.0649-0.19023 0.0982-0.3 0.1-0.4168 6e-3 -0.80013 0.17267-1.15 0.5-0.44271 0.56901-0.70937 1.2857-0.8 2.15-0.12865 0.88216-0.0953 1.7322 0.1 2.55 0.0503 0.13711 0.0503 0.25377 0 0.35-0.0541 0.12175-0.13747 0.20508-0.25 0.25-0.11419 0.0504-0.23086 0.0504-0.35 0l-1.2-0.35 0.05 0.05c-0.79557-0.1625-1.4956-0.24583-2.1-0.25-0.95104-5.2e-4 -1.851 0.13281-2.7 0.4l-1.85 0.9-0.3 0.25c-0.0751 0.056-0.15847 0.0893-0.25 0.1-0.0869 8e-3 -0.17018-9e-3 -0.25-0.05-0.0909-0.0401-0.17422-0.1068-0.25-0.2-0.41745-0.61719-1.0674-1.0505-1.95-1.3l0.05 0.05c-0.58854-0.1332-1.4385-0.26653-2.55-0.4h-0.4l-0.4-0.05c-0.62305 7e-3 -1.2897 0.15667-2 0.45-0.80573 0.34831-1.4724 0.76497-2 1.25-0.0992 0.10273-0.21589 0.15273-0.35 0.15-0.13333 3e-3 -0.25-0.0467-0.35-0.15-0.33633-0.3013-0.71966-0.46797-1.15-0.5-0.10937-0.01-0.20937-0.0599-0.3-0.15-0.0898-0.09-0.13985-0.20664-0.15-0.35-9e-3 -0.10391 0.0245-0.20391 0.1-0.3l0.15-0.2v-0.05c0.23229-0.2888 0.28229-0.72213 0.15-1.3v0.05m11.9-14.95-0.75 0.1 0.05-0.05c-0.95156 0.26641-1.7849 0.81641-2.5 1.65-0.68503 0.87695-1.1017 1.8603-1.25 2.95-0.22735 1.8008-0.21068 3.6174 0.05 5.45l-0.05-0.05c0.0797 0.25208 0.22969 0.58541 0.45 1h0.05l0.1 0.2c0.14245 0.27539 0.34245 0.42539 0.6 0.45h0.05l0.2 0.05c0.15169-0.0219 0.28503-0.0885 0.4-0.2 0.066-0.0447 0.13267-0.0947 0.2-0.15 0.19583-0.10091 0.3125-0.20091 0.35-0.3 0.0306-0.0336 0.0473-0.0669 0.05-0.1l2-3.6c0.62799-1.1024 1.0447-1.9524 1.25-2.55h0.05c0.40456-0.97422 0.62123-1.9409 0.65-2.9-4e-3 -0.52591-0.17067-0.95925-0.5-1.3l-0.05-0.05c-0.34127-0.38411-0.80794-0.58411-1.4-0.6m-7.5-6.95c-1.0754 0.0111-2.1087 0.51107-3.1 1.5-1.4103 1.4168-2.227 2.9335-2.45 4.55-0.28333 1.9229-0.16667 3.4229 0.35 4.5v0.05c0.22956 0.53216 0.59623 0.81549 1.1 0.85h0.1c0.43021-0.0209 0.79687-0.2876 1.1-0.8 0.5569-0.7875 1.0069-1.3875 1.35-1.8v-0.05c1.0079-1.3366 1.6579-2.3199 1.95-2.95l0.35-0.7c0.64362-1.1741 0.94362-2.1408 0.9-2.9v-0.1c-3e-3 -0.55052-0.0527-0.95052-0.15-1.2l0.05 0.05c-0.26237-0.61315-0.76237-0.94649-1.5-1h-0.05m11.75-0.15-0.25-0.25c-0.69935-0.78347-1.416-1.1835-2.15-1.2-0.24193 6.5e-4 -0.52526 0.0673-0.85 0.2h-0.05c-0.26575 0.12318-0.51575 0.32318-0.75 0.6-0.35391 0.50768-0.48724 1.141-0.4 1.9 5e-3 0.0407 5e-3 0.0741 0 0.1-0.0701 0.65937 0.16328 1.476 0.7 2.45h-0.05l0.2 0.35c0.41302 0.66471 0.94635 1.2147 1.6 1.65l0.05 0.05c0.4431 0.31732 1.0931 0.66732 1.95 1.05l0.85 0.4c0.26823 0.11159 0.60156 0.19492 1 0.25 0.0779 0.0108 0.14453 0.0275 0.2 0.05l0.4 0.05c0.30963-0.0259 0.60963-0.17593 0.9-0.45 0.20495-0.39101 0.23828-0.79101 0.1-1.2-0.69115-2.3542-1.8412-4.3542-3.45-6" fill="#1ca4da"/>
 <path d="m57.65 59.648-0.34961 0.0508c-0.31914 0.15664-0.50325 0.40664-0.55078 0.75-0.26354 2.857-0.21315 5.0237 0.15039 6.5 0.0396 0.1 0.0396 0.18333 0 0.25-5e-3 0.10287-0.0383 0.1862-0.0996 0.25l-0.0508 0.0508c-0.37031 0.37396-0.58737 0.60651-0.65039 0.69922-1.0531 2.1836-1.4853 4.3503-1.2988 6.5v0.0508c0.19531 1.3516 0.61198 2.1345 1.25 2.3496l0.64844 0.15039c0.71146 0.1457 1.3626 0.36081 1.9512 0.64844 0.0433 0.0127 0.0763 0.0302 0.0996 0.0508 0.0921 0.0634 0.20834 0.0963 0.34961 0.0996 0.20638 5e-3 0.37305-0.0612 0.5-0.19922h0.0508c0.29056-0.21801 0.39632-0.53278 0.3418-0.92969l-0.043-0.16992c-0.27487-1.3217-0.40664-2.1221-0.39844-2.4004-7e-3 -0.20911 0.0914-0.55989 0.29883-1.0508h-0.0488l0.29883-0.79883c0.0634-0.10899 0.14673-0.19232 0.25-0.25h0.0508c0.0153-0.0453 0.0308-0.0957 0.0488-0.15039 7e-3 0 7e-3 -0.0174 0-0.0508 0.38515-0.51341 0.63515-0.93008 0.75-1.25 3e-3 -0.84649 0.10345-1.4628 0.30078-1.8496 0.0186-0.0212 0.0361-0.0541 0.0508-0.0996 6.5e-4 -0.0292 6.5e-4 -0.0621 0-0.0996-0.0604-3.6858-1.1282-6.6199-3.2012-8.8008-0.19427-0.19206-0.42683-0.29284-0.69922-0.30078zm2.3418 17.271 8e-3 0.0293v-0.0508c1e-3 9e-3 -9e-3 0.0123-8e-3 0.0215zm-21.342-12.57c-0.34206 0.0556-0.57656 0.23776-0.70117 0.54883l-0.75 2.0508c-0.62044 2.1512-0.68633 4.3353-0.19922 6.5508 0.0947 0.50729 0.22838 0.98985 0.40039 1.4492 0.0555 0.12422 0.0555 0.2405 0 0.34961-9e-3 0.0775-0.0422 0.14531-0.0996 0.20117l0.14844 0.14844c0.0182 0.0156 0.0357 0.0331 0.0508 0.0508l0.84961 1.1992c0.37851 0.33359 0.91146 0.5681 1.5996 0.70117 0.18802 0.0237 0.35469 0.0392 0.5 0.0488h0.0507c1.4171-1.9857 1.95-4.1678 1.5996-6.5488-0.35377-2.494-1.22-4.6277-2.5996-6.4004-0.16966-0.23333-0.40221-0.34961-0.69922-0.34961zm9.9492 5.1504c-0.38815 3e-3 -0.70404 0.17-0.94922 0.5v0.0488l-0.15039 0.2012h-0.0508c-0.33698 0.42851-0.53659 0.76185-0.59961 1-0.0336 0.12018-0.0995 0.21901-0.19922 0.29883-0.0462 0.037-0.0966 0.0545-0.15039 0.0508-0.0845 0.0919-0.15039 0.19076-0.19922 0.29883-8e-3 0.0165-0.0254 0.034-0.0508 0.0508l-0.24996 0.44918h0.0508c-0.33281 0.59791-0.53437 1.0824-0.60156 1.4512-7e-3 0.0332-0.0226 0.0487-0.0488 0.0488l-0.0996 0.35156c9e-3 0.0413 9e-3 0.0742 0 0.0996-0.18854 0.46706-0.25638 0.88373-0.20117 1.25v0.0488c0.0973 0.6483 0.53138 1.1328 1.3008 1.4512l0.0996 0.0488c0.41575 0.12787 0.73164 0.1957 0.94922 0.20117h0.0507c0.0792-1e-3 0.14505 0.0142 0.19922 0.0488 0.0865 0.0363 0.1543 0.0867 0.20117 0.15039 0.15208 0.20794 0.35169 0.40755 0.59961 0.59961 0.18711 0.0577 0.43711 0.1255 0.75 0.20117 0.54701 0.16107 0.99662 0.22695 1.3496 0.19922 0.25351-0.0243 0.57135-0.10767 0.95117-0.25 0.0357-0.0947 0.0841-0.17799 0.14844-0.25 0.5043-0.28867 0.78919-0.6724 0.85156-1.1504v-0.19909c-0.0671-0.51627-0.15039-1.0163-0.25-1.5-3e-3 -0.0337-3e-3 -0.0667 0-0.0996v-0.0508c-0.43268-1.7417-1.2835-3.325-2.5508-4.75-0.0129-0.0138-0.0303-0.0467-0.0508-0.0996l-0.0488-0.0996c-0.31211-0.38125-0.66289-0.58086-1.0508-0.59961z" fill="#faea01"/>
 <path d="m100.24 21.699c3e-3 2.3e-4 3e-3 2e-3 6e-3 2e-3l6e-3 -2e-3zm6e-3 2e-3 -0.64453 0.14844c-1.3829 0.80365-3.2492 2.2203-5.5996 4.25h0.0508l-5.25 4.9492h-0.05094c-0.7716 0.67291-1.3724 1.2233-1.8008 1.6504l-3.0996 3.3008c-0.9194 0.95638-2.0861 2.406-3.5 4.3496-0.9927 1.3939-2.2427 3.2776-3.75 5.6504l-1.0488 1.6484c-1.2388 1.9962-2.1071 3.4478-2.6016 4.3516-0.5346 1.0193-2.0676 4.0523-4.5996 9.0996l-0.84961 1.6503c-0.087 0.20591 4.7e-4 0.3286-0.0195 0.50391-0.1168 0.16655-0.24228 0.37257-0.33008 0.39453-2.4667 0.33333-4.2845 1.2345-5.4512 2.7012 0 0.0333-0.11631 0.11667-0.34961 0.25l-0.0488-0.40039c-0.5667-2.1333-1.0841-3.5674-1.5508-4.3008-0.1-0.16667-0.41592-0.5-0.94922-1-0.4-0.36667-0.61709-0.7-0.65039-1-0.5333-2.9-1.8667-5.3826-4-7.4492-0.6667-0.66667-1.3333-1.0329-2-1.0996-0.6667-0.0667-1.2171 0.16589-1.6504 0.69922-0.8 1.0667-0.83456 2.3845-0.10156 3.9512 0.5 1.1 1.25 1.9992 2.25 2.6992 0.7667 0.53333 1.7996 1.0159 3.0996 1.4492 0.1333 0.0333 0.40078 0.0508 0.80078 0.0508 0.3333 0 0.48252 0.11628 0.44922 0.34961-0.4 2-0.4833 3.7829-0.25 5.3496 0.033 0.2 0.084 0.48489 0.15039 0.85156 0.033 0.33333-0.083 0.64922-0.34961 0.94922-1.2333 1.4333-1.8516 3.5167-1.8516 6.25 0 0.33333 0.083 0.89922 0.25 1.6992-0.033 0.6-0.53331 0.86745-1.5 0.80078l-0.0996 0.0508c-0.1-0.1-0.2667-0.0516-0.5 0.14844-0.2 0.13333-0.31631 0.0674-0.34961-0.19922-0.3333-2.5667-1.4826-4.7992-3.4492-6.6992-0.067-0.0667-0.0838-0.15-0.0508-0.25 0.1333-0.26667 0.7167-1.2841 1.75-3.0508 0.7-1.2333 1.1167-2.3167 1.25-3.25 0.1-0.73333 0.13261-1.2663 0.0996-1.5996-0.033-0.6-0.26592-1.0671-0.69922-1.4004-0.6-0.5-1.4837-0.5-2.6504 0s-1.8663 1.1492-2.0996 1.9492c-0.1 0.4-0.28408 0.96784-0.55078 1.7012-0.2 0.63333-0.31631 1.2167-0.34961 1.75-0.067 1.2333-0.0838 2.0996-0.0508 2.5996 0.067 0.96667 0.28369 1.8174 0.65039 2.5508 0.067 0.13333 0.16748 0.3155 0.30078 0.54883 0.1 0.23333 0.0822 0.43294-0.0508 0.59961-0.5333 0.76666-0.95 1.7512-1.25 2.9512 0 0.0333 0.0326 0.29883 0.0996 0.79883 0.067 0.3-0.05 0.43372-0.34961 0.40039-1.8 0-3.1992 0.36628-4.1992 1.0996-0.067-0.33333 0.017-0.66667 0.25-1 0.3333-0.46667 0.51553-0.74961 0.54883-0.84961 0.3667-1.1667 0.43447-2.6163 0.20117-4.3496-0.2-2.0667-0.89961-3.9504-2.0996-5.6504l-0.45117-0.5c-0.1333-0.23333-0.1333-0.45039 0-0.65039 0.3667-0.53333 0.96748-1.3163 1.8008-2.3496l1.75-2.5996c0.8-1.1667 1.3329-2.5329 1.5996-4.0996 0.067-0.33333-0.05-0.76745-0.34961-1.3008-0.3-0.56667-0.60039-0.86706-0.90039-0.90039-0.9333-0.16667-1.9159 0.13372-2.9492 0.90039-0.8333 0.6-1.5175 1.3171-2.0508 2.1504-0.5667 0.9-1.0008 2.2333-1.3008 4-0.1 0.56667-0.032 1.3167 0.20117 2.25 0.2333 0.96667 0.54922 1.6159 0.94922 1.9492 0.1333 0.13333 0.16796 0.35039 0.10156 0.65039l-0.94922 2.7012c-0.2531 0.75944-0.36796 1.8496-0.38086 3.1797l-0.41992-0.78125c-0.5585-1.1633-1.1243-2.1788-1.6992-3.0488-1.6734-2.7366-3.1405-4.8878-4.4004-6.4512l-1-1.1992c-1.2639-1.5606-2.1368-2.3893-3.2148-3.6016-0.575-0.65253-1.3593-1.6229-1.7852-2.0488-0.2685-0.28338-0.39522-0.41022-0.60352-0.62695-0.3059-0.31045-0.76057-0.89828-1.0469-1.1719-0.2908-0.26713-0.53376-0.42648-0.81836-0.67969-0.086-0.0764-0.20085-0.20448-0.28125-0.27148-0.1061-0.0859-0.15487-0.0935-0.25977-0.17773-2.8007-2.4362-5.3561-4.323-7.5391-5.3711l-1.4004-0.75c-2.5743-1.2833-4.5589-2.1167-5.9512-2.5-0.037 8e-3 -0.085-9e-3 -0.14844-0.0508-0.1111-0.0637-0.26227-0.0966-0.45117-0.0996-0.1292 2e-3 -0.15167 0.16388-0.25977 0.19727-0.2134-0.0598-0.53363-0.24523-0.74023-0.29688-0.2-0.0667-0.43252-0.0667-0.69922 0l-0.34961 0.0996c-0.033 0-0.033 0.0659 0 0.19922 0 0.1 0.048 0.20078 0.14844 0.30078l0.20117 0.25c0.3785 0.33987 0.60934 0.59232 0.96094 0.91602 0.075 0.1185 0.019 0.27892 0.13867 0.38281l1 0.90039h0.0508c0.9698 0.92773 1.5357 1.4781 1.6992 1.6504l0.59961 0.65039c2.3779 2.444 4.1124 4.3103 5.2012 5.5996 1.2657 1.3957 2.6146 3.1632 4.0488 5.3008 0.4566 0.65325 1.0245 1.6029 1.7012 2.8496h-0.05079l1.5508 2.5488v-0.0488c0.7238 1.1298 1.6056 2.6802 2.6484 4.6504l1.4512 2.6992c0.01 0.041 0.01 0.0739 0 0.0996l0.0996 0.30078c0.1628 0.60516 0.40157 1.0418 0.70117 1.3418 0.025 0.43729-0.087 0.84355-0.60156 1.1582-0.1333 0.0333-0.28252 0.18255-0.44922 0.44922-1.8333 2.3-3.1512 4.5171-3.9512 6.6504-1.0333 2.8667-1.5992 4.95-1.6992 6.25-0.067 1.0333-0.33408 1.4171-0.80078 1.1504-0.1667-0.23333-0.29844-0.4-0.39844-0.5l-1.6777-1.4102c-0.1482-0.1355-0.17057-0.20245-0.32227-0.33984l-0.0508-0.0508-0.19922-0.15039-0.0508-0.0488c-0.5971-0.54192-0.907-0.68964-1.4375-1.1406l-0.96289-0.81055c-0.1285-0.10513-0.19812-0.11175-0.32422-0.21289-0.7783-0.61064-1.7785-1.525-2.375-1.8867v0.0508l-0.55078-0.30078v-0.0488c-0.5009-0.2843-0.82049-0.34961-1.2754-0.57812-0.3002-0.15633-0.74694-0.55512-1.0234-0.67188-0.7667-0.36667-1.35-0.63411-1.75-0.80078-0.6667-0.26667-1.3004-0.36745-1.9004-0.30078-0.1333 0.0333-0.23408 0.0508-0.30078 0.0508-0.067 0.0333-0.067 0.11667 0 0.25l0.30078 0.44922c0.2333 0.33333 0.46592 0.60078 0.69922 0.80078 0.03 0.029 0.0394 0.0551 0.0684 0.084 0.059 0.11185-0.0349 0.27046 0.0801 0.36524 0.6786 0.58136 1.6044 1.6578 2.502 2.6777 0.6303 0.74329 1.3791 1.5084 1.8906 2.2305 0.5381 0.74259 1.1506 1.6607 1.957 3.043v-0.0508l0.80078 1.25c1.094 1.702 1.9603 3.1865 2.5996 4.4512l1.5996 3.0996c1.1358 2.0863 1.9866 3.7859 2.5508 5.0996l3.2988 7.3008c1.113 2.5982 1.8475 4.5807 2.2012 5.9492v-0.0508l2.0488 5.9004v0.0508c0.1488 0.43698 0.46667 1.6191 0.95117 3.5488l1.5 5.9512c0.052 0.13763 0.052 0.25391 0 0.34961-0.062 0.13255-0.16308 0.21589-0.30078 0.25-0.099 0.0605-0.21551 0.0605-0.34961 0-0.094-0.0245-0.1775-0.0904-0.25-0.19922-1.0413-1.8464-2.0413-3.3967-3-4.6504-1.0519-1.413-2.8349-3.2464-5.3496-5.5l-1.5-1.3496c-1.3426-1.2228-2.4355-2.0025-3.6152-2.9356-0.5269-0.43738-1.2617-1.0817-1.6348-1.3652-0.069-0.0514-0.14194-0.0801-0.21094-0.13086-0.1939-0.13875-0.44987-0.38987-0.63867-0.51953-0.5857-0.38477-1.9035-1.2181-3.9512-2.5h0.0508l-1.25-0.69922c-0.037-3e-3 -0.0696-0.0208-0.0996-0.0508-0.057-0.0261-0.2237-0.0919-0.5-0.19922h0.0488l-0.84961-0.20117c-0.1859 6e-3 -0.30266 0.16178-0.44336 0.26562-0.2999-0.0291-0.60905-0.2436-0.90625-0.21484l-0.20117 0.0508c-0.1667 0.1-0.28291 0.16589-0.34961 0.19922l0.25 0.19922 0.30078 0.35156c0.4392 0.35136 0.53973 0.49119 0.86523 0.77149 1.3708 1.232 2.5258 2.5431 3.5879 3.8867 0.2616 0.3185 0.53617 0.63071 0.78906 0.95313 1.5655 2.1154 2.8605 4.0278 3.7578 5.6387 1.2508 2.0248 2.5098 4.3881 3.7734 6.8906 0.16419 0.33607 0.40594 0.77353 0.55664 1.0918 1.2233 2.6236 2.0897 4.9708 2.5703 7.0176l0.79883 2.8984c0.2368 0.74344 0.33857 1.2011 0.51757 1.8223 0.2512 1.0881 0.55604 2.4698 0.96094 4.3965 0.1103 0.65822 0.18047 0.88322 0.32227 1.8828l0.35155 2.6991c0.2387 1.4264 0.33948 2.5272 0.30078 3.3008-0.032 0.73802-0.0172 1.771 0.0488 3.0996 0.1383 1.757 0.12277 3.1408-0.0488 4.1504-0.01 0.0413-0.0238 0.0742-0.0508 0.0996-0.033 0.16589-0.0508 0.39844-0.0508 0.69922 0 0.1112-0.0306 0.21198-0.0996 0.30078-0.1603 0.20612-0.2436 0.42318-0.25 0.65039v0.84961c5e-4 0.25208 0.068 0.46914 0.20117 0.65039l0.0488 0.0488c0.2085 0.16263 0.42549 0.24597 0.65039 0.25h25.801c0.2476 4e-3 0.44721-0.0793 0.59961-0.25h0.0488c0.166-0.20273 0.2494-0.43529 0.25-0.69922v-0.75c0-0.12487-0.0356-0.25859-0.0996-0.40039-0.034-0.0543-0.0518-0.12022-0.0508-0.19922v-0.20119c0.3739-1.3637 0.68982-3.1466 0.94922-5.3496v-0.0508c0.1656-1.0732 0.28191-2.6895 0.34961-4.8496l0.15039-5.1992c0.026-0.77354-0.01-1.5325 0-2.3008 0.01-0.33864 0.0477-1.0561 0.0527-1.3496-0.025-0.95262-0.0317-1.2997-0.0527-2.1309l0.0527-4.6191c-5e-4 -3.2185-0.035-5.3018-0.10156-6.25l-0.10156-0.92969c-0.016-0.18809 0.021-0.60402 0-0.76953-0.1667-1.9-0.31592-3.3167-0.44922-4.25-0.1667-0.9-0.25-2.5182-0.25-4.8516-0.067-2.0667 0.05-4.7663 0.34961-8.0996-0.033-2.1667 0.067-3.7655 0.30078-4.7988 0.1667-0.73333 0.34883-1.8671 0.54883-3.4004 0.2-1.5 0.38408-2.6163 0.55078-3.3496 0.3-1.1667 0.44922-1.7849 0.44922-1.8516 0.2333-0.7 0.59961-1.2484 1.0996-1.6484 0.5667-0.46666 1.7508-1.6333 3.5508-3.5l1.5996-1.8008c-0.1403 0.93523-0.37351 2.4679-0.59571 3.9277-0.045 0.24152-0.054 0.42296-0.10351 0.67188l-0.45104 2.6505c-0.1001 0.71237-0.23194 1.9953-0.39844 3.8496l-0.35156 3.5c-0.1513 1.3394-0.19816 2.1083-0.28516 3.0996l-1.3594 13.176c-0.1049 0.84006-0.14868 1.4184-0.30468 2.4746v0.0508c-0.1993 1.0497-0.34862 2.0827-0.44922 3.0996-0.034 0.24141-0.10147 1.0244-0.20117 2.3496l-0.26954 4.7422c-0.016 0.2186-0.0681 0.71747-0.0801 0.9082l-0.40039 6.0508c-0.151 3.99-0.28283 5.8092-0.41993 8.1523-0.1027 1.5799-0.19807 3.3501-0.33007 4.2461l-0.79883 6.5c-0.098 1.0693-0.14859 1.6197-0.15039 1.6504 0 0.11003-0.0356 0.21081-0.0996 0.30078-0.1001 0.14011-0.15049 0.28933-0.15039 0.44922v1.0508c5e-4 0.25195 0.066 0.46901 0.19922 0.65039l0.0508 0.0488c0.2085 0.16263 0.42549 0.24597 0.65039 0.25h26.049c0.2475 4e-3 0.44711-0.0793 0.59961-0.25h0.0508c0.166-0.20273 0.2494-0.43529 0.25-0.69922v-0.75c0-0.22227-0.066-0.42188-0.19922-0.59961-0.067-0.0897-0.10156-0.19049-0.10156-0.30078v-0.0508c-0.091-2.0719 0.40071-5.298 1.2578-9.2559 0.1461-0.64058 0.14585-0.77083 0.34375-1.5938 0.4212-2.022 0.74983-3.1761 1.0527-4.0859 0.4165-1.1769 0.89573-2.3392 1.457-3.4824 0.3607-0.7084 0.71255-1.4015 0.83985-1.6816 1.3052-2.8229 2.5207-5.0369 3.6875-6.9199 0.3679-0.61579 0.93492-1.4412 1.5742-2.3398 1.0838-1.5498 2.2116-3.1481 4.0879-5.5898 2.2333-3 4.2837-5.2829 6.1504-6.8496l0.54883-0.45117c0.1-0.0667 0.28408-0.19844 0.55078-0.39844 0.2-0.16667 0.25039-0.31784 0.15039-0.45117-0.1-0.2-0.48369-0.16697-1.1504 0.0996h-0.0996c-0.3539 0.12386-1.1877 0.54045-1.8047 0.82422l-0.19531 0.0273c-0.01 2e-3 -0.0258 2e-3 -0.0508 0h-0.0488c-0.2809 0.0493-0.54828 0.13267-0.80078 0.25l-0.0508 0.0488-1.2988 0.70117 0.0488-0.0508c-2.0863 1.2473-3.4526 2.0806-4.0996 2.5-1.1837 0.79218-2.689 1.9051-4.2812 3.1055l-0.96875 0.69531c-1.6667 1.1667-3.8837 3.2326-6.6504 6.1992-0.2434 0.26217-1.6634 2.053-2.6113 3.2305-0.066 0.0595-0.13548 0.11336-0.23828 0.11914-0.1042 0.0489-0.22041 0.0489-0.34961 0-0.088-0.0551-0.15392-0.1384-0.19922-0.25-0.049-0.10612-0.0668-0.2224-0.0508-0.34961l0.48437-1.6953c0.077-0.22432 0.20201-0.59686 0.25781-0.75586 0.3622-1.0623 1.1131-2.8271 1.8281-4.5254 0.2769-0.63051 0.4605-1.1394 0.7793-1.8242 0.3333-0.75 0.51689-1.1329 0.77539-1.6992 0.9297-2.0281 1.8932-3.9381 2.8809-5.7637 1.7112-2.9006 3.0292-4.9576 3.9844-6.2383 1.3796-1.9236 2.7378-3.7456 4.0606-5.3984 1.2411-1.5251 2.557-3.0406 3.9492-4.5488l1.75-2c0.2001-0.22009 0.29861-0.4179 0.47461-0.63281l2.9258-3.2188c0.2-0.26667 0.26592-0.48177 0.19922-0.64844-0.1-0.16667-0.29961-0.18393-0.59961-0.0508h-0.0996c-0.5667 0.23333-0.91748 0.4-1.0508 0.5-0.2424 0.14473-0.51497 0.41031-0.75977 0.56445-0.049-0.0115-0.089-0.0632-0.14062-0.0645-0.1935 3e-3 -0.37563 0.0692-0.54883 0.19922l-3.25 2.4512c-0.6258 0.49264-1.3445 1.2606-1.9922 1.8184-0.1071 0.0927-0.20109 0.13624-0.30859 0.23047-0.5912 0.53531-0.8999 0.87008-1.4375 1.3672-1.0755 0.99196-2.0811 1.7719-3.2129 2.9336l-6.7988 7c-0.075 0.084-0.17578 0.13438-0.30078 0.15039-0.1 0.0124-0.19833-0.0205-0.29883-0.0996-0.104-0.0421-0.1874-0.1254-0.25-0.25-0.02-0.0828-0.016-0.17582 0-0.27344 0.7392-1.9835 1.363-3.5033 1.8496-4.4766 0.3333-0.63333 0.69961-1.4841 1.0996-2.5508 0.2874-0.78546 0.39702-1.0572 0.57422-1.5234l0.76171-1.7988c0.3476-0.786 0.74527-1.6179 1.293-2.5859 0.2459-0.43556 0.28398-0.50652 0.67188-1.1914v-0.0568c0.6695-0.99472 1.1841-1.8772 1.5449-2.6445 0.5027-0.99309 0.96266-1.7731 1.4434-2.6543 0.8067-1.4128 1.6896-2.9958 2.3574-4.0957 1.2084-2.0764 1.3884-2.3851 2.0664-3.5488l3.7832-6.3496v-0.05043c0.9837-1.5307 1.6329-2.4474 1.9492-2.75 0.2567-0.25625 0.70816-0.85703 1.3516-1.8008h-0.0508l0.40039-0.59961c0.1288-0.15911 0.19462-0.32578 0.19922-0.5v-0.15039c0-0.0817-0.10721-0.12468-0.12891-0.19922 0.032-0.24124 0.16215-0.44249 0.0274-0.75-0.033-0.0333-0.1167-0.0508-0.25-0.0508-0.1667 0-0.28291 0.0174-0.34961 0.0508l-0.1582 0.0625c-0.015-1e-3 -0.028-0.0114-0.043-0.0117-0.2223 0-0.42191 0.0659-0.59961 0.19922l-0.0488 0.0508c-0.017 0.0175-0.0338 0.033-0.0508 0.0488-2.2421 1.7789-3.7925 3.1122-4.6504 4l-1.75 1.8008c-1.5909 1.591-2.9901 3.0406-4.1992 4.3496-2.1073 2.4411-3.9736 4.7415-5.5996 6.9004-0.6595 0.86094-1.4774 2.0102-2.4512 3.4492l-0.0352 0.0488c-0.038 0.0515-0.0779 0.10078-0.11523 0.15234-0.095 0.14529-0.12255 0.1831-0.21485 0.32422l-1.584 2.2754v0.0488c-0.628 0.87439-1.1002 1.7375-1.6914 2.6094-0.088 0.12979-0.27847 0.42282-0.35937 0.54102-1.1 1.5333-1.8829 2.7-2.3496 3.5-0.2888 0.52669-0.40518 0.69135-0.67188 1.1719-0.2536 0.42455-0.58332 0.85547-0.82812 1.2793l0.0508-0.0508-0.40039 0.75-0.0508 0.0508c-1.3383 2.287-2.2549 3.9362-2.75 4.9492l-0.15039 0.30078c-0.034 0.0648-0.0451 0.0979-0.0781 0.16211-0.2262 0.42679-0.43427 0.7332-0.67187 1.2363-0.3333 0.7-0.81592 1.7174-1.4492 3.0508-0.07 0.13926-0.36512 0.82877-0.48242 1.084-0.1397 0.30748-0.39338 0.78189-0.51758 1.0664-0.045 0.11224-0.128 0.19557-0.25 0.25-0.096 0.0504-0.21211 0.0504-0.34961 0-0.098-7e-3 -0.1815-0.0573-0.25-0.15039-0.074-0.10547-0.10661-0.22174-0.0996-0.34961l0.39648-4.873c0.021-0.27393 0.091-0.79483 0.10352-1.0273 0.01-0.0293 0.0651-1.0588 0.0781-1.2207l0.42188-5.1797v-0.0488c0.066-0.47486 0.13212-1.5427 0.19922-3.2012l0.3164-3.1621 0.83399-6.4883c0.1999-1.5489 0.36124-2.4976 0.52344-3.4473l0.47656-2.502c0.01-0.0141 0-0.0287 0-0.043 1e-3 -7e-3 0-0.0145 0-0.0215l0.0449-0.13477v0.0488l0.45117-2.207c0.2353-1.0822 0.43482-2.1381 0.69922-3.2422 0.023-0.30386 0.0473-0.49565 0.0703-0.70117 0.012-0.10278 0.0263-0.21338 0.0312-0.30078 0.068-0.39782 0.33343-0.59766 0.79883-0.59766 2.2333-0.0667 3.65-0.0841 4.25-0.0508 0.6 0.0667 1.4837 0.0996 2.6504 0.0996 1.0333 0.0333 1.8821 0.25039 2.5488 0.65039 0.2 0.13333 0.38408 0.19922 0.55078 0.19922 0.4333 0.1 0.58252-0.0163 0.44922-0.34961-0.3667-0.9-0.71553-2.1655-1.0488-3.7988-0.3667-1.8667-0.66709-3.1341-0.90039-3.8008-1.0667-3.4333-2.5337-5.9992-4.4004-7.6992-0.2325-0.23251-0.31971-0.35508-0.34961-0.43555 0.063-0.0935 0.16392-0.13313 0.19922-0.26562v0.0508c0.9113-2.917 2.0709-5.6926 3.207-8.4824 0.1304-0.29831 0.38674-0.86882 0.49414-1.1172 0.06-0.11918 0.55316-1.3766 1.252-3.1738 1.5112-3.2909 3.1792-6.4939 5.0176-9.5996 0.3766-0.58818 0.76236-1.2968 1.1309-1.7773 0.099-0.13017 0.27146-0.43154 0.38086-0.58594 1.8355-2.8858 3.7388-5.7256 5.8301-8.4355 0.1421-0.18434 0.29527-0.38079 0.44727-0.57618 2.5202-3.2228 5.2064-6.3314 8.0918-9.3027 0.1413-0.1767 0.18301-0.35096 0.22461-0.52539l0.22461-0.22461c0.2667-0.2 0.40039-0.31628 0.40039-0.34961 0.1333-0.16667 0.11622-0.35078-0.0508-0.55078-0.2526-0.25264-0.61707-0.16808-0.98437-0.0762-0.01-6e-3 -0.01-0.0171-0.0156-0.0234-0.0806-0.052-0.19619-0.0834-0.34375-0.0977zm-48.694 30.697c0.4333-0.2 0.86553-0.14961 1.2988 0.15039 0.1 0.0667 0.41787 0.36706 0.95117 0.90039 1.5 1.5333 2.5833 3.4171 3.25 5.6504 0.1 0.26667 0.05 0.41589-0.15039 0.44922-0.2333-0.0333-0.4-0.0488-0.5-0.0488l-0.70117-0.20117c-1-0.43333-1.7325-0.79961-2.1992-1.0996-0.8333-0.46667-1.4341-1.0326-1.8008-1.6992-0.3-0.5-0.49961-0.86823-0.59961-1.1016-0.2333-0.46667-0.29922-0.89883-0.19922-1.2988-0.1333-0.93333 0.084-1.5012 0.65039-1.7012zm-8.8008 1.4512c0.3333 0.0333 0.55039 0.18255 0.65039 0.44922 0.033 0.13333 0.0488 0.41628 0.0488 0.84961 0.033 0.53333-0.083 1.1012-0.34961 1.7012-0.1667 0.36667-0.43213 0.89961-0.79883 1.5996-0.3333 0.63333-0.85078 1.4337-1.5508 2.4004-0.9 1.1333-1.4659 1.8988-1.6992 2.2988-0.1667 0.23333-0.28486 0.35156-0.35156 0.35156-0.2 0-0.33174-0.11823-0.39844-0.35156-0.3-0.56667-0.45117-1.2333-0.45117-2 0-0.36667 0.05-1.0333 0.15039-2 0.2333-1.4667 0.9833-2.8155 2.25-4.0488 0.8333-0.83333 1.6667-1.25 2.5-1.25zm14.9 6.6992c2 2.1333 3 4.9337 3 8.4004 0 0.66667-0.15117 1.1008-0.45117 1.3008-0.2333 0.13333-0.43291 0.0984-0.59961-0.10156-0.1333-0.3-0.24961-0.49961-0.34961-0.59961-0.9667-1.1667-1.5325-2.5833-1.6992-4.25-0.1333-1.0333-0.10069-2.6167 0.0996-4.75zm-7.9004 0.30078c0.4-0.1 0.75078-0.0496 1.0508 0.15039 0.3333 0.23333 0.48252 0.51628 0.44922 0.84961 0 1.0667-0.30039 2.2004-0.90039 3.4004-0.8 1.3667-1.3833 2.3822-1.75 3.0488l-1.1504 2.1504-0.29883 0.30078c-0.2667-0.36667-0.41787-0.65156-0.45117-0.85156-0.2333-1.7-0.24883-3.45-0.0488-5.25 0.1333-0.9 0.48213-1.6984 1.0488-2.3984 0.5667-0.73333 1.2508-1.2004 2.0508-1.4004zm16.5 4c1.0667-0.16667 2.1325-0.0678 3.1992 0.29883 0.7333 0.2 1.6849 0.63411 2.8516 1.3008 1.6 0.86667 2.9333 2.0992 4 3.6992 0.8667 1.2333 1.6496 2.8516 2.3496 4.8516 0.2667 0.73333 0.58252 1.9988 0.94922 3.7988-2.5-3.5-5.3333-5.9322-8.5-7.2988-2.5-1.0667-5.0329-1.7508-7.5996-2.0508-0.8 0.16667-1.3659 0.18393-1.6992 0.0508-0.2667-0.13333-0.36748-0.33489-0.30078-0.60156 0.1333-0.3 0.2167-0.49961 0.25-0.59961 0.7667-1.9667 2.2667-3.1159 4.5-3.4492zm-27.449 0.40039c1.2333 1.6 2.0492 3.6 2.4492 6 0.2667 2.1333-0.2333 4.0984-1.5 5.8984-0.1667 0.23333-0.28291 0.21757-0.34961-0.0488-0.8-1.5-1.3-2.7674-1.5-3.8008-0.4667-2.1-0.40078-4.133 0.19922-6.0996zm18.6 2.8985 0.15039 0.40039c0.2333 0.3 0.53174 0.74961 0.89844 1.3496 0.3333 0.5 0.73447 0.86823 1.2012 1.1016 0.1 0.0333 0.11553 0.13216 0.0488 0.29883-0.067 0.1-0.15 0.23372-0.25 0.40039-0.3 0.9-0.56553 1.6829-0.79883 2.3496-0.033 0.36667 0.11592 1.3996 0.44922 3.0996-0.3333-0.2-1.2655-0.49844-2.7988-0.89844-0.3333-0.1-0.53486-0.6349-0.60156-1.6016-0.2-1.9667 0.20117-3.9822 1.2012-6.0488 0.067-0.13333 0.2333-0.2845 0.5-0.45117zm4.5488 2c1.4667 0.13333 2.5675 0.26706 3.3008 0.40039 2.5667 0.53333 4.9175 1.3667 7.0508 2.5 1.6333 0.86667 3.1159 2.0178 4.4492 3.4512 0.1 0.16667 0.13261 0.29844 0.0996 0.39844-2.9333-2.2333-5.6659-3.7159-8.1992-4.4492-1.4333-0.4-3.5845-0.83412-6.4512-1.3008-0.2-0.0667-0.38213-0.0667-0.54883 0-0.4667 0.16667-0.76709 0.20156-0.90039 0.10156-0.067-0.0667-0.016-0.23333 0.15039-0.5 0.3333-0.43333 0.68213-0.63489 1.0488-0.60156zm-13.449 0.30078c0.067-0.16667 0.26631-0.0174 0.59961 0.44922 1.4667 1.6667 2.3175 3.6182 2.5508 5.8516-0.033 0.26667-0.23291 0.51667-0.59961 0.75-0.5667 0.3-0.88447 0.48216-0.95117 0.54883-0.1 0.1-0.19883 0.0671-0.29883-0.0996-0.1667-0.23333-0.28486-0.36706-0.35156-0.40039-0.7667-0.3-1.1-0.85039-1-1.6504 0.1667-1.1 0.20156-1.7492 0.10156-1.9492-0.3-0.73333-0.53447-1.2333-0.70117-1.5-0.3-0.4-0.31553-0.78372-0.0488-1.1504 0.1333-0.2 0.36592-0.48294 0.69922-0.84961zm-16.262 0.70703c1.2673 0.0387 2.3866 0.45116 3.3125 1.3438 0.037 0.0287 0.14363 0.0616 0.20313 0.0918 0.7763 0.69004 1.3975 1.4744 1.6953 2.457 0.1667 0.46667 0.017 0.68372-0.44922 0.65039-2.9-0.2-6.0492 0.83294-9.4492 3.0996-2.5667 1.7-4.5841 3.6496-6.0508 5.8496l-1.25 2.0508-0.15039 0.19922c-0.067-0.16667-0.0996-0.2655-0.0996-0.29883 0.6-2.5667 1.2841-4.6829 2.0508-6.3496 1.0667-2.3333 2.2992-4.25 3.6992-5.75 1.2908-1.3569 2.6481-2.3624 4.0703-3.0293 0.014-7e-3 0.0261-0.0163 0.0391-0.0234 0.64799-0.28959 1.4481-0.37813 2.3789-0.29102zm28.662 0.74215c0.4 0.0333 0.65 0.0333 0.75 0 3.5666 0.4 6.5337 1.1016 8.9004 2.1016 1.3666 0.6 2.95 1.5322 4.75 2.7988 1.0333 0.7 2.2 1.8163 3.5 3.3496 0.2667 0.16667 0.41592 0.28489 0.44922 0.35156 0.067 0.13333 0.13252 0.39883 0.19922 0.79883-0.5667 0-0.9-0.0155-1-0.0488-0.4-0.13333-0.91553-0.20117-1.5488-0.20117-0.7 0.0333-1.2175 0.0333-1.5508 0-2.1 0.0333-3.6659 0.0333-4.6992 0-1.8667 0-3.4345-0.16667-4.7012-0.5-1.7-0.4-3.4655-1.4-5.2988-3-0.6333-0.56667-0.98408-1.4504-1.0508-2.6504-0.067-1.2 0.1833-2.1322 0.75-2.7988 0.1-0.16667 0.28408-0.2345 0.55078-0.20117zm-13.801 0.45117c0.4667 0.66667 0.73408 1.7326 0.80078 3.1992 0.033 0.56667-0.083 0.86706-0.34961 0.90039-0.1333 0.0333-0.41826-0.0326-0.85156-0.19922-0.5667-0.19966-0.79922-0.55074-0.69922-1.0507 0.2-0.53333 0.31631-0.93255 0.34961-1.1992 0.033-0.23333 0.13408-0.51823 0.30078-0.85156 0.1-0.2 0.24922-0.4655 0.44922-0.79883zm-10.875 4.0625c0.85 0.025 1.3917 0.32005 1.625 0.88672-4 0.13333-7.8838 1.3678-11.65 3.7012 1.5333-1.6 3.7175-2.8849 6.5508-3.8516 1.4667-0.51667 2.6246-0.76133 3.4746-0.73633zm8.2754 0.4375c1.2 0.13333 2.1341 0.26706 2.8008 0.40039 0.7333 0.2 1.3167 0.63216 1.75 1.2988 0.2333 0.4 0.49883 1.0337 0.79883 1.9004 0.5667 1.3667 1.0337 3.3163 1.4004 5.8496 0.1 0.8 0.20078 2.0171 0.30078 3.6504 0.1 0.6 0.13261 1.5341 0.0996 2.8008-0.033 1.2 0.017 2.1167 0.15039 2.75 0.067 0.36667 0.0996 0.83177 0.0996 1.3984 0 0.33333-0.0178 0.80039-0.0508 1.4004l-0.0488 0.20117-0.20117-0.10156-5.5996-4.6484c-0.8056-0.63598-1.5782-1.4656-2.3418-2.3535-1.3461-1.6371-2.4831-3.1496-3.0078-4.2969-0.01-0.0128-0.0243-7e-3 -0.0293-0.0195-0.2235-0.39381-0.44847-0.89297-0.67187-1.5312-0.2667-0.7-0.4333-1.1322-0.5-1.2988-0.3333-1.6333-0.048-3.3833 0.85156-5.25 0.2333-0.53333 0.8167-1.0333 1.75-1.5 0.9333-0.46666 1.7492-0.68372 2.4492-0.65039zm12.449 0.54883c2.2667 0.53333 3.7183 1.5178 4.3516 2.9512 0.2458 0.54072 0.39754 1.3441 0.55274 2.1387 0.09 0.49256 0.11789 0.96888 0.0918 1.4316-0.033 0.65999-0.12446 1.3246-0.31836 1.998-0.1322 0.46004-0.2753 0.9019-0.4375 1.3144-0.2078 0.49119-0.37776 0.90251-0.78906 1.8164-0.8667 1.8333-2.1845 3.6841-3.9512 5.5508-0.3 0.36667-1.3329 1.3822-3.0996 3.0488l-0.19922 0.15039c-0.067-0.1-0.0838-0.18333-0.0508-0.25 0.3667-1.2 0.6167-3.0488 0.75-5.5488 0.1333-3.3667 0.017-6.0333-0.34961-8-0.3333-1.8667-0.86631-3.4345-1.5996-4.7012l-0.95117-0.94922c0.3667-0.16667 0.91709-0.43411 1.6504-0.80078 1.4-0.46667 2.8496-0.51706 4.3496-0.15039zm-18.699 0.60156c0.3 0.0333 0.53252 0.18255 0.69922 0.44922 0.2 0.26667 0.25039 0.58255 0.15039 0.94922-0.8667 2.5667-0.84962 4.8167 0.0508 6.75 0.1649 0.32973 0.032 0.54826-0.16601 0.74219-0.3363 0.16369-0.59407 0.33005-0.78907 0.49804-0.1195 0.0516-0.09 0.0457-0.24609 0.11133-0.1143 0.0511-0.24553 0.0529-0.36133 0.0996h-0.0371c-0.219 0.0249-0.51939 0.1082-0.90039 0.25 7e-4 0.01-0.0168 0.01-0.0508 0l-0.0312 0.0312c-0.021 6e-3 -0.0435 0.0116-0.0644 0.0176-0.7425 0.23507-1.5916 0.32471-2.4531 0.39648-0.7509 0.0279-1.4959 0.0729-2.2969-0.0449-2.2-0.26667-3.8337-0.38489-4.9004-0.35156-1.3667-0.0333-2.3996-0.0333-3.0996 0-1.2 0.0667-2.2 0.31667-3 0.75-0.2667 0.0333-0.48369 0.0682-0.65039 0.10156 2.0667-3.3333 4.5008-5.8333 7.3008-7.5 1.3-0.76666 2.5829-1.4004 3.8496-1.9004 1.6667-0.66667 3.1337-1.0174 4.4004-1.0508 0.2667 0 0.69883-0.0504 1.2988-0.15039 0.56502-0.0997 0.99698-0.14815 1.2969-0.14844zm12.15 0.75c0.033 0.0333 0.0656 0.0818 0.0996 0.14844 0.9333 1.0667 1.5825 2.3845 1.9492 3.9512l0.5 2.4492c0.2 1.8667 0.21708 4.1012 0.0508 6.7012l-0.15039 3-0.15039 0.29883c-0.1333-0.26667-0.19922-0.44883-0.19922-0.54883 0.067-1.7667 0.0492-3.0845-0.0508-3.9512-0.2-2.4333-0.33174-3.9333-0.39844-4.5-0.2-1.6667-0.50039-3.1337-0.90039-4.4004-0.5333-1.6-0.8667-2.5167-1-2.75-0.067-0.0667-0.016-0.18294 0.15039-0.34961 0.033-0.0667 0.0656-0.0822 0.0996-0.0488zm-22.201 10.1c1.0333 0.13333 1.8183 0.18372 2.3516 0.15039 0.8-0.0667 1.3988 0.1155 1.7988 0.54883 0.073 0.0824 0.13633 0.34403 0.20703 0.4668 0.9148 2.7019 1.53 4.7335 1.8438 6.084l0.0488 0.0488 1.75 7.6504c0.3004 1.4077 0.5504 2.8747 0.75 4.4004l1.4219 9.1035 0.0547 0.57812c-0.01 0.0991-0.0122 0.19702-0.0762 0.26758-0.049 0.11732-0.1321 0.18516-0.25 0.20117-0.1187 0.0513-0.23501 0.0513-0.34961 0-0.1125-0.0437-0.1958-0.12707-0.25-0.25l-4.3496-8.8496c-0.2001-0.40451-0.47349-0.84474-0.68359-1.2539-0.3631-0.71413-0.9289-1.914-1.2168-2.4473-0.1389-0.25695-0.86912-1.4026-1.1035-1.8027-0.301-0.52498-0.5295-1.0148-0.8457-1.5469-0.4446-0.74805-1.0267-1.532-1.5059-2.2891-0.7315-1.1784-0.8476-1.4334-1.8457-3.0117-0.253-0.40483-0.58826-0.69733-0.85156-1.0879-0.2863-0.40908-0.50098-0.79932-0.79688-1.2109v-0.0508c-0.2144-0.3028-0.83945-0.82981-1.0938-1.1543-0.7758-0.97198-1.454-2.0775-2.3066-2.9453l-0.59961-0.65039c0.3333-0.13333 0.86631-0.35039 1.5996-0.65039 2.4333-0.4 4.5322-0.49883 6.2988-0.29883zm17.561 6.1036c0.256 0.0964 0.40685 0.16269 0.43945 0.19531l4.1504 3.3516c0.2333 0.16667 0.30117 0.33333 0.20117 0.5-0.3 0.7-0.60039 1.5818-0.90039 2.6484-0.1667 0.6-0.40117 1.5012-0.70117 2.7012l-0.54883 2.75c-0.019-0.0907-0.0269-0.11083-0.0449-0.19922-0.054-0.28836-0.23766-1.3202-0.25586-1.4004l-0.25-1.2012c-0.425-2.2562-0.8417-4.1555-1.25-5.6992zm5.541 4.4453c0.1667 0.0667 0.3333 0.21784 0.5 0.45117 0.1667 0.26667 0.23252 0.48372 0.19922 0.65039 0 0.23333-0.18408 1.2818-0.55078 3.1484l-0.59961 3.6504c-0.3621 2.1394-0.64034 5.4932-0.83984 9.9727-0.1565-1.1071-0.20119-1.6385-0.45899-3.2715l-0.31055-2.0488c-0.2928-1.731-0.37985-3.0774-0.18945-3.9023 0.4333-1.4667 0.7667-2.8504 1-4.1504 0.4667-1.6333 0.8-2.8659 1-3.6992 0-0.0333 0.0148-0.21745 0.0488-0.55078 0.033-0.2 0.10117-0.28333 0.20117-0.25z"/>
 <g transform="translate(-555.75 -186.3)">
  <path transform="translate(160.15,84.1)" d="m400.6 102.2c-3.3333 0-5 1.6667-5 5v158.2c0 3.3333 1.6667 5 5 5h93.199c3.3333 0 5-1.6667 5-5v-158.2c0-3.3333-1.6667-5-5-5zm8.3008 7.1992h76.6c4.6667 0 7 2.3333 7 7v139.8c0 4.6667-2.3333 7-7 7h-76.6c-4.6667 0-7-2.3333-7-7v-139.8c0-4.6667 2.3333-7 7-7z" fill="#ef1d1e"/>
  <path transform="translate(160.15,84.1)" d="m408.9 109.4c-4.6667 0-7 2.3333-7 7v139.8c0 4.6667 2.3333 7 7 7h76.6c4.6667 0 7-2.3333 7-7v-139.8c0-4.6667-2.3333-7-7-7z" fill="none" stroke="#000" stroke-width="1.2"/>
 </g>
</svg>
