<svg width="103.2" height="168.2" preserveAspectRatio="none" version="1.1" viewBox="0 0 103.2 168.2" xmlns="http://www.w3.org/2000/svg">
 <path d="m13.301 7.1992c-4.6667 0-7 2.3333-7 7v139.8c0 4.6667 2.3333 7 7 7h76.6c4.6667 0 7-2.3333 7-7v-139.8c0-4.6667-2.3333-7-7-7z" fill="#fff"/>
 <path d="m87.951 61.099c-0.79987-0.29727-1.7332-0.44727-2.8-0.45-2.6132-7e-3 -4.5798 0.97647-5.9 2.95-0.7944 1.1983-1.0444 2.1816-0.75 2.95 0.12604 0.26992 0.29271 0.46992 0.5 0.6 0.11198 0.0861 0.17865 0.18607 0.2 0.3 0.0535 0.1 0.0535 0.2 0 0.3-0.0208 0.1138-0.0875 0.19713-0.2 0.25-0.0747 0.0773-0.17474 0.11068-0.3 0.1l-0.7-0.05c-0.69219 4e-3 -1.2588 0.22067-1.7 0.65-1.0905 1.1297-1.7738 2.463-2.05 4-0.0276 0.12344-0.0943 0.22344-0.2 0.3-0.10391 0.0772-0.22057 0.11055-0.35 0.1l-0.6-0.05-0.55 0.05h-0.05c-0.67761 0.14661-1.1943 0.24661-1.55 0.3-0.17201 0.0381-0.30534 0.0548-0.4 0.05-0.0798 0.0235-0.14649 0.0235-0.2 0-0.39466-0.0387-0.54466-0.20533-0.45-0.5 3e-3 -0.0414 3e-3 -0.0914 0-0.15 0.0147-0.24792-0.4186-0.58125-1.3-1l-0.05-0.05c-0.0257 9e-3 -0.059 9e-3 -0.1 0-1.5048-0.76185-2.9382-1.1452-4.3-1.15h-0.8c-0.0901 0-0.17344-0.0333-0.25-0.1-0.0858-0.0329-0.15247-0.0996-0.2-0.2l-0.05-0.1c-0.0116-0.0163-0.0283-0.0496-0.05-0.1-0.27448-1.0462-1.0412-2.2296-2.3-3.55-0.0173-0.0169-0.034-0.0336-0.05-0.05l-0.35-0.45c-0.59831-0.58151-1.165-0.88151-1.7-0.9-0.11198 3e-3 -0.21198-0.0307-0.3-0.1-0.0906-0.0717-0.15729-0.17175-0.2-0.3-0.013-0.0951 4e-3 -0.19505 0.05-0.3 0.0482-0.11015 0.11487-0.19349 0.2-0.25l0.15-0.05 0.05-0.05c0.44857-0.36393 0.64857-0.86393 0.6-1.5v-0.05c-0.0393-0.41693-0.22267-0.91693-0.55-1.5-1.4322-2.5835-3.5488-4.0501-6.35-4.4l-0.65-0.05c-0.47825 0.0112-0.86159 0.1612-1.15 0.45-0.27331 0.37409-0.35664 0.84075-0.25 1.4l1 7.55c0.0439 0.35377 0.16053 0.62044 0.35 0.8l0.05 0.05c0.20456 0.20221 0.45456 0.30221 0.75 0.3 0.15261-1.3e-4 0.28594-0.0335 0.4-0.1 0.12903-0.0505 0.2457-0.0672 0.35-0.05 0.1319 0.0401 0.2319 0.1068 0.3 0.2 0.0741 0.10534 0.10742 0.22201 0.1 0.35-0.0119 0.11758-0.0619 0.21758-0.15 0.3l-0.8 0.8c-0.0294 0.0383-0.0627 0.0716-0.1 0.1-0.5082 0.28477-0.69153 0.73477-0.55 1.35l0.05 0.05 0.45 2.25c0.25899 1.5077 0.50899 2.6244 0.75 3.35 0.0343 0.0737 0.0509 0.14037 0.05 0.2v0.3c6.7e-4 0.60365 0.084 1.0703 0.25 1.4h-0.05c0.39544 0.67149 1.0121 1.0048 1.85 1h0.15l0.35 0.05 0.05-0.05c0.0915-0.0134 0.17487-0.0134 0.25 0 0.11575 0.0415 0.19909 0.0915 0.25 0.15 0.0858 0.0969 0.13581 0.19687 0.15 0.3 0.29063 2.5694 1.4073 5.0027 3.35 7.3l5.15 6.05c0.18255 0.19049 0.41589 0.30716 0.7 0.35 0.11133 0.0163 0.19466 0.0496 0.25 0.1 0.0904 0.0853 0.14037 0.16862 0.15 0.25 0.091 0.24362 0.25768 0.42695 0.5 0.55h-0.05c0.12578 0.0556 0.24245 0.0889 0.35 0.1l0.35-0.05h-0.05c0.31367-0.0718 0.53034-0.17175 0.65-0.3 0.0899-0.10951 0.43985-0.37617 1.05-0.8l7.2-4.95v-0.05c1.568-1.0219 2.7013-2.2885 3.4-3.8 0.20911-0.48333 0.34245-0.96667 0.4-1.45 0.0101-0.0924 0.0435-0.17578 0.1-0.25 0.0603-0.0786 0.12693-0.14531 0.2-0.2 0.10638-0.0168 0.20638-0.0168 0.3 0 0.68529 0.13242 1.452 0.23242 2.3 0.3h0.05c0.1457 0.0301 0.37903 0.0467 0.7 0.05 1.3356-4e-3 2.7689-0.17067 4.3-0.5 1.0036-0.15963 2.4536-0.4763 4.35-0.95l2.65-0.65c1.952-0.46302 3.3353-0.72969 4.15-0.8h0.15c0.0637-0.0245 0.11367-0.0411 0.15-0.05 0.33333-0.041 0.56667-0.191 0.7-0.45 0.1543-0.2418 0.17097-0.4918 0.05-0.75-0.0343-0.0543-0.0509-0.12093-0.05-0.2-0.0208-0.0851-0.0875-0.18515-0.2-0.3l-0.55-0.55c-0.0936-0.0897-0.14362-0.20638-0.15-0.35-3e-3 -0.11497 0.03-0.23164 0.1-0.35 0.27982-0.29518 0.34649-0.62851 0.2-1l-0.7-1.85 0.05 0.05c-1.4516-3.3137-2.9349-5.9137-4.45-7.8-1.8012-2.281-3.8345-3.8476-6.1-4.7m-16.65-5.5c-0.33477-0.29831-0.73477-0.44831-1.2-0.45-0.35534 1e-3 -0.70534 0.0847-1.05 0.25-0.71406 0.35039-1.2474 0.86706-1.6 1.55-0.18112 0.41224-0.34779 1.0122-0.5 1.8l-0.2 1.15v0.05c0.20195 1.4698 0.61862 2.9531 1.25 4.45v-0.05l0.15 0.3h-0.05c0.15833 0.24453 0.34167 0.4112 0.55 0.5l0.4 0.05c0.15925-5e-3 0.30925-0.0553 0.45-0.15 0.30313-0.17383 0.48646-0.37383 0.55-0.6v-0.05l0.5-1.35h0.05c0.51992-1.268 0.85325-2.2513 1-2.95 0.29792-1.09 0.39792-2.1566 0.3-3.2-0.0519-0.51419-0.25193-0.94753-0.6-1.3m-4.45-5.6h-0.05c-0.0496 0.0335-0.0996 0.0501-0.15 0.05-0.24713 4e-3 -0.53047 0.054-0.85 0.15h0.05c-1.7082 0.79101-3.1415 2.3077-4.3 4.55-0.0116 0.0906-0.0449 0.15729-0.1 0.2-0.35651 0.5612-0.45651 1.0279-0.3 1.4 0.20273 0.40182 0.5194 0.60182 0.95 0.6 0.26315 3e-3 0.51315-0.0473 0.75-0.15 0.0169-0.01 0.0336-0.0264 0.05-0.05 2.4756-0.71445 4.3256-2.1811 5.55-4.4 0.40638-0.67578 0.47305-1.2591 0.2-1.75-0.27123-0.39896-0.73789-0.59896-1.4-0.6h-0.4m11.45-0.75-0.05-0.05c-0.48307-0.36055-0.99974-0.54388-1.55-0.55-0.74141 9e-3 -1.3747 0.35873-1.9 1.05-0.61979 0.79583-0.88646 1.8125-0.8 3.05v0.05c7e-3 1.046 0.25667 2.696 0.75 4.95l-0.05-0.05 0.6 2.55 0.05 0.15c0.0937 0.24883 0.27708 0.41549 0.55 0.5 0.0515 0.0289 0.0849 0.0456 0.1 0.05 0.0573 0.0303 0.12393 0.047 0.2 0.05 0.19597-3e-3 0.34597-0.0367 0.45-0.1 0.0703-0.0733 0.15365-0.12331 0.25-0.15 0.17344-0.0542 0.32344-0.2042 0.45-0.45 0.95612-1.376 1.5894-2.5094 1.9-3.4v0.05c0.80873-2.3944 0.89206-4.3944 0.25-6-0.29974-0.71081-0.69974-1.2775-1.2-1.7" fill="#1ca4da"/>
 <path d="m61.701 55.699c-0.27031 0.0336-0.50482 0.18282-0.70117 0.44922-6e-3 0.0437-0.0215 0.0786-0.0488 0.10156-0.84127 1.4197-1.4246 2.4856-1.75 3.1992-0.54063 1.2148-0.87396 2.3815-1 3.5-0.0111 0.0922-0.044 0.17552-0.0996 0.25-0.0521 0.0772-0.1199 0.1276-0.20117 0.15039h-0.0488c0.0842 0.72825 0.18308 1.2941 0.29883 1.6992v-0.0488l0.5 1.2988v0.0508c0.0309 0.0395 0.0483 0.0724 0.0508 0.0996 0.0625 0.0405 0.11286 0.0734 0.15039 0.0996h0.0996c0.0785 0 0.1444 0.0175 0.19922 0.0508 0.0856 0.0373 0.15338 0.0877 0.20117 0.15039 0.23893 0.29961 0.43854 0.51471 0.59961 0.64844 0.70208 0.58724 1.2525 1.3721 1.6504 2.3516 0.01 0.0327 0.01 0.0482 0 0.0488 0.21432 0.35951 0.49726 0.54362 0.84961 0.55078h0.0996c0.21862-0.0389 0.38529-0.10677 0.5-0.20117 0.0905-0.0893 0.19127-0.13776 0.30078-0.14844 0.13698-9e-3 0.25326 0.0242 0.34961 0.0996 0.10339 0.0767 0.16927 0.17552 0.19922 0.29883l0.15039 0.65039c0.29349 0.40013 0.77604 0.59974 1.4492 0.59961h0.10156c0.4625-9e-3 0.89466 0.14257 1.2988 0.45117 0.19701 0.13177 0.39662 0.19766 0.59961 0.19922h0.10156c0.12135 1e-3 0.22018 0.0343 0.29883 0.0996 0.41953-0.0375 0.86914-0.0704 1.3496-0.0996 0.18958-0.0242 0.40664-0.0571 0.65039-0.0996l0.34961-1.0508v-0.0488c0.33034-0.76354 0.51445-1.498 0.55078-2.2012v-0.39844c2e-3 -0.62864-0.0988-1.3302-0.30078-2.1016l-0.25-1.0488c8e-3 -2.6e-4 8e-3 -0.0177 0-0.0508-0.0642-0.45495-0.3297-0.70495-0.79883-0.75h-0.0508c-0.43281 2e-3 -0.7332 0.20161-0.90039 0.59961l-0.25 0.85156c-0.0131 0.10325-0.0616 0.18659-0.14844 0.25-0.0893 0.0665-0.1901 0.0995-0.30078 0.0996h-0.19922c-0.23646 5e-3 -0.47096 0.0712-0.70117 0.19922-0.75794 0.45391-1.5738 1.3047-2.4492 2.5508 0.013 0.0231 0.013 0.0386 0 0.0488l-0.0508 0.10156c-0.0268 0.0633-0.0597 0.11171-0.0996 0.14844l-0.0508 0.0508c-0.069 0.0776-0.15235 0.128-0.25 0.15039-0.10403 0.0146-0.20286-3e-3 -0.29883-0.0508-0.0958-0.0432-0.17917-0.10909-0.25-0.19922-0.0391-0.0935-0.0565-0.19427-0.0508-0.30078 0.16276-2.0112-0.15313-3.8949-0.94922-5.6504v0.05079l-0.25-0.40039c-0.0257-0.053-0.0431-0.11889-0.0508-0.19922-0.01-0.0772-0.01-0.16055 0-0.25 0.71719-1.7777 0.9013-3.8281 0.55078-6.1504-0.062-0.40482-0.312-0.63737-0.75-0.69922zm14.25 5c-0.2237 0.0259-0.44076 0.14221-0.65039 0.34961l-0.0996 0.0996c-0.23177 0.23164-0.41589 0.4487-0.55078 0.65039l0.0508-0.0488c-0.70469 1.4237-1.1214 3.007-1.25 4.75 6.7e-4 0.53815 0.0162 1.1699 0.0488 1.8984 0.0333 0.78372 0.0837 1.6674 0.15039 2.6504 0.0359 0.25182 0.15221 0.48632 0.34961 0.70117 0.23503 0.18802 0.46953 0.28685 0.70117 0.29883 0.39427 8e-3 0.67722-0.1582 0.84961-0.5 0.016-9e-3 0.0335-0.0244 0.0508-0.0488 0.13646-0.19453 0.26823-0.41159 0.39844-0.65039 0.0756-0.97969 0.12604-1.5475 0.15039-1.7012 0.047-0.11485 0.18072-0.54701 0.40039-1.2988l0.15039-6.8496c-0.11029-0.10209-0.26146-0.18542-0.45117-0.25zm-53.1 22.699c-0.79153-3e-3 -1.3594 0.33067-1.7012 1-0.43008 0.82968-0.64714 1.9305-0.65039 3.3008-0.0258 1.052 0.15831 2.4512 0.55078 4.1992 0.013 0.0837-4e-3 0.16706-0.0508 0.25-7e-3 0.0773-0.0399 0.14518-0.0996 0.20117-0.16953 0.17318-0.26836 0.27201-0.29883 0.29883-0.0268 0.0633-0.0617 0.11366-0.10156 0.15039l-0.14843 0.15042c-0.37969 0.66914-0.59674 1.0529-0.65039 1.1504-0.55273 2.178-0.50234 4.2284 0.15039 6.1504 0.62487 1.6734 1.6074 2.5223 2.9492 2.5488l0.5-0.0488c0.63437-0.11823 1.1518-0.43606 1.5508-0.95117 0.45261-0.51927 0.73555-1.2014 0.84961-2.0488 0.28649-2.1559 0.052-4.2009-0.69727-6.1348l-0.20312-0.36527c-0.0262-0.0703-0.0436-0.15365-0.0508-0.25-1e-3 -0.0619 0.0161-0.1297 0.0508-0.20117 0.72331-1.5782 1.0896-3.3108 1.0996-5.1992l-0.19922-1.0996c-0.2319-1.0492-0.56523-1.7992-1-2.25v-0.0508c-0.4832-0.53672-1.0995-0.80417-1.8496-0.80078zm2.1523 10.217 0.0469 0.084-0.0508-0.0996c2e-3 5e-3 2e-3 0.0106 4e-3 0.0156zm48.396-5.0156c-0.44323 0.0123-0.87539 0.22933-1.2988 0.65039-0.0375 0.0392-0.0879 0.0721-0.15039 0.0996l-0.90039 0.44922-0.0508 0.0508c-0.72461 0.59362-1.0734 1.2428-1.0488 1.9492 0.19557 2.1585 0.44557 3.7592 0.75 4.8008 0.0489 0.10013 0.0489 0.19896 0 0.29883-0.016 0.10195-0.0664 0.18529-0.15039 0.25-0.29974 0.22344-0.49935 0.47344-0.59961 0.75h0.0488l-0.25 1.1016h-0.0488c-0.32422 1.3319-0.4405 2.3474-0.34961 3.0488v0.0508l0.0488 0.44922c0.0601 0.72044 0.17641 1.2534 0.34961 1.5996v0.0508c0.24727 0.55287 0.66393 0.93659 1.25 1.1504l0.40039 0.0488c0.43672-3e-3 0.73711-0.0188 0.90039-0.0488h-0.0508c0.22435-0.0409 0.4414-0.14165 0.65039-0.30078 0.0152-0.0181 0.0326-0.0336 0.0508-0.0488 0.82891-0.59765 1.5615-1.6655 2.1992-3.2012l0.5-1.4492 0.0508-0.30078c6e-3 -0.0171 6e-3 -0.05 0-0.0996 0.10547-0.25977 0.0376-0.50977-0.20117-0.75-0.0811-0.0768-0.12956-0.1776-0.14844-0.30078-0.0177-0.0885-2e-3 -0.18737 0.0488-0.29883 0.2013-0.35261 0.31758-0.73633 0.34961-1.1504 0.29518-2.8703 0.0122-5.3529-0.84961-7.4492l-0.0488-0.10156c-0.36758-0.83373-0.85208-1.2659-1.4512-1.2988z" fill="#faea01"/>
 <path d="m23.9 36.049c-0.33333 0-0.59883 0.11628-0.79883 0.34961-0.23333 0.23333-0.33411 0.51823-0.30078 0.85156v0.0488l2.8496 27.551c0.2 2.1 0.39961 3.6659 0.59961 4.6992 0.33333 1.8333 0.80039 4.1337 1.4004 6.9004l0.34961 1.6992c0.2 0.93333 0.63411 2.7337 1.3008 5.4004l2.1992 8v-0.0488c0.16667 0.66667 0.46706 1.6822 0.90039 3.0488l1 2.8008c0.7 1.9 1.1671 3.2488 1.4004 4.0488v0.0508c0.3 1.2 0.73412 2.5508 1.3008 4.0508 0.46667 1.2667 1.0151 2.633 1.6484 4.0996 1.8 4.1667 3.4667 7.5 5 10l1.25 2.2988v0.0508c0.7 1.3667 1.2349 2.3163 1.6016 2.8496h0.0488c0.43333 0.7 1.1504 1.7174 2.1504 3.0508v0.0488c1.6 2.3333 2.5496 3.7345 2.8496 4.2012 0.76667 1.3333 1.85 2 3.25 2h0.0508l20.199-2.0508h0.5l0.4004 0.0508c0.6 0 1.1174-0.16667 1.5508-0.5 0.36667-0.36667 0.38234-0.85117 0.0488-1.4512h0.0508l-0.8496-1.1992v-0.0508l-8.9512-15.049c-1.3-2.2667-2.1663-3.9004-2.5996-4.9004-0.0333 0-0.0508-0.0174-0.0508-0.0508-0.13333-0.23333-0.59844-1.2488-1.3984-3.0488-0.53333-1.1333-1.2-2.5829-2-4.3496l-2.3008-5.9004c-0.56667-1.4-1.2004-3.6171-1.9004-6.6504l-3.0996-12.9-0.0508-0.0488-1.6484-8.6504c-0.56666-3.3667-0.98333-6.0663-1.25-8.0996v-0.05081c-0.16653-1.3333-0.35076-3.4496-0.55076-6.3496l-0.19922-4c-0.0667-1.8333-0.15-3.1841-0.25-4.0508-0.13333-1.3667-0.20117-3.1167-0.20117-5.25v-0.25c0.0667-0.83333-0.0825-1.4496-0.44922-1.8496-0.33333-0.33333-0.76745-0.5-1.3008-0.5l-1.0488 0.0996h-0.05078l-7.5508-0.44922c-3.1-0.1-4.6659-0.15039-4.6992-0.15039l-8.75-0.19921-0.34961-0.05078h-0.30078l-0.0488-0.0508z" fill="#ef1d1e"/>
 <path d="m23.451 35.699c-0.2667 0-0.40039 0.14922-0.40039 0.44922v1.4004c-0.033 1.4333 0.083 3.6504 0.34961 6.6504 0.1333 1.5333 0.3 3.8667 0.5 7l1.25 12.4c0.2135 2.3184 0.53512 4.315 0.91601 6.1309l-1.1152-1.082c-2.1445-2.044-3.5457-3.327-4.2012-3.8496l-0.0488-0.0488-5.8008-4.8008-0.0488-0.0508c-0.9304-0.6987-1.9982-1.4138-3.2012-2.1484h-0.0488l-4.0508-2.5-0.0508-0.0508c-0.1081-0.0325-0.23984-0.05-0.39844-0.0508-0.064 2.2e-4 -0.098 0.0663-0.15625 0.0781-0.6619-0.3497-1.2593-0.74586-1.9453-1.0781-0.067-0.0333-0.4833-0.0488-1.25-0.0488v0.0488c0.1667 0.43333 0.28486 0.66784 0.35156 0.70117 1.2895 0.88322 2.0817 1.7153 3.0996 2.5703 3.7917 3.542 7.5281 7.8233 11.199 12.979 2.3398 3.2793 5.5395 8.3143 9.5996 15.102v-0.05073l1.1504 1.8496v0.0508c0.014 0.0209 0.0446 0.012 0.0606 0.0312 0.3209 0.6623 0.65215 1.3433 1.1894 2.418 0.5667 1.2 0.96787 2.2833 1.2012 3.25 0.1667 0.7 0.73252 2.5333 1.6992 5.5l1.9492 5.7012c0.3333 0.86667 0.86826 2.1826 1.6016 3.9492 0.7 2.0333 1.2 3.8008 1.5 5.3008 0.011 0.0614 0.0495 0.2074 0.0605 0.27149 0 0.0253-0.0187 0.053-0.0137 0.0781l1 5c0.3344 1.6462 0.51848 2.5629 0.55078 2.75 0.4337 2.7256 0.7671 5.2915 1 7.6992 0.101 0.74597 0.19993 1.8622 0.29883 3.3496l0.35156 4c0.3018 2.4103 0.41811 5.7436 0.34961 10-7e-4 0.12396-0.051 0.22474-0.15039 0.30078-0.072 0.1138-0.17248 0.17969-0.30078 0.19922-0.1181 0.0177-0.23441-0.0152-0.34961-0.0996-0.055-0.0372-0.09-0.11979-0.12891-0.19141-0.074-0.31782-0.35339-1.5366-0.37109-1.6074-0.8-2.5333-1.3833-4.45-1.75-5.75-0.5-1.7333-1.3004-3.9-2.4004-6.5-0.8-1.5333-1.3484-2.6845-1.6484-3.4512-0.3-0.8-0.75156-1.7671-1.3516-2.9004-0.9333-1.7-1.4488-2.6322-1.5488-2.7988-0.5333-1-1.6845-2.7829-3.4512-5.3496-0.5667-0.86666-1.0163-2.0004-1.3496-3.4004-0.3333-1.6-0.61631-2.7996-0.84961-3.5996-0.3-1.2-0.74961-3.5837-1.3496-7.1504l-0.25-1.1504c-0.1336-0.56655-0.0988-0.98333 0.10156-1.25 0.7-0.96667 1.0508-2.1004 1.0508-3.4004 0-0.33333-0.15117-1.5-0.45117-3.5 0-0.1-0.1667-0.48373-0.5-1.1504-0.2-0.43333-0.21748-0.81511-0.0508-1.1484 1.1667-2.7 1.3817-5.2349 0.64844-7.6016-0.2667-0.8-0.83252-1.3833-1.6992-1.75-0.9-0.33333-1.65-0.23255-2.25 0.30078-0.5 0.43333-0.8333 1.0341-1 1.8008-0.1 0.43333-0.15039 1.1155-0.15039 2.0488 0 0.83333 0.13369 2.0504 0.40039 3.6504 0.1 0.56667-0.049 1.2837-0.44922 2.1504-0.5 1-0.76748 1.7171-0.80078 2.1504-0.1 1.4667-0.13261 2.4492-0.0996 2.9492 0.067 1.1 0.4 2.0167 1 2.75 0.7333 0.86667 1.2159 2.1671 1.4492 3.9004 0.033 0.16667 0.2833 1.5504 0.75 4.1504l0.67187 3.1152c-0.087-0.0958-0.35597-0.29071-0.45117-0.39063-0.4763-0.53416-1.0044-1.1313-1.1211-1.2246-1.5333-1.4333-2.9151-2.6349-4.1484-3.6016-0.3372-0.25291-1.1134-0.76618-1.5898-1.1016-0.2156-0.16659-0.23733-0.22752-0.46093-0.39844l-0.75-0.54883c-0.2862-0.2053-0.47129-0.22862-0.74219-0.40625-0.3492-0.23565-0.46782-0.33399-0.85742-0.59375-0.3649-0.23652-0.78295-0.29674-1.1562-0.50586-0.3071-0.13727-0.71454-0.45751-0.99414-0.54492l-0.34961-0.0488v2e-3c-1.059-0.4901-2.0756-1.1219-3.1973-1.4023-0.5333-0.16667-0.93252-0.28294-1.1992-0.34961-0.4667-0.1-0.90078-0.0671-1.3008 0.0996 1.5637 0.49381 3.2802 1.5481 5.1367 3.123 0.021 0.0242-0.0103 0.0522 0.0137 0.0762v-0.0488l0.33203 0.31055c1.3045 1.1409 2.7472 2.7962 4.1934 4.4609l2.1992 2.5488c0.049 0.0625 0.08 0.12117 0.12891 0.1836 1.3446 1.6619 2.884 3.9471 4.6465 6.9453 0.5928 0.97484 0.96242 1.801 1.4492 2.7051 0.5451 1.0949 1.1282 2.197 1.5449 3.2656-0.036 0.0679-0.0689 0.13815-0.14453 0.17969-0.062 0.0905-0.1456 0.14088-0.25 0.15039-0.116 9e-3 -0.23231-0.0262-0.34961-0.10156-1.1318-0.70884-2.6148-1.3616-4.1074-2.0137-0.3057-0.13547-0.47317-0.30336-0.79297-0.43555-0.072-0.0282-0.15466-0.0367-0.22656-0.0645-0.1055-0.0426-0.16644-0.0925-0.27344-0.13477-2.1926-0.91184-4.4426-1.5456-6.75-1.9004l-7.0996-1.0508c7e-4 -8e-3 -0.0148-0.023-0.0488-0.0488h-0.10156c-0.4324 8e-3 -0.69793 0.24035-0.79883 0.69922-0.01 0.0167-0.0258 0.0341-0.0508 0.0508-0.041 0.20807-0.0104 0.40768 0.0996 0.59961h-0.0488c0.1286 0.19623 0.2953 0.32995 0.5 0.40039 2.128 0.78361 4.1954 1.753 6.2188 2.8535 0.3087 0.17863 0.51029 0.29037 0.90039 0.51953 6.1846 3.5357 11.887 8.5331 17.08 15.076 0.1035 0.12874 0.22625 0.15992 0.34375 0.21875 0.041 0.056 0.066 0.0741 0.10742 0.13086 0.5068 0.82351 0.75135 1.3858 0.80665 1.7578l0.32421 1.6992c0.011 0.0533 0.0114 0.0734 0.0234 0.12891 0.631 3.8145 0.9664 6.2981 0.99609 7.4141v0.0508c0 0.0971 0.15318 1.7968 0.45118 5.0996l0.29882 2.5c0.098 0.63405 0.11608 0.94324 0.14258 1.2832 0.01 0.1221 0.0467 0.54544 0.0527 0.63477 0 1.0108-0.048 2.0203-0.14453 3.0312v0.40039c0 0.1112-0.0306 0.21198-0.0996 0.30078-0.153 0.19661-0.2363 0.37878-0.25 0.54883v0.70117c5e-4 0.25208 0.066 0.46914 0.19922 0.65039l0.0508 0.0488c0.2085 0.16263 0.42549 0.24597 0.65039 0.25h9.7988l0.10546-0.0352 0.0957 0.28516 0.19922-0.25c0.021-0.0315 0.0269-0.0678 0.0469-0.0996 0.033 2.8e-4 0.076-2e-3 0.10352 0l0.29882 0.0996h9.8516c0.2249-4e-3 0.42451-0.0873 0.59961-0.25l0.0488-0.0488c0.166-0.18138 0.24941-0.39844 0.25-0.65039v-0.80078c-0.01-0.14623-0.074-0.31289-0.19921-0.5l-0.25-0.40039c-0.061-0.068-0.0936-0.1668-0.0996-0.29883-0.062-1.5098 0.1336-3.8095 0.4414-6.4512 0.1501-1.1429 0.28719-2.4143 0.45899-3.3496 0.4-1.9 0.93291-4.0667 1.5996-6.5 0.6667-2.3 1.3663-4.6004 2.0996-6.9004 0.7667-1.9667 1.3171-3.4492 1.6504-4.4492 0.3-0.86667 0.6333-1.4829 1-1.8496 0.4667-0.53333 1.1159-0.78333 1.9492-0.75h0.65039c0.2 0.0667 0.2 0.28372 0 0.65039-0.01 0.017-0.0272 0.0484-0.0352 0.0664-0.035 0.0955-0.13416 0.0793-0.16406 0.18359l-0.0762 0.25977c-0.031 0.0523-0.0392 0.0817-0.0742 0.13867-0.1639 0.42928-0.52617 1.4117-0.72657 1.9434-0.4179 0.99652-0.77174 1.7991-1.373 3.3574l-0.55078 1.5508c-1.0134 2.7945-1.713 4.9438-2.0996 6.4492l-0.25 1.0508c-0.1455 0.58159-0.1555 0.83247-0.2793 1.3613-0.063 0.25436-0.10818 0.32345-0.17188 0.58789-0.30039 1.2919-0.30115 1.6693-0.47265 2.5684-0.1122 0.62191-0.36438 1.5833-0.42578 2.082l-0.0781 0.66016c0 0.0727-0.0703 0.325-0.0723 0.38867 0 0.1158-0.0438 0.61135-0.0508 0.78711-0.088 0.83462-0.19752 1.8531-0.19922 1.9629l-0.15039 4.25c-0.01 0.14414-0.057 0.26237-0.15039 0.35156-0.1363 0.13854-0.23513 0.25482-0.29883 0.34961 0.01 0.0328 0.01 0.0483 0 0.0488-0.064 0.1418-0.099 0.27552-0.10157 0.40039v0.80078c5e-4 0.25208 0.068 0.46914 0.20118 0.65039l0.0488 0.0488c0.2085 0.16263 0.4255 0.24597 0.6504 0.25h21.897c0.2475 4e-3 0.44711-0.0793 0.59961-0.25h0.0508c0.166-0.20273 0.2493-0.43529 0.25-0.69922v-0.20117c-1e-3 -0.20299-0.069-0.4026-0.20117-0.59961-0.032-0.0684-0.0468-0.15169-0.0488-0.25-0.037-1.6865 0.14493-3.7194 0.54883-6.0996l0.5-2.8496c0.2539-1.4455 0.61202-2.5506 0.95312-3.7129 0.5031-1.6805 1.0821-3.4858 2.2969-6.3379 1.7333-3.8667 2.9-6.2988 3.5-7.2988l1.2949-2.375c0.2973-0.49603 0.73595-1.2318 0.87695-1.459 0.4577-0.6744 0.9791-1.4351 1.7793-2.5664 0.2754-0.4722 0.57974-0.82864 0.86523-1.2598 0.812-1.1421 1.629-2.2929 2.2559-3.041 0.8801-1.021 1.7752-2.0546 2.4277-2.9004 0.058-0.0743 0.16076-0.1771 0.22266-0.25391 0.73159-0.82507 1.4394-1.6132 1.8789-1.9961h0.0488c0.9272-0.73672 1.7102-1.5526 2.3496-2.4492v-0.0508c0.036-0.0382 0.0297-0.12325 0.0527-0.17578 0.169-0.20338 0.31935-0.33176 0.49805-0.57422l0.34961-0.34961c0.1-0.13333 0.11708-0.28255 0.0508-0.44922-0.1667-0.4-0.46709-0.45039-0.90039-0.15039l-0.60938 0.18945-0.24023-0.0391c-0.1396 0.0133-0.27329 0.0462-0.40039 0.0996h0.0508l-2.2012 1.1992v-0.0488c-0.8313 0.48743-1.4904 1.0387-2.2812 1.541-0.533 0.32779-0.89835 0.43089-1.4688 0.80859-0.8725 0.5817-1.5048 1.1486-2.2852 1.7246-0.6239 0.45348-1.3708 0.86175-1.9648 1.3262-0.3001 0.2451-0.50568 0.51079-0.79688 0.75781-0.1326 0.11281-0.32402 0.22922-0.45312 0.3418-1.2669 1.0333-2.7996 2.483-4.5996 4.3496-1.3333 1.4-2.5833 2.9-3.75 4.5-0.7333 1-1.5492 2.2674-2.4492 3.8008-0.4458 0.77278-0.67219 1.1381-1.0254 1.7383-0.089 0.13007-0.13081 0.2281-0.22461 0.36133-1.237 2.0271-2.0374 3.3934-2.4004 4.0996l-0.70117 1.4492c-0.049 0.10189-0.0581 0.13311-0.10547 0.23242-0.1103 0.22787-0.35246 0.61378-0.44336 0.81836-0.8 1.6-1.4337 3.0167-1.9004 4.25-0.1277 0.32629-0.20988 0.8718-0.33008 1.2344-0.039 0.11387-0.1018 0.21066-0.2207 0.26562-0.094 0.0541-0.21071 0.0541-0.34961 0-0.1008-0.0123-0.1841-0.0781-0.25-0.19922-0.017-0.0195-9e-3 -0.0541-0.0215-0.0762l0.44727-4.0039c0.1268-0.90582 0.25988-1.6453 0.39258-2.4219 0.284-1.2555 0.58604-2.5577 0.68164-3.2988 0.1333-0.73333 0.35039-1.6674 0.65039-2.8008 0.4333-1.5333 0.6833-2.4655 0.75-2.7988 0.1-0.46667 0.5167-1.7496 1.25-3.8496 0.2-0.6 0.3667-0.98372 0.5-1.1504 0.2667-0.33333 0.70078-0.4845 1.3008-0.45117 1.1333 0.0667 1.8155-0.1 2.0488-0.5 0.2-0.33333 0.051-1-0.44922-2-0.4-0.56667-0.68291-0.99883-0.84961-1.2988-0.2667-0.53333-0.28378-1.0333-0.0508-1.5 0.3155-0.94544 1.9822-3.9454 5-9 2.0879-3.4765 2.8754-4.6617 3.7695-6.0332 0.9121-1.4102 2.6272-3.5843 4.498-5.9062l6.3086-7.3945c1.6276-1.9551 3.196-3.8119 4.373-5.0156l0.5-0.5c0.067-0.0667 0.18486-0.16745 0.35156-0.30078 0.1-0.1 0.1-0.20078 0-0.30078-0.3-0.36667-0.58486-0.53333-0.85156-0.5l-0.14844 0.0508c-0.2549 0.10427-0.48337 0.24875-0.73047 0.36523-0.046-9e-3 -0.071-0.0634-0.12109-0.0645-0.089 0.0127-0.23852 0.0612-0.44922 0.14844-1.3872 0.7552-3.1198 1.9219-5.1992 3.5l-1.4512 1.1504c-2.8432 2.1464-4.8587 3.7975-6.0488 4.9512l-1.1504 1.0996c-1.4221 1.3561-2.49 2.4065-3.2012 3.1504l-2.4844 2.7715c-0.1815 0.20651-0.49106 0.47533-0.66406 0.67773-0.047 0.0554-0.27112 0.36143-0.32422 0.42578l-0.42578 0.47461c-0.7339 0.90786-1.5848 2.1517-2.3613 3.1816-1.0436 1.3688-1.4983 1.9077-3.1387 4.1172-0.062 0.15608-0.0949 0.18405-0.15234 0.3164-0.088 0.12605-0.15985 0.20659-0.24805 0.33399l-0.15039 0.25c-0.1127 0.166-0.09 0.30277-0.17578 0.46289-0.3489 0.31417-0.73743 0.0346-1.1738-0.96289-0.3-0.5-0.53447-0.86628-0.70117-1.0996-0.2333-0.43333-0.26591-0.81706-0.0996-1.1504 0.3667-1.2667 0.66709-2.2163 0.90039-2.8496 0-0.0333 0.43408-1.5159 1.3008-4.4492 0.5333-1.8 1.2988-3.1837 2.2988-4.1504 1.1333-1.1333 1.8175-2.8504 2.0508-5.1504 0.2-2.1 0.26592-3.7163 0.19922-4.8496-0.1-1.7333-0.48369-3.3012-1.1504-4.7012-0.1667-0.23333-0.28291-0.4-0.34961-0.5-0.1333-0.23333-0.11622-0.4155 0.0508-0.54883 1-0.7 2.0659-1.6167 3.1992-2.75 0.6333-0.6 1.1179-1.2996 1.4512-2.0996 0.4333-0.93333 0.5167-1.7008 0.25-2.3008 1.6333 0.46667 3.5325 0.65078 5.6992 0.55078 0.9667-0.0667 2.1333-0.25078 3.5-0.55078l3.4004-0.80078c0.3-0.0667 1.6004-0.4 3.9004-1 1.5666-0.43333 2.8651-0.68333 3.8984-0.75h0.30075c0.1667-0.0333 0.25-0.16511 0.25-0.39844-0.2-0.93333-0.38408-1.6174-0.55078-2.0508-0.067-0.3-0.4-1.1992-1-2.6992-0.2333-0.6-0.58213-1.35-1.0488-2.25-0.6-1.1333-0.98369-1.8678-1.1504-2.2012-1.0667-2.4-2.8496-4.65-5.3496-6.75-2.4-1.9667-5.0008-2.6663-7.8008-2.0996-1.2333 0.26667-2.3167 0.86745-3.25 1.8008-1 0.96667-1.5659 2.05-1.6992 3.25-0.067 0.76667-0.20039 1.2996-0.40039 1.5996-0.1667 0.26667-0.55039 0.53216-1.1504 0.79883 0.3667-1.1333 0.45-2.7322 0.25-4.7988-0.2-0.63333-0.34922-1.1004-0.44922-1.4004-0.1667-0.56667-0.083-1.0337 0.25-1.4004 1.5667-1.6667 2.5163-3.533 2.8496-5.5996 0.1667-1.2 0.19931-2.1826 0.0996-2.9492-0.1667-1.0333-0.63369-1.9016-1.4004-2.6016-0.8667-0.83333-1.6825-1.0659-2.4492-0.69922-0.8333 0.4-1.4341 1.0667-1.8008 2-0.3333 0.9-0.4167 1.9174-0.25 3.0508 0.2 1.2333 0.56826 3.0822 1.1016 5.5488 0.033 0.2 0.16514 0.50039 0.39844 0.90039 0.1667 0.36667 0.11826 0.68255-0.14844 0.94922-0.4667 0.46666-0.85039 1.0849-1.1504 1.8516-0.1 0.3-0.28408 0.99961-0.55078 2.0996-0.1333 0.7-0.18369 1.5333-0.15039 2.5 0.033 0.56667 0.084 1.4 0.15039 2.5 0.033 0.8 0.16709 1.6333 0.40039 2.5 0.033 0.1 0.084 0.31706 0.15039 0.65039 0 0.23333-0.23447 0.2491-0.70117 0.0488-0.3667-0.16667-0.84922-0.21706-1.4492-0.15039-0.9 0.13333-1.3825 0.20117-1.4492 0.20117-0.2333 0-0.4-0.0833-0.5-0.25-0.1667-0.23333-0.28486-0.36706-0.35156-0.40039-0.1667-0.1-0.1667-0.26667 0-0.5 1.0667-1.9333 1.2683-3.85 0.60156-5.75-0.4-1.2-0.38447-2.2659 0.0488-3.1992 1.1667-2.5667 1.6512-4.7004 1.4512-6.4004-0.067-0.73333-0.30117-1.2178-0.70117-1.4512-1.2667-0.66667-2.4159-0.23255-3.4492 1.3008-0.2667 0.4-0.50117 1.1171-0.70117 2.1504-0.3 1.7333 0.18447 3.65 1.4512 5.75 0.1 0.16667 0.1 0.48255 0 0.94922s-0.25117 0.71667-0.45117 0.75c-1.7333 0.43333-3.0492 1.7841-3.9492 4.0508-0.067 0.16667-0.20039 0.23255-0.40039 0.19922l-0.5-0.0488c-0.1333 0.0333-0.18369 0.0159-0.15039-0.0508 0.033-0.1 0.0508-0.18333 0.0508-0.25 0.4333-1.9333 0.31709-3.9004-0.34961-5.9004-0.2333-0.4-0.41748-0.70039-0.55078-0.90039-0.2-0.33333-0.18292-0.69961 0.0508-1.0996 0.3-0.5 0.51709-1.3837 0.65039-2.6504 0.033-0.4-0.034-1.2663-0.20117-2.5996-0.067-0.16667-0.016-0.2655 0.15039-0.29883 2.2667-0.6 4.0671-1.9004 5.4004-3.9004 0.3667-0.53333 0.56631-0.85117 0.59961-0.95117 0.1667-0.4 0.1667-0.78177 0-1.1484-0.3-0.66666-1.05-0.91667-2.25-0.75-0.9333 0.1-1.9508 0.76667-3.0508 2-0.5 0.56667-0.96514 1.2663-1.3984 2.0996-0.4667 1-0.83486 1.75-1.1016 2.25-0.033 0.0667-0.48291 0.88255-1.3496 2.4492-0.5333 1-0.88213 1.8663-1.0488 2.5996-0.3333-0.56599-0.60078-0.99871-0.80078-1.2987-0.3-0.46667-0.61592-0.85039-0.94922-1.1504-1-0.86667-1.9012-1.4829-2.7012-1.8496-1.0333-0.46667-2.1167-0.60039-3.25-0.40039-0.2 0.0667-0.29883 7.8e-4 -0.29883-0.19922-0.3-3.0333-0.4667-5.3182-0.5-6.8516 0-1.1-0.15117-3.2667-0.45117-6.5-0.067-1-0.0996-2.5155-0.0996-4.5488 0.033-0.53333 0.033-0.91706 0-1.1504-0.1-0.36667-0.46631-0.55078-1.0996-0.55078-2.1667 0-5.3508-0.0988-9.5508-0.29883-1.8667-0.0667-4.6671-0.23333-8.4004-0.5zm0.5 1.25c0.3 0 0.73213 0.0659 1.2988 0.19922 2 0 5 0.0678 9 0.20117 1.2 0 3.0004 0.0659 5.4004 0.19922 1.1667 0.0333 2.9341 0.13411 5.3008 0.30078 0.5 0 1.25 0.0155 2.25 0.0488 0.6667-0.1 1.0659 0.0182 1.1992 0.35156 0.067 0.13333 0.0996 0.5655 0.0996 1.2988 0 2.0667 0.083 3.8496 0.25 5.3496 0.1333 1.4333 0.25156 3.6 0.35156 6.5 0.2333 3.9665 0.43291 6.6004 0.59961 7.9004 0.2667 2.1 0.7667 5.2163 1.5 9.3496l1.4004 7.5508c0.3 1.4 0.74961 3.5163 1.3496 6.3496 0.3667 1.4667 0.95 3.6508 1.75 6.5508 0.7667 3.1333 1.4333 5.3988 2 6.7988 0.5333 1.3333 1.3163 3.3333 2.3496 6l3.3496 7.4004c0.7333 1.5667 1.8671 3.6171 3.4004 6.1504l8.3008 14 0.34961 0.40039c0.4 0.66667 0.58213 1.0155 0.54883 1.0488-0.2333 0.16667-0.54922 0.26745-0.94922 0.30078h-1l-19.25 1.9004c-0.8 0.1-1.4337 0.0671-1.9004-0.0996-0.5667-0.2-1.0492-0.66706-1.4492-1.4004-0.5667-0.96667-1.4-2.1837-2.5-3.6504-1.3-1.8-2.1663-3.0171-2.5996-3.6504-0.3333-0.53333-0.81787-1.3822-1.4512-2.5488-0.6-1.1667-1.0825-2.0349-1.4492-2.6016-1.2-2-2.8337-5.2984-4.9004-9.8984-1.3333-3.1333-2.3004-5.8349-2.9004-8.1016-0.2667-0.93333-0.65039-2.0826-1.1504-3.4492-0.7333-1.9333-1.1655-3.0671-1.2988-3.4004l-3.0508-11c-0.5667-2.2333-0.9833-4.0163-1.25-5.3496-0.8667-3.8-1.4655-6.6508-1.7988-8.5508-0.1-0.53333-0.36748-2.8822-0.80078-7.0488l-0.94922-7.6504c-0.2-2.3-0.35117-4.0171-0.45117-5.1504l-1.1992-12.4c-0.033-0.13333 0.05-0.19922 0.25-0.19922zm53.199 12.699c0.6333 0.2 1.1333 0.75039 1.5 1.6504 0.5667 1.4 0.4833 3.1829-0.25 5.3496-0.3 0.93333-0.8833 1.9837-1.75 3.1504l-0.44922 0.30078-0.15039-0.5c-0.3333-1.5-0.56592-2.6337-0.69922-3.4004-0.3-1.3333-0.45117-2.4826-0.45117-3.4492-0.1-1.0667 0.10001-1.9 0.59961-2.5 0.4667-0.63333 1.0171-0.83489 1.6504-0.60156zm-10.1 1.25c0.4667-0.0333 0.74961 0.0171 0.84961 0.15039 0.1 0.13333 0.034 0.41628-0.19922 0.84961-1.1 2-2.7841 3.3508-5.0508 4.0508-0.5333 0.16667-0.76592 0.1494-0.69922-0.0508 0.2-0.3 0.31631-0.48216 0.34961-0.54883 1-2.1333 2.3159-3.5674 3.9492-4.3008 0.1667-0.0667 0.43408-0.11706 0.80078-0.15039zm3.4492 5.25c0.3 0.13333 0.4667 0.41823 0.5 0.85156 0.1333 1.1-0.016 2.3326-0.44922 3.6992-0.2667 0.76667-0.71631 1.9159-1.3496 3.4492l-0.20117 0.15039-0.14844-0.29883c-0.6-1.2333-1.0012-2.6345-1.2012-4.2012 0.1667-0.9 0.31787-1.5667 0.45117-2 0.2333-0.76667 0.68291-1.2996 1.3496-1.5996 0.4-0.2 0.74883-0.21727 1.0488-0.0508zm-8.6992 0.45117c0.5667 3.4-0.29961 6.433-2.5996 9.0996-0.3-1.6-0.16631-3.1833 0.40039-4.75 0.3333-1 1.0659-2.4496 2.1992-4.3496zm-9.9004 0.94921c2.5 0.3 4.4012 1.6178 5.7012 3.9512 0.2667 0.46667 0.41592 0.86589 0.44922 1.1992 0.033 0.43333-0.1333 0.70078-0.5 0.80078-0.4667 0.0333-0.78252 0.0992-0.94922 0.19922l-2.2012 1.0996c-0.9 0.4334-1.5996 0.90039-2.0996 1.4004-0.2 0.2-0.33369 0.0992-0.40039-0.30078l-1.0488-7.5488c-0.067-0.7 0.28213-0.96745 1.0488-0.80078zm24.1 4.0508c0.2333 1.5667 0.36709 2.5163 0.40039 2.8496 0.1 1.0667 0.05 2.0163-0.15039 2.8496-0.3667 1.5667-0.83174 2.8167-1.3984 3.75l-0.15039 0.0996c-0.1-0.0333-0.15039-0.0992-0.15039-0.19922-0.2-1.9-0.26592-3.3826-0.19922-4.4492 0.1333-1.6 0.51514-3.0341 1.1484-4.3008 0.067-0.13333 0.2333-0.33294 0.5-0.59961zm7.5508 0.15042c1.4-0.33333 2.7837-0.26745 4.1504 0.19922 2.0333 0.76667 3.9171 2.2492 5.6504 4.4492 1.5 1.8667 2.9321 4.3841 4.2988 7.5508l0.70117 1.8008c-1.7333-1.7333-3.0337-2.8671-3.9004-3.4004-2.2333-1.4333-4.2333-2.5496-6-3.3496-2.4667-1.1-5.2012-1.8674-8.2012-2.3008-1.2-0.13333-1.2833-0.99961-0.25-2.5996 0.8-1.2 1.9841-1.9829 3.5508-2.3496zm-21.949 2.0001c0.8 1.7667 1.0829 3.6659 0.84961 5.6992-0.4667-1.1667-1.1179-2.0833-1.9512-2.75-0.4-0.33333-0.49883-0.66667-0.29883-1 0.1-0.2 0.31709-0.48294 0.65039-0.84961zm-4 0.69908c0.2333 0.53333-0.034 0.95-0.80078 1.25-1.5 0.53333-2.75 1.3337-3.75 2.4004l-0.55078 0.40039-0.34961-0.90039c0.1-0.33333 0.29961-0.61628 0.59961-0.84961 0.2-0.13333 0.48486-0.3 0.85156-0.5 0.5667-0.4 1.5667-0.96784 3-1.7012 0.6-0.3 0.9333-0.33303 1-0.0996zm11.799 1c0.067 0.4 0.18291 0.98333 0.34961 1.75 0.1333 0.63333 0.18369 1.1992 0.15039 1.6992-0.033 0.43333-0.14961 0.96823-0.34961 1.6016-0.2667 0.8-0.4333 1.3329-0.5 1.5996-0.6667-0.33333-0.98252-0.93411-0.94922-1.8008 0.033-0.83333 0.46553-2.4496 1.2988-4.8496zm-11.1 0.59961c0.2333-0.1 0.61709 0.11706 1.1504 0.65039 0.8 0.9 1.3 1.4659 1.5 1.6992 0.5 0.63333 0.8333 1.2845 1 1.9512 0.033 0.16667 0.0488 0.2655 0.0488 0.29883l-0.25 0.10156c-2.6666 0.6-4.3992 1.7996-5.1992 3.5996-0.2333 0.46667-0.38252 1.3-0.44922 2.5 0 0.73333-0.26748 1.0163-0.80078 0.84961-0.8 0.0667-1.2496-0.18333-1.3496-0.75 0-0.66667-0.0326-1.1163-0.0996-1.3496-0.2333-0.7-0.46787-1.6496-0.70117-2.8496-0.2667-1.5333-0.44883-2.4849-0.54883-2.8516-0.033-0.2-0.0182-0.31628 0.0488-0.34961 0.067-0.0333 0.15-0.0837 0.25-0.15039 1.2667-1.4333 3.0671-2.5496 5.4004-3.3496zm9.0508 1.3008c0.2333-0.13333 0.3167-0.1003 0.25 0.0996-0.067 0.16667-0.10156 0.38372-0.10156 0.65039-0.3 1.1-0.3 2.1988 0 3.2988-0.6333-0.43333-1.2825-0.64844-1.9492-0.64844-0.5667 0.0333-0.8167-0.0849-0.75-0.35156 0-0.1 0.11631-0.31511 0.34961-0.64844 0.8333-1.2667 1.5679-2.0671 2.2012-2.4004zm12.85 0c0.3 0.0333 0.74961 0.13216 1.3496 0.29883 3.2 0.53333 6.4675 1.7678 9.8008 3.7012 0.2667 0.16667 0.64844 0.36628 1.1484 0.59961 0.4667 0.26667 0.81748 0.56706 1.0508 0.90039-3.6667-1.8-6.3333-2.9337-8-3.4004-1.7667-0.46667-4.0826-0.85039-6.9492-1.1504l-0.20117-0.09963 0.40039-0.44922c0.3667-0.3 0.83369-0.43372 1.4004-0.40039zm-0.70117 1.8496c0.3 0.1 0.75156 0.15039 1.3516 0.15039 0.6 0.0333 1.0496 0.0837 1.3496 0.15039 0.6333 0.16667 1.6004 0.39922 2.9004 0.69922 1.1667 0.3 2.1163 0.58294 2.8496 0.84961 2.8666 1.1 5.6167 2.6174 8.25 4.5508 0.4 0.3 0.86709 0.71667 1.4004 1.25 0.3 0.3 0.73213 0.76706 1.2988 1.4004l0.0996 0.25h-0.29883c-0.8667 0.1-1.8996 0.28216-3.0996 0.54883-1.3333 0.36667-2.3333 0.63411-3 0.80078l-5.1504 1.0996c-1.8667 0.36667-3.5004 0.50039-4.9004 0.40039-1.9-0.0667-3.4504-0.50078-4.6504-1.3008-1.8-1.3-2.7496-3.083-2.8496-5.3496-0.1667-2.1 0.48262-3.9004 1.9492-5.4004 0.4333-0.46667 1.2667-0.4997 2.5-0.0996zm-15.398 2.3008c1.2 0 2.5333 0.34883 4 1.0488 0.5333 0.23333 0.84922 0.43294 0.94922 0.59961 0.1667 0.3 0.017 0.70117-0.44922 1.2012-0.8 0.86667-1.6508 2.5159-2.5508 4.9492-0.9667 2.7-1.3504 5.7174-1.1504 9.0508 0.033 0.36667 0.23291 1.5488 0.59961 3.5488-2.2-2.5-3.9325-4.5155-5.1992-6.0488-2.1667-2.6-3.25-5.35-3.25-8.25 0-1.0667 0.083-1.8845 0.25-2.4512 0.2-0.8 0.6167-1.4667 1.25-2 1.3667-1.1667 3.2175-1.7151 5.5508-1.6484zm8.5996 2.4492c0.7-0.1 1.1496 0.0667 1.3496 0.5 0.1 0.26667 0.16592 0.71628 0.19922 1.3496 0.4333 2.4 1.8345 4.2663 4.2012 5.5996 0.5 0.26667 0.5 0.95078 0 2.0508-0.6667 1.4-1.6996 2.5667-3.0996 3.5l-6.75 4.6504c-0.8 0.53333-1.3349 0.93255-1.6016 1.1992l-0.25 0.0996c-0.1667-0.4-0.25-0.6655-0.25-0.79883-0.033-1.5333 0.017-3.1012 0.15039-4.7012 0.2333-1.9333 0.68291-3.85 1.3496-5.75 0.5667-1.5333 1.4834-3.3996 2.75-5.5996 0.4-0.7 0.65-1.1167 0.75-1.25 0.3333-0.46667 0.73447-0.74961 1.2012-0.84961zm-2.75 0.30078c0.2333-0.0333 0.45039 0.0151 0.65039 0.14844 0.2 0.13333 0.21553 0.2845 0.0488 0.45117l-0.40039 0.40039c-1.4333 2.6333-2.3325 4.3659-2.6992 5.1992-0.3333 0.9-0.88369 2.7004-1.6504 5.4004-0.016-0.84428-0.1479-1.645 0-2.5508 0.3667-2.3333 1.2-4.6822 2.5-7.0488 0.067-0.13333 0.36709-0.65078 0.90039-1.5508 0.1667-0.26667 0.38369-0.41589 0.65039-0.44922zm-15.5 4.25c0.1 0.0333 0.16592 0.0663 0.19922 0.0996 1.0333-0.23333 1.6341 0.0167 1.8008 0.75 0.067 0.4 0.11709 1.0163 0.15039 1.8496 0.7333 2.1 2.0492 4.2163 3.9492 6.3496 0.7667 0.83333 1.8829 2.1163 3.3496 3.8496 1.2 1.3333 2.0004 2.1667 2.4004 2.5 0.2667 0.2 0.54961 0.16697 0.84961-0.0996 0.4667-0.43333 0.73408-0.66589 0.80078-0.69922 0.1667-0.0667 0.56592-0.33411 1.1992-0.80078l0.90039-0.54883c0 0.6 0.0168 0.94883 0.0508 1.0488 0.067 0.4 0.11514 1.0163 0.14844 1.8496 0.067 0.73333 0.25078 1.3167 0.55078 1.75 0.1 0.1 0.1 0.26667 0 0.5-1.4667 2.4333-1.8175 4.8016-1.0508 7.1016 0.067 0.26667-0.017 0.66589-0.25 1.1992-0.1667 0.26667-0.39922 0.70078-0.69922 1.3008l-1.9004 5.2988c0 0.26667-0.066 0.38294-0.19922 0.34961-0.2-0.0333-0.3667-0.16511-0.5-0.39844l-2.0508-4.25c-0.9-1.8-1.5667-3.1508-2-4.0508-0.7667-1.5667-1.3655-2.9504-1.7988-4.1504-0.7667-2-1.8171-5.0659-3.1504-9.1992-0.2667-0.83333-0.58447-2.1163-0.95117-3.8496-0.3667-1.7-0.68252-2.9849-0.94922-3.8516-0.3667-1.7-0.64961-2.9984-0.84961-3.8984zm-31.551 5.7988c0.4333 0 0.83447 0.18411 1.2012 0.55078 0.3 0.33333 0.49961 0.80039 0.59961 1.4004 0.1667 0.76667 0.26553 1.1833 0.29883 1.25 0 2.3333-0.6667 4.5659-2 6.6992l-0.19922 0.09962c-0.2667-0.46667-0.4333-0.8155-0.5-1.0488-0.3-1.2-0.49961-2.1012-0.59961-2.7012-0.2333-1.0667-0.33408-1.9988-0.30078-2.7988 0-1.2667 0.1667-2.2337 0.5-2.9004 0.2-0.4 0.5333-0.58411 1-0.55078zm50.75 5.25c0.067 0.1 0.20039 0.36745 0.40039 0.80078 0.8333 1.9333 1.1008 4.2822 0.80078 7.0488-0.067 0.73333-0.43486 1.3341-1.1016 1.8008-0.8-0.3-1.4163-0.91628-1.8496-1.8496-0.5-1.2667-0.84883-3.1329-1.0488-5.5996-0.033-0.43333 0.23213-0.8345 0.79883-1.2012 0.1-0.0667 0.29961-0.1655 0.59961-0.29883 0.2333-0.13333 0.4-0.25156 0.5-0.35156 0.3667-0.4 0.66709-0.51628 0.90039-0.34961zm-52.35 3.6504c0.1 0.23333 0.23369 0.63255 0.40039 1.1992 0.1667 0.46666 0.34883 0.75156 0.54883 0.85156 0.4333 0.2 0.81709 0.11667 1.1504-0.25 0.2-0.2 0.46748-0.55078 0.80078-1.0508 0.7 1.8667 0.89961 3.7659 0.59961 5.6992-0.1333 1.3333-0.69922 2.0833-1.6992 2.25-1.0333 0.16667-1.8183-0.46511-2.3516-1.8984-0.6333-1.7667-0.68174-3.6504-0.14844-5.6504 0.033-0.16667 0.13213-0.36628 0.29883-0.59961 0.2667-0.33333 0.40039-0.51745 0.40039-0.55078zm49.801 4.6992c0.1-0.0667 0.16592-0.0163 0.19922 0.15039 0.2333 0.3 0.54922 0.78451 0.94922 1.4512 0.4333 0.5 0.96826 0.71511 1.6016 0.64844l0.25-0.0488 0.75-0.30078-0.25 1.0508c-0.5 1.1333-0.78486 1.7496-0.85156 1.8496-0.3333 0.66667-0.76553 1.1841-1.2988 1.5508-0.1667 0.13333-0.28291 0.19922-0.34961 0.19922-0.067 0.0333-0.3167 0.0508-0.75 0.0508-0.4333-0.13333-0.73369-0.46667-0.90039-1-0.067-0.66666-0.13447-1.1841-0.20117-1.5508-0.067-0.53333-0.016-1.1826 0.15039-1.9492 0.2667-0.83333 0.4333-1.4671 0.5-1.9004 0-0.0667 0.068-0.1345 0.20117-0.20117zm-48.102 5.2012c0 0.0333 0.05 0.0488 0.15039 0.0488 0.7333-0.33333 1.1345-0.29844 1.2012 0.10156 0.033 0.26667-0.017 0.68334-0.15039 1.25l1.1992 6.8984c0.1667 0.93333 0.48447 2.3345 0.95117 4.2012l-1.8516-2.1504c-0.2-0.2-0.3667-0.53333-0.5-1-0.067-0.96667-0.16553-1.6837-0.29883-2.1504-0.3667-2.0333-0.64961-3.5663-0.84961-4.5996l-0.35156-2.1504c-0.067-0.5 0.1-0.64922 0.5-0.44922zm47.451 1.9004c0.033 0.1 0.33369 0.21628 0.90039 0.34961 0.4667 0.1 0.56553 0.41589 0.29883 0.94922-0.5 1.1333-1.0155 2.5345-1.5488 4.2012-0.3333 0.96667-0.80039 2.3988-1.4004 4.2988-0.067 0.16667-0.11709 0.43411-0.15039 0.80078-0.3667-0.56667-0.56631-0.8845-0.59961-0.95117-0.033-0.1-0.16709-0.35-0.40039-0.75-0.2-0.3-0.2833-0.59844-0.25-0.89844l2.8008-7.5508c0.1667-0.2 0.28291-0.34922 0.34961-0.44922zm-63.35 28.449c-0.2333-0.13333-0.41748-0.11607-0.55078 0.0508-0.067 0.13333 0.017 0.28255 0.25 0.44922 1.1667 0.93333 1.8508 1.4992 2.0508 1.6992 1.6 1.6667 3.2318 4 4.8984 7 1.054 1.9537 1.6771 3.4019 2.2754 4.8203 0.9094 2.276 1.7385 4.6088 2.375 7.0801 0.5935 2.3056 1.0102 4.856 1.25 7.6504l0.0996 2.0508c0 0.11523-0.0296 0.21406-0.0996 0.29883-0.035 0.10403-0.0498 0.23776-0.0488 0.40039v0.65039c5e-4 0.26406 0.084 0.49661 0.25 0.69922 0.187 0.16784 0.40214 0.25117 0.64844 0.25h8.8008c0.2249-4e-3 0.42451-0.0873 0.59961-0.25l0.0508-0.0488c0.166-0.18138 0.2493-0.39844 0.25-0.65039v-0.40044c-3e-4 -0.23125-0.084-0.43086-0.25-0.59961-0.099-0.0965-0.14919-0.21276-0.15039-0.34961v-0.20117c-0.056-2.2699-0.47422-4.5163-1.1035-6.75-0.033-0.11583-0.0119-0.23385-0.0469-0.34961-0.097-0.33467-0.3582-0.71569-0.4707-1.0547-0.4215-1.2509-0.77641-2.5067-1.3789-3.7461-0.3349-0.70919-0.66084-0.94551-0.99414-1.5781-0.3435-0.65707-0.46197-1.2506-0.85547-1.9219-0.2842-0.48557-1.2876-1.6078-1.7949-2.291-0.3664-0.47703-0.74107-1.3755-1.1055-1.7578l-0.0508-0.0508-1.5996-1.7988c-0.1682-0.186-0.23683-0.24358-0.39453-0.41601-0.053-0.0606-0.052-0.0735-0.10547-0.13477-0.062-0.0718-0.16482-0.14487-0.22852-0.2168-0.7625-0.82495-1.5357-1.6647-2.0215-2.1328-0.293-0.27423-0.6118-0.40298-0.9082-0.6582-0.7732-0.63742-1.7396-1.2826-2.6602-1.9258-0.5671-0.36916-1.1029-0.91298-1.6816-1.2168v-0.0488c-0.4579-0.26172-0.77382-0.46328-0.94922-0.60156l-0.80078-0.5c-0.017 8e-3 -0.0328 8e-3 -0.0488 0-0.1401-0.10013-0.29127-0.14857-0.45117-0.14844-0.032-2e-5 -0.0491 0.0375-0.0801 0.041-0.2172-0.10112-0.32771-0.18591-0.57031-0.29102-1.2333-0.5-2.0317-0.85078-2.3984-1.0508zm51.25 0.44922c0.5333-0.0667 0.79883 0.0671 0.79883 0.40039-0.033 0.16667-0.13213 0.40117-0.29883 0.70117-0.4 1.2-1.0512 2.9984-1.9512 5.3984-0.7667 2.3333-1.4663 4.6008-2.0996 6.8008-0.2607 0.84723-0.55636 2.0522-0.88086 3.5684l-0.0371-2.7656-0.0312-5.1523c0-0.45782-0.0514-1.4751-0.0664-2.0938l-0.0352-2.5059c-0.091-1.988-0.13408-3.0176-0.14258-3.2793 0.023-0.29303 0.077-0.56928 0.54297-0.62109z"/>
 <g transform="translate(-664.95 -186.3)">
  <path transform="translate(160.15,84.1)" d="m509.8 102.2c-3.3333 0-5 1.6667-5 5v158.2c0 3.3333 1.6667 5 5 5h93.201c3.3333 0 5-1.6667 5-5v-158.2c0-3.3333-1.6667-5-5-5zm8.3008 7.1992h76.6c4.6667 0 7 2.3333 7 7v139.8c0 4.6667-2.3333 7-7 7h-76.6c-4.6667 0-7-2.3333-7-7v-139.8c0-4.6667 2.3333-7 7-7z" fill="#ef1d1e"/>
  <path transform="translate(160.15,84.1)" d="m518.1 109.4c-4.6667 0-7 2.3333-7 7v139.8c0 4.6667 2.3333 7 7 7h76.6c4.6667 0 7-2.3333 7-7v-139.8c0-4.6667-2.3333-7-7-7z" fill="none" stroke="#000" stroke-width="1.2"/>
 </g>
</svg>
