<svg width="103.2" height="168.2" preserveAspectRatio="none" version="1.1" viewBox="0 0 103.2 168.2" xmlns="http://www.w3.org/2000/svg">
 <path d="m13.301 7.1992c-4.6667 0-7 2.3333-7 7v139.8c0 4.6667 2.3333 7 7 7h76.6c4.6667 0 7-2.3333 7-7v-139.8c0-4.6667-2.3333-7-7-7z" fill="#fff"/>
 <path d="m46.8 71.799c-0.44635-0.13151-0.86302-0.19818-1.25-0.2-0.7181 7e-3 -1.4181 0.2574-2.1 0.75v0.05c-0.84896 0.70573-1.4656 1.6224-1.85 2.75-0.2056 0.71094-0.37227 1.7443-0.5 3.1-0.25091 2.4079 0.26575 4.8079 1.55 7.2 0.0247 0.0639 0.0414 0.11393 0.05 0.15 0.0825 0.52344 0.38255 0.79011 0.9 0.8h0.05l0.4-0.05c0.28893-0.12877 0.52227-0.39544 0.7-0.8l0.5-1.15h-0.05c0.77839-1.8569 1.2284-3.0236 1.35-3.5 0.0371-0.062 0.0705-0.12867 0.1-0.2 0.92031-2.5225 1.387-4.4892 1.4-5.9-0.0336-0.94453-0.11693-1.5945-0.25-1.95-0.14401-0.44948-0.47735-0.79948-1-1.05m6.95-8.95-0.35 0.05c-0.6625 0.0805-1.1958 0.33047-1.6 0.75-0.5082 0.63477-0.69153 1.5514-0.55 2.75v0.05c0.44687 3.4896 1.9969 6.0396 4.65 7.65 0.0171 0.0243 0.0337 0.041 0.05 0.05 0.21041 0.16354 0.44375 0.24687 0.7 0.25 0.27097-7e-3 0.52097-0.12333 0.75-0.35h-0.05c0.26185-0.25937 0.34518-0.55937 0.25-0.9 7e-3 -8e-3 7e-3 -0.025 0-0.05l-0.2-1.7v-0.35c-4e-3 -0.0336-4e-3 -0.0669 0-0.1 0.0763-0.34961 0.01-0.69961-0.2-1.05-0.0163-0.047-0.0329-0.097-0.05-0.15l-0.25-1.25v-0.05c-0.25339-1.6945-0.67005-2.9945-1.25-3.9l-0.15-0.25c-0.49479-0.91029-1.0781-1.3936-1.75-1.45m-29.45 19.7c-1.493 1.0162-2.8763 2.6328-4.15 4.85-0.43529 0.78373-1.0686 2.4004-1.9 4.85v-0.05l-0.1 0.35v0.05c-0.85521 2.8811-1.2219 5.2144-1.1 7 0.0331 0.26211 0.14973 0.49544 0.35 0.7 0.0988 0.0965 0.14883 0.21315 0.15 0.35v0.05c2e-3 0.0249 2e-3 0.0415 0 0.05-0.0429 0.31445 0.0238 0.58112 0.2 0.8 0.21198 0.19844 0.44531 0.29844 0.7 0.3h0.15c0.23646-5e-3 0.45313-0.0887 0.65-0.25 0.44466-0.28281 1.2447-0.53281 2.4-0.75l3.7-0.85c1.6871-0.29258 3.0871-0.62591 4.2-1 2.5592-0.85755 4.5759-1.9409 6.05-3.25 0.10325-0.06 0.20325-0.0933 0.3-0.1 0.13503-3e-3 0.25169 0.0307 0.35 0.1 0.0887 0.0613 0.13867 0.14467 0.15 0.25l0.3 1v-0.05l1.35 3.4c0.42604 1.1247 0.82604 1.9414 1.2 2.45 0.74557 0.97175 2.1956 2.2218 4.35 3.75v-0.05l1.65 1.1c1.352 0.8625 2.2353 1.5792 2.65 2.15 0.0331 0.0458 0.0497 0.0958 0.05 0.15 0.20495 0.5862 0.57161 0.8862 1.1 0.9 0.18919 5e-3 0.35586-0.0287 0.5-0.1l0.3-0.3c0.0755-0.0318 0.14219-0.0651 0.2-0.1 0.0915-9e-3 0.17487-9e-3 0.25 0l0.2 0.05c0.22109-0.0303 0.43776-0.13033 0.65-0.3l0.1-0.1c2.0103-1.921 3.4436-3.421 4.3-4.5 1.3613-1.6609 2.3113-3.3943 2.85-5.2v-0.05c0.18347-0.43073 0.3668-1.0641 0.55-1.9 0.0373-0.10885 0.0873-0.20885 0.15-0.3 0.10417-0.0568 0.20417-0.0901 0.3-0.1 0.12435-8e-3 0.22435 9e-3 0.3 0.05 0.51015 0.32735 1.1268 0.57735 1.85 0.75l0.7 0.2h0.05c0.58633 0.23411 1.4863 0.38411 2.7 0.45l1.85 0.1c0.46041 2e-3 0.86041-0.048 1.2-0.15 0.94206-0.22825 2.1421-0.37825 3.6-0.45l0.55-0.05h0.05c0.85925-5e-3 1.9759 0.12867 3.35 0.4h0.25c0.53724 0 0.92057-0.13333 1.15-0.4 0.18216-0.33294 0.19883-0.66627 0.05-1-0.0201-0.0392-0.0367-0.0892-0.05-0.15l-0.35-0.9c-0.0135-0.0652-0.0135-0.14853 0-0.25 0.0135-0.0665 0.0469-0.1332 0.1-0.2 0.15287-0.19661 0.2362-0.37995 0.25-0.55v-0.05l0.2-2.1v-0.05c0.15781-1.0268 0.0411-2.2602-0.35-3.7 8e-3 -6.7e-4 8e-3 -0.0173 0-0.05l-0.3-1.7c-0.19336-2.1762-0.99336-4.1928-2.4-6.05l-0.15-0.2c-1.4471-1.9207-2.7305-3.1874-3.85-3.8v-0.05c-0.9862-0.56627-2.0029-0.84961-3.05-0.85-0.75235-2e-3 -1.4524 0.148-2.1 0.45-2.3703 1.0882-4.087 3.2048-5.15 6.35-0.078 0.41914-0.0447 0.76914 0.1 1.05l0.1 0.15c0.075 0.0969 0.10833 0.19687 0.1 0.3-0.0107 0.14245-0.0607 0.25911-0.15 0.35-0.0822 0.0892-0.18216 0.13919-0.3 0.15-1.0832 0.0931-1.8832 0.65977-2.4 1.7l-0.05 0.05-0.6 1.05c-0.0318 0.0857-0.0985 0.15235-0.2 0.2-0.0615 0.0426-0.1448 0.0593-0.25 0.05-0.0833-8e-3 -0.16667-0.0417-0.25-0.1-1.0469-0.75534-2.3635-1.3053-3.95-1.65-0.69635-0.16159-1.3297-0.24492-1.9-0.25-0.92175 6.7e-4 -1.9551 0.16733-3.1 0.5-0.83255 0.31419-1.2826 0.59753-1.35 0.85 0.0651 0.6-0.8682 0.9-2.8 0.9-0.19531 6.7e-4 -0.34531 0.0173-0.45 0.05-0.0163 0.0112-0.0496 0.0112-0.1 0-1.0286 0.30625-1.9786 0.72291-2.85 1.25-0.0833 0.0806-0.18333 0.11393-0.3 0.1-0.11758-0.0146-0.21758-0.0646-0.3-0.15-0.0862-0.0837-0.1362-0.18373-0.15-0.3-0.0362-0.37253-0.20287-0.95586-0.5-1.75l-0.05-0.15c-0.21015-0.6237-0.61015-1.1404-1.2-1.55-0.57005-0.42761-1.1534-0.64427-1.75-0.65-0.27213-5.2e-4 -0.57213 0.0662-0.9 0.2l-0.4 0.2c-0.0875 0.0553-0.1875 0.072-0.3 0.05-0.12005-0.0253-0.22005-0.0919-0.3-0.2-0.0702-0.0786-0.10351-0.17865-0.1-0.3-3e-3 -0.11289 0.03-0.21289 0.1-0.3 0.29753-0.37213 0.38086-0.7888 0.25-1.25-0.20443-0.88659-0.73776-1.6866-1.6-2.4-0.82383-0.67344-1.7238-1.0401-2.7-1.1h-0.4c-1.5389 1e-3 -3.0556 0.518-4.55 1.55m13.65-17.55c-1.091 8e-3 -2.0744 0.49113-2.95 1.45-0.73477 0.86081-1.2681 1.8608-1.6 3-0.17318 0.70235-0.32318 1.7524-0.45 3.15l-0.15 1.1v0.15c0.0314 1.3337 0.31473 3.1004 0.85 5.3 0.0299 0.0577 0.0466 0.10767 0.05 0.15 0.0215 0.0237 0.0715 0.12373 0.15 0.3 0.0343 0.0167 0.0509 0.0333 0.05 0.05 0.22083 0.51276 0.55417 0.77943 1 0.8 0.4457-0.0206 0.76237-0.28727 0.95-0.8h0.05l0.25-0.55v-0.05c0.61901-1.1914 1.0024-2.0247 1.15-2.5h0.05l0.25-0.55c0.69011-1.6221 1.1734-2.8555 1.45-3.7 0.50156-1.3725 0.80156-2.6725 0.9-3.9 6e-3 -0.0253 6e-3 -0.0586 0-0.1l0.05-0.2v0.05c0.16875-1.2012-0.11459-2.1012-0.85-2.7v-0.05c-0.32539-0.27109-0.72539-0.40443-1.2-0.4" fill="#1ca4da"/>
 <path d="m57.25 74.148c-0.0328 0.028-0.0657 0.0454-0.0996 0.0508-0.33581 0.0417-0.57031 0.17539-0.70117 0.40039-0.37409 0.77265-0.62409 1.7727-0.75 3l-0.0488 0.34959v0.0996c2e-3 0.0792-0.0154 0.147-0.0508 0.20117-0.0359 0.0874-0.0863 0.15325-0.15039 0.19922-0.19362 0.13971-0.36029 0.30638-0.5 0.5l-0.6992 1.1992c9e-3 0.0172 9e-3 0.0346 0 0.0508-1.7146 2.2842-2.482 4.5517-2.3008 6.8008 0.0501 0.44453 0.2168 0.81081 0.5 1.0996 0.28763 0.30391 0.62097 0.47057 1 0.5 0.0501 5e-3 0.085 5e-3 0.10156 0 0.1612 0.0414 0.57787 0.24101 1.25 0.59961 0.0329 8e-3 0.0484 8e-3 0.0488 0l0.45117 0.30078c0.0435 0.0396 0.0764 0.0725 0.0996 0.0996l0.0488 0.0488c0.38151 0.37917 0.73229 0.58073 1.0508 0.60156 0.14297-9e-3 0.32708-0.0598 0.55078-0.15039 0.45026-0.3069 0.7487-0.8069 0.89844-1.5 0.0358-0.0961 0.0862-0.17943 0.15039-0.25l0.15042-0.34959c0.0238-0.0556 0.0567-0.10599 0.0996-0.15039 0.10482-0.1056 0.23854-0.25677 0.40039-0.45117 0.0241-0.10377 0.057-0.2026 0.0996-0.29883 0.0147-9e-3 0.0322-0.0266 0.0508-0.0508 0.31575-0.42721 0.49792-0.76055 0.54883-1v0.0508l0.10156-0.65039c5e-3 -0.0171 5e-3 -0.05 0-0.0996l0.19922-0.45117 0.15039-0.69922c0.0704-0.53437 0.21966-1.3173 0.44922-2.3496-0.10859-0.78607-0.25781-1.6194-0.44922-2.5l-0.0996-0.55078c-0.37239-1.8506-0.99062-3.2828-1.8516-4.2988l-0.0488-0.0508c-0.1819-0.17175-0.38151-0.27253-0.59961-0.30078zm-23 6.3516c-0.44544 0.093-0.86211 0.4418-1.25 1.0488-5e-3 0.0357-0.0221 0.0686-0.0508 0.0996-0.0891 0.11458-0.22083 0.41497-0.39844 0.90039-0.17604 0.67097-0.19347 1.2214-0.0508 1.6504l0.0508 0.15039c0.36107 0.29948 0.61107 0.56498 0.75 0.79883 0.0897 0.12747 0.1556 0.21081 0.19922 0.25 0.0466 0.0309 0.11249 0.0483 0.19922 0.0508h0.0508c0.40013 0.0287 0.95052 0.21278 1.6504 0.55078 0.0948 0.0457 0.19362 0.0787 0.29883 0.0996 0.10261-0.17825 0.1375-0.41276 0.10156-0.70117-1e-3 -8e-3 -1e-3 -0.024 0-0.0488v-0.0508l-0.10156-0.54883c-2e-3 -0.0255-2e-3 -0.0604 0-0.10156l-0.0996-2.8496c-0.0217-0.52044-0.2039-0.90416-0.54883-1.1504h-0.05079c-0.1638-0.0986-0.34791-0.14701-0.55078-0.14844zm12.1 0.0488c-2.6e-4 0.0257-0.0158 0.0431-0.0488 0.0508-0.25612 0.0367-0.45768 0.17046-0.60156 0.40039-0.0157 0.0627-0.0487 0.11111-0.0996 0.14844l-0.0996 0.15039c-0.0875 0.24857-0.30456 0.78151-0.65039 1.5996v-0.0488c-0.18711 0.67682-0.36927 1.1439-0.54883 1.4004l-0.0508 0.09959c-7e-3 0.0332-0.0246 0.0487-0.0508 0.0488-0.35847 0.55911-0.55808 1.0436-0.59961 1.4512-6e-3 0.10599-0.0389 0.18932-0.0996 0.25-0.0277 0.0811-0.0781 0.13151-0.15039 0.15039-0.54974 0.34388-0.9819 0.80899-1.2988 1.3984h-0.0508c-0.1638 0.32617-0.26458 0.64401-0.30078 0.95117l0.90039 0.25h-0.0488l0.54883 0.0488 0.70117-0.0996c0.48763-0.10377 1.2376-0.15416 2.25-0.15039 0.10677-0.015 0.37227-0.11383 0.79883-0.29883h0.0508c0.46159-0.099 0.86081-0.13191 1.1992-0.0996h0.0508c0.073 2e-3 0.13893 2e-3 0.19922 0 0.33281-0.22265 0.49948-0.59088 0.5-1.1016-0.0387-1.6819-0.48828-3.6141-1.3496-5.7988-0.0523-0.18997-0.18606-0.35664-0.40039-0.5-0.0101-6e-3 -0.0256-0.0235-0.0488-0.0508-0.16315-0.16081-0.36471-0.24414-0.60156-0.25zm7.3008 26.25c-0.19349 3e-3 -0.3776 0.0712-0.55078 0.20117-0.1931 0.1362-0.37526 0.28542-0.54883 0.44922l-0.20117 0.44922c-0.42318 0.85963-1.0395 1.4604-1.8496 1.8008-0.0249 0.0101-0.0578 0.0101-0.0996 0-0.0291 0.0317-0.0621 0.0491-0.0996 0.0508l-0.75 0.79883 0.0488-0.0488c-0.49427 0.63216-0.66094 1.2814-0.5 1.9492l0.5 2.0508c0.0297 0.0582 0.0471 0.10664 0.0508 0.14844v0.0507l0.69922 3.9004c0.074 0.45638 0.3569 0.70638 0.84961 0.75h0.0508c0.42982-8e-3 0.71276-0.24297 0.84961-0.70117 1.0406-3.8988 1.841-7.4977 2.4004-10.799 0.087-0.40287-0.0467-0.7207-0.40039-0.95117v0.0508c-0.16549-0.0922-0.31471-0.14258-0.44922-0.15039z" fill="#faea01"/>
 <path d="m100.45 30-0.44922 0.14844c-0.2201 0.0677-0.21485 0.0834-0.40625 0.14453-0.059-0.0147-0.0789-0.0908-0.14453-0.0937l-0.39844 0.0508 0.0488-0.0508-0.19922 0.0508h0.0488l-0.44916 0.19915-3.6992 1.9004c-1.1617 0.55781-2.8963 1.6741-5.2012 3.3496v0.0508l-4.2988 3.5996v0.0488c-0.063 0.0512-0.097 0.10113-0.16016 0.15234-0.60709 0.50541-1.2407 0.9845-1.8398 1.498-0.6023 0.51303-1.5686 1.715-2.2754 2.4258-0.6813 0.6897-1.5859 1.3882-2.1758 2.0742h-0.0488l-0.65042 0.9004h-0.0508c-0.276 0.33169-0.34034 0.46633-0.58984 0.77344-0.3853 0.45097-0.60397 0.58626-1.0098 1.0762-0.2734 0.34278-0.5128 0.91066-0.7832 1.2734-0.3349 0.45908-0.93382 1.1643-1.166 1.5273l-1.3516 2.1504c-0.8068 1.2736-1.4734 2.3898-2 3.3496h-0.0488c-0.1535 0.29187-0.48015 1.0413-0.71875 1.5586-0.1062 0.21125-0.22633 0.32617-0.33203 0.54102-0.7005 1.4594-0.90449 2.1904-1.4004 3.3496-0.6367 1.4884-1.499 3.3076-1.7988 4.3008l-2 5.9004c-1.0333 3.2333-1.6167 5.1326-1.75 5.6992-0.1333 0.53333-0.60039 1.3337-1.4004 2.4004-0.7333 0.96667-1.15 1.8504-1.25 2.6504l-0.40039-2.2012c-0.4667-1.7333-0.78252-3.0492-0.94922-3.9492-0.067-0.4-0.33408-0.91745-0.80078-1.5508s-0.73213-1.1837-0.79883-1.6504c-0.33341-2.8333-0.51749-4.3992-0.55079-4.6992-0.3-1.8-0.8-3.3174-1.5-4.5508-0.6333-1.2-1.4337-1.6826-2.4004-1.4492-1.0333 0.26667-1.6321 0.98373-1.7988 2.1504-0.1667 1-0.018 2.1337 0.44922 3.4004 0.7 2.1333 1.7504 3.7496 3.1504 4.8496 0.3 0.23333 0.76709 0.53372 1.4004 0.90039 0.3667 0.4 0.29883 0.93294-0.20117 1.5996v0.15039c-0.1 0.36667-0.21631 0.95-0.34961 1.75-0.1333 0.7-0.3833 1.2329-0.75 1.5996-2.1667 2.2667-3.1337 4.7667-2.9004 7.5 0 0.0333 0.0168 0.0992 0.0508 0.19922 0 0.1-0.068 0.15039-0.20117 0.15039-1.1667-0.0667-2.0484-0.0841-2.6484-0.0508-0.4 0-0.60156-0.19961-0.60156-0.59961 0.067-0.66667 7.8e-4 -1.4167-0.19922-2.25-0.033-0.2-0.25039-0.91706-0.65039-2.1504-0.067-0.2-0.26631-0.51589-0.59961-0.94922-0.2667-0.36667-0.40039-0.63411-0.40039-0.80078 0.033-0.46667 0.18447-1.05 0.45117-1.75 0.3-0.96667 0.48213-1.5655 0.54883-1.7988 0.3333-1.3333 0.31777-2.6163-0.0488-3.8496-0.2667-0.9-0.88486-1.3845-1.8516-1.4512-1.2-0.13333-2.2 0.33372-3 1.4004-0.6333 0.86667-1.1333 2.0508-1.5 3.5508-0.4667 1.9667-0.28252 4.3833 0.55078 7.25 0.1 0.36667 0.4333 0.89961 1 1.5996 0.4 0.63333 0.29922 1.2167-0.30078 1.75-0.2 0.2-0.41514 0.7155-0.64844 1.5488-0.2 0.66666-0.58369 1.0833-1.1504 1.25-0.2333 0.0667-0.9833 0.48333-2.25 1.25 0.2333-0.8 0.067-1.7322-0.5-2.7988-0.5333-1-1.2-1.6841-2-2.0508-0.2-0.0333-0.33369-0.0663-0.40039-0.0996-0.1667-0.0667-0.21709-0.16745-0.15039-0.30078 0.1667-0.33333 0.19931-0.75 0.0996-1.25-0.1-0.66667-0.14844-1.0833-0.14844-1.25-0.033-1.0667-0.033-1.8496 0-2.3496 0.033-0.93333 0.26592-1.7337 0.69922-2.4004 0.8333-1.3 1.6492-3.0655 2.4492-5.2988 0.4-1.1667 0.68486-2.0504 0.85156-2.6504 0.2667-1.0333 0.41592-1.95 0.44922-2.75 0-1.4333-0.31592-2.3326-0.94922-2.6992-0.9-0.5-1.8845-0.36823-2.9512 0.39844-1.4667 1.1333-2.4163 2.7671-2.8496 4.9004-0.4 2.1667-0.3167 4.6163 0.25 7.3496 0.067 0.36667 0.29922 0.9345 0.69922 1.7012 0.2 0.66667-0.033 1.2326-0.69922 1.6992-0.1333 0.1-0.26709 0.29961-0.40039 0.59961-0.3 0.63333-0.64883 0.71666-1.0488 0.25-0.2667-0.33333-0.83447-0.69961-1.7012-1.0996-0.1-0.0333-0.38291-0.0488-0.84961-0.0488-0.3667-0.0333-0.6167-0.15156-0.75-0.35156-0.022-0.0347-0.0522-0.0669-0.0742-0.10156-0.034-0.0851 0.0356-0.1604-0.0254-0.24805l-1.9004-2.6504-0.0508-0.0488c-0.6924-1.041-1.4011-1.7923-2.1016-2.6856-0.3882-0.49914-0.69346-1.0208-1.0977-1.5156-0.1529-0.18775-0.36714-0.36739-0.52344-0.55469-0.1435-0.158-0.28198-0.39302-0.42578-0.54492v-0.0488l-5.25-5.75c-0.4159-0.40638-1.2338-1.073-2.4512-2l-4.5488-3.4512-0.0508-0.0488c-0.035-0.0278-0.096-0.0209-0.13672-0.041-1.0666-0.80295-2.3316-1.7303-2.9629-2.2598-0.7-0.6-1.1671-0.74922-1.4004-0.44922-0.1667 0.2-0.14962 0.39961 0.0508 0.59961 0.1333 0.13333 0.33291 0.28255 0.59961 0.44922 0.8414 0.66111 1.6999 1.6462 2.5684 2.7949 0.016 0.0418-0.0347 0.0707-0.0137 0.11328l0.5957 0.89258c1.3495 1.7268 2.865 4.0756 4.5488 7.0488l1.2012 2.0508c1.7273 3.0117 2.9095 5.1609 3.5488 6.4492v0.0508c0.303 0.69687 1.053 2.2143 2.25 4.5508h-0.0488l0.19919 0.34947c0.049 0.0478 0.0816 0.0982 0.0996 0.15039 0.031 0.15016 0.19655 0.11217 0.25195 0.22852 0.182 0.35055 0.21003 0.64536 0.0488 0.87109-1.2 1.8667-2.0004 3.3337-2.4004 4.4004-0.9667 2.3-1.6004 4.4318-1.9004 6.3984-0.1 0.56666-0.23369 2.3671-0.40039 5.4004 0 0.46667 0.035 0.76706 0.10156 0.90039 0.1 0.33333 0.36553 0.43411 0.79883 0.30078l2.75-1.0508c0.6667-0.26667 1.7171-0.49922 3.1504-0.69922 1.4333-0.23333 2.4837-0.48333 3.1504-0.75 0.4082-0.16806 0.5546 0.1306 0.7207 0.39453l2.6797 11.055c0.051 0.13841 0.051 0.25469 0 0.34961-0.054 0.13138-0.1375 0.21471-0.25 0.25-0.1158 0.0597-0.23396 0.0597-0.35156 0-0.1178-0.0249-0.21663-0.0907-0.29883-0.19922l-0.15035-0.25c-0.9569-1.7551-1.6894-3.038-2.1992-3.8496-0.3048-0.50169-0.73898-1.0695-1.3008-1.7012-0.1104-0.13125-0.2771-0.24753-0.5-0.34961-0.056-0.0239-0.10599-0.0569-0.15039-0.0996l-0.0996-0.0996c-0.018-0.0167-0.0348-0.0341-0.0508-0.0508-0.043-0.0538-0.12552-0.0298-0.16992-0.0801-0.303-0.24776-0.54031-0.66405-0.87891-0.82031-0.2864-0.12273-0.57287 0.0474-0.85937 0-0.2736-0.0645-0.43234-0.35107-0.74024-0.34961-0.3914 2e-3 -0.78368 0.2331-1.1758 0.34961-0.01 4e-3 -0.0174-4e-3 -0.0254 0-0.011 7e-3 -0.0144 9e-3 -0.0254 0.0156-0.3751 0.11624-0.75 0.11236-1.125 0.33399-0.077 0.0643-0.1607 0.0992-0.25 0.10156-0.088-2e-3 -0.1717-0.0369-0.25-0.10156l-0.44922-0.25 0.0508 0.0508c-0.4271-0.16302-0.87866-0.24635-1.3516-0.25-0.2392 1e-3 -0.4302 0.1277-0.6543 0.16797-0.036 3e-3 -0.0597-0.0217-0.0957-0.0176-0.1293 0.01-0.16741 0.0974-0.28711 0.11523-0.3453 0.1014-0.6936 0.19611-1 0.39844-0.2138 0.11534-0.55839 0.11878-0.71289 0.28516-0.8667 0.93333-1.5333 2.0012-2 3.2012-0.2835 0.70868-0.34033 1.8542-0.51953 2.7637-0.053 0.23254-0.18377 0.34355-0.23047 0.58594-0.046 0.25875-0.0528 0.81598-0.0918 1.1289-0.057 0.51306-0.22651 0.80855-0.25781 1.3711l-0.29883 5.25c0 0.88871 0.12053 2.2817 0.33203 4.0469 0.017 0.15714-1e-3 0.18839 0.0176 0.35351l0.0703 0.46289c0.2742 2.5895 0.49098 4.5114 0.58008 4.9863 0.2101 1.4009 0.53195 2.8208 0.83984 4.2383l0.50977 3.3125c0.02 0.1102 0.088 0.167 0.12695 0.25586 0.01 0.0632 0.0174 0.0786 0.0254 0.14453 0.015 0.0684 0.1009 0.0799 0.1211 0.14453 0.013 0.0139 0.0114 0.0418 0.0254 0.0547 0.01 8e-3 0.0203 4e-3 0.0293 0.0117 0.2065 0.58196 0.51659 1.0788 1.1211 1.3379-0.067-0.23333-0.067-0.46589 0-0.69922 0.1-0.23333 0.15039-0.41745 0.15039-0.55078 0.024-0.12217 0.0502-0.41298 0.0742-0.55859 0.015-0.053 0.0712-0.081 0.0762-0.14063v-0.0508l0.25-1.6992c0.01 3.9e-4 0.01-0.0171 0-0.0508 0.172-0.65078 0.27083-1.3329 0.29883-2.0488 0.1016-1.3243 0.48529-3.1247 1.1504-5.4004l1.6504-5.8008c0.3157-1.268 0.66648-2.4676 1.0508-3.5996l0.54883-1.5508c0.05-0.076 0.11827-0.14193 0.20117-0.19922 0.082-0.0623 0.1655-0.0953 0.25-0.0996 0.1247-5e-3 0.22353 0.0108 0.29883 0.0488 0.098 0.0721 0.16587 0.15547 0.20117 0.25 1.0112 2.3892 1.6429 3.99 1.8984 4.8008 0.7419 2.2462 1.1872 3.76 1.5527 5.0762 0.1278 0.5058 0.20296 0.656 0.34766 1.2734 0.065 0.28425 0.24142 0.92579 0.32812 1.2793 0.4397 1.7234 0.84628 3.3686 1.1426 4.7676 0.084 0.4924 0.1628 0.92113 0.2793 1.8535 0.1453 0.95866 0.29025 1.6616 0.43555 2.2656 0.1196 0.78857 0.31753 1.8297 0.36523 2.3848l0.45313 3.0898c0.1233 0.87936 0.24594 1.6875 0.36914 2.9004 0.3369 2.7635 0.52874 6.634 0.52734 11.959v1.1505c0 0.12201-0.054 0.22279-0.15039 0.30078-0.054 0.11003-0.1377 0.17591-0.25 0.19922-0.123 0.0237-0.23931 6e-3 -0.34961-0.0508-0.059-0.0359-0.094-0.10865-0.13867-0.16602l-0.0117-0.0332c-0.092-0.25182-0.25622-0.49487-0.35352-0.74609l-0.29692-0.75389c-0.2704-0.69186-0.72292-1.378-1.041-2.0684-0.6567-1.4125-1.1939-2.8398-2.0078-4.2324-0.8333-1.4667-2.1667-3.1663-4-5.0996-1.2333-1.3667-2.5512-2.6322-3.9512-3.7988-1.0667-0.83333-2.4329-1.75-4.0996-2.75-0.4248-0.26906-1.2915-0.65921-1.8906-0.97656-0.1319-0.0728-0.22537-0.1522-0.35937-0.22461-0.1691-0.0868-0.21801-0.078-0.37891-0.1582-0.6427-0.32374-1.0157-0.57319-1.8203-0.94141-0.3748-0.16657-1.1861-0.36273-1.7285-0.54102 0-1e-3 -0.0175-9e-3 -0.0215-0.01l-0.0156-2e-3c-0.7536-0.24637-1.3122-0.47989-2.3848-0.74805l-0.15039-0.0488c-0.5667-0.16667-1.0337-0.0174-1.4004 0.44922-0.067 0.1-0.032 0.23372 0.10156 0.40039 0.1 0.13333 0.23174 0.21667 0.39844 0.25 0.4 0.1 0.75078 0.24922 1.0508 0.44922 0.4667 0.23333 0.9667 0.60156 1.5 1.1016 2.5667 2.3667 4.8826 4.8492 6.9492 7.4492 2.0667 2.7 3.65 5.0992 4.75 7.1992 0.6889 1.2839 1.6238 3.3939 2.7246 6.0606 0.6061 1.6042 1.0806 3.0923 1.2266 4.291 0.012 0.0956-0.01 0.17891-0.0508 0.25-0.066 0.15261-0.0986 0.31927-0.0996 0.5v0.59961c5e-4 0.26406 0.084 0.49661 0.25 0.69922 0.1805 0.16641 0.38011 0.24974 0.59961 0.25h28.451c0.2475 4e-3 0.44711-0.0793 0.59961-0.25h0.0488c0.166-0.20273 0.2494-0.43529 0.25-0.69922v-1.0996c0-0.32682-0.11161-0.57682-0.34961-0.75-0.045-0.0356-0.072-0.0877-0.10156-0.13672 0.011-0.82636-0.0362-1.1147-0.0332-1.8711 0.045-0.88469 0.10246-1.8088 0.0352-2.3438-0.089-0.64375-0.12311-1.7451-0.13281-3.043-0.037-1.0989-1.1e-4 -2.8834-0.0664-3.707-0.067-1.0667-0.0838-2.3826-0.0508-3.9492l0.0508-3.9492c-0.1-4.6665-0.16787-7.2849-0.20117-7.8516-0.2-3.1667-0.39961-5.533-0.59961-7.0996-0.1-2.5333-0.24922-4.4171-0.44922-5.6504-0.5-3.2333-0.95156-5.65-1.3516-7.25-0.5667-2.5-0.9-3.9496-1-4.3496-0.4-1.6-0.84961-2.9992-1.3496-4.1992l-0.0488-0.34961c0-0.0333 0.066-0.0508 0.19922-0.0508 1.4333 0.83333 2.3325 1.6841 2.6992 2.5508 0.6667 1.5333 1.0679 3.0159 1.2012 4.4492 0.2 1.6 0.64961 3.9992 1.3496 7.1992 0.4667 2.9 0.90078 6.4678 1.3008 10.701 0.2 2.4 0.33174 5.3167 0.39844 8.75l0.0508 12.4c0 0.26667 0.0326 0.79961 0.0996 1.5996 0.067 0.63333 0.0838 1.1488 0.0508 1.5488-0.1333 0.93333-0.18369 2.1349-0.15039 3.6016 0.033 1.9333 0.033 3.1155 0 3.5488 0 0.1 0.083 0.23372 0.25 0.40039 0.2-0.1 0.30078-0.18333 0.30078-0.25 0.067-2.7333 0.15-4.7663 0.25-6.0996 0.1-1.0333 0.11553-2.4171 0.0488-4.1504-0.1-2-0.13261-3.3837-0.0996-4.1504 0.1-2.7667 0.1-5.4992 0-8.1992-0.033-1.3667-0.14961-3.3512-0.34961-5.9512l-0.59961-7.6484-0.15039-2.4004c-0.1-0.96667-0.21631-1.7845-0.34961-2.4512-0.4667-2.2333-0.43409-4.0667 0.0996-5.5 0.4-1.1333 0.78369-2.55 1.1504-4.25 0.3667-1.9333 0.64961-3.3829 0.84961-4.3496 0.067-0.76667 0.13252-1.3326 0.19922-1.6992 0.1-0.66667 0.35-1.1996 0.75-1.5996 0.8-0.76666 1.6508-2.0167 2.5508-3.75-0.067 0.86667-0.2333 2.1651-0.5 3.8984-0.2667 2.6667-0.40039 4.6512-0.40039 5.9512 0 0.56667-0.066 1.5667-0.19922 3-0.1 1.3-0.13486 2.3155-0.10156 3.0488 0.033 0.53333 0.0182 1.3182-0.0488 2.3516-0.067 1.0667-0.0996 1.8496-0.0996 2.3496 0 0.53333-0.068 1.3822-0.20117 2.5488-0.1 1.1-0.15039 1.9508-0.15039 2.5508 0 0.53333-0.048 1.5508-0.14844 3.0508-0.067 1.2667-0.067 2.2822 0 3.0488 0.1333 1.2333 0.05 3.0996-0.25 5.5996-0.1667 3.8332-0.23447 7.1512-0.20117 9.9512 0 0.6-0.05 1.9663-0.15039 4.0996-0.062 1.592-0.0371 2.8501 0.0469 3.8867l-0.24609 6.5625c0 0.0875-0.0178 0.15534-0.0508 0.20117-0.038 0.0865-0.086 0.15235-0.14844 0.19922-0.2333 0.16966-0.35156 0.40416-0.35156 0.70117v0.34961c5e-4 0.26406 0.084 0.49661 0.25 0.69922 0.187 0.16784 0.40409 0.25117 0.65039 0.25h24.451c0.2476 4e-3 0.44721-0.0793 0.59961-0.25h0.0488c0.166-0.20273 0.2494-0.43529 0.25-0.69922v-0.70117c0-0.15989-0.048-0.30911-0.14844-0.44922l-0.0508-0.0508-0.19922-0.29883c-0.034-0.0594-0.0508-0.14273-0.0508-0.25-0.044-1.543 0.15093-2.5523 0.29883-3.668 0.1332-1.007 0.26709-2.1103 0.40039-2.7324 0.2667-1.0667 0.73369-2.6674 1.4004-4.8008 0.9667-3.2 1.6004-5.1322 1.9004-5.7988 1.2667-3.0667 2.35-5.4174 3.25-7.0508 1.6-3.0667 3.2163-5.6171 4.8496-7.6504 0.9667-1.2 1.9512-2.3318 2.9512-3.3984 1.5666-1.6333 3.1325-2.9512 4.6992-3.9512l0.80078-0.5c0.2667-0.16667 0.36553-0.31589 0.29883-0.44922-0.1667-0.26667-0.3333-0.36745-0.5-0.30078l-0.59965 0.15069c-0.8109 0.20274-1.308 0.4392-1.9356 0.66211-0.056-0.0129-0.10726-0.0578-0.16406-0.0625l-0.34961 0.0508 0.0488-0.0508-0.19922 0.0508h0.0488c-0.2881 0.10599-0.52072 0.18932-0.69922 0.25-4e-4 0.01-0.0178 0.01-0.0508 0-1.295 0.6457-3.1109 1.7949-5.4492 3.4492l-0.80078 0.59961c-0.7182 0.52786-1.5166 1.1945-2.3984 2h-0.0507l-1.6504 1.4004v0.0508c-0.063 0.0494-0.14158 0.14473-0.20508 0.19531-0.5138 0.43633-1.2701 1.0967-1.6445 1.4043-0.1339 0.13394-1.4728 1.5076-2.3535 2.4102-0.4329 0.44846-0.79849 0.69701-1.2461 1.1894v0.0508c-0.088 0.0942-0.12258 0.15693-0.20898 0.25-0.1662 0.17064-0.11332 0.1164-0.29102 0.29883-0.1937 0.20696-0.21814 0.33087-0.40234 0.5332-1.1862 1.3264-2.3449 2.6372-3.0977 3.7168-0.059 0.1181-0.15978 0.18594-0.30078 0.20117-0.095 0.0511-0.19373 0.0511-0.29883 0-0.1136-0.0534-0.1969-0.13673-0.25-0.25-0.032-0.072-0.0263-0.1468-0.0312-0.2207 0.014-0.0803 0.0691-0.258 0.0801-0.33008 0.065-0.44194 0.28027-1.0654 0.41797-1.5957l0.43157-1.504c0.6836-2.371 1.706-4.7152 2.957-7.041 0.4958-0.95855 0.60192-1.1024 0.97852-1.8125 1.2793-2.2851 2.5018-4.4416 3.416-5.8965 0.7203-1.0956 1.8597-2.5722 2.9102-3.9688 0.795-1.0436 1.5953-2.1036 2.3066-2.9219 0.7987-0.95678 2.1777-2.4229 3.6328-3.9551 1.0632-1.0929 2.4108-2.5742 3.0996-3.1543 1.9-1.6333 3.15-2.6333 3.75-3l0.44922-0.25c0.1-0.0333 0.15039-0.16706 0.15039-0.40039-0.067-0.13333-0.18291-0.19922-0.34961-0.19922h-0.25c-0.398 0-1.027 0.29065-1.4688 0.3457-0.1316-0.10027-0.23464-0.24256-0.43164-0.24609l-0.40039 0.0508-0.84961 0.19922c-0.895 0.28281-1.5947 0.51537-2.0996 0.69922h0.0508c-0.3298 0.13958-0.45291 0.22271-0.75781 0.35547-0.076 0.0294-0.11696 0.0145-0.19336 0.0449-0.1408 0.0554-0.26595 0.1768-0.40625 0.23437-1.2586 0.56176-2.5698 1.1389-3.3438 1.5664-0.6697 0.3664-2.2446 1.4901-3.7051 2.5176-0.3534 0.25709-0.74415 0.35994-1.0938 0.63281-0.2129 0.1659-0.28478 0.27905-0.48828 0.44141-0.01 4e-3 -0.01 4e-3 -0.0117 8e-3l-1.3008 1.0508c-0.4351 0.32951-1.1596 1.1627-1.6856 1.6504-0.5117 0.49388-1.3192 1.0983-1.7148 1.5488-0.3241 0.35269-0.40297 0.48496-0.70117 0.81445-0.2329 0.2535-0.35326 0.31251-0.59766 0.58594l-0.75 0.90039c-0.269 0.30035-0.37786 0.52384-0.63086 0.81641-0.7132 0.83663-1.7676 1.9779-2.2207 2.582-0.4982 0.64676-0.72522 1.1752-1.166 1.7969-0.154 0.23195-0.44378 0.52857-0.58398 0.75391l-1.6484 2.5508c-0.045 0.11055-0.1284 0.17643-0.25 0.19922-0.091 0.0517-0.19158 0.0517-0.30078 0-0.103-0.013-0.1863-0.0634-0.25-0.15039-0.048-0.0643-0.0593-0.13984-0.0723-0.21484 0.042-0.45182 0.10021-1.0239 0.12891-1.3652 0.018-0.19895 0.0511-0.42872 0.0781-0.64648 0.276-2.7759 0.93422-6.1934 2.0156-10.322 0.5276-2.055 1.0921-3.8885 1.666-5.666 0.01-0.0301 0.082-0.21809 0.084-0.23438 0.3865-1.3016 1.1365-3.1853 2.25-5.6504l1.0332-2.2227c0.7723-1.5974 1.5961-3.3287 2.2168-4.5273 0.9648-1.7956 1.7993-3.1242 2.6133-4.3809 0.5206-0.82179 0.95963-1.4971 1.2695-1.9375 1.9428-2.9015 3.7499-5.447 5.2676-7.2324 1.0338-1.2285 1.5564-1.7803 2.4258-2.791 0.7536-0.86066 1.5529-1.8165 2.2734-2.6074l0.75-0.80078c1.9553-2.0616 3.5212-3.4957 4.6992-4.3008 0.125-0.0882 0.0519-0.23475 0.11914-0.33984 0.053-0.0354 0.12904-0.12671 0.18164-0.16016l0.65039-0.34961c0.1667-0.0667 0.25-0.18294 0.25-0.34961 0-0.23333-0.083-0.34961-0.25-0.34961l-0.65039-0.0996c-0.2222-0.0111-0.45759 0.0417-0.68359 0.0488-0.034-3e-3 -0.0304-0.0489-0.0664-0.0488h-0.30078c-0.025 2e-3 -0.0576 2e-3 -0.0996 0l-0.25-0.0508-0.59961 0.15039 0.0508-0.0508c-0.5324 0.18651-0.88983 0.41267-1.3945 0.60547-1.0376 0.33891-2.1163 0.70116-4.207 1.6445-0.4145 0.19131-0.61144 0.41702-0.99414 0.61328-0.059 0.0317-0.14678 0.0561-0.20508 0.0879v-0.051c-0.1301 0.0738-0.36815 0.31682-0.50195 0.39648-1.2668 0.70255-2.6234 1.3917-3.498 2.1543-2.3667 1.9333-4.0992 3.4333-5.1992 4.5-0.2695 0.25644-0.41427 0.50059-0.67187 0.75586-0.073 0.0676-0.10639 0.0742-0.17969 0.14258h-0.0488c-0.7289 0.7-1.7134 1.8337-2.9512 3.4004l-0.30274 0.37891c-0.2905 0.36981-0.73179 0.7537-0.99609 1.1211-0.1667 0.1-0.30039 0.18333-0.40039 0.25-0.1-0.2-0.15039-0.31628-0.15039-0.34961l-0.90039-2.6504c-0.5333-0.96667-0.93252-1.6992-1.1992-2.1992-0.4625-0.80167-0.51782-1.5862-0.32422-2.3594l0.82415-3.9902c0.1475-0.7077 0.27406-1.0536 0.41406-1.6328l0.98633-3.4688c0.1738-0.62204 0.21392-0.69437 0.35742-1.1934l0.24219-0.75586c0.7935-2.3572 1.3109-3.8242 1.5508-4.4004h-0.0234c0.3132-0.74473 0.66-1.5529 0.8711-2.0996 0.5452-1.3055 0.81477-1.7701 1.2637-2.7812 0.6927-1.5818 1.3983-3.1799 2.5059-5.293l0.38277-0.67578c1.4518-2.6233 2.6844-4.6059 3.6992-5.9492 1.0907-1.4909 2.0249-2.8591 2.8008-4.1016 0.5876-0.85443 1.5527-2.1199 2.8984-3.7988v-6e-3c0.2537-0.31477 0.49334-0.58564 0.74414-0.89062l0.35742-0.4043v-0.0215c0.062-0.075 0.12345-0.14827 0.18555-0.22265 1.3286-1.6404 3.2899-3.7123 6.0137-6.3047v-0.05063c0.059-0.0471-0.0196-0.1197 0.0234-0.16992l0.87695-0.67969c0.2-0.1 0.23261-0.29961 0.0996-0.59961-0.1-0.23333-0.28408-0.31667-0.55078-0.25zm-91.494 32.207-0.01-8e-3v0.0508c-0.01-0.0163 0.0128-0.0268 0.01-0.043zm44.596 1.5431c0.3333-0.0333 0.61631 0.0984 0.84961 0.39844 0.1333 0.2 0.3 0.50039 0.5 0.90039 0.4 0.63333 0.71592 1.4512 0.94922 2.4512 0.1 0.6 0.25117 1.4663 0.45117 2.5996l0.14844 0.34947c0.067 0.13333 0.067 0.26706 0 0.40039l0.25 2.3496c0.067 0.26667-0.032 0.33255-0.29883 0.19922-2.4333-1.5333-3.8675-3.8996-4.3008-7.0996-0.1667-1.5 0.31787-2.3488 1.4512-2.5488zm-16.352 2.3495c0.6-0.23333 1.0845-0.21757 1.4512 0.0488 0.3 0.23333 0.4667 0.56667 0.5 1 0 0.1-0.0178 0.48372-0.0508 1.1504-0.1333 1.2333-0.44922 2.5841-0.94922 4.0508-0.3 0.76667-0.83291 2.0496-1.5996 3.8496-0.1 0.23333-0.6 1.2508-1.5 3.0508-0.033 0.13333-0.068 0.21667-0.10156 0.25-0.067 0.0667-0.13252-1e-3 -0.19922-0.20117l-0.1992-0.3496c-0.5333-2.1333-0.81826-3.8504-0.85156-5.1504 0.1333-1.5 0.28447-2.6337 0.45117-3.4004 0.2667-1.3333 0.78213-2.4322 1.5488-3.2988 0.4-0.46667 0.9-0.8 1.5-1zm9.2012 6.5487c0.3333 0.13333 0.53291 0.33489 0.59961 0.60156 0.067 0.2 0.11709 0.7155 0.15039 1.5488 0 1.3333-0.46709 3.2674-1.4004 5.8008-0.3 0.83333-0.91631 2.3663-1.8496 4.5996-0.1 0.16667-0.16787 0.26745-0.20117 0.30078-0.067 0.0333-0.11514 0.0159-0.14844-0.0508 0-0.1-0.0178-0.16589-0.0508-0.19922-1.2333-2.4333-1.7333-4.7512-1.5-6.9512 0.1333-1.2667 0.3-2.1988 0.5-2.7988 0.3-1 0.81748-1.8004 1.5508-2.4004 0.7333-0.63333 1.5163-0.7845 2.3496-0.45117zm10.85 2.4005c0.8 0.86667 1.3504 2.1671 1.6504 3.9004 0.4667 2.3333 0.7167 3.8992 0.75 4.6992 0.067 0.96666-0.13291 1.6837-0.59961 2.1504-0.1667 0.16667-0.40117 0.10078-0.70117-0.19922-1.5-2.2333-2.0988-4.7333-1.7988-7.5 0.2333-1.5667 0.46592-2.5841 0.69922-3.0508zm9.957 3.0469h6e-3l0.33789 0.0527c0.062-3e-3 0.088-0.0261 0.13867-0.0352 0.5035 0.0688 1.0194 0.27703 1.5391 0.52539 0.623 0.37562 0.89828 0.69153 1.334 1.0352 0.8641 0.67892 1.7389 1.3927 2.8379 2.875 1.3 1.7 2.05 3.5837 2.25 5.6504 0 0.0763 0.18696 1.0147 0.38086 1.9824 0.1062 0.95284 0.22015 1.9049 0.21875 2.8672-2e-4 0.0545 0.0302 0.0798 0.0352 0.12891-0.01 0.0756 0.0286 0.19977 0.0156 0.27148l-0.20117 2.1504c-1.1667-2.8333-2.75-5.0504-4.75-6.6504-2.7666-2.3333-5.6833-3.6996-8.75-4.0996-0.7 0.0333-1.2329 3e-4 -1.5996-0.0996-0.2667-0.0667-0.35-0.23333-0.25-0.5 0.8995-2.8983 2.4487-4.8491 4.6465-5.8496v-2e-3c0.5894-0.25844 1.1964-0.31709 1.8106-0.30274zm-11.406 1.2031c-0.1333 1.0667-0.05 2.1345 0.25 3.2012 0.1667 0.53333 0.53291 1.3996 1.0996 2.5996 0.1 0.3 0.38291 0.66628 0.84961 1.0996 0.1667 0.3 0.13399 0.56745-0.0996 0.80078-0.3 0.36667-0.4667 0.58177-0.5 0.64844-0.033 0.13333-0.13408 0.36784-0.30078 0.70117-0.1333 0.53333-0.3 0.84922-0.5 0.94922-0.1 0.0667-0.21631 0.0163-0.34961-0.15039l-0.40039-0.39844c-0.4667-0.3-0.83291-0.51706-1.0996-0.65039-0.4-0.23333-0.78369-0.36706-1.1504-0.40039-0.5-0.0667-0.75-0.31667-0.75-0.75-0.1667-2 0.55039-4.0659 2.1504-6.1992zm-21.4 2.0996c0.2-0.0333 0.29883 0.15078 0.29883 0.55078l0.20117 3.6504c0.033 0.13333-0.034 0.18372-0.20117 0.15039-0.2667 0.0333-0.46631 0.0488-0.59961 0.0488-0.2333 0-0.36709-0.16667-0.40039-0.5 0-0.26667-0.11631-0.74922-0.34961-1.4492-0.1-0.26667-0.017-0.71628 0.25-1.3496 0.2667-0.7 0.53408-1.0682 0.80078-1.1016zm12.049 0.05079 0.25 0.25c0.8 1.9667 1.2167 3.7826 1.25 5.4492 0 0.23333-0.083 0.36706-0.25 0.40039-0.2 0.0333-0.33174 0.0663-0.39844 0.0996-0.7333 0.3-1.3341 0.68372-1.8008 1.1504 0.1667-0.73333 0.017-1.2488-0.44922-1.5488-0.4667-0.36667-0.65078-0.78333-0.55078-1.25 0.033-0.23333 0.21748-0.6345 0.55078-1.2012 0.2-0.33333 0.41514-0.84883 0.64844-1.5488 0.2667-0.73333 0.48369-1.2508 0.65039-1.5508zm-17.25 0.44922c0.7667 0.0667 1.5012 0.3845 2.2012 0.95117 0.6667 0.56667 1.0833 1.1829 1.25 1.8496 0.1 0.33333-0.034 0.58333-0.40039 0.75-0.4333 0.1-0.73369 0.18333-0.90039 0.25-1.8667 0.66667-3.9655 1.9826-6.2988 3.9492-2.1333 1.8667-3.8175 3.8667-5.0508 6-1.1667 2.1-1.8508 3.4004-2.0508 3.9004-0.1-1.6333 0.26826-3.8659 1.1016-6.6992 0.7667-2.4667 1.4159-4.1508 1.9492-5.0508 1.1667-2.0667 2.4496-3.5667 3.8496-4.5 1.5333-1 2.983-1.4671 4.3496-1.4004zm31.801 3.6503c0.033 0 0.7 0.10078 2 0.30078 0.7667 0.13333 1.4159 0.28255 1.9492 0.44922 2.6 0.93333 4.8345 2.2841 6.7012 4.0508l0.90039 0.84961-0.10156 0.0996c-0.9667-0.63333-1.6817-1.1004-2.1484-1.4004-0.8667-0.53333-1.6167-0.95-2.25-1.25-0.8333-0.4-2.4516-0.96589-4.8516-1.6992-1.1-0.2-1.9333-0.36667-2.5-0.5-0.2 0-0.3667-0.0174-0.5-0.0508-0.2-0.0333-0.2833-0.13216-0.25-0.29883 0.1-0.46667 0.45078-0.65078 1.0508-0.55078zm-26.35 0.84963c-3.1333 1.1-6.2496 2.7841-9.3496 5.0508l-1 0.65039h-0.30078c0.067-0.13333 0.15-0.33294 0.25-0.59961 2.8333-2.5333 5.25-4.1671 7.25-4.9004 0.8667-0.33333 1.9171-0.40117 3.1504-0.20117zm25.295 0.49999h4e-3c0.4667 0.0333 1.1333 0.2 2 0.5 1.8667 0.36667 3.7679 1.0178 5.7012 1.9512 2.5666 1.2667 4.5996 2.7337 6.0996 4.4004 1.0667 1.2 1.8825 2.6322 2.4492 4.2988 0.01 0.0116 0 7e-3 0 0.0176-0.016 0.0448-0.0167 0.097-0.0527 0.13281-0.014 0.033-0.0503 0.0423-0.0703 0.0684-0.075 0.0125-0.1135 0.0312-0.27929 0.0312-0.9717-0.17491-1.6407-0.15297-2.4199-0.20313-0.045-5e-3 -0.085-0.0465-0.13086-0.0469l-0.73047-0.0273c-0.25519-2e-3 -0.63884-0.0862-0.86914-0.0723-0.3092 0.0132-0.4641 0.0787-0.75 0.0996-0.5382 0.0394-0.95671 0.11851-1.4121 0.18555-0.049-8e-3 -0.083-0.0338-0.13868-0.0352l-0.40039 0.0508h0.0508c-0.6634 0.13685-1.396 0.20273-2.1992 0.19922h-1.4512c-0.01 3e-5 -0.0144 2e-3 -0.0234 2e-3 -0.7286-0.0739-1.0184-0.12604-1.4434-0.18554-0.1874-0.0612-0.32834-0.16544-0.58203-0.16602h-0.35157c-0.042-3e-3 -0.091-0.0208-0.14843-0.0508-0.764-0.17295-1.6557-0.53749-2.6328-1.0332-0.3336-0.23906-0.73427-0.43913-0.91797-0.76563-0.1667-0.23333-0.23251-0.60156-0.19921-1.1016 0-0.6-0.0178-0.98177-0.0508-1.1484-0.3-1.4667-0.73408-2.5345-1.3008-3.2012-0.3667-0.5-0.45-1-0.25-1.5 0.3333-0.56667 0.56787-0.98333 0.70117-1.25 0.3667-0.86667 0.96553-1.2504 1.7988-1.1504zm-16.096 0.15038c0.1-0.0667 0.25117 0.0845 0.45117 0.45117 0.2667 0.53333 0.4333 0.83177 0.5 0.89844-0.067 0.13333-0.0512 0.33489 0.0488 0.60156 0.033 0.16667 0.0182 0.23255-0.0488 0.19922-0.2333-0.1-0.65-0.0671-1.25 0.0996-0.5 0.13333-0.80039 0.0675-0.90039-0.19922-0.1333-0.3-0.05-0.68372 0.25-1.1504 0.2667-0.4 0.58252-0.70039 0.94922-0.90039zm-9.1504 0.0996c0.4333-0.23333 0.9333-0.18294 1.5 0.15039 0.5333 0.33333 0.91709 0.78294 1.1504 1.3496 0.3 0.9 0.45117 1.4678 0.45117 1.7012 0 1.4-0.78486 2.8496-2.3516 4.3496-1.4333 1.4333-3.4818 2.5826-6.1484 3.4492-0.8333 0.3-1.9845 0.58489-3.4512 0.85156-1.7667 0.36667-2.9159 0.61667-3.4492 0.75-0.8333 0.16667-1.4496 0.31589-1.8496 0.44922-0.7333 0.16667-1.3341 0.39922-1.8008 0.69922l-0.30078 0.0508c0.1-0.56667 0.15039-0.88255 0.15039-0.94922 0.9333-2.2667 2.4508-4.3171 4.5508-6.1504 0.3667-0.3 1.6167-1.1333 3.75-2.5 0.7-0.46667 1.7659-1.1663 3.1992-2.0996 0.6-0.36667 1.35-0.73489 2.25-1.1016 0.5333-0.23333 1.3163-0.56667 2.3496-1zm17.051 0.95124c1.6 0.4 2.8325 0.9155 3.6992 1.5488 1.1 0.8 1.8849 1.9182 2.3516 3.3516 0.6333 2.0667 0.56553 4.4-0.20117 7-0.5667 1.7333-1.5337 3.433-2.9004 5.0996-0.8 1-2.2167 2.4496-4.25 4.3496l0.55078-3.5c0.1667-1.5 0.14962-2.9341-0.0508-4.3008-0.7-4.8-2.2155-8.8833-4.5488-12.25-0.2667-0.43333 0.034-0.76667 0.90039-1 1.5333-0.53333 3.0159-0.63216 4.4492-0.29883zm-7.4004 1.8496c0.8667-0.16667 1.5333 0.0659 2 0.69922 0.2667 0.33333 0.58447 0.95156 0.95117 1.8516 1.0667 1.9667 1.9329 4.5151 2.5996 7.6484 0.5 2.7333 0.53261 5.2004 0.0996 7.4004-0.2333-2.2-0.4-3.5663-0.5-4.0996-0.4667-2.4667-0.90078-4.2826-1.3008-5.4492-0.5667-1.7333-1.4155-3.65-2.5488-5.75-0.1-0.16667-0.58447-0.81784-1.4512-1.9512l-0.14844-0.29883zm-1.75 0.19922c0.3667-0.1 0.66709 0.0182 0.90039 0.35156 0.1667 0.2 0.36631 0.51589 0.59961 0.94922 1 1.2667 1.9671 3.1174 2.9004 5.5508 0.6667 1.7333 1.1163 3.3496 1.3496 4.8496 0.1333 1.2667 0.26709 2.0167 0.40039 2.25 0.3 2.8333 0.4667 4.4496 0.5 4.8496 0.1 0.5 0.0674 0.80039-0.0996 0.90039-0.1333 0.0667-0.2167 0.0337-0.25-0.0996-0.067-0.16667-0.11709-0.28489-0.15039-0.35156-0.4333-0.6-1.0341-1.1833-1.8008-1.75-0.9333-0.6-1.6329-1.0651-2.0996-1.3984-2.4666-1.7-4.1004-3.0333-4.9004-4-0.2667-0.36667-0.5167-0.86667-0.75-1.5-0.2667-0.73333-0.48174-1.2837-0.64844-1.6504l-1-2.4512c-0.5-1.4333-0.11816-2.85 1.1484-4.25 0.9-1 2.2004-1.75 3.9004-2.25zm-2 14.201c0.1 0.0667 0.2667 0.15 0.5 0.25 0.3 0.4 0.73408 0.78372 1.3008 1.1504 0.3 0.23333 0.78252 0.54922 1.4492 0.94922 0.4 0.3 0.68291 0.73412 0.84961 1.3008 0.1 0.33333 0.21826 0.81589 0.35156 1.4492 0.5 1.1667 0.96514 2.7674 1.3984 4.8008 0.3 1.1667 0.65078 2.9322 1.0508 5.2988 0.6333 2.9667 1.0171 5.5345 1.1504 7.7012 0.067 0.96667 0.21592 2.3988 0.44922 4.2988 0.2667 2.5 0.46631 5 0.59961 7.5v2.4512h-0.0762l-0.22263-2.0508c-0.031-0.24935-0.082-0.50411-0.11523-0.75391-0.051-0.53857-0.18555-1.9044-0.18555-1.9453-0.059-0.4703-0.29929-1.7045-0.61719-3.2637-0.032-0.18015-0.049-0.35674-0.082-0.53711v-0.0508c-0.2906-1.7681-0.43565-2.476-0.62305-3.4902l-0.0273-0.1582c-0.01-0.0245 2.3e-4 -0.0148-0.01-0.0391-0.1-0.53235-0.27329-1.6059-0.34179-1.9121l-0.30062-1.3496c-0.083-0.42572-0.17031-0.64945-0.25391-1.0449-0.017-0.0858-0.14178-0.67716-0.14648-0.70508-0.2347-1.0141-0.30836-1.1705-0.50586-1.9863-0.1316-0.49041-0.25938-1.1949-0.39258-1.6133l-0.11328-0.36914c-0.2492-0.95877-0.62681-2.6012-0.78711-3.082-1.2538-3.8838-1.9369-5.9149-2.293-6.8809l-0.4082-1.3184c0.01-0.0175 0.01-0.0349 0-0.0508l-0.0488-0.25-0.55078-1.5488c-0.4762-1.315-0.68974-1.8004-1.0195-2.6543zm13.051 3.3496c-0.6 3.3333-1.4004 6.9167-2.4004 10.75l-0.69922-3.9004c-0.2-1.0667-0.38408-1.8496-0.55078-2.3496-0.1-0.36667 7.8e-4 -0.73294 0.30078-1.0996 1.2666-1.5 2.3829-2.6337 3.3496-3.4004z"/>
 <g transform="translate(-773.5 -186.3)">
  <path transform="translate(160.15,84.1)" d="m618.35 102.2c-3.3333 0-5 1.6667-5 5v158.2c0 3.3333 1.6667 5 5 5h93.199c3.3333 0 5-1.6667 5-5v-158.2c0-3.3333-1.6667-5-5-5zm8.3008 7.1992h76.6c4.6667 0 7 2.3333 7 7v139.8c0 4.6667-2.3333 7-7 7h-76.6c-4.6667 0-7-2.3333-7-7v-139.8c0-4.6667 2.3333-7 7-7z" fill="#ef1d1e"/>
  <path transform="translate(160.15,84.1)" d="m626.65 109.4c-4.6667 0-7 2.3333-7 7v139.8c0 4.6667 2.3333 7 7 7h76.6c4.6667 0 7-2.3333 7-7v-139.8c0-4.6667-2.3333-7-7-7z" fill="none" stroke="#000" stroke-width="1.2"/>
 </g>
</svg>
