<svg width="103.2" height="168.2" preserveAspectRatio="none" version="1.1" viewBox="0 0 103.2 168.2" xmlns="http://www.w3.org/2000/svg">
 <path d="m13.301 7.1992c-4.6667 0-7 2.3333-7 7v139.8c0 4.6667 2.3333 7 7 7h76.6c4.6667 0 7-2.3333 7-7v-139.8c0-4.6667-2.3333-7-7-7z" fill="#fff"/>
 <path d="m52.201 37.049h-0.15l-13.15-0.45c-2.1667-0.0667-3.5-0.13333-4-0.2-2.0667-0.2-4.35-0.33333-6.85-0.4h-0.05c-0.4 0-0.7167 0.11667-0.95 0.35l-0.05 0.05c-0.1667 0.23333-0.25 0.58333-0.25 1.05v0.05l3.1 30.35-0.05-0.05 6.95 28.55c0.5667 1.7 1.1667 3.3667 1.8 5v0.05l2.65 7.05c0.4 0.96667 0.9667 2.2 1.7 3.7l3.4 6.95c0.9333 1.7667 1.95 3.5167 3.05 5.25 1.9333 3.0667 3.75 5.7167 5.45 7.95v0.05l0.25 0.4c0.4667 0.66667 0.9333 1.1167 1.4 1.35 0.3667 0.1 0.6667 0.15 0.9 0.15 0.2667 0 0.75-0.0833 1.45-0.25l-0.05 0.05 0.2-0.05c0.8667-0.23333 2.2-0.41667 4-0.55l2.3-0.2c2.5333-0.33333 5.5333-0.65 9-0.95l0.5-0.05h0.05c0.067 0 0.8667-0.05 2.4-0.15l1.5-0.1c0.067 0 0.1167 0.0167 0.15 0.05h0.55c0.7 0 1.15-0.28333 1.35-0.85 0.2-0.53333 0.033-1.0667-0.5-1.6 0-0.0333-0.017-0.0667-0.05-0.1l-0.15-0.3-8.65-14.35v-0.05c-0.3667-0.76667-0.7667-1.4667-1.2-2.1-1.0333-1.7-2.2167-4.0667-3.55-7.1l-1-2.15v0.05c-1.1-2.3667-1.8667-4.15-2.3-5.35v0.05l-0.75-2.1c-0.7-1.8667-1.15-3.3167-1.35-4.35-0.2-0.96667-0.5667-2.3667-1.1-4.2l-1.3-5.35-0.1-0.2c-0.033-0.0667-0.05-0.11667-0.05-0.15l-0.9-4.3c-0.7333-3.4667-1.1667-5.65-1.3-6.55l-1.35-7.2v-0.05l-1.55-18c-0.2333-3.5-0.3167-6.0167-0.25-7.55 0.033-0.36667-0.05-0.65-0.25-0.85-0.2333-0.23333-0.5-0.35-0.8-0.35l-0.1 0.05" fill="#1ca4da"/>
 <path d="m38.957 102.95-4.2187 10.188 10.5 3.5z" fill="#faea01"/>
 <path d="m73.602 18.648c-1.3884 0.0165-2.5066 0.7181-3.3516 2.1016-0.077 0.1094-0.1608 0.17529-0.25 0.19922-0.1151 0.0514-0.2139 0.0514-0.2988 0-0.1269-0.013-0.2277-0.0634-0.3008-0.15039-0.5839-0.73307-1.1342-1.2001-1.6504-1.4004l-0.5-0.14844c-0.017 9e-3 -0.032 9e-3 -0.049 0-0.5141-0.22593-1.0141-0.34416-1.5-0.35156l-0.5 0.0508c-0.8896 0.11172-1.5233 0.51094-1.9004 1.1992v-0.0488c-0.2377 0.52005-1.0052 1.3204-2.3008 2.4004-0.7218 0.35331-1.1866 0.83325-1.4492 1.1484-0.4296 0.38685-0.7455 0.8264-0.9453 1.3184-0.5604 0.72891-0.6395 4.3793-0.086 5.9648 0.1076 0.30824 0.2678 0.59779 0.4804 0.86719 0.2484 0.33763 0.6825 0.7543 1.3008 1.25 2.8996 4.6303 6.0094 5.6463 9.1992 5.3008l2.6504-0.20117c2.0371-0.21732 3.6379-0.89948 4.8008-2.0488 0.7173-0.33176 0.7842-1.1991 1.6992-1.5996v-0.05083c0.6513-0.24401 1.1513-0.5599 1.5-0.94922 1.5353-1.8135 1.5515-3.6818 0.051-5.6016-0.3982-0.84581 0.1785-1.1169 0.1504-2.6992 0.1446-0.98112-0.057-1.8474-0.6016-2.5996-0.3758-0.49115-0.9591-1.0086-1.75-1.5508h-0.049l-0.3496-0.25c-0.018-0.0156-0.035-0.0311-0.051-0.0488l-0.5508-0.60156c-0.5901-0.67213-1.2064-1.1372-1.8496-1.3984-0.1512-0.03-0.3837-0.0474-0.6992-0.0508h-0.2012c-0.051 1.3e-4 -0.099-0.0173-0.1484-0.0508h-0.05zm-40.607 70.707c-2.9668-0.0533-7.8896 1.4511-10.494 3.9434l0.051-0.0488c-0.5421 0.17383-0.9258 0.3056-1.1504 0.39844-1.2508 0.52486-1.9175 1.5094-2 2.9512-0.01 0.0495-0.01 0.0824 0 0.0996-0.043 0.19479-0.2099 0.46224-0.5 0.80078-0.2893 0.38958-0.456 0.62213-0.5 0.69922-0.5113 0.92057-0.7943 1.6047-0.8496 2.0508v0.0996c-0.059 0.41511-0.026 0.78138 0.1 1.0996 0.045 0.10638 0.063 0.20716 0.051 0.30078-0.045 0.12813-0.1125 0.22696-0.2012 0.29883-0.088 0.068-0.1871 0.101-0.2988 0.0996h-0.2012c-0.8382-3e-3 -1.4875 0.24713-1.9492 0.75-0.5405 0.64453-0.773 1.5457-0.6992 2.7012-0.011 0.11185-0.011 0.21068 0 0.29883l0.1 0.25c-0.01 0.0169-0.01 0.0344 0 0.0508 0.1108 0.25169-0.1392 0.76914-0.75 1.5508-0.3893 0.54075-0.6064 0.87409-0.6504 1-0.024 0.0417-0.041 0.0746-0.051 0.0996-0.383 0.70221-0.5323 1.4193-0.4492 2.1504 0.086 0.69049 0.4017 1.3223 0.9492 1.8984 0.265 0.22761 0.4995 0.79544 0.7012 1.7012l0.1504 0.90039v-0.0508c0.2505 1.0734 0.7835 1.8409 1.5996 2.3008 0.085 0.0651 0.1512 0.13099 0.1992 0.19922 0.043 0.0948 0.06 0.17813 0.051 0.25-0.01 0.11693-0.042 0.21771-0.1 0.30078-0.3667 0.50977-0.5508 1.0756-0.5508 1.6992v0.0508c-0.07 0.62943 0.1624 1.2128 0.6992 1.75l0.2012 0.19922c0.04 0.0366 0.073 0.0695 0.1 0.0996 0.087 0.17253 0.1705 0.50586 0.25 1v-0.0488c0 5.0423 10.51 12.123 12.35 12.199 0.8746 0.50267 2.0917 0.75267 3.6504 0.75h0.8008c0.7804-6e-3 1.7804 0.19388 3 0.59961 1.283 0.95872 18.853 0.33376 19.549-2.75 0.2547-0.33932 0.2547-0.68815 0-1.0488l-3.6992-5.1016c-0.02-0.0323-0.037-0.0652-0.051-0.0996-0.2777-0.63763-0.6111-1.0698-1-1.2988-0.1-0.049-0.1659-0.1168-0.1992-0.20117-0.067-0.0775-0.1-0.16081-0.1-0.25 0-0.22227-0.068-0.42188-0.2012-0.59961-0.017-0.0161-0.033-0.0336-0.049-0.0508-0.5822-0.75091-1.2333-1.8168-1.9512-3.1992l0.051 0.0508-0.9004-1.4004c-0.045-0.0612-0.078-0.12904-0.1-0.20117-0.043-0.20664-0.093-0.35586-0.1504-0.44922-0.581-0.81627-1.331-2.1496-2.25-4l-1-1.9004-0.3008-0.34961c-0.067-0.041-0.1-0.1069-0.1-0.19922l-0.1504-0.60156-2.9492-6.8984c-0.01-0.0175-0.01-0.0349 0-0.0508-0.051-0.11055-0.1017-0.21133-0.1504-0.30078-0.091-0.12799-0.2078-0.24427-0.3496-0.34961-0.085-0.0332-0.1506-0.0991-0.1992-0.19922-0.041-0.0616-0.059-0.14492-0.051-0.25 0.022-0.50182-0.1113-1.0348-0.4004-1.5996-0.6129-1.3966-1.0295-2.5633-1.25-3.5-0.027-9e-3 -0.053-0.0262-0.061-0.0508-0.023-0.31706-0.1063-0.58451-0.25-0.80078-0.067-0.0344-0.1-0.0828-0.1-0.14844-0.041-0.0746-0.058-0.15794-0.051-0.25 0.048-0.31146-0.02-0.64479-0.2012-1l-0.036-0.05079c-0.2876-0.51563-0.5221-1.1823-0.7012-2h0.051c-0.2171-0.82669-0.4167-1.4934-0.5996-2-0.1117-0.25091-0.2629-0.45052-0.4512-0.59961-0.069-0.0517-0.1171-0.11953-0.1484-0.20117-0.041-0.0892-0.058-0.18802-0.051-0.29883l0.1-0.70117c-0.015-0.91497-0.3309-1.5468-0.9492-1.8984l-0.051-0.0508c-0.3957-0.38495-1.1673-0.57599-2.1562-0.59375zm6.83 16.926c0.1641-0.0219 0.289 0.085 0.377 0.31836l2.9492 6.9492c0.043 0.12773 0.043 0.24401 0 0.34961l-0.9492 1.1016c-0.057-5e-3 -0.3249-0.0884-0.8008-0.25-0.4758-0.1638-1.2083-0.44869-2.1992-0.85156-1.3637-0.43503-2.1641-1.5668-2.4004-3.3984-0.1-0.93333 0.1171-1.7337 0.6504-2.4004 0.3333-0.4 0.967-0.91745 1.9004-1.5508l0.3984-0.25c0.025-9e-3 0.051-0.0146 0.074-0.0176z" fill="#ef1d1e"/>
 <path d="m55.352 16.898c-0.1556 0.0111-0.3338 0.11054-0.4922 0.13281-0.5001 0.0696-1.0016 0.17761-1.5078 0.36719-0.087 0.0357-0.1507 0.0718-0.2363 0.10742-0.2445 0.0896-0.4647 0.0804-0.7149 0.19336-0.4333 0.2-1.317 0.64961-2.6504 1.3496l-3.4492 2.0996c-0.5333 0.36667-0.7504 0.7-0.6504 1 0.067 0.23333 0.4 0.35156 1 0.35156 0.5401 0.0377 1.6585-0.16412 2.3926-0.20703 0 2e-3 -2e-4 4e-3 0.01 6e-3 0.1987 0.0993 0.499 0.14972 0.9003 0.15039 1.1161 3e-3 2.0484-0.0979 2.7989-0.30078 0.6223-0.11044 1.0089-0.14129 1.3613-0.16016 0.4318-3e-3 0.8733-0.0336 1.2754 0.0469 0.2148 0.0371 0.4276 0.0807 0.6367 0.14453 0.7318 0.23706 1.4235 0.58943 2.0488 1.127l0.4278 0.3418c0.017 8e-3 0.034 8e-3 0.051 0 0.099 0.0984 0.2038 0.17072 0.3085 0.23437 0.016 0.06 0.1162 0.0922 0.092 0.16602-0.087 0.41792-0.2759 0.69858-0.5449 0.87109-0.097-0.0292-0.1826-0.0714-0.3047-0.0703-0.2096 9.3e-4 -0.3762 0.0339-0.5 0.0996-0.079 0.032-0.1471 0.0495-0.2011 0.0508l-1.9493 0.0488c-0.058 4e-3 -0.1083 4e-3 -0.1503 0l-0.25-0.0488c-0.8567 0.023-2.2404 0.23815-4.1504 0.64844l-2.25 0.5c-1.2245 0.16464-2.3974 0.7115-3.5235 1.5938-1.2744 0.7409-2.5284 1.493-3.5761 2.3574-0.3333 0.26667-0.4341 0.53216-0.3008 0.79883 0.1667 0.26667 0.4844 0.36745 0.9511 0.30078 0.4654-0.0202 1.7077-0.25639 2.7012-0.42383l0.3477 0.0234h0.051c0.628-3e-3 1.2947-0.11888 2-0.34961 0.017 7e-3 0.036 7e-3 0.053 0l0.039-8e-3c1.0128-0.16739 1.8618-0.21027 2.6445-0.20508l7.9648 0.86328c0.094-2e-3 0.1751-0.0249 0.2578-0.0449 0.2646 0.0361 0.5466 0.23052 0.8438 0.59375 0.3666 0.43333 0.5159 0.90039 0.4492 1.4004-0.018 0.10773 0.025 0.14923 0.01 0.25391-0.1027 0.5415-0.072 1.1278 0.066 1.748 0.03 0.60913-0.1035 1.3997 0.072 1.8477 0.089 0.23762 0.2505 0.53044 0.4454 0.84766 0.018 0.0629 0.036 0.12764 0.058 0.18164 0.3851 0.59504 0.3742 1.1901 0.043 1.7852-0.1153 0.19497-0.2363 0.42438-0.3594 0.66016-0.2238 0.32996-0.4208 0.62601-0.7851 1.127-0.2667 0.76667-0.8016 2.0496-1.6016 3.8496-0.7333 1.6333-1.2333 2.9337-1.5 3.9004-0.033 0.16667-0.4655 1.4826-1.2988 3.9492l-0.125 0.79102-0.037 0.11914c-0.184-0.23027-0.2891-0.52654-0.2891-0.91016v-1c-0.1666-3-0.25-4.8159-0.25-5.4492 0-0.56666-0.066-1.3341-0.1992-2.3008-0.1667-1.1333-0.2674-1.9008-0.3008-2.3008 0.033-1.6 0.051-2.7996 0.051-3.5996 0-0.7-0.05-1.2-0.1504-1.5 0-0.1-0.3159-0.15039-0.9492-0.15039-1.9333 0.0333-4.8675-0.0829-8.8008-0.34961-1.4667-0.13333-3.6663-0.21667-6.5996-0.25l-7.4004-0.54883c-0.4667-0.0667-1.1992-0.0841-2.1992-0.0508-0.3 0-0.4512 0.19961-0.4512 0.59961 0.067 1.5667 0.15 3.933 0.25 7.0996l0.6016 7.8516c0 0.14038 0.093 0.55767 0.2109 1.0527-0.2448-0.28311-0.4374-0.52831-0.8105-0.9043l-0.9492-1c-0.025-0.0168-0.043-0.0323-0.051-0.0488-0.52-0.65599-1.0214-1.2115-1.5117-1.7188l-0.2891-0.33203c-0.064-0.0731-0.1381-0.1002-0.2031-0.16992-0.3945-0.37555-0.7779-0.69934-1.1524-0.97461-0.2894-0.21312-0.5762-0.43841-0.8769-0.5918-0.5199-0.25587-1.0534-0.43203-1.5977-0.53906-0.076-0.0121-0.1441-0.0655-0.2207-0.0742-0.046-7e-3 -0.098 0.0136-0.1445 8e-3 -0.2654-0.0356-0.5316-0.0579-0.8028-0.0586-0.4381 4e-3 -0.9933 0.0746-1.6035 0.17578-0.7356 0.0945-1.4939 0.28234-2.2695 0.54297-0.641 0.21024-1.2523 0.4487-1.8301 0.71875-0.2722 0.13141-0.5202 0.16216-0.7969 0.3125-1.1999 0.6-2.0836 1.0845-2.6503 1.4512-0.2 0.16667-0.3008 0.43216-0.3008 0.79883 0 0.16667 0.1181 0.25 0.3515 0.25 0.1481 0.0773 0.515 0.12954 0.6954 0.20312 0.1078 0.14739 0.2729 0.24856 0.5039 0.29688 0.5551 0.17513 1.3555 0.35925 2.4003 0.55078 1.3727 0.21963 2.2255 0.49397 2.9649 0.78125 0.8269 0.35146 1.9511 1.1196 3.3848 2.3184l0.6992 0.59961c0.5579 0.49214 1.8305 1.755 2.9394 2.8418 0.7336 0.7531 1.5715 1.5065 2.2168 2.2598 0.3353 0.37617 0.5978 0.65886 1.2949 1.5v0.0488l0.9493 1.25c0.031 0.0286 0.067 0.0399 0.1 0.0644 0.2262 0.36187 0.5418 0.72407 0.6504 1.0859 0.2 0.7 0.3337 1.7833 0.4004 3.25l0.6503 4.3496c0.033 0.2 0.016 0.51784-0.051 0.95117l-0.7481-0.375v-0.0254l-0.5996-0.34961c-1.1403-0.6927-2.4407-1.2276-3.9004-1.6016-0.113-0.025-0.2907-0.051-0.416-0.0762-0.2053-0.0499-0.323-0.17888-0.5352-0.22266-1.8666-0.36667-4.7-0.75039-8.5-1.1504-1.3999-0.16667-2.4-0.33333-3-0.5-1.0666-0.3-1.9677-0.76706-2.7011-1.4004-0.067-0.0667-0.1656-0.0667-0.2989 0-0.2666 0.2-0.3344 0.50039-0.2011 0.90039 0.5334 2.9333 0.9171 4.8171 1.1504 5.6504 0.2358 0.94334 0.8114 1.9046 1.2675 2.8594 0.1362 0.31849 0.2328 0.61243 0.3829 0.93945 0.04 0.093 0.1224 0.22534 0.1836 0.33789 0.1382 0.2394 0.1645 0.47275 0.3164 0.71289 0.6625 0.99374 1.7018 2.3292 2.9355 3.8398 0.026 0.0518 0.059 0.10069 0.065 0.16016 0.01 0.0966-0.01 0.17995-0.051 0.25-0.047 0.10153-0.1133 0.16742-0.1992 0.19922-1.0405 0.61814-1.9796 1.3702-2.8184 2.2539-0.03 0.0376-0.1017 0.0596-0.1309 0.0977-0.067 0.0667-0.2004 0.18294-0.4004 0.34961-0.1666 0.16667-0.283 0.31589-0.3496 0.44922-0.014 0.045 0.035 0.0804 0.024 0.125-0.1057 0.16109-0.1739 0.33335-0.1739 0.52539v0.0508c-0.019 0.3112 0.08 0.60964 0.2989 0.89844l0.1855 0.16992c0.018 0.0247-3e-4 0.0555 0.016 0.0801 0.6 0.53333 1.0323 0.9345 1.2989 1.2012 0.1815 0.18151 0.5225 0.29107 0.7168 0.4668 1.0481 0.83188 2.2954 1.6907 3.7832 2.582 0.2437 0.14608 0.5257 0.28812 0.8379 0.42578 0.4295 0.21519 0.6531 0.52328 1.1132 0.72461 0.1333 0.0667 0.833 0.25078 2.0997 0.55078-1.2667 0.23333-2.0167 1.0822-2.25 2.5488-0.1 0.43333-0.3674 0.95078-0.8008 1.5508-0.5333 0.63333-0.8492 1.1159-0.9492 1.4492-0.4333 1.2667-0.3829 2.3016 0.1503 3.1016-1.6666-0.4-2.8003 0.0167-3.4003 1.25-0.2667 0.5-0.3327 1.1667-0.1993 2 0.067 0.5-0.052 1.0329-0.3515 1.5996-0.1333 0.26667-0.4319 0.73373-0.8985 1.4004-0.4667 0.66667-0.6681 1.3818-0.6015 2.1484 0.067 0.76666 0.3671 1.4682 0.9004 2.1016s0.8007 1.4318 0.8007 2.3984c0 0.6 0.2501 1.2182 0.75 1.8516 0.5333 0.63333 1.0837 1.0326 1.6504 1.1992-0.6667 0.53333-1 1.1167-1 1.75s0.3333 1.5171 1 2.6504c-0.062 0.0143-0.1024 0.0382-0.164 0.0527-0.2132 0.0121-0.5989 0.13623-1.1328 0.35743-0.012 3e-3 -0.023 6e-3 -0.035 0.01l0.031-0.0195-0.061 0.0293c-0.4058 0.11311-0.7745 0.24156-1.1543 0.36523-0.5944 0.14588-1.1927 0.32834-1.793 0.56641-0.1845 0.076-0.3563 0.15522-0.5332 0.23437-0.6501 0.28649-1.302 0.60994-1.9589 1.0039-0.3572 0.21296-0.7341 0.48441-1.1192 0.7832-0.01 7e-3 -0.023 0.0108-0.031 0.0176-0.01 7e-3 -0.024 0.0262-0.033 0.0332-0.8133 0.63834-1.6812 1.4494-2.6172 2.4668h-0.049c-1.6281 1.6318-0.6824 2.6871 0.2872 3.2578 0.3482 0.35018 0.6856 0.67386 1.0078 0.9668 0.014 0.0131 0.027 0.026 0.041 0.0391 0.2275 0.20582 0.4984 0.50835 0.7129 0.68555 0.1976 0.16927 0.1745 0.37494 0.086 0.5918-0.015 0.0179-0.017 0.0422-0.035 0.0586-0.4978 0.70302-0.8404 1.4904-1.0645 2.3438-0.1314 0.40715-0.1583 0.824-0.2129 1.2383-0.028 0.2695-0.052 0.54187-0.057 0.82422 0 0.31613-0.1075 0.6232-0.066 0.94336 0.2333 2.1667 0.5667 4.533 1 7.0996 0.033 0.26667 0.1671 0.86745 0.4004 1.8008 0.1667 0.73333 0.2673 1.3322 0.3007 1.7988 0.033 0.53333-0.017 1.6671-0.1504 3.4004-0.075 0.774 0.2373 1.0123 0.7422 0.98242 0.1467 0.0735 0.3129 0.11578 0.5078 0.11719 0.2352-3e-3 0.4716-0.0749 0.7071-0.17969 0.4846-0.0743 0.9486-0.18462 1.5429-0.0703 1 0.23333 1.7501 0.3845 2.25 0.45117 1.6 0.16667 2.9993 0.16667 4.1993 0 0.5667-0.0667 1.4677-0.34961 2.7011-0.84961 0.6-0.3 1.1989-0.7845 1.7989-1.4512 0.5766-0.76874 1.0154-1.3292 1.3457-1.7285 0.026-0.0303 0.074-0.0495 0.1113-0.0742 0.1247-0.13955 0.3163-0.10491 0.5215-0.0352 0.1998 0.10714 0.4089 0.19707 0.6152 0.29297 0.108 0.0733 0.3425 0.24609 0.3574 0.24609 1 0.36667 1.75 0.61667 2.25 0.75 0.1606 0.0357 0.2582-0.0471 0.4102-0.0273 0.3731 0.0708 0.7511 0.13291 1.1406 0.17578h0.1c0.4909-0.0336 0.946-0.41286 1.3672-1.0996 0.1895-0.22684 0.4328-0.33689 0.582-0.65039 0.1-0.2 0.3501-0.86667 0.75-2 0.079-0.21368 0.022-0.60406 0.09-0.83203 0.2143-0.80143 0.3772-1.6204 0.4609-2.4668 0.079-0.72224 0.118-1.7915 0.1348-3.0488-0.01-0.40789 0.137-0.61997 0.1133-1.0508-0.011-0.30176-0.1261-0.48463-0.1504-0.77148-0.094-1.4037-0.3203-2.5771-0.6856-3.5117-0.035-0.0902-0.026-0.23071-0.062-0.31836-0.067-0.2 0.017-0.28333 0.25-0.25 0.3 0.0667 0.4997 0.10156 0.5996 0.10156 0.4-0.0333 1.2334 0.0655 2.5 0.29883l0.1504 0.20117c-0.013 0.10184 0.012 0.19925 0 0.30078-0.06 0.19639-0.09 0.40707-0.053 0.64844v0.0508c0.011 0.1295 0.043 0.25037 0.057 0.37891-0.02 1.6434 0.1926 3.258 0.8438 4.8203 0.8 1.7 1.4163 2.8996 1.8496 3.5996 1 1.5333 2.0329 2.8996 3.0996 4.0996 1.6667 1.7333 3 2.9504 4 3.6504 0.4 0.23333 0.8167 0.63451 1.25 1.2012 0.7333 1.0333 1.3845 0.95 1.9512-0.25l0.8919-1.8013c0.2517-0.58716 0.3752-1.1181 0.4629-1.6348 0.016-0.0204 0.017-0.0449 0.037-0.0645 0.077-0.0805 0.1779-0.13086 0.3008-0.15039 0.089-0.0167 0.1897-9.4e-4 0.3008 0.0488 0.1406 0.0764 0.3059 0.12317 0.4531 0.1914 0.1908 0.0976 0.4633 0.24975 0.5957 0.3086 0.5333 0.3 1.0004 0.48411 1.4004 0.55078 1.7667 0.1 3.0826 0.18333 3.9492 0.25 3.3333 0.16667 6.1841 0.48255 8.5508 0.94922 2.7667 0.5 4.9333 1.0504 6.5 1.6504l0.75 0.45117c0.4333 0.36667 0.7337 0.45 0.9004 0.25 0.2667-0.26667 0.3655-0.68333 0.2988-1.25 0-0.14966-0.132-0.49465-0.1504-0.66601 0-0.49668-0.068-0.95895-0.1992-1.3848v-0.0508l-0.1504-0.54883c-0.083-0.25053-0.1601-0.42158-0.2422-0.65625-0.1232-0.44194-0.095-0.63878-0.2578-1.1445-0.073-0.21991-0.5973-1.1082-0.8574-1.6055-0.1811-0.37732-0.3656-0.80408-0.541-1.0938l-0.3653-0.60547c-0.099-0.17042-0.078-0.1624-0.1855-0.3457-0.3522-0.39134-0.3999-0.60438-0.5566-0.88086l-0.1933-0.31826c-0.073-0.085-0.1055-0.18581-0.1-0.30078 0.01-0.0848 0.038-0.1681 0.1-0.25 0.058-0.0824 0.1413-0.14829 0.25-0.19922 0.2598-0.0884 0.458-0.12643 0.6992-0.19922 1.3801-0.18942 2.2957-0.35979 3.127-0.52734l0.2734 0.0273h0.1c0.309-8e-3 0.5765-0.14166 0.8008-0.40039 0.054-0.0979 0.066-0.19303 0.09-0.28906 0.01-0.0283 0.055-0.0303 0.062-0.0606 0-0.0263-0.018-0.0573-0.017-0.084 0.011-0.13229-0.017-0.26218-0.066-0.39063-0.026-0.1266-0.01-0.24416-0.066-0.37695-0.1698-0.32301-0.4328-0.57083-0.6211-0.87891-0.2674-0.43307-0.5733-0.85482-0.8985-1.2715-1.2053-1.6051-2.5942-3.0624-4.3808-4.1992l-3.7989-2.4492-0.6015-0.20117c0.5334-0.2 1.2348-0.31628 2.1015-0.34961 1.1-0.0333 1.7996-0.0837 2.0996-0.15039 2.8667-0.46667 5.016-0.71667 6.4493-0.75 0.7667 0 1.9507-0.0988 3.5507-0.29883 1-0.13333 1.5833-0.40078 1.75-0.80078s-0.033-1.0337-0.5996-1.9004l-3.6504-6c-1.9-3.0667-3.084-5.0163-3.5507-5.8496-0.7667-1.3667-1.8656-3.4326-3.2989-6.1992-2-3.8667-3.184-6.2-3.5507-7-1.8-4.0667-2.9164-6.8012-3.3497-8.2012-0.6667-1.9667-1.1667-3.4492-1.5-4.4492l-0.051-0.30078 0.3007 0.0508c1.7333 1.1333 3.466 1.9337 5.1993 2.4004 1.6667 0.33333 2.9011 0.58333 3.7011 0.75 0.8666 0.2 1.9656 0.31628 3.2989 0.34961l3.3496 0.0996c1 0.0667 2.25 0.0667 3.75 0 1.6667-0.13333 2.9167-0.21667 3.75-0.25 1.2-0.0667 2.1011-0.0996 2.7011-0.0996 1.0667-0.0333 1.9504 0.0326 2.6504 0.19922 0.5 0.13333 0.8333 0.11763 1-0.0488 0.1666-0.2 0.099-0.58372-0.2011-1.1504-0.08-0.15512-0.1662-0.20119-0.2461-0.35156-0.033-0.15176-0.093-0.30222-0.2032-0.44922v-0.0488l-0.9542-1.4004c-0.7912-1.324-1.5412-2.3569-2.25-3.0996-0.091-0.0914-0.1391-0.20768-0.1484-0.34961-0.01-0.10508 0.024-0.20586 0.1-0.30078 0.086-0.1048 0.2025-0.17069 0.3496-0.19922 0.5087-0.0956 1.1754-0.34557 2-0.75h-0.051l0.5506-0.30078h0.051c0.059-0.027 0.1262-0.0677 0.1855-0.0957 0.4625-0.20408 0.8891-0.24702 1.3633-0.50391 0.8333-0.46667 2.1996-1.3504 4.0996-2.6504 0.4588-0.30586 0.7205-0.71631 1.1328-1.0469 0.5163-0.39068 1.0254-0.76958 1.5684-1.2031 0.5518-0.49447 3.074-2.891 0.5456-3.2502-1-0.1-2.3992-0.51667-4.1992-1.25l-4.4492-2.0996c-1.7667-0.83333-3.2841-1.4341-4.5508-1.8008l-0.8008-0.19922-0.5039 0.0293-0.1445-0.0293c-0.108-0.0212-0.1914-0.0716-0.25-0.15039-0.089-0.0861-0.1391-0.18685-0.1504-0.30078-0.01-0.10586 0.027-0.20469 0.1015-0.29883 0.036-0.0657 0.072-0.1095 0.1075-0.17383 0.01-0.0147 0.05-0.0661 0.055-0.0762 0.1333-0.3 0.3503-0.63333 0.6503-1l1.1973-1.6777c0.1304-0.14788 0.2627-0.3434 0.3926-0.47266 0.1283-0.13002 0.1881-0.26562 0.2598-0.40039 0.2224-0.18524 0.4167-0.36102 0.5-0.5 0.2-0.23333 0.099-0.48333-0.3008-0.75-0.3667-0.23333-0.917-0.51628-1.6504-0.84961-1.0666-0.5-2.4329-0.93411-4.0996-1.3008-0.9-0.23333-2.0996-0.34961-3.5996-0.34961-0.695 0-1.0371 0.16296-1.67 0.19141-1.2872 0.0615-2.511 0.20035-3.6699 0.41796-0.6274 0.11498-1.5809 0.0798-2.1094 0.24024-2.1136 0.69652-4.3577 1.8852-6.6621 3.3086v-8e-3c-0.4976 0.28817-0.9709 0.59437-1.4336 0.91016-0.4243 0.28492-0.8253 0.48031-1.2558 0.78906-0.5333 0.4-1.1166 0.9349-1.75 1.6016-0.3666 0.4-0.8996 0.98334-1.5996 1.75l-0.25 0.14844c-0.1-0.1-0.1504-0.18333-0.1504-0.25-0.3333-0.8-0.432-1.7496-0.2988-2.8496l0.4382-2.8492c0.1333-1.2 0.4996-2.5004 1.0996-3.9004 0.048-0.13585 0.3906-0.79949 0.5098-1.0625 0.028-0.0313 0.067-0.0521 0.09-0.0879 0.01-0.0258 0.026-0.0587 0.051-0.0996l0.1-0.25c0.2214-0.57754 0.4895-1.149 0.791-1.7148 0.029-0.0583 0.028-0.0593 0.059-0.11915 0.1056-0.19443 0.2463-0.38309 0.3614-0.57617 0.5221-0.95061 1.141-1.7883 1.9375-2.418 0.015-0.0125 0.033-0.0228 0.049-0.0351 0.8867-0.6892 1.9348-1.1892 3.1562-1.4863 1.7666-0.4 3.3326-0.66745 4.6993-0.80078 0.4-0.0667 0.9503-0.0822 1.6503-0.0488 0.8333 0.0333 1.3837 0.0488 1.6504 0.0488 1.1333-0.0667 1.9319-0.21589 2.3985-0.44922 0.2334-0.1 0.2837-0.28411 0.1504-0.55078-0.1-0.2-0.2493-0.38216-0.4493-0.54883-0.999-0.80277-2.2044-1.2451-3.3183-1.8477-0.092-0.1453-0.2339-0.2639-0.4317-0.35351-0.134-0.0315-0.7133-0.31946-1.1738-0.53906-0.4501-0.19457-0.8104-0.54615-1.2773-0.71094-0.1666-0.0667-0.5659-0.24883-1.1992-0.54883-0.4667-0.23333-0.866-0.3845-1.1993-0.45117-0.2423-0.0575-0.4304 6e-3 -0.6621-0.0273-0.3705-0.0742-0.7191-0.11744-1.039-0.1211-0.2469-1.6e-4 -0.4912 0.0154-0.7344 0.0469-0.1547 0.0229-0.3065 0.0532-0.4551 0.0898-0.5972 0.12718-1.1846 0.33975-1.7598 0.66211-0.094 0.0733-0.1946 0.1063-0.3007 0.0996-0.104-0.0121-0.1873-0.0606-0.25-0.14844-0.093-0.05-0.1437-0.13333-0.1504-0.25v-0.0215l1.9004-4.6797c0.5653-1.3634 1.1143-2.4252 1.6464-3.1914 0.017-0.0119 0.041-0.0161 0.061-0.0254 0.041-0.0542 0.1885-0.0618 0.2891-0.0898l0.5546-0.043c0.084-0.0116 0.1522-0.0374 0.2344-0.0508 0.174 5.4e-4 0.4125 0.0172 0.5156 0 0.2128-0.0273 0.4258-0.18613 0.6387-0.25 0.031-9e-3 0.056-0.0235 0.086-0.0332 0.5133-0.16587 1.0277-0.38684 1.541-0.76563 0.3787-0.26052 0.7089-0.56404 0.9902-0.91016 0.2147-0.21594 0.4297-0.33655 0.6445-0.58984 0.2333-0.26667 0.5163-0.36745 0.8496-0.30078 0.4 0.13333 0.7004 0.21667 0.9004 0.25 0.1694 0.0431 0.3919 0.10972 0.5645 0.1543 0.087 0.0978 0.1941 0.16809 0.334 0.19531h0.051l2.4492 0.60156h-0.049c0.2096 0.0419 0.39 0.0893 0.5899 0.13281 0.8872 0.2473 1.6532 0.43791 2.6094 0.7168 1.0056 0.27934 1.9568 0.891 2.8925 1.5918 0.6533 0.55951 1.4254 1.2825 2.4571 2.3574 0.041 0.0422 0.076 0.0751 0.1015 0.0996 0.2576 0.2914 0.4129 0.41388 0.6973 0.75l1.75 1.9004c0.1333 0.13333 0.3174 0.20117 0.5508 0.20117 0.2333-0.0667 0.4155-0.11706 0.5488-0.15039 0.1333-0.0333 0.2012-0.11667 0.2012-0.25-0.067-0.16667-0.1016-0.30039-0.1016-0.40039-0.204-0.80257-0.6449-1.7094-0.9375-2.5508 0.044-0.16542 0.046-0.3459-0.012-0.54883l-0.1504-0.5c-0.335-1.0759-0.6509-1.8763-0.9492-2.4004-0.025 2.7e-4 -0.043-0.0172-0.051-0.0508l-0.601-1.1992c-0.5069-1.0663-0.941-1.8337-1.3008-2.3008-0.2234-0.25309-0.5096-0.49017-0.8281-0.7168-0.01-6e-3 -0.015-0.0277-0.022-0.0332-0.042-0.0323-0.1159-0.0507-0.1601-0.082-0.7295-0.48304-1.6599-0.90954-2.8399-1.2676l-1-0.34961c-0.1207-0.0401-0.2388-0.0645-0.3574-0.0918l0.6074-0.60742c0.6667-0.6 1.1337-1.1504 1.4004-1.6504 0.3-0.66667 0.3659-1.4012 0.1992-2.2012-0.074-0.32125 0.1522-0.54804 0.3711-0.77734l0.8106-0.65626c0.1425-0.0872 0.3872-0.18408 0.4687-0.26562 0.8-0.8 1.8504-1.2167 3.1504-1.25 1.5 0.16667 2.6337 0.28294 3.4004 0.34961l3.0488 0.25c0.8334-0.1 1.4516-0.0496 1.8516 0.15039 0.1 0.0667 0.2318 0.0841 0.3984 0.0508 0.1667-0.0333 0.2171-0.16706 0.1504-0.40039-0.1-0.33333-0.2996-0.61628-0.5996-0.84961-2.0667-1.5333-3.4504-2.5178-4.1504-2.9512-1.3-0.83333-2.3659-1.3992-3.1992-1.6992-0.2239-0.0734-0.3959-0.0513-0.6113-0.10937-0.4253-0.1507-0.8281-0.27412-1.1895-0.3418l-1-0.0996c-1.0604 0.0186-2.3608 0.40234-3.9004 1.1504v-0.0508l-0.1074 0.0644c-0.1576 0.0203-0.3157 0.038-0.4922-0.11328-0.2667-0.2-1.0496-0.88412-2.3496-2.0508-0.9333-0.86667-1.7996-1.45-2.5996-1.75-0.6-0.23333-1.4004-0.13255-2.4004 0.30078-0.9667 0.43333-1.6004 0.93333-1.9004 1.5-0.033 0.0667-0.1322 0.28372-0.2988 0.65039-0.2 0.2-0.4675 0.0488-0.8008-0.45117-0.5333-0.76667-1.3667-1.2996-2.5-1.5996-1.2333-0.36667-2.15-0.21745-2.75 0.44922-0.5233 0.59801-1.0218 0.77321-1.5078 0.73828-0.053-0.0269-0.082-0.0634-0.1406-0.0879-0.035-0.0127-0.07-0.0282-0.1016-0.0488l-0.1992-0.15039-3.9004-2.3008 0.049 0.0508c-0.8126-0.43-1.6614-0.64706-2.5488-0.65039-0.041 2.1e-4 -0.082 0.0107-0.1231 0.0117-0.071 1e-3 -0.1566-0.0681-0.2265-0.0625zm18.549 2.6504c0.067 0.0333 0.2178 0.0508 0.4512 0.0508 0.2333-0.0333 0.4155-0.0178 0.5488 0.0488 0.4 0.13333 0.7837 0.41823 1.1504 0.85156 0.5667 0.6 0.9174 0.94883 1.0508 1.0488 0.9666 0.7 1.55 1.1671 1.75 1.4004 0.5 0.56667 0.6996 1.2837 0.5996 2.1504-0.067 0.36667-0.1675 0.93255-0.3008 1.6992-0.067 0.66667 0.05 1.2171 0.3496 1.6504 1.1667 1.5667 1.1526 3.0667-0.049 4.5-0.2 0.2-0.4675 0.38411-0.8008 0.55078-0.2 0.1-0.5004 0.23177-0.9004 0.39844l-0.2988-0.59961c-1.5-2.1-2.5504-4.4333-3.1504-7-0.4333-1.9333-1.6659-2.7996-3.6992-2.5996-0.2667 0.0667-0.3849-0.0341-0.3516-0.30078 0.033-0.86667 0.3667-1.7329 1-2.5996 0.7667-0.96667 1.6504-1.3833 2.6504-1.25zm-8.5488 0.25c0.3333-0.0333 0.7151 0.0171 1.1484 0.15039 0.4334 0.16667 0.7667 0.28294 1 0.34961 0.3334 0.1 0.7345 0.46628 1.2012 1.0996 0.4333 0.66666 0.6504 1.1841 0.6504 1.5508 0.033 0.56667-0.1682 1.15-0.6016 1.75-0.2333 0.33333-0.5996 0.81589-1.0996 1.4492-0.5667 1-1.2663 1.8178-2.0996 2.4512-1.6667 1.2667-2.6492 2.6659-2.9492 4.1992 0 0.1-0.068 0.21628-0.2012 0.34961-0.1333 0.1-0.3155 0.0671-0.5488-0.0996l-0.8008-0.54883c-0.6-0.46666-0.9992-0.81745-1.1992-1.0508-0.4-0.43333-0.6016-0.93333-0.6016-1.5 0-0.0333 0.05-0.59922 0.1504-1.6992 0.033-0.7-0.017-1.2349-0.1504-1.6016-0.033-0.93333 0.2671-1.6988 0.9004-2.2988 0.9333-0.76667 1.633-1.3345 2.0996-1.7012 0.8667-0.7 1.4849-1.3996 1.8516-2.0996 0.2-0.4 0.6166-0.65 1.25-0.75zm-3.0039 1.4375c0 5e-3 0.01 8e-3 0 0.0137-0.1 0.13333-0.2667 0.33294-0.5 0.59961-0.076 0.0887-0.1522 0.0358-0.2285 0.0762 0.2578-0.23818 0.5465-0.49239 0.7266-0.68945zm8.8535 3.3125c0.7-0.0333 1.3337 0.3 1.9004 1 0.5 0.66667 0.7984 1.4496 0.8984 2.3496 0.1667 1.5 0.9167 3.1337 2.25 4.9004 0.7334 1.0333 0.7494 1.9345 0.051 2.7012-1 1-2.4167 1.5833-4.25 1.75-1.9 0.26667-3.7004 0.23177-5.4004-0.10156-0.9333-0.2-1.6988-0.64961-2.2988-1.3496-0.6334-0.8-0.9337-1.7826-0.9004-2.9492 0.2667-1.2333 0.9663-2.2508 2.0996-3.0508 1.3-0.93333 2.3329-2.1 3.0996-3.5 0.6-1.1333 1.4508-1.7167 2.5508-1.75zm-10.654 8.4512c0.1 0.36667 0.4663 0.63216 1.0996 0.79883 0.1671 0.044 0.1496 0.1965 0.2774 0.26367-0.2096-0.0345-0.3948-0.0949-0.5274-0.21289-0.031-0.0291-0.064-0.062-0.1-0.0996l-0.1992-0.10156-0.5449-0.4082c0.019-0.0652-0.03-0.17889-0.01-0.24024zm-32.496 3.8987c2 0.0333 4.25 0.16706 6.75 0.40039 0.7667 0.0667 1.7337 0.11706 2.9004 0.15039 1.6 0.0667 2.567 0.0996 2.9004 0.0996l11.549 0.40039c0.2333 0 0.3341 0.0659 0.3008 0.19922-0.067 2 0.017 4.5504 0.25 7.6504 0.1333 1.5333 0.2825 3.8512 0.4492 6.9512 0.1 1.6333 0.3171 4.083 0.6504 7.3496l0.4492 3.8496c0.2667 1.6 0.7182 3.9837 1.3516 7.1504 0.2333 1.5 0.6829 3.7171 1.3496 6.6504l1.75 7.7988c0.3667 1.4333 0.9325 3.5671 1.6992 6.4004 0.1667 0.9 0.4845 1.9833 0.9512 3.25l1.1484 3.1992c0.3667 1.1 0.9016 2.3849 1.6016 3.8516 0.3666 0.83333 0.95 2.0833 1.75 3.75 1.2333 2.8 2.4329 5.1663 3.5996 7.0996l9.8496 16.599c0.2 0.3 0.3492 0.51706 0.4492 0.65039 0.1667 0.23333 0.2345 0.4155 0.2012 0.54883-0.1 0.2-0.2841 0.28333-0.5508 0.25-0.1667 0-0.4167-0.0155-0.75-0.0488-0.3 0.0333-0.9667 0.0663-2 0.0996-0.8 0.0333-1.4492 0.0837-1.9492 0.15039-4.1333 0.4-7.3 0.73333-9.5 1-0.7333 0.1-1.8012 0.19883-3.2012 0.29883-1.3 0.1-2.3659 0.25117-3.1992 0.45117-1 0.23333-1.6667 0.28372-2 0.15039-0.2333-0.0667-0.4659-0.26823-0.6992-0.60156l-0.6016-0.89844c-1.8333-2.4667-3.6318-5.1004-5.3984-7.9004-1.2667-2.0333-2.2841-3.7678-3.0508-5.2012-0.7333-1.4-1.7663-3.5163-3.0996-6.3496-1.1333-2.4-1.7671-3.7992-1.9004-4.1992-1.1333-3.2-2.0326-5.5663-2.6992-7.0996-0.5667-1.4-1.1345-3.0337-1.7012-4.9004l-3.6992-13.551c-0.5333-1.8333-0.8996-3.1996-1.0996-4.0996-0.4667-2.3-0.8175-4.0171-1.0508-5.1504l-1.0508-5.5996c-0.1333-1.6333-0.2496-2.8659-0.3496-3.6992l-2.75-26.65c-0.033-0.3 0.1004-0.45117 0.4004-0.45117zm47.289 0.30048c-0.3021 0.1453-0.6244 0.26831-0.959 0.37891 0.2561-0.11557 0.5608-0.24818 0.7207-0.32813 0.097-0.0415 0.1488-0.0194 0.2383-0.0508zm-7.4922 1.0566c0.4867 0.0312 0.801 0.0679 1.7324 0.0879l-0.08 6e-3c-0.5674-3e-3 -1.1165-0.0378-1.6523-0.0937zm-36.242 52.326c-0.3338 0.0887-0.6511 0.18958-0.918 0.33008l0.014-0.0137c0.2264-0.1382 0.541-0.2381 0.9043-0.31641zm2.9336 0.17969c0.092-8e-3 0.1784 4e-3 0.2617 0.0371 0.2667 0.16667 0.4159 0.53294 0.4492 1.0996 0 0.6-0.1492 0.96823-0.4492 1.1016-0.4 0.16667-0.7159 0.48255-0.9492 0.94922-0.2667 0.36667-0.5671 0.48294-0.9004 0.34961-0.4-0.16667-0.7837-0.14936-1.1504 0.0508-0.033 0-0.3667 0.21706-1 0.65039-0.033 0.0333-0.1671 0.2-0.4004 0.5-0.1667 0.16667-0.3004 0.21511-0.4004 0.14844-0.1666-0.13333-0.2984-0.55-0.3984-1.25 0.2-0.66667 0.3666-1.1492 0.5-1.4492 0.2-0.56667 0.5333-0.98333 1-1.25 0.3-0.16667 0.7321-0.28294 1.2988-0.34961 0.6333-0.0333 1.0675-0.10117 1.3008-0.20117 0.2333-0.13333 0.4155-0.23216 0.5488-0.29883 0.1-0.05 0.1974-0.0796 0.2891-0.0879zm-8.3887 0.63672c0.048 1e-3 0.078 0.0591 0.125 0.0625-0.7497-0.0542-1.4671 0.28787-2.1582 0.9375 0.5239-0.5299 1.0731-0.9132 1.6836-0.94922h0.051zm0.4414 0.21484c0.6966 0.1296 1.3686 0.33295 1.9082 0.93555 0.055 0.10977 0.1387 0.17757 0.25 0.20117 0.1234 0.0147 0.2416-0.0202 0.3516-0.10156 0.02-8e-3 0.03-0.0377 0.049-0.0488l-0.1992 0.40039-0.4512-0.30078c-0.5785-0.69435-1.2293-0.96913-1.9082-1.0859zm-0.7402 0.68555c1.3-0.0667 2.3484 1.0012 3.1484 3.2012 0 0.0333 0.1008 0.23294 0.3008 0.59961 0.1333 0.23333 0.1837 0.36706 0.1504 0.40039-0.2333 0.23333-0.7178 0.56667-1.4512 1-0.8666 0.5-1.4151 0.84883-1.6484 1.0488-0.5 0.46667-0.75 1.0674-0.75 1.8008 0 0.0667-0.068 0.13255-0.2012 0.19922-1.6333 0.56667-2.4996 1.4504-2.5996 2.6504-0.1 1.1667-0.6504 1.4341-1.6504 0.80078-0.5333-0.3-0.8667-0.5345-1-0.70117-0.2333-0.23333-0.617-0.59961-1.1504-1.0996-0.4-0.5-0.5821-1.1163-0.5488-1.8496 0-0.33333 0.2325-0.88372 0.6992-1.6504 0.3-0.4 0.5345-0.70039 0.7012-0.90039 0.2666-0.36667 0.4159-0.75039 0.4492-1.1504 0.067-1.0333 0.5667-1.7659 1.5-2.1992 0.067-0.0333 0.5163-0.16706 1.3496-0.40039 0.5333-0.13333 0.9345-0.36589 1.2012-0.69922 0.5333-0.66667 1.0333-1.0174 1.5-1.0508zm9.6484 1.4005c0.1334 0 0.2516 0.13372 0.3516 0.40039 0.1666 0.4 0.3663 1.0822 0.5996 2.0488 0.2333 0.9 0.4659 1.5841 0.6992 2.0508 0.2 0.36667 0.1341 0.63411-0.1992 0.80078-0.5 0.23333-0.7675 0.38255-0.8008 0.44922-0.1333 0.2-0.2825 0.21731-0.4492 0.0508-1.1-1.2333-1.6678-2.3167-1.7012-3.25-0.1-0.96666 0.2837-1.7671 1.1504-2.4004 0.1667-0.1 0.283-0.15039 0.3496-0.15039zm-3.1484 1.2129c0.1333-8e-3 0.2825 0.0212 0.4492 0.0879 0.2 0.0667 0.3008 0.23333 0.3008 0.5-0.2334 1.2667 0.1155 2.3984 1.0488 3.3984 1.0667 1.1 1.5163 2.2841 1.3496 3.5508-1.2333-1.3333-2.6325-1.7674-4.1992-1.3008-0.3 0.1-0.7341 0.28411-1.3008 0.55078-0.5 0.13333-0.9321-0.0508-1.2988-0.55078-0.1-0.13333-0.4004-0.21667-0.9004-0.25-0.1667-0.0333-0.3992-0.0992-0.6992-0.19922-0.3-0.1-0.4841-0.24922-0.5508-0.44922-0.067-0.13333-0.034-0.3 0.1-0.5 0.1667-0.23333 0.283-0.4 0.3496-0.5 0.2-0.3 0.5334-0.55 1-0.75 0.6334-0.3 1.0171-0.50156 1.1504-0.60156 0.4-0.3 0.8845-0.76511 1.4512-1.3984 0.6666-0.73333 1.1318-1.2178 1.3984-1.4512 0.1-0.0833 0.2182-0.12839 0.3516-0.13672zm5.1621 4.8125c0.058 0.0167 0.1034 0.0583 0.1367 0.125 0.033 0.16667 0.066 0.2655 0.1 0.29883 0.2667 1.2 0.7182 2.45 1.3516 3.75 0.3 0.66666 0.3659 1.1667 0.1992 1.5-0.1333 0.3-0.4996 0.60039-1.0996 0.90039-0.2667 0.1-0.4508 0.0671-0.5508-0.0996-0.4-0.63333-0.7159-1.4163-0.9492-2.3496-0.2-1.0333-0.3512-1.7833-0.4512-2.25v-0.70117c0.1-0.53333 0.4508-0.91511 1.0508-1.1484 0.083-0.0333 0.1546-0.0421 0.2129-0.0254zm-10.801 1.6816c0.675 0.0125 1.2375 0.19297 1.6875 0.54297 0.3 0.16667 0.5171 0.28294 0.6504 0.34961 0.2667 0.13333 0.3674 0.3 0.3008 0.5-0.2667 0.96667-0.4179 1.9337-0.4512 2.9004 0 0.73333-0.1822 1.4833-0.5488 2.25-0.1 0.23333-0.4837 0.9-1.1504 2-0.1667 0.3-0.3333 0.81745-0.5 1.5508-0.2667 0.56667-0.7667 0.76628-1.5 0.59961-0.3667 0.13333-0.8667 0.0655-1.5-0.20117-0.9667-0.0667-1.7341-0.48334-2.3008-1.25-0.6333-0.83333-0.6992-1.7151-0.1992-2.6484 0.9667-1.5 1.6663-2.6512 2.0996-3.4512 0.1-0.2 0.2163-0.53333 0.3496-1 0.1-0.46667 0.2163-0.8 0.3496-1 0.3334-0.63333 1-0.99961 2-1.0996 0.25-0.0333 0.4879-0.0471 0.7129-0.043zm5.8633 0.46875c0.4333 0.0167 0.8587 0.12422 1.2754 0.32422 1.1333 0.46667 1.8484 1.1004 2.1484 1.9004 0.1 0.26667 0.2337 0.68333 0.4004 1.25 0.1667 0.46667 0.3837 0.83294 0.6504 1.0996s0.2667 0.53411 0 0.80078c-1.4 1.2333-1.6326 2.933-0.6992 5.0996 0.033 0.1 0.1651 0.38294 0.3984 0.84961 0.1667 0.33333 0.2345 0.51745 0.2012 0.55078-1.2667 0.93333-2.3345 1.5322-3.2012 1.7988-1.2 0.43333-2.45 0.43333-3.75 0-1.2666-0.4-2.0496-1.2159-2.3496-2.4492-0.2667-1.1333-0.082-2.1508 0.5508-3.0508 1.1333-1.6333 1.6837-3.4492 1.6504-5.4492l0.1992-0.80078c0.1333-0.43333 0.2496-0.76667 0.3496-1 0.1667-0.33333 0.4496-0.56589 0.8496-0.69922 0.45-0.16667 0.8929-0.24128 1.3262-0.22461zm-15.488 1.1992c0.425 0.0167 0.9303 0.10872 1.5137 0.27539 0.3 0.1 0.7321 0.40039 1.2988 0.90039 0.5333 0.46667 1.0178 0.73216 1.4512 0.79883 0.4666 0.0667 0.4968 0.30117 0.1 0.70117-2.1 2.2-2.0167 4.2988 0.25 6.2988 0.1 0.0667 0.082 0.16745-0.051 0.30078-0.6333 0.7-1.0325 1.2659-1.1992 1.6992-0.3 0.7-0.3 1.3996 0 2.0996 0.1667 0.4 0.1506 0.73333-0.051 1-0.2 0.2-0.45 0.28333-0.75 0.25-0.2667 0-0.6504 0.0174-1.1504 0.0508-0.4333 0-0.7996-0.0329-1.0996-0.0996-1.2-0.3-1.9325-0.99961-2.1992-2.0996-0.1333-0.66666-0.2341-1.1841-0.3008-1.5508-0.1333-0.6-0.3833-1.0826-0.75-1.4492-0.9-0.9-1.0337-1.9-0.4004-3 0.5334-0.73333 0.9171-1.2837 1.1504-1.6504 0.4333-0.63333 0.5496-1.2167 0.3496-1.75-0.1333-1.3667 0.1341-2.2329 0.8008-2.5996 0.2667-0.13333 0.6121-0.19245 1.0371-0.17578zm22.736 3.207c0.1641-0.0219 0.289 0.085 0.377 0.31836l2.9492 6.9492c0.043 0.12773 0.043 0.24401 0 0.34961l-0.9492 1.1016c-0.057-5e-3 -0.3249-0.0884-0.8008-0.25-0.4758-0.1638-1.2083-0.44869-2.1992-0.85156-0.6819-0.21752-1.223-0.60951-1.6231-1.1758-0.4001-0.56628-0.6592-1.3068-0.7773-2.2227-0.1-0.93333 0.1171-1.7337 0.6504-2.4004 0.3333-0.4 0.967-0.91745 1.9004-1.5508l0.3984-0.25c0.025-9e-3 0.051-0.0146 0.074-0.0176zm-17.096 6.3652c0.1313 2e-3 0.2719 0.0194 0.4219 0.0527 1.4333 0.4 2.5845 0.38269 3.4512-0.0508 0.1333 1.7333 1.0325 2.9504 2.6992 3.6504 1.7333 0.73333 3.6326 0.61706 5.6992-0.34961l-0.3984 0.65039c-0.1667 0.23333-0.2345 0.46589-0.2012 0.69922 0.1333 0.93333-0.2155 1.7337-1.0488 2.4004-2.3667 1.8333-4.6341 2.7326-6.8008 2.6992-1.0667-0.0667-1.8671-0.38255-2.4004-0.94922-0.3333-0.36667-0.6337-0.93255-0.9004-1.6992-0.3-0.93333-0.5151-1.5167-0.6484-1.75-0.2334-0.4-0.65-0.98333-1.25-1.75-0.4334-0.66666-0.4682-1.3508-0.1016-2.0508 0.2-0.53333 0.3841-0.91706 0.5508-1.1504 0.225-0.275 0.534-0.40859 0.9277-0.40234zm14.772 1.3027 0.25 0.0996 1.5508 0.80078c0.6 0.3 1.1833 0.61589 1.75 0.94922 0.2 0.1 0.3841 0.20078 0.5508 0.30078 0.1146 0.12891 0.2134 0.24518 0.2988 0.34961 0.4333 0.46667 0.6 1.0674 0.5 1.8008-0.1667 1.3667-0.5988 2.4655-1.2988 3.2988-0.3667 0.46667-0.8337 0.70117-1.4004 0.70117-0.5667 0.0333-1.0512-0.16823-1.4512-0.60156-0.2-0.2-0.4829-0.54883-0.8496-1.0488-0.3667-0.43333-0.7155-0.71628-1.0488-0.84961-0.9-0.33333-1.3516-1.0678-1.3516-2.2012-0.033-0.63333 0.2671-1.2671 0.9004-1.9004 0.9333-0.9 1.4663-1.4659 1.5996-1.6992zm6.25 0.80078c0.7 1.3333 1.2175 2.3333 1.5508 3 0.6333 1.2 1.2167 2.1826 1.75 2.9492-1.2667-0.16667-2.2337-0.94961-2.9004-2.3496-0.6333-1.2667-0.767-2.4663-0.4004-3.5996zm-22.398 3.0996c0.3166 0.0833 0.5318 0.34883 0.6484 0.79883 0.4 1.5333 0.8845 2.6516 1.4512 3.3516 0.4333 0.36667 0.7163 0.64961 0.8496 0.84961 0.2 0.33333 0.033 0.68216-0.5 1.0488l-1.0996 0.85156c-0.8 0.56667-1.5675 0.86511-2.3008 0.89844-0.8667 0.0333-1.5837-0.3155-2.1504-1.0488-0.2666-0.3-0.4488-0.76706-0.5488-1.4004-0.1333-0.66667-0.2845-1.1337-0.4512-1.4004-0.1-0.16667-0.2821-0.38372-0.5488-0.65039-0.2333-0.26667-0.3167-0.53216-0.25-0.79883 0-1.3 0.6492-1.9512 1.9492-1.9512h0.8496c0.3334-0.0333 0.6182-0.11667 0.8516-0.25 0.5166-0.28333 0.9333-0.38216 1.25-0.29883zm13.324 1.6113c0.05-0.025 0.074-0.0109 0.074 0.0391 0.2334 0.3 0.7334 0.71667 1.5 1.25 0.6667 0.46667 1.1182 0.93177 1.3516 1.3984 0.2666 0.5 0.7163 0.80039 1.3496 0.90039 0.6 0.13333 1.1659 0.05 1.6992-0.25 0.7333-0.43333 1.4678-1.3829 2.2012-2.8496l0.1-0.19922 0.25 0.19922c0.1333 0.5 0.3504 1.2326 0.6504 2.1992 0.2 0.83333 0.2659 1.5504 0.1992 2.1504-0.1333 2.2333-1.1333 3.3845-3 3.4512-0.3333 0-0.8333-0.0174-1.5-0.0508-0.5667-0.0333-1.0492 0.0326-1.4492 0.19922-0.9667 0.43333-2.05 0.16784-3.25-0.79883-0.2667-0.23333-0.6679-0.59961-1.2012-1.0996-0.4667-0.4-0.9667-0.58411-1.5-0.55078-1.2 0.0667-1.8996-0.43333-2.0996-1.5-0.1-0.73333 0.2508-1.3341 1.0508-1.8008 1.6666-0.93333 2.7829-1.7667 3.3496-2.5 0.1-0.1 0.1746-0.1625 0.2246-0.1875zm9.5742 0.68759 0.9004 0.75 0.5 0.25c0.2 0.13333 0.5508 0.21667 1.0508 0.25 0.4667 0.0333 0.7322 0.10117 0.7988 0.20117 1.3334 2.3667 2.2345 3.8337 2.7012 4.4004l-0.2012 0.25c-0.2 0.0667-0.4829 0.18294-0.8496 0.34961-0.3333 0.13333-0.6337 0.18372-0.9004 0.15039-1.1666-0.16667-2.0484-0.65117-2.6484-1.4512-0.3334-0.43333-0.5175-1.1-0.5508-2-0.067-0.96667-0.2004-1.6333-0.4004-2-0.1667-0.5-0.3004-0.88372-0.4004-1.1504zm-15 2.7499c0.1334 0.0333 0.1837 0.11667 0.1504 0.25-0.5333 1.6-0.049 2.5845 1.4512 2.9512 1.5 0.3 2.75 0.93373 3.75 1.9004 0.9666 0.96667 2.1333 1.2826 3.5 0.94922 1.2-0.26667 1.9151-0.31706 2.1484-0.15039 0.2334 0.16667 0.3671 0.83333 0.4004 2 0 0.53333-0.1492 1.5508-0.4492 3.0508-0.1333 0.66667-0.5675 1.25-1.3008 1.75-0.7667 0.46667-1.4488 0.60039-2.0488 0.40039-1.5-0.53333-2.75-0.76784-3.75-0.70117-1.5334 0.0333-2.6845-0.16628-3.4512-0.59961-0.7333-0.4-1.4659-1.2663-2.1992-2.5996-0.5333-0.86667-0.8337-1.3667-0.9004-1.5-0.4-0.53333-0.8496-0.91706-1.3496-1.1504-0.5333-0.23333-0.8841-0.58412-1.0508-1.0508-0.1-0.33333-0.1504-0.83334-0.1504-1.5 0-0.53333 0.1512-1.1322 0.4512-1.7988 0.3667-0.8 0.6167-1.2671 0.75-1.4004 0.3667-0.43333 0.8996-0.56706 1.5996-0.40039s1.4326 0.0504 2.1992-0.34961c0.1-0.0333 0.1834-0.0508 0.25-0.0508zm-12.115 1.4687c0.018 0.0455 0.05 0.0323 0.066 0.082 0.1117 0.37978 0.3396 0.62932 0.5449 0.9043-0.064-0.0717-0.1339-0.12686-0.1953-0.20508-0.146-0.16771-0.2846-0.43698-0.416-0.78125zm27.816 1.2812c-0.011 0.15586 0.055 0.30703 0.1992 0.45117 0.2333 0.13333 0.3845 0.24961 0.4512 0.34961 0.2333 0.36667 0.7992 0.7 1.6992 1 0.8667 0.26667 1.4829 0.31706 1.8496 0.15039 0.6667-0.26667 1.1163-0.40039 1.3496-0.40039 0.4334 0 0.7841 0.31589 1.0508 0.94922 0.4333 0.63333 0.7492 1.1004 0.9492 1.4004l2.9512 3.9512c-0.1667-0.0333-0.3663-0.0837-0.5996-0.15039-0.1-0.0333-0.2667-0.0178-0.5 0.0488-2.4333-0.46667-4.5012 0.10117-6.2012 1.7012-0.4333 0.4-0.9837 0.59961-1.6504 0.59961-0.6333 0.0333-1.1333-0.13333-1.5-0.5-1.0333-1.0667-1.7329-1.8671-2.0996-2.4004-0.6667-1-1.0155-2.0155-1.0488-3.0488 0-0.76666 0.033-1.1504 0.1-1.1504 1.4811-0.19753 2.4811-1.182 3-2.9512zm-22.051 0.10156-0.088 0.1582c0-2e-3 -0.01-7e-3 -0.012-0.01-0.1374-0.0181-0.2536-7.6e-4 -0.3496 0.0508-0.8027 0.39427-1.5372 0.59361-2.2012 0.59961-0.2766-2e-3 -0.5415-0.0366-0.7949-0.0996 0.9989 0.19881 2.0478-3.3e-4 3.1465-0.59961zm3.4551 6.2442c0.8929 1.5776 1.7868 2.732 2.6797 3.3711-0.8454-0.53212-1.6407-1.4458-2.3828-2.7656-0.01-0.0171-0.01-0.0345 0-0.0508l-0.1504-0.29883c-0.01-0.0172-0.01-0.0347 0-0.0508-0.054-0.087-0.095-0.12374-0.1465-0.20508zm15.144 0.4551c0.073 0.20403 0.2599 0.35674 0.3555 0.55078-0.088-0.0131-0.174-0.0187-0.2539 0-0.1064 0.0237-0.19 0.0721-0.25 0.14844-0.085 0.0786-0.1364 0.162-0.1504 0.25l-0.1 0.65039h0.049c-0.1684 0.63845-0.5416 1.2121-1.0957 1.7266 0.7208-0.73579 1.2204-1.8156 1.4453-3.3262zm-1.6406 3.502c-0.038 0.0321-0.069 0.0661-0.1094 0.0977-0.7712 0.59323-1.5696 0.89339-2.3984 0.90039-0.047 2e-5 -0.087-0.0226-0.1328-0.0254 0.9831 0.102 1.8578-0.24476 2.6406-0.97266z"/>
 <path d="m45.451 45.949-0.8008 0.15039c-0.1693 0.0503-0.2681 0.10066-0.2988 0.15039-0.012 0.037-0.029 0.0525-0.051 0.0488l-0.4004 0.30078-0.2988 0.29883c0.037 0.0397 0.052 0.0746 0.049 0.10156 0.01 0.0529-0.026 0.0858-0.1 0.0996-0.012 0.1362-0.012 0.26992 0 0.40039 0.037 5e-3 0.054 5e-3 0.051 0 0.035 0.0376 0.05 0.0705 0.049 0.0996 0.01 0.0585 0.058 0.10886 0.1504 0.15039l0.6504 0.34961h-0.051l0.25 0.0996c0.034 7e-3 0.052 7e-3 0.051 0l0.2988 0.25 0.1504 0.0996c0.021 0.0212 0.039 0.0386 0.051 0.0508 0.3613 0.8957 0.6443 1.762 0.8496 2.5996 0.3042 1.1331 0.3216 2.2668 0.051 3.4004-0.01 0.0377-0.027 0.0532-0.051 0.0488l-4.0508 3.0508h0.051c-0.029 0.05-0.047 0.10039-0.051 0.15039v0.25002c0.034 0.12213 0.069 0.27135 0.1016 0.44922 0.021 0.0561 0.054 0.12397 0.1 0.20117 0.1881 0.10169 0.3703 0.21797 0.5488 0.34961 0.075-1.3e-4 0.1584 0.0154 0.25 0.0488 0.9188-0.26823 1.9033-0.78372 2.9512-1.5488 0.015 3e-3 0.03 3e-3 0.049 0 0.018 3e-3 0.035 3e-3 0.051 0 0.3353 0.19388 0.469 0.57761 0.4004 1.1504-0.1679 1.3831-0.352 2.7319-0.5508 4.0488l-0.049 0.0508c-0.35 0.56667-0.7337 1.1171-1.1504 1.6504-0.3194 0.43828-0.6527 0.85495-1 1.25-0.01 0.0441-0.026 0.0771-0.051 0.0996-0.4492 0.57956-0.8988 1.13-1.3496 1.6504-0.2797 0.36823-0.5471 0.7345-0.8008 1.0996-0.2083 0.4-0.4583 0.81667-0.75 1.25-0.4381 0.68555-0.7036 1.4859-0.7988 2.4004-0.099 0.95716-0.083 1.806 0.049 2.5488 0.1589 0.67839 0.4767 1.2947 0.9512 1.8496 0.8026 0.93724 1.7522 1.5884 2.8496 1.9512 0.037 0.0113 0.055 0.0268 0.051 0.0488 0.031 0.0147 0.047 0.0322 0.049 0.0508 0 0.0185-0.015 0.0359-0.049 0.0508-0.2168 0.33333-0.4668 0.68216-0.75 1.0488-1.7022 2.5187-2.5201 5.3366-2.4512 8.4512 0.034 0.65859 0.1503 1.3408 0.3496 2.0488h-0.049c0.5702 0.96992 1.1865 1.5532 1.8496 1.75h0.051c0.019 2e-3 0.034 2e-3 0.049 0 0.022 0.0294 0.04 0.0469 0.051 0.0508 0.01 0.0333 0.01 0.0488 0 0.0488-0.1997 0.61653-0.3664 1.2173-0.5 1.8008-0.2657 1.0753-0.3995 2.176-0.4004 3.3008 0.01 0.45039 0.1229 0.9155 0.3496 1.3984 0.01 0.0336 0.01 0.0685 0 0.10156 0.3246 0.42161 0.6754 0.80339 1.0508 1.1484 0.2418 0.21667 0.4918 0.41823 0.75 0.60156 1.1435 0.73281 2.376 0.98281 3.6992 0.75h0.051c1.2694 0.12851 2.3198-0.23972 3.1504-1.1016 0.4471-0.47487 0.7301-1.1066 0.8496-1.8984l1.098-3.8007c0.011-4e-3 0.028-0.0215 0.051-0.0508 0.015 1e-3 0.03 1e-3 0.049 0 0.019 1e-3 0.037 1e-3 0.051 0 0.023 0.0294 0.038 0.0468 0.049 0.0508l1.7012 6.5996v0.0508c-0.6 0.43333-1.1833 0.8655-1.75 1.2988-0.5 0.46666-1 0.95117-1.5 1.4512-0.1333 0.1-0.2496 0.23372-0.3496 0.40039-0.1 0.0667-0.1679 0.13255-0.2012 0.19922-0.033 0.0333-0.049 0.0837-0.049 0.15039h-0.051c-0.2 0.33333-0.3337 0.78294-0.4004 1.3496l-0.1 0.19922c-0.067 0.16667-0.1 0.45156-0.1 0.85156-0.067 1.4 0.05 2.4329 0.3496 3.0996 0.2667 0.6 0.7841 1.2822 1.5508 2.0488l0.4492 0.45117 0.75 0.40039c1 0.53333 1.9496 0.59922 2.8496 0.19922h0.051c0.1-0.0333 0.2163-0.0837 0.3496-0.15039h0.151c0.1-0.0667 0.1988-0.0996 0.2988-0.0996 0.1-0.0333 0.2008-0.0159 0.3008 0.0508 0.033-0.0333 0.084-0.0508 0.1504-0.0508 0.033 0 0.066 0.0174 0.1 0.0508v0.19917c0.1 0.13333 0.1833 0.35039 0.25 0.65039 0.033 0.36667 0.051 0.7155 0.051 1.0488v0.3008l-0.1016 0.69922c0 0.2-0.033 0.36667-0.1 0.5-0.4 0.86666-0.5492 1.7349-0.4492 2.6016 0.067 0.6 0.15 1.2163 0.25 1.8496 0.067 0.6 0.15 1.0322 0.25 1.2988 0.1333 0.4 0.3 0.75078 0.5 1.0508 0.033 0.0667 0.066 0.16745 0.1 0.30078v-0.0508c0.033 0.0667 0.2 0.20039 0.5 0.40039l0.4004 0.0996v0.0508c0.067 0 0.15-0.0349 0.25-0.10156 0.2667-0.26667 0.3325-0.58255 0.1992-0.94922h0.051l-0.4004-0.55078h-0.051l-0.1992-0.5v-0.0488c-0.033-0.33333-0.066-0.65117-0.1-0.95117l-0.2012-0.75v-0.0488c0.2-0.63333 0.4171-1.2496 0.6504-1.8496 0.3667-1.0667 0.6012-2.1016 0.7012-3.1016v-0.14844c0.067-0.83333 0.067-1.6841 0-2.5508 0-0.0333 0.015-0.0508 0.049-0.0508 0-0.0333 0.017-0.0488 0.051-0.0488l0.6992-0.30078 0.1-0.0996 1.4512-0.90039c0.8-0.63333 1.2322-0.98216 1.2988-1.0488l0.8008-1.1016c0.067-0.23333 0.067-0.58216 0-1.0488l-0.25-0.80078c-0.1333-0.26667-0.2496-0.43333-0.3496-0.5-0.2-0.16667-0.5178-0.25-0.9512-0.25h-0.049c-0.6333 0.1-1.2845 0.35-1.9512 0.75h0.05c-0.2667 0.23333-0.5167 0.45039-0.75 0.65039-0.4 0.33333-0.7508 0.64922-1.0508 0.94922h-0.149c-0.033 0-0.051-0.0155-0.051-0.0488-0.1667-0.33333-0.3159-0.69961-0.4492-1.0996-0.1667-0.5-0.3004-0.88372-0.4004-1.1504 0-0.0667-0.017-0.11706-0.051-0.15039-0.2947-1.0177-0.6105-2.2503-0.9492-3.6992l0.5996-0.5c0.509-0.63072 0.8423-1.2141 1-1.75v-0.0509l-0.25-2.0996c-0.1253-0.54037-0.3753-1.1237-0.75-1.75-0.4621-0.34948-0.9447-0.71576-1.4492-1.0996-0.022 4e-3 -0.04-0.0134-0.051-0.0508l-2.3008-7.0996v0.0488c-0.399-0.73581-0.9145-1.3346-1.5488-1.7988-0.06-0.0581-0.1278-0.1259-0.2012-0.20117l-1.9492-1.2988v0.0488l-0.3008-0.14844-0.7988-0.20117-0.4512 0.15039-0.1 0.0996c0 0.029-0.015 0.0464-0.049 0.0508l-0.051 0.0488-0.051 0.45117 0.051 0.15039c0.062 0.15261 0.1957 0.26888 0.4004 0.34961 0.034 0.0337 0.05 0.0492 0.049 0.0488 0.035 0.0376 0.052 0.0725 0.051 0.10156 0 0.029-0.017 0.0445-0.051 0.0488 0.8077 1.9384 1.8426 3.7214 3.1016 5.3496 0.3763 0.45989 0.5081 0.87656 0.3984 1.25-0.01 0.0353-0.022 0.0527-0.049 0.0508 0 0.0283-0.017 0.0457-0.051 0.0508-0.094 0.0358-0.1771 0.0513-0.25 0.0488-0.057 0-0.107-0.0155-0.1504-0.0488-0.1009 5e-3 -0.1997 0.0208-0.2988 0.0488-0.24 0.12903-0.4745 0.24531-0.7012 0.34961v-0.0488c-0.5166 0.8-0.9818 1.4996-1.3984 2.0996-0.5936 1.0242-1.4948 1.7083-2.7012 2.0508-0.8874 0.20847-1.6878-0.026-2.4004-0.70117 0.01 2e-3 0.01-0.0135 0-0.0488-0.067-0.18281-0.1156-0.39987-0.1484-0.65039-0.1025-0.60859 0.047-1.2249 0.4492-1.8496l0.051-0.0508c0.1083-0.0598 0.2071-0.11019 0.2988-0.15039 0.89-0.45873 1.6071-0.94128 2.1504-1.4492h0.051c0.667-0.49232 1.2-1.1435 1.5996-1.9512-0.075-0.25612-0.1761-0.50612-0.3008-0.75v-0.0488c-0.058-0.15-0.1239-0.30117-0.1992-0.45117-0.025 4e-3 -0.058 4e-3 -0.1 0-0.1734-0.0574-0.4582-0.0225-0.8516 0.10156h0.051l-0.9492 0.39844h-0.051c-0.8313 0.27031-1.3313 0.40404-1.5 0.40039-0.5877 0.068-1.0877-0.0658-1.5-0.40039h-0.051c-0.075-0.0831-0.158-0.1819-0.25-0.29883-0.2502-0.29974-0.4828-0.61758-0.6992-0.95117-0.2026-0.41667-0.3189-0.83334-0.3496-1.25-0.036-1.2082 0.1636-2.4408 0.5996-3.6992 0.2067-0.53437 0.4896-1.0344 0.8496-1.5v0.0508c0.5165-0.6418 1.034-1.2755 1.5508-1.9004 1.0165-1.1751 1.9487-2.4251 2.7988-3.75 0.4746-0.73373 0.8913-1.5167 1.25-2.3496 0.4286-0.98203 0.6127-1.8832 0.5508-2.7012-0.128-1.2939-0.5621-2.4102-1.3008-3.3496l-2.3496-0.90039c-0.01-0.0121-0.022-0.0276-0.049-0.0488v-0.1016c1.2054-1.9512 1.9554-4.1004 2.25-6.4492 0.2329-2.0332 0.3162-4.0158 0.25-5.9492-0.033-1.1667-0.084-2.3333-0.1504-3.5-0.065-0.80729-0.2158-1.5922-0.4512-2.3516 0.011 0 0.011-0.0155 0-0.0488 0.029-0.0414 0.029-0.10924 0-0.20117l-0.1-0.69922-0.2988-0.84961-0.1016-0.0996v-0.05075c-0.01-9e-3 -0.01-0.0268 0-0.0508v-0.0488l-0.049-0.0508h0.049l-0.6484-0.44922v0.0488l-0.3978-0.19918zm-9.6504 0.5c-0.2686-1e-3 -0.4857 0.0491-0.6504 0.15039-0.1319 0.16406-0.1978 0.36367-0.1992 0.59961 0 0.0997 0.015 0.16563 0.049 0.19922v0.05078c0.078 0.0914 0.1787 0.17474 0.3008 0.25 0.021 0.0299 0.038 0.0474 0.051 0.0508 0.01 0.0331 0.01 0.0486 0 0.0488v0.0508c0.4334 0.39753 0.8831 0.79675 1.3496 1.1992 0.1865 0.0125 0.3027 0.0804 0.3496 0.20117 0.093 0.0803 0.1433 0.17917 0.1504 0.29883 0.067 0.25078 0.1835 0.58411 0.3496 1 0.072 0.49635-0.062 0.84713-0.4004 1.0508v0.0488l-0.4004 0.20117h-0.049c-0.7287 0.16823-1.2132 0.25156-1.4512 0.25l-0.5488 0.0488-0.3496 0.20117-0.051 0.0488-0.6504 0.25c-0.138 0.11693-0.2368 0.30104-0.2988 0.55078l0.049 0.75c0.059 0.32187 0.1427 0.52148 0.25 0.59961l0.1 0.0996c0.2392 0.0724 0.5067 0.17317 0.8008 0.30078 0.3735-0.0363 0.7242-0.0867 1.0508-0.15039 1.0162-0.40039 2.0821-0.71628 3.1992-0.94922h0.051c0.05-0.0373 0.098-0.0547 0.1484-0.0508 0.1742-0.10091 0.3409-0.11641 0.5-0.0488h0.051c0.067 0.0354 0.1173 0.0683 0.1504 0.0996 0.1903 0.0477 0.324 0.1465 0.4004 0.29883 0.01 0.0241 0.01 0.0415 0 0.0508 0 0.0362-0.017 0.0537-0.051 0.0508-0.01 0.0448-0.025 0.0932-0.051 0.14844-0.038 0.16992-0.1368 0.40442-0.2988 0.70117h-0.051l-1.1504 1.75 0.051-0.0508c-0.2746 0.80039-0.9742 1.6182-2.0996 2.4512l-1.75 1.4492c-0.1833 0.18333-0.383 0.35-0.5996 0.5-0.502 0.43529-0.8353 0.90234-1 1.4004-0.033 0.18294-0.084 0.4-0.1504 0.65039 0.01 0.26875 0.057 0.45091 0.1504 0.54883 0.1972 0.19505 0.4298 0.27839 0.6992 0.25 0.1853-5e-3 0.4023-0.0706 0.6504-0.19922 0.3347-0.16015 0.8347-0.49349 1.5-1l1-0.80078c0.1583-0.11693 0.3075-0.26615 0.4492-0.44922 0.5583-0.42604 1.1087-0.77682 1.6504-1.0508 0.024-0.01 0.041-0.01 0.051 0 0.039 9e-3 0.055 0.0266 0.049 0.0508l0.5996 1h0.051l1 2.5h-0.051c0.1042 0.14375 0.2224 0.24258 0.3516 0.29883h0.049l0.4512 0.20117c0.09 0.0694 0.2218 0.10234 0.3984 0.0996h0.2996l0.3008-0.0996 0.3496-0.25 0.1992-0.25v-0.24997c0.1599-0.78008-0.057-1.4971-0.6504-2.1504l-0.1-0.19922c-0.4504-0.73372-1.15-1.7686-2.0996-3.1016v-0.0996c0.9741-1.5255 1.7415-3.1592 2.3008-4.9004 0.3889-1.0775 0.2552-2.0096-0.4004-2.7988-0.1525-0.0351-0.3036-0.0855-0.4512-0.15039l-1.3984 0.5c2e-4 6e-3 -0.017 6e-3 -0.051 0 0-3e-3 -0.017-0.0208-0.051-0.0508v-0.0488l-0.1484-0.84961-0.1504-0.45117v0.0508l-0.4512-0.75-0.2988-0.34961-0.2012-0.40039c-0.053-0.0944-0.3866-0.3289-1-0.70117l-1.0996-0.69922v0.0508l-0.5-0.25zm2.6992 4.5996c0.037-1e-3 0.072-1e-3 0.1016 0 0.029-1e-3 0.045-1e-3 0.049 0l0.051 0.0508c0.035 0.0376 0.05 0.0705 0.049 0.0996 0 0.0291-0.015 0.0465-0.049 0.0508-0.01 0.0347-0.024 0.0502-0.051 0.0488h-0.049c-0.029 1e-3 -0.064-0.0142-0.1016-0.0488v-0.1016zm7.1016 18.301c0.015 3e-3 0.031 3e-3 0.049 0 0.275-1e-3 0.5425 0.0316 0.8008 0.0996 0.1176 7e-3 0.2339 0.0571 0.3496 0.15039 0.3505 0.0407 0.5831 0.17446 0.6992 0.40039 0.6435 1.223 0.7617 2.5389 0.3516 3.9492-0.3067 1.0824-0.9908 1.8828-2.0508 2.4004h-0.051c-1.4624-0.069-2.2279-0.88685-2.2988-2.4512v-1.0488c0.033-0.43333 0.066-0.85 0.1-1.25v-0.0508c0.2405-0.44271 0.5234-0.84193 0.8496-1.1992 0.3573-0.38477 0.7584-0.7181 1.2012-1zm9.5488 34.1c0.033 0 0.051 0.0174 0.051 0.0508h0.049c0.2334 0.53333 0.4504 1.0818 0.6504 1.6484v0.0508c0.5 1.6 0.9845 3.2667 1.4512 5v0.0996h-0.051c-0.1667 0.0333-0.3159 0.0837-0.4492 0.15039l-0.4512 0.15039-0.4004 0.0488h-0.75c-0.7666-0.16667-1.35-0.48255-1.75-0.94922-0.067-0.0667-0.1984-0.26628-0.3984-0.59961v0.0488c-0.6667-0.76667-0.8508-1.7822-0.5508-3.0488 0.1333-0.56667 0.3329-1.0008 0.5996-1.3008 0.1667-0.2 0.3508-0.34922 0.5508-0.44922 0.033-0.0333 0.084-0.0663 0.1504-0.0996l1.25-0.75c0-0.0333 0.015-0.0508 0.049-0.0508z"/>
 <g transform="translate(-1113.4 -186.3)">
  <path transform="translate(160.15,84.1)" d="m958.3 102.2c-3.3333 0-5 1.6667-5 5v158.2c0 3.3333 1.6667 5 5 5h93.201c3.3333 0 5-1.6667 5-5v-158.2c0-3.3333-1.6667-5-5-5zm8.3008 7.1992h76.6c4.6667 0 7 2.3333 7 7v139.8c0 4.6667-2.3333 7-7 7h-76.6c-4.6667 0-7-2.3333-7-7v-139.8c0-4.6667 2.3333-7 7-7z" fill="#ef1d1e"/>
  <path transform="translate(160.15,84.1)" d="m966.6 109.4c-4.6667 0-7 2.3333-7 7v139.8c0 4.6667 2.3333 7 7 7h76.6c4.6667 0 7-2.3333 7-7v-139.8c0-4.6667-2.3333-7-7-7z" fill="none" stroke="#000" stroke-width="1.2"/>
 </g>
</svg>
