<svg width="103.2" height="168.2" preserveAspectRatio="none" version="1.1" viewBox="0 0 103.2 168.2" xmlns="http://www.w3.org/2000/svg">
 <path d="m13.301 7.1992c-4.6667 0-7 2.3333-7 7v139.8c0 4.6667 2.3333 7 7 7h76.6c4.6667 0 7-2.3333 7-7v-139.8c0-4.6667-2.3333-7-7-7z" fill="#fff"/>
 <path d="m48.19 100.43-10.076 15.91 10.695 4.6836 14.762-16.086z" fill="#faea01"/>
 <path d="m64.25 20.049c-1.0667 0-1.9659 0.26745-2.6992 0.80078v-0.0508c-1.3334 0.93333-2.4671 1.4004-3.4004 1.4004h-0.051l-0.2988-0.0508h-0.6504c-1.8 0-3.083 0.85078-3.8496 2.5508h0.049c-0.2 0.46667-0.3492 0.93372-0.4492 1.4004-0.033 0.1-0.084 0.19883-0.1504 0.29883-0.1 0.0667-0.2163 0.10156-0.3496 0.10156-0.1 0-0.2008-0.0349-0.3008-0.10156l-0.25-0.19922-0.1992-0.0996c-0.8-0.56667-1.3833-0.93294-1.75-1.0996h-0.051c-0.6333-0.33333-1.267-0.53489-1.9004-0.60156-0.067 0.0333-0.1325 0.0508-0.1992 0.0508-1.7 0.1-2.8337 0.74922-3.4004 1.9492-0.8333 2-1.8488 3.6667-3.0488 5-0.4667 0.46666-0.7516 1.0171-0.8516 1.6504-0.1333 0.63333-0.083 1.2671 0.1504 1.9004v0.0508c0.033 0.13333 0.1496 0.39883 0.3496 0.79883 0.033 0.0667 0.051 0.15 0.051 0.25s-0.033 0.20078-0.1 0.30078c-0.067 0.0667-0.15 0.11706-0.25 0.15039h-0.3008c-1.2667-0.43333-2.4004-0.66784-3.4004-0.70117l-0.5996 0.0996c-1.1333 0.16667-1.9667 0.43411-2.5 0.80078-0.8667 0.66667-1.3667 1.5504-1.5 2.6504-0.1333 1.1333 0.1167 2.3504 0.75 3.6504 0.5667 1.0667 0.8012 1.9484 0.7012 2.6484v0.05078l-0.25 1.1504v0.0488c-0.4 1.5-0.4 2.7674 0 3.8008 0.2666 0.7 0.7318 1.3008 1.3984 1.8008 0.6334 0.43333 1.3349 0.64844 2.1016 0.64844h0.1c0.1333 0 0.2496 0.0504 0.3496 0.15039 0.067 0.0667 0.1171 0.15 0.1504 0.25 0.033 0.13333 0.016 0.24961-0.051 0.34961-0.5333 0.96666-0.7155 1.9008-0.5488 2.8008v0.0508c0.2 1.0667 0.9151 1.9988 2.1484 2.7988h-0.049l0.25 0.15039c1.3333 0.8 2.25 1.5171 2.75 2.1504l0.25 0.34961c0.4667 0.6 0.8329 1.0167 1.0996 1.25l0.051 0.0508c0.4666 0.36667 0.9821 0.56628 1.5488 0.59961l0.7012-0.0996h0.049c1.0333-0.0333 1.8996-0.1845 2.5996-0.45117 0.8334-0.36667 1.5834-0.98294 2.25-1.8496 0.7667-0.96667 1.2182-1.8 1.3516-2.5 0.033-0.13333 0.099-0.23411 0.1992-0.30078 0.067-0.1 0.1674-0.14844 0.3008-0.14844h0.1c0.2333 0 0.4659-0.0349 0.6992-0.10156 1.0667-0.43333 2.0008-1.3151 2.8008-2.6484 0.6667-1.1667 1.0988-2.4516 1.2988-3.8516v-0.19924c0.067-0.66667-0.032-1.2674-0.2988-1.8008-0.033-0.13333-0.051-0.24961-0.051-0.34961 0.033-0.1 0.084-0.18333 0.1504-0.25 0.067-0.0667 0.1674-0.11706 0.3008-0.15039l1.0996-0.14844c2.3667-0.43333 4.4655-1.4837 6.2988-3.1504l0.4512-0.45117c0.1-0.1 0.2163-0.14844 0.3496-0.14844s0.2496 0.0484 0.3496 0.14844l0.1504 0.15039c0.8667 0.86667 1.9674 1.5178 3.3008 1.9512 0.1333 0.0333 0.2321 0.0992 0.2988 0.19922 0.033 0.13333 0.051 0.26706 0.051 0.40039-0.032 0.0629-0.011 0.2125 0.047 0.42383 0.16 0.50121 0.066 1.3032-0.2969 2.4258v0.0508c-0.1667 0.43333-0.1524 0.79961 0.049 1.0996v0.0488c0.2334 0.26667 0.5841 0.40039 1.0508 0.40039h0.051c0.9666 0 1.8988-0.48255 2.7988-1.4492 0.7333-0.86667 1.15-1.7833 1.25-2.75 0-0.1 0.05-0.20078 0.1504-0.30078 0.067-0.1 0.1674-0.15039 0.3008-0.15039 0.1 0 0.1988 0.0349 0.2988 0.10156 1.1 0.6 2.3345 0.98177 3.7012 1.1484h0.25c0.8333 0 1.5484-0.23255 2.1484-0.69922 0.4334-0.36667 0.7667-0.84922 1-1.4492 0.067-0.36667 0.1171-0.90156 0.1504-1.6016v-0.0488l0.062-0.40039c0.067-1.4667 0.367-2.55 0.9004-3.25 0-0.0333 0.015-0.0508 0.049-0.0508l0.3008-0.34961c0.7667-0.93333 1.067-1.7996 0.9004-2.5996-0.2334-0.86667-0.7508-1.6496-1.5508-2.3496-0.8333-0.76667-1.75-1.2512-2.75-1.4512-0.1-0.0333-0.1833-0.0818-0.25-0.14844-0.067-0.0667-0.1015-0.1345-0.1015-0.20117-0.033-0.1-0.033-0.19883 0-0.29883 0.067-0.26667 0.1015-0.53411 0.1015-0.80078v-0.0508c0.033-0.26667 1e-4 -0.79961-0.1015-1.5996-0.1-0.73333-0.1161-1.2992-0.051-1.6992 0.2-0.9 0.1659-1.6171-0.1016-2.1504-0.9667-1.9667-2.5326-2.9667-4.6992-3l-0.6016 0.0508h-0.1015c-0.2-0.0333-0.4656-0.0508-0.7989-0.0508-0.7 0-1.2834 0.11628-1.75 0.34961h-0.055l-1.9004 0.80078c-0.1333 0.0667-0.2496 0.0822-0.3496 0.0488-0.1333-0.0667-0.2341-0.15-0.3008-0.25-0.067-0.13333-0.067-0.26511 0-0.39844v-0.05073c0-0.43333-0.099-1.0341-0.2989-1.8008l-0.053-0.0488-0.1-0.5 0.051 0.0488c-0.3334-1.1-1-1.9333-2-2.5-0.9334-0.56667-1.9508-0.84961-3.0508-0.84961zm-2.7598 61.051c-0.7633 1e-3 -1.4923 0.23444-2.1894 0.69922h-0.051c-0.6667 0.4-1.5659 0.59961-2.6992 0.59961h-1.2012c-1.4333 0-2.6329 0.58333-3.5996 1.75v-0.0488c-0.3333 0.46667-0.5329 0.85039-0.5996 1.1504-0.033 0.1-0.1012 0.18333-0.2012 0.25-0.1 0.0667-0.1988 0.0996-0.2988 0.0996s-0.2008-0.0329-0.3008-0.0996c-0.9-0.73333-1.8825-1.1016-2.9492-1.1016h-0.3496l-1.4512 0.25c-0.8667 0.16667-1.5992 0.25-2.1992 0.25l-0.75-0.0488h-0.1l-0.7012-0.20117c-0.033-0.0333-0.068-0.0488-0.1016-0.0488-0.5-0.23333-0.9496-0.34961-1.3496-0.34961l-0.3007 0.0488h-0.049c-2.1333 0.16667-3.6681 1.1512-4.6015 2.9512-0.4666 0.93333-0.9319 1.5826-1.3985 1.9492h-0.051c-0.5 0.43333-1.1336 0.66589-1.9003 0.69922h-0.25c-1.0667 0-1.7993 0.35078-2.1993 1.0508-0.7 1.2-0.9344 2.4326-0.7011 3.6992 0 0.1-0.025 0.20078-0.059 0.30078-0.033 0.0667-0.099 0.13255-0.1992 0.19922-0.1 0.0333-0.2008 0.0508-0.3008 0.0508l-0.9004-0.0996c-1.2 0-2.2486 0.41667-3.1485 1.25-0.9667 0.83333-1.5344 1.8333-1.7011 3-0.3 2.3-0.8658 4.05-1.6992 5.25h0.059l-0.1015 0.15039h-0.059c-0.3 0.4-0.5502 0.78177-0.75 1.1484-0.2333 0.4-0.4002 0.76823-0.5 1.1016-0.3667 0.86667-0.3974 1.7484-0.1 2.6484 0.033 0.0333 0.066 0.0837 0.1 0.15039 0.2331 0.7 0.4504 1.1845 0.6504 1.4512 0.067 0.0667 0.1015 0.15 0.1015 0.25s-0.015 0.18333-0.049 0.25c-0.033 0.1-0.084 0.18333-0.1504 0.25-2.1 1.3667-2.9663 3.0818-2.5996 5.1484 0.1 0.43333 0.35 1.0845 0.75 1.9512v-0.0508c0.4 0.76667 0.6152 1.3345 0.6485 1.7012v0.14844c0.1667 1.2 0.5 2.0682 1 2.6016 0.8334 0.83333 2.184 1.5659 4.0507 2.1992l0.8496 0.25h0.055c2.2 0.8 3.5528 1.9667 4.0528 3.5 0.7 2.1333 1.8472 3.2167 3.4472 3.25 0.7667 0 1.6-0.21706 2.5-0.65039 0.1-0.0667 0.2163-0.0667 0.3496 0 0.1 0 0.2028 0.0678 0.3028 0.20117 0.067 0.1 0.084 0.21628 0.051 0.34961l-0.1016 0.65039c-0.067 1.3667 0.3171 2.5488 1.1504 3.5488 0.9 1.0333 2.0822 1.6012 3.5488 1.7012 1.2334 0.1 2.6171 0.49922 4.1504 1.1992 0.8333 0.33333 1.6163 0.5 2.3496 0.5 0.9667 0 1.9337-0.30039 2.9004-0.90039 1.1667-0.76667 2.0175-1.2667 2.5508-1.5 1.0333-0.5 2.0159-0.7655 2.9492-0.79883 1.0333-0.0333 1.95-0.68451 2.75-1.9512 0.033-0.1 0.1167-0.16589 0.25-0.19922 0.1-0.0667 0.2008-0.0667 0.3008 0 0.1 0 0.1833 0.0504 0.25 0.15039 0.9667 1.3 2.2322 1.9492 3.7988 1.9492 0.8 0 1.5171-0.14922 2.1504-0.44922 2.0333-0.83333 4.0333-1.25 6-1.25h0.053c3.0333 0 5.3996-1.5504 7.0996-4.6504h0.051l0.1992-0.34961-0.051 0.0488c0.8667-1.6667 1.6515-2.8488 2.3515-3.5488 0-0.0333 0.015-0.0508 0.049-0.0508l0.4511-0.34961c0.6333-0.5 1.0829-1.0329 1.3496-1.5996 0.5-1.1667 0.4659-2.4167-0.1015-3.75-0.2-0.5-0.4171-0.88372-0.6504-1.1504-0.1-0.1-0.1504-0.20078-0.1504-0.30078s0.035-0.19883 0.1016-0.29883c0.033-0.1 0.1167-0.16784 0.25-0.20117 1.2667-0.53333 2.1503-1.45 2.6503-2.75l0.1504-0.40039c0.5-1.4667 0.8993-2.5326 1.1993-3.1992 0.5667-1.1333 1.2507-2.05 2.0507-2.75 0.5667-0.53333 0.966-1.1826 1.1993-1.9492 0.1667-0.73333 0.1324-1.4504-0.1016-2.1504l-0.051-0.0996c-0.2333-0.6-0.7159-1.4004-1.4492-2.4004l-0.1016-0.0996c-0.033 0-0.051-0.0174-0.051-0.0508-0.7-0.96667-1.0837-2.1159-1.1504-3.4492-0.067-1.2667-0.2666-2.2337-0.5996-2.9004h-0.055c-0.4334-0.8-1.1681-1.4163-2.2012-1.8496l-0.1992-0.10156h-0.053c-0.3333-0.23333-0.6996-0.36511-1.0996-0.39844-0.1667 0-0.2829-0.0504-0.3496-0.15039-0.1-0.1-0.1504-0.21628-0.1504-0.34961 0.067-0.9-0.067-1.6849-0.4004-2.3516-0.3667-0.7-1.0837-1.3318-2.1504-1.8984l-1.3496-0.90039-0.049-0.0508c-1.3-1.0333-2.5016-1.5488-3.6016-1.5488h-0.75c-0.2 0.0333-0.3492 0.0818-0.4492 0.14844l-0.053 0.0508-1.3984 0.69922c-0.1334 0.0667-0.2516 0.0841-0.3516 0.0508-0.1333-0.0333-0.2321-0.0837-0.2988-0.15039-0.067-0.1-0.1-0.21628-0.1-0.34961v-0.15039c0.1-0.93333-0.15-1.8171-0.75-2.6504-0.5667-0.86667-1.2837-1.3667-2.1504-1.5-1.3667-0.2-2.3163-0.54883-2.8496-1.0488h0.049c-0.9313-0.83153-1.9613-1.2482-3.0918-1.25zm-5.6406 22.85h0.5996c-0.2333 2.6-0.067 4.6329 0.5 6.0996-0.1 0.0334-0.183 0.0508-0.25 0.0508-0.4 0.0667-0.7818 0.15-1.1484 0.25-0.7 0.3-1.2679 0.60039-1.7012 0.90039s-0.8325 0.61589-1.1992 0.94922c-0.4 0.36667-0.8341 0.78333-1.3008 1.25-0.4333 0.4-0.7822 0.84961-1.0488 1.3496-0.3 0.5-0.5849 1.0329-0.8516 1.5996-0.034 0.0333-0.049 0.0837-0.049 0.15039-0.3333 0.53333-0.5178 1.0333-0.5508 1.5-0.033 0.43333-0.1322 0.85-0.2988 1.25h-0.6016c-0.9333-0.23333-2.1-0.68294-3.5-1.3496-0.8333-0.43333-1.3159-1.4004-1.4492-2.9004-0.1667-2.2667 0.3837-4.1155 1.6504-5.5488 1.3-1.5667 2.9337-3.1171 4.9004-4.6504 0.1666-0.1333 0.3818-0.16631 0.6484-0.0996 1.8334 0.33333 3.7171 0.0659 5.6504-0.80078z" fill="#ef1d1e"/>
 <path d="m27.801 13.6c-0.3269 0.30529-0.4948 0.62405-0.7949 0.93164-0.2138 0.16606-0.4621 0.14824-0.6563 0.41797-0.015 0.0177-0.031 0.0352-0.049 0.0508l-0.6016 0.59961c-0.3177 0.40204-0.4589 0.91373-0.7441 1.3359-0.8415 1.141-1.4457 2.3028-1.9336 3.4746-0.1411 0.33351-0.3964 0.59598-0.5215 0.93945 0 0.0422-0.017 0.0751-0.051 0.0996-0.044 0.11505-0.085 0.32153-0.1269 0.55859-0.036 0.13208-0.1399 0.25816-0.1719 0.39063-0.08 0.347-0.2348 0.39538-0.4004 0.40039h-0.3008l-0.8984-0.0996c-0.5878 8e-3 -1.2425 0.26396-1.8867 0.48047-0.081 0.03-0.1321-0.014-0.2149 0.0195-0.031 0.0115-0.09 0.0523-0.1211 0.0644-0.1829 0.0709-0.34 0.0475-0.5273 0.13477-0.5818 0.26563-1.4152 0.75013-2.5 1.4512l-0.4961 0.30273c-0.2173 0.13306-0.3258 0.15161-0.5547 0.29688-1.696 1.0902-2.8542 1.7324-3.7246 2.1348-0.4503 0.19314-0.8905 0.30426-1.332 0.42968-0.9377 0.31854-1.8876 0.65899-2.5938 0.58594-0.5333 0-0.7329 0.19961-0.5996 0.59961 0.075 0.23483 0.1625 0.33205 0.2402 0.53516 0.01 0.18024-0.026 0.38335 0.061 0.51562l0.4082 0.53516c0.049 0.0827 0.091 0.24275 0.1406 0.31445 0.254 0.3664 0.5612 0.62937 0.8281 0.9707 0.2578 0.34497 0.5312 0.75321 0.7715 1.0293 0.1167 0.12807 0.2348 0.1657 0.3516 0.28906 1.27 1.3725 2.6212 2.5883 4.1484 3.4609 0.017 9e-3 0.098 0.0379 0.1289 0.0508 0.041 0.0228 0.081 0.0774 0.1211 0.0996 0.089 0.0539 0.1564 0.11982 0.2012 0.19922 0.044 0.10537 0.055 0.19896 0.045 0.2832-0.2472 0.26326-0.5196 0.59217-0.8457 1.0664-0.3667 0.53333-0.667 0.91706-0.9004 1.1504-0.1001 0.10012-0.052 0.27002-0.1289 0.38086l-0.021 0.0195c-0.058 0.0695 7e-4 0.11797-0.049 0.18555-0.2246 0.40286-0.4954 0.78408-0.4492 1.3144 0.033 0.33333 0.2155 0.5155 0.5488 0.54883 0.093 0.0155 0.2819-1e-3 0.418 0 0.036 3e-3 0.042 0.051 0.08 0.0508h0.053c0.336-2e-3 0.8948 0.12932 1.4668 0.26953 1.8809 0.46788 3.6391 0.92722 4.6328 1.3301 0.5192 0.20099 1.5898 0.36867 2.3867 0.55273 0.2311 0.0531 0.4837 0.15248 0.711 0.19727 0.1214 0.0188 0.1483 0.0117 0.2656 0.0293 0.529 0.10293 0.764 0.22301 1.3867 0.32031 0.5472 0.0864 1.4246 0.10063 2.4199 0.0879 0.028 3.8e-4 0.1019 0.0136 0.1289 0.0137 0.023-4e-5 0.074-6e-3 0.098-6e-3 0.066-1e-3 0.086 8e-3 0.1543 6e-3 0.1432 0.0102 0.2847-0.0422 0.4277-0.0391 0.3457-0.0162 0.6343-0.0215 1.1192-0.0625 0.053-9e-3 0.071-0.0392 0.123-0.0488 1.3001-0.15853 2.5948-0.50289 3.8789-1.25 0.3333-0.16667 0.8178-0.41667 1.4512-0.75 0.6666 0.86667 0.9496 1.8667 0.8496 3 0 0.0667-0.1512 0.70039-0.4512 1.9004-0.2 0.76667-0.2137 1.4333-0.049 2 0.3 0.96667 0.8 1.8 1.5 2.5 0.8667 0.83333 1.7988 1.1996 2.7988 1.0996 0.3-0.0333 0.3679 0.0829 0.2012 0.34961-0.7 1.2333-0.8841 2.4-0.5508 3.5s1.1163 1.9663 2.3496 2.5996c1.3 0.7 2.2845 1.5178 2.9512 2.4512 1 1.4333 2.217 2.0322 3.6504 1.7988 1.2666-0.16667 2.2318-0.46706 2.8984-0.90039 1.4-0.9 2.3167-1.9833 2.75-3.25l0.3516-1.2988c0.7666 0.33333 1.5166 0.18216 2.25-0.45117-0.2667 0.73333-0.4004 1.8012-0.4004 3.2012 0 0.33131 0.062 0.43464 0.074 0.7207 0 0.0735-0.029 0.15537-0.025 0.22852 0.01 0.0836 0.064 0.14764 0.072 0.23047 0.048 0.6142 0.059 1.3647 0.1777 1.7207 0.239 0.78968 0.647 1.3737 1.0059 2.0176 0.018 0.0303 0.028 0.0635 0.047 0.0937 0.7877 1.3771 1.75 2.542 3.0976 3.2383 0.02 9e-3 0.043-2e-3 0.062 6e-3 0.018 0.013 0.025 0.03 0.043 0.043 0.1368 0.10299 0.3034 0.15338 0.5 0.15039 0.1225 1.8e-4 0.1959-0.0786 0.2969-0.11328 0.05-9e-3 0.1061 0.0283 0.1542 0.0137 0.021-7e-3 0-0.0688 0.016-0.0801 0.055-0.0338 0.1371-0.0232 0.1836-0.0703 0.3221-0.36003 0.3515-0.7263 0.1-1.0996l-0.049-0.0508c-0.368-0.52956-0.4829-1.4367-0.5605-2.3965-0.022-0.28208-0.1406-0.63671-0.1406-0.90234 0-1.1093 0.114-2.0674 0.2656-2.9766l0.035-0.27344v-0.0508c0.2819-1.6319 0.7497-2.8974 1.4003-3.7988l0.459-0.68945c0.2629-0.30967 0.6555-0.44016 1.1172-0.47461 0.2045 0.057 0.4095 0.11493 0.6738 0.11328h0.2989l0.1211-0.0137c0.832 0.22104 1.577 0.66259 2.2148 1.377 0.1641 0.17274 0.326 0.34711 0.4688 0.5293 1.8071 2.5297 3.1277 5.0431 4.0703 7.5449 0.1768 0.48956 0.3529 0.95696 0.5273 1.5 0.5137 1.5968 0.8508 2.9427 1.0488 4.0957 0.122 0.64589 0.2167 1.4861 0.3145 2.3027 0.1813 2.1671 0.2814 4.2475 0.086 6.0137-0.1 0.93333-0.3172 2.0167-0.6504 3.25-0.084 0.35274-0.3013 1.074-0.4531 1.6133-0.178 0.53422-0.2568 0.90698-0.4824 1.5176-0.2038-0.86263-0.548-1.5985-1.0645-2.1797-0.6325-0.7-1.4163-1.1167-2.3496-1.25-0.9-0.13333-1.7838-0.48411-2.6504-1.0508-0.6992-0.5-1.2174-0.81589-1.5507-0.94922-0.6333-0.26667-1.267-0.31706-1.9004-0.15039-0.1484 0.0297-0.1697-0.0856-0.1328-0.26758 0.058-0.3103 0.014-0.61242 0.062-0.92187 0.3566-1.5778 0.5897-3.338 0.4746-5.6113-0.01-0.2095-0.104-0.27239-0.1348-0.44531l-0.1133-0.60352v0.0488c-0.011-0.0354-0.058-0.0215-0.07-0.0547-0.1633-0.33781-0.421-0.51081-0.7422-0.57226-0.1206-0.0406-0.1393-0.21878-0.2871-0.22266h-0.051l-0.4492 0.0508-3.9492 1.1992c-0.017 0.0253-0.034 0.0427-0.051 0.0508-0.216 0.0429-0.4156 0.12627-0.5996 0.25-0.057 0.0806-0.14 0.12904-0.25 0.14844-0.069 0.0164-0.1523 6.3e-4 -0.25-0.0488-0.073-0.0219-0.1447-0.0723-0.2051-0.15039-0.1736-0.2251-0.5547-0.32715-0.7539-0.53711-0.5239-0.62077-1.013-1.2424-1.8965-1.8633-0.6667-0.46667-1.4805-0.86589-2.4472-1.1992-0.4667-0.13333-1.3524-0.35039-2.6524-0.65039-1.6-0.33333-3.1176-1-4.5508-2-0.1932-0.14227-0.5564-0.44319-0.8105-0.64062-1.213-0.90245-2.3855-1.7951-2.9863-2.5586-0.1693-0.19633-0.3969-0.29485-0.6563-0.32812-0.082-0.074-0.1799-0.17307-0.2461-0.22266-0.2333-0.16667-0.4309-0.11628-0.5976 0.15039-0.1333 0.26667-0.2866 0.90039-0.4532 1.9004-0.3325 2.2667-0.4825 3.9663-0.4492 5.0996 0.023 0.5457 0.2763 1.101 0.3418 1.6484 0.2126 1.8766 0.4248 3.7273 0.7578 4.8008l0.1504 0.40039 0.1016 0.19922c0.053 0.12943 0.053 0.24765 0 0.35156-0.014 0.1418-0.08 0.24063-0.1992 0.29883l-1.2637 0.85351c-0.131 0.0885-0.3835 0.2178-0.4863 0.29688-0.6333 0.4-1.1004 0.70039-1.4004 0.90039-0.06 0.0451-0.047 0.10052-0.1016 0.14649l-0.4492 0.30273c-0.2954 0.22318-0.4779 0.50612-0.5488 0.84961-0.042 0.33151 0.024 0.6319 0.1992 0.90039 0.086 0.1281 0.2853 0.29146 0.3848 0.42383 0.3042 0.53179 0.7689 1.0866 1.4648 1.6758 0.3467 0.30666 0.2977 0.30533 0.5 0.5 0.304 0.292 0.77 0.71 0.75 0.75-0.3996 0.8-0.7158 1.3833-0.9492 1.75-0.4333 0.66666-0.9333 1.1337-1.5 1.4004l-2.25 0.45117c-0.8247 0.18327-1.3465 0.7577-1.6953 1.5566-0.031-0.065-0.023-0.19958-0.059-0.25781l-0.1992-0.29883c-0.032-0.0443-0.07-0.0577-0.1016-0.10156-0.048-0.12167-0.024-0.29875-0.1016-0.39844-0.7334-1.0667-1.6674-2.0841-2.8007-3.0508-1.6667-1.5333-3.816-2.7174-6.4493-3.5508-2.3-0.66667-3.8504-1.75-4.6504-3.25-0.3333-0.53333-0.6336-0.64961-0.9003-0.34961-0.1539 0.16744-0.2219 0.33972-0.3653 0.50781-0.024 0.0241-0.062 0.015-0.084 0.043-0.036 0.0469-0.086 0.0798-0.1504 0.0996l-0.1015 0.0508-0.25 0.39844c-0.1616 0.20278-0.3793 0.70056-0.5606 1.0059-0.3924 0.60449-0.7401 1.2114-1 1.8242l-0.3906 0.82031c-0.1653 0.3594-0.3164 0.94202-0.459 1.6523-0.08 0.25664-0.2059 0.42787-0.4414 0.39844-0.5-0.0333-1.0659 0.0655-1.6992 0.29883-0.6667 0.33333-1.1841 0.56784-1.5508 0.70117-0.7333 0.43333-1.2818 0.74922-1.6484 0.94922l-0.6642 12.933 0.8906 0.64649 0.1211 0.12109c0.093 0.0896 0.1431 0.18841 0.1504 0.29883 0 0.14779-0.05 0.26406-0.1504 0.34961-0.217 0.2656-0.2867 0.47828-0.4824 0.73633-2.0188 2.2614-4.007 5.6822-0.014 6.8652 0.3883 0.10094 0.8767 0.0731 1.2832 0.15039 0.3786 0.0753 0.7314 0.3227 1.1172 0.34961 0.6 0.0333 1.4663 0.0992 2.5996 0.19922 1 0.0333 1.8664 3e-4 2.5997-0.0996 1.9-0.16667 3.4-0.44961 4.5-0.84961 0.4-0.1 0.9659-0.30156 1.6992-0.60156 0.6-0.0667 1.0671 0.30156 1.4004 1.1016 0.1 0.2 0.065 0.34922-0.1016 0.44922-1.3 0.76667-2.2167 1.7163-2.75 2.8496-0.6 1.3667-0.4837 2.7329 0.3496 4.0996l0.1016 0.35156-0.3496-0.0508c-1.0391-0.29689-2.1799-0.28894-3.3672-0.14062-0.1237 0.0195-0.2637 0.0146-0.3828 0.041h-0.049c-0.073 0.0117-0.1359 0.0652-0.2089 0.0781-0.4805 0.0897-0.9377 0.11194-1.4415 0.27148-1.1493 0.33041-2.207 0.87656-3.2324 1.498-0.085 0.0506-0.1834 0.049-0.2676 0.10156-0.031 0.0211-0.038 0.0338-0.068 0.0547-0.2892 0.18615-0.5451 0.45026-0.8242 0.66015-0.695 0.52269-1.4549 1.0683-1.8575 1.4863-0.021 0.0559-0.054 0.0888-0.1 0.0996l-0.2011 0.15039c-0.203 0.17957-0.1791 0.32045-0.3262 0.49024-1.1384 1.0197-0.7034 1.675 0.027 2.7598l1.0481 0.94928c1.0381 0.9375 1.8211 1.6042 2.3496 2l0.2012 0.15039c0.08 0.0585 0.1303 0.12435 0.1504 0.19922 0.053 0.10664 0.068 0.20742 0.049 0.30078-0.026 0.0961-0.076 0.17943-0.1504 0.25l-0.1 0.0996c-0.1099 0.11911-0.1467 0.31186-0.25 0.4375-0.366 0.43261-0.735 0.8569-1.0488 1.4121-0.1674 0.27567-0.2406 0.7765-0.3848 1.1074-0.097 0.23948-0.2825 0.389-0.3652 0.64258-0.065 0.21766-0.1155 0.66495-0.1778 0.92578-0.1079 0.39686-0.2871 0.62538-0.373 1.0742-0.1667 0.86667-0.3992 2.1845-0.6992 3.9512-1.59 3.1901-4.9272 3.0898-0.1506 4.75 0.067 0.0333 0.7837 0.26589 2.1504 0.69922 0.4704 0.14916 0.9952 0.10243 1.4804 0.19336 0 5.6e-4 0.014 5e-3 0.02 6e-3 0.018 3e-3 0.04 2.7e-4 0.059 4e-3 1.6256 0.29322 3.3429 0.2483 5.1445-0.10742 0.1221-0.0267 0.278-0.0142 0.3965-0.0449h0.049c0.076-0.0168 0.2067-0.0768 0.2852-0.0957 0.5296-0.12869 1.0219-0.12134 1.5664-0.30469 1.0886-0.37015 1.7161-0.68596 2.4492-1.0137v0.0137l0.3496-0.15039v-8e-3c0.2649-0.12484 0.7399-0.27425 0.9512-0.39258 0.605-0.31029 0.9684-0.76553 1.4648-1.1406 0.4001-0.28193 0.8577-0.41853 1.2344-0.75976l0.4004-0.39844c0.084-0.0848 0.1828-0.13516 0.2988-0.15039 0.062-7e-3 0.1073 0.0158 0.1602 0.0254 0.357 0.30184 0.5329 0.35441 0.8476 0.59766 0.3333 0.26359 0.56 0.42485 1.1426 0.92578l0.1016 0.10156c0.1539 0.13496 0.3499 0.093 0.5097 0.20313 0.1316 0.0707 0.3727 0.29458 0.4903 0.3457 0.3667 0.13333 0.8841 0.35039 1.5508 0.65039 0.6333 0.2 1.1992 0.11667 1.6992-0.25l1.75-1.1992c2-1.3667 3.4167-2.6167 4.25-3.75 0.039-0.0571 0.049-0.0494 0.086-0.10156 0.01-9.5e-4 0.014 2e-3 0.019 0l0.1485-0.14844c0.2632-0.26315 0.4473-0.49766 0.5508-0.70117 0.3333-0.23333 0.7326-0.2003 1.1992 0.0996 0.5334 0.36667 1.0681 0.56823 1.6015 0.60156 1.5333 0.2 2.9656 0.59922 4.2989 1.1992 1.3667 0.6 2.9344 0.56697 4.7011-0.0996 0.4-0.16667 0.9156-0.46706 1.5489-0.90039 0.682-0.49604 1.1523-0.79761 1.4883-0.97656-0.5758 1.1078-1.0719 2.2063-1.3379 3.2773l0.051-0.0508-0.051 0.30078v0.0488c-0.072 0.31461-0.048 0.41017-0.1094 0.70117-0.031 0.11402-0.063 0.13225-0.094 0.25-0.071 0.3019-0.1026 0.9896-0.164 1.3887-0.1313 0.82757-0.3812 1.9248-0.3848 2.4609 0 0.12879 0.045 0.23377 0.049 0.36133-0.012 0.16703-0.038 0.21402-0.049 0.38867-0.033 1.1667 0.1992 2.6996 0.6992 4.5996 0.4 1.5667 0.9504 2.9 1.6504 4 0.4667 0.63333 0.8658 1.2496 1.1992 1.8496 0.067 0.13333 0.1675 0.18372 0.3008 0.15039 0.063-0.0157 0.4651-0.20945 0.6836-0.30664 0.3327-0.0374 0.6878-0.122 1.1152-0.34375 0.2287-0.11733 1.017-0.13515 1.4454-0.2168 1.1796-0.15152 2.3812-0.28162 3.6328-0.36133l1.0722-0.0215c0.3001 3.5e-4 0.4332-0.10021 0.711-0.11328 0.406-7e-3 0.7917-0.0131 1.4394-0.0371 0.2744-0.0358 0.4395-0.22203 0.6797-0.30469 0.3633-0.0915 0.9235-0.0641 1.2207-0.19531v-0.0488l0.25-0.10156c0.082-7e-3 0.1475-7e-3 0.1992 0 0.086 2e-3 0.1539 0.0194 0.2012 0.0508 0.2203 0.10337 0.6975 0.47799 1.1582 0.83398 1.3954 1.3575 2.9335 2.4396 4.7402 3.0156 1.0063 0.3019 1.7463 0.2503 2.6622 0.43359 0.2991 0.075 0.4224 0.19714 0.7382 0.26758 0.3515 0.0708 1.0648 0.0667 1.5625 0.10742 0.6578 0.0633 1.4856 0.35167 2.0879 0.3418 2.6-0.0667 4.9159-0.18294 6.9492-0.34961 0.5-0.1 0.8004-0.28411 0.9004-0.55078 0.1666-0.4 0.1163-0.71589-0.1504-0.94922-0.183-0.0832-0.2327-0.16682-0.3496-0.25-0.1819-0.12918-0.3978-0.53153-0.625-1.0039-0.1718-0.3747-0.327-0.77418-0.4472-1.2226-0.1947-0.60577-0.3547-1.2544-0.3282-2.123v-0.0508c-0.01-0.40575-0.075-0.9142-0.1953-1.5078-0.065-0.68757-0.069-1.4648 0.049-2.4414 0.087-0.80044 0.089-0.9712 0.1308-1.4356 0.07-0.54053 0.1488-1.1234 0.1563-1.3516 0.023-0.29211 0.1677-0.48259 0.5097-0.51367 0.4375-0.0357 0.6367-0.20317 1.0215-0.26758l0.8789-0.13281c0.1513-0.0299 0.3949-0.19447 0.5625-0.24805 0.4077-0.13821 1.023-0.16375 1.3399-0.35156 0.2739-0.17864 0.6566-0.49366 0.9648-0.71484l0.4824-0.28516h-0.051c0.2788-0.14583 0.6451-0.39583 1.0996-0.75l0.2011-0.19922c0.016-0.0171 0.032-0.0345 0.049-0.0508 0.018-0.0142 0.01-0.0416 0.021-0.0566l0.5254-0.39258c0.2-0.23333 0.266-0.48333 0.1993-0.75-0.067-0.23333-0.2333-0.36706-0.5-0.40039-0.3 0.0333-0.517 0.0333-0.6504 0-0.1565-0.0224-0.3125-0.15697-0.4688-0.26953-0.1274-0.0119-0.3018-0.32005-0.4414-0.41016-0.4359-0.41484-0.8497-0.891-1.1894-1.5703-0.4333-0.9-0.7667-1.5841-1-2.0508-0.5038-0.9102-1.1399-1.6555-1.7071-2.4863-0.1067-0.15867-0.1819-0.36104-0.2929-0.51367-0.1467-0.20314-0.234-0.27084-0.375-0.46094-0.3902-0.52712-0.7072-1.1459-1.125-1.6387-0.3063-0.37871-0.6316-0.57574-0.9434-0.90234-0.1176-0.12782-0.2944-0.3855-0.4063-0.49805-0.103-0.0961-0.2368-0.1231-0.3418-0.21484-0.9819-0.88611-1.9894-1.5285-3.0253-1.9121-0.155-0.0675-0.2755-0.21301-0.4336-0.27344-0.1555-0.0545-0.2425-0.0422-0.3848-0.084-0.09-0.0214-0.1736-0.0975-0.2637-0.11523-0.5-0.1-0.7344-0.26667-0.7011-0.5 0-0.13333 0.1667-0.38333 0.5-0.75 0.4-0.4 1.0336-0.98333 1.9003-1.75 0.6667-0.7 0.9827-1.4829 0.9493-2.3496 0-0.1 0.05-0.13303 0.1504-0.0996 0.067 0.0333 0.117 0.0818 0.1503 0.14844 0.3979 0.49262 1.3425 1.2685 2.0743 1.9336 0.1328 0.13459 0.1364 0.17748 0.2754 0.31641l1.25 1.2012c0.278 0.29153 0.5957 0.44075 0.9511 0.44922 0.078-2e-3 0.1303-0.11514 0.2051-0.13086 0.056-0.0209 0.2019 0.13054 0.2441 0.082 0.1576-0.16343 0.1385-0.26056 0.2852-0.41992 0.1677-0.1281 0.3676-0.11534 0.5156-0.33008l0.6485-0.85156c1.0215-1.3394 1.6552-2.4053 1.9004-3.1992l0.1015-0.30078c0.057-0.1194 0.1407-0.21823 0.25-0.29883 0.089-0.0423 0.1854-0.045 0.2832-0.041 0.3659 0.1256 0.7502 0.18011 1.1699 0.0898 0.2667-0.0333 0.666-0.13216 1.1993-0.29883 0.6068-0.1597 1.5076-0.47689 2.6347-0.91211 0.057-0.0142 0.1092-0.0216 0.1641-0.0332 1.8559-0.44256 3.1073 1.0392 3.6015 0.54495l-0.8517-10.9c-0.7934-1.3511-1.8147-2.3799-2.9395-3.2617-0.1387-0.10934-0.2731-0.39349-0.4121-0.48828-0.3726-0.26051-0.8998-0.53818-1.5156-0.82617-0.012-6e-3 -0.021-0.0175-0.033-0.0234-0.01-2e-3 -0.011-4e-3 -0.018-6e-3 -0.034-0.0159-0.049-0.0289-0.084-0.0449-0.065-0.0402-0.1331-0.10609-0.2011-0.19922-0.031-0.0596-0.046-0.14293-0.049-0.25-0.01-0.0635 0.012-0.14077 0.043-0.22461 0.4498-1.0303 0.99-2.0061 1.709-2.875 0.2-0.3 0.2301-0.46667 0.1-0.5-0.2667-0.1-0.5826-0.29961-0.9492-0.59961-0.044-0.0405-0.052-0.0354-0.094-0.0723-0.2789-0.24499-0.3914-0.53401-0.8593-0.72852h0.051l-0.4511-0.15039h-0.049c-1.181-0.43529-2.0143-0.70078-2.5-0.79883-0.1197-0.025-0.2051-0.0167-0.3222-0.0391-0.1838-0.0436-0.4547-0.1796-0.627-0.21094-0.2551-0.0453-0.4724 0.075-0.7226 0.0508-0.42-0.0444-0.9019-0.15053-1.2793-0.15234-0.8851-5.1e-4 -1.6565 0.10305-2.334 0.29297-0.043-0.0356-0.1133-0.01-0.1133-0.14258-0.3-2.4333-1.3833-3.7996-3.25-4.0996-0.7-0.1-1.1167-0.36745-1.25-0.80078-0.067-0.13333-0.1-0.58294-0.1-1.3496l-0.1504-0.5c-0.2-0.73333-0.6496-1.3671-1.3496-1.9004-0.8667-0.53333-1.5178-0.95-1.9512-1.25-0.7594-0.6274-1.1153-1.0181-1.0898-1.1875 0.015-0.0374 0.076-0.0215 0.088-0.0625 0.024-0.0163 0.044-0.0318 0.053-0.0488l0.25-0.55078h-0.053c0.3323-0.76653 0.5337-1.4003 0.6015-1.9004v-0.0488l0.1016-0.5c0.034-0.18167 0.021-0.24629 0.053-0.42383 0.027-0.0983 0.1873-0.57658 0.1973-0.62695 0.2-0.73333 0.45-2.5667 0.75-5.5 0.038-0.43655-0.02-0.89595 0-1.3379 0-0.10196 0.051-0.31406 0.053-0.41211 5e-4 -0.14318-0.053-0.30529-0.055-0.44922 0.01-2.3968-0.2051-4.8471-0.8437-7.4004l-0.8008-2.6504c-0.1874-0.66411-0.6106-1.5303-0.9199-2.2988h0.019l-0.2988-0.70117v-2e-3c-0.2258-0.52162-0.3222-0.93211-0.5996-1.498-0.873-1.8312-2.2405-3.424-3.4805-5.0781-0.6511-0.93918-0.8186-1.594-1.6191-2.6211l-0.25-0.25c-0.067-0.0635-0.1005-0.15372-0.125-0.25 0-0.0417-0.028-0.0833-0.014-0.125-4e-4 -0.0701 8e-4 -0.14004 0.037-0.21289 0.108-0.16199 0.2012-0.30961 0.2012-0.36328l0.1504-0.0488c0.4333 0.3 1.0011 0.24961 1.7011-0.15039 1.9666-1.0667 2.9319-2.5996 2.8985-4.5996 1.4667 1.3 3.1334 1.8155 5 1.5488 1.2-0.13333 2.0004-0.51511 2.4004-1.1484 0.3-0.43333 0.4996-1.3171 0.5996-2.6504 0.1-1.0667 0.2008-1.7508 0.3008-2.0508 0.1667-0.76667 0.4671-1.4004 0.9003-1.9004 0.8667-1.1 1.2-1.9488 1-2.5488-0.4999-1.3333-1.184-2.2829-2.0507-2.8496l-0.5-0.25c-0.2-0.1-0.2504-0.25117-0.1504-0.45117 1.0614-1.6082 2.0033-2.8382 2.8476-3.7637 0.1185-0.11525 0.242-0.22293 0.3672-0.32813 0.3875-0.38082 0.805-0.64664 1.2285-0.89258 0.5249-0.26572 1.1058-0.44657 1.7168-0.58203 0.3492-0.055 0.6798-0.18171 1.0489-0.16211 0.082 2e-3 0.3134 0.0712 0.4238 0.0859 1.4239 0.17519 2.7902 0.63886 4.0683 1.543 0.2333 0.16667 0.5164 0.1494 0.8497-0.0508 0.1-0.0667 0.1293-0.1655 0.1-0.29883-0.1-0.13333-0.166-0.23411-0.1993-0.30078-1.1332-2.5-2.734-4.7326-4.8007-6.6992-0.7333-0.7-1.5163-1.1845-2.3496-1.4512-0.3092-0.1066-0.5049 0.0646-0.7832 0.0332-0.049-4e-3 -0.1198-0.0807-0.168-0.082-0.1849 2e-3 -0.3916 0.0792-0.5859 0.11328-0.2897 0.0475-0.6639-0.11177-0.9122 0.0371-1.5667 0.96667-2.9504 1.9822-4.1504 3.0488-0.06 0.073-0.084 0.10355-0.1386 0.16992-0.1087 0.0898-0.1524 0.0862-0.2637 0.17969l-0.3524 0.30091c-0.014 0.0455-0.047 0.0784-0.1 0.0996h-0.051c-0.101 0.0733-0.1054 0.14064-0.1895 0.21289-0.101 0.0175-0.2203 0.16131-0.3085 0.0879-1.3333-0.96667-2.3664-1.4996-3.0997-1.5996-1.8-0.23333-3.2167-0.16745-4.25 0.19922-0.1 0.0333-1.0011 0.50039-2.7011 1.4004 0.2-2.2333-0.1992-3.9329-1.1992-5.0996-0.7667-0.93333-1.7841-1.5167-3.0508-1.75-1.3333-0.26667-2.5989-0.0671-3.7989 0.59961-1.2 0.7-1.8667 1.0837-2 1.1504-0.8 0.36667-1.583 0.49844-2.3496 0.39844-1.6334-0.23333-2.9337 0.50117-3.9004 2.2012-0.4667 0.83333-0.7011 1.7326-0.7011 2.6992-0.1-0.3-0.3152-0.5655-0.6485-0.79883-0.4-0.2-0.6848-0.36667-0.8515-0.5-1.5-1.2667-3.0659-1.6678-4.6992-1.2012-1.3667 0.36667-2.3493 1.4829-2.9493 3.3496-0.067 0.23333-0.2178 0.56667-0.4511 1-0.3-0.3-0.4667-0.48216-0.5-0.54883-0.1052-0.24849-0.4764-0.70609-0.6446-1.0039l-0.062-0.0957c-0.012-0.0215-0.035-0.041-0.047-0.0625-0.4149-0.71189-0.7452-1.3584-1.502-2.3379-0.174-0.23772-0.5479-0.49067-0.748-0.73047-0.3345-0.37656-0.7582-0.73939-1.1348-1.1094-0.7751-0.78486-1.3669-1.5557-2.416-2.3613-1.5667-1.3333-2.7682-2.2984-3.6016-2.8984-1.8333-1.3333-3.0484-2.6182-3.6484-3.8516-0.2657-0.53141-0.5981-0.62788-0.9961-0.29883zm35.875 7.3125c0.6-0.075 1.2579-0.0125 1.9746 0.1875 1.5 0.43333 2.3992 1.2667 2.6992 2.5 0.3 1.1667 0.4512 1.8333 0.4512 2-0.1 1.7667-0.5167 3.4663-1.25 5.0996-0.067 0.16667-0.2508 0.10078-0.5508-0.19922-0.6-0.73333-1.1833-1.2004-1.75-1.4004-0.6-0.16667-1.35-0.11628-2.25 0.15039-0.1333 0.0667-0.2826 0.0318-0.4492-0.10156-0.1667-0.16667-0.3004-0.28294-0.4004-0.34961-0.6667-0.66667-1.533-1.0155-2.5996-1.0488-0.9334-0.0333-1.8675 0.16628-2.8008 0.59961-0.6 0.26667-1.3829 0.99922-2.3496 2.1992-0.1 0.1-0.1833 0.15039-0.25 0.15039l-0.1504-0.19922c-0.5-2.3-0.4496-4.1178 0.1504-5.4512 0.6667-1.4667 1.8488-2.1333 3.5488-2 1.2334 0.13333 2.6849-0.36667 4.3516-1.5 0.4833-0.35 1.025-0.56172 1.625-0.63672zm-15.875 4.3867c0.6333 0.0333 1.2651 0.23294 1.8984 0.59961 0.2334 0.13333 0.7837 0.48411 1.6504 1.0508 0.5333 0.36667 0.9345 0.93255 1.2012 1.6992 0.1666 0.43333 0.3663 1.1 0.5996 2 0.5333 1.5333-0.1004 2.3512-1.9004 2.4512-1.1 0.1-1.9333 0.6155-2.5 1.5488-0.5667 0.9-0.7004 1.8516-0.4004 2.8516 0.033 0.23333-0.017 0.4155-0.1504 0.54883-0.3 0.26667-0.5151 0.46628-0.6484 0.59961-0.2334 0.23333-0.3671 0.48333-0.4004 0.75 0 0.0333-0.068 0.0682-0.2012 0.10156-0.1666 0.0333-0.2829 0.0333-0.3496 0-1.3667-0.66666-2.3996-1.3004-3.0996-1.9004-0.8029-0.69212-1.291-1.5518-1.7031-2.4512-0.2606-0.72615-0.5591-1.4823-0.4961-1.9492v-0.0391c0.013-0.0615 0.071-0.11344 0.09-0.17383 0.094-0.46379 0.3643-0.96786 0.8457-1.5215 0.026-0.0305 0.046-0.0843 0.072-0.11523h0.041c0.096-0.0974 0.083-0.21525 0.1582-0.31641 0.9487-1.1957 1.8756-2.4883 2.6914-4.2832 0.3667-0.83333 1.2349-1.3178 2.6016-1.4512zm27.049 0.8496c2.1333-0.2 3.6663 0.60039 4.5996 2.4004 0.1667 0.33333 0.1823 0.86628 0.051 1.5996-0.1 0.43333-0.1 1.0167 0 1.75 0.076 0.63529 0.077 0.97122 0.076 1.2969 7e-4 0.2091-0.017 0.39458-0.053 0.55664-0.07 0.53129-0.2702 1.0251-0.7226 1.4473-0.1334 0.13333-0.6508 0.49961-1.5508 1.0996s-2.0163 1.0671-3.3496 1.4004l-3.5996 0.59961c-0.4 0-0.5667-0.14922-0.5-0.44922 0.2-1.7-0.3679-3.6167-1.7012-5.75-0.067-0.13333-0.082-0.24961-0.049-0.34961 0.1-0.0667 0.1484-0.1345 0.1484-0.20117l1.1504-2.9492c0.2667-0.56667 0.7512-1.0337 1.4512-1.4004l1.8496-0.84961c0.5667-0.26667 1.2992-0.3345 2.1992-0.20117zm-15.4 2.6504c1.0667 0 1.8671 0.38372 2.4004 1.1504 0.067 0.1-0.032 0.38294-0.2988 0.84961-0.3667 1.5333-1.3008 3.3667-2.8008 5.5-0.2333 0.36667-0.2992 0.85117-0.1992 1.4512 0.1666 0.93333 0.25 1.4333 0.25 1.5 0 0.76667-0.3179 1.3151-0.9512 1.6484-0.8667 0.43333-1.6496 0.4003-2.3496-0.0996-0.9333-0.8-1.6329-1.3833-2.0996-1.75-0.8333-0.7-1.6163-1.1671-2.3496-1.4004-0.3667-0.16667-0.7349-0.21511-1.1016-0.14844-0.7666 0.1-1.0825-0.16745-0.9492-0.80078 0-0.73333 0.2171-1.3341 0.6504-1.8008 0.4333-0.46667 1.0167-0.71667 1.75-0.75 1.3-0.0667 2.3659-0.79922 3.1992-2.1992 1.3333-2.1333 2.9496-3.1837 4.8496-3.1504zm4.4004 1.3496c0.7667-0.2 1.5496 0.13333 2.3496 1 0.8 0.86666 1.6179 2.4345 2.4512 4.7012 0.3 0.76667 0.1992 1.9488-0.3008 3.5488-0.6333 2.1-1.9667 4.1-4 6-1.6667 1.5667-3.6163 2.5512-5.8496 2.9512l-1.6504 0.19922c-4.2667-0.33333-7.1155-2.1822-8.5488-5.5488-0.6667-1.6333-0.6823-2.8349-0.051-3.6016 0.5-0.66667 1.0659-0.98255 1.6992-0.94922 0.5667 0.0333 1.2508 0.36667 2.0508 1 0.9 0.7 1.8341 1.5837 2.8008 2.6504 0.2333 0.23333 0.8166 0.31667 1.75 0.25 0.8666-0.1 1.4829-0.29961 1.8496-0.59961 0.7333-0.56666 1.1829-1.1674 1.3496-1.8008 0.2-0.6 0.1707-1.3674-0.1-2.3008-0.1667-0.53333-0.068-1.0333 0.2988-1.5 0.2334-0.3 0.6016-0.69922 1.1016-1.1992 0.4-0.43333 0.6984-0.96628 0.8984-1.5996 0.033-0.0667 0.1845-0.66745 0.4512-1.8008 0.1333-0.76667 0.6159-1.2337 1.4492-1.4004zm16 5.8008c0.8667 0 1.7504 0.33333 2.6504 1s1.4504 1.3837 1.6504 2.1504c0.1 0.43333-8e-4 0.8655-0.3008 1.2988-0.3667 0.46666-0.6322 0.8-0.7988 1-0.6334 0.96666-0.9841 2.2167-1.0508 3.75-0.033 0.36667-0.084 0.88411-0.1504 1.5508-0.1 0.56667-0.3325 1.0008-0.6992 1.3008-0.5 0.4-1.0833 0.56667-1.75 0.5-1.5667-0.16667-2.933-0.68411-4.0996-1.5508-0.6334-0.46667-0.9008-1.05-0.8008-1.75 0.2333-0.8 0.3496-1.4008 0.3496-1.8008 0.033-0.33333 0.2504-0.73255 0.6504-1.1992 0.3667-0.5 0.5663-0.91667 0.5996-1.25 0.067-0.36667 0.1-0.63411 0.1-0.80078 0-0.3-0.083-0.55-0.25-0.75-0.6333-0.7-0.4492-1.2484 0.5508-1.6484 0.9-0.36667 1.7837-0.88411 2.6504-1.5508 0.3667-0.2 0.5992-0.28333 0.6992-0.25zm-42.783 0.79102c1.2799 0.0849 2.5723 0.38358 3.8828 0.95898 0.8 0.33333 2.0016 0.94961 3.6016 1.8496 0.4 0.26667 0.7333 0.41784 1 0.45117 0.5666 0.13333 0.9659 0.43177 1.1992 0.89844 0.1667 0.3 0.3004 0.76706 0.4004 1.4004 0.1333 1.0333 0.6004 2.1012 1.4004 3.2012 0.2666 0.33333 0.1833 0.53294-0.25 0.59961-1 0.2-2.1008 0.63216-3.3008 1.2988-1.3333 0.83333-2.3508 1.4516-3.0508 1.8516-0.3666 0.2-1.0333 0.73294-2 1.5996-0.8 0.66667-1.5151 1.0988-2.1484 1.2988-0.7 0.23333-1.3841 0.15-2.0508-0.25-0.6667-0.36667-1.1337-0.89961-1.4004-1.5996-0.2667-0.66667-0.317-1.4322-0.1504-2.2988 0.2667-0.96666 0.4334-1.7012 0.5-2.2012 0.067-0.93333-0.1988-2.0167-0.7988-3.25-0.4794-0.95879-0.6827-1.8476-0.6719-2.6836 0-0.0737 0.023-0.15024 0.027-0.22461 0.089-0.88463 0.4523-1.5916 1.0839-2.123 0.059-0.0276 0.084-0.13564 0.1465-0.1543 0.2943-0.20868 0.6676-0.37174 1.1641-0.46484 0.1673-0.0372 0.4573-0.0744 0.6973-0.11133 0.017 8.9e-4 0.035 0.0114 0.053 0.0117h0.049zm37.334 1.9082c0.3-0.0667 0.517 0.1 0.6504 0.5 0.1333 0.3 0.1992 0.63333 0.1992 1 0.033 0.43333-0.1508 0.96823-0.5508 1.6016-0.5 0.76667-0.7829 1.2996-0.8496 1.5996-0.2 0.73333-0.3492 1.4988-0.4492 2.2988-0.1333 0.86666-0.7496 1.3667-1.8496 1.5-1.9-0.1-3.4504-0.74922-4.6504-1.9492-0.3667-0.36667-0.396-0.75039-0.1-1.1504 0.1666-0.2 0.4496-0.48294 0.8496-0.84961 0.9667-1.4333 1.6004-2.7841 1.9004-4.0508 0.067-0.16667 0.15-0.23255 0.25-0.19922 1.5666 0.0667 3.0996-0.0341 4.5996-0.30078zm-25.113 8.2637c0.6083 0.125 1.2125 0.47044 1.8125 1.0371 0.2667 0.26667-0.082 0.58255-1.0488 0.94922-0.8334 0.33333-1.6337 1.1841-2.4004 2.5508-0.8 1.3333-1.1178 2.4167-0.9512 3.25 0.1667 0.96667 0.8837 1.6333 2.1504 2 1.4667 0.46667 2.2496 1.0829 2.3496 1.8496 0.067 0.63333-0.3325 1.4996-1.1992 2.5996-0.5667 0.73333-1.1829 1.2508-1.8496 1.5508-0.6333 0.26667-1.4667 0.40039-2.5 0.40039-0.6 0.16667-1.1504 0.0504-1.6504-0.34961-0.1667-0.16667-0.5504-0.65117-1.1504-1.4512-0.4667-0.63333-1.5325-1.4822-3.1992-2.5488-2.1-1.3-2.3345-3.0849-0.7012-5.3516 1-1.3333 2.3004-2.533 3.9004-3.5996 1.1333-0.8 2.6663-1.6663 4.5996-2.5996 0.6167-0.31667 1.2296-0.41211 1.8379-0.28711zm23.963 0.63672c0.4-0.2 0.6171-0.16697 0.6504 0.0996 0.033 0.13333 0.049 0.33489 0.049 0.60156 0 0.83333-0.3488 1.6492-1.0488 2.4492-0.7333 0.83333-1.4504 1.2326-2.1504 1.1992-0.1667 0-0.2674-0.0155-0.3008-0.0488-0.033-0.0333-0.016-0.14961 0.051-0.34961 0.1607-0.50882 0.057-0.78232 0.1211-1.2051 0.044-0.31562 0.1523-0.43714 0.1816-0.79492v-0.40038c0.032-0.22816 0.01-0.40547 0-0.60156-0.097-0.29606-1e-4 -0.41588 0.2969-0.34961 0.5 0.0667 1.2171-0.13294 2.1504-0.59961zm-20.916 1.2012c0.6666 0 1.5678 0.23255 2.7012 0.69922 0.5147 0.22877 0.8274 0.51225 1.0723 0.81445 0.2328 0.28142 0.374 0.83335 0.3769 1.7852v0.0508l-0.01 0.0723c-0.1518 1.1666-0.5089 2.2821-1.1426 3.3281-0.7 1.2-1.4829 1.9655-2.3496 2.2988-0.3667 0.13333-0.6826 0.0674-0.9492-0.19922-1-0.93333-2.0682-1.5671-3.2012-1.9004-1.0333-0.3-1.4325-1.1004-1.1992-2.4004 0.1667-0.73333 0.8159-1.6655 1.9492-2.7988 1.1664-1.1333 2.0833-1.7167 2.75-1.75zm9.5156 33.211c0.7 0.075 1.3996 0.4224 2.0996 1.0391 0.6667 0.6 1.75 1.0322 3.25 1.2988 0.6334 0.1 1.1837 0.48372 1.6504 1.1504s0.6508 1.3333 0.5508 2c-0.1 0.76667-0.35 1.5496-0.75 2.3496-0.2667 0.5-0.7337 1.1841-1.4004 2.0508-0.2333 0.4-0.5163 0.38273-0.8496-0.0508-0.8-0.96667-1.8504-1.3833-3.1504-1.25-1.3333 0.1-2.3004 0.71628-2.9004 1.8496-0.1667 0.3-0.3663 0.41823-0.5996 0.35156-0.1667-0.0333-0.2326-0.10117-0.1992-0.20117 0.033-0.13333 0.049-0.23216 0.049-0.29883 0.067-1 0.051-1.7674-0.049-2.3008-0.1334-0.83333-0.4512-1.5329-0.9512-2.0996-0.5333-0.53333-1.2155-0.78333-2.0488-0.75-0.5334 0.0333-1.1012 0.2155-1.7012 0.54883l-1.5 0.90039c-0.3333 0.16667-0.5659 0.2345-0.6992 0.20117-0.1333-0.0333-0.2496-0.21745-0.3496-0.55078-0.2667-0.76667-0.4004-1.35-0.4004-1.75-0.033-0.66667 0.1488-1.25 0.5488-1.75 0.8-1 1.8349-1.4671 3.1016-1.4004 0.093 3e-3 0.1146-0.0389 0.2051-0.0371l0.5957 0.0371 1.5-0.15039h-0.1l0.4003-0.0996c0.033 8e-3 0.049 8e-3 0.049 0 0.4521-0.0767 0.7296-0.26442 1.0664-0.41406 0.1165-0.0567 0.379-0.0208 0.4824-0.0859 0.7-0.46667 1.3996-0.66289 2.0996-0.58789zm-21.717 3.2441 1 0.17187c0.047 0.0155 0.067 4e-3 0.1172 0.0215 0.6 0.16667 0.9837 0.26745 1.1504 0.30078 0.2494 0.0499 0.5969-0.0126 0.8789 0 0.2087 0.0187 0.4806 0.10021 0.6699 0.0996 0.2383-4e-4 0.3905-0.073 0.5977-0.0996 0.076-0.01 0.1253 0.0115 0.2031 0 0.5333-0.0667 1.3163-0.20039 2.3496-0.40039 0.7-0.0667 1.45 0.13294 2.25 0.59961 0.8333 0.46666 1.3663 1.0345 1.5996 1.7012 0.067 0.16667 0.1849 0.43216 0.3516 0.79883 0.067 0.13333 0.15 0.31745 0.25 0.55078 0.1 0.2 0.082 0.36667-0.051 0.5-0.3333 0.26667-0.7171 0.33255-1.1504 0.19922-1.4-0.23333-2.5492-0.0492-3.4492 0.55078-0.9333 0.63333-1.5341 1.6508-1.8008 3.0508-0.8667-1.1333-2.0333-1.6333-3.5-1.5-1.3 0.13333-2.3155 0.64883-3.0488 1.5488-0.4 0.56667-0.7179 0.98333-0.9512 1.25-0.4 0.46667-0.8167 0.76706-1.25 0.90039-1.5333 0.5-2.5663 0.91667-3.0996 1.25-0.2667 0.16667-0.6504 0.56589-1.1504 1.1992-0.5-0.76667-0.9167-1.2822-1.25-1.5488-0.6032-0.5429-0.8647-1.3015-0.9492-2.1719-0.032-0.16426-0.039-0.36171 0-0.6211 0.037-0.74865 0.154-1.4813 0.5488-2.1582 0.1667-0.3 0.4167-0.48216 0.75-0.54883 0.1334-0.0333 0.4337-0.0508 0.9004-0.0508 1-0.0333 1.8508-0.34922 2.5508-0.94922 0.5667-0.5 1.0996-1.2345 1.5996-2.2012 0.3941-0.72244 0.914-1.2807 1.5508-1.6875 0.039-0.0282 0.084-0.0252 0.123-0.0566 0.6275-0.37437 1.3562-0.61774 2.209-0.69922zm16.268 2.9433c0.5667-0.1 1.1325 0.16745 1.6992 0.80078 0.3333 0.4 0.5 1.0492 0.5 1.9492-0.033 0.93333-0.066 1.4682-0.1 1.6016-0.1667 0.53333-0.5504 0.93255-1.1504 1.1992-0.4667 0.2-1.1159 0.63412-1.9492 1.3008-0.8 0.63333-1.4512 1.05-1.9512 1.25-0.4333 0.2-0.9992 0.31628-1.6992 0.34961-0.7333 0-1.2992 0.0155-1.6992 0.0488-0.7334 0.0667-1.3341 0.35156-1.8008 0.85156s-0.6992 1.0988-0.6992 1.7988l-0.051 0.45117c-0.4-1.1-0.7004-1.9004-0.9004-2.4004-0.3333-0.9-0.5504-1.65-0.6504-2.25-0.3-1.6 0.084-2.8829 1.1504-3.8496 0.6-0.56666 1.4663-0.76823 2.5996-0.60156 0.7667 0.1 1.5516 1e-3 2.3516-0.29883 0.5-0.2 1.2151-0.58372 2.1484-1.1504 1.1334-0.63333 1.8679-0.98411 2.2012-1.0508zm16.783 0h0.3672c0.8-0.0333 1.5829 0.20117 2.3496 0.70117 0.4333 0.26667 1.0496 0.71628 1.8496 1.3496 0.7667 0.43333 1.1833 0.68333 1.25 0.75 0.4667 0.33333 0.8174 0.69961 1.0508 1.0996 0.3333 0.66667 0.4166 1.5 0.25 2.5-0.1667 1-0.5175 1.7345-1.0508 2.2012l-0.5508 0.54883c-0.3333 0.46667-0.7151 0.70117-1.1484 0.70117-0.3-0.0333-0.7341-0.2-1.3008-0.5-0.8667-0.4-1.6496-0.53372-2.3496-0.40039-0.3 0.0333-0.4996 3e-4 -0.5996-0.0996-0.1-0.0667-0.1504-0.26823-0.1504-0.60156 0.033-0.6-0.2341-1.1833-0.8008-1.75-0.5333-0.56667-1.1167-0.88255-1.75-0.94922-0.4667-0.0667-1.3504-0.33412-2.6504-0.80078-0.033 0-0.033-0.0659 0-0.19922 0.033-0.13333 0.068-0.21667 0.1016-0.25 0.5333-0.46667 1.2484-1.2496 2.1484-2.3496 0.8075-0.86957 1.5984-1.4029 2.377-1.7227 0.1842-0.0656 0.5111-0.21255 0.6074-0.22851zm-10.234 3.3515c0.7-0.26667 1.3182-0.21823 1.8516 0.14844 0.1666 0.1 0.6318 0.53411 1.3984 1.3008 0.8 0.8 1.8 1.2496 3 1.3496 0.8 0.0667 1.4841 0.33411 2.0508 0.80078 0.6 0.5 0.9004 1.1163 0.9004 1.8496-0.067 0.43333-0.3341 0.88294-0.8008 1.3496-0.6 0.56667-1.0496 0.98333-1.3496 1.25-0.2667 0.16667-0.4159 0.28294-0.4492 0.34961-0.5667 0.83333-1.2179 0.78489-1.9512-0.14844-0.3333-0.36667-1.0833-0.7-2.25-1-1.1667-0.26667-1.9825-0.30156-2.4492-0.10156-0.2 0.16667-0.3841 0.26745-0.5508 0.30078-0.3 0.0667-0.4337-0.16589-0.4004-0.69922 0.1-1.0667 0.1504-1.7178 0.1504-1.9512 0-0.73333-0.1163-1.3826-0.3496-1.9492-0.1667-0.26667-0.2829-0.46628-0.3496-0.59961l-0.5-0.80078c0.5-0.6 1.1822-1.0826 2.0488-1.4492zm-20.35 1.1992c1.2 0.26667 2.0333 1.1504 2.5 2.6504 0.1333 0.46667 0.7012 1.9822 1.7012 4.5488-1.1-0.46667-2.2337-0.41628-3.4004 0.15039-1.1333 0.53333-1.8678 1.3841-2.2012 2.5508-0.2 0.66667-0.6166 1.2171-1.25 1.6504-0.033 0.0333-0.6321 0.36667-1.7988 1-0.1333 0.1-0.5675-0.1345-1.3008-0.70117-1.7667-1.0333-2.85-1.7329-3.25-2.0996-0.9333-0.86667-1.3325-1.8337-1.1992-2.9004 0.1333-1.1667 0.8833-1.9826 2.25-2.4492 1.8667-0.6 3.5333-1.7163 5-3.3496 0.8333-0.96666 1.8159-1.3174 2.9492-1.0508zm16.65 1.0997c0.9-0.16667 1.4659 0.21706 1.6992 1.1504 0.2334 1.0333 0.3012 1.7329 0.2012 2.0996 0.1333 0.8 0.017 1.4841-0.3496 2.0508-0.3334 0.46667-0.9012 0.89883-1.7012 1.2988-1 0.5-1.7325 1.2016-2.1992 2.1016-0.3 0.53333-0.7845 0.88216-1.4512 1.0488-0.8 0.13333-1.3988 0.24961-1.7988 0.34961-0.4667 0.16667-0.8833 0.2345-1.25 0.20117-0.7 0.0667-1.2175 0.0667-1.5508 0-0.5667-0.0667-0.9504-0.46784-1.1504-1.2012-0.067-0.2-0.3166-0.79883-0.75-1.7988-0.3666-0.73333-0.5333-1.3671-0.5-1.9004 0.067-0.5 0.3012-0.91667 0.7012-1.25 0.4333-0.33333 0.9004-0.46706 1.4004-0.40039 1.7333 0.2 3.2992-0.19922 4.6992-1.1992 0.4333-0.3 1.0496-0.8 1.8496-1.5 0.7667-0.53333 1.4837-0.88411 2.1504-1.0508zm22.5 1.5996c0.067 0 0.3826 0.13372 0.9492 0.40039 0.9 0.4 1.5182 0.91745 1.8516 1.5508 0.2666 0.5 0.4333 1.3004 0.5 2.4004 0 0.0907 0.072 0.13954 0.078 0.22852-0.014 0.0318-0.066 0.0368-0.078 0.0703v0.0508c-0.065 0.29063 5e-4 0.57357 0.1992 0.84961 0.047 0.0703 0.08 0.1362 0.1 0.19922 0.1203 0.6539 0.3878 1.371 0.8008 2.1504h0.049l0.4004 0.84961c0.01 0.0336 0.01 0.051 0 0.0508 0.082 0.19049 0.1983 0.33971 0.3496 0.44922 0.038 0.0334 0.07 0.0659 0.096 0.0957 0.1292 0.20402 0.2726 0.4213 0.3613 0.58594 0.2503 0.27927 0.3705 0.64913 0.4532 1.0449 0.069 0.26023 0.043 0.52782 0.023 0.79492-0.044 0.38185-0.071 0.76831-0.2773 1.1035-0.171 0.34491-0.314 0.70744-0.6055 0.97656-0.065 0.0606-0.1002 0.16566-0.1641 0.22852-0.084 0.0514-0.1715 0.0992-0.2363 0.16992-0.01 0.0435-0.022 0.0784-0.049 0.10156-0.3088 0.30951-0.6421 0.74167-1 1.2988-0.1107 0.19845-0.085 0.284-0.1621 0.45508-0.1946 0.32463-0.4683 0.53476-0.6387 0.89453-0.1168 0.24522-0.3273 0.89353-0.4727 1.2617-0.031 0.0518-0.1058 0.0821-0.1269 0.13867v0.0508c-0.3721 1.3262-0.7498 1.9495-1.127 2.6152-0.2998 0.52986-0.5989 1.0603-1.123 1.3848-0.7667 0.46667-1.6504 0.66628-2.6504 0.59961-0.8-0.16667-1.9163-0.73255-3.3496-1.6992-0.1-0.0667-0.1-0.15 0-0.25 1.3333-1.3333 1.9496-3.1841 1.8496-5.5508-0.1-2.3333 0.5492-4.1667 1.9492-5.5 0.7334-0.7 1.0337-1.6671 0.9004-2.9004-0.1667-1.2-0.6822-2.2155-1.5488-3.0488-0.3334-0.3-0.4671-0.55-0.4004-0.75 0.033-0.2 0.2329-0.4345 0.5996-0.70117 0.5-0.36667 1.0174-1.0333 1.5508-2 0.2333-0.5 0.5492-0.71706 0.9492-0.65039zm-54 0.69531c0.1157 0.0231 0.2361 0.0176 0.3496 0.0547l0.084 0.0117c0.6757 0.10735 1.3171 0.30408 1.8672 0.73828 0.4 0.33333 0.8651 0.88372 1.3984 1.6504 0.1 0.13333 0.1504 0.36784 0.1504 0.70117 0 0.2-0.015 0.48294-0.049 0.84961 0.1 1.6667 1.1 3.0155 3 4.0488-1.6667-0.0667-2.8682-0.0318-3.6016 0.10156-1.1 0.2-2.0321 0.89961-2.7988 2.0996-0.7667 1.2333-0.9663 2.3671-0.5996 3.4004 0.067 0.2 0.049 0.29883-0.051 0.29883h-0.3496c-1.9333 0.0667-3.7841 0.4-5.5508 1-0.2667 0.1-0.5167-0.0667-0.75-0.5-0.067-0.13333-0.2159-0.49961-0.4492-1.0996-0.2185-0.62804-0.1218-1.2565 0.039-1.8848 0.071-0.41581 0.4228-1.1085 0.9453-1.9726 0.1175-0.17648 0.1253-0.24398 0.2656-0.44336 0.01-0.0113 0.01-0.0375 0.016-0.0488l0.4337-0.65042c0.3455-0.47604 0.4966-0.95859 0.4512-1.4492-0.01-0.0763-0.01-0.15963 0-0.25 0.044-0.0505 0.092-0.10092 0.1484-0.15039 0.1155-0.11575 0.1833-0.21653 0.2012-0.30078 0.021-0.0179 0.037-0.0508 0.049-0.0996 0.052-0.10833 0.2032-0.74206 0.4512-1.9004 0.164-0.78824 0.3906-1.1207 0.5918-1.6348 0.2463-0.63694 0.4466-1.2949 1.0586-1.7656 0.8525-0.66305 1.757-0.88935 2.6992-0.80469zm46.9 1.9062c2.4667 0.63333 4.017 1.9996 4.6504 4.0996 0.3333 1.1 0.066 2.1155-0.8008 3.0488-1.1333 1.1667-1.7341 2.5833-1.8008 4.25 0 1.5333-0.048 2.6341-0.1484 3.3008-0.2 1.2-0.6516 2.2-1.3516 3-0.6333 0.8-1.5151 1.3329-2.6484 1.5996-2.2667 0.56667-4.5845 0.0337-6.9512-1.5996-0.4333-0.4-0.7667-0.70039-1-0.90039 0.9333-0.2 1.6175-0.56628 2.0508-1.0996 0.3667-0.43333 0.5992-1.1 0.6992-2 0.067-0.56667 0.2333-0.93294 0.5-1.0996 1.3333-1.1667 1.6337-2.6008 0.9004-4.3008-0.2667-0.66667-0.3829-1.4167-0.3496-2.25 0.033-0.36667 0.167-1.1167 0.4004-2.25 0.067-0.36667 0.2663-0.66706 0.5996-0.90039 0.2-0.13333 0.4829-0.3 0.8496-0.5 0.7667-0.5 1.5496-1.2151 2.3496-2.1484 0.4-0.5 1.0841-0.58333 2.0508-0.25zm-11.15 1.3984c0.7333-0.23333 1.6829-0.0318 2.8496 0.60156 1.2 0.63333 1.733 1.2496 1.5996 1.8496-0.2666 1.0333-0.3984 2.1826-0.3984 3.4492 0 0.26667 0.1318 0.71628 0.3984 1.3496 0.2 0.53333 0.2834 0.98489 0.25 1.3516-0.1333 0.86667-0.3833 1.45-0.75 1.75-0.4 0.3-0.6829 0.73216-0.8496 1.2988-0.1333 0.33333-0.2825 0.85078-0.4492 1.5508-0.4333 1.2-1.383 1.5663-2.8496 1.0996-1.5334-0.5-2.8008-1.1492-3.8008-1.9492-1.5333-1.1333-2.3008-2.7845-2.3008-4.9512-0.1666-1.1-0.099-2.2337 0.2012-3.4004 0.1667-0.53333 0.5155-1.0159 1.0488-1.4492 0.1-0.1 0.5845-0.45078 1.4512-1.0508 1.0333-0.63333 2.2329-1.1333 3.5996-1.5zm-18 0.95116c0.9667 0.13333 1.9163 0.83294 2.8496 2.0996l0.5508 0.90039c0.3 0.4 0.3504 0.71589 0.1504 0.94922-0.3667 0.26667-0.6341 0.46628-0.8008 0.59961-1.2333 1.0333-1.9833 1.6671-2.25 1.9004-0.8 0.76667-1.4337 1.5167-1.9004 2.25-0.6667 0.83333-1.1337 1.4671-1.4004 1.9004-0.1 0.16667-0.2163 0.21706-0.3496 0.15039-0.1667-0.1-0.2829-0.16784-0.3496-0.20117-0.7667-0.16667-1.5671-0.71511-2.4004-1.6484-0.8-0.93333-1.2167-1.7512-1.25-2.4512 0-0.4 0.1667-0.70039 0.5-0.90039 0.033-0.0333 0.3337-0.16511 0.9004-0.39844 0.6-0.3 1.1329-0.7845 1.5996-1.4512 0.3-0.4 0.6837-1.0337 1.1504-1.9004 0.9-1.3333 1.9-1.9322 3-1.7988zm10.35 3.5996h0.5996c-0.2333 2.6-0.067 4.6329 0.5 6.0996-0.1 0.0334-0.183 0.0508-0.25 0.0508-0.4 0.0667-0.7818 0.15-1.1484 0.25-0.7 0.3-1.2679 0.60039-1.7012 0.90039s-0.8325 0.61589-1.1992 0.94922c-0.4 0.36667-0.8341 0.78333-1.3008 1.25-0.4333 0.4-0.7822 0.84961-1.0488 1.3496-0.3 0.5-0.5849 1.0329-0.8516 1.5996-0.034 0.0333-0.049 0.0837-0.049 0.15039-0.3333 0.53333-0.5175 1.0333-0.5508 1.5-0.033 0.43333-0.1322 0.85-0.2988 1.25h-0.6016c-0.9333-0.23333-2.1-0.68294-3.5-1.3496-0.4139-0.21527-0.7403-0.56436-0.9804-1.043-0.2447-0.48507-0.4016-1.1017-0.4688-1.8574-0.083-1.1326 0.012-2.1617 0.2871-3.0859v-2e-3c0.2751-0.92471 0.7299-1.7443 1.3633-2.4609 1.3-1.5667 2.9337-3.1171 4.9004-4.6504 0.1666-0.1333 0.3818-0.16637 0.6484-0.0996 0.9167 0.16667 1.8454 0.18254 2.7871 0.0488 0.9418-0.13353 1.8967-0.41627 2.8633-0.84961zm-21.949 1.0508c0.4667 0.0667 1.4337 0.33216 2.9004 0.79883 0.4666 0.13333 0.7166 0.41628 0.75 0.84961 0.067 0.66666 0.1 1.0174 0.1 1.0508 0.4333 1 0.9837 1.8159 1.6504 2.4492 1 0.9 1.9825 1.4504 2.9492 1.6504v1c0 0.53333-0.017 1.3008-0.051 2.3008 0 0.73333 0.068 1.2004 0.2012 1.4004 0.4667 0.76667 0.4667 1.3984 0 1.8984-0.067 0.0667-0.5667 0.3845-1.5 0.95117-1.4667 0.9-2.6178 1.2837-3.4512 1.1504-2.0333 0.1-3.6166-0.55117-4.75-1.9512-0.3-0.4-0.4996-0.88255-0.5996-1.4492-0.067-0.2-0.1325-0.75039-0.1992-1.6504-0.1-1.2-0.8675-2.5159-2.3008-3.9492-1.1333-1.1333-1.517-2.3349-1.1504-3.6016 0.3334-1.1333 1.1667-1.9822 2.5-2.5488 0.9-0.4 1.8845-0.51628 2.9512-0.34961zm23 5.8496c0.1333 0 0.2496 0.0155 0.3496 0.0488 0.2 0.1 0.3996 0.28411 0.5996 0.55078 0.2333 0.3 0.4175 0.49961 0.5508 0.59961 1.2667 0.96667 2.4663 1.6663 3.5996 2.0996 0.2333 0.0667 0.4659 0.48333 0.6992 1.25 0.2 0.7 0.2679 1.2174 0.2012 1.5508-0.2 0.8-0.6845 1.4008-1.4512 1.8008-1 0.3-1.7325 0.53255-2.1992 0.69922-0.9333 0.36667-1.9663 1.1167-3.0996 2.25-0.9333 0.93333-1.85 1.4837-2.75 1.6504-2.7333-0.23333-4.0163-1.5841-3.8496-4.0508 0.067-0.36667 0.15-0.7155 0.25-1.0488 0.1333-0.6 0.2825-1.1678 0.4492-1.7012 0-0.0667 0.017-0.13255 0.051-0.19922 0.2333-0.56667 0.5163-1.1171 0.8496-1.6504 0.2333-0.33333 0.4988-0.64922 0.7988-0.94922 0.4667-0.46666 0.9512-0.90078 1.4512-1.3008 0.5-0.36667 1.0329-0.7 1.5996-1 0.6-0.36667 1.2337-0.56628 1.9004-0.59961zm-30.059 0.0488c0.6324-0.0327 1.1822 0.20167 1.6484 0.70117 0.2333 0.3 0.5841 0.73216 1.0508 1.2988 0.6333 0.53333 1.05 1.3512 1.25 2.4512 0.3333 1.7 0.5155 2.6167 0.5488 2.75 0.2332 0.6 0.7508 1.2163 1.5508 1.8496 0.8 0.66667 1.55 1.0833 2.25 1.25 1.6333 0.36667 3.1333 0.26588 4.5-0.30078 0.3-0.1 0.7496-0.31511 1.3496-0.64844l0.3496-0.10156-0.1992 0.35156c-0.6667 1.2-0.9671 2.5159-0.9004 3.9492 0 1.1667-0.4826 2.1337-1.4492 2.9004-0.2667 0.23333-0.8346 0.84961-1.7012 1.8496-0.5197 0.594-0.9828 0.92522-1.4472 1.2617-0.1182 0.0244-0.2406 0.0293-0.3516 0.0879v0.0508c-0.1485 0.11816-0.5919 0.32516-0.959 0.50977-0.8812 0.37364-1.742 0.71842-2.3047 0.60546l-0.088-0.0156c-0.017-6e-3 -0.05-0.0235-0.1-0.0508-0.6652-0.2251-0.9822-0.55225-1.2285-0.90039-0.3025-0.41833-0.5835-0.91865-0.8203-1.5996-0.096-0.27902-0.3591-0.46999-0.498-0.72656-0.1805-0.31535-0.3885-0.82487-0.5528-1.0234l-0.1967-0.19922c-0.056-0.0666-0.1104-0.0568-0.166-0.11523-0.3597-0.35669-0.8578-0.6403-1.334-0.93555v-2e-3c-0.1009-0.19176-0.2839-0.34052-0.5489-0.44727h-0.053l-0.7773-0.3125c-0.1991-0.0819-0.3069-0.21237-0.5196-0.28711-0.4991-0.15597-0.7405-0.24804-1.123-0.375l-1.1797-0.47461h0.053c-0.7949-0.24484-1.2021-0.59906-1.664-0.9375-0.19-0.15024-0.4793-0.24635-0.6367-0.41406-0.3667-0.4-0.6172-1.15-0.75-2.25 0-0.0276-0.036-0.0808-0.041-0.10938-0.015-0.43925-0.1473-0.78119-0.3906-1.0293-0.1043-0.25018-0.1139-0.41642-0.2676-0.71094-0.4333-0.83333-0.6833-1.4496-0.75-1.8496-0.3-1.6667 0.5837-3.1667 2.6504-4.5 1.2329-0.76643 3.1649-1.284 5.7969-1.5508zm36.209 3.6504c0.4666-0.16667 0.7651-0.0504 0.8984 0.34961 0.2 0.56666 0.3182 0.86706 0.3516 0.90039 2.1 1.8667 4.3655 2.7833 6.7988 2.75 0.2667 0 0.383 0.11628 0.3496 0.34961 0 0.0333-0.033 0.2-0.1 0.5-0.5 1.1667-1.3488 1.8837-2.5488 2.1504-1.4 0.4-2.4679 1.0841-3.2012 2.0508-0.7 0.96667-1.8492 1.7496-3.4492 2.3496-1.6 0.63333-2.9508 0.81745-4.0508 0.55078-0.2667-0.0667-0.3829-0.20039-0.3496-0.40039 0.067-0.26667 0.084-0.45078 0.051-0.55078-0.1-1.2667-0.4837-2.2667-1.1504-3-0.067-0.1-0.067-0.18333 0-0.25 0.033-0.0333 0.099-0.0837 0.1992-0.15039 0.5333-0.66667 1.2678-1.2151 2.2012-1.6484 0.4-0.16667 1.2663-0.4845 2.5996-0.95117 1.0333-0.36667 1.6825-1.0663 1.9492-2.0996 0.3-1.0667 0.1178-2.0337-0.5488-2.9004zm12.5 3.0508c0.1333 0.0333 0.5655 0.29883 1.2988 0.79883 0.3333 0.23333 0.783 0.46784 1.3496 0.70117 0.3334 0.13333 0.8179 0.3155 1.4512 0.54883 0.8 0.33333 1.3659 1 1.6992 2s0.3196 1.9167-0.049 2.75c-0.1334 0.36667-0.3679 0.7-0.7012 1-0.4 0.3-0.7004 0.5345-0.9004 0.70117-0.4986 0.47486-1.2405 1.7349-1.959 2.9199-0.05 0.0461-0.1446 0.026-0.1894 0.0801h-0.051c-0.3211 0.42175-0.604 0.88881-0.8496 1.4004-0.01 0.0337-0.025 0.0492-0.051 0.0488l-0.1152 0.18164c-0.629 0.97661-1.306 1.8377-2.1035 2.4023-0.073 0.0525-0.129 0.14479-0.2032 0.19336-0.9855 0.6387-2.1099 0.93748-3.3437 0.97071l-0.584 0.0527c-2.1619 0.22161-3.7452 0.50456-4.75 0.84961 5e-4 0.0268-0.017 0.0442-0.051 0.0508 7e-4 0.01-0.017 0.01-0.051 0l-0.2982 0.1992c-0.046 0.0541-0.1119 0.087-0.1992 0.0996-0.01 3e-3 -0.028 0.0181-0.039 0.0215-0.1986 0.0778-0.4139 0.043-0.6113 0.12891-1.1334 0.45951-2.1604 0.38508-3.125 0-0.4093-0.12528-0.6522-0.53526-0.9648-0.82617-0.5966-0.51662-1.2368-0.97114-1.5606-1.873-0.3-0.73333-0.4996-1.2837-0.5996-1.6504-0.2-0.66667-0.2659-1.3004-0.1992-1.9004l-0.1016-1.1504c0.033-0.33333 0.084-0.53294 0.1504-0.59961 0.1-0.16667 0.3345-0.23255 0.7012-0.19922 2.8666 0.4 5.4655-0.68333 7.7988-3.25 0.8-0.86666 1.8833-1.5004 3.25-1.9004 0.8-0.23333 1.4337-0.65 1.9004-1.25s0.6837-1.3171 0.6504-2.1504c0-0.36667 0.1822-0.58372 0.5488-0.65039 0.2334-0.0333 0.6849-0.23294 1.3516-0.59961 0.5-0.26667 1-0.2997 1.5-0.0996zm-32.25 0.74999c0.067-0.0667 0.4 0.0825 1 0.44922 1.8 0.9 3.1663 1.3496 4.0996 1.3496 0.3 0 0.4667 0.11823 0.5 0.35156 0.033 0.16667 0.049 0.38177 0.049 0.64844 0.2667 1.3 1.1504 2.2012 2.6504 2.7012 1.4667 0.53333 2.7341 0.38216 3.8008-0.45117 0.5333-0.4 0.8822-0.4 1.0488 0 0.1 0.23333 0.1834 0.58411 0.25 1.0508 0.3 0.73333 0.4182 1.2004 0.3516 1.4004-0.1 1.4-0.1834 2.2159-0.25 2.4492-0.2 0.8-0.6012 1.4337-1.2012 1.9004-0.4333 0.33333-0.9333 0.46706-1.5 0.40039-0.2333-0.0333-0.7488-0.16706-1.5488-0.40039-2.4-0.63333-4.1849-0.81745-5.3516-0.55078-1.3333 0.3-2.4651 0.26697-3.3984-0.0996-0.9667-0.4-1.7845-1.2333-2.4512-2.5-0.3333-0.63333-0.3627-1.7671-0.1-3.4004 0.3667-1.7667 0.5837-2.7318 0.6504-2.8984 0.1667-0.5 0.6337-1.3004 1.4004-2.4004zm-3.4004 9.1503c0.4667-0.2 0.9337 0.19922 1.4004 1.1992 0.6 1.1667 1.8151 1.8837 3.6484 2.1504 0.7334 0.13333 1.8671 0.0325 3.4004-0.30078 1.2333-0.13333 2.6171 0.10117 4.1504 0.70117 0.8 0.3 1.6004 0.36589 2.4004 0.19922 0.8333-0.16667 1.5155-0.56589 2.0488-1.1992 0 0.3 0.083 0.86589 0.25 1.6992 0.1 0.7 0.1349 1.2659 0.1016 1.6992-0.01 0.16575-0.1802 0.33209-0.2324 0.49805-0.225 0.66931-0.5507 1.0664-0.9219 1.3398-0.1893 0.16234-0.3817 0.26496-0.5762 0.33789-0.3959 0.20295-0.8085 0.39505-1.4707 0.42578-0.1359-1e-3 -0.1786 0.14302-0.3027 0.16016-0.6142 0.12464-1.2221 0.16577-1.8477 0.43945-0.7 0.33333-1.6496 0.88373-2.8496 1.6504-1.3667 0.93333-2.8163 1.0496-4.3496 0.34961-1.6667-0.73333-3.1667-1.15-4.5-1.25-1.2-0.0667-2.1671-0.51628-2.9004-1.3496-0.7036-0.76765-0.9738-1.7431-0.9101-2.8789 0.019-0.15787 0.06-0.36813 0.092-0.55469 0.2297-1.3039 0.8872-2.6542 2.1192-4.0664 0.6333-0.76666 1.05-1.1833 1.25-1.25z"/>
 <g transform="translate(-1004.2 -186.3)">
  <path transform="translate(160.15,84.1)" d="m849.1 102.2c-3.3333 0-5 1.6667-5 5v158.2c0 3.3333 1.6667 5 5 5h93.199c3.3333 0 5-1.6667 5-5v-158.2c0-3.3333-1.6667-5-5-5zm8.3008 7.1992h76.6c4.6667 0 7 2.3333 7 7v139.8c0 4.6667-2.3333 7-7 7h-76.6c-4.6667 0-7-2.3333-7-7v-139.8c0-4.6667 2.3333-7 7-7z" fill="#ef1d1e"/>
  <path transform="translate(160.15,84.1)" d="m857.4 109.4c-4.6667 0-7 2.3333-7 7v139.8c0 4.6667 2.3333 7 7 7h76.6c4.6667 0 7-2.3333 7-7v-139.8c0-4.6667-2.3333-7-7-7z" fill="none" stroke="#000" stroke-width="1.2"/>
 </g>
</svg>
