<svg width="103.2" height="168.2" preserveAspectRatio="none" version="1.1" viewBox="0 0 103.2 168.2" xmlns="http://www.w3.org/2000/svg">
 <path d="m13.301 7.1992c-4.6667 0-7 2.3333-7 7v139.8c0 4.6667 2.3333 7 7 7h76.6c4.6667 0 7-2.3333 7-7v-139.8c0-4.6667-2.3333-7-7-7z" fill="#fff"/>
 <path d="m40.244 46.338-8.9258 15.645 14.406 7.0703 10.783-9.8984zm31.406 54.561 3.6015 9.879s10.788 2.408 10.644-7.589c3.118-1.5543 4.2645-4.2339 3.0551-7.5399 1.153-2.089 0.77723-5.358-1.8566-5.4007-4.8072-0.07795-15.759 9.1622-15.444 10.651zm3.6012 9.8794c-0.0122-0.0171-0.0392-9e-3 -0.0508-0.0274l0.0488 0.0488c-4e-3 -8e-3 5e-3 -0.0135 2e-3 -0.0215zm-60.951-3.2775c-1.3865 1.3965-1.3235 3.3731-0.65039 5.1484-1.3834 3.5542 0.27551 5.7251 2.9004 7.5508 0.21394 4.9454 2.7344 8.2763 10.012 8.2773l4.3379-10.277c-2.2823-4.4357-13.984-12.636-16.6-10.699zm44.051-0.10156c-1.188 0.15072-9.0553 2.6934-9.25 6.0508 0.29295 3.3822 4.1012 3.6063 6.6992 3.8008 1.9187 3.3244 5.3794 4.2434 8.8496 2.6992 1.9231 2.5532 13.04-0.084 8.8006-6.5398l-15.099-6.011zm-15.166 17.108-15.537 7.5885c1.1644 4.9601 6.504 6.6442 10.502 4.9047 3.1529 2.1622 6.8185-7e-3 8.75-2.75 2.5585-0.0184 5.3122-0.48072 6.5996-3.0508 0.96828-3.5338-9.5109-7.6193-10.314-6.6924z" fill="#faea01"/>
 <path d="m48.264 31.069c-15.09-4.7107-26.963 4.3301-26.963 4.3301-2.0915 0.0333-3.4908 0.88412-4.1992 2.5508v-0.0508c-0.25521 0.81302-0.48971 1.313-0.70117 1.5h0.0508l-2.75 3.4004h-0.0508c-0.65287 0.80495-0.90287 1.7894-0.75 2.9512 0.14701 1.1307 0.64701 2.0958 1.5 2.8984 0.84844 0.71718 1.6314 1.2676 2.3496 1.6504 0.13827 0.0682 0.2216 0.16901 0.25 0.30078 0.0586 0.12747 0.0586 0.2612 0 0.40039-0.0577 0.10367-0.15651 0.187-0.29883 0.25l-1.1504 0.39844c-1.3e-4 8e-3 -0.0176 0.0257-0.0508 0.0508-0.0633 0.0233-0.12917 0.0563-0.19922 0.0996-1.484 0.84544-2.1003 2.295-1.8496 4.3496 0.0919 0.62408-0.15807 1.5253-0.75 2.7012v0.0488l-0.5 1.2012c-0.35573 0.90065-0.60573 1.7495-0.75 2.5488-3.8466 14.999 16.15 18.55 16.15 18.55l3.4306 2.9774 7.7178 0.97179c2.1413-2e-3 3.7246-0.93412 4.75-2.7988l0.1016-0.15036c0.0792-0.10987 0.1625-0.17575 0.25-0.19922 0.12422-0.0508 0.2405-0.0508 0.34961 0 0.10193 0.0137 0.18527 0.0621 0.25 0.14844l8.8062 3.1016 25.223-8.475-5.2796-16.175c-0.2487-0.58112-0.64987-1.149-1.2012-1.7012-0.0819-0.0764-0.13031-0.15977-0.14844-0.25-0.0103-0.13099 5e-3 -0.24726 0.0488-0.34961 0.068-0.0932 0.1513-0.15909 0.25-0.19922 0.71224-0.31732 1.3634-0.75143 1.9512-1.3008 0.56523-0.55026 0.93151-1.0658 1.0996-1.5488 0.2134-0.57945 0.25434-1.1662 0.14649-1.7578-0.0837-0.35774-0.28223-0.83841-0.59766-1.4434v-0.0488l-0.25-0.60156c-0.28333-0.65247-0.29901-1.4684-0.0488-2.4492 2.9835-3.4237-2.9783-22.715-26.187-17.881zm27.084 22.424c4e-4 2e-3 3e-3 6e-3 4e-3 8e-3v-0.051c3e-3 0.0145-7e-3 0.0285-4e-3 0.043zm-33.631-4.4253c-0.81362 4.244 3.4188 2.3655 10.803 11.152 0 0-4.8277 2.7017-6.4384 6.5039l-2.1118 0.24135c-0.47509-3.7787-3.9674-1.524-9.4625-5.8357 2.3899-6.6556 5.0299-8.2626 5.0467-11.548zm42.834 45.282-0.44922 0.0488c-1.3767 0.45508-2.0782 1.2729-2.1016 2.4512v0.0488c-0.0391 0.45586 0.14505 0.88997 0.55078 1.3008 0.38477 0.40067 0.86732 0.60028 1.4492 0.59961h0.15039c0.7444-0.0546 1.2948-0.38789 1.6504-1 0.19623-0.30951 0.36289-0.77657 0.5-1.4004l0.0508-0.19922c0.12747-0.55859-0.0237-1.0082-0.45117-1.3496-0.21159-0.1508-0.46159-0.25158-0.75-0.30078-0.0701-0.0119-0.13595-0.0274-0.19922-0.0488-0.13373-0.0906-0.26745-0.14099-0.40039-0.15039zm-12.6 6.25c-0.3931 0.0208-0.75938 0.25339-1.0996 0.69922l-0.0508 0.0996c-8e-3 4e-4 -0.0255 0.0178-0.0508 0.0508l-0.34961 0.55078v-0.0508c-0.29935 0.51797-0.5319 0.83385-0.69922 0.94922-0.10495 0.0783-0.22122 0.11316-0.34961 0.10156-0.12877-0.0168-0.247-0.0672-0.35156-0.15039-0.0497-0.0884-0.0827-0.17175-0.0996-0.25-0.40052-0.53133-1.0672-0.79878-2-0.80078h-0.15039l-0.34961 0.0508c-0.44245 0.0896-0.82617 0.22331-1.1504 0.40039h-0.0488c-0.45247 0.24336-0.75286 0.5418-0.90039 0.89844-0.0108 0.10065-0.0612 0.20143-0.15039 0.30078-0.0629 0.0794-0.16172 0.12979-0.29883 0.15039-1.082 0.16836-1.7332 0.81758-1.9512 1.9492-7e-3 0.016-0.0226 0.0335-0.0488 0.0508-0.0199 0.12161-0.0199 0.27083 0 0.44922 0.0513 0.10456 0.0513 0.22084 0 0.34961-0.0546 0.09-0.13789 0.15784-0.25 0.20117l-0.60156 0.25c-0.0644 0.0293-0.13034 0.0448-0.19922 0.0488-0.21328 5e-3 -0.51367 0.0732-0.90039 0.20117-0.0501 0.0354-0.11602 0.0683-0.19922 0.0996-0.0758 9e-3 -0.15911 9e-3 -0.25 0l-0.0996-0.0508c-0.62122 0.0226-0.98945 0.37343-1.1016 1.0508-0.12097 0.81393 0.0632 1.3469 0.55078 1.5996 0.11313 0.0346 0.19647 0.11797 0.25 0.25 0.21094 0.11953 0.44349 0.23581 0.69922 0.34961 0.12293 0.0207 0.20627 0.0885 0.25 0.20117 0.13242 0.17083 0.28359 0.30456 0.45117 0.40039l0.0488 0.0488c0.3888 0.20267 0.80547 0.30345 1.25 0.30078h0.15039c0.0984 0 0.18177 0.0329 0.25 0.0996 0.0941 0.0329 0.16197 0.0988 0.20117 0.19922 0.13086 0.23787 0.34597 0.38904 0.64844 0.45117l0.5 0.0488h0.20117c0.13685 1e-3 0.25312 0.0516 0.34961 0.15039l0.0996 0.0996c0.45873 0.36467 0.94323 0.54878 1.4512 0.55078h0.25c0.13685 1e-3 0.25312 0.0516 0.34961 0.15039 0.3707 0.36867 0.82031 0.55083 1.3496 0.54883 0.225 3e-3 0.42461-0.0297 0.59961-0.0996 0.0978-0.0481 0.19857-0.0636 0.30078-0.0488 0.10627 0.0226 0.1896 0.0711 0.25 0.14844 0.47682 0.49114 1.0098 0.77604 1.5996 0.85156h0.19922c0.46276-2e-3 0.83099-0.11992 1.1016-0.35156 0.0952-0.0883 0.19401-0.13671 0.29883-0.14844 0.10625-7e-3 0.20703 0.0255 0.30078 0.0996 0.0907 0.0362 0.15662 0.10209 0.19922 0.19922 0.16094 0.33413 0.41094 0.53374 0.75 0.59961 0.11549 0.0134 0.21627 0.0638 0.30078 0.15039 0.0987 0.0965 0.14906 0.21276 0.15039 0.34961v0.20117c3e-3 0.0336 3e-3 0.0665 0 0.0996-0.09 0.41029-0.10733 0.8444-0.0508 1.3008 0.0129 0.069-5e-3 0.15235-0.0508 0.25-0.0165 0.0624-0.065 0.12825-0.14844 0.19922l-0.95117 0.80078c-0.0153 0.0115-0.0482 0.027-0.0996 0.0488-0.53971 0.29623-1.0223 0.76328-1.4492 1.4004-0.0399 0.0643-0.10768 0.11472-0.20117 0.15039-0.0973 0.0462-0.1961 0.0617-0.29883 0.0488h-0.24997c-0.0245-3e-3 -0.0594-3e-3 -0.10156 0h-0.25l-1 0.20117c-0.53151 0.13267-0.99662 0.19855-1.3984 0.19922-0.52956 3e-3 -0.98112-0.11341-1.3516-0.34961-0.35755-0.12267-0.57266-0.18855-0.64844-0.19922-0.24115-2e-3 -0.4582 0.0816-0.65039 0.25-0.2168 0.17787-0.33308 0.41042-0.34961 0.69922-0.0806 0.79232 0.15195 1.5094 0.69922 2.1504 0.61445 0.66467 1.347 0.998 2.1992 1 0.27201 5.2e-4 0.5724-0.0673 0.90039-0.20117 0.35677-0.154 0.57383-0.25283 0.65039-0.29883 0.11537-0.0806 0.23164-0.1136 0.34961-0.0996 0.11693 0.0138 0.21771 0.0622 0.30078 0.14844l0.0996 0.10156c0.0179 0.0161 0.0353 0.0316 0.0508 0.0488 0.39583 0.528 0.89584 0.79545 1.5 0.80078 0.33451-8e-3 0.71628-0.12409 1.1484-0.34961 0.6539-0.3069 1.1714-0.67513 1.5508-1.1016 0.0922-0.0807 0.19297-0.12917 0.30078-0.14844 0.11263-0.018 0.21146-2e-3 0.29883 0.0488 0.2237 0.0993 0.49115 0.14972 0.80078 0.15039h0.0996c0.62903-0.0145 1.2124-0.33034 1.75-0.94922 0.83633-0.92656 1.1871-1.8936 1.0508-2.9004-0.18815-1.0876-0.43815-1.9384-0.75-2.5508-0.0449-0.10403-0.0624-0.20286-0.0508-0.29883 0.0155-0.1026 0.0484-0.18593 0.0996-0.25 0.0762-0.0903 0.15951-0.14072 0.25-0.15039 0.23451-0.0887 0.43412-0.23984 0.59961-0.45117 0.23067-0.28073 0.34889-0.56367 0.35156-0.84961-2e-3 -0.0991 0.014-0.18242 0.0488-0.25 0.0736-0.0958 0.1569-0.16169 0.25-0.19922 0.0883-0.044 0.17161-0.0615 0.25-0.0508 0.92695 0.13133 1.927 0.19917 3 0.20117 1.0996-3e-3 2.1829-0.10339 3.25-0.30078 1.745-0.3319 3.028-1.016 3.8496-2.0508 0.22733-0.32917 0.34556-0.6625 0.35156-1v-0.0996c0.0569-0.59609-0.0264-1.0283-0.25-1.2988-0.0497-0.0981-0.0846-0.19883-0.10156-0.30078-0.01-0.0958 7e-3 -0.17917 0.0508-0.25 0.25403-0.58151 0.20364-1.2152-0.15039-1.9004-0.01-0.041-0.025-0.0739-0.0488-0.0996v-0.0508l-0.0508-0.0996c-0.0475-0.11237-0.065-0.2112-0.0508-0.29883 0.0138-0.12149 0.0487-0.22227 0.10156-0.30078 0.36333-0.36732 0.5455-0.80144 0.54883-1.3008 3e-3 -0.47044-0.17878-0.85221-0.54883-1.1484-0.0168-8e-3 -0.0343-8e-3 -0.0508 0-0.53828-0.53266-1.205-0.80011-2-0.80078-0.31133 2.6e-4 -0.59427 0.0507-0.84961 0.15039-0.51862 0.15182-0.81901 0.48515-0.90039 1-0.0288 0.29597-0.0288 0.56146 0 0.79883v0.0508c0.0191 0.17617-0.0971 0.52696-0.34961 1.0508-0.23947 0.46511-0.39064 0.83138-0.45117 1.0996v0.19922c-2e-3 0.0892-0.0351 0.17253-0.0996 0.25-0.0251 0.0749-0.0755 0.1427-0.15039 0.20117-0.50899 0.27057-1.0419 0.63685-1.5996 1.0996 1.3e-4 2.7e-4 -0.0154 0.0158-0.0488 0.0488l-0.75 0.5c-0.0227 5e-3 -0.0576 0.0225-0.10156 0.0508l-0.29883 0.0996c-0.19375 0.068-0.34492 0.21914-0.45117 0.45117-0.0434 0.0964-0.10925 0.17969-0.19922 0.25-0.093 0.0393-0.19375 0.0548-0.30078 0.0488l-1.75-0.15039h-0.0488c-0.41263 7e-3 -0.8293 0.057-1.25 0.15039-0.11224 0.022-0.22852 7e-3 -0.34961-0.0488l-0.20117-0.10156c-0.10653-0.066-0.18987-0.16484-0.25-0.29883-0.0277-0.12825-0.0103-0.24453 0.0508-0.34961l0.0488-0.10156c0.0862-0.54518-0.11341-1.0607-0.59961-1.5488l-0.19922-0.20117c-0.0541-0.05-0.10452-0.0984-0.15039-0.14844-0.0546-0.21641-0.15534-0.40052-0.30078-0.55078-0.0271-0.0232-0.06-0.0407-0.0996-0.0508-0.0272-0.0694-0.11055-0.13529-0.25-0.19922-0.1018-0.0958-0.16769-0.21211-0.19922-0.34961l-0.0996-0.5c-0.0466-0.34115-0.18034-0.62409-0.40039-0.84961-0.0749-0.0706-0.12526-0.15391-0.15039-0.25-0.0201-0.0932-0.0201-0.17656 0-0.25 0.18542-0.44752 0.16809-0.83125-0.0508-1.1504v-0.0508c-0.0976-0.20508-0.24687-0.3543-0.44922-0.44922-0.0556-0.0238-0.10599-0.0567-0.15039-0.0996l-0.0488-0.0506c-0.0611-0.0641-0.11146-0.12995-0.15039-0.19922-6e-3 -0.10027-6e-3 -0.1836 0-0.25 0.0548-0.16784 0.0548-0.31901 0-0.45117-0.0103-0.0247-0.0277-0.0402-0.0508-0.0488-0.10325-0.41146-0.41914-0.74479-0.94922-1-0.15547-0.10267-0.32213-0.15306-0.5-0.15039zm10.65 0.54883-0.30078 0.0508c-1.0142 0.35247-1.6305 1.1025-1.8496 2.25-0.0401 0.44805 0.0432 0.81432 0.25 1.0996 0.33164 0.33347 0.78125 0.50013 1.3496 0.5h0.15039c0.36276-2e-3 0.71159-0.10052 1.0488-0.29883 0.49818-0.37396 0.83151-0.95729 1-1.75 0.10403-0.36797 0.0556-0.6858-0.14844-0.95117v-0.0488c-0.22578-0.39896-0.64245-0.66641-1.25-0.80078zm-25 10c-0.58268 0.0259-1.0672 0.22747-1.4512 0.60156v0.0488c-0.404 0.36094-0.63655 0.84545-0.69922 1.4512-0.0233 0.51784 0.11042 0.96745 0.40039 1.3496v-0.0508c0.38477 0.40067 0.86732 0.60028 1.4492 0.59961h0.15039c0.57891-0.053 1.0615-0.2681 1.4492-0.64844h-0.0488c0.40807-0.4233 0.65807-0.9582 0.75-1.6016 0.0426-0.45117-0.0911-0.83295-0.40039-1.1484-0.32903-0.40067-0.79609-0.60223-1.4004-0.60156zm-39.4 0.20117c-0.14961 6e-3 -0.33372 0.0564-0.55078 0.15039h-0.0488c-0.0235 0.0212-0.0584 0.0367-0.10156 0.0488-0.23333 0.0464-0.46589 0.12969-0.69922 0.25-0.45664 0.34141-0.62331 0.79102-0.5 1.3496l-0.0508-0.0488 0.0508 0.15039c0.0265 0.0168 0.044 0.0323 0.0508 0.0488 0.11523 0.66094 0.24701 1.1454 0.39844 1.4512 0.42135 0.69733 1.0221 1.0462 1.8008 1.0488h0.0996c0.53347-4e-3 1.0005-0.18646 1.4004-0.54883 0.396-0.39831 0.59561-0.84987 0.59961-1.3516-0.0178-1.1857-0.71745-2.019-2.0996-2.5zm45.949 2.6504c-0.81888 0.1263-1.4681 0.67474-1.9492 1.6484l-0.0508 0.10156-0.0996 0.29883 0.0508-0.0488c-0.10833 0.61667-0.01 1.1322 0.29883 1.5488 0.30937 0.32293 0.6931 0.4896 1.1504 0.5l0.44922-0.0488c0.98736-0.23281 1.6056-0.94987 1.8516-2.1504 0.10313-0.46211 2e-3 -0.91172-0.30078-1.3496-0.29883-0.33533-0.68255-0.502-1.1504-0.5zm-33.449 3.5996c-0.18073 9.3e-4 -0.34739 0.0339-0.5 0.0996-0.45573 0.23841-0.77356 0.5892-0.95117 1.0508-0.07 0.175-0.103 0.37461-0.0996 0.59961-3e-3 0.0891-0.0362 0.17239-0.0996 0.25-0.026 0.0741-0.0764 0.13995-0.15039 0.19922-0.24297 0.1362-0.42513 0.35326-0.54883 0.65039v0.0508c-0.12773 0.26888-0.12773 0.60221 0 1 0.0478 0.0826 0.0478 0.18138 0 0.29883-7e-3 0.0822-0.0572 0.16549-0.15039 0.25-0.17435 0.15377-0.30807 0.38828-0.40039 0.70117 0.0125 0.0432 0.0125 0.0916 0 0.14844-0.064 0.10859-0.0969 0.22682-0.0996 0.35156 1e-3 0.0792-0.0164 0.1625-0.0508 0.25-0.0363 0.0531-0.0867 0.10157-0.15039 0.14844l-0.34961 0.25c-0.14023 0.21015-0.25651 0.42721-0.34961 0.65039-0.0151 0.0628-0.0655 0.1306-0.15039 0.20117l-0.25 0.19922-0.0488 0.0508c-0.40039 0.41263-0.55156 0.89519-0.45117 1.4492l0.0508 0.0996c0.0525 0.0961 0.0525 0.21237 0 0.34961-0.0139 0.10859-0.0818 0.20937-0.20117 0.30078-0.082 0.0515-0.18086 0.0689-0.29883 0.0508-8.4704 0.77956-8.3497-6.8516-8.3497-6.8516l-1.3516-0.39844c-1.1648 4e-3 -2.0137 0.42044-2.5488 1.25-0.25399 0.51133-0.27179 1.0126 0 1.5l-0.0508-0.0508 0.40039 0.55078c0.062 0.0824 0.0949 0.18125 0.0996 0.29883 4e-3 0.0906-0.0285 0.19141-0.0996 0.30078-0.42265 0.67526-0.48854 1.4078-0.19922 2.1992 0.0489 0.0649 0.0644 0.14818 0.0488 0.25-0.0197 0.0758-0.0701 0.15911-0.15039 0.25-0.0783 0.11068-0.12671 0.27735-0.14844 0.5l-0.0508 1.0996c0.0819 0.67812 0.41523 1.2285 1 1.6504h0.0508c0.36979 0.27265 0.96862 0.5556 1.7988 0.84961h-0.0488l0.19922 0.0508h0.0508c1.166 0.39867 2.4994 0.59828 4 0.59961 1.0102-2e-3 2.109-0.085 3.2988-0.25 0.14206-0.0176 0.25834 0.0154 0.34961 0.0996 0.11833 0.0579 0.18617 0.15872 0.20117 0.30078l0.0996 0.25 0.0508 0.0996c9e-3 8e-3 9e-3 0.0253 0 0.0508 0.1931 0.52552 0.47604 0.87435 0.84961 1.0488 0.109 0.0184 0.19233 0.0687 0.25 0.15039 0.0613 0.0826 0.0943 0.18333 0.0996 0.30078 3e-3 0.0823-0.0297 0.16563-0.0996 0.25-0.21107 0.38021-0.36224 0.79687-0.45117 1.25-0.36003 2.3072 0.22331 3.9409 1.75 4.9004 0.27057 0.172 0.57096 0.25533 0.90039 0.25 0.29466-3e-3 0.54466-0.0708 0.75-0.20117 0.11563-0.0833 0.2319-0.11634 0.34961-0.0996 0.12721 0.012 0.22799 0.0624 0.30078 0.15039 0.35339 0.37409 0.83594 0.75781 1.4492 1.1504l-0.0488-0.0508c0.44193 0.228 0.87409 0.34428 1.2988 0.34961 0.68763 5.2e-4 1.2225-0.28242 1.6016-0.84961 0.0926-0.1172 0.19141-0.18309 0.29883-0.19922 0.12813-0.0503 0.2444-0.0503 0.34961 0 0.72747 0.33067 1.3941 0.49733 2 0.5 0.42226-2e-3 0.82344-0.10247 1.2012-0.30078v0.0508c0.49649-0.33985 0.86276-0.92318 1.0996-1.75l0.25-0.75c-0.0124-0.41666-0.11315-0.75-0.30078-1-3.9917 1.4837-10.603-1.861-8.9493-4.6504 0.0185-0.12917 0.0689-0.22995 0.15039-0.30078 0.10911-0.10039 0.22539-0.15078 0.34961-0.15039 0.34518-0.0371 0.56224-0.20377 0.65039-0.5 0.0482-0.1034 0.11407-0.18673 0.19922-0.25 0.0901-0.0653 0.19089-0.0983 0.30078-0.0996 0.11068 1e-3 0.20951 0.0344 0.29883 0.0996 0.31797 0.23333 0.70169 0.35156 1.1504 0.35156h0.20117c0.57903-0.0634 1.0945-0.34831 1.5488-0.85156 0.0732-0.0565 0.14104-0.0895 0.20117-0.0996 0.09-0.0432 0.17331-0.0587 0.25-0.0488l0.84961 0.0996c0.48568-0.0139 0.8694-0.1806 1.1504-0.5 0.0672-0.0451 0.13309-0.078 0.19922-0.0996 0.0637-0.0307 0.12956-0.0481 0.19922-0.0508h0.30076c0.53646-8e-3 1.019-0.20716 1.4492-0.59961l0.0508-0.0508c0.0569-0.0577 0.12279-0.0906 0.19922-0.0996 0.0739-0.0441 0.14177-0.0616 0.20117-0.0508l0.29883 0.0508c0.45065-0.0331 0.81888-0.25013 1.1016-0.65039 0.0457-0.0641 0.0941-0.11446 0.14844-0.15039 0.0876-0.0353 0.17097-0.0508 0.25-0.0488h0.30076c0.54583 4e-3 0.97995-0.17995 1.3008-0.55078 0.0589-0.0682 0.10731-0.11859 0.14844-0.15039 0.0376-0.0854 0.088-0.15129 0.15039-0.19922 0.0594-0.0485 0.12721-0.0814 0.20117-0.0996 0.24049-0.0572 0.52344-0.20833 0.84961-0.45117 0.0243-0.0189 0.0398-0.0344 0.0488-0.0488l0.10156-0.0508v0.0508c0.48607-0.33034 0.65273-0.89818 0.5-1.7012-0.11328-0.65287-0.497-0.9862-1.1504-1l-0.0996 0.0508c-0.0943 0.0109-0.19505-7e-3 -0.30078-0.0508l-0.34959-0.1486-1.3008-0.30078c-0.0702-0.0381-0.13609-0.0885-0.19922-0.15039l-0.0508-0.0488c-0.0611-0.0641-0.11146-0.1319-0.15039-0.20117-6e-3 -0.10027-6e-3 -0.1836 0-0.25 0.0589-0.19427 0.0589-0.36094 0-0.5-0.26055-1.1559-0.94271-1.8051-2.0488-1.9492-0.10365-0.0147-0.20443-0.0477-0.30078-0.0996-0.0583-0.0846-0.10872-0.16797-0.15039-0.25-0.0548-0.26458-0.15365-0.44869-0.29883-0.55078-0.0105-0.0397-0.028-0.0727-0.0508-0.0996-0.43281-0.54073-1.0162-0.80818-1.75-0.80078h-0.25c-0.98333 3e-3 -1.6829 0.2026-2.0996 0.59961l-0.19922 0.35156c-0.0277 0.0896-0.0956 0.15549-0.20117 0.19922-0.0794 0.0488-0.17826 0.0663-0.29883 0.0508-0.0893-0.0216-0.17265-0.072-0.25-0.15039-0.2043-0.19753-0.38841-0.44753-0.55078-0.75l0.0508 0.0488-0.40039-0.59961-0.0508-0.0488c-0.0415-0.0367-0.0745-0.0716-0.0996-0.10156-0.23893-0.52047-0.60521-0.78596-1.0996-0.79883zm-10.75 0.59961c-0.56068-1.3e-4 -0.99479 0.21692-1.3008 0.65039-0.29753 0.37213-0.39636 0.7888-0.29883 1.25 0.37761 1.2776 1.0927 1.9268 2.1484 1.9492h0.0508c0.56836 1.3e-4 1.0025-0.16653 1.3008-0.5 0.23733-0.29883 0.35361-0.6651 0.34961-1.0996-3e-3 -0.1681-0.0362-0.30182-0.0996-0.40039-0.0313-0.0389-0.0662-0.0719-0.10156-0.0996l-0.0996-0.25h0.0508c-0.40742-0.92213-1.0237-1.4221-1.8496-1.5zm78.799 0.15039c-2.3371 5e-3 -4.2189 0.98776-5.6484 2.9492-0.28841 0.60144-0.55381 1.275-0.95117 1.25-1.3647 0.0712-2.5139 0.75534-3.4492 2.0508l-0.15039 0.19922c-0.46627 0.64362-0.73372 1.1611-0.80078 1.5508-0.0242 0.11601-0.0901 0.21484-0.19922 0.29883-2.1046-0.0783-3.5125 1.0228-4.9624 2.4333-0.30571 0.0556-2.3586-1.0685-4.688 0.51782-1.8187 1.5855-3.7692 3.121-3.0996 5.6504-0.0117 0.0889-0.0621 0.17227-0.15039 0.25-0.056 0.0485-0.13932 0.0814-0.25 0.0996-1.7384 0.28073-3.1551 1.2478-4.25 2.9004-0.0509 0.0821-0.13425 0.14802-0.25 0.19922-3.5329-0.61892-4.816-0.8121-7.9492 1.5508-0.0789 3e-3 -0.16224-0.0147-0.25-0.0508-0.47761-0.263-0.97761-0.41222-1.5-0.44922-3.2316-0.0102-5.3508 1.5682-7.2501 3.9494-0.1 0.0291-0.21628 0.0291-0.34961 0l-0.30078-0.3496c-1.0798-1.1947-2.3298-1.7954-3.75-1.8008h-0.5c-1.0745 0.16522-2.3749 0.64973-3.9004 1.4512l-1.5488 0.75c-0.82318 0.364-1.7902 0.54616-2.9004 0.54883h-0.0508l-2.6992-0.19922c-2.9524-0.34789-5.5195 0.0704-7.4004 1.5996-0.89479 0.67735-1.1777 1.5107-0.84961 2.5v-0.0508l0.40039 0.95117c0.0433 0.0896 0.0588 0.18842 0.0488 0.29883-0.0174 0.0775-0.0678 0.16081-0.15039 0.25-0.0443 0.0559-0.11016 0.10626-0.19922 0.15039-0.72135 0.19883-1.3376 0.54961-1.8496 1.0508v-0.0508c-0.10713 0.10951-0.19047 0.22578-0.25 0.34961-0.024 0.088-0.0918 0.17135-0.20117 0.25-0.0836 0.0415-0.18242 0.059-0.29883 0.0508l-0.59961-0.0508h-0.05073c-0.25612 9e-3 -0.90534 0.0926-1.9492 0.25l-0.35156 0.15039c-0.0569 0.0105-0.12279 0.0105-0.19922 0-0.081-7e-3 -0.16432-0.0228-0.25-0.0488l-0.59961-0.40039v-0.0508c-0.85859-0.63893-1.909-0.98776-3.1504-1.0488l-0.40039-0.0508c-1.0303 0.0125-1.9141 0.42917-2.6504 1.25-0.0652 0.0755-0.16406 0.12592-0.29883 0.15039-0.0974 0.0133-0.19817-4e-3 -0.30078-0.0508-0.22474-0.13867-0.47474-0.20455-0.75-0.19922-0.0504 2.6e-4 -0.10079 2.6e-4 -0.15039 0l-0.14844-0.0508h-0.05078c-1.6492-0.62733-3.0659-0.94322-4.25-0.94922-0.33359 2e-3 -0.60104 0.0178-0.80078 0.0488-9e-3 3e-3 -0.0248 3e-3 -0.0488 0h-0.30078c-0.10989-2e-3 -0.20872-0.0347-0.29883-0.0996-0.0847-0.0639-0.15257-0.14727-0.20117-0.25-0.0174-0.0509-0.10078-0.14974-0.25-0.29883-0.0518-0.0505-0.10219-0.10092-0.15039-0.15039-1.4784-1.5501-2.8951-2.5501-4.25-3l-0.94919 18.199h97.25l-1.3008-46.449zm-54.148 9.7988c-0.46575-7e-3 -0.83398 0.15951-1.1016 0.5l-0.0488 0.0508c-0.28787 0.3418-0.42159 0.74102-0.40039 1.1992 0.0874 0.67734 0.31992 1.2277 0.69922 1.6504 0.38099 0.37433 0.84804 0.57394 1.4004 0.59961h0.15036c0.62669 1e-3 1.1267-0.19818 1.5-0.59961 0.30794-0.40599 0.42422-0.8556 0.34961-1.3496-0.0836-0.64336-0.34909-1.1434-0.79883-1.5-0.43046-0.36267-0.98086-0.54678-1.6504-0.55078zm-6.3516 2.8516c-0.49518-4e-3 -0.87695 0.17852-1.1484 0.54883-8e-3 0.0172-0.0254 0.0346-0.0508 0.0508-0.29831 0.33633-0.39909 0.75299-0.30078 1.25 0.33047 1.2204 0.98164 1.9375 1.9512 2.1504h-0.0508l0.40039 0.0488h0.0508c0.48034-0.0109 0.82917-0.17761 1.0488-0.5 0.0327-0.0335 0.0501-0.049 0.0508-0.0488 0.36771-0.43841 0.48398-0.97331 0.34961-1.6016l-0.0996-0.25-0.0508-0.0996c-0.50313-0.93177-1.1698-1.4473-2-1.5488z" fill="#ef1d1e"/>
 <path d="m9 5.1992c-0.15617 0.63623 0.2682 1.0368 0.60741 1.5273 0.4803 1.3844 0.62218 2.9696 0.39258 4.7734-0.045 0.25583 0.0524 0.3781 0.0254 0.61719l-0.125 0.68164c-0.056 0.81133 0.078 1.8947 0.40039 3.25l0.0508 0.15039c0.054 0.1082 0.054 0.22448 0 0.34961-0.021 0.0894-0.089 0.17279-0.20117 0.25-0.083 0.0439-0.18143 0.0613-0.29883 0.0508l-1.2012-0.0996h-0.0488c-0.7304 0.01-1.7304 0.14128-3 0.39844-6.5316 1.3067-1.752 2.949-0.10152 7.1015v-0.05078l0.65039 1.4004-0.0488-0.0508c0.3513 0.51185 0.55091 0.92851 0.59961 1.25v-0.0488c0.6377 1.7406 2.0215 3.8724 4.1504 6.3984 1.3294 1.4259 2.7461 2.4763 4.25 3.1504l1.623 0.70508c0.1018 0.0425 0.17179 0.10308 0.27539 0.14453 0.3 0.13333 0.3833 0.33489 0.25 0.60156-0.2333 0.33333-0.38252 0.56589-0.44922 0.69922-0.2 0.63333-0.6167 1.2826-1.25 1.9492-0.7333 0.73333-1.2663 1.3012-1.5996 1.7012-0.7333 0.9-1.1171 1.9-1.1504 3-0.033 1.1667 0.31748 2.1667 1.0508 3 1.4333 1.6 2.7667 2.4837 4 2.6504l-1.5 0.59961c-0.6 0.2-1.0671 0.41706-1.4004 0.65039-1.4333 0.96667-1.9179 2.2826-1.4512 3.9492 0.1 0.43333 0.052 0.91589-0.14844 1.4492l-0.60156 1.3516c-0.4333 0.93333-0.66592 1.5322-0.69922 1.7988-0.054 0.37746-0.3502 0.60559-0.6875 0.80859-0.022-1e-3 -0.0405-8e-3 -0.0625-8e-3 -0.2074 8e-3 -0.42449 0.0914-0.65039 0.25-0.1807 0.11241-0.34499 0.24394-0.52149 0.36133-0.057 0.0293-0.18161 0.0586-0.22851 0.0879-0.1044 0.0685-0.14204 0.17062-0.24414 0.24023-1.9003 1.3415-3.5628 2.9653-4.9551 4.9102-1.63 1.8901-0.47553 3.3994 0.90039 4.9492h0.0312c0.203 0.30216 0.43199 0.62957 0.70899 1.0059 0.1858 0.34914 0.27746 0.65083 0.25976 0.89453 0.024 0.37787-0.19259 0.79453-0.65039 1.25-4.7095 4.3366-3.58 9.2488-2.5508 9.25 1.2664 0 0.68755-0.31965 1.25-0.44922l3.6503-0.65022c0.1232-0.0165 0.23951 0.0164 0.34961 0.0996 0.1071 0.0401 0.17497 0.12344 0.20117 0.25 0.059 0.10026 0.059 0.21654 0 0.34961-0.021 0.0753-0.088 0.13907-0.16211 0.20117l-0.51758 0.29492c-1.8933 1.0298-3.5856 1.8202-5.0215 2.3047h-0.0488l0.24999 4.8008 0.1992-0.0508c1.8204-0.26302 3.8863-0.79596 6.1992-1.5996 0.1337-0.0553 0.25196-0.0553 0.35156 0 0.1236 0.0199 0.2069 0.0858 0.25 0.19922 0.079 0.0832 0.11191 0.18398 0.0996 0.30078l-0.0391 0.35352c-0.098 0.68746-0.24232 1.5388-0.26172 1.9453 0 0.0959 0.0244 0.11399 0.0254 0.20508l-0.12496 1.1464v0.34961c-0.01 0.26927 0.096 0.48633 0.30078 0.65039v0.0488c0.1876 0.13133 0.38721 0.19917 0.59961 0.20117h0.0488c0.034-0.0125 0.0627-0.0116 0.0957-0.0195 0.025-6e-3 0.0287 0.0274 0.0547 0.0195 0.034-7e-3 0.12011-0.0399 0.16211-0.0508h0.13867c2.1049-0.52475 3.8993-1.1481 5.3945-1.8633 0.1261-0.0673 0.2798-0.0655 0.4043-0.13672 0.2401-0.13336 0.28366-0.21603 0.50976-0.3457 0.1261-0.07 0.26973-0.13352 0.39063-0.20508 1.0466-0.62858 2.3839-1.5724 3.8535-2.6621 0.075-0.0677 0.27936-0.17034 0.34766-0.23633 0.3333-0.3 0.86631-0.70117 1.5996-1.2012 0.021-0.0184 0.0346-0.0479 0.0566-0.0664 0.016-0.0128 0.0279-0.0204 0.0449-0.0332 0.8368-0.64727 1.8369-1.7306 3-3.25l1.25-1.5508c0.016-0.025 0.0338-0.0405 0.0508-0.0488l0.0488-0.0508c0.096-0.0987 0.21281-0.14906 0.34961-0.15039 0.1369 1e-3 0.25506 0.0516 0.35156 0.15039 0.099 0.0965 0.14714 0.21276 0.14844 0.34961v0.0742c-0.666 2.5066-2.136 4.4237-4.377 5.7754-0.043 0.025-0.13598 0.0806-0.17188 0.10156l-0.40039 0.29883c-0.017 0.01-0.0338 0.027-0.0508 0.0508-0.1146 0.0559-0.20119 0.14158-0.27539 0.24219-0.3758 0.17783-0.67172 0.33502-0.82422 0.45703-0.3333 0.2-0.44961 0.46745-0.34961 0.80078 0.1667 0.66667 0.78291 0.91667 1.8496 0.75 0.1612-0.0115 0.5288-0.0149 0.7168-0.0254 0.029 5e-3 0.054 0.0236 0.084 0.0254l1.2988-0.0508c0.6733-0.0147 1.2487-0.0444 1.7402-0.0879 0.1321-3e-3 0.17334-9e-3 0.31054-0.0117 0.038-5e-3 0.072-0.0412 0.10938-0.0469 0.2597-0.0323 0.54733-0.0606 0.74023-0.10351 1.0815-0.29375 1.9827-0.80924 2.7012-1.5488l0.0488-0.0508c0.6833-0.78489 1.1679-1.4516 1.4512-2 0.061-0.13387 0.144-0.2172 0.25-0.25 0.1333-0.0627 0.24961-0.0627 0.34961 0 0.05 0.0118 0.089 0.0373 0.12891 0.0625 0.022 0.0974 0.11369 0.0626 0.12109 0.1875 0.1007 0.16272 0.32903 0.54169 0.45313 0.74414 0.2918 0.54451 0.5918 1.1104 0.8457 1.5566 0.903 1.4193 1.9362 2.477 3.0898 3.2012 0.095 0.0577 0.16461 0.19627 0.26171 0.24805 0.1003 0.0472 0.20049 0.0402 0.30079 0.084 0.79459 0.40774 1.6434 0.66554 2.5488 0.76563l0.22071 0.01c0.1094 0.0137 0.21872 0.0822 0.32812 0.0918 0.2712 0.0329 0.88251-0.0378 1.2207-0.0254l0.58007 0.0254c0.4244 2.8e-4 0.81079-0.0394 1.2129-0.0625 0.6927-0.0275 1.0766 0.0392 1.9375-0.0391 0.6667-0.0667 2.6667-0.38255 6-0.94922 0.1667 0 0.25-0.0833 0.25-0.25 0-0.13333-0.068-0.23411-0.20117-0.30078-0.7-0.36667-1.6321-0.68255-2.7988-0.94922-1.5-0.36667-2.4496-0.61667-2.8496-0.75-1.1667-0.43333-2-0.79961-2.5-1.0996-0.86669-0.53333-1.5179-1.2329-1.9512-2.0996-0.4931-1.0241-0.75677-1.4479-1.1094-2.1055l-0.79492-1.8027c-0.1679-0.39318-0.23233-0.75202 0.20507-0.94336 0.4333-0.16667 0.81709-0.54844 1.1504-1.1484 0.4333-0.73333 0.73174-1.1849 0.89844-1.3516 0.7667 1.6333 2.1 2.4512 4 2.4512 0.6667 0 1.4516 0.13372 2.3516 0.40039 0.5 0.13333 1.25 0.36589 2.25 0.69922 1.0667 0.3 1.9833 0.35039 2.75 0.15039 0.2175-0.0593 0.43495 0.0966 0.65235 0.17773 0.1001 0.1733 0.24776 0.33067 0.44726 0.47266 1.4862 1.0043 3.085 1.8376 4.7988 2.5 0.6287 0.20664 1.5802 0.40625 2.8516 0.59961l0.75 0.0996h0.0488c0.6329 0.12867 1.383 0.19455 2.25 0.19922l1.1562-0.0449c0.2354-2e-3 0.51214 0.10641 0.74414 0.0957 0.2345-8e-3 0.55048-0.1285 0.80078-0.1582l1.0488-0.041c0.9456-0.0539 1.5793-0.30391 1.9004-0.75l0.049-0.051c0.02-0.0299 0.0289-0.0665 0.0469-0.0977 0.047-0.0758 0.0961-0.15102 0.11718-0.24414 0.1598-0.44438 0.14235-0.99445-0.0644-1.6582l-0.40048-1.4491c-0.014-0.10899-0.014-0.20977 0-0.30078 0.05-0.10067 0.11642-0.184 0.19922-0.25 0.082-0.062 0.1651-0.0949 0.25-0.0996 1.2038-0.0676 2.7387-0.51719 4.6016-1.3496l3.1484-1.4004h-0.0488c1.7462-0.81211 3.1629-1.3799 4.25-1.7012h-0.0508l0.69336-0.26953c0.6136-0.1885 1.3157-0.45626 1.8574-0.58008 0.1341-0.0335 0.76266-0.0284 1.0391-0.0508l0.01 2e-3c0.1998 0.0313 0.46718 0.0468 0.80078 0.0488 0.2885-8.5e-4 0.53079-0.0474 0.74219-0.125 0.239-3e-3 0.23471-0.0254 0.50781-0.0254 0.5667-0.0667 0.75078-0.31667 0.55078-0.75l-0.33398-0.78125c-0.068-0.279-0.17999-0.57966-0.36719-0.91797l-0.0957-0.16016-0.10352-0.24023c-0.3667-0.8-0.73291-1.4337-1.0996-1.9004-0.2598-0.30882-0.39968-0.35287-0.64648-0.63281-0.9614-1.1967-2.0992-2.3063-3.4102-3.3301-0.095-0.068-0.25265-0.27604-0.34375-0.33594-0.1712-0.0856-0.21344-0.1285-0.36914-0.20898-0.35-0.25301-0.70933-0.50043-1.082-0.74219h0.0508l-0.59961-0.34961c-0.092-0.0689-0.15967-0.15221-0.20117-0.25-0.043-0.10586-0.0578-0.20469-0.0488-0.29883 0.037-0.11693 0.088-0.20027 0.15039-0.25l0.34932-0.30078 0.0488-0.0508c0.8887-0.80791 2.0949-1.4468 3.3535-2.0586 0.2163-0.0978 0.42326-0.18679 0.59766-0.24023 0.3371-0.12891 0.53671-0.37891 0.59961-0.75 0.062-0.37239-0.072-0.65534-0.40039-0.84961v-0.05076c-1.7519-1.2046-4.0349-2.255-6.8496-3.1504-0.06-0.0204-0.12124-0.0334-0.18164-0.0527-0.062-0.0155-0.15725-0.0834-0.21875-0.0977-0.083-0.0212-0.14291-0.0132-0.22461-0.0332-0.9034-0.25043-1.8163-0.38653-2.7383-0.40625-0.655-0.0474-1.2418-6e-3 -1.8144 0.0527l-0.0215-0.0117-0.70117-0.0508c-0.4742 0.0185-0.85966 0.13626-1.1602 0.3457-0.1267 0.0279-0.22466 8.9e-4 -0.28906-0.0957-0.067-0.13333-0.13447-0.21667-0.20117-0.25l-1.4492-1.5996c1.1-0.1 2.0671-0.54961 2.9004-1.3496 0.8-0.8 1.2167-1.7167 1.25-2.75 0.033-0.3-0.05-0.65078-0.25-1.0508-0.1-0.23333-0.2667-0.58412-0.5-1.0508-0.3333-0.8-0.44961-1.6663-0.34961-2.5996 0.015-0.15419 0.17451-0.1803 0.25391-0.27734 0.047 0.0111 0.09 0.0279 0.14453 0.0273 0.2171 0 0.36827-0.0155 0.45117-0.0488 0.067-0.0534 0.13252-0.0883 0.19922-0.10156 1.2144-0.16181 2.5406-0.54491 3.959-1.1074 0.2011-0.0832 0.33252-0.047 0.54102-0.14258 0.252-0.11281 0.43849-0.2623 0.68359-0.37891 0.7797-0.35694 1.5794-0.75186 2.416-1.2207 0.4442-0.25232 0.90384-0.5501 1.3691-0.86914 0.2512-0.16715 0.47374-0.35067 0.71484-0.52344 0.9918-0.73503 2.0262-1.6057 3.1094-2.6309 0.061-0.063 0.14713-0.11221 0.20703-0.17578l0.95117-0.95117c0-4e-3 -2.3e-4 -8e-3 0.01-0.0117 0.099-0.1003 0.19502-0.18451 0.29492-0.28711h-0.0508c0.3035-0.30299 0.43533-0.62083 0.39843-0.95117v-0.0488c-0.027-0.3125-0.1432-0.61289-0.3496-0.90039h-0.0488c-0.04-0.10052-0.22388-0.31758-0.55078-0.65039l-0.19922-0.15039c-0.018-0.0155-0.0348-0.031-0.0508-0.0488-1.0577-1.0894-2.2902-1.9402-3.6992-2.5508-0.082-0.0306-0.15037-0.081-0.20117-0.15039-0.057-0.0835-0.0896-0.1668-0.0996-0.25-0.01-0.10427 0.01-0.1876 0.0508-0.25 0.4441-0.8862 0.81041-2.2525 1.0996-4.0996v-0.0488l0.0488-0.20117c0.081-0.54892 0.16149-1.025 0.24219-1.5254 0.2396-1.4512 0.4963-2.8678 0.8086-4.1738 0.5288-2.0492 1.2255-4.1152 2.082-6.1973 0.015-0.0341 0.0299-0.0603 0.0449-0.0937 0.5669-1.3519 1.4177-2.6724 2.5723-3.959 0.2-0.23333 0.26788-0.41745 0.20118-0.55078-0.067-0.0667-0.21788-0.15-0.45118-0.25-0.079-0.0236-0.16844-0.0202-0.24804-0.043-0.1039-0.0673-0.21336-0.12717-0.35156-0.15625l-2.5996-0.45117c-0.6094-0.10998-1.2474-0.18128-1.9024-0.23047-0.2591-0.0183-0.52315-0.0227-0.78515-0.0332-0.2717-0.0104-0.5334-0.0346-0.8125-0.0352-1.1754 1e-3 -2.3691 0.10025-3.5723 0.24805-0.3509 0.04-0.67174-2e-3 -1.0273 0.0508-0.3887 0.0559-0.69923 0.17975-1.0781 0.24414-1.5321 0.25054-2.9956 0.58011-4.3887 0.99023-0.6337 0.18478-1.2444 0.38919-1.8438 0.60352-1.2068 0.43737-2.3567 0.93911-3.4492 1.5078-0.3262 0.16953-0.72791 0.27431-1.041 0.45508-0.2031 0.12827-0.38008 0.35804-0.57618 0.51367-0.4535 0.32645-0.89882 0.68955-1.3242 1.1367-0.068 0.0795-0.1509 0.12992-0.25 0.15039-0.11259 0.0171-0.2289-3.4e-4 -0.3496-0.0508-0.082-0.0512-0.14792-0.11706-0.19922-0.19922-0.6228-1.1818-1.1228-2.9318-1.5-5.25l-0.20899-0.67187c-0.048-0.28337-0.11909-0.59469-0.15429-0.86133-0.01-0.16457 0.0135-0.27522 0.0625-0.31836 0.064-0.1418 0.0966-0.27357 0.0996-0.39844 0-0.26601-0.10052-0.50052-0.29882-0.70117-0.063-0.0592-0.14385-0.0913-0.21875-0.13281-0.098-0.1511-0.14836-0.37983-0.38086-0.31641-0.1521 0.0887-0.17636 0.0925-0.28516 0.15234-0.2676 2.3e-4 -0.49241 0.031-0.66601 0.0977-3.338 1.5271-5.9543 3.7267-7.8496 6.5996-1.5604 2.3789-2.7775 4.9952-3.6504 7.8496-0.4617 1.5082-0.66041 3.3945-0.59961 5.6523-0.098 0.27256-0.18349 0.55037-0.55079 0.69727-0.49999 0.2-1.0155 0.2-1.5488 0-0.2333-0.1-0.58408-0.14844-1.0508-0.14844-0.559-0.0621-0.74782-0.35454-0.69922-0.79297 0.018-0.83663 2.2e-4 -1.6497-0.0508-2.4394-0.01-0.0646 0.01-0.10207 0-0.16797-0.033-0.56667-0.1167-1.4174-0.25-2.5508-0.067-0.66667-0.24883-1.4167-0.54883-2.25-0.1667-0.5-0.46709-1.25-0.90039-2.25-0.075-0.2053-0.24863-0.3722-0.33203-0.57422-0.5886-1.263-1.2407-2.3998-1.9629-3.3984-0.2034-0.27876-0.28286-0.60579-0.50586-0.87695-0.4-0.5-0.9504-1.0504-1.6504-1.6504-0.83329-0.66667-1.4651-1.1667-1.8984-1.5-0.3042-0.22813-0.57297-0.38556-0.85547-0.57031-0.086-0.0601-0.1588-0.11945-0.2461-0.17969l-1.1525-0.84972c-0.1759-0.13867-0.3426-0.222-0.5-0.25h-0.20117c-0.4141 0.0135-0.7474 0.2306-1 0.65039l-1.4004 2.5c-0.028 0.0899-0.094 0.15575-0.19922 0.19922-0.079 0.0486-0.18008 0.0661-0.30078 0.0508-0.089-0.0216-0.1726-0.072-0.25-0.15039l-0.19922-0.19924c-1.9195-1.8832-3.5688-3.1681-4.9492-3.8516-2.2603-1.162-4.2354-2.0271-5.957-2.627-0.019-6e-3 -0.024-0.0151-0.043-0.0215-0.017-5e-3 -0.0357-8e-3 -0.0527-0.0137-1.5781-0.54372-1.7471-0.57478-1.8985-0.58789-2.9649-0.25677-8.6305-1.8116-9.9004-0.94918zm46.25 24.5c0.05 2e-3 0.097 0.0164 0.14648 0.0215-0.073-0.0119-0.15391-2e-3 -0.22851-0.01zm-12.1 0.5c0.1781 6.5e-4 0.39434 0.0362 0.58984 0.0527-1.1026-0.045-2.1614 0.019-3.1465 0.26758 0.8053-0.19594 1.6478-0.32042 2.5566-0.32031zm12.232 0.41602c0.3875 0.0312 0.79375 0.25859 1.2188 0.68359 1.9 1.7 2.1151 3.8841 0.64844 6.5508-0.6667 1.2333-1.9825 2.4833-3.9492 3.75-1.1 0.73333-2.1 0.84961-3 0.34961-0.7333-0.43333-1.4329-0.43333-2.0996 0-0.3 0.16667-0.51709 0.23255-0.65039 0.19922-0.1333-0.0667-0.26709-0.24883-0.40039-0.54883-0.5-1.2-1.3333-1.7174-2.5-1.5508-1.4 0.2-2.4 0.23303-3 0.0996-0.1-0.0333-0.83252-0.29883-2.1992-0.79883-0.8667-0.33333-1.6167-0.4845-2.25-0.45117-0.5333 0.0333-0.88408-0.0151-1.0508-0.14844-0.2667-0.13333-0.35-0.46667-0.25-1 0.067-0.3 0.0838-0.76706 0.0508-1.4004 0.1667-1.6333 0.81592-2.8504 1.9492-3.6504 1.3-0.96667 2.833-1.4996 4.5996-1.5996 1.2333-0.0667 2.8671 0.1 4.9004 0.5 1.0333 0.23333 2.1671 0.21607 3.4004-0.0508 0.4333-0.13333 1.0825-0.3155 1.9492-0.54883 0.7667-0.2 1.5167-0.31823 2.25-0.35156 0.125-0.0333 0.25371-0.0436 0.38281-0.0332zm-16.596 0.53125c-0.633 0.30729-1.2274 0.64594-1.7012 1.0781 0.089-0.0741 0.17062-0.15563 0.26562-0.22461 0.4519-0.33545 0.93435-0.61175 1.4356-0.85351zm-2.4648 1.8516c-0.5207 0.68378-0.88638 1.488-1.1133 2.4023 0.079-0.33538 0.17242-0.65541 0.29102-0.95117 0.2078-0.5437 0.48556-1.0236 0.82226-1.4512zm-6.2734 1.0118c0.7288 0.0146 1.3671 0.15492 1.9023 0.43945 0.3491 0.17943 0.64949 0.41198 0.90039 0.69922h0.0488l0.66601 0.6914c-0.72939-0.54614-1.4128-1.0488-1.8164-1.291-0.5744-0.34465-1.1394-0.47907-1.7012-0.53906zm28.959 0.11914h4e-3c0.01 0.10812 0.0371 0.2102 0.0391 0.32031 0.01 0.15089 0.01 0.30584 0 0.46094 0-0.21285-0.023-0.49568-0.043-0.78125zm-28.758 0.76952c0.8333 0.0667 1.5 0.35156 2 0.85156 1 1 1.8508 1.9167 2.5508 2.75 0.067 0.0667 0.21592 0.18294 0.44922 0.34961 0.1667 0.13333 0.11826 0.3-0.14844 0.5-0.7667 0.56667-1.3171 1.4155-1.6504 2.5488 0.033 0.26667 0.033 0.46823 0 0.60156-0.033 0.26667-0.21748 0.3655-0.55078 0.29883-0.6667-0.1-1.5329 0.0337-2.5996 0.40039-0.6667 0.26667-1.1996 0.73372-1.5996 1.4004-0.2333 0.43333-0.50078 1.1155-0.80078 2.0488-0.6667 2.2333-2.4322 3.6674-5.2988 4.3008-0.5333 0.0333-1.6845-0.18372-3.4512-0.65039-1.3333-0.3333-2.6996-1.1163-4.0996-2.3496-0.7-0.63333-1.1167-1.3833-1.25-2.25-0.1667-0.93333 0.033-1.7337 0.59961-2.4004l2.75-3.4004c0.3-0.43333 0.56748-0.96628 0.80078-1.5996 0.5-1.2667 1.6163-1.9333 3.3496-2 0.8-0.0333 1.9667-0.0333 3.5 0 1.3-0.0667 2.4008-0.36706 3.3008-0.90039 0.6333-0.4 1.3484-0.56667 2.1484-0.5zm-8.9492 0.5h0.5c0.4306 3e-3 0.73099 0.0201 0.90039 0.0508 0.043 3e-3 0.0746 3e-3 0.0996 0h0.57422c-1.8776-0.0657-3.3424 0.0921-4.3184 0.51367 0.6122-0.34815 1.3491-0.5502 2.2441-0.56445zm39.758 1.4241c-1.0805 0.27001-2.0542 0.77193-2.9082 1.5273 0.2981-0.64872 0.34-0.90498 0.5-1.3418-0.01 0.0765-0.013 0.15485 0 0.24219 0.048 0.10091 0.11627 0.1842 0.20117 0.25 0.081 0.0634 0.1639 0.0966 0.25 0.0996 0.1241 6e-3 0.22293-0.0115 0.29883-0.0508 0.5211-0.33013 1.0747-0.56872 1.6582-0.72656zm2.0918 0.67746c1.3667 0.1 2.4345 0.64844 3.2012 1.6484 1.7666 2.2333 3.4663 3.6171 5.0996 4.1504 1.1667 0.36667 1.9167 1.1341 2.25 2.3008 0.2333 0.9 0.20069 1.9155-0.0996 3.0488-0.3 1.1667-0.28447 2.1841 0.0488 3.0508 0.3333 0.66667 0.55039 1.1667 0.65039 1.5 0.2333 0.6 0.25038 1.1833 0.0508 1.75-0.2 0.63333-0.80078 1.2671-1.8008 1.9004-1.0333 0.66667-1.8163 0.84883-2.3496 0.54883-0.4-0.23333-0.9-0.4-1.5-0.5-0.6667-0.0667-1.1667-0.13255-1.5-0.19922-1.9-0.43333-3.7663-0.13294-5.5996 0.90039-0.1667 0.0667-0.28486 0.0492-0.35156-0.0508-0.1-0.1-0.11553-0.18333-0.0488-0.25 0.1667-0.16667 0.30039-0.39922 0.40039-0.69922 0.033-0.16667 0.099-0.43411 0.19922-0.80078 0.3667-0.96667 0.34962-1.9822-0.0508-3.0488-0.3667-1.1-0.98291-1.9333-1.8496-2.5-0.8667-0.5-1.5159-0.90117-1.9492-1.2012-0.7333-0.5-1.3012-1.0504-1.7012-1.6504-0.6333-1.1-1.1333-1.9159-1.5-2.4492-0.6-0.9-1.2996-1.5492-2.0996-1.9492 1.6333-0.93333 2.8329-1.7008 3.5996-2.3008 1.1-0.83333 2.2667-1.6163 3.5-2.3496 1.0333-0.63333 2.1671-0.91628 3.4004-0.84961zm-25.699 2.3496c0.2 0 0.84922 0.18216 1.9492 0.54883 1.1333 0.36667 1.8 0.58372 2 0.65039 0.7667 0.16667 1.4663 0.1997 2.0996 0.0996l1.3516-0.29883c0.5333-0.0333 0.95 0.18373 1.25 0.65039 0.6 0.83333 0.74922 1.6996 0.44922 2.5996s-0.51709 1.4504-0.65039 1.6504c-0.3333 0.53333-0.84883 0.84922-1.5488 0.94922-1.1667 0.13333-1.9516 0.60039-2.3516 1.4004-0.2 0.4-0.6167 0.58216-1.25 0.54883-0.6333 0-1.0151 0.18411-1.1484 0.55078-0.2-0.36667-0.6167-0.66706-1.25-0.90039-0.7-0.26667-1.1671-0.53216-1.4004-0.79883-1.2-1.3667-1.8841-2.1845-2.0508-2.4512-0.7333-1.2-0.84961-2.4171-0.34961-3.6504 0.4333-1 1.4004-1.5155 2.9004-1.5488zm31.025 0.35156c0.1132 0.11205 0.22229 0.20041 0.33399 0.30469-0.067-0.077-0.14289-0.0727-0.20899-0.15625-0.078-0.0963-0.053-0.0594-0.125-0.14844zm-19.326 2.541c0.2 0.0125 0.41709 0.0491 0.65039 0.10742 2.2 0.5 3.7833 1.7326 4.75 3.6992 0.7 1.4667 1.6826 2.6004 2.9492 3.4004l1.3516 0.75c0.5333 0.26667 0.93252 0.56706 1.1992 0.90039 1.2333 1.3333 1.5163 2.9167 0.84961 4.75-0.3333 0.86667-0.86631 1.1826-1.5996 0.94922-0.2667-0.0667-0.66592-0.0337-1.1992 0.0996-0.3 0.1-0.53447 0.18333-0.70117 0.25-0.3 0.0667-0.49961-0.0167-0.59961-0.25-0.3333-0.73333-0.9167-1.3826-1.75-1.9492-0.9333-0.63333-1.5825-1.4337-1.9492-2.4004-0.7333-1.9333-1.2333-3.1329-1.5-3.5996-1.0333-1.6667-2.7679-2.6667-5.2012-3 0.1667-0.33333 0.40117-0.78294 0.70117-1.3496 0.2667-1 0.49922-1.6163 0.69922-1.8496 0.3-0.375 0.74961-0.54531 1.3496-0.50781zm-16.1 0.65622c0.1667-0.0333 0.3333 0.23411 0.5 0.80078 0.3333 1.1667 0.86631 2.0833 1.5996 2.75 0.033 0.0333 0.33369 0.18255 0.90039 0.44922 0.3667 0.3 0.18252 0.63333-0.55078 1-0.2667 0.0333-0.44883 0.0837-0.54883 0.15039-2.4667 1.8333-3.9512 3.8178-4.4512 5.9512-0.1333 0.43333-0.2167 0.68333-0.25 0.75-0.1667 0.16667-0.48252 0.13177-0.94922-0.10156-1.9333-0.96667-3.6175-0.88333-5.0508 0.25-0.3667 0.36667-0.6167 0.33363-0.75-0.0996-0.5-1.9333 0.15117-3.4159 1.9512-4.4492 1.8333-1 2.9321-2.25 3.2988-3.75s0.83369-2.4671 1.4004-2.9004c0.3667-0.26667 1.3337-0.53411 2.9004-0.80078zm41.316 1.4062c0.07 0.17357 0.13159 0.35439 0.18359 0.54492 0.2033 0.70513 0.2372 1.507 0.125 2.3945 0.012-0.071-0.0614-0.0481-0.0254-0.14453 0.3157-0.97863 0.1783-1.9059-0.2832-2.7949zm-28.414 2.5c0.398 0.0208 0.81475 0.087 1.248 0.19531 1.9667 0.46667 3.2671 1.4492 3.9004 2.9492l1.3496 3.25c0.2333 0.63333 0.7333 1.2671 1.5 1.9004 1 0.83333 1.5988 1.3663 1.7988 1.5996 0.4333 0.6 0.41777 1.3326-0.0488 2.1992-0.1333 0.23333-0.41631 0.31667-0.84961 0.25-0.3667-0.16667-0.6167-0.21511-0.75-0.14844-0.7667 0.3-1.5671 0.0325-2.4004-0.80078-0.3-0.3-0.73408-0.8-1.3008-1.5-0.5333-0.66667-0.98291-1.1492-1.3496-1.4492-0.062-0.0529-0.12762-0.1207-0.19922-0.20117-0.4324-0.27057-0.8491-0.58646-1.25-0.94922-0.3698-0.35495-0.83689-0.67278-1.4004-0.95117-0.5303-0.27839-1.0807-0.56133-1.6504-0.84961-0.09-0.0373-0.19078-0.0877-0.30078-0.15039-0.2144-0.17865-0.41401-0.36081-0.59961-0.54883-0.3-0.36667-0.60039-0.71745-0.90039-1.0508-0.4667-0.53333-0.58291-1.1671-0.34961-1.9004 0.096-0.38125 0.24727-0.6642 0.45117-0.84961 0.875-0.725 1.9079-1.0566 3.1016-0.99414zm-8.9648 1.5449c0.575-0.1 1.1133 0.0996 1.6133 0.59961 0.2958 0.29583 0.47803 0.61172 0.54883 0.94922-0.067 0.53333-0.20039 1.0508-0.40039 1.5508-0.067 0.23333-0.16553 0.46589-0.29883 0.69922-0.2935 0.46236-0.6268 0.89648-1 1.3008-0.3 0.3-0.55 0.61589-0.75 0.94922-0.2 0.3-0.38408 0.61784-0.55078 0.95117l-0.5 1.0996c0.012 0.0331 0.012 0.066 0 0.0996-0.3 1.0333-0.55 1.8008-0.75 2.3008-0.3333 0.93333-1.1163 1.4837-2.3496 1.6504-0.2 0.0333-0.38408-0.0345-0.55078-0.20117-0.1667-0.13333-0.28291-0.3-0.34961-0.5-0.4667-1.3333-0.6333-2.3159-0.5-2.9492-0.1-1.3333 0.20039-2.6667 0.90039-4 1.1333-2.0667 2.5829-3.5008 4.3496-4.3008 0.2-0.1 0.39619-0.16589 0.58789-0.19922zm4.3633 0.54883 0.29883 1.6504c0.4333 0.8 1.0167 1.4337 1.75 1.9004 0.094 0.0572 0.19518 0.12302 0.30078 0.19922 0.3333 0.19167 0.73252 0.45911 1.1992 0.80078 0.5 0.37487 0.94961 0.64231 1.3496 0.80078 0.4 0.19713 0.78369 0.42969 1.1504 0.69922 0.5 0.43333 0.98447 0.83255 1.4512 1.1992 0.3611 0.33737 0.7777 0.85481 1.25 1.5508 0.6333 0.86667 1.1992 1.4674 1.6992 1.8008 0.2333 0.13333 0.2333 0.2167 0 0.25-0.5333 0.16667-1.0837 0.5-1.6504 1-0.6333 0.6-1.1004 1.0496-1.4004 1.3496-1.5333 1.5333-2.4829 2.7659-2.8496 3.6992-0.1 0.23333-0.53213 0.34961-1.2988 0.34961-0.1667 0.0333-0.26748-0.0151-0.30078-0.14844v-0.30077c-0.083-0.58333-0.32451-1.0537-0.72461-1.4121s-0.95908-0.60495-1.6758-0.73828c-1.3667-0.2-2.3667-0.43255-3-0.69922-0.8667-0.36667-1.9655-0.95-3.2988-1.75-0.2333-0.1-0.41748-0.1833-0.55078-0.25-0.2667-0.13333-0.31709-0.31745-0.15039-0.55078 0.6667-0.83333 1.0833-1.6667 1.25-2.5 0.056-0.33854 0.2231-0.78815 0.5-1.3496 0.2333-0.63333 0.50078-1.1159 0.80078-1.4492 0.3333-0.43333 0.6667-0.8849 1-1.3516 0.2-0.26667 0.41709-0.54961 0.65039-0.84961 0.1522-0.21315 0.28404-0.43021 0.39844-0.65039l0.40039-1.0996 0.0996-1.1504c-0.019-0.0678-0.0348-0.13373-0.0488-0.19922-0.033-0.3 0.10039-0.49961 0.40039-0.59961 0.1-0.0333 0.21631-0.0663 0.34961-0.0996zm-20.582 2.3379c0.6541 0.0333 1.3487 0.10456 2.082 0.21289-0.3 0.7-0.4667 1.2504-0.5 1.6504-0.1 0.66667-9.7e-4 1.2829 0.29883 1.8496 0.2333 0.3 0.4 0.55 0.5 0.75 0.1667 0.33333 0.1667 0.64922 0 0.94922-0.1333 0.23333-0.18369 0.43489-0.15039 0.60156 0.2 0.83333 0.35117 1.4496 0.45117 1.8496 0.2 0.73333 0.23261 1.3671 0.0996 1.9004-0.6 2.5667-0.9333 3.9833-1 4.25-0.3333 1.8667 0.3333 3.3822 2 4.5488 0.1 0.0333 0.29961 0.11667 0.59961 0.25 0.2333 0.1 0.26601 0.25117 0.0996 0.45117-1.9 1.9667-3.6655 3.0984-5.2988 3.3984-1.3333 0.23333-2.4496 0.0182-3.3496-0.64844-0.8333-0.63333-1.4012-1.6004-1.7012-2.9004-0.067-0.36667-0.18291-0.91706-0.34961-1.6504-0.1333-0.66667-0.33291-1.1996-0.59961-1.5996-0.3667-0.56667-0.63408-0.98333-0.80078-1.25-0.3-0.5-0.51709-0.93411-0.65039-1.3008-0.3667-1.2333-0.18252-2.7837 0.55078-4.6504 0.2-0.5 0.51592-1.2151 0.94922-2.1484 0.3333-0.83333 0.45156-1.5833 0.35156-2.25-0.2333-1.7333 0.29961-2.9174 1.5996-3.5508 1.25-0.575 2.8559-0.81289 4.8184-0.71289zm6.3809 3.7129c0.3333-0.1 0.90117 7.8e-4 1.7012 0.30078 0.8667 0.2 1.2988 0.68255 1.2988 1.4492 0 1.1 0.10078 1.9508 0.30078 2.5508 0.2667 0.86667 0.7667 1.5663 1.5 2.0996 0.1 0.0333 0.15039 0.14961 0.15039 0.34961-0.2 0.33333-0.23486 0.85078-0.10156 1.5508l1.1016 4.2988 0.25 0.65039c0.1 0.3 0.11553 0.48411 0.0488 0.55078-0.7 0.8-0.91709 1.6663-0.65039 2.5996 0.2 0.53333 0.2 0.95 0 1.25-0.1333 0.23333-0.4667 0.46589-1 0.69922s-1.1496 0.2506-1.8496 0.0508c-0.7-0.16667-1.1825-0.5-1.4492-1-0.8333-1.4-1.8179-2.4174-2.9512-3.0508-1.4-0.73333-2.1151-1.6326-2.1484-2.6992-0.033-0.66667 0.065-1.4167 0.29883-2.25 0.1-0.5 0.29961-1.25 0.59961-2.25 0.3-0.96667 0.35039-1.9667 0.15039-3-0.033-0.3-0.16709-0.71667-0.40039-1.25-0.1333-0.5-0.11622-0.91667 0.0508-1.25 0.4667-1.1 1.4996-1.6504 3.0996-1.6504zm37.951 1.9492c0.8-0.0333 1.9667 0.11784 3.5 0.45117 0.6333 0.0667 1.3659 0.43294 2.1992 1.0996 0.7667 0.66667 1.2841 1.3159 1.5508 1.9492 0.4 1.0667 0.4 2.1849 0 3.3516-0.033 0.13333-0.50039 1.1488-1.4004 3.0488-0.6333 1.4-0.99961 2.2508-1.0996 2.5508-0.3667 1-0.60117 1.8992-0.70117 2.6992-0.3 2.6333-1.7496 3.9337-4.3496 3.9004-0.7-0.13333-1.0992-0.3-1.1992-0.5-1.0667-1.9-2.6016-3.2004-4.6016-3.9004-0.2333-0.1-0.26591-0.24922-0.0996-0.44922 0.4-0.63333 1.2179-1.2012 2.4512-1.7012 0.8333-0.36667 1.4651-0.9655 1.8984-1.7988 0.4667-0.8 0.6333-1.6333 0.5-2.5-0.1-0.7-0.0832-1.3667 0.0508-2 0.1667-1.1 0.21709-1.9178 0.15039-2.4512-0.067-0.86667-0.36709-1.6167-0.90039-2.25l-0.55078-0.79883c0.3-0.1 0.73408-0.25117 1.3008-0.45117 0.5333-0.16667 0.96748-0.25 1.3008-0.25zm-6.5 0.85155h1.5996c0.9-0.0333 1.6655 0.49961 2.2988 1.5996 0.5667 1 0.7333 1.8837 0.5 2.6504-0.3667 1.4333-0.43252 2.4488-0.19922 3.0488 0.3 0.66667 0.16631 1.3837-0.40039 2.1504-0.4333 0.6-0.96631 1.0671-1.5996 1.4004-1.3667 0.7-2.2659 1.3667-2.6992 2-0.4667 0.83333-0.85039 1.4322-1.1504 1.7988-0.5 0.63333-1.1337 0.96667-1.9004 1-0.4667 0.1-0.81748 0.11727-1.0508 0.0508-0.4333-0.1-0.54961-0.49922-0.34961-1.1992 0.2333-0.9 0.051-1.7004-0.54883-2.4004-0.033-0.0667-0.15156-0.23333-0.35156-0.5-0.1-0.3 0.084-0.49961 0.55078-0.59961 0.7333-0.2 1.6829-0.18423 2.8496 0.0488 0.1333-0.0667 0.4667-0.1655 1-0.29883 0.4333-0.0667 0.7667-0.20039 1-0.40039 0.5667-0.5 0.9-1.1163 1-1.8496 0.067-0.4 0.067-1.1016 0-2.1016-0.1333-1.6-0.98223-2.9818-2.5488-4.1484l-0.30078-0.15037c-0.1-0.0667-0.13261-0.15-0.0996-0.25 0.1-0.2 0.23369-0.50039 0.40039-0.90039 0.1667-0.36667 0.34883-0.58372 0.54883-0.65039 0.3667-0.2 0.85117-0.29883 1.4512-0.29883zm-5.1016 2.25c0.6-0.0333 1.2008 0.0655 1.8008 0.29883 2.2333 0.96667 3.2333 2.6837 3 5.1504-0.033 0.0667-0.033 0.26628 0 0.59961 0.033 0.3-0.017 0.55-0.15039 0.75-0.5333 0.73333-1.2988 1.0512-2.2988 0.95117-2.0333-0.2-3.7679 0.26511-5.2012 1.3984-0.4667 0.43333-0.76709 0.68333-0.90039 0.75-0.3667 0.26667-0.73291 0.36745-1.0996 0.30078-0.8-0.16667-1.3988-0.80039-1.7988-1.9004-0.4-1.0667-0.36739-1.9659 0.0996-2.6992 1.0333-1.6667 2.6322-3.3178 4.7988-4.9512 0.5-0.36667 1.0833-0.58177 1.75-0.64844zm-19.938 1.2109c0.1583-0.0417 0.33906-0.0276 0.53906 0.0391 0.3667 0.13333 0.84922 0.39883 1.4492 0.79883 0.6667 0.46667 1.1337 0.76706 1.4004 0.90039 1.3333 0.73333 2.4825 1.1326 3.4492 1.1992 1.3333 0.1 2.1667 0.30156 2.5 0.60156s0.46709 0.99961 0.40039 2.0996c0 0.43333-0.25 0.83255-0.75 1.1992-0.5 0.33333-0.93408 0.43411-1.3008 0.30078-0.6-0.26667-1.3984-0.21628-2.3984 0.15039-0.2 0.0667-0.63408 0.33216-1.3008 0.79883-0.5 0.36667-0.98252 0.53333-1.4492 0.5-0.4667 0.1-0.90078-0.20039-1.3008-0.90039-0.5333-0.8-0.95-1.8-1.25-3-0.1-0.3-0.31709-1.3659-0.65039-3.1992-0.067-0.5 0.017-0.89922 0.25-1.1992 0.1167-0.15 0.25381-0.24739 0.41211-0.28906zm-22.125 1.1133c-0.1284 0.84915-0.093 1.7148 0.25195 2.6113-0.01-0.0227-0.0321-0.0647-0.0391-0.0859-0.2437-0.76714-0.30939-1.6113-0.21289-2.5254zm62.088 0.131c-0.022 0.29527-0.058 0.59314-0.125 0.89453-0.077 0.34807-0.21022 0.75195-0.38672 1.1973 0.2718-0.62672 0.41952-1.3394 0.51172-2.0918zm-27.924 4.5448 0.0996 0.14844c-0.033 0.26667-6.9e-4 0.56706 0.0996 0.90039 0.1667 0.36667 0.26748 0.64961 0.30078 0.84961 0.3667 1.2 0.99844 1.9345 1.8984 2.2012 0.8667 0.26667 1.7833-7.8e-4 2.75-0.80078 0.1333-0.13333 0.36787-0.35039 0.70117-0.65039 0.2667-0.23333 0.46631-0.26637 0.59961-0.0996 0.8333 0.93333 1.0175 1.9333 0.55078 3-0.4667 1.1333-1.5345 1.7341-3.2012 1.8008-1.3333 0.0667-2.5504 0.4155-3.6504 1.0488-0.6 0.36667-1.4159 0.55078-2.4492 0.55078-1.0667 0-1.8825-0.19961-2.4492-0.59961-0.7667-0.6-1.6679-1.0012-2.7012-1.2012-1.4333 0.0667-2.4488-0.1-3.0488-0.5-1.4333-1-1.8675-2.4167-1.3008-4.25 0.9 0.83333 1.65 1.2849 2.25 1.3516 0.5 0.0333 1.1841-0.23411 2.0508-0.80078 1.0667-0.63333 1.9988-0.90078 2.7988-0.80078 1.4667 0.23333 2.5675-0.3655 3.3008-1.7988 0.033-0.13333 0.21553-0.21667 0.54883-0.25 0.2-0.0333 0.48486-0.0663 0.85156-0.0996zm-19.164 4.3125c0.1583 0.0417 0.31289 0.1875 0.46289 0.4375 0.2667 0.36667 0.65039 0.89961 1.1504 1.5996 1.4333 1.3667 3.0826 1.4171 4.9492 0.15039 0.3333-0.23333 0.61826-0.16745 0.85156 0.19922 0.3333 0.56667 0.93213 0.93294 1.7988 1.0996 0.4667 0.1 1.1508 0.18333 2.0508 0.25 0.8 0.1 1.4337 0.31706 1.9004 0.65039 1.3 0.9 2.4317 1.3341 3.3984 1.3008 0.2-0.0667 0.30078-7.8e-4 0.30078 0.19922 0.033 0.96667 0.033 1.6837 0 2.1504-0.033 0.8-0.21748 1.4822-0.55078 2.0488-0.5667 1.1-1.4484 1.8171-2.6484 2.1504-1 0.3-2.0349 0.26697-3.1016-0.0996-1.5-0.5-2.2829-0.76745-2.3496-0.80078-0.9333-0.26667-1.7821-0.35-2.5488-0.25-1.4 0.13333-2.65-0.59922-3.75-2.1992-0.6333-1.0333-1.3679-1.7174-2.2012-2.0508-0.7333-0.33333-1.2004-0.69961-1.4004-1.0996-0.5667-1.0667-0.71592-2.0822-0.44922-3.0488 0.2333-0.76666 0.78369-1.6 1.6504-2.5 0.1667-0.16667 0.32803-0.22917 0.48633-0.1875zm31.738 0.83587c0.067-0.0167 0.14131 6e-4 0.22461 0.0508 1.2 0.6 1.9829 1.0826 2.3496 1.4492 1.2667 1.2 1.9508 2.1671 2.0508 2.9004 0.1667 0.86667-0.35078 1.8512-1.5508 2.9512-0.3333 0.3-0.94961 0.71667-1.8496 1.25-0.8333 0.5-1.4321 0.93216-1.7988 1.2988-1.5333 1.7-3.3008 2.1845-5.3008 1.4512-0.9667-0.4-1.6992-0.68489-2.1992-0.85156-0.8667-0.26667-1.6516-0.35-2.3516-0.25-0.1333-0.0333-0.3833-0.0488-0.75-0.0488-0.3 0-0.53252-0.0504-0.69922-0.15039-0.7667-0.5-1.3171-1.1996-1.6504-2.0996-0.3333-0.93333-0.38369-1.85-0.15039-2.75l0.10156-0.55078c0.4333-0.0667 1.0825-0.31667 1.9492-0.75 0.8333-0.4 1.5-0.61706 2-0.65039 1.6667-0.13333 2.8159-0.41628 3.4492-0.84961 0.5-0.33333 0.78486-0.5155 0.85156-0.54883 0.3667-0.16667 0.74844-0.16667 1.1484 0 1.5 0.53333 2.7675 0.0992 3.8008-1.3008 0.067-0.0667 0.13252-0.20039 0.19922-0.40039 0.05-0.0833 0.10908-0.13372 0.17578-0.15039zm-43.486 0.16797c0.7138 1.1565 1.6224 1.9741 2.7812 2.3594-0.5921-0.18038-1.1354-0.46402-1.6191-0.87695-0.4602-0.41653-0.84451-0.91422-1.1621-1.4824zm6.6621 2.0821 0.11133 0.0215c-0.4288 0.15284-0.87963 0.28271-1.3613 0.37891l-1.2012 0.0996c-0.4805-3e-3 -0.92636-0.0818-1.3516-0.20313 1.1549 0.35032 2.4204 0.2626 3.8027-0.29687zm47.773 0.53516c-0.1704 0.26135-0.36032 0.50126-0.57422 0.71484-0.1698 0.14755-0.36068 0.26826-0.55078 0.38867-0.053-0.0196-0.095 0.0358-0.14844 0.0117 0.4246-0.10616 0.84894-0.58634 1.2734-1.1152zm-40.002 7.5058c0.054 0.0532 0.11854 0.10722 0.27734 0.16016 0.036 0.0143 0.016 0.0471 0.043 0.0644-0.065-0.015-0.13006-0.0208-0.19336-0.0644-0.056-0.04-0.088-0.10317-0.12695-0.16016zm1.7285 0.70899c0.064 0.0106 0.21534 0.0714 0.30274 0.0957-0.1092-0.018-0.21567-0.0454-0.32227-0.0723 0.011 4.3e-4 0.01-0.0243 0.0195-0.0234zm58.049 0.22656c-0.067-0.0333-0.18291 8e-3 -0.34961 0.125-0.7333 0.63333-1.2837 1.0984-1.6504 1.3984-0.6667 0.56666-1.25 1.0008-1.75 1.3008-1.1333 0.7-3.2671 1.8841-6.4004 3.5508-3.6 2-6.35 4.1163-8.25 6.3496-1.4333 1.7333-2.2996 3.4504-2.5996 5.1504 0 0.13333-0.083 0.18177-0.25 0.14844-1.3333-0.2-2.2171 0.10039-2.6504 0.90039-0.2333 0.36667-0.71592 0.6845-1.4492 0.95117-0.7 0.23333-1.1341 0.58216-1.3008 1.0488l-0.54883-0.15039c-1.3-0.26667-2.6508-0.21628-4.0508 0.15039-1.0333 0.26667-2.2988 0.76667-3.7988 1.5-0.8 0.43333-1.9183 1.1-3.3516 2-1.5 0.96667-2.6163 1.6508-3.3496 2.0508-1.2667 0.66667-2.7163 1.25-4.3496 1.75-0.3667 0.0667-0.58369 0.20039-0.65039 0.40039-0.033 0.13333 0.017 0.19922 0.15039 0.19922h0.34961c0.8667 0.0667 1.7833-0.1 2.75-0.5 0.5-0.2 1.3333-0.63412 2.5-1.3008l7-4c2.2333-1.2667 4.433-1.7822 6.5996-1.5488 0.5333 0.0333 0.75039 0.26589 0.65039 0.69922-0.067 0.43333-0.016 0.68333 0.15039 0.75-0.1667 0.1-0.38369 0.13303-0.65039 0.0996l-0.69922-0.0996c-3.1667 0.33333-5.8663 1.1337-8.0996 2.4004-1.1333 0.63333-2.1683 1.4337-3.1016 2.4004-1.6333 1.6333-1.2651 3.2167 1.1016 4.75 1.2 0.83333 2.6651 1.2171 4.3984 1.1504 0.2333 0 0.43486 0.16667 0.60156 0.5 0.9 1.5333 2.4659 2.5159 4.6992 2.9492 1.6 0.3 2.8675 0.16628 3.8008-0.40039 0.1-0.1 0.14844-0.1 0.14844 0v0.25c0 1.3 0.40117 2.1837 1.2012 2.6504 0.9 0.56667 2.0667 0.43294 3.5-0.40039 0.2-0.13333 0.38213-0.0655 0.54883 0.20117 0.5 0.83333 1.0349 1.1667 1.6016 1 1.2333-0.26667 2.0163-0.70078 2.3496-1.3008 0.2-0.3 0.43252-0.44922 0.69922-0.44922 0.067 0 0.3167 0.0659 0.75 0.19922 0.8667 0.16667 1.6671-0.25 2.4004-1.25 0.7-1.0333 0.88408-1.9829 0.55078-2.8496-0.033-0.0667-0.15156-0.51628-0.35156-1.3496-0.1333-0.53333-0.34844-0.9345-0.64844-1.2012-0.1333-0.1-0.085-0.15039 0.14844-0.15039 1.3333-0.53333 1.7171-1.3318 1.1504-2.3984l0.0996 0.0488c0.8333 0.3 2.0834 0.48411 3.75 0.55078 2.1333 0.1 4.0675-0.23333 5.8008-1 0.7667-0.33333 1.2667-0.81784 1.5-1.4512 0.2-0.66667 0.033-1.2984-0.5-1.8984-0.1-0.1-0.11708-0.18333-0.0508-0.25 0.6333-0.56666 0.68369-1.3671 0.15039-2.4004-0.2333-0.5-0.16553-0.90117 0.20117-1.2012 0.4333-0.5 0.54961-0.94961 0.34961-1.3496-0.6-1-1.2841-1.5-2.0508-1.5h-0.75c1.2-0.73333 2.1012-1.8671 2.7012-3.4004 0.5333-1.2667 0.48291-2.4992-0.15039-3.6992-0.1667-0.3-0.1667-0.63333 0-1 0.2333-0.43333 0.34961-0.70078 0.34961-0.80078 0.1-1 0.1-1.75 0-2.25-0.1333-0.73333-0.51709-1.3167-1.1504-1.75-0.7333-0.46667-1.8167-0.5655-3.25-0.29883-1 0.16667-2.1996 0.75-3.5996 1.75l-4.3496 2.8496c-2.1667 1.6333-3.9012 3.1663-5.2012 4.5996-0.9667 1.0667-1.9821 2.5337-3.0488 4.4004-0.3333-1.2-0.19961-2.3492 0.40039-3.4492 0.9-1.7 2.0821-3.1845 3.5488-4.4512 1.2667-1.1333 2.8675-2.2826 4.8008-3.4492 1.1333-0.66667 2.8504-1.6337 5.1504-2.9004 0.4667-0.26667 1.1817-0.65039 2.1484-1.1504 0.8-0.43333 1.4337-0.90039 1.9004-1.4004 0.2333-0.23333 0.59961-0.58216 1.0996-1.0488 0.4-0.43333 0.63447-0.90039 0.70117-1.4004 0.033-0.18333 0.0162-0.29089-0.0508-0.32422zm-54.924 0.0234c0.1667 0.0167 0.375 0.0671 0.625 0.15039 0.054 0.0153 0.062 0.0844 0.11524 0.10156-0.2689-0.0841-0.56323-0.18999-0.79883-0.24414 0.024 9.5e-4 0.0326-0.0102 0.0586-8e-3zm6.416 1.0039c-0.5046 0.15348-1.0462 0.24554-1.6426 0.2461-0.2513-1e-3 -0.50441-0.0339-0.75781-0.0664 0.8972 0.11076 1.7139 0.0779 2.4004-0.17969zm46.299 6.0507c0.7313-0.0188 1.2852 0.19648 1.6602 0.64648 0.2667 0.33333 0.39844 0.7655 0.39844 1.2988 0 0.13333-0.066 0.61784-0.19922 1.4512 0 0.0333-0.13369 0.31628-0.40039 0.84961-0.2 0.36667-0.2 0.71745 0 1.0508 0.5333 0.83333 0.66709 1.8159 0.40039 2.9492-0.2333 1.1667-0.76631 2-1.5996 2.5-0.8 0.43333-1.2341 0.68333-1.3008 0.75-0.4 0.33333-0.58213 0.80039-0.54883 1.4004 0.033 1.1333-0.35039 2.2826-1.1504 3.4492-0.8 1.1-1.9008 1.8674-3.3008 2.3008-0.9 0.3-2.2004 0.51706-3.9004 0.65039l-0.69922 0.0489c0.3667-0.5 0.50039-1.1163 0.40039-1.8496-0.1333-0.73333-0.4667-1.2333-1-1.5-0.3-0.13333-0.51709-0.48412-0.65039-1.0508-0.1-0.53333-0.31709-0.84922-0.65039-0.94922 0.3-0.5 0.3-1.0329 0-1.5996-0.5333-0.9-0.79883-1.3671-0.79883-1.4004l-0.0508-0.44922c0.033-0.0667-0.017-0.16745-0.15039-0.30078-0.1-0.16667-0.21631-0.26745-0.34961-0.30078-0.3-0.0667-0.33261-0.21589-0.0996-0.44922 0.7667-0.83333 1.2667-1.3508 1.5-1.5508 2.3-2.1 4.1159-3.5826 5.4492-4.4492 0.6667-0.43333 1.6512-1.1 2.9512-2 1.1667-0.73333 2.2655-1.2004 3.2988-1.4004 0.2833-0.0583 0.54742-0.0894 0.79101-0.0957zm-1.9902 3.4962c-0.6667 0-1.3004 0.26745-1.9004 0.80078-0.6 0.56667-0.88291 1.1326-0.84961 1.6992 0.033 0.53333 0.26592 0.96745 0.69922 1.3008 0.2333 0.13333 0.68291 0.3155 1.3496 0.54883 0.4333 0.13333 0.95078-0.13216 1.5508-0.79883 0.6-0.66666 0.88291-1.2674 0.84961-1.8008 0-1.2333-0.56592-1.8167-1.6992-1.75zm-0.20117 0.80079c0.1333 0.0667 0.35039 0.15 0.65039 0.25 0.2667 0.1 0.36748 0.26667 0.30078 0.5-0.1333 0.63333-0.23408 1.0326-0.30078 1.1992-0.2333 0.43333-0.59961 0.66589-1.0996 0.69922-0.3 0.0333-0.56748-0.0655-0.80078-0.29883-0.2667-0.2-0.38291-0.45-0.34961-0.75 0-0.76667 0.53291-1.2996 1.5996-1.5996zm-70.699 5.6992c-0.2333 0.3-0.16748 0.66628 0.19922 1.0996 1.3333 1.6667 3.1512 3.0329 5.4512 4.0996 1.0667 0.53333 2.2992 1.2349 3.6992 2.1016 0.8333 0.46667 2.0504 1.2167 3.6504 2.25 2.2333 1.4 4.1171 3.2159 5.6504 5.4492 0.4333 0.63333 0.91592 1.7167 1.4492 3.25 0.033 0.1-0.033 0.29961-0.19922 0.59961-0.1333 0.3-0.15038 0.61784-0.0508 0.95117-1.7667-2.9-3.6329-5.2004-5.5996-6.9004-2.3333-2-4.4826-3.6163-6.4492-4.8496-1.1667-0.73333-1.9671-1.2178-2.4004-1.4512-0.9667-0.46667-1.8833-0.76706-2.75-0.90039-1.1667-0.16667-2.1008 0.11823-2.8008 0.85156s-0.96553 1.6984-0.79883 2.8984c0.2 1.7 0.2 2.9674 0 3.8008-0.5333 2.1 0.39883 4.0496 2.7988 5.8496-1.1333-0.0667-1.9667 0.31706-2.5 1.1504-0.4 0.63333-0.33213 1.2167 0.20117 1.75 0.2667 0.26667 0.36553 0.56706 0.29883 0.90039-0.1667 0.33333-0.28291 0.58333-0.34961 0.75-0.2667 0.66667-0.1833 1.2655 0.25 1.7988 0.1 0.16667 0.11708 0.28489 0.0508 0.35156-0.5333 0.6-0.68447 1.2163-0.45117 1.8496 0.2 0.63333 0.68447 1.1333 1.4512 1.5 1.0333 0.5 2.2329 0.81589 3.5996 0.94922 0.8 0.0667 2.0325 0.0667 3.6992 0 0.2 0 0.96748-0.16667 2.3008-0.5-0.5 1.1-0.083 1.8829 1.25 2.3496l0.15039 0.0508c0 0.0333-0.05 0.11667-0.15039 0.25-0.7667 0.96667-1.0496 2.1333-0.84961 3.5 0.1667 1.3333 0.76553 2.3004 1.7988 2.9004 0.1667 0.13333 0.4167 0.19922 0.75 0.19922 0.3 0 0.53447-0.0659 0.70117-0.19922 0.2667-0.16667 0.48174-0.1997 0.64844-0.0996 0.067 0.0333 0.18486 0.16511 0.35156 0.39844 0.5667 0.8 1.2488 1.2167 2.0488 1.25 0.7667 0.0333 1.4663-0.3155 2.0996-1.0488 0.2-0.2 0.45-0.21727 0.75-0.0508 0.1667 0.1 0.40117 0.26667 0.70117 0.5 1 0.4 1.8837 0.34961 2.6504-0.15039 0.7667-0.53333 1.1155-1.3318 1.0488-2.3984l0.0508-0.5 0.34959 0.19921c0.9667 0.43333 1.9996 0.56706 3.0996 0.40039 0.7333-0.13333 1.7179-0.45117 2.9512-0.95117 0.9667-0.43333 1.6992-1.1659 2.1992-2.1992 0.1-0.23333 0.2667-0.38255 0.5-0.44922h0.59961c1.7333 0 3.4-0.63372 5-1.9004 0.7-0.6 1.0004-1.3345 0.90039-2.2012-0.1333-0.86667-0.61592-1.6496-1.4492-2.3496-1.7-1.4667-3.4171-2.4996-5.1504-3.0996-1.2-0.4-2.8337-0.75078-4.9004-1.0508-0.7-0.13333-1.2504-0.1491-1.6504-0.0488-0.2333 0.0333-0.33213 3e-4 -0.29883-0.0996 0.033-0.0667 0.082-0.18489 0.14844-0.35156 0.067-0.26667 0.10156-0.63294 0.10156-1.0996 1.6666 0 2.7325 0.0329 3.1992 0.0996 1.1333 0.13333 2.3504 0.55 3.6504 1.25 0.7667 0.36667 1.8829 1.0004 3.3496 1.9004 0.4667 0.26667 1.3 0.76667 2.5 1.5 1.0667 0.66667 1.9175 1.1667 2.5508 1.5 0.9333 0.46667 1.6 0.76706 2 0.90039 0.7333 0.26667 1.4329 0.35 2.0996 0.25h0.34961c0.1 0.0333 0.16592-0.0171 0.19922-0.15039 0.033-0.23333-0.14883-0.38255-0.54883-0.44922-1.2667-0.3-2.6175-0.83294-4.0508-1.5996-0.4667-0.26667-1.7167-1.0012-3.75-2.2012-1.8-1.1333-3.0325-1.8833-3.6992-2.25-1.4667-0.73333-2.8504-1.2004-4.1504-1.4004-1.4-0.23333-2.6675-0.18294-3.8008 0.15039-0.2333 0.0333-0.5667-0.24961-1-0.84961-0.1667-0.23333-0.3333-0.33411-0.5-0.30078-0.4333 0.1-0.79961-0.0667-1.0996-0.5-0.4-0.5-0.66553-0.7655-0.79883-0.79883-0.3333-0.16667-0.5833-0.28294-0.75-0.34961-0.3-0.1-0.55-0.13489-0.75-0.10156-0.6 0.13333-0.95078-0.11667-1.0508-0.75-0.1667-1-0.5833-2-1.25-3-0.4333-0.66667-1.1329-1.5-2.0996-2.5-1.5667-1.7-3.65-3.2833-6.25-4.75l-7.7012-4.2988c-0.4-0.23333-0.86514-0.58411-1.3984-1.0508-0.5333-0.56667-0.95-0.96589-1.25-1.1992-0.1-0.1-0.2667-0.20078-0.5-0.30078-0.2-0.1-0.30078-0.13303-0.30078-0.0996zm68.801 0.30078c-0.5 0-1.0175 0.25-1.5508 0.75-0.5 0.46667-0.73252 0.91628-0.69922 1.3496 0.067 0.96667 0.51631 1.5171 1.3496 1.6504 0.5 0.0333 1.0659-0.21667 1.6992-0.75 0.6667-0.56666 0.96709-1.0667 0.90039-1.5-0.1667-1.1-0.73252-1.6-1.6992-1.5zm-10.551 0.29883c0.3 0.16667 0.48408 0.31784 0.55078 0.45117 0 0.13333-0.035 0.24961-0.10156 0.34961-0.4333 0.83333-0.74922 1.3488-0.94922 1.5488-0.4667 0.4-1.1004 0.43489-1.9004 0.10156 0.4333-0.16667 0.79961-0.46706 1.0996-0.90039 0.2-0.23333 0.45-0.61706 0.75-1.1504 0.2-0.36667 0.38408-0.50039 0.55078-0.40039zm10.551 0.5c0.6333 0.13333 0.89883 0.38333 0.79883 0.75-0.2 0.9-0.6167 1.3496-1.25 1.3496-0.6 0-0.86553-0.18216-0.79883-0.54883 0.1-0.8 0.5167-1.3174 1.25-1.5508zm-15.9 0.65039c0.8-0.0667 1.2825 0.0826 1.4492 0.44922 0.1 0.0667-0.049 0.30117-0.44922 0.70117l-0.70117 0.34961c-0.7667 0.33333-1.35 0.18411-1.75-0.44922-0.1333-0.2-0.11622-0.36667 0.0508-0.5 0.067-0.0667 0.21592-0.15 0.44922-0.25 0.2333-0.16667 0.55117-0.26745 0.95117-0.30078zm6.4121 0.8379c0.058-8e-3 0.1208 0.0125 0.1875 0.0625 0.2667 0.16667 0.2667 0.46706 0 0.90039-0.4667 0.96667-0.99961 1.6333-1.5996 2-0.3-0.0333-0.48408-0.23489-0.55078-0.60156-0.1333-0.53333 0.018-0.93255 0.45117-1.1992 0.2333-0.16667 0.59961-0.38372 1.0996-0.65039 0.067-0.0667 0.15-0.20039 0.25-0.40039 0.05-0.0667 0.10381-0.103 0.16211-0.11133zm13.859 0.29102c0.51859-0.0438 1.0273 0.14531 1.5273 0.57031 0.4 0.36667 0.38447 0.76784-0.0488 1.2012-1.1 1.1-2.1329 1.6833-3.0996 1.75 0.033-0.2 0.2-0.60117 0.5-1.2012 0.2667-0.5 0.38291-0.91667 0.34961-1.25-0.067-0.6 0.017-0.91589 0.25-0.94922 0.175-0.0667 0.34859-0.10651 0.52149-0.12109zm-22.672 0.62108c0.1333-0.0333 0.28252-3e-4 0.44922 0.0996 0.1333 0.1 0.16826 0.20078 0.10156 0.30078-0.1667 0.8-0.65117 1.2826-1.4512 1.4492-0.2 0.0333-0.3667-0.0171-0.5-0.15039-0.1333-0.13333-0.18369-0.26511-0.15039-0.39844 0.1667-0.83333 0.68408-1.2674 1.5508-1.3008zm4.2617 0.1875c0.275 0.0417 0.52158 0.14583 0.73828 0.3125 0.4333 0.33333 0.63291 0.86628 0.59961 1.5996l-0.0996 0.25c-0.4667 0.93333-1.4163 1.5012-2.8496 1.7012-1.4333 0.16667-2.5167-0.15117-3.25-0.95117-0.2333-0.23333-0.21777-0.4155 0.0488-0.54883 0.1667-0.1 0.43408-0.25117 0.80078-0.45117 0.2667-0.16667 0.46631-0.34883 0.59961-0.54883l0.75-1.1016c0.2333 0.2 0.53369 0.23489 0.90039 0.10156 0.2-0.0333 0.48291-0.13411 0.84961-0.30078 0.3333-0.0833 0.63711-0.10417 0.91211-0.0625zm5.1875 1.0625c0.1333-0.0667 0.23408 0.11745 0.30078 0.55078-0.033 0.8-0.41709 1.3155-1.1504 1.5488-0.1 0.0333-0.29961-0.05-0.59961-0.25-0.2667-0.16667-0.36748-0.28294-0.30078-0.34961 0.4-0.53333 0.9833-1.0333 1.75-1.5zm14.375 1.3496c0.05 0 0.092 0.0329 0.125 0.0996 0.1667 0.46666 0.26748 0.73411 0.30078 0.80078 0.067 0.3 7.8e-4 0.56745-0.19922 0.80078-0.7333 0.9-1.7683 1.4659-3.1016 1.6992-1.0667 0.2-2.2159 0.16697-3.4492-0.0996l0.5-0.15039c1.4667-1.0667 2.3659-1.6829 2.6992-1.8496l2.5508-0.90039c0.033 0 0.16709-0.10078 0.40039-0.30078 0.067-0.0667 0.12383-0.0996 0.17383-0.0996zm-17.273 0.0508 0.25 0.29883c0.5 0.86666 0.29844 1.6012-0.60156 2.2012-0.4333 0.3-1.0321 0.43372-1.7988 0.40039-0.8 0-1.3175-0.15117-1.5508-0.45117 0.9333-0.1 1.7008-0.35 2.3008-0.75 0.4333-0.3 0.85-0.76706 1.25-1.4004zm-8.5195 0.25977c0.3124 0.0187 0.56953 0.21484 0.76953 0.58984l-2.6504 1.4004c-0.2333 0.13333-0.46787 0.1491-0.70117 0.0488-0.2333-0.2-0.41553-0.33177-0.54883-0.39844-0.1333-0.0667-0.15038-0.28372-0.0508-0.65039 0.033-0.2 0.13408-0.30078 0.30078-0.30078 0.067 0 0.20039 0.0174 0.40039 0.0508 0.6-0.2 0.9333-0.30078 1-0.30078 0.2667 0 0.64844-0.13372 1.1484-0.40039 0.1167-0.0333 0.22783-0.0453 0.33203-0.0391zm12.207 0.10156c0.1083-0.025 0.2125 0.022 0.3125 0.13867 0.1667 0.16667 0.19931 0.39922 0.0996 0.69922-0.1333 0.3-0.35039 0.49961-0.65039 0.59961-0.033 0-0.2833-0.23255-0.75-0.69922 0.2 0.0667 0.41709-0.0826 0.65039-0.44922 0.1167-0.16667 0.22959-0.26406 0.33789-0.28906zm-57.812 0.46287c0.3667 0.05 0.72422 0.1595 1.0742 0.32617 0.9333 0.46667 2.7163 1.583 5.3496 3.3496 2.2 1.5 4.4345 3.3992 6.7012 5.6992l0.25 0.5c-0.5 0.13333-0.8333 0.55-1 1.25-0.1667 0.83333-0.40117 1.3508-0.70117 1.5508-0.2 0.13333-0.33369 0.46667-0.40039 1 0 0.6-0.0326 1.0167-0.0996 1.25-0.1667 0.73333-0.56592 1.3671-1.1992 1.9004-0.5667 0.46667-0.8167 0.93177-0.75 1.3984 0.067 0.36667 0.36709 0.85117 0.90039 1.4512l-0.80079-0.34961c-0.4333-0.16667-1.0825-0.25-1.9492-0.25-0.9 0-1.5667-0.10078-2-0.30078-2.5667-1.0667-4.0512-2.7837-4.4512-5.1504-0.033-0.26667-0.0656-0.68333-0.0996-1.25-0.067-0.46667-0.25078-0.78255-0.55078-0.94922-1.1667-0.7-1.8817-1.1845-2.1484-1.4512-0.4-0.43333-0.68486-1.1833-0.85156-2.25-0.1333-1.0667-0.033-1.8167 0.30078-2.25 0.4-0.46667 0.41708-0.94922 0.0508-1.4492-0.6-0.86667-0.70078-1.8163-0.30078-2.8496 0.2333-0.6 0.75078-0.98372 1.5508-1.1504 0.3833-0.0667 0.7583-0.0754 1.125-0.0254zm41.574 0.375 0.19922 0.0996c-0.1333 0.46666-0.066 0.90078 0.20117 1.3008 0.2667 0.36667 0.56709 0.53333 0.90039 0.5 0.3333-0.0333 0.68213 0.13333 1.0488 0.5 0.3667 0.33333 0.7 0.46706 1 0.40039 0.5-0.16667 0.80039-0.16667 0.90039 0 0.1667 0.63333 0.48252 0.93372 0.94922 0.90039 0.2667-0.0333 0.66787-0.13411 1.2012-0.30078 0 0.76667 0.39922 1.0826 1.1992 0.94922 0.2-0.0667 0.35117-0.0492 0.45117 0.0508 0.4667 0.6 1.1488 0.74922 2.0488 0.44922 0.1667-0.0333 0.28291 0.0171 0.34961 0.15039 0.1333 0.4 0.45117 0.68294 0.95117 0.84961 0.5333 0.16667 1.0004 0.1509 1.4004-0.0488 0.1333-0.0667 0.34844-0.18294 0.64844-0.34961 0.3-0.13333 0.55-0.1003 0.75 0.0996 0.1667 0.13333 0.40117 0.33294 0.70117 0.59961 0.2667 0.26667 0.38291 0.6 0.34961 1-0.033 0.63333-0.23291 1.2167-0.59961 1.75-0.2 0.33333-0.60117 0.78294-1.2012 1.3496-0.6667 0.63333-1.6318 1.05-2.8984 1.25-1.2333 0.2-2.2508 0.10117-3.0508-0.29883-0.3333-0.23333-0.5833-0.4-0.75-0.5-0.3-0.16667-0.55-0.16667-0.75 0-1.0333 0.9-2.3996 1.1326-4.0996 0.69922-1.8-0.5-2.9163-1.3508-3.3496-2.5508-0.1333-0.33333-0.31748-0.59883-0.55078-0.79883s-0.46592-0.26784-0.69922-0.20117c-0.8333 0.3-1.9341 0.20117-3.3008-0.29883-0.7667-0.33333-1.2996-0.61628-1.5996-0.84961-0.5-0.4-0.73447-0.91745-0.70117-1.5508 0.033-0.43333 0.25039-0.85 0.65039-1.25 0.2667-0.23333 0.66787-0.56667 1.2012-1 0.8-0.7 1.8329-1.3008 3.0996-1.8008 0.7333-0.26667 1.8496-0.63294 3.3496-1.0996zm5.125 0.13867c0.1-8e-3 0.225 0.0125 0.375 0.0625 0.1667 0.0667 0.39922 0.23333 0.69922 0.5l-1 0.79883c-0.6333 0.33333-1.0325 0.51745-1.1992 0.55078-0.5 0.13333-0.96709 0.0829-1.4004-0.15039 0.2667-0.2 0.6833-0.45 1.25-0.75 0.4667-0.26667 0.81748-0.56706 1.0508-0.90039 0.05-0.0667 0.12461-0.103 0.22461-0.11133zm12.074 0.0117c0.3 0.3 0.41826 0.58294 0.35156 0.84961-0.033 0.1-0.2 0.29961-0.5 0.59961 0 0.16667-0.068 0.18393-0.20117 0.0508-0.4-0.33333-0.43261-0.61628-0.0996-0.84961 0.3667-0.26667 0.51592-0.48372 0.44922-0.65039zm-3 0.0508c0.3667 0.26667 0.60117 0.46628 0.70117 0.59961 0.1667 0.26667 0.1667 0.58255 0 0.94922-0.4 0.73333-0.96787 1.2004-1.7012 1.4004s-1.4833 0.0992-2.25-0.30078l-0.34961-0.0488h-0.34961v0.19922c0.3667 0.3 0.43252 0.56745 0.19922 0.80078-0.3333 0.2-0.54844 0.34922-0.64844 0.44922-0.1667 0.16667-0.38369 0.2345-0.65039 0.20117-0.3-0.0333-0.51709-0.15156-0.65039-0.35156-0.1-0.16667-0.0674-0.2655 0.0996-0.29883 0.2333-0.0667 0.36709-0.1345 0.40039-0.20117l0.34961-0.29883c0.1333-0.13333 0.11777-0.2845-0.0488-0.45117-0.067-0.0667-0.15-0.0996-0.25-0.0996-0.067 0-0.2333 0.13372-0.5 0.40039-0.8333 0.63333-1.5349 0.71667-2.1016 0.25 0.2-0.16667 0.50039-0.38372 0.90039-0.65039 0.3333-0.26667 0.56787-0.56706 0.70117-0.90039 0.033-0.16667 0.18252-0.11628 0.44922 0.15039 0.1667 0.16667 0.39922 0.30039 0.69922 0.40039 0.4667 0.16667 0.93369 0.23255 1.4004 0.19922 0.7667 0 1.4663-0.14922 2.0996-0.44922 0.6667-0.33333 1.0504-0.78294 1.1504-1.3496 0.033-0.13333 0.14961-0.33294 0.34961-0.59961zm-7.375 0.58594c0.067-8e-3 0.14326 0.0125 0.22656 0.0625 0.2 0.16667 0.34922 0.21706 0.44922 0.15039 0.033-0.0333 0.14961 0.05 0.34961 0.25-0.5667 0.56667-0.99883 0.96784-1.2988 1.2012-0.6667 0.4-1.2171 0.56667-1.6504 0.5-0.067-0.0333-0.13447-0.16706-0.20117-0.40039l0.15039-0.15039c0.6333-0.2 1.2341-0.7 1.8008-1.5 0.05-0.0667 0.10713-0.10495 0.17383-0.11328zm23.426 0.9375c0.083 0 0.13369 0.0417 0.15039 0.125 0.033 0.0667 0.033 0.31667 0 0.75 0 0.16667-0.0326 0.30039-0.0996 0.40039-0.7 0.9-1.8337 1.5008-3.4004 1.8008-2.1667 0.4-4.3663 0.36697-6.5996-0.0996l-0.75-0.15039c-0.3333-0.1-0.5833-0.31706-0.75-0.65039-0.067-0.23333-0.16748-0.54922-0.30078-0.94922-0.033-0.13333-0.033-0.20117 0-0.20117 0.067 0 0.2333 0.0678 0.5 0.20117 0.5333-0.16667 1.1671-0.2345 1.9004-0.20117 0.3333 0.0333 0.94961 0.11667 1.8496 0.25 2.7 0.43333 4.8841 0.18333 6.5508-0.75l0.59961-0.40039c0.15-0.0833 0.26631-0.125 0.34961-0.125zm-14.301 0.35156c0.083 0 0.1667 0.0572 0.25 0.17383 0.5333 0.66667 0.40156 1.3508-0.39844 2.0508-0.3333 0.3-0.81787 0.41628-1.4512 0.34961-0.6-0.0333-1.0321-0.23294-1.2988-0.59961 1.3666-0.3 2.2484-0.90078 2.6484-1.8008 0.083-0.11667 0.1667-0.17383 0.25-0.17383zm-16.148 0.77338c-0.6-0.0667-1.1833 0.18333-1.75 0.75-0.5667 0.53333-0.85156 1.1341-0.85156 1.8008 0 0.96667 0.56787 1.4841 1.7012 1.5508 0.6333 0.0333 1.1992-0.23411 1.6992-0.80078 0.5-0.53333 0.75-1.1496 0.75-1.8496-0.033-0.9-0.54883-1.3845-1.5488-1.4512zm17.75 0.15039c0.1667 0.43333 0.28291 0.75117 0.34961 0.95117 0.1667 0.36667 0.13399 0.68255-0.0996 0.94922-0.6 0.73333-1.5516 1.0008-2.8516 0.80078 0.8667-0.36667 1.4675-0.6845 1.8008-0.95117 0.5-0.43333 0.76748-1.0167 0.80078-1.75zm-57.852 0.15045c-1.1-0.0333-1.6833 0.55-1.75 1.75-0.033 0.5 0.25156 1.0659 0.85156 1.6992 0.5667 0.63333 1.0821 0.95117 1.5488 0.95117 0.3667 0.0333 0.81631-0.20117 1.3496-0.70117 0.5-0.46667 0.75-0.88333 0.75-1.25 0-0.56667-0.29844-1.1151-0.89844-1.6484s-1.2183-0.80078-1.8516-0.80078zm39.701 0.59959c0.7 0 1.0333 0.25 1 0.75-0.1333 0.93333-0.56748 1.4178-1.3008 1.4512-0.3 0.0333-0.55-0.0345-0.75-0.20117-0.2333-0.16667-0.33213-0.39922-0.29883-0.69922 0.1-0.83333 0.54961-1.2674 1.3496-1.3008zm11.949 0.0508c0.2 0.0667 0.5333 0.15 1 0.25 0.3333 0.13333 0.5 0.46667 0.5 1-0.033 0.16667-0.2833 0.25-0.75 0.25-0.5667-0.0667-0.9833-0.36706-1.25-0.90039-0.033-0.0333 0.034-0.14961 0.20117-0.34961 0.1333-0.16667 0.23213-0.25 0.29883-0.25zm-51.449 0.15039c1.0333 0.3 1.5488 0.84844 1.5488 1.6484 0 0.26667-0.11631 0.50117-0.34961 0.70117-0.2667 0.23333-0.53213 0.33216-0.79883 0.29883-0.5-0.0333-0.85078-0.26589-1.0508-0.69922-0.1-0.2-0.21631-0.61667-0.34961-1.25-0.067-0.23333 0.032-0.4 0.29883-0.5zm58.9 1.0996c0.067-0.0667 0.18291 0.0322 0.34961 0.29883 0.1333 0.26667 0.2167 0.50117 0.25 0.70117 0.067 0.46667-0.16787 0.69922-0.70117 0.69922-0.1-0.0667-0.29961-0.11706-0.59961-0.15039-0.3-0.0333-0.51709-0.13216-0.65039-0.29883 0.3667-0.23333 0.81826-0.65 1.3516-1.25zm-12.65 0.75c-0.6-0.0667-1.1504 0.16589-1.6504 0.69922-0.5333 0.56667-0.80078 1.1829-0.80078 1.8496 0 0.66666 0.4167 1.0678 1.25 1.2012 0.6 0.1 1.1833-0.15 1.75-0.75 0.5-0.53333 0.75-1.0178 0.75-1.4512 0-0.96667-0.43213-1.4822-1.2988-1.5488zm10.625 0.76172c0.1 0.025 0.19209 0.0875 0.27539 0.1875 0.1 0.1 0.21631 0.26667 0.34961 0.5 0.7667 0.9 1.2667 2.1345 1.5 3.7012 0.067 0.5-0.1 1.0833-0.5 1.75-0.4667 0.73333-0.95117 1.0822-1.4512 1.0488-0.3 0.0333-0.48213-0.0325-0.54883-0.19922-0.1-0.13333-0.0674-0.3 0.0996-0.5 0.4-0.53333 0.46592-1.2678 0.19922-2.2012-0.1-0.4-0.24922-0.96589-0.44922-1.6992-0.1667-0.63333-0.18378-1.2167-0.0508-1.75v-0.44922c0-0.2 0.083-0.31823 0.25-0.35156 0.1167-0.05 0.22617-0.0621 0.32617-0.0371zm-10.775 0.0371c0.2667-0.0333 0.46631 0.0345 0.59961 0.20117 0.1 0.16667 0.13261 0.34883 0.0996 0.54883-0.2 0.83333-0.59922 1.3178-1.1992 1.4512-0.2 0.0667-0.39961 0.0337-0.59961-0.0996-0.2333-0.16667-0.3167-0.46706-0.25-0.90039 0.3667-0.73333 0.81631-1.1345 1.3496-1.2012zm9.6504 3.25v0.45117c0.2667 0.93333 0.21631 1.8326-0.15039 2.6992s-0.98291 1.5004-1.8496 1.9004c-0.7333 0.33333-1.2663 0.26745-1.5996-0.19922-0.3-0.4-0.35039-0.68489-0.15039-0.85156 0.2333-0.23333 0.63252-0.78177 1.1992-1.6484 0.4333-0.7 0.88291-1.1671 1.3496-1.4004 0.3-0.16667 0.70117-0.48451 1.2012-0.95117zm-53.951 0.10156c-0.9333-0.0333-1.4817 0.46667-1.6484 1.5-0.067 0.43333 0.21631 0.91589 0.84961 1.4492 0.6333 0.56667 1.2167 0.83411 1.75 0.80078 0.8333-0.1 1.2829-0.66784 1.3496-1.7012 0.033-0.46667-0.2167-0.91628-0.75-1.3496-0.5-0.46667-1.0175-0.69922-1.5508-0.69922zm78.234 0.0781c-1.1813-0.0188-2.4086 0.42031-3.6836 1.3203-0.4333 0.3-0.83252 0.70117-1.1992 1.2012-0.4 0.6-0.71787 1.0496-0.95117 1.3496-0.1333 0.13333-0.39883 0.26706-0.79883 0.40039-0.5 0.13333-0.81787 0.23216-0.95117 0.29883-1.5 0.76666-2.4167 1.8849-2.75 3.3516-0.067 0.26667-0.24883 0.38294-0.54883 0.34961-0.3667-0.0667-0.6167-0.0996-0.75-0.0996-1.3667 0.0333-2.6671 0.74844-3.9004 2.1484-0.067 0.13333-0.15 0.20117-0.25 0.20117-1.4333-0.46667-2.7996-0.36784-4.0996 0.29883-0.8667 0.43333-1.9016 1.2841-3.1016 2.5508-0.8667 0.9-1.0333 2.0841-0.5 3.5508 0.1 0.26667 0.034 0.39844-0.19922 0.39844-1.5333 0.13333-2.9829 1.0016-4.3496 2.6016-0.2333 0.3-0.53369 0.39883-0.90039 0.29883-0.4-0.16667-0.70039-0.2655-0.90039-0.29883-1.1333-0.26667-2.2321-0.28393-3.2988-0.0508-1.3 0.26667-2.2671 0.85-2.9004 1.75-0.2333 0.33333-0.50078 0.41667-0.80078 0.25-0.3333-0.23333-0.5833-0.36706-0.75-0.40039-1.2333-0.26667-2.5337-0.1-3.9004 0.5-2.0333 0.83333-3.3317 2.0174-3.8984 3.5508-0.8333-1.1-1.9671-1.8171-3.4004-2.1504-1.4333-0.3-3.0012 0.0508-4.7012 1.0508-2.1 1.2667-4.0825 1.7667-5.9492 1.5-2.2333-0.3-3.7992-0.40078-4.6992-0.30078-1.2667 0.13333-2.2667 0.35039-3 0.65039-1.0333 0.46667-1.7833 1.1663-2.25 2.0996-0.5 1-0.23447 1.9826 0.79883 2.9492-1.4667 0.3-2.4492 0.86784-2.9492 1.7012-0.033 0.0667-0.1167 0.0996-0.25 0.0996-0.4667 0-1.5171 0.11628-3.1504 0.34961-0.2333 0.0333-0.54922-0.0829-0.94922-0.34961-0.4333-0.33333-0.7667-0.55039-1-0.65039-2.2333-0.93333-3.9834-0.68333-5.25 0.75-0.2667 0.33333-0.6 0.40117-1 0.20117-0.4333-0.33333-0.7667-0.51745-1-0.55078-1.1333-0.36667-1.9841-0.61667-2.5508-0.75-1-0.23333-1.8837-0.23333-2.6504 0-0.2333 0.0667-0.45039-0.0496-0.65039-0.34961-1.3666-1.8667-2.9829-2.9829-4.8496-3.3496l-0.34959-0.0508c-0.1667-0.0333-0.28291 0.05-0.34961 0.25-0.067 0.2-7.8e-4 0.31628 0.19922 0.34961l0.5 0.15039c1.3333 0.4 2.6841 1.3496 4.0508 2.8496 0.1333 0.13333 0.2167 0.23411 0.25 0.30078 0 0.1-0.083 0.21628-0.25 0.34961-1.3 0.86667-1.9512 1.9829-1.9512 3.3496-0.033 1.3667 0.61787 2.5333 1.9512 3.5 1 0.7 2.0988 1.1012 3.2988 1.2012 0.8667 0.0667 2.0004-0.0341 3.4004-0.30078 0.6667-0.1 1.6008-0.48372 2.8008-1.1504 0.2-0.0667 0.51592 1e-3 0.94922 0.20117 1.3 0.56667 2.4841 0.68294 3.5508 0.34961 0.3333-0.13333 0.61631-0.0675 0.84961 0.19922 0.1333 0.16667 0.31748 0.40117 0.55078 0.70117 1.0667 0.66667 2.2159 1 3.4492 1 1.2667 0 2.4004-0.31784 3.4004-0.95117 0.1333-0.1 0.3-0.29961 0.5-0.59961 0.6-0.73333 1.2163-0.76637 1.8496-0.0996 0.8667 0.9 2.0837 1.2333 3.6504 1 1.1-0.16667 1.9004-0.56784 2.4004-1.2012 0.5667-0.7 0.68291-1.4984 0.34961-2.3984-0.2667-0.83333-0.79961-1.4845-1.5996-1.9512-0.067-0.0667-0.38447-0.1655-0.95117-0.29883-0.4-0.1-0.66553-0.30156-0.79883-0.60156-0.7667-1.6667-2.1834-2.7655-4.25-3.2988-0.4667-0.1-0.90078-0.66784-1.3008-1.7012-0.2-0.53333-0.016-1.0488 0.55078-1.5488 0.9333-0.73333 2.0167-1.1829 3.25-1.3496 0.9-0.13333 2.0821-0.13333 3.5488 0 1.4 0.13333 2.4 0.19922 3 0.19922 1.1333-0.0333 2.1508-0.23294 3.0508-0.59961 0.1-0.0333 0.94883-0.45 2.5488-1.25 1-0.46667 1.9012-0.76706 2.7012-0.90039 1.0333-0.13333 2.0333 0.23294 3 1.0996 1 0.9 1.4321 1.8341 1.2988 2.8008-0.067 0.5-0.46592 1.0329-1.1992 1.5996-0.7333 0.6-1.3671 0.90039-1.9004 0.90039-0.3667 0-0.58369 0.0988-0.65039 0.29883-0.1 0.33333-0.017 0.61823 0.25 0.85156 1.0667 0.86667 1.5512 1.7 1.4512 2.5-0.1333 0.83333-0.81748 1.5329-2.0508 2.0996-2.4333 1.0667-4.8326 1.0163-7.1992-0.15039-1-0.46667-1.5679-1.2341-1.7012-2.3008-0.1333-1.0333 0.23486-1.8822 1.1016-2.5488 1.0667-0.8 2.2818-1.0171 3.6484-0.65039 1.2333 0.3 1.9 1.05 2 2.25 0.067 0.43333-0.083 0.78411-0.44922 1.0508-0.3667 0.26667-0.7833 0.33255-1.25 0.19922l-0.80078-0.19922c-0.1667-0.1-0.29844-0.16784-0.39844-0.20117-0.1667-0.0667-0.30039 1e-3 -0.40039 0.20117-0.1 0.2-0.0674 0.34922 0.0996 0.44922 0.033 0.0333 0.2 0.11667 0.5 0.25 1.6333 0.7 2.7671 0.38411 3.4004-0.94922 0.2333-0.56666 0.18291-1.2004-0.15039-1.9004s-0.85078-1.2329-1.5508-1.5996c-1-0.53333-2.1667-0.63411-3.5-0.30078-1.4333 0.36667-2.3984 1.0837-2.8984 2.1504-0.3667 0.83333-0.31826 1.8159 0.14844 2.9492 0.5 1.1333 1.1841 1.8678 2.0508 2.2012 0.3333 0.1 0.81592 0.28216 1.4492 0.54883 0.5667 0.2 1.0337 0.25039 1.4004 0.15039 0.7667-0.23333 1.4508-0.0667 2.0508 0.5 0.8667 0.86667 1.3492 1.3163 1.4492 1.3496 1.5667 0.83333 2.9 1 4 0.5 0.2667-0.13333 0.54961-0.0655 0.84961 0.20117 0.4 0.33333 0.63447 0.5155 0.70117 0.54883 2.2667 0.76667 4.0496 0.43333 5.3496-1 0.7333-0.83333 1.0492-1.6996 0.94922-2.5996-0.1-0.86667-0.61553-1.5663-1.5488-2.0996-1-0.53333-2.3179-0.61667-3.9512-0.25-0.2 0.0667-0.43252-1e-3 -0.69922-0.20117-0.5667-0.56667-1.0163-0.88255-1.3496-0.94922-0.2333-0.0333-0.34961-0.18255-0.34961-0.44922-0.033-0.33333-0.10117-0.53489-0.20117-0.60156-0.067-0.16667-0.13252-0.2655-0.19922-0.29883-0.3333-0.46667-0.5-0.7845-0.5-0.95117-0.033-0.3 0.24961-0.55 0.84961-0.75 0.2333-0.1 0.50078-0.29961 0.80078-0.59961 0.1667-0.16667 0.4167-0.43216 0.75-0.79883 0.4 1.3 1.4988 2.3833 3.2988 3.25 2.0333 0.96667 3.6012 1.05 4.7012 0.25 0.4333-0.3 0.86553-0.35039 1.2988-0.15039 0.5667 0.26667 0.95039 0.38294 1.1504 0.34961 0.5667-0.16667 1.1171 0 1.6504 0.5 0.7 0.63333 1.1496 0.98411 1.3496 1.0508 1.2667 0.36667 2.5826 0.31628 3.9492-0.15039l0.10156-0.0996c0.033-0.0667 0.082-0.0512 0.14844 0.0488 1.6 2.1333 3.5671 3.4337 5.9004 3.9004 1.3667 0.26667 2.7833 0.15039 4.25-0.34961 0.4-0.13333 0.88447-0.1003 1.4512 0.0996 0.5333 0.2 0.98291 0.46745 1.3496 0.80078 0.9 0.73333 2.0492 1.1984 3.4492 1.3984s2.65 0.0508 3.75-0.44922c1.2667-0.66667 1.9333-1.4167 2-2.25 0.067-0.83333-0.13291-1.4826-0.59961-1.9492-1-1.2-1.8992-1.9674-2.6992-2.3008-0.2333-0.1-0.50078-0.31706-0.80078-0.65039-0.4333-0.46667-0.70078-0.73216-0.80078-0.79883-0.9333-0.73333-2.2667-1.3167-4-1.75-0.7667-0.2-1.6659-0.26784-2.6992-0.20117-1.1667 0.13333-2.0504 0.23411-2.6504 0.30078-0.1667 0-0.26553-0.0678-0.29883-0.20117-0.067-1.1-0.35156-1.9159-0.85156-2.4492-0.4667-0.5-1.2651-0.86628-2.3984-1.0996-1.4333-0.23333-2.5516-0.0337-3.3516 0.59961-0.7 0.56667-0.99844 1.0841-0.89844 1.5508 0.067 0.46667 0.28174 0.84844 0.64844 1.1484 0.3667 0.26667 0.7833 0.43333 1.25 0.5 0.2333 0.0333 0.85156-0.0326 1.8516-0.19922 0.3333-0.0667 0.44961-0.23333 0.34961-0.5-0.1667-0.33333-0.48447-0.39922-0.95117-0.19922-0.3333 0.13333-0.6667 0.13333-1 0l-0.89844-0.45117c-0.3-0.16667-0.33486-0.39922-0.10156-0.69922 0.3667-0.6 0.90156-0.90039 1.6016-0.90039 1.5-0.0667 2.6996 0.38294 3.5996 1.3496 0.4333 0.43333 0.41622 1.0671-0.0508 1.9004-0.4333 0.8-0.94883 1.3174-1.5488 1.5508-0.9 0.26667-1.4679 0.41589-1.7012 0.44922-0.6333 0.1-1.2167 0.0341-1.75-0.19922-0.2333-0.0667-0.49883 0.0496-0.79883 0.34961-0.6333 0.73333-1.4667 1.1655-2.5 1.2988-0.9667 0.13333-1.8349-0.0159-2.6016-0.44922l-0.34961-0.40039 0.40039-0.25c0.6-0.2 1.1175-0.73294 1.5508-1.5996 0.4333-0.76667 0.6-1.3829 0.5-1.8496-0.2333-1.0667-0.61709-1.9-1.1504-2.5-0.6-0.63333-1.2512-0.91628-1.9512-0.84961-0.7 0-1.2329 0.0484-1.5996 0.14844-0.5667 0.1-0.99883 0.40039-1.2988 0.90039-0.1667 0.26667-0.23447 0.5845-0.20117 0.95117l0.25 0.84961c0.1667 0.63333 0.5833 0.99961 1.25 1.0996l0.20117-0.0996-0.20117-0.5c-0.7667-0.7-0.91592-1.3163-0.44922-1.8496 0.5-0.53333 1.2325-0.71745 2.1992-0.55078 1.1 0.2 1.7337 0.81628 1.9004 1.8496 0.1667 1.2333-0.23252 2.2178-1.1992 2.9512-0.4333 0.33333-1.1175 0.43216-2.0508 0.29883-0.9-0.1-1.5337-0.3655-1.9004-0.79883-0.2333-0.26667-0.4-0.41784-0.5-0.45117-0.2-0.0333-0.38213 0.13333-0.54883 0.5-0.2667 0.6-0.6833 0.93333-1.25 1-0.3 0.0333-0.81748-0.0171-1.5508-0.15039-2.0667-0.53333-3.4659-1.5333-4.1992-3-0.5333-1.1-0.50069-2.2996 0.0996-3.5996 0.6-1.3 1.4837-2.1663 2.6504-2.5996 1.6333-0.56667 2.8155-0.83411 3.5488-0.80078 0.4 0.0333 0.86709 0.1845 1.4004 0.45117 0.6 0.33333 1.1329 0.13372 1.5996-0.59961 0.3333-0.53333 0.80039-0.90156 1.4004-1.1016 0.3333-0.13333 0.93408-0.24961 1.8008-0.34961 0.8667-0.13333 1.9984 0.0837 3.3984 0.65039 0.4 0.13333 0.71787-3.9e-4 0.95117-0.40039 1.0333-1.6667 2.3822-2.6163 4.0488-2.8496 0.3667 0 0.63408 0.13372 0.80078 0.40039 0.5 0.6 1.1337 0.94883 1.9004 1.0488 0.2333 0.0333 0.34961 0.16706 0.34961 0.40039 0.033 0.4 0.0508 0.61706 0.0508 0.65039 0.5 1.1 1.2151 1.9992 2.1484 2.6992 1.0333 0.8 2.1012 1.1178 3.2012 0.95117 0.7-0.1 1.3996 0.0163 2.0996 0.34961 0.4333 0.2 1.0341 0.53333 1.8008 1 2 0.86667 4.1667 1.0333 6.5 0.5 2.0666-0.53333 3.9988-1.6671 5.7988-3.4004l0.75-0.75c0.1333-0.13333 0.15233-0.23216 0.0527-0.29883-0.1-0.1-0.2667-0.0845-0.5 0.0488l-0.30078 0.15039c-1.5333 1.2667-2.7659 2.1174-3.6992 2.5508-3.1 1.5-6.1175 1.533-9.0508 0.0996-0.033 0-0.26592-0.16667-0.69922-0.5l0.65039-0.5 1.5488-1.5508c0.1333-0.16667 0.26709-0.21706 0.40039-0.15039l0.34961 0.15039c1.2667 0.0667 2.7512-0.29961 4.4512-1.0996 1.8666-0.93333 2.9829-2.4992 3.3496-4.6992 0.1667-0.9-0.1667-1.7004-1-2.4004-0.6667-0.53333-1.1841-0.89961-1.5508-1.0996-0.6333-0.3-1.2671-0.40078-1.9004-0.30078-0.3 0.0333-0.4667-0.0675-0.5-0.30078-0.033-0.13333-0.0676-0.3155-0.10156-0.54883-0.4-1.0667-1.2159-1.9504-2.4492-2.6504-0.5-0.3-0.65117-0.66628-0.45117-1.0996 0.1-0.26667 0.33447-0.6 0.70117-1 0.7667-1.0667 1.6988-1.6171 2.7988-1.6504 0.4667 0 0.8-0.18411 1-0.55078 0.1333-0.2 0.31748-0.53334 0.55078-1 1.4-1.9667 3.2663-2.8484 5.5996-2.6484l0.10156 0.0488c0.5 0 0.76748-0.11628 0.80078-0.34961 0-0.13333-0.083-0.23411-0.25-0.30078-0.1667-0.0333-0.30039-0.0663-0.40039-0.0996l-0.25-0.0488c-0.3833-0.10833-0.77231-0.16562-1.166-0.17187zm-67.459 0.18361c0.067 8e-3 0.12578 0.0379 0.17578 0.0879l0.19922 0.40039c0.1667 0.23333 0.40117 0.59961 0.70117 1.0996 0.3 0.4 0.6333 0.70039 1 0.90039-0.1333-0.0667-0.3-7.8e-4 -0.5 0.19922s-0.3667 0.25039-0.5 0.15039c-0.8333-0.56667-1.4012-1.1345-1.7012-1.7012-0.2-0.53333-0.066-0.89961 0.40039-1.0996 0.083-0.0333 0.15791-0.0454 0.22461-0.0371zm-10.775 0.5879c0.3667 0.0333 0.66709 0.2 0.90039 0.5 0.1 0.16667 0.23369 0.44961 0.40039 0.84961 0 0.46667-0.25 0.69922-0.75 0.69922-0.6333 0-1.0675-0.43216-1.3008-1.2988-0.033-0.2 0.017-0.38411 0.15039-0.55078 0.1667-0.16667 0.36631-0.23255 0.59961-0.19922zm15.336 0.58993c0.202-0.0104 0.43984-7e-3 0.71484 0.01 0.5 0 0.89922 0.16667 1.1992 0.5l0.20117 0.40039c0.067 0.23333-0.034 0.43294-0.30078 0.59961-0.2333 0.13333-0.46592 0.19922-0.69922 0.19922h-0.0996c-1.1333-0.23333-1.7516-0.65-1.8516-1.25-0.05-0.275 0.22964-0.42774 0.83594-0.45899zm-5.9356 0.85938c0.083-0.0167 0.18408 0.0337 0.30078 0.15039 0.5 0.43333 0.94961 0.74922 1.3496 0.94922 0.4667 0.26667 0.61592 0.71823 0.44922 1.3516-0.067 0.33333-0.21592 0.48255-0.44922 0.44922-0.3 0-0.7167-0.38372-1.25-1.1504s-0.73291-1.2667-0.59961-1.5c0.05-0.15 0.11592-0.23333 0.19922-0.25zm35.912 0.0996c0.042-0.0167 0.1042 6e-4 0.1875 0.0508 0.9333 0.56667 2.1175 0.65 3.5508 0.25l1.1504-0.19922-0.20117 0.29883c-0.6667 0.83333-1.3992 1.4341-2.1992 1.8008-0.5667 0.23333-1.15 0.11706-1.75-0.34961-0.6-0.5-0.86748-1.0678-0.80078-1.7012 0-0.0833 0.0215-0.13372 0.0625-0.15039zm-49.211 0.25c0.2667 0 0.39844 0.21706 0.39844 0.65039-0.067 0.4 0.017 0.88451 0.25 1.4512 0.3333 0.83333 0.51748 1.2829 0.55078 1.3496-0.5333-0.0333-1.0508-0.2-1.5508-0.5-0.1667-0.1-0.59883-0.41784-1.2988-0.95117-0.5-0.43333-0.65117-0.85-0.45117-1.25 0.3667-0.56667 1.0683-0.81667 2.1016-0.75zm18 0.5c0.2333-0.0333 0.53174 0.0345 0.89844 0.20117 0.4667 0.23333 0.76709 0.36706 0.90039 0.40039 0.1333 0.0333 0.3 0.0159 0.5-0.0508 0.2333-0.0667 0.4-0.0337 0.5 0.0996 0.5 0.93333 1.0679 1.5341 1.7012 1.8008 0.4 0.1 0.5667 0.24922 0.5 0.44922-0.033 0.2-0.25039 0.39961-0.65039 0.59961-0.6 0.3-1.5341 0.51706-2.8008 0.65039-0.5333 0.0667-1.1496-0.15039-1.8496-0.65039s-1.0508-1-1.0508-1.5c0.1333-0.26667 0.3-0.73177 0.5-1.3984 0.2667-0.36667 0.55156-0.56823 0.85156-0.60156zm4.0117 0.0507c0.075-0.0167 0.15498-0.0167 0.23828 0 0.8 0.0333 1.3155 0.45 1.5488 1.25 0.033 0.16667-0.017 0.31589-0.15039 0.44922-0.1333 0.16667-0.3 0.2345-0.5 0.20117-0.7-0.13333-1.2-0.61784-1.5-1.4512-0.033-0.13333 0.017-0.24961 0.15039-0.34961 0.067-0.05 0.13789-0.0829 0.21289-0.0996zm-9.2129 1.25c0.7667 0.46667 1.35 0.94922 1.75 1.4492 0.067 0.0667-0.032 0.21784-0.29883 0.45117-0.3 0.2-0.51709 0.26589-0.65039 0.19922-0.6667-0.2-1.0329-0.7155-1.0996-1.5488 0.033-0.0667 0.0656-0.20039 0.0996-0.40039 0.067-0.13333 0.13252-0.18372 0.19922-0.15039zm2.9004 1.3496c0.7 1.5 1.9326 2.3333 3.6992 2.5-0.3333 0.4-0.9167 0.56667-1.75 0.5-0.8333-0.0667-1.5155-0.34961-2.0488-0.84961-0.5667-0.56667-0.53399-1.2837 0.0996-2.1504zm-17.213 0.0371c0.075 8e-3 0.16367 0.0641 0.26367 0.16406 0.2667 0.23333 0.44883 0.34961 0.54883 0.34961l0.25 0.0996c0.3 0.1 0.76709 0.23372 1.4004 0.40039 0.5333 0.2 0.96748 0.39961 1.3008 0.59961 0.2 0.1 0.59922 0.40039 1.1992 0.90039 0.5 0.36667 0.93408 0.63216 1.3008 0.79883l-0.60156 0.15039c-0.2667-0.0667-0.44883-0.0822-0.54883-0.0488-1.7 0.36667-3.3667-0.05-5-1.25-0.7333-0.53333-0.83408-1.2174-0.30078-2.0508 0.05-0.0833 0.1125-0.12161 0.1875-0.11328zm25.562 0.31245c0.1333 0 0.40078 0.0504 0.80078 0.15039l1.8496 0.55078c0.1 0 0.23369-0.0174 0.40039-0.0508 0.1667 0 0.26553 0.0833 0.29883 0.25 0.067 0.4 0.0344 0.65-0.0996 0.75-0.2333 0.16667-0.41553 0.28294-0.54883 0.34961-0.2 0.1-0.43447 0.0845-0.70117-0.0488l-2.5488-1.3496c0.1-0.36667 0.28213-0.56823 0.54883-0.60156zm-12.037 0.0391c0.1083 0.025 0.22119 0.11172 0.33789 0.26172 0.2333 0.36667 0.46592 0.51589 0.69922 0.44922-0.1333 0.0333-0.26709 0.1845-0.40039 0.45117-0.1333 0.23333-0.28252 0.31667-0.44922 0.25-0.3-0.1-0.49961-0.29961-0.59961-0.59961s-0.0674-0.5345 0.0996-0.70117c0.1-0.1 0.2042-0.13633 0.3125-0.11133zm16.074 0.86133c0.058-0.0333 0.14697-0.0333 0.26367 0 1.6333 0.46667 2.8155 0.86784 3.5488 1.2012 1.3 0.53333 2.3679 1.2 3.2012 2 0.2333 0.2 0.59961 0.54883 1.0996 1.0488 0.4 0.43333 0.51631 0.88294 0.34961 1.3496-0.2 0.76666-0.89961 1.4004-2.0996 1.9004-1.3 0.5-2.3833 0.65117-3.25 0.45117-0.7-0.16667-1.1341-0.0174-1.3008 0.44922-0.4333 1.4-1.5167 2.3671-3.25 2.9004-0.9667 0.26667-1.6817 0.40039-2.1484 0.40039-0.7667-0.0333-1.4333-0.33372-2-0.90039-0.2-0.2-0.43447-0.23303-0.70117-0.0996-0.9 0.5-1.4504 0.78294-1.6504 0.84961-1.0667 0.4-2.4659 0.20039-4.1992-0.59961-2-1-2.9825-2.3508-2.9492-4.0508 0-0.43333 0.21514-0.79961 0.64844-1.0996 0.4667-0.33333 0.8833-0.40117 1.25-0.20117 0.5333 0.23333 0.96748 0.35156 1.3008 0.35156 0.4333 0.0333 0.85-0.10039 1.25-0.40039l0.55078-0.75c0.4333 0.3 0.98174 0.3 1.6484 0 0.7667-0.36667 1.3016-0.51784 1.6016-0.45117 0.1667 0.0333 0.31592-0.05 0.44922-0.25 0.1333-0.23333 0.18369-0.46589 0.15039-0.69922 0.6667 0.2 1.0329 0.30078 1.0996 0.30078 0.4333 0.0333 0.73369-0.13333 0.90039-0.5 0.2-0.4 0.51592-0.53372 0.94922-0.40039 0.3333 0.13333 0.63369 0.0325 0.90039-0.30078 0.3333-0.36667 0.60078-0.54883 0.80078-0.54883 0.8333 0.0667 1.3488-0.35 1.5488-1.25 0.033-0.0667 0.0182-0.23333-0.0488-0.5 0-0.1 0.0279-0.16784 0.0859-0.20117zm-5.0625 0.0762c0.1 0.0167 0.19209 0.0738 0.27539 0.17383 0.4333 0.5 1.2008 1.0504 2.3008 1.6504-0.2 0.23333-0.5333 0.31667-1 0.25-0.6333-0.13333-1.3504-0.49961-2.1504-1.0996-0.1333-0.0333-0.23408-0.0837-0.30078-0.15039-0.1333-0.0667-0.11622-0.16745 0.0508-0.30078 0.1-0.1 0.2667-0.24922 0.5-0.44922 0.1167-0.0667 0.22422-0.0909 0.32422-0.0742zm-8.9746 0.125 0.34961 0.79883 0.25 0.34961c0.8667 0.86666 1.8667 1.3008 3 1.3008 0.7667-0.0667 1.5167-0.33412 2.25-0.80078 0.2333-0.13333 0.35156-0.13333 0.35156 0 0.1667 0.5 0.69961 1 1.5996 1.5-0.4333 0.36667-0.85 0.48489-1.25 0.35156-0.2333-0.1-0.59961-0.35-1.0996-0.75-0.2667-0.2-0.46826-0.21727-0.60156-0.0508-0.1333 0.2-0.066 0.38411 0.20117 0.55078 0.5333 0.3 0.75039 0.49961 0.65039 0.59961-0.2333 0.33333-0.63447 0.43216-1.2012 0.29883-0.5333-0.2-0.81631-0.51589-0.84961-0.94922 0-0.0333 0.066-0.13411 0.19922-0.30078 0.1333-0.1 0.15038-0.19883 0.0508-0.29883-0.067-0.0667-0.16748-0.0841-0.30078-0.0508-0.1667 0-0.38174 0.10078-0.64844 0.30078-0.5667 0.33333-1.3012 0.31607-2.2012-0.0508-0.8667-0.33333-1.3821-0.81589-1.5488-1.4492-0.1-0.46667 0.16553-0.91628 0.79883-1.3496zm-3.0996 0.0488c0.1333 0.4 0.44922 0.65 0.94922 0.75-0.2667 0.36667-0.41592 0.58372-0.44922 0.65039-0.1 0.13333-0.1833 0.11607-0.25-0.0508-0.2667-0.26667-0.4333-0.46628-0.5-0.59961-0.1-0.23333-0.017-0.48333 0.25-0.75zm10.301 0.5996c0.1667-0.0333 0.28291-0.0159 0.34961 0.0508 0.3667 0.5 0.84922 0.96706 1.4492 1.4004 0.3333-0.0333 0.5 0.0655 0.5 0.29883-0.1 0.33333-0.38291 0.43411-0.84961 0.30078-0.8667-0.26667-1.5159-0.73372-1.9492-1.4004-0.1333-0.0667-0.2167-0.11706-0.25-0.15039-0.1-0.0667-0.0674-0.15 0.0996-0.25 0.2667-0.13333 0.48369-0.21667 0.65039-0.25zm-23.188 0.85156c0.075 0 0.17041 0.0484 0.28711 0.14844 0.7 0.56666 1.5333 0.93489 2.5 1.1016 0.6 0.13333 1.5167 0.21667 2.75 0.25 0.5 0 1.3663-0.10078 2.5996-0.30078 1.1-0.16667 1.9663-0.1997 2.5996-0.0996l1 0.15039-0.59961 1.1485c-0.3 0.4-0.68369 0.61706-1.1504 0.65039-1.8 0.2-3.1004 0.31628-3.9004 0.34961-1.4666 0-2.7496-0.18216-3.8496-0.54883-0.8-0.26667-1.3329-0.46628-1.5996-0.59961-0.5333-0.33333-0.81631-0.7345-0.84961-1.2012 0-0.5 0.0148-0.80039 0.0488-0.90039 0.033-0.1 0.089-0.14844 0.16406-0.14844zm14.188 0.34961c0.1-0.0333 0.1833 0.0171 0.25 0.15039 0.033 0.0667 0.082 0.18294 0.14844 0.34961 0.5667 0.76667 1.4349 1.2667 2.6016 1.5-0.5333 0.56667-1.2175 0.74883-2.0508 0.54883-0.8333-0.16667-1.3508-0.61628-1.5508-1.3496-0.1-0.43333 0.10156-0.83255 0.60156-1.1992zm57.943 0.27539c0.3875-0.05 0.78838-0.0432 1.2051 0.0234 0.9 0.13333 1.6675 0.55 2.3008 1.25 0.7667 0.8 1.0167 1.7012 0.75 2.7012-0.3 1.1-1.0171 1.9333-2.1504 2.5-1.1667 0.56667-2.2655 0.5997-3.2988 0.0996-0.5333-0.26667-0.71748-0.70078-0.55078-1.3008 0.2667-0.73333 0.63291-1.1984 1.0996-1.3984l0.65039-0.35154c-0.1-0.16667-0.1833-0.28294-0.25-0.34961-0.1333-0.13333-0.26709-0.18372-0.40039-0.15039-1 0.16667-1.6821 0.81784-2.0488 1.9512-0.3333 0.86667-0.21709 1.5333 0.34961 2 0.7667 0.63333 1.9159 0.88333 3.4492 0.75 1.7333-0.13333 3.0008-0.93372 3.8008-2.4004 0.1-0.16667 0.19883-0.48255 0.29883-0.94922 0.1667-0.36667 0.53486-0.48489 1.1016-0.35156 0.7667 0.16667 1.4333 0.4845 2 0.95117 0.7 0.6 0.99844 1.2337 0.89844 1.9004 0.033 0.2-0.05 0.61667-0.25 1.25-0.5667 1.2-1.4833 2.0818-2.75 2.6484-1.0667 0.46666-1.6829 0.73411-1.8496 0.80078-0.7333 0.16667-1.4155 0.0833-2.0488-0.25-0.5-0.26667-0.85078-0.18333-1.0508 0.25-0.6667 1.3667-1.8663 2.1671-3.5996 2.4004-1.7667 0.2-3.1329-0.3-4.0996-1.5-0.3667-0.4-0.6167-0.71784-0.75-0.95117-0.2667-0.36667-0.30156-0.68255-0.10156-0.94922 0.4-0.56667 0.4833-0.91745 0.25-1.0508-0.4-0.1-0.71592-0.16589-0.94922-0.19922-0.9333-0.16667-1.6504-0.61628-2.1504-1.3496-0.5333-0.76667-0.66709-1.5496-0.40039-2.3496 0.2-0.6 0.58369-1.1678 1.1504-1.7012 0.2333-0.23333 0.75078-0.63255 1.5508-1.1992 1.0667-0.76667 2.1655-0.98372 3.2988-0.65039 0.1667 0.0333 0.4167 0.11667 0.75 0.25 0.3 0.0333 0.53447-0.0675 0.70117-0.30078 0.9-1.2 1.9312-1.8734 3.0938-2.0234zm-41.193 0.47463c-0.6333 0.0333-1.1004 0.13216-1.4004 0.29883-0.4 0.2-0.61709 0.60117-0.65039 1.2012-0.033 0.66667 0.2167 1.2829 0.75 1.8496 0.5 0.56667 1.0504 0.83411 1.6504 0.80078 1.1667-0.13333 1.7325-0.66823 1.6992-1.6016 0-0.46667-0.23252-1.0151-0.69922-1.6484-0.5-0.6-0.94961-0.90039-1.3496-0.90039zm-18.301 0.19923c0.033 0.73333 0.30078 1.3167 0.80078 1.75 0.3333 0.3 0.93213 0.61784 1.7988 0.95117-1.4333 0.16667-2.4004-0.13372-2.9004-0.90039-0.1667-0.23333-0.18223-0.53372-0.0488-0.90039 0.067-0.2 0.18291-0.50039 0.34961-0.90039zm17.85 0.75002c0.9667 0 1.5171 0.41667 1.6504 1.25 0.033 0.3-0.05 0.55-0.25 0.75-0.2 0.16667-0.46748 0.2345-0.80078 0.20117-0.7333-0.0333-1.1655-0.51784-1.2988-1.4512-0.033-0.5 0.19922-0.75 0.69922-0.75zm-11.699 0.0508c0.033 0 0.25039 0.14922 0.65039 0.44922-0.3333 0.63333-0.78486 0.98411-1.3516 1.0508-0.1667 0.0333-0.3333 0.0159-0.5-0.0508-0.2-0.0667-0.29883-0.18294-0.29883-0.34961 0.033-0.4 0.21553-0.68294 0.54883-0.84961 0.033-0.0333 0.35117-0.11667 0.95117-0.25zm-7.4004 1.25c0.067 0.0333 0.28369 0.25039 0.65039 0.65039 0.2667 0.26667 0.49922 0.46628 0.69922 0.59961-0.1333 0.16667-0.33291 0.2655-0.59961 0.29883-0.4 0.0667-0.61709 0.10156-0.65039 0.10156-0.3 0.13333-0.55-0.0837-0.75-0.65039 0.067-0.13333 0.16748-0.36784 0.30078-0.70117 0.1333-0.26667 0.24961-0.3655 0.34961-0.29883zm12.6 0.75c-0.8667 0.13333-1.2659 0.69922-1.1992 1.6992 0.3 1.1333 0.8833 1.8 1.75 2 0.4667 0.13333 0.8833 0.11757 1.25-0.0488 0.4333-0.2 0.66592-0.55078 0.69922-1.0508 0.067-0.63333-0.1833-1.2496-0.75-1.8496-0.5667-0.56667-1.15-0.81667-1.75-0.75zm-10.424 0.72457c0.083-0.0167 0.15791-8e-3 0.22461 0.0254 0.1667 0.0667 0.23252 0.21589 0.19922 0.44922-0.067 0.76667 0.017 1.3829 0.25 1.8496l-0.25 0.60156c-0.5333 0.86667-0.64961 2.0159-0.34961 3.4492 0.067 0.16667 0.11709 0.28294 0.15039 0.34961 0.067 0.16667 0.0344 0.28294-0.0996 0.34961-0.2667 0.26667-0.56709 0.28393-0.90039 0.0508-0.7333-0.43333-1.1829-0.99922-1.3496-1.6992-0.1333-0.53333-0.1333-1.2833 0-2.25 0.067-0.43333 0.29922-0.90039 0.69922-1.4004 0.4333-0.56667 0.70078-0.98333 0.80078-1.25 0.033-0.13333 0.14961-0.26706 0.34961-0.40039 0.1-0.0667 0.19209-0.10833 0.27539-0.125zm10.574 0.0742c0.4 0.0333 0.71592 0.1845 0.94922 0.45117 0.033 0.0667 0.16709 0.29922 0.40039 0.69922 0.1 0.46667 0.034 0.7845-0.19922 0.95117-0.1667 0.13333-0.36631 0.16637-0.59961 0.0996-0.5333-0.1-0.93447-0.6-1.2012-1.5-0.033-0.16667-6.9e-4 -0.31784 0.0996-0.45117 0.1333-0.2 0.31748-0.28333 0.55078-0.25zm-9.5 3.1016c0.1333 0.2 0.7167 0.74844 1.75 1.6484 0.7 0.66666 1.1671 1.3178 1.4004 1.9512 0 0.0333 0.14922 0.2 0.44922 0.5 0.1667 0.2 0.18378 0.41706 0.0508 0.65039-0.4 0.73333-1.0008 0.8651-1.8008 0.39844-1.8-0.96667-2.4163-2.6818-1.8496-5.1484zm8.5 2.6484c0.067 0 0.0996 0.10078 0.0996 0.30078-0.067 0.1-0.16553 0.40039-0.29883 0.90039-0.1 0.4-0.30156 0.68294-0.60156 0.84961-0.5333 0.3-1.2988 0.21667-2.2988-0.25-1-0.43333-1.5504-0.95078-1.6504-1.5508l0.0508-0.19922 0.14844 0.0996c0.5 0.0667 1.2345 0.18294 2.2012 0.34961 0.8667 0.1 1.5992-0.0318 2.1992-0.39844 0.033-0.0333 0.084-0.0682 0.15039-0.10156zm43.725 11.432c0.275 4e-3 0.55117 0.0267 0.82617 0.0684 2.5666 0.23333 4.4988 0.9349 5.7988 2.1016 0.6 0.53333 0.91787 1.1167 0.95117 1.75 0 0.93333-0.36826 1.6155-1.1016 2.0488-1.2666 0.8-2.9818 1.1333-5.1484 1-0.8667 0-1.0837-0.31589-0.65039-0.94922 0.1333-0.26667 0.19922-0.50117 0.19922-0.70117 0.1333-1.0333-0.13213-2.0159-0.79883-2.9492-0.6667-0.96667-1.5175-1.6004-2.5508-1.9004 0.825-0.325 1.6496-0.48125 2.4746-0.46875zm-3.5254 0.81836c0.7 0.13333 1.45 0.63333 2.25 1.5 0.7667 0.9 1.1679 1.6849 1.2012 2.3516 0.1 1.4667-0.76631 2.2322-2.5996 2.2988-2.7667 0.0333-5.1504-1.1004-7.1504-3.4004-0.1333-0.13333-0.11777-0.3 0.0488-0.5 0.2-0.23333 0.46748-0.34961 0.80078-0.34961 0.2 0 0.50039 0.0174 0.90039 0.0508 1.8667 0 3.2659-0.58333 4.1992-1.75 0.067-0.0333 0.18291-0.10117 0.34961-0.20117zm-47.449 0.60156c0.8 0 1.3175 0.0329 1.5508 0.0996 0.3 0.13333 0.81553 0.48216 1.5488 1.0488 0.5667 0.46666 0.9833 1.0171 1.25 1.6504 0.3 0.73333 0.28447 1.4329-0.0488 2.0996-0.2667 0.56666-0.71826 1.0008-1.3516 1.3008-0.2 0.0667-0.79883 0.25078-1.7988 0.55078-0.3667 0.1-0.51787-0.0841-0.45117-0.55078 0.033-1.9667-0.99961-3.5829-3.0996-4.8496-0.2-0.1-0.21553-0.23372-0.0488-0.40039 0.6-0.56667 1.4159-0.88255 2.4492-0.94922zm-11.051 0.59961c1.0667 0.13333 1.9833 0.44922 2.75 0.94922 1.2667 0.9 1.9333 1.9174 2 3.0508 0.033 0.33333-0.05 0.61628-0.25 0.84961-0.1 0.13333-0.35 0.33294-0.75 0.59961-1.0667 0.76667-2.1984 1.0496-3.3984 0.84961s-2.1671-0.84922-2.9004-1.9492c-0.6333-1-0.7167-1.9167-0.25-2.75 0.6667-1.1667 1.5988-1.6996 2.7988-1.5996zm-8.6641 0.15625c1.0437 0.0375 2.2641 0.31875 3.6641 0.84375 0.1667 0.0667 0.45156 0.13255 0.85156 0.19922 0.3333 0.0667 0.46514 0.23333 0.39844 0.5-0.2333 1.1333-0.049 2.1837 0.55078 3.1504 0.1 0.1 0.2667 0.28411 0.5 0.55078 0.2 0.2 0.23261 0.34922 0.0996 0.44922-0.4333 0.46667-0.98369 0.73411-1.6504 0.80078-1.1667 0.16667-2.0484 0.28294-2.6484 0.34961-1.0333 0.0667-1.9345-1e-3 -2.7012-0.20117-0.6-0.2-1.2492-0.68255-1.9492-1.4492-0.7333-0.8-1.0996-1.4841-1.0996-2.0508 0.1333-0.83333 0.44922-1.5329 0.94922-2.0996 0.5667-0.6 1.2508-0.93333 2.0508-1 0.3083-0.0417 0.63638-0.0555 0.98438-0.043zm15.002 1.0938c0.475-0.0167 0.89697 0.0163 1.2637 0.0996 0.8333 0.2 1.5659 0.66706 2.1992 1.4004 0.5667 0.66667 0.93291 1.3992 1.0996 2.1992 0.1 0.5-0.049 1.0678-0.44922 1.7012-0.4333 0.66667-0.85 1.0484-1.25 1.1484-1.5333 0.3-2.9675 0.21666-4.3008-0.25-0.2333-0.0667-0.65-0.36511-1.25-0.89844l0.20117-0.25c0.9667-0.6 1.5151-1.35 1.6484-2.25 0.1667-0.86666-0.083-1.7678-0.75-2.7012 0.5833-0.11667 1.1129-0.18255 1.5879-0.19922zm26.139 0.65039c0.15-0.0333 0.29053 0.0326 0.42383 0.19922 0.2 0.2 0.50039 0.48294 0.90039 0.84961 0.3333 0.36667 0.43408 0.76784 0.30078 1.2012 0.1333 0.86667-0.30078 1.6167-1.3008 2.25-0.7667 0.46667-1.7008 0.58294-2.8008 0.34961-1.1333-0.23333-1.9163-0.70039-2.3496-1.4004-0.1667-0.23333-0.11631-0.36706 0.15039-0.40039 1.8-0.13333 3.1992-1.0171 4.1992-2.6504 0.1667-0.23333 0.32656-0.36511 0.47656-0.39844zm38.262 0.0996c0.083-0.0333 0.17002-0.0333 0.26172 0 0.2 0.0667 0.5333 0.4 1 1 0.4333 0.53333 0.6833 0.89961 0.75 1.0996 0.1333 0.46667-4e-5 0.90078-0.39844 1.3008-1.4 1.4-3.2683 1.7818-5.6016 1.1484-0.6-0.33333-1.0651-0.56589-1.3984-0.69922 0.1-0.13333 0.2667-0.21667 0.5-0.25 0.1667-0.0333 0.46514-0.0508 0.89844-0.0508 0.8667-0.13333 1.5179-0.3155 1.9512-0.54883 0.7333-0.4 1.2004-1.0008 1.4004-1.8008 0.175-0.7 0.38672-1.0992 0.63672-1.1992zm-34.738 0.90039 1.25 0.0996c0.6333 0 1.1333 0.21706 1.5 0.65039 0.4 0.4 0.58408 0.9155 0.55078 1.5488 0 0.63333-0.36631 1.2167-1.0996 1.75-0.7667 0.53333-1.6175 0.80078-2.5508 0.80078-0.3667 0-0.75039-0.0678-1.1504-0.20117-0.4667-0.2-0.7167-0.36667-0.75-0.5-0.067-0.1-0.032-0.18333 0.10156-0.25 0.8667-0.73333 1.2833-1.6151 1.25-2.6484v-0.95117c0.1-0.26667 0.39844-0.3655 0.89844-0.29883zm-19.25 0.14844 0.65039 0.30078c0.9 0.5 1.3845 1.25 1.4512 2.25 0 0.36667-0.11826 0.71745-0.35156 1.0508-0.2667 0.33333-0.6 0.53294-1 0.59961-0.7333 0.2-1.1984 0.31628-1.3984 0.34961-0.5333 0.1-1.0004 0.0671-1.4004-0.0996-0.6667-0.33333-1.0329-0.55039-1.0996-0.65039-0.067-0.13333-7.8e-4 -0.23411 0.19922-0.30078l0.44922-0.14844c1.3333-0.66666 2.0504-1.5349 2.1504-2.6016 0.033-0.5 0.14961-0.75 0.34961-0.75z"/>
 <g transform="translate(-895.7 -186.3)">
  <path transform="translate(160.15,84.1)" d="m740.55 102.2c-3.3333 0-5 1.6667-5 5v158.2c0 3.3333 1.6667 5 5 5h93.201c3.3333 0 5-1.6667 5-5v-158.2c0-3.3333-1.6667-5-5-5zm8.3008 7.1992h76.6c4.6667 0 7 2.3333 7 7v139.8c0 4.6667-2.3333 7-7 7h-76.6c-4.6667 0-7-2.3333-7-7v-139.8c0-4.6667 2.3333-7 7-7z" fill="#ef1d1e"/>
  <path transform="translate(160.15,84.1)" d="m748.85 109.4c-4.6667 0-7 2.3333-7 7v139.8c0 4.6667 2.3333 7 7 7h76.6c4.6667 0 7-2.3333 7-7v-139.8c0-4.6667-2.3333-7-7-7z" fill="none" stroke="#000" stroke-width="1.2"/>
 </g>
</svg>
