<svg width="103.2" height="168.2" preserveAspectRatio="none" version="1.1" viewBox="0 0 103.2 168.2" xmlns="http://www.w3.org/2000/svg">
 <path d="m13.301 7.1992c-4.6667 0-7 2.3333-7 7v139.8c0 4.6667 2.3333 7 7 7h76.6c4.6667 0 7-2.3333 7-7v-139.8c0-4.6667-2.3333-7-7-7z" fill="#fff"/>
 <path d="m61.25 97.012-25.312 8.4375 8.4375 9.5 20.625-7.125z" fill="#faea01"/>
 <path d="m61.5 22c-1.2333 0.0667-2.4 0.53177-3.5 1.3984-1.8667 1.5-3.1341 3.7674-3.8008 6.8008v0.0508c-0.1333 0.4-0.1992 0.88255-0.1992 1.4492 0 0.13333-0.033 0.24961-0.1 0.34961-0.1 0.0667-0.2163 0.11706-0.3496 0.15039-0.5334 0.0667-1.0179 0.26628-1.4512 0.59961l-1.0996 1c-1.2667 1.1-1.8674 2.4663-1.8008 4.0996 0 1.3333 0.5 2.4516 1.5 3.3516 0.3334 0.26667 0.7849 0.6 1.3516 1 1.0333 0.76667 1.6825 1.3655 1.9492 1.7988 0.7 1.2667 1.7329 1.9004 3.0996 1.9004h0.2012c0.7-0.0333 1.6496-0.41706 2.8496-1.1504 1.0667-0.7 1.7663-1.45 2.0996-2.25v-0.0488l0.1992-0.45117c0.033-0.1 0.1167-0.18333 0.25-0.25 0.067-0.0667 0.1675-0.0822 0.3008-0.0488 0.1 0.0333 0.2008 0.0992 0.3008 0.19922l0.5 0.55078c0.4333 0.43333 1.0321 0.79961 1.7988 1.0996 0.7667 0.26667 1.5496 0.40039 2.3496 0.40039 1.4334 0 2.5341-0.43411 3.3008-1.3008 1.2333-1.4667 1.7663-3.0674 1.5996-4.8008-0.1333-1.5333-0.1639-2.6322-0.1-3.2988 0.1667-1.0333 0.5833-1.9345 1.25-2.7012 0.6667-0.8 0.9341-1.5984 0.8008-2.3984-0.1-0.7-0.5012-1.2174-1.2012-1.5508-0.8-0.43333-1.6663-0.65039-2.5996-0.65039-0.7667 0-1.6329 0.18411-2.5996 0.55078h-0.062l-0.5996 0.19922c-0.1 0.0333-0.2008 0.0333-0.3008 0s-0.1833-0.0992-0.25-0.19922c-0.067-0.1-0.1-0.20078-0.1-0.30078 0-0.26667-0.05-0.6-0.1504-1-0.3333-1.3-1-2.3833-2-3.25-1.0333-0.83333-2.1651-1.2655-3.3984-1.2988zm-3.6992 58.049c-0.7667 0-1.5845 0.18411-2.4512 0.55078-0.5667 0.2-1.2004 0.29883-1.9004 0.29883-0.5 0-1-0.0484-1.5-0.14844h-0.049c-0.8-0.26667-1.6178-0.40039-2.4512-0.40039-1.2333 0-2.3321 0.33333-3.2988 1-1.6 1-2.5671 2.1996-2.9004 3.5996-0.033 0.1-0.099 0.18333-0.1992 0.25-0.1 0.0667-0.2182 0.0996-0.3516 0.0996-0.1333-0.0333-0.2321-0.0837-0.2988-0.15039-0.5667-0.63333-1.2663-1.1488-2.0996-1.5488-0.8334-0.4-1.5679-0.59961-2.2012-0.59961h-0.1504l-2.1484 0.29883c-1.2667 0.2-2.1679 0.30078-2.7012 0.30078-0.5667 0-0.9659-0.0329-1.1992-0.0996-0.1333-0.0333-0.3678-0.0508-0.7012-0.0508-0.8333 0-1.6163 0.28294-2.3496 0.84961-0.4667 0.36667-1.0325 0.96745-1.6992 1.8008h-0.051l-0.1992 0.19922-0.7012 0.90039c-1 1.3667-1.8663 2.2-2.5996 2.5-2.1667 0.96667-3.0833 2.4841-2.75 4.5508 0 0.0667-0.015 0.15-0.049 0.25-0.033 0.1-0.084 0.18333-0.1504 0.25-0.1 0.0333-0.2008 0.0488-0.3008 0.0488h-0.75c-0.8667 0-1.6496 0.11628-2.3496 0.34961-1.8333 0.46666-2.8837 1.5345-3.1504 3.2012-0.067 0.56667-0.2663 1.4659-0.5996 2.6992l-0.1504 0.55078c-0.033 0-0.049 0.0155-0.049 0.0488l-0.3 0.65047v0.0996c-0.3667 0.53333-0.5837 1.0682-0.6504 1.6016-0.067 0.53333-0.034 1.0488 0.1 1.5488 0.067 0.33333 0.1675 0.66667 0.3008 1 0.2333 0.53333 0.65 1.2174 1.25 2.0508l0.5996 0.84961c0 0.0333 0.017 0.0508 0.051 0.0508 0.6333 1.0667 0.9822 1.8651 1.0488 2.3984 0.1334 0.93333 0.5849 1.8849 1.3516 2.8516 0.8 1.0333 1.6663 1.7 2.5996 2 0.1333 0 0.2322 0.0659 0.2988 0.19922 0.067 0.13333 0.084 0.26706 0.051 0.40039-0.067 0.13333-0.15 0.23216-0.25 0.29883-1.3333 0.73333-2.1667 1.9174-2.5 3.5508-0.3333 1.4667-0.083 2.6992 0.75 3.6992 1.4667 1.6 2.5829 3.3849 3.3496 5.3516l-0.049-0.0508c0.1 0.23333 0.2492 0.41745 0.4492 0.55078 0.1 0.0667 0.1659 0.1655 0.1992 0.29883 0.1334 0.6 0.5675 1.1174 1.3008 1.5508v-0.0508l0.1992 0.0996 0.051 0.0508c0.8333 0.53333 1.9341 0.80078 3.3008 0.80078l1.25-0.0508c0.3666 0 0.6496-0.0174 0.8496-0.0508h0.9004c0.2333-0.0333 0.5492-0.0488 0.9492-0.0488 0.4667 0 0.8659 0.0659 1.1992 0.19922h0.05c0.9 0.33333 1.7004 0.5 2.4004 0.5 0.6667 0 1.3333-0.14922 2-0.44922 1.4333-0.7 2.567-1.9171 3.4004-3.6504 0.033-0.13333 0.1166-0.21667 0.25-0.25 0.1-0.0667 0.1988-0.0841 0.2988-0.0508s0.2008 0.10117 0.3008 0.20117c0.067 0.0667 0.1 0.1655 0.1 0.29883l0.051 1.2012c0 0.9 0.099 1.7159 0.2988 2.4492 0.3 1.0667 0.9512 2.0667 1.9512 3 1.0333 0.96667 2.0992 1.5171 3.1992 1.6504 1.5333 0.13333 2.7659 0.51706 3.6992 1.1504 1.2 0.9 2.2349 1.3671 3.1016 1.4004h0.049c1.1-0.0333 2.1678-0.38411 3.2012-1.0508 0.6333-0.46667 1.3659-1.1508 2.1992-2.0508 0.7667-0.86667 1.4837-1.3492 2.1504-1.4492 1.2-0.2 2.2659-0.80078 3.1992-1.8008 0.9-1.0333 1.4-2.1651 1.5-3.3984 0.033-0.73333-0.017-1.4349-0.1504-2.1016-0.033-0.13333 0-0.24961 0.1016-0.34961 0.067-0.1 0.1655-0.16589 0.2988-0.19922 0.1-0.0667 0.2163-0.0667 0.3496 0 1.0334 0.53333 1.9675 0.79883 2.8008 0.79883s1.6337-0.23255 2.4004-0.69922l0.1992-0.15039c0-0.0333 0.028-0.0488 0.062-0.0488 0.8-0.43333 1.3329-0.65039 1.5996-0.65039h0.051c2.0333-0.2 3.4831-0.75039 4.3496-1.6504v0.0508c0.6-0.7 1.0496-2.0837 1.3496-4.1504 0.1667-1.2667 0.4673-2.1 0.9004-2.5 1.4-1.4 1.7333-2.8341 1-4.3008h0.049c-0.3333-0.56667-0.7151-1.0996-1.1484-1.5996-0.1-0.13333-0.1504-0.24961-0.1504-0.34961 0-0.16667 0.066-0.28294 0.1992-0.34961 0.1-0.1 0.2163-0.15039 0.3496-0.15039l0.7012 0.0488c1.1333 0 2.2169-0.21511 3.25-0.64844h0.049c2.0334-0.83333 3.0334-2.5833 3-5.25 0-0.46666 0.035-0.93372 0.1016-1.4004 0.067-0.46667 0.1831-0.91628 0.3496-1.3496v-0.0508l0.4492-1.0508c0.3667-0.9 0.6012-1.5667 0.7012-2v-0.54883c-0.1334-1.1-0.3349-1.8674-0.6016-2.3008-0.8666-1.3-1.9325-2.3155-3.1992-3.0488-1.1333-0.66666-2.2496-1.8837-3.3496-3.6504-0.8665-1.3667-1.95-2.0663-3.25-2.0996-0.3998 0-0.7508 0.0659-1.0508 0.19922h-0.049c-0.7667 0.23333-1.35 0.53372-1.75 0.90039-0.1334 0.0667-0.2516 0.0996-0.3516 0.0996-0.1333 0-0.2496-0.0504-0.3496-0.15039-0.1-0.1-0.1504-0.21628-0.1504-0.34961-0.3333-1.0667-0.9321-1.8341-1.7988-2.3008h-0.051c-0.9-0.46667-1.5163-0.99961-1.8496-1.5996l-0.25-0.40039c-0.4333-0.7-0.8171-1.2-1.1504-1.5-0.6-0.5-1.2822-0.75-2.0488-0.75h-0.2012c-1.4 0.0333-2.6829 0.53333-3.8496 1.5-0.1333 0.0667-0.2496 0.10156-0.3496 0.10156-0.1665 0-0.283-0.0504-0.3496-0.15039-0.1-0.1-0.1503-0.21628-0.1504-0.34961 0-0.8-0.1667-1.5171-0.5-2.1504-0.3998-0.8-0.9504-1.4163-1.6504-1.8496-0.7333-0.46666-1.5492-0.70117-2.4492-0.70117zm-2.2969 20.668c1.7909 0.0653 3.5399 0.42578 5.2461 1.082l1.4492 0.55078c0.3 0.0667 0.3 0.20039 0 0.40039-0.3333 0.3-0.6163 0.73216-0.8496 1.2988-0.1 0.3-0.183 0.56745-0.25 0.80078-0.2667 0.63333-0.6329 1.1333-1.0996 1.5-0.5667 0.43333-1.15 0.69883-1.75 0.79883-0.5333 0.2-1.0333 0.45-1.5 0.75-0.5333 0.26667-1.0159 0.6-1.4492 1-0.3334 0.33333-0.6337 0.70156-0.9004 1.1016-0.066 0.13333-0.1174 0.26511-0.1504 0.39844-0.1 0.26667-0.2008 0.4333-0.3008 0.5s-0.2492 0.10156-0.4492 0.10156c-0.4 0.0333-0.8341-0.0171-1.3008-0.15039-0.6-0.0667-1.1833-0.0996-1.75-0.0996-0.4666 0-0.9163 0.0329-1.3496 0.0996-0.6 0.23333-1.1833 0.45039-1.75 0.65039-0.4 0.16667-0.8167 0.29844-1.25 0.39844-0.4333 0.1334-0.8655 0.15078-1.2988 0.0508-0.5334-0.2-1.0334-0.48294-1.5-0.84961-0.3334-0.3-0.6337-0.61784-0.9004-0.95117l-0.3008-0.29883c-0.7333-0.8-1.5822-1.4008-2.5488-1.8008 0.7-1.7667 2.0663-3.0322 4.0996-3.7988 0.5333-0.2 1.7833-0.76784 3.75-1.7012 1.5-0.76667 2.7829-1.2492 3.8496-1.4492 0.825-0.175 1.6409-0.29131 2.4492-0.34961 0.6063-0.0438 1.2078-0.055 1.8047-0.0332z" fill="#ef1d1e"/>
 <path d="m33.65 17.148c-0.2333-0.0667-0.3845-0.0318-0.4512 0.10156-0.067 0.16667 0 0.34883 0.2012 0.54883 0.5713 0.60824 1.8583 1.3569 2.8476 2.0469 0.024 0.0307 0.025 0.0749 0.053 0.10352v-0.0508c0.024 0.0226 0.069 0.0284 0.094 0.0508 0.7655 0.5258 1.1512 0.97846 2.1563 1.5508 0.5 0.26667 1.3159 0.63294 2.4492 1.0996 0.3133 0.11392 0.4189 0.19315 0.6836 0.29883 1.0915 0.42825 1.9408 1.0311 2.7969 1.6289 1.0166 0.69848 2.0402 1.4547 3.1035 2.5254 1.7083 1.7174 3.2795 3.3794 4.3222 4.832 0.2579 0.32278 0.4296 0.61423 0.3438 0.81445-0.033 0.0667-0.2659 0.26628-0.6992 0.59961l-0.4004 0.25c-1.3333 1.1333-2 2.5674-2 4.3008 0 0.0333 0.066 0.25039 0.1992 0.65039 0.049 0.27039-0.2387 0.25944-0.5156 0.25781-0.3373-0.15418-0.5824-0.29844-0.9844-0.45898 5e-4 9e-3 -0.015 9e-3 -0.049 0l-1.7503-0.84961c-0.01-3e-3 -0.01-2e-4 -0.016-4e-3 -0.163-0.0818-0.099-0.0534-0.2852-0.14648-0.9-0.46667-1.6829-0.73216-2.3496-0.79883-0.1223-0.0147-0.2713 0.0526-0.3965 0.0469-0.1615-0.015-0.345-0.1472-0.5039-0.14844-0.5823 1e-3 -1.1226 0.22424-1.6699 0.41016-0.066 0.0203-0.1269 0.0246-0.1934 0.0469-0.1907 0.0727-0.3995 0.0493-0.5859 0.14453-0.3869 0.19313-0.7189 0.49268-1.0938 0.70899-0.4562 0.24112-0.8757 0.36829-1.3574 0.68945-0.3953 0.25373-0.7979 0.66298-1.1953 0.96484-0.2598 0.20251-0.5185 0.40755-0.7715 0.62305-1.5962 1.3328-3.202 2.9112-4.832 5.0137-0.3 0.36667-0.3834 0.68255-0.25 0.94922 0.1 0.2 0.2318 0.31628 0.3984 0.34961 0.067 0 0.2508-0.0329 0.5508-0.0996s0.6508-0.23333 1.0508-0.5c0.4333-0.3 0.7492-0.48411 0.9492-0.55078l4.5996-1.75c1.3-0.46667 2.6663-0.66628 4.0996-0.59961 1.1569 0.0381 2.1643 0.22654 3.166 0.41992 1.8195 0.43439 3.5609 1.0039 5.0352 2.0312v-0.05075c0.3981 0.26206 0.7271 0.37044 1.0508 0.4668 0.2547 0.18824 0.562 0.36782 0.6484 0.58398 0.1667 0.46667 0.3333 1.4996 0.5 3.0996 0.1 1.8 0.5012 3.4163 1.2012 4.8496 0.067 0.13333 0.1655 0.3 0.2988 0.5 0.057 0.0995-0.01 0.18382 0 0.27734-0.017 0.0408-0.016 0.0937-0.049 0.12305l-0.3008 0.44922-0.1016 0.25c-0.7386 1.4867-1.3153 2.5588-1.7382 3.2305 0 4e-3 -0.01 0.0154-0.012 0.0195-0.3282 0.55688-1.1534 1.9185-1.25 2.0996-1.2667 2.3667-2.2337 4.9016-2.9004 7.6016-0.3111 1.289-0.3256 2.0462-0.5117 3.1113-0.1442 0.79746-0.3017 1.4482-0.4375 2.3379-0.018 0.11158-0.01 0.37253-0.025 0.49609-0.024 0.29194-0.1637 0.78849-0.1738 1.0547l-0.1504 5.0996c0 0.1-0.1163 0.26667-0.3496 0.5-2 1.2333-2.9322 2.7488-2.7988 4.5488l-0.1504 0.25-0.1016-0.19922c-0.3334-0.76667-0.9671-1.4663-1.9004-2.0996-0.2667-0.2-0.4177-0.31628-0.4511-0.34961-0.067-0.13333-0.016-0.35039 0.1504-0.65039 0.1872-0.32577 0.3297-0.947 0.5097-1.3203l0.3418-0.73047c0.1013-0.22248 0.1358-0.52364 0.2305-0.75391 0.4618-1.1459 0.9596-2.056 1.3691-3.5449 0.5333-1.9333 0.8996-4.6678 1.0996-8.2012 0.033-0.73354-0.1209-1.0607-0.125-1.7129l0.027-0.63672c0.021-0.24987-0.1449-0.8162-0.1563-1.1211-0.084-1.122-0.016-2.5732-0.2461-3.3789-0.4-1.4333-0.7177-2.4992-0.9511-3.1992-0.4-1.2333-0.8166-2.2682-1.25-3.1016-0.9333-1.8-2.1156-3.4318-3.5489-4.8984-0.1238-0.12383-0.2065-0.0924-0.3222-0.18555-0.1104-0.115-0.1617-0.2514-0.2754-0.36523-0.1742-0.16784-0.3913-0.25117-0.6504-0.25h-0.25c-0.2783 0.12097-0.4779 0.32058-0.5996 0.59961 0.01 0.0333 0.01 0.0508 0 0.0508l-0.1016 0.19922-0.086 0.26367c-0.4725 1.0669-1.3835 2.6482-2.7656 4.7871-0.037 0.0862-0.069 0.13075-0.1016 0.20313l-0.1055 0.14648c-0.057 0.0805-0.1407 0.13086-0.25 0.15039-0.026 0.0192-0.063 8e-3 -0.092 0.0176-0.052-0.0276-0.114 0.0666-0.1621-0.0176-0.5333-0.7-1.5663-1.5333-3.0996-2.5-1.7429-1.0811-3.3013-1.6626-4.8984-2.3496-0.8158-0.35097-1.7243-0.95322-2.502-1.2012-1.3-0.43333-3.2167-0.91589-5.75-1.4492-0.8667-0.2-2.1671-0.36667-3.9004-0.5-0.1726-0.0111-0.1819 0.0595-0.334 0.0586-0.2011-0.0182-0.5254-0.0969-0.7148-0.10937h-0.053c-0.2838-2e-3 -0.4592 0.16726-0.625 0.35156-0.055 0.0344-0.2341 8e-3 -0.2754 0.0488-0.1333 0.13333-0.1627 0.3-0.1 0.5 0.067 0.13333 0.1655 0.31745 0.2988 0.55078 0.053 0.13151 0.2174 0.35652 0.3945 0.5918 0.073 0.12528 0.111 0.26247 0.1817 0.38867 1.1904 2.1914 1.9484 4.3966 2.1738 6.6191 0.067 0.56667 0.1849 1.4155 0.3516 2.5488 0.1 0.96666 0.1293 1.8 0.1 2.5-0.033 0.43333 0.05 1.0516 0.25 1.8516 0.2 0.86667 0.2988 1.4829 0.2988 1.8496 0.092 1.8443 0.7692 3.7203 1.9102 5.6211 0.032 0.0903 0.059 0.18183 0.041 0.2793-0.021 0.0999-0.09 0.16836-0.1797 0.22266-0.8491-0.1702-1.8146 0.029-2.7656 0.17578h-0.5059l-0.5-0.0488c-0.1257 3e-3 -0.1712 0.11031-0.2832 0.13086-0.114 0.0336-0.2012-0.0182-0.3164 0.0195-0.4667 0.16667-0.7825 0.29844-0.9492 0.39844-0.3667 0.3-0.4171 0.66823-0.1504 1.1016 0.5667 0.86667 1.0667 1.8318 1.5 2.8984 0.9 2.2333 2.1829 4.3671 3.8496 6.4004 0.3662 0.44388 0.8637 0.7037 1.2637 1.0996 0.055 0.0587 0.081 0.14305 0.1367 0.20117 0.2211 0.2165 0.5043 0.36141 0.7383 0.5625 2.0172 1.7277 4.2838 3.097 7.0625 3.7363-0.4667 0.46666-0.8175 0.76706-1.0508 0.90039-1.1333 0.56667-1.934 1.0996-2.4004 1.5996-0.6667 0.73333-0.9167 1.6345-0.75 2.7012 0.1 0.56667 0.1 0.9155 0 1.0488s-0.4488 0.16823-1.0488 0.10156c-1.1667-0.1-2.3004 0.13255-3.4004 0.69922-0.5 0.26667-0.9845 0.65039-1.4512 1.1504-0.5666 0.6-0.8825 1.1329-0.9492 1.5996-0.2 1.2-0.3008 1.8337-0.3008 1.9004-0.1666 0.7-0.3818 1.2833-0.6484 1.75-0.7334 1.2333-0.9679 2.4659-0.7012 3.6992 0.1997 1 0.7678 2.1163 1.7012 3.3496 0.7333 0.93333 1.1984 1.7841 1.3984 2.5508 0.2667 1.1667 0.6834 2.1996 1.25 3.0996 0.7 1.1667 2.0179 1.9845 3.9512 2.4512-0.3333 0.26667-0.5833 0.43333-0.75 0.5-1.5667 0.8-2.5163 1.9822-2.8496 3.5488-0.3334 1.5667 0.048 3.0163 1.1484 4.3496 1.2667 1.5333 2.2667 3.1671 3 4.9004 0.087 0.23121 0.028 0.35273-0.086 0.43359-0.021 0.0105-0.042 6e-3 -0.061 0.0176-0.6052 0.40107-0.8604 0.70415-1.3965 1.0859-1.3956 0.95119-2.6916 1.9484-3.8574 3.0039-0.098 0.0934-0.3041 0.21669-0.3965 0.3086-0.1221 0.12242-0.236 0.3077-0.3574 0.43359-0.6723 0.65176-1.4036 1.277-1.9922 1.9668-1.3334 1.6-2.568 3.3171-3.7012 5.1504-0.531 0.8653-0.5966 0.9792-0.8261 1.3574-0.4152 0.57814-0.8412 1.1986-1.2051 1.5566-0.4077 0.45302-0.8 0.94684-1.2676 1.2363-0.3667 0.2-0.3527 0.43255 0.049 0.69922 0.2436 0.13708 0.6147 0.1782 0.9141 0.27344 0.059 0.0245 0.069 0.11384 0.1367 0.12695l0.6074 0.0977c0.1289 0.0229 0.2052 0.0845 0.3418 0.10156 1.5999 0.23333 2.5012 0.35156 2.7012 0.35156 0.8815 0.0569 1.6154-0.10747 2.3027-0.3418 0.034-6e-3 0.061-3e-3 0.096-0.01 0.1032-0.0121 0.2039 5e-3 0.3008 0.0508 0.093 0.0362 0.1594 0.0866 0.1992 0.15039 0.069 0.10065 0.1043 0.19948 0.1016 0.29883 0 0.94622-0.2511 2.0432-0.6348 3.2188-0.074 0.25-0.219 0.54962-0.3183 0.81836-0.4977 1.3388-1.1274 2.6646-2.0469 3.9629v0.0508c-0.031 0.0433 0.01 0.0839-0.016 0.12695-0.076 0.12152-0.1878 0.29527-0.2344 0.37305-0.1667 0.33333-0.1839 0.61628-0.053 0.84961 0.1667 0.26667 0.4496 0.40039 0.8496 0.40039 0.1199 0 0.3485-0.019 0.541-0.0312l0.2109 0.0312c0.4699-0.0189 1.2047-0.13514 2.2012-0.34961l0.834-0.18164c0.4849-0.0924 0.751-0.0935 1.3144-0.21875 3.6999-0.76667 6.0179-1.3171 6.9512-1.6504 0.2333-0.0667 1.7333-0.54922 4.5-1.4492 1.8-0.56667 3.2496-1.1171 4.3496-1.6504 1.3-0.66667 1.9996-1.0174 2.0996-1.0508 0.3156-0.18666 0.5088-0.43509 0.7754-0.64649 0.09-0.057 0.2368-0.0945 0.3242-0.15234l0.25-0.20117c0.077-0.0792 0.1607-0.12761 0.25-0.14844 0.121-0.0159 0.2217-1e-4 0.3008 0.0488 0.041 0.0187 0.057 0.0496 0.09 0.0723 0.1657 0.39292 0.2551 0.64072 0.3906 0.97656 0.3734 0.90388 0.7297 2.1527 1.0625 3.9277 0.052 0.41827 0.207 0.87394 0.207 1.2734 0.067 0.33333 0.2333 0.4845 0.5 0.45117 0.088-0.0117 0.1759-0.0923 0.2637-0.11328 0.011 2e-3 0.027 0.01 0.037 0.0117l0.5-0.0996c0.1576-0.0784 0.2739-0.14427 0.3496-0.19922 0.05-0.0517 0.1443-0.12808 0.2149-0.19141 0.045-0.0305 0.09-0.0256 0.1347-0.0586 0.1333-0.1 0.5171-0.45078 1.1504-1.0508 0.2341-0.20356 0.5024-0.61297 0.7403-0.83984 0.5652-0.55191 1.3305-1.1723 1.7089-1.6602l0.8496-1.0996v-0.0508c0.1605-0.1915 0.1851-0.28688 0.3321-0.46875 0.4165-0.52298 0.7917-0.79479 1.2187-1.3809 0.2875-0.39429 0.4614-0.93284 0.7266-1.3555 0.036-0.0656 0.1418-0.18115 0.1738-0.24414l0.5-0.84961c0.8284-1.5096 1.3613-2.5426 1.5996-3.0996 0.5728-1.3482 0.9061-2.6486 1-3.9004 0.01-0.0608 0.028-0.12864 0.055-0.20117 0.065-0.36358 0.058-0.61243 0.039-0.84375l0.01-0.0547 0.25 0.19922c1.0999 0.86667 2.1504 1.2504 3.1504 1.1504 0.9333-0.1 1.85-0.46628 2.75-1.0996 0.3667-0.26667 1.1341-0.91784 2.3008-1.9512 0.6333-0.6 0.9996-0.93333 1.0996-1 0.4333-0.33333 0.9004-0.5155 1.4004-0.54883 1.2-0.1 2.1652-0.70078 2.8985-1.8008l0.3007-0.5c0.2333-0.16667 0.3496-0.11628 0.3496 0.15039 0.1666 1.0333 0.5833 2.0663 1.25 3.0996 0.3999 0.63333 1.0841 1.4996 2.0508 2.5996 1.9 2.1333 3.9329 3.7167 6.0996 4.75 0.7667 0.3 1.166 0.18372 1.1993-0.34961 0.067-0.83333 0.3515-2.2674 0.8515-4.3008 0.1-0.33333 0.2319-0.46511 0.3985-0.39844 0.8 0.4 1.7515 0.6655 2.8515 0.79883 0.6333 0.0667 1.6159 0.1345 2.9492 0.20117 1.5667 0.0667 2.716 0.21589 3.4493 0.44922 2 0.56667 3.7344 1.2663 5.2011 2.0996 1.1439 0.61832 2.0752 1.2807 2.875 1.9707 0.1979 0.19676 0.3973 0.38217 0.5899 0.61133 0.6109 0.61869 1.1851 1.2449 1.5351 1.918 0.1667 0.36667 0.3489 0.53333 0.5489 0.5 0.3334-0.0333 0.5348-0.25039 0.6015-0.65039 0.1333-1 0.3988-2.1667 0.7988-3.5 2.2623-6.7998 4.3593-15.726-0.3129-21.938-0.3528-0.46458-0.5371-0.97323-0.9882-1.4121-0.076-0.0693-0.1265-0.15261-0.1504-0.25-0.022-0.10221-0.022-0.20104 0-0.29883 0.045-0.0693 0.096-0.12615 0.1465-0.18359 1.3929-0.98269 2.4685-1.8015 2.9531-2.3164l0.4002-7.5c-0.838-0.60799-1.6758-1.0224-2.5137-1.5449-0.9027-0.6145-1.5395-1.1364-2.8867-1.9062-0.4595-0.23895-1.3354-0.3535-1.8887-0.56445-0.7453-0.27999-1.3227-0.5705-2.3105-0.83594l-1.6504-0.5c-0.3909-0.0966-0.6738-0.14505-0.8496-0.14844-0.026-2.2e-4 -0.042 0.0247-0.064 0.0254-0.036-6e-3 -0.05-0.0191-0.086-0.0254-0.1667-0.0333-0.25-0.0837-0.25-0.15039 0.033-0.1 0.049-0.18333 0.049-0.25 0.3-0.66667 0.5171-1.1667 0.6504-1.5 0.2666-0.6 0.4333-1.1174 0.5-1.5508 0.2666-1.9333-0.5163-3.6659-2.3496-5.1992 0.4453 0.0771 0.6137-0.0375 1.0019 0 0.182 0.0111 0.3137 0.15003 0.5 0.15039l2.4493-0.15039c0.024 2e-5 0.029-0.021 0.053-0.0215 0.2369-0.0635 0.5624-0.13734 1.0488-0.22852 0.1387-0.0578 0.1302-0.236 0.2246-0.33008 0.067-0.0669 0.2245-0.0402 0.2774-0.12109 0.057-0.0803-0.029-0.21043 0.012-0.29688 0.024-0.0861 0.1316-0.10342 0.1387-0.20312 0.01-0.15207-0.1084-0.38881-0.1172-0.55078-0.016-0.2572 0.1518-0.45144 0.023-0.74805-0.01-0.0172-0.027-0.0346-0.051-0.0508v-0.09937l-0.059-0.0996c-0.023-0.0317-0.043-0.0821-0.053-0.15039-0.039-0.22572-0.1995-0.41874-0.252-0.64062-0.1145-0.40903-0.071-0.7072-0.248-1.1602-0.3333-0.9-0.5484-1.4484-0.6484-1.6484-0.096-0.19268-0.2556-0.25956-0.3692-0.41797-0.063-0.10547-0.064-0.22754-0.1308-0.33203l-0.2012-0.30078c-0.018-0.0242-0.034-0.0571-0.049-0.0996l-0.051-0.0996c-0.053-0.0875-0.072-0.18828-0.053-0.30078 0.013-0.0515 0.045-0.0949 0.068-0.14258 0.3484-0.37413 0.7122-0.7625 1.2813-1.3574 1.1333-1.6333 1.8484-2.6992 2.1484-3.1992 0.7334-1.2333 1.2508-2.4 1.5508-3.5 0.1357-0.44108 0.123-0.72399 0.2285-1.1328 0.018-0.0691 0.053-0.0981 0.07-0.16797 0.2064-0.60911 0.3556-1.2428 0.4492-1.9004 0.01 5.2e-4 0.01-0.015 0-0.0488l0.1914-0.81836c0 6e-3 0.012 0.0112 0.012 0.0176v-0.0508l-0.012 0.0293c0.01-0.0752-0.068-0.1327-0.072-0.20508 0-0.0489 0.033-0.12567 0.035-0.17383 0.023-0.25323-0.1412-0.35661-0.2773-0.48242-0.019-0.0199 0-0.0468-0.024-0.0664 0-3e-3 -0.012-3e-3 -0.016-6e-3 -0.048-0.0322-0.022-0.12378-0.084-0.14453-0.075-0.0214-0.162 0.0462-0.2402 0.0488-0.058-0.0102-0.094-0.0493-0.1602-0.0488-0.1527 1.3e-4 -0.3019 0.0331-0.4492 0.0996h0.049c-0.389 0.21251-0.7479 0.18169-1.1269 0.31445-0.671 0.2145-1.3017 0.43985-2.3965 0.53516h-1.7754c-1.5573 6.7e-4 -2.6582-0.0323-3.3008-0.0996-0.5046-0.0398-1.6849-0.34286-2.6074-0.54492-0.8596-0.19633-1.4633-0.24348-2.5566-0.57422l-0.2852-0.0801c-0.018 0.0109-0.053 0.0109-0.1015 0l-0.084-0.05069c-1.5684-0.42005-2.8514-0.63711-3.8496-0.65039l-1.75 0.15039c-0.087 5e-3 -0.1707-0.0121-0.25-0.0508-0.081-0.0328-0.1468-0.0812-0.1993-0.14844-0.3787-0.50716-0.6791-1.4413-0.9004-2.8008v-0.1504l-0.1503-0.84958v0.0508c-0.1505-0.59284-0.5169-0.89323-1.0997-0.90039h-0.1992c-0.5809 0.0946-1.3963 0.3421-2.0898 0.50977-0.6858 0.12294-1.4078 0.29897-2.168 0.52929-0.017 5e-3 -0.026 5e-3 -0.043 0.01h-0.051c-0.057 0.0165-0.086 0.0535-0.1426 0.0703-0.8789 0.27599-1.7307 0.51286-2.707 0.92969-1.0437 0.44086-1.8024 1.1541-2.6856 1.748-0.3207 0.22108-0.818 0.31313-1.1133 0.55273v-0.0508c-0.2137 0.18528-0.3592 0.40011-0.5625 0.58984-0.4438 0.39065-0.8284 0.83758-1.2207 1.2774-1.2569 1.3842-2.3574 2.836-3.1172 4.4336-0.015 0.0337 0.021 0.0642 0.01 0.0977-0.1191 0.17807-0.2634 0.52072-0.3594 0.55273-0.6334 0.26667-1.5344 0.40039-2.7011 0.40039-0.3-0.0333-0.4493-0.1845-0.4493-0.45117 0.067-1.9667 0.2663-3.9492 0.5996-5.9492 0.7-4.0333 1.2174-6.5837 1.5508-7.6504 0.4223-1.2994 1.3565-3.5889 2.7285-6.7246 0.085-0.15686 0.1466-0.27956 0.2461-0.45703 0.5162-1.0982 1.3096-2.4161 2.5254-4.0684 1.4-1.9333 2.3322-3.3326 2.7989-4.1992l0.1-0.65039c0.033-0.23333 0.1844-0.34961 0.4511-0.34961l3.7989 0.29883c1.6 0.16667 2.7667 0.33333 3.5 0.5 0.5594 0.12908 0.9345 0.38193 1.4199 0.56055 0.8944 0.33681 1.7009 0.67325 2.2109 1.0137 0.7667 0.51942 1.6735 1.241 2.8692 2.377 1.539 1.1769 3.4217 1.8875 5.5312 2.2871 0.028 7e-3 0.041 5e-3 0.07 0.0117 0.9578 0.19492 1.7078 0.2957 2.25 0.30078 0.39 3e-3 0.7563-0.0471 1.0996-0.15039h0.049c0-7.3e-4 0.01-7e-3 0.01-8e-3 0.82 4e-3 1.5037 0.19426 2.3907 0.10742l0.2011-0.19922c0.062-0.167 0.049-0.30039-0.051-0.40039l-0.9492-0.65039c-2.0334-1.0667-3.7504-2.4988-5.1504-4.2988-0.8264-1.1287-1.6899-1.9684-2.541-2.9023-0.072-0.0845-0.084-0.11054-0.1601-0.19922-0.022-0.025-0.046-0.0377-0.068-0.0625-0.481-0.51657-0.943-1.1822-1.4316-1.6367-1.4-1.3667-3.6152-2.4829-6.6485-3.3496-0.3 0-0.5344-0.0174-0.7011-0.0508-0.3-0.1-0.2844-0.3655 0.051-0.79883 0.7667-1 1.2337-1.8682 1.4004-2.6016 0.3333-1.2667 0.4652-2.2318 0.3985-2.8984-0.1333-0.86666-0.1993-1.3512-0.1993-1.4512 0-0.6 0.1667-1.1 0.5-1.5 0.5578-0.67532 1.3881-1.3692 2.334-2.0703l2.8663-2.0293c1.3786-1.0087 2.5901-1.4392 3.6914-1.4941 0.3037-0.0383 0.6073-0.0682 0.9121-0.0606 0.4468 0.0221 0.9125 0.0493 1.6973 0.1543l2.6504 0.20117c0.2146-4.1e-4 0.6691-0.1327 0.9082-0.14648 0.2168-6e-3 0.5939 0.0597 0.791 0.0449 0.9333-0.0667 2.0496-0.24883 3.3496-0.54883 0.7667-0.2 1.8849-0.48294 3.3516-0.84961l0.5996-0.20117c0.3667-0.1 0.5663-0.28216 0.5996-0.54883 0.067-0.26667-0.067-0.45078-0.4004-0.55078-1.9333-0.6-3.3655-1.0496-4.2988-1.3496-0.7129-0.20366-1.1178-0.31754-1.6192-0.45898-1.4035-0.41101-2.8699-0.88009-4.6523-1.6504-0.8445-0.34742-1.7361-0.73073-2.3301-0.89063-0.4324-0.11688-0.8512-0.0325-1.2793-0.0879-0.4007-0.0609-0.7442-0.26204-1.1699-0.26172-0.2865 0-0.5497 0.0991-0.8301 0.125-0.1217 0.0118-0.2477-0.0422-0.3691-0.0254-0.1148 0.0169-0.2253 0.10852-0.3399 0.13086-0.3684 0.0646-0.754 0.0561-1.1113 0.16797-0.5088 0.18388-1.0116 0.57552-1.5176 0.85156-0.1261 0.073-0.2571 0.0685-0.3828 0.14844-0.033 0.022-0.2548 0.20181-0.3027 0.23633-0.3646 0.22926-0.7324 0.33833-1.0957 0.61523v0.0488c-0.616 0.51797-1.5327 1.3513-2.75 2.5l-0.1016 0.15039c0 0.0227-0.019 0.0257-0.033 0.0332-0.3114 0.20706-0.6113 0.4668-0.9668 0.4668-0.8666 0-1.3821 0.0174-1.5488 0.0508-1.2333 0.26667-2.0996 0.6-2.5996 1-0.1334 0.1-0.2012 0.0322-0.2012-0.20117-0.067-1.5667-0.4988-2.8671-1.2988-3.9004-0.8-1-1.7516-1.6667-2.8516-2-1.2333-0.33333-2.4-0.2151-3.5 0.35156-1.5 0.8-2.7829 2.0655-3.8496 3.7988-0.067 0.16667-0.1655 0.26745-0.2988 0.30078l-0.25-0.25c-0.5-0.9-0.9167-1.5512-1.25-1.9512-0.9334-1.1-2.0341-2.3151-3.3008-3.6484-0.1961-0.21154-0.4129-0.22176-0.6113-0.41016-0.7037-0.66439-1.302-1.1635-1.7891-1.4902-0.2779-0.17225-0.6023-0.19334-0.8965-0.3125-0.2229-0.0924-0.4266-0.37144-0.6523-0.4375-0.6-0.16667-1.35-0.2345-2.25-0.20117h-1.1016l-3.3633-0.19531zm27.85 5.75c1.0667 0.0333 2.0337 0.41706 2.9004 1.1504 0.8333 0.73333 1.3837 1.6345 1.6504 2.7012 0.3333 1.2 0.2829 2.0333-0.1504 2.5-0.9333 0.96667-1.4837 1.55-1.6504 1.75-0.9667 1.3667-1.6508 2.4829-2.0508 3.3496-0.6 1.3-0.8655 2.5829-0.7988 3.8496 0.033 0.0667 0.049 0.16745 0.049 0.30078s0.05 0.23216 0.1504 0.29883v0.40039h-0.1504c-1.1-0.56667-1.8984-1.0163-2.3984-1.3496-0.9334-0.53333-1.6504-1.1167-2.1504-1.75-0.7667-0.93333-1.1678-1.4178-1.2012-1.4512-0.4-0.56667-0.65-1.0996-0.75-1.5996-0.038-0.1916 0.041-0.41246 0.024-0.60938 0.031-0.10463 0.126-0.16629 0.1269-0.29101v-0.0488l0.051-0.45117c0.054-0.51802 0.01-0.92377-0.088-1.2812 0.6351-2.7821 1.7955-4.8736 3.4883-6.2676 0.9666-0.76667 1.9492-1.1678 2.9492-1.2012zm9.5879 5.3262c0.7417 0.0167 1.4117 0.19206 2.0117 0.52539 0.5104 0.26294 0.7424 0.60165 0.8008 0.98633v0.20703c-0.019 0.39871-0.1944 0.83866-0.6504 1.3555-0.7667 0.9-1.2337 1.9678-1.4004 3.2012-0.1 0.76667-0.067 1.9159 0.1 3.4492 0.1334 1.4667-0.3318 2.8504-1.3984 4.1504-0.6334 0.73333-1.6508 1.0492-3.0508 0.94922-1.3667-0.1-2.3996-0.51667-3.0996-1.25-1.3667-1.4667-2.0837-2.8504-2.1504-4.1504 0.033-1.6333 0.8008-3.4822 2.3008-5.5488 1.3-1.7667 2.6663-2.9178 4.0996-3.4512 0.8833-0.3 1.6958-0.4405 2.4375-0.42383zm-17.064 5.125c0.1999 0.23333 0.4152 0.6655 0.6485 1.2988 1.0334 1.7333 2.2834 3.0337 3.75 3.9004l2.6504 1.4004c0.5 0.26667 0.7343 0.61745 0.7011 1.0508 0 0.10448-0.1505 0.50771-0.3144 0.93945-0.08 0.13736-0.2163 0.0925-0.2871 0.25977 0 0.0612-0.015 0.11159-0.049 0.15039l-0.3497 0.44922c-0.016 0.0169-0.034 0.0344-0.051 0.0508-0.018 0.0187-0.023 0.0417-0.041 0.0606-0.3174 0.37251-0.514 0.72811-1.1093 1.1387-0.422 0.29105-0.6733 0.27351-1.0254 0.4375-0.4689 0.21853-0.8657 0.50717-1.5567 0.50781-0.9299-0.0435-1.6663-0.46172-2.1836-1.3047-0.011-0.0163-0.022-0.0245-0.033-0.041v4e-3c-0.014-0.0233-0.037-0.0288-0.051-0.0527-0.053-0.0856-0.1921-0.17917-0.2559-0.26562l-0.4941-0.58399c-0.01-0.0155-0.029-0.0329-0.053-0.0508l-0.2942-0.25024c-0.01 9e-5 -0.015-5e-3 -0.023-6e-3 -0.1836-0.16666-0.2591-0.32455-0.4786-0.49414-1.1667-0.86667-1.783-1.3337-1.8496-1.4004-0.9332-0.83333-1.3344-1.8837-1.2011-3.1504 0.1333-1.2 0.6333-2.2 1.5-3l1-0.84961c0.6333-0.5 1.1179-0.56589 1.4511-0.19922zm4.5586 47.775c0.2091 0.0308 0.3462 0.13279 0.5293 0.18945 0.7449 0.27519 1.3472 0.75 1.7793 1.4629 0.1601 0.33194 0.3558 0.63484 0.375 1.082 0.2454 1.0928 0.1655 2.3452-0.5156 3.8906-0.2667 0.63333-0.6174 1.0151-1.0508 1.1484-0.3666 0.1-0.8821 0.0516-1.5488-0.14844-0.4-0.1-0.8341-0.0341-1.3008 0.19922-0.2333 0.13333-0.617 0.40078-1.1504 0.80078l-0.25 0.19922c-0.1 0.0333-0.1988-0.0675-0.2988-0.30078-0.4667-1.2667-1.583-1.9663-3.3496-2.0996-0.9667-0.0667-2.3504-0.49883-4.1504-1.2988-0.6667-0.26667-1.2171-0.38489-1.6504-0.35156-0.4333 0-0.7337 0.0174-0.9004 0.0508-0.2667 0-0.4837 0.0504-0.6504 0.15039-0.1666 0.0333-0.2984 0.0663-0.3984 0.0996v-0.59961c0.1666-1.3667 1.0155-2.5508 2.5488-3.5508 1.4-0.86667 3.0841-1.0159 5.0508-0.44922 1.4 0.36667 2.7488 0.29883 4.0488-0.20117 1.0066-0.42703 1.9599-0.46063 2.8828-0.27344zm-20.633 2.7734c0.8-0.0667 1.7167 0.26667 2.75 1 1.1 0.73333 1.6504 1.4678 1.6504 2.2012 0 0.46667-0.5833 1.0171-1.75 1.6504-0.3667 0.16667-1.0159 0.29844-1.9492 0.39844-0.8667 0.0667-1.5178 0.25078-1.9512 0.55078-1.1 0.8-1.7163 1.7671-1.8496 2.9004-0.033 0.33333-0.049 1.3992-0.049 3.1992-1.3334-1.4333-2.9516-2.0671-4.8516-1.9004-2.0666 0.16667-3.4329 1.0349-4.0996 2.6016-0.1667 0.33333-0.3663 0.43216-0.5996 0.29883-0.3333-0.13333-0.5329-0.18372-0.5996-0.15039-0.2-0.4-0.5508-0.71589-1.0508-0.94922-0.6-0.23333-1.0496-0.41745-1.3496-0.55078-0.2-0.13333-0.3337-0.3-0.4004-0.5-0.2667-1.0333-0.2373-1.8667 0.1-2.5 0.3334-0.63333 1-1.1818 2-1.6484 0.7-0.33333 1.3841-0.85078 2.0508-1.5508 0.3667-0.43333 0.8996-1.1174 1.5996-2.0508 0.4998-0.59979 0.7479-0.80315 1.0801-1.1387 0.5055-0.48794 0.9539-0.74893 1.3808-0.92774 0.5475-0.25985 1.0902-0.55345 1.6895-0.43359 0.8667 0.16667 1.9171 0.1509 3.1504-0.0488 1.9333-0.3 2.9488-0.45117 3.0488-0.45117zm29.201 0.65043c0.7-0.0333 1.2833 0.20117 1.75 0.70117 0.1333 0.1 0.4996 0.6155 1.0996 1.5488 0.5 0.73333 1.2326 1.3671 2.1992 1.9004 0.6334 0.3 1.0849 0.88333 1.3516 1.75 0.2666 0.83333 0.2318 1.5504-0.1016 2.1504-0.2666 0.56667-0.4663 0.98333-0.5996 1.25-0.2333 0.5-0.5163 0.86628-0.8496 1.0996l-0.75 0.75c-0.3 0.13333-0.6663-0.0333-1.0996-0.5-0.5333-0.53333-0.9345-1.2174-1.2012-2.0508-0.1333-0.36667-0.2825-1.1167-0.4492-2.25-0.3-2-1.6333-2.9322-4-2.7988-1.2333 0.26667-2.2333 0.41589-3 0.44922 0.8667-1.2667 1.6496-2.1833 2.3496-2.75 0.9667-0.8 2.0675-1.2167 3.3008-1.25zm-21.963 2.4628c0.875-0.14167 1.7951 0.0371 2.7617 0.53711 1.2334 0.66667 2.6171 1.0504 4.1504 1.1504 0.8667 0.0667 1.5508 0.50078 2.0508 1.3008 0.5 0.76667 0.5833 1.5651 0.25 2.3984-0.1 0.23333-0.1833 0.58411-0.25 1.0508-0.067 0.46667-0.3341 0.74961-0.8008 0.84961l-1.0996 0.20117c-0.4333 0.3-0.7667 0.53255-1 0.69922-0.3333 0.26667-0.5833 0.6-0.75 1-0.6333-1.5667-0.9667-2.3671-1-2.4004-0.5-0.73333-1.1841-1.2159-2.0508-1.4492-2.3666-0.56667-4.0663-0.16745-5.0996 1.1992-0.5667 0.66667-1.3167 1.1667-2.25 1.5-1.1667 0.3-2.0329 0.51706-2.5996 0.65039-0.2 0.0667-0.3492 0.16745-0.4492 0.30078-0.4 0.4-0.7334 0.56667-1 0.5-0.2334-0.1-0.3671-0.40039-0.4004-0.90039-0.033-1.3-0.051-2.05-0.051-2.25 0.067-0.83333 0.3341-1.5504 0.8008-2.1504 0.6-0.76667 1.567-1.1504 2.9004-1.1504 1.2333 0 2.3651-0.55039 3.3984-1.6504 0.7834-0.78333 1.6133-1.245 2.4883-1.3867zm18.713 2.0879c1.5-0.2 2.5504 0.0325 3.1504 0.69922 0.4333 0.53333 0.6484 1.3667 0.6484 2.5 0 1.3 0.4341 2.3504 1.3008 3.1504 1.0667 1.1 1.5996 2.0671 1.5996 2.9004-0.033 0.8-0.5488 1.7496-1.5488 2.8496-0.5334 0.6-1.2349 1.0826-2.1016 1.4492-0.2333 0.1-0.5492-0.0492-0.9492-0.44922-0.2-0.2-0.5837-0.36667-1.1504-0.5-0.3-0.0667-0.3659-0.28372-0.1992-0.65039 0.3333-0.96667 0.2325-1.9337-0.3008-2.9004-0.5667-0.96667-1.3322-1.5984-2.2988-1.8984-0.5334-0.16667-1.4345-0.26745-2.7012-0.30078-1.1667-0.0333-2.0504-0.18255-2.6504-0.44922-0.6666-0.3-1.2655-0.71667-1.7988-1.25-0.067-0.0333-0.034-0.1845 0.1-0.45117 0.1333-0.33333 0.1992-0.55039 0.1992-0.65039 0.2-1 0.3512-1.6492 0.4512-1.9492 0.3-0.66667 0.8-1.1163 1.5-1.3496 0.1333-0.0667 0.3833-0.1345 0.75-0.20117 0.8333 0.26667 1.8333 0.28393 3 0.0508zm13.529 1.4551c1.2718-0.32505 2.3523 0.14325 3.2207 1.4941 0.5556 0.87973 1.1105 1.2002 1.666 1.8301 0.2596 0.29014 0.5311 0.7798 0.7852 0.9707 0.041 0.0277 0.098 0.0141 0.1386 0.041 0.3368 0.29784 0.673 0.90356 1.0098 1.1094 1.2 0.76667 2.1671 1.6988 2.9004 2.7988 0.2667 0.4 0.4333 1.1171 0.5 2.1504-0.1333 0.63333-0.4996 1.6333-1.0996 3-0.3334 0.9-0.5 1.9174-0.5 3.0508 0 2.2667-0.8179 3.7318-2.4512 4.3984-1.3667 0.56666-2.8996 0.71784-4.5996 0.45117-2.2-0.33333-3.8492-0.69961-4.9492-1.0996-0.2334-0.0667-0.3845-0.21784-0.4512-0.45117-0.067-0.26667-0.117-0.44883-0.1504-0.54883-0.2666-1.6 0.084-3.0012 1.0508-4.2012 0.4333-0.6 0.5826-1.4663 0.4492-2.5996-0.1666-1.1333-0.5155-1.9492-1.0488-2.4492-0.7333-0.73333-1.4504-1.2004-2.1504-1.4004-0.067 0-0.1-0.11628-0.1-0.34961 0.033-0.63333-0.083-1.3174-0.3496-2.0508-0.1-0.1-0.084-0.15039 0.049-0.15039 0.8333-0.23333 1.5175-0.73333 2.0508-1.5 0.1667-0.23333 0.5833-0.99883 1.25-2.2988 0.4671-0.96337 1.2527-1.595 2.2558-1.9961 0.1661-0.0757 0.3273-0.15678 0.5235-0.19922zm-30.73 2.8438c1.2 0.3 2.0004 0.86784 2.4004 1.7012 0.6 1.2 0.7512 2.3337 0.4512 3.4004-0.2667 0.86667-0.8675 1.7659-1.8008 2.6992-0.3333 0.33333-0.8663 0.64922-1.5996 0.94922l-1.8008 0.75c-1.4667 0.73333-2.3988 1.2333-2.7988 1.5-1 0.66666-1.7171 1.4341-2.1504 2.3008-0.5667 1.1667-1.5996 1.9341-3.0996 2.3008-0.8-0.2-1.3834-0.38411-1.75-0.55078-0.6334-0.26667-1.0345-0.71628-1.2012-1.3496-0.1-0.43333-0.067-0.88294 0.1-1.3496 0.6667-2 0.9671-3.6667 0.9004-5-0.067-1.4667 1.0671-2.8 3.4004-4 0.3667-0.16667 1.0663-0.38372 2.0996-0.65039 0.9333-0.2 1.633-0.46745 2.0996-0.80078 0.4667-0.33333 1.1682-0.89922 2.1016-1.6992 0.6333-0.43333 1.5151-0.50117 2.6484-0.20117zm-15.5 1.5c0.8 0.0333 2.1004 0.78333 3.9004 2.25 0.2333 0.16667-0.032 0.58333-0.7988 1.25-0.6334 0.56666-0.9182 1.2178-0.8516 1.9512 0.1 0.86667-0.032 1.9655-0.3984 3.2988-0.4334 1.5667-0.6679 2.6171-0.7012 3.1504-0.1333 1.2 0.5333 2.1012 2 2.7012 0.1667 0.1 0.4496 0.18333 0.8496 0.25 0.033 0.0333 0.1845 0.0818 0.4512 0.14844 0.1667 0 0.2325 0.0833 0.1992 0.25-0.3333 1-0.8992 1.3837-1.6992 1.1504-0.6333-0.13333-1.4008-0.13333-2.3008 0l-2.3496 0.30078c-0.5 0.0333-1.1163-0.0829-1.8496-0.34961-0.7333-0.3-1.2508-0.63333-1.5508-1-0.5667-0.76666-0.7837-1.6-0.6504-2.5 0.033-0.16667 0.3008-0.95156 0.8008-2.3516 0.2667-0.73333 0.3829-1.5667 0.3496-2.5l-0.2988-2.5c-0.4334-3.5667 1.1984-5.4 4.8984-5.5zm23.4 0.35157c0.4 0.2 0.9678 0.53334 1.7012 1 0.7 0.4 1.3492 0.58216 1.9492 0.54883 0.6667-0.0333 1.6337 0.0171 2.9004 0.15039 0.8333 0.0667 1.5329 0.51628 2.0996 1.3496 0.5333 0.86667 0.6671 1.6845 0.4004 2.4512-0.2333 0.56667-0.4833 0.88255-0.75 0.94922-0.2667 0.0667-0.7008-0.0671-1.3008-0.40039-0.7667-0.46667-1.7667-0.85039-3-1.1504-0.6-0.13333-1.6833-0.26511-3.25-0.39844-0.9333-0.0333-1.9159 0.05-2.9492 0.25-1.1 0.23333-1.9178 0.4-2.4512 0.5l-0.2988 0.0488 0.1504-0.25c0.6333-2 0.9666-3.0659 1-3.1992 0.1666-0.63333 0.6996-1.1663 1.5996-1.5996 0.8667-0.46666 1.5992-0.55 2.1992-0.25zm-33.924 0.5c1.0666 0.15 2.1413 0.53177 3.2246 1.1484 0.5667 0.33333 0.9329 0.63372 1.0996 0.90039 0.2667 0.36667 0.35 0.83372 0.25 1.4004-0.1 0.43333-0.083 0.96628 0.051 1.5996 0.033 0.33333 0.1321 0.85078 0.2988 1.5508 0.1333 0.73333 0.067 1.5667-0.1992 2.5-0.1667 0.5-0.4496 1.2655-0.8496 2.2988-0.3 0.9-0.1837 1.8845 0.3496 2.9512 0.5 1.1 1.1996 1.7822 2.0996 2.0488l0.6992 0.25c-1.3 0.53333-2.1333 1.5333-2.5 3-0.067 0.26667-0.2333 0.41784-0.5 0.45117h-0.6992c-1.5 0.3-2.7829 0.31577-3.8496 0.0488-0.8-0.13333-1.5675-0.64883-2.3008-1.5488-0.7333-0.86667-1.15-1.7174-1.25-2.5508-0.067-0.66667-0.4659-1.5988-1.1992-2.7988-0.7333-0.96666-1.2508-1.7012-1.5508-2.2012-0.5-0.9-0.6996-1.7837-0.5996-2.6504 0.033-0.33333 0.1826-0.73255 0.4492-1.1992 0.2667-0.53333 0.4334-0.91706 0.5-1.1504 0.4667-1.8333 0.7341-2.9671 0.8008-3.4004 0.1667-1.2 1-1.9984 2.5-2.3984 1.05-0.31667 2.1091-0.4 3.1758-0.25zm50.625 4.0488c0.033 0 0.1321 0.0174 0.2988 0.0508 1.3667 0.56667 2.1496 1.4988 2.3496 2.7988 0.1667 1.1667-0.1318 2.2849-0.8984 3.3516-0.7334 1.1333-0.8671 2.6488-0.4004 4.5488 0.3333 1.2667 0.5 2.1678 0.5 2.7012 0 1.0333-0.3333 1.8822-1 2.5488-0.2 0.2-0.5178 0.46745-0.9512 0.80078-0.4666 0.33333-0.8 0.59883-1 0.79883-0.3333 0.36667-0.6821 0.96745-1.0488 1.8008-0.4 0.86667-0.7663 1.4674-1.0996 1.8008-0.5667 0.63333-1.4834 1.0984-2.75 1.3984-1.2334 0.26667-2.2508 0.26667-3.0508 0-1.0667-0.36667-1.9659-0.86667-2.6992-1.5-0.5667-0.53333-1.4349-1.5488-2.6016-3.0488 1.2 0.36667 2.6671 0.18255 4.4004-0.55078 2.4-1.0667 4.0337-2.1829 4.9004-3.3496 1-1.3333 1.6667-3.0659 2-5.1992 0.3333-1.8 0-3.5171-1-5.1504-0.033-0.1-0.033-0.16784 0-0.20117 0.033-0.0333 0.2-0.11667 0.5-0.25 1.5667-0.76667 2.7004-1.7996 3.4004-3.0996 0.067-0.13333 0.117-0.21667 0.1504-0.25zm-15.797 0.91798c0.1331 5e-3 0.2619 0.0388 0.3945 0.0469 0.066 4e-3 0.1356-0.0185 0.2012-0.0137 0.1257 9e-3 0.2438 0.0718 0.3692 0.084 1.4519 0.14124 2.8851 0.42788 4.2812 0.96484l1.4492 0.55078c0.3 0.0667 0.3 0.20039 0 0.40039-0.3333 0.3-0.6163 0.73216-0.8496 1.2988-0.1 0.3-0.183 0.56745-0.25 0.80078-0.2667 0.63333-0.6329 1.1333-1.0996 1.5-0.5667 0.43333-1.15 0.69883-1.75 0.79883-0.5333 0.2-1.0333 0.45-1.5 0.75-0.5333 0.26667-1.0159 0.6-1.4492 1-0.3334 0.33333-0.6337 0.70156-0.9004 1.1016-0.066 0.13333-0.1174 0.26511-0.1504 0.39844-0.1 0.26667-0.2008 0.4333-0.3008 0.5s-0.2492 0.10156-0.4492 0.10156c-0.4 0.0333-0.8341-0.0171-1.3008-0.15039-0.6-0.0667-1.1833-0.0996-1.75-0.0996-0.4666 0-0.9163 0.0329-1.3496 0.0996-0.6 0.23333-1.1833 0.45039-1.75 0.65039-0.4 0.16667-0.8167 0.29844-1.25 0.39844-0.4333 0.1334-0.8655 0.15066-1.2988 0.0508-0.5334-0.2-1.0334-0.48294-1.5-0.84961-0.3334-0.3-0.6337-0.61784-0.9004-0.95117l-0.3008-0.29883c-0.7333-0.8-1.5822-1.4008-2.5488-1.8008 0.3498-0.88286 0.8681-1.6406 1.5508-2.2734 0.6834-0.63351 1.5316-1.1418 2.5488-1.5254 0.5333-0.2 1.7833-0.76784 3.75-1.7012 1.5-0.76667 2.7829-1.2492 3.8496-1.4492 0.825-0.175 1.6409-0.29131 2.4492-0.34961 0.6063-0.0438 1.2078-0.055 1.8047-0.0332zm8.7969 1.832c1.1333-0.0667 1.9996 0.66784 2.5996 2.2012 1.0333 2.4 0.7329 5.0492-0.9004 7.9492-0.5 0.93333-1.2674 1.7337-2.3008 2.4004-0.7 0.43333-1.7155 0.90039-3.0488 1.4004-1 0.43333-1.8837 0.63294-2.6504 0.59961-0.7333 0.16667-1.2004 0.0155-1.4004-0.45117-0.067-0.13333-0.1325-0.68177-0.1992-1.6484-0.1333-1.1667-0.55-2.0174-1.25-2.5508-0.1667-0.13333-0.2171-0.49961-0.1504-1.0996 0.1-0.46667 0.2492-0.91628 0.4492-1.3496 0.1334-0.36667 0.3504-0.6845 0.6504-0.95117 0.4667-0.4 0.9841-0.70039 1.5508-0.90039 0.5333-0.16667 1.0663-0.31589 1.5996-0.44922 0.4333-0.16667 0.8326-0.38372 1.1992-0.65039 0.3667-0.3 0.6845-0.66628 0.9512-1.0996 0.2333-0.33333 0.4329-0.69961 0.5996-1.0996 0.5-1.4333 1.2674-2.2008 2.3008-2.3008zm-24.213 6.9121c0.5417 0.19167 1.0625 0.60495 1.5625 1.2383l1 1.1992c0.2667 0.33333 0.4837 0.56784 0.6504 0.70117 0.6333 0.56667 1.3484 0.79922 2.1484 0.69922 0.1 0 0.2008-0.0155 0.3008-0.0488 0.4-0.16667 0.8167-0.31784 1.25-0.45117l1.5-0.69922c0.5333-0.16667 1.0837-0.33333 1.6504-0.5 0.5667 0 1.1325 0.0833 1.6992 0.25 0.5667 0.0667 1.1345 0.21589 1.7012 0.44922 0.4666 0.26667 0.8833 0.63294 1.25 1.0996 0.6666 0.83333 0.8818 1.8333 0.6484 3-0.2333 1.1667-0.8321 2.0174-1.7988 2.5508-1.5 0.86667-2.75 1.4171-3.75 1.6504-0.5667 0.13333-1.5512 0.23216-2.9512 0.29883-2.7 0.2-5.2484-0.61589-7.6484-2.4492-1.7667-1.3333-2.9179-3.1996-3.4512-5.5996-0.1333-0.5 0.084-1.1008 0.6504-1.8008 0.5667-0.73333 1.2004-1.2333 1.9004-1.5 0.5833-0.25 1.1458-0.27947 1.6875-0.0879zm34.037 2.5762c0.1833-0.14167 0.5254-0.12083 1.0254 0.0625 1.1667 0.5 2.0659 0.96706 2.6992 1.4004 0.8667 0.6 1.5333 1.3326 2 2.1992 0.5333 1.0667 0.2504 2.15-0.8496 3.25-0.5667 0.56667-0.9504 1.5841-1.1504 3.0508-0.2333 1.8333-0.617 3.0484-1.1504 3.6484-0.6666 0.7-1.9166 1.1341-3.75 1.3008-0.4 0.0333-1.1325 0.34922-2.1992 0.94922-1.4333 0.86666-3.0826 0.73489-4.9492-0.39844-1.1334-0.7-2.1004-1.95-2.9004-3.75-0.033-0.1-4e-4 -0.15039 0.1-0.15039 0.1-0.0333 0.4663-0.0508 1.0996-0.0508 2.7667 0.23333 4.7667-1.0671 6-3.9004 0.4-0.96667 1.2837-1.9667 2.6504-3 0.7667-0.6 1.2008-1.3984 1.3008-2.3984l0.049-0.65039c0.033-0.26667 0.018-0.48372-0.049-0.65039-0.1334-0.46667-0.1073-0.77044 0.074-0.91211zm-39.375 0.1113c0.3333 0.0667 0.4341 0.31667 0.3008 0.75-0.067 0.8 0.1 1.5674 0.5 2.3008 0.1 0.16667 0.5166 0.75 1.25 1.75 1.1333 1.5667 2.5151 2.7663 4.1484 3.5996 0.8334 0.4 1.1182 0.91745 0.8516 1.5508-0.1667 0.33333-0.4671 0.80039-0.9004 1.4004-0.5667 1.5333-1.4678 2.4151-2.7012 2.6484-1.1 0.23333-2.2996-0.0826-3.5996-0.94922-0.3-0.16667-0.7322-0.73255-1.2988-1.6992-0.5-0.8-1.25-1.5345-2.25-2.2012-1.2-0.66667-2.1012-1.1996-2.7012-1.5996-1.4-0.93333-2.117-2.0167-2.1504-3.25 0-1.4667 0.75-2.5674 2.25-3.3008 0.7334-0.36667 1.6171-0.61667 2.6504-0.75 0.3667-0.0667 1.2678-0.13255 2.7012-0.19922 0.1666 0 0.4825-0.0174 0.9492-0.0508zm-10.35 4.75c0.4-0.1 0.6829 7.8e-4 0.8496 0.30078 0.1 0.16667 0.2008 0.44961 0.3008 0.84961 0.3666 0.76667 0.95 1.4663 1.75 2.0996 0.4666 0.4 1.2321 0.9 2.2988 1.5 1.4 0.76666 2.5337 1.9178 3.4004 3.4512 0.4667 0.76667 1.3329 1.3655 2.5996 1.7988s2.3171 0.48372 3.1504 0.15039c0.6667-0.26667 1.2171-0.6155 1.6504-1.0488-0.4 0.9-0.933 2.2159-1.5996 3.9492-0.7 1.3667-1.6341 2.3163-2.8008 2.8496-1 0.46667-2.2326 0.43363-3.6992-0.0996-0.4667-0.2-1.0171-0.28333-1.6504-0.25-0.7667 0.0333-1.3345 0.0508-1.7012 0.0508-1.1116 0.0981-1.9335 0.12755-2.5 0.0977-0.051-2e-3 -0.087-0.0206-0.1367-0.0234-0.9217-0.046-1.7205-0.258-2.3633-0.67578-0.1245-0.0566-0.1702-0.0997-0.2715-0.15234-0.1975-0.12892-0.4031-0.24831-0.5742-0.40821-0.1973-0.19266-0.3317-0.41982-0.3027-0.73828 0-0.1-0.083-0.21628-0.25-0.34961-0.2-0.13333-0.3337-0.26706-0.4004-0.40039-0.8667-2.0667-2.0333-3.9329-3.5-5.5996-0.7-0.8-0.8512-1.8678-0.4512-3.2012s1.1345-2.2326 2.2012-2.6992c1.1333-0.53333 1.8504-0.89961 2.1504-1.0996 0.4-0.26667 1.0163-0.38489 1.8496-0.35156zm31.199 1.7012c0.3333-0.33333 0.6163-0.3003 0.8496 0.0996 1.3 2.1333 2.8679 3.6159 4.7012 4.4492 0.2667 0.13333 0.35 0.36784 0.25 0.70117 0 1.9333-0.5833 3.3655-1.75 4.2988s-2.6512 1.2337-4.4512 0.90039c-2.2-0.46667-4.2329-0.33294-6.0996 0.40039-1.9667 0.76667-3.5655 0.58255-4.7988-0.55078-1.0667-1.0333-1.6849-2.3996-1.8516-4.0996-0.067-1.4667-0.016-2.4337 0.1504-2.9004 0.1333-0.43333 0.3504-0.6155 0.6504-0.54883 0.1667 0.0333 0.3837 0.11667 0.6504 0.25 1.8667 0.43333 3.8337 0.43333 5.9004 0 1.9666-0.4 3.4996-1.0163 4.5996-1.8496zm6.7012 6.4492c1.4794 1.9831 2.1363 3.9016 2.0996 5.7656-0.01 0.17963 0.023 0.2162 0 0.44141-0.091 0.98849-0.4801 1.9101-1.25 2.7441-0.7667 0.86667-1.6504 1.3822-2.6504 1.5488-0.8667 0.16667-1.7504 0.73451-2.6504 1.7012-0.8667 0.93333-1.5488 1.5826-2.0488 1.9492-0.8667 0.56667-1.7679 0.86706-2.7012 0.90039-0.6 0-1.4837-0.40117-2.6504-1.2012-0.3076-0.22278-0.916-0.25761-1.3047-0.42969-0.098-0.0542-0.079-0.1739-0.1933-0.21875h0.051l-1.9004-0.5c-0.5395-0.12204-0.7549-0.28868-1.1875-0.42578-0.7359-0.18311-1.4808-0.47675-2.2637-1.1758-0.8329-0.80078-1.3559-1.6357-1.6348-2.498-0.037-0.0977-0.057-0.18093-0.086-0.27148-0.1155-0.49208-0.1997-1.1209-0.2305-1.9805-0.024-0.73545-0.086-1.1516-0.1465-1.5801-0.01-0.10833 0.01-0.20934 0-0.31836v-1.3008c0-0.0281-0.041-0.024-0.043-0.0508 0.124-0.50262 0.2083-0.91139 0.2402-1.1992 0.6333 1.4 1.3504 2.4 2.1504 3 1.5333 1.1667 3.4829 1.2829 5.8496 0.34961 1.5333-0.56667 3.1826-0.65 4.9492-0.25 1.5667 0.4 3.0337 0.28372 4.4004-0.34961 1.5333-0.7 2.5178-1.8996 2.9512-3.5996z"/>
 <g transform="translate(-1222 -186.3)">
  <path transform="translate(160.15,84.1)" d="m1066.8 102.2c-3.3333 0-5 1.6667-5 5v158.2c0 3.3333 1.6667 5 5 5h93.199c3.3333 0 5-1.6667 5-5v-158.2c0-3.3333-1.6667-5-5-5zm8.3008 7.1992h76.6c4.6667 0 7 2.3333 7 7v139.8c0 4.6667-2.3333 7-7 7h-76.6c-4.6667 0-7-2.3333-7-7v-139.8c0-4.6667 2.3333-7 7-7z" fill="#ef1d1e"/>
  <path transform="translate(160.15,84.1)" d="m1075.2 109.4c-4.6667 0-7 2.3333-7 7v139.8c0 4.6667 2.3333 7 7 7h76.6c4.6667 0 7-2.3333 7-7v-139.8c0-4.6667-2.3333-7-7-7z" fill="none" stroke="#000" stroke-width="1.2"/>
 </g>
</svg>
