<svg width="103.2" height="168.2" preserveAspectRatio="none" version="1.1" viewBox="0 0 103.2 168.2" xmlns="http://www.w3.org/2000/svg">
 <path d="m13.299 7.1992c-4.6667 0-7 2.3333-7 7v139.8c0 4.6667 2.3333 7 7 7h76.6c4.6667 0 7-2.3333 7-7v-139.8c0-4.6667-2.3333-7-7-7z" fill="#fff"/>
 <path d="m34.148 25.699c-0.76667 0-1.3655 0.36823-1.7988 1.1016-0.63333 0.9-0.73411 2.0492-0.30078 3.4492 0.53333 1.5 1.7833 3.0329 3.75 4.5996 0.4 0.4 0.86706 0.59961 1.4004 0.59961 0.23333 0 0.45039-0.0484 0.65039-0.14844 0.36667-0.16667 0.63216-0.41667 0.79883-0.75 0.16667-0.4 0.16667-0.81667 0-1.25 0.0333-0.13333 0.0333-0.3 0-0.5v-0.55078l-0.0488-0.40039-0.20117-0.75c-0.53333-2.3333-1.4984-3.9826-2.8984-4.9492-0.43333-0.3-0.8849-0.45117-1.3516-0.45117zm14.801 6.75-0.40039 0.0508h-0.0488l-0.80078 0.30078c-1.3333 0.76667-2.6492 2.2163-3.9492 4.3496l-0.0508 0.0488c-0.26667 0.46666-0.43333 0.81745-0.5 1.0508-0.3 0.9-0.13333 1.65 0.5 2.25 0.36667 0.3 0.78333 0.44922 1.25 0.44922 0.4 0 1.0008-0.19961 1.8008-0.59961l0.19921-0.0996c1.0667-0.56667 2.1829-1.7333 3.3496-3.5l0.5-0.75c0.53333-0.73333 0.63411-1.4833 0.30078-2.25-0.36667-0.7-1.0178-1.1341-1.9512-1.3008zm-18.35 5.2012c-1.2333 0-1.9174 0.75-2.0508 2.25-0.0333 0.2-3.3e-4 0.43255 0.0996 0.69922l0.20117 0.40039c0.83333 1.7 2.4671 2.95 4.9004 3.75 0.26667 0.1 0.58255 0.15039 0.94922 0.15039l1.0508-0.0508c0.46667-0.0667 0.84844-0.26628 1.1484-0.59961 0.26667-0.4 0.31706-0.83412 0.15039-1.3008l-0.0488-0.0996c-0.0667-0.33333-0.15-0.56589-0.25-0.69922-1.0333-1.7333-2.6845-3.1345-4.9512-4.2012-0.43333-0.2-0.83255-0.29883-1.1992-0.29883zm22 4.7988-1.0508 0.15039c-2.4 0.6-4.1171 2.0012-5.1504 4.2012l-0.5 0.94922c-0.26667 0.4-0.28234 0.83412-0.0488 1.3008 0.26667 0.46667 0.63294 0.71667 1.0996 0.75h0.0996l0.59961 0.0996h0.35156c2.6667-0.36667 4.7984-1.6167 6.3984-3.75 0.76666-1.1 0.78399-2.0845 0.0508-2.9512-0.43333-0.5-1.0496-0.75-1.8496-0.75zm-20.051 3.9004c-0.96667 0-1.6159 0.53294-1.9492 1.5996-0.2 0.86666-3.9e-4 1.6845 0.59961 2.4512 1.5667 2.1 3.7333 3.1504 6.5 3.1504h0.19922l0.40039-0.05078 0.15039-0.05078c0.4-0.1 0.68294-0.35 0.84961-0.75 0.16667-0.36667 0.16667-0.74844 0-1.1484v-0.05078c-0.0667-0.23333-0.18294-0.45039-0.34961-0.65039-1.8-2.1333-3.4996-3.5171-5.0996-4.1504l-0.0996-0.0488c-0.4-0.2-0.80117-0.30078-1.2012-0.30078zm53.801 5c-0.86667 0-1.7 0.36628-2.5 1.0996s-1.2671 1.5512-1.4004 2.4512l-0.15039 1.0488c-0.16667 0.76666-0.25 1.5341-0.25 2.3008v0.34961c-0.0667 1.1667 0.16784 1.9845 0.70117 2.4512 0.33333 0.26667 0.68216 0.39844 1.0488 0.39844 0.6 0 1.1174-0.38177 1.5508-1.1484l0.34961-0.35156c1.5333-1.8667 2.45-3.8667 2.75-6 0.13333-0.73333-3.9e-4 -1.3322-0.40039-1.7988-0.3-0.4-0.73216-0.65-1.2988-0.75zm-31.75 0.90039-0.30078 0.0508c-2.1 0.5-4.0322 1.7984-5.7988 3.8984-0.43333 0.53333-0.51667 1.0837-0.25 1.6504 0.26667 0.6 0.74922 0.90039 1.4492 0.90039h0.0508c2.9333-0.0667 5.133-0.96589 6.5996-2.6992l0.09959-0.0508c0.63333-0.76667 0.81745-1.5167 0.55078-2.25-0.43333-1-1.2008-1.5-2.3008-1.5zm-20.951 2.6504c-0.7 0-1.2484 0.23255-1.6484 0.69922-0.5 0.5-0.7345 1.1337-0.70117 1.9004 0 1.0333 0.63372 2.0004 1.9004 2.9004 1.0333 0.83333 2.0663 1.25 3.0996 1.25h0.40039l1.75 0.19922h0.15039l0.44922-0.0488h0.0508c0.46667-0.1 0.78255-0.31706 0.94922-0.65039 0.2-0.36667 0.25039-0.75039 0.15039-1.1504v-0.0508l-0.25-0.64844c-1.1-1.6333-2.7492-2.9841-4.9492-4.0508-0.53333-0.23333-0.98489-0.34961-1.3516-0.34961zm41.551 2.9492c-0.43333 0-0.85 0.13372-1.25 0.40039-0.6 0.46667-0.95078 1.1992-1.0508 2.1992v0.15039c0 1.1667 0.35078 2.4012 1.0508 3.7012s1.5159 2.2167 2.4492 2.75c0.33333 0.13333 0.61823 0.19922 0.85156 0.19922 0.43333 0 0.79961-0.14922 1.0996-0.44922 0.3-0.33333 0.46667-0.7345 0.5-1.2012v-0.29883c0.0667-0.63333 0.0492-1.2167-0.0508-1.75-0.16667-0.93333-0.43216-2.0341-0.79883-3.3008-0.53333-1.6-1.4345-2.4004-2.7012-2.4004zm-55.551 1.0996c-0.56667 0.0667-1.0822 0.30117-1.5488 0.70117-0.46667 0.43333-0.8 0.96628-1 1.5996-0.4 1.2667 0.0671 2.7841 1.4004 4.5508 1.5 1.9333 2.9167 2.8984 4.25 2.8984l0.25-0.0488c0.46667-0.0333 0.83294-0.2 1.0996-0.5s0.38294-0.66628 0.34961-1.0996v-0.45117c-0.53333-2.5-1.2329-4.4671-2.0996-5.9004-0.63333-1.1667-1.4512-1.75-2.4512-1.75zm35.951 3.1504-0.5 0.0508c-1.8333 0.4-3.2171 1.0337-4.1504 1.9004l-0.30078 0.25c-0.33333 0.2-0.56589 0.38216-0.69922 0.54883-0.56667 0.56667-0.71589 1.2004-0.44922 1.9004 0.33333 0.76667 0.93216 1.1504 1.7988 1.1504l0.80078-0.0996c0.2 0.0333 0.51589 0.0488 0.94922 0.0488 0.86667 0 1.9674-0.23255 3.3008-0.69922 0.9-0.26667 1.4988-0.76667 1.7988-1.5 0.26667-0.53333 0.25099-1.1341-0.0488-1.8008-0.23333-0.53333-0.56667-0.95-1-1.25-0.46667-0.33333-0.96667-0.5-1.5-0.5zm-21.9 2c-0.83333 0-1.4496 0.26745-1.8496 0.80078-0.4 0.56667-0.45039 1.2488-0.15039 2.0488 0.3 0.9 0.90078 1.6674 1.8008 2.3008s2.15 1.1992 3.75 1.6992l0.5 0.10156 0.39844-0.0508 0.45117 0.0508c0.63333 0 1.0829-0.2849 1.3496-0.85156 0.26667-0.63333 0.15039-1.2496-0.34961-1.8496l-0.0996-0.0488-1.1016-1.2012c-1.5-1.5-2.7984-2.4671-3.8984-2.9004l-0.45117-0.0996zm37.1 1.8496c-0.83333 0.16667-1.3333 0.70156-1.5 1.6016l-0.0488 0.0488-0.0508 0.34961c-0.1 1.0333 0.36706 2.3008 1.4004 3.8008 1.0667 1.5 2.0822 2.3837 3.0488 2.6504h0.0508c0.16667 0.1 0.41667 0.15039 0.75 0.15039 0.5 0 0.89922-0.18411 1.1992-0.55078 0.36667-0.5 0.4345-1.0504 0.20117-1.6504l-0.40042-1.1992c-0.26667-1.4-1.2008-2.9174-2.8008-4.5508-0.4-0.43333-0.9155-0.65039-1.5488-0.65039zm18.25 0.0508c-1.2333 0-2.5492 0.39922-3.9492 1.1992-0.63333 0.36667-0.95117 0.83372-0.95117 1.4004 0 0.6 0.31784 1.0845 0.95117 1.4512h0.0488c1.0333 0.66667 2.3008 1 3.8008 1h0.30078l0.44922 0.0488 1.5-0.19922c1.0667-0.0333 1.7508-0.56628 2.0508-1.5996 0.16667-1.1-0.21706-1.9178-1.1504-2.4512-0.96667-0.56667-1.9841-0.84961-3.0508-0.84961zm-72.1 3.9004c-0.4 0-0.73333 0.0659-1 0.19922-1 0.43333-1.6008 1.1329-1.8008 2.0996-0.2 1.1333 0.15078 2.1508 1.0508 3.0508 1.3333 1.3667 3.0833 2.0508 5.25 2.0508l2.3008-0.05078c0.3-0.0333 0.61589-0.13411 0.94922-0.30078l0.0996-0.0488c0.5-0.23333 0.76745-0.56667 0.80078-1 0.1-0.5-0.0163-0.91667-0.34961-1.25l-0.10156-0.15039-0.14844-0.15039c-1.1333-1.3667-2.7012-2.5663-4.7012-3.5996l-0.25-0.15039c-0.76667-0.46667-1.4663-0.69922-2.0996-0.69922zm37.9 1.7988-0.20117 0.0508c-2.1 0.23333-3.8655 0.9-5.2988 2l-0.30078 0.30078h-0.0488c-0.26667 0.33333-0.40039 0.69961-0.40039 1.0996 0.0667 0.4 0.24883 0.73333 0.54883 1 0.26667 0.26667 0.56706 0.41589 0.90039 0.44922l1.0508 0.30078c0.93333 0.26667 1.7163 0.40039 2.3496 0.40039 0.4 0 0.70039-0.0174 0.90039-0.0508 0.96667-0.23333 1.8-0.50078 2.5-0.80078 0.5-0.23333 0.86628-0.59961 1.0996-1.0996 0.23333-0.56667 0.25066-1.1171 0.0508-1.6504-0.33333-0.9-1.0678-1.4833-2.2012-1.75l-0.29883-0.0996c-0.2-0.1-0.41706-0.15039-0.65039-0.15039zm-15.85 1.1504c-1.8667 0-3.5004 0.93412-4.9004 2.8008-1.0667 1.3667-1.5337 2.6671-1.4004 3.9004 0.1 1 0.6 1.5 1.5 1.5 0.26667 0 0.53411-0.0678 0.80078-0.20117l1.3496-0.59961c1.0667-0.46667 1.7837-0.8 2.1504-1 1.3333-0.63333 2.2984-1.6508 2.8984-3.0508l0.10156-0.54883c-0.0333-1.1-0.38411-1.8829-1.0508-2.3496-0.4-0.3-0.86706-0.45117-1.4004-0.45117zm29 0c-0.9 0-1.6016 0.46706-2.1016 1.4004-0.6 1.1-0.633 2.1329-0.0996 3.0996 1.4333 2.4667 3.1 3.9996 5 4.5996l0.45117 0.10156c0.26667 0 0.53216-0.0833 0.79883-0.25 0.4-0.3 0.59961-0.66823 0.59961-1.1016v-0.59961c-0.1-1.0667-0.43334-2.1655-1-3.2988-0.33333-0.63333-0.88177-1.5171-1.6484-2.6504l-0.0508-0.0508c-0.43333-0.73333-0.96628-1.1326-1.5996-1.1992zm19 0.20117-0.80078 0.0488c-1.4 0.23333-2.5008 0.58411-3.3008 1.0508-0.4 0.2-0.65 0.51589-0.75 0.94922-0.0667 0.46667 0.0341 0.85039 0.30078 1.1504 0.53333 0.66667 1.3008 1.1841 2.3008 1.5508 0.86667 0.3 1.7484 0.44922 2.6484 0.44922 1.0333 0 1.9171-0.23255 2.6504-0.69922 0.6-0.43333 0.90039-1.0341 0.90039-1.8008 0.0667-0.73333-0.20078-1.2992-0.80078-1.6992-0.93333-0.66666-1.9818-1-3.1484-1zm-67 6.1484c-0.86666 0-1.5682 0.26745-2.1016 0.80078-0.4 0.36667-0.59961 0.83372-0.59961 1.4004-0.1 1.2667 0.45039 2.3326 1.6504 3.1992 1.4667 1.1 3.1508 1.6504 5.0508 1.6504 0.63333 0 1.3659-0.0833 2.1992-0.25 1.1-0.26667 1.7841-0.79961 2.0508-1.5996 0.26667-0.6 0.0651-1.1678-0.60156-1.7012l-0.5-0.39844-0.39844-0.25c-2.5-1.5-4.4167-2.4012-5.75-2.7012zm64 1.0508c-1.1667 0-2.3508 0.21706-3.5508 0.65039l-0.5 0.15039c-0.4 0.16667-0.68294 0.44961-0.84961 0.84961-0.16667 0.46667-0.13366 0.86589 0.0996 1.1992 0.2 0.4 0.45 0.68294 0.75 0.84961l0.40039 0.25c1.9333 1.0667 3.6155 1.6016 5.0488 1.6016h0.40039l0.25-0.0508h0.0508c1.2333-0.23333 1.9504-0.95039 2.1504-2.1504 0.1-0.86667-0.0841-1.5837-0.55078-2.1504-0.46667-0.56667-1.1663-0.9155-2.0996-1.0488zm-3.8516 7.1504-2.6484 0.5c-0.36667 0.0667-0.6845 0.24883-0.95117 0.54883s-0.38294 0.65078-0.34961 1.0508c0.0667 0.56667 0.28372 0.98333 0.65039 1.25 1.7 1.4 3.5488 2.0996 5.5488 2.0996h0.45117l0.19922-0.0488c1.6 0 2.5167-0.61823 2.75-1.8516 0.13333-0.6-3.9e-4 -1.1659-0.40039-1.6992-0.36667-0.5-0.89961-0.88372-1.5996-1.1504-0.63333-0.2-1.3833-0.36667-2.25-0.5l-0.84961-0.19925zm4.8516 28.6c-1.8333 0.0333-3.3333 1.0159-4.5 2.9492-0.63333 1.0333-1.1837 2.6167-1.6504 4.75l-0.25 0.90039c-0.1 0.53333 0.0337 0.98294 0.40039 1.3496 0.33333 0.26667 0.66667 0.40039 1 0.40039l0.34961-0.0996c0.5-0.13333 0.96706-0.35039 1.4004-0.65039l0.44922-0.25c2.4667-1.2333 4.1508-2.7159 5.0508-4.4492l0.0996-0.20117c0.26667-0.6 0.43333-1.0322 0.5-1.2988 0.13333-0.63333 0.05-1.2167-0.25-1.75-0.56667-1.1-1.4-1.6504-2.5-1.6504zm-10.951 1.9004c-1.0333 0-1.8822 0.5155-2.5488 1.5488-1.3667 2.2333-1.8337 4.5841-1.4004 7.0508l0.25 0.75 0.0996 0.0996c0.16667 0.5 0.51745 0.80039 1.0508 0.90039h0.19923c0.46667 0 0.81745-0.14922 1.0508-0.44922l0.0996-0.15039 0.40039-0.45117 0.75-1.0488c0.73333-1.0333 1.2488-1.8512 1.5488-2.4512 0.46667-1.0333 0.71667-2.0818 0.75-3.1484 0.0667-0.63333-0.0496-1.1837-0.34961-1.6504-0.26667-0.46667-0.68333-0.7845-1.25-0.95117zm-8.75 4.1992c-0.43333 0-0.85 0.10078-1.25 0.30078-1.9333 1.1-2.9333 3.0826-3 5.9492-0.0667 0.4-0.0163 0.95039 0.15039 1.6504l0.15039 0.5c0.0333 1.3 0.56628 1.9667 1.5996 2 0.43333 0 0.81706-0.16667 1.1504-0.5 2.1667-2.0333 3.2829-4.5333 3.3496-7.5 0-0.73333-0.23255-1.3341-0.69922-1.8008-0.4-0.4-0.8845-0.59961-1.4512-0.59961zm-8.9004 3c-0.93333 0-1.6988 0.5-2.2988 1.5-0.53333 0.83333-0.98294 2.1163-1.3496 3.8496l-0.20117 1.0508c-0.26667 0.96667-0.1 1.8504 0.5 2.6504 0.23333 0.33333 0.56667 0.53294 1 0.59961h0.15039c0.33333 0 0.64922-0.11628 0.94922-0.34961l0.15039-0.20117c0.3-0.2 0.51706-0.39961 0.65039-0.59961l1-1.6992c1.0333-1.5 1.5508-2.8837 1.5508-4.1504l-0.05078-0.0996 0.05078-0.15039c0-0.46667-0.0504-0.85039-0.15039-1.1504-0.26667-0.7-0.79961-1.0992-1.5996-1.1992zm27 3.2012-0.19922 0.0488h-0.30078l-0.0996 0.0508c-0.9 0.1-1.5163 0.40039-1.8496 0.90039-0.43333 0.66667-0.416 1.3159 0.0508 1.9492 0.13333 0.2 0.36589 0.43255 0.69922 0.69922l0.0996 0.0508 1.25 1.0996 0.0996 0.0508c1.4333 1.2 2.8016 1.7988 4.1016 1.7988h0.14844c0.6-0.0333 1.1349-0.23294 1.6016-0.59961 0.43333-0.4 0.69883-0.9 0.79883-1.5 0.23333-1.2667-0.40039-2.3829-1.9004-3.3496-1.2333-0.8-2.7333-1.1992-4.5-1.1992zm-6.75 5.5996c-0.76667 0-1.2996 0.28294-1.5996 0.84961s-0.28267 1.15 0.0508 1.75c1.2667 2.2 2.8171 3.7659 4.6504 4.6992 0.53333 0.26667 1.0488 0.40039 1.5488 0.40039 0.8 0 1.4667-0.28294 2-0.84961 0.5-0.53333 0.75-1.2329 0.75-2.0996v-0.34961c-0.1-0.33333-0.18333-0.55039-0.25-0.65039-0.6-1.1667-1.4837-2.0329-2.6504-2.5996-0.63333-0.3-1.6663-0.60039-3.0996-0.90039l-0.94922-0.20117zm-6.7988 4.3496c-0.53333 0-0.95 0.19961-1.25 0.59961-0.3 0.5-0.36784 0.98451-0.20117 1.4512 0.83333 2.9333 2.2849 4.9818 4.3516 6.1484 0.53333 0.26667 0.99844 0.40039 1.3984 0.40039 1.1667 0 1.9341-0.64922 2.3008-1.9492 0.16667-0.4 0.10078-0.80117-0.19922-1.2012 0-0.33333-0.0833-0.64922-0.25-0.94922-0.9-1.9-2.6016-3.2992-5.1016-4.1992v-0.05078c-0.5-0.16667-0.84883-0.25-1.0488-0.25zm-7.2012 4.0508c-0.53333 0-0.93255 0.19961-1.1992 0.59961-0.33333 0.43333-0.41667 0.93333-0.25 1.5l0.0508 0.19922c0.4 1.4667 0.79922 2.5829 1.1992 3.3496 0.66667 1.2333 1.5659 2.1674 2.6992 2.8008l0.15039 0.0508c0.5 0.33333 0.96706 0.5 1.4004 0.5 0.23333 0 0.51628-0.0678 0.84961-0.20117 0.5-0.23333 0.88372-0.56667 1.1504-1 0.23333-0.4 0.31667-0.79922 0.25-1.1992l-0.0508-0.45117-0.19922-0.89844c-0.93333-2.1667-2.6833-3.8682-5.25-5.1016-0.23333-0.1-0.50078-0.14844-0.80078-0.14844z" fill="#ef1d1e"/>
 <path d="m38.049 34.4c-0.2333 0-0.38252 0.0988-0.44922 0.29883l-0.0508 0.35156c0.067 0.4 0.16748 0.76628 0.30078 1.0996l0.34961 0.75 0.0508 0.19922 0.94922 1.5996c0.2 0.6 0.45 1.2667 0.75 2 0.6333 1.7333 1.0675 3.0512 1.3008 3.9512l0.39844 1.0996v0.15039l-0.14844-0.0508-0.65039-0.40039c-0.6667-0.3-1.2345-0.55-1.7012-0.75l-0.5-0.25-0.44922-0.1992c-0.1333-0.0667-0.24961-0.13255-0.34961-0.19922-0.067-0.0333-0.11709-0.05078-0.15039-0.05078l-0.30078-0.15039-0.44922-0.15039c-0.1667-0.0667-0.31592-0.0318-0.44922 0.10156-0.2333 0.16667-0.28369 0.34883-0.15039 0.54883 0.067 0.1 0.20039 0.21628 0.40039 0.34961l0.94922 0.40039 0.94922 0.55078 0.40039 0.0996 1.3496 0.80078 1.2012 0.39844 0.29883 0.10156v0.0488c0.2 1.0333 0.56826 2.5837 1.1016 4.6504 0.033 0.13333 0.0488 0.81745 0.0488 2.0508-0.6-0.16667-0.94883-0.28489-1.0488-0.35156-0.2-0.13333-0.73486-0.34844-1.6016-0.64844-0.4667-0.16667-0.83291-0.38372-1.0996-0.65039-0.3 0.4-0.4667 0.65-0.5 0.75-0.033 0.1-0.0488 0.19883-0.0488 0.29883 1 0.23333 1.9167 0.60156 2.75 1.1016 0.2333 0.13333 0.63252 0.28255 1.1992 0.44922 0.4333 0.2 0.66592 0.56628 0.69922 1.0996l0.25 4.8008c0.033 0.6 0.033 0.94883 0 1.0488-0.1 0.26667-0.44883 0.20078-1.0488-0.19922-0.2-0.16667-0.63408-0.36628-1.3008-0.59961-0.5667-0.23333-0.95039-0.46784-1.1504-0.70117-0.1-0.13333-0.19883-0.24961-0.29883-0.34961h-0.55078l-0.0996 0.09965c-0.067 0.13333-0.0996 0.3-0.0996 0.5l0.25 0.40039 0.79883 0.59961c0.3667 0.13333 0.90156 0.35039 1.6016 0.65039 1.1667 0.4 1.8333 1.0841 2 2.0508 0.033 0.33333 0.0143 0.68216-0.0527 1.0488-0.1 0.56666-0.16592 1.3671-0.19922 2.4004-0.033 0.26667-0.0508 0.54961-0.0508 0.84961 0 1.2667-0.066 2.2667-0.19922 3-0.033 0.0667-0.0508 0.1345-0.0508 0.20117l-0.5-0.34961c-0.8333-0.46666-1.4496-0.83489-1.8496-1.1016-0.5333-0.3-0.96748-0.61589-1.3008-0.94922l-0.40039 0.0508c-0.067 0.1-0.11514 0.19883-0.14844 0.29883-0.033 0.13333-0.068 0.3-0.10156 0.5 0.033 0.0333 0.10117 0.13411 0.20117 0.30078l0.15039 0.0996 0.0488 0.0996c0.2333 0.1 0.46787 0.21628 0.70117 0.34961 0.4 0.2 0.96592 0.56823 1.6992 1.1016 0.1667 0.1 0.44961 0.23177 0.84961 0.39844 0.3333 0.13333 0.5 0.31745 0.5 0.55078-0.033 0.63333-0.099 1.4337-0.19922 2.4004-0.067 0.8-0.18291 1.7167-0.34961 2.75-0.2 1.6-0.60117 3.9663-1.2012 7.0996-0.1667 0.96667-0.8333 3.6838-2 8.1504-0.1 0.4-0.24922 0.88255-0.44922 1.4492-0.2 0.53333-0.45 1.1671-0.75 1.9004-0.033 0.13333-0.084 0.31745-0.15039 0.55078-0.1 0.16667-0.21631 0.2655-0.34961 0.29883-0.1 0.0333-0.15039-0.0325-0.15039-0.19922 0.033-0.23333 0.033-0.36706 0-0.40039-0.5-1.4-0.9167-2.6171-1.25-3.6504-0.3667-1.0667-0.66709-1.9659-0.90039-2.6992-0.2333-0.76667-0.59961-1.7667-1.0996-3-0.2667-0.66667-0.49922-1.2345-0.69922-1.7012-0.2333-0.56667-0.4-0.98333-0.5-1.25-0.3333-0.7-0.53486-1.2329-0.60156-1.5996-0.1333-0.6 0.1167-1.1833 0.75-1.75 0.1333-0.13333 0.3-0.26706 0.5-0.40039l0.10156-0.19922 0.10156-0.15039-0.0527-0.0488v-0.05081l-0.15039-0.15039v-0.09961l-0.0488-0.0508c-0.166-0.0332-0.30039-0.0663-0.40039-0.0996h-0.0996c-0.1 0.13333-0.21631 0.2845-0.34961 0.45117-0.5333 0.56667-0.83369 0.93294-0.90039 1.0996-0.3667-0.46667-0.6167-0.83294-0.75-1.0996l-2.4004-5.1016c-0.8667-1.8-1.6496-3.2826-2.3496-4.4492-0.3667-0.56667-0.7-1.0667-1-1.5l-0.40039-0.44922-0.0508-0.15039-0.19922-0.34961-0.0996-0.70117v-0.0488l-0.20117-0.25c-0.1667-0.1-0.34883-0.13489-0.54883-0.10156-0.2 0.0667-0.30078 0.21784-0.30078 0.45117-0.033 0.1 0.017 0.24922 0.15039 0.44922l0.25 0.40039c0.1667 0.33333 0.35078 0.60078 0.55078 0.80078l0.14844 0.14844c0.3 0.46666 0.6333 1.0849 1 1.8516 0.4 0.7 0.95039 1.7659 1.6504 3.1992l0.84961 1.5996-1.9492-0.40039c-0.2333-0.0667-0.59961-0.15-1.0996-0.25-0.2-0.0333-0.38408-0.0818-0.55078-0.14844h-0.44922l-0.0996 0.0996c-0.067 0.1-0.13447 0.18333-0.20117 0.25 0 0.2 0.05 0.34922 0.15039 0.44922 0 0.0333 0.083 0.0837 0.25 0.15039l0.30078 0.19922h0.0488c0.4667 0.0667 1.0171 0.20039 1.6504 0.40039l1.0508 0.30078c0.2333 0.0667 0.46592 0.15 0.69922 0.25h0.5c0.2 0.0333 0.33369 0.13216 0.40039 0.29883l2.9492 6.9004h-0.25l-2.6992-1.0488c-0.4-0.16667-0.78369-0.35078-1.1504-0.55078h-0.0996l-0.15039 0.0996v0.0508c0 0.3 0.066 0.63333 0.19922 1 0.067 0.0333 0.15 0.0837 0.25 0.15039 0.1 0.0333 0.2667 0.0818 0.5 0.14844 0.1667 0.0333 0.28486 0.10117 0.35156 0.20117l2.3984 0.84961c0.1 0.0333 0.23369 0.0663 0.40039 0.0996 0.1 0.0333 0.21631 0.0508 0.34961 0.0508 0.3333 0.0667 0.53486 0.21589 0.60156 0.44922l2.5996 7.3496c0.2333 0.6 0.4833 1.5012 0.75 2.7012 0.3333 1.0667 0.78291 1.9 1.3496 2.5v0.25c-0.6 1.2-1.4159 3.0488-2.4492 5.5488-1.8333 3.8332-3.3837 6.9012-4.6504 9.2012-0.5667 1.0667-1.4833 2.6326-2.75 4.6992l-1.75 2.7012-0.7012-2.3008c-0.7667-2.3667-1.2163-3.9171-1.3496-4.6504-0.2667-0.6-0.44883-1.0496-0.54883-1.3496-0.2333-0.56667-0.18486-1.0337 0.14844-1.4004 0.1333-0.16667 0.28447-0.30039 0.45117-0.40039l0.10156-0.19922 0.84961-1.3008c0.3333-0.53333 0.65117-0.84922 0.95117-0.94922 0.2513-0.0935 0.39396-0.31881 0.63086-0.42969 0.044 6e-3 0.0689 0.0283 0.11914 0.0293 0.1247-3e-3 0.24101-0.0356 0.34961-0.0996 0.061-0.0213 0.11119-0.0388 0.15039-0.0508l0.19922-0.0996c0.3737-0.22268 0.79335-0.78348 1.1856-1.1426 0.2926-0.25402 0.70574-0.36144 0.96484-0.65625 0.8-0.93333 1.3659-1.7337 1.6992-2.4004 0.033-0.0608 0.013-0.12459 0.043-0.18555 0.021-0.0413 0.089-0.12586 0.10742-0.16406 0.1864-0.42561 0.16556-0.8673 0.22656-1.3027 0.072-0.4002 0.30144-0.79111 0.27344-1.1973 0-0.53333-0.19961-0.86667-0.59961-1-0.289-0.10321-0.57809-0.0246-0.86719 0-0.053-7e-3 -0.074-0.0513-0.13281-0.0508-0.064 2e-3 -0.13658 0.0335-0.20508 0.0508-0.065 0.0168-0.13021-0.0232-0.19531 0-0.2667 0.1-0.66592 0.31511-1.1992 0.64844-1.3 0.83333-2.2671 1.6512-2.9004 2.4512-0.8333 1.0333-1.2675 2.2329-1.3008 3.5996 0 0.26667 0.083 0.68333 0.25 1.25 0.067 0.46667-0.067 0.86589-0.40039 1.1992-0.067 0.0667-0.41553 0.55117-1.0488 1.4512l-0.30078 0.40039-0.25-0.45117-1.5996-4.25c-0.4333-0.93333-0.58252-1.4488-0.44922-1.5488 0.2667-0.23333 0.4333-0.55117 0.5-0.95117 0.033-0.0667 0.0656-0.38255 0.0996-0.94922 0.1-2.7333-0.46787-5.0337-1.7012-6.9004-0.3-0.43333-0.74961-0.83255-1.3496-1.1992-0.7333-0.4-1.2837-0.71784-1.6504-0.95117-0.7333-0.43333-1.2817-0.23372-1.6484 0.59961-0.9667 2.1-0.9667 4.1174 0 6.0508 0.6667 1.4667 1.2325 2.4841 1.6992 3.0508 0.2219 0.29905 0.58444 0.3405 0.83984 0.57813l0.50977 0.7207c0.2257 0.31563 0.559 0.48229 1 0.5l0.20898-0.0332c0.1317 0.0454 0.2046 0.19908 0.3418 0.23437 0.1667 0 0.28291 0.0659 0.34961 0.19922l1.1504 3c0.1667 0.63333 0.5 1.6663 1 3.0996 0.4667 1.3 0.76709 2.3174 0.90039 3.0508l0.14844 0.34961-0.34961 0.0508-0.0996-0.0508c-0.2-0.13333-0.46748-0.19922-0.80078-0.19922h-0.79883c-0.7333-0.0667-1.1345-0.20039-1.2012-0.40039-0.076-0.15958-0.29644-0.22301-0.39844-0.36523-0.035-0.094 0.0212-0.19341-0.0508-0.28516l-0.44922-0.44922c-0.1-0.067-0.35399-0.0806-0.46289-0.14453-0.1605-0.0979-0.20357-0.27401-0.38867-0.35547-1-0.3-1.75-0.55-2.25-0.75-0.6832-0.2505-1.2913-0.26432-1.9121-0.3164-0.2504-0.0423-0.32299-0.14629-0.58789-0.1836h-0.25c-0.033 3e-3 -0.0656 3e-3 -0.0996 0l-0.25-0.0508h-0.15039c-0.1807 6.7e-4 -0.3474 0.0336-0.5 0.0996l-1.6992 0.70117c-0.2198 0.10612-0.3865 0.27279-0.5 0.5l-0.0488 0.52539c-0.041 0.0688-0.11349 0.1-0.15039 0.17383-0.044 0.0886 0.03 0.11801 0 0.19922l-0.0527 0.10156c-0.1065 0.20935 0.0337 0.34062 0.0527 0.50977 0.03 0.11433-0.086 0.30224 0 0.38867 0.014 0.0159 0.029 0.0194 0.043 0.0352 0.016 0.0177-0.0132 0.0494 0.01 0.0664l0.0508 0.0488c0.1861 0.17857 0.38562 0.24455 0.57422 0.40234 1.3777 1.3292 2.8238 2.1063 4.375 2.0488 1.2333-0.1 2.3671-0.31706 3.4004-0.65039 0.3667-0.13333 0.88408-0.40078 1.5508-0.80078 0.6333-0.26667 1.1992-0.31706 1.6992-0.15039 0.2333 0.0667 0.68291 0.0667 1.3496 0 0.3667 0.0667 0.63408 0.31667 0.80078 0.75 0.2 0.8 0.54883 1.9841 1.0488 3.5508 0.1 0.3 0.26671 0.76706 0.5 1.4004 0.1333 0.56667 0.1007 1.0163-0.0996 1.3496l-7 10.301-0.29883-0.60156c-0.1667-0.36667-0.30039-0.63216-0.40039-0.79883-0.1333-0.33333-0.16797-0.58333-0.10157-0.75 0.7333-1.9667 0.83213-3.8678 0.29883-5.7012-0.1505-0.48693-0.43836-0.87942-0.66406-1.3144-0.039-0.0775-0.0751-0.15599-0.11719-0.23243-0.6184-1.1023-1.3948-2.0954-2.5176-2.8516-0.018-0.0117-0.0289 5e-3 -0.0469-6e-3 -0.1488-0.11939-0.19522-0.27885-0.35352-0.39453l-0.0508-0.0508c-0.1281-0.10156-0.2948-0.15195-0.5-0.15039-0.1865 0.0131-0.41902 0.0965-0.69922 0.25-0.08 0.13789-0.13039 0.27162-0.15039 0.40039-0.017 0.11601-0.067 0.21679-0.15039 0.30078-0.094 0.11471-0.16032 0.28138-0.19922 0.5l-0.0352 0.33789c-0.062 0.14486-0.22313 0.19834-0.26563 0.36133-0.1 0.4-0.15039 1.0667-0.15039 2 0.067 1.6667 0.50078 3.1996 1.3008 4.5996 0.5023 0.85808 1.096 1.1143 1.6641 1.5391 0.1621 0.14595 0.26044 0.38449 0.43554 0.51172l0.29492 0.16211c0.092 0.0362 0.16226 0.21245 0.25586 0.23828 0.5 0.13333 0.9167 0.58294 1.25 1.3496 0.3667 0.76667 0.40127 1.35 0.10157 1.75l-5.6992 7.9492c-1.4333 1.9333-2.3171 3.1349-2.6504 3.6016l-4.75 6.7988c-1.1843 1.9243-1.4147 3.9147 0.15037 2.3496 1.5-1.5667 2.3992-2.4833 2.6992-2.75 1.5667-1.3333 3.7159-2.5 6.4492-3.5 0.3333-0.1 0.86827-0.38294 1.6016-0.84961 0.6667-0.3 1.2829-0.19922 1.8496 0.30078 0.2 0.2 0.51592 0.41706 0.94922 0.65039 0.2483 0.1806 0.32855 0.45425 0.43945 0.71094-0.01 0.0129-0.0191 0.0261-0.0391 0.0391-0.038 0.16732-0.0202 0.31654 0.0508 0.44922v0.0508c0.1698 0.41255 0.44701 0.72366 0.66211 1.0938 0.3712 0.91006 0.85599 1.707 1.5879 2.2559l2.0488 1.4492c1.5333 1 3.2175 1.4671 5.0508 1.4004 1.1333-0.1 1.4996-0.45078 1.0996-1.0508-0.2333-0.33333-0.50079-0.83334-0.80079-1.5-0.33329-0.7-0.59882-1.2-0.79882-1.5-0.064-0.10878-0.15911-0.1437-0.22461-0.24805l-0.0254-0.0508c-0.081-0.15356-0.24919-0.20547-0.33789-0.34961-0.6751-0.9567-1.3952-1.8105-2.2559-2.3379-0.174-0.0986-0.42718-0.10669-0.61328-0.19141-0.8266-0.4002-1.6595-0.78396-2.6426-0.82226-0.2652-0.0221-0.44009 0.0213-0.67969 0.0176-0.1048-6e-3 -0.16448-0.0634-0.27148-0.0664-0.07 1.9e-4 -0.081 0.0664-0.14258 0.0762-0.3154 0.0106-0.69263-0.0232-0.95703 0.0234-0.1667 0.0333-0.43409-0.10039-0.80079-0.40039-0.43329-0.33333-0.78212-0.53294-1.0488-0.59961l3.3496-1.0996c3-1.0333 5.6492-1.7 7.9492-2 0.3-0.0333 0.75157-0.11667 1.3516-0.25l0.0488 0.0996 1.0508 1.1992c0.4 0.5 0.59961 1 0.59961 1.5 0 0.14815 0.0234 0.17162 0.0254 0.30859 0 0.0168-0.0244 0.0259-0.0254 0.043-0.01 0.0523 0.0421 0.0964 0.0391 0.14844 0.021 0.8427 0.0531 1.6266 0.16015 2 0.1284 0.35762 0.45902 0.62545 0.63282 0.96289 0.079 0.13945 0.025 0.30011 0.11718 0.4375 0.1556 0.24372 0.43359 0.44554 0.61719 0.67969 0.3342 0.46313 0.5008 1.0007 0.9336 1.4199 0.7667 0.7 1.8829 1.5004 3.3496 2.4004 1.3333 0.76667 2.2829 0.86745 2.8496 0.30078 0.3333-0.3 0.5-0.74961 0.5-1.3496-0.033-0.7-0.0656-1.2174-0.0996-1.5508-0.015-0.1384-0.12195-0.31424-0.15235-0.45898-0.017-0.0707-0.0289-0.24323-0.0469-0.29102l-0.0508-0.0508c-0.01-0.0217-0.0272-0.035-0.0352-0.0566-0.1198-0.40683-0.17736-0.78856-0.41406-1.2422-0.5333-0.8-0.91709-1.4163-1.1504-1.8496-0.3237-0.5744-0.79241-0.9348-1.2207-1.3555-0.013-0.0129-0.0163-0.0321-0.0293-0.0449-0.011-0.0112-0.0242-0.0143-0.0352-0.0254-0.4217-0.4011-0.88174-0.74617-1.4023-1.002-0.5674-0.33263-1.1613-0.52974-1.7734-0.63672-0.089-0.0145-0.14728-0.0744-0.23828-0.0859-0.06 3e-3 -0.074 2.8e-4 -0.13086 4e-3 -0.1606-0.0158-0.30701-0.10278-0.47071-0.10352h-0.14843l-0.60157 0.0996 0.0508-0.0508c-0.052 0.0172-0.074 0.0736-0.1211 0.0977-0.01 1e-5 -0.0213 2e-3 -0.0273 2e-3 -0.5333-0.0333-0.93252-0.31628-1.1992-0.84961-0.2-0.46667-0.45-0.68372-0.75-0.65039 0.2-0.2 0.50039-0.33177 0.90039-0.39844 1.4-0.13333 2.4155-0.26706 3.0488-0.40039 1.5667-0.33333 4.3671-0.71706 8.4004-1.1504 0.1667-0.0333 0.30039-3e-4 0.40039 0.0996 0.2333 0.43333 0.66553 1.0167 1.2988 1.75 0.5 0.7 0.71709 1.3841 0.65039 2.0508l-0.0156 0.0664c0 0.0566-0.0919 0.0717-0.0859 0.13281l0.10156 0.55078c0.1109 0.78712 0.22931 1.2966 0.34961 1.6992 0.018 0.0592 0.0328 0.19909 0.0508 0.25l0.34961 0.84961v-0.0488c0.1689 0.32623 0.39377 0.51211 0.57617 0.80469 1.0159 1.8395 2.3446 3.2767 4.2734 3.9453 0.6 0.23333 1.1 0.33216 1.5 0.29883 0.5-0.0333 0.76748-0.2 0.80078-0.5-0.067-0.43333-0.11709-0.78216-0.15039-1.0488-0.1-0.86667-0.1833-1.5178-0.25-1.9512-0.076-0.43473-0.20315-0.74598-0.31055-1.1055-0.044-0.14224-0.068-0.28645-0.12109-0.42773-0.045-0.12441-0.067-0.30219-0.11719-0.41602-0.1-0.26667-0.30156-0.58255-0.60156-0.94922-0.1125-0.14633-0.12103-0.17475-0.20313-0.28711-0.1525-0.23537-0.21728-0.48031-0.39648-0.71289-1.1956-1.6878-2.5618-2.5889-4.0996-2.7012h-0.0508c-0.092-8.8e-4 -0.13795 0.0947-0.21875 0.11719-0.129-0.0421-0.35159-0.0651-0.42969-0.11719-0.3-0.2-0.61787-0.54883-0.95117-1.0488-0.3333-0.56666-0.59883-0.98333-0.79883-1.25-0.1667-0.23333-0.10078-0.35156 0.19922-0.35156 2.9667-0.63333 4.8659-0.99961 5.6992-1.0996 1.0333-0.13333 2.95-0.5655 5.75-1.2988 1.2-0.3 2.0683-0.36784 2.6016-0.20117 0.6 0.16667 1.2163 0.69961 1.8496 1.5996 0.5333 0.73333 0.88213 1.2333 1.0488 1.5 0.033 0.0667 0.084 0.15 0.15039 0.25l0.14437 0.05063h0.25l0.34961-0.0996c0.067-0.0333 0.15-0.0663 0.25-0.0996v-0.60156c-0.4-0.36667-0.84961-0.81628-1.3496-1.3496-1.1333-1.2667-1.7496-1.9488-1.8496-2.0488 1.9-0.73333 3.0163-1.15 3.3496-1.25 0.4333-0.1 1.0671-0.41784 1.9004-0.95117 0.7333-0.3 1.3825-0.0829 1.9492 0.65039 0.033 0.0667 0.58369 0.48333 1.6504 1.25l0.0996 0.0996h0.1504l0.34961 0.25 0.0996 0.15039 0.10156 0.0508 0.14844 0.0996 0.20117 0.0996h0.10156c0.033-0.0667 0.084-0.11706 0.15039-0.15039l0.15039-0.0996 0.0488-0.15039c-0.1-0.13333-0.15039-0.24961-0.15039-0.34961l-0.19922-0.15039c-0.4333-0.33333-1.2841-1.0833-2.5508-2.25-0.2-0.13333-0.16514-0.28255 0.10156-0.44922 1.8333-0.73333 3.1667-1.3845 4-1.9512 0.1667-0.13333 0.28291-0.21667 0.34961-0.25 0.1667-0.1 0.3333-0.1 0.5 0 0.5 0.33333 1.2829 0.7345 2.3496 1.2012 0.2 0.1 0.38408 0.21628 0.55078 0.34961l0.14844 0.15039c0.067 0.0667 0.15 0.13255 0.25 0.19922 0.033 0 0.068 0.0174 0.10156 0.0508 0.2 0.0667 0.41514 0.0163 0.64844-0.15039l0.10156-0.0996c0.067-0.0667 0.0818-0.11706 0.0488-0.15039h0.0996v-0.30078h-0.0488l-0.0996-0.25c-0.1333-0.1-0.26709-0.16589-0.40039-0.19922-0.5-0.3-1.5-0.86589-3-1.6992l4-3.25 0.54883-0.55078c1.6667 0.63333 2.6512 1.0171 2.9512 1.1504l0.59961 0.29883 0.40039 0.10156c0.1667 0.0667 0.28291 0.0318 0.34961-0.10156 0.067-0.0333 0.11709-0.0992 0.15039-0.19922 0.033-0.1 0.033-0.18333 0-0.25l-0.15039-0.19922c-0.033-0.13333-0.16709-0.25156-0.40039-0.35156-0.3667-0.13333-0.68252-0.3155-0.94922-0.54883-0.6667-0.23333-1.1996-0.41745-1.5996-0.55078-0.3-0.0667-0.41826-0.1655-0.35156-0.29883 0.1333-0.13333 0.2167-0.23411 0.25-0.30078 0.2667-0.33333 0.56709-0.63372 0.90039-0.90039 0.067-0.0667 0.13447-0.11706 0.20117-0.15039l0.29883-0.29883 0.15039-0.25-0.0508-0.25-0.10156-0.25-0.0996-0.0508c-0.1333 0-0.24961 0.0504-0.34961 0.15039l-0.15039 0.0996c-0.033 0.1-0.0508 0.18333-0.0508 0.25l-8.25 6.5996 0.30078-0.59961c0.3333-1.0333 0.60078-1.8163 0.80078-2.3496 0.1-0.3 0.19883-0.56745 0.29883-0.80078l-0.0488-0.29883c0-0.13333-0.05-0.23411-0.15039-0.30078-0.1667 0.0667-0.31787 0.0996-0.45117 0.0996-0.1-0.0333-0.1833-0.0663-0.25-0.0996-0.3333 0.76667-0.75 1.8829-1.25 3.3496-0.1 0.23333-0.24922 0.61706-0.44922 1.1504-0.1667 0.46667-0.4167 0.7845-0.75 0.95117l-6.6992 2.8984h-0.20117l0.0508-0.19922c0.3333-1.1 0.63369-1.8674 0.90039-2.3008 0.067-0.13333 0.15-0.34844 0.25-0.64844l0.14844-0.25 0.20117-0.55078c0.033-0.0667 0.0162-0.16745-0.0508-0.30078-0.067-0.16667-0.18291-0.25-0.34961-0.25-0.1667-0.0667-0.31592-0.0318-0.44922 0.10156l-0.20117 0.29883-0.0996 0.30078-0.0996 0.15039c-0.067 0.13333-0.10156 0.24961-0.10156 0.34961l-1 2.2988c-0.1 0.23333-0.23369 0.58411-0.40039 1.0508-0.1667 0.4-0.40117 0.65-0.70117 0.75-1.2 0.4-3.3163 1.0337-6.3496 1.9004l-0.40039 0.0488 0.15039-0.34961c0.2667-0.53333 0.45078-1.0488 0.55078-1.5488 0.1667-0.7 0.46709-1.45 0.90039-2.25-0.067-0.13333-0.11709-0.26706-0.15039-0.40039-0.2333 0-0.46787 0.0155-0.70117 0.0488h-0.0488c-0.3333 0.56666-0.71709 1.4833-1.1504 2.75-0.1 0.26667-0.23369 0.68333-0.40039 1.25-0.2 0.46666-0.48291 0.76706-0.84961 0.90039-0.2 0.1-0.50039 0.16784-0.90039 0.20117-0.4667 0.0333-0.78252 0.0663-0.94922 0.0996-2.4667 0.6-4.333 0.96628-5.5996 1.0996-1.9667 0.2-3.4008 0.38411-4.3008 0.55078-1.7 0.43333-2.9675 0.64844-3.8008 0.64844-1.2666 0.0667-2.5321 0.26823-3.7988 0.60156l-0.45117 0.0488v-0.15039c0.76669-1.1333 1.35-1.9822 1.75-2.5488 0.69999-1 1.5179-1.6163 2.4512-1.8496 0.3333-0.0667 0.61631-0.16745 0.84961-0.30078 0.7667-0.46667 1.5825-1.0171 2.4492-1.6504 0.3333-0.26667 0.98447-0.96628 1.9512-2.0996 0.3333-0.43333 0.59883-0.99922 0.79883-1.6992 0.065-0.16141 0.19907-0.78735 0.38867-1.793 0.04-0.1667 0.12581-0.23419 0.16211-0.4082 0.04-0.21668-0.14694-0.2944-0.21094-0.44727-0.024-0.16142 0.0249-0.36023-0.0391-0.50195-0.1667-0.43333-0.44961-0.65039-0.84961-0.65039-0.2163 0-0.49606 0.26043-0.72266 0.30273-0.063-0.0125-0.10483-0.0533-0.17773-0.0527-0.098 6e-3 -0.21391 0.0389-0.34961 0.0996-0.1986 0.089-0.31837 0.28947-0.50977 0.38867-0.565 0.24138-1.0705 0.23711-1.6914 0.71094-0.549 0.43135-1.1334 1.2205-1.7051 1.8828-0.074 0.0866-0.15622 0.16264-0.22852 0.25195-0.3253 0.39247-0.63184 0.60018-0.96484 1.0664-0.7737 1.0224-1.1401 2.1929-1.4102 3.3984-0.063 0.17422-0.18073 0.27176-0.24023 0.45117-0.014 0.0462 0.01 0.0824 0 0.12695-0.01 0.0447-0.0448 0.0781-0.0508 0.12305 0 0.13333 0.0168 0.35039 0.0508 0.65039 0 0.26667-0.068 0.48372-0.20117 0.65039l-1.7988 2.4492c-0.1333 0.2-0.35039 0.53333-0.65039 1-0.2667 0.4-0.5167 0.65-0.75 0.75-0.4 0.2-0.93291 0.33372-1.5996 0.40039-0.7333 0.1-1.2837 0.18333-1.6504 0.25-1.2667 0.2-3.883 0.91706-7.8496 2.1504-1.3333 0.4-3.9013 1.3826-7.7012 2.9492-1.9 0.76667-3.8321 1.9159-5.7988 3.4492 0-0.36667 0.14922-0.73294 0.44922-1.0996l0.65039-0.75c0.7-0.76667 1.5333-1.8171 2.5-3.1504 1.2333-1.7333 2.0163-2.8167 2.3496-3.25 0.3667-0.43333 1.8512-2.4488 4.4512-6.0488 1.7333-2.2667 2.6984-3.5496 2.8984-3.8496 0.6-0.9 1.2008-1.4504 1.8008-1.6504l0.34961-0.0996c0.9333-0.1 2.0496-0.30156 3.3496-0.60156 0.73329-0.16667 1.8516-0.43216 3.3516-0.79883 1.4-0.3 3.5163-0.99961 6.3496-2.0996 2.4666-0.93333 5.1333-2.2667 8-4 2.4-1.4333 4.8322-3.2512 7.2988-5.4512l4.5-4.0996c0.067-0.0667 0.16748-0.0996 0.30078-0.0996 0.7333-0.0333 1.5996-3e-4 2.5996 0.0996 0.5667 0.0667 1.4329 0.18294 2.5996 0.34961 0.3 0.0333 0.73408 0.0663 1.3008 0.0996 0.4317 0.12334 0.74045 0.40681 0.97265 0.78711 0.027 0.0331-0.01 0.0815 0.0274 0.11328 0.091 0.0849 0.30695 0.10117 0.41015 0.17969 0.3317 0.40882 0.80805 0.8074 1.8398 1.1699 1.2333 0.46666 2.1171 0.63333 2.6504 0.5 1.4-0.3 2.4988-0.74961 3.2988-1.3496 0.01-4e-3 0.01-0.01 0.0117-0.0137 0.069-0.0532 0.17079-0.0288 0.23829-0.0859 0.034-6.5e-4 0.0508-0.0181 0.0508-0.0508 0.1948-0.10612 0.31111-0.28828 0.34961-0.54883 0.018-0.0774 0.0526-0.16068 0.10156-0.25 0.01-0.01-0.01-0.0175 0-0.0273 0.01-0.027 0.0477-0.0448 0.0547-0.0723 0.028-0.12197-0.10439-0.22107-0.11329-0.33789 0-0.20752 0.0951-0.42735-0.0859-0.61328-0.042-0.0415-0.10534-0.0537-0.14844-0.0937-0.04-0.0489 2.7e-4 -0.10849-0.0527-0.15625-0.3333-0.33333-0.78291-0.63372-1.3496-0.90039-0.1602-0.0702-0.30254-0.0498-0.46094-0.11133-0.3433-0.1391-0.75121-0.18911-1.1328-0.27539-1.8088-0.47193-3.5351-0.53333-5.1055 0.1875-0.052 0.0258-0.16062 0.18118-0.23242 0.25195-0.067 0.0305-0.15295 0.0164-0.21875 0.0488-0.1159 0.0671-0.051 0.22768-0.1211 0.31836-0.013 0.017-0.0163 0.0136-0.0293 0.0312-0.23329 0.3-0.46591 0.41628-0.69921 0.34961-0.6667-0.16667-1.5659-0.30039-2.6992-0.40039-1.4-0.13333-2.3167-0.23216-2.75-0.29883-0.2-0.0333-0.2833-0.0837-0.25-0.15039 0.1-0.0667 0.16592-0.11706 0.19922-0.15039 2.4667-2.4 4.1992-4.2837 5.1992-5.6504 0.3333-0.4 0.56788-0.58216 0.70118-0.54883 0.5333 0.1 1.2 0.14844 2 0.14844h2c0.2667 0.0333 0.71631 0.0508 1.3496 0.0508 0.5 0 0.8333 0.10078 1 0.30078 0.2248 0.25583 0.58278 0.40629 0.86718 0.61524 0.015 0.0125 0.0332 0.0273 0.0332 0.0332 0.01 4e-3 0.0106 2e-3 0.0176 6e-3 0.93279 0.66723 2.0745 1.17 3.6308 1.3457 1.3333 0.16667 2.4496 0.0484 3.3496-0.35156 0.7333-0.36667 1.1829-0.61667 1.3496-0.75 0.4333-0.36667 0.66592-0.81628 0.69922-1.3496 0.012-0.21775-0.37513-0.42141-0.49023-0.63477-0.034-0.10439 0.0284-0.211-0.0586-0.31445-0.091-0.10175-0.27781-0.16208-0.38281-0.25781-0.1964-0.1789-0.12857-0.36727-0.41797-0.54297-0.2774-0.15057-0.56465-0.18074-0.84375-0.30859-0.1405-0.0706-0.20297-0.17478-0.35547-0.24024-0.2339-0.0845-0.42319-0.0608-0.65039-0.1289-0.5666-0.20311-1.1247-0.50939-1.6992-0.6211-0.83329-0.16667-1.75-0.0833-2.75 0.25-0.4493 0.14042-0.61026 0.41784-0.94726 0.61133-0.1556 0.0786-0.35381 0.0457-0.50391 0.13867l-0.45128 0.44915c0 0.0213-0.0223 0.0256-0.0293 0.043-0.075 0.0841-0.25861 0.11678-0.32031 0.20703-0.2333 0.4-0.41748 0.59961-0.55078 0.59961-0.6667-0.1-1.4825-0.15039-2.4492-0.15039-1.1 0-1.9333-0.0155-2.5-0.0488h-0.20117c-0.033-0.0333-6.9e-4 -0.11667 0.0996-0.25 0.7667-1.0667 1.3849-1.8341 1.8516-2.3008l1.5996-2.2988c0.6333-0.93333 1.3988-1.4682 2.2988-1.6016 1.1333-0.13333 1.9008-0.05 2.3008 0.25 0.2267 0.19014 0.55638 0.19339 0.80078 0.35156l0.0488 0.0488c0.018 0.0153 0.0367 0.0327 0.0527 0.0508 0.1186 0.15729 0.2853 0.27357 0.5 0.34961l0.0488 0.0508c0.3131 0.13195 0.62616 0.10569 0.93945 0.19727 0.44 0.14896 0.77792 0.48362 1.2617 0.55273 1.6667 0.26667 3.6163-0.21784 5.8496-1.4512 0.5333-0.3 0.7833-0.64883 0.75-1.0488 0-0.4-0.25-0.78372-0.75-1.1504-0.07-0.046-0.13723-0.0364-0.20703-0.0801-0.055-0.0475-0.0247-0.12789-0.0937-0.16992v0.0488c-0.2342-0.12583-0.46532-0.0826-0.69922-0.18945-0.8214-0.41397-1.6444-0.86431-2.4492-0.95899-0.4641-0.0743-0.78136-6e-3 -1.1973-0.0332-0.084-3e-3 -0.16971-0.0681-0.25391-0.0684-0.1188 1.4e-4 -0.21914 0.0475-0.33594 0.0527-1.5269-0.0155-2.8181 0.19964-3.6133 0.89844-0.6 0.53333-1.0671 0.88216-1.4004 1.0488-0.5 0.23333-1.0504 0.23333-1.6504 0 0.5333-0.73333 1.2175-1.8322 2.0508-3.2988 0.8667-1.5667 1.5333-2.6829 2-3.3496 0.3-0.93333 0.56553-1.6174 0.79883-2.0508 0.3667-0.76667 1.0837-0.95078 2.1504-0.55078h0.0508c0.2 0.1 0.56631 0.1 1.0996 0 0.5-0.0667 0.85078-0.0163 1.0508 0.15039l0.0488 0.0508v-0.0996c0.067-0.4 0.15-0.75078 0.25-1.0508-1.0667 0.13333-2.3496 0.0829-3.8496-0.15039 0.6-0.66667 1.2163-1.9167 1.8496-3.75 0.3333-0.83333 0.69961-1.3992 1.0996-1.6992 0.5-0.33333 1.1512-0.43411 1.9512-0.30078 0.3333 0.0667 0.84883 0.0841 1.5488 0.0508h0.10156c0-0.3 0.0148-0.56745 0.0488-0.80078-0.3 0.0333-0.58291 0.0333-0.84961 0-0.6333 0.0333-1.1159 0.0178-1.4492-0.0488-0.2333 0-0.41748-0.0174-0.55078-0.0508-0.2333-0.0333-0.3167-0.16706-0.25-0.40039 0.7333-1.8333 1.2837-3.2171 1.6504-4.1504 0.2333-0.66667 0.45039-1.0988 0.65039-1.2988 0.3667-0.36667 0.86671-0.46745 1.5-0.30078 0.1667 0.0667 0.46514 0.0163 0.89844-0.15039 0.2 0 0.48486-0.0155 0.85156-0.0488 0.1667-0.0333 0.31592-0.0333 0.44922 0 0.033-0.2 0.0508-0.36667 0.0508-0.5s0.0148-0.26706 0.0488-0.40039c-0.9 0.16667-1.7992 0.21706-2.6992 0.15039-0.3333-0.0333-0.53291-0.10117-0.59961-0.20117-0.033-0.0667 0.015-0.24883 0.14844-0.54883 0.3333-1.1 0.63369-1.9004 0.90039-2.4004 0.2-0.7 0.35117-1.2174 0.45117-1.5508 0.2333-0.6 0.73331-0.85 1.5-0.75 0.2 0.0333 0.68252 3e-4 1.4492-0.0996 0.3333-0.0667 0.64922-0.0667 0.94922 0v-1.0997c-0.6 0.23333-1.1484 0.29922-1.6484 0.19922h-0.75c-0.3333 0.0333-0.51748-0.0151-0.55078-0.14844-0.033-0.1-6.9e-4 -0.30156 0.0996-0.60156l1.2989-4.1992c0.1333-0.63333 0.24961-1.1004 0.34961-1.4004 0.067-0.23333 0.13252-0.43294 0.19922-0.59961-0.3333 0.0333-0.61631 0.0837-0.84961 0.15039h-0.0488v0.0488c-0.2667 1.0667-1.1175 3.5841-2.5508 7.5508l-0.15039 0.19922-0.15039-0.0996c-0.5667-0.76667-0.9833-1.6329-1.25-2.5996-0.1 0.1-0.1833 0.21628-0.25 0.34961-0.1333 0.23333-0.26514 0.45039-0.39844 0.65039 0.067 0.1 0.13252 0.21628 0.19922 0.34961 0.2 0.36667 0.5333 0.91706 1 1.6504 0.3667 0.63333 0.39931 1.2671 0.0996 1.9004l-1.7988 4.3496c-0.5-0.63333-0.86826-1.1159-1.1016-1.4492-0.3-0.4-0.51514-0.76823-0.64844-1.1016-0.1 0.26667-0.1833 0.53411-0.25 0.80078-0.033 0.2-0.084 0.38411-0.15039 0.55078 0.3333 0.36667 0.75 0.83177 1.25 1.3984 0.4 0.4 0.53369 0.75078 0.40039 1.0508l-2.3516 5.4492-0.25 0.45117c-0.1333-0.0333-0.2167-0.0837-0.25-0.15039-0.6-0.76667-1.0496-1.35-1.3496-1.75-0.1-0.16667-0.19883-0.31589-0.29883-0.44922-0.067 0.1-0.13447 0.21628-0.20117 0.34961-0.1333 0.23333-0.24961 0.45039-0.34961 0.65039 0.5 0.33333 0.86631 0.73255 1.0996 1.1992 0.033 0.0667 0.25039 0.29922 0.65039 0.69922 0.2667 0.26667 0.33252 0.50117 0.19922 0.70117-0.2667 0.53333-0.88291 1.7988-1.8496 3.7988-0.7333 1.6-1.3825 2.8674-1.9492 3.8008-0.4667 0.83333-1.1837 2.1008-2.1504 3.8008-0.8333 1.5-1.6163 2.75-2.3496 3.75l-0.0996-0.25c-0.3667-1.2667-0.63408-2.2182-0.80078-2.8516-0.3333-1.0667-0.6667-1.9484-1-2.6484-0.2667-0.8-0.38291-1.55-0.34961-2.25 0.033-0.26667 0.1167-0.66784 0.25-1.2012 0.1667-0.56667 0.25-0.98333 0.25-1.25 0.2333-2.9-0.63301-5.15-2.5996-6.75-0.1188-0.0924-0.25265-0.1403-0.37695-0.2168-0.1486-0.1317-0.16332-0.30578-0.32422-0.43359l-0.0488-0.0488c-0.1281-0.10156-0.2948-0.15195-0.5-0.15039-0.2248-3e-3 -0.40888 0.0296-0.55078 0.0996v0.0508c-0.084 0.0639-0.098 0.13299-0.14844 0.19922-0.1183 0.0479-0.34874-8e-3 -0.40234 0.0996-0.1667 0.33333-0.31592 0.66667-0.44922 1-0.5333 1.5667-0.5333 3.2333 0 5 0.6333 2.1667 1.8833 3.7171 3.75 4.6504 0.2333 0.13333 0.38252 0.36784 0.44922 0.70117 0.9333 2.8 1.5167 4.6333 1.75 5.5 0.033 0.2 0.15156 0.43255 0.35156 0.69922 0.2333 0.43333 0.26591 0.74922 0.0996 0.94922l-5.9512 7.5508c-0.1333 0.13333-0.26514 0.19922-0.39844 0.19922s-0.18369-0.0833-0.15039-0.25c0.033-0.23333-0.035-0.49883-0.20117-0.79883-0.2-0.4-0.31631-0.65-0.34961-0.75-0.2-0.73333-0.81631-2.6674-1.8496-5.8008-0.2-0.56667-0.31631-0.98333-0.34961-1.25-0.1-0.5-0.0842-0.96706 0.0488-1.4004 0.4667-1.3 0.65078-2.3 0.55078-3-0.2585-2.3523-0.97545-4.0356-1.9356-5.3652-0.035-0.0524-0.0709-0.10523-0.10742-0.15625-0.248-0.32434-0.41473-0.76749-0.70703-1.0273-0.1-0.1-0.20078-0.18333-0.30078-0.25-0.3-0.33333-0.55-0.56784-0.75-0.70117-0.3-0.26667-0.6333-0.35-1-0.25l-0.19919 0.10156c-0.5333 0.16667-0.88408 0.53294-1.0508 1.0996-0.1 0.36667-0.1833 0.93255-0.25 1.6992-0.1333 0.83333-0.015 2.0174 0.35156 3.5508 0.5 1.8667 1.3488 3.4326 2.5488 4.6992 0.3667 0.36667 0.76787 0.71745 1.2012 1.0508 0.1 0.0667 0.23174 0.11706 0.39844 0.15039 0.1667 0.0667 0.26748 0.18294 0.30078 0.34961 0.1333 0.56667 0.3833 1.3826 0.75 2.4492 0.067 0.16667 0.3167 1.0174 0.75 2.5508 0.3333 1 0.63369 1.8333 0.90039 2.5 0.3 0.63333 0.44922 1.1333 0.44922 1.5 0 0.5-0.21709 0.94961-0.65039 1.3496l-0.79883 0.69922-5.8496 6.0508-1.75-6.4004c-0.1667-0.53333-0.18378-0.93255-0.0508-1.1992 0.1609-0.36874 0.20001-0.7341 0.31641-1.1016 0.01-0.0192 0.0302-0.029 0.0332-0.0488 0.01-0.0307 0-0.0476 0-0.0781 0.4291-1.4166 0.62918-2.8265 0.39648-4.2227-0.3333-2-1.3159-3.5988-2.9492-4.7988-0.4333-0.4-0.76671-0.6345-1-0.70117-0.1414-0.0471-0.22882 0.24358-0.35352 0.30078h-0.0469c-0.1643 0.0204-0.15718 0.2035-0.27148 0.27148-0.1018 0.14019-0.24063 0.0497-0.32812 0.2793v0.0527c-0.039 0.0916-0.18527 0.0807-0.19727 0.19726-0.066 0.71967 0.0462 1.1566 0.0332 1.793-0.068 0.73711-0.25359 1.2064-0.18359 2.2559 0.03 0.45084 0.1823 0.7862 0.25 1.2012 0.3128 1.9168 0.92738 3.5484 2.0508 4.6992 0.03 0.0304 0.19371 0.0972 0.25781 0.13672 0.056 0.067 0.084 0.14682 0.14258 0.21289 0.2229 0.21233 0.44462 0.31254 0.66602 0.33203 0.1709 0.14121 0.36679 0.26845 0.43359 0.46875l0.0996 0.25c0.3333 2 0.76748 3.7171 1.3008 5.1504 0.2 0.6 0.21553 1.1 0.0488 1.5-0.1333 0.33333-0.44922 0.68216-0.94922 1.0488l-1.75 1.4512c-0.5 0.4-1.2675 1.0318-2.3008 1.8984-0.9333 0.73333-1.7492 1.2837-2.4492 1.6504-3.1667 1.8667-5.6163 3.1341-7.3496 3.8008-1.7667 0.7-3.1 1.2155-4 1.5488-1.5667 0.56666-2.9329 1.0008-4.0996 1.3008-2.6333 0.66667-4.7012 1.1996-6.2012 1.5996l-0.19922 0.0508c0.5667-0.53333 1.1655-1.3008 1.7988-2.3008 0.7-1.1 1.2175-1.8326 1.5508-2.1992 0.4-0.46667 0.86709-1.1508 1.4004-2.0508 0.5667-1 0.99883-1.6822 1.2988-2.0488 0.7-1.3 1.2504-2.2671 1.6504-2.9004 0.7-1.1 1.6496-1.7163 2.8496-1.8496 0.2333-0.0333 0.75078-0.21745 1.5508-0.55078 0.6333-0.3 1.1837-0.40078 1.6504-0.30078 0.1667 0.0333 0.53291 0.15156 1.0996 0.35156 0.4333 0.13333 0.78408 0.19922 1.0508 0.19922 0.1134 3e-3 0.19144-0.0614 0.30274-0.0625 0.017 2.3e-4 0.0299 0.0117 0.0469 0.0117 0.2197-2.3e-4 0.44862-0.13405 0.66992-0.1582 1.7068-0.1662 3.1311-0.86562 4.3066-2.0352 0.243-0.20722 0.54804-0.32378 0.77344-0.55664 0.039-0.044 0.0481-0.14292 0.0781-0.20117 0.064-0.0848 0.1591-0.10885 0.2207-0.19727 0.2583-0.30994 0.14433-0.45068 0.20703-0.67187 0.173-0.17607 0.30637-0.36974 0.29297-0.62891-6e-4 -0.45182-0.23322-0.75221-0.69922-0.90039-0.6076-0.1335-1.2242-0.1687-1.8418-0.19531 0-2.3e-4 2.4e-4 -4e-3 -0.01-4e-3 0-2.2e-4 -0.01 2e-3 -0.01 2e-3 -0.1643-7e-3 -0.32503-0.0535-0.49023-0.0527-0.5223 3e-3 -1.0069 0.22179-1.5117 0.32422-1.7718 0.27555-3.3782 0.89334-4.6387 2.2266-0.1 0.1-0.23369 0.35-0.40039 0.75-0.1 0.3-0.24922 0.48216-0.44922 0.54883-0.4333 0.2-1.4837 0.60117-3.1504 1.2012 0.067-0.3 0.11709-0.46667 0.15039-0.5 1.1-1.8333 1.9004-3.2171 2.4004-4.1504 2.3333-4.5333 3.75-7.3337 4.25-8.4004 0.8667-1.8667 2.1167-4.9655 3.75-9.2988 0.033-0.0667 0.0488-0.11706 0.0488-0.15039 0.3667-1 0.83369-2.6512 1.4004-4.9512 0.4333-1.6667 0.78408-3.2326 1.0508-4.6992v-0.0508c0.6667-3.3333 1.0484-5.3333 1.1484-6 0.033-0.7 0.10117-1.2 0.20117-1.5 0.1333-0.5 0.53252-0.83333 1.1992-1 0.7-0.16667 1.8008-0.59883 3.3008-1.2988 0.1-0.0667 0.21631-0.0996 0.34961-0.0996l0.0996-0.5-0.25-0.30078-0.0996-0.0508c-1.2667 0.3-2.4004 0.68372-3.4004 1.1504-0.5333 0.23333-0.84922 0.33411-0.94922 0.30078-0.1-0.0333-0.1-0.23294 0-0.59961 0.1333-0.5 0.2167-1.3333 0.25-2.5 0-0.56666 0.0326-1.0512 0.0996-1.4512 0.033-0.43333 0.099-0.79961 0.19922-1.0996 0.033-0.2 0.0508-0.34922 0.0508-0.44922 0.033-0.16667 0.13408-0.28489 0.30078-0.35156l1.2988-0.54883c0.6-0.26667 1.4663-0.71628 2.5996-1.3496h0.0508v-0.10156c0.067-0.0333 0.15-0.0818 0.25-0.14844l0.40039-0.30078 0.15039-0.15039c0.033-0.13333 0.0676-0.24961 0.10156-0.34961-0.067-0.1-0.18291-0.18333-0.34961-0.25l-0.20117 0.0508c-0.4 0.0667-0.68291 0.1655-0.84961 0.29883l-0.25 0.20117-0.40039 0.19922-0.19922 0.0996c-0.5 0.23333-1.1163 0.53372-1.8496 0.90039-0.4667 0.2-0.73408 0.30078-0.80078 0.30078-0.2333 0-0.33408-0.30039-0.30078-0.90039 0.1-0.73333 0.16787-1.8845 0.20117-3.4512v-2.75c0.033-0.5 0.0656-0.7655 0.0996-0.79883 0.033-0.1 0.084-0.20078 0.15039-0.30078h0.19922c0.067-0.0333 0.11709-0.0663 0.15039-0.0996l1.25-0.69922 0.15039-0.15039c0.2333-0.13333 0.49883-0.3 0.79883-0.5 0.1-0.0667 0.20078-0.11706 0.30078-0.15039v-0.0508c0.067-0.0333 0.18291-0.0992 0.34961-0.19922l0.30078-0.19922-0.20117-0.5-0.0488-0.0508-0.55078 0.15039c-0.1333 0-0.3 0.0659-0.5 0.19922l-0.79883 0.5-0.25 0.0508c-0.067 0.0333-0.13447 0.0488-0.20117 0.0488l-0.29883 0.20117-0.45117 0.19922c-0.1667 0.1-0.26553 0.16784-0.29883 0.20117-0.033 0-0.0508 0.0155-0.0508 0.0488l-0.65039-5.5488c-0.1333-0.63333-0.2167-1.1178-0.25-1.4512-0.1-0.56667-0.05-0.95039 0.15039-1.1504 0.033-0.0333 0.084-0.0663 0.15039-0.0996 0.067-0.1 0.13252-0.16589 0.19922-0.19922 0.1667-0.0667 0.26748-0.15 0.30078-0.25l0.0488-0.0996 0.65039-0.30078 0.20117-0.19922 0.25-0.10156 0.5-0.29883 0.0996-0.15039 0.0488-0.0996v-0.20117c-0.067-0.2-0.15-0.31628-0.25-0.34961l-0.0996-0.0488-0.29883-0.0508-0.20117 0.0508-0.84961 0.54883-0.19922 0.0508-0.10156 0.0996-0.75 0.44922-0.0488 0.0508c-0.1 0-0.15039-0.11628-0.15039-0.34961-0.7333-2.9667-1.1325-4.55-1.1992-4.75-0.2-0.53333-0.31826-0.9345-0.35156-1.2012-0.033-0.43333 0.1333-0.83255 0.5-1.1992 0.3-0.3 0.61787-0.58294 0.95117-0.84961 0.033-0.13333 0.0656-0.21667 0.0996-0.25l0.55078-0.75c0.1333-0.23333 0.16591-0.45039 0.0996-0.65039-0.3667-0.2-0.64961-0.13411-0.84961 0.19922l-0.15039 0.25c-0.067 0.1-0.15 0.16784-0.25 0.20117-0.3667 0.6-0.81631 1.0826-1.3496 1.4492-0.4-0.96667-0.7333-1.7496-1-2.3496 0-0.1-0.035-0.21628-0.10156-0.34961-0.067-0.1-0.11514-0.18333-0.14844-0.25l-0.15039-0.5-0.20117-0.40039c-0.1333-0.36667-0.51514-1.0992-1.1484-2.1992-0.1-0.16667-0.1833-0.31784-0.25-0.45117l-0.20117-0.90039c-0.1333-0.2-0.3-0.29883-0.5-0.29883z"/>
 <g transform="translate(-108.55 -373.75)">
  <path transform="translate(160.15,84.1)" d="m-46.599 289.65c-3.3333 0-5 1.6667-5 5v158.2c0 3.3333 1.6667 5 5 5h93.199c3.3333 0 5-1.6667 5-5v-158.2c0-3.3333-1.6667-5-5-5zm8.2988 7.1992h76.6c4.6667 0 7 2.3333 7 7v139.8c0 4.6667-2.3333 7-7 7h-76.6c-4.6667 0-7-2.3333-7-7v-139.8c0-4.6667 2.3333-7 7-7z" fill="#ef1d1e"/>
  <path transform="translate(160.15,84.1)" d="m-38.3 296.85c-4.6667 0-7 2.3333-7 7v139.8c0 4.6667 2.3333 7 7 7h76.6c4.6667 0 7-2.3333 7-7v-139.8c0-4.6667-2.3333-7-7-7z" fill="none" stroke="#000" stroke-width="1.2"/>
 </g>
</svg>
