<svg width="103.2" height="168.2" preserveAspectRatio="none" version="1.1" viewBox="0 0 103.2 168.2" xmlns="http://www.w3.org/2000/svg">
 <path d="m13.301 7.1992c-4.6667 0-7 2.3333-7 7v139.8c0 4.6667 2.3333 7 7 7h76.6c4.6667 0 7-2.3333 7-7v-139.8c0-4.6667-2.3333-7-7-7z" fill="#fff"/>
 <path d="m17 12.1c-1.1 0-1.9004 0.63372-2.4004 1.9004-0.4 1.0667-0.367 2.3167 0.0996 3.75 0.46666 1.4333 1.1837 2.4663 2.1504 3.0996l0.0508 0.0508c0.33333 0.33333 0.73255 0.5 1.1992 0.5 0.83333 0 1.3663-0.53294 1.5996-1.5996 0.0667-0.23333 0.10156-0.65 0.10156-1.25v-0.45117c0.1-0.26667 0.133-0.54961 0.0996-0.84961l-0.0996-0.75c-0.13333-0.93333-0.2845-1.6174-0.45117-2.0508l-0.04884-0.19924c-0.26667-1.3-0.93333-2.0171-2-2.1504zm64.25 2.4004c-1.3333 0-2.2674 0.58333-2.8008 1.75-0.6 1.2-0.74922 2.5004-0.44922 3.9004 0.16667 0.8 0.58333 1.9163 1.25 3.3496 0.26667 0.5 0.66589 0.75 1.1992 0.75h0.0508c0.5 0 0.91667-0.21706 1.25-0.65039 0.73333-1.3 1.2663-3.2496 1.5996-5.8496l0.0508-0.44922c0.0667-0.5 0.0163-1-0.15039-1.5-0.26667-0.66666-0.68333-1.0678-1.25-1.2012zm-52.949 2.1504-0.35156 0.0488c-1.1 0.0667-2.1659 0.56667-3.1992 1.5s-1.6496 1.9837-1.8496 3.1504l-0.0508 0.95117c0 0.53333 0.23451 0.95 0.70117 1.25l0.69924 0.14847c0.26667 0 0.49922-0.0484 0.69922-0.14844l1.3008-0.70117c1.6-0.76667 2.7667-1.5496 3.5-2.3496 0.76667-0.86667 0.95078-1.7174 0.55078-2.5508-0.43333-0.86667-1.1-1.2988-2-1.2988zm42.148 2.4004c-0.9 0-1.4988 0.5-1.7988 1.5v0.0488c-0.23333 0.5-0.28372 1.0329-0.15039 1.5996 0.13333 0.5 0.38333 0.91667 0.75 1.25 1.2333 1.3 2.65 2.1508 4.25 2.5508l0.55078 0.0996c0.6 0 1.0496-0.23255 1.3496-0.69922 0.33333-0.46667 0.38372-0.98411 0.15039-1.5508-0.4-1-1.15-2.0833-2.25-3.25-0.8-0.8-1.6004-1.3-2.4004-1.5h-0.0996zm17.25 4.3984c-0.93333 0-1.9663 0.2849-3.0996 0.85156-1.1667 0.63333-1.9322 1.3155-2.2988 2.0488-0.26667 0.56667-0.25099 1.0841 0.0488 1.5508 0.3 0.46667 0.76706 0.69922 1.4004 0.69922h0.0508l0.59961 0.0508c1.0667 0 2.2004-0.15117 3.4004-0.45117 1.4333-0.36667 2.2492-1.0488 2.4492-2.0488v-0.45117c0-0.8-0.26745-1.3833-0.80078-1.75-0.46667-0.33333-1.05-0.5-1.75-0.5zm-54.25 2.0508c-1.2667 0-2.3151 0.38372-3.1484 1.1504-1.2667 1.2667-2.2182 2.5496-2.8516 3.8496-0.26667 0.5-0.23177 1 0.10156 1.5 0.3 0.36667 0.68177 0.55078 1.1484 0.55078l0.25-0.0508c2.8-0.53333 4.9337-1.3667 6.4004-2.5 0.76667-0.5 1.1678-1.1667 1.2012-2 0-0.7-0.2849-1.2833-0.85156-1.75-0.53333-0.5-1.2833-0.75-2.25-0.75zm-21.5 0.84961c-0.96667 0-1.6818 0.44961-2.1484 1.3496-0.46666 0.83333-0.41823 1.6512 0.14844 2.4512 0.2 0.36667 0.58372 0.7155 1.1504 1.0488l0.0996 0.10156c0.9 0.63333 2.15 1.0151 3.75 1.1484l0.35156 0.0508 0.14844 0.0508 1.8008-0.35156 0.25-0.0996c0.56667-0.1 0.9-0.43333 1-1 0.16667-0.56667 0.0329-1.0337-0.40039-1.4004l-0.19922-0.14844c-0.33333-0.33333-0.58333-0.55039-0.75-0.65039l-0.70117-0.45117c-1.1333-0.73333-2.0151-1.2488-2.6484-1.5488l-0.0508-0.0508c-0.73333-0.33333-1.3341-0.5-1.8008-0.5zm59 0.74997c-0.63333 0-1.1488 0.25-1.5488 0.75-0.6 0.76667-0.68333 1.6329-0.25 2.5996 0.7 1.6667 2.1671 2.6182 4.4004 2.8516h0.29883l1.1504-0.10156c0.5-0.0667 0.85078-0.29922 1.0508-0.69922 0.26667-0.4 0.28234-0.83412 0.0488-1.3008l-0.0488-0.14844c-0.13333-0.4-0.31745-0.73333-0.55078-1-1.2-1.3333-2.3337-2.2016-3.4004-2.6016l-0.0488-0.0488c-0.5-0.2-0.86823-0.30078-1.1016-0.30078zm17.852 4.2012-0.80078 0.0488-0.15039 0.0508c-1.2667 0.1-2.5167 0.63294-3.75 1.5996-0.16667 0.16667-0.39922 0.48255-0.69922 0.94922l-0.15039 0.20118c-0.23333 0.33333-0.29922 0.69961-0.19922 1.0996 0.0333 0.33333 0.23294 0.61628 0.59961 0.84961 0.2 0.2 0.48294 0.31628 0.84961 0.34961l2.75 0.25h0.0996l0.70117-0.0996c0.96667-0.13333 1.7322-0.38333 2.2988-0.75 0.53333-0.33333 0.88411-0.78294 1.0508-1.3496 0.2-0.56667 0.167-1.1171-0.0996-1.6504-0.43333-1.0333-1.2667-1.5488-2.5-1.5488zm-50.201 2.5996c-0.16667 0-0.5 0.0504-1 0.15039-2.1333 0.6-3.8155 1.8984-5.0488 3.8984l-0.10156 0.15039c-0.26667 0.26667-0.44883 0.51667-0.54883 0.75-0.23333 0.56667-0.20033 1.0841 0.0996 1.5508 0.26667 0.4 0.66589 0.63255 1.1992 0.69922l0.40039 0.0508 0.25-0.0508c2.7-0.4 4.8008-1.4155 6.3008-3.0488 0.36667-0.36667 0.63216-0.75039 0.79883-1.1504 0.3-0.76667 0.15078-1.5012-0.44922-2.2012-0.46667-0.53333-1.1004-0.79883-1.9004-0.79883zm36.75 1.1504-0.15039 0.0488h-0.44922c-2.3667 0.0667-4.5004 0.18294-6.4004 0.34961-0.46667 0.0667-1.8 0.1345-4 0.20117l-13.199 0.44922c-1.1333 0-1.7012 0.58333-1.7012 1.75v1.7012c0.0667 2.1 0.0182 3.7996-0.14844 5.0996-0.0667 0.36667-0.18489 1.7155-0.35156 4.0488l-0.84961 10.602c-0.33333 2.9667-0.71706 5.5151-1.1504 7.6484l-1 5.8008v0.0996l-4.3496 17.801c-0.33333 1.1-0.55039 1.9837-0.65039 2.6504-0.0667 0.3-0.26628 0.83294-0.59961 1.5996-0.36667 0.86667-0.59922 1.4829-0.69922 1.8496l-0.15039 0.69922c-0.2 0.8-0.38411 1.3504-0.55078 1.6504-0.4 0.63333-0.96589 1.8174-1.6992 3.5508-0.36667 0.96667-0.7 1.7167-1 2.25l-1.1992 2.5c-1.1667 2.3333-1.9671 3.8488-2.4004 4.5488l-9.8008 16.551-0.19922 0.25c-0.56667 0.8-0.76628 1.4996-0.59961 2.0996 0.26667 0.83333 0.8655 1.25 1.7988 1.25h0.5l0.20117-0.0488 1.4492 0.0996c0.83333 0 1.6492 0.0504 2.4492 0.15039l1.5 0.0996c2.8333 0.26667 5.5504 0.56706 8.1504 0.90039l2.4512 0.25c1.6333 0.13333 2.8659 0.28255 3.6992 0.44922 0.4 0.1 0.88255 0.15039 1.4492 0.15039 1.5 0 2.6182-0.73451 3.3516-2.2012 0.36667-0.76667 1.0992-1.85 2.1992-3.25l1.9004-2.6992c1.4-2.0333 2.4329-3.7 3.0996-5l1.4492-2.6992c1.0333-1.7333 1.7678-3.1674 2.2012-4.3008l1.2988-2.8496c0.76666-1.6333 1.2182-2.6178 1.3516-2.9512l1.2988-3.4492c0.46667-1.3667 0.91628-2.5837 1.3496-3.6504 0.5-1.1667 1.1008-2.8488 1.8008-5.0488l2.3008-8.25c0.5-1.6333 0.86628-2.9667 1.0996-4l0.54883-2.2012c0.46666-1.7333 0.7845-3.0492 0.95117-3.9492 0.1-0.56667 0.31706-1.5512 0.65039-2.9512 0.33333-1.1667 0.54844-2.0988 0.64844-2.7988l0.0508-0.25h0.15039l0.75-0.15039 0.0996-0.0508 0.19922 0.0508h0.5c0.8-0.13333 1.3174-0.43372 1.5508-0.90039 0.23333-0.53333 0.15-1.1167-0.25-1.75l-1.4492-2.0996c-0.13333-0.26667-0.36784-0.45078-0.70117-0.55078l0.34961-3.6992c0.23333-2.6667 0.50078-4.9671 0.80078-6.9004 0.13333-0.83333 0.26706-2.1822 0.40039-4.0488l1.4004-14.5v-0.30078c0-0.5-0.15117-0.89922-0.45117-1.1992-0.33333-0.33333-0.75-0.5-1.25-0.5zm-60.449 0.59961c-0.96667 0-1.6333 0.41667-2 1.25s-0.26784 1.6163 0.29883 2.3496c0.2 0.26667 0.58372 0.6 1.1504 1l0.0996 0.0996c0.73333 0.53333 1.6016 0.91706 2.6016 1.1504 0.46667 0.1 1.2167 0.21628 2.25 0.34961h0.79883l0.20117 0.0508 0.34961-0.0508h0.0488l0.35156 0.0508c0.8 0 1.3659-0.38372 1.6992-1.1504 0.23333-0.93333-0.0671-1.6504-0.90039-2.1504v-0.0488c-1.2-1.2-3.0159-2.0682-5.4492-2.6016l-0.30078-0.0996c-0.4-0.13333-0.79922-0.19922-1.1992-0.19922zm74.1 4.1992-0.0996 0.0508c-2.1 0.16667-4.0167 0.98255-5.75 2.4492-0.53333 0.43333-0.75039 0.98372-0.65039 1.6504 0.13333 0.6 0.55 1.0167 1.25 1.25 1.0667 0.3 2.1171 0.44922 3.1504 0.44922 0.76667 0 1.5496-0.0988 2.3496-0.29883h0.15039c0.83333-0.26667 1.3333-0.46628 1.5-0.59961 0.76667-0.5 1.1504-1.2345 1.1504-2.2012-0.0333-1.4-0.85117-2.2663-2.4512-2.5996zm-67.9 4.5c-0.53333 0-1.0004 0.0678-1.4004 0.20117h-0.0488c-1.1667 0.33333-1.8663 0.84883-2.0996 1.5488-0.36667 1.1667 0.083 2.2171 1.3496 3.1504 0.73333 0.53333 1.5996 0.89961 2.5996 1.0996 0.56667 0.1 1.4504 0.16784 2.6504 0.20117h0.15039l0.29883-0.0508 1.0508-0.0508c0.6-0.0333 1.0322-0.26589 1.2988-0.69922 0.3-0.36667 0.36784-0.84922 0.20117-1.4492-0.26667-0.8-0.83451-1.5016-1.7012-2.1016l-0.19925-0.1484c-1.6333-1.1333-3.0171-1.7012-4.1504-1.7012zm67.951 5.1504c-1.9333 0.0333-3.7841 0.83373-5.5508 2.4004-0.53333 0.43333-0.73294 0.94883-0.59961 1.5488 0.13333 0.63333 0.55 1.0674 1.25 1.3008 0.23333 0.1 0.61706 0.18333 1.1504 0.25l0.25 0.0508 1.7988 0.14844c1.0333-1.4e-4 2.0004-0.14924 2.9004-0.44924h0.0508c0.93333-0.26667 1.5496-0.71628 1.8496-1.3496 0.26667-0.53333 0.28234-1.1671 0.0488-1.9004-0.36667-1.1-1.2833-1.7667-2.75-2zm-0.90039 9.1504c-1.8333 0.23333-3.3333 0.86706-4.5 1.9004l-0.0508 0.0488c-0.5 0.46667-0.69961 0.96667-0.59961 1.5 0.1 0.56667 0.48372 1.0008 1.1504 1.3008 0.76667 0.3 1.85 0.48216 3.25 0.54883l1.4004 0.0508 0.34961 0.0508c1 0 1.7655-0.45156 2.2988-1.3516 0.5-0.86667 0.5-1.7484 0-2.6484-0.4-0.73333-1.1326-1.15-2.1992-1.25h-0.30078c-0.2-0.1-0.41511-0.15039-0.64844-0.15039zm0.69922 8.2988c-2.0667 0.3-3.7004 1.0171-4.9004 2.1504-0.73333 0.66667-0.8651 1.3663-0.39844 2.0996 0.33333 0.53333 0.79844 0.81823 1.3984 0.85156l1.0508 0.14844c0.8 0.13333 1.4492 0.20117 1.9492 0.20117 0.6 0 1.1174-0.0678 1.5508-0.20117l0.34961-0.0996c1.4667-0.2 2.3504-0.91706 2.6504-2.1504 0.0667-0.3 0.0337-0.58294-0.0996-0.84961-0.23333-0.63333-0.65-1.1488-1.25-1.5488-0.56667-0.4-1.1829-0.60156-1.8496-0.60156zm-77.049 5.3515c-0.6 0-1.1504 0.28294-1.6504 0.84961-0.73333 0.93333-0.81667 2.1988-0.25 3.7988 1 2.6667 2.8333 4.4341 5.5 5.3008l0.25 0.0508 0.15039 0.0996 0.44922 0.0488c0.26667 0 0.51667-0.0659 0.75-0.19922 0.36667-0.2 0.58372-0.53333 0.65039-1l0.0488-0.40039-0.0996-0.90039c-0.2-0.66667-0.33372-1.0833-0.40039-1.25l-0.5-0.94922c-0.93333-2-1.8829-3.4167-2.8496-4.25l-0.15039-0.15039c-0.6-0.7-1.2318-1.0488-1.8984-1.0488zm14.148 1.6992c-1.2 0-2.1826 0.53294-2.9492 1.5996-1.4333 2.0667-1.7492 4.1829-0.94922 6.3496 0.16667 0.5 0.5155 0.80039 1.0488 0.90039h0.25c0.36667 0 0.71745-0.13372 1.0508-0.40039l0.94922-1c1.6-1.4667 2.6329-2.8155 3.0996-4.0488 0.3-0.8 0.31733-1.4996 0.0508-2.0996-0.26667-0.5-0.66589-0.85078-1.1992-1.0508-0.36667-0.16667-0.81823-0.25-1.3516-0.25zm-11.148 13.1-0.40039 0.0508h-0.20117c-1.7667 0.13333-3.1329 0.43373-4.0996 0.90039l-0.29883 0.0996c-0.6 0.26667-1.0167 0.51667-1.25 0.75-0.53333 0.46667-0.81823 1.05-0.85156 1.75 0 1.4 0.83333 2.2837 2.5 2.6504l0.40039 0.0996c0.2 0.1 0.41706 0.15039 0.65039 0.15039l1.4004-0.30078c1.7667-0.3 3.4333-1.3329 5-3.0996 0.5-0.53333 0.58333-1.1341 0.25-1.8008-0.2-0.66667-0.58372-1-1.1504-1l-0.40039-0.0488c-0.6-0.13333-1.1155-0.20117-1.5488-0.20117zm7.5996 7.4004c-2.1667 0.13333-4.25 0.61589-6.25 1.4492-1.3333 0.56666-2.0833 1.2333-2.25 2-0.13333 0.76666 0.31628 1.6349 1.3496 2.6016 0.4 0.36667 1.0163 0.59922 1.8496 0.69922l0.70117 0.0996h0.29883c2.7-0.6 4.6496-2.0671 5.8496-4.4004l0.20117-0.44922c0.16667-0.43333 0.14934-0.83255-0.0508-1.1992-0.23333-0.4-0.54922-0.6345-0.94922-0.70117h-0.0508c-0.13333-0.0667-0.33294-0.0996-0.59961-0.0996zm7.1504 6.4004-0.60156 0.0996c-0.13333 0.0667-0.59844 0.21589-1.3984 0.44922-1.3333 0.33333-2.4167 0.75-3.25 1.25l-0.10156 0.10156c-1.4 0.86667-1.9484 1.9326-1.6484 3.1992v0.15039c0.0667 0.16667 0.19844 0.5155 0.39844 1.0488 0.36667 0.63333 0.95 0.95117 1.75 0.95117l0.90039-0.0996c0.66667-0.0667 1.1841-0.21784 1.5508-0.45117 1.7667-1.0333 3.0671-2.4326 3.9004-4.1992 0.1-0.2 0.14844-0.46745 0.14844-0.80078l0.05078-0.0488c0.0667-0.4-0.0496-0.76823-0.34961-1.1016-0.26667-0.33333-0.6-0.5-1-0.5h-0.0508zm50.5 11.949c-0.93333 0-1.5671 0.46706-1.9004 1.4004-0.23333 0.73333-0.33411 1.5008-0.30078 2.3008 0.2 2.8 1.7329 4.8484 4.5996 6.1484 0.23333 0.13333 0.53372 0.20117 0.90039 0.20117l0.75-0.0996c0.4-0.1 0.70039-0.3345 0.90039-0.70117 0.3-0.53333 0.36589-1.0663 0.19922-1.5996l-0.19922-0.55079c-0.63333-2.1333-1.2341-3.6818-1.8008-4.6484l-0.14844-0.30078c-0.36667-0.6-0.6845-1.0341-0.95117-1.3008-0.53333-0.5-1.1671-0.7655-1.9004-0.79883v-0.0508zm-40.352 22.6c-0.63333 0-1.1663 0.26745-1.5996 0.80078-0.36667 0.46667-0.51589 1.0171-0.44922 1.6504 0.0667 0.63333 0.33216 1.1663 0.79883 1.5996 1.5667 1.4667 3.4174 2.3174 5.5508 2.5508h0.5c0.5-0.0667 0.88372-0.30117 1.1504-0.70117 0.23333-0.46667 0.24901-0.89883 0.0488-1.2988l-0.0488-0.0508-0.20117-0.40039c-1.2667-2.1333-2.7163-3.3988-4.3496-3.7988l-0.19922-0.10156c-0.5-0.16667-0.90117-0.25-1.2012-0.25zm-7.9492 5.4004c-0.63333 0-1.1992 0.26745-1.6992 0.80078-0.56666 0.43333-0.68489 1.0167-0.35156 1.75 0.33333 1.0333 0.95156 1.7833 1.8516 2.25 0.46667 0.26667 1.2167 0.51667 2.25 0.75l0.89844 0.15039 0.85156-0.0508c0.86667 0 1.45-0.36628 1.75-1.0996 0.43333-0.9 0.18333-1.6829-0.75-2.3496l-0.10156-0.0508c-0.8-0.83333-2.1488-1.5174-4.0488-2.0508zm29.4 2.3496-0.55078 0.10156c-0.43333 0.2-0.69883 0.51589-0.79883 0.94922v0.0996l-0.10156 0.5-0.29883 4.4004c-0.0667 0.83333 0.21628 1.6337 0.84961 2.4004 0.3 0.46667 0.73412 0.69922 1.3008 0.69922 0.5 0 1-0.19961 1.5-0.59961 1.1333-0.86667 1.5984-1.8841 1.3984-3.0508 0.0333-0.66667-0.0655-1.3159-0.29883-1.9492-0.13333-0.3-0.40078-0.81745-0.80078-1.5508l-0.54883-0.94922c-0.13333-0.33333-0.46667-0.63372-1-0.90039-0.2-0.1-0.41706-0.15039-0.65039-0.15039zm-8.4512 3.0508c-0.46667 0-0.89883 0.21706-1.2988 0.65039-1.3333 1.5667-1.9671 3.5996-1.9004 6.0996 0 0.4 0.13372 0.79922 0.40039 1.1992 0.26667 0.43333 0.6 0.73372 1 0.90039 0.26667 0.13333 0.56706 0.20117 0.90039 0.20117 0.7 0 1.2988-0.2849 1.7988-0.85156 0.9-0.93333 1.3167-2.133 1.25-3.5996 0.0333-0.66667-0.0829-1.4671-0.34961-2.4004l-0.19922-0.75c-0.06667-0.43333-0.25078-0.78216-0.55078-1.0488s-0.65078-0.40039-1.0508-0.40039zm-8.9492 2.5996c-0.26667 0-0.53411 0.0833-0.80078 0.25-2.4333 1.3667-3.85 3.0663-4.25 5.0996-0.13333 0.73333 3.9e-4 1.3341 0.40039 1.8008s0.91745 0.69922 1.5508 0.69922l0.75-0.0996c0.86667-0.23333 1.7329-0.95039 2.5996-2.1504 0.96667-1.2333 1.3833-2.3496 1.25-3.3496v-0.79883c-0.0333-0.46666-0.21745-0.83489-0.55078-1.1016-0.26667-0.23333-0.58255-0.34961-0.94922-0.34961zm-10.449 1.4004-0.0508 0.0508h-0.55078c-0.83333 0-1.8818 0.33334-3.1484 1l-0.80076 0.39842c-1.4667 0.66666-2.3659 1.5349-2.6992 2.6016-0.1 0.33333-0.0671 0.68216 0.0996 1.0488 0.43333 0.83333 1.1659 1.3333 2.1992 1.5 0.16667 0.0333 0.43411 0.0508 0.80078 0.0508 2.3667 0 4.1496-1.3178 5.3496-3.9512 0.13333-0.26667 0.19922-0.6155 0.19922-1.0488v-0.0996c0.0667-0.4-0.0651-0.76823-0.39844-1.1016-0.3-0.3-0.63333-0.44922-1-0.44922z" fill="#ef1d1e"/>
 <path d="m18.9 20.449c-0.1333-0.0333-0.26709 0.0345-0.40039 0.20117l-0.0996 0.0488c0.067 0.0667 0.067 0.11706 0 0.15039l0.65039 2.5508c0.9 2.9 1.8825 5.4988 2.9492 7.7988l0.0508 0.20117-0.25 0.0488c-0.3-0.16667-1.0171-0.43216-2.1504-0.79883-0.1333-0.0333-0.24961-0.0663-0.34961-0.0996-0.067-0.13333-0.20039-0.20117-0.40039-0.20117h-0.0996c-0.1-0.0333-0.1833-0.0663-0.25-0.0996 0 0.0333 0.0148 0.0663 0.0488 0.0996h-0.25c-0.3 0-0.4667 0.0329-0.5 0.0996-0.1333 0.13333-0.19922 0.31745-0.19922 0.55078 0.067 0.2 0.20039 0.33372 0.40039 0.40039l0.34961 0.0996c0.1333 0.0333 0.33291 0.0992 0.59961 0.19922h0.1992c0.8 0.16667 1.2671 0.30039 1.4004 0.40039 0.1 0.0333 0.50117 0.11667 1.2012 0.25 0.4667 0.1 0.78252 0.31706 0.94922 0.65039 0.2333 0.5 1.3341 2.8837 3.3008 7.1504l0.14844 0.54883c0.067 0.16667 7.8e-4 0.20156-0.19922 0.10156-1.1667-0.4-2.0504-0.71784-2.6504-0.95117-0.3333-0.13333-0.64922-0.28255-0.94922-0.44922 0 0.0333 0.0148 0.0663 0.0488 0.0996h-0.0996c-0.2 0-0.33369 0.10078-0.40039 0.30078v0.29883c0.067 0.26667 0.18486 0.45078 0.35156 0.55078l0.34961 0.19922 1 0.34961c0.1333 0.0333 0.24961 0.0508 0.34961 0.0508 0.4 0.16667 0.95039 0.35078 1.6504 0.55078 0.1667 0.0667 0.39922 0.11511 0.69922 0.14844 0.2333 0.0667 0.41748 0.20039 0.55078 0.40039 0.3333 0.53333 0.94961 1.7 1.8496 3.5 0.7667 1.5333 1.4992 2.7678 2.1992 3.7012l-0.29883-0.15039c-0.2333-0.1-0.95039-0.3345-2.1504-0.70117-0.067-0.0333-0.13252-0.0488-0.19922-0.0488l-0.0508-0.0508-0.40039-0.15039c-0.2667-0.0667-0.49922-0.0822-0.69922-0.0488-0.1333 0-0.23408 0.0504-0.30078 0.15039l-0.15039 0.29883 0.0508 0.25 0.15039 0.15039 0.19922 0.0996 0.34961 0.0996v0.05084c0.5333 0.16667 1.3183 0.36628 2.3516 0.59961 0.1667 0.1 0.44961 0.13303 0.84961 0.0996 0.3667 0 0.63213 0.18411 0.79883 0.55078 0.3333 0.63333 0.88369 1.5171 1.6504 2.6504 0.7667 1.2 1.3171 2.0837 1.6504 2.6504 0.067 0.1 0.43291 0.6155 1.0996 1.5488 0.4333 0.6 0.71631 1.1504 0.84961 1.6504 0 0.0333 0.083 0.0837 0.25 0.15039 0.1 0.0333 0.11708 0.0992 0.0508 0.19922-0.033 0.0667-0.21748 0.0512-0.55078-0.0488-0.5-0.0667-0.94961-0.33411-1.3496-0.80078-0.4667-0.56667-0.83291-0.96589-1.0996-1.1992-1.2333-1-2.3341-1.7016-3.3008-2.1016-0.5053-0.19437-1.025-5.2e-4 -1.5352-0.0586-0.3324-0.0519-0.69107-0.23985-1.0137-0.24023-0.2639 3e-4 -0.44876 0.14289-0.69336 0.17773-0.2376 0.0428-0.46833-0.099-0.70703-0.0273l-1.0508 0.34961c-0.4 0.16667-0.61514 0.41667-0.64844 0.75-0.016 0.17903 0.1668 0.27884 0.1875 0.44336l-0.13867 0.20703c-0.077 0.18373-0.0928 0.36589-0.0488 0.54883 0.042 0.22487 0.14053 0.40898 0.29883 0.55078 1.3377 1.1184 2.678 1.8303 4.0195 2.3125 0.212 0.0815 0.41816 0.32595 0.63086 0.38672 1 0.26667 1.7675 0.40039 2.3008 0.40039 0.3558 0.0137 0.60733-0.18119 0.92383-0.24609 0.4306-0.04 0.83497-0.054 1.3262-0.1543 0.1867-0.0377 0.1674-0.24179 0.2793-0.33984l0.32031-0.16016c0.2-0.0667 0.39961-0.0163 0.59961 0.15039 0.2333 0.16667 0.71592 0.35078 1.4492 0.55078 0.6 0.16667 1.0341 0.41667 1.3008 0.75 0.6667 1 1.1996 1.7151 1.5996 2.1484l4 4.8516c-0.1-0.0333-0.4333-0.0682-1-0.10156-0.4 0-0.71592-0.18216-0.94922-0.54883-0.039-0.0579-0.13674-0.10887-0.18164-0.16601-0.062-0.14568-0.12663-0.2894-0.26953-0.38477h-0.0488l-0.30664-0.19141c-0.1633-0.13433-0.24236-0.27812-0.44336-0.4082-0.7333-0.4-1.2663-0.70039-1.5996-0.90039-1.5-0.9-3.5679-1.0996-6.2012-0.59961-0.2382 0.0596-0.2221 0.24635-0.4082 0.33203-0.191 0.0395-0.29109 0.0226-0.49219 0.0684-0.4132 0.14634-0.55537 0.4403-0.57617 0.80078-0.015 0.0463-0.11285 0.051-0.12305 0.0996-0.1 0.33333-0.05 0.64922 0.15039 0.94922 0.067 0.1 0.29922 0.35 0.69922 0.75 0.014 0.015 0.0407 0.0165 0.0547 0.0312 0.048 0.0645 0.0267 0.16449 0.0957 0.21875 0.8873 0.57373 1.7136 0.9438 2.5332 1.293 0.4764 0.21499 0.76781 0.61517 1.3164 0.75781 1.0333 0.3 1.8337 0.46667 2.4004 0.5 0.9 0.0667 1.6829-0.1 2.3496-0.5 1.1333-0.7 2.2167-0.96745 3.25-0.80078 1 0.16667 1.6163 0.36628 1.8496 0.59961 0.2667 0.26667 0.28378 0.75117 0.0508 1.4512-0.1 0.26667-0.31709 1.2163-0.65039 2.8496l-1.1992 5.6504c-0.1333 0.63333-0.61787 2.4822-1.4512 5.5488l-1.7988 6.75c-0.4333 1.3667-1.0167 2.9345-1.75 4.7012-0.033 0.13333-0.0656 0.41628-0.0996 0.84961-0.1 0.33333-0.36748 0.39922-0.80078 0.19922-1.5-0.73333-4.1008-2.3322-7.8008-4.7988-0.2333-0.13333-0.41553-0.23411-0.54883-0.30078-0.2333-0.13333-0.3167-0.28255-0.25-0.44922l1.0995-2.2012c0.4333-0.86667 0.96631-1.5333 1.5996-2 1.841-1.3185 2.6893-3.0836 3.0449-5.0703 0.098-0.41481 0.1977-0.82913 0.2207-1.2598 0.01-0.27425 0.15397-0.48417 0.13477-0.76953-0.01-0.17846-0.15818-0.31963-0.20508-0.48828-0.029-0.27389 0.0131-0.53263-0.0449-0.8125-0.096-0.42005-0.36338-0.65261-0.80078-0.69922l-0.33203 0.0664c-0.1035-0.0173-0.21581-0.20627-0.31641-0.16602-0.091 0.0345-0.15053 0.11543-0.24023 0.15234l-0.21094-0.0527-0.29883 0.0996h-0.1016c-0.4482 0.22037-0.93665 0.80862-1.4062 1.2246-0.3129 0.23418-0.70729 0.3503-0.99219 0.625-1.1 1.2333-1.7667 2.9-2 5-0.011 0.19859 0.13944 0.20597 0.14844 0.38086v0.0195c-0.016 0.20729 0.034 0.49024 0.15039 0.84961l0.0508 0.10156c0.01 0.0336 0.01 0.0491 0 0.0488 0.071 0.18209 0.22189 0.14426 0.30859 0.2832 0.1259 0.15177 0.062 0.52781 0.24024 0.61719 0.4667 0.23333 0.53447 0.58412 0.20117 1.0508-0.4 0.66667-0.65 1.1996-0.75 1.5996-0.1 0.43333-0.1833 0.68333-0.25 0.75-0.067 0.0333-0.2333-0.0345-0.5-0.20117-0.8-0.56667-2.4337-2.0492-4.9004-4.4492-0.4333-0.26667-0.74922-0.49922-0.94922-0.69922-0.3-0.3-0.41826-0.68372-0.35156-1.1504 0.2667-1.3333 0.71826-2.4845 1.3516-3.4512l-0.20117-0.44917c-0.2-0.0667-0.39961-0.11706-0.59961-0.15039l-0.0996 0.0996-0.0996 0.15039-0.10156 0.20117-0.0508 0.14844v0.05079c-0.033 0.0333-0.0508 0.0663-0.0508 0.0996-0.2 0.7-0.54883 1.7174-1.0488 3.0508-1.6667-1.5333-2.8683-2.8008-3.6016-3.8008l-0.14844-0.25v-0.0488l-0.15039-0.15039c-0.2333-0.13333-0.43291-0.11757-0.59961 0.0488l-0.0508 0.0508h-0.0508l-0.0488 0.0996-0.0996 0.15039 0.14844 0.44922v0.0508l0.10156 0.0996h-0.0508c1 1.3 2.1337 2.55 3.4004 3.75 0.2333 0.23333 0.20069 0.4-0.0996 0.5l-2.7988 0.90038c-0.1333 0.1-0.24961 0.16589-0.34961 0.19922-0.033 0-0.0508 0.0174-0.0508 0.0508v0.0996l-0.0488-0.0488v0.0996c0.1333 0.23333 0.28252 0.46589 0.44922 0.69922 0.1-0.0333 0.23369-0.0663 0.40039-0.0996 0.2-0.2 0.45-0.31628 0.75-0.34961 0.1333 0 0.31553-0.0678 0.54883-0.20117 0.2333-0.13333 0.41748-0.19922 0.55078-0.19922 0.067 0 0.41748-0.11628 1.0508-0.34961 0.4333-0.16667 0.79961-0.10078 1.0996 0.19922l5.6504 5.4512-0.40039 0.14844-1.1504 0.60152c-0.4333 0.2-0.85 0.39961-1.25 0.59961-0.3333 0.23333-0.6667 0.43294-1 0.59961-0.067 0.1-0.15 0.20078-0.25 0.30078-0.033 0.1-0.033 0.19883 0 0.29883l0.40039 0.0996h0.0488c0.1333-0.1 0.28447-0.19883 0.45117-0.29883 0.5333-0.26667 1.0663-0.51667 1.5996-0.75l1.3496-0.55078c0.1333-0.0333 0.33291-0.13216 0.59961-0.29883 0.2667-0.13333 0.46826-0.13333 0.60156 0 1.1333 0.86667 3.05 2.1496 5.75 3.8496-0.2 0.16667-0.51787 0.39922-0.95117 0.69922-0.3667 0.3-0.63213 0.56745-0.79883 0.80078-0.5333 0.73333-1.2175 1.3322-2.0508 1.7988-0.066 0.0656-0.0986 0.11599-0.0996 0.15039v-0.0488l-0.0508 0.19922c-0.033 0.1-0.033 0.20078 0 0.30078l0.0508 0.0996c0.1333 0.13333 0.24961 0.19922 0.34961 0.19922 0.1667 0.0667 0.30039 0.0337 0.40039-0.0996 0.1-0.0333 0.15039-0.0992 0.15039-0.19922l0.0488-0.0508c0.033-0.0333 0.10117-0.0508 0.20117-0.0508 0.4667-0.33333 0.9667-0.78294 1.5-1.3496 0.9667-0.96667 1.5655-1.55 1.7988-1.75 0.2333-0.23333 0.43291-0.29922 0.59961-0.19922 1.4333 0.8 2.35 1.2671 2.75 1.4004 0.3 0 0.40078 0.0988 0.30078 0.29883-0.5667 1.2667-1.4 3.1678-2.5 5.7012l-2.8008 5.3496c-1.6666 3.2-2.7655 5.2659-3.2988 6.1992l-3.5508 5.8008c-1.9 3.2-3.1171 5.2-3.6504 6-0.5333 0.9-0.71553 1.5492-0.54883 1.9492 0.1667 0.43333 0.73252 0.70078 1.6992 0.80078 1.5333 0.2 2.7175 0.29883 3.5508 0.29883 1.3667 0 3.3996 0.2345 6.0996 0.70117l8.5996 0.84961c0.8 0.0667 1.3833 0.16745 1.75 0.30078 0.9 0.36667 1.7837 0.3997 2.6504 0.0996 0.8333-0.33333 1.5-0.91667 2-1.75 0.5667-0.9 1.5163-2.2178 2.8496-3.9512l2.3008-3.3496c0.3333-0.5 0.71709-1.1337 1.1504-1.9004 0.4333-0.83333 0.7667-1.4651 1-1.8984l0.0996-0.20117c1.7-2.9333 2.8163-4.9333 3.3496-6 0.7667-1.4667 1.5825-3.1992 2.4492-5.1992l4.25-11.051c0.8667-2.6333 1.4345-4.4667 1.7012-5.5l3.5996-13c0.7-3.4667 1.2504-6.0655 1.6504-7.7988 0.033-0.13333 0.0488-0.25156 0.0488-0.35156l0.0509-0.2988v-0.0508l0.75-5.0488c0.067-0.2 0.0838-0.35117 0.0508-0.45117l0.0488-0.0488c0-0.13333 0.0187-0.3 0.0527-0.5l0.59961-5.6504c1.7667 0.86667 2.9159 1.4655 3.4492 1.7988 0.4333 0.26667 0.73369 0.48372 0.90039 0.65039 0.2333 0.33333 0.33408 0.75 0.30078 1.25-0.067 0.7-0.0857 1.5663-0.0527 2.5996l0.15039 2.5508 0.15039 1.5-0.0996 0.55078-0.25-0.0508-0.40039-0.19922c-0.067-0.0333-0.4-0.1845-1-0.45117l-1.1504-0.44922-0.34961-0.20117-0.55078 0.10156-0.0996 0.0488c-0.067 0.0667-0.0996 0.1345-0.0996 0.20117l0.0996 0.34961v0.40039c0.1 0.1 0.24922 0.19883 0.44922 0.29883l0.80078 0.40039 1.3008 0.34961 0.34961 0.0508 0.25 0.0996c0.4333 0.2 0.66592 0.36667 0.69922 0.5 0.1333 1.1333 0.24961 2.6837 0.34961 4.6504v0.15039c0.033 0.66667 0.068 1.3992 0.10156 2.1992l0.25 4.6504c0 0.33333 0.048 0.98255 0.14844 1.9492v0.0508c0.067 0.66667 0.16748 1.5 0.30078 2.5-0.2667-0.2-0.40039-0.35117-0.40039-0.45117-0.033-0.36667-0.1167-0.74844-0.25-1.1484-0.1-0.23333-0.19883-0.45039-0.29883-0.65039l-1.0508-1.6504c-0.2334-0.42796-0.78441-0.56733-1.1289-0.89453-0.2467-0.21796-0.49632-0.42926-0.76171-0.60547-0.3754-0.23176-0.54567-0.64994-1.0098-0.80078-0.4333-0.13333-0.90039-0.23216-1.4004-0.29883-0.2482-0.0248-0.44011-0.0305-0.63281-0.0371-0.062-6e-3 -0.10342-0.0578-0.16602-0.0625h-0.0508c-0.067-6e-5 -0.08 0.0818-0.14063 0.0918-1.103 0.0288-1.499 0.51861-1.0586 1.5566 0.093 0.24371 0.24791 0.38032 0.34961 0.60937 0.019 0.0773-0.041 0.16892 0 0.24219 0.2055 0.39062 0.43674 0.5515 0.64844 0.88867 0.45 0.77406 0.9302 1.4963 1.5039 2.0547 0.052 0.0492 0.0959 0.15864 0.14844 0.20508 0.082 0.0726 0.20837 0.0588 0.29297 0.12695 0.5478 0.4612 1.057 0.99037 1.707 1.2734 0.7861 0.34938 1.2793 0.33479 1.6582 0.17578 0.1101 0.0159 0.17862 0.11359 0.29102 0.125h0.0996c0.1386-3e-3 0.18928-0.16189 0.30078-0.21289 0.2331-0.0627 0.46622-0.11487 0.69922-0.0371 0.3333 0.13333 0.53291 0.33294 0.59961 0.59961 0.2667 1.1667 0.46826 2.3333 0.60156 3.5 0.2 2.2667 0.46553 3.9508 0.79883 5.0508 0.033 0.13333 0.0182 0.46667-0.0488 1l-0.75-0.5c-1.1333-0.6-1.8504-1.4178-2.1504-2.4512-0.082-0.25261-0.33918-0.42349-0.45508-0.66016-0.1848-0.32673-0.39851-0.64876-0.66601-0.96289-0.9502-1.2208-2.2555-2.2773-4.3301-2.9766-0.2469-0.0864-0.46563 0.10616-0.70313 0.11133-0.047-3e-3 -0.1-0.0593-0.14648-0.0606l-1 0.14844c-0.3061 0.12682-0.48833 0.36132-0.54883 0.70117-0.026 0.28484 0.11996 0.44851 0.25586 0.61914 0.01 0.19899-0.17822 0.29846-0.10742 0.53125 0.059 0.2954 0.28137 0.62692 0.57617 0.97461 0.01 0.0247 0.0194 0.0545 0.0254 0.0742l1.0996 1.8496v-0.0488c0.1475 0.21501 0.5886 0.32914 0.7793 0.5293 0.3686 0.38074 0.57833 0.99525 1.0195 1.2695 0.7667 0.5 1.3345 0.80039 1.7012 0.90039 0.1523 0.0561 0.30473-0.039 0.45703-0.0117 0.043 0.0165 0.0478 0.0462 0.0918 0.0625l0.45117 0.0996c0.088-9e-3 0.15392-0.0266 0.19922-0.0508 0.024-0.0189 0.0418-0.0344 0.0508-0.0488l0.0996-0.0508c0.043-0.01 0.08-0.023 0.11523-0.0371 0.1452-0.0347 0.29035 0.0494 0.43555-0.0117 0.1667-0.0333 0.38174-0.13411 0.64844-0.30078 0.2333-0.1 0.45039-0.0496 0.65039 0.15039 0.1 0.1 0.54961 0.35 1.3496 0.75 0.5667 0.3 0.9 0.68373 1 1.1504l1.1504 4.6992c0.1333 0.63333 0.49961 2.0326 1.0996 4.1992l-2.6992-1.5c-0.4-0.16667-0.70039-0.29844-0.90039-0.39844-0.3667-0.2-0.59922-0.45-0.69922-0.75-0.2275-0.62838-0.60747-1.1091-0.95117-1.625-0.046-0.084 0.0102-0.13919-0.0488-0.22656-0.043-0.0706-0.12168-0.10026-0.17578-0.1582-0.6831-0.9002-1.4977-1.6731-2.5742-2.1914-0.1757-0.0803-0.43249-0.0863-0.61719-0.1582-0.37-0.16591-0.83278-0.20057-1.2383-0.31641-0.7376-0.20079-1.3865-0.48298-2.2441-0.57422-0.083-9e-3 -0.1364 0.0671-0.2168 0.0664-0.031-1e-3 -0.053-0.0165-0.084-0.0176h-0.0508c-0.095 2.8e-4 -0.1376 0.10179-0.2207 0.125-0.376 0.0622-0.77333 0.0649-1.0781 0.32617-0.1556 0.13333-0.0702 0.46981-0.0332 0.76563-0.026 0.0853-0.11719 0.13504-0.11719 0.23437 0 0.1957 0.0286 0.37786 0.0996 0.54883 0.022 0.047 0.0388 0.0974 0.0508 0.15039 0.1717 0.36352 0.53118 0.54073 0.73828 0.86914 0.519 0.96615 1.2084 1.7834 2.0762 2.4453 0.1186 0.0887 0.16136 0.2525 0.28516 0.33594l0.0527 0.0488c0.2134 0.15037 0.46741 0.21086 0.69141 0.33789 0.2437 0.13301 0.3938 0.34795 0.6582 0.46289 0.2782 0.12072 0.49416 0.13591 0.75586 0.22852 0.092 0.0296 0.18425 0.0577 0.27735 0.084 1.2735 0.4101 2.4024 0.57485 3.2656 0.28711 0.2809-0.0265 0.35768-0.26586 0.48438-0.45313 0.074-0.0127 0.10479-0.11064 0.21679-0.0469 0.6 0.33333 1.4992 0.78294 2.6992 1.3496 0.033 0.0333 0.41709 0.1845 1.1504 0.45117 0.4667 0.2 0.76709 0.48294 0.90039 0.84961 0.3333 0.76667 0.78291 1.9333 1.3496 3.5 0.3 0.63333 0.73408 1.5829 1.3008 2.8496 0.5333 1.1 1.0488 2.0167 1.5488 2.75 0.4333 0.6 1.0496 1.5012 1.8496 2.7012 0.7 1.0333 1.3512 1.8667 1.9512 2.5l3.1992 2.7988c-1.2-0.36667-2.0663-0.66706-2.5996-0.90039-0.1333-0.0667-1.1837-0.33216-3.1504-0.79883-1.2667-0.33333-2.1988-0.91667-2.7988-1.75-0.067-0.1-0.5667-0.63294-1.5-1.5996l-0.05272-0.05072c-0.2667-0.26667-0.46631-0.53411-0.59961-0.80078l-0.0996-0.0488h-0.15039c-0.067-0.0667-0.15-0.0996-0.25-0.0996-0.1333-0.0333-0.26709-3e-4 -0.40039 0.0996l-0.0996 0.0996c-0.1333 0.23333-0.10069 0.51628 0.0996 0.84961l0.34961 0.25c0.1667 0.16667 0.26748 0.25 0.30078 0.25 0.033 0.0333 0.084 0.0663 0.15039 0.0996l0.0996 0.10156c0.8333 0.86667 1.3837 1.3996 1.6504 1.5996h-0.55078c-2.6-0.6-5.6659-0.98372-9.1992-1.1504l-3.4512-0.0508c-0.1667 0-0.30039-0.0484-0.40039-0.14844-0.1477-0.16615-0.47379-0.15368-0.64649-0.29492-0.1-0.15225-0.081-0.37311-0.30273-0.45508-0.5002-0.15535-0.76133-0.12417-1.2031-0.23437-0.4818-0.17323-0.75716-0.55301-1.3477-0.61719-1.2333-0.13333-2.2159-0.13333-2.9492 0-0.4256 0.0686-0.717 0.39152-1.0918 0.55664-0.071 0.0303-0.13868 0.0723-0.20898 0.10547-0.4515 0.22691-0.97601 0.31589-1.3496 0.68945-0.277 0.24928-0.28373 0.40829-0.45703 0.62305-0.075 0.0738-0.16899 0.0976-0.24219 0.17578v0.0508c-0.037 0.038 0.0124 0.0898-0.0176 0.12891-0.096 0.16332-0.35961 0.38235-0.38281 0.52148-0.026 0.13729 0.22611 0.26347 0.25781 0.39844 0.01 0.0188-0.0158 0.0318-0.01 0.0508 0.035 0.025 0.0518 0.0424 0.0508 0.0508 0.01 0.0156 0.0329 0.0228 0.0449 0.0371 0.1309 0.34066 0.1533 0.68495 0.6543 1.0117 0.061 0.0419 0.13772 0.0212 0.19922 0.0606 0.015 0.0143 0.0378 0.0229 0.0508 0.0391 0.1751 0.22057 0.39219 0.37174 0.65039 0.45117 0.3225 0.13672 0.77211 0.23555 1.3496 0.29883 0.1477 0.0228 0.3881 0.0296 0.625 0.0371 0.6172 0.0422 1.2931-0.14519 1.9609-0.30078 0.3368-0.0865 0.67282-0.15683 1.0117-0.29297 0.4601-0.16858 0.86907-0.13679 1.3516-0.39258 0.69999-0.46667 1.2175-0.8 1.5508-1 0.6333-0.4 1.2167-0.59961 1.75-0.59961l0.55078 0.0488c0.7333 0.16667 1.8651 0.25 3.3984 0.25l4.2012 0.40039c0.1 0 0.16592 0.0329 0.19922 0.0996 0.033 0.0667 0.0182 0.11706-0.0488 0.15039-0.2 0.13333-0.51787 0.36784-0.95117 0.70117-0.4 0.23333-0.71592 0.34961-0.94922 0.34961h-0.0293c-0.2005-0.2445-0.4305-0.41781-0.7207-0.45117l-1.7012 0.40039 0.0508-0.0488c-0.7148 0.24701-1.3389 0.71365-1.9707 1.1621-0.1625 0.10082-0.31411 0.12121-0.47851 0.23633-0.041 0.0297-0.0518 0.0696-0.0918 0.0996-0.2993 0.24958-0.55674 0.60188-0.83594 0.90039-0.6078 0.59826-1.1924 1.2045-1.5352 1.8926-0.026 0.0429-0.0619 0.0639-0.0879 0.10742-0.1339 0.25325-0.16637 0.49773-0.13867 0.73633-0.209 0.62496-0.50142 1.2219-0.51172 1.9141 0 0.43333 0.1667 0.6 0.5 0.5 1.8-0.43333 2.8329-0.68333 3.0996-0.75 0.73689-0.14739 1.5115-0.65744 2.3008-1.3262 0.016-0.0132 0.0348-0.01 0.0508-0.0234 0-3e-3 2e-3 -7e-3 0.0117-0.01 0.084-0.0723 0.15964-0.0624 0.24414-0.14062 0.8667-0.83333 1.4325-1.6492 1.6992-2.4492l0.0996-1.0508c0-0.43333 0.1667-0.73372 0.5-0.90039l0.15039-0.0996c0.2333-0.1 0.7333-0.41589 1.5-0.94922 0.6-0.43333 1.1504-0.65039 1.6504-0.65039 0.7 0.0333 1.7155 0.25039 3.0488 0.65039 0.7333 0.2 1.8167 0.4655 3.25 0.79883 1.2667 0.3 2.3345 0.60039 3.2012 0.90039 1.0667 0.4 2.6655 0.93294 4.7988 1.5996 0.7513 0.20514 2.1091 0.50274 0.95118-0.39844l-4.4512-3.3516c-1.3333-0.96667-2.5155-2.1663-3.5488-3.5996-1.0333-1.5333-2.1341-3.4655-3.3008-5.7988-1.0667-2.2667-1.8825-4.3016-2.4492-6.1016-0.1333-0.26667-0.2167-0.46628-0.25-0.59961-0.1-0.23333-0.13261-0.48333-0.0996-0.75 0.033-0.33333 0.16514-0.71706 0.39843-1.1504 0.3333-0.63333 0.51749-1.0151 0.55079-1.1484 0.1667-0.56666 0.30039-1.0008 0.40039-1.3008 0.2-0.5 0.50039-0.83333 0.90039-1 0.392-0.16038 0.7536-0.47997 1.1289-0.72852 0.051-0.0392 0.12183-0.0246 0.16993-0.0723v-0.0371c0.96559-0.67825 1.8959-1.5429 2.75-2.8125 0.3952-0.5708 0.4944-1.3819 0.6582-2.1406 0.01-0.0415 0.036-0.0673 0.043-0.10937v-0.0391c0.066-0.34643 0.27522-0.57665 0.29492-0.96094-0.033-1.5-0.0508-2.6337-0.0508-3.4004 0-0.23333-0.11826-0.38255-0.35156-0.44922-0.3667-0.2-0.76592-0.23303-1.1992-0.0996-0.068 0.0137-0.31548 0.14651-0.45117 0.20508l-0.0488-6e-3c-0.1996 8e-3 -0.34882 0.0409-0.44922 0.0996-0.049 0.0393-0.1 0.0568-0.15039 0.0508l-0.75 0.55078v0.0488c-0.4128 0.3602-0.52659 0.79076-0.86719 1.168-0.5074 0.5165-1.1601 0.81942-1.5332 1.5332-0.1807 0.32674-0.12839 0.58143-0.27149 0.89649-0.1857 0.4026-0.2619 0.83119-0.3789 1.25-0.2174 0.71724-0.65039 1.5015-0.65039 2.1523 0.033 0.3 0.13408 0.71667 0.30078 1.25 0.016 0.0451 0.0104 0.0527 0.0234 0.0957 0.013 0.0895-0.0394 0.16378-0.0234 0.25391 0.011 0.075 0.098 0.0649 0.11914 0.1289 0.073 0.26146 0.18164 0.58225 0.18164 0.72266 0.033 0.46667-0.085 0.99961-0.35156 1.5996-0.067 0.16667-0.3167 0.68216-0.75 1.5488-0.1 0.23333-0.21631 0.1345-0.34961-0.29883-0.3667-1.2-0.63213-2.1845-0.79883-2.9512-0.7667-3.6333-1.2183-6.0151-1.3516-7.1484-0.1333-1.4-0.18174-2.3167-0.14844-2.75 0.1-0.96666 0.5167-1.7845 1.25-2.4512 0.1-0.1 0.33252-0.40039 0.69922-0.90039 0.2333-0.36667 0.45039-0.56628 0.65039-0.59961 0.2523-0.0315 0.47981-0.28588 0.72851-0.34961h0.0234c0.812-0.12617 1.6783-0.52539 2.5996-1.1992 0.04-0.031 0.0528-0.0741 0.0918-0.10547 0.1318-0.1029 0.2775-0.0823 0.4082-0.19531 0.7333-0.6 1.3167-1.2996 1.75-2.0996 0.2-0.36667 0.3667-0.73294 0.5-1.0996 0.2-0.7 0.31631-1.4345 0.34961-2.2012 0.033-0.5 0.033-0.83333 0-1-0.1333-0.33333-0.43369-0.48255-0.90039-0.44922-0.4 0.0333-0.99883 0.14961-1.7988 0.34961-0.2 0.0333-0.38408 0.0992-0.55078 0.19922-0.6 0.2-1.1659 0.51784-1.6992 0.95117-0.5 0.4-0.98447 0.9-1.4512 1.5-1.1 1.4333-1.6155 2.8655-1.5488 4.2988 0.067 0.66666-0.085 1.2849-0.45117 1.8516-0.2 0.33333-0.56631 0.81589-1.0996 1.4492-0.3333-1.8333-0.5-3.2171-0.5-4.1504 0-1.0667-0.11631-2.0163-0.34961-2.8496-0.1667-0.56667 0.066-1.4504 0.69922-2.6504 0.033-0.0333 0.0508-0.0663 0.0508-0.0996 0.3-0.56667 0.60039-1.0008 0.90039-1.3008 0.2667-0.36667 0.53213-0.56628 0.79883-0.59961 0.3124-0.039 0.6014-0.21962 0.9082-0.29297 0.036 3e-3 0.0538 0.0437 0.0918 0.043 0.131-3e-3 0.2143-0.0182 0.25-0.0488 0.049-3e-3 0.084-0.0208 0.10156-0.0508 0.2221-0.0844 0.27948-0.15885 0.48438-0.24219 0.4194-0.15103 0.85752-0.19056 1.2656-0.4082 0.2818-0.15851 0.33815-0.35589 0.58984-0.51953 0.3029-0.17341 0.8381-0.36073 1.0586-0.5293 0.664-0.48939 1.156-1.0952 1.5488-1.7676 0.031-0.048 0.12364-0.0845 0.15234-0.13281 0.1006-0.1509 0.11738-0.43574 0.17578-0.6543 0.1207-0.30134 0.29755-0.56477 0.37305-0.89648 0.05-0.15779-0.0361-0.33852-0.10156-0.51563 0.038-0.23322 0.0791-0.49235 0.10156-0.58398 0.067-0.2 0.0838-0.34922 0.0508-0.44922-0.033-0.0667-0.14961-0.1345-0.34961-0.20117-0.1711-0.0571-0.37961-0.0962-0.59961-0.12891-0.078-0.0233-0.11027-0.1177-0.20117-0.12109l-0.51367 0.13477c-0.081 7e-3 -0.15233 5e-3 -0.23633 0.0156-0.6667 0.16667-1.1821 0.26745-1.5488 0.30078-0.1191 0.0143-0.27719 0.19653-0.40039 0.22852-0.7305 0.23279-1.4022 0.59467-1.9922 1.1387-0.1463 0.12238-0.2577 0.0916-0.4082 0.23242-1 0.93333-1.5659 1.8171-1.6992 2.6504-0.015 0.12173-0.0144 0.33863-0.0234 0.50195-0.01 0.0186-0.0223 0.0283-0.0273 0.0469v0.0508c-0.042 0.18503-0.042 0.35169 0 0.5 0 0.2 0.0168 0.38216 0.0508 0.54883-0.033 0.2-0.068 0.35117-0.10156 0.45117-0.067 0.23333-0.19844 0.49883-0.39844 0.79883l-0.25 0.25c-0.2 0.23333-0.51787 0.56667-0.95117 1-0.1672-1.966-0.28291-3.7826-0.34961-5.4492-0.067-1.7-0.0996-3.2659-0.0996-4.6992-0.033-0.1-0.0508-0.18333-0.0508-0.25 0-0.1 0.05-0.15039 0.15039-0.15039 0.067 0 0.65-0.18411 1.75-0.55078 0.2-0.0667 0.39961-0.11706 0.59961-0.15039l0.0996-0.14844 0.20117-0.20117c-0.067-0.16667-0.11709-0.30039-0.15039-0.40039-0.067-0.13333-0.13252-0.24961-0.19922-0.34961-0.6333 0.26667-1.2167 0.43333-1.75 0.5-0.2 0.1-0.3667 0.16784-0.5 0.20117-0.2 0.0667-0.31826-1e-3 -0.35156-0.20117v-0.34963c-0.033-0.96667-0.099-3.1004-0.19922-6.4004 0-0.2 0.05-0.33372 0.15039-0.40039 0.6-0.3 1.2821-0.46667 2.0488-0.5 0.6-0.36667 0.58447-0.73294-0.0488-1.0996-0.234 0.0677-0.45039 0.11706-0.65039 0.15039-0.5667 0.26667-0.96592 0.38294-1.1992 0.34961-0.3667-0.0333-0.55078-0.2-0.55078-0.5 0.067-0.33333 0.0996-0.56589 0.0996-0.69922 0.067-0.43333 0.0838-1.1 0.0508-2 0-0.53333 0.0148-0.98294 0.0488-1.3496-0.033-0.0667-0.033-0.11706 0-0.15039v-0.5c-0.1-0.63333-0.16592-1.1178-0.19922-1.4512 0-0.6 0.3333-0.98177 1-1.1484 0.3-0.0667 0.74961-0.21784 1.3496-0.45117 0.3333-0.1 0.63369-0.13303 0.90039-0.0996 0.033-0.1 0.14961-0.21628 0.34961-0.34961s0.10117-0.31745-0.29883-0.55078l-0.5-0.0996c-0.5 0.23333-0.98447 0.36706-1.4512 0.40039-0.067 0-0.3167 0.0833-0.75 0.25-0.3 0.13333-0.4667 0.1003-0.5-0.0996-0.1-1.2333-0.15039-3.7333-0.15039-7.5 0-0.36667 0.0168-0.58372 0.0508-0.65039 0.033-0.26667 0.18252-0.43333 0.44922-0.5h0.0508c0.3333-0.0333 0.81592-0.14961 1.4492-0.34961 0.3667-0.0667 0.71748-0.0512 1.0508 0.0488 0.7-0.26667 0.8667-0.69883 0.5-1.2988l-0.25-0.0508-0.19922 0.0508c-0.1333 0.0333-0.3 0.0333-0.5 0h-0.05075c-1.0667 0.3-1.8167 0.51511-2.25 0.64844v-4.3984c0-1.0333 0.066-1.9345 0.19922-2.7012 0-0.16667 0.15117-0.33333 0.45117-0.5 0.3333-0.2 0.76553-0.34922 1.2988-0.44922h0.15039c0.067-0.0333 0.11709-0.0663 0.15039-0.0996l0.55078-0.10156 0.34961 0.0508 0.15039-0.15039c0.1667-0.1 0.25-0.26667 0.25-0.5 0-0.1-0.05-0.19883-0.15039-0.29883-0.2333-0.1-0.4833-0.15039-0.75-0.15039-0.5 0.3-1.2345 0.60039-2.2012 0.90039l-0.19922 0.0488c-0.033 0-0.0508-0.0659-0.0508-0.19922-0.033-1.2333-0.0488-2.15-0.0488-2.75 0-1.0667 0.066-1.9833 0.19922-2.75 0.067-0.56667 0.3167-1.0337 0.75-1.4004 0.2667-0.23333 0.58447-0.36706 0.95117-0.40039 0.5333-0.86667 0.5333-1.3492 0-1.4492-0.4667 0.43333-0.85039 0.71628-1.1504 0.84961-0.2667 0.1-0.36748 0.0341-0.30078-0.19922 0.067-0.33333 0.11709-0.75 0.15039-1.25v-1.3005c0-0.0667-0.0168-0.43294-0.0508-1.0996-0.4-0.16667-0.69844-0.0174-0.89844 0.44922l0.0996 0.59961c-0.033 0.66666-0.14961 1.6667-0.34961 3l-0.10156 0.55078-0.5-0.30078-2.5488-1.8496c-0.3333-0.23333-0.61631-0.48333-0.84961-0.75-0.5333 0.1-0.6167 0.46628-0.25 1.0996 0.8667 0.6 1.7484 1.2512 2.6484 1.9512 0.067 0.0667 0.35156 0.23333 0.85156 0.5 0.3667 0.16667 0.54883 0.39922 0.54883 0.69922 0 0.0667-0.14922 1.5337-0.44922 4.4004-0.9333-0.53333-1.6-0.98294-2-1.3496-0.067-0.0667-0.36709-0.25078-0.90039-0.55078-0.1333-0.0667-0.23408-0.13255-0.30078-0.19922-0.6 0.3-0.6833 0.63333-0.25 1 0.7667 0.43333 1.5671 0.96628 2.4004 1.5996 0.2 0.13333 0.46748 0.31745 0.80078 0.55078 0.2667 0.23333 0.38291 0.56667 0.34961 1-0.1333 1.2-0.2167 3.0159-0.25 5.4492l-0.15039 1c-0.5667-0.13333-0.91553-0.36589-1.0488-0.69922-0.3-0.13333-0.53447-0.25156-0.70117-0.35156-0.3333-0.13333-0.56592-0.23216-0.69922-0.29883-0.3-0.13333-0.45117-0.2845-0.45117-0.45117 0.033-0.3 0.0508-1.6159 0.0508-3.9492l0.0508-0.84961c0-0.43333-0.15117-0.65039-0.45117-0.65039-0.9667-0.0333-1.6992-0.0159-2.1992 0.0508l-7.4004 0.54883c-2.9333 0.0333-5.1329 0.11667-6.5996 0.25-3.8667 0.26667-6.7833 0.41784-8.75 0.45117-0.2333-0.0667-0.43291-0.11706-0.59961-0.15039-0.2667-0.0333-0.41787 0.13333-0.45117 0.5 0 0.73333-0.0148 1.8167-0.0488 3.25 0.067 0.93333 3e-5 2.2822-0.20117 4.0488-0.2 1.8333-0.29883 3.1841-0.29883 4.0508 0 0.73333-0.083 1.8167-0.25 3.25-0.2 1.4667-0.30078 2.55-0.30078 3.25 0 0.83333-0.066 1.8508-0.19922 3.0508-0.1 0.66667-0.23369 1.6667-0.40039 3-0.067 0.7-0.50078 3.4655-1.3008 8.2988 0 0.13333-0.066 0.3-0.19922 0.5l-0.40044-0.29885c-1.4-1.6-2.4329-2.8171-3.0996-3.6504-0.4667-0.46667-0.8-0.81745-1-1.0508-0.4333-0.43333-0.63291-0.85-0.59961-1.25 0.1667-1.5 0.28291-2.6337 0.34961-3.4004 0.1333-1.6333 0.68369-2.8 1.6504-3.5 0.2667-0.2 0.49922-0.59922 0.69922-1.1992 0.141-0.38274 0.029-0.71324 0.13086-1.0879 0.3911-1.1941 0.5723-2.4733 0.4668-3.8672-0.015-0.14151 0.0767-0.30516 0.0547-0.44531-0.02-0.12892-0.0337-0.13461-0.0527-0.24414v-8e-3c-0.073-0.42259-0.14457-0.81562-0.19727-0.94727-0.1667-0.36667-0.46709-0.63411-0.90039-0.80078-0.3333-0.1-0.63369-0.0671-0.90039 0.0996-0.067 0-0.3167 0.18411-0.75 0.55078-0.2333 0.2-0.54922 0.53333-0.94922 1-0.063 0.0566-0.061 0.15064-0.12109 0.20898-0.3533 0.44652-0.6205 0.97385-0.875 1.5137-0.2721 0.49921-0.73042 0.89197-0.85352 1.4766-0.2 1-0.2 2.2345 0 3.7012 0.1483 1.0679 0.61782 1.5526 1.3203 1.6172 0.08 0.0356 0.13531 0.12523 0.22851 0.13281l0.0234-4e-3c0.1719 5e-3 0.26603 0.0886 0.17773 0.35352l-0.45117 3.8008-1.2988-1.6504-2.9004-4.5508c-1.4667-2.2333-2.4337-3.7333-2.9004-4.5-0.9-1.4-1.9329-3.1171-3.0996-5.1504-0.3333-0.53333-0.5833-0.95-0.75-1.25-0.2667-0.46667-0.41787-0.88333-0.45117-1.25-0.033-0.16667 0.15078-0.39922 0.55078-0.69922 0.4667-0.33333 0.78252-0.58333 0.94922-0.75 0.067-0.13333 0.13447-0.21667 0.20117-0.25 0.1-0.0667 0.44883-0.4 1.0488-1 0.1667-0.16667 0.3333-0.30039 0.5-0.40039l0.10156-0.25c-0.067-0.13333-0.11709-0.24961-0.15039-0.34961l-0.0996-0.0996h-0.0508l-0.40039 0.0488c-0.2667 0.23333-0.66592 0.55117-1.1992 0.95117-0.6333 0.5-1.1004 0.91667-1.4004 1.25-0.3667 0.5-0.68252 0.44961-0.94922-0.15039-1.3667-2.9-2.3667-5.0841-3-6.5508-0.1-0.1-0.16787-0.18333-0.20117-0.25-0.067-0.13333-0.0344-0.24961 0.0996-0.34961l0.0508-0.0488c0.4333-0.36667 0.78408-0.63411 1.0508-0.80078 0.2333-0.13333 0.59961-0.49961 1.0996-1.0996 0.1667-0.23333 0.34883-0.41745 0.54883-0.55078l0.10156-0.15039v-0.0488l0.14844-0.30078-0.0996-0.25v-0.0488c-0.2667-0.26667-0.53213-0.31706-0.79883-0.15039l-0.10156 0.0488-0.14844 0.15039v0.0508c-0.067 0.1-0.13447 0.18333-0.20117 0.25h-0.0488v0.0488c-0.4667 0.6-0.91826 1.0845-1.3516 1.4512-0.4 0.33333-0.61514 0.64922-0.64844 0.94922l-0.30078-0.54883-3-6.6504c-0.2-0.36667-0.21708-0.6845-0.0508-0.95117 0.4333-0.73333 1.0671-1.4329 1.9004-2.0996 0.067-0.16667 0.13447-0.28294 0.20117-0.34961l0.25-0.40039-0.35156-0.40039c-0.1333 0-0.24961 0.0174-0.34961 0.0508-0.1667 0.1-0.30039 0.18333-0.40039 0.25-0.3 0.5-0.64883 0.89922-1.0488 1.1992-0.1 0.0667-0.36748 0.31667-0.80078 0.75l-0.15039-0.29883c-0.2667-0.7-0.48174-1.2833-0.64844-1.75l-0.75-2.7012c-0.067-0.16667-0.20039-0.25-0.40039-0.25zm56.35 16c0.2667 0 0.40039 0.10078 0.40039 0.30078v0.15039l-1.25 12.799c-0.1333 1.2667-0.31748 3.1504-0.55078 5.6504-0.067 0.36667-0.15 1.0004-0.25 1.9004v0.0508c-0.067 0.66667-0.15 1.4826-0.25 2.4492-0.1333 1.4-0.3 3.0841-0.5 5.0508l-0.0996 1.0996c-0.1 0.66667-0.20078 1.3663-0.30078 2.0996-0.1 0.56667-0.1833 1.1674-0.25 1.8008l-0.29883 1.5996c-0.033 0.0667-0.0508 0.15-0.0508 0.25-0.2333 1.3-0.68291 3.2167-1.3496 5.75-0.2333 1.3667-0.71592 3.3996-1.4492 6.0996-0.1333 0.66667-0.35039 1.5-0.65039 2.5-0.2667 0.96667-0.61748 2.1004-1.0508 3.4004l-1.6992 6.25c-0.5667 1.8667-1.1345 3.5004-1.7012 4.9004-0.6667 1.5667-1.5659 3.9484-2.6992 7.1484-0.5333 1.3-1.4171 3.2341-2.6504 5.8008-0.6 1.5-1.7337 3.6667-3.4004 6.5l-0.19921 0.34959c-0.5333 1.0333-1.6826 2.8667-3.4492 5.5-0.2333 0.4-0.88447 1.3012-1.9512 2.7012-0.8 1.1-1.3988 2.0167-1.7988 2.75s-0.88447 1.1984-1.4512 1.3984c-0.4333 0.13333-1.0321 0.11757-1.7988-0.0488-0.8333-0.2-1.8683-0.35117-3.1016-0.45117-2.0666-0.2-3.1151-0.29883-3.1484-0.29883-1.5-0.2-4.7346-0.53333-9.7012-1-0.5-0.0667-1.1667-0.11706-2-0.15039-1.0333-0.0333-1.7-0.0663-2-0.0996l-0.75 0.0488c-0.2667 0-0.41592-0.0833-0.44922-0.25-0.033-0.13333 0.033-0.3155 0.19922-0.54883 0.2333-0.3 0.38447-0.51706 0.45117-0.65039 1.1333-1.8333 1.9821-3.2171 2.5488-4.1504l5.4512-9.1992c0.7667-1.4333 1.3655-2.5012 1.7988-3.2012 0.5667-0.93333 1.2004-2.1155 1.9004-3.5488 0.7667-1.6 1.35-2.7996 1.75-3.5996 0.2667-0.5 0.6833-1.4671 1.25-2.9004 0.5-1.2 0.96709-2.1341 1.4004-2.8008 0.2333-0.4 0.51631-1.3167 0.84961-2.75 0.1-0.36667 0.33252-0.95 0.69922-1.75 0.3-0.7 0.50156-1.2833 0.60156-1.75 0.1-0.56667 0.4333-1.7992 1-3.6992l4-16.75v-0.0996l1-5.8008c0.4333-2.0667 0.83252-4.6674 1.1992-7.8008 0.2667-3.4 0.48369-5.9484 0.65039-7.6484 0.1333-3.1 0.31553-5.4178 0.54883-6.9512 0.1333-0.96667 0.20117-2.1333 0.20117-3.5-0.033-1.5333-0.0508-2.7-0.0508-3.5 0-0.23333 0.11631-0.34961 0.34961-0.34961l11.5-0.40039c0.3333 0 1.3004-0.0329 2.9004-0.0996 1.1667-0.0333 2.1163-0.0837 2.8496-0.15039 1-0.1 3.2675-0.23372 6.8008-0.40039zm1.1992 5.5c1.1333 0.73333 1.9512 1.3167 2.4512 1.75 0.2 0.16667 0.26592 0.40117 0.19922 0.70117l-0.15039 0.75c-0.1 2.1-0.065 3.9663 0.10156 5.5996 0.033 0.16667-0.034 0.60078-0.20117 1.3008l-0.84961-0.40036c-1.0333-0.53333-1.6671-0.81628-1.9004-0.84961-0.6-0.13333-0.78213-0.51706-0.54883-1.1504l0.54883-7.5c0-0.3 0.11631-0.36784 0.34961-0.20117zm-0.89844 9.4004c0.067 0.0333 0.13252 0.0837 0.19922 0.15039 0.3333 0.33333 0.80039 0.63372 1.4004 0.90039 0.3667 0.16667 0.88213 0.41667 1.5488 0.75 0.1667 0.1 0.26748 0.23372 0.30078 0.40039 0.033 0.1 0.0508 0.24922 0.0508 0.44922 0.067 0.43333 0.0996 1.7008 0.0996 3.8008 0.067 1.1667 0.0344 2.1667-0.0996 3 0 0.13333-0.035 0.19922-0.10156 0.19922-0.067 0-0.2333-0.0659-0.5-0.19922-1.9-1.1-3.15-1.7667-3.75-2-0.1-0.0333-0.1-0.50039 0-1.4004l0.60156-5.9512c0.033-0.16667 0.1167-0.1997 0.25-0.0996zm-15.607 78.051c-0.36814 1e-3 -0.71517 0.0515-1.043 0.15039h0.0488c-0.022 0.01-0.0161 0.042-0.0371 0.0527-0.6924 0.20148-1.0901 0.63172-0.86133 1.5469 7e-4 3e-3 0 5e-3 0 8e-3 0 0.0628-0.0647 0.12963-0.0547 0.19141 0.03 0.0577 0.0468 0.10806 0.0508 0.15039v0.0508c0 0.30794 0.086 0.57344 0.25 0.79883l0.0488 0.0508 0.96875 1.1152c0.7448 0.96306 1.7012 1.8322 3.0312 2.5352 0.5738 0.31655 0.95013 0.16683 1.3945 0.17774 0.4641 0.12032 0.80527 0.27493 1.3555 0.37109h0.0996c0.2148 7e-5 0.29826-0.18619 0.44336-0.28516 0.1068 0.0347 0.26582-0.0961 0.35742-0.0137l1.1504 1.0488c-0.3 0.23333-0.74961 0.34961-1.3496 0.34961-0.067 0.0333-0.13448 0.0508-0.20118 0.0508-1.6 0.4-3.3829 0.9-5.3496 1.5l-7.1992 2.1504c-0.9333 0.43333-1.6504 0.73372-2.1504 0.90039-0.86669 0.33333-1.6671 0.2655-2.4004-0.20117-0.2-0.13333-0.75039-0.38333-1.6504-0.75-0.3667-0.16667-0.66709-0.33333-0.90039-0.5-0.2667 0-0.46631 0.0329-0.59961 0.0996l-0.15034 0.05061c-0.033 0.2-0.033 0.39961 0 0.59961 0.1 0.0667 0.20078 0.11706 0.30078 0.15039 0.6 0.26667 1.4663 0.74922 2.5996 1.4492-1.2667 0.5-2.2163 0.86823-2.8496 1.1016-1.1333 0.43333-2.05 0.88294-2.75 1.3496-0.7333 0.5-1.2333 0.68216-1.5 0.54883-0.6667-0.23333-1.2325-0.43294-1.6992-0.59961h-0.20118l-0.34961-0.0996-0.40039-0.0508-0.19922-0.0488-0.30078-0.15039-0.15039-0.0508-0.29883-0.14844-0.3496-0.10156-0.10157 0.10156-0.0996 0.19922c-0.033 0.13333-0.0162 0.26706 0.0508 0.40039 0.067 0.1 0.16553 0.16589 0.29883 0.19922l0.30078 0.0996c0.033 0.0333 0.084 0.0508 0.15039 0.0508v0.0508c0.2 0.13333 0.38213 0.18177 0.54883 0.14844 0.4 0.13333 0.88447 0.3 1.4512 0.5l0.19922 0.20117c-0.1 0.1-0.16592 0.15039-0.19922 0.15039l-2.1504 1.25c-0.2333 0.16667-0.63252 0.46511-1.1992 0.89844-0.2333 0.2-0.43487 0.36667-0.60157 0.5l-0.19922 0.10156c-0.033 0-0.0656 0.0155-0.0996 0.0488l-0.0996 0.15039-1.4004 0.75-0.25 0.25-0.0996 0.15039v0.0488l0.0488 0.0508c0.033 0.0667 0.084 0.11706 0.15039 0.15039 0.033 0 0.084-0.0175 0.15039-0.0508l0.4004-0.19922 0.29882-0.20117 0.45118-0.14844 0.3496-0.20117v-0.0488l9.5996-4.9004c-0.067 0.4-0.11709 0.61706-0.15039 0.65039-0.1667 0.36667-0.28291 0.98294-0.34961 1.8496-0.033 0.13333-0.0656 0.24961-0.0996 0.34961l-0.0527 0.0508-0.15039 0.34961v0.0488c-0.1 0.0667-0.14648 0.15-0.14648 0.25-0.067 0.16667-0.067 0.30039 0 0.40039l0.0488 0.0996 0.0996 0.10156c0.2 0.0667 0.3667 0.0318 0.5-0.10156l0.15039-0.14844c0.033 0 0.084-0.0833 0.15039-0.25v-0.05076c0.1-0.1 0.15039-0.21628 0.15039-0.34961 0.033-0.3 0.084-0.55 0.1504-0.75l0.39843-1.25c0.1-0.53333 0.16787-0.9345 0.20117-1.2012 0.1-0.46667 0.36553-0.73216 0.79883-0.79883 0.3333-0.0333 0.81788-0.2 1.4512-0.5 0.6333-0.23333 1.1159-0.36706 1.4492-0.40039 0.2667 0 0.78409-0.25 1.5508-0.75 0.3667-0.13333 0.59922 3.9e-4 0.69922 0.40039 0.067 0.53333 0.13448 0.9655 0.20118 1.2988 0.1 0.53333 0.1833 1.1167 0.25 1.75 0.13329 0.0333 0.28251 0.0508 0.44921 0.0508 0.033 0 0.0656-0.0175 0.0996-0.0508 0.3333-0.2 0.40117-0.41511 0.20118-0.64844-0.2667-0.36667-0.38487-0.80078-0.35157-1.3008 0-0.36667-0.0326-0.73294-0.0996-1.0996-0.067-0.53333 0.1-0.86667 0.5-1 1.0667-0.36667 2.9679-0.95 5.7012-1.75 0.46669-0.16667 0.7496-0.1997 0.8496-0.0996 0.1 0.33333 0.28213 0.84883 0.54883 1.5488l0.65039 1.7012 0.0996 0.0488h0.15039l0.15039-0.0488 0.0996-0.20117 0.0996-0.0996c-0.033-0.0333-0.0488-0.0663-0.0488-0.0996v-0.0508c0-0.0667-0.0168-0.11706-0.0508-0.15039-0.1-0.26667-0.21631-0.63294-0.34961-1.0996-0.2-0.66667-0.25039-1.1337-0.15039-1.4004 0.1-0.36667 0.50118-0.66511 1.2012-0.89844 1.9333-0.66666 3.6659-1.1182 5.1992-1.3516l9.9492-1.2988-0.89843 0.90039c-0.2 0.2-0.5004 0.51589-0.9004 0.94922-0.3667 0.36667-0.7 0.61667-1 0.75-0.2 0.1-0.6167 0.24922-1.25 0.44922-0.1633 0.048-0.2338 0.10732-0.375 0.1582-0.1566 0.01-0.30088 0.0532-0.42578 0.14258-0.049 0.0351-0.1 0.0526-0.15039 0.0508-0.039 0.0256-0.0528 0.0641-0.0898 0.0898-0.07 0.0386-0.19987 0.0695-0.25977 0.10938-2.2333 1.6333-3.2837 3.4667-3.1504 5.5 0 0.66667 0.0168 1.0504 0.0508 1.1504 0.1333 0.36667 0.5171 0.45 1.1504 0.25 0.9667-0.4 1.4821-0.59961 1.5488-0.59961 0.028-6e-3 0.073-0.0705 0.10157-0.0781 0.88819-0.32147 1.785-0.91676 2.6992-2.0723 0.52-0.58073 0.95419-1.2648 1.3008-2.0508 0.06-0.14177 0.01-0.25633 0.0508-0.39453 0.058-0.17594 0.32785-0.44666 0.34765-0.60547 0.031-0.18847-0.024-0.53351-0.14062-0.98828-0.011-0.0977 0.061-0.21499 0.041-0.31055-0.01-0.0278-0.0418-0.0228-0.0488-0.0488-0.019-0.2134-0.065-0.46619 0-0.55273 0.69999-0.9 1.1321-1.4484 1.2988-1.6484 0.5333-0.6 1.0508-0.98372 1.5508-1.1504 0.6333-0.23333 1.4337-0.36706 2.4004-0.40039 0.56669-0.0333 1.4155-0.0508 2.5488-0.0508 0.3333 0 1.283 0.0349 2.8496 0.10156 0.4 0.0333 0.96788 0.0488 1.7012 0.0488 0.6667 0 1.2325 0.10078 1.6992 0.30078-0.2 0-0.51592 0.18216-0.94922 0.54883-0.2333 0.16667-0.59961 0.4845-1.0996 0.95117-0.4667 0.33333-0.81749 0.48255-1.0508 0.44922-0.4667-0.1-0.9667-0.0825-1.5 0.0508-0.6 0.2-1.0496 0.33372-1.3496 0.40039-0.3989 0.13755-0.67775 0.49997-1.0312 0.72266-0.025 0.0178-0.0434 9e-3 -0.0684 0.0273-0.029 0.0205-0.0413 0.0496-0.0703 0.0703-0.4471 0.3016-0.95622 0.48699-1.3281 0.92969-0.1477 0.18703-0.29762 0.56344-0.44532 0.79688-0.072 0.0918-0.18805 0.15751-0.25585 0.25195-0.093 0.13709-0.0101 0.22554-0.0801 0.35742-0.2395 0.43631-0.47925 0.73408-0.71875 1.293-0.2333 0.53333-0.2333 0.96745 0 1.3008s0.65 0.5155 1.25 0.54883c0.068 4e-3 0.19087-0.0696 0.26367-0.0723 0.013 5e-3 0.0222 0.0195 0.0352 0.0234 0.034 0.0243 0.0508 0.0398 0.0508 0.0488 0.088 0.0273 0.18838 0.0448 0.30078 0.0508l0.59961-0.0996c0.4099-0.19417 0.56605-0.35553 0.91015-0.54101 0.016-8e-3 0.0231-2e-3 0.0391-0.01 0.201-0.0355 0.565-0.36831 0.8164-0.49609 0.3674-0.23057 0.9271-0.48725 1.1836-0.70313 0.01-8e-3 0.01-0.0231 0.0195-0.0312 0.1115-0.0904 0.16199-0.0688 0.27929-0.16992 0.9333-0.83333 1.4837-1.5155 1.6504-2.0488l0.082-0.7539c0.034-0.0968 0.13827-0.14674 0.16797-0.2461 0.037-0.12735-0.092-0.22358-0.10352-0.3418v-0.01c0.067-0.53333 0.33408-0.89961 0.80078-1.0996 0.2-0.1 0.48291-0.29961 0.84961-0.59961 0.3333-0.33333 0.60078-0.55039 0.80078-0.65039 0.4333-0.3 0.74922-0.51706 0.94922-0.65039 0.4-0.26667 0.78369-0.33255 1.1504-0.19922 0.5667 0.2 1.65 0.48294 3.25 0.84961 1.3667 0.36667 2.4325 0.7 3.1992 1 0.2994 0.1996 1.0897-0.20393 0.35156-0.6992-0.4-0.3-0.9833-0.55-1.75-0.75-1.0667-0.33333-1.6675-0.51745-1.8008-0.55078-2.4-0.86667-4.6675-1.3492-6.8008-1.4492-1.8333-0.0667-4.5659-0.0667-8.1992 0-0.9 0-2.2159 0.0988-3.9492 0.29883-1.5667 0.23333-2.7333 0.4-3.5 0.5-1.3667 0.2-2.5333 0.31823-3.5 0.35156-1.4 0.0333-2.5667-0.91823-3.5-2.8516-0.1849-0.41091-0.40696-0.58885-0.60156-0.93945v-0.01c-0.01-9e-3 -0.0135-0.0125-0.0195-0.0215-0.431-0.77106-0.85298-1.601-1.3301-2.0781-0.276-0.276-0.71064-0.29564-1.0273-0.50586-0.083-0.064-0.13826-0.18374-0.22266-0.24414-0.3945-0.28926-0.77391-0.27373-1.1621-0.4375-0.3393-0.11092-0.5642-0.40689-0.9375-0.46289-0.1156-0.0212-0.13644 0.0307-0.24414 0.0156-0.10014-0.01-0.20499-0.11331-0.30469-0.11523z"/>
 <g transform="translate(-217.75,-373.75)">
  <path transform="translate(160.15,84.1)" d="m62.6 289.65c-3.3333 0-5 1.6667-5 5v158.2c0 3.3333 1.6667 5 5 5h93.199c3.3333 0 5-1.6667 5-5v-158.2c0-3.3333-1.6667-5-5-5zm8.3008 7.1992h76.6c4.6667 0 7 2.3333 7 7v139.8c0 4.6667-2.3333 7-7 7h-76.6c-4.6667 0-7-2.3333-7-7v-139.8c0-4.6667 2.3333-7 7-7z" fill="#ef1d1e"/>
  <path transform="translate(160.15,84.1)" d="m70.901 296.85c-4.6667 0-7 2.3333-7 7v139.8c0 4.6667 2.3333 7 7 7h76.6c4.6667 0 7-2.3333 7-7v-139.8c0-4.6667-2.3333-7-7-7z" fill="none" stroke="#000" stroke-width="1.2"/>
 </g>
</svg>
