<svg width="103.2" height="168.2" preserveAspectRatio="none" version="1.1" viewBox="0 0 103.2 168.2" xmlns="http://www.w3.org/2000/svg">
 <path d="m13.299 7.1992c-4.6667 0-7 2.3333-7 7v139.8c0 4.6667 2.3333 7 7 7h76.6c4.6667 0 7-2.3333 7-7v-139.8c0-4.6667-2.3333-7-7-7z" fill="#fff"/>
 <path d="m28.1 22.5-0.45117 0.0508c-1.1667 0.26667-2.0484 0.76667-2.6484 1.5s-0.8345 1.5822-0.70117 2.5488c0.0667 2.3667 0.83412 4.4171 2.3008 6.1504 0.3 0.86667 0.83294 1.3008 1.5996 1.3008 0.23333 0 0.45039-0.0504 0.65039-0.15039 0.56667-0.2 0.9-0.61667 1-1.25 0.0333-0.0667 0.0488-0.30117 0.0488-0.70117v-0.0996c0.2-0.9 0.35117-1.7992 0.45117-2.6992l0.09964-0.90042c0.26667-1.8 0.16588-3.2167-0.30078-4.25-0.46667-1-1.1488-1.5-2.0488-1.5zm42 2.4004-0.30078 0.0488c-0.86667 0.0667-1.6322 0.4-2.2988 1-0.66666 0.6-1.1512 1.3674-1.4512 2.3008-0.56667 1.7667-0.58234 3.6174-0.0488 5.5508 0.1 0.43333 0.26667 0.8655 0.5 1.2988 0.0667 0.23333 0.13255 0.3845 0.19922 0.45117 0.16667 0.5 0.51745 0.79844 1.0508 0.89844h0.25c0.43333 0 0.78216-0.16667 1.0488-0.5l0.20117-0.19922 0.5-0.65039c0.1-0.1 0.19883-0.29961 0.29883-0.59961l0.0508-0.0508c1.1667-2.3667 1.8333-4.1651 2-5.3984v-0.20117l0.0488-0.54883c0-0.6-0.0484-1.0167-0.14844-1.25v-0.10156c-0.1-0.56667-0.18333-0.9-0.25-1-0.33333-0.7-0.88372-1.0488-1.6504-1.0488zm-52.701 6.7988c-0.93333 0-1.6155 0.31784-2.0488 0.95117-0.36667 0.76667-0.36667 1.5322 0 2.2988 1.1 2.4667 3.3655 3.9667 6.7988 4.5h0.30078l0.65039-0.0996h0.0488c0.46666-0.0333 0.81745-0.29883 1.0508-0.79883 0.2-0.46666 0.167-0.91823-0.0996-1.3516l-0.0996-0.0996-0.40039-0.59961-2.9512-3c-0.93333-0.9-1.7667-1.4659-2.5-1.6992l-0.29883-0.10156zm22.701 1c-0.53333 0-0.98294 0.0833-1.3496 0.25-2.0333 0.8-3.5004 2.2845-4.4004 4.4512-0.56667 0.66667-0.75078 1.3004-0.55078 1.9004 0.2 0.63333 0.71745 1.0326 1.5508 1.1992h0.5l0.69922-0.15039c1.5667-0.4 3.2333-1.2837 5-2.6504 1.4667-1.1333 1.8329-2.3659 1.0996-3.6992-0.6-0.86667-1.4488-1.3008-2.5488-1.3008zm17.35 2.7012c-0.33333 0-0.71706 0.0833-1.1504 0.25-1.2 0.56667-1.7 1.7004-1.5 3.4004l0.0996 0.59961 0.0508 0.0488c0.6 2.1667 1.9837 3.8508 4.1504 5.0508 1.0333 0.56667 1.9171 0.84961 2.6504 0.84961l0.59961-0.0996c0.46667-0.1 0.83294-0.36745 1.0996-0.80078 0.23333-0.46667 0.16745-1.0984-0.19922-1.8984l-0.15039-0.25c-0.16667-2.5333-1.1996-4.5508-3.0996-6.0508-0.93333-0.73333-1.7841-1.0996-2.5508-1.0996zm22.949 3.3496c-0.46667 0-0.98216 0.0833-1.5488 0.25-2.1333 0.63333-3.9996 1.9996-5.5996 4.0996-0.23333 0.3-0.31667 0.65078-0.25 1.0508 0.0667 0.36667 0.23333 0.66706 0.5 0.90039 0.53333 0.43333 1.1651 0.64844 1.8984 0.64844 0.4 0 0.83411-0.0659 1.3008-0.19922l0.44922-0.0996c1.2667-0.16667 2.2512-0.38372 2.9512-0.65039 1.1333-0.4 2.05-1.0492 2.75-1.9492 0.93333-1.1667 0.90033-2.2016-0.0996-3.1016-0.63333-0.63333-1.4182-0.94922-2.3516-0.94922zm-36.148 3.0996c-1.3 0-2.3678 0.41667-3.2012 1.25-0.5 0.53333-1.25 1.45-2.25 2.75-0.23333 0.3-0.4 0.70117-0.5 1.2012l-0.0488 0.19922c-0.13333 0.43333-0.05 0.86745 0.25 1.3008 0.26667 0.33333 0.63294 0.5 1.0996 0.5h0.09958l0.25-0.0508 1.25-0.15039h0.25c2.5-0.3 4.4341-1.4337 5.8008-3.4004l0.0488-0.0488c0.43333-0.6 0.54961-1.1833 0.34961-1.75-0.1-0.33333-0.28216-0.60078-0.54883-0.80078-0.76667-0.66667-1.7163-1-2.8496-1zm-23.5 0.80078c-1.1667 0-1.9341 0.66667-2.3008 2-0.23333 0.93333 0.0826 1.8326 0.94922 2.6992l0.10156 0.0996c0.66667 0.7 1.4826 1.2 2.4492 1.5 0.6 0.16667 1.4508 0.30039 2.5508 0.40039l1 0.0996h0.19922l0.5-0.0488 0.19922-0.0996c0.4-0.1 0.68489-0.36745 0.85156-0.80078 0.13333-0.33333 0.11601-0.71706-0.0508-1.1504l-0.0508-0.0488-0.19922-0.40039c-0.9-1.2333-2.2837-2.4174-4.1504-3.5508h-0.0488c-0.83333-0.46667-1.5-0.69922-2-0.69922zm33.449 4c-0.46667 0-0.90078 0.16667-1.3008 0.5-0.46667 0.53333-0.64883 1.1322-0.54883 1.7988 0 1.1667 0.55039 2.3682 1.6504 3.6016 0.9 1.0667 2.4833 1.9988 4.75 2.7988 0.33333 0.16667 0.63177 0.25 0.89844 0.25 0.66666 0 1.1512-0.28294 1.4512-0.84961 0.33333-0.53333 0.25-1.1826-0.25-1.9492l-0.0508-0.10156c-1.1332-1.7667-2.2321-3.2492-3.2988-4.4492-0.8-0.96667-1.8-1.4996-3-1.5996zm24.699 1.9492c-1.5 0.1-3.2984 0.91784-5.3984 2.4512l-0.40039 0.29883c-0.83333 0.63333-1.1996 1.3174-1.0996 2.0508 0.16667 0.63333 0.54844 1.0171 1.1484 1.1504 1.1333 0.33333 2.1178 0.5 2.9512 0.5l1.4492-0.10156c1.2-0.0667 2.1671-0.26628 2.9004-0.59961 1.2-0.53333 1.9326-1.3667 2.1992-2.5 0.16667-0.73333-0.0833-1.4329-0.75-2.0996l-0.0996-0.0996c-0.46667-0.56667-1.2167-0.9-2.25-1h-0.40039l-0.19922-0.0508zm-31.1 2.5508c-0.46667 0-0.89883 0.0988-1.2988 0.29883-2.1 1.0667-3.7337 2.5337-4.9004 4.4004-0.23333 0.33333-0.31667 0.69961-0.25 1.0996 0.0667 0.4 0.24883 0.71784 0.54883 0.95117s0.63333 0.34961 1 0.34961l4-0.75c1.0333-0.13333 1.8841-0.53255 2.5508-1.1992 0.7-0.63333 1.0508-1.3833 1.0508-2.25 0-0.83333-0.26745-1.5174-0.80078-2.0508-0.5-0.56667-1.1337-0.84961-1.9004-0.84961zm-24.15 1.3496c-0.6 0-1.1155 0.18411-1.5488 0.55078-0.43333 0.4-0.68333 0.88255-0.75 1.4492-0.1 1.3 0.29922 2.2826 1.1992 2.9492 1.2 0.86666 2.7504 1.3512 4.6504 1.4512l0.0996 0.0488h0.59961c0.9 0 1.6016-0.25 2.1016-0.75 0.33333-0.33333 0.46511-0.73255 0.39844-1.1992-0.0333-0.5-0.41511-1-1.1484-1.5l-0.20117-0.19922-0.34961-0.25h-0.0508c-1.8-1.4-3.3155-2.2333-4.5488-2.5l-0.20114-0.05075zm55.4 4.5508c-1.0333 0-2.4326 0.48255-4.1992 1.4492-1.0667 0.6-1.6171 1.3171-1.6504 2.1504 0 0.46667 0.14922 0.85039 0.44922 1.1504 0.26667 0.33333 0.65039 0.5 1.1504 0.5l0.30078-0.0508 0.25 0.0996c1.2333 0.16667 2.15 0.25 2.75 0.25 1.1 0 2.1-0.14922 3-0.44922 0.83333-0.3 1.3992-0.74961 1.6992-1.3496 0.26667-0.56666 0.28399-1.15 0.0508-1.75-0.43333-1.3333-1.4333-2-3-2l-0.45117 0.0488zm-53.15 3.5996c-1.3667 0-2.1496 0.61628-2.3496 1.8496-0.2 1.6 0.33294 2.7337 1.5996 3.4004 0.96666 0.53333 2.0674 0.79883 3.3008 0.79883 0.63333 0 1.4008-0.0833 2.3008-0.25h0.0996c0.83333-0.16667 1.3159-0.59883 1.4492-1.2988v-0.0508c0.13333-0.63333-3.9e-4 -1.1992-0.40039-1.6992-0.66667-0.86667-1.5659-1.5178-2.6992-1.9512-0.66667-0.3-1.5833-0.55-2.75-0.75l-0.15039-0.0488zm13.102 42.25-0.5 0.0488c-0.73333 0.16667-1.3012 0.55039-1.7012 1.1504s-0.53372 1.2667-0.40039 2c0.4 2.4 1.2508 4.15 2.5508 5.25l1 0.84961 0.19922 0.20117c0.3 0.23333 0.60039 0.34961 0.90039 0.34961 0.23333 0 0.41745-0.0504 0.55078-0.15039 0.56667-0.23333 0.84961-0.63255 0.84961-1.1992l0.0996-1.5c0.0667-1.3667-0.31706-3.0333-1.1504-5l-0.0488-0.0996c-0.53333-1.2667-1.3163-1.9004-2.3496-1.9004zm-9.8516 4.6992-0.44922 0.0508c-0.73333 0.26667-1.2508 0.73373-1.5508 1.4004-0.3 0.63333-0.31568 1.3155-0.0488 2.0488 1.0333 2.5 2.4655 4.2345 4.2988 5.2012l0.35156 0.19922 0.14844 0.0508c0.16667 0.1 0.35078 0.14844 0.55078 0.14844 0.26667 0 0.53411-0.0833 0.80078-0.25 0.46667-0.33333 0.66628-0.75 0.59961-1.25v-0.14844l-0.0508-0.60156c-0.23333-1.6667-0.73333-3.0988-1.5-4.2988-0.76667-1.1333-1.6-1.9337-2.5-2.4004-0.2-0.1-0.41706-0.15039-0.65039-0.15039zm-9.2988 7.5508c-0.73333 0-1.3671 0.2655-1.9004 0.79883-0.8 0.93333-0.8 1.9333 0 3 0.63333 0.83333 1.4667 1.5 2.5 2 0.6 0.26667 1.4837 0.56706 2.6504 0.90039l0.44922 0.15039 0.25 0.0508h0.55078c0.73333 0 1.2488-0.25 1.5488-0.75 0.3-0.6 0.28432-1.2008-0.0488-1.8008-0.93333-1.8333-2.5012-3.1996-4.7012-4.0996-0.56667-0.16667-0.99883-0.25-1.2988-0.25zm25 6.5488c-0.36667 0-0.6845 0.13372-0.95117 0.40039l-0.0996 0.0508-0.29883 0.29883c-1.4667 1.5667-2.5016 3.4349-3.1016 5.6016-0.1 0.6-0.14844 0.98177-0.14844 1.1484 0 0.86666 0.36628 1.4849 1.0996 1.8516 0.33333 0.16667 0.71706 0.25 1.1504 0.25 0.86667 0 1.5663-0.30039 2.0996-0.90039 1.3667-1.4 2.0004-3.2004 1.9004-5.4004v-0.30078c0.0333-0.33333 0.0333-0.69961 0-1.0996-0.0333-0.26667-0.13411-0.56706-0.30078-0.90039l-0.0508-0.14844c-0.2-0.43333-0.53334-0.70078-1-0.80078zm-8.5996 3.3516c-0.43333 0-0.8849 0.18216-1.3516 0.54883l-0.0488 0.0996c-0.36667 0.26667-0.80078 0.76667-1.3008 1.5l-0.34961 0.5c-1.1333 1.5333-1.6837 2.9171-1.6504 4.1504v0.25c0 0.8 0.25 1.4163 0.75 1.8496 0.46667 0.4 1.0171 0.60156 1.6504 0.60156 1.3667 0 2.3996-0.7849 3.0996-2.3516 0.36667-0.9 0.7-2.4155 1-4.5488 0.0667-0.9-0.15039-1.5996-0.65039-2.0996-0.33333-0.33333-0.71511-0.5-1.1484-0.5zm-13.25 2c-0.26667 0-0.53411 0.0659-0.80078 0.19922-0.46667 0.23333-1.1159 0.50078-1.9492 0.80078-1.7333 0.56667-3.0512 1.2333-3.9512 2l-0.40039 0.19925c-1.0667 0.6-1.65 1.2996-1.75 2.0996v0.20117c0 0.8 0.41667 1.4996 1.25 2.0996 0.76666 0.53333 1.6174 0.79883 2.5508 0.79883l0.55078-0.0488c3.2333-0.5 5.2818-2.5678 6.1484-6.2012 0.1-0.36667 0.1-0.73294 0-1.0996-0.16667-0.4-0.43216-0.68294-0.79883-0.84961h-0.0508c-0.33333-0.13333-0.59883-0.19922-0.79883-0.19922z" fill="#ef1d1e"/>
 <path d="m29.148 33.4c-0.2 0.13333-0.39961 0.3155-0.59961 0.54883l-0.0488 0.60156c0.2 0.5 0.38213 1.0833 0.54883 1.75 0.2333 0.8 0.51631 2.0151 0.84961 3.6484 0.033 0.0667 0.0182 0.16745-0.0488 0.30078l-0.25-0.0996c-1.0333-0.53333-1.6167-0.83372-1.75-0.90039-0.2-0.1-0.95-0.38294-2.25-0.84961-0.1667-0.0667-0.31787-0.11706-0.45117-0.15039l-0.0488 0.0508-0.55078-0.30078-0.29883-0.0508c-0.1667 0-0.30039 0.0349-0.40039 0.10156l-0.20117 0.39844c0.1 0.26667 0.1833 0.41784 0.25 0.45117l0.65039 0.29883 0.15039 0.10156c0.1667 0.0333 0.30039 0.0663 0.40039 0.0996 0.3 0.1 0.6333 0.21628 1 0.34961 0.9667 0.36667 1.7321 0.7 2.2988 1 0.2333 0.13333 0.60156 0.24961 1.1016 0.34961 0.4333 0.16667 0.69883 0.41667 0.79883 0.75 0.9333 3.4 1.7163 5.9174 2.3496 7.5508l0.0508 0.25-0.15039-0.0508c-0.5667-0.23333-1.3671-0.49883-2.4004-0.79883-0.067 0-0.11514-0.0174-0.14844-0.0508l-2.5509-0.84956-0.19922-0.0996c0 0.0333 0.0148 0.0818 0.0488 0.14844l-0.0996-0.0488-0.30078 0.0488c-0.1 0.0333-0.1833 0.11667-0.25 0.25l-0.0488 0.20117 0.15039 0.40039 0.19922 0.0488 0.5 0.20117c0.067 0.0333 0.15 0.0663 0.25 0.0996 0.8 0.13333 1.5675 0.36589 2.3008 0.69922 1.1 0.36667 1.8829 0.7 2.3496 1 0.9333 0.6 1.4992 1.4837 1.6992 2.6504s0.68447 2.4826 1.4512 3.9492c0.2667 0.66666 0.35 1.0504 0.25 1.1504-0.1333 0.13333-0.3 0.13333-0.5 0l-0.55078-0.29883-0.69922-0.25c-0.2667-0.13333-1.0341-0.31745-2.3008-0.55078-0.5667-0.1-1.0337-0.26667-1.4004-0.5 0 0.0333 0.0168 0.0837 0.0508 0.15039-0.1-0.0333-0.1833-0.0333-0.25 0-0.2 0-0.33369 0.14922-0.40039 0.44922 0 0.1 0.0168 0.18333 0.0508 0.25l0.94922 0.40039 0.65039 0.0996c0.033 0 0.0656 0.0174 0.0996 0.0508 1.1667 0.3 2.1841 0.60039 3.0508 0.90039 0.033 0 0.38213 0.0659 1.0488 0.19922 0.4333 0.0667 0.71631 0.23333 0.84961 0.5 0.4333 0.9 1.1175 2.5492 2.0508 4.9492 0.2 0.36667 0.14961 0.53333-0.15039 0.5-1.5667-0.23333-3.15-0.51628-4.75-0.84961v-0.0488c-0.2333-0.0333-0.41553-0.0837-0.54883-0.15039l-1-0.0996c-0.033 0-0.068 0.0155-0.10156 0.0488-0.033 0.0333-0.082 0.14961-0.14844 0.34961 0 0.13333 0.0326 0.23411 0.0996 0.30078 0.033 0.0667 0.1167 0.13255 0.25 0.19922l0.0996 0.15039h0.0527c0.5333 0.0667 2.1322 0.38451 4.7988 0.95117 0.2667 0.0667 0.70078 0.11511 1.3008 0.14844 0.5 0.1 0.80039 0.23372 0.90039 0.40039 0.7667 1.6667 1.7492 3.5833 2.9492 5.75 1.3 2.3667 2.5675 4.2504 3.8008 5.6504l0.79883 0.90039 0.30078 0.25c-0.2667 0.2-0.81709 0.36667-1.6504 0.5-1.7667 0.46667-3.1 0.78255-4 0.94922-0.6 0.23333-1.0671 0.4-1.4004 0.5-0.5667 0.16667-1.0667 0.13363-1.5-0.0996-0.8333-0.36667-1.4671-0.64961-1.9004-0.84961-0.6949-0.36399-1.1716-0.8615-1.4394-1.4883-0.026-0.0372 0.0213-0.0741-0.0117-0.11133l-0.0508-0.0508c-0.095-0.0967-0.29424-0.1584-0.39844-0.25195-0.503-0.75463-1.0742-1.4449-2-1.7988-2.6667-1.0667-5.0679-1.1151-7.2012-0.14844-0.2667 0.1-0.48369 0.23177-0.65039 0.39844-0.1667 0.23333-0.1667 0.41745 0 0.55078 0.2667 0.23333 0.65039 0.65 1.1504 1.25 0.1008 0.11424 0.14939 0.14991 0.24219 0.25195 0.021 0.0279 0.0385 0.0726 0.0605 0.0977l0.0488 0.0508c0.033 0.0135 0.0445 0.0218 0.0625 0.0312 0.2826 0.30336 0.59061 0.6437 0.78711 0.81836 0.5013 0.41773 1.0617 0.64816 1.6055 0.93164 0.023 0.0127 0.0737 0.0565 0.0957 0.0684 0.016 9e-3 0.0328 5e-3 0.0488 0.0137 0.8737 0.4334 1.8012 0.69721 2.7832 0.78906 0.057 2e-3 0.11117 0.0469 0.16797 0.0469h0.12891c0.2137 0.0122 0.40239 0.10327 0.62109 0.0996 0.07 0 0.39104-0.14394 0.52344-0.17969 0.087-8e-3 0.21194-7e-3 0.27734-0.0195l0.44922-0.15039 0.0996-0.0488c0.041-0.01 0.0736-0.027 0.0996-0.0508 0.032-0.01 0.0227-0.0532 0.0527-0.0645 0.1183-0.0487 0.11564-0.0292 0.24804-0.0859 0.6667-0.3 1.2675-0.31577 1.8008-0.0488l1.5488 0.69922-0.40039 0.19922c-0.9333 0.43333-1.6484 0.71823-2.1484 0.85156-0.033 0-0.63408 0.25-1.8008 0.75-0.7 0.3-1.3667 0.36589-2 0.19922-0.3128-0.0938-0.58948 0.048-0.89648-0.01-0.1832-0.0941-0.36682-0.18817-0.60352-0.18945-0.2914-1e-5 -0.50205 0.14933-0.78125 0.17188-1.0658 7e-3 -2.1041 0.19226-3.0957 0.68164-0.1033 0.0501-0.18816 0.13481-0.28906 0.18945-0.857 0.46791-1.7323 0.82281-2.5332 1.6562-0.83329 0.83333-1.1841 1.6667-1.0508 2.5 0.1333 0.7 0.73409 1.1167 1.8008 1.25 0.03 6e-3 0.0559-4e-3 0.0859 2e-3 0.066 0.0151 0.089 0.0962 0.16406 0.0977h0.0488l1.166-0.0801c0.7873 0.0456 1.5967 0.175 2.334 0.0312 2.1333-0.43333 3.6663-1.5167 4.5996-3.25 0.1333-0.43333 0.25156-0.76667 0.35156-1 0.1333-0.4 0.39883-0.66745 0.79883-0.80078 1-0.33333 2.4845-0.88372 4.4512-1.6504 1.3333-0.46667 3.4167-1.1333 6.25-2l-1.5508 1.7012c-0.1 0.13333-0.24922 0.34844-0.44922 0.64844-0.2 0.26667-0.3667 0.40039-0.5 0.40039-0.2699 0.0126-0.55362 0.18421-0.82812 0.25h-0.0723c-0.2767 6e-3 -0.54786 0.18527-0.82226 0.26953-0.1698 0.0749-0.33231 0.0715-0.50391 0.16602-0.503 0.24426-1.0012 0.65041-1.4961 1.1621-0.2607 0.22187-0.51275 0.3389-0.77735 0.60351-1.2667 1.2667-1.8675 3.0496-1.8008 5.3496 0.067 0.63333 0.10157 0.98216 0.10157 1.0488 0.1333 0.4 0.41631 0.53372 0.8496 0.40039 0.742-0.20969 1.1072-0.53441 1.6699-0.79883h0.13086c0.3055-0.10156 0.48958-0.18489 0.55078-0.25v0.0488l0.5664-0.39649c0.1367-0.0974 0.41481-0.15098 0.53321-0.2539 0.2085-0.18619 0.24523-0.24953 0.42382-0.41406l0.125-0.0859v-0.0332c0.541-0.50381 1.1144-1.0318 1.3516-1.3164 0.1616-0.21862 0.16155-0.48343 0.28515-0.71289 0.084-0.1611 0.23996-0.21034 0.31446-0.38672 0.08-0.19587-1e-3 -0.36289 0.0605-0.55469 0.087-0.28915 0.30409-0.5413 0.33789-0.8457-0.049-0.51456-0.08-0.84145-0.11132-1.1758-0.0169-0.15319 0.0864-0.32796 0.0566-0.47852 8.5e-4 9.8e-4 -3.2e-4 2e-3 6e-3 4e-3v-0.0488c0 0.0123-8e-3 0.0263-0.01 0.0391-0.0123-0.0236-0.0434-0.0293-0.0527-0.0547-0.029-0.60085 0.10766-1.1132 0.50976-1.4844 0.2-0.2 0.6167-0.73294 1.25-1.5996 0.5-0.66666 0.95156-1.0833 1.3516-1.25 1.7333-0.76666 4.0667-1.0341 7-0.80078 2.2666 0.16667 4.2821 0.63372 6.0488 1.4004-2.8333 1.8667-4.4321 2.95-4.7988 3.25-0.2667 0.2-0.50117 0.28333-0.70117 0.25-0.2324-0.0626-0.46486 0.0834-0.69726 0.0664-0.048-6e-3 -0.0491-0.0668-0.10157-0.0664h-0.10156c-0.074 4e-3 -0.15967 0.10137-0.23437 0.10938-0.4882 0.0243-0.97655-0.0848-1.4648 0.14062-1.0124 0.41686-1.7304 1.0622-2.4746 1.6875-0.01 7e-3 -0.0154 4e-3 -0.0234 0.0117 0 4e-3 -2e-3 6e-3 -0.0117 0.01-1.3225 1.1212-2.374 2.4539-2.8418 4.2402-0.1667 0.73333-0.14912 1.2508 0.0508 1.5508 0.2333 0.33333 0.71787 0.48255 1.4512 0.44922 0.228 0 0.44869-0.19957 0.67578-0.22461 0.8197-0.0753 1.6658-0.3816 2.5293-0.84375 0.2792-0.14844 0.56595-0.0937 0.84375-0.28125 1.1333-0.83333 1.9183-1.5504 2.3516-2.1504 0.1093-0.14755 0.05-0.34623 0.13868-0.5 0.4659-0.77325 0.73816-1.5849 0.75976-2.4492-7e-4 -0.0359-0.0526-0.0441-0.0566-0.0781-6e-4 -8e-3 0.0117-0.0135 0.0117-0.0215 0-0.46666 0.14922-0.8 0.44922-1l3.8476-2.75c0.9-0.73333 1.4524-1.0512 1.6524-0.95117 1.3 0.6 2.9977 1.5341 5.0976 2.8008 0.7667 0.5 1.8694 1.3159 3.3027 2.4492 1.9667 1.3667 3.2496 2.4171 3.8496 3.1504h-0.10156l-1.3496 0.19922c-0.7333 0.13333-1.3012 0.20117-1.7012 0.20117-0.63329 0.0667-1.1488-0.0671-1.5488-0.40039-0.4667-0.33333-1.1004-0.56589-1.9004-0.69922-0.3232-0.052-0.59411 0.10698-0.90821 0.0918-0.07-2e-3 -0.1204-0.043-0.1914-0.043-0.2107 6.5e-4 -0.412 0.10661-0.6211 0.125-1.6399 0.0952-3.1512 0.71124-4.5293 1.8652-0.1647 0.12536-0.3364 0.17283-0.5 0.31055-0.024 0.0231 1e-3 0.0545-0.0195 0.0781-0.2653 0.2532-0.57498 0.32672-0.83008 0.62109-0.4667 0.56667-0.61787 0.93294-0.45118 1.0996 0.3345 0.30661 0.865 0.43292 1.2754 0.66992 0.047 0.0535 0.0162 0.13246 0.0762 0.18164 0.1545 0.11125 0.41709 0.0766 0.58789 0.16602 0.392 0.17481 0.66193 0.46253 1.1113 0.58398 0.6 0.16667 1.2996 0.23255 2.0996 0.19922 0.2-0.0333 0.88408-0.13411 2.0508-0.30078 0.293-0.051 0.52933-0.28634 0.80273-0.40039 0.1614-0.0511 0.41588-0.0948 0.54688-0.14844h-0.0508c0.1011-0.0478 0.13472-0.16003 0.22852-0.21484 0.1824-0.12209 0.39977-0.13079 0.57227-0.28516 0.2004-0.18034 0.20922-0.39641 0.36132-0.58594 0.1088-0.14144 0.30108-0.20377 0.38868-0.36523l0.14675-0.44945c0.03-0.0175 0.0458-0.0504 0.0488-0.0996l0.10156-0.15039c0.01-0.0162-0.01-0.0383 0-0.0547 0.025-0.0869 0.13555-0.15763 0.15234-0.24609 0.033-0.23333 0.1671-0.36511 0.4004-0.39844 0.63329-0.1 1.55-0.25117 2.75-0.45117 0.2667 0 0.6-0.0659 1-0.19922 0.63329-0.13333 1.1837 0.0333 1.6504 0.5 0.8667 0.93333 2.1341 2.3171 3.8008 4.1504 0.5667 0.6 1.9155 2.2163 4.0488 4.8496 2.5667 3.3667 4.0667 5.3337 4.5 5.9004l12.9 16.898c0.0239 0.0243 1.0911 1.1052-1e-5 -1.3496-0.5333-1.2667-1.5837-2.9159-3.1504-4.9492-1.2-1.7-2.0992-2.9674-2.6992-3.8008-2-2.7-3.5329-4.7155-4.5996-6.0488l-3.1504-4.1016c-0.6333-0.8-1.1004-1.3988-1.4004-1.7988-0.5667-0.7-1.0008-1.3337-1.3008-1.9004-0.033-0.0667-0.26591-0.28372-0.69921-0.65039-0.3-0.23333-0.41631-0.49883-0.34961-0.79883 0.6333-2.0333 1.05-3.5837 1.25-4.6504 0.4333-2.0667 1.1155-3.5667 2.0488-4.5l0.45122-0.40039c0.9667-0.8 1.6663-2.1004 2.0996-3.9004 0.3-1.4667 0.31708-3.1488 0.0508-5.0488-0.1-0.63333-0.40039-1.1508-0.90039-1.5508-0.4-0.3-0.78369-0.40078-1.1504-0.30078-0.2822 0.0658-0.54146 0.47551-0.81836 0.62109-0.044 0.0136-0.0851 0.0101-0.13086 0.0293-0.035 0.0482-0.085 0.0811-0.15039 0.0996-0.064 0.0444-0.076 0.14298-0.13868 0.18945-0.55689 0.37871-1.1272 0.55488-1.6621 1.2617-0.8333 1.1333-1.3333 2.2167-1.5 3.25-0.1428 1.0474 0.12011 1.7698 0.16601 2.666 1e-3 0.11315 0.0174 0.2221 0.0234 0.33398 0.068 0.85544-0.086 1.8878 0.16211 2.5996l0.75 0.94922c0.3 0.4 0.35039 0.83411 0.15039 1.3008-0.5 1.3-1.0833 3.2826-1.75 5.9492l-2.9004-3.3984c-0.6667-0.33333-1-0.70156-1-1.1016-0.033-1.3333-0.1167-2.3159-0.25-2.9492-0.067-0.43333-0.13252-1.2008-0.19922-2.3008-0.067-0.93333-0.16748-1.6833-0.30078-2.25-0.1667-0.76667-0.13174-1.2667 0.10156-1.5 0.2093-0.2177 0.23104-0.62335 0.40234-0.87891 0.016-0.0115 0.0309-7e-3 0.0469-0.0195v-0.0508c0.2381-0.20977 0.38742-0.45977 0.44922-0.75v0.0508l0.0508-0.25v-0.0508c0.023-0.0775 0.0103-0.11319 0.0293-0.18945 0.1814-0.47958 0.53039-0.79104 0.62109-1.3613 0.1377-0.80207-0.0716-1.4311-0.0996-2.1504-1e-4 -0.18184 0.11291-0.48118 0.0996-0.64844-0.015-0.12751-0.11968-0.2607-0.14258-0.38867-0.1459-0.92292-0.48229-1.7512-0.93359-2.5215-0.065-0.11455-0.055-0.22494-0.125-0.33984-0.071-0.11291-0.16939-0.0969-0.24219-0.20117-0.365-0.50972-0.54404-1.1128-1.0566-1.5488-0.2851-0.23165-0.69087-0.13695-1.043-0.1875-0.094-0.0318-0.16131-0.19075-0.25781-0.21289l-0.29883-0.0508c-0.094 8e-3 -0.17277 0.0797-0.25976 0.11719-0.035 8e-3 -0.0558-0.025-0.0918-0.0156-0.075 0.0218-0.071 0.0958-0.14063 0.1211-0.018 0.0145-0.0425 0.0113-0.0605 0.0273-0.071 0.11589-0.17159 0.18372-0.30079 0.20117-0.37729 0.0411-0.6273 0.24074-0.75 0.59961v0.0508c-0.01 0.0316 2.4e-4 0.0564-0.01 0.0879-0.048 0.0924-0.21164 0.10795-0.24414 0.21094-0.6 2.1-0.73174 4.0167-0.39844 5.75 0.3333 1.6 0.96514 2.9508 1.8984 4.0508 0.2333 0.3 0.61709 0.69922 1.1504 1.1992 0.3667 0.46667 0.5333 0.99961 0.5 1.5996v1.5c0 0.56666 0.10078 1.0512 0.30078 1.4512 0.1333 0.33333 0.19922 0.71706 0.19922 1.1504 0 0.23333-0.0326 0.59961-0.0996 1.0996l-1.1992-1.2012c-0.1-0.13333-0.95078-0.83295-2.5508-2.0996-1.0333-0.83333-1.7175-1.6996-2.0508-2.5996-0.7667-2.2-1.3325-4.5508-1.6992-7.0508l-0.44922-4c-0.2333-2.6333-0.33408-4.2651-0.30078-4.8984-0.067-1.6667-0.067-2.9167 0-3.75-0.067-0.56666-0.11709-0.98333-0.15039-1.25-0.033-0.5 0.16631-0.86823 0.59961-1.1016l0.40039-0.14844c0.5-0.13333 0.86631-0.26706 1.0996-0.40039l1.1016-0.55078c0.5667-0.23333 1.1325-0.4 1.6992-0.5 0.1667-0.13333 0.39922-0.26706 0.69922-0.40039l0.80095-0.29883h0.0508v-0.0996l0.19922-0.10156 0.15039-0.25c0.033-0.2 0.0162-0.34922-0.0508-0.44922l-0.0996-0.15039-0.15039-0.0996c-0.1333 0-0.35039 0.0504-0.65039 0.15039l-0.0996 0.0996v0.0508l-5.1992 2.2988c-0.3333 0.13333-0.5-0.0159-0.5-0.44922 0.033-1.8 0.099-3.1508 0.19922-4.0508v-0.90039c0.067-0.36667 0.25078-0.61667 0.55078-0.75l3.4004-1.8984c0.5333-0.46666 1.0333-0.88333 1.5-1.25l0.0488-0.15039c0.033-0.0333-1e-3 -0.13411-0.10156-0.30078l-0.15039-0.19922c-0.033-0.0333-0.099-0.0663-0.19922-0.0996h-0.0996c-0.2 0.0333-0.43447 0.13216-0.70117 0.29883l-0.19922 0.15039c-0.067 0.0667-0.13447 0.16745-0.20117 0.30078-1.1 0.8-2.2492 1.5326-3.4492 2.1992l-0.25 0.0996c-0.067 0-0.0996-0.11628-0.0996-0.34961l0.15039-5c-0.067-0.73333-0.067-1.2663 0-1.5996 0.1-0.56667 0.49922-0.93294 1.1992-1.0996 0.033 0 0.30078-0.15117 0.80078-0.45117 0.6667-0.26667 1.6163-0.78216 2.8496-1.5488 0.3333-0.16667 0.6667-0.30039 1-0.40039l0.15039-0.20117c0.067-0.0333 0.13252-0.11667 0.19922-0.25 0.067-0.13333 0.0838-0.28255 0.0508-0.44922 0-0.0667-0.0168-0.13255-0.0508-0.19922 0-0.0667-0.0168-0.11706-0.0508-0.15039-0.1-0.16667-0.16592-0.26745-0.19922-0.30078-0.067-0.0333-0.13252-0.0333-0.19922 0-0.2 0.16667-0.3667 0.30039-0.5 0.40039-0.3667 0.26667-2.0334 1.2163-5 2.8496-0.067-0.3-0.067-0.68373 0-1.1504 0.067-0.56667 0.0996-0.94844 0.0996-1.1484-0.033-0.4 0.065-1.4504 0.29883-3.1504-0.067-1.8-0.032-3.1333 0.10156-4l0.0996-0.5c0.033-0.46667 0.099-0.83294 0.19922-1.0996l-0.0488-0.05081c-0.033-0.0333-0.2-0.0992-0.5-0.19922l-0.0508 0.0488-0.25 0.20117-0.0996 0.29883v0.20117l-0.0508 0.19922h0.0508l-0.0508 0.0508c0.033 0.13333 0.033 0.28255 0 0.44922l-0.0488 0.30078c-0.2333 1.4-0.35156 2.6151-0.35156 3.6484 0 0.33333-0.066 1.0349-0.19922 2.1016-0.1 0.86667-0.11708 1.5663-0.0508 2.0996 0.033 0.33333-0.083 0.86628-0.34961 1.5996l-1-0.75c-1.0333-0.8-1.6671-1.3329-1.9004-1.5996-0.1-0.13333-0.19883-0.24961-0.29883-0.34961-0.2 0-0.35117 0.0484-0.45117 0.14844-0.1 0.23333-0.1833 0.46784-0.25 0.70117v0.0488c0.3 0.13333 0.56748 0.35039 0.80078 0.65039 0.3333 0.43333 0.98252 0.95078 1.9492 1.5508 0.4 0.33333 0.66748 0.58333 0.80078 0.75 0.2 0.33333 0.2833 0.73255 0.25 1.1992 0 0.0333-0.13369 2.518-0.40039 7.4512-0.067 0.0667-0.10157 0.1655-0.10157 0.29883l-0.0996 0.59961c-0.067-0.0333-0.15-0.0488-0.25-0.0488-1.3333-1-2.3179-1.7829-2.9512-2.3496-0.4667-0.4-0.89883-0.80117-1.2988-1.2012-0.033-0.1-0.0656-0.15039-0.0996-0.15039l-0.10157-0.0488c-0.033-0.0667-0.082-0.1345-0.14843-0.20117l-0.10157 0.10156-0.0488-0.0508-0.30078 0.0508c-0.1 0-0.1833 0.0484-0.25 0.14844l-0.0488 0.25v0.15039l0.0488 0.0508-0.0488 0.15039 0.14843 0.14844 0.20117 0.15039c0.067 0.0667 0.15 0.0996 0.25 0.0996v0.20117c0.8333 0.56667 2.2829 1.7488 4.3496 3.5488 0.067 0.0667 0.21592 0.1345 0.44922 0.20117 0.033 0.1 0.084 0.19883 0.15039 0.29883 0.067 0.16667 0.15 0.30039 0.25 0.40039-0.1 0.4-0.15039 0.9-0.15039 1.5 0 0.33333 0.0168 0.85078 0.0508 1.5508 0 0.23333-0.066 0.36706-0.19921 0.40039h-0.4004c-0.63329-0.0333-1.3679-0.28333-2.2012-0.75-1.1333-0.63333-1.8155-1.0016-2.0488-1.1016-1.1333-0.46667-2.0675-0.73216-2.8008-0.79883-1.0333-0.0667-1.9655 0.16589-2.7988 0.69922-1.3 0.76667-1.9183 1.6-1.8516 2.5 0.1333 0.9 0.83487 1.5667 2.1016 2 2.4666 0.83333 4.8155 0.68411 7.0488-0.44922 0.2-0.0667 0.41709-0.28372 0.65039-0.65039 0.2333-0.3 0.43291-0.44922 0.59961-0.44922 0.3 0.0333 0.8 0.0488 1.5 0.0488 0.5 0.2 0.55039 0.71745 0.15039 1.5508l0.0508 0.0996c0.23329 0.73333 0.33212 1.7159 0.29882 2.9492-0.067 1.5333-0.067 2.5333 0 3 0.067 0.5 0.11709 1.4845 0.15039 2.9512 0.033 1.2667 0.13409 2.2667 0.30079 3 0.067 0.3 0.0996 0.78255 0.0996 1.4492l-0.95117-0.79883c-0.9-0.56666-1.5317-1.0182-1.8984-1.3516-0.7-0.6-0.98487-1.3326-0.85157-2.1992l-0.0488-0.0996c-0.2-0.83333-0.7-2.0174-1.5-3.5508-0.5333-0.96667-1.1671-1.8-1.9004-2.5-0.1964-0.16476-0.37631-0.0889-0.57031-0.21875-0.094-0.0656-0.12947-0.16923-0.23047-0.23047-0.4053-0.21648-0.81004-0.225-1.2148-0.32422-0.3243-0.0713-0.66728-0.40976-0.98438-0.37695-0.071 0.0141-0.23314 0.10401-0.33984 0.14844-0.2162 0.0207-0.44248 0.0319-0.60937 0.10156-0.017 9e-3 -0.0338 9e-3 -0.0508 0-0.1607 0.0605-0.27217 0.17349-0.38867 0.28125-0.011-1e-3 -0.0515 0.0227-0.0605 0.0195-0.4333-0.13333-0.70079-0.1003-0.80079 0.0996-0.026 0.10485-0.0331 0.3407-0.0391 0.58984-0.016 0.0248-0.0456 0.0338-0.0586 0.0605v0.0508c-0.081 0.18959-0.0988 0.3892-0.0508 0.59961 0.093 0.30837 0.25387 0.45391 0.35546 0.74219 0.1338 0.79241 0.22335 1.5624 0.74415 2.5566 0.99999 1.9333 2.5349 3.3345 4.6016 4.2012 0.1876 0.0834 0.5736 0.0574 0.90429 0.0625 0.071 0.0214 0.12352 0.0679 0.19532 0.0879l0.40039 0.0488c0.035-2e-3 0.0412-0.0439 0.0742-0.0488 0.646 0.0317 1.1658 0.20059 1.4726 0.59961 0.4333 0.56667 0.95078 0.98333 1.5508 1.25 1.3333 0.73333 2.1667 1.3826 2.5 1.9492 0.2667 0.43333 0.4837 1.1329 0.6504 2.0996 0.19999 1 0.41513 1.7171 0.64843 2.1504v0.30078l-0.29883-0.0996-1.1504-0.80078c-3.1333-2.1-6.083-3.5671-8.8496-4.4004-1.4333-0.43333-2.7512-0.69883-3.9512-0.79883-0.9-0.1-1.5821-0.16784-2.0488-0.20117-0.79999-0.0333-1.4996-3e-4 -2.0996 0.0996-0.3667 0.16667-0.6671 0.26745-0.9004 0.30078-0.4 0.0667-0.71787-0.0496-0.95117-0.34961l-3.3984-5.4512c-1.3333-2.1667-2.4671-4.2655-3.4004-6.2988-1.0333-2.0667-1.7504-3.65-2.1504-4.75-0.3333-0.53333-0.53291-0.95-0.59961-1.25-0.1667-0.5 0.033-0.91667 0.59961-1.25 0.5-0.26667 0.81592-0.46628 0.94922-0.59961 0.033-0.0333 0.3667-0.35117 1-0.95117 0.2667-0.26667 0.5167-0.44883 0.75-0.54883l0.35157-0.45117 0.0508-0.15039-0.10157-0.19922-0.0508-0.15039-0.14843-0.0996-0.1504-0.0508-0.30078 0.10156c-0.1333 0.0667-0.19922 0.15-0.19922 0.25-0.3667 0.33333-0.81631 0.71511-1.3496 1.1484-0.4 0.3-1.0183 0.75156-1.8516 1.3516-0.1 0.0667-0.14843 0.0163-0.14843-0.15039l-2-5.0508c-0.3667-0.8-0.56827-1.3988-0.60157-1.7988-0.1-0.66666 0.21788-1.2016 0.95117-1.6016 0.3667-0.33333 0.6671-0.56589 0.9004-0.69922l1.3496-1.0996 0.4004-0.30078v-0.0488c0.1-0.0333 0.1833-0.10117 0.25-0.20117l0.0996-0.15039c0.1-0.1 0.11749-0.23177 0.0508-0.39844l-0.10157-0.20117c-0.3667-0.2-0.68252-0.16697-0.94922 0.0996l-0.0508 0.20117c-0.2667 0.2-0.65039 0.48294-1.1504 0.84961-0.6 0.43333-1.0651 0.81706-1.3984 1.1504-0.4 0.4-0.7004 0.53372-0.9004 0.40039-0.1333-0.0667-0.28447-0.31667-0.45117-0.75l-1.75-5.3516c-0.1667-0.43333-0.29844-0.74922-0.39843-0.94922-0.1333-0.4-0.16827-0.68294-0.10157-0.84961 0.1667-0.26667 0.45157-0.5845 0.85157-0.95117 0.53329-0.5 0.84921-0.79844 0.94921-0.89844 0.2667-0.26667 0.61749-0.46823 1.0508-0.60156l0.0527-0.44917c-0.067-0.1-0.13252-0.18333-0.19922-0.25l-0.55078 0.0508-0.0488 0.0488-2.1504 1.7012-0.30078 0.29883-0.19922-0.44922c-0.7667-2.7667-1.1679-4.2008-1.2012-4.3008l-0.25-1c-0.2333-0.86667-0.36514-1.7155-0.39844-2.5488-0.1333-0.0667-0.25156-0.11706-0.35156-0.15039zm46.602 66.9-0.35156 0.0488-0.19922 0.0508c-0.2002 4e-3 -0.39171-0.0959-0.59961 0-0.035 0.0116-0.14651 0.0926-0.19141 0.11328l-0.25976 0.0859h0.10156c-0.1509 0.0787-0.2064 0.12856-0.3125 0.19336-0.1593 0.0984-0.2255 0.11206-0.4375 0.25781-1.1333 0.8-2.0675 2.1333-2.8008 4-0.4 1.2-0.4833 2.4151-0.25 3.6484 0.033 0.16667 0.18252 0.45156 0.44922 0.85156 0.2 0.3 0.26787 0.5655 0.20117 0.79883-0.067 0.16667-0.41748 0.98451-1.0508 2.4512l-1.8496-1.6503c-0.4333-0.33333-0.7667-0.58333-1-0.75-0.4-0.33333-0.59961-0.65117-0.59961-0.95117 0-0.2959-0.2038-0.55763-0.25-0.8457-4e-4 -3e-3 0-5e-3 0-8e-3 -0.121-0.74756-0.21644-1.4992-0.64844-2.1953-0.3667-0.56667-1.0508-1.3671-2.0508-2.4004-1.0333-0.96667-2.4151-1.4008-4.1484-1.3008l-0.30078 0.0508c-0.5667-0.0333-0.9833-0.0159-1.25 0.0508-0.5 0.1-0.69961 0.48177-0.59961 1.1484 0 0.36667 0.083 0.75039 0.25 1.1504l0.15039 0.40039c1.1 2.6333 3.0825 4.2341 5.9492 4.8008 0.1667 0.0333 0.56592 0.0488 1.1992 0.0488 0.4667 0.0333 0.76709 0.10117 0.90039 0.20117 0.6333 0.56667 1.9163 1.933 3.8496 4.0996l-0.20117-0.15022c-0.5-0.3-1.6492-0.56745-3.4492-0.80078-2.7333-0.3-5.4175-0.33303-8.0508-0.0996-0.8667 0.0667-3.5159 0.56667-7.9492 1.5-0.4333 0.0667-1.1175 0.25078-2.0508 0.55078-0.9 0.3-1.5996 0.48216-2.0996 0.54883-0.4 0.23333-0.70039 0.4-0.90039 0.5-0.4 0.13333-0.78369-0.11667-1.1504-0.75-0.4667-0.76667-0.83291-1.6329-1.0996-2.5996l-0.0508-0.0488h0.0508c-0.033-0.0667-0.0508-0.11706-0.0508-0.15039h-0.0488l-0.1504-0.30082-0.0508-0.15039-0.0488-0.0488-0.10156-0.25c0-0.13333-0.05-0.20117-0.15039-0.20117l-0.0996-0.0488c-0.033-0.0333-0.084-0.0178-0.15039 0.0488l-0.0996 0.60156 0.0488 0.39844 0.0996 0.25 0.0508 0.40039v0.0508c0.3667 0.76667 0.76592 1.6988 1.1992 2.7988 0.1333 0.3 0.017 0.48411-0.34961 0.55078-0.7 0.13333-1.5159 0.36589-2.4492 0.69922-1.0667 0.43333-1.8671 0.73372-2.4004 0.90039-0.5333 0.23333-0.93252 0.36706-1.1992 0.40039-0.4 0.0667-0.76826-0.15039-1.1016-0.65039l-1.5-1.6504c-0.1333-0.16667-0.24961-0.33333-0.34961-0.5l-0.0488-0.0488c0-0.0333-0.035-0.0837-0.10156-0.15039l-0.29883-0.15039-0.0996 0.0508c-0.033 0.2-0.084 0.36667-0.15039 0.5v0.0488l0.0488 0.30078 0.0508 0.0996 0.0508 0.0508c0.033 0.0333 0.082 0.0992 0.14844 0.19922l0.10156 0.20117c0.033 0.0333 0.0488 0.0333 0.0488 0l0.10156 0.14844v0.0508l0.10156 0.0996 0.0488 0.0996c0.8333 0.86666 1.5329 1.5004 2.0996 1.9004l-0.44922 0.0508-5.5 3.0488c-0.5 0.26667-0.76748 0.38489-0.80078 0.35156-0.033-0.0333-0.29883-0.23489-0.79883-0.60156-0.3333-0.26667-0.63369-0.54961-0.90039-0.84961-0.3333-0.33333-0.73252-0.64922-1.1992-0.94922-0.067-0.0333-0.15-0.0508-0.25-0.0508-0.1333-0.0333-0.23408-0.0159-0.30078 0.0508-0.1667 0.13333-0.1667 0.3155 0 0.54883 0.2333 0.43333 0.58408 0.85 1.0508 1.25 0.3 0.23333 0.73213 0.60156 1.2988 1.1016 0.033 0.0333 0.084 0.0663 0.15039 0.0996 0.033 0.0333-0.017 0.0992-0.15039 0.19922-0.3333 0.23333-0.78291 0.58411-1.3496 1.0508l-0.40039 0.15039-0.19922 0.14844c-0.1667 0.0667-0.30039 0.16745-0.40039 0.30078l-0.55078 0.44922-0.14844 0.15039c-0.2 0.23333-0.43447 0.43294-0.70117 0.59961l-0.19922 0.15039c-0.3667 0.3-0.56631 0.5345-0.59961 0.70117 0 0.3 0.099 0.46667 0.29883 0.5 0.2333 0.1 0.43291 0.0651 0.59961-0.10156l1-0.75 0.55078-0.59961 1-0.69922c0.067-0.0333 0.11709-0.0663 0.15039-0.0996l0.34961-0.10166 1.0996-0.79883c0.1-0.1 0.20078-0.18333 0.30078-0.25 0.1-0.0667 0.40039-0.25078 0.90039-0.55078 0.5-0.33333 0.94961-0.61628 1.3496-0.84961 0.3667-0.2 2.5663-1.3337 6.5996-3.4004-0.067 0.23333-0.21592 0.71784-0.44922 1.4512-0.2 0.6-0.33369 1.0826-0.40039 1.4492-0.1333 0.8-0.36787 1.4492-0.70117 1.9492h0.0508l-0.0508 0.0508-0.0488 0.15039 0.0488 0.19922 0.10156 0.20117c0.2667 0.2 0.48174 0.2 0.64844 0l0.10156-0.0508 0.14844-0.19922-0.0488-0.25c0.7-2.1667 1.1167-3.5349 1.25-4.1016 0.2-0.76667 0.33369-1.1659 0.40039-1.1992l6.6992-2.3008c-0.067 0.46666-0.11709 0.71667-0.15039 0.75-0.1333 0.53333-0.33291 1.3667-0.59961 2.5-0.1 0.3-0.21631 0.60039-0.34961 0.90039v0.0508l0.0488 0.29883 0.20117 0.20117h0.34964c0.067-0.0667 0.15-0.1345 0.25-0.20117l0.0996-0.19922c0-0.0333 0.0168-0.0663 0.0508-0.0996 0-0.16667 0.0148-0.33333 0.0488-0.5l0.10156-0.40039c0.3667-1.2 0.56631-2.0333 0.59961-2.5 0.1-0.76667 0.5167-1.2163 1.25-1.3496 3.1-0.66667 4.9488-1.0833 5.5488-1.25 1.8-0.53333 4.05-0.91706 6.75-1.1504 1.1667-0.1 2.5175-0.0826 4.0508 0.0508 0.2333 0 1.5667 0.11628 4 0.34961l1.5996 0.25c0.7667 0.16667 1.3829 0.41667 1.8496 0.75 0.9 0.63333 1.8845 1.5171 2.9512 2.6504 0.6 0.66667 1.4992 1.6492 2.6992 2.9492 1.7 1.7 4.1167 4.2833 7.25 7.75l8.1504 9.3008c0.9333 1.1 2.3675 2.7163 4.3008 4.8496 5.5257 5.5257 3.3878 2.647 1.3985 0.0996-1.0667-1.4667-3.2992-4.1159-6.6992-7.9492-1.9-2.3333-3.4-4.0174-4.5-5.0508-0.3333-0.33333-0.76748-0.85078-1.3008-1.5508-0.5667-0.76667-0.9833-1.2822-1.25-1.5488l-5.6484-6.0996c-0.1-0.0333-0.11708-0.11667-0.0508-0.25 0.4333-1.2333 0.79961-2.1171 1.0996-2.6504 0.1667-0.46667 0.28291-0.8 0.34961-1 0.1333-0.4 0.35039-0.61706 0.65039-0.65039 0.6333-0.1 1.3329-0.56706 2.0996-1.4004 1.4667-1.5 2.1333-3.0155 2-4.5488-0.033-0.66666-0.0656-1.0504-0.0996-1.1504-0.1-0.43333-0.28213-0.73372-0.54883-0.90039-0.6667-0.4-1.3004-0.45039-1.9004-0.15039-1.1333 0.63333-1.9163 1.2671-2.3496 1.9004-1.1 1.5667-1.5671 3.0667-1.4004 4.5 0.2667 1.7 0.21631 2.9829-0.15039 3.8496-0.3 0.83333-0.61592 1.2171-0.94922 1.1504-0.1667-0.0333-0.5-0.33372-1-0.90039-1.2667-1.5-2.6504-2.8837-4.1504-4.1504-1.0667-0.8-1.2663-1.6663-0.59961-2.5996 0.3667-0.76667 0.64961-1.3326 0.84961-1.6992 0.3333-0.63333 0.78291-1.05 1.3496-1.25 0.5-0.16667 1.0659-0.63372 1.6992-1.4004 1.0667-1.4333 1.65-3.0167 1.75-4.75 0.067-0.94378-0.19824-1.6061-0.61524-2.1406-0.042-0.10133 0.0158-0.26249-0.0332-0.35938-0.1392-0.29258-0.3892-0.4418-0.75-0.44922zm-12.264 24.887c-0.4083 0.0583-0.67041 0.36211-0.78711 0.91211-0.04 0.22256 0.0573 0.34648 0.0293 0.56055-0.171 0.16521-0.3156 0.34683-0.2793 0.64062 0.044 0.53612 0.29443 0.92682 0.39062 1.4258 0.058 0.67591-0.11122 1.5154 0.10938 2.0742 0.7667 2.1333 1.85 3.7167 3.25 4.75 0.1667 0.13333 0.53291 0.26511 1.0996 0.39844 0.4667 0.1 0.76709 0.28411 0.90039 0.55078 0.8 1.2333 1.4667 2.1829 2 2.8496l0.0996 0.30078h-0.3496c-0.3333-0.1-1.5659-0.28411-3.6992-0.55078l-1.4512-0.25c-0.5-0.13333-1.6822-0.16637-3.5488-0.0996-1.4667 0.0333-2.6508-0.23412-3.5508-0.80078-0.7-0.43333-1.5992-0.64844-2.6992-0.64844-0.5667 0-1.5337 0.0833-2.9004 0.25-1.3193 0.16491-2.2526 0.93122-3.0059 1.9785-0.076 0.0782-0.16924 0.0864-0.24414 0.16992v0.0508c-0.068 0.0803-0.1514 0.21406-0.25 0.40039-0.023 0.0561-0.0556 0.0891-0.0996 0.0996-0.019 0.0721-0.01 0.14303-0.0176 0.21484-0.078 0.17081-0.215 0.24944-0.2832 0.43555-0.2667 0.83333-0.067 1.3663 0.59961 1.5996 0.1595 0.0629 0.45656 8.4e-4 0.63086 0.0508 0.7152 0.13606 1.4257 0.24643 2.1191 0.25 0.1174 6e-5 0.22149-0.0489 0.33789-0.0527 0.4632-5e-3 0.73962 0.15958 1.2617 0.10156 0.4868-0.0497 0.80645-0.37437 1.252-0.49219 0.2119-0.0638 0.4132-0.16548 0.6211-0.24414 0.78999-0.28188 1.6816-0.39689 2.3281-0.91406l0.75-0.75c0.3-0.3 0.55-0.46667 0.75-0.5 1.3-0.1 3.2167-0.0826 5.75 0.0508l1.5 0.15039c1.4 0.2 3.8322 0.73294 7.2988 1.5996l0.25 0.0508-0.14844 0.25c-0.2 0.0333-0.7833 0.33177-1.75 0.89844-0.7333 0.43333-1.4349 0.56706-2.1016 0.40039-0.6751-0.16602-1.336-0.11013-2-0.0996-1.3358 0.021-2.6578 0.26524-3.9492 1-0.2609 0.13954-0.42159 0.35855-0.65039 0.52344-0.043 0.0305-0.079 0.0662-0.12109 0.0976-0.7776 0.59186-1.3739 1.3274-1.7617 2.2285-0.082 0.15616-0.24371 0.23468-0.31641 0.40039-0.022 0.0539 0.0403 0.0906 0.0273 0.14258-0.01 0.0213-0.0213 0.0352-0.0273 0.0566-0.3333 0.66666-0.19961 1.1337 0.40039 1.4004 0.2438 0.12502 0.55431 0.12415 0.82031 0.20703 0.088 0.0514 0.11312 0.17319 0.22852 0.19336h0.0508c0.1697 0.0382 0.47182 0.0443 0.73242 0.0606 0.9097 0.0958 1.8938 0.0502 3.0176-0.25977 0.2036-0.0615 0.36876-0.29006 0.56836-0.36914 0.1243-0.0487 0.25726-0.0274 0.38086-0.082 1.0027-0.44735 1.7373-1.0363 2.3457-1.6914 0.2237-0.20235 0.48758-0.22977 0.70508-0.45898 0.1667-0.16667 0.48252-0.69961 0.94922-1.5996 0.3667-0.7 0.83369-1.1322 1.4004-1.2988 0.2667-0.0667 0.74922-0.35156 1.4492-0.85156 0.6-0.4 1.0671-0.58216 1.4004-0.54883 0.5667 0.0333 1.2333 0.2155 2 0.54883 0.4667 0.16667 1.1333 0.45156 2 0.85156 2.9 1.2333 5.3496 2.5318 7.3496 3.8984 0.4 0.26667 0.4 0.46823 0 0.60156l-2.5996 0.94922c-0.4333 0.23333-0.7667 0.41745-1 0.55078-0.4 0.16667-0.7333 0.23255-1 0.19922-0.8014-0.16804-1.2292-0.062-1.9004-0.13477-0.054-9e-3 -0.092-0.0643-0.14844-0.0644h-0.74414c-0.6764-0.031-1.5913-0.2364-2.1074-0.15039-2.2333 0.3-3.7488 1.3833-4.5488 3.25-0.033 0.13333-0.13408 0.38333-0.30078 0.75-0.1 0.36667 0.034 0.61667 0.40039 0.75 0.4903 0.21015 0.6628 0.2239 1.0293 0.35742 0.038 0.0184 0.0283 0.0768 0.0703 0.0918h-0.0508c0.1767 0.046 0.2763 0.0314 0.4414 0.0684 0.2891 0.0921 0.77474 0.30598 0.95704 0.33203 0.2085 0.0253 0.43558-0.0872 0.64648-0.082 0.058 2e-3 0.14998 0.0317 0.20508 0.0312 0.1592-1e-3 0.3384-0.10899 0.5-0.12305 1.8052-0.14216 3.672-0.80114 5.6484-2.377 0.1-0.0833 0.20038-0.33334 0.30078-0.5 0.1004-0.16667 0.20078-0.25 0.30078-0.5 0.1667-0.43333 0.38174-0.71628 0.64844-0.84961l4.0508-1.6992c0.1333-0.0333 0.31748-0.11667 0.55078-0.25 0.2-0.0333 0.39961 0.0171 0.59961 0.15039 0.067 0.0333 1.0337 0.7 2.9004 2 1.1667 0.8 2.0833 1.5151 2.75 2.1484 0.1 0.1 0.91592 0.78411 2.4492 2.0508 1.388 1.1486 1.9396 1.7794 2.5 2.4492 0.43444 0.37243 1.1555 0.14224 0.55081-0.79883-0.46663-0.57812-0.90882-1.1448-1.4492-1.6506-0.5667-0.4-1.4155-1.1326-2.5488-2.1992-1.0667-1.0333-1.9349-1.7678-2.6016-2.2012-2.3333-1.6-4.0484-2.8326-5.1484-3.6992-0.8333-0.5-1.4516-0.88372-1.8516-1.1504-0.7333-0.43333-1.2159-0.96628-1.4492-1.5996l-0.0996-0.20117c-0.2333-0.6-0.41748-1.0496-0.55078-1.3496-0.2-0.53333-0.21553-0.9655-0.0488-1.2988 0.2404-0.52882 0.073-1.2376 0.1211-1.8516 0.071-0.36075 0.12627-0.73267 0.0762-1.1894-0.033-0.29253 0.12283-0.5019 0.0527-0.81055-0.081-0.35004-0.32684-0.56051-0.43164-0.89063-0.038-0.11462-0.0264-0.19001-0.0684-0.30859-0.1437-0.39859-0.36273-0.55035-0.51953-0.90625-0.406-0.89946-0.66885-1.9207-1.2812-2.6445-0.091-0.11524-0.30512-0.20925-0.41992-0.32031-0.05-0.0545-0.08-0.1767-0.13086-0.22852-0.1034-0.10202-0.24029-0.11473-0.36719-0.1543-0.2676-0.19754-0.42905-0.41196-0.78125-0.5957-0.4333-0.23333-0.75117-0.16745-0.95117 0.19922-0.084 0.1462-0.2028 0.40224-0.3125 0.62695-0.01 0.0158-0.0321 7e-3 -0.0371 0.0234-0.01 0.0171 0 0.0317 0 0.0488-0.054 0.11224-0.09 0.17044-0.15039 0.30078-0.1667 0.16667-0.26553 0.38372-0.29883 0.65039-0.033 0.16667-0.0508 0.38372-0.0508 0.65039-0.3667 2.4667 0.49961 4.8 2.5996 7 0.1333 0.16667 0.4667 0.36628 1 0.59961 0.4667 0.16667 0.74961 0.41667 0.84961 0.75 0.1 0.23333 0.20078 0.56667 0.30078 1 0.1 0.4 0.28408 0.71589 0.55078 0.94922-2.5333-1.0333-4.5179-1.8667-5.9512-2.5-1.1-0.43333-2.6155-0.93334-4.5488-1.5-0.5-0.0667-0.86826-0.13255-1.1016-0.19922-0.4333-0.0667-0.6833-0.18294-0.75-0.34961l-0.25-0.59961c-0.5-1.1333-0.98252-1.9512-1.4492-2.4512-0.6333-0.66667-0.98408-1.5659-1.0508-2.6992 0.033-1.3 6.9e-4 -2.2671-0.0996-2.9004-0.3-2.4667-1.4337-4.3-3.4004-5.5-0.2402-0.14871-0.36451-0.10255-0.57031-0.19336l-0.12891-0.05657c-0.01 2e-3 -0.0241 8.3e-4 -0.0391 0-0.3169-0.11946-0.69693-0.34492-0.92383-0.3125z"/>
 <g transform="translate(-326.3 -373.75)">
  <path transform="translate(160.15,84.1)" d="m171.15 289.65c-3.3333 0-5 1.6667-5 5v158.2c0 3.3333 1.6667 5 5 5h93.199c3.3333 0 5-1.6667 5-5v-158.2c0-3.3333-1.6667-5-5-5zm8.2988 7.1992h76.6c4.6667 0 7 2.3333 7 7v139.8c0 4.6667-2.3333 7-7 7h-76.6c-4.6667 0-7-2.3333-7-7v-139.8c0-4.6667 2.3333-7 7-7z" fill="#ef1d1e"/>
  <path transform="translate(160.15,84.1)" d="m179.45 296.85c-4.6667 0-7 2.3333-7 7v139.8c0 4.6667 2.3333 7 7 7h76.6c4.6667 0 7-2.3333 7-7v-139.8c0-4.6667-2.3333-7-7-7z" fill="none" stroke="#000" stroke-width="1.2"/>
 </g>
</svg>
