<svg width="103.2" height="168.2" preserveAspectRatio="none" version="1.1" viewBox="0 0 103.2 168.2" xmlns="http://www.w3.org/2000/svg">
 <path d="m13.301 7.1992c-4.6667 0-7 2.3333-7 7v139.8c0 4.6667 2.3333 7 7 7h76.6c4.6667 0 7-2.3333 7-7v-139.8c0-4.6667-2.3333-7-7-7z" fill="#fff"/>
 <path d="m41.15 88.75c-1.6 0.0667-3.2008 0.21589-4.8008 0.44922-3.0666 0.4-5.3496 0.75078-6.8496 1.0508-3.4333 0.7-5.6504 1.1826-6.6504 1.4492-1.5 0.4-3.7171 1.1345-6.6504 2.2012-3.9 1.4333-6.3496 2.4159-7.3496 2.9492-1.6333 0.7-2.8329 1.2678-3.5996 1.7012l-1.6992 67.5c0.46331 0.41584 97.25 0 97.25 0l-3.7011-59.551c-1.8667-1.6667-3.2988-2.8663-4.2988-3.5996-1.0667-0.76667-2.7004-1.8171-4.9004-3.1504-2.3-1.3-4.3175-2.3833-6.0508-3.25-1.2667-0.6-3.4663-1.4992-6.5996-2.6992-1.9-0.73333-3.5996-1.3012-5.0996-1.7012-2.2-0.46667-3.8512-0.83294-4.9512-1.0996-2.7335-0.59944-4.7992-0.98365-6.1992-1.1503l-3.75-0.54883c-2.5-0.23333-4-0.36706-4.5-0.40039-2.1667 0.1-3.7829 0.0671-4.8496-0.0996-0.8667-0.1-2.45-0.11727-4.75-0.0508z"/>
 <g transform="translate(-555.75,-373.75)">
  <path transform="translate(160.15,84.1)" d="m400.6 289.65c-3.3333 0-5 1.6667-5 5v158.2c0 3.3333 1.6667 5 5 5h93.199c3.3333 0 5-1.6667 5-5v-158.2c0-3.3333-1.6667-5-5-5zm8.3008 7.1992h76.6c4.6667 0 7 2.3333 7 7v139.8c0 4.6667-2.3333 7-7 7h-76.6c-4.6667 0-7-2.3333-7-7v-139.8c0-4.6667 2.3333-7 7-7z" fill="#ef1d1e"/>
  <path transform="translate(160.15,84.1)" d="m408.9 296.85c-4.6667 0-7 2.3333-7 7v139.8c0 4.6667 2.3333 7 7 7h76.6c4.6667 0 7-2.3333 7-7v-139.8c0-4.6667-2.3333-7-7-7z" fill="none" stroke="#000" stroke-width="1.2"/>
 </g>
</svg>
