<svg width="103.2" height="168.2" preserveAspectRatio="none" version="1.1" viewBox="0 0 103.2 168.2" xmlns="http://www.w3.org/2000/svg">
 <path d="m13.301 7.1992c-4.6667 0-7 2.3333-7 7v139.8c0 4.6667 2.3333 7 7 7h76.6c4.6667 0 7-2.3333 7-7v-139.8c0-4.6667-2.3333-7-7-7z" fill="#fff"/>
 <path d="m46.199 81.65c-1.8 0-3.3484 0.0659-4.6484 0.19922-3.7666 0.33333-6.5845 0.61628-8.4512 0.84961-2.5333 0.26667-4.3821 0.53411-5.5488 0.80078-2.3333 0.5-4.7016 1.1008-7.1016 1.8008-2.5666 0.7-4.7159 1.3996-6.4492 2.0996-0.3667 0.16667-2.3163 1.0988-5.8496 2.7988-1.9333 1.0667-3.3171 1.9678-4.1504 2.7012l-0.60176 73.15h97.25l-1.5486-67.201c-1.2694-1.1025-2.1357-1.8195-2.5996-2.1504-0.095-0.0698-0.20128-0.11244-0.29688-0.18164-0.36369-0.27567-0.49924-0.47963-0.90234-0.76758-0.5333-0.4-2.2175-1.4833-5.0508-3.25-1.9333-1.2-4.2667-2.3996-7-3.5996-1.3333-0.6-3.5833-1.4663-6.75-2.5996-1.9667-0.76666-3.3-1.2337-4-1.4004-2.7667-0.6-4.85-1.0845-6.25-1.4512-0.4-0.13333-1.0163-0.21667-1.8496-0.25-0.8667-0.0333-1.4829-0.0992-1.8496-0.19922-0.8-0.23333-1.7671-0.41745-2.9004-0.55078-1.2667-0.13333-2.2337-0.24961-2.9004-0.34961-2.1333-0.26667-4.1159-0.40039-5.9492-0.40039-2.0667-0.0333-3.6016-0.0488-4.6016-0.0488z"/>
 <g transform="translate(-773.5,-373.75)">
  <path transform="translate(160.15,84.1)" d="m618.35 289.65c-3.3333 0-5 1.6667-5 5v158.2c0 3.3333 1.6667 5 5 5h93.199c3.3333 0 5-1.6667 5-5v-158.2c0-3.3333-1.6667-5-5-5zm8.3008 7.1992h76.6c4.6667 0 7 2.3333 7 7v139.8c0 4.6667-2.3333 7-7 7h-76.6c-4.6667 0-7-2.3333-7-7v-139.8c0-4.6667 2.3333-7 7-7z" fill="#ef1d1e"/>
  <path transform="translate(160.15,84.1)" d="m626.65 296.85c-4.6667 0-7 2.3333-7 7v139.8c0 4.6667 2.3333 7 7 7h76.6c4.6667 0 7-2.3333 7-7v-139.8c0-4.6667-2.3333-7-7-7z" fill="none" stroke="#000" stroke-width="1.2"/>
 </g>
</svg>
