<svg width="103.2" height="168.2" preserveAspectRatio="none" version="1.1" viewBox="0 0 103.2 168.2" xmlns="http://www.w3.org/2000/svg">
 <path d="m13.301 7.1992c-4.6667 0-7 2.3333-7 7v139.8c0 4.6667 2.3333 7 7 7h76.6c4.6667 0 7-2.3333 7-7v-139.8c0-4.6667-2.3333-7-7-7z" fill="#fff"/>
 <path d="m3.3008 3.1504c-0.17408 10.852 1.3008 101.25 1.3008 101.25l94.699 9.5 1.25-110.75c-32.277 0.58292-64.873-1.851-97.25 0zm46.449 19c18.681-0.53831 33.228 16.561 33.228 31.594 0 21.844-16.424 34.307-33.376 34.307-14.182 0-32.683-12.097-32.683-32.422 0-16.466 11.606-32.867 32.832-33.478z" fill="#ef1d1e"/>
 <path d="m48.051 21.449c-8.5332 0.4-15.917 3.7509-22.15 10.051-6.5999 6.6665-9.7821 14.783-9.5488 24.35 0.3667 11.967 5.6497 21.234 15.85 27.801 6.3665 4.0667 13.382 5.7004 21.049 4.9004 9.0999-0.96666 16.6-4.9513 22.5-11.951 5.7332-6.7665 8.3167-14.817 7.75-24.15-0.5-8.2665-3.8993-15.466-10.199-21.6-6.8999-6.6999-15.317-9.8337-25.25-9.4004zm0.91602 1.211c6.9311-0.28125 13.459 1.7152 19.584 5.9902 6.1999 4.3333 10.349 10.149 12.449 17.449 2.8 9.9332 1.2166 19.151-4.75 27.65-2.9 4.1333-6.4155 7.3659-10.549 9.6992-3.9667 2.2333-8.3504 3.5512-13.15 3.9512-8.3999 0.3-15.683-1.8163-21.85-6.3496-5.6332-4.1665-9.4841-9.4342-11.551-15.801-2.8666-9.0665-2.0837-17.633 2.3496-25.699h0.0508l0.0508-0.0508c4.5666-8.2332 11.332-13.501 20.299-15.801 2.4-0.6 4.756-0.94531 7.0664-1.0391zm-8.2168 70.09c-2.5333 0.26667-4.4325 0.43333-5.6992 0.5-0.6 0-1.35 0.0833-2.25 0.25-0.9667 0.16667-1.6992 0.28294-2.1992 0.34961-0.1667 0.0333-1.2171 0.23294-3.1504 0.59961-2.3667 0.56666-3.8337 0.93489-4.4004 1.1016l-6.5 2.25c-0.8 0.26667-1.9008 0.71628-3.3008 1.3496-1.5 0.66667-2.6163 1.1337-3.3496 1.4004-2.0333 0.73333-3.9655 1.7663-5.7988 3.0996l-0.81506 59.395 95.106 1.0687-0.89263-52.964c-1-0.86667-2.9167-2.2174-5.75-4.0508-2.0333-1.3333-4.4655-2.8004-7.2988-4.4004-1.9333-1.1-4.6679-2.383-8.2012-3.8496-3.0333-1.1-5.2988-1.9333-6.7988-2.5-2.1333-0.76667-5.7672-1.6504-10.9-2.6504-0.4333-0.0667-2.7492-0.28177-6.9492-0.64844l-2.75-0.20117c-0.4667 0-1.1333-0.0329-2-0.0996l-3.1016 0.0508c-1.3333-0.0667-2.3333-0.0841-3-0.0508z"/>
 <g transform="translate(479.2 -235.55)">
  <path transform="translate(-848.6,2.2)" d="m399.45 353.05c-4.8667 0-9.0159 1.7171-12.449 5.1504-3.4 3.4333-5.1016 7.5845-5.1016 12.451s1.7016 9.0159 5.1016 12.449c3.4333 3.4333 7.5826 5.1504 12.449 5.1504s9.0159-1.7171 12.449-5.1504 5.1504-7.5826 5.1504-12.449-1.7171-9.0178-5.1504-12.451-7.5826-5.1504-12.449-5.1504z" fill="#ef1d1e"/>
  <path transform="translate(-848.6,2.2)" d="m397.62 356.15c-0.51771 0.062-0.90742 0.54505-1.1699 1.4492-0.3 1-0.3 2.5504 0 4.6504 0.0333 0.93333 0.0508 1.8171 0.0508 2.6504-0.0333 0.96667-0.10117 1.8484-0.20117 2.6484-0.73333 0.23333-1.3826 0.46784-1.9492 0.70117-2.0667 0.83333-3.0996 1.6492-3.0996 2.4492v0.25l0.14844 0.40039h0.40039c0.0333 0 1.6671-0.39922 4.9004-1.1992-0.26667 0.9-0.85 1.933-1.75 3.0996-0.83333 1.1-1.5833 1.9663-2.25 2.5996-0.7 0.66667-1.1496 1.1163-1.3496 1.3496-0.13333 0.2-0.51706 0.55078-1.1504 1.0508-0.6 0.46667-1.1833 0.8155-1.75 1.0488-0.6 0.23333-0.90039 0.48333-0.90039 0.75 0 0.16667 0.13372 0.35078 0.40039 0.55078 0.26667 0.16667 0.6 0.25 1 0.25 0.96667 0 2.2496-0.80039 3.8496-2.4004 1.6-1.6333 2.6504-2.7826 3.1504-3.4492s1.1008-1.6163 1.8008-2.8496c0.66667-1.2333 1.1492-2.1016 1.4492-2.6016v-0.0488c0.0625 0 0.11289-0.0174 0.15039-0.0508-0.0374 0.0353-0.0878 0.0682-0.15039 0.0996 0.0667 1.0333 0.13255 2.0004 0.19922 2.9004l-0.34961 5.5c0 1.3333 0.38372 2.2674 1.1504 2.8008 0.73333 0.5 2.2663 0.78294 4.5996 0.84961 2.3 0.13333 4.0674-0.31628 5.3008-1.3496 1.3333-1.0667 1.9322-2.1829 1.7988-3.3496-0.0667-1.1333-0.34961-1.9512-0.84961-2.4512s-0.91667-0.81589-1.25-0.94922c-0.4-0.0667-0.78372 0.48373-1.1504 1.6504-0.43333 1.1333-0.91589 1.8155-1.4492 2.0488-0.56667 0.2-1.3671 0.39961-2.4004 0.59961-1.0667 0.3-1.7333 0.45117-2 0.45117-1 0-1.5155-1.0678-1.5488-3.2012 0.0667-2.1 0.0996-3.1988 0.0996-3.2988 0-0.96667-0.0174-1.55-0.0508-1.75-0.13333-0.3-0.36589-0.60039-0.69922-0.90039 2.8333-1 4.25-1.8837 4.25-2.6504 0-0.53333-0.19961-0.86667-0.59961-1-0.16667-0.1-0.58333-0.15039-1.25-0.15039-0.6 0-1.2182 0.15117-1.8516 0.45117-1.1 0.46667-1.8984 0.8-2.3984 1-0.0667-0.33333-0.10156-0.76745-0.10156-1.3008 0-0.83333 0.0833-1.7655 0.25-2.7988 0-0.2 0.0174-0.41706 0.0508-0.65039 0.16667-1.3 0.25-2.3174 0.25-3.0508s-0.0174-1.2333-0.0508-1.5c-0.23333-0.86667-0.6655-1.2988-1.2988-1.2988-0.0792-8e-3 -0.15651-9e-3 -0.23047 0zm5.7305 1.75c-0.6 0.46667-1.3829 1.2167-2.3496 2.25-0.96666 1.0333-1.4512 1.8996-1.4512 2.5996 0 0.66667 0.0175 1.0155 0.0508 1.0488 0.0667 0.0667 0.0996 0.11706 0.0996 0.15039 0.13333 0.1 0.23411 0.15039 0.30078 0.15039 0.33333 0 1.2655-0.55039 2.7988-1.6504 1.6333-1.2 2.4512-2.0488 2.4512-2.5488 0-0.43333-0.20156-0.86745-0.60156-1.3008-0.4-0.46667-0.83216-0.69922-1.2988-0.69922zm-12.5 4.5996c-0.3 0-0.55 0.18216-0.75 0.54883-0.13333 0.33333-0.20117 0.65117-0.20117 0.95117 0 0.83333 0.16667 1.4496 0.5 1.8496 0.3 0.3 0.76706 0.48411 1.4004 0.55078 0.2 0.0333 0.4345 0.0488 0.70117 0.0488 0.2-0.0333 0.43255-0.0837 0.69922-0.15039 0.1-0.0333 0.21628-0.0992 0.34961-0.19922 0.83333-0.33333 1.25-0.75 1.25-1.25 0-0.43333-0.14922-0.71628-0.44922-0.84961-0.16667-0.0667-0.61628-0.16745-1.3496-0.30078-0.6-0.0667-1.0167-0.29922-1.25-0.69922-0.26667-0.33333-0.56706-0.5-0.90039-0.5z" fill="#fff"/>
  <path transform="translate(-848.6,2.2)" d="m399.45 353.05c-4.8667 0-9.0159 1.7171-12.449 5.1504-3.4 3.4333-5.1016 7.5845-5.1016 12.451s1.7016 9.0159 5.1016 12.449c3.4333 3.4333 7.5826 5.1504 12.449 5.1504s9.0159-1.7171 12.449-5.1504 5.1504-7.5826 5.1504-12.449-1.7171-9.0178-5.1504-12.451-7.5826-5.1504-12.449-5.1504z" fill="none" stroke="#000"/>
 </g>
 <g transform="translate(-447.2 -373.75)">
  <path transform="translate(160.15,84.1)" d="m292.05 289.65c-3.3333 0-5 1.6667-5 5v158.2c0 3.3333 1.6667 5 5 5h93.201c3.3333 0 5-1.6667 5-5v-158.2c0-3.3333-1.6667-5-5-5zm8.3008 7.1992h76.6c4.6667 0 7 2.3333 7 7v139.8c0 4.6667-2.3333 7-7 7h-76.6c-4.6667 0-7-2.3333-7-7v-139.8c0-4.6667 2.3333-7 7-7z" fill="#ef1d1e"/>
  <path transform="translate(160.15,84.1)" d="m300.35 296.85c-4.6667 0-7 2.3333-7 7v139.8c0 4.6667 2.3333 7 7 7h76.6c4.6667 0 7-2.3333 7-7v-139.8c0-4.6667-2.3333-7-7-7z" fill="none" stroke="#000" stroke-width="1.2"/>
 </g>
</svg>
