<svg width="103.2" height="168.2" preserveAspectRatio="none" version="1.1" viewBox="0 0 103.2 168.2" xmlns="http://www.w3.org/2000/svg">
 <path d="m13.301 7.1992c-4.6667 0-7 2.3333-7 7v139.8c0 4.6667 2.3333 7 7 7h76.6c4.6667 0 7-2.3333 7-7v-139.8c0-4.6667-2.3333-7-7-7z" fill="#fff"/>
 <path d="m45.401 41.5c0.0387 7e-3 0.072 7e-3 0.1 0 0.0259-9e-3 0.0426-0.0259 0.05-0.05-0.0387 0.0257-0.0887 0.0423-0.15 0.05m1.25-0.75h-0.05c0.23997-0.1263 0.37331-0.30963 0.4-0.55 5e-3 -0.0331 5e-3 -0.0664 0-0.1 0.0617-0.19675 0.0117-0.41341-0.15-0.65l-0.8-1.15-0.55-0.55c-0.0767-0.0697-0.12669-0.15299-0.15-0.25-0.0137-0.10261 3e-3 -0.20261 0.05-0.3l0.3-0.75c0.13229-0.37825 0.099-0.74492-0.1-1.1-0.21927-0.28503-0.51927-0.43503-0.9-0.45l-0.35 0.05c-0.58425 0.0965-1.2009 0.26315-1.85 0.5-0.0485 0.0397-0.11513 0.0564-0.2 0.05-0.0529-2e-3 -0.11953-0.0187-0.2-0.05l-0.3-0.15c-0.0301-0.0268-0.0634-0.0601-0.1-0.1-0.0402-1e-3 -0.10687-1e-3 -0.2 0l-0.85-0.05c-0.79101 3e-3 -1.5244 0.16933-2.2 0.5h0.05c-1.0148 0.56485-1.8815 1.6815-2.6 3.35v0.05l-0.3 0.55c-0.0547 0.0871-0.138 0.15377-0.25 0.2-0.0697 0.0453-0.15299 0.062-0.25 0.05l-0.45-0.05-0.35 0.05c-0.4862 0.0883-0.91953 0.32161-1.3 0.7-0.0831 0.0862-0.18307 0.1362-0.3 0.15-0.11797 0.0139-0.23463-0.0194-0.35-0.1-0.19271-0.11966-0.44271-0.18633-0.75-0.2h-0.05c-0.0496 0.0335-0.0996 0.0501-0.15 0.05-0.70703 9e-3 -1.307 0.34273-1.8 1-0.0585 0.0799-0.1418 0.12995-0.25 0.15-0.0733 0.0527-0.15664 0.0694-0.25 0.05-0.0961-0.0259-0.17943-0.0759-0.25-0.15-0.36302-0.35677-0.81302-0.54011-1.35-0.55l-0.55 0.05c-0.35847 0.0642-0.6418 0.24753-0.85 0.55-0.0538 0.11875-0.0871 0.21875-0.1 0.3 4e-3 0.1207-0.0293 0.2207-0.1 0.3-0.08 0.10847-0.17995 0.17513-0.3 0.2-0.1125 0.022-0.22917 5e-3 -0.35-0.05-0.42943-0.22409-0.79609-0.34075-1.1-0.35-0.38802-1e-3 -0.70469 0.11533-0.95 0.35-0.32735 0.32982-0.54401 0.66315-0.65 1-3e-3 0.10325-0.036 0.18659-0.1 0.25-0.0629 0.0638-0.1462 0.0971-0.25 0.1-0.0749 0.0421-0.1582 0.0421-0.25 0l-0.65-0.2h-0.05c-0.26133-0.0967-0.54466-0.14675-0.85-0.15-0.57044 0-1.0371 0.23333-1.4 0.7h-0.05c-0.1944 0.28073-0.27773 0.58073-0.25 0.9 5e-3 0.11432-0.0287 0.21432-0.1 0.3-0.0298 0.0888-0.0965 0.15547-0.2 0.2-0.0792 0.0463-0.17917 0.063-0.3 0.05l-1.4-0.05c-0.84232 3.9e-4 -1.4256 0.30039-1.75 0.9v0.05c-0.12656 0.24141-0.14323 0.50807-0.05 0.8 0.0489 0.11641 0.0489 0.21641 0 0.3-6e-3 0.12552-0.056 0.22552-0.15 0.3-0.072 0.0635-0.17201 0.0969-0.3 0.1-0.53125 0.0358-1.3146 0.15247-2.35 0.35v-0.05l-0.6 0.15v0.05c-1.1753 0.2125-2.0586 0.52917-2.65 0.95l-0.35 0.95c0.0699 0.37526 0.30325 0.59193 0.7 0.65l0.9 0.15 3.15 0.35c1.1572-4e-3 2.5238-0.12067 4.1-0.35h0.05l3.25-0.3 1.1-0.2 0.3 0.2c0.10664 0.0811 0.17331 0.16445 0.2 0.25 0.0553 0.10599 0.072 0.20599 0.05 0.3-0.0237 0.0979-0.0737 0.18125-0.15 0.25-1.5209 1.2078-8.5462 0.08556-13.05 6.1l-1.75 3.55c-0.2069 0.43633-0.14023 0.80299 0.2 1.1 2.1106-0.31497 6.6748-7.4006 22.95-8.55 1.5986-0.52552 2.8819-1.0755 3.85-1.65 0.1582-0.11992 0.3082-0.21992 0.45-0.3 0.0561-0.0198 0.10613-0.0365 0.15-0.05 0.0168-0.0107 0.0335-0.0273 0.05-0.05 0.13373-0.10182 0.25039-0.20182 0.35-0.3l0.15-0.15c0.0703-0.0721 0.15365-0.12213 0.25-0.15 0.11432-0.10365 0.23099-0.20365 0.35-0.3l7.95-8.25 0.95-0.85c0.0321-1e-3 0.0488-0.018 0.05-0.05 0.12057-0.0473 0.23724-0.0973 0.35-0.15h0.05c0.0294-0.0384 0.0627-0.0717 0.1-0.1l1.1-0.65m16.05-17.9h-0.05c-0.26133-0.0968-0.54466-0.14675-0.85-0.15-0.58333 5e-3 -1.0833 0.23867-1.5 0.7-0.16146 0.33802-0.24479 0.65469-0.25 0.95 2e-3 0.0996-0.0313 0.18294-0.1 0.25-0.0399 0.0963-0.10653 0.16302-0.2 0.2-0.0885 0.0451-0.18854 0.0617-0.3 0.05l-2.1 0.1c-0.50873 0.0919-0.85873 0.34193-1.05 0.75v0.05c-0.0794 0.21914-0.0794 0.50247 0 0.85 0.0459 0.10899 0.0459 0.20899 0 0.3-0.0177 0.1-0.0677 0.18333-0.15 0.25-0.0816 0.0608-0.18164 0.0941-0.3 0.1-0.44023 0.0354-1.2402 0.15207-2.4 0.35l0.05-0.05-0.6 0.15c-3.0675 1.3812-3.0869 2.2215-1.35 2.75 0.64831 0.17149 1.2483 0.27149 1.8 0.3l1.25 0.05c1.19-4e-3 2.5733-0.12067 4.15-0.35h0.05c0.73333-0.0667 1.8167-0.16667 3.25-0.3h0.05c0.18802 3e-3 0.35469-0.0467 0.5-0.15 0.0835-0.0594 0.1668-0.0927 0.25-0.1 0.11393-2e-3 0.21393 0.0147 0.3 0.05l0.35 0.2c0.09 0.0697 0.15664 0.15299 0.2 0.25 0.0489 0.0966 0.0656 0.19661 0.05 0.3-0.0216 0.0982-0.0716 0.18151-0.15 0.25-0.0772 0.0788-0.17721 0.12877-0.3 0.15l-2.25 0.35c-0.20521 0.0207-0.38854 0.104-0.55 0.25-0.0756 0.12331-0.14232 0.23997-0.2 0.35-0.43958-0.0685-0.90625-0.10182-1.4-0.1-1.2118 5e-3 -2.5118 0.272-3.9 0.8h0.05c-0.75664 0.35989-1.69 1.0599-2.8 2.1h-0.05l-0.35 0.35h-0.05c-0.0952 0.15365-0.16185 0.33698-0.2 0.55-0.0198 0.0634-0.0531 0.1134-0.1 0.15-0.0404 0.0774-0.0904 0.12735-0.15 0.15-0.27331 0.1918-0.57331 0.5418-0.9 1.05l0.05-0.05-1.75 3.55c-0.0785 0.18711-0.0952 0.38711-0.05 0.6l1.4 0.5 3.85-2.85c0.0314-0.0203 0.0647-0.037 0.1-0.05l0.35-0.15h-0.05l0.45-0.4c4.6397-4.2084 17.05-5.1 17.05-5.1 2.2628-0.73607 3.8961-1.5194 4.9-2.35l0.05-0.1c0.0911-0.0859 0.19115-0.15261 0.3-0.2 0.13737-0.0194 0.25403-3e-3 0.35 0.05h0.05c0.0246-2e-3 0.0413-2e-3 0.05 0 0.90391 0.13333 2.4039 0.58333 4.5 1.35l9.7 4.35c1.312 0.55573 2.262 0.92239 2.85 1.1 1.0387 0.33073 2.022 0.49739 2.95 0.5 3.6321 0 1.7635-2.5214-0.9-4.2-0.0897-0.0281-0.15638-0.0948-0.2-0.2-0.0486-0.0793-0.0653-0.1793-0.05-0.3 0.0216-0.0893 0.0716-0.17265 0.15-0.25 0.27435-0.27513 0.39101-0.5918 0.35-0.95v-0.05c-0.0448-0.42761-0.3448-0.82761-0.9-1.2h0.05l-0.9-0.55c-0.0844-0.0336-0.15104-0.10027-0.2-0.2-0.0405-0.0617-0.0571-0.14507-0.05-0.25 1e-3 -0.0264 1e-3 -0.0597 0-0.1-1e-3 -0.0475-1e-3 -0.0975 0-0.15v-0.05c5e-3 -0.20664-0.0447-0.38997-0.15-0.55 8e-3 -0.0167 8e-3 -0.0333 0-0.05-0.33906-0.73828-0.93906-1.1883-1.8-1.35-0.0862-0.0194-0.16953-0.0694-0.25-0.15-0.0541-0.0451-0.10413-0.11173-0.15-0.2l-0.15-0.5c-0.18151-0.26133-0.33151-0.44466-0.45-0.55-0.61328-0.37344-1.28-0.59011-2-0.65-0.10313-0.013-0.20313-0.063-0.3-0.15-0.0591-0.0496-0.10913-0.13293-0.15-0.25-0.0241-0.12044-0.0741-0.22044-0.15-0.3-0.0399-0.0367-0.0732-0.0867-0.1-0.15l-0.05-0.1c-9e-3 -6.5e-4 -0.0257-0.0173-0.05-0.05-0.20534-0.55989-0.58867-0.92656-1.15-1.1h-0.45c-0.10039 3e-3 -0.20039-0.03-0.3-0.1-0.0733-0.0481-0.13997-0.1314-0.2-0.25l-0.1-0.25 0.05 0.05c-0.13333-0.31992-0.33333-0.58659-0.6-0.8-0.0996-0.0803-0.16627-0.18034-0.2-0.3-0.022-0.11224-5e-3 -0.22891 0.05-0.35 0.0479-0.0859 0.1146-0.15261 0.2-0.2 1.0258-0.47409 1.6091-1.0408 1.75-1.7 0.0884-0.60325-0.17825-1.2199-0.8-1.85-0.0294-0.0301-0.0627-0.0634-0.1-0.1-0.0673-0.14765-0.15065-0.26432-0.25-0.35-0.1069-0.0404-0.19023-0.12373-0.25-0.25-0.0253-0.10078-0.0253-0.21745 0-0.35l0.25-0.65c0.15365-0.33034 0.13698-0.68034-0.05-1.05-0.2207-0.30885-0.5207-0.47552-0.9-0.5l-0.35 0.05c-0.57396 0.0891-1.1406 0.25573-1.7 0.5-0.08 0.0377-0.16328 0.0544-0.25 0.05-0.0819-5e-3 -0.16523-0.0387-0.25-0.1-0.0774-0.0485-0.14401-0.0818-0.2-0.1-0.0423-3e-3 -0.0923-0.02-0.15-0.05-0.22083-0.0367-0.55417-0.0534-1-0.05-2.5036 0.022-4.2703 1.4553-5.3 4.3-0.0281 0.12409-0.0948 0.20742-0.2 0.25-0.0918 0.0798-0.1918 0.11315-0.3 0.1l-0.4-0.05c-0.21029 0.0216-0.44362 0.10493-0.7 0.25h-0.05c-0.27943 0.1457-0.54609 0.31237-0.8 0.5-0.0704 0.0917-0.17044 0.14167-0.3 0.15-0.0918 0.01-0.1918-0.0233-0.3-0.1-0.20925-0.13034-0.47591-0.19701-0.8-0.2h-0.35c-0.65664 0.11888-1.2233 0.46888-1.7 1.05-0.0598 0.0879-0.14313 0.13789-0.25 0.15-0.0738 0.0515-0.15716 0.0681-0.25 0.05-0.0956-0.0268-0.17891-0.0768-0.25-0.15-0.36302-0.35677-0.81302-0.54011-1.35-0.55h-0.05l-0.5 0.05c-0.55638 0.11537-0.87305 0.41537-0.95 0.9-0.0194 0.12279-0.0694 0.22279-0.15 0.3-0.076 0.0799-0.17604 0.12995-0.3 0.15-0.0876 0.0171-0.18763 4e-4 -0.3-0.05-0.42643-0.22265-0.77643-0.33932-1.05-0.35-0.37265 3e-3 -0.72265 0.136-1.05 0.4h-0.05c-0.26601 0.30925-0.44935 0.62591-0.55 0.95-3e-3 0.10325-0.036 0.18659-0.1 0.25-0.0629 0.0638-0.1462 0.0971-0.25 0.1-0.0749 0.0421-0.1582 0.0421-0.25 0z" fill="#f79e33"/>
 <path d="m44.102 42.6c-3.6926 0.97944-3.7104 3.7481-5.25 5.5996-1.7815-0.43021-3.425-0.75874-5.25-0.19921 0.13666 1.2274 1.706 2.089 2.6992 2.8496 0.23333 0.36667 0.71589 0.61667 1.4492 0.75 0.13333 0.0333 0.26706 0.0508 0.40039 0.0508 0.76667 0.23333 1.6678 0.54922 2.7012 0.94922l11.1 4.9003 0.0488 0.0508 2.3008 0.29883c1.2558 0.33038 2.3031 0.50566 3.4492-0.1992 0.1453-0.72913-0.64841-2.0508-0.64841-2.0508-0.56666-0.5-1.2004-0.93216-1.9004-1.2988-0.1-0.0667-0.16784-0.1345-0.20117-0.20117-0.0333-0.1-0.0488-0.19883-0.0488-0.29883s0.0504-0.18333 0.15039-0.25l0.25-0.30078c0.16667-0.3 0.19967-0.63333 0.0996-1-0.29878-0.79046-0.9301-1.0905-1.6504-1.4004-0.13333-0.0333-0.21667-0.11667-0.25-0.25-0.0667-0.13333-0.0667-0.24961 0-0.34961v-0.0508c-0.0333-0.0667-0.0508-0.13255-0.0508-0.19922v-0.0508c0-0.16667-0.0484-0.33333-0.14844-0.5-0.4-0.76667-1.0182-1.2318-1.8516-1.3984l-0.39844-0.45117c-0.0333-0.33333-0.1845-0.66667-0.45117-1 0 0-0.51212-0.48576-2.0488-0.54877l-0.20117-0.10156c-0.0667-0.0333-0.11706-0.0818-0.15039-0.14844l-0.29883-0.65039c-0.11916-0.38153-1.0357-1.0391-1.0508-1.0508-2.3427-0.11846-1.6647-1.5395-2.7988-1.5zm40.85 6.3008-0.34961 0.0488c-0.63333 0.1-1.2671 0.28411-1.9004 0.55078-0.1 0.0333-0.20078 0.0508-0.30078 0.0508-0.1-0.0333-0.18333-0.0837-0.25-0.15039-0.16667-0.1-0.33333-0.16784-0.5-0.20117l-0.75-0.0488c-0.83333 0-1.5659 0.16667-2.1992 0.5-1 0.56667-1.8663 1.6829-2.5996 3.3496v0.0508l-0.30078 0.54883c-0.0667 0.1-0.13255 0.16784-0.19922 0.20117-0.1 0.0333-0.20078 0.0488-0.30078 0.0488l-0.44922-0.0488-0.45117 0.0488c-0.46667 0.13333-0.85039 0.35039-1.1504 0.65039-0.0667 0.0667-0.15 0.11706-0.25 0.15039-0.13333 0-0.23216-0.0174-0.29883-0.0508-0.26667-0.13333-0.51777-0.22188-0.75-0.19922l-0.50002 0.0488c-0.6 0.1-1.1504 0.45078-1.6504 1.0508-0.0667 0.0667-0.15 0.11706-0.25 0.15039h-0.25c-0.1-0.0333-0.18333-0.0837-0.25-0.15039-0.36667-0.36667-0.81628-0.55078-1.3496-0.55078l-0.5508 0.0508c-0.56667 0.1-0.88255 0.41589-0.94922 0.94922-0.0333 0.1-0.0837 0.18333-0.15039 0.25-0.0667 0.0667-0.15 0.11706-0.25 0.15039h-0.25c-0.0333 0-0.0508 0.0329-0.0508 0.0996-0.36667-0.0667-0.73294-0.0667-1.0996 0-0.88681 0.15838-1.1992 1.4004-1.1992 1.4004-0.83333-0.26667-1.6667-0.35-2.5-0.25l-1.5508 0.95116c-0.0667 0.0333-0.13255 0.14961-0.19922 0.34961-0.0333 0.26667-0.0333 0.51667 0 0.75-1.8472-0.27366-3.8669-0.14576-3.6504 1.7988-0.0667 0-0.13255 0.0174-0.19922 0.0508l-0.10156 0.19922c-0.1 0.0667-0.19883 0.10156-0.29883 0.10156-0.8 0.1-1.6004 0.24922-2.4004 0.44922h-0.0508l-0.59961 0.0996c-1.1667 0.2-2.0329 0.53333-2.5996 1-0.37598 0.22828-0.27915 0.60129-0.3008 0.99999 0.0667 0.3 0.30117 0.48411 0.70117 0.55078 5.3191 0.95829 11.786-0.65468 13-0.30077 0.13333 0 0.24961 0.0504 0.34961 0.15039 0.0667 0.0667 0.11706 0.16745 0.15039 0.30078 0 0.13333-0.0329 0.24961-0.0996 0.34961-11.741 2.2409-13.5 6.25-13.5 6.25l-1.8008 3.5997c-0.2 0.4-0.11667 0.76628 0.25 1.0996l4.9492-2.8496h0.0508c0.33333-0.1 0.56589-0.26667 0.69922-0.5 6.1747-4.6427 10.057-4.2386 17.25-5.1992 2.2333-0.76666 3.8341-1.5671 4.8008-2.4004l0.1504-0.15039c0.1-0.1 0.21628-0.15039 0.34961-0.15039h0.0996c0.1 0 0.18333 0.0174 0.25 0.0508 1.0667 0.16667 2.6829 0.68216 4.8496 1.5488l9.3008 4.1504c1.3 0.56667 2.2496 0.95039 2.8496 1.1504 1.0333 0.3 2.0333 0.44922 3 0.44922 0.46667 0 0.93372-0.0484 1.4004-0.14844 0.64262 0 1.2921-0.33007 0.15041-2.1016-0.73333-0.73333-1.5512-1.3496-2.4512-1.8496-0.13333-0.0667-0.21667-0.1655-0.25-0.29883-0.0667-0.13333-0.0667-0.25156 0-0.35156l0.0508-0.0996c0.0333-0.0667 0.0837-0.11706 0.15039-0.15039 0.23333-0.26667 0.31667-0.58255 0.25-0.94922-0.2-0.66667-0.58372-1.1337-1.1504-1.4004l-0.5-0.25c-0.1-0.0333-0.16589-0.0837-0.19922-0.15039-0.0667-0.1-0.10156-0.18333-0.10156-0.25l-0.0488-0.54883v-0.0508l-0.15045-0.44919c-0.36667-0.73333-0.98294-1.2004-1.8496-1.4004-0.1-0.0333-0.18333-0.0837-0.25-0.15039-0.1-0.1-0.15039-0.19883-0.15039-0.29883l-0.0508-0.40039c-0.16667-0.5-0.5155-0.80039-1.0488-0.90039l-1.3496-0.19922c-0.1 0-0.16784-0.0349-0.20117-0.10156-0.1-0.0333-0.16589-0.0818-0.19922-0.14844l-0.34961-0.65039c-0.3-0.6-0.65078-0.95078-1.0508-1.0508l-0.75-0.15039c-0.1-0.0333-0.18333-0.0818-0.25-0.14844-0.0667-0.0667-0.11706-0.15-0.15039-0.25-0.0908-0.45052-0.44892-0.72421-0.74998-1.0508-0.1-0.0667-0.15039-0.15-0.15039-0.25 0-0.13333 0.0175-0.23411 0.0508-0.30078 0.0667-0.1 0.15-0.18333 0.25-0.25 0.4-0.2 0.71589-0.38216 0.94922-0.54883 0-0.0333 0.0175-0.0508 0.0508-0.0508l0.5-0.29883c0.23333-0.16667 0.36706-0.35078 0.40039-0.55078 0-0.0333 0.0155-0.0663 0.0488-0.0996 0.0333-0.2-0.0151-0.39961-0.14844-0.59961-0.0333-0.0667-0.0508-0.11706-0.0508-0.15039l-0.0508-0.0508-1-1.5 0.0508 0.0508-0.25-0.30078c-0.0667-0.1-0.11706-0.18333-0.15039-0.25 0-0.1 0.0175-0.18333 0.0508-0.25l0.25-0.65039c0.1-0.36667 0.0496-0.73294-0.15039-1.0996-0.23333-0.3-0.51628-0.44922-0.84961-0.44922z" fill="#ef1d1e"/>
 <path d="m85.9 14.551c-0.4667 0.1-0.81553 0.16589-1.0488 0.19922-0.6 0.3-0.96826 0.41628-1.1016 0.34961-1.4333-0.8-2.7821-0.69922-4.0488 0.30078-1.0667 0.83333-2.0512 2.3488-2.9512 4.5488-0.1-0.53333-0.36553-0.74844-0.79883-0.64844-0.8667 0.1-1.3841 0.53216-1.5508 1.2988-0.5333-0.73333-1.1167-0.99883-1.75-0.79883-0.6 0.13333-1.1329 0.59844-1.5996 1.3984-0.2333 0.36667-0.46592 0.38393-0.69922 0.0508-0.3667-0.53333-0.83369-0.84922-1.4004-0.94922-0.5333-0.0667-0.93447 0.1155-1.2012 0.54883-0.2667 0.4-0.31514 0.91745-0.14844 1.5508-0.8333-0.5-1.2675-0.75-1.3008-0.75-0.5333-0.23333-1.0333-0.21757-1.5 0.0488-0.3 0.16667-0.4667 0.45156-0.5 0.85156-0.033 0.23333-0.0656 0.58216-0.0996 1.0488l-1.3008-0.5c-0.7667-0.33333-1.5496-0.26549-2.3496 0.20117-0.3 0.2-0.43369 0.45-0.40039 0.75 0.033 0.16667 0.13408 0.44961 0.30078 0.84961 0.033 0.1 0.0162 0.15039-0.0508 0.15039-0.067 0.0333-0.11709 0.0333-0.15039 0-1-0.4-1.8992-0.46784-2.6992-0.20117-0.7333 0.2-1.1675 0.51784-1.3008 0.95117-0.2 0.66667 0.2167 1.1667 1.25 1.5-0.4667-0.0667-1.3329-0.0512-2.5996 0.0488-1.6667 0.2-2.9671 0.50039-3.9004 0.90039-0.4 0.16667-0.68291 0.28294-0.84961 0.34961-0.2667 0.16667-0.41592 0.38372-0.44922 0.65039-0.033 0.33333 0.10039 0.61628 0.40039 0.84961 0.2667 0.2 0.54961 0.31628 0.84961 0.34961 0.5667 0.0667 1.4155 0.15 2.5488 0.25 0.9667 0.1 1.8 0.1 2.5 0 1.4667-0.13333 3.6683-0.26511 6.6016-0.39844l0.5-0.15039c0.3333-0.0667 0.93213-0.0841 1.7988-0.0508 0.7 0 1.2679-0.0504 1.7012-0.15039-1.4667 0.43333-2.5345 0.73372-3.2012 0.90039l-4.7988 0.84961c-1.1 0.2-1.9333 0.36667-2.5 0.5-1.7333 0.5-3.2508 1.5678-4.5508 3.2012-1.5667 1.9333-2.6171 4.1988-3.1504 6.7988-0.067 0.4-0.067 0.61706 0 0.65039 0.3 0.13333 0.58291 0.0675 0.84961-0.19922 1-0.93333 1.7849-1.6174 2.3516-2.0508 2.2-1.6667 4.3163-2.9671 6.3496-3.9004 0.2333-0.1 0.45039-0.19883 0.65039-0.29883 0.4-0.16667 0.8167-0.31784 1.25-0.45117 2.2-0.86667 4.45-1.4655 6.75-1.7988 1.8-0.2 2.8-0.31628 3-0.34961 1.3333-0.2 2.4651-0.50039 3.3984-0.90039 1.1333-0.53333 2.0345-1.0178 2.7012-1.4512 0.2-0.13333 0.46553-0.38333 0.79883-0.75 0.3333-0.3 0.65117-0.41628 0.95117-0.34961 1.0333 0.26667 2.4171 0.75117 4.1504 1.4512 3 1.3667 5.0155 2.2988 6.0488 2.7988 1.9667 1 3.7167 1.7345 5.25 2.2012 1.7667 0.5 2.7163 0.7655 2.8496 0.79883 1.1 0.26667 2.0845 0.36745 2.9512 0.30078 0.5333-0.0667 0.88213-0.28372 1.0488-0.65039l0.0508-0.05072c0.1-0.13333 0.0822-0.34844-0.0508-0.64844l-0.25-0.5c-0.8667-1.1333-2.1321-2.1004-3.7988-2.9004l0.75-0.30078c0.2667-0.16667 0.41592-0.39922 0.44922-0.69922 0.033-0.6-0.14883-1.0671-0.54883-1.4004-0.1333-0.13333-0.56748-0.36589-1.3008-0.69922-0.3333-0.0667-0.48252-0.16745-0.44922-0.30078 0.2-0.9-0.15078-1.6171-1.0508-2.1504-0.033 0-0.23291-0.0329-0.59961-0.0996-0.2667-0.0667-0.41787-0.21589-0.45117-0.44922-0.2-1.2667-0.95-1.8171-2.25-1.6504h-0.59961c-0.2667-0.0667-0.38291-0.23333-0.34961-0.5 0.033-0.83333-0.41631-1.4012-1.3496-1.7012-0.5 0.13333-0.76748 0.1003-0.80078-0.0996-0.033-0.36667-0.2-0.7-0.5-1-0.4-0.33333-0.68291-0.58333-0.84961-0.75l0.69922-0.25c1-0.46667 1.5679-0.94922 1.7012-1.4492 0.1667-0.53333-0.10078-1.2-0.80078-2-0.6667-0.73333-0.84883-1.4329-0.54883-2.0996 0.033-0.0667 0.0162-0.20039-0.0508-0.40039-0.2-0.4-0.50039-0.59961-0.90039-0.59961zm0.0508 0.64844 0.25 0.0508c0.067 0.13333 0.0818 0.23411 0.0488 0.30078-0.7 1.9-1.5663 3.1829-2.5996 3.8496l-0.5 0.25c-0.067-0.36667-0.0818-0.61667-0.0488-0.75 0.2333-0.73333 0.18291-1.2004-0.15039-1.4004-0.5667-0.26667-1.1345-0.16588-1.7012 0.30078-0.033 0.0333-0.18252 0.0488-0.44922 0.0488 0.6-0.36667 1.4333-0.89961 2.5-1.5996 0.9333-0.56667 1.8171-0.91745 2.6504-1.0508zm-2.8496 0.35156c-0.8 0.4-1.7671 1.1326-2.9004 2.1992-1.1667 1.1-2.0504 1.8171-2.6504 2.1504 0.4333-1.6 1.1329-2.7667 2.0996-3.5 0.9667-0.8 2.1179-1.0829 3.4512-0.84961zm3.1992 2.25c0.067-0.0667 0.13252-0.0512 0.19922 0.0488 0.067 0.0667 0.13447 0.16745 0.20117 0.30078 0.6 0.56667 0.7667 1.0337 0.5 1.4004-0.1667 0.2-0.60078 0.4655-1.3008 0.79883-0.9 0.46667-2.0492 0.98411-3.4492 1.5508l-0.15039-0.20114c0.033-0.0667 0.1167-0.24883 0.25-0.54883 0.067-0.23333 0.18291-0.36706 0.34961-0.40039 0.7-0.16667 1.3512-0.58333 1.9512-1.25 0.3667-0.36667 0.84922-0.93255 1.4492-1.6992zm-4.1504 0.5h0.25l-0.15039 1.1992c-0.4333 1.4333-0.98174 2.5167-1.6484 3.25l-0.25 0.19922-0.05078-0.19922v-0.90039c-0.033-0.33333-0.21748-0.56589-0.55078-0.69922s-0.69961-0.1003-1.0996 0.0996c-0.4 0.26667-0.71592 0.45078-0.94922 0.55078l-0.40039 0.39845c-0.1667 0.13333-0.28291 0.1506-0.34961 0.0508-0.1-0.1-0.0852-0.23372 0.0488-0.40039 0.067-0.1 0.18486-0.23372 0.35156-0.40039 0.4667-0.73333 1.1992-1.3651 2.1992-1.8984 0.5667-0.3 1.4329-0.71667 2.5996-1.25zm-6.0996 1.7988c0.1667 0 0.28291 0.10078 0.34961 0.30078 0.067 0.26667 0.13447 0.41589 0.20117 0.44922-0.3 1.4-1.0675 2.5512-2.3008 3.4512l-0.15039 0.0996v-0.40036c0.2-0.26667 0.31631-0.6 0.34961-1-0.033-0.46667-0.0488-0.81745-0.0488-1.0508 0.067-0.43333 0.18291-0.78216 0.34961-1.0488 0.2333-0.3 0.51631-0.51706 0.84961-0.65039zm-3.1992 0.59961c0.4-0.0667 0.66553 0.0671 0.79883 0.40039 0.067 0.2 0.13447 0.50039 0.20117 0.90039l-0.05078 2c-0.1 0.63333-0.2667 1.1508-0.5 1.5508l-0.0996 0.14844c-0.067 0.16667-0.25078 0.20156-0.55078 0.10156-0.4-0.13333-0.65-0.18372-0.75-0.15039 0-0.1-0.18213-0.66784-0.54883-1.7012-0.2333-0.7-0.25038-1.2988-0.0508-1.7988 0.3667-0.83333 0.88408-1.3178 1.5508-1.4512zm-4.3008 0.6016c0.7-0.13333 1.2 0.16511 1.5 0.89844s0.68369 1.8671 1.1504 3.4004c0.033 0.0333 0.033 0.11667 0 0.25-0.4333 0-0.66787-0.0155-0.70117-0.0488-0.033-0.0333-0.48291-0.58372-1.3496-1.6504-0.5667-0.66667-0.88252-1.3178-0.94922-1.9512 0.067-0.0667 0.0818-0.23333 0.0488-0.5-0.033-0.23333 0.067-0.36511 0.30078-0.39844zm10.551 0.64844c0.3-0.13333 0.44922-0.0655 0.44922 0.20117 0 1.5667-0.26748 2.8167-0.80078 3.75-0.2 0.4-0.23261 0.65-0.0996 0.75l0.15038 0.04881c0.2 0.0333 0.3667-0.13333 0.5-0.5 0.4-0.86667 0.59961-1.3318 0.59961-1.3984 0.1-0.4 0.40039-0.81667 0.90039-1.25 0.6333-0.53333 1.0171-0.90156 1.1504-1.1016 0.033-0.0667 0.33369-0.0492 0.90039 0.0508-0.6667 0.96667-1.1512 1.6992-1.4512 2.1992-0.5667 0.86666-0.88252 1.6845-0.94922 2.4512-0.033 0.1-0.14961 0.11577-0.34961 0.0488-0.5-0.23333-0.93408-0.36511-1.3008-0.39844-1.1667-0.2666-2.3159-0.20078-3.4492 0.19922l-0.20117 0.0508c-0.1333 0-0.24961-0.0678-0.34961-0.20117-0.067-0.1-0.0996-0.18333-0.0996-0.25 0-0.13333-0.1667-0.28255-0.5-0.44922-0.3-0.13333-0.40078-0.2845-0.30078-0.45117l0.30078-0.29883c0.5333-0.53333 0.96553-0.91706 1.2988-1.1504 1.4-0.96667 2.6016-1.7341 3.6016-2.3008zm-13.301 0.35154c0.1667 0.0333 0.38369 0.13216 0.65039 0.29883 0.5667 0.3 1.1325 0.76706 1.6992 1.4004 0.3333 0.36667 0.80039 0.93255 1.4004 1.6992 0.067 0.0667 0.0838 0.1345 0.0508 0.20117 0 0.0667-0.035 0.0996-0.10156 0.0996l-1.5 0.44922c-0.3667 0.0333-0.63213-0.0655-0.79883-0.29883-0.1-0.33333-0.21631-0.55039-0.34961-0.65039-0.1-0.13333-0.41787-0.38333-0.95117-0.75-0.4-0.33333-0.68291-0.64922-0.84961-0.94922-0.3-0.5-0.26739-0.96706 0.0996-1.4004 0.2-0.16667 0.41709-0.1997 0.65039-0.0996zm19.5 0.14844c0.3333-0.0667 0.63369 0.16784 0.90039 0.70117 0.067 0.13333 0.016 0.21667-0.15039 0.25l-0.5 0.15039c-1.9 1.2667-3.1325 2.5496-3.6992 3.8496-0.1333 0.26667-0.33486 0.33255-0.60156 0.19922-0.1333-0.0667-0.18174-0.13255-0.14844-0.19922 0.1-0.0667 0.14844-0.1345 0.14844-0.20117 0.4333-1.3 1.1833-2.583 2.25-3.8496 0.5333-0.6 1.1341-0.90039 1.8008-0.90039zm-22.9 1.3008c1.3333 0.4 2.9671 1.3496 4.9004 2.8496l-0.65039 0.25c-0.6333 0.53333-1.3 0.56636-2 0.0996-0.9667-0.66667-1.5655-1-1.7988-1-0.6 0-1.0671-0.31589-1.4004-0.94922-0.1667-0.2-0.30039-0.34922-0.40039-0.44922-0.1-0.2-0.0822-0.40156 0.0508-0.60156 0.2667-0.36667 0.69883-0.43255 1.2988-0.19922zm25.35 0.44922c0.2333 0.0333 0.41748 0.1845 0.55078 0.45117 0.2 0.36667 0.31631 0.56628 0.34961 0.59961l-0.94922 0.40039c-0.8333 0.36667-1.4012 0.63216-1.7012 0.79883-0.6 0.36667-1.0496 0.80078-1.3496 1.3008-0.033 0.1-0.23291 0.26667-0.59961 0.5-0.3 0.16667-0.43369 0.39922-0.40039 0.69922l-1.3496-0.69922c-0.1-0.0667-0.11708-0.13255-0.0508-0.19922l0.15039-0.15039c1.4333-1.7333 2.7008-2.8845 3.8008-3.4512 0.1667-0.1 0.43213-0.14844 0.79883-0.14844 0.3333 0 0.5833-0.0349 0.75-0.10156zm-30.148 1.6016c0.6667-0.16667 1.3817-0.1509 2.1484 0.0488 0.4667 0.1 1.1683 0.3345 2.1016 0.70117 0.6333 0.23333 1.5655 0.63255 2.7988 1.1992-0.6667 0.53333-1.4671 0.61667-2.4004 0.25-1.2-0.5-1.9829-0.73255-2.3496-0.69922-1.1667 0.13333-2.0155-0.13411-2.5488-0.80078-0.2-0.26667-0.26787-0.43333-0.20117-0.5 0.033-0.0667 0.18447-0.13255 0.45117-0.19922zm30.85 0.64843c1.1-0.3 2.1155-0.16628 3.0488 0.40039l0.15039 0.25-0.25 0.0508c-2.6 0.23333-4.7163 1.0667-6.3496 2.5-0.2 0.16667-0.38408 0.1997-0.55078 0.0996l-0.29883-0.30078c-0.1333-0.1-0.15038-0.18333-0.0508-0.25 0.067-0.0333 0.16748-0.0992 0.30078-0.19922 1.1333-0.9 1.7496-1.4 1.8496-1.5 0.7333-0.5 1.4504-0.85078 2.1504-1.0508zm-16.35 0.25c0.4333-0.0333 0.91592 0.0345 1.4492 0.20117 0.067 0.0333 0.18291 0.0837 0.34961 0.15039 0.1333 0.0667 0.2167 0.1655 0.25 0.29883-0.3 0-0.51709-0.0329-0.65039-0.0996-0.4-0.2-0.79922-0.18273-1.1992 0.0508-0.4333 0.3-0.7667 0.49961-1 0.59961-0.7 0.43333-1.2329 0.73372-1.5996 0.90039-0.6667 0.3-1.2171 0.43177-1.6504 0.39844-1.6 0.0333-2.7996 0.0333-3.5996 0l-0.75 0.0508c0.3333-0.3 0.78291-0.56745 1.3496-0.80078 0.3-0.13333 0.74961-0.3 1.3496-0.5 1.6333-0.73333 3.5345-1.15 5.7012-1.25zm3.2988 1.0508c2.0667-0.26667 4.0667 0.11706 6 1.1504 1.3 0.73333 2.9008 1.9988 4.8008 3.7988l-2.5508-1.1484c-1.3-0.5-2.2671-0.86823-2.9004-1.1016-1.1333-0.4-2.1488-0.6655-3.0488-0.79883h-0.0508c-0.2-0.0333-0.38213-0.14961-0.54883-0.34961-0.2-0.3-0.33369-0.46667-0.40039-0.5zm-16.4 0.15038c0.5 0 1.0679 0.11628 1.7012 0.34961 0.3667 0.1 0.89961 0.29961 1.5996 0.59961l0.0996 0.20117c-0.1333 0.13331-0.24961 0.19922-0.34961 0.19922-0.6 0.0333-2.0341 0.18255-4.3008 0.44922-1.7666 0.2-3.1988 0.25039-4.2988 0.15039-0.4333-0.0333-1.3345-0.18255-2.7012-0.44922 0.4333-0.3 0.9333-0.51706 1.5-0.65039 0.3333-0.0667 0.81787-0.15 1.4512-0.25 1.1667-0.26667 2.9322-0.46628 5.2988-0.59961zm14.176 0.25c0.4167 0.0333 0.82461 0.23294 1.2246 0.59961 0.2333 0.2 0.51631 0.36667 0.84961 0.5 0.2 0.0667 0.50039 0.15 0.90039 0.25 0.3 0.13333 0.31708 0.31745 0.0508 0.55078-0.9333 0.8-2.4837 1.55-4.6504 2.25-0.8 0.26667-1.8329 0.46628-3.0996 0.59961-0.7333 0.0667-1.3496 0.11706-1.8496 0.15039-0.4333 0.0667-0.85 0.13255-1.25 0.19922-2.3667 0.4-4.6167 1.0996-6.75 2.0996-0.1333 0.0667-0.26709 0.11706-0.40039 0.15039-1.3 0.56667-2.3679 1.1171-3.2012 1.6504-0.2333 0.13333-0.44844 0.0655-0.64844-0.20117-0.2667-0.4-0.48369-0.61511-0.65039-0.64844-0.4667-0.33333-0.8833-0.46706-1.25-0.40039 0.3333-0.3 0.80039-0.73411 1.4004-1.3008 0.5333-0.46667 1.0488-0.8 1.5488-1 1-0.4 1.9671-0.63255 2.9004-0.69922l0.0508-0.0508c0.067-0.0333 0.15-0.0663 0.25-0.0996 2.3333-0.5 4.5833-0.91667 6.75-1.25 0.4-0.16667 0.8167-0.31589 1.25-0.44922 1.3-0.46666 2.6159-1.0345 3.9492-1.7012 0.5667-0.26667 1.0163-0.53216 1.3496-0.79883 0.4333-0.3 0.85869-0.43372 1.2754-0.40039zm18.625 0.04883c0.5667 0.0333 0.9833 0.10117 1.25 0.20117 0.4 0.13333 0.70039 0.39883 0.90039 0.79883l0.0996 0.40039c-0.2 0.0667-0.34922 0.0841-0.44922 0.0508-2.7667-0.46667-5.1-0.24961-7 0.65039-0.4 0.16667-0.65 0.2655-0.75 0.29883-0.067 0-0.16748-0.0659-0.30078-0.19922 0.5-0.5 1.2171-0.94961 2.1504-1.3496 1.3333-0.6 2.6996-0.88489 4.0996-0.85156zm-2 2.25c1.7333 0 2.7159 0.0174 2.9492 0.0508 1.0667 0.1 1.9833 0.41589 2.75 0.94922 0.5 0.33333 0.61826 0.61823 0.35156 0.85156-0.4667 0.46667-0.91826 0.58294-1.3516 0.34961-1.4-0.76669-3.1325-1.1504-5.1992-1.1504l-2.1504 0.15039c-0.3 0.0667-0.53252-0.0341-0.69922-0.30078 1.3333-0.6 2.4496-0.90039 3.3496-0.90039zm-2.0508 2c0.067 0 0.18486 0.0174 0.35156 0.0508 1.4 0.0333 2.2159 0.0663 2.4492 0.0996 0.9333 0.0667 1.7492 0.23333 2.4492 0.5 2.6333 0.96667 4.4667 2.0171 5.5 3.1504l0.40039 0.59961c-1.1333 0.16667-2.3155 0.0833-3.5488-0.25-0.7-0.16667-1.8008-0.56589-3.3008-1.1992l-3.9492-1.75c-0.3333-0.13333-0.53486-0.48411-0.60156-1.0508 0-0.1 0.083-0.15039 0.25-0.15039zm-31.898 1.8008c-0.4 0-0.60156 0.23255-0.60156 0.69922 0 0.43333 0.15117 0.61745 0.45117 0.55078 0.5333 0 0.79883-0.19961 0.79883-0.59961 0-0.36667-0.21514-0.58372-0.64844-0.65039zm-16.051 1.0996c-1.0333 0.2-1.8008 0.66706-2.3008 1.4004-0.5333 0.8-0.93252 1.4163-1.1992 1.8496-0.4667 0.73333-0.78252 1.4833-0.94922 2.25-0.1-0.7-0.35-1.0159-0.75-0.94922-0.9 0.1-1.4349 0.53216-1.6016 1.2988-0.6333-0.6-1.2496-0.85-1.8496-0.75s-1.1 0.55156-1.5 1.3516c-0.2 0.4-0.43252 0.41577-0.69922 0.0488-0.3667-0.53333-0.83369-0.84922-1.4004-0.94922-0.5333-0.0667-0.93252 0.1-1.1992 0.5-0.2667 0.43333-0.31709 0.98373-0.15039 1.6504-1.1-0.93333-2.0167-1.1833-2.75-0.75-0.3 0.16667-0.48408 0.44961-0.55078 0.84961-0.033 0.26667-0.0656 0.65039-0.0996 1.1504-0.1333-0.16667-0.35039-0.30039-0.65039-0.40039l-0.69922-0.20117c-0.8333-0.33333-1.4845-0.33333-1.9512 0-0.4333 0.33333-0.58252 0.93411-0.44922 1.8008 0 0.2-0.083 0.25039-0.25 0.15039-0.9333-0.4-1.7996-0.46784-2.5996-0.20117-0.7333 0.16667-1.1675 0.46706-1.3008 0.90039-0.2333 0.66667 0.017 1.1667 0.75 1.5-0.2667-0.0667-0.61553-0.0667-1.0488 0-0.5667 0.0667-0.9 0.0996-1 0.0996-0.6667 0.0333-2.0679 0.35117-4.2012 0.95117-0.6667 0.23333-1.0329 0.53372-1.0996 0.90039-0.067 0.3 0.067 0.5655 0.40039 0.79883 0.5333 0.36667 1.2 0.60117 2 0.70117 0.1667 0.0333 0.84883 0.0663 2.0488 0.0996 1.2333 0.0333 2.5512-0.05 3.9512-0.25 0.6333-0.13333 1.3988-0.20117 2.2988-0.20117 0.5-0.0333 1.25-0.0488 2.25-0.0488 0.3-0.1 0.4667-0.15039 0.5-0.15039 0.3-0.0667 0.8833-0.0841 1.75-0.0508 0.7333 0 1.3167-0.0659 1.75-0.19922-1.2 0.53333-2.8667 0.98294-5 1.3496-0.1333 0.0333-0.24961 0.0508-0.34961 0.0508l-3.4004 0.54883c-0.6333 0.1-1.1817 0.21823-1.6484 0.35156-1.6667 0.46667-3.1183 1.4163-4.3516 2.8496-1.5 1.6333-2.6667 3.9492-3.5 6.9492 0 0.1-0.048 0.25117-0.14844 0.45117-0.033 0.2 0.015 0.33177 0.14844 0.39844 0.3 0.13333 0.61787 0.0345 0.95117-0.29883 0.7-0.7 1.45-1.3512 2.25-1.9512 2.2-1.6667 4.3163-2.9651 6.3496-3.8984 0.033-0.0333 0.0656-0.0508 0.0996-0.0508 0.8667-0.36667 1.7-0.71745 2.5-1.0508 0.9667-0.4 2.0675-0.71589 3.3008-0.94922 0.9667-0.2 1.9821-0.36667 3.0488-0.5 1.7-0.2 2.6012-0.31628 2.7012-0.34961 1.3333-0.2 2.4825-0.50039 3.4492-0.90039 1.2-0.6 2.0837-1.0826 2.6504-1.4492 0.2-0.13333 0.46748-0.38333 0.80078-0.75 0.3333-0.3 0.63174-0.41823 0.89844-0.35156h0.0508c1.0333 0.26667 2.4171 0.75117 4.1504 1.4512 2.6666 1.2 4.6667 2.1322 6 2.7988 2.0667 1.0333 3.8322 1.7678 5.2988 2.2012 0.6667 0.2 1.6337 0.48294 2.9004 0.84961 1.1 0.23333 2.0845 0.29922 2.9512 0.19922 0.9667-0.1 1.3155-0.46628 1.0488-1.0996-0.3-0.8-0.86592-1.5171-1.6992-2.1504-0.3-0.2-1.1004-0.68255-2.4004-1.4492l0.75-0.30078c0.2667-0.16667 0.41592-0.39922 0.44922-0.69922 0.033-0.6-0.14883-1.0671-0.54883-1.4004-0.2-0.16667-0.63408-0.39922-1.3008-0.69922-0.3-0.13333-0.43369-0.24961-0.40039-0.34961 0.2-0.86666-0.11592-1.5508-0.94922-2.0508-0.3667-0.13333-0.63408-0.24961-0.80078-0.34961-0.3-0.13333-0.48213-0.40078-0.54883-0.80078-0.1-0.86667-0.78408-1.2329-2.0508-1.0996-0.3667 0-0.59922-0.0174-0.69922-0.0508-0.2667-0.1-0.36748-0.35-0.30078-0.75 0.033-0.26667-0.1333-0.58255-0.5-0.94922-0.1667-0.16667-0.48252-0.28294-0.94922-0.34961-0.4-0.0667-0.61709-0.1345-0.65039-0.20117-0.067-0.36667-0.26631-0.7-0.59961-1-0.3667-0.33333-0.63408-0.58333-0.80078-0.75l0.65039-0.25c1-0.43333 1.5659-0.91589 1.6992-1.4492 0.1667-0.5-0.066-1.1841-0.69922-2.0508l-0.55078-0.39844c-0.2333-0.16667-0.3167-0.38372-0.25-0.65039 0.1333-0.4 0.2167-0.70039 0.25-0.90039 0.067-0.36667-0.032-0.64961-0.29883-0.84961-0.5-0.3-1.1163-0.3-1.8496 0-0.5667 0.23333-0.9 0.33216-1 0.29883-0.7333-0.43333-1.5841-0.54961-2.5508-0.34961zm4.6992 0.45117c0.3-0.0333 0.41826 0.0829 0.35156 0.34961-0.6667 1.9333-1.6008 3.2667-2.8008 4l-0.30078 0.0996c-0.067-0.33333-0.0818-0.58333-0.0488-0.75 0.2333-0.73333 0.18291-1.1829-0.15039-1.3496-0.5333-0.3-1.0992-0.21667-1.6992 0.25l-0.5 0.0996c0.6-0.36667 1.4488-0.91706 2.5488-1.6504 0.9333-0.53333 1.7996-0.88216 2.5996-1.0488zm-3.1484 0.2988 0.14844 0.0508-0.0996 0.19922c-0.6333 0.26667-1.3155 0.75117-2.0488 1.4512-1 0.96667-1.6183 1.5326-1.8516 1.6992-0.6667 0.43333-1.1317 0.81706-1.3984 1.1504 0.3-0.5 0.66631-1.2829 1.0996-2.3496 0.4667-0.86666 1.0325-1.4849 1.6992-1.8516 0.6667-0.33333 1.4845-0.44961 2.4512-0.34961zm11.049 0.59964c0.2333 0.0333 0.63447 0.26784 1.2012 0.70117l0.44922 0.40039-0.59961 0.25-3.9004 2.9492 1.75-3.5c0.3-0.6 0.66631-0.86745 1.0996-0.80078zm-7.5488 1.7012 0.5 0.44922 0.79883 1.1504c-0.7333 0.5-1.2992 0.83333-1.6992 1-1.3333 0.56667-2.3333 1.0008-3 1.3008-0.1333 0.0667-0.2167 0.11511-0.25 0.14844-0.1333 0.0333-0.23408 0.0178-0.30078-0.0488l0.0508-0.25c0.067-0.0667 0.13252-0.21784 0.19922-0.45117 0.067-0.2 0.18291-0.31628 0.34961-0.34961 0.5667-0.1 1.2179-0.51667 1.9512-1.25 0.033-0.0333 0.50039-0.59922 1.4004-1.6992zm-3.8008 0.44922c-0.3 1.9333-0.93369 3.4663-1.9004 4.5996l-0.19922 0.10156-0.0508-0.20117c-0.1667-0.96667-0.44961-1.5171-0.84961-1.6504s-1.0163 0.13411-1.8496 0.80078l-0.70117 0.40039c-0.033-0.13333-4e-5 -0.26706 0.10156-0.40039 0.2-0.23333 0.29883-0.36706 0.29883-0.40039 0.4667-0.76667 1.2012-1.4159 2.2012-1.9492 0.5667-0.3 1.4329-0.71667 2.5996-1.25 0.1333-0.0667 0.24961-0.0841 0.34961-0.0508zm-6.5 1.8496c0.1667-0.0333 0.28291 0.0171 0.34961 0.15039 0.1 0.1 0.15039 0.21628 0.15039 0.34961 0.1333 0.3 0.1333 0.61784 0 0.95117-0.1 0.2-0.24922 0.48294-0.44922 0.84961-0.1333 0.4-0.40078 0.78372-0.80078 1.1504-0.4667 0.36667-0.83291 0.64961-1.0996 0.84961 0.2-0.36667 0.31631-0.84922 0.34961-1.4492 0.033-0.9 0.0508-1.3845 0.0508-1.4512 0.1667-0.76667 0.64922-1.2337 1.4492-1.4004zm-3.0996 0.65039c0.5-0.0333 0.80039 0.15078 0.90039 0.55078 0.067 0.23333 0.0996 0.61706 0.0996 1.1504v0.29883c0 0.53333-0.05 1.0508-0.15039 1.5508l-0.34961 1.25-0.0996 0.19922-0.20117 0.0996c-0.7333-0.1-1.0996-0.18333-1.0996-0.25l-0.59961-1.6484c-0.2333-0.66666-0.25038-1.25-0.0508-1.75 0.3333-0.96666 0.85078-1.4512 1.5508-1.4512zm-4.3008 0.55078c0.7-0.13333 1.2 0.16706 1.5 0.90039s0.68369 1.8651 1.1504 3.3984l0.0508 0.20117-0.70117 0.0488c-0.2667-0.1-0.71631-0.66589-1.3496-1.6992-0.6-1-0.90039-1.6841-0.90039-2.0508 0.033-0.0333 0.0182-0.18255-0.0488-0.44922-0.033-0.2 0.065-0.31628 0.29883-0.34961zm10.551 0.69919c0.3-0.16667 0.44922-0.11628 0.44922 0.15039 0.067 1.4-0.1833 2.65-0.75 3.75-0.2333 0.4-0.26591 0.65-0.0996 0.75l0.0996 0.0508c0.1667 0.0333 0.3333-0.11784 0.5-0.45117 0.3333-0.63333 0.55039-1.1159 0.65039-1.4492 0.1-0.43333 0.40039-0.85 0.90039-1.25 0.6-0.56667 0.96631-0.93294 1.0996-1.0996 0.033-0.0667 0.34922-0.0512 0.94922 0.0488-0.6 0.83333-1.0496 1.4496-1.3496 1.8496-0.5 0.7-0.80039 1.3512-0.90039 1.9512-0.1333 0.66667-0.39883 0.96706-0.79883 0.90039-0.4333-0.23333-0.75117-0.36706-0.95117-0.40039h-0.0996c-1.4-0.23333-2.5667-0.16745-3.5 0.19922l-0.15039 0.0508c-0.2333 0-0.34961-0.13372-0.34961-0.40039 0-0.13333-0.18213-0.26706-0.54883-0.40039-0.3333-0.13333-0.45156-0.3155-0.35156-0.54883l0.30077-0.30076c0.4667-0.46667 0.91631-0.85039 1.3496-1.1504 1.2333-0.9 2.4175-1.65 3.5508-2.25zm-13.25 0.30078c0.1333 0.0333 0.33291 0.13216 0.59961 0.29883 0.5667 0.3 1.1325 0.76706 1.6992 1.4004 0.3333 0.36667 0.81787 0.93451 1.4512 1.7012 0.1 0.13333 0.0674 0.23216-0.0996 0.29883l-1.5 0.45117c-0.3333 0.0667-0.5833-0.0341-0.75-0.30078-0.1333-0.33333-0.25156-0.55039-0.35156-0.65039-0.9333-0.56667-1.5496-1.1326-1.8496-1.6992-0.3334-0.5665-0.28291-1.0337 0.15039-1.4004 0.1667-0.16667 0.38369-0.1997 0.65039-0.0996zm19.799 0.25c0.067 0 0.26826 0.21706 0.60156 0.65039l-1.6504 1.0488c-1.0667 0.66667-1.9679 1.6667-2.7012 3-0.1667 0.33333-0.36631 0.46706-0.59961 0.40039-0.2-0.0667-0.26592-0.16745-0.19922-0.30078 0.033-0.0667 0.099-0.15 0.19922-0.25 0.5333-1.1667 0.93447-1.9651 1.2012-2.3984 0.5333-0.83333 1.1321-1.4845 1.7988-1.9512 0.4333-0.3 0.88291-0.36589 1.3496-0.19922zm-23.199 1.1992c1.3 0.4 2.9163 1.3496 4.8496 2.8496l-0.65039 0.25c-0.6333 0.53333-1.3 0.56823-2 0.10156-0.9667-0.66666-1.5655-1-1.7988-1-0.5333 0-1.0663-0.40117-1.5996-1.2012-0.2667-0.33333-0.31709-0.59883-0.15039-0.79883 0.2667-0.33333 0.71631-0.40117 1.3496-0.20117zm25.551 0.59961c0.1333 0.0333 0.26514 0.15156 0.39844 0.35156 0.2 0.4 0.31826 0.61511 0.35156 0.64844l-0.30078 0.10156c-1.8 0.46667-3.0829 1.2651-3.8496 2.3984-0.033 0.0333-0.23291 0.1845-0.59961 0.45117-0.2667 0.16667-0.38486 0.38372-0.35156 0.65039l-0.89844-0.5c-0.2667-0.1-0.40039-0.21823-0.40039-0.35156-0.033-0.1 0.05-0.26667 0.25-0.5 1.3667-1.6333 2.5837-2.6992 3.6504-3.1992 0.5333-0.2 1.1167-0.21727 1.75-0.0508zm-29.75 1.3516c0.7333-0.0333 1.5317 0.0984 2.3984 0.39844 0.5 0.16667 1.2345 0.45156 2.2012 0.85156l1.75 0.75c-0.5667 0.56667-1.2333 0.71589-2 0.44922-0.8333-0.43333-1.4671-0.68333-1.9004-0.75h-1.4492c-0.6-0.0333-1.0671-0.2-1.4004-0.5-0.5-0.43333-0.73447-0.70078-0.70117-0.80078 0.1333-0.26667 0.50156-0.39844 1.1016-0.39844zm31.5 0.64844c0.3333 0.0333 0.81592 0.10117 1.4492 0.20117 0.067 0 0.16748 0.0659 0.30078 0.19922 0.1 0.13333 0.14844 0.23411 0.14844 0.30078-0.033 0.1-0.099 0.15039-0.19922 0.15039-0.1333-0.0667-0.2167-0.0841-0.25-0.0508l-0.84961 0.19922c-2.0667 0.3-3.6829 0.95117-4.8496 1.9512-0.4 0.33333-0.63447 0.5-0.70117 0.5-0.067 0.0333-0.18291 3e-4 -0.34961-0.0996-0.1333-0.13333-0.24961-0.23411-0.34961-0.30078l0.34961-0.34961c1.6333-1.3667 2.9008-2.2174 3.8008-2.5508 0.4333-0.16667 0.9333-0.21706 1.5-0.15039zm-17.701 0.35156c0.067 0 0.68291 0.13177 1.8496 0.39844 0.067 0 0.15 0.0678 0.25 0.20117-0.1333 0.0667-0.24961 0.0822-0.34961 0.0488-0.5667-0.3-1.15-0.28273-1.75 0.0508-0.6667 0.46667-1.1821 0.76706-1.5488 0.90039-1.1333 0.73333-1.9512 1.0492-2.4512 0.94922-0.4667-0.1-1.0655-0.13303-1.7988-0.0996-0.9667 0.0333-1.55 0.0508-1.75 0.0508-0.1333-0.0333-0.40078-0.0178-0.80078 0.0488 0.3667-0.3 0.81631-0.5655 1.3496-0.79883 0.3-0.13333 0.74961-0.3 1.3496-0.5 1.7667-0.73333 3.6504-1.15 5.6504-1.25zm3.3496 1.0488c2.0667-0.26667 4.0667 0.11706 6 1.1504 1.3 0.73333 2.9008 2.0008 4.8008 3.8008-1.1333-0.53333-1.9841-0.90156-2.5508-1.1016-2.9333-1.1333-4.9159-1.7826-5.9492-1.9492h-0.0996c-0.1667-0.0667-0.3333-0.20039-0.5-0.40039-0.1667-0.23333-0.30039-0.38255-0.40039-0.44922zm-16.398 0.15039c0.5-0.0333 1.0659 0.0675 1.6992 0.30078 0.3667 0.13333 0.89961 0.34844 1.5996 0.64844l0.0996 0.20117c-0.1333 0.13333-0.24961 0.19922-0.34961 0.19922-0.6 0.0333-2.0322 0.1845-4.2988 0.45117-1.7667 0.2-3.2008 0.24844-4.3008 0.14844-0.033 0-0.93262-0.13177-2.6992-0.39844 0.4-0.3 0.9-0.5345 1.5-0.70117 0.3333-0.0667 0.81592-0.15 1.4492-0.25 1.1667-0.26667 2.9341-0.46628 5.3008-0.59961zm14.125 0.27539c0.4833 0.0333 0.95713 0.27461 1.4238 0.72461 0.3333 0.3 0.85078 0.49961 1.5508 0.59961 0.2 0.1 0.29883 0.18333 0.29883 0.25 0.033 0.0667-0.033 0.18294-0.19922 0.34961-0.8667 0.73333-2.3996 1.4678-4.5996 2.2012-0.8 0.26667-1.8504 0.46628-3.1504 0.59961-0.6 0.0333-1.1175 0.0837-1.5508 0.15039-1.2666 0.2-2.4663 0.4655-3.5996 0.79883-0.5667 0.1-1.1325 0.23372-1.6992 0.40039-0.9333 0.26667-1.85 0.6-2.75 1-0.3333 0.13333-0.65117 0.2845-0.95117 0.45117-0.6667 0.26667-1.25 0.53216-1.75 0.79883l-1.1484 0.70117c-0.2333 0.13333-0.45039 0.05-0.65039-0.25-0.2667-0.4-0.48369-0.61706-0.65039-0.65039l-0.55078-0.30078c-0.2333-0.13333-0.44844-0.18372-0.64844-0.15039 1-0.9 1.5988-1.4329 1.7988-1.5996 0.4667-0.33333 0.83291-0.55039 1.0996-0.65039 0.8667-0.36667 1.7-0.59922 2.5-0.69922l0.55078-0.0508c1.7-0.13333 2.7329-0.24961 3.0996-0.34961 0.3333-0.13333 0.96709-0.3155 1.9004-0.54883 0.9-0.23333 1.7159-0.45039 2.4492-0.65039 1.5333-0.5 3.1012-1.1512 4.7012-1.9512 0.5667-0.33333 0.91553-0.54844 1.0488-0.64844 0.5-0.38333 0.99326-0.55872 1.4766-0.52539zm18.674 0.0254c0.5667 0.0333 0.9833 0.0992 1.25 0.19922 0.4 0.13333 0.70039 0.40078 0.90039 0.80078l0.0996 0.39844c-0.2 0.0667-0.34922 0.0841-0.44922 0.0508-2.7-0.46667-5.0179-0.26706-6.9512 0.59961-0.4333 0.2-0.6833 0.31628-0.75 0.34961-0.1 0-0.21631-0.0484-0.34961-0.14844 0.4333-0.5 1.1504-0.96706 2.1504-1.4004 1.3333-0.6 2.6996-0.88294 4.0996-0.84961zm34.301 0.34961c-0.4667 0.1-0.81748 0.16589-1.0508 0.19922-0.6 0.3-0.96631 0.41628-1.0996 0.34961-1.4333-0.8-2.7841-0.69922-4.0508 0.30078-1.0667 0.83333-2.0492 2.3508-2.9492 4.5508-0.1-0.53333-0.36748-0.75039-0.80078-0.65039-0.8667 0.1-1.3821 0.53216-1.5488 1.2988-0.5333-0.73333-1.1167-0.99883-1.75-0.79883-0.6 0.13333-1.1329 0.60039-1.5996 1.4004-0.2333 0.36667-0.46787 0.38243-0.70117 0.0488-0.3667-0.53333-0.83369-0.84922-1.4004-0.94922-0.5333-0.0667-0.93252 0.1155-1.1992 0.54883-0.2667 0.4-0.31709 0.91745-0.15039 1.5508-0.8333-0.5-1.2655-0.75-1.2988-0.75-0.5333-0.23333-1.0333-0.21607-1.5 0.0508-0.3 0.16667-0.4667 0.44961-0.5 0.84961-0.033 0.23333-0.068 0.58216-0.10156 1.0488l-1.2988-0.5c-0.8-0.33333-1.5675-0.2655-2.3008 0.20117-0.3 0.16667-0.44922 0.41667-0.44922 0.75 0.033 0.13333 0.13213 0.41628 0.29883 0.84961 0.033 0.1 0.0182 0.15039-0.0488 0.15039-0.067 0.0333-0.11709 0.0333-0.15039 0-1-0.4-1.8992-0.46784-2.6992-0.20117-0.7333 0.2-1.1675 0.51784-1.3008 0.95117-0.2 0.66667 0.067 1.1337 0.80078 1.4004l-2.1016 0.14844c-0.8 0.0667-2.1663 0.3845-4.0996 0.95117-0.6333 0.13333-1.0171 0.43373-1.1504 0.90039-0.067 0.33333 0.084 0.61628 0.45117 0.84961 0.5 0.33333 1.1492 0.55039 1.9492 0.65039 0.4667 0.0333 1.1508 0.0663 2.0508 0.0996 1.1667 0.1 2.9496-7.8e-4 5.3496-0.30078 2.3333-0.2 3.5175-0.29883 3.5508-0.29883 0.3333-0.0667 0.84883-0.0841 1.5488-0.0508 0.6667 0 1.1667-0.0329 1.5-0.0996-0.6333 0.23333-1.1159 0.4-1.4492 0.5-0.5667 0.2-1.0512 0.31628-1.4512 0.34961l-4.3984 0.69922c-0.8667 0.16667-1.7679 0.36823-2.7012 0.60156-1.7333 0.5-3.2488 1.5659-4.5488 3.1992-1.5667 1.9333-2.6171 4.2008-3.1504 6.8008-0.067 0.4-0.067 0.61511 0 0.64844 0.3 0.13333 0.58291 0.0674 0.84961-0.19922 1-0.93333 1.7829-1.6174 2.3496-2.0508 2.2-1.6667 4.3163-2.9651 6.3496-3.8984 0.3-0.16667 0.58486-0.30039 0.85156-0.40039 0.4333-0.2 0.88291-0.39961 1.3496-0.59961 1.1667-0.43333 2.3837-0.8345 3.6504-1.2012 1.1333-0.16667 2.2167-0.30039 3.25-0.40039 1.5666-0.16667 2.4155-0.2655 2.5488-0.29883 1.3333-0.2 2.4845-0.50039 3.4512-0.90039 1.2-0.6 2.0817-1.0826 2.6484-1.4492 0.2-0.13333 0.46748-0.38333 0.80078-0.75 0.3333-0.3 0.64922-0.41823 0.94922-0.35156 1.0333 0.26667 2.4171 0.75117 4.1504 1.4512 3 1.3667 5.0175 2.2988 6.0508 2.7988 1.9667 1 3.7167 1.7345 5.25 2.2012 1.7667 0.5 2.7163 0.7655 2.8496 0.79883 1.1 0.26667 2.0825 0.36745 2.9492 0.30078 0.5667-0.0667 0.93486-0.29922 1.1016-0.69922 0.1667-0.33333 0.066-0.71706-0.30078-1.1504-0.8667-1.1333-2.1341-2.1004-3.8008-2.9004l0.75-0.30078c0.2667-0.16667 0.41787-0.39922 0.45117-0.69922 0.033-0.6-0.15078-1.0671-0.55078-1.4004-0.1333-0.1-0.56553-0.33255-1.2988-0.69922-0.3333-0.0667-0.48447-0.16745-0.45117-0.30078 0.2333-0.93333-0.11553-1.6504-1.0488-2.1504-0.033 0-0.23486-0.0329-0.60156-0.0996-0.2667-0.0667-0.41592-0.21589-0.44922-0.44922-0.2-1.2667-0.95-1.8171-2.25-1.6504h-0.59961c-0.2667-0.0667-0.38291-0.23333-0.34961-0.5 0.033-0.83333-0.41826-1.3992-1.3516-1.6992-0.5 0.13333-0.76553 0.0984-0.79883-0.10156-0.033-0.36667-0.2-0.7-0.5-1-0.4-0.33333-0.68291-0.58333-0.84961-0.75l0.69922-0.25c1-0.46667 1.5659-0.94922 1.6992-1.4492 0.1667-0.53333-0.099-1.2-0.79883-2-0.6667-0.73333-0.85078-1.4329-0.55078-2.0996 0.033-0.0667 0.0182-0.20039-0.0488-0.40039-0.2-0.4-0.50039-0.59961-0.90039-0.59961zm0 0.65039c0.3-0.0333 0.41631 0.0829 0.34961 0.34961-0.6667 1.9333-1.6008 3.2667-2.8008 4l-0.29883 0.0996c-0.067-0.3-0.0838-0.53255-0.0508-0.69922 0.1-0.36667 0.15039-0.63411 0.15039-0.80078 0.033-0.3-0.068-0.49961-0.30078-0.59961-0.5667-0.3-1.15-0.20117-1.75 0.29883h-0.39844c0.6-0.36667 1.4333-0.89961 2.5-1.5996 0.9333-0.56667 1.7996-0.9155 2.5996-1.0488zm-3.1504 0.29883 0.19922 0.0996-0.14844 0.15039c-0.6333 0.26667-1.3175 0.75117-2.0508 1.4512-1 0.96667-1.6163 1.5326-1.8496 1.6992-0.9 0.7-1.3671 1.0663-1.4004 1.0996 0.3-0.46667 0.66631-1.2322 1.0996-2.2988 0.4667-0.9 1.0345-1.5182 1.7012-1.8516 0.6333-0.36667 1.4492-0.48294 2.4492-0.34961zm-31.4 0.95117c1.4-0.0333 2.7004 0.26511 3.9004 0.89844 0.5 0.3 0.6667 0.58489 0.5 0.85156-0.067 0.13333-0.21592 0.24961-0.44922 0.34961-0.2 0.1-0.35117 0.16589-0.45117 0.19922-1.6333-0.53333-2.6159-0.84922-2.9492-0.94922-1.1-0.3-2.6-0.35039-4.5-0.15039-0.6 0.0667-0.96631-0.0167-1.0996-0.25l1.0996-0.5c0.5333-0.23333 1.2-0.36706 2-0.40039 0.4333-0.0333 1.0825-0.0488 1.9492-0.0488zm35.1 1.2988 1.1016 1.6504c-0.7333 0.5-1.3012 0.83333-1.7012 1-1.3333 0.56667-2.3333 1.0008-3 1.3008l-0.54883 0.14844 0.0488-0.29883c0.2667-0.5 0.45078-0.76745 0.55078-0.80078 0.6333-0.13333 1.2825-0.55 1.9492-1.25 0.2667-0.23333 0.73369-0.79922 1.4004-1.6992zm-4 0.40039c-0.3 1.9667-0.93174 3.5171-1.8984 4.6504l-0.20117 0.15039-0.0488-0.20117c0.033-0.43333 0.033-0.74922 0-0.94922-0.033-0.33333-0.21748-0.55039-0.55078-0.65039-0.3667-0.1-0.73291-0.0496-1.0996 0.15039-0.4333 0.26667-0.7667 0.44883-1 0.54883-0.3333 0.43333-0.56787 0.5845-0.70117 0.45117-0.1-0.1-0.0832-0.23372 0.0508-0.40039 0.067-0.1 0.16748-0.23372 0.30078-0.40039 0.4667-0.76667 1.1992-1.4159 2.1992-1.9492 0.5667-0.3 1.4329-0.71667 2.5996-1.25zm-34.898 0.30078c0.067 0 0.18291 0.0155 0.34961 0.0488 1.4333 0.0333 2.2667 0.0663 2.5 0.0996 0.9333 0.0667 1.7337 0.23333 2.4004 0.5 2.6333 0.96666 4.4667 2.0171 5.5 3.1504 0.067 0.0667 0.18291 0.26628 0.34961 0.59961-1.1 0.16667-2.2841 0.0833-3.5508-0.25-0.6667-0.16667-1.7655-0.56589-3.2988-1.1992l-3.9512-1.75c-0.3-0.13333-0.48213-0.48412-0.54883-1.0508 0-0.1 0.083-0.14844 0.25-0.14844zm28.35 1.6484c0.2-0.0667 0.39961 0.1 0.59961 0.5 0.1333 0.3 0.11622 0.61784-0.0508 0.95117-0.067 0.2-0.19844 0.48294-0.39844 0.84961-0.1333 0.4-0.40078 0.76628-0.80078 1.0996-0.5 0.4-0.88369 0.70039-1.1504 0.90039 0.2-0.36667 0.31631-0.83372 0.34961-1.4004 0.033-0.9 0.0508-1.3826 0.0508-1.4492 0.033-0.23333 0.13408-0.45039 0.30078-0.65039 0.2333-0.4 0.59961-0.66745 1.0996-0.80078zm-60.301 0.15039-0.34961 0.0996c-0.1333 0.13333-0.19922 0.36784-0.19922 0.70117-0.1 0.3 0.049 0.44922 0.44922 0.44922h0.0996c0.4667-0.0667 0.70117-0.28372 0.70117-0.65039 0-0.33333-0.23447-0.53294-0.70117-0.59961zm57.25 0.45117c0.4-0.0667 0.66748 0.0651 0.80078 0.39844 0.067 0.16667 0.13252 0.46706 0.19922 0.90039v0.80078c0 0.56667-0.05 1.0667-0.15039 1.5l-0.34961 1.25-0.0996 0.19922-0.19922 0.0996c-0.7333-0.1-1.1016-0.18333-1.1016-0.25-0.2667-0.7-0.46631-1.2329-0.59961-1.5996-0.2-0.66667-0.21553-1.25-0.0488-1.75 0.3-0.9 0.81553-1.4155 1.5488-1.5488zm-4.2988 0.59961c0.7-0.13333 1.2 0.16706 1.5 0.90039s0.68174 1.8651 1.1484 3.3984l0.0508 0.20117c-0.4 0.1-0.63252 0.11577-0.69922 0.0488-0.6333-0.73333-1.1004-1.2818-1.4004-1.6484-0.5667-0.7-0.88447-1.3667-0.95117-2 0.067-0.0667 0.0838-0.23333 0.0508-0.5-0.033-0.23333 0.067-0.36706 0.30078-0.40039zm10.5 0.69919c0.3333-0.16667 0.5-0.0988 0.5 0.20117 0.067 1.4333-0.20078 2.6659-0.80078 3.6992-0.2 0.4-0.23261 0.65-0.0996 0.75l0.15039 0.0508c0.1333 0.0333 0.28252-0.11784 0.44922-0.45117 0.3333-0.6 0.55039-1.0671 0.65039-1.4004 0.1-0.4 0.40039-0.81667 0.90039-1.25 0.6333-0.56667 1.0151-0.94844 1.1484-1.1484 0.067-0.0667 0.36709-0.0512 0.90039 0.0488l-0.29883 0.5c-0.6 0.83333-1.0516 1.4845-1.3516 1.9512-0.4667 0.76667-0.7167 1.4992-0.75 2.1992 0 0.0333-0.048 0.0508-0.14844 0.0508-0.1 0.0333-0.16787 0.0333-0.20117 0-0.4-0.2-0.83213-0.35117-1.2988-0.45117l-1.3516-0.0996c-1.0667 0.0667-1.7817 0.18294-2.1484 0.34961l-0.15039 0.0508c-0.1667 0-0.35078-0.19961-0.55078-0.59961-0.033-0.0333-0.2-0.13411-0.5-0.30078-0.2333-0.13333-0.3167-0.28255-0.25-0.44922l0.34961-0.35156c0.3-0.23333 0.73408-0.58216 1.3008-1.0488 1-0.83333 2.1841-1.6008 3.5508-2.3008zm-13.25 0.30078c0.033 0 0.23291 0.0988 0.59961 0.29883 0.5667 0.3 1.15 0.76706 1.75 1.4004 0.3333 0.36667 0.81592 0.93451 1.4492 1.7012 0.033 0.0667 0.0508 0.13255 0.0508 0.19922-0.033 0.0667-0.084 0.0996-0.15039 0.0996l-1.5 0.45117c-0.3333 0.0667-0.5833-0.0341-0.75-0.30078-0.1333-0.33333-0.24961-0.55039-0.34961-0.65039-0.9333-0.6-1.5496-1.1659-1.8496-1.6992-0.3333-0.56667-0.28486-1.0337 0.14844-1.4004 0.1667-0.16667 0.36826-0.1997 0.60156-0.0996zm19.799 0.25c0.033 0 0.25039 0.19961 0.65039 0.59961l-1.6504 1.0996c-1.0667 0.66667-1.9659 1.6667-2.6992 3-0.2 0.33333-0.39961 0.46706-0.59961 0.40039-0.2-0.0667-0.26787-0.15-0.20117-0.25 0.1-0.13333 0.16787-0.23411 0.20117-0.30078 0.5333-1.1667 0.93252-1.9651 1.1992-2.3984 0.5333-0.83333 1.1341-1.4845 1.8008-1.9512 0.4-0.3 0.83213-0.36589 1.2988-0.19922zm-73.199 0.19922c0.2667 0.1 0.66592 0.36745 1.1992 0.80078l0.25 0.25-0.34961 0.19922c-0.3667 0.1-0.75039 0.31706-1.1504 0.65039-0.4667 0.4-0.81553 0.68294-1.0488 0.84961l-1.9512 1.5508 1.8008-3.5996c0.3667-0.66666 0.7833-0.90117 1.25-0.70117zm50.049 1c1.1667 0.36667 2.7675 1.3163 4.8008 2.8496-0.5667 0.23333-0.88252 0.3845-0.94922 0.45117-0.4333 0.33333-0.83447 0.38372-1.2012 0.15039-0.4-0.36667-0.71592-0.61667-0.94922-0.75-0.6667-0.2-1.1667-0.36667-1.5-0.5-0.6-0.23333-1.0167-0.56667-1.25-1-0.1667-0.2-0.28291-0.35117-0.34961-0.45117-0.1-0.16667-0.0852-0.34883 0.0488-0.54883 0.2667-0.33333 0.71631-0.40117 1.3496-0.20117zm25.551 0.59963c0.1333 0.0333 0.26709 0.16706 0.40039 0.40039 0.067 0.13333 0.18291 0.35039 0.34961 0.65039-0.3 0-0.51709 0.0329-0.65039 0.0996-0.9333 0.4-1.5825 0.70039-1.9492 0.90039-0.7 0.4-1.2329 0.9-1.5996 1.5-0.6667 0.93333-1.4167 1.0496-2.25 0.34961-0.067-0.0667-0.0512-0.1655 0.0488-0.29883 0.9-1.0667 1.4833-1.7333 1.75-2 0.7-0.7 1.4171-1.2174 2.1504-1.5508 0.5333-0.2 1.1167-0.21727 1.75-0.0508zm-30.4 1.4512c0.6667-0.16667 1.3837-0.1509 2.1504 0.0488 0.4667 0.1 1.1663 0.3345 2.0996 0.70117 0.6333 0.23333 1.5675 0.63255 2.8008 1.1992-0.6667 0.53333-1.4671 0.61667-2.4004 0.25-1.2-0.5-1.9829-0.73255-2.3496-0.69922-1.1667 0.13333-2.0175-0.13411-2.5508-0.80078-0.2-0.26667-0.26592-0.43333-0.19922-0.5 0.033-0.0667 0.18252-0.13255 0.44922-0.19922zm31.551 0.44922 2 0.25c0.4667 0.16667 0.56553 0.38372 0.29883 0.65039-0.1333 0.1-0.41631 0.15039-0.84961 0.15039-1.5 0.0333-3.1492 0.64961-4.9492 1.8496-0.2 0.23333-0.3667 0.4-0.5 0.5-0.2 0.13333-0.43447 0.13333-0.70117 0-0.4-0.16667-0.41553-0.36628-0.0488-0.59961 0.4-0.3 0.99883-0.76706 1.7988-1.4004 0.7-0.53333 1.3667-0.89961 2-1.0996zm-17 0.45117c0.2333-0.0333 0.53369 0.0151 0.90039 0.14844 0.2 0.0333 0.49844 0.11667 0.89844 0.25 0.067 0 0.13447 0.0833 0.20117 0.25l-0.15039 0.05078c-0.7-0.36667-1.3996-0.36667-2.0996 0-0.7667 0.56667-1.35 0.95039-1.75 1.1504-0.5667 0.3-1.2179 0.48216-1.9512 0.54883h-4.4492c2.2333-1 3.7992-1.5988 4.6992-1.7988 1.2-0.3 2.4345-0.49961 3.7012-0.59961zm3.25 1.0488c2.0667-0.26667 4.0667 0.11706 6 1.1504 1.3 0.73333 2.8988 2.0008 4.7988 3.8008l-2.5488-1.1016c-2.9333-1.1333-4.9179-1.7826-5.9512-1.9492h-0.0488c-0.2-0.0333-0.38408-0.14961-0.55078-0.34961-0.2-0.3-0.33369-0.46667-0.40039-0.5zm-16.4 0.15039c0.5333 0 1.0992 0.11628 1.6992 0.34961 0.1333 0.0333 0.66826 0.25039 1.6016 0.65039l0.14844 0.15039c-0.1667 0.13333-0.28291 0.19922-0.34961 0.19922-0.6 0.0333-2.0322 0.1845-4.2988 0.45117-1.8 0.2-3.2516 0.24844-4.3516 0.14844-0.1333 0-1.0151-0.13177-2.6484-0.39844 0.3667-0.3 0.84922-0.5345 1.4492-0.70117 0.3333-0.0667 0.81592-0.15 1.4492-0.25 1.1333-0.26667 2.9008-0.46628 5.3008-0.59961zm32.801 0.30078c0.5667 0.0333 0.9833 0.0992 1.25 0.19922 0.4 0.13333 0.69844 0.40078 0.89844 0.80078l0.10156 0.39844c-0.2 0.0667-0.35117 0.0841-0.45117 0.0508-2.7666-0.46667-5.1-0.24961-7 0.65039-0.2333 0.2-0.4 0.34922-0.5 0.44922-0.2 0.1-0.38213-0.0163-0.54883-0.34961 0.4333-0.46667 1.1484-0.91628 2.1484-1.3496 1.3333-0.6 2.7016-0.88294 4.1016-0.84961zm-19.451 0.0996c0.3667-0.23333 0.81631-0.21757 1.3496 0.0488 0.2667 0.13333 0.65039 0.36784 1.1504 0.70117 0.4667 0.26667 0.90078 0.41589 1.3008 0.44922 0.3667 0.0667 0.38223 0.26628 0.0488 0.59961-0.9333 0.76666-2.4488 1.5012-4.5488 2.2012-0.8 0.26667-1.8504 0.44883-3.1504 0.54883-0.4333 0.0333-0.83252 0.0837-1.1992 0.15039h-0.05075l-0.19922 0.0508c-0.6333 0.1-1.2516 0.21628-1.8516 0.34961-0.7667 0.1-1.4817 0.23372-2.1484 0.40039-0.4667 0.0333-0.9667 0.13216-1.5 0.29883-0.9333 0.4-1.85 0.80117-2.75 1.2012-1.0667 0.43333-1.9504 0.83255-2.6504 1.1992l-1.1504 0.70119c-0.2333 0.13333-0.45039 0.05-0.65039-0.25-0.2667-0.36667-0.46631-0.58372-0.59961-0.65039-0.5-0.33333-0.9167-0.4845-1.25-0.45117 0.7-0.7 1.3163-1.2329 1.8496-1.5996 0.3667-0.3 0.71748-0.51706 1.0508-0.65039 1.2-0.5 2.3337-0.75 3.4004-0.75 1.1-0.4 2.2821-0.65 3.5488-0.75 1.2333-0.0667 2.4504-0.31667 3.6504-0.75 0.3-0.1 0.56748-0.19883 0.80078-0.29883 0.9333-0.33333 2.1329-0.88372 3.5996-1.6504 0.3667-0.16667 1.0159-0.53294 1.9492-1.0996zm19 2.1504c1.6333 0 2.9512 0.28294 3.9512 0.84961 0.3 0.13333 0.53252 0.43373 0.69922 0.90039-0.5667 0.5-1.0492 0.63177-1.4492 0.39844-1.5667-0.73333-3.3167-1.0996-5.25-1.0996l-2.25 0.15039c-0.2667 0-0.4333-0.0659-0.5-0.19922-0.033-0.13333-6.9e-4 -0.20117 0.0996-0.20117h0.19922c0.8667-0.53333 2.3667-0.79883 4.5-0.79883zm-3.5996 2c0.067 0 0.18291 0.0155 0.34961 0.0488 1.4333 0.0333 2.2667 0.0663 2.5 0.0996 0.9333 0.0667 1.7337 0.23333 2.4004 0.5 2.6333 0.96666 4.4667 2.0171 5.5 3.1504 0.1333 0.13333 0.24961 0.33294 0.34961 0.59961-1.1 0.16667-2.2822 0.0833-3.5488-0.25-0.6667-0.16631-1.7675-0.56585-3.3008-1.1992l-3.9492-1.75c-0.3-0.13333-0.48408-0.48412-0.55078-1.0508 0-0.1 0.083-0.14844 0.25-0.14844zm-31.949 1.7988-0.35156 0.0996c-0.1333 0.13333-0.19922 0.33489-0.19922 0.60156 0 0.36667 0.083 0.54883 0.25 0.54883h0.19922c0.5333 0 0.80078-0.19961 0.80078-0.59961 0-0.43333-0.23252-0.65039-0.69922-0.65039zm-3.2012 2.5c0.2667 0.1 0.66787 0.36745 1.2012 0.80078 0.3333 0.2 0.31622 0.34922-0.0508 0.44922-0.3667 0.1-0.76592 0.31706-1.1992 0.65039-0.4333 0.36667-0.78408 0.63411-1.0508 0.80078l-1.9492 1.5996 1.7988-3.5996c0.3667-0.66666 0.7833-0.90117 1.25-0.70117zm-4.9492 19.951c-2.6 0.16667-4.5671 0.28294-5.9004 0.34961-1.2333 0.0667-2.7663 0.24883-4.5996 0.54883-2.9333 0.43333-4.4663 0.65039-4.5996 0.65039-1.6 0.2-3.6175 0.63411-6.0508 1.3008-1.3277 0.3579-2.2027 0.87549-3.3945 1.2812l-1.3047 0.36914c-0.4688 0.14857-1.3196 0.4974-2.5508 1.0488l-0.55664 0.24805c-0.5963 0.27499-1.4448 0.46035-1.9941 0.75195-2.3 1.2-3.9996 2.1341-5.0996 2.8008-1.2667 0.76667-2.7492 1.7996-4.4492 3.0996l-2.8008 62.301h97.201l-1.377-60.348c-0.8291-0.65107-1.6794-1.3019-2.7734-1.9531-0.4667-0.26667-1.7671-0.95078-3.9004-2.0508-1.8-0.93333-4.5675-2.1659-8.3008-3.6992-1.6666-0.73333-4.7984-1.8341-9.3984-3.3008-0.6667-0.23333-2.3179-0.6655-4.9512-1.2988-2.4333-0.53333-4.4837-0.89961-6.1504-1.0996-2.8333-0.4-5.0155-0.6345-6.5488-0.70117-2.6333-0.16667-4.6179-0.2655-5.9512-0.29883-1.5-0.1-3.0155-0.1-4.5488 0z"/>
 <g transform="translate(-664.95 -373.75)">
  <path transform="translate(160.15,84.1)" d="m509.8 289.65c-3.3333 0-5 1.6667-5 5v158.2c0 3.3333 1.6667 5 5 5h93.201c3.3333 0 5-1.6667 5-5v-158.2c0-3.3333-1.6667-5-5-5zm8.3008 7.1992h76.6c4.6667 0 7 2.3333 7 7v139.8c0 4.6667-2.3333 7-7 7h-76.6c-4.6667 0-7-2.3333-7-7v-139.8c0-4.6667 2.3333-7 7-7z" fill="#ef1d1e"/>
  <path transform="translate(160.15,84.1)" d="m518.1 296.85c-4.6667 0-7 2.3333-7 7v139.8c0 4.6667 2.3333 7 7 7h76.6c4.6667 0 7-2.3333 7-7v-139.8c0-4.6667-2.3333-7-7-7z" fill="none" stroke="#000" stroke-width="1.2"/>
 </g>
</svg>
