<svg width="103.2" height="168.2" preserveAspectRatio="none" version="1.1" viewBox="0 0 103.2 168.2" xmlns="http://www.w3.org/2000/svg">
 <path d="m13.301 7.1992c-4.6667 0-7 2.3333-7 7v139.8c0 4.6667 2.3333 7 7 7h76.6c4.6667 0 7-2.3333 7-7v-139.8c0-4.6667-2.3333-7-7-7z" fill="#fff"/>
 <path d="m50.449 18.65c-0.3742 6e-3 -0.756 0.12228-1.1484 0.34961-0.7839 0.64206-1.2354 1.5917-1.3516 2.8496-0.1264 2.3344-0.059 4.1522 0.2012 5.4512 0.3268 1.8354 0.7105 3.3509 1.1504 4.5488 0.2109 0.53568 0.4939 1.1365 0.8496 1.8008 0.259 0.54245 0.5594 1.1258 0.9004 1.75h0.049l0.8008 1.5488c0.159 0.31667 0.3915 0.48333 0.6992 0.5l0.3008-0.0488h-0.051l0.3496-0.0996c0.1086-0.0104 0.2094-0.0104 0.3008 0 0.089 0.0441 0.1551 0.0926 0.1992 0.14844 0.1774 0.19127 0.3944 0.3095 0.6504 0.35156 0.1 0.0135 0.1832 0.0465 0.25 0.0996 0.067 0.0539 0.1175 0.11982 0.1504 0.19922 0.128 0.28867 0.3276 0.50573 0.5996 0.65039h-0.049c1.865 0.77917 4.0801 1.3625 6.6484 1.75 1.1931 0.19765 2.4431 0.29843 3.75 0.30078 1.2495-6.7e-4 2.4665-0.0685 3.6504-0.20117 2.7885-0.26068 4.9223-0.77618 6.4004-1.5488 0.8575-0.43307 1.4738-0.83424 1.8496-1.2012 0.6134-0.64831 0.8479-1.4312 0.7012-2.3496-0.2215-1.2383-1.1227-2.0542-2.7012-2.4492l0.051 0.0488c-1.0583-0.22787-1.9091-0.34414-2.5508-0.34961-0.9055-3e-3 -1.7058 0.18078-2.4004 0.55078-1.739 1.0725-3.6053 1.871-5.5996 2.3984-1.9041 0.52734-4.1541 0.89557-6.75 1.1016-0.1173 0.01-0.2336-0.0249-0.3496-0.10156-0.078-0.0441-0.1442-0.12747-0.1992-0.25-0.02-0.0914-0.02-0.19024 0-0.29883 0.055-0.10456 0.1205-0.18789 0.1992-0.25l3.75-2.5996v-0.0508c2.1183-1.34 3.7521-2.8904 4.9004-4.6504 1.1336-1.6664 1.3991-3.1664 0.7988-4.5-0.5962-1.121-1.4295-1.6868-2.5-1.6992-0.9594 0.0182-1.9749 0.50075-3.0488 1.4492h0.049c-0.8318 0.78529-1.7136 2.1865-2.6484 4.2012l-0.7012 1.5488c-1.1208 2.1525-2.5045 4.137-4.1504 5.9512-0.051 0.0928-0.134 0.14128-0.25 0.14844-0.085 0.0477-0.1839 0.0477-0.2988 0-0.077-0.0258-0.145-0.0917-0.2012-0.19922-0.063-0.0659-0.096-0.1492-0.1-0.25v-0.90039c0.033-1.197 0.083-2.0807 0.1504-2.6504l0.1992-1.9492c0.1653-1.8746 0.2486-3.0413 0.25-3.5-0.01-0.67643-0.1384-1.626-0.3984-2.8496v-0.0508l-0.1504-0.90039c-0.2077-1.2256-0.7406-2.2257-1.5996-3-0.5231-0.5207-1.058-0.7862-1.6016-0.79883zm-16.199 2.5488c-0.5986-1.3e-4 -1.0657 0.16653-1.4004 0.5v0.05078c-0.2829 0.33216-0.3992 0.76628-0.3496 1.3008 0.1369 1.307 0.9043 2.7721 2.3008 4.3984l0.049 0.0508c1.6849 1.9772 3.8012 3.6768 6.3496 5.0996 1.8634 1.0961 3.9971 1.9798 6.4004 2.6504h-0.049l0.3496 0.0508c0.3422-0.0191 0.5922-0.1858 0.75-0.5 0.1038-0.19479 0.1542-0.37891 0.1504-0.55078-0.047-0.20078-0.1811-0.40039-0.4004-0.59961-1.5474-1.2733-2.8478-2.6241-3.9004-4.0508-0.01-0.0165-0.027-0.032-0.051-0.0488l-1.1484-2v-0.05085c-0.5158-1.0059-0.9828-1.7733-1.4004-2.3008-0.6249-0.8444-1.3594-1.5111-2.2012-2v0.05078l-0.6484-0.34961v-0.0508c-1.8711-1.0613-3.4544-1.6117-4.75-1.6504zm6.5508 57.15c-0.3554 0.0013-0.7061 0.08467-1.0508 0.25-1.2603 0.62565-1.894 1.7768-1.9004 3.4512v0.04883c0.062 1.7594 0.6957 3.0094 1.9004 3.75 0.086 0.066 0.1517 0.13384 0.1992 0.20117 0.042 0.10377 0.06 0.2026 0.051 0.29883-0.01 0.09193-0.042 0.17526-0.1 0.25l-0.1502 0.15039c-0.5823 0.9431-0.6148 1.9935-0.1 3.1504v-0.05078l0.5488 1.0508c0.055 0.12865 0.055 0.24492 0 0.34961-0.012 0.14401-0.078 0.24479-0.1992 0.30078-0.091 0.08776-0.2077 0.1207-0.3496 0.09961l-1.75-0.30078h-0.4512c-0.3419 6e-3 -0.7915 0.07384-1.3496 0.20117h-0.049l-0.3516 0.04883 0.051-0.04883c-0.8624 0.24271-1.4787 0.7582-1.8496 1.5488-0.2427 0.57773-0.26 1.1611-0.051 1.75 0.051 0.10716 0.068 0.20794 0.051 0.30078-0.019 0.09466-0.069 0.17799-0.1504 0.25-0.054 0.06393-0.1373 0.09688-0.25 0.09961-0.807 0.24245-1.4407 0.475-1.9004 0.69922-0.071 0.04413-0.1539 0.06158-0.25 0.05078-0.1022-0.016-0.201-0.06639-0.2988-0.15039-0.2396-0.19141-0.4741-0.29024-0.7012-0.29883h-0.049c-0.3995-0.02147-1.1495-0.32186-2.25-0.90039-0.082-0.05327-0.1494-0.1366-0.2012-0.25l-0.049-0.05078v-0.04883c-0.3302-0.33568-0.7139-0.51979-1.1504-0.55078l-0.5996 0.09961c-1.5722 0.54153-2.8067 1.059-3.7012 1.5508l-0.051 0.04883c-0.957 0.50091-1.608 1.3188-1.9511 2.4512-0.2087 0.87396-0.1254 1.6395 0.25 2.2988 0.4914 0.76158 1.2258 1.2965 2.2011 1.6016 0.1312 0.0627 0.2302 0.14607 0.2989 0.25 0.057 0.12799 0.057 0.24427 0 0.34961-0.011 0.1453-0.077 0.24413-0.1993 0.29882-1.3212 0.84244-2.4045 1.8599-3.25 3.0508-0.7355 1.0927-0.9855 2.176-0.75 3.25l-0.051-0.0508c0.2957 1.1083 0.9954 1.9591 2.0996 2.5508 0.821 0.47005 1.6891 0.7026 2.6015 0.69921 0.8982-2e-3 1.6967-0.252 2.3985-0.75 0.056-7e-3 0.1064-0.0222 0.1504-0.0488l0.5-0.15039c1.0677-0.27109 1.7518-0.68776 2.0507-1.25l0.049-0.25c0.045-0.0802 0.095-0.16354 0.1504-0.25 0.08-0.0487 0.1637-0.0817 0.25-0.0996 0.094-0.0179 0.1773-0.0179 0.25 0 0.1488 0.063 0.3658 0.0959 0.6503 0.0996h0.1993c1.5791-0.0789 3.1468-0.86185 4.7011-2.3496l0.051-0.0508c0.091-0.0902 0.1913-0.14062 0.3008-0.15039 0.1375-9e-3 0.2538 0.0258 0.3496 0.10157 0.1042 0.0769 0.172 0.17577 0.2012 0.29882 0.019 0.12344-0.016 0.23972-0.1016 0.34961-0.4628 0.83515-0.8446 1.7189-1.1484 2.6504-0.3314 1.0936-0.2151 2.0432 0.3496 2.8496l0.4492 0.45118c0.099 0.0965 0.1492 0.21276 0.1504 0.34961 0 0.12474-0.05 0.22552-0.1504 0.30078-0.6548 1.3264-1.1044 2.3419-1.3496 3.0488-0.3888 1.1897-0.5051 2.3409-0.3496 3.4512v0.0488c0.2448 1.9345 1.4444 3.0178 3.5996 3.25h0.1c0.813-0.01 1.6793-0.32569 2.5996-0.94922 0.9123-0.53307 1.579-1.1494 2-1.8496 0.6317-1.0706 1.2325-2.6384 1.8008-4.7012l0.5-1.6992c0.041-0.0917 0.092-0.175 0.1504-0.25 0.097-0.0531 0.1961-0.0861 0.2988-0.0996 0.106-5e-3 0.2068 0.0108 0.3008 0.0488 0.088 0.0629 0.1543 0.1307 0.1992 0.20117l0.3516 0.75 0.1 0.14844v0.05083c0.7079 1.2337 1.5238 1.8674 2.4492 1.9004h0.051c0.8037-6e-3 1.5362-0.33933 2.1992-1 0.096-0.0988 0.2128-0.14922 0.3496-0.15039 0.1369 1e-3 0.2551 0.0517 0.3516 0.15039 0.099 0.0965 0.1472 0.21276 0.1484 0.34961l0.1016 0.44922v0.0508c0.3824 3.768 1.6479 6.5838 3.7988 8.4492 0.9193 0.72682 1.9038 1.095 2.9512 1.1016 1.0942 3e-3 2.0109-0.3649 2.75-1.1016 0.8597-0.8543 1.2589-2.1372 1.1992-3.8496-0.097-1.4771-0.481-2.8434-1.1504-4.0996v0.0508c-0.7169-1.3032-1.434-2.404-2.1504-3.3008-0.073-0.0788-0.1059-0.17955-0.1-0.30078 0-0.12331 0.033-0.23958 0.1-0.34961 0.097-0.0788 0.1975-0.12916 0.3008-0.15039l0.3496-0.0488c0.7068-0.12539 1.358-0.55951 1.9512-1.3008 0.6423-0.67161 1.0241-1.3887 1.1484-2.1504 0.023-0.11758 0.091-0.21641 0.2012-0.29883 0.1121-0.0824 0.2284-0.11536 0.3496-0.0996 0.1497 0.0225 0.266 0.0884 0.3496 0.19922 0.3885 0.48711 1.0397 1.1867 1.9512 2.0996 1.9728 1.9706 3.9049 2.9706 5.7988 3h0.051l0.4492-0.0488h0.3496l0.4512 0.0488c0.8505-0.0123 1.5172-0.27776 2-0.79883 1.9156-2.0746 2.1152-4.3421 0.5996-6.8008-0.4617-0.77461-1.361-1.608-2.6992-2.5l-1-0.69922c0-7e-3 -0.017-0.0249-0.051-0.0508-0.2773-0.24987-0.5777-0.44948-0.9004-0.59961-0.082-0.0401-0.1481-0.10797-0.1992-0.20117-0.056-0.0586-0.089-0.14193-0.1-0.25-0.01-0.0707 0.01-0.15403 0.049-0.25l0.051-0.0996c0.4198-1.1233 0.3035-2.2396-0.3496-3.3496l-0.1016-0.15039c-0.059-0.09844-0.074-0.21472-0.049-0.34961 0.024-0.12721 0.09-0.22799 0.1992-0.30078 0.1134-0.08281 0.2297-0.11576 0.3496-0.09961l1.301 0.20117h0.051c0.4677 0.09687 0.9503 0.14531 1.4492 0.14844 1.2471-4e-3 2.6309-0.28694 4.1504-0.84961 1.7749-0.6056 2.7574-1.7044 2.9492-3.2988v-0.25c-0.1627-1.3792-0.8294-2.3462-2-2.9004-1.144-0.56328-2.4599-0.84622-3.9492-0.84961l-1.1504 0.04883c-1.5353 0.13659-3.136 0.52031-4.8008 1.1504h0.051c-1.1187 0.46544-2.6122 1.1958-4.4609 2.1797-0.5531 0.37985-0.7954 0.9296-0.6895 1.6699v0.09961l0.1 0.60156c0.011 0.09271 2e-4 0.17604-0.049 0.25-0.01 0.0763-0.042 0.14219-0.1 0.19922l-0.051 0.05078c-0.5593 0.52982-1.2259 0.81276-2 0.84961h-2.6992c-0.1966-0.0033-0.3633 0.02961-0.5 0.09961-0.064 0.0862-0.1474 0.13659-0.25 0.15039-0.1054 0.01313-0.2061-0.0043-0.3008-0.05078-0.9232-0.51862-1.8069-0.90234-2.6504-1.1504-0.027 0.0047-0.06-0.01083-0.1-0.04883l-0.3496-0.20124h-0.051c-0.5275-0.32721-0.9596-0.50938-1.2988-0.54883-0.1291-0.0075-0.2473-0.05792-0.3516-0.15039-0.069-0.09961-0.1034-0.21588-0.1015-0.34961v-0.45117l-0.1-0.59961c-0.016-0.09922-2e-4 -0.19805 0.051-0.29883 0.074-0.10716 0.157-0.19049 0.25-0.25 1.3246-0.4362 2.6231-1.0195 3.8985-1.75 1.1044-0.61706 1.8892-1.2178 2.3515-1.8008 0.077-0.0538 0.1604-0.10419 0.25-0.15039 0.082-0.0172 0.1657-0.0172 0.25 0l0.3985 0.09961 0.2011-0.04883 0.5489-0.25c1.496-0.92396 3.4804-2.0073 5.9511-3.25h0.049l0.4511-0.20117c0.6267-0.26966 1.0763-0.53516 1.3496-0.79883v-0.05078c0.5082-0.4293 0.7756-1.0126 0.8008-1.75 0.041-0.59049-0.2087-1.1564-0.75-1.6992h-0.051c-0.9228-0.99753-2.1554-1.4975-3.6992-1.5-0.025 2e-3 -0.06 2e-3 -0.1015 0l-0.3496-0.05078c-0.5159 0.01833-1.1322 0.15206-1.8497 0.40039h0.051c-0.3884 0.16341-0.9059 0.43086-1.5508 0.80078-0.1095 0.08945-0.2258 0.1224-0.3496 0.09961-0.1263-0.03473-0.227-0.11807-0.3007-0.25-0.081-0.08919-0.1131-0.20547-0.1-0.34961l0.051-0.35156c-0.013-0.63399-0.2148-1.1495-0.6015-1.5488-0.4091-0.40117-0.9247-0.60078-1.5489-0.59961h-0.1c-2.1798 0.09687-3.8465 1.0135-5 2.75l-0.25 0.39844c0 0.03373-0.017 0.05118-0.051 0.05078-0.2736 0.36875-0.4906 0.73503-0.6503 1.0996-0.037 0.14466-0.12 0.24544-0.25 0.30078-0.1242 0.0612-0.2579 0.0612-0.4004 0-0.3536-0.12799-0.687-0.19583-1-0.20117-0.6372 0.01227-1.3195 0.29716-2.0489 0.85156l-0.6979 0.69922c-0.083 0.08515-0.1821 0.13554-0.2988 0.15039-0.1172 0.0134-0.2335-0.01954-0.3496-0.09961-0.081-0.05147-0.149-0.1348-0.2012-0.25-0.7903-2.44-1.9725-4.407-3.5488-5.9004-0.7744-0.68477-1.5244-1.0356-2.25-1.0508zm22.988 16.33c0.01-0.0066-3e-4 -0.02278 0.012-0.0293l-0.051 0.04883c0.016-0.0087 0.023-0.01088 0.039-0.01953zm-18.789 2.5703c0.091-0.0104 0.1741-0.0104 0.25 0 0.1049 0.03487 0.1883 0.08526 0.25 0.15039 0.074 0.07161 0.1245 0.15495 0.1504 0.25 0.029 0.13216 0.112 0.33177 0.25 0.59961 0.062 0.06927 0.095 0.13516 0.1 0.19922 0.01 0.10377-0.011 0.18711-0.051 0.25l-0.1 0.20117c-0.01 0.0332-0.023 0.0487-0.049 0.04883l-1.8004 2.8008c-0.028 0.0904-0.078 0.15625-0.1504 0.19922-0.078 0.037-0.1615 0.0545-0.25 0.0508h-0.1504c-0.203 1e-3 -0.4026 0.0517-0.5996 0.15039l-0.9004 0.69922v0.0508c-1.0161 0.84063-1.832 1.3561-2.4492 1.5488-0.016 0.028-0.049 0.0455-0.1 0.0508l-0.3496 0.0508c-0.791 0.0789-1.3744 0.36185-1.75 0.84961l-0.2008 0.34961c-0.047 0.10963-0.1307 0.17552-0.25 0.19922-0.118 0.0533-0.2343 0.0533-0.3496 0-0.1142-0.0426-0.1975-0.12593-0.25-0.25-0.053-0.0965-0.071-0.21276-0.051-0.34961 0.2506-0.79987 0.2854-1.6158 0.1016-2.4492l-0.1016-0.20117c-0.041-0.0629-0.056-0.1462-0.049-0.25 0.011-0.074 0.044-0.15729 0.1-0.25 0.8605-1.2457 2.4439-2.4957 4.75-3.75 0.2185-0.1013 0.3522-0.25052 0.4004-0.44922 0.043-0.09115 0.093-0.17448 0.1504-0.25 0.097-0.0518 0.1961-0.08474 0.2988-0.09961l2.3496-0.25h0.051c0.25-6.7e-4 0.5-0.05106 0.75-0.15039zm4.75 2.0996c0.1035-0.01913 0.2043-0.0017 0.3008 0.05078 0.108 0.04933 0.1914 0.11522 0.25 0.19922 0.7375 1.4027 1.6038 2.6198 2.5996 3.6504 0.079 0.0779 0.1292 0.1612 0.1504 0.25 0.015 0.12097 2e-4 0.22175-0.051 0.30078-0.1008 0.21875-0.1333 0.41836-0.1 0.59961 0.025 0.0229 0.04 0.0384 0.049 0.0488l0.1504 0.40039v0.0508c0.3179 0.63802 0.6183 1.5876 0.9004 2.8496 0.029 0.0585 0.047 0.10886 0.051 0.15039v0.90041c-0.088 0.70365-0.1055 1.2036-0.051 1.5 0.024 0.12239 0.01 0.23867-0.051 0.34961-0.065 0.10612-0.1635 0.17201-0.2988 0.19922-0.091 0.0579-0.1913 0.0579-0.3008 0h-0.1016c-0.3686 0.0153-0.7678 0.0987-1.1992 0.25-0.081 0.0481-0.1822 0.0481-0.3008 0-0.082-7e-3 -0.1657-0.0571-0.25-0.15039l-0.3496-0.39844-0.051-0.0508c-0.7161-0.52383-1.1484-1.1576-1.2989-1.9004v-0.0488c-0.033-0.17891-0.1335-0.44635-0.3008-0.80078l-0.1-0.19922c-0.1112-0.20599-0.2623-0.35716-0.4511-0.45117-0.07-0.0456-0.1364-0.11149-0.1993-0.19922-0.037-0.0936-0.055-0.1944-0.051-0.30078 0.031-0.41797 4e-4 -1.5672-0.1-3.4492-0.1017-0.74219-0.152-1.4767-0.1504-2.2012v-0.89844c-0.01-0.1125 0.028-0.21328 0.1015-0.30078 0.08-0.09974 0.1787-0.16563 0.2989-0.19922z" fill="#faea01"/>
 <path d="m59.25 19.949-0.5996 0.10156c-1.2667 0.4-2.2841 1.15-3.0508 2.25h0.051c-0.5 0.7-1.0175 1.7833-1.5508 3.25-0.033 0-0.049 0.0155-0.049 0.0488l-0.1016 0.20117c-0.5333 1.4333-0.8318 2.9818-0.8984 4.6484 0 0.53333-0.1182 1.6012-0.3516 3.2012l-0.1 0.59961c-0.033 0.1-0.084 0.18333-0.1504 0.25-0.067 0.0667-0.15 0.11706-0.25 0.15039-0.1 0.0333-0.1833 0.0333-0.25 0-0.1333-0.0667-0.2166-0.1345-0.25-0.20117l-0.1992-0.29883-0.051-0.0508-0.1484-0.29883c-0.8-1.6333-1.3-2.6837-1.5-3.1504-0.2334-0.56667-0.4504-1.4504-0.6504-2.6504-0.1667-1.1333-0.3333-1.9996-0.5-2.5996v0.0488c-0.3333-0.9-0.8004-1.6829-1.4004-2.3496l-0.5508-0.65039-0.049-0.0488c-0.8333-1.0667-1.7171-1.7333-2.6504-2l-0.5996-0.0508h-0.062c-0.5 0-0.9322 0.18411-1.2988 0.55078v-0.0508c-0.6334 0.63333-0.9512 1.6837-0.9512 3.1504v0.0996c0.1 1.3 0.7841 2.9512 2.0508 4.9512 1.8 2.9 4.3659 5.4833 7.6992 7.75l0.062 0.0488c0.1333 0.1 0.2825 0.15039 0.4492 0.15039h0.2012c0.1666 0 0.3333-0.0329 0.5-0.0996 0.1-0.0667 0.2163-0.0996 0.3496-0.0996 0.1 0.0333 0.1988 0.0992 0.2988 0.19922 0.2 0.23333 0.45 0.34961 0.75 0.34961 0.2 0 0.4016-0.0504 0.6016-0.15039 0.067-0.0333 0.15-0.0488 0.25-0.0488s0.1833 0.0329 0.25 0.0996c0.067 0.0667 0.1325 0.15 0.1992 0.25 0.1333 0.36667 0.4008 0.55078 0.8008 0.55078h0.2l4.3008-0.55078c2.2333-0.26667 4.0163-0.58255 5.3496-0.94922h0.049c1.7-0.5 3.0004-0.96706 3.9004-1.4004 1.3667-0.66667 2.5004-1.5504 3.4004-2.6504 0.6-0.76667 0.9004-1.5826 0.9004-2.4492 0-0.83333-0.2675-1.5174-0.8008-2.0508-0.7-0.63333-1.6496-0.94922-2.8496-0.94922-0.8667 0-1.7 0.16667-2.5 0.5-0.9667 0.3-1.6992 0.78255-2.1992 1.4492v0.0508c-1 1.2333-2.1667 2.2818-3.5 3.1484l-2.2012 1.4512c-0.8667 0.56667-1.6825 1.1171-2.4492 1.6504-0.1333 0.0333-0.2496 0.0488-0.3496 0.0488-0.1334 0-0.2341-0.0504-0.3008-0.15039-0.1-0.1-0.1504-0.19883-0.1504-0.29883 0-0.13333 0.033-0.24961 0.1-0.34961 2.1333-2.9 3.5171-5.4174 4.1504-7.5508v0.0508l0.25-0.90039v-0.0508c0.4333-1.2 0.633-2.2155 0.5996-3.0488v-0.05068c0-0.86667-0.2325-1.5992-0.6992-2.1992v0.0488c-0.4333-0.56667-0.9333-0.86706-1.5-0.90039zm-30.5 4.9512c-0.6 0-1.0341 0.0329-1.3008 0.0996-1.5333 0.3-2.4829 0.94922-2.8496 1.9492-0.3333 1 0.05 1.9167 1.1504 2.75 0.033 0 0.051 0.0174 0.051 0.0508l0.1992 0.19922c2.0667 1.7 4.9175 2.9849 8.5508 3.8516 1.9666 0.43333 4.1333 0.64844 6.5 0.64844l1.8496-0.0488c0.4333 0 0.7163-0.19961 0.8496-0.59961 0.1-0.43333-0.016-0.76667-0.3496-1-1.2667-0.8-2.1833-1.3833-2.75-1.75h-0.051l-0.049-0.0508h-0.051c-1.4667-0.83333-2.8-1.8333-4-3l-0.5-0.55078c-0.5-0.73333-1.0329-1.1829-1.5996-1.3496l-1-0.29883c-1.9333-0.6-3.4837-0.90039-4.6504-0.90039zm46.35 13.75c-0.3667 0-0.6322 0.0329-0.7988 0.0996l-2.3008 0.59961h-0.051c-2 0.4-3.8333 0.59961-5.5 0.59961l-1.5996-0.0488c-1.5333-0.0667-2.6322-0.20039-3.2988-0.40039h0.049l-0.4492-0.0996c-0.3 0.0333-0.5345 0.2-0.7012 0.5v-0.0508c-0.1 0.2-0.1305 0.39961-0.1 0.59961 0.033 0.23333 0.1341 0.41745 0.3008 0.55078 0.9 0.76667 2.117 1.4663 3.6504 2.0996h0.049c2.1333 1 4.333 1.6841 6.5996 2.0508 1.1667 0.2 2.9341 0.36667 5.3008 0.5h0.051l0.2988 0.0488c1.1-0.0333 2.0012-0.41511 2.7012-1.1484v0.0488c0.5666-0.7 0.8166-1.45 0.75-2.25-0.067-0.56667-0.2837-1.0667-0.6504-1.5h0.049c-0.2333-0.26667-0.6151-0.6-1.1484-1-1.0667-0.8-2.1345-1.1992-3.2012-1.1992zm-23.65 37.85c-0.5333 0-1.0992 0.18411-1.6992 0.55078-1.2667 0.66667-2.1659 1.6996-2.6992 3.0996-0.5667 1.4667-0.7334 3.1992-0.5 5.1992 0.033 0.3 0.2 0.5345 0.5 0.70117l0.5 0.0996c0.2-0.0333 0.3666-0.11667 0.5-0.25h0.049c0.9333-0.83333 1.6175-1.2345 2.0508-1.2012 0.3 0 0.7322 0.16667 1.2988 0.5h0.051c0.1667 0.1 0.3159 0.15039 0.4492 0.15039 0.1667 0 0.3004-0.0329 0.4004-0.0996h0.051c0.3-0.2 0.4492-0.48294 0.4492-0.84961 0-0.1 0.017-0.18333 0.051-0.25l0.2988-0.55078v0.0508c0.3-0.6 0.4667-0.96628 0.5-1.0996 0-0.0333 0.028-0.0508 0.062-0.0508 0.067-0.3 0.1326-0.78255 0.1992-1.4492l0.1-1v-0.05078c0.3-1.4-0.167-2.4659-1.4003-3.1992h-0.053c-0.4333-0.2-0.817-0.30078-1.1504-0.30078zm-16.25 6.4492c-0.6666 0-1.2325 0.21706-1.6992 0.65039-0.5 0.43333-0.8159 1.0167-0.9492 1.75v0.0508c-0.2 0.73333-0.1857 1.5163 0.049 2.3496 0.033 0.1 0.018 0.21628-0.049 0.34961-0.067 0.1-0.15 0.16784-0.25 0.20117-0.1 0.0667-0.2182 0.0822-0.3516 0.0488-0.8-0.26667-1.6159-0.40039-2.4492-0.40039h-0.4492c-1.5334 0.1-2.6012 0.70078-3.2012 1.8008-0.7667 1.6-0.7361 2.9992 0.1 4.1992v0.0508c1.3667 1.9667 3.1012 2.9492 5.2012 2.9492 0.5 0 1.0659-0.0659 1.6992-0.19922 0.033-0.0333 0.066-0.0508 0.1-0.0508h0.4004c0.5333 0 0.95-0.16667 1.25-0.5 0.2-0.4 0.2504-0.79922 0.1504-1.1992-0.2333-0.76667-0.1988-1.3326 0.1016-1.6992 0.2333-0.43333 0.6344-0.70078 1.2011-0.80078v-0.0508c0.1666-0.0333 0.2985-0.0818 0.3985-0.14844 0.067-0.0667 0.15-0.10156 0.25-0.10156 0.067-0.0333 0.15-0.0333 0.25 0 0.2334 0.0333 0.8671 0.13411 1.9004 0.30078 0.9333 0.13333 1.5844 0.26706 1.9511 0.40039l0.3985 0.0488c0.3 0 0.5344-0.13177 0.7011-0.39844 0.2333-0.4 0.1989-0.76823-0.1015-1.1016v-0.0488c-1.3667-1.3-1.9171-2.4996-1.6504-3.5996l0.1016-0.20117c0.2667-0.33333 0.4003-0.63372 0.4003-0.90039v-0.0488c-0.067-0.33333-0.2177-0.60078-0.4511-0.80078h-0.049l-0.7011-0.65039h0.051c-0.7667-0.7-1.4664-1.2329-2.0997-1.5996h0.059c-0.8666-0.43333-1.6166-0.65039-2.25-0.65039zm36.951 2.4004-0.1 0.0508h-0.1504c-1.3333 0.0333-2.6667 0.23294-4 0.59961-1.7333 0.46667-4.0008 1.5326-6.8008 3.1992h0.051l-4.2012 2.75c-0.2 0.1-0.3163 0.23372-0.3496 0.40039-0.033 0.1-0.084 0.18333-0.1504 0.25-0.1 0.0333-0.1833 0.0663-0.25 0.0996-1.0666 0.16667-2.0996 0.43411-3.0996 0.80078h-0.049l-0.2012 0.0508h-0.049c-0.6667 0.13333-1.1008 0.36589-1.3008 0.69922v0.0508c-0.2 0.23333-0.2345 0.51628-0.1016 0.84961v0.44922c0 1.1 0.3993 1.7996 1.1993 2.0996 2.9667 0.96666 5.4667 1.5171 7.5 1.6504 0.033 0 0.084 0.0174 0.1503 0.0508 0-0.0333 0.019-0.0508 0.053-0.0508l0.5-0.0488c0.6666-0.0667 1.0659-0.11706 1.1992-0.15039h0.051c1.3666-0.43333 2.0333-1.2337 2-2.4004l-0.051-0.55078c0-0.1 0.017-0.18333 0.051-0.25 0.033-0.1 0.099-0.16589 0.1992-0.19922l0.9004-0.55078c1.0667-0.7 1.7488-1.1167 2.0488-1.25l0.051-0.0488c2.2667-1.1667 4.4159-1.75 6.4492-1.75 0.9334-0.0333 1.6349-0.38411 2.1016-1.0508v-0.0488c0.2333-0.33333 0.4155-0.86823 0.5488-1.6016l0.051-0.0488v-0.0508c0.1333-0.86667-0.084-1.6322-0.6504-2.2988-0.4333-0.53333-0.9663-0.95-1.5996-1.25-0.7-0.3-1.3667-0.45117-2-0.45117zm-26.951 10.85-0.3984 0.0508c-2.2 0.46667-4.1516 1.2341-5.8516 2.3008l-0.2988 0.19922c-1.0333 0.63333-1.7504 1.1663-2.1504 1.5996h-0.051c-0.6666 0.66667-1.0484 1.4341-1.1484 2.3008v0.0996c0 0.6 0.099 1.1174 0.2988 1.5508 0.067 0.1 0.084 0.19883 0.051 0.29883s-0.084 0.20078-0.1504 0.30078c-0.1667 0.13333-0.3333 0.36589-0.5 0.69922l-0.1 0.20117c-0.9333 1.5-2.0671 2.4496-3.4004 2.8496h-0.051l-0.6986 0.15038c-0.8667 0.13333-1.5004 0.38333-1.9004 0.75-2.4667 2.2333-4.0325 4.6984-4.6992 7.3984-0.2333 0.86666-0.1675 1.7504 0.1992 2.6504l-0.049-0.0488c0.3666 0.83333 0.8996 1.4322 1.5996 1.7988 0.3333 0.16667 0.717 0.25 1.1504 0.25 0.8 0 1.7321-0.19961 2.7988-0.59961h-0.049c1.0666-0.43333 1.8825-0.91589 2.4492-1.4492 1.7-1.6 3.0508-3.2337 4.0508-4.9004h-0.051c0.2667-0.46667 0.2008-0.86784-0.1992-1.2012-0.5-0.36667-0.75-0.81628-0.75-1.3496 0.067-1.6667 0.8825-3.4826 2.4492-5.4492h0.051c0.1333-0.2 0.2321-0.38411 0.2988-0.55078 0-0.1 0.033-0.18333 0.1-0.25 0.067-0.0667 0.15-0.11706 0.25-0.15039 1.8334-0.33333 3.5504-1.2984 5.1504-2.8984 1.1667-1.1667 2.1667-2.3178 3-3.4512 0.067-0.1 0.1675-0.15039 0.3008-0.15039h0.049c-0.033-0.0333-0.049-0.0663-0.049-0.0996-0.067-0.1-0.1-0.19883-0.1-0.29883 0.033-0.36667-0.085-0.78333-0.3516-1.25v-0.05082l-0.1484-0.40039v-0.0488c-0.1667-0.56666-0.5175-0.85156-1.0508-0.85156zm4.25 2.3516c-0.3666 0-0.7 0.0659-1 0.19922-0.033 0.0333-0.066 0.0508-0.1 0.0508-0.2333 0.0667-0.4659 0.19844-0.6992 0.39844-0.067 0.0667-0.15 0.11706-0.25 0.15039 0.033 0.0333 0.049 0.0663 0.049 0.0996 0.067 0.1 0.084 0.20078 0.051 0.30078-0.033 0.16667-4e-4 0.31589 0.1 0.44922 0.067 0.0667 0.1 0.16745 0.1 0.30078v0.69922c-0.067 0.2-0.067 0.4345 0 0.70117v0.15039c-0.1 1.2333 0.051 2.4833 0.4512 3.75v0.0488l0.1504 0.59961c0.4333 1.8333 0.9488 3.1667 1.5488 4l0.062 0.0508c0.6333 1 1.517 1.5 2.6504 1.5 1 0 1.6666-0.43412 2-1.3008 0.6666-1.8 0.4825-3.8155-0.5508-6.0488-0.2667-0.66667-0.6659-1.4496-1.1992-2.3496l-1-1.8008h-0.0628c-0.6-1.2667-1.3674-1.9159-2.3008-1.9492zm22.15 0.19922c-0.1 0-0.1988 0.0329-0.2988 0.0996-0.033 0-0.068 0.0174-0.1016 0.0508-0.2333 0.0667-0.4833 0.0996-0.75 0.0996h-0.4492c-0.4667 0-0.8 0.19961-1 0.59961-0.1667 0.33333-0.1008 0.71706 0.1992 1.1504 0.3667 0.43333 0.4675 1.0167 0.3008 1.75v0.0508c-0.2667 0.7-0.2163 1.2988 0.1504 1.7988l0.049 0.0508c0.1667 0.26667 0.5 0.51667 1 0.75h0.0506l0.75 0.40039c1.7667 0.86667 3.1329 1.3822 4.0996 1.5488l0.25 0.0508 1.3496 0.0996c0.8334 0 1.5504-0.23255 2.1504-0.69922h-0.049c0.5333-0.53333 0.8318-1.2 0.8984-2 0.067-1.3-0.3325-2.3833-1.1992-3.25-0.9-0.93333-2.0337-1.6-3.4004-2h0.051c-0.9667-0.26667-2.2845-0.45078-3.9512-0.55078zm-9.25 11.65c-0.5333 0-0.8667 0.31589-1 0.94922-0.3 0.96667-0.8988 1.6004-1.7988 1.9004h-0.1504c-0.4656 0.0665-0.7979 0.2989-0.9981 0.69727v2e-3c-0.1147 0.32134-0.1129 0.66854 0.047 1.0508l0.1016 0.15039v0.0488c0.8666 1.8 1.5488 3.1004 2.0488 3.9004 0.8333 1.3667 1.8178 2.4674 2.9512 3.3008 0.7666 0.6 1.6988 1.0496 2.7988 1.3496l0.3496 0.0508 0.6016-0.10156c0.5666-0.2 0.9155-0.33177 1.0488-0.39844 0.8333-0.43333 1.3837-1.1504 1.6504-2.1504v-0.0508c0.2333-0.83333 0.2333-1.7655 0-2.7988-0.2-0.93333-0.5004-1.7667-0.9004-2.5-1.2-1.9-3.2329-3.6345-6.0996-5.2012h0.051c-0.2667-0.13333-0.5012-0.19922-0.7012-0.19922zm-17.506 2.0996c-0.4636 0.0348-0.7441 0.28513-0.8438 0.75l-0.051 0.34961c0 0.0333-0.015 0.0837-0.049 0.15039-0.8 1.5667-1.3 3.5163-1.5 5.8496-0.3 2.4667 0.2659 4.3174 1.6992 5.5508l0.3496 0.29883c0.7667 0.7 1.5167 1.0682 2.25 1.1016h0.25c1.0667-0.1 1.9679-0.51667 2.7012-1.25 0.4333-0.43333 0.9004-1.1174 1.4004-2.0508v-0.0508c0.5333-0.96667 0.8163-2.0326 0.8496-3.1992 0.033-0.8-0.05-1.9008-0.25-3.3008l-0.051-0.34961c-0.067-0.46667-0.2992-0.73216-0.6992-0.79883h-0.051l-0.25-0.0508c-0.3 0.0333-0.5325 0.2-0.6992 0.5v-0.0508c-0.3333 0.73333-0.8508 1.1016-1.5508 1.1016h-0.061l-0.4004-0.0508h-0.1c-0.6334-0.23333-1.1004-0.66745-1.4004-1.3008-0.2333-0.43333-0.4504-1.2318-0.6504-2.3984-0.067-0.49817-0.365-0.76588-0.8945-0.80078z" fill="#ef1d1e"/>
 <path d="m50.348 18.65c-0.7327-0.0326-1.3481 0.39947-1.8477 1.2988-0.2333 0.4-0.4 1.0182-0.5 1.8516-0.1 0.9-0.2163 1.5318-0.3496 1.8984-0.7333-0.9-1.15-1.4484-1.25-1.6484-0.4-0.76666-1.1345-1.2841-2.2012-1.5508-1.0666-0.26667-1.8651-0.11745-2.3984 0.44922-0.5667 0.63333-0.7837 1.6682-0.6504 3.1016l-0.051 0.39844-0.25-0.14844c-1.6-1.5-3.3655-2.4671-5.2988-2.9004-0.7334-0.16667-1.2682-0.25-1.6016-0.25-0.5666 0.0667-0.9988 0.38255-1.2988 0.94922-0.4 0.8-0.2178 1.8174 0.5488 3.0508l0.1504 0.59961-0.1504 0.0996-1.5996-0.40039c-2.1667-0.7-3.9167-0.74844-5.25-0.14844-1 0.43333-1.6337 0.98177-1.9004 1.6484-0.2333 0.63333-0.067 1.2845 0.5 1.9512 0.7667 0.93333 1.7512 1.7337 2.9512 2.4004 0.8333 0.46667 1.9825 0.98216 3.4492 1.5488 1.8667 0.7 4.0333 1.1671 6.5 1.4004 2.1 0.13333 3.6678 0.11607 4.7012-0.0508 1-0.2 1.7151-0.2 2.1484 0 0.5 0.2 0.8508 0.7 1.0508 1.5 0.3931 1.4084 0.4968 3.1901 0.3438 5.3066-0.01 0.0259-0.02 0.0447-0.043 0.0449-0.1017 0.50261-0.1521 0.93477-0.1504 1.2988 0 0.11004-0.02 0.25311-0.023 0.36914-0.099 0.78227-0.1675 1.5278-0.3262 2.3809l-0.4531 2.2344c-0.037 0.0351-0.045 0.0917-0.098 0.11524-0.1082 0.0863-0.2419 0.10359-0.4004 0.0508-0.1142-0.015-0.213-0.0809-0.2988-0.19922-0.018-0.0306-0.052-0.0439-0.07-0.0742-0.1769-0.36508-0.3547-0.69037-0.5313-0.92578-0.3333-0.46666-0.9166-1.0849-1.75-1.8516-0.8-0.66667-1.8484-1.0988-3.1484-1.2988-0.3021-0.0529-0.508 0.077-0.793 0.0566-0.1234-7e-3 -0.233-0.10711-0.3574-0.10742-0.3116-2.2e-4 -0.5825 0.15273-0.8828 0.19531-0.4777 0.0564-1.0477-0.0622-1.4668 0.10547-0.3 0.2-0.55 0.33372-0.75 0.40039-0.3334 0.0667-0.6512-0.11745-0.9512-0.55078-1.1333-1.6333-2.1004-2.6663-2.9004-3.0996-1.2-0.66667-2.7484-0.63363-4.6484 0.0996-0.088 0.0377-0.2748 0.3061-0.377 0.37695-0.024 0.0155-0.051 8e-3 -0.074 0.0234-0.1556 0.10844-0.2488 0.3251-0.3965 0.44727-0.3665 0.34315-0.653 0.49935-1.1523 1.1523-0.1488 0.19449-0.1307 0.25966-0.2578 0.4375-0.1639 0.23424-0.3939 0.35333-0.543 0.61328-0.087 0.17995-0.2033 0.44544-0.3496 0.79883v-0.0488c-0.033 0.10029-0.091 0.26316-0.1289 0.375-0.035 0.0956-0.2011 0.29168-0.2207 0.375-0.049 0.1812-0.1315 0.56127-0.1973 0.83984v0.01c-0.1618 0.70346-0.3224 1.1568-0.4844 1.502-0.1312 0.33041-0.2383 0.71032-0.416 0.94727-0.3333 0.5-0.3992 0.90117-0.1992 1.2012 0.2333 0.23333 0.4329 0.28177 0.5996 0.14844 0.5333-0.4 1.1845-0.59961 1.9512-0.59961 0.3333 0 1 0.0678 2 0.20117 2.2 0.33333 4.4655 1.4651 6.7988 3.3984 2.3667 1.9 4.1845 3.9349 5.4512 6.1016 0.091 0.13619 0.3555 0.43022 0.5215 0.63477 0.013 0.0189 0.014 0.0457 0.027 0.0645l0.1 0.15039c0.026 0.0331 0.043 0.0486 0.051 0.0488v0.0506c0.041 0.0466 0.1081 0.047 0.1523 0.0859 0.1221 0.14164 0.15 0.19908 0.2969 0.36328 0.3588 0.56806 0.2123 1.1549-0.1797 1.75l-3.7187 5.3516c-0.057 0.10742-0.14 0.17331-0.25 0.19922-0.082 0.0475-0.1826 0.0475-0.3008 0-0.082-7e-3 -0.1655-0.0575-0.25-0.15039-0.053-0.0544-0.086-0.13773-0.1-0.25-0.01-0.045-0.033-0.0708-0.039-0.11523-0.086-0.39871-0.1984-1.0761-0.2617-1.2344-0.087-0.22778-0.2877-0.49406-0.4062-0.73242-0.1614-0.33856-0.3208-0.67905-0.5391-0.9668-0.1206-0.18966-0.1661-0.35514-0.3047-0.55078-0.209-0.27046-0.5844-0.30473-0.8476-0.49805-0.2063-0.14774-0.3197-0.37822-0.5528-0.50195-0.1499-0.0781-0.3404-0.0653-0.5019-0.11719-0.1547-0.0456-0.2299-0.20368-0.3965-0.23242-0.1153-0.0199-0.2304 0.0709-0.3457 0.0605-0.091-7e-3 -0.1617-0.0607-0.2559-0.0605-0.3331 3.1e-4 -0.6156 0.2104-0.9355 0.26563-0.4544 0.0877-0.909-6.3e-4 -1.3633 0.23437-0.2444 0.12222-0.2816 0.17956-0.4668 0.2832-0.074 0.0407-0.1616 0.0222-0.2344 0.0664-0.065 0.0448-0.081 0.11548-0.1426 0.16211-0.1638 0.10577-0.4771 0.25838-0.5566 0.33789-0.2321 0.18235-0.2481 0.48084-0.373 0.7207-0.103 0.15493-0.2987 0.26206-0.377 0.42969-0.042 0.0979-0.1079 0.1638-0.1992 0.19922-0.093 0.0747-0.1943 0.10777-0.3008 0.0996-0.1138-0.0109-0.2146-0.0594-0.3008-0.14844l-0.75-0.70117c-0.2785-0.23795-0.5723-0.3408-0.8554-0.53516-0.3375-0.25229-0.5637-0.59746-0.9434-0.81445-1.0677-0.60059-2.1564-0.7113-3.2539-0.59961h-0.047c-0.028 2e-3 -0.05 0.021-0.078 0.0234-0.5061 0.0639-1.0092 0.0602-1.5215 0.27539-0.139 0.0552-0.1945 0.19691-0.3262 0.25976-0.4017 0.20671-0.7492 0.55349-1.1054 0.87696-1.2704 1.0577-2.1987 2.4688-2.418 4.6133-0.1463 1.5846 0.2962 2.9777 1.0234 4.2773 0.1855 0.37045 0.2786 0.77543 0.5254 1.123 0.063 0.0906 0.098 0.19141 0.1016 0.30078 0.01 0.10026-0.028 0.18359-0.1016 0.25-0.048 0.10768-0.1313 0.17357-0.25 0.19922-0.3103 0.13262-0.5352 0.43991-0.8008 0.66406-0.1371 0.10597-0.3245 0.10334-0.4492 0.23633-0.054 0.0545-0.1167 0.21045-0.1719 0.27734-0.1105 0.14253-0.2016 0.32831-0.3027 0.49219-0.1903 0.29782-0.3735 0.49191-0.5742 0.92969-0.048 0.1004 0.027 0.24632-0.01 0.35156-0.088 0.2372-0.2184 0.38431-0.2929 0.64844-0.2511 1.0969 0.1152 2.0814 1.0996 2.9512 0.1027 0.0909 0.3182 0.12907 0.4277 0.2168 0.074 0.0579 0.094 0.18067 0.1738 0.23242 0.7333 0.46667 1.6152 0.91628 2.6485 1.3496 0.1141 0.0456 0.7299 0.24939 0.9922 0.3418 0.3209 0.11177 0.4635 0.3078 0.8086 0.4082 0.1041 0.0449 0.1875 0.11277 0.25 0.20117 0.069 0.0979 0.1 0.19674 0.1 0.29883-0.01 0.12917-0.058 0.22995-0.1504 0.30078-0.1226 0.18906-0.2544 0.45534-0.3965 0.79492v6e-3c-0.136 0.37904 0.073 0.70326 0.062 1.0625 0 0.24765-0.212 0.35385-0.1621 0.63672 0.03 0.16359 0.1745 0.18588 0.2168 0.33398 0.061 0.19722-0.076 0.42501 0.029 0.61524h0.055c0.1361 0.28957 0.4644 0.32404 0.6582 0.53711 0.1951 0.21634 0.23 0.62793 0.4902 0.76367 0.093 0.0464 0.2991 0.0369 0.4883 0.0352 0.1119 0.0397 0.1405 0.18749 0.2617 0.21484 0.1 0.0272 0.1769 0.0766 0.2344 0.13867 0.01 0.0145 0.018 0.0231 0.027 0.0391 0.074 0.0875 0.1267 0.17672 0.1367 0.27149 0.1172 1.2575 0.683 2.1597 1.4532 2.9004 0.028 0.0276 0.019 0.0724 0.047 0.0996 0.095 0.0947 0.2107 0.10365 0.3086 0.18555 0.3019 0.23419 0.5125 0.54414 0.8946 0.71484 0.4085 0.19713 0.8057 0.29791 1.1972 0.30078 0.2724-1e-3 0.478-0.17892 0.7051-0.29297 0.1035-0.021 0.1891 0.0236 0.2949-8e-3 0.1334-0.0333 0.2496 0.05 0.3496 0.25 0.067 0.1 0.1365 0.26667 0.2032 0.5 0.067 0.1 0.045 0.15039-0.055 0.15039h-0.25c-1 0.33333-1.7325 0.60078-2.1992 0.80078-0.8667 0.33333-1.5508 0.75-2.0508 1.25-0.1666 0.16667-0.3333 0.18243-0.5 0.0488-0.036-0.0312-0.1129-0.0644-0.1504-0.0957-0.1351-0.13164-0.1627-0.28166-0.3496-0.4043-0.01-6e-3 -0.025-0.0215-0.049-0.0488-0.8345-0.59347-1.635-0.98797-2.4316-1.3574-0.029-0.0149-0.035-0.0281-0.064-0.043-0.01-3e-3 -0.014-1.8e-4 -0.019-4e-3 -1.1823-0.53752-2.3357-0.90597-3.4336-0.94726h-0.25c-1.5033-1e-3 -2.6908 0.45046-3.7304 1.1152-0.04 0.0219-0.079 0.0126-0.1192 0.0352-0.6333 0.6-1.1159 0.91784-1.4492 0.95117-0.2038-5e-3 -0.2637 0.0438-0.4512 0.0449-0.1657-0.027-0.3883-0.0429-0.6992-0.0449-0.3183 8e-4 -0.5645 0.1596-0.8633 0.20313-0.272 0.047-0.7363 0.0216-0.9375 0.0957-0.1448 0.0658-0.1695 0.13145-0.3027 0.19727l-0.01 24.504h1.0996c0.1263-6e-3 0.2911-0.10079 0.4219-0.11719 0.1798-0.0222 0.5075 0.0109 0.6289-0.0332 0.8666-0.3 1.3492-0.46667 1.4492-0.5 0.5667-0.0667 1.0512 0.18333 1.4512 0.75 0.1385 0.17535 0.4554 0.15924 0.6348 0.29102 0.2326 0.13659 0.4751 0.23852 0.7207 0.32812 0.3342 0.12234 0.5197 0.40236 0.9433 0.42969 0.19 8e-3 0.3523-0.0946 0.5391-0.0996h0.5117c0.1816-0.0205 0.2762-0.14902 0.4512-0.17773 1.1184-0.17223 2.1757-0.58471 3.1699-1.2461 0.1637-0.11152 0.4254-0.10145 0.5781-0.22656h0.059c0.322-0.25056 0.5586-0.57689 0.8555-0.84961 0.1089-0.10614 0.2366-0.13717 0.3438-0.25 0.092-0.0954 0.085-0.17096 0.1738-0.26563 1.212-1.2304 2.2745-2.5936 3.0254-4.2344 0.01-0.0172 0.01-0.0327 0-0.0488l0.1504-0.25c0.1736-0.31471 0.2899-0.6151 0.3496-0.90039 0.01-0.0164 0.01-0.0339 0-0.0508l0.0519-0.09951c0.01-0.0937-0.063-0.16523-0.064-0.25586 0.112-0.18237 0.1812-0.42219 0.4141-0.44336 0.7333-0.0667 1.9175-0.45039 3.5508-1.1504-0.8333 1.0667-1.4167 1.9-1.75 2.5-0.5667 1.0667-0.9504 1.9988-1.1504 2.7988-0.3333 1.2667-0.3333 2.3345 0 3.2012 0.5667 1.2333 1.4504 1.9155 2.6504 2.0488 0.9667 0.1 2.017-0.1655 3.1504-0.79883 1.4-0.76667 2.7333-1.8345 4-3.2012-0.6 1.4333-0.7182 2.8674-0.3516 4.3008l-0.1523 0.0703c-0.067 0.0137-0.1291 0.01-0.1973 0.0293h0.051c-0.1256 0.0543-0.2141 0.13986-0.3359 0.19727-0.1389 0.057-0.5994 0.29822-1.5137 0.80273-0.5176 0.27236-0.979 0.32272-1.4297 0.32812-0.021-4e-3 -0.046-0.0254-0.065-0.0273h-0.6015c-0.4222 2e-3 -1.1107 0.10483-1.6934 0.16797-0.312 0.026-0.5786-0.0195-0.9062 0.0312-0.1219 0.0193-0.2006 0.0709-0.3203 0.0918-0.033 5e-3 -0.047 3e-3 -0.08 8e-3l-0.5 0.0508c-0.9511 0.16614-1.6827 0.52074-2.4824 0.81641-0.3748 0.13806-0.8228 0.22149-1.1661 0.38281-0.5449 0.26653-0.9634 0.64148-1.4238 0.98047-0.5449 0.37176-1.1914 0.6685-1.6269 1.1211-0.095 0.0983-0.1053 0.29047-0.1954 0.39453v4e-3c-0.01 7e-3 8e-4 0.0182-0.016 0.0254-0.9384 1.0924-1.6782 2.4019-2.041 4.125-0.4333 1.9667-0.35 3.6178 0.25 4.9512 0.5333 1.2 0.8492 1.9151 0.9492 2.1484 0.1647 0.29128 0.4156 0.42571 0.6094 0.66406 0.02 0.0358 0.02 0.0497 0.041 0.0859 0.043 0.0692 0.091 0.0433 0.1348 0.10742 0.2548 0.28116 0.4751 0.62613 0.7676 0.83789-0.2314 0.25315-0.4471 0.49542-0.9063 0.90625-1.1333 1.0333-1.8659 1.9151-2.1992 2.6484-0.7 1.4333-0.8163 3.0341-0.3496 4.8008l1.1992 3.8008c-0.1667 0.66667-0.083 1.2326 0.25 1.6992v0.0508c-0.2333 0.36667-0.3496 0.88216-0.3496 1.5488l0.049 0.0508v0.29883c-0.2333 0.26667-0.3651 0.63489-0.3984 1.1016v0.0488c-0.4333 1.1-1.3016 2.7337-2.6016 4.9004l12.852 0.25c0.5333-0.83333 0.8996-1.6667 1.0996-2.5l0.3496-0.25c0.3667-0.3 0.6496-0.69922 0.8496-1.1992 0.7333-0.23333 1.3167-0.76823 1.75-1.6016l0.2012-0.5c0.2333 0 0.4659-0.0833 0.6992-0.25l2.3496-1.6992c0.1496-0.11215 0.2113-0.31212 0.3086-0.47656 0.2938 0.12483 0.3948 0.14795 0.6484 0.25195 0.065 0.0272 0.074 0.0464 0.1426 0.0742l0.1992 0.0606c0.1138 0.0442 0.2538 0.1019 0.3457 0.13476 0 1e-3 -4e-4 5e-3 0.01 6e-3 0.011 5e-3 0.018 3e-3 0.029 8e-3 0.1612 0.057 0.5303 0.222 0.6211 0.24219 0.077 0.0192 0.1354-0.043 0.2109-0.0293 0.2263 0.0526 0.4928 0.17618 0.6895 0.17774 0.3914 2e-3 0.7402-0.0639 1.0488-0.19922 0.1237-0.0604 0.24-0.0779 0.3496-0.0508 0.1429 0.0616 0.2437 0.14493 0.3008 0.25 0.1556 0.33241 0.5559 0.55089 0.7754 0.85351 0.5224 0.68425 1.0455 1.3671 1.6289 1.791 0.044 0.0296 0.051 0.0763 0.096 0.10547 0.1113 0.0711 0.2807 0.0439 0.3965 0.10742 0.6295 0.37271 1.2562 0.75816 1.9531 0.84375 0.5013 0.0716 0.8186 5e-3 1.2461 0.0215 0.04 4.8e-4 0.064 0.0273 0.1035 0.0273l0.4922-0.0176c0.3332-9e-3 0.7788 0.0662 1.0586 0.0176 0.5059-0.0675 0.9107-0.40366 1.3652-0.60742 0.2658-0.11939 0.5414-0.19314 0.7989-0.35352 0.1664-0.11119 0.3765-0.10606 0.5351-0.23828 0.2762-0.22776 0.4119-0.52038 0.6543-0.76367 0.2291-0.21201 0.4754-0.33786 0.6973-0.58594 0.2606-0.27847 0.408-0.63463 0.6191-0.94727 0.1145-0.17989 0.2497-0.35043 0.3496-0.5371 0.4852-0.87987 0.8434-1.8473 0.9805-2.9668 0-9e-3 0.01-7e-3 0.01-0.0156 0-0.26071 0.088-0.35234 0.1523-0.48828 0.09-0.0674 0.1856-0.11574 0.291-0.14453 0.1029-0.0165 0.2037-7.3e-4 0.3008 0.0488 0.694 0.29896 1.3277 0.45013 1.9004 0.45117 0.3195-6e-3 0.5623-0.20026 0.8438-0.29883 0.2693-0.0832 0.5715-0.0673 0.8066-0.25195 0.01-7e-3 0.013-0.0334 0.023-0.041 0.5056-0.39213 0.9339-0.97143 1.2774-1.7598v-0.0488c0.183-0.37278 0.2138-0.81519 0.3379-1.2148 0.081-0.25519 0.243-0.30244 0.3125-0.58594 0.024-0.11021-0.045-0.33332-0.025-0.44922 0.2183-1.2471 0.2729-2.5703-0.024-4.0508v-0.0488l-0.1504-0.85156c-0.023-0.10963-0.01-0.22591 0.053-0.34961 0.089-0.0893 0.19-0.15521 0.3008-0.19922 0.1474-0.0149 0.2811 9e-4 0.4004 0.0488 0.2021 0.11704 0.4035 0.0942 0.6054 0.17969 0.613 0.28254 1.2353 0.50481 1.8946 0.44726l0.7849-0.07679c0.3017-0.0782 0.502-0.2949 0.7695-0.41992 0.2999-0.13745 0.5724-0.0785 0.8809-0.2793 0.1015-0.0676 0.1388-0.25167 0.2344-0.33008 0.3481-0.30828 0.5886-0.76533 0.8496-1.1934 0.2423-0.38301 0.5861-0.58102 0.7656-1.0781 0.132-0.39603 0.01-0.67594 0.066-1.0391 0.095-0.50369 0.1641-1.0038 0.096-1.4824-0.027-0.19099 0.092-0.44775 0.039-0.62695-0.2334-0.4-0.4-0.71784-0.5-0.95117-0.1667-0.36667-0.1008-0.73294 0.1992-1.0996 0.1498-0.14975 0.099-0.37469 0.1934-0.54492 0.1292-0.30101 0.2829-0.60229 0.3183-0.9043 0-0.0937 0.098-0.15195 0.088-0.25-0.012-0.14169-0.1362-0.2553-0.1582-0.39453-0.029-0.28516 0.021-0.56938-0.092-0.85547-0.1488-0.3878-0.4839-0.75319-0.7031-1.1328-0.157-0.2786-0.1412-0.60045-0.3457-0.86719-0.094-0.12047-0.3787-0.36267-0.502-0.50195-0.2676-0.32501-0.635-0.63843-0.957-0.95703-0.3725-0.36325-0.5413-0.59685-1.041-1.041-0.1565-0.0782-0.2072-0.10883-0.3379-0.17578-0.2805-0.22191-0.4553-0.45719-0.7637-0.67578-0.066-0.0347-0.089-0.0251-0.1504-0.0547-0.2368-0.28461-0.4528-0.58034-0.3496-1.0449 0.2334-0.86667 0.1849-2.0159-0.1484-3.4492 0.4666 0.73333 1.3 1.4833 2.5 2.25 0.8666 0.76667 1.9655 0.98372 3.2988 0.65039s2.1163-1.0349 2.3496-2.1016c0.5334-2.3 0.1012-4.3-1.2988-6l-0.051-0.25 0.2012 0.0508c0.8 0.23333 1.8329 0.38255 3.0996 0.44922 1.0667 0.1 2.0163-0.28177 2.8496-1.1484 0.7667-0.8 1.1833-1.7167 1.25-2.75 0.1667-2-0.4496-3.6182-1.8496-4.8516 0.7333-0.1 1.5822 0.0667 2.5488 0.5 0.2744 0.10977 0.5322 0.44525 0.7969 0.68555 0 4e-3 2e-4 0.0114 0 0.0156 1.5724 1.872 2.6228 3.2053 3.1504 4 0.1037 0.13604 0.3537 0.20122 0.4805 0.32617 0 2e-3 0.013 0.0213 0.016 0.0234 0.047 0.0446 0.1072 0.051 0.1543 0.0937 0.4773 0.42785 0.9302 0.86668 1.6953 1.1562 0.086 0.0331 0.1604 0.0202 0.2461 0.0508 0.1419 0.0598 0.2589 0.20153 0.4043 0.25 0.4512 0.14616 0.8776 0.0395 1.3203 0.0996 0.4045 0.0643 0.8424 0.2486 1.2305 0.25 0.2529-1e-3 0.4238-0.0696 0.6289-0.10937 0.1782-0.0251 0.3564-0.0519 0.5332-0.0918h0.037c0.049-0.0149 0.061-0.053 0.1094-0.0684 0.9838-0.24583 1.952-0.62612 2.8906-1.3301 0.1667-0.13333 0.3876-0.40078 0.6543-0.80078 0.2198-0.28269 0.5248-0.35561 0.8926-0.2832l0.9531 0.084c0.243-2e-3 0.4297-0.0975 0.6543-0.1289 0.2965-0.0393 0.5918-0.0709 0.8808-0.17383 0.2821-0.10089 0.5281-0.26593 0.7735-0.42578 0.3145-0.17917 0.6361-0.26312 0.9414-0.52149 0.2836-0.23637 0.4172-0.80944 0.5664-1.3477 0.067-0.18127 0.1844-0.33396 0.2246-0.53124 0-0.0106 0.012-0.0108 0.012-0.0215 0.014-0.0762-0.021-0.10443-0.012-0.17773 0.088-0.55685 0.1243-1.144 0.012-1.8223-0.019-0.12005 0.016-0.23633 0.1016-0.34961 0.08-0.11211 0.179-0.17994 0.2988-0.20117 0.9953-0.15859 1.8965-0.45899 2.7012-0.90039 0.3182-3.5669 4.2074-19.484-1.9547-19.25h0.051c-0.7907 0.32845-1.2458 0.53843-1.7813 0.77734-0.2591 0.0827-0.697 0.27344-0.8183 0.27344-0.3-0.0333-0.5675-0.31628-0.8008-0.84961-0.2481-0.52619-0.634-0.82411-0.9414-1.252-0.1722-0.2793-0.1747-0.57377-0.4082-0.84766-0.1829-0.21112-0.3984-0.29996-0.5899-0.47851-0.1167-0.10205-0.2367-0.19875-0.3593-0.29102-0.8079-0.65178-1.676-1.0738-2.6289-1.1758-0.047-9e-3 -0.076-0.0464-0.1231-0.0547-0.059-3e-3 -0.074-5e-3 -0.1309-8e-3 -0.059-3e-3 -0.1084-0.0419-0.1679-0.043l-0.1699 0.0195c-0.4104-0.0237-0.8477-0.047-1.0801-0.0703-0.5289-0.0557-0.9467-0.29599-1.336-0.58399-0.2471-0.18105-0.497-0.37065-0.7148-0.46484 4e-4 8e-3 -0.017 8e-3 -0.051 0-0.2027-0.0996-0.4351-0.0837-0.6465-0.15039-0.294-0.0936-0.5826-0.19639-0.9257-0.21289-0.1303-0.0113-0.244-0.0879-0.377-0.0879-0.1186 2e-3 -0.2662 0.15625-0.3867 0.16797-0.4168 0.0388-0.7839 1.1e-4 -1.2617 0.13281-1.7333 0.5-2.966 1.3333-3.6993 2.5-0.1385 0.20774-0.3974 0.50562-0.582 0.74805-0.3132 0.31964-0.5082 0.46376-0.8672 0.85156v0.0508l-1.5 1.5996c-0.065 0.0667 0.01 0.17159-0.041 0.24219-0.066 0.0586-0.1447 0.0722-0.2598-0.043-0.5-0.63333-1.5514-1.0326-3.1503-1.1992-1.5333-0.16667-2.667-0.0504-3.4004 0.34961 0.1334-0.46667 0.2011-0.78255 0.2011-0.94922 0.067-0.93333-0.3171-1.7667-1.1504-2.5-0.8-0.7-1.7496-1.0837-2.8496-1.1504-2.1-0.0667-3.633 0.45078-4.5996 1.5508l-0.5 0.34961c-0.067-0.3-0.084-0.49961-0.051-0.59961 0.067-0.16667 0.084-0.35078 0.051-0.55078s-0.051-0.34922-0.051-0.44922c0-0.66666-0.3333-1.2345-1-1.7012s-1.3333-0.58294-2-0.34961c-1.2333 0.4-2.2992 0.91745-3.1992 1.5508 0.5-1.2 0.5833-2.1516 0.25-2.8516-0.6-1.3333-1.5167-1.9496-2.75-1.8496-1.1334 0.0667-2.1837 0.65-3.1504 1.75-1 1.2-1.6018 3.0663-1.8007 5.5996l-0.049 0.35156-0.2951-0.30047c-0.7-1.2-1.0837-1.8996-1.1504-2.0996-0.4667-0.66667-0.8-1.1667-1-1.5-0.316-0.54586-0.2108-1.1473 0.043-1.7676l0.059-0.23242c0.2481-0.75419 0.1563-1.3894-0.094-1.9707-0.049-0.12631 0.064-0.25255-0.01-0.37891-0.1235-0.22048-0.3283-0.33394-0.4961-0.49609-1e-3 -9.6e-4 -9e-4 -3e-3 0-4e-3l-0.1016-0.10156c0-3e-3 -0.01-3e-3 -0.01-6e-3 -0.2149-0.18021-0.4567-0.32498-0.7363-0.41992-0.2181-0.1181-0.4378-0.343-0.6543-0.37305-0.093-0.01-0.1759-0.0427-0.25-0.0996-0.079-0.0603-0.1448-0.1436-0.1992-0.25-0.017-0.0729-0.017-0.15625 0-0.25 0.1235-0.62133-0.016-1.2262-0.2031-1.8281-0.1058-0.44719-0.3762-0.8288-0.7032-1.1875-0.269-0.34083-0.4644-0.75784-0.8437-0.98438v0.0488l-0.1016-0.0488c-0.067-0.0397-0.1344-0.10757-0.2011-0.20117-0.033-0.0681-0.05-0.15143-0.051-0.25 6e-4 -0.0891 0.018-0.17239 0.051-0.25l2.6015-4.4492 0.8477-1.3496c0.3333-0.5 0.7829-1.2674 1.3496-2.3008 0.5333-0.86667 1.1167-1.5333 1.75-2 0.5333-0.36667 1.8163-0.93255 3.8496-1.6992 0.3-0.1 0.7341-0.28411 1.3008-0.55078 0.4693-0.14669 0.8836-0.0389 1.2754 0.17578 0.078 0.0731 0.1165 0.16758 0.2246 0.22461h-0.049l4.1993 2.0488c0.4993 0.22764 0.8822 0.1662 1.3613 0.34375 0.3174 0.10329 0.7949 0.43681 1.0898 0.50781 0.745 0.17814 1.3376 0.17998 2.0098 0.27344 0.5376 0.0787 1.1829 0.42442 1.6895 0.42578l1.0996-0.0508c0.2476-0.0347 1.0479-0.18395 2.4004-0.44922h-0.049c1.1996-0.29961 2.1996-0.44883 3-0.44922l0.086 6e-3c1.7265 0.19928 3.3825 0.13112 4.914-0.40625 0.084-0.0311 0.1928-0.17147 0.2774-0.20703 1.2453-0.53881 2.457-1.3313 3.6211-2.4941 0.037-0.0399 0.072-0.0728 0.1015-0.0996l0.074-0.0371c0.1705-0.12192 0.1754-0.2953 0.2989-0.43164 0.1356-0.13723 0.2394-0.13586 0.3769-0.28125 0.1015-0.0937-0.014-0.22704 0.047-0.32813 0.026-0.0811 0.1398-0.13524 0.1523-0.2207l-0.051-0.40039c0-0.0316 3e-4 -0.0625 0-0.0937-0.029-0.12747 0.1257-0.2213 0.051-0.35742-0.04-0.076-0.1413-0.14016-0.1875-0.21484-0.046-0.1256 0.017-0.28446-0.1132-0.38477l-0.049-0.0488c-0.2454-0.22136-0.4522-0.33682-0.6914-0.54101-0.1406-0.1326-0.1968-0.28191-0.3593-0.41016-0.7667-0.56667-1.3326-0.99883-1.6993-1.2988-0.123-0.0984-0.2784-0.12482-0.4043-0.2168-0.3445-0.22705-0.6476-0.3396-0.9765-0.52343-0.9112-0.52408-1.8763-0.92856-2.9238-1.1504-0.8905-0.20345-1.7833-0.40939-2.4961-0.41016-0.4667 3e-3 -0.9337 0.0537-1.4004 0.15039l-0.5489 0.0996v-0.0508c-0.3451 0.10065-0.5204 0.11052-0.7519 0.15039-0.3348 0.0147-0.7318 0.079-0.9492 0-0.1568-0.0599-0.3103-0.056-0.4668-0.10938-0.7764-0.29713-1.5481-0.56587-2.2832-0.64062l-1.2989-0.0996c-0.3224 2e-3 -0.6691 0.151-0.9961 0.18164-0.5515 0.0399-1.1069-5e-3 -1.6543 0.11914-0.3032 0.0714-0.565 0.24778-0.8593 0.3418-0.2006 0.0607-0.3876 0.0368-0.5899 0.10742-0.2122 0.0779-0.4037 0.27608-0.6133 0.36914-0.8607 0.38403-1.6759 0.88302-2.4531 1.4785-0.1896 0.14659-0.3969 0.19113-0.584 0.35156h0.049c-0.058 0.0539-0.1384 0.16585-0.1973 0.22266-0.2599 0.22908-0.5529 0.37438-0.8027 0.6289-0.1 0.1-0.6156 0.74922-1.5489 1.9492-0.6333 0.8-1.234 1.3504-1.8007 1.6504-0.3 0.2-1.3504 0.63216-3.1504 1.2988 0.059-0.31541 0.5298-0.97123 0.8574-1.5078 0.03-0.0506 0.181-0.26029 0.1953-0.29102 0.5797-0.95821 1.7481-2.3882 2.7266-3.666 0.9487-1.2004 1.9637-2.5853 2.8222-3.5352 0.6836-0.74059 2.9295-2.9326 5.6817-5.5957 0.3627-0.32267 0.8166-0.73188 1.0195-0.9043l0.1504-0.14844c0.016-0.0176 0.032-0.035 0.049-0.0508 0.099-0.0751 0.068-0.17186 0.1485-0.25 0.091-0.0937 0.1347-0.12187 0.25-0.25 0.2667-0.23333 0.567-0.21607 0.9003 0.0508 0.4667 0.4 1.3 0.88255 2.5 1.4492 0.5667 0.26667 1.4174 0.6 2.5508 1 0.9666 0.5 2.0985 0.88372 3.3985 1.1504 0.3 0.0667 1.484 0.24883 3.5507 0.54883 1.5333 0.2 3.0508 0.15156 4.5508-0.14844 0.7666-0.13333 1.3829-0.5849 1.8496-1.3516 0.5-0.8 0.566-1.5151 0.1993-2.1484-0.8-1.5667-2.1004-2.5008-3.9004-2.8008 0.5-0.4 1.0348-0.88255 1.6015-1.4492 0.5-0.53333 0.7829-0.88411 0.8496-1.0508 0.1333-0.56667-4e-4 -1.15-0.4004-1.75s-0.9173-1.0341-1.5507-1.3008c-0.5333-0.23333-1.2-0.34961-2-0.34961-0.9 0-1.5822-0.0155-2.0489-0.0488l0.9493-1.6504c0.4333-0.63333 0.4836-1.4163 0.1503-2.3496s-0.8836-1.5341-1.6503-1.8008c-1.2-0.4-2.6826-0.23333-4.4493 0.5l-0.1504 0.0996-0.051-0.25c0.4667-1.1667 0.6004-2.2171 0.4004-3.1504-0.1667-0.66667-0.6164-1.2151-1.3497-1.6484-0.7667-0.4-1.4663-0.46784-2.0996-0.20117-1.0333 0.5-1.95 1.2171-2.75 2.1504 0.1667-1.1 0.196-1.9333 0.1-2.5-0.2333-1.1333-0.7507-1.8504-1.5507-2.1504s-1.6819-0.11589-2.6485 0.55078c-0.8 0.5-1.4667 1.2171-2 2.1504-0.3334 0.53333-0.75 1.4151-1.25 2.6484-0.1334-1.3333-0.2671-2.25-0.4004-2.75-0.2-1.0333-0.5507-1.9151-1.0507-2.6484-0.5997-0.83281-1.3488-1.3-2.2481-1.4004zm-0.4473 1.0996c0.4333-0.3 0.9663-0.18372 1.5996 0.34961 0.6667 0.6 1.0833 1.4508 1.25 2.5508 0.3667 1.7667 0.5508 2.9663 0.5508 3.5996 0 0.73333-0.05 1.6326-0.1504 2.6992l-0.3008 2.7012c-0.067 0.76667-0.117 1.9333-0.1504 3.5v1.3867l-0.01-6e-3c-0.5931-1.12-1.0422-1.9512-1.3399-2.4805-0.5333-0.96666-0.9325-1.8-1.1992-2.5-0.3667-0.9-0.7504-2.3845-1.1504-4.4512-0.2333-1.1333-0.2837-2.8659-0.1504-5.1992 0.1333-1.0333 0.4841-1.7504 1.0508-2.1504zm9.0488 1.1504c0.3667-0.13333 0.7349 0.0333 1.1016 0.5 0.3333 0.43333 0.5 0.98373 0.5 1.6504 0.033 0.53333-0.05 1.1496-0.25 1.8496-0.1334 0.43333-0.3349 1.0496-0.6016 1.8496-0.6 2.0667-1.9818 4.5841-4.1484 7.5508-0.8667 0.93333-1.5004 1.6155-1.9004 2.0488-0.1667 0.16667-0.25 0.13363-0.25-0.0996v-1.25c0.3667-1.9667 0.5488-3.4996 0.5488-4.5996 0.033-1.4333 0.3182-2.8829 0.8516-4.3496 0.5666-1.4667 1.0318-2.4841 1.3984-3.0508 0.7-1.0333 1.6167-1.7329 2.75-2.0996zm-15.199 0.34963c0.5667 0.13333 1.0996 0.46667 1.5996 1 0.3 0.33333 0.7167 0.81589 1.25 1.4492 0.7333 0.8 1.2508 1.9841 1.5508 3.5508 0.3333 2 0.6163 3.25 0.8496 3.75 0.1 0.26667 0.6504 1.4333 1.6504 3.5 0.067 0.13333 0.367 0.60039 0.9004 1.4004v0.0742c-0.2673-0.11976-0.5665-0.28396-0.9981-0.625-0.041-0.0305-0.073-0.0174-0.1132-0.0469-2.7213-1.9987-4.9611-4.2213-6.5391-6.752-1.1667-1.8667-1.8004-3.3841-1.9004-4.5508 0-2.0333 0.5833-2.95 1.75-2.75zm-9.5 0.84963c0.8333 0 1.7171 0.21706 2.6504 0.65039 0.2333 0.1 1.0337 0.53412 2.4004 1.3008 0.9666 0.53333 1.8329 1.4655 2.5996 2.7988 0.4333 0.73333 1.067 1.8341 1.9004 3.3008 1.0639 1.4395 2.355 2.7565 3.8008 3.9902-0.031-8.9e-4 -0.069-0.0406-0.1-0.041h-0.3829c-2.0027-0.62637-3.8808-1.3384-5.4687-2.25-2.5667-1.5-4.5996-3.1337-6.0996-4.9004-0.6667-0.83333-1.1182-1.4322-1.3516-1.7988-0.4666-0.73333-0.7321-1.4678-0.7988-2.2012-0.1-0.56667 0.1829-0.84961 0.8496-0.84961zm30.738 1.2012c0.675 0 1.2113 0.41667 1.6113 1.25 0.5 0.93333 0.283 2.133-0.6504 3.5996-1.1 1.6667-2.6484 3.1163-4.6484 4.3496-1.7667 1.2667-3.1175 2.2008-4.0508 2.8008-0.6 0.4-1.5341 0.93294-2.8008 1.5996 2.0667-2.1667 3.7179-4.4671 4.9512-6.9004 0.3333-0.6 0.7655-1.5496 1.2988-2.8496 0.5667-1.1 1.1849-1.9663 1.8516-2.5996 0.95-0.83333 1.7625-1.25 2.4375-1.25zm-37.438 2.5996c1-0.16667 2.1318-0.11628 3.3984 0.15039 0.067 0.0333 1.15 0.33177 3.25 0.89844 0.4334 0.13333 1.0012 0.71667 1.7012 1.75 1.2333 1.1333 2.5996 2.1508 4.0996 3.0508l2.8496 1.75c-3.3333 0.13333-6.0504-0.0663-8.1504-0.59961-3.5666-0.83333-6.2663-2.0504-8.0996-3.6504-0.5667-0.46667-0.8825-0.74961-0.9492-0.84961-0.3-0.36667-0.3833-0.76784-0.25-1.2012 0.2333-0.66667 0.9504-1.0988 2.1504-1.2988zm41.6 2.0996c1.4-0.2 2.4329 0.0171 3.0996 0.65039 0.3667 0.36667 0.5333 0.86667 0.5 1.5-0.033 0.63333-0.2659 1.2167-0.6992 1.75-0.8 1-1.8504 1.8159-3.1504 2.4492-0.8 0.36667-2.05 0.80078-3.75 1.3008-1 0.3-2.1996 0.55-3.5996 0.75-1.6 0.23333-2.8016 0.4-3.6016 0.5l-2.3984 0.25c1.8-0.86667 4.0325-2.2678 6.6992-4.2012 1.4333-0.9 2.6833-2.0318 3.75-3.3984 0.6333-0.83333 1.6837-1.3508 3.1504-1.5508zm3.7617 5.6758c0.7083-0.0167 1.5383 0.0909 2.4883 0.32422 1.2667 0.26667 1.9333 0.79961 2 1.5996 0.1 0.63333-0.084 1.1837-0.5508 1.6504-0.2333 0.26667-0.7159 0.6-1.4492 1-1.4333 0.73333-3.4663 1.2159-6.0996 1.4492-2.6667 0.26667-5.0679 0.2509-7.2012-0.0488-1.6338-0.28591-2.7055-0.69877-3.9512-1.0723-0.454-0.10551-1.323-0.49549-1.9453-0.71679l2.2461-0.16211c2.4333-0.16667 4.7337-0.53294 6.9004-1.0996 1.9333-0.53333 3.8675-1.3667 5.8008-2.5 0.4667-0.26667 1.0534-0.40716 1.7617-0.42383zm1.5371 5.9238c1.0667-0.23333 2.1675 0.1 3.3008 1 0.9 0.63333 1.3671 1.2341 1.4004 1.8008 0.067 0.7-0.2008 1.2833-0.8008 1.75-0.5333 0.46667-1.2155 0.68372-2.0488 0.65039-2.8667-0.23333-4.6012-0.4-5.2012-0.5-1.8667-0.3-4.0159-0.96667-6.4492-2-1.6-0.73333-2.7337-1.4-3.4004-2 0.5667 0.2 1.2663 0.34922 2.0996 0.44922 0.4667 0.0333 1.1663 0.0663 2.0996 0.0996 1.8 0.0667 4.0171-0.13294 6.6504-0.59961 0.5333-0.1 1.3163-0.31706 2.3496-0.65039zm3.9512 16.951-0.025 0.0117c-0.015 0.0104-0.01 0.0268-0.025 0.0371zm-26.25 21.049c0.9 0.5 1.2488 1.2345 1.0488 2.2012-0.1333 0.53333-0.2496 1.3492-0.3496 2.4492-0.033 0.16667-0.2 0.51745-0.5 1.0508-0.2667 0.43333-0.4004 0.81511-0.4004 1.1484-0.8333-0.53333-1.5659-0.73294-2.1992-0.59961-0.6667 0.1-1.4341 0.56706-2.3008 1.4004-0.4333-3.7333 0.4679-6.2159 2.7012-7.4492 0.8-0.43333 1.4667-0.50117 2-0.20117zm-11.092 1.7363c0.168 0.0566 0.3272 0.0807 0.5137 0.21094 0.2722 0.14116 0.543 0.26766 0.8281 0.55273 1.8667 1.7 3.1825 4.2504 3.9492 7.6504 0 0.0667-0.099 0.48333-0.2988 1.25-0.4334-1-1.3171-2-2.6504-3-0.2667-0.23333-0.6175-0.34961-1.0508-0.34961-1.1333 0.0333-2.017-0.26706-2.6504-0.90039-0.6-0.63333-0.9159-1.5326-0.9492-2.6992 0-0.61419 0.1241-1.1079 0.3223-1.5312 0.055-0.10622 0.1246-0.18804 0.1875-0.28125 0.228-0.34543 0.495-0.65422 0.8906-0.83789 0.2922-0.13915 0.5985-0.12211 0.9082-0.0645zm16.791 1.1133c0.8667 0 1.3008 0.43411 1.3008 1.3008-0.033 1.6667-0.7833 3.1996-2.25 4.5996-0.2 0.2-0.6496 0.38411-1.3496 0.55078-0.7334 0.16667-1.2508 0.34883-1.5508 0.54883l-1.1992 0.95117c0.2666-1.0333 0.2163-2.1341-0.1504-3.3008-0.1333-0.36667-0.067-0.76589 0.1992-1.1992 0.1333-0.23333 0.3833-0.58411 0.75-1.0508 0.9667-1.5333 2.3833-2.3337 4.25-2.4004zm6.5996 1.8515c0.9667 0 1.8349 0.23255 2.6016 0.69922 0.7666 0.5 1.1329 1.0329 1.0996 1.5996-0.033 0.56667-0.2833 1.0163-0.75 1.3496-0.6333 0.3-1.1004 0.51706-1.4004 0.65039-2.1667 1.0667-4.1667 2.1829-6 3.3496l-0.3496 0.10156 0.1-0.25c0.2333-1.2333-0.1833-2.15-1.25-2.75-0.2667-0.16667-0.2823-0.41667-0.051-0.75 1.0667-1.2333 1.6849-1.9349 1.8516-2.1016 0.7333-0.73333 1.4988-1.2663 2.2988-1.5996 0.8-0.26667 1.4163-0.3655 1.8496-0.29883zm-29.58 1.76c0.4392-0.0931 0.9741 0.0234 1.5625 0.25586 0.2554 0.11933 0.4143 0.0869 0.7188 0.2832 0.034 7e-3 0.05 7e-3 0.049 0l0.1289 0.0723c0.3293 0.20951 0.6569 0.41256 1.0215 0.72851l1.3008 1.0996c0.1333 0.13333 0.1333 0.26706 0 0.40039-0.1667 0.2-0.2675 0.33372-0.3008 0.40039-0.4 1.5667 0.2008 3.15 1.8008 4.75-0.5-0.16667-1.283-0.31784-2.3496-0.45117-1-0.13333-1.75-0.3155-2.25-0.54883-1.1334-0.46666-2.0016-1.2012-2.6016-2.2012-0.6-1.0333-0.7821-2.1322-0.5488-3.2988 0.12-0.57604 0.4637-0.83472 0.791-1.1172 0.2396-0.18985 0.4664-0.31537 0.6777-0.37304zm16.131 0.99005c0.5333 0.26667 0.8492 0.66589 0.9492 1.1992 0.067 0.3 0.051 0.78255-0.049 1.4492-0.2333 1.6333-1.0337 3.3833-2.4004 5.25-0.1 0.13333-0.2841 0.23411-0.5508 0.30078-0.3 0.0333-0.55 0.0159-0.75-0.0508-0.3333-0.1-0.5329-0.44883-0.5996-1.0488l-0.2988-1.4004c-0.1334-0.56667-0.1837-1.0492-0.1504-1.4492 0.1333-1.7667 0.6663-3.0341 1.5996-3.8008 0.8333-0.63333 1.5833-0.78255 2.25-0.44922zm20.949 1.25c0.9334-0.0667 1.7841 0.19883 2.5508 0.79883 0.8 0.6 1.1333 1.2667 1 2-0.021 0.14557-0.06 0.16571-0.084 0.29101-0.1054 0.24429-0.2648 0.53808-0.5664 0.95899l-0.25 0.40039v8e-3c-0.2724 0.2079-0.4905 0.47035-0.9492 0.49219-2.2333 0.0333-4.5163 0.64961-6.8496 1.8496-1.3667 0.83333-2.3841 1.4496-3.0508 1.8496-0.1667 0.13333-0.2829 0.13333-0.3496 0-0.5-0.9-1.2345-1.5318-2.2012-1.8984-0.6-0.23333-1.5321-0.41745-2.7988-0.55078-0.1667 0.0667-0.3004 0.11706-0.4004 0.15039h-0.5996c1-0.63333 2.3992-1.5345 4.1992-2.7012 2.6-1.6 4.7667-2.6329 6.5-3.0996 1.4-0.33333 2.683-0.5155 3.8496-0.54883zm-30.1 0.25c0.8 0.0667 1.4996 0.4155 2.0996 1.0488 0.2334 0.23333 0.7004 0.86706 1.4004 1.9004 0.5333 0.8 1.1341 2.1004 1.8008 3.9004 0 0.13333-0.033 0.21667-0.1 0.25-0.5 0.5-0.7849 0.73255-0.8516 0.69922-1.4666-0.7-2.5655-1.3337-3.2988-1.9004-1.1333-0.83333-1.9512-1.8159-2.4512-2.9492-0.3333-0.73333-0.347-1.4-0.049-2 0.2667-0.63333 0.7492-0.94922 1.4492-0.94922zm14.451 1c0.9333-0.0667 1.6484 0.16589 2.1484 0.69922 0.1 0.1 0.2337 0.43333 0.4004 1-0.3667 1-1.3163 1.9341-2.8496 2.8008-1.1 0.6-2.5167 1.2318-4.25 1.8984-0.1 0.0333-0.2667-0.0151-0.5-0.14844-0.2667-0.2-0.4663-0.33372-0.5996-0.40039-0.1 0-0.05-0.15117 0.1504-0.45117 0.3333-0.5 0.8159-1.2655 1.4492-2.2988 0.6-0.86667 1.1833-1.5663 1.75-2.0996 0.6333-0.6 1.4008-0.93333 2.3008-1zm-27.201 1.2988c1.8333-0.1 3.8508 0.66745 6.0508 2.3008l0.75 0.44922c-0.8667 0.16667-1.5004 0.60078-1.9004 1.3008-0.3667 0.7-0.4171 1.4829-0.1504 2.3496 0.1 0.33333-0.016 0.51745-0.3496 0.55078-0.4-0.0333-0.65-0.0333-0.75 0-2.5333 0.66667-4.5508-0.11823-6.0508-2.3516-0.4431-0.62975-0.4735-1.3935-0.3125-2.2188 0.069-0.69986 0.3629-1.2603 0.8653-1.6914 0.452-0.37412 1.0213-0.64478 1.8476-0.68945zm8.7012 3.4004c2.0666 0.2 3.9329 0.78333 5.5996 1.75l1.3496 0.59961c0.1 0.0667 0.2996 0.1345 0.5996 0.20117 0.2 0.1 0.2833 0.24922 0.25 0.44922-0.1667 0.8-0.6337 1.2167-1.4004 1.25-2.2333 0.33333-3.9155 0.44961-5.0488 0.34961-1.0333-0.1-1.8163-0.23372-2.3496-0.40039-0.8334-0.3-1.4671-0.8-1.9004-1.5-0.3333-0.5-0.3837-1-0.1504-1.5 0.2-0.5 0.5992-0.81589 1.1992-0.94922 0.9-0.23333 1.5182-0.31667 1.8516-0.25zm35.283 0c1.7999-0.16667 3.3504 0.0659 4.6504 0.69922 0.1011 0.0467 0.1458 0.14497 0.2364 0.20117 0.3185 0.23389 0.6065 0.49311 0.8222 0.81055 0.1939 0.34556 0.3383 0.73644 0.3848 1.2168-1e-4 9e-3 0 0.0202 0 0.0293-0.048 0.42938-0.2675 0.75914-0.4688 1.0996-0.2019 0.2741-0.4117 0.54883-0.7949 0.84375-0.3165 0.23266-0.587 0.49176-1.0312 0.65039-1.9333 0.66667-3.6678 0.88177-5.2012 0.64844-1.8333-0.3-2.8992-0.48216-3.1992-0.54883-1.2-0.26667-2.2174-0.6-3.0508-1-0.4333-0.1-0.7666-0.18333-1-0.25h-0.2988c-0.1 0.0333-0.1504-0.0171-0.1504-0.15039-0.033-0.23333-0.033-0.41745 0-0.55078 0-0.2 0.083-0.34922 0.25-0.44922 3.5333-1.9333 6.4829-3.0167 8.8496-3.25zm-13.135 1.3008c0.7 0.1 1.4016 0.48177 2.1016 1.1484 0.7 0.7 1.0663 1.3667 1.0996 2 0.033 0.76666-0.4163 1.2841-1.3496 1.5508-0.6667 0.1-1.2171 0.18333-1.6504 0.25-2.2667-0.23333-4.7008-0.78372-7.3008-1.6504-0.3667-0.13333-0.5488-0.41628-0.5488-0.84961 0-0.7-0.017-1.0837-0.051-1.1504-0.067-0.13333 0.05-0.24961 0.3496-0.34961 0.1667-0.0333 0.4012-0.0992 0.7012-0.19922 2.3666-0.76666 4.5818-1.0167 6.6484-0.75zm-10.648 0.34961c0.5666 0.0667 1.0492 0.24883 1.4492 0.54883 0.4333 0.33333 0.6659 0.76745 0.6992 1.3008 0.067 0.8-0.1659 1.4667-0.6992 2-0.5333 0.56667-1.2504 0.86706-2.1504 0.90039-0.6 0.0667-1.1329-0.11745-1.5996-0.55078-0.5333-0.46667-0.7329-1.0326-0.5996-1.6992 0-0.76667 0.2655-1.3829 0.7988-1.8496 0.5667-0.46666 1.2682-0.68372 2.1016-0.65039zm-22.852 0.99997c0.2-0.0667 0.4016-7.8e-4 0.6016 0.19922 0.2666 0.3 0.4333 0.46667 0.5 0.5 1.1333 0.66667 2.0325 1.0329 2.6992 1.0996 0.3667 0 0.2329 0.36823-0.4004 1.1016-0.5 0.63333-0.8004 1.4318-0.9004 2.3984-0.033 0.33333-0.2329 0.55039-0.5996 0.65039-0.4333 0.0667-0.7337 0.1345-0.9004 0.20117-0.3666 0.13333-1.0488 0.28255-2.0488 0.44922-1.3015-0.1816-1.8683-0.25661-2.043-0.27344-0.1009-0.0284-0.2004-0.0575-0.2949-0.0898-0.7392-0.21061-1.3138-0.58593-1.6621-1.1875-0.3-0.5-0.3-1.1318 0-1.8984 0.3-0.73333 0.7496-1.2682 1.3496-1.6016 0.9333-0.5 2.1659-1.0155 3.6992-1.5488zm7.8008 1.4004c0.3667-0.0667 0.7504 0.0322 1.1504 0.29883 0.5667 0.43333 0.9 0.66784 1 0.70117 0.5667 0.2 1.2488 0.31628 2.0488 0.34961 0.4667 0.0333 1.1682 0.0488 2.1016 0.0488-2.4 1.2667-4.0841 2.6174-5.0508 4.0508-0.5 0.73333-1.5174 0.95039-3.0508 0.65039-0.5333-0.13333-1.1321-0.43372-1.7988-0.90039-0.4667-0.3-0.6837-0.8-0.6504-1.5 0.033-0.6 0.1826-1.1174 0.4492-1.5508 0.6334-1.0333 1.9008-1.7484 3.8008-2.1484zm10.75 0.8496c0.2333-0.0667 0.3671-0.0163 0.4004 0.15039l0.3496 0.84961c0.1333 0.33333 0.1627 0.55039 0.1 0.65039-0.7333 1.0333-1.7004 2.1496-2.9004 3.3496-1.5333 1.5333-3.1166 2.4326-4.75 2.6992-0.5666 0.1-1.0492-0.0337-1.4492-0.40039-0.3667-0.4-0.5508-0.96589-0.5508-1.6992 0.067-0.73333 0.4349-1.4 1.1016-2 0.3666-0.3 1.0663-0.78255 2.0996-1.4492 1.7667-1.1 3.6329-1.8171 5.5996-2.1504zm8.0508 0.50002c0.3 0.13333 0.7321 0.36589 1.2988 0.69922 1.6667 0.46667 3.25 1.3174 4.75 2.5508 0.7667 0.63333 1.1504 1.3659 1.1504 2.1992 0 0.9-0.3159 1.5163-0.9492 1.8496-0.6334 0.26667-1.4337 0.21823-2.4004-0.14844-2.2667-0.9-4.2337-2.8012-5.9004-5.7012-0.1-0.16667-0.05-0.34883 0.1504-0.54883 0.1333-0.1 0.3155-0.26667 0.5488-0.5 0.4-0.5 0.8516-0.63372 1.3516-0.40039zm11.449 0.40038c0.2333 0.0333 0.5492 0.11667 0.9492 0.25 1.7 0.23333 2.9016 0.94844 3.6016 2.1484 0.3666 0.66666 0.4829 1.4012 0.3496 2.2012s-0.4667 1.2671-1 1.4004c-1.0333 0.36667-2.4345 0.2155-4.2012-0.45117-0.6666-0.23333-1.6318-0.68294-2.8984-1.3496-0.3-0.13333-0.5345-0.41628-0.7012-0.84961-0.3-0.83333-1.0655-1.5329-2.2988-2.0996h2.75c0.9666-0.0333 1.8155-0.38411 2.5488-1.0508 0.2333-0.2 0.5337-0.26589 0.9004-0.19922zm-17.65 1.1992c0.067 0 0.15 0.0174 0.25 0.0508 0.3 0 0.4512 0.13177 0.4512 0.39844v1.3008c0 0.33333 0.066 1.3663 0.1992 3.0996 0.1 1.2667 0.1156 2.3171 0.051 3.1504-0.067 0.8-0.3341 1.4996-0.8008 2.0996-0.5 0.6-1.1163 0.95078-1.8496 1.0508-0.3667 0.0333-0.7-0.0829-1-0.34961-0.2333-0.23333-0.4-0.55117-0.5-0.95117-0.3667-1.3667-0.2504-3.0333 0.3496-5 0.2333-0.73333 0.6171-1.5337 1.1504-2.4004 0.3-0.53333 0.7825-1.2988 1.4492-2.2988 0.067-0.1 0.15-0.15039 0.25-0.15039zm1.8496 0.40041c0.6-0.26667 1.0845-0.26667 1.4512 0 0.2333 0.16667 0.4988 0.56589 0.7988 1.1992 0.4667 0.96667 1.2167 2.3504 2.25 4.1504 0.9 2.0667 1.0667 3.8496 0.5 5.3496-0.2 0.56667-0.6651 0.80117-1.3984 0.70117-0.7-0.0667-1.2679-0.4349-1.7012-1.1016-0.4-0.56667-0.7333-1.2663-1-2.0996-0.033-0.13333-0.2329-0.88334-0.5996-2.25-0.3667-1.2333-0.5004-2.4659-0.4004-3.6992-0.033-0.13333-0.033-0.46667 0-1 0.033-0.43333-0.033-0.78411-0.1992-1.0508-0.033-0.0667-4e-4 -0.11706 0.1-0.15039 0.033 0 0.099-0.0155 0.1992-0.0488zm22.9 0c1.5667 0.0667 2.7837 0.21589 3.6504 0.44922 1.2333 0.33333 2.2508 0.93411 3.0508 1.8008 0.2404 0.25549 0.2755 0.62118 0.4277 0.92383 0.1976 0.43709 0.4328 0.88254 0.4766 1.2832 0.048 0.75912-0.078 1.3754-0.5059 1.7422-0.3666 0.33333-0.8318 0.5-1.3984 0.5-0.2667 0-0.8016-0.0504-1.6016-0.15039-0.9333-0.13333-2.3829-0.71667-4.3496-1.75-0.5333-0.26667-0.8337-0.44883-0.9004-0.54883-0.2666-0.26667-0.3151-0.63294-0.1484-1.0996 0.3666-0.93333 0.2484-1.8016-0.3516-2.6016-0.2333-0.26667-0.1829-0.3655 0.1504-0.29883 0.6333 0.0667 1.1333-0.0167 1.5-0.25zm-42.25 1.5c0 0.26667 0.017 0.40039 0.051 0.40039 0.4333 0.3 0.5496 0.59844 0.3496 0.89844-0.3333 0.26667-0.5504 0.45078-0.6504 0.55078-0.8333 0.93333-1.3837 1.7492-1.6504 2.4492-0.3666 0.96666-0.3163 1.9337 0.1504 2.9004 0.4667 1 0.3678 1.6667-0.2988 2-0.9 0.23333-1.5008 0.43294-1.8008 0.59961-0.5667 0.4-1.2333 0.60156-2 0.60156-0.6427 0-1.2675-0.21976-1.8848-0.52734-0.076-0.0195-0.084-0.0563-0.166-0.0742h-0.1c-0.8667-0.46667-1.3996-1.0984-1.5996-1.8984-0.1667-0.83333 0.05-1.6667 0.6504-2.5 0.5718-0.81112 1.3671-1.4738 2.1934-2.1152 0.027-0.0189 0.029-0.0158 0.057-0.0352v-0.0176c0.037-0.0286 0.06-0.0675 0.098-0.0957 0.5782-0.36484 0.8909-0.56087 1.2247-0.77149 0.9499-0.5498 1.926-1.0821 3.1269-1.4648 0.5-0.13333 1.25-0.43372 2.25-0.90039zm1.8008 1.5996c0.2 0.0667 0.5004 0.20039 0.9004 0.40039 0.7 0.16667 1.7 0.0833 3-0.25 0.1666-0.0667 0.2655-0.0163 0.2988 0.15039 0.3667 1.3667 4e-4 2.5992-1.0996 3.6992-1.3 1.3-2.6663 1.9996-4.0996 2.0996-1.2667 0.0667-1.9333-0.66589-2-2.1992 0.033-0.46667 0.1825-0.93372 0.4492-1.4004 0.033-0.1 0.3008-0.53412 0.8008-1.3008 0.1333-0.23333 0.3833-0.51628 0.75-0.84961 0.2667-0.36667 0.6-0.48294 1-0.34961zm12.299 0.15039c-0.067 0.3-0.2333 0.94922-0.5 1.9492-0.2333 0.76667-0.3651 1.4004-0.3984 1.9004-0.1334 1.5333-0.8679 3.1496-2.2012 4.8496-1 1.2667-2.0659 1.9178-3.1992 1.9512-0.7333 0.0333-1.2663-0.23411-1.5996-0.80078-0.3-0.53333-0.3349-1.1671-0.1016-1.9004 0.3334-1.0667 1.2016-2.7004 2.6016-4.9004 0.1666-0.23333 0.4321-0.38255 0.7988-0.44922 0.5667-0.1 0.8845-0.16589 0.9512-0.19922 0.5666-0.2 1.1984-0.55078 1.8984-1.0508 0.3667-0.26667 0.95-0.71628 1.75-1.3496zm17.801 0.59961 1.5 0.44922c1.5667 0.73333 2.9 1.1345 4 1.2012 0.3333 0.0333 0.75-0.0345 1.25-0.20117 0.5667-0.13333 0.9659-0.19922 1.1992-0.19922 0.4 0 0.9175 0.25 1.5508 0.75 0.4333 0.33333 1.0671 0.76745 1.9004 1.3008 0.7333 0.53333 1.2663 1.0818 1.5996 1.6484 1.2333 2.0667 1.0667 3.9833-0.5 5.75-0.2333 0.26667-0.5667 0.41784-1 0.45117h-1.1504c-1.1 0.1-2.1504-0.13451-3.1504-0.70117-0.7333-0.4-1.5666-1.0667-2.5-2-1.5333-1.4333-3.2-3.4818-5-6.1484-0.2333-0.36667-0.247-0.76784-0.049-1.2012 0.2667-0.56667 0.3829-0.93294 0.3496-1.0996zm-7.4492 0.74998h0.1992c0.5667 0.43333 1.2992 0.83255 2.1992 1.1992 0.5334 0.2 1.3182 0.48489 2.3516 0.85156 1.8666 0.73333 2.8666 2.0996 3 4.0996 0.067 0.46667-0.1834 1.0326-0.75 1.6992-0.5667 0.66667-1.1171 1.0504-1.6504 1.1504l-0.9004 0.25c-0.5667-0.0667-1.0996-0.36706-1.5996-0.90039-0.5-0.63333-0.9012-1.1004-1.2012-1.4004-0.4333-0.43333-0.6155-1.0322-0.5488-1.7988 0.033-1.0333 0.033-1.6496 0-1.8496-0.3333-1.4-0.6841-2.4349-1.0508-3.1016zm-16.951 1.25c0.2333 0.0667 0.3496 0.13255 0.3496 0.19922 0.067 0.1 0.018 0.23372-0.1484 0.40039-1.7334 2.1-2.6171 4.0845-2.6504 5.9512-0.067 0.83333 0.2996 1.5484 1.0996 2.1484-0.9333 1.5667-2.2163 3.1345-3.8496 4.7012-0.6 0.56667-1.5012 1.0492-2.7012 1.4492-1.2666 0.4-2.1484 0.46784-2.6484 0.20117-0.5334-0.26667-0.9171-0.75117-1.1504-1.4512-0.2667-0.66667-0.3171-1.3159-0.1504-1.9492 0.6-2.4667 2.0826-4.8 4.4492-7 0.2-0.2 0.5508-0.33372 1.0508-0.40039 0.7-0.13333 1.1341-0.23411 1.3008-0.30078 1.6-0.5 2.8829-1.5659 3.8496-3.1992 0.1-0.16667 0.2337-0.39922 0.4004-0.69922 0.1666-0.2 0.4321-0.21727 0.7988-0.0508zm11.75 2.4004c0.067 0.2 0.183 0.48294 0.3496 0.84961 0.2667 1.0667 0.8171 1.9 1.6504 2.5 0.1 0.1 0.1504 0.21628 0.1504 0.34961-0.033 0.16667-0.033 0.26745 0 0.30078 0.1 1.3667-0.15 2.6496-0.75 3.8496-0.4 0.83333-1.0337 1.25-1.9004 1.25-0.4 0.0333-0.7488-0.13333-1.0488-0.5-0.1-0.13333-0.3345-0.49961-0.7012-1.0996-0.5-0.9-0.6163-2.2837-0.3496-4.1504 0.033-0.16667 0.1341-0.26745 0.3008-0.30078 0.2666 0 0.4159-0.0155 0.4492-0.0488 0.7-0.53333 1.1826-1.2329 1.4492-2.0996zm-5.9492 1.4004c0.033 0.0333 0.1496 0.23294 0.3496 0.59961 0.2 0.43333 0.3996 0.68333 0.5996 0.75 0.6333 0.23333 0.9667 0.54922 1 0.94922 0.033 0.26667-0.1004 0.71628-0.4004 1.3496-0.4 0.8-0.8651 2.1682-1.3984 4.1016-0.5141 1.7348-1.0288 3.0037-1.543 3.9023-0.1764 0.22993-0.3725 0.4604-0.6582 0.69727-0.024 0.0534-0.057 0.0863-0.1 0.0996-0.2852 0.39124-0.7896 0.75091-1.4141 1.0938-0.1869 0.0957-0.3359 0.11013-0.5097 0.17773-0.4269 0.19031-0.8548 0.37674-1.3262 0.37891-0.032-1.5e-4 -0.058-0.0244-0.09-0.0254-1.5484-0.24824-2.4508-1.0295-2.6094-2.4258-0.1334-1.0667 0-2.1655 0.3984-3.2988 0.2-0.53333 0.6671-1.5178 1.4004-2.9512 0.1-0.23333 0.35-0.34961 0.75-0.34961 0.5667 0.0333 0.9175 0.0178 1.0508-0.0488 1.8333-0.76666 3.25-2.2337 4.25-4.4004zm19.949 2.0996c2.7667 1.5333 4.6678 3.1671 5.7012 4.9004 0.6 0.96667 0.9159 2.0655 0.9492 3.2988 0.033 1.4333-0.4163 2.4004-1.3496 2.9004-0.1667 0.1-0.5678 0.23372-1.2012 0.40039-1-0.26667-1.8663-0.68333-2.5996-1.25-1.0667-0.8-2.0337-1.8833-2.9004-3.25-0.4666-0.76667-1.1159-2.0496-1.9492-3.8496-0.1-0.2 0.067-0.35117 0.5-0.45117 1.2667-0.36667 2.0826-1.2155 2.4492-2.5488 0.067-0.23333 0.2004-0.28372 0.4004-0.15039zm-8.3496 0.5996c0.3 0.13333 0.8329 0.55 1.5996 1.25 1.6333 1.4333 3.0345 3.2492 4.2012 5.4492 0.5666 1.0333 0.9155 2.2174 1.0488 3.5508 0.099 1.484-0.2065 2.5647-0.8906 3.2656-0.099 0.112-0.2723 0.0841-0.3809 0.17774-0.536 0.39159-1.1075 0.70703-1.8281 0.70703-0.7689-0.0295-1.4294-0.34947-2.041-0.79883-0.1744-0.12823-0.3305-0.27501-0.4902-0.41601-0.7617-0.70885-1.4063-1.5725-1.9161-2.6113-0.109-0.2409-0.224-0.4759-0.3144-0.73438-0.4973-1.2204-0.8932-2.572-1.0879-4.1894-0.1667-0.76667-0.2171-1.2996-0.1504-1.5996-0.067-1.7333-0.034-3.0008 0.1-3.8008 0.067-0.13333 0.1171-0.19922 0.1504-0.19922 0.7-0.36667 1.3667-0.38393 2-0.0508zm-9.3496 1.4004c0.2 1.2667 0.4325 2.1833 0.6992 2.75 0.4 0.86667 1.0512 1.4326 1.9512 1.6992 1.3333 0.4 2.3818-0.0825 3.1484-1.4492 0.2 1.5667 0.3008 2.6655 0.3008 3.2988 0 0.73095-0.2545 1.3166-0.4375 1.9434-0.2125 0.63159-0.4082 1.2927-0.6992 1.7891-0.068 0.10651-0.1298 0.18516-0.1953 0.28125-0.3367 0.51332-0.7544 0.88741-1.1856 1.2383-0.501 0.34843-1.0108 0.67331-1.6328 0.69922-0.2416 0.0186-0.466-0.13748-0.6973-0.22266-0.9269-0.50344-1.617-1.1632-2.1035-1.957-0.1467-0.22567-0.3396-0.4106-0.4394-0.67773-0.1487-0.41293-0.2051-1.1508-0.252-1.9258-0.01-0.4006-0.1085-0.71337-0.057-1.168 0.2-2.3333 0.6825-4.2151 1.4492-5.6484zm-17.318 26.443c0.1111 0.10621 0.22 0.20994 0.3672 0.40625 0.1003 0.064 0.2187 0.0548 0.3203 0.11328 0.058 0.041 0.07 0.0966 0.1309 0.13672 0.2051 0.12952 0.5773 0.0937 0.8105 0.19531 0.7661 0.30781 1.5479 0.55237 2.3848 0.57227 0.2163 0.0132 0.3253 0.13268 0.5547 0.13281h0.6504c0.4639 4e-3 0.8961-0.0464 1.2988-0.15039 0.1227-0.0133 0.239 4e-3 0.3496 0.0508 0.1112 0.0789 0.1791 0.17774 0.2012 0.29883 0.055 0.11888 0.055 0.23516 0 0.34961-0.046 0.10231-0.093 0.2525-0.1387 0.35742-0.2366 0.48599-0.4743 0.87543-0.7109 1.4434l-1.2012 3.1504c-0.1667 0.36667-0.217 0.75039-0.1504 1.1504 0.059 0.49018-0.258 0.81903-0.4414 1.2051-0.044 0.0234-0.1206 0.0149-0.1582 0.0449h-0.049l-4.25 3.1992-0.051 0.0508c-0.3333 0.16667-0.6008 0.41667-0.8008 0.75-0.5 0.13333-0.9496 0.39883-1.3496 0.79883l-1.1992 1.0996-0.3496-2.0488c-0.2-1.4-0.5004-2.4504-0.9004-3.1504v-0.0508l-0.051-0.64844c-0.5333-1.7333-0.4829-3.1016 0.1504-4.1016 0.2333-0.4 0.7159-0.99883 1.4492-1.7988l0.5508-0.59961v-0.05078l0.4004-0.55078c0.5-0.23333 0.8663-0.61511 1.0996-1.1484l0.051-0.0508c0.5267-0.33402 0.7867-0.74294 1.0312-1.1562z"/>
 <g transform="translate(-1004.2 -373.75)">
  <path transform="translate(160.15,84.1)" d="m849.1 289.65c-3.3333 0-5 1.6667-5 5v158.2c0 3.3333 1.6667 5 5 5h93.199c3.3333 0 5-1.6667 5-5v-158.2c0-3.3333-1.6667-5-5-5zm8.3008 7.1992h76.6c4.6667 0 7 2.3333 7 7v139.8c0 4.6667-2.3333 7-7 7h-76.6c-4.6667 0-7-2.3333-7-7v-139.8c0-4.6667 2.3333-7 7-7z" fill="#ef1d1e"/>
  <path transform="translate(160.15,84.1)" d="m857.4 296.85c-4.6667 0-7 2.3333-7 7v139.8c0 4.6667 2.3333 7 7 7h76.6c4.6667 0 7-2.3333 7-7v-139.8c0-4.6667-2.3333-7-7-7z" fill="none" stroke="#000" stroke-width="1.2"/>
 </g>
</svg>
