<svg width="103.2" height="168.2" preserveAspectRatio="none" version="1.1" viewBox="0 0 103.2 168.2" xmlns="http://www.w3.org/2000/svg">
 <path d="m13.301 7.1992c-4.6667 0-7 2.3333-7 7v139.8c0 4.6667 2.3333 7 7 7h76.6c4.6667 0 7-2.3333 7-7v-139.8c0-4.6667-2.3333-7-7-7z" fill="#fff"/>
 <path d="m3.6008 130.1v20.65h96.5v-20.65h-96.5" fill="#1ca4da"/>
 <path d="m47.5 28.949c-0.65833 0.0187-1.1079 0.40246-1.3496 1.1504-0.60182 2.1577-0.23554 4.3088 1.0996 6.4512l0.0508 0.0488c0.18607 0.35078 0.41862 0.71706 0.69922 1.0996 0.94336 1.2329 2.2612 2.4829 3.9512 3.75 0.17318 0.12982 0.35534 0.19766 0.54883 0.20117 0.19597-3e-3 0.34714-0.0363 0.45117-0.0996l0.34961-0.35156c0.0771-0.0793 0.16042-0.12774 0.25-0.14844 0.12097-0.0161 0.22175-6.1e-4 0.30078 0.0488 0.0961 0.0324 0.21237 0.0498 0.34961 0.0508 0.23281 1e-3 0.41498-0.0665 0.54883-0.20117h0.0508l0.55078-0.44922c0.0583-0.10456 0.14167-0.18789 0.25-0.25 0.14414-0.0259 0.27591-8e-3 0.39844 0.0508 0.12865 0.0571 0.21198 0.14047 0.25 0.25 0.0594 0.14232 0.0594 0.27409 0 0.39844-0.0518 0.13503-0.0673 0.25325-0.0488 0.35156 2e-3 0.0425 2e-3 0.0754 0 0.0996-1e-3 0.22265 0.0645 0.40482 0.19922 0.54883 0.16146 0.17917 0.34557 0.27995 0.55078 0.30078l0.44922 0.0508c0.10521 0.0107 0.18854 0.0436 0.25 0.0996 0.10456 0.0922 0.1724 0.19102 0.20117 0.29883 0.0667 0.31015 0.26628 0.51171 0.59961 0.60156l0.75 0.25c0.91537 0.37005 1.7816 0.62005 2.5996 0.75l0.65039 0.0996h0.0488c2.3266 0.4293 4.2277 0.64636 5.7012 0.65039 1.1906 4e-3 2.3398-0.12972 3.4492-0.40039 1.413-0.35755 2.2134-1.1076 2.4004-2.25 0.0885-0.5362-0.0122-1.0536-0.30078-1.5508-0.26693-0.50534-0.66615-0.87162-1.1992-1.0996h-0.0508c-0.27995-0.15469-0.61328-0.28841-1-0.40039-0.13659-9e-3 -0.25286-0.0749-0.34961-0.19922-0.0575-0.0986-0.073-0.21484-0.0488-0.34961 0.0789-0.42474 0.0111-0.85885-0.20117-1.3008v0.0508c-0.29479-0.48971-0.81029-0.84049-1.5488-1.0508-0.4444-0.10273-0.9289-0.15312-1.4512-0.15039-0.79948 1e-3 -1.5495 0.168-2.25 0.5l-1.3497 0.90039c-0.46823 0.39297-0.91784 0.69336-1.3496 0.90039-1.5204 0.82344-3.5379 1.4397-6.0508 1.8496-9e-3 2e-3 -0.0245 2e-3 -0.0488 0h-0.05081c-0.11029-1e-3 -0.21107-0.0343-0.30078-0.0996-0.0858-0.0642-0.15169-0.14753-0.19922-0.25-0.0173-0.0997-0.0173-0.20052 0-0.30078 0.0482-0.10351 0.11409-0.18685 0.19922-0.25 2.3572-1.6642 4.2913-3.5964 5.8008-5.7988 0.60768-0.87252 0.65807-1.7408 0.15039-2.6016-0.33932-0.54623-0.82383-0.82917-1.4512-0.84961l-0.44922 0.05077c-1.1144 0.18711-2.0641 0.68711-2.8496 1.5-0.51042 0.51432-1.1112 1.3477-1.8008 2.5l-0.40039 0.69922c-0.43399 0.74974-0.93399 1.8176-1.5 3.2012l-0.19922 0.5c-0.0241 0.12135-0.09 0.20469-0.19922 0.25-0.0758 0.0746-0.17656 0.10756-0.30078 0.0996-0.0956-0.0103-0.19635-0.0607-0.30078-0.15039-0.0623-0.0493-0.11071-0.13267-0.14844-0.25l-0.35156-1.4492c-0.61211-3.3766-1.8776-5.9599-3.7988-7.75-9e-3 1.3e-4 -0.0266-0.0173-0.0508-0.0508-0.31315-0.36198-0.69688-0.54609-1.1504-0.55078zm-12.25 0.95117c-0.2806-2.6e-4 -0.5461 0.0327-0.79883 0.0996h-0.0508c-0.6181 0.18529-1.1006 0.51862-1.4492 1-0.31198 0.53359-0.41276 1.0995-0.30078 1.6992 0.25586 1.2366 1.0737 2.4536 2.4512 3.6504 1.152 1.0099 2.7837 1.8762 4.8984 2.5996 1.4664 0.53203 3.168 0.79948 5.1016 0.80078h0.79883c0.44141-7e-3 0.70885-0.23922 0.80078-0.69922v0.0488c0.0475-0.2082 0.063-0.40781 0.0488-0.59961-0.10325-0.17057-0.25247-0.31979-0.44922-0.44922-1.3987-0.79375-2.4646-1.4779-3.1992-2.0508v-0.0508c-1.0452-0.86745-1.7952-1.85-2.25-2.9492-0.37109-0.77031-1.156-1.4699-2.3516-2.0996-1.1775-0.65638-2.2608-0.98971-3.25-1zm-13.5 33.049-0.64844 0.0508c-1.1547 0.15273-1.8562 0.88529-2.1016 2.1992-0.19023 0.9237-0.17281 1.8249 0.0508 2.7012 0.0449 0.10859 0.0449 0.20742 0 0.29883-0.01 0.09063-0.0601 0.15846-0.15039 0.20117-0.0646 0.08463-0.14793 0.13502-0.25 0.15039-0.74727 0.08086-1.2802 0.44714-1.5996 1.0996-0.0487 0.1168-0.132 0.20013-0.25 0.25-0.0871 0.05313-0.18789 0.06863-0.30078 0.04883-0.10937-0.0268-0.2082-0.09269-0.29883-0.19922l-0.37695-0.42383c-0.87518-0.80383-1.556-1.3684-2.0234-1.6758h-0.0508c-0.87123-0.56537-1.8034-0.86576-2.7988-0.90039h-0.25c-0.87891 0-1.6134 0.21706-2.2012 0.65039-0.56133 0.42813-0.91016 1.0115-1.0488 1.75-0.10456 0.67982 0.0447 1.2786 0.44922 1.7988 0.0635 0.0806 0.0965 0.16393 0.0996 0.25 7e-3 0.12474-0.0263 0.22552-0.0996 0.30078-0.0461 0.1082-0.1294 0.17409-0.25 0.19922l-1 0.40039c-0.60325 0.23607-1.0703 0.60234-1.4004 1.0996-0.27709 0.48971-0.36042 1.0072-0.25 1.5508 3e-3 0.03373 3e-3 0.06668 0 0.09961v0.15037c2e-3 0.11146-0.0309 0.21224-0.0996 0.30078-0.0713 0.08932-0.17018 0.13776-0.29883 0.14844l-0.40039 0.10156h0.0488c-1.3492 0.50351-2.2659 1.1023-2.75 1.7988-0.56042 0.98959-0.62631 2.0225-0.19922 3.0996 0.22565 0.5638 0.64232 1.0638 1.25 1.5 0.0862 0.0634 0.13659 0.14673 0.15039 0.25 0.0515 0.09974 0.0515 0.20052 0 0.30078-0.0228 0.10443-0.0906 0.18776-0.20117 0.25-0.76627 0.54727-1.3147 1.2139-1.6484 2-0.29505 0.65365-0.41328 1.3378-0.35156 2.0508 0.0619 0.71575 0.27892 1.3475 0.65039 1.8984v0.050781c0.22201 0.34492 0.5224 0.66081 0.90039 0.94922 0.0835 0.06573 0.13386 0.14907 0.15039 0.25 0.0478 0.09974 0.0478 0.20052 0 0.30078-0.0164 0.10052-0.0668 0.18385-0.15039 0.25-0.44818 0.35521-0.81446 0.75443-1.0996 1.1992-0.67799 1.1374-0.84466 2.4707-0.5 4l0.0488 0.05078c0.53971 2.4131 2.0068 3.6806 4.4004 3.8008 0.0415-2e-3 0.0745-2e-3 0.0996 0l0.25 0.04883c0.93684-0.0568 1.871-0.58974 2.8008-1.5996h0.0508l0.19922-0.19922c0.20143-0.21445 0.26732-0.4819 0.19922-0.80078-0.0597-0.31341-0.24183-0.53047-0.54883-0.65039l-0.65039-0.25h0.0508c-0.44375-0.13203-0.72865-0.24831-0.85156-0.34961-0.60729-0.43086-0.98907-1.1305-1.1484-2.0996-0.14831-0.87201-0.032-1.655 0.34961-2.3496v-0.050782c0.0534-0.0707 0.11929-0.3207 0.19922-0.75v-0.19922c3e-3 -0.08932 0.0201-0.17265 0.0508-0.25 0.0586-0.07461 0.12449-0.14244 0.19922-0.20117 0.17044-0.08659 0.32161-0.23581 0.45117-0.44922 0.23034-0.31745 0.74584-0.76706 1.5488-1.3496l0.0996-0.10156c0.0836-0.08425 0.18437-0.13269 0.30078-0.14844 0.11641-0.01253 0.21719 3e-3 0.30078 0.04883 0.11315 0.07617 0.17904 0.15951 0.19922 0.25l0.25 0.70117c0.38008 0.71211 0.91302 1.1443 1.5996 1.2988 0.55482 0.12656 0.97149 0.1944 1.25 0.20117l0.95117-0.10156c0.11641-0.0108 0.21524 0.0067 0.29883 0.05078 0.11146 0.07656 0.1793 0.15989 0.20117 0.25 0.0535 0.12461 0.0535 0.24088 0 0.34961l-0.20116 0.65039c-0.25911 0.83255-0.49167 1.4488-0.69922 1.8496-0.69675 1.6851-1.0475 3.0359-1.0508 4.0508 3e-3 1.6846 0.45228 2.8668 1.3496 3.5488 0.62552 0.39597 1.2438 0.59753 1.8516 0.60156h0.19922c0.13685 1e-3 0.25312 0.0498 0.34961 0.14844 0.0988 0.0965 0.14922 0.21471 0.15039 0.35156 2e-3 0.67279 0.0524 1.2891 0.15039 1.8496 0.15391 0.84349 0.52018 1.5935 1.0996 2.25 0.63854 0.65508 1.3227 0.98841 2.0508 1h0.0996c1.429-0.0251 2.6286-0.50964 3.5996-1.4512 0.97187-0.94883 1.4893-2.1484 1.5508-3.5996v-0.19922c-3e-3 -0.0329-3e-3 -0.0659 0-0.0996 0.0743-0.34583 0.024-0.64622-0.15039-0.90039l-0.0508-0.0508c-0.15677-0.22839-0.45717-0.37761-0.90039-0.44922-0.64765-0.0773-1.2639-0.39519-1.8496-0.95117-0.56771-0.48971-0.93398-1.0556-1.0996-1.6992-0.044-0.22917-0.16028-0.44622-0.34961-0.65039l-0.40036-0.3496c-0.091-0.07669-0.1414-0.19297-0.15039-0.34961l-0.0488-0.95117c-4e-3 -0.08164 0.0115-0.16497 0.0488-0.25 0.0638-0.0888 0.13164-0.15469 0.20117-0.19922 0.11263-0.04593 0.21146-0.06338 0.29883-0.05078l1 0.15039c0.22708-0.01367 0.54492-0.07955 0.95117-0.19922h-0.05078c0.71328-0.24948 1.2792-0.73399 1.6992-1.4512 0.0882-0.08893 0.18893-0.15482 0.30078-0.19922 0.13906-0.02333 0.25534-0.0059 0.34961 0.05078 0.13672 0.06875 0.22005 0.16758 0.25 0.29883l0.15039 0.45117v-0.050781c0.68477 1.8878 1.4677 3.2385 2.3496 4.0508 0.72617 0.69063 1.5924 1.0395 2.5996 1.0488h0.05078l0.80078-0.099609c0.11823-0.01667 0.21706 7.82e-4 0.29883 0.05078 0.11797 0.09167 0.1858 0.1905 0.20117 0.29883 0.17213 0.5293 0.52096 1.0293 1.0488 1.5l-0.0996-0.0488c0.28477 0.17305 0.56771 0.43854 0.84961 0.79883l-0.0488-0.0996c1.0348 0.99492 1.934 1.5608 2.6992 1.6992h0.19922c1.1212-0.0651 1.9391-0.41396 2.4512-1.0488 0.72578-0.83971 1.0417-1.8068 0.94922-2.9004v-0.05078c-0.0332-0.66849-0.26575-1.5018-0.69922-2.5-9e-3 -0.01653-0.0262-0.03203-0.0508-0.04883l-0.09963-0.30082c-0.20925-0.6181-0.45925-1.0677-0.75-1.3496-0.0552-0.04453-0.10559-0.11042-0.15039-0.19922-0.01-0.0918-0.01-0.19258 0-0.30078 0.0486-0.13698 0.0331-0.30365-0.0488-0.5l-0.40039-1.3008c0.0351-0.78099 0.0681-1.2965 0.0996-1.5488 0.0667-0.6 0.29922-1.5012 0.69922-2.7012l1.1504-3.2988c0.0957-6e-3 0.17903-6e-3 0.25 0l0.55078 0.19922 0.29883 0.05078h0.0508c0.97227-0.04207 1.7223-0.39285 2.25-1.0508 0.0951-0.07982 0.19583-0.13021 0.30078-0.15039 0.14153-0.01833 0.25781-8.88e-4 0.34961 0.05078 0.45182 0.29089 0.93437 0.44011 1.4492 0.44922l0.40035-0.04883c0.67005-0.03127 1.2204-0.21538 1.6504-0.55078 0.41341-0.31003 0.64597-0.70925 0.69922-1.1992v-0.05078c0.24414-1.562-6e-3 -2.8449-0.75-3.8496-0.57135-0.7431-1.5539-1.4427-2.9492-2.0996v-0.05078c-0.42656-0.23659-0.91107-0.35286-1.4512-0.34961-0.28177 6e-3 -0.81472 0.08933-1.5996 0.25-0.64883 0.14075-1.0984 0.20664-1.3496 0.19922h-0.5c-0.21263-0.0013-0.3793 0.04906-0.5 0.15039-0.0771 0.0793-0.17787 0.12969-0.30078 0.15039-0.0876 0.01613-0.18646-0.0013-0.29883-0.05078-0.60833-0.31719-1.0928-0.53229-1.4512-0.64844-0.0361 0.0079-0.0845-0.0095-0.14844-0.05078l-0.45117-0.30078c-0.0811-0.05207-0.14701-0.1354-0.19922-0.25-0.0227-0.10911-0.0227-0.22539 0-0.34961 0.0625-0.09232 0.1458-0.17565 0.25-0.25l0.34961-0.19922h-0.0508c1.0255-0.61341 1.5759-1.3964 1.6504-2.3496 5e-3 -0.07253 0.0228-0.15586 0.0508-0.25 0.0611-0.04833 0.12695-0.09872 0.19922-0.15039l0.70117-0.40039h-0.05078c1.1048-0.67135 1.6882-1.4717 1.75-2.4004v-0.04883c-9e-3 -0.95364-0.47579-1.7211-1.4004-2.3008h-0.0488c-0.72916-0.49297-1.4966-0.74297-2.3008-0.75h-0.25c-0.12357 1.3e-4 -0.23984-0.05026-0.34961-0.15039-0.0811-0.07123-0.13151-0.17006-0.15039-0.29883l-0.0508-0.40039c-0.14401-0.45221-0.40951-0.81849-0.79883-1.0996-0.41471-0.33177-0.89922-0.49844-1.4512-0.5h-0.25c-1.1457 0.15261-2.2445 0.58477-3.2988 1.2988-0.62982 0.45925-1.4632 1.2267-2.5 2.3008l-0.84961 0.90039c-0.0603 0.07591-0.1436 0.12435-0.25 0.14844-0.0935 0.022-0.19427 0.0065-0.30078-0.04883l-0.5-0.20117c-0.10443-0.03373-0.18776-0.11707-0.25-0.25-0.0527-0.09597-0.0702-0.21224-0.0508-0.34961 0.24583-0.92787 0.12956-1.9938-0.34961-3.1992-0.34127-1.1267-1.1417-1.6945-2.4004-1.7012zm-5.9258 6.377c0.012 0.01102 0.0153 0.01233 0.0273 0.02344l-0.0508-0.04883zm8.9258 4.3242c0.10859-0.0116 0.20937-0.0116 0.30078 0 0.0906 0.04333 0.15651 0.09372 0.19922 0.15039 0.21706 0.25963 0.48451 0.39141 0.80078 0.39844l1.5508-0.09961c0.95859 0.0053 1.7745 0.28828 2.4492 0.84961 0.0443 0.03853 0.0772 0.07343 0.0996 0.10156l0.1504 0.19922c0.39791 0.39219 0.63047 0.60924 0.69922 0.65039 0.12149 0.09011 0.18932 0.18894 0.20117 0.29883 0.0549 0.14713 0.0549 0.28086 0 0.40039l-0.30078 0.55078h-0.0488c-0.19127 0.33541-0.34244 0.66875-0.45117 1-1e-3 0.11367-0.0343 0.19701-0.0996 0.25-0.071 0.08268-0.1543 0.13307-0.25 0.15039-0.0943 0.019-0.19505 0.0015-0.30078-0.05078-1.1064-0.43268-2.3719-0.68268-3.7988-0.75-0.42292-6.5e-4 -0.70586 0.19896-0.84961 0.59961-0.13268 0.43347-0.0494 0.7668 0.25 1h0.0488c1.005 0.79232 1.722 1.676 2.1504 2.6504 0.0217 0.04013 0.0392 0.07308 0.0508 0.09961l0.19922 1.25c0.016 0.12057-9.8e-4 0.22135-0.0508 0.30078l-0.0488 0.09961c-8e-3 0.03347-0.025 0.05091-0.0508 0.05078l-0.15037 0.29883-0.0996 0.15039c3e-3 0.05067-0.0122 0.08361-0.0488 0.09961l-0.30086 0.45117c-0.0367 0.09011-0.10262 0.15599-0.19922 0.19922-0.0534 0.03633-0.12124 0.05378-0.20117 0.05078-0.25287-2.6e-4 -0.50287 0.03268-0.75 0.09961l-0.0996 0.04883c-0.0543 0.03427-0.12022 0.05171-0.19922 0.05078-0.42656 0.05353-0.96146-0.34569-1.6016-1.1992-0.21575-0.19388-0.44831-0.29466-0.69922-0.30078h-0.19922c-0.08 0.0027-0.16328-0.01478-0.25-0.05078-0.0633-0.0432-0.1311-0.10909-0.20117-0.19922l-0.09962-0.15039c-0.0809-0.13359-0.24753-0.24987-0.5-0.34961-0.0623-0.0154-0.12815-0.06579-0.19922-0.15039-0.0448-0.04907-0.0797-0.11495-0.10156-0.19922-0.28229-1.4109-0.7474-2.6784-1.3984-3.8008v-0.04883c-0.27292-0.43594-0.82331-0.653-1.6504-0.65039-0.33633 2e-3 -0.61927 0.0175-0.84961 0.04883-0.0994 0.01327-0.20013-0.01968-0.30078-0.09961-0.10482-0.04207-0.18815-0.1254-0.25-0.25-0.0721-0.21237-0.22135-0.46237-0.44922-0.75-0.0768-0.09531-0.11171-0.21159-0.10156-0.34961 9e-3 -0.10977 0.059-0.21055 0.15039-0.30078 0.25716-0.26094 0.45677-0.54388 0.59961-0.84961 0.0414-0.0646 0.0918-0.13049 0.15039-0.19922l0.15039-0.09961c0.0492-0.0033 0.0821-0.02078 0.0996-0.05078 0.12799-0.03047 0.26172-0.1138 0.40039-0.25 0.0965-0.09883 0.21276-0.14922 0.34961-0.15039h0.34961c0.34193-0.03827 0.65976-0.1371 0.95117-0.29883 0.087-0.03973 0.17031-0.05718 0.25-0.05078 0.10625 0.0027 0.18959 0.02011 0.25 0.05078l0.40039 0.25v0.04883c0.45937 0.29844 0.90898 0.44961 1.3496 0.45117 0.66563-0.0198 1.2994-0.37058 1.9004-1.0508l0.39844-0.44922c0.0854-0.05713 0.16875-0.10752 0.25-0.15039zm-14.799 3.8496c0.10677-6e-3 0.2056 0.01145 0.29883 0.05078 0.09 0.07044 0.15781 0.15377 0.20117 0.25 0.0481 0.09623 0.0636 0.19506 0.0488 0.29883-0.0224 0.09765-0.0708 0.18099-0.14844 0.25l-0.20114 0.15039c-0.50703 0.47799-0.85586 1.0109-1.0488 1.5996h0.0488c-0.14375 0.63685-0.1108 1.2376 0.0996 1.8008 0.0827 0.20299 0.16601 0.35221 0.25 0.44922 0.0801 0.07708 0.13047 0.16041 0.15039 0.25 0.0168 0.12149 9.7e-4 0.22227-0.0488 0.30078-0.0515 0.11575-0.13487 0.19909-0.25 0.25l-0.10156 0.04883c-0.031 0.02353-0.0794 0.04098-0.14844 0.05078l-0.90039 0.15039c-9e-3 2e-3 -0.0267 2e-3 -0.0508 0-0.50143 0.0073-1.0014-0.17685-1.5-0.55078-0.0265-0.01547-0.0595-0.03096-0.0996-0.04883l-0.80078-0.85156c-0.0331-0.06573-0.066-0.14907-0.0996-0.25-0.0109-0.0578-0.0109-0.12369 0-0.19922 0.0209-0.1082 5e-3 -0.25742-0.0488-0.44922-0.16914-0.52864 0.1138-1.1624 0.84961-1.9004 0.29505-0.30261 0.77761-0.603 1.4492-0.90039h-0.0488c0.18347-0.0832 0.31524-0.21692 0.39844-0.40039 0.0475-0.06719 0.11537-0.13307 0.20117-0.19922 0.0766-0.03333 0.15989-0.05078 0.25-0.05078h0.15039z" fill="#faea01"/>
 <path d="m3.6008 150.75v10.15h96.5v-10.15z" fill="#289654"/>
 <path d="m20.852 4.5508c-0.3 0.9-0.43372 1.8496-0.40039 2.8496 0.0333 0.96667 0.43255 1.8329 1.1992 2.5996 0.76667 0.8 1.6678 1.2341 2.7012 1.3008h0.5c1.0667 0 2.0996-0.18411 3.0996-0.55078 0.0667-0.0333 0.1655-0.0333 0.29883 0 0.0667 0 0.15 0.0329 0.25 0.0996 0.0667 0.0667 0.10156 0.16745 0.10156 0.30078 0.16667 0.96667 0.71511 1.7826 1.6484 2.4492 0.9 0.63333 1.8845 0.95117 2.9512 0.95117 0.36667 0 0.64961-0.0174 0.84961-0.0508l-0.0508 0.0508c1.1667-0.3 2.0678-0.70117 2.7012-1.2012 0.1-0.0667 0.21628-0.0996 0.34961-0.0996s0.24961 0.0504 0.34961 0.15039c0.0667 0.1 0.0996 0.21628 0.0996 0.34961 0 0.43333 0.0678 0.83255 0.20117 1.1992v0.0508c0.2 0.8 0.75039 1.5326 1.6504 2.1992 0.86667 0.63333 1.7484 0.96667 2.6484 1l0.75-0.0996h0.65039c0.73333 0 1.2837-0.23255 1.6504-0.69922 0.0667-0.0667 0.15-0.11706 0.25-0.15039 0.0667-0.0333 0.15-0.0508 0.25-0.0508 0.0667 0.0333 0.15 0.0837 0.25 0.15039 1.1333 0.96667 2.3504 1.4512 3.6504 1.4512 1.3333 0 2.5329-0.45156 3.5996-1.3516v-0.0488c0.83333-0.66667 1.25-1.3333 1.25-2v-0.0996c0-0.13333 0.0504-0.25156 0.15039-0.35156 0.1-0.1 0.21628-0.14844 0.34961-0.14844h0.15039c0-0.0333 0.0155-0.0508 0.0488-0.0508l0.35156-0.0508-0.05072 0.05077c1.7333-0.43333 2.8826-0.76667 3.4492-1h0.10156l0.0488-0.0508c2-0.7 3.5174-1.0488 4.5508-1.0488l1.0488-0.0508c0.1 0 0.20078 0.0329 0.30078 0.0996l0.15039 0.10156 0.0996 0.0996 0.40039 0.19922 0.0488 0.0508c1.2333 0.8 1.6171 1.5829 1.1504 2.3496-0.0667 0.16667-0.0822 0.33333-0.0488 0.5 0.0333 0.1 0.0159 0.21628-0.0508 0.34961-0.0667 0.1-0.16745 0.16784-0.30078 0.20117-0.86667 0.26667-1.5488 0.69883-2.0488 1.2988-0.83333 0.93333-1.1841 2.1329-1.0508 3.5996 0.13333 1.3667 0.78451 2.4849 1.9512 3.3516 1.0333 0.76667 2.233 1.1484 3.5996 1.1484 0.8 0 1.5655-0.16667 2.2988-0.5 0.1-0.0333 0.20078-0.0488 0.30078-0.0488 0.1 0.0333 0.18333 0.0837 0.25 0.15039 0.83333 0.76667 2.0504 1.4159 3.6504 1.9492 0.53333 0.13333 1.0837 0.19922 1.6504 0.19922 0.33333 0 0.59883-0.0155 0.79883-0.0488h0.0508c0.56667-0.0333 1.2663-0.2 2.0996-0.5l0.25-0.0996c0.86667-0.3 1.4326-0.70117 1.6992-1.2012l0.15039-0.34961c0.0333-0.1 0.11667-0.18333 0.25-0.25 0.1-0.0667 0.20078-0.0841 0.30078-0.0508l0.34961 0.10156 0.69922-0.15039-0.0488 0.0488 0.15039-0.0488c0.0333-0.0333 0.0818-0.0508 0.14844-0.0508h0.20117c0.26667 0 0.6-0.0659 1-0.19922 0.1-0.0667 0.21628-0.0667 0.34961 0s0.23411 0.1655 0.30078 0.29883c0.0333 0.1 0.0159 0.21823-0.0508 0.35156-0.53333 1.2-0.56634 2.4655-0.0996 3.7988 0.26667 0.8 0.85 1.8504 1.75 3.1504v-0.0508l0.29883 0.40039v0.0508c0.3 0.43333 0.65078 0.74922 1.0508 0.94922 0.0667 0.0667 0.13255 0.15 0.19922 0.25 0.0333 0.0667 0.0508 0.16745 0.0508 0.30078-0.0333 0.1-0.0837 0.18333-0.15039 0.25-0.1 0.1-0.23372 0.33255-0.40039 0.69922v-0.0488c-0.2 0.46667-0.29883 1.1488-0.29883 2.0488 0.1 2.1667 1.0322 3.8508 2.7988 5.0508 0.7 0.46667 1.5178 0.69922 2.4512 0.69922 1.4667 0 2.7167-0.46706 3.75-1.4004h0.0488c0.1-0.13333 0.48372-0.44922 1.1504-0.94922 0.9-0.7 1.5667-1.2833 2-1.75 0.1-0.16667 0.15039-0.36628 0.15039-0.59961v-24.25l-0.05075-0.40041v-0.0996l0.0508-0.34962v-8.75zm34.049 22.5c-0.56667 0-1.0822 0.21511-1.5488 0.64844-0.73333 0.63333-1.2508 1.4337-1.5508 2.4004-0.16667 0.53333-0.30039 1.4345-0.40039 2.7012v0.5c-0.2 1.8667-0.0159 4.0488 0.55078 6.5488v-0.0488l0.19922 0.64844v0.0508c0.1 0.63333 0.43333 0.94922 1 0.94922l0.40039-0.0488c0.1 0 0.18333 0.0155 0.25 0.0488 0.0667 0.0333 0.13255 0.0837 0.19922 0.15039 0.2 0.26667 0.45 0.41784 0.75 0.45117h0.70117c3.0667-0.53333 5.3322-1.1341 6.7988-1.8008 1.2-0.53333 2.1167-0.98294 2.75-1.3496 1-0.7 1.7674-1.5178 2.3008-2.4512l-0.0508 0.0508 0.0508-0.0996c0.43333-0.86667 0.45066-1.5837 0.0508-2.1504-0.46666-0.63333-1.05-0.94922-1.75-0.94922h-0.20117c-2.1 0-3.8829 0.75-5.3496 2.25-1.2 1.2333-2.5837 2.4484-4.1504 3.6484-0.1 0.0667-0.19883 0.10156-0.29883 0.10156s-0.20078-0.0349-0.30078-0.10156c-0.1-0.0667-0.15039-0.15-0.15039-0.25-0.0333-0.13333-0.0333-0.24961 0-0.34961 0.46667-1.0333 0.83294-1.9829 1.0996-2.8496l0.25-0.75c0.53333-1.7 0.81823-3.0992 0.85156-4.1992v-0.05086c0.0667-0.4-1e-3 -0.96589-0.20117-1.6992l-0.0488-0.0508-0.0508-0.25 0.0508 0.0508c-0.23333-0.9-0.6849-1.4349-1.3516-1.6016-0.0333-0.0333-0.0663-0.0488-0.0996-0.0488-0.2-0.0667-0.45-0.0996-0.75-0.0996zm-14.35 2.1484c-0.36667 0-0.71745 0.15117-1.0508 0.45117h-0.0488c-0.63333 0.53333-0.73411 1.3163-0.30078 2.3496 1.0333 3 3.0178 5.2674 5.9512 6.8008 1.4667 0.8 2.8659 1.3155 4.1992 1.5488h0.0996c0.36667 0 0.63411-0.16667 0.80078-0.5 0.2-0.4 0.14961-0.73333-0.15039-1h-0.0508l-1-0.94922v-0.0508c-0.23333-0.26667-0.63255-0.91589-1.1992-1.9492h0.0508l-0.8008-1.4004v0.0508c-1.5-2.3333-3.1841-3.9671-5.0508-4.9004h-0.0996c0-0.0333-0.0155-0.0508-0.0488-0.0508-0.6-0.26667-1.0341-0.40039-1.3008-0.40039zm-10.551 5.0508c-0.9 0-1.7663 0.18411-2.5996 0.55078h0.0508c-0.53333 0.23333-0.91706 0.59961-1.1504 1.0996-0.16667 0.43333-0.14934 0.91589 0.0508 1.4492l-0.05082-0.04883c0.56667 1.3333 1.5996 2.3818 3.0996 3.1484v0.0508c1.3667 0.73333 3.3996 1.1674 6.0996 1.3008l0.65039 0.0488c0.76667 0 1.85-0.13372 3.25-0.40039h0.20116c0.5-0.1 1.1492-0.28216 1.9492-0.54883l1.0508-0.40039c0.2-0.0667 0.36667-0.20039 0.5-0.40039v-0.0488c0.1-0.13333 0.133-0.3 0.0996-0.5-0.0667-0.5-0.34961-0.76745-0.84961-0.80078-1.6333-0.1-3.6178-0.83255-5.9512-2.1992-1-0.6-1.8837-1.0671-2.6504-1.4004-1.4-0.6-2.65-0.90039-3.75-0.90039zm34.451 9.9492c-0.43333 0-0.71628 0.2345-0.84961 0.70117-0.0494 0.17877-0.0605 0.3487 0 0.5l0.0488 0.0488c0.0667 0.2 0.18294 0.33372 0.34961 0.40039 0.0333 0 0.0682 0.0174 0.10156 0.0508l0.14844 0.0996h0.05081l0.0508 0.0508c2.3333 1.6333 4.6822 2.8155 7.0488 3.5488l0.15039 0.0508c0.63333 0.2 1.2496 0.29883 1.8496 0.29883 0.56667 0 1.0841-0.11628 1.5508-0.34961 0.6-0.43333 0.90039-1.0167 0.90039-1.75-0.0333-1.1667-0.66706-2.0988-1.9004-2.7988-0.96667-0.56666-2.0674-0.85156-3.3008-0.85156l-1.0996 0.05076c-0.96667 0.0667-1.6663 0.0996-2.0996 0.0996-0.93333 0-1.9004-0.0504-2.9004-0.15039zm-37.75 17.951c-0.2 0.0333-0.36667 0.0837-0.5 0.15039h-0.0508c-0.76667 0.33333-1.3829 0.88177-1.8496 1.6484-0.5 0.83333-0.75 1.7674-0.75 2.8008v0.30078c-0.0333 0.16667-0.0333 0.36628 0 0.59961l0.34961 1.0488c0.33333 0.76666 0.88372 1.1504 1.6504 1.1504 0.46667 0 0.85039-0.18216 1.1504-0.54883 0-0.0333 0.0155-0.0508 0.0488-0.0508l0.90039-0.84961h0.0508c0.93333-0.83333 1.5322-1.5329 1.7988-2.0996l0.15039-0.30078v-0.0508c0.56667-1.0333 0.58399-1.8996 0.0508-2.5996-0.46667-0.6-0.98411-0.99922-1.5508-1.1992zm-10.951 2.1504c-1.3667 0.2-2.1651 0.88216-2.3984 2.0488-0.16667 0.86667-0.0349 1.6671 0.39844 2.4004 0.26667 0.4 0.71823 0.9 1.3516 1.5l0.0488 0.0508 0.15039 0.0996c0.0333 0 0.0508 0.0155 0.0508 0.0488 0.46667 0.43333 0.89883 0.66784 1.2988 0.70117 0.53333 0 0.9345-0.28294 1.2012-0.84961 0.0333-0.0667 0.0818-0.11706 0.14844-0.15039 0.0333-0.0667 0.10117-0.0996 0.20117-0.0996l0.15039-0.0508c0.43333-0.2 0.69883-0.34922 0.79883-0.44922h0.0508c0.26667-0.2 0.44883-0.4345 0.54883-0.70117v-0.0488c0.23333-0.86666 7.8e-4 -1.7833-0.69922-2.75-0.86667-1.1667-1.8996-1.75-3.0996-1.75zm23 7.3496c-1.3667 0-2.2484 0.55039-2.6484 1.6504-0.26667 0.7-1.0516 1.3822-2.3516 2.0488l-0.29883 0.15039c-0.33333 0.16667-0.4845 0.46706-0.45117 0.90039 0.0314 0.37656 0.27428 0.61172 0.66016 0.75195l0.33984 0.0469 0.0508 0.0508 0.30078 0.0996h0.0996l0.65039 0.34961h-0.05079c0.96667 0.43333 1.6663 0.66784 2.0996 0.70117h0.20117c0.53333 0 1.5663-0.15117 3.0996-0.45117v0.0508l0.54883-0.15039v-0.0488c1.1-0.23333 1.85-0.81667 2.25-1.75 0.3-0.93333 0.11784-1.8016-0.54883-2.6016l-0.0508-0.0488c-0.33333-0.4-0.93216-0.80117-1.7988-1.2012l-0.40037-0.19933c-0.56667-0.23333-1.1345-0.34961-1.7012-0.34961zm-5.0898 5.502-0.01-2e-3 0.0508 0.0488c-0.0254-8e-3 -0.017-0.0382-0.041-0.0469zm-6.459-3.6523c-0.86667 0-2.0004 0.28294-3.4004 0.84961v-0.0488l-1.1992 0.5c-0.0667 0.0333-0.15 0.0488-0.25 0.0488s-0.18333-0.0329-0.25-0.0996l-0.65039-0.44922c-0.46667-0.2-1.0171-0.30078-1.6504-0.30078h-0.0996c-1.2 0-2.1671 0.41667-2.9004 1.25-0.6 0.6-0.88294 1.2841-0.84961 2.0508 0.0667 0.8 0.4 1.3988 1 1.7988 0.3 0.13333 0.76706 0.24961 1.4004 0.34961h0.19921c0.4 0 0.70039-0.0155 0.90039-0.0488 0.1 0 0.19883 0.0329 0.29883 0.0996 0.1 0.0333 0.18333 0.11667 0.25 0.25 0.63333 1.8 1.3174 3.1159 2.0508 3.9492l0.15039 0.15039c0.0333 0 0.0488 0.0174 0.0488 0.0508 1.2 1.4667 2.4171 2.2826 3.6504 2.4492h0.15042c0.66667 0 1.2674-0.34883 1.8008-1.0488 0.7-0.9 0.95-1.7333 0.75-2.5v-0.05083c-0.26667-1.0667-0.81706-2.0492-1.6504-2.9492-0.1-0.0667-0.15039-0.15-0.15039-0.25 0-0.13333 0.0175-0.23411 0.0508-0.30078 0.0333-0.1 0.0992-0.16589 0.19922-0.19922 0.1-0.0667 0.20078-0.10156 0.30078-0.10156l1.0996 0.10156h0.0996l0.30078 0.0488h0.29883l0.75-0.0996-0.0488 0.0508c0.86667-0.23333 1.45-0.65 1.75-1.25 0.16667-0.33333 0.21511-0.68411 0.14844-1.0508v-0.0508c-0.0667-0.83333-0.43294-1.5-1.0996-2h-0.0488c-0.43382-0.43319-1.0342-0.7492-1.8008-0.9492h-0.0508c-0.43333-0.16667-0.94883-0.25-1.5488-0.25zm-15.4 3.1992-0.40039 0.0508-3.9004 1.0508h0.0508c-1.7333 0.56667-2.6674 1.5822-2.8008 3.0488-0.13333 1.4333 0.50039 2.5671 1.9004 3.4004 0.56667 0.3 1.15 0.44922 1.75 0.44922 0.7 0 1.4171-0.19961 2.1504-0.59961 0.26667-0.2 0.41589-0.43255 0.44922-0.69922v-0.0508c0.0333-0.3-0.0655-0.55-0.29883-0.75-0.83333-0.7-1.0504-1.4171-0.65039-2.1504 0.53333-1 1.3667-1.6318 2.5-1.8984 0.5-0.16667 0.73255-0.4845 0.69922-0.95117v-0.0488c-0.0667-0.5-0.34961-0.76745-0.84961-0.80078l-0.34961-0.0508zm36.574 5.5879c-1.7333-0.14167-3.4746-0.10339-5.2246 0.11328-0.63333 0.0667-1.2826 0.1655-1.9492 0.29883-0.9 0.3-1.7333 0.70117-2.5 1.2012-0.0667 0.1-0.15 0.21628-0.25 0.34961-0.13333 0.0667-0.23411 0.18294-0.30078 0.34961-0.13333 0.13333-0.21667 0.3-0.25 0.5-0.0333 0.0333-0.0488 0.0837-0.0488 0.15039-0.0333 0.0333-0.0508 0.0663-0.0508 0.0996-0.0333 0.0333-0.0508 0.0663-0.0508 0.0996v0.10156c0 0.0667-0.0155 0.13255-0.0488 0.19922l-0.0508 0.15039c-0.0333 0.0333-0.0488 0.0837-0.0488 0.15039-0.0333 0.1-0.0508 0.21628-0.0508 0.34961-0.16667 0.83333-0.23255 1.6337-0.19922 2.4004l-0.75-0.0508c-0.5 2.4-0.68411 4.7663-0.55078 7.0996 0.23333 3.2667 0.79922 6.4333 1.6992 9.5 0.4 1.3 0.86706 2.5674 1.4004 3.8008 0 0.0667 0.0175 0.11706 0.0508 0.15039l-3.9004 3.9493c1.9667 2.9 4.3 5.5667 7 8 3.4667 2.9667 7.1992 5.4667 11.199 7.5 1.4 0.7 2.8167 1.4171 4.25 2.1504 1.3333 0.56667 2.7171 1.1171 4.1504 1.6504l2.1504-4.4004c-2.0333-0.3-3.95-0.74961-5.75-1.3496l-3.1504-1.4512 3.2012 1.0996c1.4 0.43333 2.7992 0.81706 4.1992 1.1504 3.1333 0.73333 6.333 1.1345 9.5996 1.2012 2.9333-0.0333 5.7667-0.50039 8.5-1.4004 1.9-0.6 3.5163-1.6504 4.8496-3.1504l0.65039-1.0508c0.0667-0.23333 0.11706-0.46589 0.15039-0.69922 0.1-0.83333 0.15039-1.6841 0.15039-2.5508-0.0667-0.9-0.21784-1.8651-0.45117-2.8984-0.4-2.3-0.96589-4.6178-1.6992-6.9512-1.6-4.5667-3.85-8.7004-6.75-12.4-2.9-3.7333-6.4-6.7992-10.5-9.1992-4.2333-2.3667-8.7333-4.1167-13.5-5.25-1.7167-0.5-3.4424-0.82122-5.1758-0.96289zm-39.523 4.4121c-0.43333 0-0.81706 0.21706-1.1504 0.65039-1.2 1.2667-2.0178 2.2841-2.4512 3.0508-0.73333 1.2333-0.98333 2.5667-0.75 4 0.23333 1.5333 1.2004 2.5333 2.9004 3 0.0667 0 0.1345 0.0329 0.20117 0.0996 0.0667 0.0667 0.11511 0.15 0.14844 0.25 0.0333 0.1 0.0333 0.20078 0 0.30078l-0.19922 0.54883h-0.0508c-0.23333 0.5-0.34961 0.88372-0.34961 1.1504v0.15039c0 2.3 1.0174 3.9492 3.0508 4.9492h-0.0508c0.6 0.26667 1.2008 0.40039 1.8008 0.40039 0.72912 0 1.625-0.25182 2.6836-0.74609 0.61821-0.43834 1.1759-1.1938 1.666-2.3047 0.0326-0.29336-0.0197-0.55164-0.14648-0.78125-0.16381-0.23391-0.37459-0.38689-0.6543-0.41797l-1.0996-0.0996c-0.0667 0-0.11706-0.0174-0.15039-0.0508-1.4-0.63333-1.9659-1.6663-1.6992-3.0996v-0.0508c0.13333-0.7 0.13333-1.2155 0-1.5488-0.0333-0.1-0.0508-0.18333-0.0508-0.25 0.0333-0.1 0.0837-0.18333 0.15039-0.25 0.6-0.73333 1.0671-1.6345 1.4004-2.7012 0.0333-0.3 0.26589-0.88334 0.69922-1.75l0.45117-1c0.0667-0.16667 0.0822-0.34883 0.0488-0.54883l0.0508 0.0488c-0.1-0.23333-0.21628-0.4-0.34961-0.5-0.0333 0-0.0508-0.0155-0.0508-0.0488-0.13333-0.13333-0.3155-0.20117-0.54883-0.20117-0.2 0-0.35117 0.0349-0.45117 0.10156l-0.0488 0.0488c-0.16667 0.1-0.45156 0.23372-0.85156 0.40039h-0.0488l-0.30078 0.0996h-0.0488l-0.60156 0.0996h-0.0996c-0.96667 0-1.5655-0.5-1.7988-1.5-0.0333-0.0667-0.0508-0.11511-0.0508-0.14844v-0.10156l-0.15039-0.5c-0.23333-0.5-0.58216-0.75-1.0488-0.75zm7.3027 14.719c0.0119 0.017 0.0356 0.0132 0.0469 0.0312l-0.0508-0.0488c3e-3 5e-3 4.6e-4 0.0124 4e-3 0.0176zm-1.5195 3.0859c-0.0125 9e-3 -0.0207 0.0383-0.0332 0.0469l0.0488-0.0508c-6e-3 3e-3 -0.01 4.6e-4 -0.0156 4e-3zm9.166-12.354c-0.56667 0-0.9 0.31589-1 0.94922 0 0.0333-0.0175 0.0663-0.0508 0.0996-0.16667 0.36667-0.5 0.71745-1 1.0508-0.46667 0.33333-0.89883 0.5-1.2988 0.5h-0.20119c-0.33333-0.13333-0.56589-0.19922-0.69922-0.19922-0.33333 0-0.60078 0.11628-0.80078 0.34961-0.2 0.3-0.26589 0.68373-0.19922 1.1504v0.0488c0.2 1.1 0.43255 1.9663 0.69922 2.5996 0.53333 1.1333 1.3182 1.9667 2.3516 2.5v0.0508c0.46667 0.23333 0.89883 0.36706 1.2988 0.40039 0.1 0 0.20078 0.0504 0.30078 0.15039 0.0667 0.0333 0.11706 0.11667 0.15039 0.25l0.0489 0.19922v-0.0996c0.5 1.2333 0.91667 2.0822 1.25 2.5488 0.86667 1.2 1.8512 1.8182 2.9512 1.8516 0.7 0 1.3667-0.20156 2-0.60156 0.63333-0.43333 1.0984-0.99922 1.3984-1.6992v-0.0508c0.13333-0.36667 0.2845-0.99844 0.45117-1.8984l0.0488-0.40039v-0.25l0.0508-0.45117c0-0.5-0.0329-0.84883-0.0996-1.0488-0.0333-0.0667-0.0508-0.1345-0.0508-0.20117v-0.0488c0-0.23333-0.0504-0.46784-0.15039-0.70117-0.2-0.46667-0.58177-0.69922-1.1484-0.69922-0.2 0-0.35117 0.0329-0.45117 0.0996-0.1 0.0333-0.19883 0.0333-0.29883 0l-1.1016-0.1992c-0.1-0.0333-0.18333-0.0837-0.25-0.15039-0.23333-0.23333-0.49883-0.36706-0.79883-0.40039-0.0667 0-0.1345-0.0155-0.20117-0.0488-0.0667-0.0667-0.11511-0.1345-0.14844-0.20117l-0.35154-0.59965v0.0508c-0.76667-1.2-1.2318-2.3182-1.3984-3.3516v-0.0996c-0.0667-0.46667-0.21784-0.8-0.45117-1-0.0667-0.0333-0.0996-0.0663-0.0996-0.0996-0.16667-0.23333-0.41667-0.34961-0.75-0.34961z" fill="#ef1d1e"/>
 <path d="m21.051 3.5c-0.9242 1.6134-1.1413 3.2471-0.65039 4.9004 0.4 1.3333 1.2004 2.2655 2.4004 2.7988 1.2 0.56666 2.5004 0.65 3.9004 0.25 0.1333 0 0.39883-0.11628 0.79883-0.34961 0.4-0.1 0.70039 0.13451 0.90039 0.70117 0.6 1.6 1.7996 2.6 3.5996 3 1.8333 0.43333 3.3837 0.0826 4.6504-1.0508l0.40039-0.30078 0.0508 0.5c0.3333 1.0667 0.54844 1.6849 0.64844 1.8516 0.6667 1.2667 1.8179 2.0826 3.4512 2.4492 1.6 0.36667 2.9663 0.11667 4.0996-0.75 0.1-0.1 0.24922-0.1 0.44922 0 0.8667 0.6 1.5179 0.99922 1.9512 1.1992 1 0.46666 2.1667 0.48393 3.5 0.0508 1.3-0.4 2.2496-1.0841 2.8496-2.0508 0.1667-0.5 0.30039-0.86628 0.40039-1.0996 0.1667-0.46667 0.44961-0.73216 0.84961-0.79883h0.5c0.4667 0 0.94922-0.0833 1.4492-0.25 0.8-0.23333 1.9667-0.61706 3.5-1.1504 1.3333-0.36667 2.5504-0.45 3.6504-0.25 0.6667 0.13333 1.1667 0.43373 1.5 0.90039 0.3333 0.46667 0.43408 1.0151 0.30078 1.6484-0.067 0.36667-0.25078 0.61667-0.55078 0.75-0.3667 0.0667-0.6167 0.15-0.75 0.25-1.0333 0.73333-1.6825 1.7004-1.9492 2.9004-0.3 1.2333-0.1333 2.4504 0.5 3.6504 0.5333 1.0667 1.5004 1.8671 2.9004 2.4004 1.2666 0.5 2.4663 0.63372 3.5996 0.40039 0.1667-0.0333 0.43213-0.15156 0.79883-0.35156 0.3333-0.13333 0.60078-0.0829 0.80078 0.15039 0.3667 0.4 0.88408 0.73333 1.5508 1 0.3667 0.16667 0.93252 0.40117 1.6992 0.70117 0.7333 0.36667 1.7004 0.45 2.9004 0.25l0.19922-0.0508c0.9-0.16667 1.5163-0.31589 1.8496-0.44922 0.7-0.23333 1.2679-0.58411 1.7012-1.0508 0.1-0.1 0.24922-0.29961 0.44922-0.59961 0.1667-0.23333 0.35078-0.30117 0.55078-0.20117 0.3 0.1 0.66631 0.1 1.0996 0 0.5-0.1 0.86631-0.13303 1.0996-0.0996l0.45117-0.0996c0 0.33333-0.0178 0.51745-0.0508 0.55078-0.4333 0.93333-0.48369 1.8984-0.15039 2.8984 0.6667 2.3667 1.8004 4.1012 3.4004 5.2012 0.2333 0.16667 0.28369 0.33333 0.15039 0.5-1.0667 1.4-1.1675 3.1655-0.30078 5.2988 0.4 1.0333 1.0512 1.9016 1.9512 2.6016 1 0.76667 2.0155 1.1155 3.0488 1.0488 1.9667-0.1 3.7671-1.0322 5.4004-2.7988l-0.59961-0.80079c-0.9 0.66667-1.4329 1.0833-1.5996 1.25-0.6667 0.6-1.5 0.98372-2.5 1.1504-1.0333 0.13333-1.9016-0.0333-2.6016-0.5-1.5333-1.0333-2.3317-2.4829-2.3984-4.3496-0.067-1.5 0.46631-2.4341 1.5996-2.8008 0.4667-0.13333 0.61592-0.46667 0.44922-1-0.067-0.36667-0.33213-0.46745-0.79883-0.30078-0.7 0.2-1.3183-0.0829-1.8516-0.84961-1.1-1.5667-1.7667-2.7004-2-3.4004-0.4333-1.3333-0.21631-2.6492 0.65039-3.9492 0.067-0.1 0.15-0.20078 0.25-0.30078 0.3667-0.43333 1.0179-0.8655 1.9512-1.2988 1.1667-0.56667 2.0329-0.76628 2.5996-0.59961 1.4 0.36667 2.4833 0.89961 3.25 1.5996l0.29883 0.29883c0.6667 0.7 1.1183 1.4849 1.3516 2.3516 0.3 1.1667 0.14883 2.1996-0.45117 3.0996-0.6667 0.96667-1.4167 1.3659-2.25 1.1992-1.5667-0.33333-2.4833-1.3837-2.75-3.1504-0.033-0.43333 0.16631-0.93334 0.59961-1.5 0.067-0.0667 0.20039-0.18294 0.40039-0.34961 0.1333-0.13333 0.15038-0.26706 0.0508-0.40039-0.1333-0.23333-0.43369-0.1655-0.90039 0.20117-0.4 0.33333-0.65 0.61628-0.75 0.84961-0.4667 0.73333-0.49931 1.5841-0.0996 2.5508 0.3 0.8 0.8 1.4822 1.5 2.0488 1.1 0.93333 2.2822 1.1 3.5488 0.5 1.4333-0.63333 2.2512-1.8 2.4512-3.5 0.1333-1.3333-0.26787-2.6337-1.2012-3.9004-0.1333-0.2-0.28252-0.38216-0.44922-0.54883-0.7333-0.83333-1.5996-1.5-2.5996-2l-0.84961-0.20117c-0.3-0.1-0.48408-0.26667-0.55078-0.5-0.2333-1.0333 0.034-2.0818 0.80078-3.1484 0.8667-1.3333 1.9325-2.3682 3.1992-3.1016 0.7-0.4 1.45-0.69844 2.25-0.89844l-2e-5 -0.90042c-0.28315 0-0.67947 0.013-1 0.15039-0.4333 0.16667-0.85 0.34883-1.25 0.54883-2.0333 1-3.45 2.2829-4.25 3.8496-0.7667-1.4-1.7667-2.3322-3-2.7988-0.4333-0.16667-0.6833-0.26745-0.75-0.30078-0.1667-0.16667-0.10078-0.41667 0.19922-0.75 1.5333-1.6667 2.2175-3.6492 2.0508-5.9492-0.033-0.9-0.50039-1.6674-1.4004-2.3008-0.8667-0.66667-1.6825-0.86628-2.4492-0.59961-1.0667 0.3-2.0337 0.18372-2.9004-0.34961-0.9333-0.53333-2.0341-0.63411-3.3008-0.30078-1.0333 0.26667-1.9829 0.73372-2.8496 1.4004-0.1667 0.36667-0.34883 0.55078-0.54883 0.55078l-0.15038-0.05076h-0.10156c-1.0333-0.36667-1.8841-0.41706-2.5508-0.15039-0.4667 0.1-0.8-0.0337-1-0.40039-0.5333-0.93333-1.3337-1.3984-2.4004-1.3984-1.9667 0-3.9822 0.5155-6.0488 1.5488-0.033 0-0.13408 0.11628-0.30078 0.34961s-0.31592 0.35156-0.44922 0.35156c-0.1667 0-0.3333-0.15117-0.5-0.45117-0.3333-0.66667-0.9167-1.1492-1.75-1.4492-0.8-0.3-1.5849-0.36784-2.3516-0.20117-0.9667 0.23333-1.8155 0.33411-2.5488 0.30078-1.3-0.1-2.3329 0.34961-3.0996 1.3496-0.033 0.1-0.068 0.23372-0.10156 0.40039-0.067 0.16667-0.19844 0.25-0.39844 0.25-0.6667-0.0333-1.3333 0.23412-2 0.80078-0.7 0.53333-1.1341 1.1167-1.3008 1.75-0.4333-0.3-1.0167-0.43372-1.75-0.40039-1 0.0333-1.6337 0.0159-1.9004-0.0508 0.5-0.33333 0.71709-0.84883 0.65039-1.5488-0.067-0.7-0.36709-1.2349-0.90039-1.6016-0.2-0.13333-0.56631-0.26511-1.0996-0.39844-0.4667-0.1-0.78252-0.23372-0.94922-0.40039-0.9667-1.0333-1.9183-1.5663-2.8516-1.5996-0.3333-0.0333-0.75 0.0326-1.25 0.19922-0.6 0.16667-0.99922 0.26745-1.1992 0.30078l-1.1992 0.0996c-0.4667 0.0333-0.86787 0.0992-1.2012 0.19922-0.7 0.26667-1.1825 0.70078-1.4492 1.3008-0.1333 0.2-0.11582 0.38216 0.0508 0.54883 0.1 0.1 0.25117 0.23372 0.45117 0.40039 0.067 0.0667 0.18291 0.15 0.34961 0.25 0.1667 0.0667 0.28291 0.16745 0.34961 0.30078 0.5667 1.1333 0.86709 1.8504 0.90039 2.1504 0.2 1.3333 0.016 2.3333-0.55078 3-0.5333 0.63333-1.4325 1.0655-2.6992 1.2988-0.9 0.2-1.8341 0.0178-2.8008-0.54883-0.9667-0.6-1.4821-1.3171-1.5488-2.1504-0.1-1.1-0.6833-1.4508-1.75-1.0508-1.1 0.4-2.2008 0.58411-3.3008 0.55078-0.7667-0.0333-1.4663-0.36667-2.0996-1-0.6-0.6-0.91592-1.2841-0.94922-2.0508-0.064-1.3644 0.23424-2.6474 0.89844-3.8496zm19.801 0.86328c0.4167 0.0417 0.8333 0.17005 1.25 0.38672 0.8333 0.4 1.2655 0.95039 1.2988 1.6504 0.033 0.53333-0.1333 1.0333-0.5 1.5-0.2333 0.26667-0.65 0.6155-1.25 1.0488l-1.5996 0.95117h-0.30078l0.25-0.40039c0.7667-0.66667 1.1833-1.4671 1.25-2.4004 0-1.3333-0.54844-2.1996-1.6484-2.5996 0.4167-0.13333 0.8333-0.17839 1.25-0.13672zm-3.1016 0.6875c1.1 0.16667 1.8171 0.58334 2.1504 1.25 0.4333 0.96667 0.017 1.8988-1.25 2.7988-0.5667 0.43333-0.84961 0.4506-0.84961 0.0508 0.067-0.53333 0.067-0.85117 0-0.95117-0.7667-1.1333-1.3171-1.8155-1.6504-2.0488l-0.29883-0.25c0.3-0.3 0.48213-0.46667 0.54883-0.5zm22.594 0.29297c0.5375 0.0125 1.0566 0.23125 1.5566 0.65625 0.7 0.56667 1.0333 1.2159 1 1.9492 0 0.56666-0.31592 1.0667-0.94922 1.5-0.6 0.43333-1.1679 0.55156-1.7012 0.35156-0.067-0.0333-0.0818-0.1845-0.0488-0.45117 0.033-0.3 0.084-0.53255 0.15039-0.69922 0.4-1 0.16553-1.9012-0.70117-2.7012l-0.29883-0.29883 0.44922-0.25c0.1833-0.0417 0.36377-0.0608 0.54297-0.0566zm21.406 0.0566c0.5-0.0667 1.0833 0.13294 1.75 0.59961 0.7333 0.5 1.1675 1 1.3008 1.5l0.5 2.3008c-0.4 2.0333-1.2004 3.7833-2.4004 5.25-0.1333 0.13333-0.3833 0.24961-0.75 0.34961l-0.90039 0.15039c-0.2 0.0667-0.64961 0.36511-1.3496 0.89844l-0.25 0.25c-0.067 0-0.0996-0.0484-0.0996-0.14844-0.033-0.1-0.21748-0.20078-0.55078-0.30078-0.2333-0.1-0.26591-0.26667-0.0996-0.5 0.8333-1.2 1.1667-2.6496 1-4.3496-0.1667-1.6333-0.76553-2.9841-1.7988-4.0508-0.2333-0.23333-0.3167-0.43294-0.25-0.59961 0.033-0.1 0.34922-0.26667 0.94922-0.5 1.1667-0.5 2.1492-0.78294 2.9492-0.84961zm-11.508 0.34375c0.3729 4e-3 0.72529 0.0388 1.0586 0.10547 0.7333 0.2 1.15 0.66706 1.25 1.4004 0.067 0.76667 0.41748 0.95078 1.0508 0.55078 1.1333-0.6 2.1817-0.56697 3.1484 0.0996l0.10156 0.09966c0.8333 0.56667 1.3992 1.4329 1.6992 2.5996 0.3333 1.2667 0.25 2.6-0.25 4-0.2 0.66667-0.5333 0.91667-1 0.75-0.1333-0.0333-0.28252-0.0663-0.44922-0.0996-0.5667-0.13333-1.15-0.1003-1.75 0.0996-0.3 0.1-0.41826-0.0337-0.35156-0.40039 0.2333-1.3333-0.23174-2.533-1.3984-3.5996-0.4667-0.46667-1.2012-0.76706-2.2012-0.90039-1.0667-0.16667-1.8496-0.0833-2.3496 0.25-0.3667 0.2-0.51592 0.41706-0.44922 0.65039-1.6-0.86667-2.9508-0.75039-4.0508 0.34961l-0.40039 0.0508c-1.1667-0.0667-2.9671 0.31706-5.4004 1.1504-0.7333 0.26667-1.8651 0.56706-3.3984 0.90039l-0.55078 0.14842c-0.2 0.0333-0.31631-0.05-0.34961-0.25-0.067-0.26667-0.13447-0.41589-0.20117-0.44922 0.7667 0.16667 1.4508-0.14922 2.0508-0.94922 0.2-0.26667 0.50039-0.43333 0.90039-0.5 0.5333-0.0667 0.84922-0.1345 0.94922-0.20117 0.1333-0.0667 0.36787-0.13255 0.70117-0.19922 0.3333-0.43333 0.86631-0.65039 1.5996-0.65039 0.9 0 1.4659-0.0504 1.6992-0.15039 1.1333-0.43333 1.7496-1.0322 1.8496-1.7988 0.1-0.53333 0.36748-1.0004 0.80078-1.4004 0.2-0.16667 0.80078-0.44961 1.8008-0.84961 1.475-0.55 2.7719-0.81914 3.8906-0.80664zm-14 0.20508c0.1396 0 0.2749 0.0174 0.4082 0.0508 0.8667 0 1.5663 0.18411 2.0996 0.55078 0.5667 0.36667 0.8167 0.83177 0.75 1.3984-0.2 1.6333-0.89961 2.55-2.0996 2.75-0.4 0.0667-0.59961-0.0651-0.59961-0.39844v-0.90039c-0.3667-0.73333-0.6167-1.1674-0.75-1.3008-0.3333-0.43333-0.76748-0.68333-1.3008-0.75-0.1667-0.1-0.29844-0.16589-0.39844-0.19922 0.1333-0.16667 0.31553-0.41667 0.54883-0.75 0.475-0.3 0.9231-0.45117 1.3418-0.45117zm30.459 0.25c0.8667-0.0667 1.5488 0.15039 2.0488 0.65039 0.5333 0.53333 0.7833 1.2678 0.75 2.2012 0.033 1.1333-0.26514 2.2167-0.89844 3.25-0.4333 0.7-1.1504 1.5663-2.1504 2.5996-0.1333 0.13333-0.36787 0.26706-0.70117 0.40039-0.3333 0.1-0.5833 0.13303-0.75 0.0996-0.7333-0.16667-0.96592-0.43411-0.69922-0.80078 0.5-0.36667 0.76748-0.63216 0.80078-0.79883 0.033-0.26667 0.29883-1.0516 0.79883-2.3516 0.3667-0.96667 0.46748-1.8155 0.30078-2.5488-0.1333-0.7-0.33291-1.45-0.59961-2.25-0.033-0.2 0.098-0.31628 0.39844-0.34961 0.1667-0.0333 0.40117-0.0682 0.70117-0.10156zm-42.201 0.1875c0.033-0.025 0.084-0.0197 0.15039 0.0137 0.7667 0.26667 1.1833 0.63294 1.25 1.0996 0.1 0.73333-0.21592 1.0996-0.94922 1.0996-0.6333 0.16667-1.1004 0.21706-1.4004 0.15039 0-0.0333 0.19961-0.38412 0.59961-1.0508 0.2333-0.4 0.33408-0.78177 0.30078-1.1484 0-0.0833 0.0148-0.13906 0.0488-0.16406zm8.8516 1.6133c1.0667-0.0667 1.7992 0.40039 2.1992 1.4004 0.1 0.16667 0.16592 0.39922 0.19922 0.69922-0.033 1.2333-0.71553 2.0008-2.0488 2.3008-0.1333 0.0333-0.3833-0.21667-0.75-0.75-0.5333-0.8-1.2175-1.3678-2.0508-1.7012l-0.0996-0.14844c0.7-0.73333 1.0837-1.1345 1.1504-1.2012 0.4333-0.36667 0.90039-0.56628 1.4004-0.59961zm-7.8223 1.504c0.3063-0.0438 0.39648 0.0707 0.27148 0.3457l-0.34961 0.84961c-0.4333 0.83333-0.25117 1.6182 0.54883 2.3516 0.7667 0.83333 1.6349 1.0988 2.6016 0.79883 1.0667-0.3 1.7663-0.68373 2.0996-1.1504 0.067-0.0667 0.13252-0.15 0.19922-0.25 0.067-0.1 0.0344-0.19883-0.0996-0.29883l-0.30079-0.15048c-0.1333 0-0.24961 0.0833-0.34961 0.25-0.3333 0.4-0.8333 0.63255-1.5 0.69922-0.6667 0.0667-1.2171-0.0496-1.6504-0.34961-0.6-0.5-0.7667-1.0988-0.5-1.7988 0.2-0.56666 0.66709-0.76823 1.4004-0.60156 1.1667 0.0333 2.2171 0.40156 3.1504 1.1016 0.6 0.46667 1.1329 1.05 1.5996 1.75 0.033 0.1 0.0182 0.26667-0.0488 0.5-0.1333 0.43333-0.10069 0.73177 0.0996 0.89844 0.5667 0.4 0.78369 0.81667 0.65039 1.25-0.1 0.3-0.40039 0.65078-0.90039 1.0508-1.0333 0.83333-2.1341 1.1996-3.3008 1.0996s-2.2325-0.63294-3.1992-1.5996c-0.3667-0.36667-0.63408-0.55078-0.80078-0.55078-0.2667-0.0333-0.48369 0.23411-0.65039 0.80078-0.1333 0.43333-0.41631 0.66589-0.84961 0.69922-0.5667 0-0.96592 0.0174-1.1992 0.0508-0.6667 0.13333-1.4341-0.0837-2.3008-0.65039-0.9-0.56667-1.4329-1.1829-1.5996-1.8496-0.5333-1.9 0.2167-3.2333 2.25-4 0.5-0.2 1.2325-0.39961 2.1992-0.59961 1-0.2 1.7171-0.38411 2.1504-0.55078 0.15-0.05 0.27681-0.0811 0.37891-0.0957zm24.834 1.7343c0.4417 0.025 0.82002 0.11172 1.1367 0.26172 1.4333 0.63333 2.1833 1.7826 2.25 3.4492 0 0.56666-0.54844 1.0841-1.6484 1.5508-0.3 0.16667-0.8-0.10078-1.5-0.80078-0.1333-0.13333-0.15038-0.34844-0.0508-0.64844 0.1-0.4 0.13261-0.68489 0.0996-0.85156-0.3-1.3-0.89883-2.1818-1.7988-2.6484l-0.10156-0.10156 0.10156-0.0996c0.5667-0.1 1.07-0.13633 1.5117-0.11133zm-4.4629 0.51172c0.9333-0.0667 1.7667 0.16589 2.5 0.69922 0.8 0.56666 1.1837 1.3341 1.1504 2.3008-0.033 0.7-0.38408 1.0508-1.0508 1.0508h-1c0.5667-1.3 0.034-2.4512-1.5996-3.4512l-0.5-0.29883c0.1333-0.0667 0.3-0.16745 0.5-0.30078zm20.732 3.9023c2.0745 7e-3 3.4464 0.85521 4.1172 2.5469 0.2333 0.6 0.16748 1.2008-0.19922 1.8008-0.5333 0.7-0.93252 1.2-1.1992 1.5-0.3667 0.43333-0.71748 0.65039-1.0508 0.65039 0.1333-0.43333 0.19922-0.76667 0.19922-1 0.2667-1.8333-0.46592-3.4845-2.1992-4.9512l-0.59961-0.5c0.325-0.0333 0.63534-0.0479 0.93164-0.0469zm-3.6816 0.54688c1.1333 0 1.9667 0.25 2.5 0.75 0.6333 0.66666 1.0829 1.2016 1.3496 1.6016 0.3667 0.63333 0.55078 1.3 0.55078 2-0.033 0.66667-0.43447 1.4496-1.2012 2.3496-0.8333 0.93333-1.6163 1.3655-2.3496 1.2988-0.033 0-0.3667 0.0678-1 0.20117 1.3333-0.76667 2.0329-1.5671 2.0996-2.4004 0.1333-1.6333-0.5333-2.9008-2-3.8008l-1.0488-0.59961c-0.4333-0.2-0.85-0.28333-1.25-0.25l-0.25-0.0996 0.0996-0.19922c0.5-0.53333 1.3333-0.81823 2.5-0.85156zm-6.625 0.17578c0.1833 0 0.35869 9e-3 0.52539 0.0254 0.9333 0.13333 1.6484 0.63333 2.1484 1.5 0.1333 0.23333 0.68369 0.31667 1.6504 0.25h0.0996c0.9 0.16667 1.65 0.61628 2.25 1.3496 0.6 0.76667 0.83447 1.5671 0.70117 2.4004-0.2 1-0.88408 1.5504-2.0508 1.6504-0.4333 0.0667-0.6833 0.13255-0.75 0.19922-0.1667 0.13333-0.1667 0.40078 0 0.80078 0.033 0.0667 0.0508 0.11511 0.0508 0.14844 0.1333 0.5 0.017 0.86823-0.34961 1.1016-0.1 0.1-0.46826 0.24922-1.1016 0.44922-0.7667 0.3-1.4159 0.46667-1.9492 0.5-0.7 0.1-1.3996 0.0496-2.0996-0.15039-1.6333-0.46667-2.8329-1.1333-3.5996-2-0.2667-0.26667-0.58447-0.2997-0.95117-0.0996-1.3 0.7-2.7167 0.75039-4.25 0.15039-1.6-0.66667-2.4663-1.7674-2.5996-3.3008-0.1-1.2 0.16748-2.1671 0.80078-2.9004 0.6-0.7 1.4817-1.1322 2.6484-1.2988l1.9512-0.20117c0.9667-0.13333 1.7321 0.2349 2.2988 1.1016 0.1 0.13333 0.2667 0.19922 0.5 0.19922s0.38447-0.0833 0.45117-0.25c0.2667-0.6 0.69883-1.0167 1.2988-1.25 0.3-0.13333 0.8833-0.24961 1.75-0.34961 0.2-0.0167 0.39287-0.0254 0.57617-0.0254zm-1.1133 2.75c-0.5583 0-1.1296 0.0746-1.7129 0.22461-0.4667 0.16667-0.93174 0.56784-1.3984 1.2012s-0.65078 1.1488-0.55078 1.5488c0.2 0.83333 0.68252 1.5504 1.4492 2.1504 0.8 0.63333 1.6508 0.88333 2.5508 0.75 0.4667 0 0.9667-0.10078 1.5-0.30078 0.6667-0.26667 1.3837-0.71628 2.1504-1.3496 0.3-0.23333 0.4667-0.36706 0.5-0.40039 0.1667-0.23333 0.1667-0.44844 0-0.64844-0.1333-0.2-0.4667-0.15156-1 0.14844-0.7667 0.5-1.3829 0.86823-1.8496 1.1016l-0.30078 0.0996c-0.8667 0.33333-1.7 0.25-2.5-0.25-0.5-0.3-0.85078-0.73411-1.0508-1.3008-0.2333-0.6-0.16553-1.0322 0.20117-1.2988 1.2667-0.93333 2.4837-1.1349 3.6504-0.60156 0.4 0.2 0.68291 0.13411 0.84961-0.19922 0.067-0.33333-0.13291-0.53294-0.59961-0.59961-0.067-0.0333-0.15-0.0508-0.25-0.0508-0.5333-0.15-1.0804-0.22461-1.6387-0.22461zm-19.562 7.7754c-0.7333-0.16667-1.4 0-2 0.5-0.8667 0.73333-1.4325 1.7004-1.6992 2.9004-0.1 0.36667-0.23369 1.483-0.40039 3.3496-0.1 0-0.15039-0.0329-0.15039-0.0996-0.3-1.3-1.1333-2.6178-2.5-3.9512-0.3333-0.33333-0.56592-0.53294-0.69922-0.59961-0.3333-0.16667-0.6667-0.1494-1 0.0508-0.9333 0.53333-1.3675 1.5488-1.3008 3.0488l-0.0488 0.45117-0.25-0.0508c-0.33363-0.56685-0.85081-1.0996-1.5508-1.5996-0.8333-0.53333-1.4496-0.95-1.8496-1.25-1.3667-0.93333-2.4171-0.68333-3.1504 0.75-0.033 0.0333-0.0508 0.2155-0.0508 0.54883-0.033 0.2-0.1167 0.26784-0.25 0.20117-1.1667-0.56667-1.9496-0.91745-2.3496-1.0508-0.8333-0.23333-1.6492-0.13255-2.4492 0.30078-0.7667 0.43333-1.1833 1.0167-1.25 1.75-0.033 0.93333 0.3 1.8655 1 2.7988-1.6667-0.43333-2.5833-0.66589-2.75-0.69922-1.0333-0.2-1.9675-0.13411-2.8008 0.19922-0.9333 0.36667-1.5321 0.86667-1.7988 1.5-0.2333 0.66666-0.084 1.3682 0.44922 2.1016 1.3 1.8 3.5171 2.9318 6.6504 3.3984 0.4333 0.0667 1.4004 0.10156 2.9004 0.10156 0.7667 0 2.3655-0.26745 4.7988-0.80078 0.2333-0.0667 0.65-0.23333 1.25-0.5 0.5-0.26667 0.93408-0.40039 1.3008-0.40039l1.0488 0.0508c0.4333 0.0333 0.78408 0.0159 1.0508-0.0508 0.4333-0.1 0.74922-0.0167 0.94922 0.25 0.014 0.0143 0.10509 0.24339 0.15039 0.34375 7e-4 2e-3 -8e-4 4e-3 0 6e-3l0.31836 0.8789c0.2135 0.61702 0.54955 1.8667 0.93555 3.3809 0.3479 1.4603 0.53204 2.8147 0.43164 3.9863-0.049 0.63544-0.23346 1.3889-0.37696 2.1074-0.2621 1.2318-0.59937 2.4809-1.1055 3.7676-0.3409 0.96557-0.60973 1.9745-1.0527 2.8789-0.1221 0.36631-0.24509 0.58301-0.36719 0.80664-0.094 0.1238-0.22867 0.23532-0.29687 0.36719-0.2572 0.30607-0.55783 0.51344-0.98633 0.42773-0.1246-0.0284-0.2236 0.0353-0.3457 0.0156-0.2584-0.045-0.54641-0.11659-0.75391-0.11719-0.2274 3e-3 -0.45589 0.13252-0.68359 0.17773-1.1306 0.16826-2.1839 0.61486-3.0664 1.6738-0.8676 1.0195-1.3195 2.2913-1.5801 3.6777-0.01 6e-3 -0.0105 0.0179-0.0195 0.0215l-0.14648 0.38867c-0.048 0.21177 0.0866 0.31897 0.0586 0.51953-0.042 0.47167-0.18311 0.88289-0.16211 1.3926 0 0.33333-0.0326 0.46511-0.0996 0.39844-0.3-0.2-0.65078-0.29883-1.0508-0.29883-0.5 0-0.86631-0.0174-1.0996-0.0508-0.2333 0-0.33408-0.0988-0.30078-0.29883 0.067-0.63333-0.1-1.1682-0.5-1.6016-0.3667-0.43333-0.88213-0.66589-1.5488-0.69922-0.2662-0.0333-0.95028 0.0829-2.0508 0.34961 0.2687-0.0703 0.53618-0.33581 0.80078-0.79883 1.3666-1.3667 2.1496-2.2 2.3496-2.5 0.2113-0.28481 0.12989-0.62619 0.27539-0.92383 0.293-0.61104 0.64571-1.2051 0.72461-1.877v-0.0508c0.015-0.0971-0.0685-0.19217-0.0625-0.28906 0-0.0748 0.0695-0.13546 0.0625-0.21094-0.067-0.9-0.25078-1.5996-0.55078-2.0996-0.3333-0.63333-0.86631-1.1004-1.5996-1.4004-0.2-0.1-0.26592-0.23177-0.19922-0.39844 0.4-0.86666 0.65-1.4849 0.75-1.8516 0.2333-0.7 0.29922-1.3667 0.19922-2-0.1051-0.65163-0.53664-1.2585-1.1191-1.8438-0.042-0.0463-0.0351-0.11098-0.0801-0.15625-0.1196-0.11827-0.28831-0.1601-0.41601-0.26563-0.2379-0.19342-0.39255-0.39819-0.68555-0.58398-1.3333-0.9-2.5-1.1829-3.5-0.84961-0.7333 0.16667-1.2663 0.31589-1.5996 0.44922-0.084 0.0281-0.11105 0.0949-0.18945 0.12695-0.2125 0.0874-0.45536 0.0573-0.66016 0.17383-0.1009 0.0829-0.21721 0.11597-0.34961 0.0996-0.1038-0.0217-0.20458-0.0876-0.30078-0.19922-0.015-0.0181-0.0124-0.0496-0.0234-0.0703-0.026-0.11238-0.0622-0.21122-0.0762-0.33789v-0.14258c-0.029-0.44952-0.12655-0.77947-0.18555-1.1758-0.023-0.2104-0.0345-0.55797-0.0625-0.67383-0.018-0.077-0.0504-0.10434-0.0684-0.17969-0.036-0.15818-0.04-0.3716-0.082-0.51953-0.1845-0.63058-0.4236-0.8255-0.625-1.3203-0.2133-0.52691-0.3719-1.2437-0.625-1.6309-0.058-0.0858-0.17327-0.10712-0.23437-0.18945-0.095-0.13053-0.16723-0.45459-0.26563-0.56055l-0.0488-0.0488c-1.1621-1.3128-2.5962-2.0473-4.3008-2.2012h-0.0508c-0.1058-0.0198-0.30336-0.0236-0.47656-0.0312-0.8258-0.0462-1.5924 0.0732-2.2734 0.43164-0.7508 0.42437-1.3196 0.30441-1.7188-0.32617-0.2317-0.29286-0.44437-0.61571-0.73047-0.82422-0.1031-0.0773-0.22332-0.0511-0.32812-0.11719-0.3966-0.27377-0.86537-0.42817-1.3887-0.49219-0.1832-0.0303-0.34511-0.18862-0.53321-0.18945-0.095 1e-3 -0.30005 0.11421-0.40625 0.12695-0.1453 0.014-0.24173-0.0538-0.39453-0.0273-1.2306 0.15662-2.2243 0.75641-3.1094 1.5586-0.4609 0.35959-0.87128 0.7693-1.2051 1.2539-0.01 0.0155-0.0252 0.0215-0.0352 0.0371-0.022 0.0322-0.02 0.0635-0.041 0.0957-0.2716 0.41631-0.57582 0.80023-0.75782 1.3047-0.051 0.16863 0.0184 0.31296-0.0176 0.47852-0.089 0.37013-0.0481 0.73433-0.0391 1.0996 0 0.42119-0.15012 0.87177-0.0449 1.2715v0.0508c0.041 0.12591 0.076 0.24219 0.10156 0.34961 0.058 0.1431 0.058 0.27682 0 0.40039-0.049 0.12761-0.1327 0.21094-0.25 0.25-0.64889 0.26972-0.99738 0.67349-1.3965 1.0547-0.1328 0.11659-0.2727 0.10627-0.4043 0.24414-0.032 0.0371-0.0237 0.0648-0.0547 0.10156-0.045 0.059-0.15757 0.0872-0.19727 0.14844-0.053 0.0971-0.01 0.23278-0.0566 0.33203-0.3322 0.49227-0.69684 0.99268-0.74414 1.418-0.051 0.52558 0.21291 0.98573 0.2539 1.4922 1e-3 0.32367-0.19414 0.56824-0.15234 0.9082 0.056 0.44719 0.37815 0.73583 0.50195 1.1426 0.1757 0.50344 0.37545 1.002 0.65235 1.4844 0.2085 0.34825 0.21974 0.81389 0.49414 1.123l0.30078 0.25c0.033 0.0241 0.0508 0.0415 0.0508 0.0508 0.4074 0.42928 0.66955 0.56513 1.0273 0.89453 0.3071 0.30795 0.41639 0.65715 0.77149 0.95508 0.2333 0.16667 0.59961 0.41667 1.0996 0.75 0.3 0.33333 0.067 0.71706-0.69922 1.1504l-0.15039 0.14844c-0.3205 0.49527-0.20761 1.0988-0.34961 1.6387-0.089 0.34723-0.36679 0.51157-0.40039 0.91211-0.013 0.22292 0.078 0.36395 0.084 0.57227 0.01 0.22191-0.16621 0.39851-0.13281 0.62695 0.025 0.30846 0.25856 0.56123 0.35156 0.85156 0.083 0.26267 0.17864 0.51606 0.30664 0.74414 0.1266 0.22716 0.11732 0.49055 0.29102 0.70508 0.2485 0.32613 0.6093 0.42742 0.9082 0.65234 0.019 0.0118 0.022 0.0353 0.041 0.0469 0.017 0.0246 0.0338 0.042 0.0508 0.0508 0.025 0.0177 0.11023 0.0519 0.14453 0.0723 0.2766 0.17593 0.48819 0.4818 0.80469 0.57812 0.2667 0.1 0.40039 0.35 0.40039 0.75 0 0.46667 0.10078 0.74961 0.30078 0.84961l-0.0996 0.15039c-0.8 0.73333-1.1508 1.4833-1.0508 2.25 0.1 0.53333 0.48369 1.0992 1.1504 1.6992-0.9333 0.26667-1.6 0.50117-2 0.70117-1.2333 0.66667-1.8167 1.5659-1.75 2.6992 0.033 0.1 0.1167 0.26667 0.25 0.5 0.067 0.2-0.034 0.31628-0.30078 0.34961-1.3 0.2-2.2167 0.60117-2.75 1.2012-0.5667 0.63333-0.84961 1.5655-0.84961 2.7988 0.067 1.3667 0.70039 2.1845 1.9004 2.4512 0.1 0 0.1833 0.0659 0.25 0.19922l-0.15039 0.15039-1 0.59961c-0.9333 0.6-1.4663 1.6-1.5996 3-0.1333 1.4333 0.2 2.5341 1 3.3008 0.067 0.0667 0.29922 0.18294 0.69922 0.34961 0.2667 0.2 0.20078 0.45-0.19922 0.75-0.7 0.56667-1.1845 1.2333-1.4512 2-0.8667 2.4-0.38213 4.4155 1.4512 6.0488 1 0.86666 2.0659 1.2174 3.1992 1.0508 0.4667-0.0667 1.2012-0.43294 2.2012-1.0996-0.6 1.8-0.4333 3.3 0.5 4.5 0.2 0.23333 0.34922 0.43294 0.44922 0.59961 0.1667 0.0667 0.3333 0.15 0.5 0.25 0.3 0.2 0.53252 0.43255 0.69922 0.69922 0.067-0.0667 0.16748-0.0667 0.30078 0 0.3 0.16667 0.48408 0.2345 0.55078 0.20117l0.14844 0.15039c0.7063 0.10701 0.96101 0.26988 1.0078 0.45899-0.073 0.0779-0.24664 0.22195-0.30664 0.29101h-0.0508c-0.1262 0.17101-0.10343 0.3867-0.20703 0.56445-0.091 0.11597-0.3846 0.34201-0.3418 0.38477-0.2398 0.2569-0.1928 0.86865-0.2832 1.3106-0.037 0.20705-0.2039 0.37537-0.2168 0.58984-0.01 0.0748 0.0547 0.099 0.0527 0.17188-1e-3 0.20053-0.12232 0.25338-0.10352 0.47851 0.092 1.11 0.45216 1.8465 0.97266 2.3574 0.021 0.0218 0.0103 0.0706 0.0273 0.0918 0.032 0.0315 0.0338 0.0663 0.0508 0.0996 5e-4 1e-3 -5e-4 3e-3 0 4e-3 0.143 0.11226 0.0298 0.17646 0.0488 0.26562 0 0.0432 0.018 0.0911 0 0.13086 0 0.0876-0.0366 0.15352-0.0996 0.19922-0.1342 0.12456-0.14506 0.26659-0.25586 0.39453-0.2268 0.22383-0.48073 0.42048-0.64453 0.70703-0.048 0.12089-0.0255 0.26197-0.0606 0.38672-0.055 0.16578-0.0591 0.33905-0.0801 0.50977-0.03 0.23609-0.12397 0.45406-0.10937 0.70312v0.29883c0.1 0.5 0.21631 0.88372 0.34961 1.1504v0.0508c0.067-0.13333 0.11709-0.18372 0.15039-0.15039l0.15039 0.15039c0.2323 0.23856 0.4826 0.33883 0.7207 0.53125 0.1541 0.13386 0.19651 0.28958 0.37891 0.41797 0.134 0.0985 0.27506 0.0844 0.41016 0.16601 0.362 0.20995 0.73447 0.34027 1.1094 0.44922 0.1951 0.0509 0.38288 0.21715 0.58008 0.23438 0.1052 0.0103 0.1886 0.0452 0.25 0.10156 0.1044 0.091 0.17227 0.18984 0.20117 0.29883 0.018 0.10273 6.2e-4 0.20351-0.0508 0.30078-0.035 0.0773-0.0101 0.17772-0.0391 0.25586-0.7167 1.4944-1.1206 2.9364-1.0098 4.293 0.1 1.2 0.48174 2.2174 1.1484 3.0508l0.15039 0.25 0.0996 0.0508 0.10156 0.0996c0.6 0.6 1.2821 0.99922 2.0488 1.1992l0.75 0.20117 1.5508 0.0488 0.69922-0.0488c0.2-0.0333 0.50039-0.15156 0.90039-0.35156 0.2667 0.2 0.46631 0.53333 0.59961 1 0.039 0.071 0.099 0.13188 0.14258 0.20117h-15.441c-0.33183-8.6e-4 -0.60135 0.26778-0.60156 0.59961 2.1e-4 0.33183 0.26973 0.60047 0.60156 0.59961h16.684c0.68399 0.44095 1.4422 0.70384 2.3066 0.70703 0.056 3e-3 0.1019 0.0425 0.1582 0.043 0.1106 9e-4 0.2323-0.0362 0.3457-0.0449 0.2623-0.0263 0.47676 0.0641 0.75586-4e-3 0.5796-0.14958 0.96569-0.4572 1.4297-0.70117h28.047c0.551 0.27931 1.0923 0.54946 1.6484 0.83398 0.0128 7e-3 0.0258 0.0135 0.0391 0.0195 0.356 0.15129 0.72499 0.29838 1.0879 0.44727h-52.104c-0.33107 2.2e-4 -0.59939 0.26854-0.59961 0.59961 2.2e-4 0.33107 0.26854 0.59939 0.59961 0.59961h55.051c0.0172-6e-3 0.0342-0.0136 0.0508-0.0215 0.03 0.0114 0.0589 0.0238 0.0898 0.0352 0.29174 0.10895 0.61835-0.0234 0.75196-0.30469l1.0508-2.209h32.906c0.33107-2.2e-4 0.59939-0.26854 0.59961-0.59961-2.2e-4 -0.33107-0.26854-0.59939-0.59961-0.59961h-24.242c2.9905-0.034 5.8838-0.50975 8.6738-1.4277l0.01-2e-3c1.9959-0.63143 3.7118-1.7478 5.1113-3.3223 8e-3 -0.0237 0.0145-0.0478 0.0195-0.0723 0.0144-3e-3 0.0288-6e-3 0.043-0.01l0.64844-1.0508c0.0296-0.0467 0.0526-0.0974 0.0684-0.15039 0.074-0.25873 0.12872-0.52019 0.16602-0.78125 1e-5 -2e-3 1e-5 -4e-3 0-6e-3 1e-5 -2e-3 1e-5 -4e-3 0-6e-3 0.1015-0.85645 0.15429-1.7333 0.15429-2.623 5.1e-4 -0.0143 5.1e-4 -0.0287 0-0.043-0.069-0.93029-0.22393-1.9222-0.46093-2.9746-0.4046-2.3221-0.97575-4.6596-1.7148-7.0117-3e-3 -6e-3 -6e-3 -0.0118-0.01-0.0176-1.6204-4.6247-3.9017-8.8187-6.8418-12.57v-2e-3c-2.9455-3.7913-6.5068-6.9108-10.67-9.3477-3e-3 -2e-3 -6e-3 -4e-3 -0.01-6e-3 -2.9173-1.6309-5.9649-2.9658-9.1328-4.0176 0.049-0.42872 0.10779-0.89878 0.11719-1.1699 0.011-0.0123 0.0104-0.0271 0.0234-0.0391 0.077-0.0798 0.1599-0.13021 0.25-0.15039 0.1213-0.0165 0.22023 7.3e-4 0.29883 0.0508 0.637 0.31537 1.0537 0.49753 1.25 0.54883 0.4343 0.11512 0.72145 0.13627 1.0312 0.17187 0.058 0.0128 0.22893 0.0723 0.26953 0.0781 0.035 6e-3 0.0588-0.0221 0.0937-0.0176 0.027 7.8e-4 0.08 0.0176 0.10547 0.0176 0.057 2.1e-4 0.081-0.0598 0.13672-0.0625 0.4518 0.0129 0.89497 5.4e-4 1.2637-0.23633 1.0411-0.68323 1.6044-1.6954 1.7246-3.0137 0.067-0.36845-0.0566-0.74421-0.0996-1.1172-0.056-0.42459-0.12591-0.84619-0.29101-1.2461-0.084-0.19309-0.023-0.37998-0.13477-0.57422-0.049-0.11003-0.0648-0.2263-0.0488-0.34961 0.022-0.11211 0.073-0.21094 0.15039-0.29883 0.1114-0.0639 0.22771-0.0988 0.34961-0.10156h0.0488c0.773 6.9e-4 1.4576-0.1677 2.1543-0.3125 0.1016-0.0164 0.2523-0.0184 0.3457-0.0371 0.019-4e-3 0.0298-0.0158 0.0488-0.0195 0.1752-0.044 0.38273-0.0264 0.55273-0.0801 0.3727-0.10727 0.51301-0.34985 0.84571-0.48047 0.921-0.33916 1.7459-0.77039 2.4004-1.3652 0.3341-0.30058 0.59894-0.64115 0.83984-0.9961 0.2342-0.32234 0.58287-0.53466 0.76367-0.9082 0.2898-0.5797 0.234-1.2321 0.2793-1.8633 0-0.0736 0.0683-0.11263 0.0703-0.1875v-0.0488c0-0.0453-0.0186-0.0764-0.0176-0.12109-6e-4 -0.26811 0.16048-0.50219 0.11718-0.7793-0.036-0.24692-0.23979-0.32648-0.30468-0.54492-0.1846-0.7062-0.48834-1.3358-1.0195-1.8184-0.04-0.0309-0.0342-0.10759-0.0762-0.13672-0.1121-0.11215-0.0936-0.18745-0.0996-0.26953 7e-4 -0.0437-0.01-0.0873 0-0.13086 0.026-0.0543 0.0589-0.10121 0.0899-0.15039l1.1602-1.25c1.1-1.3333 1.4179-2.5988 0.95117-3.7988-0.061-0.14943-0.23233-0.20995-0.30273-0.35156-0.012-0.0325 0.015-0.0671 0-0.0996l-0.0508-0.0488c-0.2342-0.64851-0.87017-1.2707-1.7012-1.8809-0.1875-0.14244-0.23837-0.39421-0.44727-0.51953-0.2426-0.14984-0.54943-0.0885-0.80273-0.20312-0.7552-0.41399-1.5112-0.84258-2.248-0.84766h-0.55078c-0.1342 4e-3 -0.25051-0.0444-0.34961-0.14844-0.095-0.0799-0.14499-0.19817-0.15039-0.35156-0.013-0.22495-0.2306-0.35096-0.2793-0.5586-0.091-0.71111-0.38906-1.2956-0.88086-1.7617-0.052-0.0492-0.0338-0.13226-0.0898-0.17969-0.039-0.0321-0.13819-0.0543-0.17969-0.0859-0.1253-0.093-0.17541-0.23152-0.32031-0.3125-0.468-0.23399-1.2164-0.50475-1.9883-0.7793-0.1522-0.0516-0.19823-0.12217-0.36133-0.17187l-0.44922-0.15039 0.0488 0.0508c-0.6252-0.12839-1.1252-0.19427-1.5-0.19922-0.291 1.3e-4 -0.56992 0.10204-0.85742 0.13086-0.2407 0.028-0.44321-0.0883-0.69141-0.0312-0.1697 0.0349-0.25912 0.15652-0.41992 0.20117-0.2084 0.0488-0.42436 0.033-0.63086 0.0977-0.5998 0.2267-0.95137 0.55491-1.3555 0.86133-0.1111 0.0852-0.29133 0.0956-0.39453 0.18945-0.029 0.0272-0.0482 0.0795-0.0762 0.10742-0.055 0.055-0.17256 0.0855-0.22266 0.14258h-0.05041c-0.2672 0.36212-0.42617 0.82201-0.66797 1.207-0.2737 0.40742-0.59193 0.69823-0.83203 1.1934-0.065 0.11421-0.41033 0.95421-0.61133 1.4199-0.067 0.15479-0.17498 0.272-0.23828 0.42969-0.028 0.12591-0.096 0.20925-0.20117 0.25-0.1018 0.0813-0.21811 0.11428-0.34961 0.0996-0.1023-0.0235-0.20123-0.0893-0.29883-0.19922-0.2121-0.24522-0.49545-0.37524-0.75195-0.54883-0.085-0.0569-0.16225-0.26646-0.24805-0.30078-0.5667-0.2-0.71787-0.51784-0.45117-0.95117l0.45117-1.1992c0.7647-2.004 1.08-2.7748 1.3438-3.4023 0.251-0.5756 0.67622-1.21 1.0117-1.8145 0.6478-1.0773 1.3752-2.0675 2.1504-3.0059 0.7086-0.79952 1.5757-1.5528 2.6445-2.248 1.3944-0.69962 2.8044-0.85457 4.248 0.16992 0.9667 0.73333 2.3175 1.5667 4.0508 2.5 1.3333 0.8 2.8992 1.3833 4.6992 1.75 1.5 0.33333 2.5 0.13372 3-0.59961 0.5-0.7 0.46739-1.5508-0.0996-2.5508-0.5667-1-1.2992-1.5329-2.1992-1.5996-0.1 0-0.31709-0.0833-0.65039-0.25l0.44922-0.34961c0.8667-0.56667 1.1671-1.4329 0.90039-2.5996-0.2333-0.93333-0.79922-1.4663-1.6992-1.5996-0.6-0.1-0.98369-0.18333-1.1504-0.25-0.1-0.0667-0.11708-0.16745-0.0508-0.30078 0.4667-0.66667 0.36787-1.3004-0.29883-1.9004-0.8-0.66667-1.6663-0.93216-2.5996-0.79883-0.4333 0-0.7667 0.0155-1 0.0488 0.067-0.23333 0.11514-0.34961 0.14844-0.34961 0.5333-0.7 0.63408-1.3996 0.30078-2.0996-0.3-0.7-0.93369-1.0837-1.9004-1.1504-0.7667 0-1.9333 0.30039-3.5 0.90039 0.3-0.26667 0.48408-0.5845 0.55078-0.95117 0-0.4 0.0148-0.69844 0.0488-0.89844 0.067-0.46666-0.14844-0.90078-0.64844-1.3008-0.5-0.43333-0.98447-0.58255-1.4512-0.44922-0.5667 0.13333-1.15 0.41628-1.75 0.84961-0.6667 0.56667-1.1667 0.98333-1.5 1.25-0.1-0.2-0.1-0.41706 0-0.65039 0.1-0.33333 0.15039-0.55039 0.15039-0.65039-0.1333-1.4667-0.31748-2.4996-0.55078-3.0996-0.3333-0.76667-0.78291-1.2163-1.3496-1.3496zm-0.0488 1.0488c0.3 0.0667 0.53252 0.4 0.69922 1 0.2333 0.8 0.3167 1.3174 0.25 1.5508-0.033 1.1333-0.39961 2.7496-1.0996 4.8496-0.2667 0.9668-0.90039 2.5171-1.9004 4.6504-0.2333 0.46667-0.36709 0.53255-0.40039 0.19922l-0.19922-0.59961c-0.5333-2.4333-0.73291-4.5496-0.59961-6.3496 0.1333-1.4333 0.23213-2.3171 0.29883-2.6504 0.2333-0.96667 0.68291-1.7496 1.3496-2.3496 0.4333-0.4 0.96826-0.50078 1.6016-0.30078zm-8.0625 2.0879c0.175-0.025 0.39541 0.0966 0.66211 0.36328 1.7 1.6333 2.8821 4.05 3.5488 7.25 0.1541 0.77018 0.43361 1.8232 0.78711 3.0488l-0.47852-0.3125c-1.7115-1.3902-3.1474-2.7496-3.9082-4.0371-1.2333-2.0333-1.5667-3.9655-1-5.7988 0.083-0.31667 0.21367-0.48867 0.38867-0.51367zm-7.3887 0.16211c0.3-0.23333 0.8-0.18294 1.5 0.15039 1.8 0.86667 3.3679 2.3841 4.7012 4.5508 0.1667 0.23333 0.48252 0.79922 0.94922 1.6992 0.4 0.7 0.75078 1.2504 1.0508 1.6504 0.1607 0.22502 0.54382 0.58755 1.1074 1.0606-0.2382-0.0497-0.53181-0.30639-0.75781-0.31055l-0.125 6e-3c-0.9647-0.25486-1.9318-0.5205-2.9746-1.1055-2.6333-1.4-4.4841-3.5008-5.5508-6.3008-0.2-0.7-0.16739-1.1671 0.0996-1.4004zm-5.3496 0.90039c0.7333-0.2 1.7159-0.0159 2.9492 0.55078 1.2667 0.6 2.0516 1.2337 2.3516 1.9004 0.5333 1.2 1.3492 2.2659 2.4492 3.1992 0.7667 0.66667 1.9004 1.4341 3.4004 2.3008-2.2 0.0667-4.0333-0.16784-5.5-0.70117-2.0333-0.7-3.5837-1.5159-4.6504-2.4492-1.2333-1.1-1.9659-2.1678-2.1992-3.2012-0.067-0.36667 0.017-0.7 0.25-1 0.2-0.3 0.51592-0.49961 0.94922-0.59961zm26.051 0.34961c0.4-0.0333 0.71592 0.10039 0.94922 0.40039 0.3333 0.5 0.26748 1.0504-0.19922 1.6504-1.4333 2.1-3.2841 3.9663-5.5508 5.5996-0.1 0.0667-0.6833 0.51628-1.75 1.3496 0.067-0.16667 0.4-0.98255 1-2.4492 0.4-0.93333 0.75078-1.6833 1.0508-2.25 1-1.6 1.5833-2.4837 1.75-2.6504 0.7667-0.93333 1.6833-1.4837 2.75-1.6504zm4.7988 2.6504c0.4 0 0.75078 0.19961 1.0508 0.59961 0.2333 0.33333 0.18291 0.7345-0.15039 1.2012-0.4333 0.8-1.0825 1.4996-1.9492 2.0996-0.6 0.4-1.4683 0.84961-2.6016 1.3496-1.6333 0.7-3.8988 1.2678-6.7988 1.7012h-0.30078c2.4667-1.8 4.4163-3.4512 5.8496-4.9512 1.4-1.3667 3.0337-2.0333 4.9004-2zm-35.188 1.0137c0.9417 0.0583 1.9538 0.32044 3.0371 0.78711 0.9333 0.4 2.3016 1.1326 4.1016 2.1992 1.7 0.86667 3.2988 1.3512 4.7988 1.4512-1.7 0.56667-2.6496 0.86511-2.8496 0.89844-1.8333 0.3-3.1337 0.43372-3.9004 0.40039-1.3-0.1-2.2825-0.19883-2.9492-0.29883-1.0667-0.2-2.0008-0.51784-2.8008-0.95117-1.3667-0.76667-2.2504-1.6659-2.6504-2.6992-0.2667-0.63333-0.065-1.0829 0.60156-1.3496 0.8-0.35 1.6696-0.49583 2.6113-0.4375zm38.787 2.4863c0.9 0.2 1.2508 0.66706 1.0508 1.4004-0.1 0.43333-0.36748 0.78411-0.80078 1.0508-0.1667 0.1-0.5833 0.29961-1.25 0.59961-2.2 0.96667-5.0333 1.3659-8.5 1.1992-0.7333-0.0333-1.5996-0.13216-2.5996-0.29883 2.6667-0.4 4.7675-1.0337 6.3008-1.9004 0.6667-0.33333 1.5833-0.91667 2.75-1.75 0.8333-0.5 1.8488-0.60078 3.0488-0.30078zm0.70117 3c0.5333-0.36667 1.3163-0.29883 2.3496 0.20117 0.7667 0.3 1.0825 0.86589 0.94922 1.6992-0.1 0.73333-0.64844 1.2159-1.6484 1.4492-1.4 0.36667-3.0008 0.48489-4.8008 0.35156-0.8667-0.0667-2.45-0.28372-4.75-0.65039-0.4582-0.0611-1.0054-0.21285-1.6035-0.41406-0.1306-0.14896-0.20276-0.36121-0.44726-0.38672h-0.0488l-0.34961-0.0488c-0.018-4e-3 -0.053-0.0214-0.10156-0.0508l-0.14649-0.0566c1.8353-4e-3 3.2585-0.0142 3.5469-0.043 3.1-0.3 5.4508-0.98412 7.0508-2.0508zm-5.4004 4.4004c1.9 0.16667 3.6171 0.18393 5.1504 0.0508 1.6333-0.1 2.9337 0.11511 3.9004 0.64844 0.7 0.43333 1.1651 0.96823 1.3984 1.6016 0.2 0.6 0.051 1.0651-0.44922 1.3984-0.3667 0.23333-0.83369 0.31667-1.4004 0.25-0.2-0.0333-0.66709-0.14961-1.4004-0.34961-2.1-0.6-4.3655-1.7337-6.7988-3.4004zm-36.805 17.967c0.7231 0.18551 1.2742 0.51151 1.4043 1.1836 0 4e-3 -2.3e-4 2e-3 0.01 6e-3 0.067 0.22561 0.19894 0.44113 0.0937 0.69336-0.067 0.23333-0.2333 0.55117-0.5 0.95117-0.19999 0.46667-0.59921 0.96667-1.1992 1.5-0.7667 0.66667-1.2337 1.0988-1.4004 1.2988-0.2 0.23333-0.45 0.31667-0.75 0.25-0.2667-0.1-0.46631-0.31706-0.59961-0.65039-0.1-0.2-0.1833-0.48294-0.25-0.84961v-0.69922c0-0.86667 0.18408-1.6341 0.55078-2.3008 0.6409-0.92239 1.2881-1.2342 1.9375-1.334 0.24285-0.0402 0.48603-0.0802 0.70312-0.0488zm-6.3945 1.1328c0.4346-0.0659 0.75671 0.0138 1.0664 0.10937 0.1417 0.0601 0.31191 0.0864 0.41601 0.19141 0.2586 0.18181 0.49379 0.39357 0.61719 0.75 0.5 1.5667 0.5 2.6829 0 3.3496-0.1667 0.23333-0.5 0.54922-1 0.94922-0.4667 0.4-0.8 0.73333-1 1l-0.75-1.1992c-0.3-0.46667-0.49961-0.88333-0.59961-1.25-0.2333-0.66667-0.26826-1.4671-0.10156-2.4004 0.062-0.41917 0.2084-0.73288 0.4082-0.97852 0.045-0.046 0.16238-0.11888 0.23828-0.17578 0.2017-0.15744 0.40948-0.30715 0.70508-0.3457zm-5.3008 1c0.8 0 1.5325 0.40117 2.1992 1.2012s0.90117 1.5326 0.70117 2.1992c-0.033 0.13333-0.21748 0.26706-0.55078 0.40039-0.4 0.16667-0.68291 0.28294-0.84961 0.34961l-0.25 0.15039c-0.1667 0.56667-0.38369 0.81667-0.65039 0.75-0.1333-0.0333-0.39883-0.25039-0.79883-0.65039-0.6-0.53333-1.0012-0.96745-1.2012-1.3008-0.2436-0.38974-0.22475-0.85385-0.21875-1.3144-0.011-0.31494 0.0331-0.60131 0.16016-0.84375 0.034-0.0715 0.082-0.12765 0.125-0.18946 0.1835-0.24668 0.43341-0.45827 0.7871-0.61523 0.1738-0.0447 0.27348-0.082 0.54688-0.13672zm16.65 0.0508c0.3333-0.0333 0.64922 0.05 0.94922 0.25 0.3333 0.16667 0.51748 0.39922 0.55078 0.69922 0.1333 0.53333-0.066 1.1341-0.59961 1.8008-0.7333 0.83333-1.7334 1.5833-3 2.25-0.1667 0.0667-1.3179 0.56667-3.4512 1.5l-0.94922 0.5c0-0.0333-0.0178-0.10117-0.0508-0.20117 0.2667-0.26667 0.38291-0.74922 0.34961-1.4492-0.033-0.66667 0.10039-1.1492 0.40039-1.4492 1.3333-1.3333 2.1841-2.1512 2.5508-2.4512 1.0667-0.8 2.15-1.2826 3.25-1.4492zm3.4121 2.4238c0.4917 0.05 1.0367 0.27578 1.6367 0.67578 0.6667 0.4 1 0.91745 1 1.5508-0.03 0.38713-0.22124 0.70177-0.49024 0.98242-0.01 7e-3 2.4e-4 0.0103-0.01 0.0176l-0.11914 0.15039-0.98047 0.69922c-0.2333 0.16667-0.46592 0.1494-0.69922-0.0508-0.2-0.3-0.35117-0.49961-0.45117-0.59961-0.7667-0.7-1.7163-1.0159-2.8496-0.94922l-0.40015-0.05078 0.25-0.30078c1-1 1.6008-1.5833 1.8008-1.75 0.3833-0.3 0.8208-0.425 1.3125-0.375zm-25.062 0.27539c0.8 0.0333 1.5829 0.30078 2.3496 0.80078 0.4667 0.3 1.1179 0.83294 1.9512 1.5996l1.25 1.3008c0.2 0.2 0.23261 0.4655 0.0996 0.79883l-0.40039-0.25c-1.0333-0.53333-1.8163-0.83372-2.3496-0.90039-0.9-0.16667-1.7333 0.0174-2.5 0.55078-0.1333 0.0667-0.3833 0.0337-0.75-0.0996-0.4333-0.23333-0.75117-0.3845-0.95117-0.45117-1.0333-0.33333-1.4829-0.88177-1.3496-1.6484 0.2667-1.2 1.1504-1.7678 2.6504-1.7012zm13.75 1.7012c0.5333 0.2 0.75039 0.68255 0.65039 1.4492-0.5 1.1333-1.1163 2.0674-1.8496 2.8008-0.4 0.4-0.70039 0.63255-0.90039 0.69922-0.4 0.16667-0.8167 0.10078-1.25-0.19922-0.2-0.16667-0.31631-0.28489-0.34961-0.35156-0.033-0.1-0.033-0.26667 0-0.5 0.2-1.4333 0.89961-2.6329 2.0996-3.5996 0.5667-0.4 1.0996-0.49883 1.5996-0.29883zm-5.25 0.14844c0.3667 0.13333 0.6167 0.51706 0.75 1.1504v1.0996c0.033 0.63333 6.9e-4 1.1004-0.0996 1.4004-0.2 0.43333-0.63408 0.70078-1.3008 0.80078-0.3333 0.0333-0.55039-0.05-0.65039-0.25-0.067-0.26667-0.13252-0.46628-0.19922-0.59961-0.5333-1-0.56601-2-0.0996-3 0.3-0.63333 0.83291-0.83489 1.5996-0.60156zm13.699 1.3008c0.6667 0 1.2675 0.14922 1.8008 0.44922 0.7 0.4 1.0508 0.9 1.0508 1.5 0 0.56666-0.40117 1.1345-1.2012 1.7012-0.5333 0.33333-1.4325 0.59883-2.6992 0.79883-0.3 0.0667-0.58291-0.0322-0.84961-0.29883-0.2667-0.3-0.46826-0.51706-0.60156-0.65039-0.8667-0.73333-1.9151-1.0996-3.1484-1.0996l-1.4512 0.0996c1.2-0.93333 2.9675-1.6659 5.3008-2.1992 0.8333-0.16667 1.4321-0.26745 1.7988-0.30078zm-19.75 1.0996c1.2 0.0333 2.5837 0.83372 4.1504 2.4004 0.067 0.0667 0.067 0.13255 0 0.19922-0.067 0.0333-0.11709 0.0508-0.15039 0.0508-0.3 0.16667-0.48213 0.31589-0.54883 0.44922-0.3333 0.73333-0.8333 1.0841-1.5 1.0508-0.7667-0.23333-1.3345-0.38255-1.7012-0.44922-1.1667-0.26667-1.8992-0.76667-2.1992-1.5-0.2333-0.66666-0.18291-1.2016 0.15039-1.6016 0.3667-0.4 0.96553-0.59961 1.7988-0.59961zm-3.6484 0.40039h0.54883c0.1667 0.0333 0.21709 0.25039 0.15039 0.65039-0.2333 1.6 0.5167 2.6833 2.25 3.25-1.2333 0.2-2.15 0.33372-2.75 0.40039-1.0333 0.1-1.9325 0.0496-2.6992-0.15039-0.7333-0.2-1.2004-0.81628-1.4004-1.8496-0.1333-0.73333 0.26592-1.3012 1.1992-1.7012 1.0667-0.43333 1.9679-0.63294 2.7012-0.59961zm28.398 0c0.1034-0.0207 0.18611 0.0493 0.28711 0.0391 0.01 1e-3 0.01 0.0104 0.0137 0.0117 0.1155 0.0134 0.21628 0.0618 0.30078 0.14844 2e-4 -0.0321 0.0158-0.0476 0.0488-0.0488 0.9375 0.0571 1.4626 0.29321 1.9648 0.53906 0.2944 0.15597 0.59874 0.31431 0.77344 0.44532 0.259 0.29911 0.47264 0.83438 0.68164 1.3906 0.011 0.22768 0.21826 0.43659 0.13086 0.67383-0.2333 0.6-0.75078 0.98372-1.5508 1.1504-1.8667 0.4-3.0837 0.58411-3.6504 0.55078-0.3333-0.03375-0.73252-0.16711-1.1992-0.40044l-1.1992-0.59961-0.85156-0.20117c0.9-0.5 1.5008-0.86628 1.8008-1.0996 0.5667-0.46667 0.96592-1.0171 1.1992-1.6504 0.2-0.5 0.6167-0.81589 1.25-0.94922zm-12.299 1.9492c0.9667-0.23333 1.8504-0.23333 2.6504 0 1.4333 0.5 2.2317 1.2674 2.3984 2.3008 0.1 0.63333-0.33213 1.0674-1.2988 1.3008h-1.1504c-0.8667-0.0333-1.8337-0.1845-2.9004-0.45117-0.5333-0.16667-1.4655-0.48255-2.7988-0.94922l-0.10156-0.40039c-0.1-0.43333 0.11709-0.73372 0.65039-0.90039 1.6-0.56667 2.4508-0.86706 2.5508-0.90039zm-6.0996 0.35156c1.3333 0 2.0155 0.44961 2.0488 1.3496 0.067 0.63333-0.21631 1.1663-0.84961 1.5996-0.6667 0.46667-1.4671 0.69922-2.4004 0.69922-0.5-0.0333-0.84883-0.0992-1.0488-0.19922-0.4-0.2-0.61709-0.56628-0.65039-1.0996-0.033-0.63333 0.23213-1.1837 0.79883-1.6504 0.6-0.5 1.3016-0.73255 2.1016-0.69922zm-15.201 1.8496c0.3667-0.13333 0.7-0.13333 1 0 0.033 0.0333 0.2833 0.2155 0.75 0.54883 0.3667 0.3 0.75039 0.45117 1.1504 0.45117-0.6333 0.26667-1.1837 0.63294-1.6504 1.0996-1 1-1.3488 1.9496-1.0488 2.8496-0.3333 0.2-0.56787 0.28333-0.70117 0.25-0.8667-0.2-1.5004-0.7-1.9004-1.5-0.3667-0.8-0.31631-1.5655 0.15039-2.2988 0.3333-0.56666 1.0833-1.0337 2.25-1.4004zm28.076 0c0.3002-0.1501 0.62461-0.15 0.97461 0 0.4 0.16667 0.93291 0.5 1.5996 1 1.8333 0.56667 3.6008 1.7837 5.3008 3.6504 0.4126 0.46419 0.56241 0.62847 0.69531 0.77344-0.071 0.0136-0.14109 0.0228-0.21289 0.0371-0.0245 5e-3 -0.0486 0.0115-0.0723 0.0195-0.9463 0.31546-1.8282 0.73693-2.6387 1.2656-0.0682 0.0444-0.12671 0.10221-0.17188 0.16993-0.045 0.0676-0.11033 0.15967-0.17773 0.25195-0.052 0.0423-0.1 0.0893-0.14258 0.14062-1.0601-0.51926-2.1194-1.1169-3.1797-2.0098-1.1333-1.1667-2.0345-1.9826-2.7012-2.4492-0.4333-0.3-0.63291-0.61589-0.59961-0.94922 0.033-0.1 0.2-0.43333 0.5-1 0.25-0.45 0.52597-0.75029 0.82617-0.90039zm-17.076 0.65039c0.1333-0.0333 0.23408 0.0151 0.30078 0.14844 0.067 0.0667 0.13252 0.16745 0.19922 0.30078 0.5667 0.56667 0.68291 1.1171 0.34961 1.6504-0.5 0.53333-0.84883 0.91706-1.0488 1.1504-0.9667 1.2-2.1663 1.9151-3.5996 2.1484-0.7667 0.1-1.3171-0.19844-1.6504-0.89844-0.3667-0.86666-0.14961-1.6671 0.65039-2.4004 1.3-1.0667 2.8988-1.7663 4.7988-2.0996zm-3.8496 0.19922 0.65039 0.0508c-1.4 0.36667-2.4329 1.1496-3.0996 2.3496-0.6 1.2333-0.31709 2.3322 0.84961 3.2988-1.0667 0.6-2.0667 0.65039-3 0.15039-1.0667-0.63333-1.5512-1.4667-1.4512-2.5 0.1-1.1 0.81709-1.8655 2.1504-2.2988zm28.699 0.25c0.8337-0.18527 1.4913-0.10516 2.0391 0.13867 0.058 0.0424 0.042 0.12584 0.11133 0.16211l0.25 0.14844h-0.0488c0.6084 0.29866 0.89565 0.50242 1.252 0.72656 0.2472 0.18675 0.59244 0.38162 0.76954 0.5625 0.2555 0.24637 0.39794 0.55126 0.55664 0.84766 0.1924 0.35804 0.21214 0.84327 0.30664 1.2734-0.8849 0.0198-1.7718 0.0853-2.6602 0.19531-0.331 0.035-0.66541 0.0804-1.0039 0.13281-0.4098-0.7275-0.85599-1.4508-1.6211-2.1367-0.9667-0.66666-1.7341-1.25-2.3008-1.75 0.4667 0.0667 1.2496-0.0341 2.3496-0.30078zm-17.148 0.19922c0.2667 0.13333 0.63291 0.41823 1.0996 0.85156 1.9 1.2667 3.0163 2.633 3.3496 4.0996 0.1 0.43333-0.034 0.94883-0.40039 1.5488-0.4 0.6-0.8167 0.90039-1.25 0.90039-0.6667-0.1-1.2829-0.38294-1.8496-0.84961-0.3333-0.26667-0.81592-0.76667-1.4492-1.5-0.6667-0.73333-1.3333-2.0337-2-3.9004-0.067-0.13333 0.29961-0.46667 1.0996-1 0.4667-0.36667 0.93369-0.41706 1.4004-0.15039zm2.6992 0.90039c3.2667 0.1 5.9333 1.4663 8 4.0996 0.1 0.16667 0.1833 0.31784 0.25 0.45117l0.0996 0.29883 0.0508 0.0508v0.15039l0.10156 0.29883c0 0.2-0.0346 0.38411-0.10156 0.55078-0.1333 0.3-0.35039 0.49961-0.65039 0.59961-0.1333 0.0667-0.43369 0.11706-0.90039 0.15039-1.3333 0.0667-2.6492-0.54961-3.9492-1.8496-0.1333-0.1-0.23408-0.36745-0.30078-0.80078-0.067-0.5-0.13252-0.83333-0.19922-1-0.4333-1.1333-1.2337-2.1333-2.4004-3zm-7.3496 0.40039c0.5667 0 0.9 0.0659 1 0.19922 0.7 1.3333 1.1825 2.8178 1.4492 4.4512-0.033 0.36667-0.084 0.88216-0.15039 1.5488-0.1 0.53333-0.2667 0.98489-0.5 1.3516-0.5667 0.93333-1.4155 1.2822-2.5488 1.0488-0.5667-0.1-1.0512-0.66589-1.4512-1.6992-0.3333-1.0667-0.31622-2.2178 0.0508-3.4512 0.5667-1.4 0.96592-2.4659 1.1992-3.1992 0.067-0.13333 0.38447-0.21667 0.95117-0.25zm-2.5996 2c-0.8667 1.7667-1.1012 3.2163-0.70117 4.3496 0.4333 1.2 0.084 2.2833-1.0488 3.25-0.8333 0.66667-1.8683 0.86628-3.1016 0.59961-0.4667-0.1-0.81553-0.38294-1.0488-0.84961-0.1667-0.36667-0.23447-0.76589-0.20117-1.1992 0.1333-1.6667 0.70117-2.9167 1.7012-3.75 0.2-0.2 0.58369-0.36667 1.1504-0.5 0.7333-0.2 1.1984-0.35117 1.3984-0.45117 0.4333-0.2 1.0516-0.68255 1.8516-1.4492zm-10.951 1.5c0.1333-0.0333 0.4667 0.28255 1 0.94922 0.9333 0.83333 2.0671 1.0349 3.4004 0.60156l0.55078-0.10156-0.25 0.80078c-0.2333 0.73333-0.8167 1.4659-1.75 2.1992-1.1333 0.9-1.8349 1.5337-2.1016 1.9004-0.1333 0.16667-0.36592 0.33333-0.69922 0.5-0.3 0.13333-0.53252 0.18372-0.69922 0.15039-1.2667 0-2.1833-0.5-2.75-1.5-0.5-0.93333-0.51708-1.9159-0.0508-2.9492 0.2667-0.66666 0.73369-1.2171 1.4004-1.6504 0.4-0.26667 1.0492-0.56706 1.9492-0.90039zm40.645 0.0588h6e-3c0.84418-0.0179 1.6851 7e-3 2.5254 0.0762 1.6923 0.13831 3.3774 0.45231 5.0566 0.9414 0.01 3e-3 0.0195 5e-3 0.0293 8e-3 4.714 1.1208 9.1606 2.8497 13.346 5.1895 4.0319 2.3618 7.4666 5.3736 10.318 9.0449v2e-3c2.8579 3.6462 5.0752 7.7174 6.6543 12.223 7e-4 2e-3 7e-4 4e-3 0 6e-3 0.7227 2.3026 1.2817 4.5874 1.6758 6.8535 3e-3 0.01 6e-3 0.0196 0.01 0.0293 0.2269 1.0046 0.3691 1.9384 0.4336 2.8008-1e-3 0.8305-0.049 1.6446-0.14453 2.4414-2e-4 1e-3 1e-4 3e-3 0 4e-3 -0.026 0.17978-0.068 0.35951-0.11719 0.54102l-0.48828 0.78711c-2.6521 1.3251-5.6454 1.7607-9.0606 1.25-3.6508-0.53104-6.6142-1.1113-8.877-1.7344-2.2917-0.62205-4.6404-1.5241-7.043-2.709-0.2396-0.13478-0.49367-0.25325-0.75977-0.35547-4.4742-2.1055-8.4484-4.8505-11.934-8.2363v-2e-3c-0.5199-0.55199-1.0242-1.0724-1.5137-1.5625-0.5845-0.71473-1.1364-1.412-1.6562-2.0938-1.6334-2.5172-2.9065-5.1945-3.8223-8.0371v-0.01c-0.4284-1.4171-0.84073-2.8168-1.2363-4.2012v-0.01c-0.297-1.2875-0.57749-2.6068-0.84179-3.9609-5e-4 -3e-3 -7e-4 -5e-3 0-8e-3 -0.099-1.0734-0.22757-2.1782-0.38867-3.3125v-6e-3c-0.031-0.71224 0.03-1.461 0.1875-2.25 8e-3 -0.0386 0.0117-0.0778 0.0117-0.11719 0-0.0828 0.0115-0.13688 0.0195-0.16211 3e-3 -8e-3 7e-3 -0.0156 0.01-0.0234 0.01-0.0345 0.0212-0.0677 0.0332-0.0996 3e-3 -8e-3 7e-3 -0.0168 0.01-0.0254l0.0488-0.15039-0.0312 0.0781c0.069-0.13822 0.11328-0.30013 0.11328-0.4668v-0.0354c7e-3 -4e-3 0.0144-8e-3 0.0215-0.0117 0.0286-0.0578 0.0478-0.11975 0.0566-0.1836 0.0254-0.0379 0.0463-0.0785 0.0625-0.12109 0.016-0.0934 0.037-0.13084 0.082-0.17578 0.0574-0.0574 0.1026-0.12582 0.13281-0.20117 0.026-0.0642 0.0217-0.0401 0.0117-0.0352 0.0839-0.0418 0.15678-0.10268 0.21289-0.17773 0.067-0.0898 0.11707-0.16402 0.17187-0.24219 0.6961-0.44587 1.4453-0.81146 2.2617-1.0859 0.6327-0.12513 1.2492-0.22216 1.8477-0.28516 4e-3 4e-5 8e-3 4e-5 0.0117 0 0.85315-0.10562 1.7046-0.16868 2.5527-0.1875zm-10.244 1.0918 0.55078 0.19922 1.2676 0.78125c-0.017 0.0419-0.0525 0.0762-0.0606 0.12109l0.0625-0.11914c-0.01 0.0151-0.0105 0.029-0.0195 0.0449-0.013 0.0148-0.0183 0.0512-0.0312 0.0684-0.032 0.0502-0.0698 0.0792-0.0918 0.15039-6.6e-4 0.0163-6.6e-4 0.0326 0 0.0488-0.026 0.0639-0.0731 0.0977-0.0801 0.17969-7.2e-4 0.0169-7.2e-4 0.0339 0 0.0508v0.0878c-7e-3 0.0153-0.0137 0.031-0.0195 0.0469l-0.0488 0.15039c-0.015 0.0407-0.028 0.0814-0.041 0.12304l-0.0117 0.0176c-1e-3 4e-3 0 6e-3 0 0.01 0 8e-3 -0.01 0.0154-0.01 0.0234-0.1896 0.49188-0.3089 0.83237-0.4668 1.2558l-0.15611-0.14098-0.79883-1c-0.067-0.0333-0.11709-0.0663-0.15039-0.0996l-0.0996-0.15039v-0.0508l-0.10156-0.0996 0.0508-0.0488 0.0508-0.10156 0.0488-0.0488 0.15623-0.40045v-0.0996l0.0508-0.15039v-0.44922l-0.0508-0.20118zm-13.6 0.19923c1.0667 1.5333 1.6325 3.3337 1.6992 5.4004 0.033 0.86667-0.16631 1.8008-0.59961 2.8008-0.4333 1.0667-0.99922 1.7333-1.6992 2-0.6 0.2-1.2183 0.11667-1.8516-0.25-0.6-0.36667-0.98174-0.88411-1.1484-1.5508l-0.80078-3c-0.033-0.16667-0.0508-0.30039-0.0508-0.40039 0-0.16667 0.11826-0.23255 0.35156-0.19922 2.8 0.0333 4.1663-1.4337 4.0996-4.4004zm6.5996 0.34963c0.1667 0.16667 0.73252 0.60078 1.6992 1.3008 0.7667 0.56667 1.8345 0.81667 3.2012 0.75h0.19922l0.40039-0.05102c0.1-0.0667 0.24922-0.11511 0.44922-0.14844h0.0508l1.5996 1.8496c0.01 0.01 0.0174 8e-3 0.0254 0.0176-0.04 0.11194-0.10598 0.27963-0.14258 0.38476-8e-3 0.0243-0.0146 0.0491-0.0195 0.0742-0.4253 2.0412-0.61344 4.0627-0.58984 6.0625-0.1647-0.0453-0.37996-0.0831-0.47266-0.13867-1.3-0.83333-2.4996-2.25-3.5996-4.25-1.3-2.3-2.3679-3.8678-3.2012-4.7012-0.1667-0.1-0.18223-0.21628-0.0488-0.34961zm-5.1504 0.40015c1 1.2 1.9341 1.6671 2.8008 1.4004 0.7667-0.23333 1.3829-0.0996 1.8496 0.40039 0.2333 0.26667 0.54922 0.74922 0.94922 1.4492 1 1.4 1.6667 2.7004 2 3.9004s0.53486 2.1167 0.60156 2.75c0.067 1.0667-0.1 2.0163-0.5 2.8496-0.2333 0.53333-0.78369 0.80078-1.6504 0.80078s-1.5663-0.25-2.0996-0.75c-0.5667-0.56667-1.0667-1.3012-1.5-2.2012-0.4-1.1-0.71787-1.9333-0.95117-2.5-0.3-0.73333-0.41631-1.9-0.34961-3.5 0.033-0.73333-0.068-1.5163-0.30078-2.3496-0.1333-0.4-0.41631-1.15-0.84961-2.25zm14.928 0.67969c-0.023 0.0895-0.0593 0.17214-0.0781 0.19336 0.0349-0.0592 0.0593-0.12394 0.0723-0.19141 2e-3 -6.4e-4 4e-3 -1e-3 6e-3 -2e-3zm-0.0293 0.0137c-0.025 0.0536-0.0116 0.0948-0.0606 0.14453-0.048 0.0478-0.087 0.034-0.13867 0.0586-0.0111-0.0269-0.0242-0.0531-0.0391-0.0781 0.0879-0.0231 0.16934-0.0658 0.23828-0.125zm9.9746 0.29687c-0.36488-0.0152-0.67382 0.0447-0.92578 0.17774l-0.0488-8e-3c-0.2535 0.13384-0.42502 0.39715-0.51172 0.78906-0.06 0.19371-0.13205 0.487-0.21875 0.8789l-0.27735 0.91993-0.7539-0.75782c-0.5168-0.40637-1.0833-0.81848-1.6992-1.2383l-0.70899-0.34961c-0.029-0.0375-0.0607-0.058-0.0937-0.0625-0.2313-0.0313-0.54978-0.0397-0.95508-0.0273l-1.166 0.043c-0.033-4e-3 -0.0516 0.01-0.0566 0.043l-0.47266 0.13672-0.0488-6e-3c-0.1697 0.0107-0.32716 0.0575-0.47266 0.13867-0.5223 0.13108-0.77325 0.36581-0.75195 0.70508l-0.01 0.0488c-0.031 0.23123 0.0421 0.42697 0.22266 0.58594 0.1188 0.11699 0.31323 0.17693 0.58203 0.17969l0.0488 6e-3c0.1982 0.0268 0.50698-0.0155 0.92578-0.12695l0.0488 8e-3c0 0.033 0.0277 0.0535 0.0937 0.0625 0.6998 0.29661 1.6107 0.89097 2.7344 1.7832l1.7285 1.3945c-0.1769 0.31242-0.35571 0.64088-0.53711 0.98633l0.0566-0.043-0.75586 1.1094c-0.3643 0.45521-0.56748 0.7138-0.60938 0.77539-0.033-4e-3 -0.0516 0.01-0.0566 0.043-0.1545 0.14726-0.3214 0.25921-0.5 0.33593l-0.0488-8e-3c-0.6242 0.38639-1.1061 0.59-1.4453 0.61133l-0.40429-4e-3c-0.066-9e-3 -0.1169 7.4e-4 -0.1543 0.0293-0.2206 0.13832-0.34761 0.32347-0.37891 0.55469-0.031 0.23122 0.0251 0.44138 0.16797 0.6289l-0.0488-8e-3c0.224 0.33308 0.57303 0.48177 1.0488 0.44531l0.0508 8e-3c0.3197-0.1249 0.62492-0.26925 0.91602-0.43164l1.5508-0.64844c0-0.033 0.0236-0.0474 0.0566-0.043l0.96289-0.77734c0.5671-0.4614 1.0163-0.92118 1.3477-1.3809l0.41797-0.85157 1.6855 1.3379 0.01-0.0488c0.4793 0.43493 1.2348 1.192 2.2656 2.2734 0.5516 0.64655 0.89355 1.098 1.0274 1.3516 0.1624 0.29109 0.29116 0.71084 0.38476 1.2617 0 0.033 0.0239 0.0713 0.0859 0.11328l0.0449 0.41015c-0.5062-0.23674-0.9955-0.35499-1.4668-0.35156-0.5616-0.0761-1.1077-0.13342-1.6406-0.17187-0.6366-0.0189-1.2395 0.20266-1.8066 0.66406-0.071 0.0241-0.10683 0.0529-0.11133 0.0859-0.1063 0.28823-0.17573 0.54807-0.20703 0.77929-0.09 0.66064-0.0825 1.3518 0.0215 2.0723 0.098 0.51784 0.34605 0.92155 0.74415 1.2109 0.52119 0.37324 1.2353 0.57009 2.1406 0.59179l0.0488 8e-3c0.071-0.0241 0.27457-0.0312 0.60937-0.0195 0.3634 0.0492 0.80719-8e-3 1.334-0.17187l0.0508 6e-3c0.5027-0.23465 0.86323-0.5381 1.082-0.91211 0.1304-0.2178 0.23641-0.38854 0.32031-0.51172l0.27735 0.18945 0.24414 0.43555c0.1204 0.35269 0.25027 0.63881 0.38867 0.85937 0.081 0.14555 0.13903 0.33991 0.17383 0.58008 0 0.033 0.0101 0.068 0.0351 0.10547l0.12305 0.21875c0.02 0.10357-3.6e-4 0.26739-0.0684 0.49414 0 0.033 0.0101 0.0699 0.0371 0.10742l0.0293 0.1543c-0.025 0.43389-0.0581 0.93399-0.10157 1.5-0.014 0.60352-0.061 1.1865-0.13671 1.748l-0.17969 0.58008 0.01-0.0488-0.19531 0.32617c-0.1678 0.24636-0.30878 0.43012-0.42578 0.54883-0.4276 0.17753-0.68835 0.35958-0.78125 0.54883-0.3599 0.42217-0.2872 0.86936 0.2207 1.3418l0.0508 8e-3c0.2704 0.23835 0.52076 0.37297 0.75196 0.40429l0.0488 6e-3c0.4383-8e-3 0.85158-0.32104 1.2383-0.94141 0.7825-1.3067 1.3775-2.5888 1.7832-3.8457l0.5918-2.1406c0.055-0.16069 0.10925-0.30399 0.16015-0.43164l0.1875-0.27735 0.01-0.0488c0-0.033 0.0302-0.0968 0.0762-0.1914l0.0723 0.21094c-0.01 0.0661 0.0171 0.12023 0.0781 0.1621l0.0996 0.0137 0.49609 0.0664c0.066 9e-3 0.1168-6.7e-4 0.1543-0.0293l0.10547-0.0352 0.24805 0.0332c0.021 0.33927 0.064 0.64811 0.12695 0.92578 0.02 0.84369 0.16494 1.7698 0.43164 2.7812-0.01 0.0661 0.0124 0.15368 0.0644 0.26172l-0.01 0.0508 0.30273 0.7461 0.01-0.0488c0.2408 0.70537 0.61429 1.5466 1.1211 2.5234 0.7851 1.6537 1.5638 2.734 2.3359 3.2422 0.3365 0.2473 0.93783 0.53062 1.8027 0.8496 0.4446 0.19477 0.82348 0.24616 1.1387 0.1543 0.4188-0.11147 0.75873-0.38471 1.0195-0.82031l-0.01 0.0488c0.5743-0.76316 0.88866-1.5953 0.94336-2.4961 0.026-0.93831-0.15386-1.971-0.53906-3.0996-0.077-0.17858-0.14066-0.32164-0.19336-0.42968l-0.73047-1.3106c-0.4961-0.80723-0.85115-1.2916-1.0644-1.4551-0.1999-0.26254-0.59103-0.60226-1.1738-1.0176l-0.0859-0.11132c0-0.033-0.01-0.0523-0.043-0.0566l-0.62695-0.58984-0.0488-6e-3 -0.8457-0.46875c0.1286-0.45349 0.32344-0.78056 0.58594-0.98047 0-0.033 0.0236-0.0474 0.0566-0.043 0.4992-0.70604 1.1432-1.1059 1.9297-1.2012l0.61524-0.0684c1.3855-0.0478 2.6267 0.22065 3.7246 0.80664l-0.0488-6e-3c0.5632 0.31176 1.5271 1.0142 2.8926 2.1074l-0.043-0.0566c0.8112 0.71526 1.3686 1.3124 1.6738 1.791l0.043 0.0566c0.1954 0.29557 0.43263 0.78217 0.71093 1.459 0.5718 1.4901 1.1481 3.5696 1.7285 6.2383l0.43359 1.2695c0.3709 1.7321 0.68074 3.051 0.92774 3.959 0.1446 0.42323 0.32371 0.71742 0.53711 0.88086 0.2463 0.16792 0.47258 0.23258 0.67968 0.19336 0.2027-6e-3 0.37096-0.13589 0.50586-0.38672 0.055-0.16068 0.0542-0.39632-0.01-0.70703l-0.0117 0.0508-2.5215-12.301 0.0117-0.0488c-0.4728-1.4768-1.3144-2.8357-2.5254-4.0762-1.13-1.0949-2.4589-1.9633-3.9863-2.6074l-0.0508-8e-3c-2.0139-0.77733-3.7595-0.92977-5.2363-0.45703l-2.0957 0.57421c-0.4848 0.10253-0.97615 0.37324-1.4726 0.81055-0.375 0.28558-0.72438 0.62396-1.0469 1.0176l-0.01-0.30274 0.65624-2.9902c0.051-0.12765 0.0856-0.24075 0.0996-0.33984 0.042-0.0616 0.0624-0.10955 0.0664-0.14258 0.1349-0.25083 0.25357-0.50251 0.35547-0.75781l-0.01 0.0488c0.1992-0.47758 0.41283-0.93687 0.64063-1.377l0.01-0.0488c0.1886-0.64721 0.21614-1.098 0.082-1.3516-0.1382-0.22056-0.40634-0.35647-0.80274-0.41016-1.0329-0.0726-2.0932 0.43826-3.1836 1.5352-0.927 0.88358-1.5931 1.8205-1.9961 2.8086l0.0508 6e-3c-0.079 0.0901-0.14636 0.19852-0.19726 0.32618-0.055 0.16068-0.096 0.34087-0.12305 0.53906-0.1198 0.38743-0.27449 1.2906-0.46679 2.7109l-0.2168-0.63477-0.043-0.0547-0.70898-1.1055c-0.3292-0.54916-0.66658-1.0322-1.0137-1.4492-0.057-0.075-0.10362-0.11466-0.13671-0.11914-0.017-0.37229-0.016-0.7435 0-1.1113l0.01606-0.09786c-0.023-0.57496-0.064-1.0194-0.12305-1.3301-0.029-0.0375-0.0421-0.0724-0.0371-0.10547l-0.60742-1.0918c-0.8237-1.1207-1.4394-1.9259-1.8438-2.418l-0.0488-8e-3c-0.7319-0.80552-1.8879-1.8352-3.4668-3.0918l-0.0508-8e-3 -0.0859-0.11133-0.0918-0.0645c0.7477-1.5469 1.181-2.513 1.3008-2.9004 0.1225-0.65616 0.0959-1.0814-0.0801-1.2734-0.16666-0.25771-0.54748-0.42715-1.1406-0.50782zm6.0449 0.40235c-0.3112-1e-4 -0.59486 0.0163-0.85156 0.0488l-0.0566 0.043c-0.6259 0.1507-1.0728 0.34129-1.3398 0.57422-0.033-4e-3 -0.0497 0.01-0.0547 0.043l-0.25976 0.41992c-0.037 0.0286-0.0585 0.0588-0.0625 0.0918-0.058 0.42941-0.01 0.68891 0.14648 0.77734 0.1428 0.18753 0.4025 0.25692 0.7793 0.20704l0.0508 6e-3 0.63477-0.21679 1.9941 0.16992 0.43359 0.1582 0.31836 0.2461 1.0332 0.94726c0.3427 0.45007 0.5499 1.032 0.6211 1.748l0.043 0.0566c0.1025 0.48481 0.19419 0.79976 0.27539 0.94531 0.2663 0.41944 0.60257 0.54018 1.0137 0.33985l-0.01 0.0488c0.2536-0.13384 0.39161-0.39992 0.41211-0.80078l0.01-0.0508-0.0762-0.56445c-0.077-0.9187-0.18754-1.5904-0.33204-2.0137l-0.043-0.0566-0.95899-1.4902c0-0.033-0.01-0.0522-0.043-0.0566-0.3802-0.42151-0.69169-0.73264-0.93359-0.93359l-0.0488-8e-3c-0.3981-0.28939-0.95749-0.49941-1.6797-0.63086-0.3656-0.0327-0.70452-0.0487-1.0156-0.0488zm-45.217 1.3086c0.067 0.0667 0.13252 0.29922 0.19922 0.69922 0.2333 0.9 0.70039 1.5337 1.4004 1.9004s1.4829 0.41706 2.3496 0.15039c0.6-0.16667 1.0671-0.35078 1.4004-0.55078-0.7667 1.8-1.1679 2.7496-1.2012 2.8496-0.4667 1.6-1.3484 2.7667-2.6484 3.5-0.9 0.46667-1.6345 0.63333-2.2012 0.5-0.8667-0.2-1.4829-0.41706-1.8496-0.65039-0.6-0.4-0.95078-0.99883-1.0508-1.7988-0.1667-1.2333 0.05-2.4 0.65039-3.5 0.4-0.7 1.15-1.6167 2.25-2.75 0.3333-0.36667 0.56787-0.48294 0.70117-0.34961zm7.4492 0.54883 0.15039 0.20117v1.3496c0.067 0.93333 0.4833 2.4159 1.25 4.4492 0.4 1.1667 0.51631 2.3178 0.34961 3.4512-0.2 1.3333-0.80078 2.2829-1.8008 2.8496-1.0667 0.6-1.9988 0.61576-2.7988 0.0488-0.7667-0.53333-1.1175-1.483-1.0508-2.8496 0-0.83333 0.21709-1.8004 0.65039-2.9004 0.7-1.6667 1.0663-2.5833 1.0996-2.75 0.1333-0.53333 0.40078-1.1826 0.80078-1.9492 0.4333-0.8 0.74922-1.4163 0.94922-1.8496 0.1-0.1 0.23369-0.11727 0.40039-0.0508zm-11.699 2.4004h0.25c0 0.26667-0.035 0.45078-0.10156 0.55078-0.5 0.9-0.64922 1.9155-0.44922 3.0488 0.2 1.1 0.68252 1.9508 1.4492 2.5508 0.067 0.0333 0.65 0.28333 1.75 0.75-0.6667 0.6-1.0484 0.94883-1.1484 1.0488-0.4667 0.3-0.9667 0.43372-1.5 0.40039-2-0.1-3.2171-1.133-3.6504-3.0996-0.3333-1.3667-0.18408-2.5159 0.44922-3.4492 0.5667-0.9 1.5512-1.5008 2.9512-1.8008zm32.166 0.61328c0.0419 0.3773 0.10124 0.77188 0.13476 1.1406 2e-3 0.0203 5e-3 0.0405 0.01 0.0605 0.2679 1.3731 0.55191 2.7127 0.85351 4.0195 3e-3 0.0105 6e-3 0.0209 0.01 0.0312 0.4008 1.403 0.81971 2.8216 1.2539 4.2578-4e-5 4e-3 -4e-5 8e-3 0 0.0117 0.94929 2.9499 2.2736 5.7316 3.9688 8.3418 8e-3 0.0127 0.0165 0.0251 0.0254 0.0371 0.5378 0.70594 1.1089 1.4277 1.7129 2.166 0.0129 0.0157 0.0266 0.0306 0.041 0.0449 0.4953 0.49528 1.0075 1.0233 1.5371 1.5859 6e-3 7e-3 0.0116 0.0131 0.0176 0.0195 3.5807 3.4793 7.6726 6.3023 12.264 8.4629 0.0147 7e-3 0.0297 0.0136 0.0449 0.0195 0.2385 0.0894 0.45811 0.19205 0.66211 0.30859 0.0109 6e-3 0.022 0.0121 0.0332 0.0176 2.4631 1.2147 4.8818 2.1446 7.2559 2.7891 2.3361 0.64329 5.3392 1.2302 9.0195 1.7656 2.5453 0.38061 4.8581 0.0909 7.0527-0.50977-0.7498 0.48115-1.5603 0.86579-2.4434 1.1445-3e-3 6.3e-4 -7e-3 1e-3 -0.01 2e-3 -2.6718 0.87974-5.4381 1.3356-8.3086 1.3691-2.695-0.0554-5.339-0.34323-7.9355-0.86328-3e-3 -3e-5 -7e-3 -3e-5 -0.01 0-0.5112-0.095-1.0187-0.20269-1.5215-0.32032-1.3803-0.32857-2.7616-0.70578-4.1426-1.1328l-0.0176-6e-3 -3.1387-1.0781c-0.8534-0.39413-1.6571-0.78877-2.4102-1.1816-3.7905-2.0603-6.9508-4.7814-9.498-8.1777v-2e-3c-0.6216-0.81798-1.2109-1.6688-1.7676-2.5527v-4e-3c-0.2188-0.35601-0.90588-1.6844-1.9551-3.8144-0.01-0.0174-0.01-0.0138-0.0156-0.0312-6e-3 -8e-3 -0.0115-0.0158-0.0176-0.0234-4e-3 -0.0337-0.0102-0.067-0.0195-0.0996-0.5235-1.2106-0.9819-2.4538-1.375-3.7305v-8e-3c-0.8855-3.0193-1.4432-6.1385-1.6738-9.3574-0.0886-1.5437 0.16572-3.1267 0.36328-4.7031zm3.2324 1.1875v0.0996c0.027 0.0542 0.062 0.15303 0.10156 0.29883-0.04-0.15768-0.074-0.28945-0.10156-0.39844zm-16.449 0.6992c0.067-0.0667 0.16748-0.0337 0.30078 0.0996 0.067 0.0667 0.13252 0.28372 0.19922 0.65039 0.1667 1.1667 0.68408 2.3837 1.5508 3.6504 0.2333 0.36667 0.33213 0.59922 0.29883 0.69922-0.1 1.1333-0.53213 1.8678-1.2988 2.2012-1.0333 0.46667-1.95 0.48243-2.75 0.0488-0.8-0.46667-1.4183-1.1159-1.8516-1.9492-0.2667-0.63333-0.49922-1.4996-0.69922-2.5996-0.033-0.2-0.033-0.33372 0-0.40039 0.033-0.0667 0.16709-0.0512 0.40039 0.0488 0.5667 0.23333 1.2663 0.11706 2.0996-0.34961s1.3837-1.05 1.6504-1.75c0.033-0.0667 0.0656-0.18294 0.0996-0.34961zm8.5996 0.5 0.30078 0.30078c0.8 1.2333 1.6837 1.8322 2.6504 1.7988h0.0937c0 0.0948-6.3e-4 0.19043 0.01 0.28516-2e-5 3e-3 -2e-5 5e-3 0 8e-3 0.1554 2.1747 0.47057 4.3035 0.91797 6.3926-0.3059 0.10188-0.64212 0.1863-1.0703 0.21484-0.5-0.0667-1.0175-0.34961-1.5508-0.84961-0.6333-0.56667-1.1159-1.0008-1.4492-1.3008-0.6333-0.53333-0.85039-1.1167-0.65039-1.75 0.3667-0.7 0.60117-1.2329 0.70117-1.5996 0.1333-0.43333 0.19922-0.95078 0.19922-1.5508-0.033-0.7-0.0656-1.2329-0.0996-1.5996zm-20.752 2.9004h2e-3c0.2333-0.0667 0.28369 0.26667 0.15039 1-0.2 0.9-0.1167 1.7159 0.25 2.4492s1.0004 1.3012 1.9004 1.7012l0.25 0.0996 1.2988 0.15039c-0.2219 0.64356-0.51803 0.87909-0.79883 1.1973-0.028 0.0382-0.0506 0.0805-0.0996 0.10156l-0.30078 0.25c-0.015 0.0452-0.0476 0.0781-0.0996 0.0996-0.1926 0.10169-0.34377 0.20247-0.45117 0.30078-0.014 0.0147-0.0396 0.0242-0.0566 0.0371-1.1136 0.43258-2.1449 0.53515-3.0449 0.11328-1.6667-0.76667-2.5-2.1504-2.5-4.1504 0-0.16667 0.10078-0.48255 0.30078-0.94922 0.2-0.53333 0.33369-0.9345 0.40039-1.2012 0.033-0.13333 0.29883-0.26706 0.79883-0.40039l1.2012-0.29883c0.1667-0.0667 0.43213-0.23333 0.79883-0.5zm7.4023 1.4004c0.1667 0.16667 0.25 0.28294 0.25 0.34961 0.2 0.83333 0.66709 1.5659 1.4004 2.1992 0.7 0.63333 1.4829 1.0171 2.3496 1.1504 0.2333 0.0333 0.33408 0.13411 0.30078 0.30078-0.067 0.26667-0.0838 0.41589-0.0508 0.44922-0.033 1.2333-0.46748 2.2333-1.3008 3-0.8 0.73333-1.8 1.1326-3 1.1992-0.2966 0-0.57468-0.28724-0.85938-0.47461-0.2257-0.13501-0.48237-0.24972-0.64257-0.42773-0.3571-0.40743-0.5641-0.85591-0.6836-1.3281-0.037-0.1198-0.077-0.19505-0.11328-0.32813-0.1745-1.0294-0.1913-1.8487 0-2.3906 0.1-0.33333 0.53213-0.75 1.2988-1.25 0.6333-0.63333 0.95117-1.3329 0.95117-2.0996zm8.3496 0.94922c0.4333 0.26667 0.66787 0.40039 0.70117 0.40039 0.1333 0 0.43174 0.0504 0.89844 0.15039 0.3667 0.1 0.68447 0.11577 0.95117 0.0488 0.3333-0.1 0.53291-0.0167 0.59961 0.25 0.067 0.16667 0.11709 0.41667 0.15039 0.75 0.067 0.1 0.0818 0.26667 0.0488 0.5-4e-4 5e-3 4e-4 5e-3 0 0.01-0.011 0.0625-0.0986 0.0704-0.0996 0.14062v0.0508c0.069 1.0873-0.17294 1.9972-0.55664 2.8262-0.2299 0.45979-0.45275 0.92947-0.84375 1.1738-0.7667 0.46667-1.4488 0.61589-2.0488 0.44922-0.5667-0.16667-1.1345-0.63372-1.7012-1.4004-0.2667-0.4-0.66592-1.1829-1.1992-2.3496-0.067-0.2-0.0344-0.31628 0.0996-0.34961 0.067-0.0333 0.16748-0.0663 0.30078-0.0996 1.0333-0.33333 1.7329-1.0678 2.0996-2.2012 0.1333-0.43333 0.33291-0.54961 0.59961-0.34961zm32.699 0.39643h2e-3l-0.2207 0.87891c-0.072 0.52851-0.12421 1.043-0.1582 1.543l0.043 0.0566-0.01 0.0488-0.0391 0.29687-0.15625 1.8965c-0.5794 0.0561-0.96767 0.18968-1.1641 0.39843 0.073-0.29271 0.17735-0.68339 0.31055-1.1699l0.57227-1.9902c0.2439-0.8079 0.51751-1.4618 0.82031-1.959zm-10.506 1.1231h4e-3c0.45571-0.0193 0.92778 0.10508 1.4199 0.37305l-0.0488-8e-3 0.51172 0.32226 0.0488 6e-3c0.066 9e-3 0.12844 0.0519 0.18554 0.12695l0.043 0.0547c0.095 0.0465 0.20297 0.11331 0.32617 0.19727l-0.0488-8e-3c-0.1831 0.10976-0.36301 0.18678-0.53711 0.23047-0.3393 0.0213-0.67964 0.0589-1.0234 0.11328l0.0488 8e-3h-1.1094l-0.29101-0.0898-0.0996-0.0137c-0.1366 0.0151-0.21945 4e-3 -0.24805-0.0332-0.057-0.075-0.057-0.19283 0-0.35352l0.01-0.0488c0.067-0.49547 0.16944-0.76823 0.31054-0.8164l0.0508 8e-3c0.14695-0.0385 0.29628-0.0614 0.44727-0.0684zm-13.043 2.8848c0.1707 0.72688 0.36567 1.446 0.57227 2.1621-0.1327-0.20252-0.22838-0.40563-0.38868-0.60743-0.066-0.0828-0.06-0.12222-0.13281-0.20898l-0.20117-0.25c-0.015-0.0183-0.10154-0.089-0.11914-0.10938-0.093-0.0963-0.12877-0.19492-0.23047-0.29101l-0.30078-0.40039 0.15039-0.14844c0.2409-0.0241 0.44419-0.0872 0.65039-0.14648zm26.062 3.1444 1.2637 0.72656c0.033 4e-3 0.0648 0.025 0.0937 0.0625l0.0918 0.0644c0.062 0.042 0.14947 0.13709 0.26367 0.28711 0.2615 0.30452 0.62123 0.75734 1.0781 1.3574l0.043 0.0566 0.35743 0.70312 0.58593 1.6445c0.074 0.44731 0.10119 1.1063 0.084 1.9785 0.032 0.50889-0.037 0.90225-0.20899 1.1816-0.084 0.12318-0.19202 0.1761-0.32422 0.1582-0.099-0.0134-0.22856-0.0639-0.38476-0.15234-0.4597-0.33136-0.77391-0.60895-0.94531-0.83399-0.1427-0.18752-0.27745-0.44206-0.40235-0.76172l-0.043-0.0566c-0.5863-0.88671-0.97049-1.645-1.1543-2.2754 0-0.033-0.0101-0.068-0.0371-0.10547-0.1249-0.31965-0.27342-0.57557-0.44922-0.76757l-0.043-0.0566c-0.2525-0.37059-0.34308-0.81915-0.27148-1.3477l0.0723-0.54492 0.01-0.0508zm-24.771 1.1679c0.2112 0.56561 0.43296 1.1257 0.66796 1.6797l-1.3574 1.373c-0.01-0.0131-0.0144-0.0241-0.0234-0.0371l0.0723-0.082c-0.2-0.3-0.30078-0.5345-0.30078-0.70117-0.033-0.26667 0.11787-0.54961 0.45117-0.84961 0.2095-0.15239 0.22505-0.56944 0.31445-0.88477 0.06-0.14561 0.12895-0.2903 0.15625-0.4414 0-0.0253 0.0115-0.0395 0.0195-0.0566zm1.2031 2.8438c0.7396 1.4884 1.3902 2.79 1.6445 3.2031-1e-5 2e-3 -1e-5 4e-3 0 6e-3 0.5759 0.91463 1.1859 1.795 1.8301 2.6426 2.6503 3.5333 5.9527 6.377 9.8906 8.5156 3e-3 1e-3 6e-3 3e-3 0.01 4e-3 0.7762 0.40495 1.5999 0.80921 2.4746 1.2129 0.0185 9e-3 0.0374 0.0166 0.0566 0.0234l3.2012 1.0996c6e-3 2e-3 0.0117 4e-3 0.0176 6e-3 1.4125 0.43719 2.8252 0.82369 4.2383 1.1602 0.2707 0.0634 0.54536 0.11489 0.81836 0.17188l-1.6328 3.4297c-1.2341-0.46679-2.4445-0.94195-3.6016-1.4336 0-2e-3 -0.01-2e-3 -0.0117-4e-3 -1.4209-0.72688-2.8247-1.4386-4.2129-2.1328v-2e-3c-3.9514-2.009-7.6393-4.4771-11.066-7.4082v-4e-3c-2.5387-2.2886-4.7244-4.7974-6.6035-7.5zm-2.7988 5.2793h4e-3c1.6646 2.1759 3.547 4.2117 5.6484 6.1055 4e-3 3e-3 8e-3 7e-3 0.0117 0.01 3.5017 2.9968 7.2759 5.5251 11.318 7.5801v2e-3c0.074 0.037 0.15051 0.0762 0.22461 0.11328h-24.156c0.4202-0.50795 0.85779-1.0017 1.0508-1.7012 0.14279-0.54276 0.46982-0.7721 0.85742-0.89844h0.1914c0.1474-0.0108 0.20971-0.12996 0.34961-0.15039h0.20117c0.4 0.0667 0.71592 0.0337 0.94922-0.0996 0.3871-0.15485 0.52983-0.52586 0.83203-0.75586 0.2485-0.19239 0.50032-0.37915 0.69922-0.63476 0.1715-0.21765 0.49454-0.30168 0.61914-0.56055 0.228-0.47884 0.32642-1.2365 0.44532-1.9492 0.018-0.1047 0.09-0.14129 0.10547-0.25 0.01-0.0455-0.0226-0.0931-0.0176-0.13867 0.025-0.19938 0.099-0.29619 0.11718-0.51172 0.067-0.73333-0.1-1.4833-0.5-2.25-0.2-0.36667-0.64961-1.0333-1.3496-2-0.2995-0.44922-0.2243-0.52387-0.1504-0.59961 0.07-0.0915 0.1532-0.15937 0.25-0.20117 0.073-0.0169 0.10519-0.0841 0.17579-0.10352 0.3838-0.0392 0.77194-0.0588 1.123-0.24609 0.1867-0.10668 0.5786-0.41852 1-0.75977zm28.215 12.977c2.5181 0.47685 5.073 0.78086 7.6777 0.83398h-8.0742zm-57.561 5.9336c-0.33107 2.2e-4 -0.59939 0.26854-0.59961 0.59961 2.2e-4 0.33107 0.26854 0.59939 0.59961 0.59961h59.1c0.33183 8.6e-4 0.60135-0.26778 0.60156-0.59961-2.1e-4 -0.33183-0.26973-0.60047-0.60156-0.59961zm0 3c-0.33107 2.2e-4 -0.59939 0.26854-0.59961 0.59961 2.2e-4 0.33107 0.26854 0.59939 0.59961 0.59961h27.445c-0.709 0.24666-1.3399 0.44631-2.3945 0.90039-1.8 0.83333-3.6508 1.1008-5.5508 0.80078-1.3-0.2-2.3329-0.26784-3.0996-0.20117-0.4298 0.0261-0.75834 0.25421-1.1523 0.35156h-16.197c-0.33107 2.2e-4 -0.59939 0.26854-0.59961 0.59961 2.2e-4 0.33107 0.26854 0.59939 0.59961 0.59961h13.627c-0.3647 0.29414-0.69195 0.51423-1.127 0.94922l-0.0508 0.0508c-0.4555 0.43982-0.62226 0.5908-0.84766 0.80078h-11.602c-0.33107 2.2e-4 -0.59939 0.26854-0.59961 0.59961 2.2e-4 0.33107 0.26854 0.59939 0.59961 0.59961h10.154c-0.1463 0.11036-0.31552 0.26228-0.44922 0.34961-0.2238 0.14806-0.41045 0.31461-0.65625 0.45117-0.6 0.33333-1.2492 0.63177-1.9492 0.89844-0.1127 0.0459-0.36308 0.10341-0.48828 0.15039h-6.0625c-0.38675 4.3e-4 -0.69987 0.31442-0.69922 0.70117 4.3e-4 0.38599 0.31323 0.69879 0.69922 0.69922h1.0176c-0.4025 0.0833-0.69382 0.16668-1.166 0.25l-0.90625 0.14258c-0.4478 0.0514-1.3025 0.20899-1.5449 0.20703h-0.5c-0.2182-1e-3 -0.40043 0.0491-0.54883 0.15039l-0.0508 0.0508c-0.1587 0.22422-0.2421 0.45677-0.25 0.69922v10.35l0.0508 0.40039v0.0996l-0.0508 0.45117v4.5996c0 0.23581 0.087 0.45286 0.25 0.65039 0.1805 0.16641 0.38011 0.24974 0.59961 0.25h81.4c0.2476 4e-3 0.44731-0.0793 0.59961-0.25h0.0508c0.1625-0.19765 0.2458-0.41471 0.25-0.65039v-0.55078c0.01-0.29883-0.091-0.53138-0.30078-0.69922-0.081-0.068-0.14692-0.1513-0.19922-0.25l-0.0996-0.30078c-0.1124-0.29866-0.51248-0.63096-0.67578-0.93555-0.5793-1.0904-1.1645-2.1766-1.9746-3.1133-0.4667-0.5-0.93369-0.95156-1.4004-1.3516-0.1-0.0667-0.1833-0.13255-0.25-0.19922-0.7333-0.56667-1.4833-0.98333-2.25-1.25h0.15039c-0.9-0.26667-1.5667-0.41589-2-0.44922l-1.2773-0.10937c-2.3655-0.59272-4.3083-1.5122-5.5527-2.9707-0.3008-0.3973-0.5994-0.79189-0.8457-1.1348-0.04-0.0619-0.079-0.12304-0.12109-0.18555h27.746c0.46914-2.2e-4 0.84939-0.38047 0.84961-0.84961 8.6e-4 -0.4699-0.37971-0.85135-0.84961-0.85156h-28.824l-0.15039-0.22855c-0.1522-0.27403-0.31658-0.58966-0.42578-0.7207l-0.79883-0.69922-0.15039-0.15039c-0.2054-0.1956-0.54044-0.23824-0.77734-0.39648 0-1e-3 2.3e-4 -3e-3 -0.01-4e-3h17.787c0.38599-4.3e-4 0.69879-0.31323 0.69922-0.69922 6.5e-4 -0.38675-0.31247-0.70074-0.69922-0.70117h-20.883c-0.9836-0.26603-1.9813-0.48934-2.8672-1.0488-0.1333-0.0667-0.26709-0.15-0.40039-0.25-0.1528-0.13243-0.34171-0.38711-0.50391-0.55078h17.504c0.33107-2.2e-4 0.59939-0.26854 0.59961-0.59961-2.2e-4 -0.33107-0.26854-0.59939-0.59961-0.59961h-18.604c-0.017-0.0214-0.0299-0.0291-0.0469-0.0508l-1.8984-1.5508c-0.078-0.0776-0.17976-0.0943-0.25976-0.16602-0.011-8e-3 -0.0232-0.0216-0.0352-0.0332h16.795c0.33107-2.2e-4 0.59939-0.26854 0.59961-0.59961-2.2e-4 -0.33107-0.26854-0.59939-0.59961-0.59961h-19.803c-0.3329-0.0336-0.63755-0.1369-0.99805-0.10156-0.3385 0.0406-0.67723 0.0664-1.0156 0.10156h-3.7793l-0.45501-0.15028-1.8008-0.70117c-0.7333-0.26667-1.4484-0.58255-2.1484-0.94922-0.057-0.0302-0.098-0.022-0.1543-0.0508h25.553c0.33183 8.6e-4 0.60135-0.26778 0.60156-0.59961-2.1e-4 -0.33183-0.26973-0.60047-0.60156-0.59961z"/>
 <g transform="translate(-895.7 -373.75)">
  <path transform="translate(160.15,84.1)" d="m740.55 289.65c-3.3333 0-5 1.6667-5 5v158.2c0 3.3333 1.6667 5 5 5h93.201c3.3333 0 5-1.6667 5-5v-158.2c0-3.3333-1.6667-5-5-5zm8.3008 7.1992h76.6c4.6667 0 7 2.3333 7 7v139.8c0 4.6667-2.3333 7-7 7h-76.6c-4.6667 0-7-2.3333-7-7v-139.8c0-4.6667 2.3333-7 7-7z" fill="#ef1d1e"/>
  <path transform="translate(160.15,84.1)" d="m748.85 296.85c-4.6667 0-7 2.3333-7 7v139.8c0 4.6667 2.3333 7 7 7h76.6c4.6667 0 7-2.3333 7-7v-139.8c0-4.6667-2.3333-7-7-7z" fill="none" stroke="#000" stroke-width="1.2"/>
 </g>
</svg>
