<svg width="103.2" height="168.2" preserveAspectRatio="none" version="1.1" viewBox="0 0 103.2 168.2" xmlns="http://www.w3.org/2000/svg">
 <path d="m13.301 7.1992c-4.6667 0-7 2.3333-7 7v139.8c0 4.6667 2.3333 7 7 7h76.6c4.6667 0 7-2.3333 7-7v-139.8c0-4.6667-2.3333-7-7-7z" fill="#fff"/>
 <path d="m45.65 20.9c-0.5357 5e-3 -1.0202 0.22173-1.4512 0.65039-0.693 0.68685-0.9256 1.7198-0.6992 3.0996l0.1 0.54883v0.05078c0.061 0.62708 0.2777 1.16 0.6504 1.5996 0.074 0.12044 0.1066 0.23672 0.1 0.34961 0 0.1319-0.05 0.23268-0.1504 0.30078-0.2703 0.33985-0.4854 0.75651-0.6484 1.25v0.0996c-0.027 0.22201-0.027 0.42162 0 0.59961l0.051 0.25c0.027 0.0247 0.045 0.0422 0.051 0.0508 0.05 0.37344 0.116 0.65638 0.1993 0.84961h0.051c1.2735 2.6654 3.2561 4.5316 5.9493 5.5996 0.033 0.0246 0.05 0.042 0.051 0.0508 0.1473 0.0665 0.2966 0.0995 0.4493 0.0996h0.1504c0.2435-1e-3 0.4604-0.0847 0.6503-0.25 0.1529-0.19661 0.2362-0.37878 0.25-0.54883 0-0.12305 0.033-0.24127 0.1-0.35156 0.097-0.0793 0.1971-0.12774 0.3007-0.14844 0.1412-0.0172 0.2575-2e-3 0.3496 0.0488 0.1923 0.12877 0.3746 0.19661 0.5489 0.20117 0.1248-3e-3 0.2429-0.0376 0.3515-0.10156 0.049-0.0119 0.082-0.0274 0.1-0.0488 0.1224-0.0311 0.4713-0.26564 1.0489-0.70117l0.3008-0.29883c0.023-0.0181 0.041-0.0355 0.051-0.0508 2.7268-1.9092 4.5757-4.0255 5.5489-6.3496v-0.0508c0.4724-0.99219 0.3735-1.9089-0.2989-2.75-0.3365-0.45235-0.8209-0.6849-1.4511-0.69922l-0.5 0.0508c-1.1313 0.1556-2.0635 0.6556-2.7989 1.5-0.4564 0.55977-0.9235 1.4086-1.4004 2.5488l-0.3496 0.75c-0.2925 0.63151-0.6762 1.8156-1.1504 3.5508h0.049c-0.177 0.76224-0.2933 1.1944-0.3496 1.2988-0.016 0.10143-0.066 0.18477-0.1504 0.25-0.082 0.0631-0.1806 0.098-0.2989 0.10156-0.092 5e-3 -0.1925-0.0296-0.3007-0.10156-0.074-0.0467-0.1399-0.13007-0.1993-0.25-0.6929-1.7635-1.3925-3.1298-2.0996-4.0996-0.062-0.0819-0.097-0.18073-0.1015-0.29883-0.01-0.0907 0.013-0.19153 0.053-0.30078 0.2008-0.26667 0.2008-0.54961 0-0.84961-0.01-0.0307-0.026-0.0811-0.053-0.15039-0.071-0.26393-0.087-0.59727-0.049-1v-0.0508c0.2777-2.1264-0.1892-3.9423-1.4003-5.4492-0.4279-0.56159-0.9609-0.84453-1.5997-0.84961zm26.549 8.4492c-0.6976-5.2e-4 -1.5135 0.11576-2.4492 0.34961l-1.1504 0.30078c-2.7731 0.72708-4.6723 1.1767-5.6992 1.3496-0.1952 0.0451-0.3793 0.1284-0.5508 0.25v0.0508c-0.1315 0.16537-0.1974 0.34753-0.1992 0.54883v0.05076c-0.021 0.19193 0.012 0.35859 0.1 0.5l0.051 0.0508c0.153 0.16041 0.3351 0.25924 0.5488 0.29883 0.3801 0.069 1.1146 0.28607 2.2012 0.65039 1.2804 0.43203 2.0459 0.66459 2.2988 0.69922 0.034 5e-3 0.069 5e-3 0.1016 0l0.1504 0.0508c1.9366 0.46823 3.4696 0.70078 4.5996 0.69922 0.7908 3e-3 1.5582-0.0955 2.3008-0.29883h0.051l0.25-0.0508c0.9852-0.16198 1.5842-0.59414 1.7989-1.2988 0.2157-0.63098 0.2157-1.2492 0-1.8516-0.1791-0.57982-0.5124-1.0294-1-1.3496-1.0015-0.66459-2.1352-0.99792-3.4004-1zm-11.648 44.201c-0.9991 0.01707-1.784 0.30001-2.3516 0.84961-1.084 1.1147-1.5665 2.7969-1.4492 5.0488l0.1504 0.95117c0.016 0.12149 2e-4 0.22032-0.051 0.29883-0.051 0.11432-0.1347 0.19765-0.25 0.25-0.5373 0.29896-1.0198 0.81641-1.4492 1.5508h0.049c-0.3532 0.62956-0.6187 1.18-0.7988 1.6504-0.027 0.13411-0.11 0.23294-0.25 0.29883-0.1049 0.0612-0.2212 0.0612-0.3496 0-0.134-0.02693-0.2348-0.11027-0.3008-0.25l-0.051-0.09961c-0.2922-0.59779-0.7088-1.0803-1.25-1.4492-0.483-0.34883-0.9985-0.53294-1.5488-0.55078l-0.3008 0.05078c-0.1207 0.01927-0.237-0.01368-0.3496-0.09961-0.1129-0.08099-0.1788-0.19921-0.1992-0.35156l-0.5-3.3496c-0.1089-0.66406-0.4267-1.23-0.9512-1.6992-0.4673-0.42903-1.0177-0.64609-1.6504-0.65039-0.3233-0.0027-0.6063 0.04772-0.8496 0.15039-2.2553 1.0501-3.7224 2.9998-4.4004 5.8496-0.083 0.43945-0.065 0.82318 0.051 1.1504 0.048 0.09765 0.065 0.18099 0.051 0.25-0.012 0.10937-0.047 0.19271-0.1016 0.25l-0.6484 0.79883c-0.7632 1.5026-0.9143 3.0859-0.4512 4.75l0.051 0.20117 0.049 0.04883c0.1159 0.55924 0.2671 0.99336 0.4512 1.3008 0.085 0.12435 0.1197 0.24062 0.1016 0.34961-0.02 0.13841-0.086 0.23919-0.1993 0.30078l-0.3007 0.25c-0.057 0.08281-0.14 0.1332-0.25 0.15039-0.079 0.0097-0.1623-0.0077-0.25-0.05078-0.092-0.038-0.1753-0.10389-0.25-0.19922-0.5447-0.84505-1.5951-2.3121-3.1504-4.4004l-1.25-1.5996c-0.459-0.62083-1.0094-0.93867-1.6504-0.95117l-0.5 0.05078c-0.83 0.27513-1.3135 0.80808-1.4518 1.5996-0.1231 0.95052-0.01 2.0339 0.3496 3.25 0.668 2.2068 2.2688 4.2572 4.8008 6.1504 1.1971 0.87005 2.8308 1.62 4.9004 2.25h-0.051l0.301 0.099609c0.1666-0.0047 0.3159-0.05506 0.4492-0.15039 0.098-0.06901 0.1988-0.10196 0.3008-0.09961 0.1298 0.0071 0.2286 0.04001 0.2988 0.09961 1.2762 1.087 2.362 1.8082 3.2813 2.2051l-0.031-4e-3 0.1 0.0488c-0.019-8e-3 -0.047-0.0367-0.066-0.0449l0.418 0.0449 0.4492-0.0488c0.085-0.0113 0.168-0.0113 0.25 0 0.076 0.0415 0.1423 0.09 0.1992 0.14844 0.5514 0.54361 1.3693 1.1618 2.4512 1.8516 0.6333 0.43906 1.2496 0.80534 1.8496 1.0996 0.1143 0.0429 0.1977 0.10875 0.25 0.19922 0.049 0.094 0.067 0.19479 0.051 0.30078-0.011 0.11354-0.062 0.21237-0.1504 0.29883-0.059 0.0792-0.1427 0.12956-0.25 0.15039-0.8253 0.15885-1.6761 0.34297-2.5508 0.55078-0.7021 0.21823-1.5354 0.50117-2.5 0.84961l-1.4492 0.5c-0.031 0.0313-0.082 0.0487-0.1504 0.0508-2.0616 0.72265-3.4957 1.5385-4.3008 2.4492l-0.25 0.30078c-0.6904 0.69258-0.9734 1.4077-0.8496 2.1484 0.1736 0.7668 0.6232 1.385 1.3496 1.8516 0.7528 0.51953 1.5376 0.78502 2.3516 0.79882h0.049l0.4004-0.0488c1.1405-0.15729 2.123-0.40729 2.9492-0.75 0.097-0.0469 0.1981-0.0643 0.3008-0.0508 0.097 0.0233 0.1807 0.0737 0.25 0.1504 0.077 0.0698 0.1272 0.15313 0.1504 0.25 0.013 0.10313 2e-4 0.20195-0.051 0.29882l-0.5996 1.3516c-0.4488 1.1237-0.3984 2.1237 0.1504 3 0.4685 0.71458 1.1506 1.1138 2.0488 1.1992h0.1504c0.1371-6.7e-4 0.2379-0.0181 0.3008-0.0508 0.041-0.0108 0.074-0.0263 0.1-0.0488 2.4161-0.68789 4.3502-2.2712 5.8008-4.75v-0.0508c0.848-1.3331 1.4314-2.8835 1.75-4.6504v0.05086l0.1992-1.5996v-0.0508c0.2425-1.3573 0.4091-2.1906 0.5-2.5 0.069-0.18698 0.103-0.38659 0.1016-0.59961v-0.0508c0-0.14127-0.035-0.25755-0.1016-0.34961-0.079-0.0951-0.1116-0.21133-0.1-0.34961 0.01-0.12018 0.057-0.23646 0.1504-0.34961 0.1-0.0698 0.216-0.10274 0.3496-0.0996h0.1c0.1125-3e-3 0.2133 0.0296 0.3008 0.0996 0.1039 0.0634 0.2531 0.0963 0.4492 0.0996 0.1371-6.7e-4 0.2379-0.0181 0.3008-0.0508h0.049l3.5-1.5c0.1153-0.0525 0.2316-0.068 0.3496-0.0488 0.1184 0.0571 0.2017 0.14047 0.25 0.25 1.3955 2.2966 3.0292 4.38 4.9004 6.25 1.7104 1.7949 3.8771 3.3783 6.5 4.75 0.7037 0.35951 1.3548 0.54167 1.9512 0.54883 0.6242 1e-3 1.1397-0.19828 1.5488-0.59961v-0.0488c0.4089-0.37461 0.6434-0.9095 0.7012-1.6016 0.01-0.0331 0.01-0.066 0-0.0996 0.1299-0.44779 0.012-0.96328-0.3516-1.5488v-0.05078l-0.3496-0.69922c-0.057-0.10456-0.073-0.22279-0.049-0.35156 0.053-0.12201 0.136-0.22084 0.25-0.29883 0.1191-0.0493 0.2354-0.0668 0.3496-0.0508 0.5129 0.13672 1.0787 0.20456 1.6992 0.20117 0.7008-3e-3 1.3171-0.12089 1.8496-0.35156 0.041 6e-3 0.076 6e-3 0.1016 0l0.25-0.0488h-0.051c1.2211-0.29153 1.8548-0.97565 1.9004-2.0508 0.044-0.98893-0.4405-2.0044-1.4512-3.0488-1.114-1.1117-2.2962-1.6796-3.5488-1.7012l-1.75 0.15039h-0.051c-0.7518-5.2e-4 -2.0173-0.21758-3.7988-0.65039h-0.051l-0.5996-0.15039 0.049 0.0508c-1.8902-0.40534-3.9057-1.0391-6.0488-1.9004-0.049-0.01367-0.1-0.04661-0.1504-0.09961l-0.051-0.05078-0.4492-0.29883c-0.089-0.03827-0.155-0.1061-0.1992-0.20117-0.047-0.08802-0.064-0.18685-0.051-0.29883 0.089-0.51224 0.039-1.0626-0.1504-1.6504-0.2927-0.97851-1.0582-1.4785-2.2988-1.5l-0.5 0.05078c-0.3972 0.05573-0.7654 0.20495-1.1016 0.44922-0.085 0.10261-0.2017 0.153-0.3496 0.15039-0.1104-0.0074-0.2092-0.05779-0.2988-0.15039l-0.051-0.05078-0.4492-0.29883c-0.085-0.06758-0.1526-0.16836-0.2012-0.30078-0.018-0.10351-7e-4 -0.21979 0.051-0.34961 0.6073-1.2644 0.6906-2.8652 0.25-4.8008-0.01-0.03333-0.01-0.06628 0-0.09961l-0.3017-1.0996c-0.01-0.05887-0.01-0.12475 0-0.19922 0.018-0.07265 0.051-0.14049 0.1-0.20117 0.1219-0.1625 0.1897-0.31172 0.2012-0.44922v-0.05078l0.1-1.4004c0.011-0.09583 0.046-0.19466 0.1016-0.29883 0.082-0.0612 0.1655-0.11159 0.25-0.15039 0.084-0.01787 0.185-0.08375 0.3007-0.19922 0.2022-0.20456 0.3011-0.45456 0.2989-0.75 0.01-0.04233 0.01-0.09272 0-0.15039l0.1015-0.40039v0.05078c0.037-0.23607 0.2033-0.5694 0.5-1l-0.051 0.04883c0.5423-0.98359 0.7923-1.7995 0.75-2.4492l-0.053-1.1504c0.01-1.2506-0.092-2.301-0.2988-3.1504-0.1788-0.80026-0.5296-1.4669-1.0508-2v-0.04883c-0.4687-0.5233-1.0676-0.84114-1.7988-0.95117zm13.85 3.6484c-0.1914 0.0027-0.391 0.05306-0.5996 0.15039-1.6892 0.70391-3.0071 2.0547-3.9512 4.0508-0.061 0.15833-0.094 0.37539-0.1 0.65039 0.047 0.31523 0.1966 0.56523 0.4492 0.75 0.1155 0.05667 0.2337 0.08961 0.3516 0.09961l0.5488-0.09961 0.1-0.05078c0.057-0.02213 0.1077-0.03958 0.1504-0.05078l0.25-0.04883c0.067-0.01227 0.1345-0.01227 0.2012 0l0.5488 0.09961c0.1117 0.02253 0.1951 0.07292 0.25 0.15039 0.097 0.11159 0.1477 0.22786 0.1504 0.34961 0 1.1487-0.1841 2.1158-0.5508 2.9004-0.024 0.09232-0.072 0.17565-0.1484 0.25-0.42 0.42018-0.5866 0.85234-0.5 1.2988l0.049 0.05078c0.1042 0.41914 0.3872 0.70208 0.8496 0.84961 0.033 0.02393 0.051 0.04138 0.051 0.05078l0.1 0.04883c0.063 0.0268 0.1137 0.06169 0.1504 0.10156 0.3571 0.35482 0.7234 0.53698 1.0996 0.54883 0.6423-0.03113 1.1094-0.48074 1.4004-1.3496 1.0371-2.5825 1.7542-5.1155 2.1504-7.5996 0.1599-0.78099-0.04-1.531-0.5996-2.25-0.564-0.63529-1.281-0.95312-2.1504-0.95117zm-20.75 11.801c0.1087-0.01433 0.2076-0.01433 0.2988 0 0.1014 0.05013 0.1847 0.11602 0.25 0.19922 0.088 0.10469 0.2717 0.25586 0.5508 0.45117l0.5996 0.40039c0.1362 0.09544 0.2195 0.21172 0.25 0.34961l0.5 2.5996h-0.049c0.4304 1.7697 0.663 3.0371 0.6992 3.8008v0.04883c3e-4 0.23125 0.084 0.43086 0.25 0.59961 0.063 0.06367 0.096 0.1315 0.1 0.20117 0.041 0.10794 0.041 0.20677 0 0.29883-0.2672 0.97656-0.3835 1.9766-0.3496 3v1.25c0 0.13359-0.05 0.25182-0.1504 0.35156-0.08 0.0934-0.1961 0.1418-0.3496 0.14844-0.1049 0.0124-0.2057-0.0205-0.3008-0.0996-0.5304-0.42318-1.1467-1.0724-1.8496-1.9492l-0.3498-0.45117c-0.8541-1.1299-1.5711-2.38-2.1504-3.75-0.01-0.02513-0.025-0.05808-0.049-0.09961l-0.1504-0.54883c0.01-3.9e-4 0.01-0.01784 0-0.05078-0.085-0.57604-0.2359-1.0431-0.4512-1.4004-0.035-0.08581-0.051-0.18464-0.049-0.29883 0.01-0.07474 0.04-0.15807 0.1-0.25 0.1407-0.21432 0.1733-0.48177 0.1-0.80078-0.01-0.03307-0.01-0.06601 0-0.09961v-0.05078c-0.01-0.03347-0.01-0.06641 0-0.09961 0.4126-1.8052 1.1122-3.0048 2.0996-3.5996 0.039-0.0053 0.074-0.02278 0.1016-0.05078z" fill="#faea01"/>
 <path d="m55.75 16.5c-0.7333 0-1.4174 0.30039-2.0508 0.90039-0.9333 0.86667-1.4992 2.2504-1.6992 4.1504 0 0.1-0.05 0.19883-0.1504 0.29883-0.067 0.0667-0.15 0.11706-0.25 0.15039-0.1333 0-0.2496-0.0174-0.3496-0.0508-0.2333-0.13333-0.4833-0.19922-0.75-0.19922-0.3667 0-0.6826 0.10078-0.9492 0.30078h-0.051c-0.7667 0.43333-1.2841 1.2163-1.5508 2.3496v-0.0508c-0.5 2.2-0.3333 4.2833 0.5 6.25l2.2012 5.0508 0.049 0.0488c0.1 0.33333 0.35 0.5 0.75 0.5s0.6849-0.16667 0.8516-0.5c0.2666-0.6 0.4333-1.4333 0.5-2.5v-0.0488c0.067-0.5 0.1151-0.83333 0.1484-1v-0.0508l0.3516-2.25c0-0.1 0.033-0.18333 0.1-0.25 0.033-0.0667 0.099-0.11706 0.1992-0.15039 0.2-0.1 0.3512-0.23177 0.4512-0.39844l0.5488-1.1016c1.6667-3.3 2.75-5.8659 3.25-7.6992 0.1667-0.66667 0.1829-1.2829 0.051-1.8496-0.2-0.66667-0.5508-1.1841-1.0508-1.5508-0.3-0.23333-0.6663-0.34961-1.0996-0.34961zm10.801 2.0508c-1 0.0667-1.8682 0.29922-2.6016 0.69922-1.7 0.93333-2.95 2.2841-3.75 4.0508h0.051c-0.5333 1.2667-0.8996 2.9818-1.0996 5.1484v0.0508c-0.033 0.13333-0.018 0.3 0.049 0.5v0.30078l-0.1996 0.1992c-0.5667 0.43333-1.1674 0.96628-1.8008 1.5996l-0.1992 0.30078c0 0.0667-0.017 0.13255-0.051 0.19922-0.2 0.23333-0.2305 0.50078-0.1 0.80078 0.067 0.13333 0.067 0.26706 0 0.40039-0.1333 0.33333-0.065 0.64922 0.2012 0.94922l0.3496 0.25c0.033 0 0.049 0.0174 0.049 0.0508 0.067 0.0667 0.3012 0.26628 0.7012 0.59961l-0.051-0.0508 0.9512 0.65039c1.4666 0.93333 2.5325 1.5671 3.1992 1.9004 1.2 0.63333 2.3841 1.0655 3.5508 1.2988l0.049 0.0508 0.25 0.0508 1.2012 0.19922c0.7333-0.0333 1.2663-0.38412 1.5996-1.0508 0.5667-1.1667 0.3322-2.2326-0.7012-3.1992-0.5666-0.56667-1.1829-1.0008-1.8496-1.3008-0.3333-0.16667-0.717-0.29844-1.1504-0.39844-0.1333-0.0333-0.2321-0.10117-0.2988-0.20117-0.067-0.1-0.1-0.19883-0.1-0.29883s0.033-0.18333 0.1-0.25c0.067-0.1 0.15-0.16784 0.25-0.20117 0.3-0.13333 0.767-0.26706 1.4004-0.40039v0.0508c1.3666-0.33333 2.2329-0.56589 2.5996-0.69922l0.25-0.10156c2.4-0.9 4.117-1.7488 5.1504-2.5488 0.9-0.7 1.3321-1.5004 1.2988-2.4004v-0.0508c0-0.73333-0.3159-1.2992-0.9492-1.6992-0.8333-0.56667-1.75-0.84961-2.75-0.84961-0.7667 0-1.7163 0.16667-2.8496 0.5l-0.5508 0.15039c-0.1333 0.0333-0.2496 0.0333-0.3496 0-0.1-0.0667-0.1678-0.15-0.2012-0.25-0.067-0.1-0.1-0.20078-0.1-0.30078 0.033-0.13333 0.084-0.23411 0.1504-0.30078l0.1-0.0996c0.6-0.76667 0.7008-1.8171 0.3008-3.1504-0.2667-0.76667-0.85-1.1484-1.75-1.1484zm-25.951 3.1484c-0.8 0-1.3833 0.4845-1.75 1.4512h-0.049c-0.2 0.46667-0.3008 1.05-0.3008 1.75 0 0.13333-0.033 0.24961-0.1 0.34961-0.1 0.0667-0.2008 0.11706-0.3008 0.15039-0.1333 0.0333-0.2496 0.0159-0.3496-0.0508-1.0667-0.7-2.0996-1.1826-3.0996-1.4492-0.7333-0.26667-1.3671-0.40039-1.9004-0.40039-0.6333 0-1.2341 0.19961-1.8008 0.59961v-0.0488c-0.4333 0.3-0.6833 0.71667-0.75 1.25-0.1 0.53333-0.017 1.0992 0.25 1.6992 0.8667 1.8 2.2834 3.1663 4.25 4.0996h0.051l0.3012 0.15038c0.1 0.0667 0.1833 0.16745 0.25 0.30078 0.033 0.13333 0.016 0.26511-0.051 0.39844-0.067 0.1-0.15 0.18333-0.25 0.25-0.8 0.26667-1.4492 0.56706-1.9492 0.90039-0.9 0.63333-1.3845 1.4163-1.4512 2.3496-0.067 0.8 0.1833 1.4512 0.75 1.9512 0.8667 0.7 1.8163 1.0488 2.8496 1.0488 0.7 0 1.6671-0.19961 2.9004-0.59961 2.1-0.73333 4.2996-1.9155 6.5996-3.5488h0.051c0.1-0.1 0.2008-0.25117 0.3008-0.45117 0.033-0.1 0.099-0.16589 0.1992-0.19922 0.2333-0.16667 0.3671-0.36628 0.4004-0.59961v-0.05078c0.067-0.33333-0.034-0.61628-0.3008-0.84961-0.1-0.0667-0.1504-0.15-0.1504-0.25-0.033-0.1-0.033-0.18333 0-0.25 0-0.1-0.033-0.25117-0.1-0.45117l0.051 0.10156-0.1504-0.35156c-0.5-1.2-0.6337-1.9829-0.4004-2.3496 0-0.0667 0.033-0.13255 0.1-0.19922l0.1016-0.0996c0.3333-0.33333 0.5484-0.65117 0.6484-0.95117 0.1-0.53333-0.067-1.0488-0.5-1.5488-0.1333-0.13333-0.3484-0.50156-0.6484-1.1016v-0.0488c-0.2-0.5-0.3667-0.85078-0.5-1.0508-0.7667-1.2-1.8016-1.8337-3.1016-1.9004zm27.25 51.852c-1.3667 0-2.5159 0.46511-3.4492 1.3984-0.6 0.6-0.9837 1.3171-1.1504 2.1504-0.1 0.53333-0.1305 1.3008-0.1 2.3008v0.44922l-0.051 0.0996c-0.1 0.66666-0.067 1.1337 0.1 1.4004 0.033 0.1 0.051 0.20078 0.051 0.30078-0.033 0.1-0.084 0.19883-0.1504 0.29883-0.3 0.3-0.6004 0.76706-0.9004 1.4004 0 0.0333-0.015 0.0837-0.049 0.15039-0.3333 0.7-0.6337 1.8841-0.9004 3.5508l-0.1504 1c-0.033 0.16667-0.016 0.31589 0.051 0.44922 0.033 0.0667 0.049 0.13255 0.049 0.19922 0 0.0667-0.015 0.15-0.049 0.25-0.2333 0.46666-0.3167 0.93372-0.25 1.4004v0.45117c0.1333 1.5-0.018 2.5484-0.4512 3.1484h0.051c-0.3667 0.5-0.45 0.9845-0.25 1.4512 0.2 0.36667 0.5159 0.59922 0.9492 0.69922 0.1334 0.0333 0.2516 0.11667 0.3516 0.25 0.2333 0.4 0.5492 0.59961 0.9492 0.59961 0.3667 0 0.6826-0.18216 0.9492-0.54883h0.051c0.3-0.36667 0.55-0.53333 0.75-0.5 0.033 0 0.084 0.0155 0.1504 0.0488l0.8496 0.20117c0.067 0 0.15 0.0504 0.25 0.15039 0.067 0.0667 0.1 0.15 0.1 0.25 0.033 0.26667 0.1671 0.56511 0.4004 0.89844 0.033 0.0667 0.062 0.15 0.062 0.25 0 0.0667-0.027 0.15-0.062 0.25l-0.1992 0.40039c-0.033 0.23333-0.01 0.45039 0.061 0.65039 0.1333 0.43333 0.4996 0.73372 1.0996 0.90039 0.033 0 0.084 0.0155 0.1504 0.0488l4.5996 1.5c2.8333 0.8 5.1996 1.2012 7.0996 1.2012l1.5-0.0996c0.9666-0.1 1.7845-0.45078 2.4512-1.0508h0.051c0.6333-0.63333 0.9318-1.3329 0.8984-2.0996v-0.15035c-0.1666-1.0333-0.8488-1.9326-2.0488-2.6992l-0.051-0.0508c-0.2333-0.16667-0.5163-0.33333-0.8496-0.5-0.1333-0.0667-0.2167-0.15-0.25-0.25-0.067-0.13333-0.067-0.24961 0-0.34961 0.033-0.13333 0.1167-0.23411 0.25-0.30078 1.6-0.8 2.7821-1.8504 3.5488-3.1504 0.4333-0.73333 0.5341-1.4155 0.3008-2.0488-0.2-0.53333-0.5508-0.89961-1.0508-1.0996l-1.5-0.30078c-0.1-0.0333-0.1834-0.0837-0.25-0.15039-0.1-0.1-0.1503-0.19883-0.1503-0.29883 0-0.13333 0.035-0.23411 0.1015-0.30078 0.4-0.63333 0.6829-1.2671 0.8496-1.9004l-0.055 0.0508 0.055-0.34961c-0.033-0.73333-0.2504-1.3341-0.6504-1.8008-0.5236-0.46667-1.1399-0.69922-1.8496-0.69922l-0.5488 0.0488c-2.0667 0.3-3.5337 1.2167-4.4004 2.75l-1.0508 1.9512c-0.033 0.0667-0.099 0.13255-0.1992 0.19922-0.067 0.0333-0.15 0.0508-0.25 0.0508s-0.1833-0.0174-0.25-0.0508l-0.4134-0.24997c-0.1333-0.1-0.1992-0.20078-0.1992-0.30078-0.067-0.13333-0.067-0.24961 0-0.34961l0.3496-0.69922 0.4492-1.5508v-0.0488c0.3333-1 0.2675-1.8004-0.1992-2.4004-0.4-0.46667-0.9-0.70117-1.5-0.70117-0.3667 0-0.7175 0.0678-1.0508 0.20117-0.1333 0.0667-0.267 0.0822-0.4004 0.0488-0.1333-0.0667-0.2166-0.1655-0.25-0.29883-0.067-0.13333-0.067-0.24961 0-0.34961l0.7012-1.75c0.6667-1.7 0.6667-3.1341 0-4.3008-0.7-1.1333-1.7175-1.6992-3.0508-1.6992zm-14.199 1.5996c-0.7333 0-1.4175 0.31589-2.0508 0.94922-0.9667 0.9-1.6837 2.2333-2.1504 4l-0.049 0.15039c-0.033 0.0333-0.051 0.0663-0.051 0.0996-0.3667 0.63333-0.4325 1.1837-0.1992 1.6504v0.0508c0.2 0.36667 0.5837 0.59922 1.1504 0.69922 1.1333 0.23333 1.9666 0.98333 2.5 2.25 0.1 0.2 0.2318 0.43255 0.3984 0.69922l0.1504 0.15039c0.2 0.23333 0.4345 0.36706 0.7012 0.40039l0.1992-0.0508h0.051c0.3333-0.0667 0.5659-0.28177 0.6992-0.64844l0.1-0.35156v-0.0488c0.5333-1.6667 1.1845-2.7829 1.9512-3.3496h0.049c0.5333-0.36667 0.7175-0.85117 0.5508-1.4512l-0.75-2.6504v0.05076c-0.5667-1.5333-1.5667-2.3996-3-2.5996zm-15.25 4.0488-0.4004 0.05078c-0.2667 0.1-0.4333 0.18333-0.5 0.25-0.5333 0.4-0.9674 1.0841-1.3008 2.0508h-0.049l-0.25 0.54883v0.0508c-0.9 1.9-0.7508 3.9504 0.4492 6.1504l1.0996 1.5488v-0.0488c0.5 0.56667 0.8508 1.0822 1.0508 1.5488l0.051 0.0508c0.3666 0.93333 0.8666 1.4159 1.5 1.4492 0.2 0 0.3821-0.0329 0.5488-0.0996 0.7333-0.46667 1.1675-0.99961 1.3008-1.5996 0-0.0333 0.015-0.0663 0.049-0.0996 0.1667-0.6 0.017-1.2337-0.4492-1.9004-0.6-0.86667-0.6833-1.8841-0.25-3.0508v-0.0488c0.5847-1.4617 0.6009-2.8454 0.051-4.1504l-0.102-0.15051c-0.033-0.0333-0.049-0.0663-0.049-0.0996-0.3-0.66667-0.583-1.1512-0.8496-1.4512-0.4667-0.53333-1.05-0.86667-1.75-1zm15.299 9.1504c-1.2333 0.0333-2.15 0.83372-2.75 2.4004v-0.0508l-0.049 0.15039c-0.033 0-0.051 0.0174-0.051 0.0508-0.9 2.2-0.7992 4.4655 0.3008 6.7988 0.6667 1.4 1.5659 2.7837 2.6992 4.1504 0.067 0.0667 0.1 0.16745 0.1 0.30078s-0.033 0.24961-0.1 0.34961c-0.1 0.0667-0.1988 0.11706-0.2988 0.15039-0.1334 0-0.2516-0.0174-0.3516-0.0508-0.4-0.23333-0.8321-0.34961-1.2988-0.34961h-0.1504c-0.1 0-0.2008-0.0329-0.3008-0.0996s-0.1484-0.15-0.1484-0.25c-0.067-0.2-0.1675-0.33372-0.3008-0.40039l-0.051-0.0508c-1.1-0.8-2.0825-1.2651-2.9492-1.3984-0.1 0-0.1833-0.0349-0.25-0.10156-0.067-0.0667-0.1171-0.13255-0.1504-0.19922-0.067-0.1-0.1829-0.18333-0.3496-0.25h0.051l-0.6016-0.30078h-0.049l-0.75-0.5-0.051-0.0488c-0.7667-0.6-1.4663-0.98372-2.0996-1.1504-1.8333-0.53333-3.2674-1.0159-4.3008-1.4492-1.5333-0.7-2.7833-1.5682-3.75-2.6016-0.3666-0.36667-0.7988-0.54883-1.2988-0.54883-0.1667 0-0.5504 0.0833-1.1504 0.25l-0.3488 0.09961c-0.8333 0.2-1.2171 0.73294-1.1504 1.5996v0.0996c0 1.0333 0.4826 2.0682 1.4492 3.1016 0.067 0.0667 0.1016 0.18294 0.1016 0.34961 0 0.13333-0.05 0.24961-0.1504 0.34961-0.3333 0.3-0.533 0.71667-0.5996 1.25-0.033 0.8 0.2651 1.5829 0.8984 2.3496 0.6 0.73333 1.3345 1.2178 2.2012 1.4512l-0.051-0.0508 0.25 0.0508c0.1 0.0333 0.1833 0.0818 0.25 0.14844 0.067 0.0667 0.1171 0.16745 0.1504 0.30078 0 0.1-0.017 0.20078-0.051 0.30078l-0.1 0.19922c-0.5333 0.86667-0.5028 1.6341 0.1 2.3008 0.8334 0.83333 1.8837 1.3333 3.1504 1.5l1 0.0996c1.0667-0.0333 2.5667-0.45 4.5-1.25l1.4512-0.59961h0.049c0.7667-0.33333 1.6175-0.60078 2.5508-0.80078l-0.051 0.0508c2.2222-0.66334 3.7578-1.228 4.627-1.6934 0.237-0.1916 0.3925-0.40782 0.4238-0.6582l-0.05-0.44922c0-0.1 0.033-0.20078 0.1-0.30078 0.033-0.1 0.1012-0.16589 0.2012-0.19922 0.1-0.0333 0.1988-0.0508 0.2988-0.0508 0.1 0.0333 0.2008 0.0837 0.3008 0.15039l0.6504 0.70117v0.0488c0.1667 0.16667 0.3837 0.30039 0.6504 0.40039h0.1l0.1016 0.0508c0.1 0.0667 0.2336 0.0996 0.4003 0.0996 0.1 0 0.1989 0.0329 0.2989 0.0996s0.1678 0.15 0.2011 0.25v0.30078c-0.2667 0.9-0.4663 2.0667-0.5996 3.5v0.0488l-0.3515 2.3008c-0.1 0.5-0.1149 1.0504-0.049 1.6504v0.0996l-0.053 1.1504c-0.2667 1.5667-0.249 3.0163 0.053 4.3496 0.3667 1.6667 1.1323 2.5988 2.2989 2.7988l0.4004 0.0508c0.6667-0.0333 1.283-0.33372 1.8496-0.90039 0.5667-0.6 0.9-1.2996 1-2.0996 0-0.1 0.05-0.18333 0.1504-0.25 0.067-0.1 0.15-0.16589 0.25-0.19922 0.1-0.0333 0.2007-0.0178 0.3007 0.0488 0.1 0.0333 0.1833 0.10117 0.25 0.20117 0.3667 0.63333 0.8823 1.3833 1.5489 2.25l0.051 0.0488c0.6333 0.7 1.267 1.0663 1.9003 1.0996 0.2667 0 0.5167-0.0329 0.75-0.0996 0.9667-0.33333 1.4997-1.0659 1.5997-2.1992v-0.0508l0.061-0.29883c0-0.0333 0.015-0.0682 0.049-0.10156l0.051-0.19922c0-0.1 0.05-0.18333 0.1504-0.25 0.067-0.1 0.15-0.15039 0.25-0.15039s0.1988 0.0174 0.2988 0.0508l0.5508 0.29883c0.9 0.5 1.5996 0.75 2.0996 0.75 0.3667 0 0.6673-0.0484 0.9004-0.14844 1-0.43333 1.467-1.3171 1.4004-2.6504v-0.0996c0.067-0.56666-0.1175-1.3341-0.5508-2.3008l-0.1992-0.55078c-0.3-0.76667-0.7516-1.4818-1.3516-2.1484-0.3333-0.36667-0.9321-0.91706-1.7988-1.6504l-0.9512-0.84961h-0.049c-1.7998-1.7-3.4512-3.9171-4.9512-6.6504-0.2333-0.4-0.5492-0.61706-0.9492-0.65039l-0.6504 0.15039c-0.7 0.33333-1.2 0.68216-1.5 1.0488l-0.1992 0.20117h-0.25l-0.3496-0.0508c-0.2 0.0333-0.4016 0.10117-0.6016 0.20117-0.067 0.0333-0.1151 0.0488-0.1484 0.0488-0.3 0.0333-0.55 0.1845-0.75 0.45117l-0.1504 0.0996c-0.1 0.1-0.2163 0.15039-0.3496 0.15039h-0.1016c-0.1333 0.0667-0.2496 0.0822-0.3496 0.0488-0.1333-0.0333-0.2322-0.0837-0.2988-0.15039-0.067-0.1-0.1016-0.21628-0.1016-0.34961v-0.15039c0-0.13333-0.015-0.24961-0.049-0.34961-0.1-0.1-0.1342-0.21628-0.1016-0.34961 0.1333-0.56667 0.1675-1.6674 0.1016-3.3008-0.1-0.76667-0.1342-1.4159-0.1016-1.9492 0.067-1.3667-0.2996-3.3337-1.0996-5.9004-0.5333-1.5667-1.384-2.4-2.5507-2.5zm-0.2226 16.008c-0.015 0.0125-0.011 0.0308-0.027 0.043l0.051-0.0508c0 2e-3 -0.014 5e-3 -0.022 8e-3z" fill="#ef1d1e"/>
 <path d="m54.75 16.699c-1.5333 0.76666-2.3841 2.1174-2.5508 4.0508 0 0.23333 0.017 0.56667 0.051 1 0 0.4-0.1008 0.71589-0.3008 0.94922-0.8-0.9-1.5325-1.1655-2.1992-0.79883-0.3667 0.2-0.9171 0.81628-1.6504 1.8496-0.033-0.7-0.2988-1.3337-0.7988-1.9004-0.4667-0.56667-1.0171-0.88255-1.6504-0.94922-0.6667-0.1-1.1841 0.11706-1.5508 0.65039-0.3333 0.7-0.5988 1.2155-0.7988 1.5488-0.3-0.5-0.9008-0.93216-1.8008-1.2988-1.0667-0.4-1.8826-0.10156-2.4492 0.89844-0.6334 1-0.7845 1.9341-0.4512 2.8008 0.033 0.1 0.018 0.21628-0.049 0.34961l-0.3516-0.15039-1.25-0.84961c-1.3666-0.8-2.6825-1.2671-3.9492-1.4004-1.8-0.2-2.7341 0.60039-2.8008 2.4004 0 0.83333 0.2675 1.6008 0.8008 2.3008 0.3333 0.43333 0.8992 0.98373 1.6992 1.6504 1.1334 0.96667 2.4337 1.6333 3.9004 2-0.8667 0-1.8163 0.28294-2.8496 0.84961-1.4 0.7-2.1674 1.6322-2.3008 2.7988-0.1 1.0333 0.3012 1.8182 1.2012 2.3516 0.7667 0.46667 1.7337 0.64883 2.9004 0.54883 1.4-0.0667 3.2992-0.73334 5.6992-2 0.2667-0.13333 0.6659-0.38333 1.1992-0.75 0.3321-0.13282 0.6641 0.17853 0.9961 0.39844 0.5426 0.37172 0.8441 0.91343 1.2735 1.3652 1.0248 1.3414 2.0113 2.696 2.7304 4.1328 0.051 0.10373 0.108 0.21222 0.1563 0.31446 0.3701 0.77229 0.9541 2.4408 1.7949 5.1894l0.5293 2.1875c-0.036 0.0616-0.063 0.13402-0.1289 0.16211-0.092 0.0768-0.1931 0.10985-0.3008 0.0996-0.1142-9e-3 -0.215-0.0573-0.3008-0.14844-0.4993-0.46094-0.9819-0.84466-1.4492-1.1504-0.026 1e-3 -0.059-0.0161-0.1-0.0508-0.3014-0.22262-0.8322-0.39925-1.5645-0.53711-0.024-9e-3 -0.032-0.0222-0.055-0.0312l-0.0305-0.03127c-0.1923-0.0505-0.1572-0.10489-0.2969-0.15625-0.2111-0.11187-0.4696-0.2098-0.6035-0.34375-0.1948-0.28282-0.3158-0.34291-0.5-0.59375-9e-4 -4e-3 0-2e-3 0-6e-3 -0.2727-0.53451-0.606-1.0016-1-1.4004-0.285-0.27656-0.5505-0.52656-0.7988-0.75h0.049c-0.072-0.0608-0.1161-0.0872-0.1836-0.14258-0.062-0.0551-0.1568-0.20872-0.2168-0.25781-0.053-0.0458-0.1807-0.0549-0.2402-0.0977-0.08-0.0593-0.1883-0.15257-0.2598-0.20117-0.6382-0.46419-1.3049-0.6987-2-0.70117-0.4504 2e-3 -0.867 0.10278-1.25 0.30078-0.1291 0.0583-0.2742 0.0519-0.4082 0.0898-0.019 0.0133-0.073-4e-3 -0.092 0.01-0.3267 0.25135-0.6156 0.18403-0.9043 0.11328-0.1786-0.0118-0.4652-0.0558-0.8125-0.11719-0.2653-0.0918-0.5033-0.205-0.832-0.24609-0.6-0.0333-1.0496-0.0663-1.3496-0.0996-0.025-3e-3 -0.064 9e-3 -0.09 6e-3 -0.66-0.0817-1.2839-0.2048-2.0117-0.20703-0.9384 3e-3 -1.7872 0.0705-2.5488 0.20117l-7.5508 1.4492h-0.049c-0.053 4e-3 -0.1031 4e-3 -0.1504 0-0.028 0.0114-0.035 0.0527-0.062 0.0664-0.2095 0.0117-0.4944 0.084-0.6895 0.084-0.2333 0-0.4174 0.0833-0.5507 0.25-0.1667 0.16667-0.217 0.35078-0.1504 0.55078 0.1231 0.35901 0.2458 0.47365 0.3691 0.76953 0.014 0.12356-0.101 0.26387-0.023 0.37891v0.05061c0.1218 0.19906 0.3552 0.37186 0.4961 0.56641 0.1177 0.20449 0.2359 0.58744 0.3535 0.73437 0.1735 0.20245 0.6155 0.40497 0.8242 0.60742 1.0395 1.0265 2.2862 2.0052 3.9219 2.8906v2e-3c0.058 0.0311 0.09 0.0687 0.1484 0.0996 3.2192 1.6669 6.1185 2.634 8.6992 2.9004l0.4492 0.0488h0.25c0.4056-5e-3 0.8901-0.0712 1.4512-0.19922l0.9623-0.1504c0.06-8e-3 0.083-0.0367 0.1387-0.0469 0.021-4e-3 0.043 1e-3 0.062-4e-3 0.021-4e-3 0.058-0.0363 0.08-0.043 0.2286-0.0563 0.4719-0.10452 0.6191-0.20703 0.059-0.0439 0.1303-0.0516 0.1992-0.0664 0.1139-5e-3 0.2268-3e-3 0.334 0.0449 0.021 0.0115 0.042 7e-3 0.061 0.0215 0.08 0.0579 0.2289 0.0356 0.3124 0.0879 1.3966 0.92434 3.062 1.2097 5.0372 0.76367 1.3115-0.26229 2.6739-0.0342 4.082 0.63867 0.083 0.0496 0.1567 0.1255 0.2383 0.17969 1.2979 0.71615 2.2597 1.6008 2.7304 2.7305 1.4 3.5667 2.8827 6.8167 4.4493 9.75 0.6667 1.1667 1.7344 2.9012 3.2011 5.2012 0.033 0.0667 0.1167 0.18294 0.25 0.34961 0.033 0.13333-0.083 0.21667-0.3496 0.25-0.6334 0.0667-1.2515 0.4155-1.8515 1.0488-0.6333 0.66666-0.9493 1.3178-0.9493 1.9512l-0.1 0.59961-0.4511-0.44922c-0.7333-1.1333-1.6005-1.7167-2.5996-1.75-0.9333-0.0333-1.817 0.43177-2.6504 1.3984-0.8333 1-1.4166 2.2674-1.75 3.8008v-1.1992c-0.033-0.4-0.099-0.71784-0.1993-0.95117-0.3333-0.7-0.6163-1.1826-0.8496-1.4492-0.4333-0.43333-0.9663-0.63294-1.5996-0.59961-1 0.0333-1.8837 0.41511-2.6504 1.1484-0.4667 0.46666-1.0344 1.2341-1.7011 2.3008-0.4 0.6-0.6985 1.7337-0.8985 3.4004l-0.75-1.8496c-0.3667-0.83333-0.8667-1.3682-1.5-1.6016-0.6334-0.2-1.3348-0.0818-2.1015 0.35156-0.063 0.0421-0.071-0.0624-0.094-0.12695 7e-4 -0.0718 0.05-0.20612 0.047-0.27344-0.02-0.48673-0.1691-0.94942-0.2246-1.4297-0.038-0.35083 0-0.63606-0.078-1.0215-0.117-0.49733-0.1724-0.74608-0.2637-1.1406-0.065-0.28261-0.057-0.57923-0.1348-0.85937-0.029-0.10695-0.088-0.14126-0.1191-0.24219-0.021-0.0925-0.064-0.27495-0.082-0.35742-0.042-0.16612-0.2163-0.23448-0.2793-0.38477-0.2683-0.57097-0.5802-1.0355-0.9628-1.3184-0.052-0.0367-0.052-0.1121-0.1075-0.14648-0.083-0.0512-0.1816 0.0121-0.2656-0.0293-0.2615-0.12355-0.4767-0.36094-0.7832-0.37109-0.3235 3e-3 -0.6563 0.0764-0.9922 0.17383-0.073 0.0187-0.1347-0.0482-0.209-0.0234l-0.1015 0.0508c-0.049-4.8e-4 -0.089 0.0244-0.1465 0-0.084-6e-3 -0.1676-0.0564-0.25-0.15039-0.055-0.0711-0.09-0.17187-0.1016-0.30078l-0.1015-1.4492c-0.015-0.12202-0.1035-0.17702-0.125-0.29297l-0.025-0.20703c-0.1667-1.5-0.8662-2.3663-2.0996-2.5996-0.1452-0.0259-0.2623 0.074-0.4043 0.0625-0.1483-0.021-0.2376-0.16421-0.3965-0.16406-0.5631 5e-3 -1.1794 0.172-1.8496 0.5-0.8168 0.41315-1.433 0.99649-1.8496 1.75-0.058 0.11914-0.1413 0.20247-0.25 0.25-0.1057 0.0463-0.2229 0.0463-0.3496 0-0.096-0.0101-0.1798-0.0586-0.25-0.14844-0.1875-0.24742-0.5374-0.38695-0.7715-0.60351-0.3423-0.36121-0.733-0.68776-1.211-0.94727-0.127-0.0694-0.1833-0.18591-0.3183-0.25-0.2091-0.10657-0.419-0.0763-0.6289-0.16016-0.2387-0.0843-0.4086-0.22322-0.6719-0.28906-0.227-0.0557-0.4141-9e-3 -0.6328-0.043-0.3401-0.0597-0.6747-0.25682-1.0156-0.25781-0.1741-1.4e-4 -0.2603 0.14763-0.4258 0.16211-0.9003 0.0659-1.7418 0.28574-2.4746 0.78711-0.073 0.0942-0.1106 0.13946-0.1739 0.2207-0.02 0.0193-0.052 9e-3 -0.072 0.0293-0.3527 0.35508-0.686 0.52175-1 0.5-0.2426 8e-3 -0.5934-0.0753-1.0508-0.25h0.051c-0.5392-0.13463-1.0548-0.20052-1.5489-0.19922-0.5072 8.7e-4 -0.862 0.35445-1.3066 0.5-0.541 0.13191-1.2151 0.21011-1.4941 0.44922-0.059 0.0517-0.074 0.12096-0.1309 0.17383-0.019 0.0171-0.049 0.01-0.068 0.0273-0.078 0.0762-0.074 0.18333-0.1464 0.26172-0.5939 0.63164-0.9824 1.3466-1.1895 2.1348-0.07 0.2559-0.098 0.52748-0.127 0.79882-0.028 0.29146-0.155 0.54317-0.1367 0.85352 0.018 0.44644 0.2085 0.79944 0.3203 1.1953 0.064 0.29948-0.024 0.54141 0.078 0.85547v-0.0508c0.05 0.1256 0.1518 0.14137 0.207 0.25586 0.019 0.0337 0.055 0.0585 0.074 0.0918 0.3366 0.64975 0.7013 1.2407 1.2188 1.5039 0.1041 0.0447 0.1718 0.11055 0.2011 0.19922 0.071 0.0932 0.1007 0.19401 0.1 0.30078l-0.051 0.64844v0.10156c-0.045 0.39182 0.063 0.73607 0.09 1.1055 0.01 0.17904 0.01 0.35744 0.043 0.53906 0.1659 0.95384 0.4927 1.8582 1.1679 2.6543 1.2491 1.4012 2.7821 2.1008 4.5997 2.0996h0.053c0.052-1.2e-4 0.1529-0.0106 0.209-0.0117 0.1988 0.0121 0.3335 0.11328 0.541 0.11328 0.2784 0 0.7035-0.0914 1.0918-0.16016 0.072 0.015 0.1522 0.0137 0.207 0.0586 0.1222 0.10052 0.19 0.21875 0.2012 0.35156 0.01 0.14089-0.041 0.25716-0.1504 0.34961-0.4676 0.58971-0.8009 1.2234-1 1.9004-0.064 0.26041 0.1268 0.45005 0.1172 0.69531-0.013 0.13844-0.1172 0.264-0.1172 0.4043 0 0.40479 0.1869 0.77228 0.3789 1.1387 0.065 0.12515-0.016 0.29016 0.068 0.41016 0.085 0.12505 0.2474 0.17286 0.3437 0.28711 0.1673 0.2077 0.306 0.38991 0.707 0.81445 0.086 0.086 0.3895 0.13242 0.5157 0.21094 0.1116 0.0627 0.1662 0.18305 0.2851 0.23828 0.2247 0.11037 0.4747 0.0861 0.7051 0.16602 0.2738 0.0866 0.3466 0.20964 0.6934 0.2832 0.2193 0.0399 0.2745-0.0309 0.4687-0.01 0.2318 0.0287 0.4444 0.15988 0.6817 0.16016 0.2552 1e-3 0.4678-0.15323 0.7128-0.18945 0.1243-0.0297 0.3914 0.0403 0.4883-0.01 1.3306-0.61665 2.3481-0.49482 3.0782 0.31055 0.044 0.0254 0.076 0.0657 0.121 0.0898 0.067 0.0422 0.1959 0.0229 0.2657 0.0625 0.6154 0.54178 1.4495 0.92657 2.7343 0.98633 0.3579 0.0163 0.798-0.0334 1.1954-0.0488 0.083 2e-3 0.1202 0.0488 0.205 0.0488l1.2813-0.0215c8e-4 0.0309 0.035 0.0244 0.023 0.0723-0.4666 2.1667 0.1341 3.8159 1.8008 4.9492-0.7333 0.23333-1.1346 0.63451-1.2012 1.2012-0.067-0.23333-0.2159-0.3845-0.4492-0.45117-0.025-7e-3 -0.034-0.0142-0.061-0.0215-0.1373-0.052-0.1957-0.30897-0.3457-0.32812h-0.049l-0.5996-0.0996c-0.01-7e-3 -0.025-0.0247-0.051-0.0508-0.5049-0.13112-0.9042-0.19701-1.1992-0.19922h-0.1015c-1.5005-1e-3 -2.5994 0.56455-3.2989 1.6992-0.015 0.0362-0.058 0.0376-0.08 0.0645-0.065 0.0402-0.1233 0.11536-0.1914 0.13672-0.1226 0.0477-0.2488 0.0535-0.379 0-0.2238-0.11301-0.5989-0.0952-0.8671-0.16992-0.039-0.0192-0.04-0.0104-0.082-0.0312-0.016-7e-3 -0.039 0.0101-0.055 4e-3 -0.4913-0.12276-0.9163-0.30219-1.5488-0.30274-1.423 0.0213-2.4715 0.83722-3.1484 2.4492v-0.0508c-0.2555 0.72193-0.2789 1.3387-0.3574 1.9805 0 0.0304-0.043 0.20436-0.043 0.2207-4e-4 4e-3 0 6e-3 0 0.01-0.024 0.26819-0.1598 0.5862-0.1524 0.83984 0.01 0.12461-0.028 0.22539-0.1015 0.30078-0.039 0.0981-0.1065 0.16393-0.2012 0.19922-0.097 0.0471-0.1962 0.0646-0.2988 0.0508-1.1206-0.22747-1.921-0.3457-2.4004-0.35156-0.099 2.4e-4 -0.1648 0.0868-0.2617 0.0918-0.9129 0.0538-1.8098 0.32588-2.6875 0.85937-0.036 0.0227-0.035 0.0781-0.07 0.10156-0.082 0.0589-0.197 0.0334-0.2774 0.0977-0.8527 0.67787-1.4845 1.6624-1.8984 2.9512-0.289 1.1414-0.2183 2.1068 0 3 0.033 0.13374-0.045 0.32129 0 0.44922v0.0508l0.049 0.0488 0.1016 0.20117c0.043 0.10391 0.06 0.20274 0.051 0.29883-0.01 0.0927-0.042 0.17604-0.1 0.25-0.059 0.079-0.1427 0.12942-0.25 0.15039-0.9992 0.40208-1.7336 0.91953-2.2011 1.5508-0.3151 0.47983-0.3462 0.99905-0.4942 1.502-0.1485 0.40048-0.4227 0.74364-0.4551 1.1973-0.033 0.43333 0.05 0.90039 0.25 1.4004 0.1 0.33333 0.2667 0.80039 0.5 1.4004 0 7e-3 0.015 0.0106 0.018 0.0176 0.022 0.0452 0.01 0.0855 0.033 0.13086 0.5151 0.95598 1.1974 1.6905 2.0489 2.2012 0.088 0.0557 0.1973 0.0338 0.2871 0.084 0.057 0.0323 0.054 0.0836 0.1132 0.11523 0.279 0.15021 0.4567 0.0248 0.7188 0.12891 0.5834 0.21306 1.1423 0.51916 1.7812 0.52148h0.051l0.6992-0.0508c0.138-0.0108 0.2544 0.0241 0.3497 0.10156 0.1061 0.0848 0.1739 0.1836 0.2011 0.29883 0.1811 1.0796 0.6811 2.0292 1.5 2.8496 1.0612 1.0588 2.2104 1.5938 3.4492 1.6016 0.6371-2e-3 1.2205-0.12023 1.75-0.35156 0.054-0.0203 0.1103-0.0968 0.1641-0.11914 0.093-0.0374 0.2485 0.0163 0.3359-0.0293 0.5061-0.26922 0.6577-0.69076 1.0665-1.002 0.544-0.39562 1.0799-0.60272 1.6328-1.1992 0.243-0.26263 0.2277-0.48102 0.4277-0.73633 0.036-0.064 0.1404-0.099 0.1738-0.16406 0.1812-0.35 0.1739-0.39649 0.3282-0.70313 0.3745-0.61817 0.9656-1.273 1.0703-1.8457l0.055-0.25c0.024-0.11172 0.074-0.2125 0.1503-0.30078 0.1117-0.0627 0.2281-0.0956 0.3497-0.0996 0.1211-4e-3 0.2217 0.0289 0.3007 0.0996 1.3188 1.0608 2.7685 1.5938 4.3496 1.5996 0.2871 1e-3 0.5955-0.0892 0.8907-0.12305 0.1137-9.6e-4 0.1407 0.0261 0.2597 0.0234 0.1134-5e-3 0.2002-0.0899 0.3106-0.10352 0.2325-0.0437 0.4521-0.0307 0.6894-0.0957 0.2986-0.0721 0.4412-0.25537 0.6895-0.36328 0.1288-0.0693 0.2864-0.0521 0.4101-0.13672 0.051-0.0376 0.068-0.10151 0.1172-0.14062 0.5024-0.32371 0.8493-0.75864 1.0645-1.2871 0.072-0.12112 0.2062-0.19323 0.2676-0.32227l0.062-0.47461c0-0.0307 0.031-0.0449 0.033-0.0762 0.01-0.079 0.056-0.14503 0.092-0.21484 0.059-0.12053 0.1611-0.17623 0.2851-0.19922 0.043-8e-3 0.076-0.0361 0.1231-0.0352h0.2011c0.8843-3.9e-4 1.7836-0.26784 2.6993-0.80078 0.8907-0.50417 1.5748-1.1534 2.0507-1.9492v-0.0508c0.2656-0.35951 0.5312-0.97578 0.7989-1.8496v-0.0508c0.3311-0.82459 0.5199-1.2784 0.5859-1.4141 0.2406-0.71427 0.5002-1.2566 0.8145-1.2852 1.2667-0.13333 2.5011-0.61589 3.7011-1.4492l0.25-0.10156-0.1015 0.25c-1.1 1.8-1.6485 3.3174-1.6485 4.5508 0.033 0.76667 0.2659 1.3829 0.6992 1.8496 0.4667 0.43333 1.0674 0.65039 1.8008 0.65039 0.4333 0 0.9159-0.13372 1.4492-0.40039l1.4493-0.75c-0.2333 0.16667-0.4 0.41667-0.5 0.75-0.013 0.0678-0.058 0.19499-0.082 0.28516-0.1137 0.25077-0.3238 0.49165-0.4218 0.74414-0.2113 0.31226-0.462 0.6177-0.8399 0.90234-0.073 0.014-0.1492 0.0221-0.207 0.0684-0.023 0.0195-0.058 0.037-0.1016 0.0508l-0.1015 0.0488c-0.1325 0.0716-0.2499 0.15495-0.3496 0.25l-2.5489 2.25c-1.2954 1.3012-2.2295 2.3361-2.8008 3.1016-0.059 0.09-0.04 0.19445-0.096 0.28516-0.045 0.0627-0.2096 0.20396-0.25 0.26367-0.789 1.0958-1.0638 2.4003-1.1035 3.7988v4e-3c-0.02 0.72756-0.079 1.4388 0.1035 2.248 0.2667 1.2333 1.0496 2.2488 2.3496 3.0488 1.2667 0.8 2.5497 1.1178 3.8497 0.95117 1.1471-0.18027 2.1372-0.44927 2.9863-0.79883 0-1e-3 0.01-4.3e-4 0.01-2e-3v-2e-3c0.8723-0.36075 1.5953-0.8075 2.1523-1.3477 0.1738-0.15447 0.2411-0.18381 0.3477-0.25977 0.05-0.031 0.099-0.0659 0.1484-0.0898 0.084-0.0106 0.1473-4e-3 0.2129 0 0.1808 0.0196 0.3539 0.0947 0.4902 0.44922l0.5508 0.90039c0.098 0.1065 0.2898 0.06 0.3965 0.15234 0.6759 0.66909 1.475 1.1006 2.5 1.0977 0.06-2.5e-4 0.1142-0.0597 0.1738-0.0625 0.012-2.4e-4 0.017 0.012 0.029 0.0117 0.092-5e-3 0.1258-0.0909 0.2148-0.0996 0.811-0.0871 1.612-0.28598 2.3809-0.84961 0.09-0.063 0.1909-0.0959 0.3008-0.0996 0.1001-5e-3 0.1835 0.0102 0.25 0.0488 0.1077 0.0803 0.1736 0.16367 0.1992 0.25l1.1289 2.8945c0.029 0.10744 0.04 0.14079 0.07 0.25586 0.2667 0.8 0.5496 1.4163 0.8496 1.8496 0.487 0.68481 0.5134 0.71892 0.7989 1.1191 0.028 0.0436 0.074 0.14014 0.1015 0.18164 0.031 0.0455 0.076 0.0608 0.1074 0.10547 0.2183 0.30546 0.7035 0.98808 0.7461 1.0449 0.4989 0.58958 1.0722 0.91924 1.6329 1.293 0.115 0.0789 0.1944 0.23439 0.3125 0.30664 0.039 0.026 0.086 0.0144 0.125 0.0391 0.1167 0.0639 0.2107 0.20669 0.33 0.26172 0.5216 0.20684 0.9268 0.19229 1.3828 0.27539 0.2441 0.0422 0.4608 0.22374 0.7129 0.22461 0.054-2.1e-4 0.093-0.0507 0.1465-0.0527 0.8658 0.0129 1.6259-0.17225 2.2071-0.69727 0.2865-0.28743 0.5194-0.35562 0.7324-0.3457 0.094 1.6e-4 0.1809 0.0113 0.2539 0.043 0.1391 0.0687 0.2961 0.16087 0.5644 0.40234 1.2456 1.2221 2.5936 1.6528 3.9883 1.7148 0.1138 0.0103 0.2462 0.0826 0.3574 0.084 0.1589 1.4e-4 0.362-0.0691 0.5352-0.0918 0.264-0.034 0.5141 0.0369 0.7793-8e-3 0.01 0.35381-0.063 0.68972 0.1953 1.0996 0.6333 0.96667 0.9492 1.7516 0.9492 2.3516-0.067 0.33333 0.017 0.63177 0.25 0.89844-0.1 0.33333-0.1484 0.76745-0.1484 1.3008l-1.3516 5.3008c-0.1 0.26667-0.1325 0.51667-0.1 0.75-0.1667 0.13333-0.3004 0.28255-0.4004 0.44922-0.1333 0.23333-0.2651 0.58411-0.3984 1.0508l-1.3516 3.1992 8.5508 0.40039 1.0996-3 0.1-0.34961 0.6504-1.6504 0.1-0.55078v-0.40039c0.3333-0.3 0.6512-0.84844 0.9512-1.6484l0.1992-0.5c0.3333-0.56667 0.6512-1.2508 0.9512-2.0508l1.6484-3.5508c1.2333-2.5667 2.1345-4.4833 2.7012-5.75 0.1-0.26667 0.1345-0.53216 0.1016-0.79883 0.2-0.16667 0.3667-0.43411 0.5-0.80078 0.067-0.3 0.1-0.64883 0.1-1.0488v-0.15039c0-1.2667-0.1493-2.7667-0.4493-4.5-0.1667-1.1333-0.2674-1.9841-0.3007-2.5508-0.033-0.26667-0.049-1.1-0.049-2.5l0.049-0.79883c0-0.26667-0.033-0.50117-0.1-0.70117 0.1333-0.36667 0.1505-0.78333 0.051-1.25v-0.0488l-0.1015-0.5c0.067-0.16667 0.1015-0.45156 0.1015-0.85156l0.049-1.6992c0-1.5333-0.033-2.6826-0.1-3.4492l-0.25-3.4004c-0.1333-2.7-0.3504-4.7504-0.6504-6.1504l-0.9004-4.5508c0.1-0.6-0.067-1.1155-0.5-1.5488v-0.0508l-0.1016-0.59961-1.2988-4.6992-0.25-0.65039c0.016-0.0469-0.01-0.10363 0-0.15234 0.2921 0.0561 0.7402 0.20014 0.9355 0.20117 0.6135-2e-3 1.2014-0.14655 1.7793-0.3457 0.06-0.0213 0.1658 0.0216 0.2227-4e-3 0.6318-0.2747 1.2262-0.0862 1.8125 0.20508l0.6875 0.29492c0.4643 0.16352 0.8307 0.17333 1.2383 0.24805 0.062 6e-3 0.099 0.0495 0.1621 0.0527 0.022 2e-3 0.04-0.01 0.061-8e-3 0.2519 0.037 0.5561 0.1572 0.7852 0.1582l0.3044-25.8c-0.7801 5e-3 -1.6483 0.17133-2.6016 0.5-1.0397 0.40911-1.7897 0.92656-2.25 1.5508-0.073 0.10937-0.1723 0.17526-0.2988 0.19922-0.093 0.017-0.1839-0.0306-0.2754-0.0684-0.028-0.0212-0.045-6e-3 -0.074-0.0312-1.0667-0.9-2.3167-1.1829-3.75-0.84961-0.4625 0.1349-0.8533 0.45245-1.2911 0.65039-0.2563 0.0992-0.5005 0.0676-0.7597 0.19922-0.257 0.1305-0.4537 0.38176-0.6992 0.53516-0.4074 0.26756-0.7988 0.57632-1.1817 0.90625-0.5982 0.50864-1.166 1.0788-1.6836 1.748-0.1853 0.22878-0.4077 0.3626-0.5859 0.60938-0.067 0.25444-0.1342 0.36178-0.2012 0.5625-0.2403 0.383-0.5226 0.68117-0.7422 1.1055-0.3257 0.11736-0.7299 0.0873-1.3066-0.26758-0.7-0.43333-1.5004-0.46637-2.4004-0.0996-0.3 0.13333-1.05 0.60039-2.25 1.4004l0.9512-4.2012c0.1667-0.6 0.015-1.2822-0.4512-2.0488-0.4666-0.76667-1.0325-1.1504-1.6992-1.1504-1.6 0-2.9004 0.71706-3.9004 2.1504-0.033 0.0667-0.1825 0.18294-0.4492 0.34961l-0.051-0.19922c0.4667-0.93333 0.55-2.1678 0.25-3.7012-0.1667-0.76667-0.6822-1.4004-1.5488-1.9004-0.8-0.46667-1.5171-0.61589-2.1504-0.44922-0.6 0.2-1.0341 0.25039-1.3008 0.15039-0.3344-0.0912-0.6332-0.41547-0.9121-0.86719-0.1721-0.23343-0.2867-0.41187-0.4414-0.6289-0.4728-0.77653-1.0426-1.6779-1.9453-3.0039-0.1509-0.22869-0.1964-0.31234-0.336-0.52539-0.5913-0.96684-1.2297-1.986-1.6152-2.7246v0.0488l-0.7793-1.3516c-1.0054-1.8161-1.8771-3.561-2.2695-5.0469-0.1334-0.6-0.034-1.2841 0.2988-2.0508 0.3333-0.8 0.7345-1.2671 1.2012-1.4004 0.707-0.20201 1.5536-0.0824 2.4687 0.19336 0.9114 0.28043 2.0166 0.88133 3.2363 1.6719 0.3584 0.2424 0.3828 0.25192 0.9434 0.63477 0.9334 0.63333 1.7512 1.0829 2.4512 1.3496 0.4986 0.15581 0.8361 0.0542 1.2617 0.0937 0.1113 0.0122 0.2843 0.15453 0.3906 0.15625 0.1102-1e-3 0.2339-0.0893 0.3457-0.10156 0.213-0.0159 0.5107 0.10493 0.7012 0.0527 0.033 0 0.3512-0.16667 0.9512-0.5 0.3666-0.23333 0.6651-0.26637 0.8984-0.0996l1.0508 0.75c0.4333 0.3 0.8171 0.49961 1.1504 0.59961 0.3108 0.10082 0.4958-0.0403 0.7812 0.0117 0.2042 0.0407 0.3575 0.22122 0.5703 0.23828l0.3496 0.0488c0.1746-8e-3 0.3868-0.22424 0.5664-0.26367 0.2523-0.0433 0.6084 0.11186 0.8321 0.0137 0.5333-0.26667 1.3008-0.74922 2.3008-1.4492 1-0.73333 1.7655-1.2333 2.2988-1.5 1.2-0.6 3.0333-1.3674 5.5-2.3008 1.4333-0.56667 2.6-0.78177 3.5-0.64844 0.2333 0.0667 0.4175-1e-3 0.5508-0.20117 0.067-0.1 0.1325-0.28216 0.1992-0.54883 0.1667-0.26667 0.068-0.46823-0.2988-0.60156-1.3334-0.7-2.7345-1.8163-4.2012-3.3496-0.1733-0.17803-0.525-0.26675-0.7168-0.43555-0.061-0.0718-0.1799-0.14305-0.2324-0.21484-0.6889-0.85963-1.906-1.5922-3.6504-2.1992h-0.051l-0.088-0.0312c-0.1486-0.059-0.2099-0.16213-0.3633-0.21875-0.2845-0.11065-0.569-0.11117-0.8535-0.20117-0.074-0.0176-0.1561-0.0666-0.2461-0.14844-0.395-0.18166-1.1492-0.22041-1.7461-0.32227-0.2506-0.0369-0.5032-0.15684-0.7539-0.17773-0.1023-9e-3 -0.1535 1e-3 -0.2539-8e-3 -0.2016-0.0158-0.2783-0.0823-0.4961-0.0918h-0.5508c-0.024 2e-3 -0.059 2e-3 -0.1015 0l-0.3028-0.0508-1.5-0.0508c-0.2519 2e-3 -0.4656 0.0481-0.7011 0.0703-0.1687 5e-3 -0.4374-0.0283-0.5957-0.0195-0.4333 0.0667-0.7667 0.0996-1 0.0996-0.3667 0.0333-0.7-0.13333-1-0.5-0.6436-0.82748-1.487-1.2681-2.4551-1.4668-0.018-5e-3 -0.031-0.0284-0.049-0.0332-0.3642-0.0706-0.7479-0.10361-1.1504-0.0996-0.4156 3e-3 -0.8497 0.0537-1.3008 0.15039-0.1866 0.0333-0.3862 0.0663-0.5996 0.0996-0.1838 0.0754-0.5384 0.31198-0.9629 0.61328-0.044 0.0215-0.147 0.0667-0.1856 0.0859-0.5385 0.25463-1.022 0.21702-1.4882 0.0859-0.2018-0.0407-0.4277-0.13512-0.6114-0.13477-0.041 7.1e-4 -0.087 0.0522-0.1289 0.0547-0.082-0.01-0.2095-0.0667-0.2695-0.0547-0.4499 0.10385-0.8466 0.46263-1.2695 0.70117-0.2802 0.15352-0.5449 0.11988-0.8321 0.34766l-0.4004 0.25v0.05117c-1.672 1.4866-3.0692 3.4691-4.1972 5.9492l-0.2336 0.55078c-0.041 0.0973-0.1072 0.16315-0.1992 0.19922-0.094 0.0749-0.1947 0.10976-0.3008 0.10156-0.066-6e-3 -0.1169-0.0553-0.1738-0.0879-0.5255-2.364-0.9708-4.4827-1.0254-5.4121-0.096-2.8077 0.1731-5.2516 0.7187-7.418 0.421-1.441 0.9085-2.514 1.418-3.4688 0.3232-0.6718 0.5152-1.4559 0.9121-2.0644 0.1333-0.23333 0.3175-0.2491 0.5508-0.0488 0.2667 0.2 1.2996 0.89961 3.0996 2.0996 0.8 0.53333 2.2826 1.1167 4.4492 1.75 1.0334 0.3 1.8841 0.10039 2.5508-0.59961 0.5-0.56666 0.6163-1.3167 0.3496-2.25-0.2667-0.3-0.4663-0.5345-0.5996-0.70117-0.2-0.36667 0.05-0.48294 0.75-0.34961 2.2667 0.4 4.1833 0.4 5.75 0 1.2-0.33333 1.8008-1.0174 1.8008-2.0508-0.067-1.0667-0.5182-1.8826-1.3516-2.4492-0.4-0.23333-0.9-0.4-1.5-0.5-0.7333-0.0333-1.2992-0.0837-1.6992-0.15039 0.2-0.13333 0.6167-0.35039 1.25-0.65039 0.5-0.23333 0.8663-0.46589 1.0996-0.69922 0.5667-0.56667 0.9175-0.96589 1.0508-1.1992 0.3333-0.46666 0.4322-0.93372 0.2988-1.4004-0.2333-1.0333-0.9659-1.7833-2.1992-2.25-1.2-0.46667-2.3337-0.48393-3.4004-0.0508-0.4 0.2-0.9 0.36667-1.5 0.5-0.7333 0.16667-1.2837 0.30039-1.6504 0.40039l0.7012-0.75c1.1-1.2 1.317-2.4829 0.6504-3.8496-0.2334-0.46667-0.5841-0.7845-1.0508-0.95117-0.3333-0.1-0.8508-0.13303-1.5508-0.0996-2.2 0.2-4.1166 1.8337-5.75 4.9004-0.067 0.13333-0.15 0.38333-0.25 0.75-0.1 0.3-0.2318 0.41628-0.3984 0.34961-1.2-0.56667-2.4345-0.36706-3.7012 0.59961 0.5333-1.0333 0.8337-1.6826 0.9004-1.9492 0.3333-0.9 0.5833-1.5841 0.75-2.0508 0.2667-0.8 0.3829-1.5326 0.3496-2.1992-0.067-1.0667-0.4329-1.8167-1.0996-2.25-0.6-0.4-1.2667-0.41727-2-0.0508zm0.6621 0.6875c0.3417-0.075 0.6542-4e-3 0.9375 0.21289 0.7333 0.5 0.933 1.3004 0.5996 2.4004-0.5333 1.9667-1.5818 4.4667-3.1484 7.5l-0.5508 1.0996c0-0.66667-0.083-1.8004-0.25-3.4004-0.1667-1.3667-0.2171-2.45-0.1504-3.25 0.1-0.93333 0.2163-1.6155 0.3496-2.0488 0.2334-0.73333 0.6016-1.3496 1.1016-1.8496 0.4-0.36667 0.7696-0.58906 1.1113-0.66406zm11.238 2.0625c0.6-0.0667 0.9663 0.1 1.0996 0.5 0.3333 1.0667 0.2829 1.8516-0.1504 2.3516-0.9 1.1-2.0492 2.2318-3.4492 3.3984-0.5 0.43333-1.7675 1.4178-3.8008 2.9512-0.2333 0.23333-0.3322 0.2003-0.2988-0.0996 0.2-2.0667 0.5333-3.6849 1-4.8516 0.7-1.6333 1.7988-2.8484 3.2988-3.6484 0.8-0.4 1.5675-0.60156 2.3008-0.60156zm-20.938 2.3125c0.2917 0.025 0.5712 0.22122 0.8379 0.58789 1.0666 1.3 1.4659 2.8833 1.1992 4.75-0.067 0.73333 0.017 1.3167 0.25 1.75-0.3-0.4-0.7167-0.78372-1.25-1.1504-0.6-0.4-1.0671-0.69844-1.4004-0.89844-0.5-0.33333-0.7829-0.90117-0.8496-1.7012-0.1333-0.66667-0.2167-1.1667-0.25-1.5 0-0.56667 0.1841-1.0337 0.5508-1.4004 0.3166-0.31667 0.6204-0.4625 0.9121-0.4375zm-5.0625 0.83787c1.0333 0 1.8163 0.46706 2.3496 1.4004 0.1 0.16667 0.2996 0.56589 0.5996 1.1992 0.2333 0.53333 0.4504 0.91706 0.6504 1.1504 0.3 0.36667 0.3504 0.7 0.1504 1-0.3 0.33333-0.4996 0.58333-0.5996 0.75-0.2334 0.5-0.2837 1.0678-0.1504 1.7012 0.067 0.3 0.2837 0.89883 0.6504 1.7988-1.0334-0.96667-1.8008-1.6837-2.3008-2.1504-0.8667-0.83333-1.4829-1.6163-1.8496-2.3496-0.7667-1.4333-0.9333-2.6504-0.5-3.6504 0.2-0.63333 0.5333-0.91628 1-0.84961zm10.236 0.16216c0.275 0.175 0.5129 0.53789 0.7129 1.0879 0.9667 2.6 1.1178 5.2841 0.4512 8.0508 0 0.0333-0.05 0.58373-0.1504 1.6504-0.057 0.59688-0.2065 1.065-0.3848 1.4922-0.047 0.0242-0.099 0.0599-0.1426 0.0781l-2.0722-4.8711c-0.7667-1.7333-0.9179-3.6171-0.4512-5.6504 0.1667-0.83333 0.533-1.4322 1.0996-1.7988 0.35-0.2 0.6625-0.2137 0.9375-0.0391zm20.963 1.289c0.9333-0.0667 1.7841 0.14844 2.5508 0.64844 0.4667 0.3 0.6488 0.71667 0.5488 1.25-0.067 0.56666-0.3825 1.0667-0.9492 1.5-0.9667 0.76666-2.6992 1.5845-5.1992 2.4512-0.5667 0.2-1.3012 0.41706-2.2012 0.65039-0.9667 0.2-1.5829 0.34922-1.8496 0.44922l-6.6992 1.0508h-0.4004l0.1992-0.30078c1.0333-1.0333 3.0508-2.5508 6.0508-4.5508 2.0667-1.3333 3.867-2.2151 5.4004-2.6484 1.1666-0.3 2.0155-0.46667 2.5488-0.5zm-37.449 0.69922c0.9333 0.26667 2.4333 1.0496 4.5 2.3496 0.3 0.2 0.6333 0.55078 1 1.0508 0.4333 0.63333 0.7492 1.05 0.9492 1.25 0.7667 0.76667 1.7667 1.6504 3 2.6504 0.1 0.1 0.2337 0.24922 0.4004 0.44922 0.1436 0.17226 0.3062 0.25224 0.4746 0.30078-0.01 1.7e-4 -0.01 5e-3 -0.027 0l-0.035 0.0312-3.2617-0.43164c-1.5-0.16667-3.6163-0.88372-6.3496-2.1504-1.7667-0.76667-3.0341-1.9837-3.8008-3.6504-0.3333-0.83333-0.2674-1.4322 0.1992-1.7988 0.6-0.43333 1.5845-0.4506 2.9512-0.0508zm23.6 0.40041c0.5-0.0667 0.8663 0.0496 1.0996 0.34961 0.4 0.53333 0.4678 1.1671 0.2012 1.9004-0.9547 2.1726-2.6876 4.129-5.1699 5.8789-0.3836 0.28191-0.6962 0.47119-1.1309 0.82031l-0.2715 0.18164c0.2481-1.0233 0.4452-1.8412 0.5723-2.3809 0.2333-1 0.4988-1.8004 0.7988-2.4004 0.8333-1.7333 1.283-2.6326 1.3496-2.6992 0.6334-0.93333 1.4841-1.4837 2.5508-1.6504zm-12.801 2.7988c0.2-0.1 0.4016-0.0826 0.6016 0.0508 0.1 0.0667 0.2492 0.20039 0.4492 0.40039 1 0.8 1.8663 1.8504 2.5996 3.1504 0.4667 0.83333 1.0171 2.0659 1.6504 3.6992v0.0918c-0.3224-0.0657-0.6307-0.24503-0.9453-0.37305-0.6813-0.33176-1.2998-0.72363-1.8672-1.1641-0.3637-0.30961-0.7358-0.55332-1.0879-0.95508-0.01-9e-3 -0.018-5e-3 -0.025-0.0137-0.7261-0.76545-1.4004-1.5809-1.875-2.5859-0.033-0.1-0.1321-0.45078-0.2988-1.0508 0.2333-0.7 0.4988-1.1167 0.7988-1.25zm27.602 2.3516c0.85 0.0833 1.6155 0.34883 2.2988 0.79883 0.7667 0.46667 0.9837 1.2012 0.6504 2.2012-0.067 0.26667-0.2663 0.44883-0.5996 0.54883-0.4 0.1-0.7004 0.16784-0.9004 0.20117-1 0.26667-2.1163 0.33255-3.3496 0.19922-0.6667-0.1-1.75-0.31706-3.25-0.65039-2.0333-0.66667-3.5663-1.1163-4.5996-1.3496 0.9333-0.13333 3.2492-0.68372 6.9492-1.6504 1.0167-0.28333 1.9508-0.38216 2.8008-0.29883zm-35.102 2.0488c0.2334-0.0667 0.5841-0.0163 1.0508 0.15039 0.5667 0.2 0.9174 0.31628 1.0508 0.34961 0.8711 0.18668 2.3062 0.4094 4.1054 0.6543l-0.5566 0.49609h-0.049c-0.013 0.0145-0.01 0.0247-0.02 0.0391-1.9276 1.2757-3.7961 2.3677-5.4804 2.9102-1.0334 0.36667-1.8337 0.56823-2.4004 0.60156-0.9333 0.0333-1.7512-0.25156-2.4512-0.85156-0.4-0.36667-0.5492-0.84922-0.4492-1.4492 0.1333-0.56667 0.4667-1.0337 1-1.4004 0.9333-0.6 2.3326-1.1 4.1992-1.5zm20.076 0.70116c0.9652 0.0321 2.3407 0.0488 4.1738 0.0488 1.5667 0.1 2.9 0.41784 4 0.95117 0.6 0.23333 1.1504 0.59961 1.6504 1.0996 0.7333 0.63333 0.9 1.3329 0.5 2.0996-0.2 0.4-0.5159 0.59961-0.9492 0.59961l-1.2012-0.25c-1.2-0.23333-2.4829-0.73333-3.8496-1.5-0.4-0.23333-1.5822-0.99883-3.5488-2.2988-0.2228-0.19806-0.4279-0.37697-0.6328-0.55664-0.034-0.0273-0.03-0.0679-0.068-0.0937-0.029-0.0176-0.049-0.0665-0.074-0.0996zm2.875 41.398c0.4548 0.0827 0.8031 0.32886 1.1269 0.61133 0.1059 0.1215 0.16 0.2142 0.2735 0.33984 0.078 0.079 0.09 0.11051 0.1543 0.17969 0.2359 0.35034 0.4695 0.70363 0.5957 1.2207 0.1333 0.53333 0.2321 1.9151 0.2988 4.1484 0.033 0.5-0.1159 1.0678-0.4492 1.7012-0.4333 0.73333-0.6678 1.2333-0.7012 1.5l-0.1484 0.40039c0 0.3-0.068 0.43177-0.2012 0.39844-0.1 0-0.1504-0.13177-0.1504-0.39844 0-0.8-0.3818-1.6178-1.1484-2.4512-0.7334-0.83333-1.5182-1.3333-2.3516-1.5-0.2 0-0.2988-0.38373-0.2988-1.1504-0.1333-2 0.2659-3.4651 1.1992-4.3984 0.3667-0.4 0.9675-0.60156 1.8008-0.60156zm6.9004 0c1.1666-0.0667 2.0155 0.35 2.5488 1.25 0.5 0.86666 0.4707 2.0333-0.1 3.5l-2 5.4004c-0.5-1.3333-0.7674-2.0504-0.8008-2.1504-0.3666-0.73333-0.8996-1.2333-1.5996-1.5-0.2667-0.1-0.4488-0.11577-0.5488-0.0488-0.7 0.3-1.0682 0.26697-1.1016-0.0996 0.067-0.5 0.1016-0.85078 0.1016-1.0508-0.033-1.0667-0.018-1.7992 0.049-2.1992 0.1-0.8 0.4178-1.4512 0.9512-1.9512 0.6666-0.66667 1.5-1.0504 2.5-1.1504zm-13.801 1.6016c1.1 0.13333 1.85 0.78255 2.25 1.9492 0.2 0.56667 0.45 1.4329 0.75 2.5996 0.067 0.2-0.017 0.36667-0.25 0.5-0.8667 0.66667-1.6341 1.9167-2.3008 3.75l-0.1 0.5c-0.2667-0.36667-0.4159-0.58372-0.4492-0.65039-0.6333-1.6-1.7167-2.5322-3.25-2.7988-0.4-0.0667-0.5512-0.30117-0.4512-0.70117 0.2-0.4 0.3182-0.68294 0.3516-0.84961 0.4333-1.6333 1.0651-2.8504 1.8984-3.6504 0.5334-0.46667 1.0508-0.68177 1.5508-0.64844zm-7.5 0.94922c0.4333-0.2 0.8829-0.13411 1.3496 0.19922s0.7341 0.76745 0.8008 1.3008l0.5996 3.8008-0.1 0.19922c-0.5667 0.4-1.0008 0.96589-1.3008 1.6992-0.1 0.23333-0.317 0.91745-0.6504 2.0508-1.2333-1.7667-2.5996-2.8171-4.0996-3.1504-0.4667-0.1-0.6333-0.40039-0.5-0.90039 0.6333-2.6 1.9337-4.3326 3.9004-5.1992zm28.35 1.0996c0.6667 0 1.1841 0.23451 1.5508 0.70117 0.3333 0.43333 0.467 0.93334 0.4004 1.5-0.4 2.2333-1.1016 4.7159-2.1016 7.4492-0.2333 0.56667-0.4988 0.78372-0.7988 0.65039-0.3333-0.3-0.5833-0.48411-0.75-0.55078-0.3667-0.13333-0.5004-0.33294-0.4004-0.59961 0.2333-0.23333 0.3671-0.4 0.4004-0.5 0.5667-1.2 0.7992-2.5004 0.6992-3.9004-0.033-0.43333-0.3667-0.74922-1-0.94922-0.6333-0.23333-1.1992-0.23333-1.6992 0l-0.25 0.0996v-0.25c0.8667-1.8 2.0159-2.9841 3.4492-3.5508zm-36.199 1.9512c0.5333 0.1 0.9655 0.38294 1.2988 0.84961 0.1667 0.23333 0.4012 0.6655 0.7012 1.2988 0.5333 1.0667 0.5333 2.2508 0 3.5508-0.5333 1.4333-0.4345 2.7337 0.2988 3.9004 0.6667 0.93333 0.4845 1.6988-0.5488 2.2988-0.2333 0.13333-0.5163-0.18255-0.8496-0.94922-0.2-0.43333-0.5334-0.96628-1-1.5996-0.6-0.73333-0.9837-1.2333-1.1504-1.5-0.5061-0.91719-0.7716-1.795-0.8652-2.6445 0-0.0216 0.024-0.0345 0.017-0.0566v-0.0488c-0.049-0.21636 0.1147-0.85463 0.1524-1.2441 0.074-0.45295 0.041-0.92347 0.2441-1.3555 0.2334-0.56666 0.4-0.98333 0.5-1.25 0.2-0.5 0.4675-0.86823 0.8008-1.1016 0.033 0 0.1671-0.0484 0.4004-0.14844zm19.6 1.5c0.9333 0.13333 1.6833 0.84844 2.25 2.1484 0.5333 1.2667 0.7 2.5341 0.5 3.8008-0.5667-0.73333-1.3496-0.98333-2.3496-0.75-1.0333 0.23333-1.8163 0.9-2.3496 2l-0.4004 0.5c-0.6333-0.4-0.9512-0.71589-0.9512-0.94922-0.067-2.0333 0.35-3.8182 1.25-5.3516 0.6334-1.0667 1.3175-1.5318 2.0508-1.3984zm6.4004 0.5488c1.3-0.56667 2.1159 0.0167 2.4492 1.75 0.1 0.53333 0.1504 1.8996 0.1504 4.0996 0 0.16667-0.083 0.4845-0.25 0.95117-0.5333-1.4667-1.3008-2.2671-2.3008-2.4004-1.0666-0.1-1.8825 0.46589-2.4492 1.6992 0.3333-2.2333 0.6492-3.6829 0.9492-4.3496 0.5-0.96667 0.9845-1.55 1.4512-1.75zm6.6504 0.70122c0.7333-0.36667 1.2818-0.31823 1.6484 0.14844 0.2 0.26667 0.2 0.78411 0 1.5508-0.1 0.36667-0.2318 0.89961-0.3984 1.5996-0.3667 1-0.95 1.6163-1.75 1.8496-0.5667 0.16667-1.1345 0.51745-1.7012 1.0508 0 0.0333-0.467 0.55078-1.4004 1.5508 0.2334-2.0667 0.3516-3.2508 0.3516-3.5508 0-1.0333 0.3159-1.8996 0.9492-2.5996 0.5-0.53333 1.2674-1.0663 2.3008-1.5996zm-20.051 0.29902c0.7333 0.13333 1.2837 0.60039 1.6504 1.4004 0.1 0.23333 0.4159 1.2837 0.9492 3.1504 0.067 0.26667 8e-4 0.43333-0.1992 0.5-0.2333 0.0667-0.4 0.11706-0.5 0.15039-1.3 0.76667-2.2012 2.2163-2.7012 4.3496 0.1 0.53333 0.067 0.78333-0.1 0.75-0.5667-0.0667-0.9833-0.30117-1.25-0.70117-0.5333-0.93333-0.9325-2.2163-1.1992-3.8496 0.1-1.2 0.1988-2.0992 0.2988-2.6992 0.1667-1 0.5349-1.8004 1.1016-2.4004 0.6-0.6 1.2492-0.81706 1.9492-0.65039zm28.699 0.84958c0.6-0.0667 1.0845 0.0516 1.4512 0.35156 0.3446 0.25848 0.45 0.66295 0.4726 1.1191-0.035 0.0889-0.034 0.0833-0.072 0.17969-0.082 0.30052-0.1929 0.35269-0.2813 0.59961-0.4545 1.0936-1.0208 2.1271-2.0703 2.9004-2.5 1.8333-3.8333 2.8004-4 2.9004-0.2333 0.13333-1.2159 0.68372-2.9492 1.6504l-0.1992-0.0508 0.1-0.34961c0.9333-1.5 2.1833-3.8159 3.75-6.9492 0.7333-1.3 1.9988-2.0849 3.7988-2.3516zm-36.449 0.20123c1.5333 0.66667 2.6826 1.75 3.4492 3.25 0.2334 0.43333 0.3167 1.1988 0.25 2.2988 0.033 0.43333 0.1671 0.93333 0.4004 1.5 0.1333 0.33333 0.3504 0.86823 0.6504 1.6016-0.4667-0.5-0.9996-0.46697-1.5996 0.0996-0.3667 0.36667-0.7 0.43255-1 0.19922-0.2667-0.33333-0.4663-0.55039-0.5996-0.65039-1.0334-0.53333-1.8008-0.93255-2.3008-1.1992-0.3333-0.2-0.6163-0.51589-0.8496-0.94922-0.067-0.2-0.2004-0.63411-0.4004-1.3008-0.4333-1.5333-0.2996-2.9171 0.4004-4.1504 0.4333-0.73333 0.9663-0.96589 1.5996-0.69922zm-9.6992 1.3494c0.3387-0.0616 0.6768 0.14437 1.0156 0.50977l0.1074 0.0723c0.5997 0.79993 1.4705 1.9823 2.627 3.5684 1.0333 1.4 1.8666 2.6326 2.5 3.6992 0.067 0.13333 0.4 0.76706 1 1.9004 0.4333 0.76667 0.85 1.3829 1.25 1.8496-2-0.63333-3.5349-1.3504-4.6016-2.1504-2.4333-1.8-3.9159-3.6818-4.4492-5.6484-0.3079-1.0356-0.357-1.7581-0.3359-2.3945 0.011-0.13579-0.074-0.34441-0.051-0.4707 0.1047-0.48759 0.4118-0.80414 0.9375-0.93555zm30.736 1.8496c0.3583 0.0167 0.6796 0.20078 0.9629 0.55078 0.4667 0.53333 0.8 1.5004 1 2.9004 0.2667 1.4333 0.067 2.7492-0.5996 3.9492-0.1333 0.23333-0.2167 0.36706-0.25 0.40039-0.1 0.0667-0.2667 0.0492-0.5-0.0508-0.9-0.3-1.6171-0.05-2.1504 0.75-0.2 0.23333-0.3667 0.23333-0.5 0-0.1667-0.36667-0.4167-0.56628-0.75-0.59961-0.4667-0.1-0.55-0.38294-0.25-0.84961 0.3333-0.53333 0.5329-1.1845 0.5996-1.9512 0-0.3-0.015-0.99961-0.049-2.0996-0.033-0.96667 0.3988-1.8155 1.2988-2.5488 0.4333-0.31667 0.8292-0.46784 1.1875-0.45117zm-4.7363 0.34961c0.5666 0.26667 0.9833 1.0012 1.25 2.2012 0.4666 2.0333 0.2651 3.6671-0.6016 4.9004-0.2666 0.36667-0.8151 0.68255-1.6484 0.94922-0.1667 0.0667-0.3334 0.23333-0.5 0.5-0.1667 0.3-0.3004 0.48411-0.4004 0.55078-0.033-0.86666-0.2-1.9849-0.5-3.3516-0.4-1.6667-0.6345-2.75-0.7012-3.25-0.1-0.76667 0.2179-1.4488 0.9512-2.0488 0.7667-0.56667 1.4837-0.71784 2.1504-0.45117zm12.35 0.75c0.6667-0.0333 1.0329 0.21667 1.0996 0.75 0.067 0.46666-0.067 1.0674-0.4004 1.8008-0.5333 1.0667-1.5992 2.4659-3.1992 4.1992-0.3 0.3-1.0675 0.95117-2.3008 1.9512-0.1 0.1-0.1659 0.13303-0.1992 0.0996l-0.1-0.19922c-0.3667-0.53333-0.4675-1.1341-0.3008-1.8008 0.2667-0.76667 0.4333-1.35 0.5-1.75 0.2333-1.4333 1.0841-2.7841 2.5508-4.0508 0.7333-0.56667 1.5163-0.9 2.3496-1zm-18.1 0.80073c0.5333 0.0333 0.95 0.25039 1.25 0.65039 0.1666 0.23333 0.3333 0.65 0.5 1.25 0.8 2.4 1.1663 4.2333 1.0996 5.5-0.033 0.4 0.017 1.3167 0.1504 2.75 0.067 1.1333 0.016 2.05-0.1504 2.75-0.033 0.1 0.017 0.29961 0.1504 0.59961l-0.1504 0.5c-0.4-0.16667-0.6171-0.26745-0.6504-0.30078-1.8-1.9333-3.1333-3.8151-4-5.6484-1-2.1333-1.1008-4.1508-0.3008-6.0508 0.3-0.7 0.5171-1.1496 0.6504-1.3496 0.3667-0.46667 0.8512-0.68372 1.4512-0.65039zm27.236 0.1738c0.1361 0.0488 0.1871 0.22677 0.3555 0.22656h0.1992l0.4004-0.0508h0.051c0.4928-9.6e-4 0.9558 0.12001 1.3965 0.33789 0.096 0.0823 0.2268 0.14389 0.2695 0.25781 0.04 0.057 0.069 0.1159 0.074 0.17969 0 0.0379-0.037 0.10204-0.037 0.14258-0.017 0.0449-0.019 0.0964-0.055 0.13281l-0.1912 0.34967-0.051 0.0508c-0.064 0.19206-0.097 0.37422-0.1 0.54883 0 0.0273-0.022 0.0435-0.027 0.0684-0.2708 0.41485-0.7522 0.70572-1.125 1.0606-0.5042 0.46916-0.8689 0.92768-1.6993 1.4219-0.032 0.0367-0.065 0.0522-0.1 0.0488l-0.1504 0.0508-0.6503 0.30078c-0.01 7e-3 -0.02 0.0168-0.025 0.0234-0.5868 0.27473-0.9647 0.47369-2.0332 0.92578-1.7334 0.76667-3.7334 1.2841-6 1.5508l-2.5996 0.19922c-0.1333 0.0333-0.2166 0.0508-0.25 0.0508-0.067-0.0333-0.032-0.13411 0.1015-0.30078 0.7333-0.96667 2.0008-1.8833 3.8008-2.75 2.2332-0.96667 4.4659-2.3329 6.6992-4.0996 0.4847-0.38779 1.0735-0.62074 1.7461-0.72656zm-39.188 2.6758c1.1667 0.26667 2.3333 0.95078 3.5 2.0508 0.1 0.0667 0.1157 0.23333 0.051 0.5 0 0.16667-0.033 0.39922-0.1 0.69922 0 1.1667 0.5 2.4671 1.5 3.9004-1.0667-0.46667-2.2837-1.3174-3.6504-2.5508-1.2667-1.0333-2.0167-2.233-2.25-3.5996-0.067-0.3-8e-4 -0.5655 0.1992-0.79883 0.2-0.2 0.45-0.26784 0.75-0.20117zm5.9004 1.5508c0.3 0.0667 0.7826 0.23333 1.4492 0.5 0.6334 0.13333 1.0345 0.51706 1.2012 1.1504 0.1 0.33333 0.2163 0.84883 0.3496 1.5488 0.6667 1.4667 1.4341 2.7671 2.3008 3.9004l1.0488 1.3496c0.4333 0.5 0.9004 0.93411 1.4004 1.3008-1.7-0.36667-3.3163-1.0508-4.8496-2.0508-2.0667-1.4-3.3671-2.8167-3.9004-4.25-0.4667-1.1-0.55-1.9663-0.25-2.5996s0.7167-0.91628 1.25-0.84961zm-13.699 0.19922c0.4333-0.1 0.7666-0.0322 1 0.20117 1.0333 1.1 2.3318 2.0167 3.8984 2.75 1.1334 0.53333 2.6508 1.0488 4.5508 1.5488 0.3667 0.1 0.8163 0.3345 1.3496 0.70117 0.3 0.2 0.7341 0.49844 1.3008 0.89844l0.75 0.35156c-0.6-0.0667-1.4178-0.0512-2.4512 0.0488-1.0333 0.0667-1.7988 0.0667-2.2988 0-2.0667-0.5-3.6345-0.78294-4.7012-0.84961-1.0666-0.1-2.1325-0.65039-3.1992-1.6504s-1.5996-1.9671-1.5996-2.9004c-0.033-0.23333-0.033-0.4 0-0.5 0-0.16667 0.099-0.2655 0.2988-0.29883 0.2334-0.0333 0.6016-0.13411 1.1016-0.30078zm29.85 2.0508c1.0333-0.0667 1.6496 0.21628 1.8496 0.84961 0.2667 0.9 0.1174 1.6829-0.4492 2.3496-1.0334 1.1333-2.1167 1.9996-3.25 2.5996-0.4334 0.23333-1.3675 0.61706-2.8008 1.1504l2.3496-2.5996c0.5333-0.63333 0.9345-1.6992 1.2012-3.1992 0.1666-0.66666 0.5329-1.0504 1.0996-1.1504zm-3.9512 0.0488c0.6667-0.16667 1.1512-0.0988 1.4512 0.20117 0.5333 0.5 0.5837 1.2829 0.1504 2.3496-0.3 0.73333-0.7845 1.4659-1.4512 2.1992l-1.8496 1.8516-0.5508 0.29883-0.049-0.5v-1.4004c-0.067-1.5667 0.2667-2.9659 1-4.1992 0.2333-0.4 0.6655-0.66745 1.2988-0.80078zm19.25 0.45119c0.324 0.0701 0.6827 0.31047 1.0254 0.47266 0.015 8e-3 0.01 0.0196 0.023 0.0273l0.9981 0.51953c0.8927 0.57415 1.4605 1.2076 1.5547 1.9297 0 0.6-0.2675 1.1174-0.8008 1.5508-0.5 0.46667-1.1008 0.73216-1.8008 0.79883-2.0666 0.2-4.8167-0.18177-8.25-1.1484l-4.6484-1.5c-0.4667-0.1-0.6837-0.26667-0.6504-0.5 0.1333-0.33333 0.4163-0.5 0.8496-0.5 1.4333 0.0667 2.3171 0.0667 2.6504 0 0.3333-0.1 0.8159-0.15039 1.4492-0.15039 0.6333-0.0333 1.1004-0.0837 1.4004-0.15039 2-0.46667 3.4826-0.88333 4.4492-1.25 0.55-0.2 1.1334-0.23303 1.75-0.0996zm4.4082 2.711c0.018 0.0508 0.097 0.0855 0.1055 0.13867v0.15039c0.011 0.26026-0.2394 0.46805-0.3047 0.71289 0.087-0.32145 0.2242-0.6117 0.1992-1.002zm-49.807 0.18947c0.2333-0.13333 0.4988-0.13333 0.7988 0 1.2333 0.53333 3.15 1.0663 5.75 1.5996 1 0.2 2.1667 0.26589 3.5 0.19922 0.7667-0.0333 1.9178-0.0992 3.4512-0.19922 0.8-0.0333 1.8329 0.38333 3.0996 1.25l-4.2012 1.2988c-0.4333 0.1-0.8984 0.15039-1.3984 0.15039-0.4334 0-1.1504 0.0504-2.1504 0.15039-0.9333 0.1-1.6678 0.11727-2.2012 0.0508-1.1852-0.15195-2.6203-0.46572-4.1933-0.86719-0.4146-0.12368-0.7213-0.30556-1.045-0.47851-0.2593-0.13349-0.5217-0.25077-0.7675-0.47266-0.195-0.17011-0.3153-0.381-0.4532-0.58203-0.2918-0.45687-0.5667-0.91256-0.541-1.3496 0.033-0.36667 0.1516-0.61667 0.3516-0.75zm32.699 0.14844c0.1667 0.0667 0.4341 0.21784 0.8008 0.45117 1.7333 0.73333 3.7818 1.3826 6.1484 1.9492 1.4334 0.36667 2.4334 0.58372 3 0.65039 1.1334 0.16667 2.1682 0.16667 3.1016 0 0.2813-0.0502 0.6108 0.3087 0.9043 0.36133 0.036 0.15783 0.033 0.33104 0.1953 0.43945l0.5 0.34961c1.1 0.7 1.7821 1.3337 2.0488 1.9004l0.2012 0.94922c0.04 0.23693 0.1373 0.3878 0.1914 0.60352-0.07 0.0674-0.047 0.19426-0.1426 0.24609l-1.0488 0.30078c-0.8 0.3-1.7167 0.35039-2.75 0.15039-0.5-0.1-1.3663-0.36745-2.5996-0.80078-2.1333-0.76667-3.5675-1.3829-4.3008-1.8496-2.4333-1.4667-4.6174-3.0829-6.5508-4.8496-0.2333-0.13333-0.4-0.23411-0.5-0.30078 0.2-0.46667 0.4675-0.65078 0.8008-0.55078zm-1.5 1.2012c0.1333-0.26667 0.3504-0.23363 0.6504 0.0996 0.8667 1 2.4325 2.2674 4.6992 3.8008 1.2 0.83333 2.5663 1.6318 4.0996 2.3984 0.3334 0.2 0.8682 0.4345 1.6016 0.70117 0.8666 0.56667 1.5159 1.3826 1.9492 2.4492 0.067 0.16667 0.1829 0.40117 0.3496 0.70117 0.1333 0.26667 0.149 0.49922 0.051 0.69922-0.033 0.76667-0.3008 1.2492-0.8008 1.4492-0.015 6e-3 -0.049-0.0137-0.062-0.01-0.9085-0.0238-2.0852-0.62262-3.2891-1.2793-1.8368-1.0866-3.6229-2.2078-4.998-3.6094-1.9-1.9-3.5337-4.0337-4.9004-6.4004-0.1-0.16667-0.1137-0.30039-0.049-0.40039 0.1-0.1 0.1833-0.15039 0.25-0.15039 0.1 0.0333 0.2492-0.11589 0.4492-0.44922zm17.971 0.48629c-0.09 0.11365-0.047 0.25361-0.1562 0.36328h-0.051c-0.2879 0.25906-0.7144 0.28742-1.0586 0.45312 0.5308-0.20537 0.9598-0.47285 1.2656-0.8164zm-19.721 0.76371c0.1667-0.0667 0.3004-0.0163 0.4004 0.15039 1.6 2.8333 3.2996 5.1163 5.0996 6.8496 0.5 0.46667 1.2326 1.1159 2.1992 1.9492 0.5012 0.46108 0.7149 0.95806 1.0235 1.4434 0.022 0.0596-0.059 0.0932-0.024 0.15625l0.3013 0.55078-0.051-0.0508c0.7898 1.1585 1.055 2.2347 1.043 3.2656-0.017 0.54963-0.158 1.0011-0.5449 1.2578-0.1216 0.0946-0.238 0.12213-0.3535 0.16601-0.3537 0.0859-0.8794-0.11433-1.4141-0.33008-0.6013-0.25989-1.0583-0.53388-1.418-0.8164-0.6752-0.50441-1.3558-0.99181-1.9609-1.7422-0.5334-0.63333-1.2-1.6159-2-2.9492-1.5-2.4667-2.6337-4.7845-3.4004-6.9512-0.2667-0.83333-0.3345-1.4496-0.2012-1.8496 0.1334-0.4 0.5675-0.76628 1.3008-1.0996zm-11.65 1.25c0.5667-0.0667 1.0337 0.0671 1.4004 0.40039-0.8667 0.46667-2.0004 0.91628-3.4004 1.3496-2.2 0.6-3.3822 0.93333-3.5488 1-1.3667 0.63333-2.4171 1.0829-3.1504 1.3496-1.0874 0.38206-2.066 0.45508-2.9981 0.39648l-1.1914-0.31836c-0.6292-0.20109-1.2697-0.38115-1.7656-0.83398-0.1786-0.23166-0.2254-0.58275-0.045-1.1445 0.041-0.0384 0.074-0.0888 0.1-0.15039 0.2553-0.28073 0.2393-0.51877 0.3066-0.76953 0.068-0.0563 0.098-0.12891 0.293-0.12891 0.2667-0.0333 0.5496-3e-4 0.8496 0.0996 0.7334 0.23333 2.0337 0.31667 3.9004 0.25 1-0.0333 2.3178-0.21745 3.9512-0.55078 1.9-0.4 3.1984-0.63255 3.8984-0.69922 0.3-0.0333 0.7671-0.11667 1.4004-0.25zm8.8008 0.19929c0.1667-0.13333 0.3004-0.0829 0.4004 0.15039 0.067 0.2 0.2992 0.83373 0.6992 1.9004 0.2667 0.76667 0.5167 1.3829 0.75 1.8496 0.4 0.8 1.0008 1.9841 1.8008 3.5508 0.7 1.3333 1.4151 2.4496 2.1484 3.3496 0.6 0.73333 1.0012 1.3167 1.2012 1.75 0.12 0.25199 0.048 0.50393 0.1074 0.75586 0 0.0411-0.058 0.0498-0.059 0.0937v0.0508l0.051 0.69922c0.07 0.69011 0.037 1.1397-0.1 1.3496l-0.062 0.4082c-0.1368 0.30709-0.3116 0.58291-0.6914 0.69141-0.6333 0.2-1.2167-0.05-1.75-0.75-1.1667-1.3667-2.0504-2.8822-2.6504-4.5488-0.1333-0.36667-0.5984-1.9345-1.3984-4.7012-0.2333-0.8-0.6345-2.8-1.2012-6-0.033-0.13333-0.014-0.24961 0.053-0.34961s0.15-0.13303 0.25-0.0996c0.067 0.0333 0.2179-0.0171 0.4512-0.15039zm-5.1504 0.8495c0.1333-0.0667 0.3-0.0667 0.5 0 0.2 0.1 0.3667 0.13489 0.5 0.10156-1.1333 1-1.9492 1.7326-2.4492 2.1992-1.1334 1.0667-2.9337 2.5337-5.4004 4.4004-1.2333 0.96667-2.7508 1.55-4.5508 1.75-0.2811 0.0313-0.5947-0.14675-0.8906-0.21094-0.096-0.0165-0.1023-0.079-0.209-0.0898h-0.051c-0.7638-0.0271-1.3334-0.46422-1.7246-1.2793 0-0.01-0.019-0.0173-0.023-0.0273-0.2366-0.33228-0.1175-0.77764 0.3457-1.3301 0.1512-0.22513 0.1057-0.32838 0.3535-0.61328 0.7333-0.86667 2.0822-1.5992 4.0488-2.1992 2.4-0.83333 3.7179-1.2829 3.9512-1.3496 0.7333-0.2 1.9504-0.48489 3.6504-0.85156 1.1666-0.26667 1.8159-0.43333 1.9492-0.5zm3.1504 0 0.1992 0.20117c0.4 1 0.7178 2.1492 0.9512 3.4492 0.033 0.23333 0.4325 1.9504 1.1992 5.1504 0.087 1.1572 0.083 2.4784 0.045 3.8613 0 0.0442-0.048 0.0954-0.047 0.13867v0.0508c0.043 0.24249-0.099 0.7209-0.2949 1.2676-0.04 0.10099-0.067 0.20673-0.1211 0.30273-0.107 0.32523-0.4625 0.56808-0.791 0.82032-0.2764 0.16261-0.5463 0.3819-0.8437 0.36523-0.5317-0.25045-0.929-0.59651-1.2227-1.0156-0.099-0.19401-0.1835-0.41716-0.2578-0.66797-0.076-0.20153-0.1316-0.417-0.168-0.64649-0.2541-1.2336-0.299-2.5032-0.049-3.8262 0.033-0.26667 0.051-0.73372 0.051-1.4004-0.033-0.63333-0.018-1.1159 0.049-1.4492 0.067-0.26667 0.2004-1.3345 0.4004-3.2012 0.1667-1.3 0.3992-2.3659 0.6992-3.1992zm-1.2012 0.50004-0.049 0.35156c-0.3 0.9-0.55 2.3167-0.75 4.25-0.3213 1.6711-0.8499 3.065-1.543 4.2402-0.069 0.13333-0.1758 0.27577-0.2695 0.41406-1.3102 2.0635-2.989 3.4767-5.0879 4.1445h-0.1504c-0.7333-0.0333-1.2488-0.34922-1.5488-0.94922-0.2667-0.6-0.253-1.2841 0.049-2.0508 0.6667-1.7333 1.533-3.15 2.5996-4.25 0.6334-0.7 2.0016-2.0159 4.1016-3.9492l2.3496-2.0508zm19.951 3.3516 2.0996 0.44922c1.7333 0.33333 3.2004 0.21706 4.4004-0.34961 0.1044-0.0435 0.1873 0.053 0.2871 0.0391 0.3176 0.70188 0.7154 1.2894 1.2617 1.6602l0.1504 0.20117c0.2667 0.43333 0.5167 0.74922 0.75 0.94922 0 0.16667 0.068 0.35078 0.2012 0.55078 1 1.8333 1.6317 4.5484 1.8984 8.1484 0.1 1.7333 0.1173 3.7004 0.051 5.9004v2.6504c0 0.43333 0.033 0.73372 0.1 0.90039l-0.1504 0.75-0.049 2.2988c-0.1667 3.8-0.2829 6.0345-0.3496 6.7012-0.1 1.4333-0.3171 3.2996-0.6504 5.5996-0.067-0.4-0.3167-0.93294-0.75-1.5996-0.1761-0.229-0.4211-0.23566-0.6348-0.34375-0.01-0.11134-0.033-0.20296 0.035-0.40625 0.1333-0.4 0.1992-0.66745 0.1992-0.80078 0.029-0.46719-0.1167-0.84174-0.1289-1.2871 0-0.42755 0.079-0.79535 0.025-1.2617-0.039-0.38533-0.1851-0.71139-0.2578-1.0781-0.059-0.27521-0.01-0.60788-0.088-0.87305-0.036-0.1219-0.1958-0.37307-0.2442-0.50781-0.214-0.63203-0.5243-1.2108-0.8535-1.7793-0.2628-0.51771-0.339-0.83862-0.7031-1.4629-0.1667-0.3-0.1321-0.63333 0.1016-1l0.6504-0.94922c0.083-0.21068 0.055-0.45389 0.1074-0.67383 0-0.02 0.034-0.0566 0.037-0.0762 0-0.0272-0.016-0.051-0.012-0.0781 0.2136-1.0621 0.1718-2.1998-0.3321-3.4727-0.056-0.14229-0.1909-0.24749-0.2578-0.38477-0.045-0.101 4e-4 -0.21412-0.049-0.31445-0.095-0.17931-0.3405-0.26226-0.4512-0.43164-0.5155-0.75294-1.2128-1.4196-2.0957-1.998-0.2831-0.19196-0.3827-0.50191-0.7031-0.66992v-0.05077l-0.5-0.30078c-0.01-4e-3 -0.014-0.0187-0.023-0.0234-0.1228-0.13226-0.2532-0.26425-0.2207-0.39648 3e-4 -0.0109-0.01-0.018-0.01-0.0293 0.01-0.0922 0.042-0.17552 0.1-0.25 0.029-0.0388 0.055-0.0971 0.084-0.13672 0.1282-0.11235 0.2204-0.2021 0.4219-0.36328 0.4036-0.61202 0.6386-1.1863 0.8593-1.7578 0.027-0.0538 0.059-0.0879 0.086-0.14258 0.01-0.0153-9e-4 -0.0354 0.01-0.0508 0.2099-0.59342 0.276-1.1544 0.2852-1.7031 0-0.12259 0.071-0.21946 0.057-0.3457v-0.0508c0-0.0141-0.013-0.0269-0.014-0.041-0.01-0.0669 0.028-0.14277 0.019-0.20898-0.054-0.50191-0.3317-0.90725-0.5566-1.334-0.1072-0.23498-0.1043-0.48525-0.25-0.71484-0.5927-0.94812-1.3733-1.4683-2.2403-1.791-0.017-0.0718-0.1731-0.12555-0.1035-0.20899 0.2333-0.2 0.3496-0.35117 0.3496-0.45117 0.2-0.73333 0.1167-1.5822-0.25-2.5488-0.4-1-0.9659-1.6996-1.6992-2.0996z"/>
 <g transform="translate(-1222,-373.75)">
  <path transform="translate(160.15,84.1)" d="m1066.8 289.65c-3.3333 0-5 1.6667-5 5v158.2c0 3.3333 1.6667 5 5 5h93.199c3.3333 0 5-1.6667 5-5v-158.2c0-3.3333-1.6667-5-5-5zm8.3008 7.1992h76.6c4.6667 0 7 2.3333 7 7v139.8c0 4.6667-2.3333 7-7 7h-76.6c-4.6667 0-7-2.3333-7-7v-139.8c0-4.6667 2.3333-7 7-7z" fill="#ef1d1e"/>
  <path transform="translate(160.15,84.1)" d="m1075.2 296.85c-4.6667 0-7 2.3333-7 7v139.8c0 4.6667 2.3333 7 7 7h76.6c4.6667 0 7-2.3333 7-7v-139.8c0-4.6667-2.3333-7-7-7z" fill="none" stroke="#000" stroke-width="1.2"/>
 </g>
</svg>
