<svg width="103.2" height="168.2" preserveAspectRatio="none" version="1.1" viewBox="0 0 103.2 168.2" xmlns="http://www.w3.org/2000/svg">
 <path d="m13.301 7.1992c-4.6667 0-7 2.3333-7 7v139.8c0 4.6667 2.3333 7 7 7h76.6c4.6667 0 7-2.3333 7-7v-139.8c0-4.6667-2.3333-7-7-7z" fill="#fff"/>
 <path d="m76.451 36.8c-0.01-0.47422-0.11-0.84089-0.3-1.1-0.263-0.23581-0.5797-0.35247-0.95-0.35h-0.05c-1.8189 0.0339-4.1022 0.1672-6.85 0.4l-10.25 0.4c-1.2279 5.2e-4 -2.9779 0.0672-5.25 0.2l-0.35 0.05h-1.5c-0.3379-1e-3 -0.6212 0.082-0.85 0.25v0.05c-0.1899 0.24623-0.2732 0.51289-0.25 0.8 0.068 1.9372-0.015 4.4706-0.25 7.6l-0.6 8.65c-0.1988 3.6439-0.5655 6.9272-1.1 9.85l-4.95 23.7h-0.05c-0.5392 2.0345-0.8559 3.3012-0.95 3.8-0.2029 1.0174-0.6695 2.4508-1.4 4.3l-0.75 2.05c-0.253 0.84101-0.9697 2.5577-2.15 5.15l-1.1 2.3c-1.1413 2.6524-2.3413 5.019-3.6 7.1l-9.85 16.55 0.05-0.05-0.15 0.3c-0.014 0.0429-0.031 0.0762-0.05 0.1-0.4903 0.62526-0.6737 1.1586-0.55 1.6v0.05c0.2227 0.5694 0.6893 0.85273 1.4 0.85h0.4l0.1-0.05c0.067 2.6e-4 0.1167 2.6e-4 0.15 0l1.5 0.1c1.5651 0.099 2.3818 0.14896 2.45 0.15l0.85 0.05c5.1131 0.53373 8.0131 0.85039 8.7 0.95l2.4 0.2c1.4509 0.0999 2.7509 0.26653 3.9 0.5 0.6493 0.0966 1.0827 0.14661 1.3 0.15 1.3003-7e-3 2.2836-0.65667 2.95-1.95 0.5203-0.91341 1.2703-2.0134 2.25-3.3l1.95-2.8c1.7341-2.6242 2.8008-4.3576 3.2-5.2l1.25-2.35c1.0261-1.7026 1.7261-3.1193 2.1-4.25 0.2619-0.60377 0.6619-1.3871 1.2-2.35 0.5988-1.2062 0.9821-1.9896 1.15-2.35h-0.05l1.5-4c0.7843-2.1197 1.3009-3.5197 1.55-4.2h0.05c0.6906-1.6504 1.2739-3.3337 1.75-5.05l4.2-15.25v0.05c0.5311-2.3506 0.8311-3.7506 0.9-4.2v0.1c-0.01-0.0399 0.1767-0.8732 0.55-2.5 0.3347-1.1432 0.518-1.8932 0.55-2.25v-0.05c0.1667-0.78776 0.35-1.9711 0.55-3.55l0.3-2.45v-0.05c0.1665-0.97995 0.3499-2.58 0.55-4.8 0.1996-2.4897 0.3996-4.2897 0.6-5.4 0.1661-0.88125 0.3161-2.2146 0.45-4l1.4-14.5" fill="#1ca4da"/>
 <path d="m57.102 16.75-0.6504 0.0508c-1.9211 0.39831-3.2719 1.5805-4.0508 3.5488v0.0508c-0.2143 0.50586-0.4139 1.2888-0.5996 2.3496-0.01 0.0333-0.025 0.0508-0.051 0.0508l-0.3496 1.3984c-0.3548 1.4992-1.0544 3.0167-2.0996 4.5508-0.046 0.10989-0.1293 0.17578-0.25 0.19922-0.091 0.0508-0.1916 0.0508-0.3008 0-0.1022-0.0135-0.1855-0.062-0.25-0.14844-0.065-0.0888-0.098-0.18958-0.1-0.30078l-0.049-2.5c-0.2624-2.2605-0.6636-3.9272-1.2012-5v0.0508l-0.1504-0.25c0.01-0.0163 0.01-0.0337 0-0.0508-0.4898-1.1366-1.172-1.7374-2.0488-1.8008l-0.75 0.10156 0.049-0.0508c-0.5483 0.19739-0.9979 0.63151-1.3496 1.3008h-0.049c-0.2502 0.45781-0.4343 0.99076-0.5508 1.5996-0.1219 0.63997-0.1219 1.2059 0 1.6992 0.7289 2.6799 1.9615 4.8311 3.6992 6.4512 0.061 0.079 0.096 0.16237 0.1016 0.25 0.035 3e-3 0.05 3e-3 0.049 0l0.9004 0.75c0.1837 0.12995 0.3678 0.19583 0.5508 0.19922 0.1352-1.3e-4 0.267-0.0331 0.3984-0.0996l0.3516-0.34961c0.095-0.0569 0.1943-0.0918 0.2988-0.10156 0.1157-9e-3 0.2165 9e-3 0.3008 0.0508 0.1923 0.12877 0.3745 0.19466 0.5488 0.19922 0.2029-1e-3 0.387-0.0672 0.5508-0.19922l4.5508-3.25c0.6483-0.5168 1.2316-1.0342 1.75-1.5508 1.5386-1.5779 2.5871-3.2096 3.1484-4.8984 0.024-2.6e-4 0.042-0.0177 0.051-0.0508l0.051-0.0996c0.1702-0.56719 0.269-0.98385 0.2988-1.25 0.058-0.54687-0.058-1.0469-0.3496-1.5-0.5485-0.92799-1.3644-1.395-2.4492-1.4004zm11.549 2.0996c-0.6052 3e-3 -1.1885 0.10345-1.75 0.30078l-0.2988 0.0996c-1.1666 0.37539-1.8177 1.0091-1.9512 1.9004-0.1269 1.0938-0.8924 2.1441-2.2988 3.1504v0.0488c-0.2547 0.20351-1.2721 0.93802-3.0508 2.2012h-0.051l-1.449 0.94926c-0.3249 0.24492-0.4411 0.57825-0.3496 1 0.1327 0.39401 0.4156 0.61107 0.8496 0.65039h0.1504c0.5447-6e-3 1.1105-0.13972 1.6992-0.40039l0.5508-0.19922h0.049l0.8516-0.20117c0.1091-9e-3 0.2079-9e-3 0.2988 0 0.09 0.0455 0.1574 0.0959 0.2012 0.15039 0.1377 0.14388 0.3199 0.26016 0.5488 0.34961 0.1142 0.0137 0.2654 0.0311 0.4512 0.0508l0.75-0.0996c0.059-7e-3 0.1071-7e-3 0.1484 0l0.8516 0.0996 3.3496 0.0996c2.7366-5e-3 5.0525-0.38906 6.9492-1.1504l0.25-0.0996c0.6388-0.21979 1.1059-0.45235 1.4004-0.69922h0.051c0.4841-0.41563 0.7671-0.96602 0.8496-1.6504 0.01-0.0336 0.01-0.0665 0-0.0996 0.013-0.0481 2e-4 -0.14885-0.051-0.30078-0.2453-0.86601-1.0283-1.6819-2.3496-2.4492v0.0488l-0.1-0.0488c-0.6655-0.36302-1.4833-0.54713-2.4512-0.55078-0.3658 2e-3 -0.6488 0.0195-0.8496 0.0508-0.078 0.0117-0.1615-6e-3 -0.25-0.0508-0.093-0.037-0.1768-0.10289-0.25-0.19922-0.035-0.0671-0.051-0.15039-0.049-0.25v-0.65039c5e-4 -0.71419-0.2999-1.2646-0.9004-1.6504-0.537-0.26563-1.1378-0.39935-1.8008-0.40039zm-34.549 8.2012c-0.8925-2e-3 -1.8092 0.11428-2.75 0.34961-1.0042 0.30182-1.6708 0.93555-2 1.9004-0.1757 0.51823-0.1757 1.0008 0 1.4492 0.1986 0.44271 0.5475 0.80898 1.0488 1.0996 1.1932 0.77877 2.5769 1.2962 4.1504 1.5508 0.1235 0.0199 0.2242 0.0703 0.3008 0.15039 0.08 0.0766 0.1284 0.15989 0.1484 0.25 0.017 0.12213 2e-4 0.22096-0.049 0.29883-0.051 0.11549-0.1347 0.19883-0.25 0.25-0.5294 0.27305-1.5972 0.65677-3.2012 1.1504h-0.049l-0.5996 0.15039h0.049c-0.2103 0.0941-0.7258 0.17747-1.5488 0.25l-1.5508 0.15039 0.051-0.0508c-0.4235 0.12982-0.875 0.19571-1.3516 0.19922h-0.049l-1.5-0.0996c-0.017-5e-3 -0.05-0.0202-0.1-0.0488l-0.3516-0.10156c-0.3454-0.0978-0.6613-0.14623-0.9492-0.14844-0.2582 3e-3 -0.5256 0.0686-0.8008 0.19922l0.051-0.0508-0.75 0.45117v0.0488c-1.1937 0.65169-2.0445 1.2854-2.5508 1.9004-0.742 0.96784-0.9087 1.9349-0.5 2.9004 0.407 0.88802 1.1919 1.388 2.3516 1.5l0.8984 0.0508c1.5492-7e-3 3.2508-0.42333 5.1016-1.25 2.1975-0.98594 4.2305-2.1526 6.0996-3.5l0.4004-0.30078c1.5097-1.1215 2.5756-1.9878 3.1992-2.5996 0.2362-0.18997 0.3195-0.43997 0.25-0.75-0.013-0.10261-2e-4 -0.20339 0.051-0.30078 0.035-0.0936 0.084-0.17695 0.1484-0.25 0.1002-0.0365 0.2009-0.052 0.3008-0.0488h0.3008c1.5069-3e-3 3.8228-0.45423 6.9492-1.3516h-0.051c0.4378-0.12865 0.6723-0.41159 0.7012-0.84961-0.041-0.25013-0.1092-0.4323-0.2012-0.54883-0.053-0.0541-0.1018-0.1219-0.1484-0.20117l-0.3516-0.15039-1.5488-0.29883c-1.2809-0.1082-2.715-0.59271-4.3008-1.4512-0.018-0.015-0.034-0.0305-0.049-0.0488l-0.7012-0.55078c-0.9087-0.63724-1.6083-1.0035-2.0996-1.0996-1.0157-0.13099-1.7483-0.19687-2.1992-0.19922zm38.299 74.1c-1.3337 6e-3 -2.5159 0.53894-3.5488 1.5996-0.8551 0.93294-1.4384 2.0996-1.75 3.5-0.03 0.10807-0.098 0.19141-0.2012 0.25-0.062 0.0881-0.1453 0.13854-0.25 0.15039-0.1061 7e-3 -0.205-0.0259-0.2988-0.0996-0.09-0.0279-0.1582-0.0957-0.2012-0.20117l-0.4492-0.94922c-0.6236-0.94857-1.2903-1.466-2-1.5508h-0.051c-0.4613 5.2e-4 -0.8276 0.20013-1.0996 0.59961l-0.3008 0.90039c0 0.0343-0.015 0.0672-0.049 0.0996-0.063 0.14479-0.096 0.27852-0.1 0.40039 0 0.0796-0.019 0.1474-0.053 0.20117-0.7343 1.4173-0.9843 2.6324-0.75 3.6484 0.042 0.10873 0.042 0.20951 0 0.30078-0.012 0.0879-0.062 0.15378-0.1503 0.19922-0.047 0.0807-0.1133 0.13112-0.1993 0.15039-0.5097 0.10521-0.8935 0.4056-1.1504 0.90039l-1.3496 3c-0.01 0.0161-0.025 0.0336-0.051 0.0508-0.1078 0.21745-0.1078 0.41706 0 0.59961 0.025 0.0329 0.043 0.0484 0.051 0.0488l0.051 0.10156c0.056 0.13776 0.056 0.26953 0 0.39844-0.021 0.1207-0.087 0.20403-0.1992 0.25-0.8151 0.50312-1.4489 1.1872-1.9004 2.0508l-0.051 0.0996c-0.2002 0.41627-0.3183 0.76705-0.3515 1.0508-0.015 0.13112-0.081 0.22995-0.1993 0.29883l-0.25 0.25h-0.051c-0.294 0.46758-0.6603 1.1342-1.0996 2-0.6049 1.1853-1.072 1.9353-1.4004 2.25-0.2083 0.24805-0.2409 0.54844-0.1 0.90039 0.1165 0.27682 0.3162 0.44349 0.5996 0.5 0.107 0.022 0.1904 0.0724 0.25 0.15039 0.088 0.0781 0.1379 0.16146 0.1504 0.25 0.015 0.12239-1e-4 0.22317-0.049 0.30078l-0.4511 0.84961-0.049 0.0488c-0.2767 0.547-0.4434 1.3145-0.5 2.3008v0.0508l-0.051 0.5c-0.1421 1.3875 0.3076 2.3526 1.3497 2.8984h0.051c0.3965 0.24141 0.8131 0.37513 1.25 0.40039 0.1564 0.0113 0.2727 0.0617 0.3496 0.15039 0.1079 0.11627 0.1583 0.23255 0.1504 0.34961l-0.051 0.90039-0.049 0.30078v0.1992c-0.2442 1.3144-0.012 2.4637 0.6992 3.4492 0.6832 0.81041 1.5825 1.262 2.6993 1.3516h0.1015c1.0627-6e-3 2.0957-0.38972 3.0996-1.1504 1.0067-0.76445 1.656-1.6656 1.9493-2.7012l0.25-0.75c0.047-0.0884 0.097-0.17175 0.1503-0.25 0.09-0.047 0.1729-0.0799 0.25-0.0996 0.1021-0.0161 0.1854-0.0161 0.25 0 0.3917 0.16302 0.7754 0.24635 1.1504 0.25 1.044-0.0115 1.9433-0.49402 2.6993-1.4492v0.0488c0.7907-1.0039 1.157-2.1357 1.0996-3.3984-0.01-0.0707 0.011-0.15403 0.051-0.25 0.1093-0.20143 0.1597-0.38555 0.1504-0.55078-0.017-0.10847-1e-4 -0.22474 0.049-0.34961 0.083-0.0842 0.1832-0.15208 0.3007-0.20117 0.2893-0.0738 0.5568-0.2056 0.8008-0.39844 0.1075-0.041 0.2064-0.0584 0.2989-0.0508 0.1287 1e-3 0.2294 0.0343 0.3007 0.0996 0.095 0.0736 0.1456 0.1569 0.1504 0.25 0.3456 1.2376 0.9948 2.6039 1.9492 4.0996 0.5225 0.80247 0.9722 1.3703 1.3497 1.7012h-0.049c0.6978 0.60899 1.4963 0.94232 2.3985 1h0.051l0.3008 0.0488c0.5071-0.0203 0.9723-0.21994 1.3985-0.59961 1.561-1.3427 2.1113-2.9415 1.6504-4.7988-0.1504-0.69674-0.4664-1.3634-0.9493-2-0.2583-0.35547-0.7254-0.87292-1.4004-1.5508-0.5239-0.52161-0.8902-0.92083-1.0996-1.1992-0.4917-0.5931-1.3927-1.1106-2.7011-1.5508h-0.049c-0.6747-0.24544-1.1244-0.42956-1.3496-0.55079l-0.2011-0.0996c-0.08-0.0447-0.1455-0.11054-0.1993-0.19921-0.047-0.0941-0.064-0.19493-0.051-0.30079 0.013-0.10299 0.046-0.20181 0.1-0.29882 0.314-0.34818 0.498-0.81525 0.5507-1.4004v-0.0996c-3e-4 -0.0275-3e-4 -0.0624 0-0.10157l-0.051-0.54882c-0.3393-0.87761-0.756-1.6276-1.25-2.25-0.076-0.0948-0.1089-0.21107-0.1-0.34961 0.01-0.10977 0.059-0.21055 0.1503-0.30078 0.09-0.091 0.1906-0.14141 0.3008-0.1504l1.5-0.0996c0.115-3e-3 0.2139 0.0141 0.2989 0.0508 0.088 0.0634 0.1553 0.12929 0.2011 0.19922 0.1333 0.25899 0.3485 0.40821 0.6485 0.44922l1.25 0.10156c0.8236-6e-3 1.8236-0.17267 3-0.5 0.5503-0.15873 1.0503-0.47656 1.5-0.95117h0.051c0.4417-0.50847 0.7577-1.0744 0.9493-1.6992 0.1331-0.35403 0.2008-0.73776 0.2011-1.1504 0-0.13685 0.05-0.25312 0.1504-0.34961 0.096-0.0988 0.2127-0.14922 0.3496-0.15039 0.098-6e-3 0.1965-0.0389 0.2989-0.0996 0.057-0.0221 0.1077-0.0396 0.1504-0.0508l0.25-0.0488c0.9953-0.18906 1.5787-0.72396 1.75-1.6016 0.1737-1.0419-0.092-1.9915-0.7989-2.8496-0.8248-0.94219-1.8925-1.4422-3.2011-1.5h-0.25c-0.1527 1.3e-4 -0.302 0.0331-0.4493 0.0996-0.095 0.0511-0.2116 0.0511-0.3496 0h-0.2968c-1.0194 2e-3 -1.6202 0.502-1.8008 1.5v0.15039c0 0.0415-0.015 0.0745-0.049 0.0996l-0.1 0.35156c0.01 0.0601-0.011 0.10857-0.051 0.14844-0.2947 0.5181-0.4613 0.86888-0.5 1.0508-0.015 0.11185-0.066 0.19518-0.1504 0.25-0.052 0.0911-0.1353 0.14154-0.25 0.15039l-0.75 0.19922h0.051c-0.5862 0.20625-0.9874 0.44076-1.2012 0.70117-0.043 0.11211-0.1266 0.17799-0.25 0.19922-0.091 0.0541-0.1903 0.0541-0.2988 0-0.5527-0.16693-1.1361-0.25026-1.75-0.25h-0.5c-0.1247 2e-3 -0.241-0.0484-0.3496-0.15039-0.083-0.0712-0.1336-0.17006-0.1504-0.29883-0.011-0.12851 0.022-0.24674 0.1-0.35156l0.9006-1.1992c0.6314-0.78893 0.831-1.506 0.5996-2.1504-0.04-0.0887-0.057-0.1875-0.051-0.29883 0.012-0.0675 0.047-0.13528 0.1016-0.20117 0.1953-0.2457 0.3271-0.54609 0.3984-0.90039 0.131-0.76315 0.1989-1.6953 0.2012-2.7988v-0.0508c0.025-0.48581-0.1413-0.93542-0.5-1.3496v0.0508c-0.328-0.37735-0.7447-0.5944-1.25-0.65039zm-6.0488 11c0.083-8e-3 0.1492-8e-3 0.1992 0 0.089 0.0182 0.1544 0.0511 0.1992 0.0996l1.1504 0.80078c0.1109 0.0625 0.1788 0.1458 0.2012 0.25 0.052 0.0999 0.052 0.1987 0 0.29883-0.053 0.23646-0.053 0.50391 0 0.80078v0.1504c0 0.079-0.017 0.14492-0.051 0.19922l-0.1 0.19922c-0.045 0.1043-0.1132 0.17214-0.2012 0.20117-0.268 0.16862-0.5509 0.40117-0.8496 0.69922h-0.049l-0.3008 0.25v0.0508c-0.2113 0.16667-0.3606 0.38372-0.4492 0.65039-0.054 0.30365-0.021 0.58659 0.1 0.84961v-0.0508l0.5996 1.2012c0.049 0.12917 0.049 0.24544 0 0.34961-0.01 0.13021-0.058 0.22904-0.1504 0.29883-0.1333 0.11471-0.1992 0.28138-0.1992 0.5 0.01 0.39765-0.1445 1.0643-0.4512 2-0.2319 0.69296-0.3637 1.2763-0.3984 1.75-0.01 0.15351-0.057 0.27174-0.1504 0.35156-0.099 0.10365-0.2154 0.15209-0.3496 0.14844h-0.051c-0.053 3e-3 -0.2523 0.0382-0.5996 0.10156v0.0488l-0.4512 0.0996c-0.033 4e-3 -0.068 4e-3 -0.1015 0h-0.049c-0.08 3e-3 -0.1633-0.0128-0.25-0.0488-0.063-0.0432-0.1311-0.11104-0.2011-0.20117l-0.1-0.14844 0.051 0.0488c-0.3964-0.55469-0.5978-1.1884-0.6015-1.9004 4e-4 -0.46042 0.1185-1.2259 0.3515-2.2988v0.0488l0.1-0.5c0.015-0.14961 3e-4 -0.33177-0.051-0.54883-0.015-0.0669-0.015-0.13476 0-0.20117 0.019-0.0726 0.053-0.13854 0.1015-0.19922 0.2952-0.40755 0.4619-0.675 0.5-0.80078 0.016-0.0531 0.034-0.10157 0.051-0.14844l0.1-0.20117 0.1504-0.40039h0.051c0.1941-0.46875 0.093-0.86797-0.3008-1.1992-0.012-5e-3 -0.029-0.0228-0.051-0.0508l-0.5488-0.75c-0.07-0.0974-0.1024-0.21367-0.1-0.34961 0.01-0.0968 0.04-0.19557 0.1-0.29882 0.1927-0.19466 0.4098-0.5629 0.6504-1.1016 0.01-0.0259 0.01-0.0589 0-0.0996l0.1-0.15039c0.049-0.10273 0.1145-0.18607 0.1992-0.25 0.09-0.0649 0.1909-0.0978 0.3008-0.0996 0.3189-1e-3 0.6522-0.0672 1-0.19921z" fill="#faea01"/>
 <path d="m50.951 17.301c-0.5667 0-1.0667 0.21511-1.5 0.64844v0.0508c-1.2333 1.1333-1.933 2.6333-2.0996 4.5-0.067 0.8-0.051 1.7167 0.049 2.75l0.1504 3.8496c0 0.1-0.017 0.20078-0.051 0.30078-0.067 0.0667-0.15 0.11706-0.25 0.15039-0.1 0.0333-0.1988 0.0488-0.2988 0.0488-0.1-0.0333-0.1833-0.0837-0.25-0.15039-0.9333-1-1.5341-1.6996-1.8008-2.0996-0.1-0.13333-0.1833-0.3155-0.25-0.54883-0.4667-0.93333-0.9822-1.5012-1.5488-1.7012 0-0.0333-0.017-0.0488-0.051-0.0488l-0.6992-0.30078 0.049 0.0508c-1.5-0.6-2.6492-0.90039-3.4492-0.90039h-0.1c-0.9 0.0667-1.4834 0.15-1.75 0.25v0.0488c-0.8667 0.26667-1.3667 0.81706-1.5 1.6504-0.067 0.6 0.1 1.2163 0.5 1.8496 0.3333 0.53333 0.7984 0.98489 1.3984 1.3516h0.0512c1.9333 1.2 3.6659 1.9326 5.1992 2.1992l1 0.19922c1.2 0.23333 2.0179 0.35156 2.4512 0.35156 0.3333 0 0.5659-0.0174 0.6992-0.0508h0.051c0.2667-0.0333 0.4663-0.13411 0.5996-0.30078 0.033-0.1 0.099-0.16589 0.1992-0.19922 0.067-0.0333 0.1345-0.0508 0.2012-0.0508h0.2988c0.3 0 0.5171-0.0833 0.6504-0.25l0.5996-0.64844c0.067-0.0667 0.15-0.11706 0.25-0.15039 0.1-0.0333 0.2182-0.0178 0.3516 0.0488 0.067 0.0667 0.1325 0.15 0.1992 0.25 0.1667 0.3 0.4167 0.45117 0.75 0.45117l0.4004-0.0508c1.7667-0.46667 3.2822-0.96667 4.5488-1.5 0.1334-0.0667 0.2671-0.0667 0.4004 0 0.1 0.0333 0.1833 0.11667 0.25 0.25 0.1333 0.26667 0.333 0.45078 0.5996 0.55078l2.1504 0.79883h-0.049c2.4 0.8 4.3825 1.3504 5.9492 1.6504l0.051 0.0508 0.5996 0.15039-0.051-0.0508c2.0333 0.4 3.5663 0.59961 4.5996 0.59961 1.1 0 2.1175-0.14922 3.0508-0.44922 1.2667-0.4 2.0167-1.0512 2.25-1.9512 0.1-0.76667-0.3167-1.4818-1.25-2.1484l-0.1504-0.10156-0.049-0.0488c-0.8-0.56667-1.7845-0.84961-2.9512-0.84961l-3.9492 0.19922c-1.4 0-3.2333-0.13372-5.5-0.40039l-0.75-0.0488c-0.1 0-0.2008-0.0349-0.3008-0.10156-0.1-0.0667-0.1504-0.15-0.1504-0.25-0.067-0.1-0.067-0.19883 0-0.29883 0.033-0.13333 0.1012-0.21667 0.2012-0.25 2-1.3 3.3992-2.6333 4.1992-4 0.9-1.6 0.8857-2.9837-0.049-4.1504l-0.051-0.0508c-0.4333-0.56667-1.0496-0.84961-1.8496-0.84961-0.4 0-0.8671 0.10078-1.4004 0.30078-1.6333 0.53333-2.6333 1.3492-3 2.4492-0.5333 1.8-1.5159 3.4163-2.9492 4.8496-1.1334 1.1333-2.5016 2.2516-4.1016 3.3516-0.1 0.0333-0.1988 0.0488-0.2988 0.0488-0.1333 0-0.2341-0.0329-0.3008-0.0996-0.1-0.1-0.1659-0.20078-0.1992-0.30078-0.033-0.1-0.018-0.19883 0.049-0.29883l0.6016-1.3008v0.0508c0.7-1.9 1.2484-3.9678 1.6484-6.2012v-0.0488c0.1-0.56667 0-1.0996-0.2988-1.5996v-0.05077c-0.1667-0.26667-0.4845-0.6-0.9512-1l-0.049-0.0508c-0.3333-0.26667-0.6667-0.39844-1-0.39844zm-21.6 13.199c-0.3 0-0.6508 0.0659-1.0508 0.19922h-0.051l-0.5488 0.10156h-0.1c-1.9334 0-3.5845 0.46511-4.9512 1.3984l-0.1504 0.10156h-0.049c-1.2 0.66667-1.6341 1.5484-1.3008 2.6484 0.2667 0.83333 0.8171 1.3508 1.6504 1.5508l0.051 0.0508c1.7333 0.43333 3.0821 0.64844 4.0488 0.64844 0.4 0 0.7837-0.0329 1.1504-0.0996 0-0.0333 0.017-0.0488 0.051-0.0488 1.7333-0.16667 3.2488-0.43411 4.5488-0.80078 0.1333-0.0333 0.2496-0.0333 0.3496 0s0.1834 0.11667 0.25 0.25c0.033 0.1 0.051 0.21628 0.051 0.34961-0.033 0.1-0.099 0.18333-0.1992 0.25l-0.201 0.15033c-0.9 0.66667-2.367 1.5833-4.4004 2.75h-0.049l-0.5508 0.25v0.0508c-0.9333 0.3-1.567 0.73216-1.9004 1.2988l-0.049 0.0508c-0.3333 0.5-0.6008 1.0988-0.8008 1.7988-0.4 1.6333-0.117 2.7671 0.8496 3.4004 0.4334 0.23333 0.85 0.34961 1.25 0.34961 0.6334 0 1.3679-0.33334 2.2012-1 0-0.0333 0.015-0.0488 0.049-0.0488l0.5-0.34961c1.3-0.8 2.6682-2.2167 4.1016-4.25v0.0488c1.1333-1.7 2.1159-3.5004 2.9492-5.4004 0.1667-0.4 0.083-0.73333-0.25-1-0.067-0.0667-0.1-0.15-0.1-0.25-0.033-0.1-0.033-0.18333 0-0.25 0-0.1 0.033-0.18333 0.1-0.25 0.1667-0.16667 0.2674-0.29844 0.3008-0.39844 0-0.0333 0.015-0.0682 0.049-0.10156 0.067-0.26667 0.034-0.51667-0.1-0.75h0.051c-0.2667-0.43333-0.6175-0.64844-1.0508-0.64844-0.2 0-0.3492 0.0329-0.4492 0.0996-0.1334 0.0667-0.2516 0.0822-0.3516 0.0488l-0.7988-0.19922c-1.8333-0.5-3.0678-1-3.7012-1.5-0.4-0.33333-0.8651-0.5-1.3984-0.5zm36.049 69.449c-0.5667 0.0333-0.9659 0.25039-1.1992 0.65039h-0.051c-0.1667 0.23333-0.2829 0.51628-0.3496 0.84961v0.0508l-0.051 0.15039c-0.033 0.0667-0.066 0.11706-0.1 0.15039-0.2333 0.3-0.3496 0.66628-0.3496 1.0996 0 0.1-0.027 0.19883-0.062 0.29883-0.1577 0.22082-0.1919 0.47726-0.1406 0.75781 0-3e-3 -0.01-4e-3 -0.01-8e-3v0.0508c0-0.0147 0.01-0.0249 0.01-0.0391 0.1337 0.35751 0.3432 0.607 0.6386 0.73828 0.5 0.2 0.9012 0.55078 1.2012 1.0508 0.1667 0.26667 0.3992 0.81706 0.6992 1.6504l0.2012 0.65039c0.1333 0.4 0.4163 0.59961 0.8496 0.59961 0.4333-0.0333 0.7337-0.26784 0.9004-0.70117v0.0508c0.2666-1 0.3654-1.9341 0.2988-2.8008l-0.049-0.25v-0.0996c0-0.86667 0.035-1.3667 0.1016-1.5 0.1333-0.7-0.1012-1.4655-0.7012-2.2988-0.4666-0.63333-0.9666-0.98411-1.5-1.0508zm10.801 5.6016c-1.8 0.0667-2.8 0.63255-3 1.6992v0.0508c-0.1333 0.86667-0.6333 1.7833-1.5 2.75h-0.051c-0.1667 0.16667-0.3159 0.41667-0.4492 0.75v0.0996l-0.1 0.0996c-0.1 0.26667-0.1 0.51667 0 0.75l0.049 0.0508c0.067 0.2 0.2508 0.34922 0.5508 0.44922l0.5996 0.0996h1.3008c0.1333 0.0333 0.3833 0.0508 0.75 0.0508 1.1 0 2.0321-0.25 2.7988-0.75 0.7-0.56667 1.2175-1.0337 1.5508-1.4004h0.049c0.4667-0.7 0.6179-1.4829 0.4512-2.3496-0.2333-1.3-1.1675-2.0674-2.8008-2.3008h-0.049l-0.1016-0.0488zm-10.551 5.8496c-0.9667 0-1.8 0.38373-2.5 1.1504h-0.049c-0.5667 0.63333-0.8341 1.3-0.8008 2 0.067 0.76667 0.3671 1.3984 0.9004 1.8984 0.067 0.0667 0.117 0.15 0.1504 0.25 0.033 0.1 0.016 0.20078-0.051 0.30078-1.0333 2.2667-1.5004 4.2492-1.4004 5.9492 0.067 1.1667 0.5841 1.9516 1.5508 2.3516 0.2 0.0667 0.417 0.0996 0.6504 0.0996 0.8333 0 1.5329-0.43411 2.0996-1.3008 0.6-1 1.0496-2.5659 1.3496-4.6992v-0.0508c0.033-0.3-0.017-0.63333-0.1504-1-0.033-0.0333-0.049-0.0663-0.049-0.0996l-0.25-0.90039c-0.067-0.13333-0.067-0.24961 0-0.34961 0.033-0.13333 0.1166-0.23411 0.25-0.30078 0.2666-0.13333 0.5496-0.34844 0.8496-0.64844 0.6-0.6 0.9004-1.2512 0.9004-1.9512v-0.0488c-0.1334-1.7667-1.2845-2.6504-3.4512-2.6504zm17.9 0.65039c-0.3667 0-0.6826 0.0988-0.9492 0.29883-0.4667 0.4-0.7167 1.0512-0.75 1.9512 0 0.1-0.05 0.19883-0.1504 0.29883-0.7333 1.2-1.5337 1.9345-2.4004 2.2012h0.051c-0.3667 0.1-0.5837 0.35-0.6504 0.75-0.033 0.1-0.084 0.18333-0.1504 0.25l-0.1 0.0996c-0.067 0.0667-0.15 0.11706-0.25 0.15039-0.1333 0.0333-0.2341 0.0159-0.3008-0.0508-0.1-0.0333-0.1833-0.0992-0.25-0.19922l-0.1992-0.10156-0.051-0.0488c-0.6-0.53333-1.35-0.80078-2.25-0.80078l-0.9004 0.0508h-0.1l-1.8496-0.34961c-0.2 0.0333-0.3667 0.11667-0.5 0.25h-0.062c-0.2 0.23333-0.2833 0.51628-0.25 0.84961 0.033 0.26667 0.1341 0.48372 0.3008 0.65039 0.7667 0.76667 1.2008 1.3829 1.3008 1.8496 0.1 0.43333-0.1016 1.1659-0.6016 2.1992-0.2 0.4-0.1321 0.76628 0.2012 1.0996v0.0508c0.7667 0.83333 1.9004 1.25 3.4004 1.25h0.1484c0.1 0 0.2008 0.0329 0.3008 0.0996 0.067 0.0333 0.1326 0.11667 0.1992 0.25 0.033 0.1 0.1012 0.20078 0.2012 0.30078 0.033 0 0.061 0.0155 0.061 0.0488 0.8667 1.1333 1.6671 2.0016 2.4004 2.6016v-0.05078c0.9667 0.8 2.0171 1.3504 3.1504 1.6504 0.3333 0.0667 0.6996 0.0996 1.0996 0.0996 1.0667 0 1.9175-0.31589 2.5508-0.94922v-0.05077c0.6333-0.7 0.9163-1.5508 0.8496-2.5508-0.067-1.6333-0.7508-3.3-2.0508-5-0.067-0.0667-0.1015-0.15-0.1015-0.25s0.034-0.19883 0.1015-0.29883c0.033-0.1 0.1012-0.16784 0.2012-0.20117 0.1-0.0333 0.1988-0.0488 0.2988-0.0488 0.1667 0.0333 0.4167 0.0488 0.75 0.0488 0.3667 0 0.6516-0.0155 0.8516-0.0488 0.9666-0.1 1.7321-0.50117 2.2988-1.2012 0.6667-0.86667 0.7675-1.8318 0.3008-2.8984-0.8667-1.9-2.2833-3.1016-4.25-3.6016l-0.4006-0.19925c-0.6333-0.3-1.1333-0.44922-1.5-0.44922zm-29.699 12.299c-0.7334 0-1.2334 0.18411-1.5 0.55078h-0.051l-4.25 6.0488c0 0.0333-0.017 0.0508-0.051 0.0508l-0.1 0.0996c-0.5667 0.7-0.8825 1.3008-0.9492 1.8008-0.033 0.9 0.55 1.5163 1.75 1.8496l1.2988 0.0996c1 0 1.9341-0.25 2.8008-0.75h0.051l0.3496-0.15039h0.049c0.7334-0.26667 1.1849-0.66589 1.3516-1.1992 0.1-0.56667-0.15-1.2004-0.75-1.9004h0.049c-0.3667-0.33333-0.4325-1.0659-0.1992-2.1992s0.7004-2.05 1.4004-2.75c0.2872-0.28721 0.3319-0.62699 0.1914-1.0059-0.167-0.35934-0.43-0.54492-0.793-0.54492zm1.4414 0.54492c0 4e-3 0.01 2e-3 0.01 6e-3v-0.0508c0.01 0.0171-0.014 0.0281-0.01 0.0449zm16.559 2.5058c-0.4 0-0.8845 0.16667-1.4512 0.5l-0.2988 0.15039c-0.6667 0.33333-0.9341 0.86628-0.8008 1.5996v0.0996l-0.1504 1.75v0.15039c-0.5333 1.2667-1.1825 1.9992-1.9492 2.1992h-0.2504c-0.5333 0-0.9345 0.16667-1.2012 0.5-0.2333 0.26667-0.2818 0.63294-0.1484 1.0996 0.1666 0.73333 0.6666 1.7004 1.5 2.9004v-0.0488l0.1484 0.19922v0.0508c0.6334 0.9 1.6004 1.3496 2.9004 1.3496 1.0333 0 1.8667-0.30039 2.5-0.90039 1.3333-1.2667 2-2.9663 2-5.0996 0.033-0.76667-0.1837-1.9663-0.6504-3.5996l-0.3496-1.1504c-0.3-1.1333-0.8988-1.7167-1.7988-1.75z" fill="#ef1d1e"/>
 <path d="m56.648 16.85c-1.4325 0.23372-2.614 1.0343-3.5469 2.4004-0.2667-0.5-0.4837-0.85078-0.6504-1.0508-0.2667-0.36667-0.5671-0.59922-0.9004-0.69922-1.0667-0.26667-1.9329 0.0841-2.5996 1.0508-0.6667 0.96667-1.1667 1.9996-1.5 3.0996 0-0.33333-0.1163-0.66667-0.3496-1-0.2667-0.36667-0.4682-0.64961-0.6016-0.84961-0.5333-0.86666-1.1321-1.2349-1.7988-1.1016-0.6 0.13333-1.133 0.5345-1.5996 1.2012-0.4667 0.63333-0.7167 1.2671-0.75 1.9004 0 1.5333 0.1492 2.6322 0.4492 3.2988-1.2333-0.5-2.1171-0.81589-2.6504-0.94922-0.9667-0.26667-1.8833-0.2997-2.75-0.0996-0.6667 0.16667-1.1492 0.5-1.4492 1s-0.3678 1.0659-0.2012 1.6992c0.067 0.2 0.084 0.33372 0.051 0.40039-0.067 0.0667-0.2159 0.0996-0.4492 0.0996-1.0334-0.0333-1.8182-0.0333-2.3516 0-0.9 0.0333-1.65 0.23294-2.25 0.59961-1.2666 0.76667-1.7163 1.7008-1.3496 2.8008 0.033 0.1 0.033 0.16589 0 0.19922h-0.3496c-2.6 0-4.6833 0.40117-6.25 1.2012-1.0667 0.56667-1.6674 1.1984-1.8008 1.8984-0.1333 0.73333 0.2349 1.4504 1.1016 2.1504 0.2333 0.2 0.1984 0.38411-0.1016 0.55078l-2.1484 1.4492c-0.6 0.43333-0.9508 1.0167-1.0508 1.75s0.084 1.3671 0.5508 1.9004c0.4666 0.6 1.2321 0.95078 2.2988 1.0508 0.8667 0.0667 1.733-0.0167 2.5996-0.25l1.3008-0.20117c0 0.0667-0.033 0.26628-0.1 0.59961-0.033 0.26667-0.084 0.46823-0.1504 0.60156-0.5667 0.96667-0.4659 1.9492 0.3008 2.9492 0.6666 0.86667 1.6996 0.8997 3.0996 0.0996 2.2-1.3333 3.9325-2.9671 5.1992-4.9004 1-1.5333 1.6337-2.5663 1.9004-3.0996 0.6667-1.1667 1.1492-2.25 1.4492-3.25 0.2667-1.0333 0.6679-1.4326 1.2012-1.1992 1.7667 0.73333 3.3325 1.6829 4.6992 2.8496 1.7667 1.4 3.4663 3.1674 5.0996 5.3008 0.7667 0.93333 1.1504 1.6 1.1504 2 0 0.83333-0.066 2.0988-0.1992 3.7988-0.033 0.63333-0.1341 1.7167-0.3008 3.25-0.1333 1.3667-0.2167 2.45-0.25 3.25-0.1333 2.3667-0.5655 5.8842-1.2988 10.551-0.3667 2.3-0.7679 4.4667-1.2012 6.5l-3.0996 13.9c0 0.0333-0.05 0.0992-0.1504 0.19922l-0.031-0.0469-0.016-0.0527v-0.0508c-0.08-0.28834-0.089-0.37457-0.1425-0.58789-0.1291-0.63293-0.2343-1.3646-0.3282-2.1387l-0.2832-3.0586c-0.032-0.45791-0.073-1.1304-0.1-1.4648-0.01-0.0897-0.054-0.12364-0.062-0.21094l-0.092-0.98828c-0.097-0.69382-0.3629-1.2668-0.6426-1.8301-0.052-0.11082-0.053-0.31847-0.1093-0.41992-0.012-0.0211-0.043-0.0241-0.055-0.0449-0.4278-0.69519-1.0021-1.2856-1.7442-1.7559 0-7e-3 -0.017-0.0223-0.051-0.0488l-0.75-0.35156-0.066-0.0273c-0.038-0.0152-0.047-0.0577-0.086-0.0723-0.2-0.0667-0.3337-0.28372-0.4004-0.65039-0.067-1.4333-0.5337-2.3829-1.4004-2.8496-0.216-0.11585-0.3913-0.013-0.6015-0.0977-0.1911-0.0981-0.2763-0.27662-0.4981-0.35156-0.2527-0.0669-0.5205-0.0999-0.8008-0.0996-0.1765 0-0.4087 0.11038-0.5996 0.13867-0.4109 0.0294-0.8133 0.1026-1.1972 0.27539-0.056 0.0216-0.095 0.0117-0.1524 0.0352-0.7395 0.31537-1.3558 0.69909-1.8496 1.1504-0.078 0.0878-0.1791 0.13815-0.3008 0.15039-0.089 0.0155-0.1895-2e-3 -0.3007-0.0508-0.082-0.0523-0.1476-0.13567-0.1993-0.25-0.037-0.0537-0.204-0.45289-0.5-1.1992l0.053 0.0488-0.75-1.7988-0.3496-0.65039c-0.1414-0.27798-0.228-0.39048-0.3575-0.63477-0.1011-0.20025-0.2548-0.60486-0.3457-0.76562-0.064-0.12262-0.171-0.16397-0.2382-0.28125-0.1424-0.24345-0.3356-0.63096-0.459-0.81836-0.4531-0.64905-1.0301-1.144-1.6211-1.6211-0.1078-0.0832-0.1695-0.25435-0.2813-0.33008-0.023-0.0152-0.038-5e-3 -0.061-0.0195-0.031-0.0217-0.049-0.0588-0.08-0.0801-0.6833-0.45247-1.2996-0.68503-1.8496-0.69922-0.4242 1e-3 -0.7905 0.0847-1.0996 0.25-0.09 0.055-0.1146 0.17238-0.1973 0.23438-0.2642 0.17582-0.4662 0.4449-0.6367 0.75781-0.1394 0.20091-0.3693 0.31593-0.4668 0.55664-0.025 0.1362-0.091 0.23698-0.1992 0.30078-0.1111 0.0598-0.2293 0.0772-0.3516 0.0508-0.1226-0.0302-0.2215-0.098-0.2988-0.20117l-0.3008-0.40039c-0.062-0.0855-0.1308-0.11338-0.1934-0.19336l-0.1074-0.15625c-0.041-0.0613-0.1138-0.0515-0.1562-0.10938-0.6001-0.68535-1.2281-1.1088-1.8789-1.3047-0.1035-0.0291-0.1578-0.16628-0.2657-0.18555-0.059-0.0131-0.1054 0.0525-0.164 0.043-0.096-0.0128-0.1856-0.0919-0.2832-0.0937-0.207 6.5e-4 -0.5578 0.051-1.0508 0.15039h0.051c-0.2429 0.0974-0.3968 0.30876-0.6153 0.4375-0.1376 0.0851-0.3019 3e-3 -0.4355 0.11328-0.1268 0.1029-0.1605 0.2816-0.2773 0.39258-0.6202 0.53811-1.119 1.2322-1.4786 2.1035-0.05 0.12223-0.1375 0.2145-0.1816 0.3418-0.029 0.0818-0.087 0.12648-0.1133 0.21094-0.12 0.42068 0.012 0.78157-0.062 1.1914-0.1322 0.77553-0.3423 1.486-0.291 2.4102 0.013 0.26002 0.1087 0.47553 0.1387 0.72656 0.035 0.27948-0.099 0.59945-0.039 0.87305v0.0488l0.055 0.15039c0.1193 0.39224 0.2415 0.49239 0.3613 0.82422 0.089 0.2678 0.223 0.51219 0.336 0.76758 0.2346 0.53765 0.4667 1.3026 0.7031 1.6094 0.06 0.0734 0.093 0.15677 0.1 0.25 0.011 0.0971-0.01 0.18047-0.051 0.25-0.023 0.0549-0.065 0.0819-0.098 0.12305-1.3416 0.64085-2.1654 1.4442-2.2539 2.4766-0.3 2.5333 0.3492 4.3996 1.9492 5.5996 0.048 0.0367 0.1497 0.048 0.1992 0.084 0.062 0.046 0.086 0.1759 0.1504 0.2168 1.0037 0.65847 2.0715 1.1236 3.2012 1.3984 0.1422 0.0461 0.241 0.1139 0.2988 0.20117 0.086 0.12292 0.1245 0.2392 0.1055 0.34961-0.017 0.12209-0.085 0.20318-0.1758 0.26562-0.7836 0.35535-1.3607 0.94636-1.5801 1.9336-0.067 0.29794 0.1018 0.538 0.09 0.82226-0.1159 0.61616-0.062 1.1928 0.1836 1.7246 0.039 0.0945-0.025 0.21212 0.021 0.30469 0.099 0.19187 0.31 0.26964 0.4375 0.43164 0.1139 0.13342 0.127 0.29079 0.2676 0.41797 0.071 0.068 0.184 0.0393 0.2578 0.10156 0.4746 0.36806 1.0862 0.59745 1.8086 0.71094 0.3487 0.0833 0.5943 0.38647 0.9805 0.38672h0.3027c0.076 5.6e-4 0.1315 0.0527 0.1953 0.084 0.031 0.0624 0.088 0.0693 0.1016 0.16602 0.067 0.23333 0.1675 0.56667 0.3008 1 0.1334 0.4 0.3329 0.71784 0.5996 0.95117 0.1095 0.0962 0.2934 0.0761 0.4082 0.16406 0.059 0.0541 0.085 0.1873 0.1465 0.23438v-0.0488c0.2717 0.18143 0.6954 0.13491 0.9961 0.27344 0.8095 0.40509 1.5326 0.94243 2.5488 1.0254 0.5667 0.0333 2.0337-0.05 4.4004-0.25 0.4333-0.0333 1.1659-0.16511 2.1992-0.39844 0.3302-0.0856 0.512-0.0744 0.793-0.1289 0.5346-0.0658 1.2163-0.17426 1.5097-0.17188 0.055 1.8e-4 0.068 9e-3 0.1192 0.01 0.7785 0.0191 1.3562 0.29028 2.0214 0.45312 1.215 0.34368 2.397 0.70515 3.1622 1.2871h-0.059c0.043 0.0273 0.088 0.0182 0.1308 0.041 0.1237 0.20059 0.3443 0.36542 0.2188 0.6582-0.4333 1.3-0.8171 2.2516-1.1504 2.8516-0.4 0.83333-1.2663 2.7984-2.5996 5.8984-0.1 0.2-0.2009 0.2-0.3008 0-0.031-0.0795-0.1898-0.13485-0.2383-0.21094-0.1644-0.15821-0.1281-0.41312-0.3594-0.53906-0.037-0.0281-0.072-0.0611-0.1015-0.0996l-0.053-0.0488-1.2968-0.75c-0.3218-0.17503-0.6295-0.19238-0.9414-0.26562-0.1134-0.0363-0.3142-0.16596-0.4122-0.18555-0.04-5e-3 -0.073 0.0404-0.1132 0.0371-0.044-2e-3 -0.093-0.037-0.1368-0.0371-0.232-1e-3 -0.3468 0.21171-0.5507 0.26172-0.5058 0.0937-1.0183 0.0973-1.4961 0.48828-0.1725 0.40241-0.3109 0.41896-0.4336 0.30078-0.059-0.0277-0.1187-0.0503-0.166-0.0996-0.029-0.029-0.083-0.0607-0.1133-0.0898-0.065-0.07-0.095-0.14812-0.1895-0.21094-0.1667-0.13333-0.3005-0.24961-0.4004-0.34961-0.1748-0.16509-0.3296-0.15995-0.5019-0.30664-0.1804-0.13284-0.2975-0.26039-0.4981-0.39453l-0.5-0.39844c-0.2585-0.18342-0.5037-0.14438-0.7597-0.27734-0.3904-0.19445-0.8088-0.63086-1.1875-0.72266-0.2557-0.0511-0.5053 0.0172-0.7578 0.0156-0.015-2.5e-4 -0.03-0.0156-0.045-0.0156-0.024 1.9e-4 -0.042 0.0189-0.066 0.0195-0.6128 0.0143-1.2166 0.17261-1.8105 0.48047h-0.02c-0.015 7e-3 -0.017 0.0212-0.031 0.0273-0.2207 0.11794-0.4461 0.16373-0.6641 0.32227-0.24 0.18357-0.3473 0.41613-0.5351 0.61914-0.1722 0.1778-0.3476 0.35363-0.4824 0.56055-0.1779 0.27943-0.2831 0.58585-0.377 0.89648-0.089 0.25024-0.2546 0.44169-0.3047 0.72266-0.02 0.10768-0.07 0.19101-0.1504 0.25-0.086 0.0896-0.1871 0.13998-0.3007 0.15039-0.1065 8e-3 -0.2055-0.0245-0.2989-0.0996l-0.7011-0.40039c-0.2353-0.13101-0.362-0.12823-0.5821-0.24023-0.3912-0.2133-1.067-0.63736-1.2676-0.70899-0.2343-0.10339-0.4687-0.0286-0.7031-0.10351-0.1729-0.0497-0.4408-0.21619-0.5976-0.2461-0.017-7e-3 -0.036-0.0245-0.053-0.0508-0.1731-0.0332-0.4735-0.0507-0.9004-0.0508-0.1443-3.7e-4 -0.2961 0.0481-0.4414 0.0547-0.2363 6e-3 -0.4711-0.13826-0.707-0.10352-0.3258 0.0575-0.5203 0.21399-0.8145 0.29492-0.1473 0.0301-0.2873 0.0179-0.4355 0.0547-0.3595 0.11806-0.5378 0.27252-0.8301 0.4043-0.3002 0.14411-0.644 0.25814-0.8965 0.4375-0.086 0.0573-0.2484 0.0988-0.3242 0.1582-0.1278 0.11696-0.161 0.38678-0.2793 0.51953-0.3174 0.33592-0.7187 0.60972-0.9199 1.0312-0.4333 0.9-0.7183 1.5667-0.8516 2-0.043 0.1652 0.051 0.30245 0.031 0.46289-0.089 0.42498-0.1522 0.8369-0.084 1.1856v0.10156c0.012 0.12735 0.062 0.30951 0.1504 0.54883 0.052 0.10664 0.072 0.20742 0.053 0.30078-0.018 0.0863-0.068 0.15221-0.1504 0.19922-0.053 0.0894-0.1367 0.13984-0.25 0.15039-1.0404 0.30712-1.7916 0.91449-2.3828 1.6894-2.7436 3.2424-0.9203 6.8384-0.071 8.1602 0.5382 0.90433 1.2868 1.4939 2.1309 1.9394 0.094 0.0534 0.199 0.075 0.2949 0.1211 0.3848 0.17355 0.7296 0.40518 1.1738 0.49023 0.6 0.1 0.9333 0.16589 1 0.19922 0.2667 0.16667 0.35 0.48451 0.25 0.95117-0.033 0.23333 0.05 0.51628 0.25 0.84961 0.062 0.11369 0.2401 0.14982 0.3106 0.25781 0.3905 0.62034 0.963 1.1905 1.789 1.6914 0.1076 0.0675 0.2528 0.0416 0.3633 0.10156 0.2258 0.11904 0.2855 0.3474 0.5371 0.44922 0.5675 0.22973 1.0315 0.0608 1.5606 0.14258 0.2602 0.0322 0.4679 0.20658 0.7402 0.20703h0.051l0.8535-0.0586c0.2024-0.0306 0.4506 0.11449 0.6465 0.0586 0.5343-0.15511 1.0901-0.48116 1.6289-0.67188 0.8789-0.27369 1.6154-0.45243 2.8711-0.97851v0.0508l1.3027-0.59961c0.033-0.0116 0.068-0.029 0.1016-0.0508l0.6504-0.15039c0.1869-0.0461 0.2386-0.12566 0.4004-0.17773-0.047 0.20909-0.1017 0.45577-0.1016 0.47851l-1.75 2.6992c-0.3333 0.53333-0.4496 1.0508-0.3496 1.5508 0.1333 0.5 0.4492 0.7655 0.9492 0.79883l12.4 1.2012c0.4663 0.0333 1.6333 0.16706 3.5 0.40039 1.4601 0.19916 2.6878 0.2645 3.6855 0.19922-0.6831 0.54193-1.3075 1.109-1.6367 1.8008-0.028 0.0641 0.011 0.13841-0.014 0.20313-0.3328 0.82415-0.4103 1.7658-0.1875 2.8457 0.061 0.18242-0.021 0.29368-0.1817 0.36523l-0.3691 0.18555c-0.4772 0.22761-0.8784 0.56094-1.2012 1-0.1019 0.17047-0.097 0.35042-0.168 0.52344-0.018 0.0424-0.062 0.0322-0.08 0.0762-0.026 0.0637 0.023 0.10532 0 0.16797-0.085 0.26024-0.234 0.51462-0.25 0.78125 0 0.21176 0.2181 0.38924 0.25 0.5957 0.033 0.32561-0.1577 0.71668 0 1.0059 0.2448 0.39345 0.5492 0.63255 0.8261 0.94336 0.1006 0.12879 0.057 0.28 0.1739 0.40625 0.1193 0.12544 0.2757 0.13956 0.4003 0.25 0.2362 0.20033 0.5051 0.32393 0.7618 0.47266 0.364 0.22206 0.6854 0.56577 1.0879 0.67773 0.1266 0.0477 0.2253 0.11355 0.2988 0.19922 0.065 0.0805 0.1 0.1638 0.1015 0.25 0.01 0.12487-0.027 0.22565-0.1015 0.30078-0.2993 0.46722-0.3294 0.95423-0.4863 1.4316-0.093 0.23747-0.2021 0.46988-0.25 0.72266-0.084 0.47858-0.066 0.96447-0.012 1.4531 0.02 0.17128-0.041 0.31519 0 0.49219 0.034 0.17226 0.1676 0.27771 0.211 0.44336 0.1036 0.35417 0.061 0.69729 0.2363 1.0566 0.1512 0.32754 0.4716 0.53662 0.666 0.83399 0.3235 0.51832 0.6859 1.0111 1.1504 1.4355 0.1548 0.14151 0.2158 0.349 0.3848 0.48047 0.2504 0.19529 0.5416 0.16991 0.7988 0.32617 0.4703 0.29591 0.7861 0.69269 1.3535 0.92383 0.3 0.13333 0.8 0.24961 1.5 0.34961 0.5 0.2 0.6996 0.66706 0.5996 1.4004-0.033 0.43333 0.1004 0.96628 0.4004 1.5996 0.046 0.10572 0.1696 0.15222 0.2207 0.25391 0.027 0.0584 0.048 0.1937 0.076 0.24609h-0.053c0.4865 0.82975 1.1501 1.4462 1.9003 1.959 0.212 0.14516 0.4679 0.25684 0.7051 0.38282 0.2869 0.14604 0.5251 0.35119 0.8438 0.45898 0.2663 0.1012 0.8807 0.12847 1.2344 0.21094 0.5344 0.14127 0.9024 0.40831 1.5175 0.48828 0.33 0.0376 0.6212-0.0756 0.9434-0.0684 0.1729 0.0149 0.2219 0.0555 0.4043 0.0684h0.4512c0.4172-7.6e-4 0.8358-0.14691 1.2539-0.22266 0.3104-0.0618 0.6353-0.0747 0.9375-0.16796 0.9169-0.28823 1.8353-0.71234 2.7578-1.3594 0.048-0.0335 0.07-0.0699 0.1172-0.10352 0.091-0.0658 0.1946-0.0772 0.2851-0.14648 0.6277-0.47759 1.0764-0.96455 1.4863-1.4531 0.68-0.77286 1.1791-1.5665 1.3614-2.3965 0.029-0.12357 0.097-0.22435 0.2011-0.30078 0.096-0.0756 0.195-0.10869 0.2989-0.0996l0.2422 0.0176c0.1094 0.0186 0.1083 9e-4 0.2597 0.0332 0.3333 0.0667 0.8159 0.15 1.4492 0.25 0.5667 0.0667 1.0512 0.0318 1.4512-0.10156 0.9373-0.24758 1.7071-0.72636 2.3535-1.377 0.014-0.0132 0.033-8e-3 0.047-0.0215v0.0488c0.3775-0.40053 0.6088-0.94722 0.875-1.459 0.1439-0.26724 0.3592-0.4361 0.4766-0.74023 0.013-0.0325-0.01-0.0651 0.012-0.0977 0.2812-0.73077 0.4194-1.4484 0.3926-2.1523 0-0.37148-0.093-0.78699-0.166-1.1934-0.019-0.0859 0.043-0.1719 0.02-0.25781-0.024-0.31024-0.044-0.48927-0.068-0.67969 0.047-0.0623 0.1009-0.12212 0.1699-0.16992 0.09-0.0619 0.1892-0.0948 0.2989-0.0996 0.4552-0.0152 0.8814-0.4582 1.3261-0.61523 0.5762-0.20098 1.1246-0.14608 1.7247-0.58399 0.1258-0.08 0.1682-0.25875 0.2832-0.35156 0.07-0.0604 0.1474-0.0355 0.2168-0.0996 0.2036-0.16905 0.231-0.45972 0.3925-0.6582 0.2457-0.32204 0.5894-0.52822 0.7578-0.94141 0.058-0.14126-6e-4 -0.26156 0.053-0.40039 0.029-0.0983 0.1277-0.14748 0.1504-0.25 0.036-0.17955-0.076-0.33244-0.062-0.50781 0.068-0.46677 0.2549-0.95583 0.164-1.3926-0.3-0.63333-0.4181-0.98216-0.3515-1.0488 0.6203-0.56215 1.0429-1.2856 1.3593-2.0957 0.013-0.0258 0.024-0.0285 0.037-0.0547 0-0.0542 0.021-0.12009 0.055-0.19922 0.1336-0.24831 0.1996-0.5332 0.1993-0.85156 0-0.0124 0.014-0.0247 0.014-0.0371 0.02-0.0989 0.054-0.1834 0.07-0.28516 0.072-0.0635 0.1463-0.12461 0.2207-0.17773 0.106-0.0215 0.207-0.0215 0.3008 0 0.097 0.0238 0.1806 0.0742 0.25 0.15039 0.1457 0.15149 0.3264 0.17926 0.4746 0.32227l0.4278 0.3789c0.9447 0.88025 1.7613 1.2085 2.6094 1.6738 0.4959 0.26903 0.9191 0.7829 1.4374 0.97461l0.053 0.0508c0.3132 0.13503 0.6969 0.20091 1.1504 0.19922 0.5172-7e-3 1.0934-0.22733 1.6816-0.49219 0.031-0.0188 0.091 0.014 0.1211-8e-3 0.4667-0.3 0.8969-0.31577 1.2969-0.0488 0.2334 0.16667 0.5531 0.43216 0.9531 0.79883 0.2279 0.14366 0.5462 0.18601 0.7969 0.30469 0.5269 0.28113 1.0906 0.49894 1.6953 0.64648 0.1718 0.0377 0.3577 0.0624 0.5371 0.0918 0.5047 0.0882 0.9624 0.25618 1.5176 0.25781h0.053l1.3281-0.11133c0.082-4e-3 0.1414 0.0171 0.2247 0.0117 0.7-0.0333 1.0818-0.0663 1.1484-0.0996l-0.1552-26.377c-0.574-0.75587-1.3051-1.4064-2.3086-1.873h-0.051c-0.1747-0.0859-0.4588-0.0566-0.6445-0.13086-0.2421-0.0989-0.2886-0.28044-0.5547-0.36914-1.1155-0.36543-2.1956-0.45862-3.2559-0.40234-0.095-2e-3 -0.1475-0.0485-0.2441-0.0488l-1.4004 0.0508c-0.3546 0.0164-0.5369 0.19536-0.7168 0.37695-0.077 2e-3 -0.1547-9.3e-4 -0.2324-0.0781-0.9333-1.0333-2.0167-1.7155-3.25-2.0488l-0.25-0.25 0.1992-0.0996c0.19-0.0633 0.4675-0.1449 0.8066-0.23828l0.4441-0.06258c0.3419-0.12149 0.5919-0.25521 0.75-0.40039 0.037-0.0399 0.07-0.0728 0.1-0.0996l0.1016-0.0508 0.1054-0.0625c0.4574-0.20895 1.2804-0.57151 1.3946-0.63672 0.502-0.28241 0.7453-0.66165 1.1289-0.98828 0.08-0.0678 0.2515-0.14416 0.3203-0.21094 0.054-0.0453 0.06-0.11929 0.1113-0.16601 0.2514-0.25513 0.6515-0.45476 0.8379-0.73438 0.1969-0.27564 0.1453-0.64626 0.2813-0.94531 0.093-0.20296 0.3027-0.33618 0.3691-0.55469 0.067-0.22579-0.014-0.50171 0.016-0.74023 0.053-0.33631 0.2952-0.60076 0.2852-0.96094 0-0.27594-0.2132-0.36705-0.252-0.60938-0.01-0.0503 0.013-0.0898 0-0.14062-0.038-0.17619-0.177-0.23975-0.2285-0.40039-0.1801-0.52257-0.2064-1.1776-0.6211-1.498-0.4418-0.34711-0.5875-0.64278-0.5215-0.90039 0.037-0.0708 0.075-0.14018 0.1211-0.20117 0.072-0.0568 0.073-0.15533 0.1407-0.21484 0.1003-0.12725 0.1203-0.21355 0.3086-0.38477 0.068-0.0599 0.039-0.16229 0.1015-0.22461 0.342-0.43464 0.7619-0.82204 0.9043-1.375 0.071-0.24901-0.064-0.44853-0.043-0.68555 0.014-0.17532 0.2047-0.27906 0.1934-0.46484-0.016-0.24166-0.2126-0.42243-0.2637-0.65234-0.048-0.17357 0.045-0.38089-0.035-0.54688-0.1563-0.30491-0.3111-0.42995-0.4668-0.68359-0.1466-0.2601-0.1306-0.5745-0.3321-0.81641-0.1178-0.13406-0.2914-0.17121-0.4199-0.28711-0.06-0.0658-0.12-0.20552-0.1797-0.26367-0.137-0.11954-0.376-0.12548-0.5332-0.22266-0.3659-0.21328-0.7498-0.39518-1.1796-0.49414-0.1657-0.0391-0.2585-0.15964-0.4376-0.18359-0.104-0.0195-0.2052-0.0854-0.3007-0.19922-0.067-0.0767-0.1016-0.17747-0.1016-0.30078 3e-4 -0.12357 0.035-0.23984 0.1016-0.34961 0.5974-0.65596 0.9821-1.2874 1.3828-1.9199 0.03-0.0347 0.034-0.0448 0.062-0.0801 0.01-9e-3 -4e-4 -0.0201 0.018-0.0293 0.671-1.0874 1.1535-2.1513 1.2402-3.1699 0.043-0.58811-0.3863-1.0419-0.5879-1.5606-0.039-0.10971-0.015-0.17428-0.061-0.28906-0.039-0.10151-0.089-0.12211-0.129-0.2168-0.1769-0.31289-0.097-0.69932-0.371-0.98437-0.084-0.0933-0.2185-0.0725-0.3067-0.15625-0.102-0.13356-0.1863-0.39633-0.293-0.49414l-1.9511-0.75c-0.2823-0.12274-0.4184-0.33961-0.5606-0.55274 4e-4 -0.5808-0.058-1.1339-0.1894-1.6465l-0.1016-0.44922c-0.043-0.20767-0.1821-0.23903-0.2344-0.42969-0.1793-0.56748-0.3646-1.2194-0.5156-1.5215-0.1359-0.24038-0.4205-0.3445-0.5957-0.54883-0.1663-0.18969-0.2106-0.61207-0.4043-0.75-0.1984-0.12465-0.4166-0.084-0.6172-0.1875-0.1163-0.0684-0.1579-0.20354-0.2832-0.26367-0.7526-0.35838-1.5334-0.51783-2.334-0.53906-0.1248-8e-3 -0.2416-0.11095-0.3672-0.11133-0.5851 2e-3 -1.0707 0.24261-1.5996 0.3789-0.051 0.0152-0.099 5e-3 -0.1504 0.0215-0.021 6e-3 -0.037 0.0227-0.057 0.0293-1.3477 0.39712-2.5757 1.0768-3.5449 2.3711l-0.051 0.0996c-0.061 0.13359-0.1621 0.21693-0.3008 0.25-0.1001 0.0625-0.2164 0.0625-0.3496 0-0.4328-0.15466-0.9061-0.22322-1.4062-0.23438-0.126 3.2e-4 -0.2609 0.0336-0.3907 0.0488-0.8437 0.0466-1.5621 0.32036-2.1914 0.75391l-0.1621 0.0312v-0.19911l0.8008-3.8496c0.7-2.4667 1.1167-4.3504 1.25-5.6504v-1.0508c0.033-0.4 0.1671-0.68294 0.4004-0.84961 0.8835-0.60336 1.7113-0.7472 2.5527-1.002 0.5611-0.16783 1.1252-0.47913 1.6836-0.50391 0.8511-0.0219 1.8294 0.14632 2.8828 0.42773 0.2685 0.0727 0.4883 0.0595 0.7696 0.1543 0.7941 0.26343 1.8489 0.60775 3.3105 1.0742 0.2988 0.0759 0.4066-0.0475 0.6836 8e-3 0.4625 0.0945 1.1635 0.389 1.5176 0.39258 0.6153 5.2e-4 1.2141-0.10026 1.7988-0.30078 0.042-0.0123 0.06-0.0401 0.1016-0.0527 0.099-0.0337 0.3069 0.0444 0.3984 4e-3 1.6-0.66666 2.5845-1.5833 2.9512-2.75l0.1269-0.51172c0.026-0.029 0.038-0.0637 0.07-0.0898 0.088-0.0675 0.1889-0.10048 0.3007-0.0996l2.8985-0.0488c0.5006-0.0584 0.9023-0.22531 1.3476-0.3457 0.09-0.0233 0.1828-0.0435 0.2715-0.0703l0.3809-11.385c-0.1105-4.6e-4 -0.2131-0.0551-0.3125-0.13477-0.069-1.0738-0.6025-1.9191-1.377-2.6465-0.01-6e-3 3e-4 -0.0136-0.014-0.0195-0.063-0.0658-0.161-0.08-0.2265-0.14258-0.4777-0.40024-0.9135-0.82131-1.6231-1.1074-0.063-0.0268-0.1299-6e-3 -0.1933-0.0312-0.1858-0.0814-0.311-0.25338-0.5078-0.31836-0.7527-0.20209-1.5513-0.30092-2.3985-0.29883-0.1263 4.2e-4 -0.3016 0.076-0.4316 0.082-0.5051 0.0187-1.0209 0.18287-1.5332 0.29688-0.7237 0.13276-1.3683 0.1412-2.1856 0.41992-0.091 0.0513-0.1918 0.0513-0.3007 0-0.1029-0.0135-0.1862-0.0639-0.25-0.15039-0.066-0.0892-0.1006-0.18802-0.1016-0.29883 0-0.29166-0.1774-0.43578-0.2207-0.69141 0.01-0.31498 0.093-0.61034-0.023-0.95898-0.094-0.25609-0.3075-0.33455-0.4454-0.52539-0.034-0.0448-0.025-0.13131-0.062-0.17383-0.039-0.044-0.1063-0.0251-0.1464-0.0664-0.1606-0.16402-0.2474-0.4391-0.4532-0.53516-0.3429-0.17144-0.7294-0.081-1.0879-0.1582-0.2735-0.071-0.4538-0.34208-0.7597-0.3418-0.1542 4.9e-4 -0.3107 0.14744-0.4649 0.16601-0.1513 0.0114-0.2837-0.091-0.4375-0.0645-0.4539 0.0811-0.8586 0.45713-1.289 0.67969-0.2039 0.11338-0.4074 0.0739-0.6114 0.21875h-0.051c-0.1294 0.0876-0.2592 0.24189-0.3887 0.33594-0.099 0.0816-0.2129 0.0742-0.3106 0.16406-0.09 0.0776-0.3931 0.43649-0.5019 0.53906-0.5825 0.48367-1.1648 0.8982-1.7481 1.5117-0.3579 0.39027-1.0956 1.3-1.832 2.207 0.01-0.1754 0.044-0.48729 0.1328-1.1074 0.2666-2.6 0.4663-5.1988 0.5996-7.7988 0.1-3.1667 0.1833-5.5504 0.25-7.1504 0-0.4-0.1841-0.59961-0.5507-0.59961-0.7667 0.0667-1.9837 0.13255-3.6504 0.19922-1.2666-0.1-2.1833-0.0826-2.75 0.0508-0.4 0.1-0.933 0.16589-1.5996 0.19922-0.8 0-1.3504 0.0329-1.6504 0.0996-0.4666 0.1-1.116 0.15039-1.9493 0.15039-1.0667 0-1.7159 0.0174-1.9492 0.0508-1.6 0.0667-3.8345 0.19844-6.7011 0.39844-0.3333 0.0667-0.533 0.0512-0.5997-0.0488-0.066-0.0982-0.046-0.28213 0.049-0.54101 0.01-0.0462 0.044-0.0612 0.053-0.10938 0.3126-1.8424 1.0471-3.7087 2.2012-5.5996 0.01-3.3e-4 0-0.0169 0-0.0254 0.1124-0.087 0.2245-0.17426 0.4492-0.0742 1.7 0.86667 2.7329 1.3492 3.0996 1.4492 3.6333 1.1333 6.5675 1.7496 8.8008 1.8496 2.1 0.13333 3.6833-0.0837 4.75-0.65039 0.7-0.36667 1.1322-0.68255 1.2988-0.94922 0.3334-0.46667 0.302-1.05-0.1015-1.75-0.1667-0.33333-0.4826-0.61628-0.9493-0.84961-0.5-0.2-0.8663-0.38411-1.0996-0.55078 0.8666-0.16667 1.8492-0.55039 2.9492-1.1504 0.7333-0.4 1.1674-0.88255 1.3008-1.4492 0.1333-0.53333-0.051-1.0992-0.5508-1.6992-1.2-1.4333-2.8996-2.0341-5.0996-1.8008-0.3667 0.0333-0.5837 0.0508-0.6504 0.0508-0.1667-0.0667-0.149-0.30117 0.053-0.70117 0.1333-0.2 0.1647-0.4655 0.1-0.79883-0.2-1.0667-0.9325-1.6849-2.1992-1.8516-1.1666-0.13333-2.1996 0.10117-3.0996 0.70117-0.2 0.13333-0.3337 0.18372-0.4004 0.15039-0.033-0.0333-0.084-0.15156-0.1504-0.35156-0.2334-0.93333-0.8167-1.4663-1.75-1.5996-1.3-0.2-2.6334 0.26706-4 1.4004-0.1-0.8-0.4334-1.4163-1-1.8496-0.6328-0.49958-1.3668-0.68347-2.1992-0.55078zm-0.047 0.84961c1-0.16667 1.7325 0.13372 2.1992 0.90039 0.3 0.46667 0.2707 1.2012-0.1 2.2012-0.7 2-2.2679 4-4.7012 6-0.2333 0.2-1.7333 1.2833-4.5 3.25 1.3667-1.8333 2.3008-3.6841 2.8008-5.5508 0.3-1.7333 0.6004-3.0008 0.9004-3.8008 0.8-1.7333 1.9337-2.7333 3.4004-3zm-5.3008 0.65039c0.4333 0.4 0.7008 0.66745 0.8008 0.80078 0.2333 0.33333 0.3166 0.69961 0.25 1.0996-0.4 2.3-0.9349 4.3-1.6016 6-0.6 1.5667-1.4333 2.9174-2.5 4.0508 0.1334-0.53333 0.2012-1.1341 0.2012-1.8008-0.033-0.76667-0.066-1.3326-0.1-1.6992-0.1667-1.9-0.2171-3.3012-0.1504-4.2012 0.1667-1.6333 0.7829-2.9667 1.8496-4 0.5-0.43333 0.9167-0.51667 1.25-0.25zm10.801 0.34958c1.1-0.3 1.85-0.18177 2.25 0.35156 0.7 0.83333 0.6843 1.8992-0.051 3.1992-0.5333 0.93333-1.3163 1.7996-2.3496 2.5996-0.3 0.23333-1.3 0.9-3 2-1.5005 0.97251-3.9077 1.8165-6.543 2.627-0.3851 0.10689-0.6008 0.22024-1.0508 0.32422 2.0595-1.2761 3.809-2.6029 5.1426-4 1.5334-1.5333 2.5837-3.2678 3.1504-5.2012 0.2333-0.76667 1.0512-1.4004 2.4512-1.9004zm-17.602 1.2012c0.5-0.13333 0.9167 3.9e-4 1.25 0.40039 0.1 0.13333 0.3016 0.51511 0.6016 1.1484 0.5333 1.0667 0.8996 2.6345 1.0996 4.7012 0.067 0.9 0.117 2.2992 0.1504 4.1992-2.1-1.6667-3.5671-3.9826-4.4004-6.9492-0.1667-0.56667-0.1008-1.2508 0.1992-2.0508 0.3-0.83333 0.6663-1.3159 1.0996-1.4492zm22.75 0.0996c1.0334-0.4 1.9675-0.36697 2.8008 0.0996 0.4333 0.23333 0.5496 0.75078 0.3496 1.5508-0.1667 0.76667-0.5 1.3171-1 1.6504-1.8667 1.3-3.3822 2.2167-4.5488 2.75-1.8 0.86667-3.2167 1.4151-4.25 1.6484-0.9334 0.4-1.6834 0.58411-2.25 0.55078 1.0333-0.73333 2.5488-1.7992 4.5488-3.1992 1.5667-1.2 2.433-2.45 2.5996-3.75 0.067-0.43333 0.3012-0.75117 0.7012-0.95117 0.2333-0.1 0.5822-0.21628 1.0488-0.34961zm4.9004 2.9004c1-0.1 1.8663 0.0492 2.5996 0.44922 0.6 0.3 1.0167 0.55 1.25 0.75 0.4334 0.33333 0.7008 0.73451 0.8008 1.2012-0.033 0.53333-0.2833 0.95-0.75 1.25-0.067 0.0333-0.4659 0.2-1.1992 0.5-1.4334 0.56667-3.0671 0.9-4.9004 1-1.2667 0.1-2.9508 0.0826-5.0508-0.0508-0.8667-0.0667-1.45-0.0492-1.75 0.0508l-0.2988-0.10156 0.1484-0.25c0.8667-0.23333 1.8512-0.65 2.9512-1.25 0.6333-0.36667 1.55-0.91511 2.75-1.6484 0.2667-0.13333 0.6329-0.43372 1.0996-0.90039 0.5667-0.53333 1.3496-0.86667 2.3496-1zm-33.299 1.9004c0.6 0 1.2666 0.13177 2 0.39844 0.4333 0.13333 1.0825 0.36784 1.9492 0.70117 0.3333 0.13333 0.6008 0.39883 0.8008 0.79883 0.1333 0.23333 0.3 0.58411 0.5 1.0508 0.4232 0.65109 1.3403 1.6769 2.6855 3.0273-0.053 0.01-0.254 0.0476-0.291 0.0547-0.4952 0.0434-1.0142 0.055-1.6445-0.082-0.8667-0.16667-1.5179-0.30039-1.9512-0.40039-1.4333-0.23333-3.067-0.93294-4.9004-2.0996-1.1333-0.63333-1.6488-1.4008-1.5488-2.3008 0.1-0.46667 0.4004-0.78255 0.9004-0.94922 0.3-0.1 0.8-0.16589 1.5-0.19922zm-2.6504 3.3496c0.6 0.1 1.4333 0.6155 2.5 1.5488 1.6 0.93333 3.1833 1.4682 4.75 1.6016l0.9277 0.20508c-1.4363 0.56622-2.5002 0.86841-3.1777 0.89453-0.088 8e-3 -0.3553 0.0579-0.8008 0.15039h-0.049l-0.3008 0.0488c-0.039 7e-3 -0.041 0.0554-0.078 0.0645-0.9998 0.12937-2.0011 0.26013-2.8711 0.18555-2.6667-0.23333-4.75-0.81667-6.25-1.75-0.6667-0.36667-0.8837-0.86667-0.6504-1.5 0.2667-0.66667 0.7492-1.0988 1.4492-1.2988 1.3-0.4 2.8175-0.45039 4.5508-0.15039zm25.6 0.34961c3.2 0.4 5.95 0.50078 8.25 0.30078 1.7-0.2 2.9674-3.9e-4 3.8008 0.59961 0.4333 0.33333 0.6833 0.55039 0.75 0.65039 0.2333 0.23333 0.3321 0.48333 0.2988 0.75-0.1 0.43333-0.6504 0.85-1.6504 1.25-1.1333 0.36667-2.4163 0.48294-3.8496 0.34961-0.6-0.0333-1.9004-0.25039-3.9004-0.65039-1.8-0.36667-3.7496-0.93255-5.8496-1.6992l-2.1504-0.75c0.4334-0.0333 1.1679-0.2 2.2012-0.5 0.8667-0.26667 1.5663-0.36745 2.0996-0.30078zm-32.9 3c0.5-0.1 0.9167-0.0341 1.25 0.19922 0.6667 0.5 1.5175 0.91667 2.5508 1.25 0.5667 0.16667 1.4504 0.40117 2.6504 0.70117 0.1 0.0333 0.2666-0.0171 0.5-0.15039 0.2-0.1 0.3492-0.0496 0.4492 0.15039l-0.1992 0.19922-1.1016 0.5c-2.0666 0.96667-4.4329 1.5829-7.0996 1.8496-0.8667 0.23333-2.5004 0.0512-4.9004-0.54883-0.4666-0.1-0.8-0.43333-1-1-0.1333-0.4-0.05-0.76628 0.25-1.0996 0.1-0.1 0.4004-0.31706 0.9004-0.65039 1.1667-0.8 2.6512-1.2012 4.4512-1.2012zm7.5508 3.0508c-1 0.86667-2.1841 1.7833-3.5508 2.75-1.9333 1.4-3.9004 2.5318-5.9004 3.3984-2.1 0.93333-3.9488 1.3171-5.5488 1.1504-0.8-0.0667-1.3504-0.38255-1.6504-0.94922-0.2667-0.63333-0.1174-1.3 0.4492-2 0.3-0.43333 0.7671-0.8345 1.4004-1.2012 0.3667-0.23333 0.9171-0.54922 1.6504-0.94922 0.2333-0.13333 0.7508-0.0675 1.5508 0.19922 1.2333 0.16667 2.2992 0.16667 3.1992 0 0.2667-0.0667 0.7841-0.11511 1.5508-0.14844 0.6333-0.0667 1.1488-0.15 1.5488-0.25 2.3667-0.73333 3.9171-1.3167 4.6504-1.75zm-0.2012 1.2988c-0.9333 2.0667-1.8984 3.8012-2.8984 5.2012-1.4334 1.9667-2.7182 3.2826-3.8516 3.9492-0.6 0.5-1.0496 0.83333-1.3496 1-0.6 0.33333-1.1659 0.3506-1.6992 0.0508-0.6333-0.36667-0.7845-1.1516-0.4512-2.3516 0.1334-0.6 0.3679-1.1329 0.7012-1.5996 0.2-0.33333 0.5488-0.59883 1.0488-0.79883l1.2012-0.55078c1.9-1.0333 3.4-1.9674 4.5-2.8008zm38.951 0.40042c0.2333 0 0.3496 0.14922 0.3496 0.44922l-1.25 12.801c-0.1333 1.2667-0.3174 3.1504-0.5508 5.6504-0.2 1.2333-0.3996 2.9504-0.5996 5.1504-0.2333 2.4-0.4155 4.0996-0.5488 5.0996-0.2 1.3333-0.4849 3.3333-0.8516 6-0.1 0.5-0.2996 1.3004-0.5996 2.4004-0.2667 1-0.4488 1.7829-0.5488 2.3496-0.1667 1.0667-0.5175 2.6326-1.0508 4.6992l-4 14.551c-0.5667 1.9333-1.15 3.5826-1.75 4.9492-0.7333 1.8-1.7508 4.5345-3.0508 8.2012-0.2333 0.56667-0.6151 1.3651-1.1484 2.3984-0.5667 1.0667-0.9504 1.8516-1.1504 2.3516-0.5667 1.5333-1.683 3.7-3.3496 6.5-0.4667 0.96667-1.6682 2.9163-3.6016 5.8496-1.8666 2.3333-3.1321 4.1492-3.7988 5.4492-0.4 0.76667-0.9 1.2337-1.5 1.4004-0.4333 0.1-1.0341 0.0671-1.8008-0.0996-0.8333-0.16667-1.8837-0.30039-3.1504-0.40039-1.9-0.16667-2.9659-0.26745-3.1992-0.30078-2.1-0.26667-5.2841-0.6-9.5508-1-0.5-0.0667-1.1492-0.11511-1.9492-0.14844-1.0333-0.0333-1.7-0.0682-2-0.10156-0.3333 0.0333-0.5833 0.0508-0.75 0.0508-0.2667 0.0333-0.4508-0.05-0.5508-0.25-0.033-0.13333 0.034-0.31745 0.2012-0.55078 0.1-0.13333 0.2492-0.34844 0.4492-0.64844l8.0508-13.301c1.0333-1.9333 1.6322-3.0167 1.7988-3.25 1.0667-1.7333 2.2837-4.1326 3.6504-7.1992 0.7667-1.6667 1.35-2.9167 1.75-3.75 0.6667-1.5 1.1841-2.7674 1.5508-3.8008l1.1504-3.1992c0.4666-1.2667 0.7825-2.35 0.9492-3.25 0.1667-0.83333 0.4496-1.9167 0.8496-3.25 0.5-1.6667 0.8004-2.7345 0.9004-3.2012l1.4492-6.6504c0.7667-3.3 1.1679-5.0655 1.2012-5.2988l1.5996-9.2012c0.5333-3.1 0.8996-6.3984 1.0996-9.8984 0.1667-2.9 0.3663-5.7837 0.5996-8.6504 0.2334-3.1 0.3167-5.6504 0.25-7.6504-0.033-0.13333 0.034-0.19922 0.2012-0.19922h1.5c2.8667-0.2 5.0159-0.28333 6.4492-0.25 1 0.0333 2.533-0.0849 4.5996-0.35156h2.4512c1 0.0333 1.8004 0.0178 2.4004-0.0488 2.5666-0.23333 4.8496-0.36706 6.8496-0.40039zm-9.627 64.643c0.232 0.11666 0.3697 0.26095 0.5391 0.39648 0.1709 0.15288 0.327 0.18842 0.5156 0.49219 0.2601 0.43901 0.4061 0.98956 0.3711 1.7188 0 0.0698 0.027 0.10859 0.037 0.16797-0.043 0.41793-0.087 0.83371-0.037 1.5312 0 0.9-0.099 1.7508-0.2988 2.5508-0.4667-1.3-0.7496-2.05-0.8496-2.25-0.4-0.76667-0.9834-1.3171-1.75-1.6504-0.1334-0.0667-0.149-0.18294-0.051-0.34961 0.1333-0.2 0.1837-0.33372 0.1504-0.40039-0.067-0.26667-8e-4 -0.53216 0.1992-0.79883 0.1333-0.13333 0.2496-0.45117 0.3496-0.95117 0.1221-0.33553 0.423-0.45645 0.8242-0.45703zm7.0762 1.1582c0.6 0.0667 0.9004 0.43294 0.9004 1.0996 0 1-0.066 1.8992-0.1992 2.6992-0.067 0.36667-0.2334 0.51784-0.5 0.45117-0.3334-0.13333-0.5679-0.21667-0.7012-0.25-1.0667-0.16667-1.9-0.13363-2.5 0.0996-0.6333 0.26667-1.2322 0.85-1.7988 1.75-0.067-1.4 0.3325-2.7178 1.1992-3.9512 0.1586-0.22422 0.3621-0.30752 0.5332-0.49219 0.3501-0.38314 0.7241-0.75931 1.3672-1.0625 0.5303-0.22822 1.0824-0.38678 1.6992-0.34375zm-9 2.6992c0.3667 0.0333 0.8008 0.41706 1.3008 1.1504 0.6667 1.2333 1 2.6326 1 4.1992-0.033 0.1-0.018 0.36745 0.049 0.80078 0.033 0.3-0.033 0.46667-0.1992 0.5-0.5667 0.16667-0.9833 0.2655-1.25 0.29883-0.5333 0.0333-1.0159-0.18177-1.4492-0.64844-0.7-0.76666-1.0334-1.5671-1-2.4004 0.033-0.53333 0.2833-1.3008 0.75-2.3008l0.3984-1.1992c0.1-0.3 0.2337-0.43372 0.4004-0.40039zm12.6 1.6992c1.2 0.2 1.9016 0.7349 2.1016 1.6016 0.1 0.63333-0.034 1.1818-0.4004 1.6484-0.2333 0.33333-0.683 0.7345-1.3496 1.2012-0.5667 0.4-1.2837 0.59961-2.1504 0.59961-0.9667-0.0667-1.7012-0.0841-2.2012-0.0508l-0.3496-0.0488c0.1-0.16667 0.2337-0.41667 0.4004-0.75 1.0667-1.1 1.65-2.1833 1.75-3.25 0.067-0.56667 0.7992-0.8845 2.1992-0.95117zm-5 0.45117c0.8667-0.0667 1.4171 0.16589 1.6504 0.69922 0.1333 0.26667 0.104 0.56706-0.1 0.90039-0.2667 0.36667-0.4508 0.63411-0.5508 0.80078-0.7 1.0667-1.8666 2.0667-3.5 3-0.1 0.0667-0.6-0.21823-1.5-0.85156l0.1016-0.29883c0.1333-0.9 0.7825-2.1171 1.9492-3.6504 0.3667-0.46667 1.0159-0.66628 1.9492-0.59961zm10.451 0.84964c0.8753 0 1.5917 0.37058 2.2031 0.98633 0.09 0.0858 0.1389 0.18543 0.2168 0.27539 0.5334 0.61833 0.8308 1.2839 0.6797 2.0391-0.067 0.4-0.2837 0.6655-0.6504 0.79883-0.4333 0.0667-0.7492 0.1345-0.9492 0.20117-0.4333 0.2-0.883 0.11667-1.3496-0.25-0.5667-0.46666-0.9679-0.71667-1.2012-0.75-0.5-0.26667-0.8663-0.38489-1.0996-0.35156-0.5 0.0333-0.7829-0.0151-0.8496-0.14844-0.033-0.16667 0.083-0.43411 0.3496-0.80078 0.1667-0.2 0.2829-0.59922 0.3496-1.1992 0.056-0.36452 0.3346-0.4889 0.6738-0.54687 0.1573-0.0393 0.2995-0.0654 0.4961-0.13868 0.2809-0.0215 0.6366-0.0428 0.6797-0.0645 0.033-0.0333 0.1845-0.0508 0.4512-0.0508zm-20.301 3.5996c0.2 0.1 0.45 0.26667 0.75 0.5l0.7012 0.20117c0.3 0.13333 0.3833 0.33294 0.25 0.59961-0.2667 0.6-0.4682 0.99922-0.6016 1.1992-0.3333 0.36667-0.75 0.56628-1.25 0.59961-0.9 0.23333-1.5666 0.30117-2 0.20117 0.8-1.7667 1.2516-2.7512 1.3516-2.9512 0.2333-0.43333 0.4988-0.54961 0.7988-0.34961zm15.551 0.34962c0.7-0.2 1.5159-0.2 2.4492 0 1.0333 0.2 1.7504 0.55078 2.1504 1.0508 0.3667 0.5 0.351 1.1841-0.051 2.0508-0.4333 0.86667-1.0166 1.4151-1.75 1.6484-1.3666 0.4-2.6651 0.51823-3.8984 0.35156 0.8666-0.5 1.3666-0.9845 1.5-1.4512 0.1666-0.7-0.05-1.45-0.6504-2.25l-0.5-0.75c-0.033-0.23333 0.2167-0.45039 0.75-0.65039zm-11.301 0.60156c0.9333 0 1.5845 0.13177 1.9512 0.39844 0.3666 0.26667 0.5663 0.73372 0.5996 1.4004 0 0.5-0.2675 1-0.8008 1.5-0.6 0.5-1.2667 0.7345-2 0.70117-1.4333-0.2-2.1659-0.81823-2.1992-1.8516-0.033-0.53333 0.2167-1.0159 0.75-1.4492 0.5333-0.46667 1.0992-0.69922 1.6992-0.69922zm7.75 0.0996c0.6 0.0333 1.133 0.16706 1.5996 0.40039 0.6 0.33333 1.0671 1.0155 1.4004 2.0488-0.1667 0.6-0.7325 1.0012-1.6992 1.2012-0.9 0.2-1.8671 0.2-2.9004 0-0.6667-0.1-1.6008-0.36745-2.8008-0.80078l-0.1992-0.0508c0.1667-0.16667 0.2326-0.44961 0.1992-0.84961-0.033-0.4 0.017-0.68294 0.1504-0.84961 0.4333-0.43333 1.3171-0.76667 2.6504-1 0.6667-0.1 1.1996-0.13303 1.5996-0.0996zm10.336 0.54883c0.3333 0.0669 0.7991 0.26862 1.3984 0.60156 1.7597 0.46483 2.9881 1.5106 3.6895 3.1328 0.01 0.0258-4e-4 0.0504 0.01 0.0762 0.2999 0.67525 0.2734 1.3092-0.1465 1.8906-0.4667 0.5-1.0171 0.80039-1.6504 0.90039-1.1667 0.1-2.3663-0.0512-3.5996-0.45117-0.8-0.23333-1.9163-0.70039-3.3496-1.4004-0.033-0.0333-0.2-0.0488-0.5-0.0488 1.1-0.4 2.0651-1.2663 2.8984-2.5996 0.1-0.13333 0.1834-0.38333 0.25-0.75 0.033-0.99881 0.3662-1.4501 0.998-1.3516zm-22.186 2.5c0.4667-0.16667 0.8329-0.0833 1.0996 0.25 0.1333 0.16667 0.333 0.43411 0.5996 0.80078 0.033 0.0333-0.065 0.30078-0.2988 0.80078-0.1667 0.46667-0.75 1.0655-1.75 1.7988-0.9667 0.7-1.6508 1.0508-2.0508 1.0508-0.5-0.0333-0.8663-0.0663-1.0996-0.0996-0.4333-0.0667-0.7667-0.25078-1-0.55078-0.1667-0.26667-0.196-0.51667-0.1-0.75 0-0.0333 0.099-0.23294 0.2988-0.59961 0.3667-0.76667 0.9849-1.3674 1.8516-1.8008 0.3-0.16667 1.1159-0.46706 2.4492-0.90039zm6.8496 0.5c2.4667 1.0333 4.05 2.5508 4.75 4.5508v0.30078c-0.067 0.73333-0.367 1.2159-0.9004 1.4492-0.7 0.3-1.4655 0.11588-2.2988-0.55078-0.6667-0.46667-1.25-1.1488-1.75-2.0488-0.5-1.1-0.9012-1.9178-1.2012-2.4512-0.067-0.0667-0.032-0.18294 0.1016-0.34961 0.1666-0.1 0.4166-0.29961 0.75-0.59961 0.2666-0.23333 0.4488-0.33411 0.5488-0.30078zm-3.6504 1.1504c0.5667 0.0333 0.9 0.0663 1 0.0996 0.3334 0.1 0.5349 0.35 0.6016 0.75 0.033 0.13333 0.1166 0.38333 0.25 0.75 0.067 0.26667 0.082 0.43333 0.049 0.5-0.2333 2.1-0.6325 3.5671-1.1992 4.4004-0.5667 0.8-1.15 1.0674-1.75 0.80078-0.6-0.23333-0.9004-0.75078-0.9004-1.5508-0.1-1.5333 0.3671-3.4171 1.4004-5.6504 0.067-0.13333 0.2488-0.16637 0.5488-0.0996zm7.6504 0.34963c1.1667 0.23333 1.8333 0.35156 2 0.35156 1.1333-0.0667 1.9337 0.1 2.4004 0.5 0.1667 0.13333 0.4341 0.3155 0.8008 0.54883 0.3 0.26667 0.4996 0.54961 0.5996 0.84961 0.5 1.5 0.2655 2.7345-0.7012 3.7012-0.4 0.4-1.0821 0.53372-2.0488 0.40039s-1.6663-0.45117-2.0996-0.95117c-0.1 0-0.1-0.0504 0-0.15039 0.5333-1.1667 0.7329-2.0833 0.5996-2.75-0.1-0.66667-0.6175-1.4322-1.5508-2.2988zm6.9512 1.1015c0.5 0.3 1.2829 0.66628 2.3496 1.0996 0.9333 0.43333 1.6504 0.94883 2.1504 1.5488 1.5 1.7667 2.2655 3.4333 2.2988 5 0.067 1.0667-0.2667 1.8167-1 2.25-0.6667 0.43333-1.467 0.53411-2.4004 0.30078-1.0333-0.23333-1.9984-0.73333-2.8984-1.5-0.5667-0.5-1.3012-1.2829-2.2012-2.3496-0.2667-0.36667-0.2373-0.61667 0.1-0.75 0.9-0.46667 1.4504-1.2167 1.6504-2.25 0.1333-0.93333-0.033-1.9004-0.5-2.9004-0.067-0.16667-0.082-0.26745-0.049-0.30078zm-17.051 0.69922c-0.2667 1.4667-0.4159 2.3833-0.4492 2.75-0.033 1 0.1992 1.8663 0.6992 2.5996s1.25 0.91745 2.25 0.55078c0.2667-0.0667 0.3829 0.0167 0.3496 0.25 0 0.53333-0.2829 1.0837-0.8496 1.6504-0.5667 0.56667-1.1326 0.9-1.6992 1-0.6334 0.13333-1.2845 0.0151-1.9512-0.35156-0.6667-0.36667-1.0833-0.83177-1.25-1.3984-0.3333-1.1667-0.1996-2.7016 0.4004-4.6016 0.1667-0.5 0.5329-0.96511 1.0996-1.3984 0.8333-0.6 1.3004-0.95078 1.4004-1.0508zm-6 0.75c0.5 0.66667 1.1337 1 1.9004 1l0.6992 0.0996-0.4492 0.59961c-0.7333 0.86666-1.3845 1.5004-1.9512 1.9004-0.8333 0.5-1.75 0.71706-2.75 0.65039 0.4-0.46667 0.8341-1.1663 1.3008-2.0996 0.5333-1.0333 0.95-1.7504 1.25-2.1504zm11.051 0c1.1333 2 2.6663 3.1337 4.5996 3.4004 0.2667 0.0667 0.4488 0.34961 0.5488 0.84961s0.067 0.96706-0.1 1.4004c-0.5333 1.6333-1.5159 2.4337-2.9492 2.4004-0.6667-0.0333-1.2345-0.30078-1.7012-0.80078-0.2666-0.3-0.6-0.86589-1-1.6992-0.3333-0.73333-0.347-1.6345-0.049-2.7012 0.4333-1.5 0.6504-2.4496 0.6504-2.8496zm-9.0508 3.3496 0.1504 2.4004c0.1667 1.3333 0.75 2.2326 1.75 2.6992 0.3667 0.2 0.5837 0.40156 0.6504 0.60156 0 0.16667-0.1008 0.41667-0.3008 0.75-0.5333 0.86667-1.45 1.4984-2.75 1.8984s-2.3833 0.38423-3.25-0.0488c-0.7-0.33333-0.9829-1.0174-0.8496-2.0508 0.067-1.2667 0.2159-2.1 0.4492-2.5 0.5333-0.93333 0.8163-1.4004 0.8496-1.4004 0.3667-0.5 0.8008-0.83333 1.3008-1 0.5667-0.13333 1.2333-0.58294 2-1.3496zm15.051 0.59961c0.2333 0.16667 0.9155 0.43411 2.0488 0.80078 0.8667 0.3 1.483 0.68372 1.8496 1.1504 0.4 0.46667 1.0337 1.1333 1.9004 2 0.5818 0.63471 0.8651 1.2695 1.1113 1.9043 0 0.0349-0.02 0.0602-0.014 0.0957 0.063 0.0673 0.098 0.13321 0.1015 0.19922 0.2393 0.66635 0.2469 1.2842 0.1309 1.875-0.015 0.0704 0.012 0.15367-0.01 0.22266-0.169 0.61757-0.536 1.192-1.1054 1.7246-0.074 0.0701-0.085 0.16057-0.1661 0.22851-0.3 0.3-0.6507 0.41628-1.0507 0.34961-0.7423-0.0322-1.3476-0.28805-1.8399-0.72656-0.134-0.11274-0.2448-0.2738-0.3672-0.41016-0.2635-0.28006-0.5242-0.54934-0.8418-1.0625-0.7-1.1333-1.1844-2.0345-1.4511-2.7012-0.4-1.0333-0.5823-2.0333-0.5489-3 0.1-0.56667 0.1659-0.98333 0.1992-1.25 0.067-0.5 0.033-0.93216-0.1015-1.2988zm-19.75 1.3008h0.8984c-0.9 0.83333-1.4659 1.9496-1.6992 3.3496-0.2667 1.3-0.1329 2.2496 0.4004 2.8496 0.3915 0.44044 0.3134 0.69403 0.2558 0.95508-0.5173 0.4305-1.2622 0.78914-2.1445 1.1035-0.6368 0.17996-1.2736 0.35851-1.9004 0.27539-0.2957-0.0477-0.6013-0.0909-0.7988-0.19531-0.3604-0.16498-0.7848-0.31092-0.7617-0.58789 0.033-0.36667 0.3318-0.86667 0.8984-1.5l4.25-6.0996c0.067-0.1 0.2682-0.15039 0.6016-0.15039zm12.299 0.15039c0.1333 0.9 0.5345 1.6829 1.2012 2.3496 0.6666 0.7 1.4166 1.1341 2.25 1.3008 0.2 0.0667 0.2484 0.1655 0.1484 0.29883-0.1 0.23333-0.1484 0.36706-0.1484 0.40039 0.1 1.1667-0.2179 2.2171-0.9512 3.1504-0.6667 0.86667-1.4825 1.2-2.4492 1-1-0.23333-1.783-0.95039-2.3496-2.1504-0.4-0.83333-0.4504-1.8159-0.1504-2.9492 0.067-0.23333 0.2837-0.48333 0.6504-0.75 0.5333-0.36667 0.8318-0.58372 0.8984-0.65039 0.3667-0.36667 0.6671-1.0333 0.9004-2zm5.8496 2.9004c0.4667-0.0667 0.8 0.28216 1 1.0488 0.1334 0.53333 0.3504 1.3008 0.6504 2.3008 0.228 0.74103 0.2903 1.3534 0.2988 1.9238v0.27539c-0.069 1.5158-0.3427 2.4912-0.7461 3.1211-0.1614 0.28602-0.3392 0.56377-0.5566 0.82032-0.1801 0.21035-0.3628 0.43232-0.5293 0.57031-0.5384 0.43879-1.1555 0.69952-1.916 0.63867-0.8667-0.0333-1.5178-0.36667-1.9512-1-0.8666-1.2-1.3821-2.1341-1.5488-2.8008-0.067-0.23333 0.017-0.38255 0.25-0.44922h0.5488c1.1667-0.3 2.0679-1.2341 2.7012-2.8008 0.1-0.26667 0.1659-0.63294 0.1992-1.0996 0.033-0.66667 0.051-1.0504 0.051-1.1504-0.033-0.16667-0.051-0.29844-0.051-0.39844 0-0.2 0.083-0.33372 0.25-0.40039 0.7667-0.4 1.2163-0.59961 1.3496-0.59961zm-9.3984 0.59961c0.2333 0.0333 0.2992 0.11667 0.1992 0.25-0.033 0.0667-0.099 0.15-0.1992 0.25 0.1 0.46667 0.1833 1.1663 0.25 2.0996 0.1 0.8 0.3655 1.4163 0.7988 1.8496 0.3333 0.33333 0.4845 0.68411 0.4512 1.0508 0 6e-3 -0.022 0.0882-0.024 0.0996-0.1277 0.13423-0.3095 0.22106-0.33 0.44922-0.089 0.75125-0.4989 1.3222-0.9375 1.877-0.2462 0.28379-0.3239 0.61436-0.6602 0.87305-0.7932 0.61012-1.5858 0.84709-2.3789 0.87109l-0.373-0.0195h-0.025c-0.7899-0.10737-1.4384-0.4331-1.8926-1.0566l-0.084-0.0703c-0.4558-0.69598-0.6104-1.5334-0.4453-2.5234 0.01-0.0402-4e-4 -0.0369 0.01-0.0742 0.015-0.0223 0.03-0.0448 0.037-0.0762 0.1186-0.23178 0.1455-0.56763 0.1797-0.89453 0.052-0.50266 0.1796-0.95567 0.623-1.2051 0.3-0.13333 0.7826-0.31745 1.4492-0.55078 1.4334-0.86667 2.3016-1.8163 2.6016-2.8496 0.1-0.3 0.35-0.41628 0.75-0.34961z"/>
 <path d="m59.426 44.912c-0.15-8e-3 -0.3079 4e-3 -0.4746 0.0371h-0.1c-0.2 0.0333-0.3841 0.13411-0.5508 0.30078-0.1333 0.13333-0.2341 0.31745-0.3008 0.55078l-0.1484 0.29883v0.84961l0.5 1.1016 0.1 0.0996 0.1 0.25c0.067 0.33333 0.15 0.55039 0.25 0.65039l0.1504 0.19922c-0.6373-0.16745-1.1218-0.28372-1.4512-0.34961l-1.0996-0.25c-0.052-0.0186-0.1024-0.036-0.1504-0.0508l-2.3984 0.0996c-0.3 0-0.5675 0.0349-0.8008 0.10156l-0.3008 0.0996c-0.4 0.23333-0.5666 0.51628-0.5 0.84961 0.033 0.16667 0.2175 0.38372 0.5508 0.65039h-0.051c0.4667 0.3 1.05 0.60039 1.75 0.90039l1.7012 0.64844v0.05084h1.25c0.3 0 0.517 0.0329 0.6504 0.0996 0.2666 0.1 0.3984 0.28411 0.3984 0.55078 0 0.2-0.083 0.34922-0.25 0.44922l-1.2988 0.70117c-0.076 0.12083-0.1922 0.23711-0.3496 0.34961-0.2667 0.13333-0.5845 0.28255-0.9512 0.44922-1.1 0.33333-2.2996 0.85078-3.5996 1.5508-0.2333 0.1-0.4 0.24922-0.5 0.44922-0.067 0.13333-0.034 0.3 0.1 0.5v0.0508c0.1333 0.36667 0.2845 0.63216 0.4512 0.79883 0.1666 0.16667 0.4825 0.28489 0.9492 0.35156 0.7667 0.0667 1.6659-0.1 2.6992-0.5 0-0.0333 0.017-0.0508 0.051-0.0508 0.7667-0.33333 1.6-0.78294 2.5-1.3496 0-0.0333 0.017-0.0508 0.051-0.0508 0.033 0 0.049 0.0174 0.049 0.0508 0.067 0.1 0.15 0.19883 0.25 0.29883 0.2333 0.36667 0.4175 0.88411 0.5508 1.5508l0.049 0.94922 0.3008 0.95117v0.7988c-0.033 0.23333-4e-4 0.41745 0.1 0.55078 0.2333 0.43333 0.6171 0.53411 1.1504 0.30078h0.051c0.3-0.13333 0.6663-0.43372 1.0996-0.90039 0.2-0.23333 0.3667-0.48333 0.5-0.75 0.1-0.23333 0.1504-0.58411 0.1504-1.0508v-0.59957h0.049c0-0.0333 0.017-0.0508 0.051-0.0508l0.6504 0.0508h0.1v0.0508h0.6l0.75 0.0488h0.051l0.6484 0.15039h0.1016v0.25001c-0.6334 1-1.2341 2-1.8008 3l-0.051 0.0508c-1 0.66667-1.9321 1.2984-2.7988 1.8984-1 0.66666-2.0833 1.1512-3.25 1.4512-0.6 0.13333-1.133 0.3-1.5996 0.5-0.6334 0.43333-1.1837 0.91589-1.6504 1.4492-2.8667 3.0667-2.7504 6.2333 0.3496 9.5 0 0.0333 0.017 0.0663 0.051 0.0996-0.033 0-0.051 0.0174-0.051 0.0508l-0.051 0.0508-1.3984 0.44922-0.6016 0.0996h-0.049l-0.051 0.0508c-1.4667 0-2.7167 0.64922-3.75 1.9492-1.0333 1.3333-1.5488 2.9167-1.5488 4.75v2.9004h-0.053v0.0996c0 0.0333-0.017 0.0508-0.051 0.0508-0.5333 0.26667-1.0159 0.6-1.4492 1v-0.0508l-0.6992 1c-0.5667 0.86667-0.8167 1.7174-0.75 2.5508 0 0.3 0.033 0.60039 0.1 0.90039 0.067 0.4 0.1655 0.79922 0.2988 1.1992 0.1 0.3 0.2667 0.61589 0.5 0.94922l0.9004 0.90039c0.9333 0.8 2.0845 1.2341 3.4512 1.3008 0.7666 0 1.3829-0.33333 1.8496-1l0.6992-0.75c0.1027-0.0507 0.1861-0.0836 0.25-0.0996 0.2333-0.1 0.5163-0.18333 0.8496-0.25 0.2227-0.0405 0.4572-0.0754 0.7012-0.10156v0.05073c-0.1926 0.40937-0.3593 0.99271-0.5 1.75-0.035 0.15638-0.019 0.48971 0.049 1l-0.1996 0.65039c-0.053 0.10638-0.1192 0.20521-0.1992 0.29883-0.1115 0.18177-0.2627 0.33294-0.4512 0.45117-0.1651 0.0301-0.3473 0.0456-0.5488 0.0488-0.4428-0.27161-0.9776-0.42083-1.6016-0.44922-1.5-0.0667-2.8333 0.1-4 0.5-0.9333 0.26667-1.6833 0.79961-2.25 1.5996-1.1 1.4-1.4333 3.3012-1 5.7012l0.25 0.5c0.4667 1.1667 1.0849 2.283 1.8516 3.3496 0.067 0.0667 0.1655 0.15 0.2988 0.25v0.15039c-0.9 0.76667-1.6829 1.6-2.3496 2.5-0.3 0.4-0.5829 0.81667-0.8496 1.25-0.5333 0.96667-1.0004 1.9667-1.4004 3-0.3 0.46667-0.4841 1.0326-0.5508 1.6992v0.0508c-0.067 0.3 0.084 0.51511 0.4512 0.64844 0.1667-0.13333 0.467-0.23216 0.9004-0.29883 0.033-0.0667 0.066-0.11706 0.1-0.15039 0.067-0.0333 0.1325-0.0333 0.1992 0 0.1333-0.0667 0.2845-0.0996 0.4512-0.0996 0.6666-2.3 1.6996-4.2671 3.0996-5.9004l1.5488-1.5996c0-0.0333 0.017-0.0663 0.051-0.0996 0-0.0333 0.017-0.0508 0.051-0.0508 0.033 0 0.066 0.0174 0.1 0.0508 0.1333 0.0667 0.267 0.11511 0.4004 0.14844 0.4464 0.18385 0.9949 0.31758 1.6484 0.40039 0.1758 0.0191 0.3599 0.0366 0.5508 0.0508l1.25 0.0488c0.033 0 0.099 0.0174 0.1992 0.0508 0.1334 0.0333 0.2845 0.0508 0.4512 0.0508 0.4887-0.0611 1.0042-0.096 1.5488-0.10156h0.1504c0.6-0.1 1.133-0.41589 1.5996-0.94922 0.3-0.36667 0.6004-0.76589 0.9004-1.1992 0.1-0.23333 0.1504-0.46784 0.1504-0.70117 0.033-0.3 0.051-0.60039 0.051-0.90039-0.2334-0.2-0.4679-0.36667-0.7012-0.5-0.4667-0.36667-1.05-0.41511-1.75-0.14844-0.1315 0.0657-0.2652 0.11417-0.4004 0.14844-0.2758 0.14388-0.5587 0.26211-0.8496 0.35156-0.2667 0.0667-0.4837 0.13255-0.6504 0.19922-0.5 0.0667-1.0833 0.0996-1.75 0.0996h-0.049c-0.3005 0.0547-0.535 0.0392-0.7012-0.0488-0.037-9e-3 -0.07-0.0267-0.1-0.0508l-0.049-0.0508v-0.0488c0-0.0333 0.015-0.0508 0.049-0.0508l0.4004-0.5 0.5996-0.69922c0.2-0.33333 0.4171-0.65117 0.6504-0.95117 0.047-0.0833 0.097-0.16667 0.1504-0.25 0.2469-0.45 0.4969-0.89961 0.75-1.3496 0.1333-0.3 0.3-0.60039 0.5-0.90039 0.1818-0.29427 0.3485-0.57722 0.5-0.84961 0.2014-0.31459 0.3836-0.61498 0.5488-0.90039 0.2426-0.41445 0.4597-0.79623 0.6504-1.1484 0-0.0333 0.017-0.0508 0.051-0.0508h0.049v-0.30078l2.0496-1.0996c0.053 2.6e-4 0.1037-0.0152 0.1504-0.0488 0.023 0.0101 0.038 0.0101 0.049 0 0.4306-0.13373 0.8318-0.2849 1.2012-0.45117 0.6-0.2 0.9992-0.41706 1.1992-0.65039 0.1333-0.13333 0.2341-0.33294 0.3008-0.59961 0.067-0.23333 0.034-0.71589-0.1-1.4492l-0.4004-1.3496-0.2012-0.40039c-0.028-0.11185-0.1598-0.3289-0.3984-0.65039l-0.2012-0.0996-0.049-0.0996-0.1016-0.0508-0.049-0.0996-0.1-0.0996-0.1016-0.20117c-0.019-0.0587-0.035-0.12462-0.049-0.19922h-0.051l0.051-0.15039 0.049-0.0996 0.4004-1.2012 1-4.0996 0.051-0.0488 0.1-0.15039-0.051 0.0488 0.051-0.29883v-0.25l-0.25-1c-0.3-0.23333-0.4841-0.43294-0.5508-0.59961l-0.049-0.25-0.5996-0.55078v-0.0508c-0.1-0.1-0.2182-0.18333-0.3516-0.25h-0.049c-0.1333-0.1-0.333-0.1155-0.5996-0.0488-0.5334 0.0667-0.8667 0.20039-1 0.40039-0.2334 0.26667-0.2837 0.53216-0.1504 0.79883l0.1 0.20117v0.0488l0.1 0.45117v0.0488c0 0.76667-0.05 1.5012-0.1504 2.2012v0.0488c-0.1 0.56667-0.2163 1.1345-0.3496 1.7012-0.1 0.5-0.1988 0.96511-0.2988 1.3984l-0.1504 1.3516h-0.4004v0.0488c-0.1379 0.0351-0.2871 0.0855-0.4492 0.15039l-1.1504 0.59961-0.8008 0.25-0.049 0.0508c-0.033 0.0333-0.068 0.0488-0.1016 0.0488l-0.3496 0.15039h-0.4492c-0.1667 0.0333-0.3178 0.0508-0.4512 0.0508h-1c-0.2666 0-0.4488-0.0329-0.5488-0.0996l-0.5-0.45117h0.049l-0.2988-0.19922c-0.2667-0.2-0.5012-0.39961-0.7012-0.59961-0.2-0.23333-0.3492-0.45039-0.4492-0.65039-0.033-0.13333-0.066-0.24961-0.1-0.34961-0.033-0.2-0.051-0.46745-0.051-0.80078v-0.0508l0.051-0.19922v-0.0508l0.1504-0.25v-0.0488l0.049-0.0996 0.7012-0.75 0.4492-0.35156 0.6504-0.39844c0.067-0.0333 0.1325-0.0508 0.1992-0.0508 0.1-0.0333 0.2512-0.0663 0.4512-0.0996l0.7988-0.0996 2.1504-0.0508h0.3498c0.1-0.0333 0.2163-0.0663 0.3496-0.0996l0.4004-0.34961c0.1667-0.2 0.25-0.33372 0.25-0.40039-0.033-0.33333-0.016-0.56784 0.051-0.70117v-0.14844c-0.2667-0.26667-0.5845-0.41784-0.9512-0.45117-1.2-0.1-2.4325-0.21628-3.6992-0.34961h-0.051c-0.033-0.0333-0.049-0.0663-0.049-0.0996v-2.1504l0.7988-1.8008c0.4-0.8 1.2682-1.6488 2.6016-2.5488 0.7-0.53333 1.4829-0.96745 2.3496-1.3008 0.9667-0.23333 1.9337-0.45039 2.9004-0.65039 1.4333-0.43333 2.6484-1.1155 3.6484-2.0488 2.4333-2.4333 2.5516-5.2667 0.3516-8.5-0.033 0-0.051-0.0174-0.051-0.0508 0-0.0333 0.017-0.0488 0.051-0.0488v-0.05079l2-1.0508c0.067-0.0333 0.15-0.0663 0.25-0.0996 1.8333-1.5333 3.2984-3.5004 4.3984-5.9004 1.4667-3.4333 2.6508-7.1833 3.5508-11.25-0.7333-0.56667-1.3341-1.1984-1.8008-1.8984-0.5-0.66666-1.2984-0.91667-2.3984-0.75-0.1 0.1-0.1175 0.23177-0.051 0.39844v0.0508c-0.1 0.26667-0.1329 0.49922-0.1 0.69922 0.2333 1.6667 0.2837 3.1841 0.1504 4.5508v0.0996h-0.1016v0.0508c-0.3333 1.6667-0.8488 3.1337-1.5488 4.4004l-0.051 0.0488h-0.049c-0.067 0-0.1016 0.0174-0.1016 0.0508h-0.049c-0.7 0.13333-1.3163 0.21667-1.8496 0.25-0.5334-0.0667-0.8337-0.0996-0.9004-0.0996h-0.051l-0.848-0.05082-0.1504 0.0508h-0.049l-0.051-0.0508c-0.1667-0.33333-0.3508-0.68411-0.5508-1.0508l-0.5-0.94922c-0.033-0.0333-0.033-0.0508 0-0.0508v-0.0488l0.5-0.30078c0.4899-0.26133 0.9066-0.51133 1.25-0.75 0.035 5e-3 0.07 5e-3 0.1016 0l0.5996-0.25c0.4333-0.16667 0.7337-0.31589 0.9004-0.44922l0.1-0.0996c0.067-0.1 0.117-0.20078 0.1504-0.30078 0.033-0.13333 0.049-0.3 0.049-0.5-0.033-0.3-0.1322-0.55-0.2988-0.75-0.037-0.0366-0.072-0.0695-0.1016-0.0996-0.4208-0.12891-0.9692-0.24518-1.6484-0.34961-0.2547-0.0537-0.5551-0.1215-0.9004-0.20117 0.027-0.0355 0.043-0.0685 0.049-0.0996 0.067-0.23333 0.067-0.48333 0-0.75l-0.049-0.0996c0.067-0.0667 0.049-0.1345-0.051-0.20117 0.033-0.13333 0.018-0.34844-0.049-0.64844s-0.1016-0.51706-0.1016-0.65039l-0.6994-1.9004-0.25-0.30078c-0.2667-0.26667-0.4992-0.41589-0.6992-0.44922-0.1334-0.05-0.2758-0.0796-0.4258-0.0879zm-2.125 23.438h0.051c2.0333 0.26667 3.3163 0.79961 3.8496 1.5996h0.049l0.1016 0.40039 0.1 0.65039c0.033 0.1 0.049 0.21628 0.049 0.34961-0.067 0.33333-0.1829 0.68411-0.3496 1.0508-1.2 2.2-2.5159 2.9655-3.9492 2.2988-1.4667-0.66667-2.1178-1.6822-1.9512-3.0488 0.1334-1.3667 0.3504-2.2329 0.6504-2.5996 0.3333-0.5 0.8004-0.7345 1.4004-0.70117zm-0.5508 27.201 0.051 0.14844c0.1667 0.26667 0.2171 0.55156 0.1504 0.85156l-0.051 0.0488-0.049 0.65039c0 0.2-0.05 0.36667-0.1504 0.5l-0.1 0.15039-0.1504 0.0996-0.1504 0.0508-0.8496 0.29883 0.9492-1.9492c0.1193-0.29193 0.2356-0.57487 0.3496-0.84961zm-8.25 6.0488c0.6667 0 1.3334 0.0678 2 0.20117l0.051 0.0488v0.25002h-0.1v0.1504c-0.8 1.2667-1.55 2.5671-2.25 3.9004-0.3 0.66667-0.7012 1.3488-1.2012 2.0488l-0.049 0.0508h-0.15v-0.0508l-1.4004-2.4492h-0.049c-0.2-0.46667-0.1341-1.1837 0.1992-2.1504l0.051-0.0488 0.7988-1.1016v-0.0488c0.5333-0.4 1.1496-0.65 1.8496-0.75 0.033 0 0.1167-0.0174 0.25-0.0508z"/>
 <g transform="translate(-1113.4 -373.75)">
  <path transform="translate(160.15,84.1)" d="m958.3 289.65c-3.3333 0-5 1.6667-5 5v158.2c0 3.3333 1.6667 5 5 5h93.201c3.3333 0 5-1.6667 5-5v-158.2c0-3.3333-1.6667-5-5-5zm8.3008 7.1992h76.6c4.6667 0 7 2.3333 7 7v139.8c0 4.6667-2.3333 7-7 7h-76.6c-4.6667 0-7-2.3333-7-7v-139.8c0-4.6667 2.3333-7 7-7z" fill="#ef1d1e"/>
  <path transform="translate(160.15,84.1)" d="m966.6 296.85c-4.6667 0-7 2.3333-7 7v139.8c0 4.6667 2.3333 7 7 7h76.6c4.6667 0 7-2.3333 7-7v-139.8c0-4.6667-2.3333-7-7-7z" fill="none" stroke="#000" stroke-width="1.2"/>
 </g>
</svg>
