<svg width="103.2" height="168.2" preserveAspectRatio="none" version="1.1" viewBox="0 0 103.2 168.2" xmlns="http://www.w3.org/2000/svg">
 <path d="m13.299 7.1992c-4.6667 0-7 2.3333-7 7v139.8c0 4.6667 2.3333 7 7 7h76.6c4.6667 0 7-2.3333 7-7v-139.8c0-4.6667-2.3333-7-7-7z" fill="#fff"/>
 <path d="m10.699 84.051-0.34961 0.0488c-0.23529 0.0773-0.40195 0.19362-0.5 0.34961 9e-3 0.0328 9e-3 0.0503 0 0.0508l-0.55078 1.0996c-0.76693 1.8531-1.4995 3.421-2.1992 4.7012h-0.0508c-0.23672 0.42409-0.65339 1.3737-1.25 2.8496l-0.29883 0.79883c-0.93919 2.5582-1.6562 5.1086-2.1504 7.6504l-0.20117 0.95117c-0.26497 1.1487-0.44714 2.232-0.54883 3.25l-0.25 2.8984v8.1504c3e-3 0.13099 3e-3 0.21432 0 0.25 0.0638 0.0928 0.0967 0.17617 0.0996 0.25 6e-3 0.10456-0.0115 0.18789-0.0508 0.25-0.0324 0.0961-0.0479 0.21237-0.0488 0.34961v1.3516l0.0488 0.39844c5e-3 0.0333 5e-3 0.0682 0 0.10156l-0.0488 0.39844v4.2012l0.0488 0.40039c4e-3 0.0333 4e-3 0.0663 0 0.0996l-0.0488 0.44922v1.4512l0.0488 0.39844c4e-3 0.0336 4e-3 0.0685 0 0.10156l-0.0488 0.5v1.75c8e-3 0.28359 0.12394 0.53359 0.34961 0.75l0.0508 0.0488h0.0488c0.16159 0.0623 0.31276 0.0952 0.45117 0.0996 0.12474-3e-3 0.24102-0.0356 0.34961-0.0996l5.3496-2.6504c0.1207-0.0508 0.23698-0.0663 0.34961-0.0488 0.10768 0.0197 0.19101 0.0701 0.25 0.15039 0.0894 0.0858 0.13984 0.18464 0.15039 0.29883 0.43307 3.5557 0.76641 6.0557 1 7.5 0.16315 0.91315 0.72904 1.8143 1.6992 2.7012v0.0488l0.20117 0.20117c0.15873 0.125 0.34089 0.19089 0.54883 0.19922l0.35156-0.0508c0.30377-0.10742 0.48594-0.30703 0.54883-0.59961 8e-3 -0.0164 8e-3 -0.0319 0-0.0488l0.25-0.85156v0.0508c0.28906-1.2698 0.44023-1.9539 0.45117-2.0508-3e-3 -0.0242-3e-3 -0.0571 0-0.0996 0.0764-0.49245-0.0418-1.0583-0.35156-1.6992-0.0104-8e-3 -0.0259-0.0255-0.0488-0.0508l-0.15039-0.5c1e-3 -0.0493 1e-3 -0.0997 0-0.15039-0.01-0.0953-0.15889-0.82787-0.44922-2.1992l-0.40039-2.1992c-0.0153-0.12253 1.9e-4 -0.24075 0.0488-0.35156 0.0736-0.10599 0.1569-0.18932 0.25-0.25 0.12422-0.0241 0.24245-0.0241 0.35156 0l1.3496 0.45117h-0.0508l0.25 0.0488c0.0427 0.0112 0.0757 0.0286 0.0996 0.0508 0.34193 0.1638 0.67526 0.24713 1 0.25 0.55117 2e-3 0.96784-0.23055 1.25-0.69922 0.0323-6.7e-4 0.0497-0.0181 0.0508-0.0508 0.29388-0.30325 0.64466-0.88659 1.0508-1.75l0.25-0.5c0.0854-0.13555 0.15131-0.33516 0.19922-0.59961 0.0208-0.0635 0.0537-0.13137 0.0996-0.20117 0.0321-0.0429 0.0651-0.0913 0.0996-0.14844 0.31393-0.17526 0.58138-0.47565 0.80078-0.90039 0.0145-0.01 0.0319-0.027 0.0508-0.0508l0.19922-0.25c0.0303-0.0362 0.0633-0.0691 0.0996-0.0996 0.16953-0.12903 0.27031-0.26276 0.30078-0.40039 9e-3 -0.0803 0.0249-0.16367 0.0488-0.25 0.0555-0.0452 0.10586-0.0956 0.15039-0.15039 0.49779-0.28893 0.99779-0.85482 1.5-1.6992v-0.0508l0.0996-0.14844c0.084-0.084 0.18477-0.15182 0.30078-0.20117 0.1194-0.0172 0.23568 2.3e-4 0.34961 0.0508 0.1125 0.0449 0.19583 0.11082 0.25 0.19922 0.33359 0.7207 0.51771 1.1878 0.55078 1.4004 2e-3 0.0425 2e-3 0.0754 0 0.0996v0.30078c0.0832 0.69753 0.18203 1.1801 0.29883 1.4492 0.0797 0.10195 0.11458 0.20273 0.10156 0.30078l-0.0508 0.29883c-0.01 0.069-0.0272 0.1194-0.0508 0.15039v0.0508c-0.0746 0.46432-0.0572 0.81315 0.0508 1.0488 0.0615 0.13815 0.0615 0.27188 0 0.40039-0.14401 0.47617-0.12659 0.92578 0.0508 1.3496 0.11572 0.20659 0.12475 0.62222 0 1.3008-0.16653 1.069-0.10065 1.819 0.19922 2.25 0.2293 0.26041 0.52969 0.42708 0.90039 0.5 0.26471 0.0724 0.71432 0.12278 1.3496 0.15039h0.15039c1.1361 3e-3 1.9694 0.0685 2.5 0.19922l1.8497 0.15045c0.74075-0.0104 1.8066-0.14412 3.1992-0.40039 0.30339-0.0582 0.52044-0.22487 0.65039-0.5h-0.0488c0.13138-0.27799 0.13138-0.56094 0-0.84961-1.2401-2.3066-2.3409-4.0392-3.3008-5.1992-2.3079-2.7361-4.5405-4.771-6.6992-6.1016-0.0915-0.0366-0.15937-0.10249-0.20117-0.19922-0.0417-0.0976-0.0572-0.19843-0.0488-0.30078 0.0383-0.1082 0.0867-0.20703 0.14844-0.29883l0.36914-0.32226c1.8406-1.9147 3.1056-3.4614 3.7812-4.6289v-0.0488l0.84961-1.3496c1.1401-1.7984 2.0568-3.3663 2.75-4.7012 0.69232-1.279 1.4598-2.9786 2.3008-5.0996h0.0508l0.39844-0.90039c0.18594-0.45625 0.15299-0.87292-0.0996-1.25-0.18294-0.28008-0.48333-0.4293-0.90039-0.44922l-2.1993 0.34958c-1.1659 0.12149-2.0167 0.28815-2.5508 0.5-0.0168 8e-3 -0.0323 8e-3 -0.0488 0-1.837 0.64245-3.4048 1.3091-4.7012 2-2.2838 1.2141-4.6501 2.8478-7.0996 4.9004l-0.44922 0.40039c-0.076 0.10325-0.17682 0.15169-0.30078 0.14844-0.13463-6e-3 -0.25091-0.0544-0.34961-0.14844-0.0937-0.0892-0.14414-0.20742-0.15039-0.35156-0.13503-2.4525-0.36758-4.4525-0.69922-6v-0.0488l-0.0996-0.65039v0.0508c-0.5487-2.3549-0.96537-3.8898-1.25-4.6016-0.19141-0.53281-0.42591-1.4146-0.70117-2.6484l-0.54883-2.5508c-0.44284-1.8047-0.8944-3.171-1.3516-4.0996-9e-3 1.3e-4 -0.0245-0.0173-0.0488-0.0508l-0.40039-1.1504-0.0508-0.0996c-0.01-8e-3 -0.025-0.0233-0.0488-0.0488-0.16276-0.54466-0.41276-0.91289-0.75-1.1016-9e-3 -0.0145-0.0266-0.03-0.0508-0.0488-0.0885-0.0571-0.20482-0.09-0.34961-0.0996zm15.068 33.777c-9e-3 9e-3 -9e-3 0.0126-0.0176 0.0215l0.0488-0.0488z" fill="#faea01"/>
 <path d="m87.199 10.449c-0.46667 0.0333-0.94922 0.30078-1.4492 0.80078 0 0.0333-0.0174 0.0508-0.0508 0.0508l-1.1504 0.89844h0.0508c-2.5 2.2667-4.5678 4.8016-6.2012 7.6016-0.0667 0.1-0.13255 0.16589-0.19922 0.19922-0.1 0.0333-0.20078 0.0508-0.30078 0.0508s-0.18333-0.0349-0.25-0.10156c-0.53333-0.43333-0.95-0.81511-1.25-1.1484-1.1333-1.2333-2.9318-2.5008-5.3984-3.8008-1.8333-0.93333-4.1008-1.7996-6.8008-2.5996-0.53333-0.16667-1.5663-0.40117-3.0996-0.70117-1.4667-0.3-2.4008-0.51511-2.8008-0.64844l-0.5-0.0508c-0.33333 0-0.58333 0.13372-0.75 0.40039h-0.0488c-0.2 0.3-0.21733 0.64883-0.0508 1.0488 0.56667 1.5333 1.3496 3.1167 2.3496 4.75 0.9 1.5 2.4174 3.2674 4.5508 5.3008 0.93333 0.9 2.1988 1.9504 3.7988 3.1504 0.1 0.0667 0.16784 0.1655 0.20117 0.29883 0.0333 0.13333 0.0159 0.26706-0.0508 0.40039-0.1 0.1-0.19883 0.16784-0.29883 0.20117l-1.1504 0.29883c-2.0667 0.56667-3.3167 0.93294-3.75 1.0996h0.0488c-2.2667 0.86666-3.9159 1.6012-4.9492 2.2012l-1.0508 0.59961c-1.7 0.9-3.0488 1.7837-4.0488 2.6504h-0.0508c-0.26667 0.2-0.3655 0.4655-0.29883 0.79883 0.0667 0.33333 0.26628 0.58333 0.59961 0.75 1.3 0.43333 3.333 0.85 6.0996 1.25l2.6504 0.45117c1.5333 0.23333 2.4829 0.36706 2.8496 0.40039l1.25 0.14844c1.0333 0.13333 1.8337 0.20117 2.4004 0.20117h0.15039c0.13333 0 0.24961 0.0504 0.34961 0.15039 0.0667 0.0667 0.11706 0.15 0.15039 0.25 0.0333 0.1 0.0159 0.21628-0.0508 0.34961l-0.69922 1.2988c-0.53333 0.9-0.88411 1.6171-1.0508 2.1504-0.0333 0-0.0508 0.0175-0.0508 0.0508v0.0488c-0.96667 2.6-1.5326 4.5671-1.6992 5.9004v0.0508l-0.90029 6.3496v0.0508c-0.0667 0.2 1e-3 0.41511 0.20117 0.64844v-0.0488c0.23333 0.3 0.53177 0.44922 0.89844 0.44922h0.0508c0.53333-0.0333 1.0508-0.29883 1.5508-0.79883 0-0.0333 0.0155-0.0508 0.0488-0.0508l0.25-0.19922h0.0508c2.9333-1.7667 5.8171-3.9682 8.6504-6.6016 2.2333-2.1333 4.0492-4.1818 5.4492-6.1484 0.0667-0.1 0.15-0.16784 0.25-0.20117 0.0667-0.0333 0.16745-0.0333 0.30078 0 0.0667 0 0.15 0.0329 0.25 0.0996 0.43333 0.46666 1.0826 1.3174 1.9492 2.5508 1.1 1.5 1.9159 2.5329 2.4492 3.0996 1.5 1.6333 2.8682 2.9996 4.1016 4.0996l0.0488 0.0508 0.25 0.19922c0.0667 0 0.11706 0.0175 0.15039 0.0508 0.13333 0.1 0.26706 0.15039 0.40039 0.15039l0.5-0.0996c0.23333-0.13333 0.38255-0.35039 0.44922-0.65039l0.0508-0.55078c0.1-3.3-0.26628-6.4337-1.0996-9.4004l-0.60156-2.0488c-0.66667-2.5333-1.25-4.3996-1.75-5.5996v-0.05085l-0.19922-0.59961c-0.0333-0.1-0.0333-0.20078 0-0.30078 0-0.1 0.0504-0.16589 0.15039-0.19922 0.0667-0.1 0.15-0.15039 0.25-0.15039l1.6504-0.15039c2.7333-0.3 4.6984-0.44922 5.8984-0.44922l1.75 0.0488c0.0333 0 0.0682 0.0175 0.10156 0.0508h0.0996c0.46667 0 0.8155-0.14922 1.0488-0.44922 0-0.0333 0.0174-0.0508 0.0508-0.0508 0.1-0.16667 0.15039-0.35078 0.15039-0.55078v-2.0488l-0.0508-0.30078-0.19922-0.65039c-0.2-0.46667-0.56628-0.69922-1.0996-0.69922-0.2 0-0.46745 0.0659-0.80078 0.19922-0.1 0.1-0.21628 0.15039-0.34961 0.15039h-0.0996l-5.7012 1c-1.9 0.36667-2.9 0.56628-3 0.59961h-0.0996l-0.84961 0.10156c-0.1 0-0.20078-0.0175-0.30078-0.0508-0.1-0.0667-0.16589-0.13255-0.19922-0.19922-0.0333-0.13333-0.0508-0.25156-0.0508-0.35156l0.15039-0.79883c0.53333-2.7667 0.86667-5.1174 1-7.0508 0.2-3.0333 0.18267-5.5488-0.0508-7.5488v-0.15039c0-0.73333-0.0988-1.2508-0.29883-1.5508l-0.0508-0.0488c-0.3-0.23333-0.58294-0.35156-0.84961-0.35156zm-16.1 76.701c-0.16667 0-0.30039 0.0504-0.40039 0.15039l-0.0508 0.0488c-0.2 0.16667-0.33177 0.41667-0.39844 0.75l0.0488 0.40042c0.36667 2.0333 0.80078 3.7174 1.3008 5.0508 0.0333 0.0667 0.0333 0.1655 0 0.29883-0.0333 0.1-0.10117 0.18333-0.20117 0.25-0.0667 0.0667-0.15 0.0996-0.25 0.0996l-1.2988 0.0508-5.3008 0.80078c-2.1667 0.36667-3.3488 0.58177-3.5488 0.64844-1.9333 0.46666-3.8345 1.0849-5.7012 1.8516h-0.0488l-0.15039 0.0488c-3.2333 1.3333-5.6171 2.4496-7.1504 3.3496-0.26667 0.2-0.49922 0.4345-0.69922 0.70117l-0.25 0.25c-0.23333 0.16667-0.33411 0.39922-0.30078 0.69922 0.0321 0.25742 0.16586 0.47448 0.40039 0.65039 0.31003 0.13581 0.52708 0.21914 0.65039 0.25 0.56667 0.0333 1.2663 0.25039 2.0996 0.65039l1.6992 0.54883c2.7333 0.7 5.2837 1.1341 7.6504 1.3008l4.0508 0.0508c0.0333 0 0.0818 0.0155 0.14844 0.0488 0.33333 0.0667 0.70156 0.0996 1.1016 0.0996 0.26667 0 0.96628-0.0833 2.0996-0.25l0.34961-0.0488h0.0508c1.2667-0.1 2.1-0.63294 2.5-1.5996 0.1-0.33333 0.38294-0.83333 0.84961-1.5v0.0488l0.54883-0.79883c0.0667-0.16667 0.10156-0.33333 0.10156-0.5 0-0.1 0.0329-0.18333 0.0996-0.25 0.0333-0.1 0.0837-0.16784 0.15039-0.20117 0.56667-0.33333 1.0163-0.86628 1.3496-1.5996l0.0488-0.0996c0-0.0333 0.0174-0.0508 0.0508-0.0508l0.0996-0.15039 0.0996-0.25c0.0333-0.1 0.10117-0.16589 0.20117-0.19922 0.13333-0.13333 0.3-0.31745 0.5-0.55078v-0.0488l0.29883-0.40039v0.0508c0.56666-0.86666 0.96784-1.5178 1.2012-1.9512 0.0333-0.0667 0.0663-0.11706 0.0996-0.15039l0.15039-0.14844c0.0333-0.0333 0.0663-0.0508 0.0996-0.0508 0.3-0.2 0.51706-0.48294 0.65039-0.84961 0.0333-0.13333 0.11667-0.23411 0.25-0.30078l0.25-0.0996c0.66667-0.66667 0.98255-1.4341 0.94922-2.3008-0.1-1.1333-0.78216-2.0655-2.0488-2.7988l-0.0508-0.0508c-0.1-0.0667-0.21628-0.0996-0.34961-0.0996s-0.24961-0.0504-0.34961-0.15039c-0.13333-0.13333-0.26706-0.21667-0.40039-0.25h-0.0508c-0.33333-0.1-0.73255-0.31706-1.1992-0.65039-0.63293-0.36653-1.1003-0.58175-1.4003-0.64842h0.0508l-0.25-0.0508c-0.0667 0-0.11706-0.0175-0.15039-0.0508l-0.20117-0.0488zm20.25 12.549c-0.16667 0-0.30039 0.0349-0.40039 0.10156l-0.80078 0.54883c-2.0333 1.5667-4.1167 2.9-6.25 4-0.0333 0-0.0488 0.0175-0.0488 0.0508-0.13333 0.0333-0.26706 0.11667-0.40039 0.25-0.1 0.1-0.21628 0.15039-0.34961 0.15039-0.53333 0-1.0333 0.23255-1.5 0.69922l-0.20117 0.0996c-0.0667 0-0.13255 0.0329-0.19922 0.0996-0.0667 0.0667-0.15 0.11706-0.25 0.15039-1.3667 0.16667-2.3492 0.53294-2.9492 1.0996-0.0667 0.0667-0.1345 0.11706-0.20117 0.15039h-0.40039l-1.2988 0.20117c-1 0.16667-1.6996 0.43216-2.0996 0.79883-0.0667 0.0333-0.15 0.0663-0.25 0.0996h-0.20117l-0.29883-0.0996-0.40039-0.0488h-0.15042l-0.44922 0.0996c-1.5667 0.3-2.8516 0.46667-3.8516 0.5h-0.0488c-0.76667 0-1.3345 0.19961-1.7012 0.59961-0.2 0.2-0.56628 0.7-1.0996 1.5l-1 1.5508c-0.93333 1.3667-1.6155 2.4326-2.0488 3.1992-0.76666 1.2667-1.4837 2.6329-2.1504 4.0996-0.13333 0.3-0.43372 1.1508-0.90039 2.5508l-0.5 1.4004c-0.8 2.1667-1.3504 3.9496-1.6504 5.3496v0.0488c-0.0667 0.2-0.0337 0.50039 0.0996 0.90039 0.13333 0.36667 0.43372 0.55078 0.90039 0.55078 0.23333 0 0.43294-0.0329 0.59961-0.0996 0.0333-0.0667 0.10117-0.10156 0.20117-0.10156l5.5-3.0996c2.5333-1.6667 4.8337-3.2655 6.9004-4.7988h0.0488c1.1667-0.83333 2.6008-2.1337 4.3008-3.9004 0.0333-0.0333 0.0837-0.0663 0.15039-0.0996 1.2-1.2333 2.2988-2.5512 3.2988-3.9512 0.0667-0.1 0.16745-0.15039 0.30078-0.15039 0.1-0.0333 0.19883-0.0333 0.29883 0s0.18333 0.11667 0.25 0.25c1.7 3.3667 3.6845 6.3512 5.9512 8.9512l0.34961 0.40039c0.86667 1 1.5837 1.75 2.1504 2.25 0.83333 0.73333 1.7326 1.2488 2.6992 1.5488l0.4004 0.0508c0.2 0 0.38411-0.0678 0.55078-0.20117h0.0488c0.2-0.26667 0.26784-0.56511 0.20117-0.89844l0.0488 0.0488-0.0488-0.15039c-0.0333-0.0667-0.0508-0.13255-0.0508-0.19922 0.26667-1.5667 0.33255-3.9833 0.19922-7.25-0.0667-1.1333-0.29922-2.7496-0.69922-4.8496l-0.34961-2.0508c-0.43333-2.4333-0.86745-4.2822-1.3008-5.5488-0.0667-0.13333-0.0667-0.25156 0-0.35156 0.0333-0.1 0.10117-0.18333 0.20117-0.25 0.0667-0.0667 0.1655-0.0996 0.29883-0.0996l2.6504 0.20117c0.36667 0 0.64961-0.15117 0.84961-0.45117 0.16667-0.3 0.15099-0.63333-0.0488-1v-0.0488l-2-4.3516v0.0508c-0.1-0.26667-0.26667-0.43333-0.5-0.5zm-67.801 19.15c-0.43333 0.0333-0.90039 0.39961-1.4004 1.0996l-2.3496 3.2012c-1.4333 1.9333-2.9837 4.6988-4.6504 8.2988-0.83333 1.8333-1.4496 3.6512-1.8496 5.4512-0.0333 0.13333-0.0992 0.23216-0.19922 0.29883-0.1 0.0667-0.20078 0.10156-0.30078 0.10156-0.13333 0-0.23216-0.0349-0.29883-0.10156-1.0333-0.93333-2.7833-2.2667-5.25-4l-3.4512-2.2988-0.0488-0.0508c-0.13333-0.1-0.31745-0.15039-0.55078-0.15039-0.13333 0-0.24961 0.0349-0.34961 0.10156-0.0333 0-0.0508 0.0155-0.0508 0.0488-0.3 0.1-0.44922 0.35-0.44922 0.75v4.25c0 0.23333 0.0504 0.41745 0.15039 0.55078 0.0667 0.0667 0.0996 0.15 0.0996 0.25s-0.0174 0.19883-0.0508 0.29883c-0.0333 0.0667-0.0488 0.15-0.0488 0.25v0.25c0 0.0667-0.0174 0.15-0.0508 0.25-0.0667 0.13333-0.0996 0.2845-0.0996 0.45117v2.3497c0 0.2 0.0329 0.34922 0.0996 0.44922 0.0333 0.0333 0.0663 0.0837 0.0996 0.15039l0.0508 0.15039c0.53333 0.93333 1.5159 2.2667 2.9492 4l1.7012 2.1992c0.0667 0.0667 0.0996 0.16745 0.0996 0.30078 0 0.1-0.0174 0.20078-0.0508 0.30078-0.0667 0.0667-0.15 0.13255-0.25 0.19922l-3.4492 1.25h-0.40039c-0.23333 0-0.41745 0.0504-0.55078 0.15039l-0.0488 0.0488c-0.16667 0.23333-0.25 0.46784-0.25 0.70117v3.4492c0 0.4 0.16667 0.66745 0.5 0.80078l0.44922 0.0996c0.23333-0.0333 0.43294-0.13411 0.59961-0.30078 0.46666-0.46667 0.90078-0.8155 1.3008-1.0488 0.1-0.0667 0.21628-0.0841 0.34961-0.0508 0.1 0.0333 0.20078 0.10117 0.30078 0.20117 0.0667 0.0667 0.0996 0.1655 0.0996 0.29883v0.20117l-0.19922 1.6992c-0.4 3.1333-0.58411 5.5674-0.55078 7.3008 0.0333 0.23333 0.11667 0.43294 0.25 0.59961 0.23333 0.2 0.45039 0.29883 0.65039 0.29883h0.0996l0.44922-0.0488c0.1 0 0.20078 0.0155 0.30078 0.0488 0.0667 0.0333 0.13255 0.10117 0.19922 0.20117 0.0333 0.0667 0.0508 0.15 0.0508 0.25v0.0488c0 0.23333 0.0833 0.43489 0.25 0.60156 0.2 0.16667 0.41706 0.25 0.65039 0.25h1.9004c0.23333 0 0.44844-0.0833 0.64844-0.25h0.0508c0.13333-0.16667 0.19922-0.36823 0.19922-0.60156v-0.5c0-0.0667 0.0174-0.13255 0.0508-0.19922 0.0333-0.0667 0.0663-0.11706 0.0996-0.15039 0.9-0.86667 2.0996-2.2504 3.5996-4.1504h0.0508l0.34953-0.44913h0.0508l1.6504-2.25c0.0667-0.1 0.18294-0.16589 0.34961-0.19922 0.13333-0.0333 0.24961-3.3e-4 0.34961 0.0996l0.19922 0.15039 2.7012 1.6484h0.0488c3.4667 2.1333 6.2671 3.6508 8.4004 4.5508l1.3496 0.55078c0.1 0.0333 0.18333 0.0992 0.25 0.19922 0.0333 0.0667 0.0508 0.15 0.0508 0.25v0.44922c0 0.23333 0.0833 0.43489 0.25 0.60156 0.2 0.16667 0.41706 0.25 0.65039 0.25h12.4c0.23333 0 0.44844-0.0833 0.64844-0.25h0.0508c0.13333-0.16667 0.19922-0.36823 0.19922-0.60156v-0.75c0-0.23333-0.0988-0.44844-0.29883-0.64844l-0.0996-0.10156c-1.2333-2.3667-3.0841-4.7833-5.5508-7.25-0.9-0.86667-2.2333-1.8822-4-3.0488l-3-1.8008c-0.1-0.1-0.16589-0.19883-0.19922-0.29883-0.0667-0.13333-0.0667-0.25156 0-0.35156 0.0667-0.13333 0.1655-0.21667 0.29883-0.25l2.75-0.89844c1.4-0.5 2.6829-1.0174 3.8496-1.5508 2.5667-1.2 4.7333-2.4674 6.5-3.8008l5.3007-3.7988v-0.0508l0.30078-0.29883c0.0333-0.13333 0.0992-0.21667 0.19922-0.25 0.13333-0.26667 0.16634-0.51667 0.0996-0.75v-0.05076c-0.1-0.26667-0.29961-0.45078-0.59961-0.55078h-0.0508c-0.0667 0-0.13255-0.0155-0.19922-0.0488l-0.0996-0.0508c-1.5667-0.56667-3.9174-1.0163-7.0508-1.3496l-0.79883-0.0508c-1.9333-0.23333-3.7182-0.34961-5.3516-0.34961l-2.0488 0.0508c-1.6667 0.13333-3.9845 0.46667-6.9512 1l-2.0488 0.40039c-0.1 0-0.20078-0.0175-0.30078-0.0508s-0.16589-0.0992-0.19922-0.19922c-0.0667-0.1-0.0996-0.20078-0.0996-0.30078l0.39844-3.9492c0.13333-3.2333 0.20117-6.0182 0.20117-8.3516-0.0333-2-0.38411-3.6822-1.0508-5.0488-0.23333-0.5-0.56667-0.76745-1-0.80078z" fill="#ef1d1e"/>
 <path d="m87.449 10.637c-0.3167-0.14167-0.71592-0.053-1.1992 0.26367-1 0.63333-1.8837 1.3659-2.6504 2.1992-2.3667 2.4333-4.0837 4.6174-5.1504 6.5508-0.033 0.0667-0.099 0.23333-0.19922 0.5-0.067 0.2-0.15 0.25039-0.25 0.15039-0.2667-0.3-0.63486-0.65078-1.1016-1.0508-0.6-0.5-0.98174-0.83333-1.1484-1-1.4333-1.3333-3.0671-2.4341-4.9004-3.3008-1.3333-0.66667-3-1.3818-5-2.1484-1.3333-0.53333-2.4496-0.88411-3.3496-1.0508-1.7333-0.26667-3.2683-0.58255-4.6016-0.94922-0.4333-0.13333-0.74922-0.11757-0.94922 0.0488-0.2333 0.2-0.26601 0.51784-0.0996 0.95117l0.65039 1.5488c0.7 1.8333 1.6321 3.5678 2.7988 5.2012 0.5667 0.8 1.6675 2.0151 3.3008 3.6484 1.6667 1.6667 3.1996 2.9341 4.5996 3.8008l0.30078 0.25-0.40039 0.25c-0.8 0.23333-1.3175 0.36706-1.5508 0.40039-1.5333 0.23333-3.8667 1.0163-7 2.3496l-3.2988 1.8008c-1.5333 0.86667-2.7679 1.7155-3.7012 2.5488-0.2667 0.2-0.35 0.41706-0.25 0.65039 0.033 0.16667 0.18447 0.30039 0.45117 0.40039 1 0.4 1.9496 0.68294 2.8496 0.84961 0.8 0.2 1.9996 0.43255 3.5996 0.69922 3.7667 0.56666 5.7337 0.86706 5.9004 0.90039l3.7988 0.25c0.1667 0 0.21709 0.0678 0.15039 0.20117l-0.79883 1.75c-1.1 1.5333-2.0012 3.5488-2.7012 6.0488-0.2 0.8-0.54883 2.9996-1.0488 6.5996-0.1333 0.86666-0.18369 1.5178-0.15039 1.9512 0.033 0.23333 0.2 0.70039 0.5 1.4004 0 0.0333 0.05 0.0488 0.15039 0.0488 0.1333 0 0.2167-0.0155 0.25-0.0488 1.2-0.63333 1.9325-1.05 2.1992-1.25 3.4-2.1333 5.9659-4.0345 7.6992-5.7012 2.0333-1.9 3.9171-4.0163 5.6504-6.3496 0.2667-0.5 0.48369-0.83333 0.65039-1 0.3-0.23333 0.66631 0.0341 1.0996 0.80078 0.3333 0.56667 0.80039 1.2333 1.4004 2 0.3333 0.4 0.85078 1.0163 1.5508 1.8496 2.0666 2.4667 4.0163 4.3155 5.8496 5.5488 0.6667 0.43333 1.0659 0.25117 1.1992-0.54883 0.067-0.43333 0.0838-0.98372 0.0508-1.6504v-1.5996c0.033-0.43333 0.033-0.96628 0-1.5996l-0.15042-1.5508c-0.033-0.7-0.34922-2.0333-0.94922-4-0.5333-1.9333-0.96748-3.3829-1.3008-4.3496-0.5333-1.6333-1.1496-2.9996-1.8496-4.0996l2.8496-0.45117c1.5667-0.13333 3.9833-0.26706 7.25-0.40039l0.75-0.0488c0.6333 0 0.94922-0.38372 0.94922-1.1504-0.067-1.2667-0.28174-2.1659-0.64844-2.6992-0.067-0.13333-0.16748-0.21667-0.30078-0.25l-1.25 0.14844c-1.2333 0.13333-3.0841 0.40078-5.5508 0.80078l-5.2988 0.90039c0.6-1.7333 1.0671-4.0667 1.4004-7 0.3667-3.9667 0.24844-7.2671-0.35156-9.9004-0.15-0.6-0.38252-0.97161-0.69922-1.1133zm0 0.96289c0.067 0.2 0.0838 0.53333 0.0508 1 0.2667 2.1333 0.28223 4.6178 0.0488 7.4512-0.067 1.3667-0.4833 4.1826-1.25 8.4492-0.033 0.26667-0.23291 0.35-0.59961 0.25-0.3333 0.2-0.81592 0.31628-1.4492 0.34961-0.7667 0.0333-1.2841 0.10117-1.5508 0.20117-0.2 0.1-0.26592 0.0322-0.19922-0.20117l1.5996-5.8496c0.3-1.2333 0.49961-2.5008 0.59961-3.8008 0-0.1 0.083-0.51667 0.25-1.25 0.1333-0.5 0.1333-0.91667 0-1.25l-0.25-0.39844c-0.2 0.13333-0.31631 0.24961-0.34961 0.34961-1.8 3.8667-2.8 6.0333-3 6.5l-1.8496 4.5996-0.15039 0.30078-0.34961-0.20117c-2.1333-2.8667-4.2341-5.1671-6.3008-6.9004-2.7333-2.2333-5.2508-3.7159-7.5508-4.4492-0.2667-0.1-0.46631-0.0496-0.59961 0.15039-0.1333 0.16667-0.05 0.36628 0.25 0.59961 2.1667 1.6333 3.8837 3.1663 5.1504 4.5996 0.7333 0.8 1.8167 1.9667 3.25 3.5 1.2333 1.4 2.2159 2.6674 2.9492 3.8008l0.15039 0.19922c0 0.0667-0.083 0.11706-0.25 0.15039-2.5 0.56667-4.3837 0.95039-5.6504 1.1504-0.4 0.0667-1.6984 0.31667-3.8984 0.75-1.6 0.33333-2.9179 0.5155-3.9512 0.54883-0.4667 0.0333-1.4822 0.2-3.0488 0.5-0.2667 0-0.33447 0.10078-0.20117 0.30078 0.1667 0.23333 0.31787 0.31667 0.45117 0.25 0.3-0.1 0.66631-0.11727 1.0996-0.0508 0.6667 0.0667 1.0329 0.10156 1.0996 0.10156 1.1 0 2.1659-0.10078 3.1992-0.30078 0.2667-0.0333 0.6 0.0171 1 0.15039l9.0508-0.0508c0.4667 0 0.7167 0.11628 0.75 0.34961 0.033 0.2-0.11592 0.66706-0.44922 1.4004s-0.81787 1.8167-1.4512 3.25c-0.5667 1.267-1.0996 2.3171-1.5996 3.1504-0.4 0.73333-1.0163 1.8167-1.8496 3.25-0.7333 1.2-1.4504 2.2174-2.1504 3.0508-0.067 0.1-0.18291 0.24922-0.34961 0.44922-0.1333 0.2-0.1333 0.36667 0 0.5 0.2333 0.2 0.53369 0.0663 0.90039-0.40039 2.2-2.3 3.6825-3.9163 4.4492-4.8496 1.7667-2.2333 3.7008-5.3826 5.8008-9.4492 0.067-0.23333 0.11514-0.41745 0.14844-0.55078 0.067-0.2 0.16748-0.28333 0.30078-0.25 0.1 0.0333 0.36748 0.30078 0.80078 0.80078l6.7988 9.0488c0.3333 0.5 0.80039 1.0504 1.4004 1.6504 0.1333 0.26667 0.3 0.31706 0.5 0.15039 0.2-0.2 0.23261-0.41706 0.0996-0.65039-1.0333-2.5667-1.8337-4.4833-2.4004-5.75-1-2.1667-2.0155-3.9826-3.0488-5.4492l-0.5-0.60156c0.5-0.2 1.1667-0.29883 2-0.29883 1.1 0 1.7821-0.0175 2.0488-0.0508 0.2333-0.0333 0.53369 0.46667 0.90039 1.5 0.4 1 0.8167 2.25 1.25 3.75 0.2333 0.86667 0.58408 2.1496 1.0508 3.8496 0.8333 3 1.1996 6.0504 1.0996 9.1504l-0.0508 0.40039c-0.1333-0.0667-0.2167-0.13255-0.25-0.19922-1.2666-1.1-2.6484-2.4508-4.1484-4.0508-0.5333-0.6-1.2679-1.5496-2.2012-2.8496s-1.6659-2.2496-2.1992-2.8496c-0.4-0.43333-0.68291-0.66784-0.84961-0.70117-0.3667-0.1-0.76787 0.16745-1.2012 0.80078-1.5333 2.1-3.3492 4.1504-5.4492 6.1504-2.8667 2.7-5.6845 4.8318-8.4512 6.3984-0.5333 0.63333-1.0333 0.96667-1.5 1l-0.25-0.0996c0.4667-2.8333 0.78447-4.9671 0.95117-6.4004 0.1333-1.2 0.68369-3.1322 1.6504-5.7988l1.6485-3.1504c0.4667-1 0.73408-1.6492 0.80078-1.9492 0.067-0.13333 0.016-0.25156-0.15039-0.35156-0.1333-0.1-0.3-0.13303-0.5-0.0996-0.7 0.13333-1.5333 0.16637-2.5 0.0996-1.1-0.13333-1.9333-0.23216-2.5-0.29883-1.8333-0.26667-3.2171-0.46628-4.1504-0.59961-1.6333-0.23333-2.8484-0.43489-3.6484-0.60156-1.4-0.23333-2.6016-0.53177-3.6016-0.89844 0.6333-0.53333 1.4512-1.1012 2.4512-1.7012 1.1333-0.63333 1.9821-1.1159 2.5488-1.4492 1.1333-0.6 2.7341-1.3171 4.8008-2.1504 0.2333-0.1 1.9-0.56706 5-1.4004 0.8333-0.2 1.2675-0.29883 1.3008-0.29883 0.8-0.4 1.0151-0.75078 0.64844-1.0508-0.5667-0.3-0.91553-0.49961-1.0488-0.59961-1.6667-1.2-3.1163-2.3841-4.3496-3.5508-2.1667-2.0333-3.6512-3.7329-4.4512-5.0996-0.8333-1.4-1.5988-2.9504-2.2988-4.6504-0.033-0.16667 0.05-0.23255 0.25-0.19922 0.7 0.2 1.7 0.43255 3 0.69922 1.4 0.26667 2.4 0.48372 3 0.65039 2.5666 0.8 4.7488 1.6508 6.5488 2.5508 2.4667 1.3333 4.2012 2.533 5.2012 3.5996 0.3333 0.36667 1.0484 1.0333 2.1484 2 0.2667 0.2 0.53408 0.0837 0.80078-0.34961 1.6333-2.9667 3.8-5.7012 6.5-8.2012 0.5667-0.4 0.96592-0.71589 1.1992-0.94922 0.6-0.6 0.95078-0.70078 1.0508-0.30078zm-18.5 7.9512 0.15039 0.14844c2.8 1.7333 5.3833 4.0512 7.75 6.9512l2.2988 2.75c0.2667 0.33333 0.50117 0.26549 0.70117-0.20117 1.3-2.9 2.1004-4.7333 2.4004-5.5 0.1-0.23333 0.6-1.5163 1.5-3.8496h0.19922l-2.4004 9.5996c-0.067 0.33333-0.0492 0.56784 0.0508 0.70117 0.1 0.1 0.29961 0.11577 0.59961 0.0488l6.6504-0.89844c1.1333-0.16667 2.8155-0.4845 5.0488-0.95117l3.7012-0.59958h0.25c0.1333-0.0333 0.35039-0.13411 0.65039-0.30078 0.2667-0.1 0.44883-0.0496 0.54883 0.15039l0.15039 0.45117c0.2 0.63333 0.21708 1.3155 0.0508 2.0488l-0.0508 0.0996c-0.1 0.13333-0.2667 0.16823-0.5 0.10156-1.9333-0.1-4.5341 0.0318-7.8008 0.39844l-7.6992 0.55079-0.55078 0.0996c-0.3667 0.0667-0.43252 0.30117-0.19922 0.70117 1.9 2.7333 3.4504 5.5996 4.6504 8.5996l0.0488 0.40039-0.25-0.25c-2.1333-3.0333-4.2651-5.7833-6.3984-8.25-0.4-0.46666-0.7333-0.65078-1-0.55078-0.2 0.0667-0.45 0.38255-0.75 0.94922-0.6333 1.3-1.6837 3.2341-3.1504 5.8008-0.4 0.76667-0.93291 1.5826-1.5996 2.4492-0.4 0.5-1.0337 1.25-1.9004 2.25l0.75-1.5c0.9-1.4667 1.5337-2.5829 1.9004-3.3496 0.6-1.3 1.0321-2.2826 1.2988-2.9492 0.4333-1.1333 0.6833-2.1663 0.75-3.0996 0-0.36667-0.30039-0.50039-0.90039-0.40039-0.033 0-1.9501 0.0504-5.75 0.15039-0.2667 0-0.39844-0.0678-0.39844-0.20117-0.067-0.23333 0.05-0.34961 0.34961-0.34961 4.1-0.73333 6.3829-1.1326 6.8496-1.1992 0.5333-0.1 0.64961-0.36745 0.34961-0.80078-0.9-1.2333-1.5821-2.1674-2.0488-2.8008-0.8333-1.1-1.5504-1.9992-2.1504-2.6992-0.3333-0.4-1.75-1.7992-4.25-4.1992-0.1333-0.13333-0.16601-0.26706-0.0996-0.40039 0.067-0.1 0.13252-0.13303 0.19922-0.0996zm-18.301 2.5488c-0.2501-1e-3 -0.44971 0.0665-0.59961 0.20117-0.6965 0.64516-1.0308 1.0195-1.6191 1.584-0.2583 0.20657-0.35889 0.32104-0.67969 0.56445-0.524 0.45935-0.99805 1.0572-1.502 1.5723-0.2456 0.25296-0.68604 0.65074-0.89844 0.87891-0.05 0.0549-0.16595 0.2307-0.21875 0.29102-1.0282 1.1702-2.0059 2.4803-2.9453 3.8965-0.1004 0.14304-0.13243 0.1632-0.23633 0.3125l-1.25 1.7988c-0.063 0.11015-0.146 0.17799-0.25 0.20117-0.1001 0.0511-0.20088 0.0511-0.30078 0-0.1025-0.0141-0.1858-0.0645-0.25-0.15039-0.098-0.13504-0.22637-0.21904-0.32617-0.35156l-0.22266-0.39841c-2.3667-3-4.5179-5.0504-6.4512-6.1504-1.0645-0.58996-1.5715-0.67853-2.4434-1.0957-0.2846-0.14127-0.51574-0.37342-0.80664-0.50391-0.4034-0.18092-0.8353-0.2627-1.2461-0.41797-0.53879-0.20641-1.4253-0.72499-1.8535-0.83203-1.2667-0.33333-2.2667-0.53294-3-0.59961-0.4222-0.0396-0.7862 0.0656-1.1875 0.0781-0.342-0.0265-0.66532-0.11759-1.0117-0.12891h-0.0508c-0.2049 0.01-0.47043 0.093-0.79883 0.25-0.03 0.0225-0.08 0.04-0.15039 0.0508-0.1844 0.0921-0.33557 0.25873-0.45117 0.5 0 9e-3 0.01 0.0166 0 0.0254-0.06 0.0874-0.22581 0.12146-0.25391 0.22461-0.023 0.0701 0.17671 0.28968 0.34961 0.49023 0 3e-3 -1e-4 7e-3 0 0.01 0.01 0.0246 0.01 0.0401 0 0.0488 0.082 0.18971 0.19841 0.35638 0.34961 0.5 0.121 0.0652 0.23721 0.14853 0.34961 0.25 0.3858 0.25628 0.49746 0.45926 0.81836 0.70312 0.952 0.86762 1.9106 1.7084 2.832 2.6973 1.2069 1.2952 3.2308 3.8806 5.6074 7.0215l0.0918 0.12891c0.088 0.0828 0.13839 0.18359 0.15039 0.30078 0.01 0.12735-0.0246 0.24362-0.0996 0.34961-0.069 0.0934-0.16938 0.14375-0.30078 0.15039l-0.19922 0.0488h0.0488l-3.6992 1.3008c-0.3329 0.132-0.44847 0.22839-0.76367 0.35742-0.7698 0.28343-1.6236 0.57125-2.1856 0.8418-0.6667 0.36667-1.7016 0.88411-3.1016 1.5508-0.2227 0.11135-0.34774 0.2227-0.55664 0.33399-0.034 0.0198-0.10968 0.0467-0.14258 0.0664l-0.44141 0.2832c-0.64959 0.37157-1.3635 0.74333-1.8594 1.1152-0.3465 0.25411-1.1057 0.76157-1.5762 1.0918l-3.6738 2.3594c-0.3328 0.23489-0.46464 0.55078-0.39844 0.94922 0.059 0.40742 0.27424 0.64192 0.64844 0.70117l1.3067 0.19905c1.116 0.17396 1.9823 0.35807 2.5996 0.55078h-0.0488c0.5126 0.14817 1.7201 0.32341 3.1367 0.50781 0.1783 0.0275 0.22741 0.0648 0.41211 0.0918 0.195 0.0292 1.2965 0.1402 1.7109 0.18945l0.49023 0.0606c0.023 7e-3 0.0379 6e-3 0.0469 0 1.0176 0.11688 1.61 0.19527 3.5996 0.40039 0.76669 0.1 1.2183 0.13303 1.3516 0.0996l3.6953-0.30859c0.069 0.015 0.14223 0.0129 0.20313 0.0586 0.1065 0.0759 0.17437 0.17474 0.20117 0.29883 0.021 0.12448-0.0116 0.24271-0.0996 0.35156-0.4642 0.77859-1.2178 2.3545-1.9785 3.9531-0.218 0.46254-0.45877 0.7463-0.67187 1.2461l-1.6621 3.6934-2.6875 5.8066c-0.056 0.1245 0.0557 0.23524 0.0527 0.35547-0.048 0.23764-0.10351 0.43606-0.10351 0.89453 0.1667 0.1 0.28291 0.13303 0.34961 0.0996 0.062-0.0133 0.31773-0.11662 0.39843-0.13867 0.037 4e-3 0.063 0.0392 0.10157 0.0391 0.1371-6.7e-4 0.23788-0.0181 0.30078-0.0508 0.034-9e-3 0.0488-0.0246 0.0488-0.0488l1.752-0.65048c2.091-0.80859 3.3759-1.326 3.8516-1.5508 0.018 7e-3 0.0328 7e-3 0.0488 0l0.65042-0.39844c0.4641-0.23042 0.57691-0.38677 1.0039-0.60937 0.603-0.29478 1.3973-0.59835 1.9453-0.89063 2.1-1.2 3.5671-2.1671 4.4004-2.9004 1.6-1.4333 2.4179-2.1678 2.4512-2.2012 0.5113-0.49239 0.81126-0.94906 1.1934-1.4199 0.1653-0.19155 0.45347-0.38918 0.60547-0.58008 0.06-0.0786 0.12787-0.14453 0.20117-0.19922 0.1066-0.0172 0.20543-0.0172 0.29883 0 0.094 0.0191 0.1779 0.0521 0.25 0.0996 1.3397 1.256 2.9735 2.4072 4.9004 3.4512 2.2434 1.2656 4.6775 2.3974 7.3008 3.3984 0.033 0.0245 0.0488 0.0419 0.0488 0.0508 0.1008 0.0324 0.23449 0.0498 0.40039 0.0508h0.15039c0.016 2.1e-4 0.025-0.0132 0.041-0.0137 0.2491 0.047 0.47701 0.15072 0.75781 0.11328 0.3667-0.0333 0.43447-0.31628 0.20117-0.84961-0.071-0.18876-0.064-0.16177-0.13086-0.33984-0.015-0.1042-0.0243-0.20873-0.0703-0.31055-0.01-5.2e-4 -0.0238-0.018-0.0488-0.0508l-0.55664-1.3926c-0.3753-0.97925-0.91137-2.4063-1.043-2.707l-2.5-5.9004c-0.4966-1.1263-0.74461-1.427-1.1621-2.2891-0.1344-0.31739-0.24737-0.50327-0.38867-0.86133l0.0508 0.0508-1.2012-2.6504c-0.046-0.10508-0.0618-0.22136-0.0488-0.34961 0.043-0.0953 0.10932-0.17865 0.19922-0.25 0.088-0.0689 0.18848-0.10191 0.30078-0.0996 1.917-1e-3 3.7988 0.0975 5.6484 0.29883l1.4512 0.15039c0.8501 0.0328 1.6835 0.13358 2.5 0.30078l1.5 0.15039h0.0996c0.229 1e-3 0.42861-0.0665 0.59961-0.20117v-0.0488c0.1984-0.17851 0.29918-0.39557 0.30078-0.65039v-0.59961c0.1333-0.4 0.16786-0.78372 0.10156-1.1504-0.017-0.0664-0.0806-0.0701-0.10156-0.13086v-0.46875c0-0.26029-0.079-0.47734-0.25-0.65039-0.1742-0.16784-0.39129-0.25117-0.65039-0.25h-0.30078l-0.39844 0.0488-2.0703-0.0254c-0.2453-0.0165-0.41609-0.066-0.67969-0.0742-1.2333-0.0333-2.15-0.0663-2.75-0.0996-1.5-0.0333-2.6183-0.0663-3.3516-0.0996-1.3666-0.0667-2.2833-0.0163-2.75 0.15039-0.08 0.0159-0.4197-0.0163-0.6211-0.0234-0.077-0.0145-0.15291-0.031-0.22851-0.0781-0.074-0.0564-0.13972-0.13973-0.19922-0.25-0.014-0.0818-0.014-0.1806 0-0.29883l0.10352-0.42969c0.1993-0.44409 0.41007-0.85528 0.54687-1.4707 0.2-0.96667 0.3667-1.6992 0.5-2.1992 0.1887-0.6669 0.34845-1.8142 0.52734-2.6426 0.063-0.28348 0.10568-0.4042 0.17188-0.70898v0.05068l0.0664-0.5293c0.2095-1.0808 0.43661-1.8567 0.63281-3.1699 0.081-0.57921 0.052-0.89174 0.10937-1.4121 0.085-0.51635 0.20779-0.89116 0.24219-1.5879 0.072-1.2473 0.1549-2.0477 0.25-2.4004 0.106-0.38724-0.028-0.70508-0.40039-0.95117-0.1504-0.0667-0.30157-0.0996-0.45117-0.0996zm35.648 35.5c-0.0769-0.0233-0.11991 0.12284-0.19336 0.11719-0.047-7e-3 -0.1087-0.0646-0.1543-0.0664-0.4242 7e-3 -0.64969 0.34111-0.87109 0.68164-0.01 0.0152-0.0223 2e-3 -0.0293 0.0176v8e-3c-0.061 0.0999-0.20189 0.0668-0.24609 0.19336l-0.69922 2.0488c-0.482 1.6875-0.78239 2.7204-0.90039 3.0996l-0.34961 1.3006c-0.2379 0.95325-0.38908 1.7536-0.45118 2.4004l-0.30273 1.8496c-0.1414 0.99121-0.18032 1.5055-0.26562 2.2344-0.015 0.18373-0.071 0.27738-0.084 0.46484-0.033 0.5-0.1167 1.2674-0.25 2.3008-0.017 0.45037 0.0656 0.78394 0.0996 1.1758 0 0.40825-0.062 0.88341 0 1.2246 0.019 0.11315 2.2e-4 0.21198-0.0508 0.29883-0.05 0.11771-0.1333 0.20104-0.25 0.25-0.019 0.0114-0.0454 4e-3 -0.0644 0.0117-0.1339-0.0389-0.31137-0.093-0.38477-0.11133l-2.1504-0.40037c-0.3437-0.0665-1.0887-0.0813-1.5469-0.13281-0.24309-0.0352-0.45422-0.0846-0.70312-0.11719l-1.1016-0.0371c-0.4966-0.0289-0.72163-0.0927-1.2988-0.11133-0.1478-6e-3 -0.25244 0.0578-0.39844 0.0547l-0.15039-6e-3c-0.958 1e-3 -1.9095 0.0517-2.8516 0.15039-0.5069 0.0516-0.91715 0.3441-1.4023 0.44922-0.5851 0.13256-1.3013 0.0555-1.8477 0.25-0.3342 0.11937-0.89955 0.56984-1.2773 0.75195-0.1939 0.0994-0.4314 0.0893-0.6211 0.19922l-3.5508 2.1505c-0.1255 0.0824-0.086 0.18446-0.17188 0.27149-0.092 0.0759-0.14244 0.12735-0.27734 0.22851-0.078 0.0782-0.0121 0.18521-0.0391 0.27344-0.01 0.062-0.11853 0.11179-0.11133 0.17578v0.0996c-4e-4 0.0454 0.0536 0.0572 0.0586 0.0996 0.01 0.019-0.0177 0.0314-0.0117 0.0508 0.014 0.0251 0.0612 0.0492 0.0762 0.0742 0.059 0.22298 0.10582 0.45401 0.32422 0.57617 0.071 0.0263 0.12179 0.0592 0.15039 0.0996 0.1788 0.18737 0.61217 0.38368 0.82617 0.57227 0.4053 0.375 0.60633 0.75882 1.1738 1.127l4.6992 2.75c0.1667 0.1 0.4167 0.21823 0.75 0.35156 0.2667 0.16667 0.4333 0.38177 0.5 0.64844l1.6016 5.8516c0.1 0.33333 0.14844 0.5155 0.14844 0.54883-0.033 0.13333-0.24844 0.18372-0.64844 0.15039-0.8-0.1-1.6683-0.0671-2.6016 0.0996-2.7666 0.56667-4.8325 0.95039-6.1992 1.1504-1.5667 0.26667-3.9 0.96628-7 2.0996-3.0333 1.1667-5.3996 2.3333-7.0996 3.5-0.8667 0.6-1.2833 1.1678-1.25 1.7012 0 0.26667 0.4167 0.51667 1.25 0.75 1.0667 0.4 2.6829 0.88255 4.8496 1.4492 1.1667 0.36667 3.4167 0.73294 6.75 1.0996 0.9667 0.0667 2.1508 0.0996 3.5508 0.0996 0.7667 0 1.9488-0.0155 3.5488-0.0488 0.3 0 0.43369 0.0833 0.40039 0.25l-0.27735 0.83008c-0.055 0.13441-0.17315 0.28701-0.22265 0.41992v0.0488c-0.045 0.0976-0.0102 0.19524-0.0312 0.29297l-0.0664 0.20703c-0.2667 0.7-0.5167 1.2678-0.75 1.7012-0.8667 1.5-2.2175 3.75-4.0508 6.75-0.9 1.5667-1.7992 3.5996-2.6992 6.0996-0.6667 1.8667-1.1163 3.2659-1.3496 4.1992-0.1333 0.46666-0.36787 1.6333-0.70117 3.5 0 0.1 0.0326 0.21823 0.0996 0.35156 0.1 0.13333 0.21826 0.1491 0.35156 0.0488 0.2667-0.2 1.5825-0.88216 3.9492-2.0488 1.2667-0.6 2.9508-1.6 5.0508-3 1.1667-0.7 2.2151-1.4171 3.1484-2.1504 0.9-0.6 1.5667-1.0496 2-1.3496 1.2333-1.1667 2.1849-2.0174 2.8516-2.5508 1.9-1.7 3.3825-3.3996 4.4492-5.0996l0.80078-1.0996 0.75 1.1484c0.033 0.1 0.0488 0.28411 0.0488 0.55078 2.1667 3.5 3.5 5.5833 4 6.25 1.9667 2.6 3.8175 4.4508 5.5508 5.5508 0.8667 0.5 1.5837 0.59883 2.1504 0.29883 0.1667-0.0667 0.25-0.24883 0.25-0.54883l0.19922-2.7012c0.1667-3.4 0.017-6.2004-0.44922-8.4004-0.3-2.2667-0.60039-3.9488-0.90039-5.0488l-1.3008-4.9003c1.8333 0.26667 2.8837 0.41589 3.1504 0.44922 0.7 0.0667 1.1825 0.36706 1.4492 0.90039 0.2059 0.37859 0.66185 0.86134 0.90625 1.2559 0.099 0.15329 0.14284 0.29138 0.24414 0.44531l2.7012 3.75c0.037 0.0545 0.10303 0.0388 0.14453 0.082 0.2294 0.27433 0.31099 0.48734 0.55469 0.76758l0.19922 0.19922c0.2667 0.26667 0.45078 0.35 0.55078 0.25 0.2333-0.2 0.25038-0.45 0.0508-0.75l-0.33984-0.44531c0.2467-0.13337 0.48908-0.26969 0.48828-0.60352v-5.7949l0.0508 0.0449c0.3333 0.23333 0.56592 0.31667 0.69922 0.25 0.3-0.23333 0.31708-0.53372 0.0508-0.90039-0.2-0.33333-0.5333-0.98451-1-1.9512l-0.13672-0.27734c0-0.0608 0.0541-0.10757 0.0371-0.17188-0.02-0.11523-1.7e-4 -0.23151 0.0488-0.34961 0.1564-0.23737 0.2397-0.43698 0.25-0.59961v-11l-0.0996-0.30078v-0.25l0.0996-0.25v-1.2637c0.042-0.0187 0.11689 0.0555 0.15039 0.0137 0.1333-0.2 0.067-0.39961-0.19922-0.59961l-0.0332-0.0254-0.0176-0.0742c-0.016-0.0667-0.016-0.1345 0-0.20117l0.0996-0.44922v-3.3496c0.1333-0.16667 0.085-0.30039-0.14844-0.40039l-0.16797-0.0723c-0.077-0.0842-0.061-0.21579-0.18359-0.27734v-0.05074c-0.4355-0.22995-0.90064-0.42956-1.3984-0.59961-0.1031-0.0135-0.1865-0.0639-0.25-0.15039-0.066-0.0897-0.10106-0.19049-0.10156-0.30078 6e-4 -0.10483 0.0377-0.19765 0.0977-0.2832l0.76171-0.9668 1.1426-1.25v-0.0488c0.1031-0.11635 0.12446-0.23959 0.16406-0.36133l0.1875-0.23828c0.3-0.23333 0.51514-0.43489 0.64844-0.60156 0.2-0.26667 0.2-0.56511 0-0.89844-0.033-0.1-0.1167-0.1-0.25 0-0.059 0.0392-0.3143 0.3108-0.5 0.5v-1.8008c-0.01-0.27086-0.20743-0.4188-0.39453-0.57617l0.19531-0.22461c0.3667-0.4 0.3667-0.71589 0-0.94922-0.1667-0.13333-0.4167-0.0326-0.75 0.30078v0.0488c-1.7667 1.9333-2.9159 3.2163-3.4492 3.8496-0.2891 0.37802-0.3741 0.44205-0.5 0.56836-0.02 6e-3 -0.0307 0.0303-0.0527 0.0332-0.1121 0.0106-0.21174-0.0302-0.30664-0.0898-0.086-0.14799-0.17494-0.23138-0.24414-0.76172-0.1-1.2667-0.48174-3.6155-1.1484-7.0488-0.2333-1.3333-0.60156-2.7829-1.1016-4.3496-0.1667-0.5-0.43213-1.1512-0.79883-1.9512-0.4333-0.9-0.71631-1.5337-0.84961-1.9004-0.072-0.17781-0.15631-0.19707-0.22851-0.36719l-0.32233-0.68165h-0.0508c-0.1767-0.44296-0.45008-0.55967-0.64258-0.94922-0.6752-1.2228-1.3298-2.6986-2.0566-3.3008-0.1486-0.13872-0.2137-0.13481-0.3418-0.23828 0-2e-3 2.4e-4 -9e-3 -0.01-0.0117-0.01-7e-3 -0.0164-5e-3 -0.0254-0.0117-0.28522-0.22633-0.5936-0.49346-0.77344-0.53906zm-75.598 25.75c-0.1667 0.0333-0.36631 0.33372-0.59961 0.90039l-1.8008 3.75c-0.1667 0.43333-0.48252 1.0671-0.94922 1.9004s-0.8 1.4671-1 1.9004c-0.2 0.5-0.81631 2.25-1.8496 5.25-0.4 1.0667-0.83408 2.6984-1.3008 4.8984l-0.25 1.4004c-0.1333 0.56667-0.23408 1.2508-0.30078 2.0508-0.067 0.46667-0.13252 1.1663-0.19922 2.0996-0.2 2.5333-0.26592 4.2833-0.19922 5.25 0 0.26667 0.099 0.38294 0.29883 0.34961 0.2 0 0.33369-0.13372 0.40039-0.40039l0.55078-6.8496c0.033-0.33333 0.26592-1.6996 0.69922-4.0996 0.5333-2.6667 1.2504-5.1337 2.1504-7.4004 0.8333-2.0667 1.3488-3.2837 1.5488-3.6504 0.7667-1.4667 1.5167-3.05 2.25-4.75l0.5-1c0.2333 0.13333 0.4 0.45117 0.5 0.95117 0.1333 0.23333 0.28447 0.63255 0.45117 1.1992 0.4333 0.83333 0.9333 2.4671 1.5 4.9004 0.1 0.33333 0.2667 1.0504 0.5 2.1504 0.2 0.9 0.39961 1.6171 0.59961 2.1504 0.3667 0.9 0.80078 2.5996 1.3008 5.0996 0.2333 1.1333 0.41553 2.55 0.54883 4.25 0.067 0.96667 0.16748 2.3988 0.30078 4.2988 0 0.16667 0.083 0.28489 0.25 0.35156 0.1 0.1 0.19883 0.0322 0.29883-0.20117 0.3-0.53333 0.98408-1.2659 2.0508-2.1992 2.4-2.1 4.7004-3.7163 6.9004-4.8496 1.1333-0.63333 2.6488-1.2845 4.5488-1.9512 0.9-0.3 2.2683-0.55 4.1016-0.75 0.5667-0.13333 0.74883 3.9e-4 0.54883 0.40039-1.2667 2.9667-2.1659 4.9492-2.6992 5.9492-0.3 0.6-1.4841 2.6174-3.5508 6.0508-0.6 1-1.8171 2.4826-3.6504 4.4492-0.1333 0.13333-0.66631 0.61784-1.5996 1.4512-0.6667 0.56667-1.1492 1.0996-1.4492 1.5996-0.7 1.0667-1.2 1.5841-1.5 1.5508-1.1-0.26667-1.9333-0.45078-2.5-0.55078l-3.8496-0.5c-0.067-0.0333-0.18486-3e-4 -0.35156 0.0996l0.20117-0.40039c2.7-3 5.0004-5.25 6.9004-6.75 1.6-1.2667 3.7492-3.4159 6.4492-6.4492 0.2-0.13333 0.34922-0.26706 0.44922-0.40039 0.1333-0.2 0.1333-0.39961 0-0.59961-0.1667-0.26667-0.44961-0.28393-0.84961-0.0508l-5.6992 3.75c-2.3333 1.6-4.0504 2.8674-5.1504 3.8008-0.3 0.26667-0.9667 0.81706-2 1.6504-0.8667 0.66667-1.5333 1.2326-2 1.6992l-0.25-1.6992c-0.3333-4.1333-0.51748-6.6663-0.55078-7.5996-0.1-3.4333-0.19883-6.0167-0.29883-7.75l-0.40039-6.9511c0-0.5-0.19961-0.75-0.59961-0.75-0.3667 0-0.55078 0.21706-0.55078 0.65039-0.3333 1.9333-0.53291 3.4004-0.59961 4.4004-0.2333 2.6667-0.36709 5.0988-0.40039 7.2988-0.033 0.86666-0.033 2.2 0 4-0.1 3.2 0.016 6.2833 0.34961 9.25 0 0.1-0.066 0.25117-0.19922 0.45117 0 0.0667-0.083 0.0996-0.25 0.0996-0.5333-0.33333-1.2833-0.61628-2.25-0.84961-1.2333-0.33333-2.0163-0.56784-2.3496-0.70117l-0.65039-0.0996c-0.4333 0.0667-0.70078 0.20039-0.80078 0.40039-0.1333 0.33333 0.13408 0.56589 0.80078 0.69922h0.0996c2.2333 0.5 3.8341 0.90117 4.8008 1.2012 0.6333 0.2 1.05 0.18273 1.25-0.0508 0.1667-0.16667 0.23252-0.58333 0.19922-1.25-0.2-5.2-0.29883-9.0992-0.29883-11.699-0.033-1.1 0.065-3.2996 0.29883-6.5996l0.20117-3.8516 0.25-1.4492c0 0.0667 0.048 1.5337 0.14844 4.4004l1.1504 19.6c0.033 0.1 0.033 0.24922 0 0.44922 0 0.16667 0.083 0.25 0.25 0.25 0.1333 0 0.3833-0.18216 0.75-0.54883l0.34961-0.5c2.2333-2 4.9834-4.1841 8.25-6.5508l4.1504-2.8496c-0.8667 1.2333-1.7988 2.2159-2.7988 2.9492-1.4 1.0667-3.15 2.5841-5.25 4.5508-1.8333 1.6667-3.3004 3.3159-4.4004 4.9492-0.2333 0.3-0.3167 0.50156-0.25 0.60156 0.2333 0.23333 0.45039 0.34961 0.65039 0.34961 0.8667-0.0667 2.0663-7.8e-4 3.5996 0.19922 1.7 0.23333 2.9325 0.34961 3.6992 0.34961-0.1667 0.1-0.38369 0.3849-0.65039 0.85156-0.2333 0.36667-0.46592 0.53333-0.69922 0.5-1.1667-0.23333-2.9341-0.31667-5.3008-0.25-1.2333 0-1.7488 0.5155-1.5488 1.5488 0.1667 0.9 0.31592 2.2333 0.44922 4 0.1333 0.83333 0.3833 2.0833 0.75 3.75 0 0.23333 0.11631 0.59961 0.34961 1.0996 0.2 0.43333 0.2833 0.78411 0.25 1.0508-0.033 0.33333-0.26592 1.2829-0.69922 2.8496-0.5333-0.5-0.8667-0.81589-1-0.94922-0.3-0.43333-0.49961-0.91784-0.59961-1.4512-0.3333-2.0667-0.73447-5.1655-1.2012-9.2988 0-0.66667-0.048-1.1337-0.14844-1.4004-0.2-0.5-0.71748-0.58333-1.5508-0.25-2.4667 0.9-4.3 1.6674-5.5 2.3008l-0.69922 0.39844c-0.2 0.1-0.30078 0.31706-0.30078 0.65039 0 0.0667 0.05 0.11706 0.15039 0.15039 0.1 0.0333 0.21631 0.0159 0.34961-0.0508l6.5996-2.75v0.75c0 0.26667-0.0326 0.43333-0.0996 0.5-0.4333 0.33333-1.1833 0.75-2.25 1.25l-4.4492 2.2012c-0.5333 0.26667-0.56826 0.6155-0.10156 1.0488l0.80078 0.65039c0.6333 0.43333 1.6004 1.0671 2.9004 1.9004 3.3333 2.3333 5.6996 4.1996 7.0996 5.5996 0.2 0.2 0.34922 0.26784 0.44922 0.20117 0.1667-0.0667 0.25-0.20039 0.25-0.40039 0.1667-2.1 0.86826-4.4663 2.1016-7.0996 1.6-3.4667 3.1-6.1837 4.5-8.1504l2.3496-3.1504c0.3667-0.43333 0.58369-0.66589 0.65039-0.69922 0.067-0.0333 0.15 0.0326 0.25 0.19922 0.5667 1.2333 0.88252 2.8167 0.94922 4.75 0 3.1-0.066 5.8674-0.19922 8.3008-0.033 0.93333-0.18447 2.3326-0.45117 4.1992 0 0.16667-0.066 0.5-0.19922 1-0.033 0.4 0.28252 0.54922 0.94922 0.44922 0.3-0.0333 0.76709-0.16511 1.4004-0.39844 4.0333-0.73333 6.8667-1.15 8.5-1.25 1.8333-0.13333 4.2326-0.05 7.1992 0.25 2.1 0.23333 3.4004 0.4 3.9004 0.5 1.4333 0.23333 2.7008 0.54922 3.8008 0.94922l0.29883 0.0508-0.25 0.29883-5.2988 3.8496c-1.6333 1.2667-3.7496 2.5167-6.3496 3.75-0.7 0.33333-2.4171 1-5.1504 2-1.2 0.3-2.1012 0.5345-2.7012 0.70117-0.4333 0.16667-0.69883 0.34883-0.79883 0.54883-0.067 0.1-0.0838 0.21823-0.0508 0.35156 0.033 0.16667 0.1167 0.28294 0.25 0.34961 2.8 1.6333 4.3329 2.5326 4.5996 2.6992 1.8 1.1333 3.1004 2.1333 3.9004 3 2.4333 2.4333 4.2512 4.7841 5.4512 7.0508 0.1 0.2 0.1833 0.29883 0.25 0.29883l0.0996-0.0488c0.1333-0.1 0.18369-0.26667 0.15039-0.5-0.2333-1-0.86709-2.1512-1.9004-3.4512-1.5333-2-2.9675-3.5659-4.3008-4.6992-2.3666-1.9667-4.7659-3.55-7.1992-4.75 0.1667-0.23333 0.4167-0.36706 0.75-0.40039 0.1667-0.0333 0.43213-0.0663 0.79883-0.0996 2.5667-0.66667 4.9504-1.5329 7.1504-2.5996 2-0.93333 3.7345-1.9178 5.2012-2.9512 2.7-2 4.7329-3.5 6.0996-4.5 0.3-0.26667 0.48213-0.44883 0.54883-0.54883 0.1667-0.2 0.23447-0.45 0.20117-0.75-0.033-0.13333-0.13408-0.23411-0.30078-0.30078-3.2333-0.8-5.6829-1.3155-7.3496-1.5488-3.1667-0.43333-5.6841-0.6-7.5508-0.5-2.3 0.1-4.3659 0.26667-6.1992 0.5-1.9667 0.43333-3.4337 0.74922-4.4004 0.94922-0.2 0.1-0.34922 0.15039-0.44922 0.15039-0.1667 0-0.23447-0.16667-0.20117-0.5 0.2-1.9333 0.38408-3.3674 0.55078-4.3008v-0.79883c0.033-0.33333 0.13408-0.5 0.30078-0.5l4.0488 0.44922c1.7667 0.2 3.35 0.0837 4.75-0.34961 0.5-0.13333 0.78291-0.21667 0.84961-0.25 0.3333-0.16667 0.43408-0.41667 0.30078-0.75-0.8-1.9-2.0171-3.8012-3.6504-5.7012-1.5333-1.7333-2.3163-2.6151-2.3496-2.6484-0.5-0.63333-1.6008-1.5674-3.3008-2.8008-0.5333-0.26667-0.88213-0.49922-1.0488-0.69922-0.2667-0.3-0.085-0.68372 0.54883-1.1504 0.1333-0.1 0.40078-0.38294 0.80078-0.84961 1.0667-1.1 2.1325-2.4682 3.1992-4.1016 0.5667-0.86667 1.4504-2.3667 2.6504-4.5 1.1-1.9 2.2163-4.3496 3.3496-7.3496 0.4-1.0333 0.084-1.4829-0.94922-1.3496-0.2667 0.0333-0.70078 0.0663-1.3008 0.0996-0.5667 0-1.0163 0.0329-1.3496 0.0996-2.9 0.6-5.4329 1.5341-7.5996 2.8008-2.7667 1.6333-5.2008 3.5171-7.3008 5.6504l-0.19922 0.15039-0.0508-0.25c0.067-1.9 7.8e-4 -3.3341-0.19922-4.3008-0.3333-2.2-0.61631-3.8492-0.84961-4.9492l-1.3496-5.1016c-0.6667-2.5-1.2016-4.3488-1.6016-5.5488-0.3333-0.93333-0.89922-2.2996-1.6992-4.0996-0.2667-0.5-0.5167-0.7345-0.75-0.70117zm60.449 4.7012 0.30078 0.0996c0.2667 0.1 0.6833 0.31706 1.25 0.65039 0.057 0.0342 0.088 0.0368 0.14258 0.0684l0.0566 0.0312h-0.0488c0.166 0.0872 0.24019 0.0826 0.40039 0.16406 0.2387 0.11847 0.51272 0.27999 0.69922 0.33594 0.2333 0.0667 0.38252 0.31667 0.44922 0.75 0.067 0.63333 0.10156 0.96667 0.10156 1 0.3333 0.86667 0.5833 1.8337 0.75 2.9004 0.033 0.23333-0.067 0.46589-0.30078 0.69922-0.3333 0.3-0.53291 0.49961-0.59961 0.59961-0.2667 0.53333-0.7667 1.3008-1.5 2.3008-0.2333 0.33333-0.50078 0.5-0.80078 0.5-0.9667 0.0333-2.1488 0.14961-3.5488 0.34961l-3.5 0.55078c-1.4333 0.2-3.1504 0.56628-5.1504 1.0996-0.8333 0.2-1.9671 0.54883-3.4004 1.0488-0.033 0-0.13408 0.13372-0.30078 0.40039 0.3 0.2 0.48408 0.30078 0.55078 0.30078 3.9 0.0667 6.4833 0.0667 7.75 0 0.1667 0 1.1008-0.0833 2.8008-0.25 1.1333-0.1 2.0829-0.13303 2.8496-0.0996-0.9333 1.4667-1.4333 2.2651-1.5 2.3984-0.1667 0.5-0.48447 0.81784-0.95117 0.95117l-1.25 0.15039c-1.2 0.26667-2.1651 0.31511-2.8984 0.14844-0.5333-0.1-1.2349-0.13303-2.1016-0.0996-1.1 0.0333-1.8151 0.0333-2.1484 0-1.8333-0.1-4.3334-0.53216-7.5-1.2988-0.2667-0.0667-0.91787-0.28372-1.9512-0.65039-0.8-0.3-1.4667-0.48411-2-0.55078l-0.19922-0.0996c0.4333-0.43333 0.69883-0.68333 0.79883-0.75 1.5333-0.93333 3.9345-2.0671 7.2012-3.4004 1.7333-0.66667 3.5996-1.2655 5.5996-1.7988 0.4-0.1 2.0841-0.36745 5.0508-0.80078 2.3-0.4 3.5151-0.59961 3.6484-0.59961h2.4004c0.3333 0 0.53291-0.0329 0.59961-0.0996 0.1333-0.1 0.1333-0.30156 0-0.60156-0.7667-1.6333-1.35-3.6818-1.75-6.1484zm3.9004 1.7988c0.8667 0.56667 1.3841 1.1829 1.5508 1.8496 0.1667 0.7-0.068 1.3182-0.70117 1.8516zm-3.5488 8.9004c0.033-0.0333 0.2-0.0159 0.5 0.0508l-0.20117 0.34961c-0.3 0.66667-0.74961 1.1163-1.3496 1.3496-0.4333 0.16667-1.1 0.25-2 0.25-2.8 0.36667-4.9008 0.46745-6.3008 0.30078-1.1667 0.0667-2.0329 0.0667-2.5996 0 0.5333-0.1 1.4345-0.30156 2.7012-0.60156 1.1333-0.3 2.0325-0.48216 2.6992-0.54883 1.2333-0.13333 3.0667-0.45117 5.5-0.95117 0.4667 0.0333 0.81748-0.0326 1.0508-0.19922zm19.6 2.0508c0.106-5e-3 0.20483 0.0108 0.29883 0.0488 0.088 0.0629 0.15627 0.1307 0.20117 0.20117l0.0996 0.19925v0.0508c0.054 0.12737 0.1605 0.2686 0.2168 0.39649l1.5332 3.2519c0.033 0.0667 0.0508 0.1345 0.0508 0.20117 0 0.0333-0.05 0.0333-0.15039 0-1.4-0.0667-2.4504-0.15-3.1504-0.25-0.5333-0.1-0.95-1e-3 -1.25 0.29883-0.1 0.1-0.034 0.3849 0.19922 0.85156 0.5667 1.3333 1.0841 3.3992 1.5508 6.1992l0.59961 3.3496c0.2333 1.3333 0.38447 2.4671 0.45117 3.4004 0.1333 3.4 0.065 5.8167-0.20117 7.25-0.033 0.0667-6.9e-4 0.23333 0.0996 0.5-0.9333-0.3-1.85-0.85039-2.75-1.6504-0.4-0.36667-1.1151-1.1496-2.1484-2.3496-2.4333-2.7333-4.5516-6.0009-6.3516-9.8008-0.033-0.23333-0.0656-0.4-0.0996-0.5-0.067-0.23333-0.18291-0.33216-0.34961-0.29883-0.2 0.0333-0.50039 0.33373-0.90039 0.90039-0.9 1.5-2.1655 3.0659-3.7988 4.6992-1.8 1.8-3.2167 3.0829-4.25 3.8496-3.3667 2.3333-5.6845 3.9012-6.9512 4.7012-0.7333 0.46667-1.65 0.99961-2.75 1.5996l-2.7988 1.5488-0.25 0.0508-0.10156-0.40039c0.3-1.3 0.83486-3.05 1.6016-5.25 0.5667-1.7667 1.0317-3.0671 1.3984-3.9004 0.4667-1.0333 1.1683-2.3667 2.1016-4 0.2-0.36667 1.1321-1.8163 2.7988-4.3496 0.4-0.66667 0.80117-1.25 1.2012-1.75 0.118-0.118 0.43254-0.12774 0.67774-0.17578 0.063 0.0114 0.10597 0.0735 0.17187 0.0762l4.9336-0.74023-0.0332 0.14062-8.6016 11.6c-0.3333 0.46667-0.51553 0.73411-0.54883 0.80078-0.1667 0.3-0.19931 0.59844-0.0996 0.89844 0.7667-0.33333 1.2163-0.56589 1.3496-0.69922 2.4666-2.1667 4.4822-4.0329 6.0488-5.5996 2.1333-2.1667 4.6004-4.9845 7.4004-8.4512 0.4667-0.53333 1.3679-0.86667 2.7012-1 0.033 0 0.24844 0.4845 0.64844 1.4512 1.5333 3.3333 2.8667 5.9167 4 7.75l3.0508 4.9492c0.033 0.0667 0.099 0.11706 0.19922 0.15039 0.067 0.0333 0.11709 0.0333 0.15039 0 0.3-0.4 0.43369-0.66745 0.40039-0.80078-1.1333-3.8-2.05-6.6333-2.75-8.5-0.4667-1.2333-1.3659-3.3322-2.6992-6.2988-0.033-0.0667-0.068-0.0996-0.10156-0.0996 0-0.0667 0.05-0.11706 0.15039-0.15039 1.0314-0.55202 1.8462-1.1972 2.7891-1.7871 0.2283-0.14515 0.24212-0.13811 0.51172-0.3125l1.0996-0.70117c0.1802-0.1128 0.19802-0.14374 0.35742-0.24609 0.5185-0.36326 1.1549-0.67627 1.6426-1.0527l0.37305-0.24023c0.01-2e-3 0.0183-9e-3 0.0273-0.01zm-7.5996 5.0488c0.2667 0.16667 0.53213 0.63372 0.79883 1.4004 0.3 0.86667 0.81748 2.1341 1.5508 3.8008 0.2667 0.7 0.88291 2.5818 1.8496 5.6484 0.033 0.1 0.099 0.21823 0.19922 0.35156 0.067 0.16667 0.0512 0.33333-0.0488 0.5-1.6-2.5667-2.6175-4.2508-3.0508-5.0508l-3-6c-0.033-0.0667-0.033-0.11706 0-0.15039l0.15039-0.0488c0.6333-0.56666 1.1508-0.71784 1.5508-0.45117zm-6.1504 2.0996c-2.8 3.2333-4.6663 5.3671-5.5996 6.4004-2.1 2.2667-4.1 4.1678-6 5.7012l6.1992-8.0508c0.5667-0.76667 0.9833-1.3326 1.25-1.6992 0.5-0.66666 0.96709-1.1841 1.4004-1.5508 0.2333-0.2 0.61709-0.34922 1.1504-0.44922h0.0488c0.029-3e-3 0.099-0.0357 0.12891-0.0391 0.3357-0.0694 0.76997-0.16435 1.4219-0.3125zm-74.15 11.4c-0.3-0.13333-0.53252-0.0655-0.69922 0.20117-0.067 0.1-0.0512 0.21628 0.0488 0.34961 0.067 0.13333 0.15 0.19922 0.25 0.19922l0.40039 0.0508c0.2333 0.0667 0.66748 0.23333 1.3008 0.5 0.5 0.2 0.93213 0.31628 1.2988 0.34961 0.3 0 0.65078 0.10078 1.0508 0.30078 0.2333 0.1 0.58213 0.26667 1.0488 0.5-2.2333 1.1-3.7992 1.9663-4.6992 2.5996l-0.30078 0.25c-0.067 0.0667-0.18291 0.15-0.34961 0.25-0.1333 0.1-0.16591 0.23372-0.0996 0.40039 0.1667 0.26667 0.4167 0.26667 0.75 0h0.0508c2.3666-1.4333 4.0663-2.3674 5.0996-2.8008 0.4333-0.23333 0.69883-0.48333 0.79883-0.75 0.033-0.13333-0.19922-0.28255-0.69922-0.44922l-5.1992-1.9512zm21.15 0 0.29883 0.15039c2.0667 1.1667 4.3516 3.2171 6.8516 6.1504 0.9667 1.1333 2.0325 2.8155 3.1992 5.0488-1.8667 0.43333-3.3996 0.51667-4.5996 0.25-0.6-0.13333-1.5671-0.19922-2.9004-0.19922-0.8667-0.0333-1.3841-0.13411-1.5508-0.30078-0.1333-0.2-0.1333-0.7155 0-1.5488s0.10069-1.4671-0.0996-1.9004c-0.033-0.0667-0.0488-0.18294-0.0488-0.34961 0.033-0.16667 0.0656-0.25 0.0996-0.25h0.79883c0.8667 0.1 2.1167 0.46628 3.75 1.0996 0.2333 0.0667 0.41748 0.0337 0.55078-0.0996 0.067-0.1-0.034-0.28411-0.30078-0.55078-0.5-0.56667-1.1821-1.1171-2.0488-1.6504-0.1-0.0667-0.88301-0.49883-2.3496-1.2988-0.3667-0.2-0.60117-0.51784-0.70117-0.95117 0-0.53333-0.0326-0.91511-0.0996-1.1484-0.1333-0.5-0.40078-1.1841-0.80078-2.0508zm-10.551 5.2012h4.3008c0.4 0 0.51631 0.19961 0.34961 0.59961-0.5333 1.1-0.93252 1.7996-1.1992 2.0996-0.2 0.26667-0.48486 0.36745-0.85156 0.30078l-0.89844-0.30078c-0.7-0.26667-1.2349-0.45078-1.6016-0.55078-0.3333-0.1-0.53291-0.33255-0.59961-0.69922-0.1-0.46667-0.19883-0.74961-0.29883-0.84961 0.1667-0.33333 0.43213-0.53294 0.79883-0.59961zm11.9 0 0.19922 0.19922 1.9004 1.0508-2.0996-0.30078c-0.2-0.0333-0.25039-0.31628-0.15039-0.84961 0.033-0.13333 0.084-0.16637 0.15039-0.0996zm-3.8008 2.5488c-0.033-0.0333-0.14961 0.05-0.34961 0.25-0.2667 0.63333-0.66592 1.5674-1.1992 2.8008-0.6 1.7-1.4837 4.2504-2.6504 7.6504-0.4667 1.2333-1.2167 3.6655-2.25 7.2988-2.4333-2.3-4.7996-4.2496-7.0996-5.8496l-5.0996-3.4004h-0.0508c-0.1-0.0667-0.21631-0.0667-0.34961 0-0.1333 0.1-0.23408 0.15039-0.30078 0.15039-0.067 0-0.13252 0.14922-0.19922 0.44922-0.1 0.4-0.05 0.75078 0.15039 1.0508 0.1 0.16667 0.33252 0.38372 0.69922 0.65039l4.5 4.4492c1.3667 1.3 2.2504 2.2496 2.6504 2.8496 0.067 0.1 0.45039 0.26667 1.1504 0.5 0.4667 0.33333 0.2167 0.70156-0.75 1.1016-0.4 0.16667-0.66748 0.23255-0.80078 0.19922-0.1667-0.0333-0.44961 0.0675-0.84961 0.30078-0.3 0.2-0.53447 0.18273-0.70117-0.0508-0.4333-0.66667-1.2996-1.8004-2.5996-3.4004-1.1-1.4-1.9333-2.5492-2.5-3.4492l-0.09959-0.15037c-0.4-0.63333-0.75078-0.86589-1.0508-0.69922-0.2 0.13333-0.21553 0.3155-0.0488 0.54883 0.1 0.16667 0.2667 0.38372 0.5 0.65039l0.59961 1.0508c1.3667 2.1333 2.7659 3.8833 4.1992 5.25 0.067 0.0667 0.18486 0.1655 0.35156 0.29883 0.1 0.16667-0.018 0.31784-0.35156 0.45117l-4.4492 1.6992-0.40039 0.25c0.1667 0.23333 0.28291 0.34961 0.34961 0.34961l0.30078 0.0508 0.65039-0.0996c0.8667-0.3 2.1671-0.76706 3.9004-1.4004 1.5333-0.53333 2.8667-0.9345 4-1.2012 0.4333-0.1 0.74922-0.19883 0.94922-0.29883 0.3333-0.2 0.28291-0.50039-0.15039-0.90039-2-2.0667-3.5155-3.5996-4.5488-4.5996-1-0.96667-2.4671-2.4512-4.4004-4.4512-0.1333-0.0667-0.20117-0.15-0.20117-0.25 0-0.0667 0.035-0.11511 0.10156-0.14844 0.1-0.0667 0.16592-0.0841 0.19922-0.0508 0.3667 0.46667 0.89961 0.93372 1.5996 1.4004 0.3667 0.26667 0.95 0.63294 1.75 1.0996 3.4 2.2333 6.1171 4.3671 8.1504 6.4004 0.2333 0.16667 0.36709 0.25 0.40039 0.25 0.1667 0.0667 0.28291-0.0496 0.34961-0.34961l5.3496-15.75c0.033 0.83333-0.033 1.8333-0.19922 3-0.4 2.9333-0.66748 4.7163-0.80078 5.3496l-1.4492 6.5c-0.1 0.5 0.082 0.68216 0.54883 0.54883 3.1333-0.93333 5.6837-1.5167 7.6504-1.75 0.3-0.0333 1.5675-0.2155 3.8008-0.54883l3.6992-0.5 0.0508 0.19922c-0.8667 0.36667-1.5333 0.58372-2 0.65039-1.0333 0.16667-3.0508 0.61628-6.0508 1.3496-2.5 0.73333-4.3837 1.2837-5.6504 1.6504-0.3667 0.0667-0.63213 0.13255-0.79883 0.19922-0.3333 0.1-0.55039 0.25117-0.65039 0.45117-0.1 0.23333-0.034 0.45039 0.19922 0.65039 0.1333 0.1 0.35039 0.24922 0.65039 0.44922l1.0508 0.69922c2.2333 1.4667 5.1829 3.8 8.8496 7l5.8496 5.0508 0.0996 0.15039c0.2 0.2 0.45 0.56628 0.75 1.0996-0.1667 0-0.31592-0.0833-0.44922-0.25-0.1667-0.26667-0.28291-0.41589-0.34961-0.44922l-0.34961-0.10156c-1.0333-0.86667-2.3667-1.8667-4-3-1.8333-1.2333-3.2016-2.1655-4.1016-2.7988-0.6333-0.43333-1.5325-1.0167-2.6992-1.75-1.2667-0.76667-2.1659-1.3345-2.6992-1.7012-2.6-1.5667-4.5516-2.7488-5.8516-3.5488-0.5333-0.36667-0.93252-0.30078-1.1992 0.19922l-6.75 13.5c-0.033 0.0333-0.13408 0.10117-0.30078 0.20117l-0.14844-0.40039 4.2988-12.051c0.067-0.2 0.0344-0.33372-0.0996-0.40039-0.1667-0.16667-0.30039-0.21511-0.40039-0.14844-1.6333 0.6-2.9492 1.1329-3.9492 1.5996-2.3 0.96667-3.8504 1.8659-4.6504 2.6992l-0.25 0.30078c-0.1667 0.2-0.21709 0.33372-0.15039 0.40039 0.067 0.13333 0.16748 0.16637 0.30078 0.0996l0.0996-0.0996 2.8496-1.5c0.067 0.2 0.0838 0.34922 0.0508 0.44922-0.2333 0.96667-0.41748 2.4337-0.55078 4.4004-0.067 0.56667-0.15 2.3496-0.25 5.3496 0 0.1-0.0158 0.23372-0.0488 0.40039 0.033 0.16667 0.1167 0.25 0.25 0.25 0.4333 0 0.64844-0.23451 0.64844-0.70117l-0.0488-0.14844c-0.033-1.2667 0.033-2.7512 0.19922-4.4512 0.2667-1.9667 0.45078-3.4492 0.55078-4.4492 0-0.46667 0.0148-0.81745 0.0488-1.0508 0.067-0.43333 0.2333-0.71628 0.5-0.84961 0.7667-0.4 1.9837-0.9 3.6504-1.5h0.20117c0.1 0.1 0.1 0.15039 0 0.15039l-2.75 6.6992c-0.2 0.46667-0.43447 1.2671-0.70117 2.4004-0.2667 1.0333-0.53213 1.8163-0.79883 2.3496-0.1 0.2-0.15039 0.41706-0.15039 0.65039 0.067 0.33333 0.20039 0.56589 0.40039 0.69922 0.2667 0.16667 0.54961 0.25 0.84961 0.25 0.3333 0 0.59883-0.16667 0.79883-0.5 0.5333-1.1333 0.95-1.9822 1.25-2.5488l2.3007-4.8496c1.6-3.3 2.4508-5.0345 2.5508-5.2012 0.1333-0.46667 0.26514-0.8 0.39844-1 0.2333-0.33333 0.63447-0.31607 1.2012 0.0508 0.9333 0.63333 2.3829 1.4822 4.3496 2.5488 3.8 2.4 6.6159 4.2333 8.4492 5.5 1.7 1.1333 4.2175 2.9008 7.5508 5.3008 0.3 0.2 0.53252 0.30078 0.69922 0.30078 0.1333 0 0.25156-0.0504 0.35156-0.15039 0.2667-0.3 0.23174-0.65078-0.10156-1.0508l-3.6484-4c-0.8667-0.8-2.9849-2.6488-6.3516-5.5488-2.3333-2-4.2325-3.4341-5.6992-4.3008l-0.90039-0.65039c0.4-0.3 0.61709-0.44922 0.65039-0.44922 0.1667-0.0667 1.3004-0.41745 3.4004-1.0508l7.9492-2.1504c0.4667-0.13333 1.7671-0.55 3.9004-1.25 1.6-0.5 2.9159-0.83333 3.9492-1 0.2667-0.0667 0.40039-0.19844 0.40039-0.39844 0-0.16667-0.14922-0.25-0.44922-0.25l-10.25 0.64844c-2.3667 0.43333-4.1496 0.75117-5.3496 0.95117l-5.75 1.1504 0.0488-0.70117c0.5333-1.8 0.89961-3.1663 1.0996-4.0996 0.3667-2.3 0.66709-4.0171 0.90039-5.1504 0.3667-1.9667 0.55078-4.1488 0.55078-6.5488 0-0.23333-0.15117-0.3845-0.45117-0.45117zm-12.449 0.25 1.0508 7.7012v0.54883c-2.8667-2.2667-5.2504-3.9004-7.1504-4.9004-0.033 0-0.084-0.0329-0.15039-0.0996v-0.0488l0.25-0.20117c2.1-0.96667 3.4333-1.5655 4-1.7988 0.1-0.0333 0.35-0.21745 0.75-0.55078 0.3333-0.23333 0.63369-0.36706 0.90039-0.40039 0.067 0 0.18291-0.0833 0.34961-0.25zm4.0996 0.20117 1.3496 0.44922c0.1667 0.0333 0.38369 0.11667 0.65039 0.25 0.4667 0.1 0.74961 0.20078 0.84961 0.30078 0.1333 0.16667 0.05 0.46511-0.25 0.89844-0.2667 0.4-0.53213 0.91745-0.79883 1.5508-0.1667 0.36667-0.4167 0.95-0.75 1.75l-0.95117-3.5996c-0.067-0.23333-0.0996-0.76628-0.0996-1.5996zm3.5508 27.85c-0.3667 0.0333-0.6167 0.16706-0.75 0.40039l-2 2.5996c-1.8667 2.3333-3.3337 4-4.4004 5-0.033 0.0667-0.099 0.13255-0.19922 0.19922-0.067 0.1-0.0512 0.21628 0.0488 0.34961l0.20117 0.10156 0.29883-0.15039c1.0667-0.8 2.1345-1.8174 3.2012-3.0508 1-1.3667 1.7829-2.3667 2.3496-3 0.1667-0.46667 0.3333-0.8155 0.5-1.0488 0.2667-0.43333 0.6833-0.4506 1.25-0.0508l0.40039 0.34961c3.6333 2.2 5.8833 3.5178 6.75 3.9512 2.2666 1.2 4.4159 2.0992 6.4492 2.6992l0.15039 0.0508c0.1333 0 0.31553-0.11823 0.54883-0.35156-0.1667-0.16667-0.28291-0.2655-0.34961-0.29883l-2.4492-1.0508c-1.4-0.53333-2.933-1.2833-4.5996-2.25-0.5333-0.3-2.0004-1.1837-4.4004-2.6504z"/>
 <g transform="translate(-326.3 -563.5)">
  <path transform="translate(160.15,84.1)" d="m171.15 479.4c-3.3333 0-5 1.6667-5 5v158.2c0 3.3333 1.6667 5 5 5h93.199c3.3333 0 5-1.6667 5-5v-158.2c0-3.3333-1.6667-5-5-5zm8.2988 7.1992h76.6c4.6667 0 7 2.3333 7 7v139.8c0 4.6667-2.3333 7-7 7h-76.6c-4.6667 0-7-2.3333-7-7v-139.8c0-4.6667 2.3333-7 7-7z" fill="#ef1d1e"/>
  <path transform="translate(160.15,84.1)" d="m179.45 486.6c-4.6667 0-7 2.3333-7 7v139.8c0 4.6667 2.3333 7 7 7h76.6c4.6667 0 7-2.3333 7-7v-139.8c0-4.6667-2.3333-7-7-7z" fill="none" stroke="#000" stroke-width="1.2"/>
 </g>
</svg>
