<svg width="103.2" height="168.2" preserveAspectRatio="none" version="1.1" viewBox="0 0 103.2 168.2" xmlns="http://www.w3.org/2000/svg">
 <path d="m13.299 7.1992c-4.6667 0-7 2.3333-7 7v139.8c0 4.6667 2.3333 7 7 7h76.6c4.6667 0 7-2.3333 7-7v-139.8c0-4.6667-2.3333-7-7-7z" fill="#fff"/>
 <path d="m58.398 96.551c-1.097 7e-3 -2.097 0.23962-3 0.69922-0.17604 0.0995-0.6082 0.36693-1.2988 0.80078l-0.65039 0.5c-0.0167 8e-3 -0.0341 8e-3 -0.0508 0l-3.3496 2c-0.18724 0.19805-0.32096 0.36471-0.40039 0.5-0.0392 0.10039-0.10509 0.16628-0.19922 0.19922-0.0682 0.0667-0.15156 0.0996-0.25 0.0996-0.19635 0.0175-0.34557 0.0679-0.44922 0.15039-0.0303 0.029-0.0652 0.0464-0.10156 0.0508-0.23411 0.15781-0.36589 0.33998-0.39844 0.54883-7e-3 0.0247-0.0241 0.0422-0.0508 0.0508-0.047 0.27097 3e-3 0.50352 0.15039 0.69922 0.0288 0.0483 0.0443 0.0813 0.0488 0.0996 0.0608 0.0979 0.14413 0.18125 0.25 0.25 1.0214 0.67747 2.1047 1.1116 3.25 1.3008 0.12487 0.0182 0.22565 0.0686 0.30078 0.15039 0.0827 0.0854 0.13307 0.18425 0.15039 0.29883 0.0318 0.19675 0.14808 0.39831 0.34961 0.60156l1.0508 0.75v-0.0508c0.84883 0.57591 1.5155 1.1089 2 1.5996 0.94453 1.0323 2.0434 1.5497 3.2988 1.5508 0.62969-4e-3 1.496-0.18811 2.5996-0.55078h-0.0488c0.39336-0.11523 1.2422-0.36523 2.5488-0.75l2.8008-0.84961c1.6096-0.47396 2.7588-0.85768 3.4492-1.1504 0.98594-0.42761 2.17-1.0439 3.5508-1.8496l1.4004-0.75 0.44922-0.34961 0.0508-0.0508c0.0164-0.0176 0.0319-0.0331 0.0488-0.0488 0.16901-0.14765 0.25235-0.36471 0.25-0.65039 2e-3 -0.25013-0.0968-0.46719-0.29883-0.65039l-0.0508-0.0508c-0.13581-0.12903-0.31797-0.24531-0.54883-0.34961l-4.9004-2.4004h0.0488c-1.406-0.6138-3.0882-1.1138-5.0488-1.5l-0.5-0.0996c-1.434-0.32865-2.5852-0.51081-3.4512-0.54883zm-17.299 16.1c-0.22133 0.0169-0.42253 0.1186-0.60937 0.2793-0.19715 0.32158-0.30037 0.6452-0.29102 0.9707 0.0693 0.38268 0.10223 1.2819 0.0996 2.6992l-0.19922 4c-6e-3 0.0413-0.0234 0.0742-0.0508 0.0996l-0.69919 3.0508c-0.0861 0.43698 0.0477 0.75287 0.40039 0.94922 0.0171 0.025 0.0326 0.0424 0.0488 0.0508 0.14011 0.1 0.29128 0.15039 0.45117 0.15039 0.20638 5e-3 0.37305-0.0632 0.5-0.20117h0.0488l1.2012-0.89844c1.112-0.82304 1.9783-1.5401 2.5996-2.1504v0.0488c1.2017-1.2016 2.1688-2.4516 2.9004-3.75 0.037-0.0362 0.0699-0.0691 0.0996-0.0996l0.15039-0.15039c0.53164-0.79661 0.69831-1.4788 0.5-2.0488-0.2138-0.57305-0.7487-0.93932-1.6016-1.0996-0.0169-7e-3 -0.0324-0.0246-0.0488-0.0508l-0.15039-0.0508c-0.0257 9e-3 -0.0586 9e-3 -0.0996 0-0.17943-0.0991-0.37904-0.14753-0.59961-0.14844-0.0423-3e-3 -0.0927-0.0208-0.15039-0.0508l-0.20117-0.0508c-0.0179 0.0119-0.0508 0.0119-0.0996 0-0.17877-0.0949-0.41133-0.14336-0.69922-0.14844l-0.40037 0.0489c-0.0763 9e-3 -0.15963-7e-3 -0.25-0.0488-0.0505-0.0108-0.10092-0.0457-0.15039-0.10156l-0.29883-0.29883c-0.25287-0.18594-0.75287-0.43594-1.5-0.75h-0.05078l-0.30078-0.15039zm-0.60937 0.2793c6e-3 -0.01 4e-3 -0.0195 0.01-0.0293l-0.0508 0.0488c0.0125-0.0115 0.0283-9e-3 0.041-0.0195zm10.158 2.7207c-0.55911-0.0101-0.89245 0.23987-1 0.75h-0.0488c-0.073 0.38763-7e-3 0.72097 0.19922 1l1.9004 2.5c0.66537 0.98008 1.9812 2.1971 3.9492 3.6504 0.0552 0.0404 0.0901 0.0888 0.10156 0.14844h0.0488l0.75 0.55078c1.4035 1.0599 2.5198 1.7266 3.3496 2l0.40039 0.0508c0.18437-0.0111 0.35104-0.0789 0.5-0.20117 0.16107-0.12435 0.26185-0.27357 0.30078-0.44922 0.0139-0.0339 0.0294-0.0668 0.0488-0.0996 0.0548-0.13216 0.0548-0.28333 0-0.45117l-0.34961-1.6992c-0.45794-2.1887-0.84166-3.8398-1.1504-4.9512 3e-3 -0.0247 3e-3 -0.0577 0-0.0996v-0.19922c4e-3 -0.42617-0.0619-0.75951-0.19922-1v-0.0508c-0.27903-0.56914-0.76159-0.85208-1.4492-0.84961l-0.90039-0.0508-1.7012 0.10156-0.44922 0.14844c-0.10013 0.0634-0.21641 0.0634-0.34961 0l-0.40036-0.14844c-0.33307-0.10859-1.149-0.27526-2.4492-0.5l-0.90039-0.15039zm-47.5 9.1504-0.0488 0.0488 0.0156-2e-3c0.0213-8e-3 0.0108-0.0403 0.0332-0.0469zm-0.0332 0.0469c-0.38913 0.13716-0.61475 0.40279-0.61524 0.85156v9.4004c6.7e-4 0.16575 0.0162 0.28203 0.0488 0.34961 0.0257 0.0647 0.0431 0.11512 0.0508 0.15039l0.40039 3.0996c8e-3 0.11133-9e-3 0.21211-0.0508 0.30078-0.0392 0.0824-0.10509 0.14831-0.19922 0.19922-0.17057 0.14844-0.25391 0.3655-0.25 0.65039v16.201c-1e-3 0.27839 0.0645 0.49349 0.19922 0.64844 0.0734 0.0704 0.12383 0.15377 0.15039 0.25 0.0189 0.0927 1e-3 0.17604-0.0508 0.25l-0.19917 0.55076c9e-3 0.0337 9e-3 0.0512 0 0.0508-0.0665 0.14727-0.0995 0.29649-0.0996 0.44922v4.1992c0 0.22227 0.0659 0.42383 0.19922 0.60156 0.11237 0.14896 0.26159 0.23229 0.44922 0.25l0.30078 0.0488c0.34075-0.0294 0.59075-0.21156 0.75-0.54883v0.0488l0.75-1.5996v-0.0508c0.88463-1.6779 1.4854-3.11 1.8008-4.2988 0.0481-0.10911 0.11395-0.20989 0.19922-0.30078 0.1237-0.0512 0.23998-0.0667 0.34961-0.0488 0.13737 0.0198 0.23815 0.0682 0.30078 0.14844 2.6501 1.2624 4.5668 2.0957 5.75 2.5 2.5724 0.96822 4.9716 1.569 7.1992 1.8008h0.0508l1.9004 0.40039h0.19919c0.43659-0.0208 0.8707-0.2708 1.3008-0.75v0.0488c0.43672-0.61771 0.66927-0.96654 0.69922-1.0488 0.26725-0.53514 0.267-0.99876 0.0488-1.4023l-0.64844-0.84766c-1.5103-1.9357-3.7932-4.1198-6.8496-6.5508-0.94844-0.72279-1.7992-1.3216-2.5508-1.7988-0.10391-0.0423-0.18724-0.12567-0.25-0.25-0.0216-0.0914-0.0216-0.19219 0-0.30078 0.0531-0.11406 0.11902-0.21484 0.19922-0.30078l0.30081-0.19916h0.0508c0.58047-0.30925 1.096-0.64258 1.5488-1l0.90039-0.69922c2.3109-1.6812 4.0939-3.1328 5.3496-4.3516 1.2077-1.1753 2.4073-2.7412 3.5996-4.6992 0.0384-0.0359 0.0733-0.0689 0.10156-0.0996l0.14844-0.15039 0.45117-0.59961c0.28893-0.55781 0.23854-1.0423-0.15039-1.4512-0.25299-0.23451-0.60378-0.35078-1.0508-0.34961-0.34232 1.3e-4 -0.64076 0.0331-0.89844 0.0996-0.0254 0.0273-0.0603 0.0448-0.10156 0.0508l-6.0488 0.90039c-1.5642 0.32695-3.0138 0.66029-4.3496 1l-6.75 1.7988c-0.0846 0.0483-0.18541 0.0483-0.30078 0-0.0776-0.025-0.14349-0.0909-0.19922-0.19922-0.0635-0.0661-0.0984-0.14947-0.10156-0.25-1e-3 -1.1394-0.0672-2.1898-0.19922-3.1504-0.49258-3.7557-1.4267-6.9379-2.8008-9.5488-0.15951-0.30443-0.39206-0.47109-0.69922-0.5zm21.633 33.4 2e-3 2e-3v-0.0508c8e-3 0.0139-0.01 0.0348-2e-3 0.0488z" fill="#faea01"/>
 <path d="m78.1 43.801c-0.43333 0.0333-0.75117 0.23294-0.95117 0.59961-0.26667 0.36667-0.29967 0.76589-0.0996 1.1992 0.0333 0.0333 0.0508 0.0837 0.0508 0.15039l0.0488 0.55078c0.4 2.5667 1.2682 5.1984 2.6016 7.8984 1.4 3 2.8826 5.4012 4.4492 7.2012l0.90039 1c0.0667 0.0667 0.0996 0.1655 0.0996 0.29883 0 0.1-0.0329 0.20078-0.0996 0.30078s-0.15 0.16589-0.25 0.19922c-1.7667 0.46666-3.9004 1.2167-6.4004 2.25-1.8667 0.7-3.7833 1.5682-5.75 2.6016-2.0333 1.1-4.0333 2.383-6 3.8496h-0.0508l-2.5 2.1504c-1.3 1.1333-2.2826 1.9318-2.9492 2.3984-0.16667 0.13333-0.28294 0.25156-0.34961 0.35156l-0.0996 0.0996c-0.16667 0.2-0.21706 0.43255-0.15039 0.69922v0.0508c0.0333 0.23333 0.18255 0.43294 0.44922 0.59961l0.0508 0.0508c0.1 0.0667 0.28216 0.15 0.54883 0.25l-0.0488-0.0508 5.25 0.80078 1.9004 0.0996c1.7 0.13333 2.9326 0.19922 3.6992 0.19922h0.30078c3.1667-0.0667 5.5659-0.21589 7.1992-0.44922 1.4333-0.16667 3.4159-0.51745 5.9492-1.0508v0.0508l2.3008-0.55078c0.1-0.0667 0.21628-0.0667 0.34961 0 0.1 0.0667 0.18333 0.16745 0.25 0.30078 0.0333 0.1 0.0178 0.21628-0.0488 0.34961-0.4 0.96667-0.9349 2.5674-1.6016 4.8008l-0.34961 1.0996c-0.83333 2.8667-1.3663 5.0004-1.5996 6.4004-0.56667 3.3-0.83411 6.0655-0.80078 8.2988l0.05071 1.3496c0.0333 0.33333 0.2 0.56784 0.5 0.70117h0.0508c0.1 0.0667 0.21628 0.0996 0.34961 0.0996 0.16667 0 0.34883-0.0504 0.54883-0.15039l0.25-0.15039h-0.0488c0.5-0.4 0.7655-0.61511 0.79883-0.64844l1.8516-1.8516c2.4333-2.3667 4.1833-4.2484 5.25-5.6484h0.0488l3.3008-4h0.0488c1.3-1.7667 2.2012-3.1678 2.7012-4.2012 0-0.0333 0.0155-0.0663 0.0488-0.0996 0.0667-0.1 0.10156-0.26667 0.10156-0.5v-8.5508c-0.0667-0.1-0.10156-0.18333-0.10156-0.25 0-0.1 0.0174-0.18333 0.0508-0.25 0.0333-0.1 0.0508-0.23177 0.0508-0.39844v-4.6504c0-0.2-0.0349-0.35117-0.10156-0.45117-0.0667-0.0667-0.11511-0.15-0.14844-0.25 0-0.13333 0.0155-0.23216 0.0488-0.29883 0.0667-0.13333 0.0996-0.2845 0.0996-0.45117v-0.29883c0-0.1 0.0349-0.18333 0.10156-0.25v-4.2012l-0.0508-0.39844v-0.10156l0.0508-0.39844v-8.0508c0-0.33333-0.15117-0.58333-0.45118-0.75l-3.5-2.3496c-2.1333-1.3-4.1004-2.3329-5.9004-3.0996l-1.75-0.75c-2.1333-0.9-3.4492-1.4349-3.9492-1.6016-0.76667-0.33333-1.8829-0.71511-3.3496-1.1484l-2.5508-0.85156h0.0508zm-71.25 0.59961c-0.2 0-0.35117 0.0329-0.45117 0.0996-0.0333 0.0333-0.0488 0.0663-0.0488 0.0996-0.3 0.16667-0.43372 0.43411-0.40039 0.80078l0.0996 1.2988c0.16667 1.8333 0.40117 3.4012 0.70117 4.7012v-0.0508c0.2 0.7 0.38216 1.5837 0.54883 2.6504l0.55078 2.4004c0.33333 1.5333 1.1337 3.8492 2.4004 6.9492l0.14844 0.5 0.85156 1.9004c0.0667 0.1 0.0822 0.21628 0.0488 0.34961-0.0667 0.13333-0.15 0.23411-0.25 0.30078-2.0333 1.2333-3.9655 2.7488-5.7988 4.5488h0.0488l-2.5488 2.75h-0.05074c-0.16667 0.16667-0.25 0.36823-0.25 0.60156v4.7988c0 0.23333 0.10078 0.45039 0.30078 0.65039 0.16667 0.16667 0.38177 0.25 0.64844 0.25l0.55078 0.0508c0.0333-0.0333 0.0837-0.0508 0.15039-0.0508h2.8496c1.5 0 2.6667-0.0659 3.5-0.19922l2.8008-0.40039c0.1 0 0.19883 0.0329 0.29883 0.0996 0.1 0.0333 0.18333 0.11667 0.25 0.25 0.0333 0.1 0.0333 0.21628 0 0.34961-1 2.8-1.5504 5.0345-1.6504 6.7012-0.0667 0.56667-0.0996 1.3826-0.0996 2.4492l-0.0996 2.6992c0 0.26667 0.13372 0.50117 0.40039 0.70117 0.13333 0.0667 0.28255 0.11706 0.44922 0.15039l0.45117-0.10156 0.4492-0.19917-0.0508 0.0508c1.0333-0.73333 2.1012-1.5841 3.2012-2.5508v-0.0508l1.2988-1.0488v0.0488c0.93333-0.8 2.2512-2.333 3.9512-4.5996l1.5488-2.0488c0.0667-0.0667 0.15-0.11706 0.25-0.15039 0.0667-0.0667 0.15-0.0841 0.25-0.0508s0.18333 0.0837 0.25 0.15039c0.16667 0.1 0.35078 0.15039 0.55078 0.15039h0.15039c0.23333-0.0333 0.4155-0.13411 0.54883-0.30078 0.16667-0.3 0.26745-0.55 0.30078-0.75l0.0508-0.75c0-0.1 0.0329-0.18333 0.0996-0.25 0.0667-0.1 0.13255-0.16589 0.19922-0.19922 0.0667-0.0333 0.15-0.0508 0.25-0.0508l0.45117 0.0508h0.1484c1.7667 0.36667 3.5671 0.66706 5.4004 0.90039h0.20116c1.8667 0.26667 3.3163 0.39844 4.3496 0.39844l1.4004-0.0488c2.9667-0.26667 5.333-0.5845 7.0996-0.95117 0.76667-0.16667 1.6833-0.38177 2.75-0.64844l1.4004-0.40039c0.6-0.2 0.94883-0.53333 1.0488-1 0.0667-0.56667-0.16589-1.0337-0.69922-1.4004-0.0667-0.0333-0.11706-0.0663-0.15039-0.0996l-1.5-1.3496c-1.5333-1.3-2.6826-2.2167-3.4492-2.75-2.4-1.6333-4.65-2.8174-6.75-3.5508h-0.05072c-1.0333-0.43333-2.3337-0.74922-3.9004-0.94922-0.1 0-0.19883-0.0504-0.29883-0.15039-0.1-0.1-0.15039-0.20078-0.15039-0.30078s0.0329-0.19883 0.0996-0.29883c1.4333-2.3667 2.7337-5.3337 3.9004-8.9004 0.9-2.6333 1.2837-4.9163 1.1504-6.8496-0.0333-0.66666-3.3e-4 -1.4012 0.0996-2.2012l0.0488-1.1992c0-0.16667-0.0329-0.31784-0.0996-0.45117-0.0333-0.1-0.0488-0.18333-0.0488-0.25-0.0667-0.16667-0.18489-0.29844-0.35156-0.39844-0.2-0.1-0.33177-0.15039-0.39844-0.15039l-0.30077 0.09962h-0.0996l-0.30078 0.0996c-4.0333 2.1-7.5663 4.6678-10.6 7.7012-1.5333 1.5333-2.5992 2.7988-3.1992 3.7988-0.1 0.1-0.20078 0.16784-0.30078 0.20117-0.13333 0.0333-0.24961 0.0159-0.34961-0.0508-0.1-0.0333-0.18333-0.0992-0.25-0.19922l-0.0508-0.10156-2.9492-3.9492c-1.6333-2.1667-3.5345-4.1841-5.7012-6.0508-1.5333-1.3333-3.4151-2.533-5.6484-3.5996l-1.25-0.59958c-0.13333-0.0667-0.26706-0.0996-0.40039-0.0996zm20.049 79.75c-0.36667 0-0.64961 0.13372-0.84961 0.40039 0 0.0333-0.0155 0.0488-0.0488 0.0488-0.2 0.23333-0.26784 0.56667-0.20117 1l0.0996 0.20117v0.14844c0 0.26667 0.0504 0.51667 0.15039 0.75 0 0.0333 0.0174 0.0508 0.0508 0.0508l0.40039 1.25c0.76667 2.3333 1.35 3.9826 1.75 4.9492h0.0488c0.8 2.0333 1.9512 4.2504 3.4512 6.6504 0.93333 1.5 2.6155 3.7171 5.0488 6.6504l0.0508 0.0508 0.0996 0.14844c0.0333 0.0667 0.0508 0.15 0.0508 0.25 0 0.0667-0.0174 0.15-0.0508 0.25-0.0333 0.0667-0.0837 0.1345-0.15039 0.20117-2.5333 1.5333-5.1671 3.5333-7.9004 6-1.4 1.1667-3.0318 3.1163-4.8984 5.8496l-0.65039 0.90039c-0.3 0.36667-0.333 0.73294-0.0996 1.0996v0.0508c0.16667 0.36667 0.5 0.54883 1 0.54883h0.34961c1.9 0 4.6326-0.18216 8.1992-0.54883 1.1333-0.13333 2.7671-0.48411 4.9004-1.0508h-0.0508l2.0508-0.59961h0.0508c0.76667-0.23333 1.7492-0.66745 2.9492-1.3008h0.0508l0.29883-0.15039c0.1-0.0667 0.20078-0.0822 0.30078-0.0488 0.13333 0.0333 0.23216 0.0992 0.29883 0.19922 0.0667 0.0667 0.10156 0.16745 0.10156 0.30078 0 0.83333 0.0988 2.0155 0.29883 3.5488l0.0996 1v0.25c-0.0333 0.0667-0.0818 0.11706-0.14844 0.15039-0.1 0.13333-0.15039 0.3-0.15039 0.5v0.59961c0 0.23333 0.0833 0.43489 0.25 0.60156 0.2 0.16667 0.41706 0.25 0.65039 0.25h8.3496c0.26667 0 0.48372-0.0833 0.65039-0.25 0.16667-0.16667 0.25-0.36823 0.25-0.60156v-0.75l-0.0508-0.3985c0-0.1 0.0329-0.20078 0.0996-0.30078l1.5-2.6992c0.0333-0.1 0.10117-0.16784 0.20117-0.20117 0.0667-0.0333 0.1655-0.0488 0.29883-0.0488 0.1 0 0.18333 0.0484 0.25 0.14844l3.4004 3.2012 0.19922 0.15039c0.0667 0.0333 0.11706 0.0992 0.15039 0.19922 0.0333 0.0667 0.0508 0.13255 0.0508 0.19922v0.5c0 0.23333 0.0833 0.43489 0.25 0.60156 0.16667 0.16667 0.38372 0.25 0.65039 0.25h3.2988c0.26667 0 0.48372-0.0833 0.65039-0.25 0.16667-0.16667 0.25-0.36823 0.25-0.60156v-0.94925c0-0.4-0.18411-0.68294-0.55078-0.84961-0.0333-0.0333-0.0663-0.0508-0.0996-0.0508l-4.6504-4.1504c-0.13333-0.1-0.19922-0.21628-0.19922-0.34961s0.0329-0.24961 0.0996-0.34961c0.1-0.1 0.21628-0.16589 0.34961-0.19922 1.8-0.26667 4.2012-0.98372 7.2012-2.1504l0.25-0.0996c1.5-0.56666 2.6822-1.0841 3.5488-1.5508 1.3333-0.73333 2.4167-1.5996 3.25-2.5996h0.05075c0.2-0.23333 0.30078-0.50078 0.30078-0.80078v-0.0488c-0.0333-0.2-0.11667-0.38411-0.25-0.55078-0.0667-0.0333-0.11706-0.0663-0.15039-0.0996-0.2-0.2-0.39961-0.31628-0.59961-0.34961h-0.05078l-0.90039-0.30081c-1.3-0.4-2.2826-0.66745-2.9492-0.80078-0.83333-0.23333-1.8178-0.4155-2.9512-0.54883l-0.69922-0.0996c-1.1667-0.16667-2.2171-0.25-3.1504-0.25h-0.0488c-0.9 0-1.8012 0.0484-2.7012 0.14844-0.13333 0.0333-0.24961 3.3e-4 -0.34961-0.0996-0.1-0.1-0.16589-0.21628-0.19922-0.34961-0.0333-0.13333-3.3e-4 -0.24961 0.0996-0.34961 1.3667-1.7667 2.45-3.7512 3.25-5.9512 0.96667-2.9 1.4822-5.2818 1.5488-7.1484 0.0667-2.0667-0.13294-3.8516-0.59961-5.3516-0.0333-0.0333-0.0488-0.0818-0.0488-0.14844-0.13333-0.4-0.45117-0.60156-0.95117-0.60156h-0.09966c-0.4 0.0667-0.68294 0.26823-0.84961 0.60156-0.83333 1.5667-1.9845 3.0318-3.4512 4.3984-1.1 0.93333-2.5651 1.9682-4.3984 3.1016h0.0488c-0.73333 0.43333-2.0667 1.2822-4 2.5488l-1.25 0.80078c-0.13333 0.0333-0.24961 0.0488-0.34961 0.0488-0.13333-0.0333-0.23411-0.0818-0.30078-0.14844-1.3333-1.4667-2.3992-2.5345-3.1992-3.2012l-1.1504-1.0488c-2.2-2-3.95-3.4167-5.25-4.25h-0.0488l-0.05078-0.0508h-0.0508c-3.7-2.3333-6.3492-3.8663-7.9492-4.5996l-3.0996-1.3496c-0.23333-0.1-0.46784-0.15039-0.70117-0.15039z" fill="#ef1d1e"/>
 <path d="m16.949 1.9004c-0.2367 6e-3 -0.45379 0.10483-0.65039 0.29883-0.1678 0.17422-0.2512 0.39128-0.25 0.65039v0.80078c-0.01 0.50417 0.22847 0.80456 0.70117 0.90039 0.072 0.0284 0.13842 0.0613 0.19922 0.0996l0.19922 0.15039c0.038 0.0285 0.073 0.0615 0.10156 0.0996l0.14844 0.19922c0.8007 0.71069 1.8997 1.4443 2.8164 2.1641 0.7135 0.57474 1.1402 0.90952 2.0352 1.6367 0.2269 0.16732 0.33314 0.19464 0.55274 0.35352 0.4711 0.33519 0.80127 0.65901 1.2969 0.99609l0.0488 0.0508c0.4284 0.33021 1.5466 1.0124 3.3516 2.0488l0.39844 0.25c0.1143 0.0842 0.18217 0.18503 0.20117 0.30078 0.057 0.10833 0.057 0.20716 0 0.29883-0.028 0.12552-0.096 0.20885-0.20117 0.25-0.4621 0.27733-0.9985 0.91896-1.4707 1.2461-1.0691 0.70844-1.9931 1.1383-3.3281 2.3555-0.816 0.74179-1.8002 1.7834-2.7812 2.8184-0.1987 0.20613-0.36806 0.26692-0.56836 0.48047-0.078 0.0841-0.12858 0.21669-0.20508 0.30273-0.072 0.0783-0.12251 0.11753-0.19531 0.19727-0.6333 0.66667-1.5171 1.8837-2.6504 3.6504-0.1697 0.27149-0.28587 0.70165-0.44727 0.99805v2e-3l-0.25 0.5-0.0508 0.0508c-0.2394 0.43791-0.29231 0.77173-0.47461 1.1777-0.3198 0.73896-0.69391 1.315-0.97461 2.1719-0.028 0.0916 0.02 0.11453 0 0.19922-0.1251 0.53139-0.1725 0.99124 0 1.25 0.1333 0.2 0.44922 0.21727 0.94922 0.0508l5.4492-1.8496c1.4-0.5 3.5338-1.2674 6.4004-2.3008 1.1976-0.36118 2.0241-0.73952 2.9941-1.1113l1.4062-0.48828 0.25-0.0996c0.041-0.01 0.0736-0.027 0.0996-0.0508l0.59961-0.19922c0.1087-0.0235 0.20948-0.0235 0.30078 0 0.1258 0.0612 0.2091 0.14453 0.25 0.25 0.081 0.1013 0.11371 0.20013 0.0996 0.29883-0.06 0.36761-0.073 0.55561-0.1289 0.90625-0.034 0.1917-0.094 0.27145-0.1211 0.49414-0.2667 1-0.48369 2.2171-0.65039 3.6504-0.1 0.8-0.21631 1.9996-0.34961 3.5996-0.067 0.86667-0.18291 2.1341-0.34961 3.8008-0.1333 1.8-0.18369 3.1488-0.15039 4.0488 0.066 0.86023 0.21687 2.1751 0.44727 3.9219 0 0.0157-2e-4 0.0212 0 0.0371 0 0.16666-0.05 0.41237-0.14844 0.74219-0.033 0.26667 0.065 0.44883 0.29883 0.54883 0.1154 0.0444 0.26412-0.11868 0.38672-0.11914 0.01 4e-3 2e-3 0.0157 0.0156 0.0195 0.1357 0.0607 0.25201 0.0936 0.34961 0.0996 0.2328 1e-3 0.41698-0.0645 0.55078-0.19922h0.0508c2.256-1.7973 3.9226-3.3806 5-4.75 0.4061-0.50774 0.51589-0.68125 0.86719-1.127 0.2444-0.3093 0.59953-0.50235 0.83203-0.82422 0.3881-0.51159 0.59003-0.98388 0.95313-1.4902 0.288-0.38377 0.83857-1.0661 1.0469-1.3594 0.5587-0.81345 0.7199-1.3798 1.1875-2.1367 0.7082-1.148 1.6391-2.3427 2.2129-3.4629 0.1688-0.30788 0.46853-1.2608 0.66993-1.7285 0.037-0.0935 0.14458-0.23002 0.17968-0.32226 0.1-0.23895 0.32179-0.93961 0.45899-1.3203 0.3266-0.87105 0.5505-1.2431 0.9414-2.4297 0.1333-0.43333 0.36592-0.56511 0.69922-0.39844 0.3333 0.13333 0.78291 0.36589 1.3496 0.69922 0.3276 0.15121 1.0116 0.45223 1.7012 0.75586 0.3286 0.14641 0.42593 0.23753 0.79883 0.39453l1.9629 0.88281c0.01 5e-3 0.0281 0.0126 0.0371 0.0176 0.335 0.19851 1.1038 0.53662 1.582 0.78125 2.1749 1.1346 3.9803 2.1371 5.0195 2.8672l5.5488 3.8008c0.033 8e-3 0.0508 8e-3 0.0508 0 0.038 0.0279 0.10414 0.0209 0.14844 0.041 0.3585 0.27283 0.69875 0.43851 1.002 0.4082 0.1667-0.0333 0.19931-0.29883 0.0996-0.79883-0.01-0.0349-0.0165-0.0782-0.0215-0.11328 0.054-0.16313 0.22737-0.28934 0.17187-0.48633l-0.95117-3.7012c-0.5171-1.6921-1.1159-3.4576-1.7988-5.2988-0.2728-0.72148-0.75727-1.6382-1.4512-2.75l-0.65039-1.1016c-1.0045-1.7081-1.7371-2.8573-2.1992-3.4492l-0.59961-0.80078c-0.021-0.0274-0.0278-0.0315-0.0488-0.0586-0.1579-0.23634-0.18307-0.29001-0.35157-0.54101-0.5667-0.8-1.3671-1.6992-2.4004-2.6992l-2.4551-2.3164c-0.014-0.0458-0.0419-0.0824-0.0449-0.13476 0-0.0814 0.0148-0.16471 0.0508-0.25 0.064-0.0876 0.13022-0.15352 0.19922-0.19922 0.3986-0.19274 0.53746-0.26612 0.88086-0.43359 0.1167-0.0469 0.19731-0.0654 0.32031-0.11719 0.3667-0.16667 0.89961-0.43216 1.5996-0.79883 2.5-1.1333 4.25-1.9996 5.25-2.5996l4.5469-2.8008c0.086-0.0612 0.035-0.14636 0.10156-0.21094 0.051-0.0354 0.097-0.0542 0.14844-0.0898 0.085-0.0283 0.1686-0.0438 0.25-0.0488 0.1875-0.0177 0.33867-0.10107 0.45117-0.25v-0.0508c0.1646-0.1543 0.2479-0.33646 0.25-0.54883v-0.70117c0-0.26029-0.079-0.47734-0.25-0.65039-0.1966-0.19427-0.41369-0.2931-0.65039-0.29883zm60.6 42c-0.3333 0.2-0.48252 0.76589-0.44922 1.6992 0.033 1.4333 0.39961 2.9837 1.0996 4.6504 0.3 0.7 0.7167 1.7329 1.25 3.0996 0.5 1.1667 1 2.1512 1.5 2.9512 0.4667 0.7 1.1333 1.7659 2 3.1992 0.7667 1.2333 1.5167 2.2159 2.25 2.9492l0.34961 0.45117c-0.3667 0.26667-0.58369 0.40039-0.65039 0.40039-1.1 0.1-2.3151 0.38294-3.6484 0.84961-0.2667 0.1-1.4179 0.58255-3.4512 1.4492-4 1.6667-7.3333 3.4845-10 5.4512-1.6333 1.2333-3.9667 3.1984-7 5.8984-0.2 0.16667-0.31631 0.36823-0.34961 0.60156-0.067 0.26667 0.082 0.44883 0.44922 0.54883 2.3 0.53333 4.0016 0.86667 5.1016 1 1.9333 0.2 4.2318 0.33372 6.8984 0.40039 3.1 0.1 6.0167-0.0841 8.75-0.55078 2.9333-0.53333 4.8849-0.93255 5.8516-1.1992 0.2-0.0667 0.49844-0.20039 0.89844-0.40039 0.3667-0.16667 0.60117-0.21706 0.70117-0.15039 0.2333 0.2 0.24893 0.45 0.0488 0.75l-0.5 0.70117-1.75 5.25c-0.3667 1.1-0.84922 2.7667-1.4492 5-0.3 0.9-0.51709 2.2837-0.65039 4.1504-0.4333 2.7667-0.53213 5.35-0.29883 7.75 0 0.2 0.066 0.33177 0.19922 0.39844 0.1667 0.1 0.36631 0.0845 0.59961-0.0488 0.7-0.36667 1.4345-0.89961 2.2012-1.5996 0.8333-0.86666 1.4651-1.5178 1.8984-1.9512 1.3-1.2 3.0849-3.1671 5.3516-5.9004 2.1333-2.5 3.6663-4.6163 4.5996-6.3496 0.2333-0.33333 0.43291-0.71706 0.59961-1.1504 0.1667-0.26667 0.28291-0.48177 0.34961-0.64844 0.067-0.23333 7.8e-4 -0.41745-0.19922-0.55078-0.1333-0.0667-0.24961 0.0167-0.34961 0.25-0.1667 0.26667-0.30039 0.43333-0.40039 0.5l-0.0508 0.0508-0.0488 0.14844c-0.3333 0.8-0.8333 1.6682-1.5 2.6016-0.4 0.53333-1.0183 1.3318-1.8516 2.3984-0.5333 0.7-1.3996 1.7174-2.5996 3.0508-0.8667 1.1333-2.0004 2.4008-3.4004 3.8008-0.8 0.83333-2.0151 2.0484-3.6484 3.6484-0.1 0.1-0.40039 0.31706-0.90039 0.65039l-0.0508-1.25c-0.033-1.8667 0.2167-4.5992 0.75-8.1992 0.2667-1.7 0.79961-3.7833 1.5996-6.25 1.1-3.5667 1.9683-5.9678 2.6016-7.2012 0.2333-0.46667 0.19844-0.78255-0.10156-0.94922-0.3-0.2-0.66631-0.2-1.0996 0-0.8 0.33333-1.4163 0.55039-1.8496 0.65039-3.8 0.76667-6.2671 1.2337-7.4004 1.4004-1.9667 0.2-4.3329 0.33177-7.0996 0.39844-0.7333 0-1.6675-0.0329-2.8008-0.0996-1.7-0.13333-2.6825-0.19922-2.9492-0.19922l-5.25-0.80078-0.25-0.15039 0.25-0.25c0.6667-0.46667 1.5833-1.2167 2.75-2.25 1.2-1.0667 2.1167-1.8322 2.75-2.2988 1.7667-1.3667 3.7492-2.6341 5.9492-3.8008 2.0667-1.1 3.9349-1.9663 5.6016-2.5996 2.7666-1.1 5.0321-1.8829 6.7988-2.3496 0.5-0.13333 0.76748-0.20117 0.80078-0.20117 0.3333-0.13333 0.44961-0.33294 0.34961-0.59961-0.1667-0.36667-0.44961-0.78333-0.84961-1.25-0.4333-0.46667-0.7667-0.83294-1-1.0996-1.3-1.4333-2.7341-3.7492-4.3008-6.9492-1.3-2.7-2.1488-5.2504-2.5488-7.6504 0-0.43333-0.035-0.71628-0.10156-0.84961-0.1-0.23333-0.0822-0.4 0.0508-0.5 0.1-0.1 0.28408-0.11727 0.55078-0.0508l1.0488 0.40039c2.1333 0.66667 3.7341 1.1996 4.8008 1.5996l5.6992 2.4004c1.4333 0.56667 3.35 1.5667 5.75 3 0.8 0.5 1.9667 1.2829 3.5 2.3496h0.0508c0.3 0.13333 0.51709 0.0829 0.65039-0.15039 0.067-0.13333 0.067-0.21667 0-0.25-0.1333-0.0667-0.2167-0.11706-0.25-0.15039l-0.40039-0.34961c-0.7667-0.7-2.133-1.6496-4.0996-2.8496-1.8-1.1667-3.8504-2.1996-6.1504-3.0996-2.6333-1.0667-4.2671-1.7178-4.9004-1.9512-2.1333-0.63333-3.7167-1.1488-4.75-1.5488-0.9667-0.36667-1.6004-0.45-1.9004-0.25zm-70.6 0.44922c-0.5333-0.26667-0.81631-0.19883-0.84961 0.20117-0.067 0.66667-0.0512 1.4496 0.0488 2.3496 0.2 1.8 0.38408 3.1488 0.55078 4.0488 0.4333 2.3667 0.78408 4.0682 1.0508 5.1016 0.3667 1.4333 0.88213 3.0651 1.5488 4.8984 0.4667 1.3 1.1333 2.9337 2 4.9004 0.1667 0.3 0.13399 0.51706-0.0996 0.65039-2.2333 1.2333-4.5667 3.1171-7 5.6504l-2 2.5c-0.1333 0.2-0.11622 0.38216 0.0508 0.54883 0.1 0.13333 0.1833 0.16823 0.25 0.10156 0.067-0.1 0.0996-0.16784 0.0996-0.20117l3.2988-3.5c1.9333-1.9333 3.9334-3.4992 6-4.6992l0.40039-0.25c0.1333-0.13333 0.15038-0.33294 0.0508-0.59961l-1.1504-2.6016c-1.3-3.2667-2.1333-5.6833-2.5-7.25l-1.0508-5.0488c-0.2333-0.86667-0.49883-2.8163-0.79883-5.8496l1.25 0.64844c2.2333 1.0333 4.0492 2.1671 5.4492 3.4004 2.0667 1.8333 3.933 3.8178 5.5996 5.9512l2.9512 3.9492c0.3667 0.53333 0.76592 0.83372 1.1992 0.90039 0.4333 0.0333 0.78408-0.18372 1.0508-0.65039 0.7-1.1333 1.7833-2.4008 3.25-3.8008 2.8666-2.9 6.3163-5.4155 10.35-7.5488l0.25-0.0996 0.0508 0.34961c-0.033 0.76667-0.084 1.9004-0.15039 3.4004 0.1333 1.8667-0.23291 4.0488-1.0996 6.5488-1.1667 3.4667-2.4516 6.4008-3.8516 8.8008-0.4667 0.73333-0.64883 1.2333-0.54883 1.5s0.49922 0.43333 1.1992 0.5c1.6333 0.16667 2.9996 0.46706 4.0996 0.90039 2.0667 0.76667 4.2508 1.9333 6.5508 3.5 0.7333 0.46667 1.5841 1.1159 2.5508 1.9492l2.3984 2.0996c0.6333 0.43333 0.66826 0.73372 0.10156 0.90039l-4.0508 1.0508c-2.2 0.43333-4.5508 0.74922-7.0508 0.94922-1.3 0.1-3.2167-0.0163-5.75-0.34961-1.6333-0.16667-3.4163-0.44961-5.3496-0.84961-0.2667-0.0333-0.48369-0.0682-0.65039-0.10156-0.2667-0.0667-0.44883-0.21589-0.54883-0.44922l-1.8008-4.5508c0.9-0.2 1.9175-0.29883 3.0508-0.29883 0.3333 0 1.3488 0.0329 3.0488 0.0996 2.1333 0.1 4.3679 0.46628 6.7012 1.0996 0.8333 0.23333 2.0659 0.53372 3.6992 0.90039 1.4 0.4 2.5841 0.83412 3.5508 1.3008 0.2333 0.13333 0.45039 0.0984 0.65039-0.10156 0.1667-0.2 0.11631-0.36667-0.15039-0.5-0.4-0.36667-0.95039-0.7-1.6504-1l-1.8008-0.75c-2.6666-1.2-5.0833-2.0992-7.25-2.6992-2.4333-0.7-4.6659-1.2174-6.6992-1.5508-1.2333-0.0667-2.1325-0.13255-2.6992-0.19922l0.14844-0.44922c0.4667-1.4 0.85039-2.4174 1.1504-3.0508 1.1-2.4667 1.8345-3.9841 2.2012-4.5508l2.8984-4.6992c0.4-0.6 1.4175-2.0341 3.0508-4.3008 0.1333-0.16667 0.10069-0.34883-0.0996-0.54883-0.1333-0.13333-0.26709-0.0829-0.40039 0.15039l-1.0996 1.0488c-2.7667 2.7-4.7996 4.9829-6.0996 6.8496-1.8 2.6-3.2516 5.35-4.3516 8.25-0.4-0.73333-0.61514-1.1326-0.64844-1.1992-0.3-0.73333-0.76709-1.6674-1.4004-2.8008-0.7667-1.3667-1.2512-2.2659-1.4512-2.6992-0.5333-1.0667-1.3996-2.4833-2.5996-4.25-0.6-0.96667-1.0671-1.6992-1.4004-2.1992-0.5667-0.8-1.1151-1.4512-1.6484-1.9512-0.1-0.1-0.21826-0.11577-0.35156-0.0488-0.1333 0.0333-0.23213 0.0333-0.29883 0l0.0996 0.39844c0.3667 0.46666 0.56631 0.75156 0.59961 0.85156 0.2667 0.83333 0.73369 1.8488 1.4004 3.0488l1.5996 2.9512c1 1.9667 2.2675 5.0151 3.8008 9.1484 0.033 0.16667-0.05 0.25-0.25 0.25-1.1333-0.13333-2.7671 0.0333-4.9004 0.5-1.5667 0.36667-3.0996 0.91706-4.5996 1.6504-1.7667 0.86667-3.35 1.7833-4.75 2.75-0.4667 0.33333-0.65078 0.73451-0.55078 1.2012 0.2333 0 0.4-0.0349 0.5-0.10156 2.6333-1.2 5.0171-1.95 7.1504-2.25 3.1-0.43333 5.2841-0.6 6.5508-0.5 0.2333 0 0.28174 0.10078 0.14844 0.30078-0.8667 1.6-1.6825 3.8171-2.4492 6.6504-0.2 0.73333-0.5333 2.3671-1 4.9004-0.1 0.43333-0.05 0.66589 0.15039 0.69922 0.3 0.0667 0.51709-0.15039 0.65039-0.65039 0.1667-0.76667 0.48252-1.6504 0.94922-2.6504l1.1992-2.5488c0.2-0.4 0.95-1.7837 2.25-4.1504l0.70117-0.94922 0.29883 0.39844c0.1 0.13333 0.15039 0.25156 0.15039 0.35156-0.033 0.23333 0.05 0.48333 0.25 0.75 0.2 0.3 0.30078 0.51511 0.30078 0.64844 0.067 0.46666 0.3167 1.1004 0.75 1.9004 0.2667 0.76667 0.13291 1.4837-0.40039 2.1504l-2.5508 3.3496c-1 1.3333-1.9496 2.3663-2.8496 3.0996-0.2 0.13333-0.93252 0.75156-2.1992 1.8516-0.9 0.73333-1.65 1.3167-2.25 1.75l-0.25 0.0996v-0.20117c0.033-2.1667 0.099-3.783 0.19922-4.8496 0.1333-1.5667 0.74961-4.0492 1.8496-7.4492 0.2333-0.43333 0.28369-0.73372 0.15039-0.90039-0.1333-0.2-0.44922-0.25039-0.94922-0.15039l-3.8008 0.55078c-0.8333 0.13333-1.8663 0.19922-3.0996 0.19922h-3.8496c-0.3667 0-0.5333 0.10078-0.5 0.30078 0 0.3 0.1667 0.49961 0.5 0.59961 0.3 0.1 0.58291 0.15039 0.84961 0.15039h0.40039c0.3333-0.0667 0.80039-0.0996 1.4004-0.0996 0.6333 0 1.0829-0.0175 1.3496-0.0508 0.5333-0.0333 1.3492-0.0837 2.4492-0.15039 0.5-0.0667 1.8179-0.29922 3.9512-0.69922 0.3-0.0667 0.39883 0.0322 0.29883 0.29883-1.0667 2.6333-1.7159 5.0171-1.9492 7.1504-0.1333 1.2333-0.20117 3.0996-0.20117 5.5996-0.033 0.2-4e-5 0.38411 0.10156 0.55078 0.1 0.16667 0.24922 0.21706 0.44922 0.15039 0.9333-0.3 1.6329-0.63333 2.0996-1 1.4333-1.1667 2.5167-2.0329 3.25-2.5996 0.5-0.4 1.0504-0.91745 1.6504-1.5508 0.6667-0.76667 1.1667-1.35 1.5-1.75 0.4-0.5 0.88252-1.1667 1.4492-2 0.7667-1.2 1.2183-1.8841 1.3516-2.0508 0.2-0.26667 0.34922-0.2494 0.44922 0.0508 0.1 0.26667 0.23369 0.66589 0.40039 1.1992 0.1667 0.46666 0.25 0.86784 0.25 1.2012 0 0.81441 0.12828 1.6289 0.17188 2.4434 0.053 0.75811-0.0807 1.2078 0.0273 2.0566v0.0488c0.029 0.23195 0.14761 0.74491 0.19141 1.0234 0.034 0.27604 0.0196 0.55209 0.0586 0.82812 0.032 0.1616 0.16827 0.69986 0.38867 1.5508 0.01 0.0369 0.01 0.0604 0.0176 0.0977 0.1859 0.63842 0.25796 1.163 0.19336 1.5508-0.015 0.0592 0.11145 0.21203 0.15625 0.31055l0.19531 1.0391c0.025 0.13515-0.01 0.25143-0.10156 0.34961-0.063 0.13399-0.16193 0.21732-0.29883 0.25l-3.5508 0.75 0.0508-0.0488-0.15039 0.0488h-0.0508c-1.2366 0.32124-1.848 0.53068-2.7988 0.80078-1.0702 0.30401-2.4418 0.66183-3.1504 0.90039-0.638 0.27773-1.7718 0.81068-3.4004 1.5996l-1.1992 0.59961c-0.026 0.0203-0.0586 0.0378-0.0996 0.0508-0.2345 0.12358-0.24249 0.32781-0.36719 0.49023-0.045 0.0203-0.14139 0.0916-0.18359 0.10938-0.3333 0.13333-0.51748 0.26706-0.55078 0.40039 0 0.13333 0.11826 0.28255 0.35156 0.44922 0.2537 0.1776 0.37995 0.22697 0.58984 0.36133 0.1009 0.0835 0.074 0.21962 0.20899 0.28906 1.5281 0.77604 2.7277 1.4253 3.5996 1.9492 0.4335 0.27262 0.90816 0.35642 1.3477 0.60156 1.0526 0.56051 2.8205 1.5471 3.3535 1.7988 0.5667 0.23333 1.2837 0.46784 2.1504 0.70117 0.045 0.0112 0.14526 0.035 0.19336 0.0469 0 5.3e-4 -2.3e-4 6e-4 0.01 2e-3l1.25 0.34961c0.1414 0.0487 0.24218 0.1165 0.30078 0.20117 0.083 0.11511 0.11591 0.23138 0.0996 0.34961-0.012 0.12787-0.062 0.22865-0.15039 0.30078l-1.9492 1.7988c-2.8289 2.768-4.7456 4.9017-5.75 6.4004-0.01 0.0437-0.0228 0.0767-0.0508 0.0996l-0.40059 0.40027c-0.5806 0.58237-0.73904 1.0598-0.89844 1.5371-0.062 0.0603-0.075 0.0953-0.15039 0.16211-0.046 0.0618-0.0149 0.11379-0.0469 0.17383-0.01 0.0525-0.10131 0.12669-0.10351 0.17773-5e-4 0.025 0.0361 0.0492 0.0371 0.0742-0.021 0.10718-0.11659 0.22328-0.0879 0.32422 0.2063 0.49508 0.46819 0.68069 0.71289 0.95898 0.1185 0.1634 0.076 0.3293 0.23828 0.49219l0.0488 0.0488c0.082 0.0814 0.15016 0.0572 0.23046 0.12695 0.1953 0.11922 0.43754 0.3323 0.76954 0.72461 0.1112 0.10012 0.24858-0.11059 0.36718-0.0996 0.058 0.01 0.1265 0.0973 0.1836 0.0996 0.2657-3e-3 0.49832-0.086 0.69922-0.25 0.3156-0.25026 0.59861-0.65143 0.8496-1.2012v-0.0488l0.20118-0.40039c0.01-3.9e-4 0.01-0.0178 0-0.0508l0.65039-1c1.3629-1.9992 2.1613-3.1484 2.3984-3.4492 0.4419-0.5968 1.3475-1.6753 2.2832-2.7852 0.9793-1.1344 1.9756-2.3049 2.8281-3.1699 0.1021-0.0795 0.21435-0.12871 0.33985-0.14453 0.1294-0.012 0.24571 0.0209 0.34961 0.0996 0.1069 0.0838 0.17282 0.18268 0.19921 0.29883 0.056 0.31991 0.20574 0.53086 0.26954 0.8418 0.133 0.49589 0.25454 0.89663 0.43164 1.7598 0.2667 1.1 0.53213 1.9663 0.79882 2.5996 0.1055 0.24705 0.24602 0.35674 0.35352 0.5957 0.2017 0.47637 0.27015 1.1092 0.49805 1.5547 1.2649 2.6154 3.5065 5.3796 6.4141 8.2461 0.3322 0.34229 0.52167 0.59006 0.88477 0.95312 0.014 0.0153 0.0231 7e-3 0.0371 0.0215 0.1017 0.0951 0.16018 0.18394 0.26368 0.2793v0.0488c0.1487 0.14661 0.3154 0.22995 0.5 0.25l0.15234-0.0293c0.01-3e-4 0.0125-3e-3 0.0195-4e-3l0.0781-0.0156c0.3088-0.0367 0.52589-0.1879 0.65039-0.45117 0.202-0.38964 0.32341-1.0161 0.50781-1.457 0.2328-0.39537 0.54471-0.71195 0.94141-0.94336 0.6333-0.33333 1.3504-0.81589 2.1504-1.4492 1.2-0.93333 2.3667-2.0671 3.5-3.4004 1.1632-1.429 1.8407-2.7071 2.043-3.8379l0.92773 0.24805c0.2816 0.0844 0.50901 0.24121 0.62891 0.54101 0.7667 1.7 1.9159 3.2659 3.4492 4.6992 2.1333 2.0333 4.2516 3.5508 6.3516 4.5508 0.1333 0.0667 0.34844 0.18294 0.64843 0.34961 0.2667 0.13333 0.4837 0.1491 0.6504 0.0488 0.1667-0.1 0.25-0.26667 0.25-0.5 0-0.0333-0.05-0.24844-0.1504-0.64844-0.46669-3.7-0.9996-6.3337-1.5996-7.9004-0.099-0.29727-0.047-0.44454 0.14843-0.44727 1.1626-0.13665 2.2214-0.21943 3.9512-0.65234l0.45118-0.15039c0.2805-0.0549 0.48011-0.15571 0.59961-0.30078 0.015-0.0181 0.0328-0.0336 0.0508-0.0488l0.0508-0.0508c0.016-0.0171 0.0338-0.0345 0.0508-0.0508 0.099-0.0796 0.095-0.21059 0.14453-0.31445-1e-3 -0.0117 0.0577-0.0235 0.0547-0.0352l-0.0234-0.0391c0.032-0.0908 0.12309-0.15173 0.12109-0.25977 0-0.28958-0.11695-0.55703-0.34765-0.80078l-3.0488-2.6992c-0.083-0.0808-0.1989-0.15382-0.2832-0.23437l-1.9668-1.8672c3.8-1.0333 6.0965-1.6826 6.8965-1.9492 2.8333-0.86667 5.7035-2.1341 8.6035-3.8008 0.4667-0.23333 0.81553-0.4155 1.0488-0.54883 0.3667-0.23333 0.56436-0.51628 0.59765-0.84961 0.067-0.3-0.38095-0.66823-1.3476-1.1016-3.8666-2.0667-7.2988-3.3496-10.299-3.8496-2.3667-0.43333-4.5334-0.65039-6.5-0.65039h-0.75l0.54883-0.29883c0.284-0.24443 0.42807-0.53878 0.70117-0.78711 2.0823-1.8756 3.7513-3.7853 5.0918-5.7207 0.1958-0.27866 0.52223-0.51039 0.70703-0.79297 0.055-0.0885 0.01-0.15466 0.0508-0.24023 0.086-0.13772 0.21703-0.27215 0.29883-0.41016v-0.0488c0.24-0.34492 0.27486-0.6957 0.10156-1.0508-0.1672-0.28815-0.46759-0.45482-0.90039-0.5l-2.2559-0.13672-3.4453-0.3125c-0.2378-0.027-0.80093 0.0549-1.0781 0.041l-0.67187-0.041c-1.0437 1e-3 -2.5592 0.0672-4.5488 0.19922-0.063 5e-3 -0.15124 0.0388-0.21484 0.0449-0.06 7e-3 -0.0751-1e-3 -0.13477 6e-3 -0.2644 0.0271-0.81911 0.21182-1.1289 0.26367-1.2355 0.1967-2.4559 0.37675-3.9219 0.83594l-1.25 0.44922c-0.4441 0.13989-0.58243 0.26452-0.98633 0.40234-1.4798 0.50084-3.0815 1.0123-3.8633 1.4492-0.052 0.0392-0.19219 0.16453-0.27539 0.23438-0.1252 0.0687-0.41159 0.14672-0.52539 0.21484-0.054 0.0472-0.12555 0.0392-0.18945 0.0547-0.1536-3e-3 -0.30724-0.0114-0.46094-0.1543v-2e-3c-0.1525-0.1963-0.53321-0.62003-0.72461-0.85547l-0.17188-0.24219c-0.068-0.0905-0.31222-0.32472-0.39062-0.42383-0.6159-0.73815-1.0923-1.3374-2.0098-2.377v0.0508c-0.1564-0.17256-0.46125-0.36524-0.62695-0.53906-0.604-0.63506-0.79862-0.9354-1.5742-1.7109-0.9378-0.8675-2.2296-1.7547-3.4805-2.6387-0.4947-0.3793-0.75917-0.72672-1.293-1.1113h0.47461c0.067 0 1.0163 0.14922 2.8496 0.44922 1.1 0.16667 2.0341 0.26745 2.8008 0.30078 2.5666 0.16667 4.8651 0.0484 6.8984-0.35156 0.3-0.0667 0.81748-0.11511 1.5508-0.14844 0.6333-0.0333 1.1333-0.10117 1.5-0.20117 0.5-0.13333 1.2675-0.3155 2.3008-0.54883 0.9-0.23333 1.65-0.51823 2.25-0.85156l0.69922-0.34961c0.2333-0.1 0.36709-0.21628 0.40039-0.34961 0.067-0.63333-0.1-1.1004-0.5-1.4004-2.4333-2.3-4.4508-3.9337-6.0508-4.9004-1.9667-1.1667-3.5829-2.0155-4.8496-2.5488-1.8333-0.73333-3.6008-1.1171-5.3008-1.1504-0.2667 0-0.33252-0.13372-0.19922-0.40039 1.3667-2.5333 2.5333-5.0992 3.5-7.6992 1.1333-3.2333 1.7671-6.15 1.9004-8.75 0-1.3667-0.0187-2.2-0.0527-2.5 0.067-0.56667 0.0857-1.0008 0.0527-1.3008-0.067-0.46667-0.4-0.69922-1-0.69922-0.3667 0.0333-1.0508 0.34922-2.0508 0.94922-2.9666 1.7667-5.2825 3.4004-6.9492 4.9004-2.6 2.4-4.3675 4.3671-5.3008 5.9004-0.2333 0.43333-0.4833 0.4491-0.75 0.0488-1.2333-1.5667-2.1325-2.7488-2.6992-3.5488-1.3-1.8333-3.1004-3.8663-5.4004-6.0996-1.6667-1.6-4.3333-3.2512-8-4.9512zm75.301 5.0996c-0.1 0.1-0.15039 0.18333-0.15039 0.25 0.033 0.0667 0.0656 0.15 0.0996 0.25 0.1 0.3 0.28408 0.61784 0.55078 0.95117 0.1667 0.2 0.39922 0.4655 0.69922 0.79883 0.5 0.53333 1.2325 1.3512 2.1992 2.4512 0.9 0.93333 1.6675 1.6988 2.3008 2.2988 0.5 0.46666 1.2171 1.1837 2.1504 2.1504s1.6504 1.6663 2.1504 2.0996l1.8984 1.9004c0.8 0.73333 1.4841 1.3167 2.0508 1.75 0.067 0.0333 0.18291 0.1845 0.34961 0.45117l-0.0996 0.0996-13.1 4.2988c-2.0667 0.76666-3.6171 1.3345-4.6504 1.7012l-7.25 2.7988-0.34961 0.40039c0.1 0.0333 0.2667 0.10117 0.5 0.20117l2.0996-0.20119 7.0996-1.3496c0.9333-0.2 2.3675-0.48294 4.3008-0.84961l13.9-3.7012c0.1667-0.0667 0.25-0.0667 0.25 0l-0.10156 0.25-3.0996 5.5508c-1.5333 2.8667-2.6496 5.0333-3.3496 6.5-0.6333 1.2667-1.3 2.8326-2 4.6992l-3.1992 8.0508c-0.033 0.0667-0.033 0.15 0 0.25s0.0656 0.16589 0.0996 0.19922c0.2667 0.0667 0.44883 7.8e-4 0.54883-0.19922 0.3667-0.93333 0.7833-1.7996 1.25-2.5996 1.2667-1.7667 2.1504-3.1329 2.6504-4.0996 0.6333-1.2333 1.4667-2.6674 2.5-4.3008 1-1.3333 1.6996-2.3663 2.0996-3.0996 0.4333-0.76667 1.3345-2.0845 2.7012-3.9512l0.54884-0.69922c0.3-0.36667 0.43369-0.71745 0.40039-1.0508l-0.15039-0.14844-0.44922 0.25-0.34961 0.5c-0.7333 1.1-1.9 2.7318-3.5 4.8984-2.2667 3.4333-3.7337 5.8345-4.4004 7.2012-0.033 0.0333-0.13408 0.0992-0.30078 0.19922l-0.0488-0.19922 1.0488-2.5508c1.2667-3 2.3171-5.1996 3.1504-6.5996 0.1667-0.33333 0.9167-1.7674 2.25-4.3008l2.8008-5.0996c0.1667-0.2 0.1667-0.38216 0-0.54883-0.1333-0.13333-0.28447-0.18372-0.45117-0.15039l-11.1 2.9492-12.199 2.5996c0.7-0.4 1.5837-0.78177 2.6504-1.1484l13.5-4.4512c0.5-0.16667 1.2325-0.39922 2.1992-0.69922 0.8667-0.26667 1.5663-0.54961 2.0996-0.84961 0.1-0.0333 0.25117-0.0682 0.45117-0.10156 0.2-0.0333 0.31631-0.13216 0.34961-0.29883 0.033-0.16667-0.017-0.31784-0.15039-0.45117-0.1667-0.13333-0.30039-0.24961-0.40039-0.34961-2.1-1.9-3.1659-2.8671-3.1992-2.9004-1.8333-1.9667-3.2171-3.4163-4.1504-4.3496l-4.8496-4.5 0.29883-0.34961 1.25 0.94922c1.3667 1.1667 3.3841 2.9012 6.0508 5.2012 0.1333 0.1 2.3504 1.7667 6.6504 5l0.54883 0.44922c0.3 0.16667 0.50156 0.18393 0.60156 0.0508 0.067-0.13333 0.016-0.31745-0.15039-0.55078 0-0.0333-0.1667-0.14961-0.5-0.34961l-0.5-0.40039c-2.2667-1.9-3.7996-3.0996-4.5996-3.5996-0.7667-0.53333-2.2667-1.7504-4.5-3.6504-2.8333-2.4667-5.3004-4.4337-7.4004-5.9004-0.2333-0.16667-0.43291-0.16667-0.59961 0zm-52.361 8.7656-1.9394 3.1348c-1.5333 2.8667-2.5663 5.0004-3.0996 6.4004l-1.0996 2.8008c-0.2333 0.53333-0.051 0.79883 0.54883 0.79883 1.3333-0.0667 2.8004 0.0496 4.4004 0.34961 0.8333 0.16667 2.2829 0.51745 4.3496 1.0508 1 0.26667 2.5175 0.73372 4.5508 1.4004l-0.0508 0.15039-2.9492-0.65039c-1.6333-0.3-2.7012-0.46667-3.2012-0.5-1.9333-0.1-3.8829-0.1-5.8496 0-0.4667 0-0.81553 0.0329-1.0488 0.0996-0.4333 0.0667-0.75117 0.23333-0.95117 0.5-0.2333 0.3-0.2333 0.61589 0 0.94922 0.3333 0.5 0.5 0.76745 0.5 0.80078 0.067 0.26667 0.30117 0.90039 0.70117 1.9004 0.3333 0.76667 0.48252 1.4159 0.44922 1.9492l-0.0684 0.88086c-0.084 0.30541-0.23174 0.56315-0.18164 0.96875v0.3008c-0.1667-0.0667-0.25-0.13255-0.25-0.19922l-2.2499-6.5508c-0.067-0.23333-0.16748-0.38255-0.30078-0.44922-0.1667-0.0667-0.34883-0.0182-0.54883 0.14844-1.1 1.1-2.0167 2.5516-2.75 4.3516l-1 1.5c0.033-0.46666 0.18252-1.0345 0.44922-1.7012 0.2667-0.7 0.41787-1.2 0.45117-1.5 0.033-0.23333 0.2833-0.81667 0.75-1.75 0.3667-0.73333 0.49844-1.3826 0.39844-1.9492-0.033-0.23333-0.16514-0.33411-0.39844-0.30078-2.2333 0-3.4833 0.0175-3.75 0.0508-0.8667 0.1-2.8183 0.41589-5.8516 0.94922h-0.54883c2.1667-1.0667 3.8837-1.7159 5.1504-1.9492 2.4-0.43333 4.0163-0.68333 4.8496-0.75 0.2 0 0.51592-0.0175 0.94922-0.0508 0.3333-0.0333 0.5-0.2155 0.5-0.54883 0-0.3-0.099-0.66823-0.29883-1.1016-0.2333-0.5-0.4-0.88177-0.5-1.1484-0.4333-1.2-0.75117-2.1012-0.95117-2.7012-0.3667-1.0667-0.75039-1.9329-1.1504-2.5996-0.033-0.0667-0.0162-0.18294 0.0508-0.34961l3.75 7.2988c0 0.0333 0.0326 0.0682 0.0996 0.10156 0.033 0.0333 0.0676 0.0333 0.10156 0 0.4667-0.0667 0.78447-0.30117 0.95117-0.70117 1.4-3.1 2.15-4.7337 2.25-4.9004 1.5296-2.6602 3.1249-4.8193 4.7871-6.4844zm28.711 39.234h4e-3c0.63325 0.0334 1.5633 0.11685 2.7949 0.25 0.5667 0.0333 1.8341 0.23489 3.8008 0.60156 1.8333 0.4 3.4496 0.9 4.8496 1.5 0.6667 0.26667 2.283 1.0496 4.8496 2.3496 0.067 0.0333 0.18486 0.13216 0.35156 0.29883l-0.30078 0.25-4.9493 2.5508c-0.5667 0.26667-2.0008 0.74922-4.3008 1.4492-1.9333 0.53333-3.3829 0.96745-4.3496 1.3008-1.0667 0.36667-1.9175 0.53333-2.5508 0.5-0.9-0.0667-1.6829-0.48333-2.3496-1.25-0.3667-0.4-0.8667-0.81667-1.5-1.25-0.3045-0.21182-0.44871-0.32108-0.69531-0.49609v-4e-3c0-2e-3 -0.01-4e-3 -0.01-6e-3 -0.3675-0.26088-0.80301-0.56564-1.041-0.74414 1.7667-0.16667 4.4004-0.41667 7.9004-0.75 3-0.33333 5.5833-0.75 7.75-1.25-6.6346-1.1942-12.721-1.6391-18.266-1.3477l0.76563-0.50195h0.0488c0.2007-0.11387 0.29504-0.2242 0.49024-0.33789l2.0098-1.2129 1.9512-1.2988c0.76566-0.39946 1.6812-0.60102 2.7461-0.60156zm0.25 4.7012c1.3333 0.0667 3.3159 0.26628 5.9492 0.59961v0.0996l-9.4492 0.80078c-1.3 0.13333-2.3504 0.13333-3.1504 0-0.7253-0.10667-1.3038-0.45206-1.9199-0.73633-0.1197-0.0722-0.20868-0.14258-0.33008-0.21484-0.1044-0.0413-0.1878-0.1246-0.25-0.25-0.015-0.0621-0.01-0.13337 0-0.20313 3.9718-0.17574 7.1169-0.2228 9.1504-0.0957zm-17.15 11.9c0.1371-0.0167 0.25341-7.3e-4 0.34961 0.0488 0.2867 0.1406 0.62559 0.24389 0.93359 0.36914 0.076 0.10683 0.14329 0.22274 0.11719 0.43164-0.033 0.13333-0.0656 0.33294-0.0996 0.59961 0 0.23333-0.10078 0.86706-0.30078 1.9004-0.1333 0.76667-0.15038 1.3829-0.0508 1.8496l0.25 0.25 0.20117-0.19922c0.2333-0.73333 0.41553-1.2837 0.54883-1.6504 0.2-0.7 0.31826-1.2678 0.35156-1.7012 0.03-0.62741 0.23951-0.8582 0.53711-0.89649l2.1856 0.58204c0.4387 0.18742 0.85416 0.38285 0.72656 0.76562-0.033 0.0667-0.26592 0.4155-0.69922 1.0488-0.8 1.3667-1.7341 2.5682-2.8008 3.6016-0.7333 0.7-1.9659 1.6826-3.6992 2.9492 0.1639-0.58722 0.17931-0.84657 0.28711-1.3106 0.1062-0.38869 0.26393-0.62419 0.36133-1.0391 0.074-0.26875 8e-3 -0.75963 0.0644-1.0527 0.091-0.69714 0.17198-1.6375 0.23438-2.9473 0-0.29077-0.0127-0.26387-0.0137-0.52344 0.02-0.91386 0.23606-1.5163 0.16406-2.5762-0.01-0.10261 0.0276-0.20339 0.10156-0.30078 0.069-0.0932 0.1524-0.15911 0.25-0.19922zm8.8008 2.5606c0.3089 0.0967 0.9621 0.0741 1.3418 0.14648l2.1582 0.39258c0.3333 0.13333 0.6667 0.44922 1 0.94922 0.3667 0.6 0.64961 0.98372 0.84961 1.1504 0.2333 0.2 0.51631 0.55078 0.84961 1.0508 0.067 0.0667 0.15 0.1655 0.25 0.29883 0.1333 0.13333 0.24961 0.1506 0.34961 0.0508 0.2333-0.16667 0.21777-0.44961-0.0488-0.84961l-1.7012-2.6016 0.13281-0.0176c0.073 3.6e-4 0.094 0.0176 0.16797 0.0176l1.7988 0.0508c0.081-1.9e-4 0.26947-0.056 0.35547-0.0586 0.3826 0.0522 0.65289 0.21698 0.74609 0.55859 0.033 0.2 0.0488 0.50039 0.0488 0.90039 0.3 1.1 0.78447 3.3171 1.4512 6.6504 0.033 0.0333 0.033 0.0663 0 0.0996-0.6667-0.2-1.3837-0.56628-2.1504-1.0996-0.8333-0.66666-1.4671-1.1512-1.9004-1.4512-1.8667-1.4-3.1167-2.5337-3.75-3.4004-0.8667-1.1333-1.5159-1.9996-1.9492-2.5996zm-24.5 7.1894c-0.3 0.0333-0.45117 0.18255-0.45117 0.44922 0 0.13333 0.05 0.31745 0.15039 0.55078l0.75 2.6992c0.067 0.16667 0.36709 1.1492 0.90039 2.9492 0.3667 1.1667 0.7 2.1182 1 2.8516 1.2333 2.7667 2.3825 4.9488 3.4492 6.5488 1.6 2.4 3.35 4.65 5.25 6.75 0.2 0.2 0.18447 0.36667-0.0488 0.5-0.9 0.53333-2.4175 1.5837-4.5508 3.1504-3.6333 2.6667-6.2341 5.25-7.8008 7.75-0.067 0.1-0.16553 0.0825-0.29883-0.0508-1.3-1.9333-3.1837-3.8984-5.6504-5.8984-0.9-0.76666-1.5841-1.3171-2.0508-1.6504-0.8-0.63333-1.55-1.0829-2.25-1.3496-0.067-0.0333-0.16553-0.15156-0.29883-0.35156l0.25-0.19922 1.3496-0.90039c1.9-1.3667 3.2992-2.3996 4.1992-3.0996 1.6-1.2333 2.9004-2.4174 3.9004-3.5508 1.3-1.4667 2.5171-3.2322 3.6504-5.2988 0.3333-0.63333 0.13369-0.95117-0.59961-0.95117-0.7 0.0333-1.6341 0.11667-2.8008 0.25-1.4333 0.2-2.3829 0.31823-2.8496 0.35156-1.1667 0.1-3.1492 0.46628-5.9492 1.0996-1.9 0.4-3.2004 0.70039-3.9004 0.90039-1.4333 0.4-2.6833 0.86511-3.75 1.3984-0.3667 0.2-0.5333 0.0682-0.5-0.39844 0.1333-1.5333 0.1333-2.6167 0-3.25-0.1333-1.5667-0.3-2.7333-0.5-3.5-0.7-2.6667-1.4829-4.7345-2.3496-6.2012-0.1333-0.36667-0.25156-0.63216-0.35156-0.79883-0.1333-0.33333-0.31553-0.51745-0.54883-0.55078-0.1-0.0333-0.21631-0.0333-0.34961 0-0.3667 0.0667-0.33409 0.48333 0.0996 1.25l0.25 0.44922c1.3333 2.5333 2.25 5.6341 2.75 9.3008 0.1 0.73333 0.15039 2.1829 0.15039 4.3496 0 0.33333 0.048 0.55039 0.14844 0.65039 0.1 0.13333 0.31709 0.1003 0.65039-0.0996 0.6333-0.36667 1.1663-0.61667 1.5996-0.75l5.4004-1.4512c2.7-0.66667 4.3667-1.0484 5-1.1484 1.2667-0.23333 3.1679-0.51823 5.7012-0.85156 0.2-0.0333 0.48291-0.0992 0.84961-0.19922 0.3333-0.0667 0.56592-0.0337 0.69922 0.0996 0.1333 0.1 0.10069 0.28411-0.0996 0.55078-0.1333 0.13333-0.31748 0.35039-0.55078 0.65039-1.1667 1.9-2.3333 3.4-3.5 4.5-1.1 1.1-3.1484 2.7667-6.1484 5l-2.6504 1.75c-0.7333 0.5-0.80117 0.89922-0.20117 1.1992 1.2 0.63333 2.3841 1.4008 3.5508 2.3008 3.0333 2.4667 5.2659 4.5984 6.6992 6.3984l0.60156 0.80078c0.1 0.16667-0.051 0.51745-0.45117 1.0508-0.4 0.53333-0.70039 0.76589-0.90039 0.69922-0.9-0.2-1.5667-0.31628-2-0.34961-2.0333-0.26667-4.3667-0.85-7-1.75-1.5-0.56667-3.6822-1.5512-6.5488-2.9512-0.5333-0.23333-0.8667-0.0822-1 0.45117-0.2 0.96667-0.60117 2.0829-1.2012 3.3496-0.3333 0.73333-0.84883 1.7992-1.5488 3.1992l-0.20117 0.45117c-0.1667 0.36667-0.11631 0.63216 0.15039 0.79883h0.0508c0.1667 0.1 0.3333-0.0163 0.5-0.34961 0.5667-0.9 0.9-1.4659 1-1.6992 0.4667-0.9 0.81553-1.5841 1.0488-2.0508 0.4-0.83333 0.61709-1.5833 0.65039-2.25 0.1333-1 0.53447-1.2655 1.2012-0.79883l0.54883 0.39844c2.1333 1.1 3.833 1.8674 5.0996 2.3008 2.8333 0.9 4.4341 1.3826 4.8008 1.4492 0.4 0.1 2.0841 0.31706 5.0508 0.65039 2.9333 0.4 6.7492 0.21784 11.449-0.54883 0.8-0.13333 1.8833-0.43372 3.25-0.90039 2.0667-0.6 3.8826-1.3345 5.4492-2.2012l0.40039-0.14844 0.0508 0.39844c-0.067 2.0667 0.083 3.7837 0.44922 5.1504 0.1 0.5 0.25117 0.75 0.45117 0.75h0.0488c0.2667-0.0333 0.35-0.29883 0.25-0.79883-0.1333-1.2-0.2167-2.1012-0.25-2.7012-0.1333-1.0667-0.18369-1.9833-0.15039-2.75 0.067-0.46667 7.8e-4 -0.74961-0.19922-0.84961-0.4667-0.1-0.85039-0.0671-1.1504 0.0996-0.8333 0.43333-1.4496 0.73372-1.8496 0.90039-0.7333 0.33333-1.3671 0.56589-1.9004 0.69922-1.5 0.43333-2.6337 0.76667-3.4004 1-1.3333 0.36667-2.4825 0.60117-3.4492 0.70117-3.7333 0.4-6.5337 0.58216-8.4004 0.54883-0.2667 0-0.33252-0.0988-0.19922-0.29883 1.3667-1.9667 2.1825-3.1178 2.4492-3.4512 0.9667-1.2667 1.9337-2.3151 2.9004-3.1484 3.2333-2.8333 6.1326-5 8.6992-6.5 0.3-0.2 0.36787-0.40156 0.20117-0.60156-3.1-3.7667-5.0671-6.2996-5.9004-7.5996-1.4333-2.3333-2.5496-4.4826-3.3496-6.4492-0.3-0.76667-1.0345-2.8345-2.2012-6.2012l-0.19926-1.0996c-0.067-0.3 0.13291-0.36589 0.59961-0.19922l3 1.3496c1.9667 0.86667 4.6179 2.3841 7.9512 4.5508 1 0.63333 2.0988 1.4667 3.2988 2.5 0.7 0.6 1.7175 1.4992 3.0508 2.6992 1.4 1.3 2.5996 2.5326 3.5996 3.6992 0.2 0.23333 0.39961 0.26823 0.59961 0.10156l5.9004-3.75c3.9667-2.3667 6.6992-4.9849 8.1992-7.8516l0.15039-0.0996 0.15039 0.0996c0.4333 1.4 0.61748 3.0841 0.55078 5.0508-0.067 1.8-0.58408 4.1004-1.5508 6.9004-0.8 2.3333-2.1159 4.6337-3.9492 6.9004-0.2667 0.26667-0.36748 0.54961-0.30078 0.84961 0.1 0.26667 0.38291 0.40039 0.84961 0.40039 2.1667-0.23333 3.5679-0.35156 4.2012-0.35156 0.4333 0 1.6833 0.11823 3.75 0.35156 1.1333 0.13333 2.0829 0.3 2.8496 0.5 1 0.23333 2.2829 0.59961 3.8496 1.0996l0.34961 0.19922c0.033 0.0333 6.9e-4 0.10117-0.0996 0.20117-0.7667 0.9-1.7492 1.6984-2.9492 2.3984-0.7667 0.4-1.9179 0.9-3.4512 1.5-3.3333 1.2667-5.8837 2.0167-7.6504 2.25-0.3667 0.1-0.63213 0.18333-0.79883 0.25-0.3333 0.0667-0.61631 7.8e-4 -0.84961-0.19922l-3.6504-3.25-0.25-0.30078 0.34961-0.0488c1.4 0 2.2333-0.0175 2.5-0.0508 1.4-0.1 3.4659-0.28216 6.1992-0.54883 0.5333 0 1.2349-0.10078 2.1016-0.30078 0.9667-0.2 1.6488-0.31628 2.0488-0.34961 0.1-0.0333 0.20078-0.13411 0.30078-0.30078 0.1333-0.23333 0.23213-0.4 0.29883-0.5-0.1333-0.13333-0.23213-0.19922-0.29883-0.19922l-6-0.80078c-2.0667-0.1-3.5996-0.18333-4.5996-0.25l-1.9512-0.0488c-0.7667 0-1.4159-0.0349-1.9492-0.10156l-1.3008-0.0488c0.4-0.4 0.66748-0.70039 0.80078-0.90039 0.1667-0.3 0.4167-0.61589 0.75-0.94922 1.6333-1.7333 3.2167-3.8012 4.75-6.2012 1.3-2.2333 2.1488-4.0163 2.5488-5.3496 0.033-0.1-0.033-0.28411-0.19922-0.55078l-0.30078 0.20117c-0.3 0.23333-0.61592 0.63255-0.94922 1.1992-0.3667 0.63333-0.63408 1.0345-0.80078 1.2012-2.3 2.6-3.9996 4.3655-5.0996 5.2988l-4.1504 3.75c-0.1333 0.1-0.24961 0.0845-0.34961-0.0488l-7.5-7.2012c-0.8333-0.8-2.0504-2.0655-3.6504-3.7988-1.9666-2.0333-3.1663-3.2349-3.5996-3.6016-0.1667-0.16667-0.30039-0.18243-0.40039-0.0488-0.067 0.0667-0.0492 0.18294 0.0508 0.34961 1 1.5333 1.7829 2.6496 2.3496 3.3496 0.5667 0.73333 1.5512 2.0163 2.9512 3.8496 1.2333 1.6667 2.2333 2.9516 3 3.8516l3.8984 4.7988c0.1333 0.13333 0.18369 0.23411 0.15039 0.30078-0.033 0.0667-0.13213 0.13255-0.29883 0.19922-4.3999 1.7-7.4175 2.8841-9.0508 3.5508-1.0333 0.4-2.9326 1.4988-5.6992 3.2988-0.067 0.0667-0.18486 0.1345-0.35156 0.20117-0.1333 0.0667-0.16591 0.1655-0.0996 0.29883 0.1667 0.3 0.46709 0.35039 0.90039 0.15039 0.5-0.2 1.2325-0.50039 2.1992-0.90039 0.8333-0.26667 2.0834-0.6155 3.75-1.0488 2.1-0.7 4.1679-1.3008 6.2012-1.8008 0.067 0 1.5667-0.43216 4.5-1.2988-0.3 2.7667-0.45117 4.6659-0.45117 5.6992 0.033 0.7 0.0508 1.7174 0.0508 3.0508 0 1.2333 0.05 2.2488 0.15039 3.0488 0.067 0.36667 0.21592 0.53333 0.44922 0.5 0.2 0 0.33369-0.0988 0.40039-0.29883v-0.30091c-0.1333-0.8-0.19922-1.3833-0.19922-1.75l-0.0508-4.6992c-0.033-1.6333 0.083-3.4512 0.34961-5.4512 0.033-0.16667-0.017-0.36628-0.15039-0.59961-0.1333-0.0333-0.31553-0.0159-0.54883 0.0508l-4.3496 1.25c-2.3 0.6-4.0171 1.0496-5.1504 1.3496l-3.1504 0.90039c0.7333-0.5 1.5667-0.93411 2.5-1.3008 0.7667-0.3 3.7842-1.5674 9.0508-3.8008 0.2667-0.1 0.29931-0.26667 0.0996-0.5l-6.0508-7.3496-0.40039-0.65039 0.45117 0.30078c2.0333 1.6333 4.0837 3.5829 6.1504 5.8496 0.5667 0.63333 1.0492 0.98411 1.4492 1.0508 0.4667 0.1 0.99961-0.15 1.5996-0.75 2.1667-1.8 3.7345-3.2012 4.7012-4.2012 0.7-0.73333 1.6651-1.6655 2.8984-2.7988l-1.3984 2.1504c-0.3667 0.53333-0.98486 1.3318-1.8516 2.3984-0.4 0.5-0.9833 1.2345-1.75 2.2012-0.7 0.86667-1.3317 1.5488-1.8984 2.0488-0.3333 0.3-0.51748 0.46667-0.55078 0.5-0.2 0.2-0.25039 0.4345-0.15039 0.70117 0.1333 0.36667 0.51709 0.4655 1.1504 0.29883 0.6-0.16667 1.2996-0.23255 2.0996-0.19922 0.4667 0 1.1663 0.0329 2.0996 0.0996 0.5667 0 3.1171 0.18411 7.6504 0.55078l2.5508 0.25c-3 0.33333-5.6996 0.56589-8.0996 0.69922l-4.7012 0.25-0.75 0.30078 0.40039 0.54883 11.449 10.25c0 0.0333 0.05 0.0508 0.15039 0.0508l0.45117-0.0508c-0.033-0.26667-0.084-0.43333-0.15039-0.5l-5.4512-5.1484c1.7-0.4 2.8008-0.68489 3.3008-0.85156 0.7-0.23333 1.7504-0.56667 3.1504-1 1.2667-0.4 2.3171-0.79922 3.1504-1.1992 2.5666-1.2333 4.4484-2.5008 5.6484-3.8008 0.2667-0.26667 0.4333-0.46628 0.5-0.59961 0.067-0.23333-0.082-0.45039-0.44922-0.65039-1.4-0.76667-3.65-1.4159-6.75-1.9492-3.4-0.6-6.2663-0.6-8.5996 0h-0.20117l0.0508-0.19922 1.0508-1.25c1.6-2 2.8151-4.5349 3.6484-7.6016 0.7-2.7667 1.0179-4.9663 0.95117-6.5996-0.1-1.8667-0.41787-3.4829-0.95117-4.8496-0.1-0.26667-0.31514-0.40039-0.64844-0.40039-0.2667 0-0.4333 0.15117-0.5 0.45117-0.7667 2.0667-2.5012 4.0996-5.2012 6.0996-0.8667 0.66667-2.2329 1.5659-4.0996 2.6992-1.8667 1.1667-3.2504 2.0678-4.1504 2.7012-0.2333 0.16667-0.34961 0.2655-0.34961 0.29883-0.2 0.0667-0.3667 7.8e-4 -0.5-0.19922-0.56715-0.76676-1.3826-1.6504-2.4493-2.6504-1.6333-1.5667-2.5016-2.4-2.6016-2.5-1.1333-1.1667-2.8155-2.4671-5.0488-3.9004-2.6-1.7-4.3171-2.7504-5.1504-3.1504-2.8-1.3667-4.7825-2.2155-5.9492-2.5488-0.4333-0.23333-0.7667-0.34961-1-0.34961zm-23.301 11.299c-0.2 0-0.26592 0.11628-0.19922 0.34961 0.1 0.9 0.16592 1.4349 0.19922 1.6016 0.3333 1.3333 0.55039 2.2655 0.65039 2.7988 0.3667 1.5667 0.54883 3.0996 0.54883 4.5996 0 1.1 0.43408 1.4682 1.3008 1.1016l2.8496-1.2012c1.2-0.5 3.0179-1.1492 5.4512-1.9492l2.1992-0.70117c-0.6667 0.53333-1.3837 1.0004-2.1504 1.4004-3.1666 1.6667-4.9496 2.6163-5.3496 2.8496-0.2 0.13333-0.58369 0.2845-1.1504 0.45117-0.4333 0.23333-0.53213 0.58216-0.29883 1.0488 0.2 0.4 0.89961 1.0841 2.0996 2.0508 0.4 0.36667 2.4155 2.0663 6.0488 5.0996-0.9-0.36667-1.8825-0.89961-2.9492-1.5996-1.1333-0.8-1.9996-1.4008-2.5996-1.8008-0.4667-0.3-1.5675-1.1992-3.3008-2.6992-0.4-0.3-0.65-0.18372-0.75 0.34961l-0.90039 3.5996c-0.3667 1.4667-0.71553 2.6682-1.0488 3.6016-0.067 0.2-0.26631 0.78334-0.59961 1.75-0.033 0.1-0.13408 0.28216-0.30078 0.54883-0.067 0.23333-0.016 0.41745 0.15039 0.55078 0.2333 0.16667 0.43291 0.0504 0.59961-0.34961l0.15039-0.30078c0.1667-0.2 0.26553-0.41706 0.29883-0.65039l2.0508-6.9492c0.067-0.3 0.11709-0.5345 0.15039-0.70117 0.067-0.33333 0.18291-0.43216 0.34961-0.29883 1.1667 0.76667 2.8508 1.9837 5.0508 3.6504 2.6666 1.7667 4.8159 3.0167 6.4492 3.75 0.1333 0.0667 0.33291 0.0996 0.59961 0.0996 0.1667 0 0.38369-0.0175 0.65039-0.0508-0.033-0.2-0.14961-0.39961-0.34961-0.59961-2.5667-2.0333-4.3845-3.4829-5.4512-4.3496l-5.1992-4.5996-0.40039-0.5 0.5-0.30078c1.2333-0.43333 3.0996-1.35 5.5996-2.75 1.8-1 4.5016-2.5659 8.1016-4.6992 0.3-0.16667 0.39883-0.43411 0.29883-0.80078 0-0.0333-0.05-0.0663-0.15039-0.0996-0.1-0.0667-0.16592-0.0841-0.19922-0.0508l-3.25 1.3008c-2.9333 1.2333-4.4992 1.8826-4.6992 1.9492-3.8666 1.2667-6.7 2.35-8.5 3.25-0.1333 0.1-0.23408 0.16784-0.30078 0.20117-0.1333 0.0667-0.2167 0.0318-0.25-0.10156l-0.25-2.4492c-0.1-1-0.21631-1.8333-0.34961-2.5-0.2667-2.1-0.48369-3.6659-0.65039-4.6992l-0.0996-0.20117zm48.35 18.051c-0.3-0.3-0.49961-0.24961-0.59961 0.15039l-1.5996 10.5v0.14844c-0.067 0.23333-7.8e-4 0.35156 0.19922 0.35156 0.2333 0 0.36709-0.0504 0.40039-0.15039 0.1667-0.5 0.30039-0.88372 0.40039-1.1504 0.1333-0.43333 0.19922-0.81706 0.19922-1.1504 0.033-0.93333 0.14961-2.1833 0.34961-3.75 0.2667-1.8333 0.4333-3.1163 0.5-3.8496l3.75 3.8008c0.067 0.1 0.20039 0.23177 0.40039 0.39844 0.1667 0.2 0.19931 0.40156 0.0996 0.60156l-2.1484 3.8984c-0.1333 0.36667-0.1333 0.60117 0 0.70117h0.0996c0.2667 0 0.44883-0.0833 0.54883-0.25 0.7333-1.1 1.3341-2.1329 1.8008-3.0996 0.2-0.4 0.31631-0.61706 0.34961-0.65039 0.067-0.0333 0.16748 0.0171 0.30078 0.15039l4.0488 3.6992c0.2333 0.23333 0.51826 0.34961 0.85156 0.34961 0.1-0.16667 0.1-0.33333 0-0.5l-1.8008-1.6504c-2.1-2-3.3325-3.2326-3.6992-3.6992-0.5333-0.63333-1.2679-1.4492-2.2012-2.4492-1.1-1.1667-1.85-1.9671-2.25-2.4004z"/>
 <g transform="translate(-108.55 -563.5)">
  <path transform="translate(160.15,84.1)" d="m-46.599 479.4c-3.3333 0-5 1.6667-5 5v158.2c0 3.3333 1.6667 5 5 5h93.199c3.3333 0 5-1.6667 5-5v-158.2c0-3.3333-1.6667-5-5-5zm8.2988 7.1992h76.6c4.6667 0 7 2.3333 7 7v139.8c0 4.6667-2.3333 7-7 7h-76.6c-4.6667 0-7-2.3333-7-7v-139.8c0-4.6667 2.3333-7 7-7z" fill="#ef1d1e"/>
  <path transform="translate(160.15,84.1)" d="m-38.3 486.6c-4.6667 0-7 2.3333-7 7v139.8c0 4.6667 2.3333 7 7 7h76.6c4.6667 0 7-2.3333 7-7v-139.8c0-4.6667-2.3333-7-7-7z" fill="none" stroke="#000" stroke-width="1.2"/>
 </g>
</svg>
