<svg width="103.2" height="168.2" preserveAspectRatio="none" version="1.1" viewBox="0 0 103.2 168.2" xmlns="http://www.w3.org/2000/svg">
 <path d="m13.301 7.1992c-4.6667 0-7 2.3333-7 7v139.8c0 4.6667 2.3333 7 7 7h76.6c4.6667 0 7-2.3333 7-7v-139.8c0-4.6667-2.3333-7-7-7z" fill="#fff"/>
 <path d="m49.45 51.55-0.6-10.85c-0.10273-1.1115-0.1194-2.0448-0.05-2.8 5e-3 -0.0337 5e-3 -0.0671 0-0.1 0.16471-0.46042 0.13138-0.86042-0.1-1.2-0.0187-0.032-0.0354-0.0653-0.05-0.1-0.17213-0.30391-0.50547-0.45391-1-0.45l-22.1-0.6c-0.11094-5e-3 -0.21094-0.0553-0.3-0.15-0.17422-0.16784-0.39089-0.25117-0.65-0.25h-1.35c-0.32435-4e-3 -0.57435 0.096-0.75 0.3-0.0164 0.0171-0.0331 0.0337-0.05 0.05-0.18685 0.20873-0.27018 0.49206-0.25 0.85l2 20.3c0.2681 1.6664 0.45143 3.1497 0.55 4.45 0.0351 1.0081 0.2518 2.9914 0.65 5.95l0.25 1.5c0.22617 1.7348 0.57617 3.6348 1.05 5.7l0.05 0.05 0.4 1.9c0.25899 1.2274 0.75899 3.344 1.5 6.35l2.3 8.45c0.58268 2.2706 1.0494 3.9539 1.4 5.05 0.64258 2.146 1.3259 3.996 2.05 5.55 0.4418 0.94649 0.87513 2.0965 1.3 3.45 0.47552 1.4378 0.95885 2.6544 1.45 3.65v0.05l0.85 1.9c1.756 3.7996 3.1226 6.4663 4.1 8l0.05 0.05 1.25 2.3h-0.05c1.0341 1.7676 1.6008 2.7176 1.7 2.85 0.94336 1.4768 2.2767 3.4102 4 5.8l1.15 1.65v0.05l0.2 0.35v-0.05c0.69805 1.0424 1.4647 1.5758 2.3 1.6l0.8-0.1h-0.05c0.43815-0.0917 1.4715-0.225 3.1-0.4l4.5-0.5c2.0081-0.26784 3.6081-0.43451 4.8-0.5l3.25-0.3c2.187-0.23477 4.0036-0.35143 5.45-0.35h0.55c0.5082 7e-3 0.87487-0.19333 1.1-0.6 0.20768-0.41641 0.15768-0.84974-0.15-1.3l-7.7-12.7c-0.18268-0.33203-0.64935-1.132-1.4-2.4l-1-1.75c-1.3348-2.4439-2.3181-4.3272-2.95-5.65l-2.7-6.1c-0.27331-0.56094-0.75664-1.7276-1.45-3.5l-0.95-2.5 0.05 0.05c-0.50768-1.1444-1.1744-3.3777-2-6.7-0.0275-0.16627-0.32747-1.3329-0.9-3.5l-0.85-3.05c-0.46667-2.2332-0.81667-3.8999-1.05-5l-1.85-9.75v-0.05c-0.69649-4.1698-1.1298-6.9365-1.3-8.3-0.13333-0.92617-0.31667-3.1428-0.55-6.65" fill="#1ca4da"/>
 <path d="m32.449 6.9004c-0.1 0-0.23177 0.0504-0.39844 0.15039-0.8 0.43333-1.7516 1.2318-2.8516 2.3984h-0.0488l-1.2012 1.2012c-1.1667 1.0333-2.3992 2.6671-3.6992 4.9004l-0.15039 0.25c-0.8 1.3667-1.4163 2.5333-1.8496 3.5-0.0333 0.1-0.0992 0.18333-0.19922 0.25-0.13333 0.0667-0.25156 0.0822-0.35156 0.0488-0.1-0.0333-0.18333-0.0837-0.25-0.15039-1.5333-1.7333-2.9655-3.183-4.2988-4.3496-2.8333-2.5333-5.6996-4.5663-8.5996-6.0996-0.2-0.1-0.76784-0.35-1.7012-0.75l0.0508 0.0508-0.90039-0.35156c-0.0333-0.0333-0.0663-0.0488-0.0996-0.0488-0.16667-0.1-0.33333-0.15039-0.5-0.15039-0.3 0-0.5345 0.10078-0.70117 0.30078v0.0488c-0.26667 0.26667-0.3655 0.54961-0.29883 0.84961v0.10156c0.13333 2.4667 0.69922 5.1333 1.6992 8 0.36667 1.3 0.95 2.8484 1.75 4.6484l0.34955 0.80077 0.0508 0.05078c0.7 1.8 1.3163 3.1663 1.8496 4.0996v0.0488c0.16667 0.3 0.48451 0.8 0.95117 1.5 0.0333 0.0667 0.0488 0.15 0.0488 0.25s-0.0329 0.20078-0.0996 0.30078l-0.19922 0.19922c-2.4667 0.86666-5.0674 2.4171-7.8008 4.6504-0.1 0.0667-0.20078 0.0996-0.30078 0.0996-0.43333 0.16667-0.64844 0.45156-0.64844 0.85156v4.1993c0 0.33333 0.16667 0.60078 0.5 0.80078 0.1 0.0667 0.21628 0.0996 0.34961 0.0996l0.5-0.0996c0.0667 0 0.15 0.0155 0.25 0.0488h0.3496c0.9 0.2 2.2159 0.33372 3.9492 0.40039l1.6504 0.0508c1.7333 0 3.7333-0.25 6-0.75 0.1-0.0333 0.21628-0.0333 0.34961 0 0.1 0.0667 0.16784 0.15 0.20117 0.25 0.0333 0.1 0.0488 0.21628 0.0488 0.34961-0.5 1.9-0.84883 3.3826-1.0488 4.4492-0.23333 1.4-0.34961 2.7333-0.34961 4 0 0.66667 0.0833 1.3508 0.25 2.0508 0.13333 0.53333 0.46667 0.79883 1 0.79883 0.3 0 0.59844-0.11628 0.89844-0.34961 0-0.0333 0.0174-0.0488 0.0508-0.0488 2.8667-1.7 5.0333-3.8841 6.5-6.5508h0.0508c0.26667-0.53333 0.29967-1.3841 0.0996-2.5508l-0.15036-0.84963v-0.74999c0-0.23333-0.0833-0.45039-0.25-0.65039-0.0667-0.0667-0.0996-0.13255-0.0996-0.19922 0-0.1 0.0155-0.18333 0.0488-0.25 0.26667-0.93333 0.31706-1.7996 0.15039-2.5996-0.0333-0.13333-0.0333-0.24961 0-0.34961 0-0.13333 0.0504-0.23411 0.15039-0.30078 0.1-0.0667 0.21628-0.0996 0.34961-0.0996l4.5 0.25c0.2 0 0.35117-0.0504 0.45117-0.15039 0.0667-0.0667 0.1655-0.11706 0.29883-0.15039 0.1 0 0.20078 0.0329 0.30078 0.0996 0.46667 0.23333 0.94922 0.36706 1.4492 0.40039h0.80078c2.4667 0 5.3-0.83334 8.5-2.5 2.0333-1 3.9326-2.25 5.6992-3.75l2.2012-2.0996c0.36667-0.36667 0.48294-0.71745 0.34961-1.0508v-0.0488c-0.16667-0.4-0.5-0.65-1-0.75l-2.1504-0.59965h-0.0508c-2.1-0.66666-4.0826-1.2016-5.9492-1.6016-1-0.2-1.8992-0.29883-2.6992-0.29883l-1.1016 0.0488c-0.1 0-0.19883-0.0155-0.29883-0.0488-0.1-0.0667-0.16784-0.1345-0.20117-0.20117-0.0333-0.1-0.0488-0.19883-0.0488-0.29883 0.1-1.1-0.0667-2.7841-0.5-5.0508l-0.5-3.1992v-0.0508c-0.13333-1.1-0.24961-1.9004-0.34961-2.4004l-0.0508-0.0488c-0.13333-0.7-0.16634-1.5508-0.0996-2.5508l-0.0508-1.8496c0-0.33333-0.13372-0.56589-0.40039-0.69922-0.2-0.1-0.36667-0.15039-0.5-0.15039zm52.65 57.65-0.29883 0.0488h-0.0508l-0.40039 0.15039-4.7988 2.1992v0.05081c-2.4 0.93333-4.0512 1.6329-4.9512 2.0996h-0.0488c-1.8333 0.86667-3.4167 1.7678-4.75 2.7012-2.2667 1.5667-4.0516 3.3322-5.3516 5.2988l-0.29883 0.20117c-0.1 0.0333-0.20078 0.0333-0.30078 0-0.13333-0.0667-0.21667-0.15-0.25-0.25-1.6-2.7333-3.4992-5.1849-5.6992-7.3516v0.0508c-1.1333-1.1-2.8-2.4159-5-3.9492l-0.95117-0.40039-0.39844-0.0508c-0.16667 0-0.30039 0.0329-0.40039 0.0996-0.0333 0.0333-0.0508 0.0682-0.0508 0.10156-0.23333 0.13333-0.38255 0.36589-0.44922 0.69922l0.0488 0.40039 2.25 11.1v0.0508c0.26667 1.5667 0.51667 2.7333 0.75 3.5v0.0488l1.25 4.8496v0.0508l0.0508 0.34961c0.1 0.73333 0.33255 1.2837 0.69922 1.6504 0.0667 0.0667 0.11706 0.15 0.15039 0.25v0.25c-0.0667 0.13333-0.0667 0.24961 0 0.34961v0.0508l0.0996 0.40039c0.13333 0.56667 0.26706 0.98333 0.40039 1.25l0.0508 0.0488c0 0.0667 0.0329 0.11706 0.0996 0.15039 0.1 0.0667 0.16589 0.16745 0.19922 0.30078 0 0.1-0.0155 0.21628-0.0488 0.34961-0.1 0.2-0.1 0.43255 0 0.69922l0.75 2v0.0508l0.34961 0.5c0.0333 0.0667 0.0508 0.13255 0.0508 0.19922l0.0488 0.40038c0.0667 0.4 0.28372 1.0163 0.65039 1.8496h-0.0508l0.30078 0.70117c0.1 0.16667 0.20078 0.29844 0.30078 0.39844 0.1 0.0667 0.16589 0.16745 0.19922 0.30078l0.15039 0.80078c0.9 2.3667 1.7488 4.3318 2.5488 5.8984l4.6504 8.9004 0.20117 0.25c0.0333 0.0333 0.0663 0.0837 0.0996 0.15039 0.16667 0.2 0.36628 0.30078 0.59961 0.30078h0.0996c0.26667 0 0.46628-0.0833 0.59961-0.25 0.0333-0.0667 0.10117-0.11706 0.20117-0.15039 0.13333-0.13333 0.23216-0.26706 0.29883-0.40039l0.15039-0.44922c0.33333-1.0333 0.53294-1.6012 0.59961-1.7012l0.3008-0.94922c0.7-2.4 1.1167-4.1345 1.25-5.2012l0.15039-0.84961c0.36667-2.7 0.45-4.7 0.25-6l-0.20117-1c0-0.1 0.0174-0.19883 0.0508-0.29883 0.0333-0.1 0.0992-0.16784 0.19922-0.20117 0.0999-0.06667 0.20076-0.09961 0.30076-0.09961l0.80078 0.0508 1.0996-0.10156c0.9-0.13333 1.5337-0.19922 1.9004-0.19922h0.25002c1.2333 0 2.7333-0.19961 4.5-0.59961v-0.0508l1.25-0.25c0.73333-0.16667 1.9484-0.53294 3.6484-1.0996l1.3008-0.44922h0.0508c0.16667-0.0667 0.38177-0.21784 0.64844-0.45117l0.10156-0.0996c0-0.0333 0.0155-0.0508 0.0488-0.0508 0.26667-0.2 0.40039-0.43255 0.40039-0.69922 0-0.36667-0.14922-0.66706-0.44922-0.90039-1.7333-1.2667-3.8671-2.4004-6.4004-3.4004l-0.0508-0.0488c-1.8333-0.76667-3.9826-1.3345-6.4492-1.7012-0.13333-0.0333-0.23411-0.0818-0.30078-0.14844-0.1-0.1-0.15039-0.21823-0.15039-0.35156s0.0504-0.24961 0.15039-0.34961c0.7-0.8 1.6167-1.9822 2.75-3.5488l0.90039-1.25c2.2333-3 3.9833-5.8178 5.25-8.4512 0.46667-0.96667 1.1663-2.6488 2.0996-5.0488l0.80078-2.1504c0.0667-0.23333 0.0822-0.45039 0.0488-0.65039l-0.0488-0.0508c-0.0333-0.3-0.13411-0.51511-0.30078-0.64844l-0.0488-0.0508c-0.13333-0.13333-0.2845-0.19922-0.45117-0.19922zm-74.65 53.5c-0.49768 0-0.81091 0.23296-0.94531 0.69531-0.11223 0.37534-0.0949 0.69894 0.0957 0.95313l0.0508 0.0508c0.53333 0.8 1.0333 2.0829 1.5 3.8496v-0.0488l0.65039 2.0488c0.23333 0.66667 0.4 1.5329 0.5 2.5996l0.34961 1.9512c0.0667 0.33333 0.36706 1.5659 0.90039 3.6992l1.4492 5.25c0.43333 2.2 1.2008 4.2329 2.3008 6.0996 0.0667 0.1 0.0822 0.21823 0.0488 0.35156-0.0333 0.13333-0.0992 0.23216-0.19922 0.29883-0.13333 0.0667-0.24961 0.0996-0.34961 0.0996-0.9-0.13333-1.7333-0.23216-2.5-0.29883l-6.5-0.0996c-0.36667 0-1.1012 0.0833-2.2012 0.25h0.0508c-0.66667 0.16667-1.2674 0.25-1.8008 0.25h-0.40039l-0.0488-0.0508-0.30078 0.0508h-0.15039c-0.23333 0-0.43294 0.0833-0.59961 0.25l-0.0488 0.0488c-0.16667 0.16667-0.25 0.36628-0.25 0.59961v6.5c0 0.26667 0.13177 0.51667 0.39844 0.75 0.16667 0.1 0.35078 0.15039 0.55078 0.15039 0.0667 0 0.13255 0.0175 0.19922 0.0508l4.9004 1.9004h-0.0488c1.1333 0.33333 2.4822 0.69961 4.0488 1.0996h0.0508l6.1992 1.4492c0.0667 0 0.15 0.0329 0.25 0.0996 0.0667 0.0667 0.0996 0.16745 0.0996 0.30078 0 0.0667-0.0155 0.15-0.0488 0.25l-1.4512 3.25c-0.0667 0.1-0.15 0.18333-0.25 0.25-0.3 0.13333-0.44922 0.38333-0.44922 0.75v0.69922c0 0.23333 0.0833 0.43489 0.25 0.60156 0.2 0.16667 0.41706 0.25 0.65039 0.25h16.949c0.26667 0 0.48372-0.0833 0.65039-0.25 0.16667-0.16667 0.25-0.36823 0.25-0.60156v-0.54883c0-0.36667-0.14922-0.63411-0.44922-0.80078-0.1-0.0667-0.16784-0.15-0.20117-0.25l-1.049-2.0996c-0.0667-0.13333-0.0841-0.24961-0.0508-0.34961s0.0992-0.18333 0.19922-0.25c0.0667-0.1 0.16745-0.15039 0.30078-0.15039l0.69922-0.0508c1.5667-0.13329 2.7508-0.26511 3.5508-0.39844l1.6992-0.20117c2.0333-0.23333 3.6845-0.53372 4.9512-0.90039 0.0333-0.0333 0.0837-0.0488 0.15039-0.0488h0.0488c3.6-1.0667 6.2008-2.0163 7.8008-2.8496l5.4004-2.9004-0.0508 0.0488c0.16667-0.13333 0.35078-0.3 0.55078-0.5l0.0488-0.0488v-0.0508c0.0333-0.0667 0.0663-0.0996 0.0996-0.0996 0.16667-0.23333 0.2345-0.48333 0.20117-0.75-0.1-0.3-0.28411-0.53255-0.55078-0.69922h-0.0995l-0.0508-0.0508-3.8496-1.4492c-1.3333-0.53333-3.1337-1.0178-5.4004-1.4512l-0.54883-0.15039c-2.8-0.56667-4.8678-0.84961-6.2012-0.84961-0.13333 0-0.23216-0.0329-0.29883-0.0996-0.1-0.0667-0.16784-0.16745-0.20117-0.30078-0.0333-0.1-0.0159-0.19883 0.0508-0.29883l0.0996-0.20117 0.0508-0.0488c0.73333-1.3 1.2992-2.4512 1.6992-3.4512v-0.0488c0.7-1.6333 1.4345-3.9008 2.2012-6.8008l0.14844-0.65039c0.13333-0.63333 0.35039-1.6663 0.65039-3.0996l0.30078-1.4492h0.0488c0.13333-0.66667 0.21667-1.3333 0.25-2v-0.0508l0.10156-0.90039c0.0333-0.4-0.0849-0.68294-0.35156-0.84961-0.13333-0.1-0.28255-0.15039-0.44922-0.15039l-0.55078 0.15039-2.1484 1.3496h-0.0508c-1.8 1.0667-3.4337 2.1171-4.9004 3.1504v0.0508c-0.93333 0.6-2.6155 1.9159-5.0488 3.9492-0.0333 0-0.0682 0.0175-0.10156 0.0508l-0.0996 0.0488c-1.3667 1.2-2.4655 2.3512-3.2988 3.4512-0.0667 0.1-0.15 0.16589-0.25 0.19922-0.1 0.0333-0.20078 0.0333-0.30078 0-0.13333-0.0667-0.21667-0.13255-0.25-0.19922l-2.4492-3.5996c-1.0667-1.4667-2.2682-2.9841-3.6016-4.5508l-0.0488-0.0508-2-2.5v0.0508c-1.3667-1.7-3.3996-3.6826-6.0996-5.9492l-3.0508-2.6016-0.0508-0.0488c-0.26667-0.26667-0.63294-0.51667-1.0996-0.75h-0.0488l-0.35156-0.20117c-0.16667-0.1-0.33333-0.14844-0.5-0.14844zm-0.94531 0.69531c6e-3 -0.0184-0.01-0.0281-4e-3 -0.0469v0.0508c6.2e-4 -2e-3 3e-3 -2e-3 4e-3 -4e-3z" fill="#ef1d1e"/>
 <path d="m84.449 1.9004c-0.2367 6e-3 -0.45184 0.10483-0.64844 0.29883-0.1679 0.17422-0.2512 0.39128-0.25 0.65039v1.0508c0 0.25807 0.081 0.45768 0.25 0.59961 0.063 0.0477 0.11114 0.0981 0.14844 0.15039 0.024 0.0633 0.0301 0.12123 0.0371 0.17969-0.035 0.10652-0.0449 0.14694-0.0859 0.26953 0.3667 4.0333 0.75039 6.8008 1.1504 8.3008 0.067 0.23333 0.51631 1.9659 1.3496 5.1992l0.0996 0.39648c-7e-4 1e-3 7e-4 3e-3 0 4e-3 -0.036 0.13568-0.1195 0.23646-0.25 0.30078-0.086 0.0573-0.18688 0.0728-0.30078 0.0488l-1.3574-0.27539-0.0918-0.0234c-0.034-7e-3 -0.0441-4e-3 -0.0781-0.0117l-1.6719-0.33996c-1.4056-0.22197-2.0214-0.24246-3.0137-0.35938-0.9031-0.11455-2.2746-0.42674-2.9356-0.43945-2.9 0-4.9679 0.13372-6.2012 0.40039l-2.6992 0.44922c-0.4219 0.0984-0.69209 0.30323-1.0547 0.44336-0.061 0.017-0.19029 0.0401-0.24609 0.0566h-0.0488c-0.1144 0.0412-0.20129 0.13344-0.30469 0.19531-0.2637 0.13128-0.6202 0.19761-0.8457 0.35547-0.1534 0.11248 0.059 0.27356 0 0.39844-0.067 0.10014-0.17937 0.164-0.20117 0.30078-0.027 0.20908 0.077 0.38799 0.20117 0.5625 0.014 0.0142-0.014 0.0228 0 0.0371 1e-3 1e-3 0.0156 0.0124 0.0176 0.0137 0.021 0.0263 0.0102 0.0605 0.0312 0.0859 0.018 0.0161 0.0348 0.0336 0.0508 0.0508l0.15039 0.19922c0.1901 0.24245 0.3568 0.40911 0.5 0.5l0.0488 0.0508 1.7012 1.3008c1.2191 0.94437 2.6156 1.9446 4.0195 2.9473 0.5021 0.3995 0.74548 0.58508 1.3301 1.0527 1.2109 0.88299 3.2097 1.8594 5.2227 2.8379 0.2573 0.12072 0.46446 0.2967 0.72656 0.41211 0.1179 0.0492 0.2012 0.13253 0.25 0.25 0.057 0.12409 0.057 0.24036 0 0.34961-0.031 0.14049-0.1141 0.23932-0.25 0.29883l-0.0996 0.0508c-0.2673 0.1449-0.69342 0.4854-0.97852 0.65234-0.6743 0.36622-1.1398 0.4988-2.0215 1.0977-0.3 0.2-1.9163 1.3492-4.8496 3.4492-1.0169 0.73278-1.6097 1.3551-2.4453 2.041-0.2701 0.21307-0.86339 0.65238-1.0547 0.81055-0.1019 0.0946-0.1784 0.2093-0.2793 0.30469-0.5032 0.45104-1.2511 0.96551-1.6699 1.3945-0.9529 0.95292-1.8548 2.2969-2.7812 3.457-0.082 0.10372-0.18823 0.18853-0.26953 0.29297l-1.3125 1.6719c-0.3237 0.45399-0.66808 0.74828-0.98828 1.2285-0.055 0.0824-0.18468 0.23902-0.26758 0.34961h-0.0312c-0.014 0.0189 2.3e-4 0.0396-0.0137 0.0586-0.1104 0.14531-0.18024 0.25111-0.33594 0.44141-0.2 0.33333-0.2833 0.64922-0.25 0.94922 0.067 0.26667 0.26631 0.41784 0.59961 0.45117h0.52539c0.091 0.0297 0.12241 0.13596 0.22461 0.15039 0.042 6e-3 0.0746 6e-3 0.0996 0l0.0996 0.0488 0.59961 0.0508h6.6016c2.8612-0.23711 5.4445-0.58789 7.75-1.0508 0.5147-0.10191 1.0075-0.34906 1.5195-0.46875 0.6824-0.16083 1.3377-0.16727 2.0293-0.38086 2.2-0.7 3.6012-1.1671 4.2012-1.4004 0.2641-0.10335 0.42168-0.23645 0.67188-0.34375 0.2724-0.1093 0.55642-0.14126 0.82812-0.25586 0.4532-0.19544 1.0017-0.49583 1.6484-0.90039 0.1098-0.0557 0.22796-0.0712 0.35156-0.0488 0.1258 0.0349 0.22463 0.10075 0.29883 0.19922 0.08 0.12213 0.11466 0.23841 0.10156 0.34961l-0.10742 0.7793c-0.039 0.1736-0.11118 0.28231-0.14258 0.4707 0 0.13333-0.048 0.8-0.14844 2-0.044 1.0222 0.0916 1.5261 0.0996 2.4004 0.01 1.0381-0.121 1.7259 0 3.0508v0.25c0.044 0.35481 0.1319 0.77314 0.1836 1.1387 0.016 0.0903-1e-3 0.27435 0.0156 0.36133 0.1 0.5 0.21631 1.25 0.34961 2.25 0.038 0.23797 0.11191 0.39452 0.15821 0.61328 0.057 0.30827 0.081 0.57196 0.14257 0.88672l0.15039 1.0488c0.028 0.19473 0.13979 0.33204 0.23828 0.47851 0 0.0338 0.01 0.0368 0.0117 0.0723 0 0.0194 0.0331 5e-3 0.0371 0.0234 0.03 0.0362 0.0285 0.0942 0.0625 0.12695 0.084 0.0621 0.1883 0.0548 0.2793 0.0937 0.1131 0.0601 0.13721 0.23559 0.32031 0.20508 0.039-8e-3 0.0829-0.048 0.12305-0.0586 0.01 2.2e-4 0.0173 0.01 0.0273 0.01 0.1867-0.0172 0.5201-0.15092 1-0.40039 0.7045-0.52889 1.0445-0.96972 1.6816-1.4824 0.593-0.45462 1.2876-0.99975 2.918-2.3672 0.3911-0.32262 0.74651-0.83443 1.1289-1.2031 0.4157-0.41446 1.1064-0.89475 1.4707-1.2969h0.0508c0.059-0.0631 0.4758-0.58058 1.25-1.5508l0.65039-0.90039c0.1529-0.19661 0.2362-0.37878 0.25-0.54883v-18.051c0-0.12487-0.0356-0.25859-0.0996-0.40039-0.042-0.0708-0.0598-0.15417-0.0508-0.25 0.01-0.0924 0.0416-0.17578 0.0996-0.25 0.033-0.0624 0.0508-0.14573 0.0508-0.25v-2.1211c0.034-0.0133 0.12889 0.0501 0.15039 0.0215 0.094-0.16473-0.074-0.34794-0.21289-0.5293l-0.0371-0.16992c-0.01-0.0753-0.01-0.15859 0-0.25l0.0996-0.25v-3.25c-0.01-0.13451-0.058-0.30117-0.15039-0.5-0.034-0.0543-0.0518-0.1221-0.0508-0.20117-7e-4 -0.0792 0.0168-0.1625 0.0508-0.25 0.092-0.16549 0.14259-0.31471 0.15039-0.44922v-0.0254c0.018-0.0306 0.0308-0.043 0.0488-0.0742 0.1333-0.26667 0.1333-0.45078 0-0.55078-0.016-8e-3 -0.0328 0.0216-0.0488 0.0156v-3.9648c-0.014-0.0994-0.082-0.28346-0.20117-0.55078-0.021-0.0729-0.021-0.15625 0-0.25 0.025-0.0968 0.075-0.18008 0.15039-0.25l0.0996-0.0996c0.023-0.0271 0.0408-0.06 0.0508-0.0996l0.15039-0.10156c0.2154-0.11211 0.34909-0.29427 0.40039-0.54883 0.074-0.2082 0.0572-0.42526-0.0508-0.65039l-0.69922-1.3008-0.15039-0.34961c-0.7585-1.5316-1.5259-2.9154-2.3008-4.1504-0.5423-0.875-1.1411-1.7568-1.7988-2.6484l-4.3008-5.4512c-0.052-0.0669-0.0846-0.15026-0.0996-0.25-0.012-0.0598-0.012-0.12569 0-0.19922l0.0488-0.0996v-0.95117c0-0.26029-0.079-0.47734-0.25-0.65039-0.1966-0.19427-0.41174-0.2931-0.64844-0.29883zm-51.699 4.6992c-2 1.4333-3.7675 2.9663-5.3008 4.5996-2.2666 2.4667-4.1 5.4667-5.5 9-0.3-0.46667-0.78252-1.0326-1.4492-1.6992-0.7667-0.76667-1.2667-1.2996-1.5-1.5996-0.7333-0.86667-1.6675-1.7833-2.8008-2.75-0.033 0-1.0663-0.80039-3.0996-2.4004-1.9333-1.5333-4.2996-2.8492-7.0996-3.9492-0.1-0.0333-0.63291-0.10117-1.5996-0.20117-0.067 0.83333-0.0996 1.3178-0.0996 1.4512s0.066 0.38333 0.19922 0.75c0.1 0.33333 0.15039 0.58333 0.15039 0.75 0.067 2.0667 0.76631 4.9 2.0996 8.5 1.2667 3.7 2.6175 6.6167 4.0508 8.75 0.067 0.1 0.21592 0.24922 0.44922 0.44922 0.2 0.23333 0.18292 0.41745-0.0508 0.55078-0.4 0.26667-1.0492 0.56511-1.9492 0.89844-2.4 0.93333-4.5008 2.2182-6.3008 3.8516l-0.14844 0.14844c-0.067 0.1-0.16748 0.23372-0.30078 0.40039-0.1 0.13333-0.0822 0.24961 0.0508 0.34961 0.1 0.13333 0.23174 0.16823 0.39844 0.10156 0.1333 0 0.31748-0.0833 0.55078-0.25 3-2.4 5.8159-4.0008 8.4492-4.8008 0.067 0 0.2333-0.0329 0.5-0.0996 0.2-0.1 0.23486-0.28411 0.10156-0.55078-0.8-1.1-1.3504-1.9488-1.6504-2.5488-0.4667-0.9-1.1004-2.2837-1.9004-4.1504-1.2667-3.1667-1.9663-4.9496-2.0996-5.3496-1-3.1667-1.5329-5.7674-1.5996-7.8008v-0.30078c0.033-0.0667 0.13213-0.0667 0.29883 0 0.5667 0.26667 1.4 0.6349 2.5 1.1016 2.7667 1.4333 5.5845 3.4159 8.4512 5.9492 1.7 1.5333 3.4325 3.3337 5.1992 5.4004 0.2333 0.23333 0.43291 0.31667 0.59961 0.25l0.25-0.15039c0.3-1.2333 1.1004-2.9833 2.4004-5.25 1.2667-2.1333 2.4508-3.6992 3.5508-4.6992l1.8496-1.8516c0.7667-0.76667 1.4488-1.3151 2.0488-1.6484 0.033 0.26667 0.0508 1.0322 0.0508 2.2988 0 0.93333 0.05 1.6833 0.15039 2.25 0.067 0.36667 0.2333 1.5837 0.5 3.6504 0.1333 0.9 0.36592 2.2159 0.69922 3.9492 0.2333 1.5667 0.25038 2.9174 0.0508 4.0508-0.067 0.2-0.067 0.38411 0 0.55078 0.1 0.16667 0.24922 0.21511 0.44922 0.14844 1.1333-0.46667 2.7167-0.4997 4.75-0.0996 0.9 0.2 3.5996 0.91706 8.0996 2.1504 0.033 0.0333 0.1167 0.0663 0.25 0.0996 0.1 0.0333 0.0842 0.11667-0.0488 0.25-1.1333 1.1667-1.8329 1.8508-2.0996 2.0508-1.6667 1.4-3.5175 2.6171-5.5508 3.6504-1.7 0.83333-3.1167 1.4322-4.25 1.7988-1.6 0.5-3.1329 0.69961-4.5996 0.59961-0.5333-0.0333-0.98291-0.2155-1.3496-0.54883-0.1333-0.1-0.43369-0.43333-0.90039-1-0.067-0.1-0.0996-0.16784-0.0996-0.20117 0-0.0667 0.083-0.11511 0.25-0.14844 0.4333-0.16667 1.4992-0.65117 3.1992-1.4512 1.1667-0.5 2.6008-1.0155 4.3008-1.5488 0.9667-0.33333 2.4163-0.80039 4.3496-1.4004 0.1333-0.0333 0.36592-0.0663 0.69922-0.0996 0.2667-0.1 0.38291-0.30156 0.34961-0.60156-0.033-0.36667-0.18252-0.54883-0.44922-0.54883-0.3667 0.0667-0.63408 0.0996-0.80078 0.0996-2.9333-0.1-5.7667 0.16745-8.5 0.80078-1.7 0.4-2.9829 0.86511-3.8496 1.3984-0.8333 0.53333-1.1821 0.33372-1.0488-0.59961 0.1667-1.4333 0.3333-2.4992 0.5-3.1992l2.5488-11.051c0.1333-0.33333 0.2167-0.58333 0.25-0.75 0.067-0.26667-0.032-0.44883-0.29883-0.54883-0.2-0.0333-0.40156 0.0655-0.60156 0.29883-0.2333 0.2-0.4 0.4345-0.5 0.70117-2.1 4.4667-3.2821 7.0326-3.5488 7.6992-0.5667 1.4333-1.2508 3.6-2.0508 6.5-0.6667-0.83333-1.0833-1.3159-1.25-1.4492-1.0667-0.93333-2.2159-2.1349-3.4492-3.6016-1.4-1.7667-2.4504-3.0826-3.1504-3.9492-2.5333-3.1333-4.3008-5.1508-5.3008-6.0508-0.1667-0.16667-0.34883-0.1494-0.54883 0.0508-0.1 0.0667-0.11708 0.18294-0.0508 0.34961l3.2012 5.8008c0.3 0.5 1.4996 2.3663 3.5996 5.5996 0.9667 1.5333 2.2496 3.2329 3.8496 5.0996-1.0667 0.1-1.6171 0.15039-1.6504 0.15039-3.0333 0.53333-5.2988 1.0159-6.7988 1.4492-2.6667 0.8-5.0834 1.7341-7.25 2.8008-0.3 0.1-0.45117 0.31706-0.45117 0.65039v0.15039c0.1333 0.33333 0.41631 0.41667 0.84961 0.25 0.3667-0.2 0.8667-0.23489 1.5-0.10156 0.7667 0.13333 1.2841 0.16823 1.5508 0.10156 0.7333-0.13333 1.8496-0.20117 3.3496-0.20117l10.951-2.0488c-0.2667 0.6-0.61748 1.3984-1.0508 2.3984-1 1.8667-2.1163 4.6671-3.3496 8.4004-0.033 0.16667-0.0182 0.44961 0.0488 0.84961 0.4667-0.16667 0.70117-0.2655 0.70117-0.29883l3.9492-5.3008v0.75c0.033 0.33333 0.1167 0.86628 0.25 1.5996 0.1 0.63333 0.0674 1.1004-0.0996 1.4004-1.4333 2.5333-3.5496 4.6167-6.3496 6.25-0.2667 0.3-0.4333 0.31727-0.5 0.0508-0.1333-0.53333-0.20117-1.1341-0.20117-1.8008 0-1.3667 0.11826-2.6496 0.35156-3.8496 0.2667-1.4667 0.64844-3.1333 1.1484-5 0.1667-0.3 0.26748-0.51706 0.30078-0.65039 0.1-0.26667 0.0654-0.49922-0.10156-0.69922-0.1667-0.2-0.48447-0.21727-0.95117-0.0508-3.2 0.8-5.7833 1.1508-7.75 1.0508-2.5333-0.16667-4.0488-0.30039-4.5488-0.40039-0.6333-0.1-1.0345-0.1-1.2012 0l-0.25 0.25 0.25 0.15039c0.4333 0.2 0.71826 0.31628 0.85156 0.34961 1.5666 0.33333 3.0163 0.51745 4.3496 0.55078 2.1667 0.13333 4.5659-0.10117 7.1992-0.70117 0.067 0 0.26631-0.0988 0.59961-0.29883 0.2667-0.0667 0.35 0.1 0.25 0.5-0.2333 1.1333-0.63252 2.8155-1.1992 5.0488-0.3667 2.0667-0.39931 3.9329-0.0996 5.5996 0.067 0.4 0.2333 0.70039 0.5 0.90039 0.3 0.16667 0.64883 0.1509 1.0488-0.0488 2.5-1.2667 4.5349-3.0341 6.1016-5.3008l0.25-0.19922 0.0488 0.25 0.80078 7.1992c0.033 0.2 0.0676 0.53333 0.10156 1 0.033 0.4-0.017 0.66745-0.15039 0.80078-0.01 7e-3 -0.0194 0.0382-0.0254 0.0449-0.1772 0.0723-0.37071 0.11971-0.47461 0.30469l-0.0488 0.0488-0.65039 1.1504c-0.5051 0.87995-0.88879 1.6144-1.1504 2.2012v-0.05079c-0.3111 0.85671-0.25672 1.3242-0.48242 2.0898-0.512 1.4253-1.0464 2.8336-1.168 4.5606 0 0.0639 0.0145 0.25798 0.0215 0.38281 0 0.0833-0.0693 0.23523-0.0703 0.31641 0 0.10963-0.039 0.21041-0.10156 0.30078-0.056 0.0829-0.1396 0.13333-0.25 0.15039-0.083 0.0478-0.18163 0.0478-0.29883 0-0.672-0.1673-1.9494-0.256-3.041-0.36914-0.5774-0.12194-1.1345-0.25787-1.8594-0.28125-0.3697-0.0264-1.2069-0.0154-2.0996 0-0.2342 4e-3 -0.28058-7e-3 -0.55078 0-1.404 0.0407-2.2282 0.40773-3.2344 0.67188-0.79619 0.17414-1.6518 0.14281-2.416 0.42773h0.0508c-0.076 0.0339-0.077 0.12947-0.13867 0.17578-0.1142 0.0439-0.14485 0.0698-0.31055 0.125-0.096 0.0479 0.027 0.19148 0 0.26953-0.02 0.0544-0.09 0.0677-0.10156 0.12891-0.028 0.13263 0.079 0.22706 0.10156 0.3457v8e-3c0.034 0.17049 0.01 0.35768 0.14649 0.49805l1.5 1.5v-0.05097c0.1109 0.10622 0.13488 0.10514 0.24218 0.20703 0.2921 0.31507 0.72339 0.88061 0.95899 1.0938 0.7393 0.65478 1.5154 1.1439 2.2812 1.6777 0.1664 0.12098 0.52847 0.48438 0.66797 0.57226 0.077 0.0469 0.24362 0.11053 0.32422 0.1582 0.11129 0.0689 0.21437 0.17377 0.32617 0.24024 0.4947 0.28445 1.3939 0.61173 2.0215 0.91016 0.7624 0.36703 1.269 0.68482 2.2285 1.0898l1.6504 0.75c0.1092 0.0474 0.1926 0.11524 0.25 0.20117 0.055 0.12005 0.0698 0.23633 0.0488 0.34961-0.026 0.11081-0.092 0.19414-0.19922 0.25l-1.2207 1.0488c-0.7075 0.58066-1.3348 1.1361-1.9922 1.7012h-0.0371c-0.2234 0.25625-0.60719 0.57213-1.1504 0.94922v0.0508c-0.2818 0.23667-0.32866 0.2952-0.56836 0.5-0.3788 0.34045-0.87077 0.71635-1.2305 1.0508-0.067 0.0629-0.10988 0.12274-0.17578 0.18555-0.1258 0.11667-0.43559 0.37338-0.52539 0.46289l-1.1504 1.25c-0.1767 0.18183-0.2027 0.27979-0.3711 0.45703-1.2632 1.3603-2.35 2.701-3.2637 4.0215-0.2871 0.41075-0.90293 1.0041-1.1152 1.373l0.0526-0.0508-0.25 0.5-0.0508 0.0996c0 0.0341-0.0118 0.0671-0.0488 0.0996-0.096 0.19713-0.096 0.41419 0 0.65039 0 0.0101 0.0126 0.01 0.0176 0.0195 0.036 0.0374-0.0776 0.15743-0.0176 0.18164 0.098 0.0381 0.12525 9e-3 0.21875 0.043 0.076 0.0865 0.13217 0.21717 0.23047 0.25586l0.40043 0.15041 1.0996 0.0508c0.081-1e-3 0.25936-0.0465 0.34766-0.0508 0.015-7.3e-4 0.0426-9e-3 0.0586-0.01 0.77-0.0418 1.6958-0.1547 2.9922-0.43945l0.59179-0.125c0.068-0.0109 0.089-0.0143 0.15821-0.0254 1.4333-0.26667 2.6659-0.56706 3.6992-0.90039 0.521-0.16319 1.0586-0.57286 1.582-0.77148 0.623-0.24169 1.388-0.34642 1.9688-0.62891 1.019-0.48537 2.5928-1.3973 4.3652-2.4629 0.1632-0.1043 0.32098-0.1287 0.48438-0.23633l0.23437-0.15625c0.09-0.0365 0.17793-0.0579 0.26563-0.0449 0.1233 0.0208 0.21029 0.0703 0.27539 0.13672l0.0254 0.46484c0.1667 2.6333 0.30039 4.3155 0.40039 5.0488 0.3529 2.1716 1.0971 3.9338 1.9141 5.6191 0.05 0.12266 0.0339 0.20829 0.0859 0.33203l0.0996 0.25v0.0488c0.017 0.0463 0.0474 0.0591 0.0644 0.10351 0.085 0.15778 0.096 0.39372 0.18555 0.54688 0.099 0.16001 0.19787 0.11674 0.29687 0.24023 0.09 0.11976 0.15036 0.31954 0.25196 0.41016 0.1494 0.10471 0.30057 0.10862 0.45117 0.1582 0.1 0.0372 0.19903 0.24219 0.29883 0.24219 0.035-3e-3 0.067-0.0943 0.10156-0.10156 0.5689-0.0257 0.96812-0.40744 1.1992-1.1484 0.023-0.0253 0.0408-0.0602 0.0508-0.10156 0.92-1.7204 1.5693-3.17 1.9492-4.3496v-0.0488l0.20123-0.55056c0.024 6.5e-4 0.0418-0.0168 0.0508-0.0508 0.048-0.0992-0.0215-0.16459 0.0195-0.26172 0.012-0.0493 0.0691-0.13924 0.0801-0.1875 0.2667 0.6 0.6833 1.9508 1.25 4.0508 0.3667 1.4 1.0333 3.2992 2 5.6992 0.9667 2.6 1.9667 5.0167 3 7.25 1.3 2.8333 2.583 5.3508 3.8496 7.5508 2.1 3.9333 3.7008 6.6659 4.8008 8.1992 0 0.0333 0.066 0.0992 0.19922 0.19922 0.1 0.1 0.052 0.20078-0.14844 0.30078l-0.10156 0.0508c-1.2333 0.56667-2.4 1.1984-3.5 1.8984-1.8666 1.2-3.4655 2.2678-4.7988 3.2012l-4.5508 3.5488c-1 0.73333-2.0329 1.8845-3.0996 3.4512-0.2 0.26667-0.3667 0.28243-0.5 0.0488-0.7333-1.3-1.6171-2.6488-2.6504-4.0488-3.3333-4.5999-6-7.9178-8-9.9512-0.6-0.6-1.8325-1.6833-3.6992-3.25-2.1-1.6667-4.0012-2.9651-5.7012-3.8984-0.1333-0.0667-0.3-0.10156-0.5-0.10156-0.2333 0.0333-0.38252 0.0837-0.44922 0.15039-0.1333 0.13333-0.15038 0.3-0.0508 0.5l0.30079 0.4512c0.8667 1.6333 1.3492 2.5984 1.4492 2.8984 0.5333 1.7667 1.3512 5.0517 2.4512 9.8516 0.2 0.9 0.7833 3.3168 1.75 7.25 0.8333 3.3667 1.9167 5.8667 3.25 7.5-0.3333 0.0667-0.71709 0.0492-1.1504-0.0508-0.6-0.16667-0.96631-0.25-1.0996-0.25l-7.2012-0.44922c-0.8333-0.0333-2.5 0.18177-5 0.64844l-0.5 0.10156c-0.3333 0.0667-0.48252 0.24883-0.44922 0.54883 0.033 0.23333 0.18252 0.34961 0.44922 0.34961h0.55078c0.5 0.0333 1.25-0.05 2.25-0.25 1-0.16667 1.75-0.25 2.25-0.25 1.4 0.0667 3.4833 0.10156 6.25 0.10156 1.0667 0.0333 2.4175 0.23294 4.0508 0.59961 0.4333 0.13333 0.73174 0.0655 0.89844-0.20117 0.1-0.16667 0.1-0.33333 0-0.5-0.1333-0.16667-0.23213-0.29844-0.29883-0.39844l-0.30078-0.5c-1.3-1.8333-2.2167-4.0504-2.75-6.6504-0.1-0.46667-0.48369-1.8678-1.1504-4.2012l-1.1992-4.75c-0.2333-2.1332-0.53369-3.6992-0.90039-4.6992-0.4-1.3667-0.70039-2.3996-0.90039-3.0996-0.4-1.2-0.84961-2.1845-1.3496-2.9512l-0.0488-0.19922c0.1-0.0667 0.16592-0.0841 0.19922-0.0508 0.7667 0.43333 1.2163 0.71823 1.3496 0.85156 0.6333 0.63333 1.6663 1.5151 3.0996 2.6484 2.7 2.2667 4.7 4.2182 6 5.8516 0.1667 0.2 1.1183 1.3492 2.8516 3.4492 1.1667 1.4 2.0833 2.5996 2.75 3.5996 0.6 0.8 1.4488 2.0171 2.5488 3.6504 0.1 0.13333 0.20078 0.33294 0.30078 0.59961 0.1333 0.2 0.31553 0.30078 0.54883 0.30078 0.4 0 0.76826-0.23451 1.1016-0.70117 0.9333-1.2333 2.0825-2.433 3.4492-3.5996 2.0667-1.7333 3.7663-3.0667 5.0996-4 0.7333-0.5 3.0841-2 7.0508-4.5-0.1667 1.5333-0.28291 2.4829-0.34961 2.8496-0.2333 1-0.5667 2.5-1 4.5-0.8667 3.3333-1.6341 5.7849-2.3008 7.3516-0.4667 1.2333-1.3329 2.9833-2.5996 5.25-0.067 0.13333-0.0512 0.26511 0.0488 0.39844 0.067 0.1 0.16748 0.15039 0.30078 0.15039 1.8333-0.2 4.3992 0.05 7.6992 0.75 2.6 0.53333 4.5341 1.0333 5.8008 1.5l4 1.5508c-0.1 0.1-0.24922 0.26667-0.44922 0.5-3.1 1.7-4.8675 2.6496-5.3008 2.8496-1.4333 0.73333-4.0496 1.6674-7.8496 2.8008-0.8667 0.26667-1.95 0.49922-3.25 0.69922l-3.3008 0.44922c-0.9667 0.13333-2.4822 0.26706-4.5488 0.40039-0.4333 0.0667-0.71826 7.8e-4 -0.85156-0.19922l-1.3496-3.1504c-0.1333-0.26667-0.083-0.40039 0.15039-0.40039l7.8496-0.79883c1.6667-0.26667 2.6512-0.40039 2.9512-0.40039 0.5-0.0333 1.2151-0.14961 2.1484-0.34961 0.5-0.1 1.2171-0.23372 2.1504-0.40039 0.8333-0.2 1.5329-0.45 2.0996-0.75l0.15039-0.20117-0.29883-0.14844-2.9512-0.35156c-0.8333-0.0667-1.9496-0.0996-3.3496-0.0996-1.6667 0.0333-2.8004 0.0333-3.4004 0-1.4333-0.13333-2.6155-0.13333-3.5488 0-0.3333 0.0333-1.0679 0.0663-2.2012 0.0996-0.9333 0-1.6988 0.0833-2.2988 0.25 1.4333-2.2667 2.35-3.6833 2.75-4.25 1.6-2.0667 2.7667-3.6326 3.5-4.6992 1.3333-2.0333 2.6492-4.1496 3.9492-6.3496 0.5667-0.9 0.96592-1.5841 1.1992-2.0508 0.4333-0.76667 0.71826-1.4992 0.85156-2.1992 0.033-0.0667 0.0162-0.18294-0.0508-0.34961l-0.25 0.0996c-0.6333 0.5-1.3175 1.1996-2.0508 2.0996-0.4333 0.5-1.0651 1.2674-1.8984 2.3008-1.6 1.8667-3.9334 4.7001-7 8.5l-3.6016 4.1992c0.1-0.3 0.1-0.53255 0-0.69922-0.1667-0.2-0.26553-0.35117-0.29883-0.45117-0.8333-1.9667-1.4845-3.4337-1.9512-4.4004-1.3333-2.5667-2.2829-4.4988-2.8496-5.7988-0.7-1.6667-1.9171-3.9167-3.6504-6.75-0.8-1.3-2.0655-3.2496-3.7988-5.8496-0.1667-0.26667-0.3333-0.36745-0.5-0.30078-0.033 0.0333-0.0508 0.11667-0.0508 0.25s0.0168 0.23411 0.0508 0.30078l1.1504 2.6484c0.9333 2.3 2.3829 5.7517 4.3496 10.352 0.6333 1.5667 1.4996 3.9833 2.5996 7.25l2 4.7988v0.4004h-0.24998l-8.3496-0.69922c-1.3 0.0333-2.2845 0.0159-2.9512-0.0508-2.1333-0.26667-4.3833-0.2494-6.75 0.0508-0.067 0-0.18291 0.0833-0.34961 0.25l0.30078 0.19922c0.4333 0.16667 1.1 0.35078 2 0.55078 1.1667 0.4 3.7655 0.98334 7.7988 1.75 0.9333 0.16667 2.3016 0.44961 4.1016 0.84961 1.6 0.33333 2.9663 0.53294 4.0996 0.59961 0.2667 0 0.63291 0.11628 1.0996 0.34961l-5.4492 7.9004c-0.067 0.1-0.0344 0.33255 0.0996 0.69922l0.19922-0.0488c0.1-0.3 0.53408-0.91628 1.3008-1.8496 0.6333-0.73333 1.4492-1.8671 2.4492-3.4004 1.0333-1.5667 1.8337-2.7004 2.4004-3.4004 0.3333-0.33333 0.31622-0.53294-0.0508-0.59961l-6.6484-1.1504c-2.3-0.4-4.6004-0.84961-6.9004-1.3496l-3.2012-0.70117c0.7667-0.13333 1.85-0.1491 3.25-0.0488 1.5 0.1 2.5679 0.11577 3.2012 0.0488 0.8333-0.0667 2.0988 0.0671 3.7988 0.40039 0.3333 0.0667 0.95156 0.0996 1.8516 0.0996 0.8 0 1.4163 0.0678 1.8496 0.20117 1.0333 0.23333 1.7 0.1655 2-0.20117 0.1333-0.16667 0.1333-0.41667 0-0.75-0.2-0.36667-0.33369-0.64961-0.40039-0.84961-1.5333-3.8667-2.3996-6.0992-2.5996-6.6992-0.7-2.1332-1.5004-4.3504-2.4004-6.6504l-1.1504-2.8496c0.3333 0.13333 0.55039 0.33294 0.65039 0.59961 0.7667 1.5667 1.9159 3.9 3.4492 7 0.8333 1.7 2.0504 4.2833 3.6504 7.75 0.067 0.13333 0.15 0.43372 0.25 0.90039 0.1667 0.4 0.5 0.45039 1 0.15039 0.4-0.26667 0.8167-0.70078 1.25-1.3008 0.6667-0.86667 1.0329-1.3492 1.0996-1.4492 1.9-2.3 3.0008-3.6682 3.3008-4.1016 1.1333-1.6 2.0325-2.7492 2.6992-3.4492l2.6016-2.9492c0.1667-0.3 0.29844-0.51706 0.39844-0.65039 0.1667-0.3 0.40117-0.43372 0.70117-0.40039-0.1667 0.0333-0.28291 0.14961-0.34961 0.34961l-0.15039 0.45117-3.3496 5.25c-1.5333 2.3333-2.7175 4.0659-3.5508 5.1992-1.2 1.5667-2.2504 3.2159-3.1504 4.9492-0.033 0.1-0.0162 0.28411 0.0508 0.55078h0.34959l0.34961-0.0508c2-0.1 3.0175-0.14844 3.0508-0.14844 3.2333 0 5.3671 0.0484 6.4004 0.14844 0.4333 0.0333 2.3325 0.0508 5.6992 0.0508l0.59961 0.0996c-3.4333 0.56667-5.9837 0.91745-7.6504 1.0508-3.6333 0.46667-6.3833 0.68372-8.25 0.65039-0.2-0.0333-0.3667 0.0151-0.5 0.14844-0.1333 0.13333-0.16591 0.2845-0.0996 0.45117 0.3 0.9 0.76709 1.9988 1.4004 3.2988l2.1992 4.6016c0.067 0.1 0.13447 0.26667 0.20117 0.5 0.1 0.2 0.24922 0.31628 0.44922 0.34961 0.067 0 0.13447-0.0833 0.20117-0.25 0.067-0.2 0.0818-0.33372 0.0488-0.40039-0.3667-1.0333-0.81631-2.0992-1.3496-3.1992-0.1333-0.23333-0.083-0.33411 0.15039-0.30078 1.0333 0.0667 2.2833 0.0337 3.75-0.0996l3.75-0.45117c1.1333-0.1 2.8659-0.44883 5.1992-1.0488s4.9167-1.5845 7.75-2.9512c0.2667-0.13333 1.7163-0.96667 4.3496-2.5 1.3667-0.76667 1.5004-1.4159 0.40039-1.9492-3.1333-1.4333-5.7322-2.4004-7.7988-2.9004-3.7-0.83333-6.6167-1.2829-8.75-1.3496l-0.35156-0.0508 2.1504-4.1484c0.6333-1.4667 1.2012-3.1333 1.7012-5 0.9-3.4 1.4155-5.4678 1.5488-6.2012l0.45119-3.3496c0.2 0.43333 0.34922 0.70078 0.44922 0.80078 1.2667 1.8333 2.0671 2.9496 2.4004 3.3496 0.6333 0.73333 0.9667 1.1171 1 1.1504 0.4333 0.36667 0.90039 0.51589 1.4004 0.44922 0.1667 0 2.2325-0.25 6.1992-0.75 3.1333-0.4 5.4163-0.66745 6.8496-0.80078 2-0.2 4.8837-0.43255 8.6504-0.69922 1-0.0667 1.6337-0.25078 1.9004-0.55078 0.2333-0.3 0.21622-0.86589-0.0508-1.6992-0.1-0.3-0.31709-0.66628-0.65039-1.0996-0.4-0.6-0.65-0.98372-0.75-1.1504-0.4-0.8-1.3825-2.4337-2.9492-4.9004l-3.1992-5.4004c-0.2-0.33333-0.35117-0.59883-0.45117-0.79883-0.1333-0.33333-0.1333-0.66667 0-1 0.7667-2 1.35-3.5 1.75-4.5 0.3-0.8 0.66631-2.3678 1.0996-4.7012 0.5-2.8667 0.53486-5.2155 0.10156-7.0488-0.1-0.3-0.15039-0.51706-0.15039-0.65039 0-0.23333 0.25-0.31667 0.75-0.25 1.2333 0.13333 2.8167 0.0675 4.75-0.19922 2-0.2 3.5659-0.48489 4.6992-0.85156 0.7333-0.23333 1.8341-0.56667 3.3008-1 1.2667-0.43333 2.3171-0.91589 3.1504-1.4492 0.2333-0.16667 0.34961-0.30039 0.34961-0.40039-0.033-0.0667-0.13408-0.1655-0.30078-0.29883-1.0333-0.9-1.7659-1.4678-2.1992-1.7012-1.1-0.63333-1.9333-1.1159-2.5-1.4492-0.9667-0.5-1.8329-0.88372-2.5996-1.1504-2.9333-1.0667-5.2337-1.5841-6.9004-1.5508l-0.30078-0.14844c-0.1 0-0.0832-0.0678 0.0508-0.20117 0.4-0.4 1.2992-1.4659 2.6992-3.1992 1.6333-2.1 3.0675-4.1 4.3008-6 1.4667-2.2333 2.8155-4.8845 4.0488-7.9512 0.2667-0.63333 0.58447-1.5326 0.95117-2.6992 0.4333-1.3 0.74922-2.1992 0.94922-2.6992 0.1-0.3 0.05-0.5345-0.15039-0.70117-0.2667-0.23333-0.49922-0.2491-0.69922-0.0488-0.7667 0.7-1.7667 1.3318-3 1.8984l-3.3008 1.25c-2.6 0.96666-5.4333 2.3174-8.5 4.0508-0.6333 0.36667-1.6488 1.1826-3.0488 2.4492-0.3667 0.36667-0.91709 0.88411-1.6504 1.5508-0.5667 0.6-1.0163 1.1833-1.3496 1.75-0.4 0.76667-0.68291 1.0167-0.84961 0.75-1.2-2-2.1516-3.4826-2.8516-4.4492-2.0333-2.7-4.5488-5.0178-7.5488-6.9512-0.6667-0.3-1.1512-0.53255-1.4512-0.69922-0.5667-0.3-0.86514-0.78451-0.89844-1.4512-0.3333-2.7667-0.5833-4.85-0.75-6.25-0.4667-4.6667-0.73408-7.6667-0.80078-9-0.2-2.9-0.33369-5.0667-0.40039-6.5l-0.15039-4.5c0.067-0.53333 0.067-0.93255 0-1.1992-0.067-0.4-0.43291-0.59961-1.0996-0.59961-1.5333 0-3.8667-0.0678-7-0.20117-1.0667-0.0333-2.5492-0.11667-4.4492-0.25l3.25-1.5488c3.5333-1.7 6.3667-3.8841 8.5-6.5508 0.4333-0.56667 0.33252-0.99883-0.30078-1.2988-2.8666-0.93333-4.7155-1.5012-5.5488-1.7012-1.7-0.43333-2.8512-0.69883-3.4512-0.79883-1.3-0.23333-2.4821-0.2506-3.5488-0.0508-0.3 0.1-0.45117-0.0337-0.45117-0.40039 0.067-0.86667 0.0996-1.5159 0.0996-1.9492 0.033-0.76667-0.015-1.4178-0.14844-1.9512-0.1-0.4-0.31709-1.65-0.65039-3.75-0.4667-2.5333-0.70117-4.45-0.70117-5.75 0.033-0.63333 0.0508-1.0984 0.0508-1.3984-0.033-0.56666-0.13408-1.0512-0.30078-1.4512-0.1-0.3-0.24922-0.38333-0.44922-0.25zm-20.449 10.551 6.4492 8.1504 4.25 4.5996c0.6 0.66667 1.0167 0.53294 1.25-0.40039 0.8-2.9333 1.4667-5.1174 2-6.5508 0.8333-2.3 1.5659-4.0326 2.1992-5.1992-0.1 1.0667-0.44883 2.65-1.0488 4.75-0.4333 1.7667-0.66787 2.8171-0.70117 3.1504l-0.64844 4.5996c-0.1 0.9 0.34961 1.1829 1.3496 0.84961 3-1.1333 5.3159-1.8155 6.9492-2.0488 2-0.26667 3.4845-0.41784 4.4512-0.45117l-4.8516 1.5c-2.1 0.73333-4.0496 1.65-5.8496 2.75-0.5 0.3-0.69961 0.63333-0.59961 1 0.067 0.3 0.34961 0.68372 0.84961 1.1504l-5.4492-0.30078 0.34961-0.64844c0.1-0.23333 0.0674-0.41745-0.0996-0.55078-0.4667-0.33333-1.1004-0.36637-1.9004-0.0996-0.8 0.33333-2.1004 0.63372-3.9004 0.90039-1.8333 0.3-3.2171 0.51511-4.1504 0.64844-1.6 0.23333-2.9817 0.36706-4.1484 0.40039l-3.0508 0.20116c0.6-0.23333 1.4333-0.60156 2.5-1.1016 0.9-0.43333 1.6675-0.71628 2.3008-0.84961 0.3-0.0667 1.2167-0.31667 2.75-0.75 1.0667-0.3 1.9659-0.48216 2.6992-0.54883 1.4-0.1 2.7992-0.3849 4.1992-0.85156 0.6-0.2 0.81709-0.48294 0.65039-0.84961-0.3667-0.4-0.59922-0.6655-0.69922-0.79883-1.0667-1.2667-2.65-3.4837-4.75-6.6504-0.3-0.46667-1.4163-2.3174-3.3496-5.5508zm11.049 18.799c0.3 0 0.7167 0.0678 1.25 0.20117 2.0333 0 5.0663 0.0659 9.0996 0.19922 1.1667 0 2.9516 0.0678 5.3516 0.20117l6 0.19922c0.5667 0 1.4155 0.0504 2.5488 0.15039 0.2667 0.0333 0.40039 0.14961 0.40039 0.34961l-0.0996 0.44922c-0.067 0.56666-0.067 1.2508 0 2.0508 0 0.43333 0.0326 1.1 0.0996 2l0.5 8.75c0.2333 3.9667 0.43291 6.5829 0.59961 7.8496 0.2667 2.2333 0.7667 5.3671 1.5 9.4004l1.4004 7.4004c0.8333 4.0333 1.2829 6.1671 1.3496 6.4004 0.3333 1.4667 0.9167 3.6333 1.75 6.5 0.7 3.0667 1.3667 5.3496 2 6.8496 0.5333 1.3333 1.3163 3.3333 2.3496 6 0.6333 1.3333 1.5345 3.3488 2.7012 6.0488 0.5 1.0667 1.1492 2.3341 1.9492 3.8008 0.4667 0.83333 1.1508 2.0659 2.0508 3.6992l2.1992 3.7012c1.4 2.4667 2.4833 4.3155 3.25 5.5488l3.7012 5.9004c0.2 0.33333 0.082 0.5-0.35156 0.5-1.2-0.0333-2.7155 0.05-4.5488 0.25-2.7667 0.23333-4.2996 0.36706-4.5996 0.40039-0.9667 0.0667-2.2167 0.20039-3.75 0.40039-2 0.23333-3.2675 0.38255-3.8008 0.44922-2.2667 0.13333-3.9333 0.31745-5 0.55078-0.6333 0.16667-1.1333 0.0659-1.5-0.30078-0.3667-0.53333-0.64961-0.93255-0.84961-1.1992-2.4333-3.4333-4.1329-5.8829-5.0996-7.3496-1.2667-2.3333-2.2512-4.0678-2.9512-5.2012-0.9333-1.5333-2.5671-4.8164-4.9004-9.8496-0.3667-0.8-0.81631-1.9841-1.3496-3.5508-0.5667-1.6333-1.0163-2.8155-1.3496-3.5488-0.6333-1.3333-1.3-3.1512-2-5.4512-0.6667-2.2-1.1337-3.8667-1.4004-5-1.0667-3.7333-1.8321-6.5492-2.2988-8.4492-0.5667-2.1667-1.0667-4.2829-1.5-6.3496-0.9-4.1667-1.4175-6.6667-1.5508-7.5-0.5333-4.4999-0.81631-6.9671-0.84961-7.4004-0.067-0.93333-0.20039-2.1504-0.40039-3.6504-0.2667-1.8667-0.4333-3.0992-0.5-3.6992-0.2-2.2333-0.34922-3.9-0.44922-5l-1.2012-12.5c-0.033-0.13333 0.05-0.20117 0.25-0.20117zm-0.94922 0.20117 0.0488 0.34961c0.1667 0.83333 0.083 1.6841-0.25 2.5508-0.2333 0.53333-0.68291 1.2659-1.3496 2.1992l-1.3496 1.75c0.033-0.53333 0.2-1.1167 0.5-1.75 0.5-1.0333 0.75-1.5663 0.75-1.5996 0.033-0.13333 0.48291-1.2012 1.3496-3.2012zm62.6 29.299 0.0508 0.35156-1.3516 3.5996c-0.5667 1.4333-1.0667 2.6155-1.5 3.5488-1.3666 2.7667-3.0818 5.5341-5.1484 8.3008-0.4667 0.63333-1.1683 1.6004-2.1016 2.9004-0.8 1.1-1.5655 1.9992-2.2988 2.6992l-0.55078 0.34961c-0.2333 0.23333-0.29922 0.45039-0.19922 0.65039 0.1 0.16667 0.21631 0.25 0.34961 0.25 3.1667 0.26667 5.9167 0.90039 8.25 1.9004 2.5 0.96667 4.5833 2.0829 6.25 3.3496l0.0996 0.15039-0.65039 0.40039c-1.0667 0.4-1.8651 0.68294-2.3984 0.84961-0.9333 0.33333-1.7337 0.56589-2.4004 0.69922-1.2667 0.3-2.2163 0.50156-2.8496 0.60156-1.1 0.23333-2.0671 0.33216-2.9004 0.29883l-3.1504 0.30078c-0.067 0-0.36709-0.0504-0.90039-0.15039-0.3333-0.0667-0.61631-7.8e-4 -0.84961 0.19922-0.3 0.33333-0.44922 0.75-0.44922 1.25 0.033 0.26667 0.099 0.68333 0.19922 1.25 0.1667 0.96666 0.18378 2.0674 0.0508 3.3008 0 0.0667-0.15117 1.1674-0.45117 3.3008-0.1667 1.1333-0.68213 3.1488-1.5488 6.0488-0.1667 0.6-0.4167 1.2841-0.75 2.0508 0 0.0333-0.068 0.11667-0.20117 0.25l-0.19922-0.25c-2.7667-5.2332-4.3171-8.2004-4.6504-8.9004-0.9333-1.9-1.7841-3.8496-2.5508-5.8496-0.1333-0.33333-0.083-0.69961 0.15039-1.0996 0.4-0.7 0.59961-1.0682 0.59961-1.1016 0.2333-0.6 0.45039-0.83255 0.65039-0.69922l0.5 0.80078c0.9333 1.5667 2.0012 4.0163 3.2012 7.3496 0.1667 0.46667 0.38174 1.1837 0.64844 2.1504 0.2667 0.83333 0.6 1.5 1 2l0.25 0.14844 0.10156-0.14844c-0.067-1.9-0.25078-3.5841-0.55078-5.0508-0.2-1.3333-0.3667-2.3159-0.5-2.9492-0.3-1.7333-0.66631-3.1345-1.0996-4.2012-0.6-1.3-0.98369-2.2496-1.1504-2.8496-0.033-0.13333 0.083-0.19922 0.34961-0.19922h0.70117c2.1333-0.23333 3.4667-0.31667 4-0.25 0.4 0.0667 1.0492 0.0492 1.9492-0.0508 0.8-0.0667 1.4337-0.0492 1.9004 0.0508 0.6 0.13333 1.5671 0.11607 2.9004-0.0508h1.1484c0.4667 0 0.85039 0.0329 1.1504 0.0996 0.2 0.0333 0.85117-0.0326 1.9512-0.19922l0.10156-0.15036c-0.1667-0.26667-0.26748-0.40039-0.30078-0.40039-1.4667-0.5-3.7322-1.0504-6.7988-1.6504-2.0333-0.4-4.5838-0.59961-7.6504-0.59961l-0.30078-0.0996 0.0996-0.30078 4-5.5c0.2667-0.4 0.75117-0.99883 1.4512-1.7988 0.6333-0.73333 1.1004-1.3341 1.4004-1.8008 0.4-0.63333 0.98331-1.3659 1.75-2.1992 0.9-0.9 1.5492-1.5841 1.9492-2.0508 0.6-0.7 2.2163-2.2504 4.8496-4.6504 0.3667-0.36667 0.45-0.66511 0.25-0.89844-0.1333-0.16667-0.33291-0.1509-0.59961 0.0488-1.2 0.8-3.1167 2.3329-5.75 4.5996-2.1 1.8333-5.2492 5.0504-9.4492 9.6504l-2.0508 2.4004-0.84961-2.1504c-0.4-1.1-0.93291-2.2492-1.5996-3.4492-0.96669-1.9-2.4337-4.2004-4.4004-6.9004-0.1667-0.26667-0.5-0.61745-1-1.0508l-0.30078-0.0488c-0.1667 0.4-0.21709 0.63255-0.15039 0.69922 0.6667 1.2 1.3508 2.6845 2.0508 4.4512l0.40039 0.89844c0.6667 1.8 1.1163 3.1837 1.3496 4.1504 0.1667 0.63333 0.69961 2.4841 1.5996 5.5508l-3.6992-2c-0.2333-0.13333-0.38447-0.38333-0.45117-0.75-0.033-0.4-0.082-0.70039-0.14844-0.90039l-1.25-4.9492c-0.2-0.7-0.40156-1.5682-0.60156-2.6016-0.1667-1.2-0.31592-2.0992-0.44922-2.6992l-1.9492-9.25v-0.25001c0.3333 0.0667 0.56592 0.15 0.69922 0.25 2.1333 1.4 3.8 2.6829 5 3.8496 2.5 2.4333 4.4826 5.0845 5.9492 7.9512 0.1667 0.3 0.36826 0.49961 0.60156 0.59961 0.2 0.1 0.3667 0.0671 0.5-0.0996l0.59961-0.90039c1.3333-2 3.1337-3.8004 5.4004-5.4004 1.4666-1 3.2167-1.9496 5.25-2.8496 0.5333-0.26667 2.3822-1.0341 5.5488-2.3008 0.8333-0.36667 2.0679-0.9655 3.7012-1.7988zm-26.949 13.65c1.8666 3.4667 2.9151 5.4337 3.1484 5.9004l0.30078 0.59961c0.2667 0.63333 0.65039 1.5674 1.1504 2.8008 0.2667 0.53333 0.53213 0.64961 0.79883 0.34961l0.35156-0.69922c1.2-1.5667 2.2659-2.8341 3.1992-3.8008 1.6667-1.7333 2.9671-3.0163 3.9004-3.8496l-0.40039 0.79881c-0.1667 0.3-0.3333 0.5345-0.5 0.70117-0.7333 0.76667-1.5337 1.7337-2.4004 2.9004-0.4667 0.66667-1.1837 1.6667-2.1504 3l-1.25 1.75c-0.5 0.6-0.59883 0.96628-0.29883 1.0996 0.1667 0.1 0.53291 0.15039 1.0996 0.15039 1.4333 0.16667 3.5671 0.31589 6.4004 0.44922 0.4333 0.0667 1.1833 0.20039 2.25 0.40039 0.9333 0.2 1.6659 0.33372 2.1992 0.40039-0.8 0.3-1.7671 0.36589-2.9004 0.19922-0.7667-0.1-1.7492-0.1-2.9492 0-1.6 0.1-2.5825 0.15039-2.9492 0.15039-0.3333 0-0.85078 0.0155-1.5508 0.0488-0.6333 0.0667-1.1333 0.0841-1.5 0.0508-0.6667-0.0667-1.0504 0.0167-1.1504 0.25-0.1 0.2 7.8e-4 0.58372 0.30078 1.1504 1.0667 1.9333 1.9 4.5671 2.5 7.9004v0.84961c-0.7333-2.1667-1.6675-4.1996-2.8008-6.0996-0.1-0.16667-0.48369-0.71706-1.1504-1.6504-0.2667-0.43333-0.53213-0.4003-0.79883 0.0996l-1.3008 2.75c-0.5-1.0667-0.78291-1.8671-0.84961-2.4004-0.033-0.3 0.068-0.63333 0.30078-1 0.3333-0.4 0.56592-0.70039 0.69922-0.90039 0.2667-0.33333 0.35-0.63177 0.25-0.89844-0.067-0.13333-0.25078-0.33489-0.55078-0.60156-0.1667-0.13333-0.68213-0.48216-1.5488-1.0488-0.4333-0.2-0.6833-0.38411-0.75-0.55078-0.033-0.0333-0.18447-0.51589-0.45117-1.4492 0.1667-0.0333 0.35078 0.0171 0.55078 0.15039l2.3008 1.1992c0.1333 0.0667 0.33291 0.20039 0.59961 0.40039 0.2333 0.16667 0.46592 0.1494 0.69922-0.0508 0.2333-0.16667 0.30117-0.36628 0.20117-0.59961-0.1333-0.3-0.2167-0.51706-0.25-0.65039-0.4333-1.9667-1.0167-4.1663-1.75-6.5996-0.1667-0.66667-0.30039-1.1667-0.40039-1.5-0.2-0.56667-0.45-1.0337-0.75-1.4004l-0.0996-0.15039c-0.067-0.23333 0.017-0.43294 0.25-0.59961zm-0.5 12.6 0.29883 0.10156c1.2667 0.5 1.4179 1.2655 0.45117 2.2988-0.2333-0.5333-0.50078-1.2329-0.80078-2.0996 0.033-0.13333 0.0508-0.23411 0.0508-0.30078zm21.949 14.951c-0.2333 0.16667-0.26601 0.33333-0.0996 0.5 0.1206 0.12064 0.14834 0.3156 0.18164 0.50586-0.033 0.089-0.13481 0.13254-0.13281 0.24414 0 0.0422-0.0188 0.0751-0.0488 0.0996v0.99999l0.15039 1.3008c0.131 0.85065 0.19692 1.4669 0.19922 1.8496v0.0488c0.051 0.52603 0.32115 1.7844 0.43945 2.5352 0.031 0.22708 0.0265 0.54544 0.0605 0.76562 0.1582 0.86026 0.26952 1.2326 0.41602 1.9727 0.1455 0.75521 0.14938 1.0428 0.33398 1.9277l0.15039 0.69922c0.056 0.25126 0.15419 0.43599 0.21289 0.68359 0.088 0.37296 0.20491 1.052 0.28711 1.3672 0.6262 2.3259 1.2852 4.2565 1.9688 5.9102 0.089 0.22582 0.13847 0.51873 0.23047 0.74023 0.3013 0.69336 0.70247 1.5092 1.2012 2.4492 0.055 0.12031 0.0708 0.23659 0.0488 0.34961-0.025 0.11133-0.091 0.19466-0.19922 0.25-0.079 0.0948-0.17958 0.14518-0.30078 0.15039-0.3838 7e-3 -0.79149 0.12353-1.1797 0.15039-0.096 8e-3 -0.28714-0.0117-0.36914 0-0.2157 0.022-0.42377 0.10138-0.63867 0.12891-0.9673 0.10862-1.9179 0.14035-2.9121 0.37109-0.3394 0.088-0.56463 0.29842-0.89453 0.39649-1.7247 0.49476-3.4298 1.139-5.1055 2.0039-0.2485 0.12424-0.54849 0.45242-0.80469 0.60742-0.298 0.18329-0.70979 0.24561-0.99609 0.44141h0.0508l-2.3008 1.8496c-0.037 0.0395-0.086 0.0569-0.14844 0.0508-0.2598 0.25925-0.39349 0.54219-0.40039 0.84961 0.01 0.35768 0.1745 0.64062 0.5 0.84961l0.0488 0.0508c1.4484 1.0248 3.1538 1.7212 4.9648 2.2832 0.2807 0.10522 0.33602 0.21117 0.63672 0.31641 0.2702 0.0968 0.52953 0.12048 0.79883 0.21094l0.95117 0.28906c1.3161 0.44049 2.5816 0.79127 3.7988 1.0508 0.1306 0.0324 0.45693 0.0533 0.61523 0.084 0.1433 0.0261 0.29255 0.091 0.43555 0.11523 0.067 0.0111 0.51949 0.0166 0.61719 0.0273 0.5464 0.0739 0.89111 0.16031 1.6328 0.22266l2.75 0.15039c0.1301 8e-3 0.22893 0.0411 0.29883 0.0996 0.1059 0.09 0.17367 0.19075 0.20117 0.30078 0.019 0.11198 2.2e-4 0.21081-0.0508 0.29883-0.8488 1.8107-1.4462 3.8747-1.8379 6.1426-0.063 0.26794-0.14904 0.32617-0.21094 0.60742-0.2 0.83333-0.2833 1.8682-0.25 3.1016 0.017 0.35651 0.0338 1.0658 0.0508 1.6035-1e-3 0.25103-0.0548 0.49425-0.0508 0.74609 0 0.0463 0.0561 0.48289 0.10156 0.85938 0.03 0.21028 0.0469 0.58679 0.0469 1.1894 0.043 0.15199 0.31673-3e-3 0.42383 0.0645 0.053 0.051 0.059 0.14825 0.12695 0.18555 0.1258 0.0556 0.24211 0.0905 0.34961 0.10156l0.55078-0.10156c0.6971-0.33121 1.4162-0.94531 2.125-1.4258 0.502-0.32955 0.98717-0.60192 1.5137-1.0156 0.1554-0.12719 0.30494-0.17438 0.46094-0.30859 0.3364-0.28125 1.0075-0.98539 1.4746-1.4316 0.5305-0.48962 1.0234-0.85156 1.5762-1.418 0.1762-0.18438 0.27646-0.3597 0.44336-0.54297l0.01-6e-3 0.0508-0.0508c0.027-0.0301 0.0616-0.063 0.10156-0.0996 0.072-0.0736 0.2856-0.39325 0.375-0.49609 0.7873-0.91923 1.5-1.8297 2.0508-2.7207l0.97461-1.4844c0.072-0.0639 0.1558-0.11237 0.25-0.14844 0.097-0.0463 0.19613-0.0638 0.29883-0.0508 0.097 0.0241 0.1803 0.0745 0.25 0.15039 0.073 0.0718 0.16169 0.0797 0.24219 0.12109l0.35742 0.67774 0.15039 0.20117c0.2 0.36667 0.3667 0.50039 0.5 0.40039 0.2-0.1 0.2-0.3345 0-0.70117l-0.29102-0.63281c0.3327-0.12937 0.592-0.31829 0.5918-0.7168v-2.6504c1e-3 -0.13515-0.0336-0.25143-0.10156-0.34961v-0.0508l-0.0508-0.0488c-0.014-0.0247-0.0318-0.0577-0.0508-0.0996l-1.3496-2.9512c-0.032-0.0635-0.0468-0.12942-0.0488-0.19922v-0.0508c0-0.12253 0.0346-0.2388 0.0996-0.34961 0.096-0.0783 0.19493-0.12864 0.29882-0.15039l0.30079-0.0488h0.0508c0.082-6e-3 0.12376-0.0788 0.19336-0.10547 0.2264-3e-3 0.39438-0.0146 0.45507-0.0449 0.1333-0.0667 0.20118-0.21784 0.20118-0.45117 0-0.0835-0.0533-0.0714-0.0703-0.125 0.014-0.0617 0.0703-0.10682 0.0703-0.17383v-1.5996c7e-4 -0.0879-0.081-0.14886-0.10547-0.22851 0.021-0.013 0.0346-7e-3 0.0566-0.0215-0.053-0.0792-0.091-0.0999-0.13867-0.1582-0.047-0.0775-0.036-0.17404-0.11133-0.24219-3e-4 6.7e-4 -0.0178-0.0168-0.0508-0.0508-0.1323-0.13477-0.33387-0.20065-0.60157-0.19922l-1-0.0508c-0.098-5e-3 -0.19722-0.0557-0.29882-0.15039-0.076-0.0649-0.12679-0.1637-0.15039-0.29883-0.014-0.0986 2e-3 -0.19935 0.0527-0.30078l2.1992-3.7988c0.092-0.16549 0.14259-0.31666 0.15039-0.45117v-0.0762l0.0996-0.17383c0.088-0.30895-0.0266-0.35871-0.0996-0.46289v-1.2871c-0.01-0.0241-0.055-0.20623-0.15039-0.54883-0.01-0.0583-0.01-0.12617 0-0.20117 0.018-0.0729 0.0506-0.1388 0.0996-0.19922 0.033-0.0689 0.0508-0.16966 0.0508-0.30078v-0.27539c0.05-0.15819 0.20029-0.39143 0.15039-0.47461-0.04-0.0601-0.10429 0.0598-0.15039 0.0449v-3.7949c0-0.2409-0.22177-0.36528-0.38867-0.51758l0.1875-0.18164c0.033 0 0.13408-0.18411 0.30078-0.55078-0.3667 0-0.59922 0.0329-0.69922 0.0996l-0.29297 0.25195c0-5e-5 2.4e-4 -2e-3 -0.01-2e-3 -0.2603-4e-3 -0.47729 0.0793-0.65039 0.25l-1.8496 1.8516c-0.077 0.0794-0.17759 0.12787-0.30079 0.14844-0.088 0.0165-0.18702 7.3e-4 -0.29882-0.0488-0.082-0.0517-0.14978-0.135-0.20118-0.25-0.62059-1.2032-1.5198-2.67-2.6992-4.4004h-0.0508l-1.5488-2.4492c-0.3889-0.6488-1.1788-1.5175-1.6777-2.2266-0.6507-0.95683-1.0942-1.7578-2.0234-2.9238-0.17529-0.21491-0.46253-0.402-0.64453-0.61523-0.3434-0.41018-0.48357-0.70898-0.85547-1.1348-1.9737-2.1952-3.6733-3.796-5.0996-4.8008-0.041 9e-3 -0.091-7e-3 -0.1504-0.0488l-0.29882-0.20117-0.0918-0.0117c-0.1777-0.1397-0.27788-0.29865-0.45898-0.4375-0.2-0.2-0.39961-0.2-0.59961 0zm-76.301 46.75-0.25 0.0488-0.34961 0.15039c-0.1 0.1-0.1 0.20078 0 0.30078l0.34961 0.19922c0.6333 0.46667 1.2012 0.8 1.7012 1 3.3333 1.3667 5.9671 2.2174 7.9004 2.5508 0.1333 0.0333 0.9667 0.2155 2.5 0.54883 1 0.23333 1.8817 0.36706 2.6484 0.40039 0.1 0.0667 0.28408 0.11706 0.55078 0.15039h0.65039c0.1333 0 0.16591 0.0833 0.0996 0.25l-1.8008 4.1504c-0.1333 0.3-0.14883 0.48216-0.0488 0.54883l0.25 0.0508c0.2 0 0.34922-0.10078 0.44922-0.30078 1.2-2.6333 1.8163-3.9667 1.8496-4 0.6333-1.1333 0.28447-1.6488-1.0488-1.5488h-0.55078l-4.9492-1.2012c-2.5-0.63333-4.1008-1.0655-4.8008-1.2988-2.3-0.9-4.0171-1.5667-5.1504-2zm25 3.5996c-0.1667-0.0667-0.4167 0.0671-0.75 0.40039-0.9 0.9-2.0821 2.3496-3.5488 4.3496l-1.3496 1.6504 0.34961 0.44922c0.1 0 0.21631-0.0659 0.34961-0.19922l4.4492-5.4512c0.1-0.1 0.15039-0.13303 0.15039-0.0996l0.20117 0.20117 0.34961 0.94922c0.1 0.3 0.29961 0.73412 0.59961 1.3008 0.1667 0.53333-0.017 0.9655-0.55078 1.2988-0.3333 0.2-0.88174 0.68451-1.6484 1.4512-0.2 0.3-0.25039 0.51511-0.15039 0.64844l0.19922 0.0508c0.1 0 0.25117-0.0659 0.45117-0.19922l1.4492-1.2012 0.65039-0.65039c0.3667 0.43333 0.5333 0.78411 0.5 1.0508-0.033 0.33333 0.14883 0.5 0.54883 0.5h0.0508c0.1333-0.0333 0.18369-0.0992 0.15039-0.19922l-0.15039-0.25c-0.1667-0.73333-0.44961-1.65-0.84961-2.75-0.6-1.4667-0.95078-2.3678-1.0508-2.7012-0.1333-0.36667-0.26709-0.56628-0.40039-0.59961z"/>
 <path d="m31.422 45.697c-0.0979-6e-3 -0.2056-6e-3 -0.32227 2e-3 -0.46667 0.1-0.8 0.31706-1 0.65039 0 0.0667-0.0155 0.1345-0.0488 0.20117 0 0.0333 0.0155 0.0663 0.0488 0.0996v0.0488c0.0667 0.5 0.28372 1.0678 0.65039 1.7012 0.33333 0.43333 0.68411 0.8655 1.0508 1.2988 0.2 0.16667 0.38216 0.35078 0.54883 0.55078v0.15039c-0.0667 0.0333-0.15 0.0992-0.25 0.19922l-0.0488 0.0508h-0.0508c-0.9-0.13333-1.7333-0.35039-2.5-0.65039-0.2 0-0.38411 0.0175-0.55078 0.0508-0.1 0-0.18333 0.0155-0.25 0.0488-0.4 0.2-0.63255 0.51784-0.69922 0.95117l0.0508 0.84961c0.1 0.1 0.18333 0.16589 0.25 0.19922h0.0488c0.4 0.26667 0.80117 0.51667 1.2012 0.75 0.7 0.33333 1.45 0.38372 2.25 0.15039 0.33333-0.1 0.69961-0.23372 1.0996-0.40039 0.0333-0.0333 0.0663-0.0488 0.0996-0.0488l0.0508 0.0488v0.0508c-0.0333 0.36667-0.0837 0.73294-0.15039 1.0996v0.0508c-0.1 0.33333-0.21628 0.66667-0.34961 1-0.53333 1.1-1.2504 1.9663-2.1504 2.5996h-0.0508c-0.0667 0.0333-0.13255 0.0992-0.19922 0.19922v0.0508c-0.63333 0.5-1.2671 1.0504-1.9004 1.6504-0.46667 0.46667-0.86589 1.0151-1.1992 1.6484-0.1 0.16667-0.15039 0.33333-0.15039 0.5 0.2 0.2 0.43255 0.40156 0.69922 0.60156 0.0333 0.0333 0.0837 0.0488 0.15039 0.0488 1.5667-0.13333 2.8671-0.55 3.9004-1.25 0.36667-0.26667 0.7-0.6 1-1 0.0333-0.0333 0.0663-0.0488 0.0996-0.0488h0.0508c0.0333 0.0333 0.0488 0.0663 0.0488 0.0996 0.33333 1.2333 0.83333 2.3167 1.5 3.25 0.2 0.4 0.63411 0.61706 1.3008 0.65039 0.53333-0.0333 0.91706-0.23489 1.1504-0.60156v0.05071c0.1-0.23333 0.19883-0.43294 0.29883-0.59961 0-0.0667 0.0174-0.0841 0.0508-0.0508 0.0667-0.56667-0.0341-1.1326-0.30078-1.6992l-1.8496-1.8008v-0.19922c-0.0667-0.23333-0.15-0.51628-0.25-0.84961h-0.0508c-0.13333-0.33333-0.0829-0.65117 0.15039-0.95117 0.2-0.26667 0.46745-0.58255 0.80078-0.94922 0.26667-0.4 0.48372-0.9 0.65039-1.5 0.0333-0.13333 0.0488-0.26706 0.0488-0.40039l0.0996-0.30078 0.70117-1.4492v-0.0508l0.0488-0.0996c0.26667-0.36667 0.3345-0.75039 0.20117-1.1504v-0.19921l-0.30078-0.80078c-0.0667-0.2-0.1655-0.33177-0.29883-0.39844h-0.0507c-0.0667-0.1-0.15-0.15039-0.25-0.15039h-0.0508l-0.1992-0.15039-0.44922-0.0996-0.85156-0.0508c-0.13333 0.0333-0.23216 0.10117-0.29883 0.20117l-0.0508 0.0488-0.15039-0.0488-0.0488-0.0508c-0.1-0.2-0.16784-0.38411-0.20117-0.55078-0.16667-0.36667-0.34883-0.68255-0.54883-0.94922-0.2-0.36667-0.39961-0.66706-0.59961-0.90039-0.33333-0.43333-0.66667-0.81706-1-1.1504-0.125-0.15-0.33516-0.2332-0.6289-0.25195zm10.979 0.55273c-0.56667 0.0333-1.15 0.26589-1.75 0.69922-0.4 0.26667-0.65 0.50117-0.75 0.70117-0.0667 0.13333-0.0996 0.38333-0.0996 0.75s0.0329 0.63216 0.0996 0.79883l0.34961 0.75c0.33333 0.6 0.53294 1.4178 0.59961 2.4512 0.0333 0.23333 0.0663 0.48333 0.0996 0.75 0.0667 0.33333 0.0667 0.84883 0 1.5488l-0.0488-0.0488c-0.13333 0.13333-0.2845 0.23216-0.45117 0.29883l-0.69924 0.30075c-0.0667 0.0333-0.33412 0.0992-0.80078 0.19922-0.3 0.1-0.51511 0.21823-0.64844 0.35156v-0.05078l-0.75 1c-0.2 0.7-0.26784 1.2329-0.20117 1.5996 0 0.13333 0.0504 0.24961 0.15039 0.34961 0.0667 0.0667 0.15 0.10156 0.25 0.10156h0.0508c0.16667 0.0333 0.43216 0.0159 0.79883-0.0508l0.5-0.19922 1.0508-0.0508 0.25 0.0508 0.34961 0.14844 0.0508 0.0508v0.0508c-0.0333 0.43333-0.0837 0.91589-0.15039 1.4492 0 0.33333-0.0174 0.80039-0.0508 1.4004 0 0.56667-0.0659 1.0492-0.19922 1.4492-0.13333 0.43333-0.33294 0.85-0.59961 1.25-0.13333 0.23333-0.2845 0.46784-0.45117 0.70117v0.0488c-0.23333 0.2-0.43294 0.41706-0.59961 0.65039-0.43333 0.46667-0.86745 0.94922-1.3008 1.4492-0.53333 0.56666-0.99844 1.2004-1.3984 1.9004-0.53333 0.9-0.86667 1.8845-1 2.9512-0.13333 0.83333-0.0849 1.6996 0.14844 2.5996 0.13333 0.43333 0.31745 0.8655 0.55078 1.2988 0.23333 0.46666 0.50078 0.90078 0.80078 1.3008 0.86667 1.1667 2.0488 1.6337 3.5488 1.4004l0.0508 0.0488c0.0333 0 0.0488 0.0175 0.0488 0.0508v0.0508l-1.5 2.75c-0.0667 0.13333-0.11511 0.26511-0.14844 0.39844-0.13333 0.33333-0.26706 0.68411-0.40039 1.0508-0.1 0.33333-0.20078 0.68411-0.30078 1.0508l-0.29883 1.0996c-0.1 0.43333-0.18333 0.81706-0.25 1.1504-0.1 0.33333-0.15039 0.59883-0.15039 0.79883l-0.0508 0.59961c0.0333 0.4 0.10117 0.80117 0.20117 1.2012 0.0333 0.1 0.24844 0.65039 0.64844 1.6504 0.36667 0.96667 0.73489 1.6663 1.1016 2.0996 0.0333 0.0333 0.0488 0.0663 0.0488 0.0996 0.0333 0 0.0508 0.0175 0.0508 0.0508v0.0488l-0.80078 1.5996c-0.0333 0.13333-0.0488 0.25156-0.0488 0.35156-0.0667 0.56667-0.10156 1.15-0.10156 1.75 0 0.53333 0.0678 1.0663 0.20117 1.5996 0.1 0.36667 0.28216 0.73294 0.54883 1.0996 0.16667 0.26667 0.38372 0.51667 0.65039 0.75h-0.0488c0.26667 0.2 0.56511 0.39961 0.89844 0.59961 0.26667 0 0.55156 0.0504 0.85156 0.15039l0.59961 0.15039c0.0333 0.0333 0.0992 0.0488 0.19922 0.0488h0.15035l1.4004-0.29883 1.1992-0.30078c0.13333-0.0667 0.3-0.13255 0.5-0.19922 0.26667-0.13333 0.50117-0.26706 0.70117-0.40039 0.5-0.53333 1-1.0992 1.5-1.6992 0.2-0.33333 0.39961-0.68411 0.59961-1.0508v0.0508c0.0667-0.2 0.15-0.40156 0.25-0.60156 0-0.0333 0.0155-0.0488 0.0488-0.0488 0-0.0333 0.0174-0.0333 0.0508 0 0.0333 0 0.0663 0.0155 0.0996 0.0488 0.16667 0.36667 0.43411 0.9345 0.80078 1.7012v0.0488l0.29883 0.80078 0.20117 0.90039c0.0333 0.23333 0.0488 0.46589 0.0488 0.69922v0.65045l-0.0488 0.0508-0.90037 0.6992c-0.3 0.2-0.55 0.45-0.75 0.75v0.0508l-0.30078 0.29883-0.79883 1v-0.0488c-0.26667 0.36667-0.51667 0.74844-0.75 1.1484l-0.70117 1.4004c-0.23333 0.46667-0.4155 0.96667-0.54883 1.5-0.1 0.46667-0.11745 0.96667-0.0508 1.5 0.1 0.5 0.26667 1 0.5 1.5v0.0508c0.13333 0.33333 0.3 0.66667 0.5 1 0.26667 0.33333 0.6 0.66667 1 1 0.46667 0.33333 0.98411 0.59883 1.5508 0.79883v0.0508c0.26667 0.13333 0.56706 0.24961 0.90039 0.34961 0.4 0.0667 0.83216 0.16745 1.2988 0.30078s1.05 0.26706 1.75 0.40039l0.0508 0.0488 0.0488 1.0508-0.0488 0.0488-0.0508 2.1016c-0.0333 0.2-0.0837 0.4655-0.15039 0.79883-0.0333 0.2-0.0663 0.38411-0.0996 0.55078v0.0488c-0.0667 0.0333-0.11706 0.0837-0.15039 0.15039-0.1 0.2-0.18333 0.41706-0.25 0.65039-0.0667 0.16667-0.13255 0.41667-0.19922 0.75l-0.40039 1.1992c-0.16667 0.36667-0.19961 0.75039-0.0996 1.1504 0.0333 0.1 0.0992 0.20078 0.19922 0.30078h0.0508c0.26667 0.1 0.54961 0.13294 0.84961 0.0996l0.20117-0.0996 0.5-0.55078 0.44922-0.75 0.5-0.54883c0.23333-0.26667 0.48333-0.6349 0.75-1.1016h-0.0508c0.43333-0.8 0.71823-1.55 0.85156-2.25 0.1-0.3 0.14844-0.58294 0.14844-0.84961 0.2-1.2 0.31823-2.6671 0.35156-4.4004v-0.0488c0-0.0333 0.0155-0.0508 0.0488-0.0508l0.75-0.34961c1.3667-0.66667 2.7678-1.2674 4.2012-1.8008 0-0.13333 0.0484-0.21667 0.14844-0.25 0.43333-0.36667 0.61745-0.93255 0.55078-1.6992-0.0333-0.1-0.0508-0.16589-0.0508-0.19922-0.6-0.56666-1.3984-0.96784-2.3984-1.2012-0.1 0-0.16784 0.0175-0.20117 0.0508-0.73333 0.53333-1.4504 1.0488-2.1504 1.5488l-1.5 1.0508h-0.0996l-0.0488-0.0508-0.30078-1c-0.1-0.36667-0.20078-0.7155-0.30078-1.0488-0.1-0.36667-0.19883-0.71745-0.29883-1.0508-0.13333-0.36667-0.23411-0.75039-0.30078-1.1504-0.13333-0.53333-0.24961-1.0663-0.34961-1.5996-0.1-0.66667-0.18333-1.3159-0.25-1.9492-0.0333-0.16667-0.0508-0.31784-0.0508-0.45117v-0.44923c0-0.0333 0.0174-0.0508 0.0508-0.0508v-0.0488h0.0508c0-0.0667 0.0155-0.1345 0.0488-0.20117l0.40043-0.59962c0.13333-0.2 0.26706-0.50039 0.40039-0.90039l0.15039-0.64844 0.0488-0.45117c-0.0667-0.26667-0.18294-0.63294-0.34961-1.0996l-0.15039-0.44922c-0.73333-0.8-1.4659-1.5849-2.1992-2.3516l-0.0508-0.0488-0.75-1.5996c-0.0333-0.1-0.0488-0.18333-0.0488-0.25h-0.0508c-0.0667-0.3-0.11706-0.55-0.15039-0.75-0.1-0.5-0.18333-1-0.25-1.5-0.0333-0.13333-0.0488-0.26706-0.0488-0.40039v-0.0508l-0.10156-0.5v-0.0488c-0.0333-0.3-0.0992-0.56745-0.19922-0.80078-0.13333-0.43333-0.3-0.83255-0.5-1.1992-0.53333-0.93333-1.2-1.5341-2-1.8008-0.66667-0.16667-1.2829-0.0504-1.8496 0.34961-0.1 0.13333-0.18333 0.2845-0.25 0.45117-0.0333 0.13333-0.0333 0.3 0 0.5 0.0333 0.33329 0.14958 0.64918 0.34958 0.94918 0.13333 0.23333 0.3 0.48333 0.5 0.75 0.36667 0.43333 0.7 0.90039 1 1.4004 0.26667 0.5 0.45078 1.0504 0.55078 1.6504 0.13333 0.76667 0.14883 1.4663 0.0488 2.0996v0.0488l-0.90039 0.80078c-0.6 0.46667-1.1988 0.90078-1.7988 1.3008-0.36667 0.26667-0.73294 0.49922-1.0996 0.69922-0.8 0.46667-1.6178 0.41628-2.4512-0.15039-0.3-0.23333-0.5655-0.49883-0.79883-0.79883h-0.0507c-0.0333-0.2-0.0508-0.38411-0.0508-0.55078 0.0333-0.23333 0.0837-0.46589 0.15039-0.69922 0.0667-0.2 0.1345-0.38411 0.20117-0.55078l1.6484-1.6992c0.13333-0.16667 0.2845-0.31784 0.45117-0.45117l1.0996-1v-0.19922c0.1-0.46667 0.0341-0.86784-0.19922-1.2012v0.05081l-0.90039-0.44922c-0.33333 0-0.65117 0.14922-0.95117 0.44922h-0.0488c-0.1 0.0667-0.21628 0.15-0.34961 0.25l-1.9004 1.1992h-0.0508c-0.13333 0-0.21667-0.0155-0.25-0.0488v-0.0508c-0.43333-0.6-0.81706-1.2163-1.1504-1.8496-0.13333-0.46667-0.21667-0.90078-0.25-1.3008-0.0333-0.63333 2e-3 -1.2496 0.10156-1.8496 0.0667-0.4 0.1655-0.74883 0.29883-1.0488 0.1-0.36667 0.21628-0.73489 0.34961-1.1016l0.40039-1c0.13333-0.4 0.26706-0.74883 0.40039-1.0488v-0.0508l0.19922-0.40039h0.0508c0.63333-1.0667 1.3504-1.9988 2.1504-2.7988 0.6-0.7 1.1504-1.4345 1.6504-2.2012 0.5-0.83333 0.83333-1.7151 1-2.6484 0.13333-0.66666 0.14883-1.2674 0.0488-1.8008-0.0667-0.23333-0.13255-0.45039-0.19922-0.65039-0.23333-0.5-0.46784-0.94961-0.70117-1.3496-0.16667-0.23333-0.31589-0.45039-0.44922-0.65039l-0.90039-0.65039-0.75-0.39844c-0.26667-0.0333-0.51667-0.0333-0.75 0l-0.75 0.0488-0.0488-0.0488h-0.0508c-0.0333-0.0333-0.0333-0.0682 0-0.10156v-0.0488l0.65039-0.59961c0.13333-0.23333 0.28255-0.46784 0.44922-0.70117h-0.0488c0.26667-0.5 0.51667-1 0.75-1.5v0.0508c0.13333-0.36667 0.26511-0.7 0.39844-1s0.26706-0.61784 0.40039-0.95117v0.0508l0.5-1.5c0.2-0.63333 0.36667-1.3329 0.5-2.0996-0.0215-0.19297-0.037-0.39258-0.0488-0.59961 0.85-3.7336 0.98177-7.1173 0.39844-10.15l-0.19928-1.0997c-0.06672-0.56666-0.13257-0.91745-0.19924-1.0508-0.3-0.56667-0.85039-0.81667-1.6504-0.75zm-0.70117 23.301h0.0508c0.13333 0.0667 0.28255 0.15 0.44922 0.25 0.36667 0.2 0.58372 0.43255 0.65039 0.69922 0.13333 0.43333 0.24961 0.91589 0.34961 1.4492 0.0333 0.13333 0.0508 0.26706 0.0508 0.40039 0.13333 0.83333 0.0675 1.6512-0.19922 2.4512-0.16667 0.36667-0.38372 0.7155-0.65039 1.0488-0.4 0.4-0.93294 0.58411-1.5996 0.55078-0.3-0.0667-0.58489-0.1345-0.85156-0.20117-0.0667-0.0333-0.13255-0.0488-0.19922-0.0488h-0.0508l-0.0488-0.0508c-0.16667-0.0667-0.30039-0.15-0.40039-0.25l-0.80078-0.90039v-0.0488l-0.25-0.40039h-0.0488l-0.0996-0.5-0.0509-0.84965v-0.0996c0.0333-0.43333 0.0837-0.86745 0.15039-1.3008 0.13333-0.73333 0.44922-1.2333 0.94922-1.5 0.33333-0.3 0.73451-0.46667 1.2012-0.5 0.43333-0.16667 0.89844-0.23255 1.3984-0.19922zm10.951 29.25h0.0488c0.1 0.0333 0.20078 0.0818 0.30078 0.14844 0 0.33333-0.0833 0.65117-0.25 0.95117h-0.0508c-0.0333-0.23333-0.0663-0.48333-0.0996-0.75-0.0333-0.0333-0.0488-0.11667-0.0488-0.25 0-0.0333 0.0155-0.0508 0.0488-0.0508 0-0.0333 0.0174-0.0488 0.0508-0.0488zm-2.1504 4.0488h0.0508l0.0488 0.0508v0.0996l1.4512 8.5508 0.14844 0.54883v0.0508l-0.0488 0.0488h-0.0508c-0.5 0.0333-1.0504-0.0326-1.6504-0.19922l-0.59961-0.19922h-0.0488c-0.5-0.3-1.0349-0.58489-1.6016-0.85156-0.26667-0.2-0.48177-0.41511-0.64844-0.64844h-0.0508c-0.36667-0.66666-0.53333-1.3837-0.5-2.1504 0-0.7 0.13372-1.3163 0.40039-1.8496 0.23333-0.5 0.51628-0.96706 0.84961-1.4004 0.13333-0.23333 0.31745-0.45039 0.55078-0.65039 0.3-0.33333 0.59844-0.61628 0.89844-0.84961 0.16667-0.2 0.36823-0.35117 0.60156-0.45117v-0.0488c0.0667-0.0333 0.13255-0.0508 0.19922-0.0508z"/>
 <g transform="translate(-217.75,-563.5)">
  <path transform="translate(160.15,84.1)" d="m62.6 479.4c-3.3333 0-5 1.6667-5 5v158.2c0 3.3333 1.6667 5 5 5h93.199c3.3333 0 5-1.6667 5-5v-158.2c0-3.3333-1.6667-5-5-5zm8.3008 7.1992h76.6c4.6667 0 7 2.3333 7 7v139.8c0 4.6667-2.3333 7-7 7h-76.6c-4.6667 0-7-2.3333-7-7v-139.8c0-4.6667 2.3333-7 7-7z" fill="#ef1d1e"/>
  <path transform="translate(160.15,84.1)" d="m70.901 486.6c-4.6667 0-7 2.3333-7 7v139.8c0 4.6667 2.3333 7 7 7h76.6c4.6667 0 7-2.3333 7-7v-139.8c0-4.6667-2.3333-7-7-7z" fill="none" stroke="#000" stroke-width="1.2"/>
 </g>
</svg>
