<svg width="103.2" height="168.2" preserveAspectRatio="none" version="1.1" viewBox="0 0 103.2 168.2" xmlns="http://www.w3.org/2000/svg">
 <path d="m13.301 7.1992c-4.6667 0-7 2.3333-7 7v139.8c0 4.6667 2.3333 7 7 7h76.6c4.6667 0 7-2.3333 7-7v-139.8c0-4.6667-2.3333-7-7-7z" fill="#fff"/>
 <path d="m44.551 80.6c0.4241 1.2898 1.2574 2.3732 2.5 3.25 1.2965 0.8931 2.6465 1.3431 4.05 1.35 0.5101 3e-3 0.8768-0.03 1.1-0.1 0.3497-0.0841 0.5997-0.26745 0.75-0.55 0.11299-0.29688 0.58709-1.3343-2.05-4.55-2.7342-2.6564-6.9934-3.1532-6.35 0.6zm-9.2-22.2c-2.0589 0.86771-3.9089 2.651-5.55 5.35l-0.2 0.5c0 0.0579-0.017 0.10793-0.05 0.15-0.079 0.27396-0.045 0.52396 0.1 0.75 0.84559 1.2402 5.3268-0.6255 6.5-1.5 1.9787-1.6092 4.1069-5.601-0.8-5.25zm-13.3-8.35c-0.6302 3.0004 0.1365 5.7504 2.3 8.25 0.3331 0.32201 0.6664 0.48867 1 0.5 3.0335-1.2812 1.123-15.963-3.3-8.75zm23.9-3.15c0.091 0.72344 0.4405 1.3901 1.05 2 1.622 1.6978 3.7387 2.5478 6.35 2.55h0.6c0.6914 1.3e-4 1.1747-0.2332 1.45-0.7-2.5312-5.8628-8.8966-8.2614-9.45-3.85zm9.75-5.6c0.2245-0.36419 0.2411-0.76419 0.05-1.2-0.4582-0.89623-0.9082-1.6629-1.35-2.3-4.7734-7.0447-7.834-4.2801-8.1-3.25-0.2441 1.1162-0.011 2.0995 0.7 2.95h0.05c1.6078 2.0077 4.0245 3.4244 7.25 4.25l0.5 0.1c0.3989-0.0318 0.6989-0.2318 0.9-0.6v0.05m14.8 17.45c-0.1594-0.35273-0.4427-0.6194-0.85-0.8-0.6445-0.22578-1.3612-0.34245-2.15-0.35l-1.35 0.1c-2.24 0.31836-3.99 0.83503-5.25 1.55-0.086 0.0684-0.1858 0.10169-0.3 0.1-0.075-7e-3 -0.1582-0.0407-0.25-0.1-0.063-0.0496-0.1127-0.11627-0.15-0.2l-0.4-0.95v0.05c-0.9031-1.6632-1.9698-3.0465-3.2-4.15h-0.05c-0.053-0.0366-0.1027-0.0866-0.15-0.15-0.2339-0.30403-0.5505-0.45403-0.95-0.45-0.4227 0.01-0.7727 0.2098-1.05 0.6-0.9283 1.5449-1.7116 3.5449-2.35 6l0.05-0.05c-0.10504 0.42461-0.02379 1.2483-0.02379 1.2483-4.0203 0.532-8.0262 2.2517-8.0262 2.2517-0.52314 1.7076 3.3121 4.7071 6.1256 5.2517 0.0096 0.09714-1.1645 1.2824-1.2256 6.2983 0.092 0.71953 0.4586 1.0862 1.1 1.1 0.2693-9e-3 0.5859-0.1086 0.95-0.3 0 0 5.1319-2.0587 6.9-4.4 0.072-0.10143 0.1724-0.1681 0.3-0.2 0.1351-0.0254 0.2518-9e-3 0.35 0.05 0.3113 0.21836 0.928 0.60169 1.85 1.15l0.7 0.45c1.7545 1.0818 3.6712 1.8151 5.75 2.2l0.25 0.05c0.4153 0.12761 0.7819 0.19427 1.1 0.2h0.05l0.45-0.05c0.4665-0.12239 0.7665-0.35573 0.9-0.7 0.025-1.3e-4 0.042-0.0168 0.05-0.05 0.1866-0.37813 0.1533-0.76146-0.1-1.15-0.063-0.0669-0.096-0.15026-0.1-0.25-0.01-0.10794-0.076-0.32461-0.2-0.65 0.01-0.0172 0.01-0.0339 0-0.05-0.3871-1.9655-1.4705-3.7822-3.25-5.45-0.065-0.0533-0.1153-0.1366-0.15-0.25-0.011-0.0756-0.011-0.15899 0-0.25 0.052-0.099 0.1187-0.18229 0.2-0.25 1.7549-1.402 3.1049-3.1686 4.05-5.3l0.05-0.15c0.024-0.0163 0.041-0.0329 0.05-0.05 0.3836-0.82239 0.4836-1.4724 0.3-1.95m-0.05-10.2c-0.6376-0.27057-1.3209-0.40391-2.05-0.4-0.7117-2e-3 -1.3951 0.13133-2.05 0.4-0.016 0.0257-0.033 0.0423-0.05 0.05l-2.5 1.4c-0.1146 0.11992-0.4646 0.45325-1.05 1v-0.05l-0.2 0.3h-0.05c-0.1453 0.23347-0.212 0.4668-0.2 0.7v0.05c-0.01 0.23255 0.077 0.41589 0.25 0.55 0.2797 0.23958 0.663 0.42291 1.15 0.55h-0.05l0.2 0.05h0.05c0.694 0.26523 1.4107 0.39857 2.15 0.4 0.482-3e-3 1.1653-0.0693 2.05-0.2h0.05c0.3003-0.0333 0.7336-0.0833 1.3-0.15 1.4971-0.1362 2.3805-0.9362 2.65-2.4-0.03763-1.1011-0.69639-1.7124-1.65-2.25m1.45-5c2.5272-1.0747 2.7405-5.2278-1.15-4.9-2.3323 0.34323-4.1823 1.4099-5.55 3.2-0.2332 0.40612-0.3165 0.80612-0.25 1.2 2.1118 0.67485 4.1296 1.5825 6.95 0.5zm-51.3 30c-0.056 0.10794-0.1393 0.17461-0.25 0.2-2.3333 0.89896-4.7167 2.4323-7.15 4.6h0.05c-0.2511 0.2457-0.3511 0.51237-0.3 0.8 0.04 0.31667 0.19 0.55 0.45 0.7 0.033 8e-3 0.049 8e-3 0.05 0l0.15 0.1 0.05 0.05h0.05c2.0111 1.1786 3.7944 1.9286 5.35 2.25 0.096 0.0263 0.1789 0.0763 0.25 0.15 0.065 0.062 0.098 0.12867 0.1 0.2 0.043 0.10899 0.043 0.20899 0 0.3-0.40028 1.1302-0.86219 1.9852-0.55 3.1l19.5-0.75c0.3951-0.29987 0.4951-0.6832 0.3-1.15l0.05 0.05c-1.2079-2.6728-2.3079-4.5728-3.3-5.7-0.98976-0.81824 2.6056-3.0046 3.6-8.45 0.1865-0.41029 0.1531-0.79362-0.1-1.15-0.2291-0.26276-0.5124-0.39609-0.85-0.4l-1.6 0.35-2.7 0.95-2.7 1.35c-0.079 0.0465-0.1794 0.0631-0.3 0.05-0.079-0.0142-0.162-0.0642-0.25-0.15-0.059-0.0514-0.1093-0.13473-0.15-0.25-0.021-0.0936-0.154-0.34362-0.4-0.75l-1.05-1.35-3.65-3.75c-0.3919 0.0139-0.7253 0.21393-1 0.6-1.2638 2.102-2.3805 4.302-3.35 6.6l-0.3 1.45m-7.35-12.85c1.0452 2.3764 3.0214 3.4481 6.25 4.4 0.026 0.0231 0.043 0.0397 0.05 0.05l0.55 0.1c1.5169-0.2403-0.24609-3.2015-1.15-5.45-3.1383-4.796-7.4268-3.825-5.7 0.9zm55.9-31.1c-2.187 0.17799-3.9703 1.4447-5.35 3.8l0.05-0.05c-0.1679 0.34844-0.2679 0.63177-0.3 0.85-0.01 0.0243-0.024 0.041-0.05 0.05-0.076 0.40729-0.01 0.74063 0.2 1 0.225 0.2582 0.5083 0.39153 0.85 0.4h0.05l0.5-0.05c5.7917-0.62803 10.762-6 4.05-6zm-12.75-6.95c-1.2813 0.5763-1.9813 1.7596-2.1 3.55-0.1284 2.0849 0.2049 3.7016 1 4.85v0.05l0.45 0.75h0.05c0.4877 0.89687 1.0044 1.5635 1.55 2 0.2807 0.23099 0.5641 0.34765 0.85 0.35 1.9794 0.38604 2.0556-12.926-1.8-11.55z" fill="#1ca4da"/>
 <path d="m2.5388 108.3s-0.3084 57.35-0.301 57.35h97.352l-0.7014-61.75z" fill="#ef1d1e"/>
 <path d="m57.352 22.35c-0.4667-0.16667-0.9337-0.0833-1.4004 0.25-0.6667 0.43333-1.1337 1.1833-1.4004 2.25-0.2667 0.93333-0.35 1.8829-0.25 2.8496 0.1667 1.7667 0.9496 3.5167 2.3496 5.25 0.3 0.36667 0.7671 0.90156 1.4004 1.6016 0.5 0.63333 0.7326 1.3329 0.6992 2.0996 0 0.63333 0.035 1.6159 0.1016 2.9492 0.1 1.3 0.1293 2.2845 0.1 2.9512 0 0.23333-0.083 0.28177-0.25 0.14844-1.9-1.4-3.15-2.7333-3.75-4-1.4333-3.0333-3.2667-4.9151-5.5-5.6484-0.8667-0.3-1.6167-0.28423-2.25 0.0488-0.7333 0.36667-1.0841 1.0837-1.0508 2.1504 0.1 1.4 0.7667 2.5841 2 3.5508 1.9333 1.5 3.8675 2.4167 5.8008 2.75h1.0996c0.4667 0 0.8329 0.13177 1.0996 0.39844 0.5333 0.5 1.2833 1.0504 2.25 1.6504 0.2667 0.16667 0.4333 0.28294 0.5 0.34961 0.1333 0.13333 0.149 0.3 0.051 0.5-0.033 0.0667-0.1012 0.45039-0.2012 1.1504l-0.3984 5.9004v0.19922c-0.033 0.0333-0.1012 3e-4 -0.2012-0.0996-0.8-0.53333-1.3833-0.93255-1.75-1.1992-0.6667-0.5-1.1667-1.0329-1.5-1.5996-1.2-1.9-2.7833-3.3012-4.75-4.2012-1.2667-0.53333-2.2492-0.64961-2.9492-0.34961-0.8 0.36667-1.2341 1.0004-1.3008 1.9004-0.067 0.83333 0.1833 1.6163 0.75 2.3496 0.6 0.83333 1.4333 1.4826 2.5 1.9492 0.7 0.3 1.7175 0.60039 3.0508 0.90039 0.3 0.0667 1.0325 0.0337 2.1992-0.0996 0.9-0.0667 1.6345 0.0825 2.2012 0.44922 0.7 0.43333 1.1825 0.86745 1.4492 1.3008 0.2667 0.5 0.3012 1.1163 0.1016 1.8496-0.1 0.26667-0.2493 0.2997-0.4493 0.0996-0.6667-0.6-1.1511-0.96628-1.4511-1.0996l-0.2989-0.15039c-0.3-0.2-0.517-0.29883-0.6503-0.29883-0.2333-0.0333-0.4504 0.10039-0.6504 0.40039-1.2333 1.8667-2.0996 3.9326-2.5996 6.1992-0.1333 0.63333-0.4493 0.96667-0.9493 1-0.2667-0.0333-0.4681-0.0508-0.6015-0.0508-0.2666-0.0333-0.4819-0.0159-0.6485 0.0508-2 0.53333-3.4671 1.0004-4.4004 1.4004-0.6333 0.23333-1.0674 0.45039-1.3007 0.65039-0.4333 0.36667-0.5167 0.81628-0.25 1.3496 1.1 1.9333 2.85 3.3171 5.25 4.1504 0.4667 0.2 0.6507 0.41511 0.5507 0.64844-0.6333 1.8667-0.9667 3.0837-1 3.6504-0.067 1.2667-0.034 2.0671 0.1 2.4004 0.2667 0.56667 0.6659 0.83411 1.1992 0.80078 0.3 0 0.7844-0.10078 1.4511-0.30078 1-0.16667 2.0156-0.55039 3.0489-1.1504 0.6667-0.4 1.5348-1.0337 2.6015-1.9004l-1.1504 11.801c0 0.33333-0.068 0.39922-0.2011 0.19922-0.1666-0.2-0.6319-0.39961-1.3985-0.59961-0.6334-0.16667-1.0674-0.5155-1.3007-1.0488-1.2667-2.7333-2.9508-4.5512-5.0508-5.4512-0.5666-0.23333-1.0319-0.34961-1.3985-0.34961-0.5-0.0333-0.9515 0.0829-1.3515 0.34961-0.6333 0.43333-0.9492 0.96628-0.9492 1.5996-0.033 1.5333 0.6507 2.9016 2.0507 4.1016 1.3 1.1667 2.6993 1.7829 4.1993 1.8496 0.1667 0 0.8159-0.10078 1.9492-0.30078 0.8-0.16667 1.4667-0.0659 2 0.30078 0.2 0.13333 0.5178 0.26706 0.9511 0.40039 0.3333 0.2 0.467 0.56628 0.4004 1.0996-0.067 0.5-0.3671 0.96706-0.9004 1.4004-0.4145 0.34547-0.5681 0.54172-0.7597 0.75977-0.058 0.0589-0.1365 0.0777-0.1934 0.13867-0.148 0.15169-0.2469 0.26992-0.2988 0.35156-0.054 0.12344-0.1373 0.20677-0.25 0.25-0.115 0.0518-0.2313 0.0518-0.3496 0-0.3593-0.0999-0.7934-0.15026-1.3008-0.15039-0.6371 2e-3 -1.2379 0.10083-1.8008 0.29883-0.2243 0.10313-0.5402 0.28724-0.9492 0.55078-0.081 0.0762-0.182 0.10921-0.3008 0.0996-0.128-0.019-0.2443-0.0849-0.3496-0.19922-0.5461-0.60794-1.2127-1.0246-2-1.25 0-6.4e-4 -0.01 6.4e-4 -0.01 0-0.1708-0.0756-0.2567-0.29425-0.4394-0.34961-0.8667-0.23333-1.983-0.2506-3.3496-0.0508-0.5 0.1-0.8682 0.16589-1.1016 0.19922-0.4333 0.0667-0.6988 0.0337-0.7988-0.0996-0.9-1.1667-1.4504-2.1667-1.6504-3-0.7333-3.0333-1.9329-5.4326-3.5996-7.1992-0.1667-0.16667-0.1667-0.35078 0-0.55078 0.9667-1.1 1.5325-1.8171 1.6992-2.1504 1-1.5333 1.5833-2.9655 1.75-4.2988 0.1667-0.56667 0.2675-1.0008 0.3008-1.3008 0.1-0.5-0.034-0.93216-0.4004-1.2988-0.2667-0.26667-0.5826-0.38489-0.9492-0.35156-0.4334 0.13333-0.7667 0.21667-1 0.25-2.1667 0.3-4.0504 1.0849-5.6504 2.3516-0.5 0.36667-0.8178 0.28333-0.9512-0.25-0.067-0.36667-0.2663-0.78333-0.5996-1.25-0.4-0.63333-0.65-1.0345-0.75-1.2012-0.033-0.0667-0.1825-0.26628-0.4492-0.59961-0.2-0.23333-0.2504-0.43294-0.1504-0.59961 0.5667-0.83333 1.1674-1.3004 1.8008-1.4004 3.6333-0.3 6.2651-1.4996 7.8984-3.5996 1.0334-1.2667 1.1341-2.3829 0.3008-3.3496-0.7-0.8-1.8008-0.93372-3.3008-0.40039-0.3333 0.16667-0.7325 0.41667-1.1992 0.75-0.5667 0.5-0.9174 0.78294-1.0508 0.84961-1.2 0.86667-2.2329 2.3008-3.0996 4.3008-0.1667 0.43333-0.4825 0.85-0.9492 1.25-0.7 0.56667-1.0663 0.86511-1.0996 0.89844-0.067 0.0667-0.2682-0.0651-0.6016-0.39844-0.4-0.43333-0.6655-0.70078-0.7988-0.80078-0.3667-0.3-0.5178-0.81745-0.4512-1.5508 0.033-1.1667 0.068-2.0484 0.1016-2.6484 0.067-1.0667 0.2488-1.9504 0.5488-2.6504 0.4-0.96667 0.5996-2.2012 0.5996-3.7012 0.067-2.2333-0.1329-3.933-0.5996-5.0996-0.4667-1.1333-1.1992-1.7496-2.1992-1.8496-0.4333-0.0333-0.85 0.10039-1.25 0.40039-0.3667 0.26667-0.6167 0.6-0.75 1-0.4667 1.5667-0.5171 3.1171-0.1504 4.6504 0.4667 1.8333 1.2826 3.3333 2.4492 4.5 0.3 0.3 0.4841 0.49961 0.5508 0.59961 0.1333 0.23333 0.1675 0.49883 0.1016 0.79883-0.3333 2.0667-0.5156 3.6016-0.5489 4.6016 0 0.66667-0.1511 1.1996-0.4511 1.5996-0.2333 0.33333-0.4833 0.43216-0.75 0.29883-0.2667-0.26667-0.4663-0.43333-0.5996-0.5-0.9333-0.4-1.4508-0.76628-1.5508-1.0996-0.3333-1.2-0.9652-2.7-1.8985-4.5-1.1-2.2-2.5844-3.5159-4.4511-3.9492-0.7-0.16667-1.3337 0.13373-1.9004 0.90039-0.5333 0.76667-0.6652 1.6-0.3985 2.5 0.7333 2.2667 2.1829 3.85 4.3496 4.75 0.6 0.26667 1.5323 0.56511 2.7989 0.89844 1.0667 0.36667 1.9 0.83372 2.5 1.4004 0.1 0.1 0.3171 0.20078 0.6504 0.30078 0.2333 0.16667 0.2481 0.41667 0.051 0.75-1.2667 2.3333-2.0534 4.1492-2.3867 5.4492l-0.1543 0.59961c-0.1 0.26667-0.292 0.41784-0.5586 0.45117-0.5667 0.0667-1.0667 0.21589-1.5 0.44922-0.9667 0.56667-1.6837 0.98333-2.1504 1.25-0.8333 0.5-1.5 0.98451-2 1.4512-0.8333 0.76667-1.2577 1.2667-1.291 1.5-0.067 0.33333 0.35 0.84883 1.25 1.5488 0.3333 0.26667 0.8876 0.54961 1.6543 0.84961 0.4 0.26667 0.9037 0.48372 1.5371 0.65039 0.9333 0.23333 1.4663 0.3845 1.5996 0.45117 0.1 0.0333 0.259 0.0663 0.459 0.0996 0.1 0.0667 0.074 0.20039-0.059 0.40039-0.2 0.33333-0.3667 0.75-0.5 1.25-0.067 0.3-0.1674 0.73216-0.3007 1.2988-0.033 0.1-0.051 0.25117-0.051 0.45117-0.033 0.16667-0.1496 0.2655-0.3496 0.29883-1.8 0.33333-3.5656 0.98451-5.2989 1.9512-0.4118 0.22174-0.8835 0.73346-1.3066 1.0098-0.2843 0.18316-0.539 0.43233-0.8164 0.63086-1.1117 0.80215-2.19 1.4428-3.377 2.6094-0.4049 0.40495-0.8458 1.0763-1.2734 1.6484h-0.031c-0.2248 0.2745-0.5851 0.79082-0.8574 1.1504-0.014 0.0212-0.015 0.0294-0.029 0.0508 0 5e-3 0 6e-3 -0.017 0.0117-2.0907 4.207-5.3833 10.504-1.8943 13.338 1.7667 1.6 2.9837 2.6329 3.6504 3.0996 0.343 0.24945 0.6765 0.28092 1.0176 0.49023 0.1415 0.085 0.3962 0.33751 0.5293 0.41016h-0.051c0.2784 0.14634 0.5481 0.0982 0.8262 0.2207 0.6752 0.31458 1.3592 0.82316 2.0273 0.97852 0.5963 0.16565 1.2742 0.0484 1.9121 0.0742 0.093 3e-3 0.1902 0.0759 0.2832 0.0762 0.1648 9.6e-4 0.2789-0.0398 0.4336-0.0469 0.4172-0.0169 0.7869 0.12079 1.2207 0.0469 1.1412-0.14266 1.99-0.11857 2.7403-0.041 0.454 0.0582 0.8852 0.19138 1.3164 0.32422 0.7039 0.2252 1.402 0.4456 2.4941 0.9668 1.4 0.7 2.4988 1.1341 3.2988 1.3008 0.5687 0.11802 0.7597-4e-3 1.2246 0.0488 0.1807 0.0351 0.3938 0.17347 0.5723 0.20117l0.6016 0.0488c0.2691-4e-3 0.6043-0.0762 0.957-0.16602 0.1035-0.0225 0.3554 0.0488 0.4453 0.0176 0.031-0.0104 0.211-0.095 0.2813-0.125l0.164-0.0254c0.042-2e-3 0.079-2e-3 0.1035 0h0.1504c0.2686 3.9e-4 0.4856-0.0829 0.6504-0.25 0.073-0.0456 0.1534-0.0521 0.2324-0.0664 0.7443 0.5495 1.3723 1.2531 1.9493 2.0254 0.1222 0.16943 0.2855 0.34893 0.3886 0.51367 0.5832 0.88839 1.0924 1.8786 1.4805 3.0273 0.1109 0.36991 0.6064 0.89732 0.9434 1.3594 0.116 0.18848 0.241 0.52792 0.3554 0.68945l0.049 0.0508c0.067 0.0768 0.1701 0.11247 0.2402 0.18555 0.059 0.0633 0.051 0.0994 0.1133 0.16406 0.3303 0.34172 0.5152 0.3142 0.8027 0.54687 0.3086 0.21936 0.5866 0.47316 0.9414 0.64063 0.1789 0.0791 0.4509 0.39493 0.6055 0.41211 2.8667 0.46666 5.2504 1.6508 7.1504 3.5508 1.2 1.2 2.8667 1.8337 5 1.9004 0.3134 0.0261 0.8326 0.0337 1.3711 0.0391 0.6515 0.0724 1.1191 0.20402 1.541 0.35157 0.1674 0.0643 0.3895 0.0739 0.5371 0.1582 0.8333 0.5 1.5174 0.83333 2.0508 1 0.3059 0.0644 0.4968-0.0356 0.748-0.0488 0.05 0.0467 0.096 0.12326 0.1485 0.15039l0.5 0.0996c0.2499-0.0268 0.4513-0.14308 0.6015-0.34961l0.4551-0.60742c0.065-0.0627 0.13-0.0714 0.1953-0.14258 0.2-0.23333 0.5004-0.60156 0.9004-1.1016 0.9333-1.1667 2.6-2.5484 5-4.1484 1.7-1.1667 2.6671-2.3178 2.9004-3.4512 0.3667-1.7 1.0992-3.0159 2.1992-3.9492 1.0931-0.87452 1.8117-2.1053 2.5508-3.3164 0.057-0.0871 0.1948-0.19715 0.248-0.2832v0.0488c0.037-0.0603 0.032-0.1177 0.066-0.17773 0.1723-0.3107 0.4822-0.49093 0.6328-0.82227 0.9-1.9 0.9169-3.7488 0.053-5.5488-0.017-0.0171-0.015-0.22011-0.023-0.33398 0.041-0.0824 0.092-0.15862 0.1738-0.2168 0.1021-0.0447 0.2009-0.0621 0.2988-0.0508l0.1758 0.0254c0.1769 0.0423 0.462 0.14062 0.9258 0.32617 0.4 0.16667 0.7333 0.2655 1 0.29883 0.2525 0.0446 0.8346-0.0789 1.123-0.0527 0.1146 8e-3 0.1555 0.0469 0.2754 0.0527l1.5 0.0996c0.6642-6e-3 1.5654-0.10483 2.7012-0.29883l0.4434-0.0801c0.6004-0.0732 0.842 0.0362 1.5078-0.0703 1.0333-0.16667 2.1496-0.5 3.3496-1 0.522-0.24564 1.5248-0.75787 2.8105-1.4277 0.2531-0.11209 0.4449-0.15032 0.6778-0.23829 1.7366-0.79593 3.6893-0.86675 5.9121-0.0332 1.2 0.43333 2.1671 0.18333 2.9004-0.75 0.3-0.33333 0.4492-0.70156 0.4492-1.1016 0-0.53333-0.2829-1.0333-0.8496-1.5-0.8333-0.73333-1.4845-1.6655-1.9512-2.7988-0.3333-0.8-0.6163-1.8833-0.8496-3.25l-0.5996-6c-0.3-2.5-1.4996-4.3837-3.5996-5.6504-2.1667-1.3333-4.0504-3.2326-5.6504-5.6992-1.4666-2.3-3.55-3.55-6.25-3.75-0.4666-0.0333-1.0829-0.0178-1.8496 0.0488-0.9667 0.0667-1.6004 0.0996-1.9004 0.0996-0.5 0-1.3004-0.18216-2.4004-0.54883-1-0.33333-1.8159-0.4845-2.4492-0.45117-0.6333 0-0.9667-0.0484-1-0.14844-0.1667-0.46666-0.4012-1.3174-0.7012-2.5508-0.3-1.2-1.1158-2.6341-2.4492-4.3008-0.3333-0.2-0.5833-0.36667-0.75-0.5-0.3-0.23333-0.2496-0.54922 0.1504-0.94922 2.2-2.0667 3.5837-3.9833 4.1504-5.75 0.3-1 0.3-1.7326 0-2.1992-0.1667-0.26667-0.4341-0.43333-0.8008-0.5-0.4 0-0.7004-0.0175-0.9004-0.0508-3.3333-0.23333-6.0504 0.40039-8.1504 1.9004l-0.1992-0.75c-0.033-0.3-0.2504-0.73411-0.6504-1.3008-0.3667-0.53333-0.5159-0.98294-0.4492-1.3496-0.033-0.66667-0.051-1.1841-0.051-1.5508-0.033-0.6 0.2166-1.0167 0.75-1.25l1.6484-0.75c0.6667-0.2 1.3004-0.13216 1.9004 0.20117 0.8667 0.53333 2.233 0.73294 4.0996 0.59961 0.6334-0.0333 1.5849-0.21745 2.8516-0.55078 0.4666-0.0333 0.9163-0.45 1.3496-1.25 0.4333-0.76667 0.5496-1.3655 0.3496-1.7988-0.5-1.1-1.5-1.6833-3-1.75-1.1-0.0333-2.2008 0.21667-3.3008 0.75-0.7666 0.4-1.6988 1.0492-2.7988 1.9492-0.2 0.46667-0.4345 0.71667-0.7012 0.75-0.9 0.16667-1.7488 0.46706-2.5488 0.90039-0.2333 0.13333-0.3341 0.0675-0.3008-0.19922 0-0.76666 0.019-1.35 0.053-1.75 0-0.66666 0.066-1.2345 0.1993-1.7012 0.033-0.0667 0.062-0.46589 0.062-1.1992 0-0.46667 0.1492-0.81745 0.4492-1.0508l3.5-2.5c0.5333-0.33333 0.9676-0.48255 1.3008-0.44922 0.4 0 0.9659 0.14922 1.6992 0.44922 2.1 0.43333 4.0342 0.25117 5.8008-0.54883 0.6333-0.3 1.1159-0.73411 1.4492-1.3008 0.3333-0.63333 0.4167-1.3 0.25-2-0.3-1.1333-1.1159-1.6992-2.4492-1.6992-1.5332-0.1-3.0683 0.4-4.6016 1.5-0.3667 0.23333-0.95 0.79922-1.75 1.6992-0.7 0.8-1.3821 1.3174-2.0488 1.5508-1.3333 0.5-2.4167 1.2326-3.25 2.1992v-4.75c-0.067-0.66667-0.1016-1.1841-0.1016-1.5508-0.033-0.6 0.2168-1.0322 0.75-1.2988 0.1333-0.0667 0.767-0.55117 1.9004-1.4512 0.7333-0.6 1.5164-0.8655 2.3496-0.79883 2.6 0.2 4.9159-0.86784 6.9492-3.2012 0.4667-0.56667 0.6508-1.0822 0.5508-1.5488-0.1-0.5-0.4837-0.90117-1.1504-1.2012-1.2333-0.56667-2.5492-0.46589-3.9492 0.30078-1.5334 0.9-2.6341 1.9329-3.3008 3.0996-0.1 0.23333-0.2337 0.58411-0.4004 1.0508-0.1667 0.4-0.3992 0.70039-0.6992 0.90039l-2.75 1.8984c-0.1 0.1-0.1833 0.15039-0.25 0.15039-0.067 0.0333-0.1171-0.0171-0.1504-0.15039-0.4-1.6333-0.586-2.6663-0.5527-3.0996 0.033-0.56667 0.1167-1.3322 0.25-2.2988 0.1334-1.1 0.2167-1.8849 0.25-2.3516 0.1-2.2-0.3632-4.1826-1.3965-5.9492-0.2667-0.43333-0.6-0.73372-1-0.90039zm-0.6016 1.1504c0.2334-0.1 0.4175-0.0825 0.5508 0.0508 0.1 0.1 0.2008 0.26667 0.3008 0.5 0.4333 0.8 0.7821 1.8484 1.0488 3.1484 0 2.7333-0.099 4.6849-0.2988 5.8516 0 0.16667-0.05 0.25-0.1504 0.25-0.1 0-0.1833-0.0504-0.25-0.15039-0.3667-0.3-0.7175-0.70117-1.0508-1.2012-0.3667-0.63333-0.6496-1.0984-0.8496-1.3984-0.7-1-0.9829-2.4341-0.8496-4.3008 0.1333-1.4667 0.6488-2.3833 1.5488-2.75zm12.5 7h1.0508c0.3 0 0.5171 0.0329 0.6504 0.0996 0.6333 0.43333 0.5655 0.98372-0.2012 1.6504-1.8333 1.4333-3.7655 2.2492-5.7988 2.4492-0.1667 0.0333-0.283 0.0508-0.3496 0.0508-0.1667 0-0.2345-0.11628-0.2012-0.34961l0.2012-0.55078c1.2666-2.1333 2.8151-3.2496 4.6484-3.3496zm-21.148 3.4492c0.8333-0.0333 1.5659 0.15078 2.1992 0.55078 0.2667 0.16667 0.7492 0.60078 1.4492 1.3008 0.7 0.8 1.3512 1.6488 1.9512 2.5488l1.25 2.1504c0.067 0.13333 0.049 0.24961-0.051 0.34961-0.067 0.1-0.1829 0.11727-0.3496 0.0508-3.1-0.8-5.3674-2.1178-6.8008-3.9512-0.3666-0.43333-0.5663-0.98177-0.5996-1.6484 0-0.66666 0.1667-1.0833 0.5-1.25 0.1667-0.0667 0.3178-0.10156 0.4512-0.10156zm22.799 5.5508c1.3-0.0667 2.0345 0.29961 2.2012 1.0996 0.2 0.86667-0.3 1.5837-1.5 2.1504-1.5667 0.63333-3.4 0.66637-5.5 0.0996-0.1667-0.0333-0.25-0.0663-0.25-0.0996-0.033-0.0333-4e-4 -0.13411 0.1-0.30078 1.1333-1.6333 2.7825-2.6159 4.9492-2.9492zm-22.6 5.5508c0.2333 0.0333 0.6326 0.16511 1.1992 0.39844 1.7 0.63333 3.3182 2.05 4.8516 4.25 0.4666 0.63333 0.2496 0.91823-0.6504 0.85156-2.5333 0.0667-4.5508-0.68333-6.0508-2.25-0.9667-1.0333-1.1004-1.9849-0.4004-2.8516 0.2334-0.33333 0.5841-0.46511 1.0508-0.39844zm-24 3.8984c0.4667 0.0667 0.8174 0.31667 1.0508 0.75l0.3984 1.2012c0.2667 1 0.3345 1.8837 0.2012 2.6504 0 1.9333-0.1337 3.2667-0.4004 4-0.067 0.2-0.1326 0.31628-0.1992 0.34961l-0.3008-0.20117c-1.9667-2.2667-2.6663-4.7492-2.0996-7.4492 0.1667-1 0.6163-1.4341 1.3496-1.3008zm44.949 0.20117c0.9667 0.16667 1.5849 0.5155 1.8516 1.0488l0.1 0.45117c-0.1333 1.0333-0.7341 1.5837-1.8008 1.6504-1.1333 0.16667-1.9822 0.2655-2.5488 0.29883-1 0.1-1.8682 0.0167-2.6016-0.25l-0.5488-0.15039c-0.2-0.0667-0.3667-0.1655-0.5-0.29883 0.2333-0.23333 0.5822-0.61706 1.0488-1.1504 0.5334-0.33333 1.3667-0.78294 2.5-1.3496 0.7-0.36667 1.5334-0.45 2.5-0.25zm-13.799 5.1504c0.1 0 0.2492 0.0988 0.4492 0.29883 1.1667 0.96667 2.1996 2.2845 3.0996 3.9512 0.2667 0.46667 0.4508 0.96667 0.5508 1.5 0.033 0.36667 0.1671 0.58177 0.4004 0.64844 0.2333 0.0333 0.4833-0.05 0.75-0.25l0.1504-0.0996c1.1666-0.76667 2.9825-1.35 5.4492-1.75 1.1333-0.16667 2.1508-0.0988 3.0508 0.20117 0.3 0.1 0.3988 0.35 0.2988 0.75 0 0.0667-0.1163 0.38255-0.3496 0.94922-1.0667 2.2667-2.6171 4.1504-4.6504 5.6504-0.1667 0.1-0.25 0.21628-0.25 0.34961-0.067 0.16667 0.034 0.35078 0.3008 0.55078 2.0667 1.7 3.2992 3.5992 3.6992 5.6992 0 0.1 0.05 0.24922 0.1504 0.44922-0.033 0.0667 0.05 0.28372 0.25 0.65039 0.1333 0.26667 0.033 0.43333-0.3008 0.5-0.2333 0.0667-0.7333 0.0163-1.5-0.15039-1.9333-0.4-3.7318-1.0996-5.3984-2.0996-0.7-0.4-1.2349-0.71589-1.6016-0.94922-0.6-0.36667-1.0825-0.73294-1.4492-1.0996-0.1333-0.13333-0.3-0.20117-0.5-0.20117-0.2 0.0333-0.3492 0.13411-0.4492 0.30078-1.2334 2.2-3.3167 3.7155-6.25 4.5488l-0.6016 0.25c-0.4666 0.2-0.7496 0.25039-0.8496 0.15039-0.067-0.1-0.1-0.54961-0.1-1.3496 0.1667-2.3 0.6163-3.9996 1.3496-5.0996 0.1-0.16667 0.1157-0.31784 0.051-0.45117-0.067-0.16667-0.2178-0.25-0.4512-0.25-1.7333-0.16667-3.5163-1.2151-5.3496-3.1484-0.6333-0.66666-0.6837-1.1008-0.1504-1.3008 0.2667-0.13333 0.6834-0.23411 1.25-0.30078 2.1667-0.96667 4.1008-1.3833 5.8008-1.25 0.2333 0.0333 0.4-0.16628 0.5-0.59961 0.067-0.53333 0.1171-0.89961 0.1504-1.0996 0.6333-2.4 1.3833-4.3341 2.25-5.8008 0.1-0.1 0.1833-0.14844 0.25-0.14844zm-41.15 3.0996c0.5667-0.2 1.2333-3.9e-4 2 0.59961 0.8667 0.66667 1.6167 1.6008 2.25 2.8008 0.3667 0.7 0.8492 1.7833 1.4492 3.25l0.051 0.25c0 0.0333-0.066 0.0333-0.1992 0-1.6-0.5-2.7008-0.93411-3.3008-1.3008-1.1333-0.66667-1.9492-1.5659-2.4492-2.6992-0.1-0.16667-0.2841-0.61823-0.5508-1.3516 0.067-0.9 0.3167-1.4155 0.75-1.5488zm41.35 1.1016c-0.332 0.0676-0.4164 0.46508-0.25 1.1973l1.1504 6c0.033 0.0667 0.1167 0.16745 0.25 0.30078 0.067 0.13333-0.017 0.23411-0.25 0.30078-0.4333 0.13333-0.7667 0.0326-1-0.30078-0.7333-1.0333-1.2508-1.9674-1.5508-2.8008-0.1666-0.4-0.3992-0.54922-0.6992-0.44922-0.1667 0.0667-0.196 0.29922-0.1 0.69922 0.2667 0.73333 0.6155 1.5008 1.0488 2.3008 0.067 0.13333 0.2334 0.3 0.5 0.5 0.2 0.2 0.1863 0.41706-0.049 0.65039-0.067 0.1-0.2178 0.18333-0.4512 0.25-0.3 0.0667-0.4821 0.13255-0.5488 0.19922-0.4333 0.2-0.6 0.46745-0.5 0.80078 0.1667 0.33333 0.3992 0.38372 0.6992 0.15039 0.4333-0.36667 1.2008-0.6845 2.3008-0.95117 0.6333-0.1 1.5829-0.26667 2.8496-0.5 1.0667-0.16667 2.0337-0.1494 2.9004 0.0508 0.7333 0.2 1.1655 0.0488 1.2988-0.45117 0.033-0.13333-0.033-0.26511-0.1992-0.39844-0.1667-0.1-0.3508-0.15039-0.5508-0.15039l-2.3496-0.20117c-0.2667 0-0.3829-0.0659-0.3496-0.19922v-1.3008c-0.033-0.53333 0.017-0.98294 0.1504-1.3496 0.2-0.56667 0.1496-0.93294-0.1504-1.0996l-0.1992-0.0508c-0.1667 0-0.3004 0.16667-0.4004 0.5-0.1333 0.26667-0.2012 0.6-0.2012 1-0.033 0.2-0.049 0.45-0.049 0.75v1.5508c0 0.33333-0.1512 0.48255-0.4512 0.44922-0.4 0-0.65 0.0504-0.75 0.15039-0.033 0.0333-0.099-0.0326-0.1992-0.19922-0.1-0.16667-0.1504-0.33333-0.1504-0.5-0.067-1-0.1655-1.75-0.2988-2.25-0.4334-1.6333-0.7337-2.8504-0.9004-3.6504-0.033-0.33333-0.068-0.56589-0.1016-0.69922-0.067-0.23216-0.2179-0.33066-0.4492-0.29883zm-18.6 0.69727c0.4 0.23333 0.5996 0.61706 0.5996 1.1504-0.1 0.53333-0.35 1.0333-0.75 1.5-0.2 0.23333-0.6322 0.59961-1.2988 1.0996-0.9334 0.7-2.5012 1.2833-4.7012 1.75h-0.5l0.1504-0.39844c1.5-2.5667 3.2171-4.2508 5.1504-5.0508 0.5333-0.23333 0.9829-0.2506 1.3496-0.0508zm-11.551 6.75c0.6334 0.53333 1.3 1.2678 2 2.2012 0.4 0.53333 0.9834 1.3337 1.75 2.4004 0.2 0.3 0.45 0.8155 0.75 1.5488 0.2 0.33333 0.4016 0.46706 0.6016 0.40039 0.033 0 0.2484-0.14922 0.6484-0.44922 0.6334-0.4 1.6334-0.91745 3-1.5508 0.7667-0.43333 2.0012-0.79961 3.7012-1.0996 0.3-0.1 0.3659 0.0822 0.1992 0.54883-0.4667 2.2333-1.0325 3.9-1.6992 5-0.5 0.86666-1.1841 1.7349-2.0508 2.6016-0.3333 0.4-0.3333 0.76628 0 1.0996 1.0667 1.1333 2.2178 3.083 3.4512 5.8496-2.0667-1.9-4.1016-3.0492-6.1016-3.4492-0.6735-0.15121-1.3619 0.11576-2.041 0.12305-0.073-1e-3 -0.1374-0.0237-0.2109-0.0234-0.1001 1.9e-4 -0.1861 0.0494-0.2852 0.0527-0.8042 0.0542-1.5998-0.1297-2.4121 0.14649-0.7667 0.26667-1.6504 0.79961-2.6504 1.5996-1.2667 1-2.1155 1.6182-2.5488 1.8516-0.3 0.16667-0.9008 0.39922-1.8008 0.69922-0.2333 0.1-0.2992-7.8e-4 -0.1992-0.30078l1.0996-3.1484c0.1333-0.33333 0.033-0.51745-0.3008-0.55078-1.8667-0.13333-3.9325-0.88333-6.1992-2.25l-0.4004-0.19922c2.3-2.1 4.6663-3.6174 7.0996-4.5508 0.3333-0.13333 0.5504-0.41628 0.6504-0.84961 0.067-0.56667 0.1326-0.96784 0.1992-1.2012 0.9667-2.2333 2.0675-4.3826 3.3008-6.4492 0.1-0.16667 0.2492-0.18393 0.4492-0.0508zm33.051 5.1504c0.1 0.0667 0.2337 0.16745 0.4004 0.30078 1.8 1.4667 3.55 2.4822 5.25 3.0488l1.4004 0.45117c0.6 0.16667 1.1988 0.21706 1.7988 0.15039-0.8 0.4-1.3504 0.69844-1.6504 0.89844-0.5666 0.3-0.9833 0.63333-1.25 1-0.5062 0.60952-0.4584 0.96152-0.8203 1.5039-0.5001 0.73225-0.9708 1.4749-1.248 2.2852-0.1011 0.3111-0.5509 0.78509-0.5801 1.0625-0.033 0.43333-0.1167 1.1-0.25 2-0.042 0.47615 0.062 0.84319 0.123 1.2422-1e-3 0.0539-0.029 0.10056-0.023 0.15625v0.5c-5e-4 0.0896-0.034 0.17292-0.1 0.25-0.025 0.0638-0.088 0.10712-0.1504 0.15039-0.2599 0-0.3297 0.0752-0.5723 0.082l-0.4785-0.0312c-0.5297 0.0131-0.9593 0.22056-1.4512 0.30664-0.6583 0.10735-1.6136 0.0979-2.0488 0.29297l0.4004-5.5c0.2333-1.7667 0.3826-3.1 0.4492-4 0.1667-2.6333 0.3179-4.6159 0.4512-5.9492 0.033-0.23333 0.1496-0.30117 0.3496-0.20117zm-33.1 0.7012c-0.4 0.0667-0.5667 0.31667-0.5 0.75 0.067 0.36667 0.117 0.88216 0.1504 1.5488 0.067 0.63333 0.1655 1.1333 0.2988 1.5 0.2333 0.63333 0.4678 1.6004 0.7012 2.9004 0.067 0.2-0.084 0.34922-0.4512 0.44922-0.5333 0.16667-0.8492 0.28489-0.9492 0.35156l-0.3008-0.15039-1.4004-3.5996c-0.1333-0.3-0.3-0.43372-0.5-0.40039-0.3333 0-0.4321 0.18216-0.2988 0.54883 0.4333 1.6 0.7163 2.5341 0.8496 2.8008 0.2667 0.43333 0.3674 0.76667 0.3008 1-0.067 0.26667-0.3341 0.46628-0.8008 0.59961-0.4 0.0667-0.5841 0.23333-0.5508 0.5 0.033 0.16667 0.1341 0.28294 0.3008 0.34961 0.1 0.0333 0.1833 0.0333 0.25 0l0.75-0.0488c2.8-1.1333 5.0674-1.8 6.8008-2 0.033 0 0.2484-0.0504 0.6484-0.15039 0.3334-0.1 0.4845-0.24922 0.4512-0.44922-0.033-0.23333-0.1496-0.33411-0.3496-0.30078-0.6 0.1-0.9508-0.0492-1.0508-0.44922 0-0.5-0.033-0.85078-0.1-1.0508 0-0.73333-0.05-1.2663-0.1504-1.5996-0.033-0.26667-0.084-0.46628-0.1504-0.59961-0.067-0.23333-0.2159-0.36706-0.4492-0.40039-0.2667 0-0.4004 0.16667-0.4004 0.5 0.033 0.16667 0.051 0.66667 0.051 1.5 0 0.56667 0.048 1.0492 0.1484 1.4492 0.1 0.43333 0.052 0.68333-0.1484 0.75l-0.75 0.30078c-0.3 0.1-0.5016 0.0496-0.6016-0.15039-0.2-0.33333-0.4151-1.1008-0.6484-2.3008l-0.8008-3.5996c-0.1-0.43333-0.2163-0.6155-0.3496-0.54883zm21.35 6.5488c0.2333 0.0333 0.6171 0.1845 1.1504 0.45117 1.3 0.66667 2.6333 2.0988 4 4.2988v0.0508c0.2667 0.53333 0.35 0.84922 0.25 0.94922-0.067 0.13333-0.433 0.20117-1.0996 0.20117-1.2 0-2.3512-0.38372-3.4512-1.1504-1.1333-0.76667-1.8659-1.7008-2.1992-2.8008-0.2-0.73333-0.1496-1.2488 0.1504-1.5488 0.3666-0.36667 0.7659-0.51784 1.1992-0.45117z"/>
 <g transform="translate(-1113.4 -563.5)">
  <path transform="translate(160.15,84.1)" d="m958.3 479.4c-3.3333 0-5 1.6667-5 5v158.2c0 3.3333 1.6667 5 5 5h93.201c3.3333 0 5-1.6667 5-5v-158.2c0-3.3333-1.6667-5-5-5zm8.3008 7.1992h76.6c4.6667 0 7 2.3333 7 7v139.8c0 4.6667-2.3333 7-7 7h-76.6c-4.6667 0-7-2.3333-7-7v-139.8c0-4.6667 2.3333-7 7-7z" fill="#ef1d1e"/>
  <path transform="translate(160.15,84.1)" d="m966.6 486.6c-4.6667 0-7 2.3333-7 7v139.8c0 4.6667 2.3333 7 7 7h76.6c4.6667 0 7-2.3333 7-7v-139.8c0-4.6667-2.3333-7-7-7z" fill="none" stroke="#000" stroke-width="1.2"/>
 </g>
</svg>
