<svg width="103.2" height="168.2" preserveAspectRatio="none" version="1.1" viewBox="0 0 103.2 168.2" xmlns="http://www.w3.org/2000/svg">
 <path d="m13.301 7.1992c-4.6667 0-7 2.3333-7 7v139.8c0 4.6667 2.3333 7 7 7h76.6c4.6667 0 7-2.3333 7-7v-139.8c0-4.6667-2.3333-7-7-7z" fill="#fff"/>
 <path d="m55.251 112.65h-0.05c0.44896-0.21732 0.71563-0.50065 0.8-0.85 8e-3 -0.0168 8e-3 -0.0335 0-0.05 0.0743-0.2082 0.0577-0.42487-0.05-0.65v0.05l-0.3-0.55c-1.2328-1.4143-2.6328-2.4143-4.2-3h0.05c-0.38776-0.0957-0.65443-0.1457-0.8-0.15-0.6457 0.0205-1.1957 0.37047-1.65 1.05-7e-3 0.0341-0.0235 0.0508-0.05 0.05v0.05c-0.0138 0.0433-0.0305 0.0767-0.05 0.1-0.0635 0.10391-0.0969 0.25391-0.1 0.45 0.01 1.072 0.50987 1.972 1.5 2.7 0.94492 0.73164 2.0116 1.0983 3.2 1.1 0.62643 4e-3 1.1931-0.096 1.7-0.3m-2.7-21.35c-0.68399-0.87943-1.7006-1.3628-3.05-1.45h-0.05c-0.97253 0.0113-2.0392 0.44467-3.2 1.3-1.3129 0.94167-2.0962 1.775-2.35 2.5v0.05c-0.11784 0.37291-0.10117 0.70625 0.05 1 0.23529 0.32943 0.55195 0.49609 0.95 0.5l1.4 0.1c1.1526-8e-3 2.5859-0.191 4.3-0.55 1.2224-0.25052 1.9891-0.76719 2.3-1.55v0.05c0.22565-0.64896 0.10899-1.299-0.35-1.95m6.9 15c-9e-3 -0.06-9e-3 -0.12667 0-0.2 0.0435-0.0759 0.0935-0.14258 0.15-0.2l0.05-0.05c0.86263-1.8824 1.3126-3.4491 1.35-4.7 0.0231-1.4538-0.52693-2.3538-1.65-2.7l0.05 0.05-0.7-0.1c-0.84011 0.0315-1.5401 0.4482-2.1 1.25-0.80794 1.2684-1.0246 2.7184-0.65 4.35 0.34206 1.4091 1.0254 2.4424 2.05 3.1 0.27253 0.12109 0.47253 0.18776 0.6 0.2 0.18932-0.01 0.37265-0.0929 0.55-0.25h0.05c0.20495-0.18503 0.28828-0.43503 0.25-0.75m6.8-1.45c-0.35847-3e-3 -0.72513 0.03-1.1 0.1-1.3408 0.39037-2.3741 1.307-3.1 2.75-0.0165 0.0453-0.0332 0.0787-0.05 0.1-0.30104 0.76406-0.41771 1.3807-0.35 1.85 0.17279 0.41015 0.52279 0.66015 1.05 0.75l0.4 0.05h0.1c1.756-0.3194 3.1226-0.8194 4.1-1.5 0.0328 7e-3 0.0495 7e-3 0.05 0l0.2-0.1c0.76302-0.40951 1.2297-0.87617 1.4-1.4 0.10156-0.43385 0.0182-0.90052-0.25-1.4-0.52604-0.79974-1.3427-1.1997-2.45-1.2m-38.2 5.6v0.05c-0.32813-0.58477-0.89479-0.88477-1.7-0.9l-0.5 0.05c-1.2896 0.24049-2.3729 0.84049-3.25 1.8-0.83985 0.99818-1.2898 2.1482-1.35 3.45v0.1c-1e-3 0.65521 0.0987 1.1052 0.3 1.35 0.17422 0.16784 0.39089 0.25117 0.65 0.25 0.15261-1.3e-4 0.28594-0.0335 0.4-0.1h0.05c2.23-0.99063 3.83-2.0573 4.8-3.2v-0.05c0.80859-1.0177 1.0086-1.951 0.6-2.8m-13.7-2.05h-0.2c-0.95925 0.14349-1.6592 0.91015-2.1 2.3 0.0103 0.0258 0.0103 0.0425 0 0.05v0.05c-0.0179 0.10547-0.0179 0.20547 0 0.3 0.24323 1.6833 0.95989 3.1667 2.15 4.45l0.05 0.05c0.0743 0.0315 0.12435 0.0649 0.15 0.1 0.53802 0.61849 1.1047 0.93515 1.7 0.95 0.29544 0 0.54544-0.0833 0.75-0.25 0.0337 8e-3 0.0504 8e-3 0.05 0 0.46927-0.28685 0.70261-0.95351 0.7-2-0.0298-1.6655-0.46313-3.1655-1.3-4.5 8e-3 -2.6e-4 8e-3 -0.0169 0-0.05l-0.1-0.15c-0.53399-0.84063-1.1506-1.274-1.85-1.3m11-4.45c-0.28073 0.13463-0.46406 0.33463-0.55 0.6h0.05c-0.0745 0.30807-0.0245 0.57474 0.15 0.8h0.05c0.82865 1.0415 1.7286 1.8749 2.7 2.5v0.05l0.65 0.45v-0.05c0.96979 0.65742 1.7365 1.1074 2.3 1.35l0.35 0.1c0.14544 0.0426 0.24544 0.10927 0.3 0.2 0.0913 0.13347 0.12461 0.2668 0.1 0.4-0.33112 1.575-0.53112 3.1417-0.6 4.7 6e-3 0.71315 0.156 1.2465 0.45 1.6 0.23281 0.23047 0.49948 0.34713 0.8 0.35 0.15261-1.3e-4 0.28594-0.0335 0.4-0.1 0.034-9e-3 0.0507-0.0255 0.05-0.05 2.6948-1.0604 4.7615-2.1604 6.2-3.3l0.55-0.55c0.0762-0.0829 0.15951-0.13294 0.25-0.15 0.13164-0.0109 0.24831 6e-3 0.35 0.05 1.9912 1.1702 4.1912 1.7535 6.6 1.75h0.05c0.41653-0.0285 0.74987-0.16187 1-0.4 0.20221-0.20456 0.30221-0.45456 0.3-0.75-6e-3 -0.14961-0.056-0.33294-0.15-0.55-0.68229-1.8606-1.649-3.3106-2.9-4.35-0.0564-0.0429-0.1064-0.10953-0.15-0.2-0.0115-0.0914-0.0115-0.19141 0-0.3 0.0431-0.081 0.0931-0.16432 0.15-0.25 0.58698-0.49597 1.3036-1.4626 2.15-2.9v-0.05l0.25-0.4v0.05c0.3569-0.58985 0.57357-1.0232 0.65-1.3 0.13503-0.35117 0.11836-0.66784-0.05-0.95-0.15039-0.28633-0.40039-0.48633-0.75-0.6l0.05 0.05c-0.28138-0.0627-0.74805-0.0961-1.4-0.1h-0.05c-0.86641 3.9e-4 -1.9331 0.16706-3.2 0.5-2.6e-4 0.0258-0.0169 0.0425-0.05 0.05l-0.3 0.05 0.05-0.05-1.25 0.35c-0.0943 0.0489-0.19427 0.0489-0.3 0-0.1112-0.0458-0.19453-0.12913-0.25-0.25l-0.15-0.3c-0.35625-0.83112-1.0396-1.8478-2.05-3.05l-0.5-0.6c-0.52943-0.60951-1.0461-0.92617-1.55-0.95-0.61146 0.019-1.0615 0.369-1.35 1.05l-0.65 1.25-0.05 0.05c-0.4944 0.86615-0.87773 1.7162-1.15 2.55-0.015 0.1181-0.0817 0.20143-0.2 0.25-0.0919 0.0851-0.20859 0.11849-0.35 0.1-0.16523-0.0311-0.39857-0.0478-0.7-0.05h-1.05c-1.347 3e-3 -3.097 0.45267-5.25 1.35m9.1-16.15c-0.54896-0.54792-1.199-0.86459-1.95-0.95-0.0242 2e-3 -0.0575 2e-3 -0.1 0l-0.3-0.05c-0.66159 0.0388-1.1949 0.40547-1.6 1.1l0.05-0.05c-0.44127 0.85339-0.52461 1.8534-0.25 3 0.32149 1.1581 0.87149 2.0247 1.65 2.6l0.35 0.25c1.5318 1.088 2.7818 1.7547 3.75 2 0.0512 0.0217 0.0845 0.0384 0.1 0.05l0.7 0.1c0.37409-0.0199 0.69075-0.16993 0.95-0.45h0.05c0.45078-0.52787 0.48411-1.1279 0.1-1.8l-0.85-1.55v-0.05c-0.52357-1.0285-0.9569-1.8118-1.3-2.35l-0.2-0.3c-0.41485-0.70885-0.79818-1.2255-1.15-1.55m7.25-7.15-0.5 0.05c-1.0707 0.2444-1.7874 1.0444-2.15 2.4-0.38138 1.531-0.24805 3.4643 0.4 5.8l0.05 0.1c0.0235 0.0643 0.0402 0.11433 0.05 0.15 0.0526 0.32669 0.11927 0.56003 0.2 0.7v0.05c0.31133 0.48659 0.69466 0.73659 1.15 0.75 0.43359-0.015 0.76693-0.265 1-0.75 1.1662-2.4474 1.8162-4.4807 1.95-6.1 3e-3 -0.0343 3e-3 -0.0676 0-0.1 0.0131-0.0481-4e-3 -0.14807-0.05-0.3 3e-3 -0.0245 3e-3 -0.0578 0-0.1v-0.25c0.0533-0.44792-0.0467-0.86459-0.3-1.25-0.43776-0.74401-1.0378-1.1274-1.8-1.15" fill="#1ca4da"/>
 <path d="m98.65 130.8c-0.81875 0.0101-1.7858 0.39191-2.9004 1.1484l-0.44922 0.30076c-0.98411 0.64427-1.8678 0.96016-2.6504 0.94922h-0.44922c-0.56393-1e-3 -0.9806 0.20023-1.25 0.60156-0.24676 0.42857-0.24959 0.89922-0.0488 1.4062 0.29404 0.63709 0.46081 1.3837 0.49805 2.2422 0.034 0.4388 0.034 1.2237 0 2.3516-1e-3 0.0593-0.0168 0.10771-0.0488 0.14844v0.0508c-0.0376 1.2835-0.40583 2.7835-1.1016 4.5-1.0948 2.7932-1.6781 5.2603-1.75 7.4004 0.0123 1.4574-0.78617 2.7908-2.3984 4-1.184 0.92761-2.2014 2.1098-3.0508 3.5488-0.37787 0.60468-0.77709 0.88958-1.1992 0.85156-0.39453 0.0129-0.89453-0.1383-1.5-0.45117v-0.0488c-0.55546-0.28633-1.2066-0.72044-1.9512-1.3008h0.0508c-1.4387-0.99401-2.522-1.6277-3.25-1.9004-0.72735-0.26459-1.4948-0.39831-2.3008-0.40039h-0.5c-1.8512 0.0189-3.5178-0.8978-5-2.75-0.69219-0.82031-1.791-1.3358-3.2988-1.5488 1.3e-4 -8e-3 -0.0173-0.0251-0.0508-0.0508-0.36159-0.0734-0.99531-0.13933-1.9004-0.19922-1.1677-0.14115-2.0165-0.29232-2.5488-0.45117-1.0124-0.25156-2.0628-1.1333-3.1504-2.6484l-0.0508-0.0508-0.94922-1.4492c-0.96758-1.6764-1.8842-2.8102-2.75-3.4004l-0.40039-0.25c-1.073-0.75638-1.9723-1.3572-2.6992-1.8008h-0.0508c-0.1638-0.0986-0.34791-0.14896-0.55078-0.15039-0.46901 0.0129-0.80235 0.26287-1 0.75-0.01 0.0928-0.0429 0.16068-0.0996 0.20117-2.3258 2.1956-4.3587 3.2789-6.0996 3.25-0.65 6.5e-4 -1.2992-0.11562-1.9492-0.34961h-0.0508c-0.96015-0.33216-1.9602-0.49883-3-0.5-1.3509 5e-3 -3.0001 0.338-4.9492 1l-0.55079 0.19921c-1.9285 0.70911-3.3277 1.0599-4.1992 1.0508h-0.0508l-0.75-0.0508c-0.0168-6e-3 -0.0497-0.0234-0.0996-0.0508l-3.25-0.79883c-1.1505-0.26432-2.2009-0.39804-3.1504-0.40039h-0.0508l-1.75 0.15039c-1.7112 0.33893-2.9767 0.5056-3.7988 0.5-1.3009-1e-3 -2.485-0.33467-3.5508-1-1.5419-0.98477-2.9256-2.5526-4.1504-4.7012-0.68164-1.2012-1.2979-2.0345-1.8496-2.5l-0.34961-0.34961c-0.0294-0.0301-0.0623-0.063-0.0996-0.0996-0.14597-0.28008-0.38047-0.4293-0.70117-0.44922l-0.33203 0.0469c-0.38917 0.13715-0.6167 0.40276-0.61719 0.85156v26.201c-4e-3 0.26029 0.0793 0.47734 0.25 0.65039 0.17422 0.16784 0.39128 0.25117 0.65039 0.25h96c0.23568-4e-3 0.45274-0.0873 0.65039-0.25v-0.0508c0.16784-0.15351 0.25117-0.35312 0.25-0.59961v-32.551c-0.01-0.43138-0.24404-0.73177-0.70117-0.90039h0.0508c-0.46198-0.0999-0.81276-0.14831-1.0508-0.14844zm-95.482 6.5469c0.0212-7e-3 0.0108-0.0403 0.0332-0.0469l-0.0508 0.0488zm87.734-2.1406c-1e-3 -2e-3 -8.7e-4 -6e-3 -2e-3 -8e-3v0.051c-7e-3 -0.0156 8e-3 -0.0275 2e-3 -0.043z" fill="#faea01"/>
 <path d="m2.8008 2.1992 2.3398 61.129c2.8772 6.8087 4.9465 11.215 12.51 10.121 5.4373 6.3873 8.984 4.439 15.414 0.24289 9.1905 2.8049 8.4878-7.3748 8.9355-15.042 4.7114 2.4646 10.539 1.8195 9.9004 4.4492 2.6349-2.2201 4.6028-6.4544 2.6094-9.5l44.24-14.1 1.3516-37.301c-32.463 1.1681-97.301 0-97.301 0zm46.75 3.0508c0.0667 0 0.15 0.0329 0.25 0.0996 0.1 0.0333 0.16589 0.10117 0.19922 0.20117 0.0333 0.1 0.0508 0.19883 0.0508 0.29883-0.0985 0.52941-0.46158 1.2955-0.64648 1.9023l-2.7285-0.043c0.58496-0.54287 0.73203-0.82099 1.4746-1.459v-0.0508l1.0996-0.84961c0.0667-0.0667 0.16745-0.0996 0.30078-0.0996zm-7.9004 0.0508c0.1 0 0.20078 0.0484 0.30078 0.14844 0.1 0.1 0.15039 0.21823 0.15039 0.35156 0.0172 0.5863-0.0837 1.2232-0.1289 1.8359l-2.8223-0.0449 1.8496-1.8926 0.30078-0.25c0.1-0.1 0.21628-0.14844 0.34961-0.14844zm-4.9492 1.25c0.13333-0.0333 0.26706-3.3e-4 0.40039 0.0996 0.1 0.1 0.14844 0.21628 0.14844 0.34961l0.0508 0.40038c0.0219 0.0876 0.10947 0.0909 0.14258 0.16406l-1.7344-0.0273 0.64258-0.78711c0.1-0.13333 0.21628-0.19922 0.34961-0.19922zm-31.551 61c-0.13333 0.0333-0.3 0.0992-0.5 0.19922l-1.75 1.4004h-0.0488c-0.2 0.2-0.30078 0.43255-0.30078 0.69922v3.2012c0 0.16667 0.0175 0.28294 0.0508 0.34961 0.0333 0.0667 0.0488 0.15 0.0488 0.25 0 0.0667-0.0155 0.15-0.0488 0.25-0.0333 0.0667-0.0508 0.18294-0.0508 0.34961v6.1992c0 0.4 0.14922 0.66745 0.44922 0.80078 0.0333 0 0.0837 0.0329 0.15039 0.0996l0.15036 0.1504c2.5333 2.6667 5.7659 5.0174 9.6992 7.0508l0.75 0.39844c2.2667 1.2 4.0516 1.9345 5.3516 2.2012l0.0488 0.0488 1.5996 0.40039c1.4333 0.4 2.6349 0.59961 3.6016 0.59961 0.43333 0 0.76667-0.0155 1-0.0488 0.43333-0.0667 0.68333-0.31667 0.75-0.75 0.0667-0.43333-0.11745-0.75117-0.55078-0.95117l-0.65039-0.29883c-0.1-0.0333-0.16589-0.10117-0.19922-0.20117-0.0667-0.1-0.0996-0.19883-0.0996-0.29883 0.0333-0.36667-0.0849-0.66706-0.35156-0.90039-6.9666-5.2666-12.899-11.933-17.799-20l-0.45117-0.75v0.0508c-0.16667-0.26667-0.36628-0.41784-0.59961-0.45117h-0.0488zm64.551 2c-0.36667 0-0.6845 0.18216-0.95117 0.54883l-0.29883 0.40039c-1.8 2.5-3.4337 4.6492-4.9004 6.4492-1.8 2.2-4.05 4.4016-6.75 6.6016l-3.8008 3.0996c-0.36252 0.26365-0.45374 0.61055-0.29492 1.0371 0.16996 0.35078 0.42034 0.5625 0.79492 0.5625h0.10156c0.5-0.0333 1.0329-0.14961 1.5996-0.34961 0.0667-0.0667 0.15-0.0841 0.25-0.0508s0.18333 0.0837 0.25 0.15039c0.16667 0.13333 0.34883 0.21667 0.54883 0.25l3.7012-0.65039c3.3667-0.7 6.5992-1.9655 9.6992-3.7988 1.3-0.73333 3.1663-2.0667 5.5996-4l1.1016-0.85156 0.0488-0.0488c0-0.0333 0.0175-0.0508 0.0508-0.0508 0.66667-0.5 1.0155-1.0329 1.0488-1.5996-0.0667-0.6-0.4-1.1174-1-1.5508v0.0508c-0.23333-0.16667-0.69844-0.60078-1.3984-1.3008l-0.75-0.75c-0.3-0.2-0.51706-0.31628-0.65039-0.34961l-0.20117-0.0996c-0.0667-0.0333-0.0996-0.0837-0.0996-0.15039l-0.19922-0.29883c-0.4-0.56666-1.0841-1.2682-2.0508-2.1016l-0.44922-0.34961c-0.0667-0.0667-0.11706-0.13255-0.15039-0.19922-0.16667-0.4-0.44961-0.59961-0.84961-0.59961zm-16.996 18.137c-0.0115-0.0238-0.0441-0.0117-0.0547-0.0371l0.0508 0.0488c-2e-3 -5e-3 6e-3 -7e-3 4e-3 -0.0117zm29.795-7.3379c-0.63333 0.0333-1.2167 0.36667-1.75 1v0.0508l-0.39844 0.5c0 0.0333-0.0175 0.0488-0.0508 0.0488-1.5667 1.6333-3.7663 3.6508-6.5996 6.0508-1.3667 1.1333-3.3512 2.4337-5.9512 3.9004-2.3667 1.2333-4.6651 2.2004-6.8984 2.9004h0.0488c-0.46667 0.13333-0.69922 0.43177-0.69922 0.89844 4.8081 2.1125 17.423 0.86219 29.85-9.5489 0.46667-0.43333 0.66628-0.88294 0.59961-1.3496-0.17662-0.46356-0.50843-0.80927-1.0488-1h0.0996c-0.2-0.0667-0.81628-0.31667-1.8496-0.75l-0.20117-0.10156c-0.46667-0.23333-0.86589-0.34961-1.1992-0.34961h-0.15027c-0.0667 0-0.13255-0.0155-0.19922-0.0488-0.1-0.0333-0.16784-0.0837-0.20117-0.15039-0.23333-0.3-0.58216-0.55-1.0488-0.75-0.0333 0-0.0682-0.0175-0.10156-0.0508-0.16667-0.13333-0.28294-0.21667-0.34961-0.25l-0.0488-0.0488c-0.66666-0.6-1.2849-0.91784-1.8516-0.95117zm-79 11-0.5 0.0996c-0.3 0.13333-0.44922 0.40078-0.44922 0.80078v4.0996l0.0508 0.40039v0.0996l-0.0508 0.45117v2.2988c0 0.4 0.14922 0.66745 0.44922 0.80078 0.0333 0 0.0682 0.0155 0.10156 0.0488l0.94922 0.60156c3.2667 1.3333 6.9992 2 11.199 2 1.2 0 2.1341-0.0349 2.8008-0.10156h0.0508c2.6-0.16667 4.7996-0.64922 6.5996-1.4492 0.2-0.0667 0.33372-0.20039 0.40039-0.40039 0.1-0.2 0.11568-0.41706 0.0488-0.65039-0.0333-0.16667-0.13216-0.31589-0.29883-0.44922-0.1666-0.13298-0.35077-0.19917-0.55077-0.19917h-0.0996l-2.5996 0.19922c-0.1 0-0.20078-0.0175-0.30078-0.0508-0.1-0.0667-0.16589-0.15-0.19922-0.25-0.0667-0.16667-0.16745-0.29844-0.30078-0.39844-0.0667-0.0333-0.0996-0.0682-0.0996-0.10156-0.13333-0.2-0.31745-0.31628-0.55078-0.34961-2.9-0.5-5.4-1.1492-7.5-1.9492-0.66667-0.26667-1.9671-0.91784-3.9004-1.9512l-1.0488-0.59961h0.0488c-1.3667-0.7-2.5818-1.5992-3.6484-2.6992-0.16667-0.16667-0.36823-0.26745-0.60156-0.30078z" fill="#ef1d1e"/>
 <path d="m19.201 6.3008c0.3333 0.7 0.76553 1.7833 1.2988 3.25 0.2333 0.46667 0.86709 1.9667 1.9004 4.5-0.7 0.26667-1.1321 0.39844-1.2988 0.39844-0.2137 0.13358-0.35402 0.21151-0.48242 0.28125l-0.14453 0.0547c-0.2249 0.0791-0.44883-0.0499-0.67383-0.43555-1.3-2.2667-3.3175-5.633-6.0508-10.1-0.40174-0.80368-0.86314-0.30488-0.5488 0.44924l1.9004 3.4004c1.6 2.6667 2.7667 4.6841 3.5 6.0508 0.067 0.1 0.21592 0.31706 0.44922 0.65039 0.1259 0.28318-0.045 0.49585-0.42383 0.66016l-0.37695 0.13867c-0.043 0.0225-0.07 0.068-0.10938 0.0957l-0.83984 0.35547c-0.1333 0.1-0.24961 0.0651-0.34961-0.10156l-8.4512-11.699c-0.84575-1.1277-1.4382-0.49423-0.54883 0.59961 1.1229 1.2132 1.9757 2.6365 2.9004 4 0.9333 1.4 2.3829 3.4833 4.3496 6.25 0.4333 0.63333 0.66592 1.0171 0.69922 1.1504 0.067 0.4-0.28213 0.73333-1.0488 1-0.3 0.13333-0.53447 0.16637-0.70117 0.0996-0.1333-0.0333-0.28252-0.14961-0.44922-0.34961l-2.9512-3.5996c-2.4079-3.103-4.8603-6.171-7.2988-9.25l-0.0508-0.0508c-1.1603-0.31109-0.49415 0.53073 2e-5 1.25 2.006 2.505 3.8709 5.1102 5.9004 7.5996 0.2 0.26667 1.5159 1.9508 3.9492 5.0508 0.1333 0.2 0.11777 0.30078-0.0488 0.30078-0.1667 0.0333-0.35078 0.11667-0.55078 0.25-0.1667 0.16667-0.30039 0.28294-0.40039 0.34961-0.1667 0.16667-0.29844 0.28294-0.39844 0.34961-0.2 0.1-0.38408 0.0671-0.55078-0.0996l-7.9004-7.9512c-0.97963-0.97955-1.2118-0.0102-0.6504 0.55078l5.2012 5.5c0.6 0.66667 1.1155 1.1841 1.5488 1.5508 0.5 0.46667 0.78486 0.83294 0.85156 1.0996 0.033 0.36667-0.20117 0.7155-0.70117 1.0488-0.033 0.0333-0.0656 0.0508-0.0996 0.0508-0.2333 0.23333-0.43291 0.4-0.59961 0.5-0.2333 0.2-0.4833 0.2-0.75 0l-4.8008-3.5508v-0.0488c-0.68261-0.51189-0.94375 0.10572-0.54881 0.5l3.1484 2.5c0.033 0.0333 0.068 0.0488 0.10156 0.0488 0.8 0.6 1.2651 1.0012 1.3984 1.2012 0.2667 0.53333-0.032 1.0992-0.89844 1.6992l-0.0508 0.0996c-0.2 0.43333-0.50039 0.53411-0.90039 0.30078l-1.3438 1.9004 1.3438 43.1c4.9666 8.1332 10.984 14.883 18.051 20.25-0.7667-0.13333-1.2841-0.3-1.5508-0.5-0.4333-0.33333-1.6833-1.0659-3.75-2.1992-2.5333-1.4667-5.5488-3.8-9.0488-7-2.3-2.0333-4.2341-4.2174-5.8008-6.5508-1.3437-0.3984-0.15509 0.91885 0.49998 2 1.6333 2.2 3.8175 4.4674 6.5508 6.8008 0.5333 0.46667 1.3163 1.1488 2.3496 2.0488 0.9333 0.76667 1.7667 1.3829 2.5 1.8496 1.2 0.73333 3.0004 1.8516 5.4004 3.3516 0.3667 0.2 1.8163 0.84922 4.3496 1.9492-0.8667 0.13333-1.8841 0.05-3.0508-0.25-1.2667-0.36667-2.2337-0.61667-2.9004-0.75-0.9-0.16667-1.9-0.5-3-1-1.2666-0.63333-2.2163-1.1159-2.8496-1.4492-3.8333-2.0333-6.9826-4.3512-9.4492-6.9512-1.9132-1.323-1.4096 0.62722-0.55078 1.8008 0.9333 1.1333 2.4663 2.4822 4.5996 4.0488 1.0667 0.83333 3.0183 1.8682 5.8516 3.1016 2.9333 1.3333 5.3151 2.1667 7.1484 2.5 2.4333 0.43333 4.6679 0.51667 6.7012 0.25 0.4667-0.0667 0.73213-0.21784 0.79883-0.45117 0.1333-0.36667 0.067-0.66706-0.19922-0.90039-0.3667-0.2-0.63408-0.34922-0.80078-0.44922-1.7-1.0667-2.95-1.9174-3.75-2.5508-1.3666-1.0667-2.9655-2.433-4.7988-4.0996-1.9333-1.6667-3.0671-2.6996-3.4004-3.0996-0.5667-0.66667-2.2333-2.75-5-6.25-1.6333-2-2.8659-3.7326-3.6992-5.1992l-0.5-0.65039c-0.2667-0.33333-0.38486-0.65117-0.35156-0.95117 0-0.16667 0.05-0.31589 0.15039-0.44922 0.033-0.0667 0.13408-0.18294 0.30078-0.34961v0.15039c0 0.0667 0.0148 0.15 0.0488 0.25 0.4667 1.9333 1.4841 3.5322 3.0508 4.7988l0.90039 0.59961c1.3667 1.1667 2.9829 1.7016 4.8496 1.6016h2c0.2 0.1 0.41709 0.19883 0.65039 0.29883 0.5 0.23333 0.89922 0.55117 1.1992 0.95117 1 1.3 2.3179 2.1488 3.9512 2.5488 1.6 0.3 3.2163 0.11784 4.8496-0.54883 0.8333-0.36667 1.5504-0.73489 2.1504-1.1016 1.0667-0.63333 2.1151-1.3329 3.1484-2.0996 0.7 0.0333 1.5004 0.1845 2.4004 0.45117 0.7 0.13333 1.3841-3.9e-4 2.0508-0.40039 0.5333-0.3 1.0333-0.63333 1.5-1l0.19922-0.0996c1.0667-1.3333 1.8012-2.8837 2.2012-4.6504 0.033-0.0667 0.0488-0.15 0.0488-0.25s0.0168-0.18333 0.0508-0.25v-0.25l0.15039-0.5c0.2667-0.83333 0.4333-2.1163 0.5-3.8496l0.0508-1.25 0.0508-0.0508c0.033-0.2 0.0488-0.41706 0.0488-0.65039v-0.0996l0.0508-2.1504 1.0996 0.40039c1.3667 0.43333 2.6496 0.79961 3.8496 1.0996 1.1667 0.46667 2.2675 0.70117 3.3008 0.70117 0.033 0 0.0656 0.0155 0.0996 0.0488 0.1333 0.1 0.26709 0.31706 0.40039 0.65039l0.0996 0.19922v0.45117c0 0.1 0.05 0.19883 0.15039 0.29883 0.067 0.1 0.16748 0.15039 0.30078 0.15039s0.24961-0.0329 0.34961-0.0996c0.2667-0.2 0.54961-0.41706 0.84961-0.65039v-0.0488l0.19922-0.20117h0.0508c0.6-0.73333 1.1175-1.65 1.5508-2.75 0.5333-1.5 0.79883-2.9167 0.79883-4.25 0-0.4-0.05-0.78372-0.15039-1.1504 0.4 0.6 0.85156 1.2667 1.3516 2 0.1 0.13333 0.19883 0.2845 0.29883 0.45117 0.8 1.1 2.0171 2.5671 3.6504 4.4004 0.3333 0.4 0.85079 0.94844 1.5508 1.6484 0.6333 0.6 1.0984 1.0845 1.3984 1.4512 0.067 0.0667 0.11709 0.13255 0.15039 0.19922 0.8667 1.1333 2.1496 2.5171 3.8496 4.1504 0.1333 0.13333 0.3833 0.3 0.75 0.5 0.2667 0.23333 0.28378 0.53372 0.0508 0.90039l-3 4.1992c-1.8 2.3333-3.4008 4.1841-4.8008 5.5508-2.1333 2-3.5325 3.2655-4.1992 3.7988l-5.1992 4.1504c-0.1667 0.13333-0.28486 0.35039-0.35156 0.65039-0.033 0.0333 0.017 0.11667 0.15039 0.25 0.1 0.1 0.1833 0.15039 0.25 0.15039 0.6333-0.16667 1.6004-0.1997 2.9004-0.0996 2.9-0.2 5.0667-0.50039 6.5-0.90039 2.7333-0.76667 4.5337-1.3345 5.4004-1.7012 2.8666-1.2333 5.1671-2.4659 6.9004-3.6992 1.8-1.2 3.1159-2.1496 3.9492-2.8496 0.6-0.53333 0.99922-0.83372 1.1992-0.90039 0.4333-0.16667 0.88486 0.0175 1.3516 0.55078 0.067 0.1 0.2333 0.18333 0.5 0.25l1.25 1.1484-2.4004 2.5c-2.4665 2.4666-4.7671 4.4841-6.9004 6.0508-2.6 1.9-5.5167 3.4659-8.75 4.6992-2.9 1.1333-5.1675 1.8678-6.8008 2.2012-0.7 0.16667-1.0992 0.43216-1.1992 0.79883 0 0.0667 0.066 0.1345 0.19922 0.20117 0.1333 0.1 0.25156 0.15039 0.35156 0.15039l3.0996 0.19922 6.7988-0.34961c0.5667-0.0667 1.4175-0.15 2.5508-0.25 0.7667-0.13333 1.9159-0.38333 3.4492-0.75 1.6333-0.23333 3.5675-0.76628 5.8008-1.5996 1.3-0.5 3.1837-1.4167 5.6504-2.75 3.3666-1.8333 5.8492-3.4671 7.4492-4.9004 0.8-0.73333 1.3329-1.0996 1.5996-1.0996 0.3-0.0333 0.68369 0.0326 1.1504 0.19922l1.2012 0.44922c1.9333 0.6 3.5321 0.90039 4.7988 0.90039l0.8418-47.418-2.7265-3.248-1.5176-1.7344 3.9512-0.44922c-0.0225-0.62437 0.69998-0.5182-0.55078-0.59958-1.0333-0.0667-1.7988-0.0512-2.2988 0.0488-1.3667 0.4-2.3841 0.11706-3.0508-0.84961-0.1297-0.11116-0.20764-0.18678-0.30664-0.27734l-0.1934-0.22265c-0.011-0.0136-0.0242-0.0101-0.0352-0.0234-0.1359-0.21902-0.0471-0.39782 0.33594-0.52539l5.5488-1.6504c0.86611-0.17599 2.0846-1.139 0-0.80083l-5.0488 1.4512c-0.9333 0.3-1.5167 0.39883-1.75 0.29883-0.2667-0.13333-0.55156-0.36589-0.85156-0.69922-0.3333-0.36667-0.59883-0.64961-0.79883-0.84961-0.067 0-0.11709-0.0175-0.15039-0.0508-0.033-0.0667 0.017-0.13255 0.15039-0.19922 0.3-0.1 1.0829-0.40039 2.3496-0.90039l6.5996-2.9004c0.76812-0.384 0.6524-1.268-2.5488 0.19921l-2 0.90039c-2.1333 0.93333-3.7341 1.6174-4.8008 2.0508-0.3667 0.13333-0.7 0.0655-1-0.20117-0.3-0.36667-0.55-0.61667-0.75-0.75l-0.44922-0.34961c0.2667-0.26667 0.4333-0.41589 0.5-0.44922l2.0996-1.1504c2.2333-1.4333 3.65-2.3171 4.25-2.6504 1.1667-0.6 2.5659-1.4159 4.1992-2.4492 0.8535-0.54013 1.1761-0.55718 0.25-0.90036l-11.549 6.6504c-0.4 0.23333-0.78369 0.18294-1.1504-0.15039-0.5667-0.53333-0.86709-0.81628-0.90039-0.84961-0.067-0.0333 0.20078-0.30078 0.80078-0.80078 0.1-0.1 0.28213-0.19883 0.54883-0.29883l12.801-9.2012c0.26484-0.95163-0.0467-0.81388-0.80079-0.34963l-5.2988 3.9004c-4.2332 2.9667-6.7004 4.6663-7.4004 5.0996-0.4 0.4-0.71787 0.68294-0.95117 0.84961-0.4333 0.23333-0.88291 0.11706-1.3496-0.34961-0.2333-0.23333-0.4833-0.4-0.75-0.5-0.2333-0.13333-0.2333-0.28255 0-0.44922l16.551-13.602c0.2006-0.20065 0.0789-0.87865-0.45117-0.5l-15.949 12.951c-0.9 0.73333-1.7159 0.7491-2.4492 0.0488-0.1667-0.16667-0.15117-0.33333 0.0488-0.5l9.8496-9.0488c0.9667-0.93333 2.4512-2.3171 4.4512-4.1504l4.2988-4.0508c0.31336-0.31195-0.0776-0.75091-0.59958-0.39844l-4.5996 4.1484c-1.6 1.5333-2.8171 2.6845-3.6504 3.4512-2.4333 2.0333-4.2337 3.6167-5.4004 4.75-2.5666 2.4-4.4329 4.0337-5.5996 4.9004-0.2333 0.16667-0.49883 0.13177-0.79883-0.10156-0.3-0.33333-0.53447-0.54844-0.70117-0.64844s-0.083-0.26667 0.25-0.5c0.2333-0.16667 0.50078-0.40117 0.80078-0.70117l0.69922-0.79883c0.8333-0.9 2.1337-2.2178 3.9004-3.9512 1.2-1.2 3.0004-3.0159 5.4004-5.4492 2.5666-2.5667 4.2488-4.3012 5.0488-5.2012 0.21149-0.26444 0.0359-0.98517-0.44922-0.49997l-9.0996 9.2012c-2.7333 2.6333-4.7508 4.6333-6.0508 6-0.6 0.6-1.0167 0.94883-1.25 1.0488-0.4667 0.2-0.98213 0.0837-1.5488-0.34961-0.1667-0.13333-0.25-0.21667-0.25-0.25-0.033-0.0333 0.015-0.11667 0.14844-0.25l4.4512-4.9004c0.7-0.73333 1.6825-1.8826 2.9492-3.4492l5.5996-6.25c0.48774-0.48769 0.16-1.16-0.5-0.5l-7.1484 7.8496c-2.0333 2.4333-3.6167 4.2163-4.75 5.3496-0.3667 0.6-0.66709 1.0341-0.90039 1.3008-0.4 0.43333-0.91748 0.49922-1.5508 0.19922-0.2-0.1-0.41709-0.14844-0.65039-0.14844-0.2667-0.0333-0.31514-0.16706-0.14844-0.40039l10.049-13.85c1.2357-1.4825-0.47883-0.91096-2.9004 2.5488-1.7333 2.4333-3.0317 4.2512-3.8984 5.4512l-3.1504 4.2988c-0.3333 0.53333-0.61631 0.89961-0.84961 1.0996-0.3667 0.36667-0.83369 0.4345-1.4004 0.20117-0.2667-0.1-0.4333-0.20078-0.5-0.30078-0.067-0.16667-0.0344-0.34883 0.0996-0.54883 0.5333-0.86666 1.3492-2.1516 2.4492-3.8516 1.4667-2.4333 3.1004-5.2667 4.9004-8.5 0.311-0.31383 0.29528-1.9401-0.44922-0.69922l-4.2012 6.9492c-1.6333 2.8333-2.8988 4.9516-3.7988 6.3516-0.1667 0.26667-0.43408 0.3655-0.80078 0.29883-0.4667-0.13333-0.8-0.23216-1-0.29883-0.1-0.0333-0.11553-0.13411-0.0488-0.30078 0.1-0.16667 0.16592-0.30039 0.19922-0.40039l1-2.3496c1.5-3.5 2.75-6.5 3.75-9 1.2874-1.8394 0.13663-2.2179-0.59961-0.50002l-4.9004 11.199c-0.033 0.13333-0.099 0.36784-0.19922 0.70117-0.1 0.26667-0.25117 0.43333-0.45117 0.5-0.8-0.0333-1.3988-0.0333-1.7988 0s-0.51826-0.15078-0.35156-0.55078l4.1504-11.35c0.30285-0.60557 0.68845-3.223-0.79882-0.25002l-1.8008 5.0996c-0.067 0.3-0.13252 0.49961-0.19922 0.59961-0.1333 0.23333-0.36787 0.28372-0.70117 0.15039-0.4667 0-0.8-0.0155-1-0.0488-6e-4 0-0.0146 6e-3 -0.0156 6e-3l-0.0332-6e-3 -0.95117 0.18945c-0.1714-0.0149-0.35722 0.0128-0.44922-0.24023-0.067-0.23333 0.017-0.70039 0.25-1.4004 0.5667-1.4333 1.0163-3.1988 1.3496-5.2988-0.93569-1.063-0.91627 0.83567-1.25 2.0996-0.067 0.16667-0.11709 0.43216-0.15039 0.79883-0.1 0.33333-0.35 0.5-0.75 0.5-0.2153 0-0.23198 0.0335-0.42578 0.0371-0.1403-0.0652-0.26473-0.18403-0.42383-0.18555h-0.0508c-0.5962 0.0333-1.2603 0.29146-1.875 0.38672-0.022 7e-3 -0.1049 5e-3 -0.125 0.0117-0.4333 0.13333-0.6-0.0663-0.5-0.59961 0.2-0.66667 0.33369-1.1822 0.40039-1.5488 0.27136-1.2214 0.27883-4.8831-1.0996 1.0488-0.033 0.16667-0.084 0.43411-0.15039 0.80078-0.067 0.3-0.15 0.46667-0.25 0.5-0.058 0.0116-0.93048 0.30404-1.2344 0.40039-0.3315 0.0995-0.62834 0.0832-0.96484 0.19922-0.1975 0.077-0.30585 0.19587-0.49805 0.27539-0.4106 0.13568-0.32376 0.0995-0.85156 0.27539 0-0.5 0.0148-0.80039 0.0488-0.90039 0.3333-1.8 0.51748-3.1837 0.55078-4.1504 0-0.71877-0.71782-0.65859-0.84961 0-0.3667 2.8667-0.56826 4.3492-0.60156 4.4492-0.033 0.16667-0.0656 0.43411-0.0996 0.80078-0.1 0.3-0.29961 0.51706-0.59961 0.65039-0.5019 0.24131-0.7471 0.58714-1.1875 0.85352-0.5268 0.33549-1.25 0.58003-1.7129 0.94531-0.088 0.0698-0.18663 0.10469-0.29883 0.10156-0.1206 3e-3 -0.23876-0.0316-0.35156-0.10156-0.075-0.0801-0.12304-0.17891-0.14844-0.29883-0.01-0.0302 0.0137-0.063 0.0137-0.0937 1.4058-2.9168 2.617-7.2737 1.5742-7.5429-0.025-0.0135-0.0102-0.0523-0.0352-0.0645-0.48994-0.31848-1 0.0976-1 0.10158l-4.1992 3.6484c-0.5774 0.62213-1.0948 1.1066-1.5508 1.4512l-0.29883 0.29883c-0.069 0.0775-0.1527 0.12786-0.25 0.15039-0.1034 0.0147-0.20418-1e-3 -0.30078-0.0488-0.096-0.0436-0.1796-0.11144-0.25-0.20117-0.02-0.0487-0.0194-0.10406-0.0274-0.15625 0.046-0.35385 0.0238-0.73624 0.0508-1.0977l0.17774-2.3457c-1.1742-1.2432-3.5094-1.1222-8.0098 1.5429-0.4949 0.61856-1.0164 1.246-1.4902 1.8574l-0.34961-4.25c-0.96516-2.3142-0.822 0.75657-0.79883 1.5996 0.033 0.83333 0.099 1.5174 0.19922 2.0508 0.1996 1.1408 0.049 2.0789-0.21484 2.9512-0.034 0.0531-0.11197 0.15631-0.13477 0.19727l-0.0508 0.0508c-0.067 0.15039-0.10156 0.29961-0.10156 0.44922 0 0.12123-0.054 0.22201-0.15039 0.30078-0.055 0.10963-0.1383 0.17552-0.25 0.19922l-0.41016 0.084c-0.123-0.0103-0.23843-0.0182-0.33203-0.0176-0.036-0.01-0.07 7.5e-4 -0.10742-0.0156-0.043-0.0195-0.15274-0.0231-0.24024-0.0312-0.2147 0.0526-0.35937-4.2e-4 -0.35937-0.26953l-0.90039-5.5488c-0.0258-1.5844-0.51232-2.3696-1.1504-2.5508 0.2333 1.9 0.53369 3.8845 0.90039 5.9512 0.033 0.26667 0.1167 0.66589 0.25 1.1992 0.1 0.46667 0.0822 0.83294-0.0508 1.0996-0.1 0.26667-0.58251 0.40039-1.4492 0.40039-0.1333 0.1-0.2167 0.13303-0.25 0.0996-0.2 0.0667-0.34922 0.0996-0.44922 0.0996-0.2 0.0333-0.33369-0.0655-0.40039-0.29883-0.7333-2.8-1.5337-5.6004-2.4004-8.4004-0.37491-1.0313-0.93742-0.49979-0.75 0 0.5333 2.2667 1.0004 3.9508 1.4004 5.0508 0.2667 0.83333 0.56709 2.0833 0.90039 3.75-0.6 0.23333-1.0516 0.36511-1.3516 0.39844-0.1 0-0.36552 0.0833-0.79882 0.25-0.3 0.13333-0.4667 0.13333-0.5 0-0.067-0.2-0.34961-0.89961-0.84961-2.0996l-3.4004-7.9004c-1.3512 7e-3 -0.20696 1.616 0.24628 2.6016zm5.25 21.148h0.25c0.3333 0 0.68213 0.0504 1.0488 0.15039 0.7667 0.16667 1.5516 0.51745 2.3516 1.0508 1.1 0.73333 1.9663 1.6171 2.5996 2.6504 0.033 0.1 0.099 0.16589 0.19922 0.19922 0.1 0.0333 0.21631 0.0508 0.34961 0.0508 0.1-0.0333 0.1833-0.10117 0.25-0.20117 0.067-0.1 0.10156-0.19883 0.10156-0.29883v-2.4512c0.033-0.53333 0.21553-0.84922 0.54883-0.94922h0.0996c0.1-0.0667 0.21826-0.0996 0.35156-0.0996 0.067 0 0.15 0.0155 0.25 0.0488l0.0488 0.0508c0.5667 0.16667 1.0996 0.73255 1.5996 1.6992h0.0508c0.1667 0.33333 0.36631 0.75 0.59961 1.25 0.2333 0.56667 0.50078 1.2663 0.80078 2.0996 0.033 0.1 0.1167 0.18333 0.25 0.25 0.1 0.0667 0.21631 0.0841 0.34961 0.0508 0.1-0.0667 0.20078-0.15 0.30078-0.25l0.44924-0.75c0.3-0.56667 0.68369-1.3826 1.1504-2.4492v-0.05082c0.4333-0.76667 0.91592-1.2996 1.4492-1.5996l0.0527-0.0508c0.2333-0.16667 0.49883-0.25 0.79883-0.25h0.0508c0.3667 0 0.7 0.19961 1 0.59961 0.9 1.3 1.3496 4.2341 1.3496 8.8008 0 0.1 0.0326 0.20078 0.0996 0.30078s0.15 0.16589 0.25 0.19922c0.1 0.0333 0.20078 0.0333 0.30078 0 0.033-0.0333 0.0656-0.0508 0.0996-0.0508h0.14847c0.1333-0.0667 0.24961-0.11511 0.34961-0.14844 0.3667-0.2 0.73291-0.45 1.0996-0.75v-0.05074c0.2667-0.26667 0.48369-0.54961 0.65039-0.84961 0-0.0333 0.0168-0.0663 0.0508-0.0996 0.067-0.23333 0.0996-0.48333 0.0996-0.75 0-0.23333-0.0178-0.45039-0.0508-0.65039-0.033-0.3-0.033-0.58294 0-0.84961v-0.05079c0-0.63333 0.05-1.1159 0.15039-1.4492 0.033-0.13333 0.0656-0.21667 0.0996-0.25 0.033-0.0333 0.084-0.0508 0.15039-0.0508 0.033-0.0667 0.084-0.0996 0.15039-0.0996 0.033-0.0333 0.084-0.0508 0.15039-0.0508 0.2-0.16667 0.39961-0.2655 0.59961-0.29883 0.033-0.0333 0.0676-0.0508 0.10156-0.0508 0.033-0.0333 0.084-0.0508 0.15039-0.0508h0.0508c0.067 0 0.2333 0.11823 0.5 0.35156 0.067 0.1 0.15 0.19883 0.25 0.29883 0.4667 0.6 0.7167 1.1504 0.75 1.6504 0.033 0.56667 0.1167 1.0163 0.25 1.3496 0.033 0.16667 0.099 0.30039 0.19922 0.40039 0.1667 0.23333 0.46709 0.43294 0.90039 0.59961h0.0488c0.3 0.0667 0.68369 0.0841 1.1504 0.0508h0.0508c0.1667 0 0.68213-0.0678 1.5488-0.20117 0.5667-0.0667 0.95039 0.30156 1.1504 1.1016 0.067 0.33333 0.067 0.63177 0 0.89844h0.0508c-0.1 0.23333-0.2667 0.41745-0.5 0.55078h0.0488c-0.067 0.0333-0.11514 0.0663-0.14844 0.0996h-0.0508c-0.8 0.3-1.5829 0.43372-2.3496 0.40039-0.9333-0.1-1.7163 0.38255-2.3496 1.4492-0.1333 0.16667-0.25156 0.36823-0.35156 0.60156v0.0488c-0.033 0-0.0488 0.0175-0.0488 0.0508-0.067 0.0667-0.11709 0.15-0.15039 0.25-0.3 0.63333-0.4667 1.3-0.5 2-0.033 0.5-0.0508 0.93216-0.0508 1.2988v0.25c0 0.6 0.0168 1.0167 0.0508 1.25l0.0508 0.0508c0 0.1 0.0148 0.24922 0.0488 0.44922l0.0508 0.0508c0 0.13333 0.05 0.3 0.15039 0.5 0.067 0.23333 0.15 0.48333 0.25 0.75l-0.0508-0.0508c0.067 0.3 0.0996 0.56745 0.0996 0.80078 0 0.1 0.0346 0.20078 0.10156 0.30078l0.95118 1.2988c0 0.0333 0.0148 0.0663 0.0488 0.0996 0.5 0.43333 1.1183 0.96823 1.8516 1.6016 0.4333 0.36667 0.91592 0.78334 1.4492 1.25l0.0508 0.0488c0.3667 0.36667 0.68252 0.75039 0.94922 1.1504h-0.0508c0.2667 0.5 0.4004 1.0329 0.4004 1.5996 0 1.2-0.25 2.5004-0.75 3.9004-0.4 0.96667-0.84961 1.7671-1.3496 2.4004v0.0488c-0.067 0.0333-0.11709 0.0837-0.15039 0.15039h-0.0488c-0.033 0-0.0527 0.0175-0.0527 0.0508-0.067-0.33333-0.13252-0.65117-0.19922-0.95117v-0.0996c-0.6-1.6667-1.8675-3.1163-3.8008-4.3496-1.3333-0.9-2.6996-1.4174-4.0996-1.5508-0.033-0.1-0.084-0.1-0.15039 0 0.3 0.8 0.90079 1.3174 1.8008 1.5508 0.4667 0.1 0.93174 0.26667 1.3984 0.5 1.7 1 2.9016 2.1667 3.6016 3.5l-0.40039-0.0996c-0.7-0.13333-1.2329-0.23411-1.5996-0.30078-0.4333-0.1-0.85-0.19883-1.25-0.29883-0.1667-0.0667-0.31787-0.1345-0.45117-0.20117-1.4-0.63333-2.5163-1.0655-3.3496-1.2988h0.0527c-0.9-0.33333-1.5337-0.46706-1.9004-0.40039-0.1 0-0.20078 0.0504-0.30078 0.15039-0.1 0.0667-0.1504 0.1655-0.1504 0.29883l-0.14843 0.80078v0.0996l0.0488 3.1504c0 0.1-0.0158 0.21628-0.0488 0.34961v0.19924c0 0.0333 0.0148 0.0837 0.0488 0.15039l-0.0488 0.45117v0.44929c-0.067 0.26667-0.15 0.45078-0.25 0.55078-0.1 0.16667-0.25117 0.33333-0.45117 0.5v0.0488h-0.0508c-0.76669 1-1.6833 1.6008-2.75 1.8008-0.1333 0.0333-0.23408 0.11667-0.30078 0.25-0.1 0.1-0.13261 0.21628-0.0996 0.34961v0.19922c0 0.76666-0.19961 1.3674-0.59961 1.8008-0.4 0.4-1.3167 0.93294-2.75 1.5996-0.1333 0.0667-0.2167 0.16745-0.25 0.30078-0.033 0-0.0508 0.0155-0.0508 0.0488l-0.34961 0.70117c-0.067 0.1-0.0996 0.19883-0.0996 0.29883l-0.0508 0.0508h-0.20116l-0.10156 0.0508-0.5 0.39844v0.0508h-0.0488c-0.067 0-0.13447 0.0329-0.20117 0.0996-0.1 0.0333-0.16592 0.0837-0.19922 0.15039h-0.0508l-0.19922 0.15039c-0.033 0-0.0656 0.0155-0.0996 0.0488l-0.30078-0.79883c-0.3-1.1667-0.99961-2-2.0996-2.5-0.2-0.13333-0.38408-0.26706-0.55078-0.40039-0.2333-0.1-0.46592-0.15039-0.69922-0.15039-0.3667 0-0.73291 0.0329-1.0996 0.0996-0.8 0.13333-1.5675 0.43372-2.3008 0.90039-0.2 0.1-0.38213 0.21628-0.54883 0.34961-0.9667 0.7-1.4337 1.5333-1.4004 2.5 0 0.26667 0.05 0.51667 0.15039 0.75v-0.0488c0.067 0.33333 0.2333 0.64922 0.5 0.94922 0.4667 0.5 1.1488 0.75 2.0488 0.75 0.2667 0 0.61748-0.0833 1.0508-0.25l0.69922-0.19922c0.3667-0.36667 0.56631-0.75039 0.59961-1.1504 0-0.1-0.0158-0.18333-0.0488-0.25-0.5667-0.0333-1.15 0.21667-1.75 0.75-0.2333 0.0667-0.41748 0.0996-0.55078 0.0996-0.5667 0-0.99883-0.13372-1.2988-0.40039l-0.0508-0.0488c-0.1333-0.16667-0.2167-0.33333-0.25-0.5v-0.0508c-0.067-0.13333-0.0996-0.26706-0.0996-0.40039 0.033-0.8 0.51592-1.4667 1.4492-2 0.6667-0.36667 1.3333-0.61667 2-0.75 0.3-0.0667 0.60039-0.0996 0.90039-0.0996 0.2333 0.0667 0.46592 0.16745 0.69922 0.30078l0.75 0.69922 0.95117 1.3008 0.0996 0.40039c0 0.0333 0.0168 0.0818 0.0508 0.14844 0.033 0.13333 0.0488 0.26706 0.0488 0.40039l-0.0996 0.0996-0.19922 0.45117-0.10156 0.15039c0 0.0333-0.0158 0.0818-0.0488 0.14844-0.4667 0.3-0.74961 0.48411-0.84961 0.55078h-0.0508c-0.7 0.3-1.3337 0.55-1.9004 0.75-0.067 0.0333-0.11709 0.0508-0.15039 0.0508-1.1667 0.4-2.0155 0.59961-2.5488 0.59961-0.4333 0-0.83447-0.0329-1.2012-0.0996-0.2-0.0667-0.34922-0.0667-0.44922 0-0.1667-0.2-0.30039-0.38411-0.40039-0.55078-0.5333-0.8-0.84922-1.4841-0.94922-2.0508v-0.0488c-0.067-0.3-0.10156-0.61784-0.10156-0.95117 0-0.93333 0.23252-1.7822 0.69922-2.5488 0.067 0.0333 0.15 0.0333 0.25 0 0.2667 0.13333 0.53408 0.3 0.80078 0.5 0.067 0.0333 0.15 0.0488 0.25 0.0488h0.10156c0.1 0 0.19883-0.0329 0.29883-0.0996s0.16787-0.15 0.20117-0.25c0-0.13333-0.0197-0.24961-0.0527-0.34961-0.1667-0.36667-0.30039-0.75039-0.40039-1.1504-0.033-0.1-0.0656-0.18333-0.0996-0.25 0.3-0.26667 0.65078-0.49922 1.0508-0.69922 0.5667-0.33333 1.1829-0.61628 1.8496-0.84961 0.7 0.3 1.5159 0.44922 2.4492 0.44922 0.4667 0 0.8833-0.0329 1.25-0.0996 0.69999-0.1 1.2679-0.35 1.7012-0.75 0.1-0.0667 0.19883-0.15 0.29883-0.25-0.033-0.13333-0.082-0.21667-0.14844-0.25l-0.10156-0.0996c-0.5 0.1-0.88174 0.11577-1.1484 0.0488l-0.60156 0.30078c-0.3667 0.0667-0.7833 0.0996-1.25 0.0996-0.8333 0-1.5329-0.13372-2.0996-0.40039l-0.0488-0.0488c-0.3333-0.2-0.60078-0.41706-0.80078-0.65039v-0.0508c-0.6667-0.7-0.96709-1.5992-0.90039-2.6992 0-0.1-0.0158-0.20078-0.0488-0.30078-0.067-0.1-0.13447-0.16589-0.20117-0.19922-0.1-0.0333-0.1833-0.0508-0.25-0.0508-0.5667 0.0333-1.0996 0.0508-1.5996 0.0508-0.8333 0-1.5175-0.0678-2.0508-0.20117-0.4667-1.1333-0.89883-2.1663-1.2988-3.0996l0.0488 0.0508c-0.1333-0.3-0.26514-0.58294-0.39844-0.84961-0.033-0.0667-0.0508-0.1345-0.0508-0.20117 0-0.0333-0.0178-0.0663-0.0508-0.0996-0.1333-0.26667-0.23213-0.54961-0.29883-0.84961l-0.0508-0.0508c-0.1667-0.4-0.30039-0.76628-0.40039-1.0996l-0.0488-0.0508c0-0.0667-0.0178-0.11511-0.0508-0.14844v-0.15039c-0.3333-1-0.63369-1.9845-0.90039-2.9512 0-0.0667-0.0158-0.15-0.0488-0.25-0.3333-0.9-0.69961-1.7663-1.0996-2.5996-0.033-0.0333-0.084-0.0333-0.15039 0-0.1 0.16667-0.13456 0.35078-0.10156 0.55078 0.16669 1.1333 0.39921 2.2671 0.69921 3.4004 0.1667 0.7 0.36631 1.3996 0.59961 2.0996 0 0.0667 0.0168 0.15 0.0508 0.25 0 0.0333 0.0346 0.0992 0.10157 0.19922v0.0508c0.1333 0.33333 0.28252 0.68216 0.44922 1.0488 0.067 0.26667 0.16748 0.55156 0.30078 0.85156 0 0.0667 0.0168 0.13255 0.0508 0.19922 0.033 0.0333 0.0656 0.0837 0.0996 0.15039v0.0996c0.1333 0.23333 0.24961 0.48333 0.34961 0.75 0.4333 0.96667 0.88291 2.0326 1.3496 3.1992 0 0.0333 0.0168 0.0837 0.0508 0.15039l0.0488 0.0508 2 5v-0.0508c0.067 0.33333 0.18486 0.68411 0.35156 1.0508v0.0488c0.067 0.13333 0.13252 0.2845 0.19922 0.45117-0.1333-0.0667-0.24961-0.1345-0.34961-0.20117-0.067-0.0333-0.13447-0.0488-0.20117-0.0488l-3.5488-3.3496h-0.0508l-1.5488-2.4004-0.0508-0.0508v-0.0996l-0.0508-0.0508-1.1992-1.8496v0.0508c-0.2-0.43333-0.41709-0.93333-0.65039-1.5-0.3-0.63333-0.58291-1.3174-0.84961-2.0508v0.0508c-0.1-0.26667-0.20078-0.50117-0.30078-0.70117 0-0.0667-0.0326-0.15-0.0996-0.25h0.0508c-1.0667-2.5333-2.2508-4.6322-3.5508-6.2988-0.033-0.0667-0.0656-0.11706-0.0996-0.15039h-0.0527v-0.0508l-0.19922-0.29883c-0.1-0.13333-0.20078-0.21667-0.30078-0.25-0.033-0.1-0.082-0.18333-0.14843-0.25-0.033-0.0333-0.068-0.0837-0.10157-0.15039-0.1-0.13333-0.19883-0.21667-0.29883-0.25-0.4667-1.0667-0.8-1.8826-1-2.4492-0.2333-0.73333-0.1829-1.8671 0.1504-3.4004 0-0.0333 0.0168-0.0508 0.0508-0.0508 0-0.5 0.068-0.88372 0.20117-1.1504l0.5-0.79883c0.033-0.0333 0.0656-0.0837 0.0996-0.15039 0-0.1 0.0148-0.18333 0.0488-0.25 0.067-0.13333 0.13447-0.31745 0.20117-0.55078l0.0996-0.19922c0.033 0.0333 0.084 0.0508 0.15039 0.0508 0.1333 0.0333 0.24961-2e-3 0.34961-0.10156 0.6333-0.5 1.1333-0.94961 1.5-1.3496 0-0.0333 0.0168-0.0663 0.0508-0.0996 0-0.0333 0.0148-0.0663 0.0488-0.0996 0.033 0 0.0508-0.0175 0.0508-0.0508 0.2333-0.3 0.4-0.55 0.5-0.75 0.1333-0.26667 0.26709-0.51667 0.40039-0.75 0.2667-0.56667 0.5167-1.0492 0.75-1.4492v0.0488c0.3667-0.6 0.68252-1.0496 0.94922-1.3496 0.1667-0.16667 0.30039-0.2655 0.40039-0.29883 0.033 0 0.0676 0.0155 0.10156 0.0488h0.0996c0.1333 0.0667 0.20117 0.28372 0.20117 0.65039 0 0.1-0.0178 0.24922-0.0508 0.44922-0.1 0.2-0.20078 0.45-0.30078 0.75-0.067 0.0667-0.0818 0.15-0.0488 0.25s0.084 0.18333 0.15039 0.25l0.0488 0.0508c0.033 0.0333 0.084 0.0663 0.15039 0.0996 0.067 0.0333 0.18291 0.0837 0.34961 0.15039 0.3667 0.36667 0.75039 0.41706 1.1504 0.15039 0.1667 0 0.35078 0.0155 0.55078 0.0488 1.2 0.1 1.8996 0.15039 2.0996 0.15039 0.2667 0 0.53213-0.0155 0.79883-0.0488 0.5333-0.0667 0.96748-0.25078 1.3008-0.55078h0.0508c0.2-0.2 0.3667-0.41706 0.5-0.65039 0.3333-0.53333 0.5-1.4655 0.5-2.7988-0.033-0.46666 0.015-0.98411 0.14844-1.5508v-0.0508c0.067-0.53333 0.18486-1.1167 0.35156-1.75 0.1333-0.43333 0.26514-0.79961 0.39844-1.0996 0.1-0.33333 0.21826-0.59883 0.35156-0.79883v0.0488c0.2333-0.4 0.51631-0.61706 0.84961-0.65039zm8.25 13.25-2.9512 0.35156c-0.033 0.1-0.033 0.21628 0 0.34961s0.084 0.26706 0.15039 0.40039l2.8008-0.10156c-0.6 0.33333-1.0012 0.65117-1.2012 0.95117h-0.0488c-0.3 0.33333-0.45117 1.0329-0.45117 2.0996 0 0.13333 0.0168 0.26706 0.0508 0.40039-0.067-0.0333-0.11709-0.0663-0.15039-0.0996-0.1333-0.1-0.23213-0.18333-0.29883-0.25l-0.95117-1.1016c-0.3333-0.26667-0.55039-0.3655-0.65039-0.29883-0.067 0.26667-0.032 0.65039 0.10156 1.1504l0.25 1c0.033 0.0667 0.082 0.13255 0.14844 0.19922 0.3333 0.4 0.6667 0.71589 1 0.94922 0.7 0.56666 1.5837 1.0512 2.6504 1.4512l1.1503 0.34964c0.2 0.0333 0.5333 0.0508 1 0.0508 1.2 0 2.3163-0.11823 3.3496-0.35156 0.2333 0 0.41748-0.0484 0.55078-0.14844 0.2333-0.0667 0.54922-0.23333 0.94922-0.5 0.2667-0.2 0.41787-0.38411 0.45117-0.55078 0.033-0.0333 0.082-0.0508 0.14844-0.0508 0.1-0.1 0.16787-0.19883 0.20117-0.29883 0.033-0.13333 0.0162-0.24961-0.0508-0.34961-1.1-2.2-2.4992-3.7504-4.1992-4.6504l-0.0508-0.0508c-0.067-0.0333-0.13252-0.0488-0.19922-0.0488-0.033-0.0333-0.0656-0.0508-0.0996-0.0508-0.5667-0.3-1.15-0.49961-1.75-0.59961h-0.15039c-0.5333-0.13333-1.1012-0.20117-1.7012-0.20117zm4.75 2.7012 0.29883 0.19922c0.7667 0.7 1.4508 1.6167 2.0508 2.75-0.5667 0.33333-0.9833 0.55039-1.25 0.65039h-0.0996c-0.2333 0.0333-0.51631 0.0663-0.84961 0.0996h-0.90039l0.0488-0.0996 0.15039-0.15039 0.25-0.40039 0.0508-0.0488 0.0996-0.30078c0.067-0.2 0.15-0.34922 0.25-0.44922l0.15039-0.70117 0.0488-0.0488-0.0488-0.40039c-0.067-0.2-0.0838-0.36667-0.0508-0.5zm-13.701 2.1504-1.7988 0.5c-0.5667 0.16667-1.1829 0.33333-1.8496 0.5-0.8 0.1-1.5675 0.26667-2.3008 0.5-0.1-0.0333-0.16592 0.0151-0.19922 0.14844l0.39844 0.55078c0.2333 0.0333 0.46787 0.0508 0.70117 0.0508 0.4333 0 0.86553-0.0175 1.2988-0.0508h0.15039c1.0667-0.16667 2.0008-0.44961 2.8008-0.84961l0.29883-0.20117 0.65039-0.44922c0.1-0.0667 0.15039-0.11706 0.15039-0.15039-0.067-0.2-0.16748-0.38216-0.30078-0.54883zm3.75 1.1993c-0.8333 0.2-1.6492 0.39961-2.4492 0.59961-0.1 0.0333-0.16592 0.0663-0.19922 0.0996h-0.0508l-0.19922 0.10156-1.4004 0.54883h0.0488c-0.6333 0.2-1.6663 0.48294-3.0996 0.84961-0.8 0.2-1.5325 0.46745-2.1992 0.80078-0.033 0.0333-0.0508 0.11667-0.0508 0.25l2.8496-0.15039c1.3-0.33333 2.2516-0.59883 2.8516-0.79883v-0.05086l1.3984-0.55078h0.0508c0.033-0.0333 0.084-0.0488 0.15039-0.0488 0.2-0.1 0.41709-0.18333 0.65039-0.25l1.6484-0.55078c0.1-0.1 0.15039-0.18333 0.15039-0.25 0-0.2-0.05-0.39961-0.15039-0.59961zm1.8008 1.1991c-0.2-0.0333-0.38408 2e-3 -0.55078 0.10156-0.7667 0.16667-1.5167 0.41667-2.25 0.75-0.2333 0.0667-0.46592 0.15-0.69922 0.25-0.033 0-0.0508 0.0155-0.0508 0.0488-0.5333 0.3-0.99844 0.55-1.3984 0.75h0.0488c-0.6 0.2-1.1504 0.39961-1.6504 0.59961-0.5 0.13333-0.98252 0.2845-1.4492 0.45117-0.5667 0.16667-1.0667 0.39922-1.5 0.69922-0.033 0.0333-0.033 0.10117 0 0.20117l0.55078 0.39844 1.5488-0.44922c0.3671-0.13309 0.75039-0.24961 1.1504-0.34961h0.0508c0.5333-0.23333 1.0817-0.43294 1.6484-0.59961v-0.05075c0.4667-0.2 0.98408-0.46745 1.5508-0.80078h-0.0996c0.3667-0.16667 0.75039-0.31589 1.1504-0.44922 0.9-0.13333 1.5492-0.58294 1.9492-1.3496 0.033-0.0667 0.033-0.1345 0-0.20117zm2.4492 1.5508c-0.1333 0-0.24961 0.0175-0.34961 0.0508l-1.6504 1.1992c-1.5666 1-3.5163 1.9671-5.8496 2.9004-0.8333 0.23333-1.5155 0.61706-2.0488 1.1504-0.033 0.0333-0.033 0.0818 0 0.14844 0.1 0.0667 0.21631 0.16745 0.34961 0.30078 0.1 0 0.19883 0.0175 0.29883 0.0508 0.5333-0.23333 1.0837-0.43489 1.6504-0.60156l0.80078-0.39844c2.3333-0.93333 4.2655-1.9333 5.7988-3 0.6-0.23333 1.0516-0.70039 1.3516-1.4004 0.033-0.0667 0.0488-0.1345 0.0488-0.20117l-0.19919-0.19924zm0.95117 1.25c-0.5333 0.23333-0.96748 0.54922-1.3008 0.94922-0.1333 0.1-0.23213 0.21823-0.29883 0.35156-0.3333 0.33333-0.96709 0.79844-1.9004 1.3984h-0.0508c-0.2 0.13333-0.41709 0.2845-0.65039 0.45117-0.033 0-0.0488 0.0155-0.0488 0.0488-0.6 0.3-1.2512 0.61784-1.9512 0.95117l-1.0996 0.5c-0.1 0.1-0.1833 0.19883-0.25 0.29883 0.033 0.0667 0.084 0.1345 0.15039 0.20117 0.1333 0.13333 0.3 0.26706 0.5 0.40039 0.9667-0.33333 1.8833-0.75 2.75-1.25 0.1333-0.1 0.26709-0.18333 0.40039-0.25h0.0488c0.2333-0.2 0.4833-0.36667 0.75-0.5 1.0333-0.7 1.7349-1.2349 2.1016-1.6016 0.067-0.13333 0.18291-0.24961 0.34961-0.34961 0.3667-0.33333 0.73291-0.68216 1.0996-1.0488 0.1-0.1 0.1833-0.21823 0.25-0.35156-0.067-0.4-0.34961-0.46589-0.84961-0.19922zm1.6992 2.1504-0.69922 0.0488-0.45117 0.20117c-0.033 0-0.0656 0.0155-0.0996 0.0488l-0.44922 0.15039-2.25 1.3496c-0.1 0.0333-0.23369 0.13411-0.40039 0.30078-0.1333 0.1-0.24961 0.18333-0.34961 0.25-0.2333 0.16667-0.43291 0.35078-0.59961 0.55078-0.1 0.16667-0.16787 0.34883-0.20117 0.54883 0.067 0.0333 0.13447 0.0837 0.20117 0.15039l0.0996-0.0996 0.29883-0.0508 0.20117-0.0996 0.75-0.15039c0.2333-0.23333 0.46592-0.43294 0.69922-0.59961l0.0508-0.0508 0.69922-0.34961 1.2012-0.79883 0.25-0.0508 0.54883-0.30078 0.75-0.69922zm-23.5 0.49999c0.7333 1.2333 1.4329 2.6326 2.0996 4.1992 0.01 0.05 0.0258 0.10039 0.0508 0.15039 0.1 0.23333 0.20078 0.48333 0.30078 0.75 0.3 0.73333 0.59844 1.4329 0.89844 2.0996v-0.0488c0.2333 0.56667 0.45039 1.0667 0.65039 1.5 0 0.0333 0.0168 0.0663 0.0508 0.0996l2.8496 4.4492 1.5 1.5508 0.30078 0.25 0.19922 0.25 1.6504 1.4492c-0.5667 0.93333-0.84961 1.9663-0.84961 3.0996 0 0.4 0.0326 0.78372 0.0996 1.1504 0.067 0.4 0.2333 0.86706 0.5 1.4004-0.5-0.33333-0.9167-0.71706-1.25-1.1504-0.2333-0.26667-0.45039-0.49922-0.65039-0.69922-0.4667-0.4-0.93369-0.68294-1.4004-0.84961-0.1333-0.0667-0.26709-0.11706-0.40039-0.15039-0.3667-0.4-0.6167-0.6345-0.75-0.70117l-1.6992-2.2988-0.30078-0.25-1.0488-1.4512c-0.5333-0.7-0.83369-1.3318-0.90039-1.8984 0-0.3-0.0326-0.5345-0.0996-0.70117-0.067-0.26667-0.2333-0.40039-0.5-0.40039-0.2333 0-0.38447 0.13372-0.45117 0.40039v0.65039c0.067 0.23333 0.16748 0.59961 0.30078 1.0996 0.1 0.26667 0.36748 0.71628 0.80078 1.3496l1.0996 1.6016 0.29883 0.29883c0.2 0.2 0.43447 0.50039 0.70117 0.90039l1.0488 1.4492c-0.4333-0.1-0.91592-0.16589-1.4492-0.19922-1.4-0.0333-2.3496-0.30078-2.8496-0.80078-0.067-0.0667-0.2333-0.19844-0.5-0.39844-0.2333-0.16667-0.55117-0.38372-0.95117-0.65039-0.6333-0.43333-1.0325-0.79961-1.1992-1.0996-0.4333-0.76666-0.78408-1.4508-1.0508-2.0508l0.0508 0.0508c-0.1-0.26667-0.1833-0.50117-0.25-0.70117l-0.0508-0.0488c-0.033-0.0667-0.099-0.28372-0.19922-0.65039-0.067-0.1-0.13252-0.18333-0.19922-0.25v-0.20117c-0.1667-0.4-0.36826-0.88255-0.60156-1.4492-0.1-0.2-0.1833-0.39961-0.25-0.59961 1.2667-1.3 2.2183-2.4841 2.8516-3.5508 0.3-0.53333 0.53252-1.0488 0.69922-1.5488 0.5667-1.8 0.84961-3.4182 0.84961-4.8516zm24.951 0.25c-0.5333 0.16667-1.0508 0.39922-1.5508 0.69922l-0.65039 0.55078-1.6504 1c-0.4 0.3-0.76631 0.61589-1.0996 0.94922 0 0.0333 0.0168 0.0837 0.0508 0.15039l0.40039 0.19922c0.033-0.0333 0.082-0.0663 0.14844-0.0996l0.25-0.15039 0.75-0.14844 1.7012-1.0508c0-0.0333 0.0148-0.0508 0.0488-0.0508l1.9512-1.8496c-0.1333-0.13333-0.24961-0.19922-0.34961-0.19922zm1.6484 1.7988-1.0996 1-0.90039 0.70117c-0.6667 0.4-1.3992 0.73333-2.1992 1l-1 0.34961c-0.067 0.0333-0.0996 0.0837-0.0996 0.15039 0 0.1 0.0326 0.19883 0.0996 0.29883l0.25 0.0508h1.3496c0.7667-0.26667 1.4837-0.6 2.1504-1l1-0.80078c0.6-0.2 0.9333-0.63216 1-1.2988v-0.1504l-0.15039-0.15039c-0.1333-0.0667-0.26709-0.11706-0.40039-0.15039zm-16 8.1016c0.4333 0.0667 0.95078 0.0996 1.5508 0.0996h1.0996c0.033 1.1667 0.41709 2.1337 1.1504 2.9004 0.067 0.1 0.16748 0.19883 0.30078 0.29883-0.5 0.2-0.96709 0.4345-1.4004 0.70117-0.3333 0.16667-0.63369 0.34883-0.90039 0.54883-0.067-0.1-0.0996-0.19883-0.0996-0.29883-0.6333-1.5333-1.2012-2.95-1.7012-4.25zm19.551 2.8496c-0.3 1.3333-0.7167 2.5833-1.25 3.75-0.3333 0.76667-0.71709 1.4992-1.1504 2.1992l-0.0996 0.20117c-0.6667 0.6-1.5 0.89844-2.5 0.89844-0.3 0-0.74961-0.0833-1.3496-0.25l-0.45117-0.14844-0.0488-0.0508 0.0996-0.0996c0.1667-0.26667 0.30039-0.51667 0.40039-0.75 1.5-0.7 2.4671-1.2678 2.9004-1.7012h-0.0508c0.5667-0.56667 0.86709-1.3651 0.90039-2.3984 0.9667-0.26667 1.8329-0.81706 2.5996-1.6504zm28.699 4.0996c0 0.0333 0.0168 0.0992 0.0508 0.19922 0.3 0.3 0.76709 0.71667 1.4004 1.25 0.5333 0.5 0.95 0.96706 1.25 1.4004 0.1667 0.16667 0.099 0.40117-0.20117 0.70117-2.4666 2.6-5.2825 5.1155-8.4492 7.5488-1.9 1.4667-4.15 2.9163-6.75 4.3496-0.7 0.4-1.2504 0.68489-1.6504 0.85156-0.6667 0.33333-1.3004 0.5155-1.9004 0.54883l3.8008-3.0996c2.6333-2.0667 4.9492-4.3167 6.9492-6.75 0.3667-0.43333 2.1167-2.7163 5.25-6.8496 0.1333-0.16667 0.2167-0.21706 0.25-0.15039zm-35.949 1.3496c0.01 0.05 0.0258 0.10039 0.0508 0.15039 0.03 0.0604 0.0626 0.11079 0.0996 0.15039l-0.0996-0.0996c-0.025-0.0766-0.0428-0.1444-0.0508-0.20117zm0.80078 0.34957-0.0508 0.05083c-0.076 0.0255-0.14232 0.043-0.19922 0.0508 0.05-8e-3 0.098-0.0258 0.14844-0.0508 0.031 0 0.066-0.0175 0.10156-0.0508zm39.148 2.1504c1.2333 1.2333 1.9833 1.9329 2.25 2.0996 0.5333 0.36667 0.71748 0.71745 0.55078 1.0508-0.067 0.16667-0.3167 0.41667-0.75 0.75-3.2333 2.5-5.4329 4.0833-6.5996 4.75-3 1.7667-6.1667 2.9992-9.5 3.6992l-3.4004 0.65039c3.7333-2 6.4833-3.6996 8.25-5.0996 0.4-0.3 1.6675-1.3504 3.8008-3.1504 1.8-1.4333 3.3833-2.9837 4.75-4.6504 0.2-0.26667 0.41514-0.2997 0.64844-0.0996zm-32.85 6.1621c-0.5 0.175-0.93213 0.53789-1.2988 1.0879-0.3 0.43333-0.55 1.2337-0.75 2.4004-0.2333 1.4667-7.8e-4 3.1663 0.69922 5.0996 0.1333 0.33333 0.36592 0.81784 0.69922 1.4512 0.2667 0.6 0.38486 1.1155 0.35156 1.5488l-0.10156 0.5c-0.1667 0.63333-0.25 1.8329-0.25 3.5996-0.4333-0.3-0.7667-0.53255-1-0.69922-0.3667-0.3-0.63213-0.56745-0.79883-0.80078-0.2333-0.3666-0.46787-0.84922-0.70117-1.4492l-0.64844-1.5508c-0.8-1.7667-1.7516-3.1988-2.8516-4.2988-0.4333-0.4-0.9333-0.6345-1.5-0.70117-0.6-0.0667-1.1659 0.0845-1.6992 0.45117-0.5 0.33333-0.8333 0.86628-1 1.5996-0.1667 0.7-0.11631 1.3667 0.15039 2 0.6 1.5667 1.7996 2.8826 3.5996 3.9492 1.2333 0.73333 2.3167 1.0667 3.25 1 0.3667-0.0667 0.95 0.1349 1.75 0.60156 0.8333 0.46667 1.25 0.84844 1.25 1.1484 0 0.36667-0.083 1.4674-0.25 3.3008l-0.0996 0.15039-0.20117-0.15039c-0.7333-1.1-1.3167-1.9159-1.75-2.4492-0.3333-0.43333-0.59883-0.71823-0.79883-0.85156-0.3333-0.26667-0.6667-0.31511-1-0.14844-0.6333 0.3-1.1663 0.84844-1.5996 1.6484-0.4333 0.96666-0.78408 1.6682-1.0508 2.1016-0.033 0.0667-0.13408 0.38255-0.30078 0.94922-0.1 0.36667-0.2667 0.58372-0.5 0.65039l-0.84961 0.0996-1.3496-0.0996c-1.3333-0.1-3.0329 0.33216-5.0996 1.2988-0.5667 0.26667-0.68291 0.6349-0.34961 1.1016 0.5 0.8 1.2151 1.5655 2.1484 2.2988 0.5667 0.43333 1.4349 1.0341 2.6016 1.8008 0.2333 0.16667 0.69844 0.30039 1.3984 0.40039 0.5333 0.16667 0.63408 0.63177 0.30078 1.3984-0.2333 0.53333-0.36709 1.2349-0.40039 2.1016-0.1 1.3-0.15039 1.9996-0.15039 2.0996-0.067 0.36667 0.052 0.76589 0.35156 1.1992 0.3 0.4 0.6333 0.59961 1 0.59961l0.19922-0.0488c2.3667-0.56667 4.3996-1.5667 6.0996-3l0.45117-0.34961 0.0488 0.54883c0.033 0.33333-0.017 1.0833-0.15039 2.25-0.1 0.93333-0.065 1.7008 0.10156 2.3008 0.1 0.26667 0.065 0.49922-0.10156 0.69922-0.2 0.2-0.49844 0.18423-0.89844-0.0488-1.2333-0.73333-2.6016-1.1345-4.1016-1.2012l-1.6484-0.0488c-1.0333 0-1.95 0.0833-2.75 0.25-1.6667 0.33333-3.0504 1.1667-4.1504 2.5-0.6333 0.8-1.2012 1.2322-1.7012 1.2988-0.5333 0.0667-1.0817-0.26667-1.6484-1-0.4333-0.4-0.7667-0.71589-1-0.94922-0.3667-0.36667-0.50039-0.6845-0.40039-0.95117 0.4-1.1 1.0996-1.9663 2.0996-2.5996 0.067-0.0333 0.79922-0.41706 2.1992-1.1504 0.9-0.46667 1.5841-0.93177 2.0508-1.3984 1.3-1.1667 1.7825-2.2849 1.4492-3.3516-0.1667-0.53333-0.53291-0.86667-1.0996-1-0.3-0.0667-0.81553-0.0667-1.5488 0-0.9333 0.13333-1.8345 0.68372-2.7012 1.6504s-1.3337 1.9163-1.4004 2.8496c0 0.26667 0.0168 0.65039 0.0508 1.1504 0 0.43333-0.11631 0.79961-0.34961 1.0996-0.7667 0.93333-1.2163 1.5516-1.3496 1.8516 0 0.0667-0.10078 0.11511-0.30078 0.14844-0.1-0.2-0.5167-0.64961-1.25-1.3496-0.5667-0.53333-0.83408-1.1167-0.80078-1.75 0.2-1.9-0.1333-3.65-1-5.25-0.7-1.3333-1.5333-1.9167-2.5-1.75-1 0.2-1.6163 0.86667-1.8496 2-0.2 0.83333 0.017 1.8663 0.65039 3.0996 0.6 1.2 1.2996 2.0178 2.0996 2.4512 0.1667 0.1 0.5 0.19883 1 0.29883 0.4 0.0667 0.65 0.15 0.75 0.25 0.4 0.46666 2.0667 2.4667 5 6 0 2.3e-4 2.3e-4 -2.3e-4 -0.01 0-2.0282 0.1-3.5602 0.25151-4.5918 0.45117-1.6667 0.26667-3.1163 1.1329-4.3496 2.5996-0.9667 1.2-1.7496 2.0837-2.3496 2.6504-0.9667 0.86667-2.0171 1.4829-3.1504 1.8496-0.2161 0.0705-0.32966 0.2627-0.53516 0.3457-0.081 0.028-0.13274 0.0765-0.21484 0.10352-0.1273 0.0477-0.17974 0.17801-0.30274 0.23047-8.0292 3.7174-2.0267 11.241-0.94726 12.32l1 1.5c1.1667 1.7 2.1337 2.9171 2.9004 3.6504 1.3333 1.3 3.0833 1.9492 5.25 1.9492 0.6 0 1.4817-0.0659 2.6484-0.19922l0.90257-0.1505c1.1667-0.13333 2.0175-0.19922 2.5508-0.19922 0.7 0 1.2 0.0484 1.5 0.14844l1.5488 0.40039c1.6 0.43333 2.8675 0.65039 3.8008 0.65039 0.8667 0 1.6167-0.11628 2.25-0.34961l1.25-0.40039c2-0.7 3.4341-1.1167 4.3008-1.25l1.8984-0.15039h0.0508c0.7667 0 1.5341 0.11628 2.3008 0.34961l0.44922 0.15039c1.0667 0.26667 1.8341 0.40039 2.3008 0.40039 0.4 0 0.76631-0.0504 1.0996-0.15039 1.4667-0.5 2.7167-1.1822 3.75-2.0488v-0.05078l0.44922-0.34961c0.7-0.5 1.1671-0.96706 1.4004-1.4004 0.033-0.1 0.099-0.16589 0.19922-0.19922 0.067-0.0667 0.15-0.10156 0.25-0.10156s0.20078 0.0349 0.30078 0.10156l3 2.0488c0.6667 0.53333 1.4167 1.5333 2.25 3l0.69922 1.1504c1.6333 2.6 3.9841 3.9004 7.0508 3.9004h0.30078c1.8333 0 3.25 0.58334 4.25 1.75 1.5 1.8 3.1667 2.6992 5 2.6992h0.75c1.1333 0 2.3 0.36628 3.5 1.0996v-0.0488c0.3667 0.2 0.89961 0.58373 1.5996 1.1504l0.0488 0.0488c1.3667 1.1 2.5837 1.7667 3.6504 2l0.25 0.0508h0.0996l0.25 0.0488c0.1667 0 0.31787-0.0484 0.45117-0.14844v-0.05077c0.2-0.16667 0.29883-0.35078 0.29883-0.55078 0-0.0667 0.0187-0.13255 0.0527-0.19922v-0.44922c0-0.1 0.0326-0.20078 0.0996-0.30078s0.16748-0.15039 0.30078-0.15039c0.2-0.0667 0.38213-0.15 0.54883-0.25l0.35156-0.29883 0.39657-0.55078c0-0.0333 0.0168-0.0508 0.0508-0.0508 0.3333-0.43333 0.53291-0.68333 0.59961-0.75l0.55078-0.44922c1.2-1.1 2.0333-2.0167 2.5-2.75 0.4333-0.73333 0.6833-1.7508 0.75-3.0508v-0.0488l0.0996-0.9004c0.1-0.93333 0.4333-2.2008 1-3.8008 0.067-0.26667 0.16748-0.54961 0.30078-0.84961l0.0996-0.29883c0.8333-2.3667 1.3004-4.2349 1.4004-5.6016v-0.0488c0.051-0.62866 0.01-1.2459-0.0371-1.8633 0.024-0.23491 0.18015-0.56535 0.18555-0.78711 0.067-1.2333 0.0838-2.0996 0.0508-2.5996 0-0.0918-0.0467-0.15246-0.0527-0.24219 1.2557-0.21548 2.8424-0.88243 4.8027-2.0586l0.0508-0.0488 0.25-0.10156 0.0488-0.0488 1.25-25.801c-0.3773-0.5074-1.1242-1.1582-1.9727-1.8477-0.1407-0.11741-0.17667-0.23412-0.32617-0.35156-0.847-0.62412-1.2305-1.027-1.7051-1.4727-0.63-0.61358-1.2108-1.2184-1.4961-1.7773-0.01-0.0134-0.0242-0.0219-0.0312-0.0352-0.1334-0.19918-0.30387-0.5392-0.41797-0.66601-0.132-0.14898-0.30155-0.19016-0.43945-0.32227-0.2504-0.23209-0.5457-0.4447-0.875-0.64257-0.4336-0.2857-0.87462-0.54939-1.3574-0.69336-0.031-0.0113-0.0471-0.0299-0.0781-0.041-0.4493-0.13742-1.1244-0.1545-1.7266-0.21094-0.097 4e-3 -0.17474-0.0479-0.27344-0.0391-0.092 5e-3 -0.21975-0.0349-0.31445-0.0332-0.2028-9e-3 -0.31756-0.0652-0.53516-0.0664l-0.041 4e-3c-1.7613-0.0717-3.8294-0.53978-6.3594-1.6035-1.6667-0.73333-3.4341-0.48333-5.3008 0.75-0.4945 0.34237-0.80453 1.0962-1.2363 1.5781-0.349 0.40519-0.70008 0.80036-1.0215 1.3047-0.3048 0.47942-0.72769 0.69599-0.99219 1.2656-0.1737 0.35599-0.16548 0.79779-0.30078 1.1719-0.062 0.14232-0.13832 0.23177-0.19922 0.37891-0.1449 0.36265-0.20514 0.94175-0.27734 1.4902-0.092 0.50154-0.34065 0.92943-0.37305 1.459v0.73633l-0.0996 0.36523c0.01 0.0464 0.01 0.0744 0 0.0918-0.1359 0.35361-0.43993 0.54837-1.0488 0.45703-0.2333-0.0333-0.85156 0.16628-1.8516 0.59961-0.2173 0.10312-0.38505 0.28887-0.59375 0.40625-0.1722 0.10324-0.38839 0.0747-0.55469 0.19531v0.0488c-0.2701 0.22205-0.33322 0.32242-0.57422 0.52734-0.5843 0.43854-1.1331 0.93609-1.6387 1.5059-0.2441 0.24161-0.71467 0.61574-0.88867 0.81641v0.0508c-0.2406 0.26689-0.26394 0.52511-0.43164 0.78906-0.05 0.0799-0.11877 0.12933-0.16797 0.21094-0.4333 0.7-0.73369 1.0837-0.90039 1.1504-0.7 0.26667-1.2155 0.49922-1.5488 0.69922-0.3 0.26667-0.53447 0.45078-0.70117 0.55078-0.3333 0.2-0.51553 0.16697-0.54883-0.0996-0.2667-1.4333-0.29931-2.9837-0.0996-4.6504 0.033-0.23333 0.23291-0.50078 0.59961-0.80078 0.2-0.16667 0.51592-0.41667 0.94922-0.75l0.75-0.69922c0.2667-0.3 0.50117-0.45117 0.70117-0.45117 2.1333-0.16667 3.9318-0.73255 5.3984-1.6992 0.6-0.4 0.98369-0.88255 1.1504-1.4492 0.1667-0.6 0.068-1.0845-0.29883-1.4512-0.8-0.83333-1.9183-1.0833-3.3516-0.75-1.4 0.33333-2.3167 1.0329-2.75 2.0996-0.2 0.5-0.51592 1.2674-0.94922 2.3008-0.4 0.83333-0.91748 1.4671-1.5508 1.9004l-0.75 0.40039-0.0996-0.25-0.19922-3.1504c-0.067-0.76667-0.0512-1.2512 0.0488-1.4512 1.0667-1.4667 1.7683-3.3155 2.1016-5.5488 0.1667-1.3667-0.3333-2.3512-1.5-2.9512l-0.65039-0.14844c-0.6333-0.0333-1.1837 0.18177-1.6504 0.64844-0.8667 0.73333-1.3492 1.7837-1.4492 3.1504-0.067 1.2667 0.16592 2.3829 0.69922 3.3496 0.1 0.16667 0.36748 0.51745 0.80078 1.0508 0.3333 0.4 0.54844 0.73333 0.64844 1 0.1333 0.43333 0.18369 1.1 0.15039 2 0 0.9 0.05 1.5667 0.15039 2 0.1 0.5-0.10001 0.63372-0.59961 0.40039-1.3333-0.6-2.3004-1.2996-2.9004-2.0996-0.6-0.76666-1.5671-1.4508-2.9004-2.0508-0.9-0.4-1.6829-0.36697-2.3496 0.0996-0.6667 0.43333-0.85078 1.1504-0.55078 2.1504 0.2333 0.76667 0.78369 1.4159 1.6504 1.9492s1.7679 0.81823 2.7012 0.85156c0.2333 0 0.7333-0.13372 1.5-0.40039 0.6-0.2 1.1-0.21727 1.5-0.0508 0.2333 0.1 0.61514 0.20078 1.1484 0.30078 0.4667 0.13333 0.73408 0.39883 0.80078 0.79883 0.033 0.3 0.099 1.7012 0.19922 4.2012 0.033 0.1 0.0182 0.18333-0.0488 0.25-0.033 0.0667-0.10117 0.0492-0.20117-0.0508-1.1333-0.96667-2.8988-1.4163-5.2988-1.3496-2.3 0.0667-4.2167 0.56667-5.75 1.5-2.3875 1.4643-3.8018 3.2373-4.3652 5.2793-0.035 0.0647-0.062 0.13626-0.13477 0.16992-0.1001 0.082-0.21641 0.11693-0.34961 0.10156-0.062-0.0135-0.12144-0.075-0.18164-0.12109-0.3513-0.60319-0.69443-1.0937-1.0195-1.3301-0.9-0.7-1.3496-1.3492-1.3496-1.9492-0.033-0.7-6.9e-4 -1.8996 0.0996-3.5996 0.067-1.5667 0.067-2.7837 0-3.6504 0.7 0.46667 1.5333 0.85039 2.5 1.1504 0.5 0.16667 1.3837 0.38177 2.6504 0.64844 1.7333 0.4 2.6171 0.0182 2.6504-1.1484v-0.55085c-0.2333-1.3667-1.0008-2.6496-2.3008-3.8496-0.3667-0.23333-0.59922-0.41745-0.69922-0.55078-0.1333-0.2 3.9e-4 -0.48294 0.40039-0.84961 1.2-1.1 2.1321-2.5671 2.7988-4.4004 0.2-0.53333 0.2833-0.89961 0.25-1.0996-0.067-0.4-0.43291-0.61706-1.0996-0.65039-0.4 0.1-0.70039 0.13303-0.90039 0.0996-0.5333-0.1-1.1825-0.0825-1.9492 0.0508-0.8667 0.16667-1.5179 0.26745-1.9512 0.30078-0.3333 0.16667-0.59883 0.28294-0.79883 0.34961-0.3333 0.0667-0.5-0.16784-0.5-0.70117 0-0.96667 0.066-2.4492 0.19922-4.4492 0.033-0.5 0.0656-0.80039 0.0996-0.90039 0.1-0.3 0.35-0.48216 0.75-0.54883 0.2-0.0333 0.60117-0.1845 1.2012-0.45117 0.5333-0.2 0.98291-0.26589 1.3496-0.19922 1.1667 0.3 1.9825 0.41628 2.4492 0.34961 0.5667-0.0667 1.4-0.16745 2.5-0.30078 0.9333-0.13333 1.7337-0.34844 2.4004-0.64844 0.5667-0.23333 0.96787-0.71784 1.2012-1.4512s0.16553-1.2992-0.20117-1.6992c-1.0333-1.2-2.4171-1.7-4.1504-1.5s-3.0317 1.0004-3.8984 2.4004c-0.3 0.7-0.55 1.2155-0.75 1.5488-0.3667 0.56667-0.88408 0.83411-1.5508 0.80078-0.3667 0.16667-0.63408 0.28294-0.80078 0.34961-0.3333 0.13333-0.48252-0.0508-0.44922-0.55078l0.0508-2.2988c0.067-0.9 0.29922-1.65 0.69922-2.25 0.8333-1.2333 1.5175-3.2333 2.0508-6 0.1667-0.66667 0.099-1.3508-0.20117-2.0508-0.3-0.7-0.73213-1.1322-1.2988-1.2988-0.6333-0.2-1.2012-0.2137-1.7012-0.0391zm42.25 0.98829c0.3 0.2 0.76709 0.53333 1.4004 1 0.6333 0.26667 0.81748 0.54961 0.55078 0.84961-0.4667 0.26667-0.75156 0.43333-0.85156 0.5-2.0333 1.9667-4.2329 3.7167-6.5996 5.25-1.7667 1.1667-3.7337 2.25-5.9004 3.25-1.6333 0.83333-3.2321 1.5174-4.7988 2.0508-1.8 0.5-3.1663 0.88372-4.0996 1.1504-0.6667 0.16667-1.25 0.1997-1.75 0.0996 2.4333-0.76667 4.7821-1.7667 7.0488-3 2.5667-1.3667 4.5996-2.6845 6.0996-3.9512 2.6667-2.2 4.9012-4.2484 6.7012-6.1484l0.5-0.60156c0.5667-0.66667 1.1325-0.81589 1.6992-0.44922zm-41.75 0.0508c0.5667-0.1 1.0337 0.15 1.4004 0.75 0.1 0.16667 0.13261 0.39922 0.0996 0.69922 0 0.33333 0.0168 0.56589 0.0508 0.69922-0.1 1.3667-0.71631 3.3182-1.8496 5.8516-0.1333 0.33333-0.31748 0.28294-0.55078-0.15039l-0.19923-0.65041c-0.6333-2.2333-0.76709-4.0337-0.40039-5.4004 0.2667-1.0333 0.74922-1.6322 1.4492-1.7988zm45.85 2.1992 2.1016 0.90039c0.5333 0.16667 0.56591 0.43216 0.0996 0.79883-3.5 3-6.9671 5.2674-10.4 6.8008-2.7667 1.3-5.2163 2.1333-7.3496 2.5-2.5 0.63333-4.3837 1.0171-5.6504 1.1504l-0.75-0.0508c2.4333-0.66667 4.4159-1.3837 5.9492-2.1504 3.3333-1.6 5.7675-2.9488 7.3008-4.0488 0.9333-0.7 2.3326-1.7329 4.1992-3.0996 1.4333-1.2667 2.3016-2.0845 2.6016-2.4512 0.5333-0.56667 1.1651-0.68294 1.8984-0.34961zm-54.898 3.9492c0.6333 0.1 1.1817 0.40039 1.6484 0.90039 0.2 0.23333 0.55078 0.75078 1.0508 1.5508l2.0996 3.9004c0.2 0.3 0.2 0.53255 0 0.69922-0.1333 0.13333-0.41631 0.16637-0.84961 0.0996-0.8333-0.2-2.1008-0.89961-3.8008-2.0996-0.6-0.46667-1.0321-1.1508-1.2988-2.0508-0.2333-0.93333-0.18291-1.7163 0.15039-2.3496 0.2-0.46667 0.5333-0.68372 1-0.65039zm17.1 3.0508c1.1 0.0667 1.9004 0.43294 2.4004 1.0996 0.3333 0.46667 0.36591 0.88333 0.0996 1.25-0.2333 0.36667-0.75078 0.63411-1.5508 0.80078-2.1 0.43333-3.8829 0.58255-5.3496 0.44922-0.2667-0.0667-0.36748-0.18294-0.30078-0.34961 0.2-0.63333 0.8667-1.3329 2-2.0996 1.1333-0.8 2.0345-1.1837 2.7012-1.1504zm-46.051 1.5c1.1 1.1333 2.383 2.1004 3.8496 2.9004 2.7333 1.4333 4.4175 2.2822 5.0508 2.5488 2.2667 0.86666 4.8171 1.5508 7.6504 2.0508 0.033 0 0.1167 0.0659 0.25 0.19922l-0.20117 0.15039c-0.9667 0.0333-1.6817 0.0508-2.1484 0.0508-0.8667 0-1.5837-0.0329-2.1504-0.0996-1.0333-0.13333-3.1341-0.5849-6.3008-1.3516-1.9-0.4-3.9-1.183-6-2.3496-1.0581-0.6365-1.7716-0.18334 0 0.84961 0.9 0.56666 1.5667 0.91745 2 1.0508 0.6 0.23333 1.4663 0.56667 2.5996 1 1 0.36667 1.9012 0.61667 2.7012 0.75 0.8333 0.13333 2.0833 0.40078 3.75 0.80078 1.6 0.33333 3.2996 0.41667 5.0996 0.25l4.75-0.35156c-1.6333 0.76666-3.7341 1.2182-6.3008 1.3516-5.4 0.33333-9.9659-0.30039-13.699-1.9004-1.2329-0.89661-4.3662 0.0725 0.34961 2.1504 3.0333 0.93333 5.8841 1.4159 8.5508 1.4492 0.8 0 2.6004-0.11628 5.4004-0.34961 1.4333-0.1 3.4488-0.51667 6.0488-1.25 0.7-0.16667 2.0004-0.73451 3.9004-1.7012 0.1333-0.0667 0.36592-0.1655 0.69922-0.29883 0.3-0.13333 0.43369-0.33294 0.40039-0.59961 0-0.33333-0.36631-0.5-1.0996-0.5-2.5333 0.0667-4.2 0.0996-5 0.0996-1.8333-0.0667-3.4671-0.28372-4.9004-0.65039-3.2333-0.86667-5.4659-1.5837-6.6992-2.1504-1.9333-0.86667-3.3829-1.5837-4.3496-2.1504-1.5333-0.86667-2.8337-1.7988-3.9004-2.7988-1.1199-0.46512-0.90167 0.18441-0.30078 0.8496zm32.775 6.0371c0.2333 0.025 0.49209 0.24544 0.77539 0.66211 1.2333 1.4333 2.0337 2.5671 2.4004 3.4004 0.3333 0.76667 0.79844 1.1504 1.3984 1.1504 0.033 0 0.58369-0.13372 1.6504-0.40039 1.6-0.36667 2.7008-0.54883 3.3008-0.54883 0.8333 0 1.2829 0.0659 1.3496 0.19922 0.067 0.13333-0.11748 0.56745-0.55078 1.3008-0.6333 1.0667-1.0325 1.6984-1.1992 1.8984-0.5 0.7-1.0175 1.2678-1.5508 1.7012-0.6 0.43333-0.58292 0.8655 0.0508 1.2988 1.3333 1 2.3663 2.4341 3.0996 4.3008l0.0508 0.25c0 0.13333-0.13369 0.21667-0.40039 0.25-2.4 0-4.5163-0.56589-6.3496-1.6992-0.3667-0.23333-0.75039-0.21757-1.1504 0.0488-0.4 0.36667-0.70039 0.61667-0.90039 0.75-1.4667 1.1667-3.4492 2.2345-5.9492 3.2012-0.3 0.13333-0.45117-0.1845-0.45117-0.95117 0.033-1.6333 0.26787-3.3504 0.70117-5.1504 0.1333-0.46667 0.017-0.76511-0.34961-0.89844-0.4667-0.0333-0.8-0.10117-1-0.20117-0.4333-0.16667-0.91787-0.43216-1.4512-0.79883-0.6-0.43333-1.0671-0.75117-1.4004-0.95117-0.9-0.56667-1.7488-1.3322-2.5488-2.2988 2-0.9 3.6822-1.3341 5.0488-1.3008h0.90039c0.4 0 0.78369 0.0659 1.1504 0.19922 0.4333 0.2 0.71631 3.9e-4 0.84961-0.59961 0.1333-0.63333 0.41631-1.3659 0.84961-2.1992 0.6667-1.3 1.0175-1.9996 1.0508-2.0996 0.1833-0.36667 0.3917-0.53867 0.625-0.51367zm22.975 1.0625c0.6333 0.13333 0.95117 0.73412 0.95117 1.8008-0.033 1.2-0.48486 2.6671-1.3516 4.4004-0.033 0.1-0.099 0.21628-0.19922 0.34961-0.033 0.13333-0.0162 0.3 0.0508 0.5-1-0.6-1.6008-1.5671-1.8008-2.9004-0.2333-1.2667-0.049-2.3674 0.55078-3.3008 0.4333-0.73333 1.0321-1.0163 1.7988-0.84961zm-22.65 2.8008c-0.1333-0.0333-0.19922 0.10039-0.19922 0.40039 0.067 1.7667 0.25078 3.3655 0.55078 4.7988 0.1 0.3 0.1 0.46667 0 0.5-0.067 0.0667-0.2333 0.0841-0.5 0.0508-0.2667 0-0.45078 0.0659-0.55078 0.19922l-0.0508-0.34963c-0.2-0.26667-0.38213-0.73372-0.54883-1.4004-0.1667-0.63333-0.36631-1.0829-0.59961-1.3496-0.033-0.0667-0.15156-0.15-0.35156-0.25-0.1667 0.23333-0.23252 0.4-0.19922 0.5 0.033 0.13333 0.1167 0.40078 0.25 0.80078 0.1 0.33333 0.15039 0.59883 0.15039 0.79883s0.11631 0.51784 0.34961 0.95117c0.1 0.4-0.067 0.69844-0.5 0.89844l-0.15039 0.35156c0.2667 0.26667 0.5167 0.35 0.75 0.25 1.5-0.53333 3.3837-0.71745 5.6504-0.55078 0.5333 0 0.83369-0.16667 0.90039-0.5 0.033-0.13333-0.034-0.21667-0.20117-0.25-0.2333-0.0667-0.4-0.11706-0.5-0.15039-0.2667 0-0.46631-0.0155-0.59961-0.0488-0.2333-0.0333-0.34961-0.15156-0.34961-0.35156 0-0.23333 0.05-1.0822 0.15039-2.5488 0.033-0.3 0.0488-0.48411 0.0488-0.55078-0.033-0.13333-0.1167-0.21667-0.25-0.25-0.4 0-0.59961 0.23451-0.59961 0.70117l-0.25 2.5488c-0.033 0.23333-0.13213 0.34961-0.29883 0.34961h-0.5c-0.2333 0.0333-0.36709-0.0655-0.40039-0.29883-0.033-1.3-0.30078-2.9337-0.80078-4.9004 0-0.0667-0.05-0.15-0.15039-0.25-0.1-0.0667-0.1833-0.0996-0.25-0.0996zm30.438 3.5996c0.425 0.11667 0.76367 0.38412 1.0137 0.80078 0.2333 0.4 0.18291 0.76628-0.15039 1.0996-0.033 0-0.34922 0.19961-0.94922 0.59961-0.8667 0.56667-2.1341 1.0008-3.8008 1.3008-0.3333-0.0667-0.5-0.11706-0.5-0.15039-0.067-0.33333 0.034-0.76745 0.30078-1.3008 0.6-1.2 1.4488-1.95 2.5488-2.25 0.6-0.18333 1.1121-0.21637 1.5371-0.0996zm-15.736 2.6992c1.4 0.5 2.65 1.4341 3.75 2.8008 0.1667 0.16667 0.23252 0.28294 0.19922 0.34961 0 0.0667-0.099 0.1345-0.29883 0.20117-1 0.46667-2.1008 0.39883-3.3008-0.20117-1.2-0.63333-1.8008-1.4492-1.8008-2.4492 0.2-0.33333 0.35117-0.55039 0.45117-0.65039 0.2667-0.16667 0.6-0.18393 1-0.0508zm-36.951 0.85156c0.3-0.0333 0.56748 0.0655 0.80078 0.29883 0.033 0.0333 0.2 0.30078 0.5 0.80078 0.7 1.1 1.0837 2.4488 1.1504 4.0488 0 0.7-0.083 1.1012-0.25 1.2012-0.3667 0.2-0.8667-0.0171-1.5-0.65039-1.1333-1.1333-1.8175-2.4667-2.0508-4 0.2-0.56667 0.35117-0.93294 0.45117-1.0996 0.2-0.36667 0.49844-0.56628 0.89844-0.59961zm11.75 1.25c0.6333-0.13333 1.05-0.0171 1.25 0.34961 0.2667 0.53333 0.1 1.1322-0.5 1.7988-0.8 1.0333-2.2825 2.0333-4.4492 3-0.1 0.0333-0.15039-0.19922-0.15039-0.69922 0.067-1.1333 0.45039-2.1159 1.1504-2.9492s1.5992-1.3333 2.6992-1.5z"/>
 <g transform="translate(30.701 -425.3)">
  <path transform="translate(-848.6,2.2)" d="m891.35 537.8c-4.8667 0-9.0178 1.7171-12.451 5.1504-3.4 3.4333-5.0996 7.5845-5.0996 12.451s1.6996 9.0159 5.0996 12.449c3.4333 3.4333 7.5845 5.1504 12.451 5.1504s9.0159-1.7171 12.449-5.1504 5.1504-7.5826 5.1504-12.449-1.7171-9.0178-5.1504-12.451-7.5826-5.1504-12.449-5.1504z" fill="#ef1d1e"/>
  <path transform="translate(-848.6,2.2)" d="m889.52 540.9c-0.51771 0.062-0.90742 0.54505-1.1699 1.4492-0.3 1-0.3 2.5504 0 4.6504 0.0333 0.93333 0.0488 1.8171 0.0488 2.6504-0.0333 0.96667-0.0992 1.8484-0.19922 2.6484-0.73333 0.23333-1.3826 0.46784-1.9492 0.70117-2.0667 0.83333-3.1016 1.6492-3.1016 2.4492v0.25l0.15042 0.40039h0.40039c0.0333 0 1.6671-0.39922 4.9004-1.1992-0.26667 0.9-0.85 1.933-1.75 3.0996-0.83333 1.1-1.5833 1.9663-2.25 2.5996-0.7 0.66667-1.1496 1.1163-1.3496 1.3496-0.13333 0.2-0.51706 0.55078-1.1504 1.0508-0.6 0.46667-1.1833 0.8155-1.75 1.0488-0.6 0.23333-0.90039 0.48333-0.90039 0.75 0 0.16667 0.13372 0.35078 0.40039 0.55078 0.26667 0.16667 0.6 0.25 1 0.25 0.96667 0 2.2496-0.80039 3.8496-2.4004 1.6-1.6333 2.6504-2.7826 3.1504-3.4492s1.0988-1.6163 1.7988-2.8496c0.66666-1.2333 1.1512-2.1016 1.4512-2.6016v-0.0488c0.0625 0 0.11289-0.0175 0.15039-0.0508-0.0374 0.0353-0.0878 0.0682-0.15039 0.0996 0.0667 1.0333 0.13255 2.0004 0.19922 2.9004l-0.34961 5.5c0 1.3333 0.38372 2.2674 1.1504 2.8008 0.73333 0.5 2.2663 0.78294 4.5996 0.84961 2.3 0.13333 4.0674-0.31628 5.3008-1.3496 1.3333-1.0667 1.9322-2.1829 1.7988-3.3496-0.0667-1.1333-0.34961-1.9512-0.84961-2.4512s-0.91667-0.81589-1.25-0.94922c-0.4-0.0667-0.78372 0.48373-1.1504 1.6504-0.43333 1.1333-0.91589 1.8155-1.4492 2.0488-0.56667 0.2-1.3671 0.39961-2.4004 0.59961-1.0667 0.3-1.7333 0.45117-2 0.45117-1 0-1.5174-1.0678-1.5508-3.2012 0.0667-2.1 0.10156-3.1988 0.10156-3.2988 0-0.96667-0.0174-1.55-0.0508-1.75-0.13333-0.3-0.36589-0.60039-0.69922-0.90039 2.8333-1 4.25-1.8837 4.25-2.6504 0-0.53333-0.20156-0.86667-0.60156-1-0.16667-0.1-0.58334-0.15039-1.25-0.15039-0.6 0-1.2163 0.15117-1.8496 0.45117-1.1 0.46667-1.9004 0.8-2.4004 1-0.0667-0.33333-0.0996-0.76745-0.0996-1.3008 0-0.83333 0.0833-1.7655 0.25-2.7988 0-0.2 0.0174-0.41706 0.0508-0.65039 0.16667-1.3 0.25-2.3174 0.25-3.0508s-0.0174-1.2333-0.0508-1.5c-0.23333-0.86667-0.6655-1.2988-1.2988-1.2988-0.0792-8e-3 -0.15651-9e-3 -0.23047 0zm5.7305 1.75c-0.6 0.46667-1.3849 1.2167-2.3516 2.25-0.96667 1.0333-1.4492 1.8996-1.4492 2.5996 0 0.66667 0.0174 1.0155 0.0508 1.0488 0.0667 0.0667 0.0996 0.11706 0.0996 0.15039 0.13333 0.1 0.23216 0.15039 0.29883 0.15039 0.33333 0 1.2674-0.55039 2.8008-1.6504 1.6333-1.2 2.4492-2.0488 2.4492-2.5488 0-0.43333-0.19961-0.86745-0.59961-1.3008-0.4-0.46667-0.83216-0.69922-1.2988-0.69922zm-12.5 4.5996c-0.3 0-0.55 0.18216-0.75 0.54883-0.13333 0.33333-0.20117 0.65117-0.20117 0.95117 0 0.83333 0.16667 1.4496 0.5 1.8496 0.3 0.3 0.76706 0.48411 1.4004 0.55078 0.2 0.0333 0.43255 0.0488 0.69922 0.0488 0.2-0.0333 0.4345-0.0837 0.70117-0.15039 0.1-0.0333 0.21628-0.0992 0.34961-0.19922 0.83333-0.33333 1.25-0.75 1.25-1.25 0-0.43333-0.14922-0.71628-0.44922-0.84961-0.16667-0.0667-0.61823-0.16745-1.3516-0.30078-0.6-0.0667-1.0167-0.29922-1.25-0.69922-0.26667-0.33333-0.56511-0.5-0.89844-0.5z" fill="#fff"/>
  <path transform="translate(-848.6,2.2)" d="m891.35 537.8c-4.8667 0-9.0178 1.7171-12.451 5.1504-3.4 3.4333-5.0996 7.5845-5.0996 12.451s1.6996 9.0159 5.0996 12.449c3.4333 3.4333 7.5845 5.1504 12.451 5.1504s9.0159-1.7171 12.449-5.1504 5.1504-7.5826 5.1504-12.449-1.7171-9.0178-5.1504-12.451-7.5826-5.1504-12.449-5.1504z" fill="none" stroke="#000"/>
 </g>
 <g transform="translate(-895.7 -563.5)">
  <path transform="translate(160.15,84.1)" d="m740.55 479.4c-3.3333 0-5 1.6667-5 5v158.2c0 3.3333 1.6667 5 5 5h93.201c3.3333 0 5-1.6667 5-5v-158.2c0-3.3333-1.6667-5-5-5zm8.3008 7.1992h76.6c4.6667 0 7 2.3333 7 7v139.8c0 4.6667-2.3333 7-7 7h-76.6c-4.6667 0-7-2.3333-7-7v-139.8c0-4.6667 2.3333-7 7-7z" fill="#ef1d1e"/>
  <path transform="translate(160.15,84.1)" d="m748.85 486.6c-4.6667 0-7 2.3333-7 7v139.8c0 4.6667 2.3333 7 7 7h76.6c4.6667 0 7-2.3333 7-7v-139.8c0-4.6667-2.3333-7-7-7z" fill="none" stroke="#000" stroke-width="1.2"/>
 </g>
</svg>
