<svg width="103.2" height="168.2" preserveAspectRatio="none" version="1.1" viewBox="0 0 103.2 168.2" xmlns="http://www.w3.org/2000/svg">
 <path d="m13.301 7.1992c-4.6667 0-7 2.3333-7 7v139.8c0 4.6667 2.3333 7 7 7h76.6c4.6667 0 7-2.3333 7-7v-139.8c0-4.6667-2.3333-7-7-7z" fill="#fff"/>
 <path d="m54.75 86.1c-0.9443-0.89844-2.2276-1.3484-3.85-1.35l-2 0.1c-0.6801-0.0127-1.1134 0.2706-1.3 0.85 0.01 0.0415 0.01 0.0749 0 0.1-0.042 0.13138-0.042 0.28138 0 0.45v0.05c0.1041 0.30339 0.3207 0.55339 0.65 0.75l0.05 0.05c1.7495 1.241 3.4661 1.9577 5.15 2.15 0.033 5e-3 0.067 5e-3 0.1 0h0.25c0.042-2e-3 0.075-2e-3 0.1 0h0.35c0.5571-5e-3 0.9571-0.27133 1.2-0.8l-0.05 0.05c0.3533-0.85716 0.1366-1.6572-0.65-2.4m-34.4-36.85c-0.017-0.0154-0.034-0.0321-0.05-0.05l-0.05-0.05c-1.0354-0.91627-2.5354-1.7329-4.5-2.45h0.05c-0.5793-0.16563-1.1126-0.24896-1.6-0.25-0.6643-3e-3 -1.1977 0.23067-1.6 0.7h-0.05c-0.3123 0.4918-0.4289 1.0251-0.35 1.6 0.1456 0.76667 0.5123 1.3667 1.1 1.8 1.4285 0.96029 2.8952 1.4436 4.4 1.45h0.05l1.5-0.2c0.042-1e-3 0.075-1e-3 0.1 0 0.4008-0.0559 0.7175-0.17253 0.95-0.35h0.05c0.4819-0.25951 0.7319-0.60951 0.75-1.05-0.022-0.41445-0.272-0.79779-0.75-1.15m0.5-13.65-0.5-0.1c-0.2145 0.0239-0.4478 0.10727-0.7 0.25-0.2535 0.13099-0.4369 0.29765-0.55 0.5 0.01 0.0413 0.01 0.0746 0 0.1-0.1895 0.33541-0.3728 0.78541-0.55 1.35 0.011 0.0505 0.011 0.0839 0 0.1l-0.1 0.45c-0.074 2.1565 0.6089 4.1898 2.05 6.1 0.073 0.0904 0.1735 0.1737 0.3 0.25 0.064 0.0529 0.114 0.10287 0.15 0.15 0.2527 0.32161 0.5361 0.48828 0.85 0.5 0.2955 2e-3 0.5455-0.098 0.75-0.3v-0.05c0.2135-0.1694 0.3302-0.40273 0.35-0.7l0.1-1.1c0.1303-1.263 0.197-2.2464 0.2-2.95-0.038-1.0582-0.238-2.0082-0.6-2.85v-0.05c-0.2956-0.8319-0.8956-1.3986-1.8-1.7l0.05 0.05m13.05 8.8-0.05-0.05c-0.4103-0.45261-0.9769-0.68594-1.7-0.7l-0.65 0.1c-2.1693 0.42552-3.9526 1.7422-5.35 3.95-0.096 0.19232-0.1456 0.37565-0.15 0.55v0.05c-0.01 0.0422-0.023 0.0755-0.05 0.1-0.033 0.25065 0.017 0.46732 0.15 0.65l0.05 0.05c0.1876 0.1918 0.4209 0.30847 0.7 0.35h0.5c1.9373-0.19713 3.4873-0.58047 4.65-1.15 0.033-9e-3 0.05-0.0253 0.05-0.05l0.25-0.1v0.05c1.2449-0.52227 1.9783-1.2223 2.2-2.1v-0.2c0.027-0.57161-0.1733-1.0716-0.6-1.5m38.2 18.2c-0.6213-1.14-1.4047-1.7233-2.35-1.75-0.3008 1.3e-4 -0.5341 0.0168-0.7 0.05-0.9959 0.42161-1.3959 1.3883-1.2 2.9 0.2557 1.9553 1.3057 3.6387 3.15 5.05 0.017 0.0157 0.034 0.0324 0.05 0.05l0.1 0.1c0.4496 0.35873 0.8829 0.54206 1.3 0.55h0.2c0.4269-0.0297 0.6936-0.32967 0.8-0.9l0.1-0.75c0.01-0.0358 0.025-0.0858 0.05-0.15l-0.05-0.05v-0.1l-0.05-0.4c-0.4137-2.1919-0.8803-3.7253-1.4-4.6m-36.05-0.3h0.05c0.7069-0.70899 1.1903-1.5256 1.45-2.45v-0.05c0.1242-0.27279 0.1075-0.52279-0.05-0.75-0.2845-0.34323-0.8679-0.54323-1.75-0.6-0.026-3e-3 -0.059-0.0193-0.1-0.05l-0.15-0.05c-1.1487-0.33373-2.2653-0.50039-3.35-0.5-0.3551 1e-3 -0.8884 0.0347-1.6 0.1-0.25 0.0251-0.5 0.0918-0.75 0.2-0.065 0.031-0.1313 0.0477-0.2 0.05h-0.05c-0.079 1e-3 -0.1621-0.0153-0.25-0.05-0.054-0.0361-0.104-0.0861-0.15-0.15l-0.95-1.3c-1.413-1.9096-2.4963-3.2596-3.25-4.05-0.2651-0.26276-0.5651-0.39609-0.9-0.4-0.4871 9e-3 -0.8371 0.2594-1.05 0.75-0.8787 1.8174-1.562 4.0841-2.05 6.8v0.15l-0.05 0.25c-0.024 0.11172-0.091 0.19505-0.2 0.25-0.079 0.0963-0.1788 0.14635-0.3 0.15h-0.3c-2.1284 0.0975-4.1284 0.56419-6 1.4-0.7139 0.3793-1.1806 0.64597-1.4 0.8-0.3315 0.25599-0.5482 0.53932-0.65 0.85h0.05c-0.076 0.34961-0.026 0.69961 0.15 1.05v-0.05c0.1772 0.27487 0.5272 0.7082 1.05 1.3 0.203 0.21992 0.5363 0.46992 1 0.75l1.1 0.65c1.1841 0.80586 2.2008 1.3059 3.05 1.5 0.1014 6e-3 0.1847 0.0393 0.25 0.1 0.1087 0.0798 0.1754 0.17982 0.2 0.3 0.023 0.11328 0.01 0.21328-0.05 0.3-0.7318 1.4615-1.0985 3.3948-1.1 5.8 0 0.30951 0.05 0.55951 0.15 0.75 0.01 0.041 0.01 0.0743 0 0.1l0.05 0.15c0.091 0.24362 0.2577 0.42695 0.5 0.55h-0.05c0.1401 0.0629 0.2735 0.0962 0.4 0.1h0.05l0.1-0.05c0.1035-0.0251 0.2369-0.0418 0.4-0.05 0.2884-0.0492 0.5384-0.1492 0.75-0.3l0.75-0.6h0.05c0.4257-0.35651 0.709-0.57318 0.85-0.65 2.2063-1.0788 3.7563-2.5121 4.65-4.3 0.047-0.0671 0.114-0.13373 0.2-0.2 0.077-0.0336 0.1601-0.0503 0.25-0.05 0.098 0 0.1817 0.0167 0.25 0.05l0.35 0.25 0.1 0.05h0.05c1.9422 1.1969 3.9089 2.1635 5.9 2.9 0.2309 0.0928 0.3975 0.14284 0.5 0.15 0.5444-0.0375 0.8611-0.3542 0.95-0.95 0.1933-1.4678 0.16-2.6678-0.1-3.6v0.05l-1.05-2.9c-0.04-0.12825-0.2567-0.47825-0.65-1.05l-0.1-0.1c-0.099-0.0965-0.1488-0.21315-0.15-0.35 0-0.13685 0.05-0.25351 0.15-0.35 0.061-0.0623 0.1273-0.11227 0.2-0.15 1.0047-0.65013 1.938-1.4835 2.8-2.5m15.2-3.3v0.05c-0.016 0.0179-0.033 0.0345-0.05 0.05l-0.6 0.45c-1.8694 1.9122-3.3694 3.9122-4.5 6l-0.25 0.55c-0.037 0.093-0.104 0.15963-0.2 0.2-0.068 0.0682-0.1508 0.10156-0.25 0.1h-0.1c-0.059 2e-3 -0.126-0.0147-0.2-0.05-1.993-0.73047-3.743-1.1305-5.25-1.2h-0.15l-0.85 0.1h-0.75l-0.45-0.05c-0.061-7e-3 -0.1273-0.0233-0.2-0.05-0.1086-0.0638-0.2253-0.0971-0.35-0.1-0.2563 3e-3 -0.4896 0.086-0.7 0.25-0.2335 0.17187-0.3668 0.37187-0.4 0.6 0 0.49011 0.033 0.80677 0.1 0.95v0.05c0.875 1.9279 1.9583 3.4779 3.25 4.65 0.08 0.0919 0.1297 0.19193 0.15 0.3 0.017 0.11224 7e-4 0.21224-0.05 0.3-1.0985 2.306-1.5985 4.7893-1.5 7.45 0.01 0.0585 0.01 0.10847 0 0.15-0.069 0.36419 0 0.66419 0.2 0.9 0.2075 0.22682 0.4575 0.34349 0.75 0.35h0.05l0.4-0.05h0.2l1.55 0.15h0.35c1.9267-0.29141 3.6267-0.82474 5.1-1.6l0.7-0.35c0.1206-0.0537 0.2373-0.0703 0.35-0.05 0.1099 0.0263 0.1932 0.0763 0.25 0.15l0.3 0.35 0.05 0.05c1.3444 1.855 2.6777 3.1216 4 3.8 0.5183 0.22761 0.935 0.34427 1.25 0.35 0.9667-0.0347 1.45-0.7014 1.45-2 7e-4 -0.0784 0.017-0.16172 0.05-0.25 0-0.0504 0.017-0.11707 0.05-0.2 0.1939-0.91107 0.2605-2.0444 0.2-3.4v-1.2c0-0.10989 0.033-0.20989 0.1-0.3 0.064-0.0848 0.1473-0.15143 0.25-0.2l0.3-0.1c0.017 8e-3 0.034 8e-3 0.05 0 2.3501-0.51237 4.4668-1.6124 6.35-3.3 0.2595-0.1875 0.3762-0.42083 0.35-0.7v-0.05c-0.071-0.31953-0.238-0.56953-0.5-0.75l-0.5-0.2h-0.05c-0.3862-0.20391-0.6362-0.35391-0.75-0.45-1.0305-0.76914-2.6638-1.4691-4.9-2.1l0.05 0.05-1.05-0.2c-0.1115-0.0238-0.2115-0.0905-0.3-0.2-0.063-0.0777-0.096-0.17773-0.1-0.3-0.03-3.0948-0.6467-5.9615-1.85-8.6-0.1027-0.24909-0.2861-0.41575-0.55-0.5v0.05l-0.35-0.05c-0.1589 0.0159-0.3255 0.0659-0.5 0.15m-10.3-8.6v0.05c-0.1713 0.44375-0.138 0.92709 0.1 1.45v-0.05c0.9 1.9147 2.2167 3.148 3.95 3.7h-0.05l2.45 0.45c0.2157-0.0235 0.4157-0.10687 0.6-0.25 0.1841-0.20625 0.2675-0.43959 0.25-0.7v-0.05c-0.036-0.50807-0.286-1.1081-0.75-1.8-0.018 1.3e-4 -0.035-0.0165-0.05-0.05l-0.05-0.05c-0.019-8e-3 -0.053-0.0409-0.1-0.1-0.6747-1.0272-1.3247-1.7939-1.95-2.3l-0.05-0.05c-0.8437-0.68503-1.8271-1.1017-2.95-1.25h-0.1c-0.098 6e-3 -0.2143 0.0393-0.35 0.1-4e-4 9e-3 -0.017 9e-3 -0.05 0-0.4327 0.19258-0.7327 0.49258-0.9 0.9m3.35-10.35c-0.6298-0.35195-1.0798-0.53529-1.35-0.55-0.2862 3e-3 -0.5862 0.086-0.9 0.25-0.8362 0.49075-1.1862 1.1241-1.05 1.9 0.2547 1.0668 1.0547 2.1835 2.4 3.35 1.4717 1.1506 2.7384 1.7506 3.8 1.8h0.25c0.4418 9e-3 0.7585-0.15753 0.95-0.5 0.1841-0.36302 0.1508-0.74635-0.1-1.15v-0.05l-0.05-0.1v0.05c-1.3755-2.3904-2.6755-4.0404-3.9-4.95-0.017-0.0154-0.034-0.0321-0.05-0.05m20.35 7.2c-0.1715-0.0332-0.4548-0.0499-0.85-0.05-1.2172 6.7e-4 -2.4505 0.35067-3.7 1.05l-0.05 0.05c-1.2432 0.67318-2.1265 1.4898-2.65 2.45l-0.05 0.05c-0.2547 0.48347-0.2547 0.90013 0 1.25 0.059 0.0247 0.1093 0.0581 0.15 0.1 0.2057 0.18515 0.5224 0.30182 0.95 0.35h2.65l1.15-0.35c1.4917-0.43021 2.5583-0.89687 3.2-1.4v-0.05l0.15-0.1c0.6505-0.44922 0.9505-0.99922 0.9-1.65-0.1789-0.8918-0.7789-1.4418-1.8-1.65-0.017-7e-3 -0.033-0.0239-0.05-0.05m-1.25-12.25c-0.4031-0.40078-0.8865-0.60078-1.45-0.6-0.2135 5e-3 -0.6469 0.088-1.3 0.25h0.05l-0.3 0.1h-0.05c-1.0758 0.32383-2.0091 0.94049-2.8 1.85h-0.05c-0.4612 0.63555-1.0112 1.5522-1.65 2.75l-0.15 0.3c-0.01 0.0785-0.023 0.14518-0.05 0.2-0.1319 0.29609-0.1153 0.54609 0.05 0.75 0.035 0.0329 0.051 0.0496 0.05 0.05 0.1833 0.27044 0.4333 0.40377 0.75 0.4h0.45c1.1759-0.13255 2.5759-0.69922 4.2-1.7h-0.05l0.4-0.25h0.05c1.1249-0.60833 1.9082-1.5583 2.35-2.85v0.05c0.1257-0.34727 0.076-0.66393-0.15-0.95l-0.35-0.35m-13.65-9.95c-0.6005 7e-3 -1.0505 0.2906-1.35 0.85v-0.05c-0.5802 1.1612-0.6969 2.5445-0.35 4.15h0.05c0.2593 1.1626 0.7759 2.4626 1.55 3.9l-0.05-0.05 0.35 0.5c0.017 0.0332 0.034 0.0499 0.05 0.05 0.1396 0.27787 0.3729 0.4112 0.7 0.4 0.3311 6.5e-4 0.5645-0.11601 0.7-0.35 0.055-0.0676 0.1053-0.13425 0.15-0.2 0.1735-0.19792 0.2901-0.38125 0.35-0.55v-0.1c0.3571-1.9919 0.4905-3.4586 0.4-4.4v-0.2l-0.1-0.6c-0.1197-0.72552-0.253-1.2588-0.4-1.6l-0.05-0.05c-0.1818-0.49961-0.4651-0.91627-0.85-1.25-0.3499-0.29583-0.7332-0.44583-1.15-0.45m36.7 41.6h-0.1c-1.2033 2e-3 -2.3533 0.33533-3.45 1-0.6307 0.43581-1.4807 1.1858-2.55 2.25l-0.65 0.65c-0.2389 0.24023-0.3223 0.49023-0.25 0.75 0.027 0.0417 0.043 0.075 0.05 0.1 0.063 0.34063 0.2633 0.55729 0.6 0.65 1.0873 0.33489 2.2706 0.50156 3.55 0.5 0.7179-1e-3 1.4845-0.0513 2.3-0.15 1.5331-0.24375 2.5831-0.76042 3.15-1.55 0.6053-0.88112 0.6887-1.7644 0.25-2.65v0.05c-0.5795-1.0626-1.5462-1.596-2.9-1.6m-5.05-10.9c0.012-0.0425 0.029-0.0925 0.05-0.15l0.05-0.1c0.3581-1.3979 0.4914-2.5312 0.4-3.4v-0.05c-0.026-0.36497-0.176-0.66497-0.45-0.9-0.2589-0.23203-0.5755-0.3487-0.95-0.35h-0.15c-1.4037 0.0832-2.4037 0.89987-3 2.45-0.7433 2.1609-0.6433 4.3609 0.3 6.6 0.1169 0.29206 0.3336 0.45873 0.65 0.5 0.025 7e-3 0.041 7e-3 0.05 0l0.1 0.05c0.2743-1e-3 0.491-0.10133 0.65-0.3v-0.05c1.1859-1.2829 1.9526-2.7163 2.3-4.3z" fill="#1ca4da"/>
 <path d="m49.799 24.949c-0.8988 0.0673-1.4816 0.56738-1.748 1.5-0.6334 2.1-0.3175 4.1174 0.9492 6.0508 1.2667 1.8667 1.8171 3.9674 1.6504 6.3008-0.067 0.76667-0.051 1.9333 0.049 3.5 0 1.0333 0.035 2.5818 0.1016 4.6484 0 0.36667-0.1182 0.46745-0.3516 0.30078-0.7666-0.53333-1.2163-0.88411-1.3496-1.0508-1.1333-1.7667-1.9996-3.1-2.5996-4-0.8667-1.3333-1.8667-2.2151-3-2.6484-1.0667-0.33333-1.8671 0.0155-2.4004 1.0488-0.3333 0.7-0.1822 1.5663 0.4512 2.5996 0.5 0.73333 1.1821 1.3671 2.0488 1.9004 0.5 0.33333 1.3333 0.75 2.5 1.25 0.1667 0.0667 0.7171 0.1345 1.6504 0.20117 0.6667 0.0667 1.1492 0.31667 1.4492 0.75 0.1 0.13333 0.4004 0.36589 0.9004 0.69922 0.4333 0.23333 0.6678 0.50078 0.7012 0.80078 0.1333 1.3333 0.1992 2.8488 0.1992 4.5488 0 0.26667 0.1337 1.5167 0.4004 3.75l-0.4004-0.19922c-0.1667-0.13333-0.6337-0.40078-1.4004-0.80078-0.6-0.3-0.9992-0.64883-1.1992-1.0488-0.8667-1.7333-1.5663-2.9174-2.0996-3.5508-0.9667-1.1333-2.1837-1.8174-3.6504-2.0508-0.5333-0.0667-0.9345 1e-3 -1.2012 0.20117-0.6 0.43333-0.7996 1.0322-0.5996 1.7988 0.2667 1.0333 0.9333 1.9849 2 2.8516 1 0.83333 2.0504 1.3159 3.1504 1.4492 1.0667 0.0667 1.8341 0.20039 2.3008 0.40039 0.6333 0.3 1.4996 0.85039 2.5996 1.6504 0.4333 0.23333 0.6659 0.44844 0.6992 0.64844 0 0.23333-0.1822 0.50078-0.5488 0.80078-1.9 1.6333-3.5182 3.6992-4.8516 6.1992-0.1 0.36667-0.1833 0.63411-0.25 0.80078-0.1666 0.3-0.4496 0.38333-0.8496 0.25l-1.3498-0.55075c-2.1667-0.7-4.5659-0.9655-7.1992-0.79883-0.6 0.13333-0.8345 0.38333-0.7012 0.75 0.8 2.3 1.7845 3.9996 2.9512 5.0996 0.1333 0.13333 0.3484 0.31745 0.6484 0.55078 0.2334 0.26667 0.2197 0.58255-0.049 0.94922l-0.4002 0.75c-0.6333 1.6667-0.9996 3.2829-1.0996 4.8496l-0.1504 0.20117c-0.1-0.1-0.1504-0.16784-0.1504-0.20117-0.4333-1.3667-1.2163-2.5992-2.3496-3.6992-0.1333-0.1-0.1992-0.25117-0.1992-0.45117 0.5666-2.6 0.1151-5.1659-1.3516-7.6992-0.2666-0.23333-0.4663-0.43294-0.5996-0.59961-0.2-0.26667-0.1322-0.53411 0.2012-0.80078 1.1666-0.9 1.9651-1.5667 2.3984-2 0.8334-0.76667 1.4341-1.6 1.8008-2.5 0.2667-0.66667 0.1504-1.1492-0.3496-1.4492-0.033-0.0333-0.5178-0.23294-1.4512-0.59961-1.7666-0.6-3.1659-0.76667-4.1992-0.5-0.8667 0.2-1.4829 0.24844-1.8496 0.14844-0.5333-0.1-1.0004-0.51667-1.4004-1.25-0.6333-1.1333-1.8329-2.55-3.5996-4.25-0.2333-0.23333-0.4175-0.54922-0.5508-0.94922-0.1667-0.4-0.151-0.66745 0.051-0.80078 0.8-0.5 1.2167-0.7655 1.25-0.79883 0.5333-0.26667 1.0488-0.41784 1.5488-0.45117 2.3333 0 4.4012-0.5155 6.2012-1.5488 1.3333-0.83333 1.7829-1.8178 1.3496-2.9512-0.3-0.66667-0.8-1.0833-1.5-1.25s-1.5004-0.0833-2.4004 0.25c-2.1333 0.8-3.6837 2.3-4.6504 4.5-0.1333 0.3-0.4318 0.55-0.8984 0.75-0.6 0.23333-0.9682 0.41745-1.1016 0.55078-0.033 0.0333-0.1496-0.26706-0.3496-0.90039-0.4667-1-0.6992-2.1667-0.6992-3.5-0.033-0.56667 0.033-1.7333 0.1992-3.5 0.2333-2.1667 8e-4 -3.8837-0.6992-5.1504-0.5333-0.96667-1.2175-1.4163-2.0508-1.3496-0.8 0.0667-1.3504 0.46784-1.6504 1.2012-0.4 0.96667-0.4833 2.0984-0.25 3.3984 0.1667 1.5333 0.9167 3.0508 2.25 4.5508 0.1667 0.2 0.4671 0.45 0.9004 0.75 0.3667 0.3 0.5333 0.69922 0.5 1.1992-0.033 0.5 0.05 1.1182 0.25 1.8516 0.1 0.4 0.2667 0.99883 0.5 1.7988 0.033 0.0667 0.051 0.1345 0.051 0.20117 0 0.0333-0.05 0.0333-0.1504 0-0.8333-0.13333-1.3837-0.33489-1.6504-0.60156-2.1667-1.9333-4.3663-3.0496-6.5996-3.3496-1.0333-0.2-1.7329-3.9e-4 -2.0996 0.59961-0.5 0.8-0.5157 1.6682-0.051 2.6016 0.5 0.96667 1.5175 1.6663 3.0508 2.0996 1.3333 0.36667 2.5504 0.43255 3.6504 0.19922 0.067 0 0.5163-0.21706 1.3496-0.65039 0.5333-0.26667 1.0333-0.28243 1.5-0.0488 0.2 0.1 0.5488 0.18333 1.0488 0.25 0.4 0.16667 0.5337 0.48255 0.4004 0.94922-0.1333 0.53333-0.4822 1.3163-1.0488 2.3496-0.3334 0.93333-0.7849 2.3674-1.3516 4.3008-0.033 0.2-0.033 0.55078 0 1.0508-0.033 0.4-0.2988 0.61511-0.7988 0.64844-0.4-0.13333-0.683-0.18177-0.8496-0.14844-1.4 0.3-2.4504 0.53255-3.1504 0.69922-1.2 0.33333-2.2 0.76745-3 1.3008-0.3667 0.2-0.6671 0.45-0.9004 0.75-0.3 0.33333-0.4008 0.59883-0.3008 0.79883 1.2334 2.2 3.3671 3.7504 6.4004 4.6504 0.5 0.1 0.6996 0.24922 0.5996 0.44922-0.3666 0.86666-0.6496 1.7-0.8496 2.5-0.3667 1.4-0.4655 2.7178-0.2988 3.9512 0.033 0.1 0.082 0.29961 0.1484 0.59961 0.015 0.12062-0.112 0.13053-0.1582 0.20312-0.5974 0.19829-1.3008 0.35164-2.123 0.45313-0.6122 0.0648-1.0103 0.12871-1.8184 0.19336-1.8 0.2-3.2167 0.93451-4.25 2.2012-1.4333 1.7667-2.2337 2.7492-2.4004 2.9492-2.8593 3.0499-4.2054 2.6748-4.6004 4.4492 0 2.7136 1.3789 4.2538 3.8251 5.5312 0.1971 0.0827 0.4416 0.32528 0.627 0.36914 1.3289 0.36829 2.1777 0.81029 2.8828 1.2734 0.6634 0.43967 1.2991 1.0235 1.9102 1.7246 0.22 0.24477 0.291 0.29896 0.5605 0.60546 0.2924 0.36482 0.6473 0.82082 1.1465 1.4961 0.4145 0.46635 0.847 0.70857 1.2812 0.93359 0.1197 0.0996 0.3067 0.33537 0.418 0.41797 0.1677 0.13398 0.3702 0.18548 0.5605 0.26563 0.2156 0.14406 0.5536 0.26334 0.6387 0.43359 0.2334 0.33333 0.1993 0.81589-0.1015 1.4492-0.1333 0.36667-0.1478 0.76784-0.049 1.2012 0.4173 1.2 0.5346 2.0065 0.625 2.7773 0.058 0.31834 0.1095 0.63638 0.1289 0.95118 0.061 1.5638-0.3554 3.339-1.3554 5.3711-0.3756 0.7512-0.4732 1.4429-0.6289 2.1465-0.013 0.0521-0.057 0.15359-0.068 0.20313v0.0332c-0.1729 0.91803-0.1246 1.7873 0.082 2.623 0.014 0.0555 0.014 0.11263 0.029 0.16797 0.089 0.31965 0.04 0.66911 0.1856 0.97656 0.1717 0.352 0.8341 1.0879 1.1074 1.5195 0.02 0.026 0.021 0.0541 0.041 0.0801l0.2891 0.375c0.7846 1.1767 1.3974 2.2178 2.8613 3.9258 1.6162 1.8747 2.5982 3.4396 3.0547 4.75 0.1416 0.42991 0.3269 0.66605 0.4453 1.1992 0.051 0.0585 0.086 0.12435 0.1016 0.19922 0.02 0.0939 0.1085 0.13763 0.1406 0.22266 0.058 0.12579 0.1669 0.45703 0.2109 0.52734 0.034 0.0448 0.1211 0.0178 0.1582 0.0586 0.3337 0.32239 0.7793 0.56253 1.4414 0.64258h0.1504c0.041-9.4e-4 0.046-0.012 0.078-0.0156 0.074-1e-3 0.095 0.0702 0.1718 0.0644 0.4276-0.0238 0.4611-0.0467 0.7657-0.0703l0.3339 0.0703 0.2989-0.0488 0.2422-0.10351c0.109-0.0157 0.4527-0.0311 0.5078-0.0469 0.5728-0.0955 0.9772-0.36025 1.3965-0.60938 0.081-0.0387 0.1746-0.0481 0.2539-0.0898 0.027-0.0149 0.06-0.0432 0.088-0.0586 0.058-0.0436 0.1584-0.0446 0.2129-0.0918 1.6667-1.3667 3.8837-2.2504 6.6504-2.6504 2.1666-0.3 3.8333-1.05 5-2.25 0.4-0.43333 0.9833-1.1174 1.75-2.0508 0.091-0.10871 0.1643-0.14619 0.2539-0.24805 0.7-0.77694 1.396-1.3815 2.086-1.791 0.8604-0.50282 1.8717-0.92242 3.209-1.1602 2.4333-0.43333 3.6677-0.65039 3.7011-0.65039l2.4509-0.69926c0.7946-0.30561 1.3756-0.77212 1.834-1.3301 0.022-2e-3 0.044-0.0203 0.066-0.0195 0.1437 5e-3 0.26 0.0538 0.3496 0.14844l0.1992 0.20117c0.4137 0.47366 0.8721 0.68443 1.3008 1.0684 0.5278 0.53118 1.0726 1.0282 1.6875 1.3887 0.4318 0.2577 0.8824 0.39985 1.3281 0.57422 0.372 0.1353 0.6854 0.38546 1.084 0.46875 0.1436 0.0287 0.5455-0.0163 0.7324 0 0.3294 0.0451 0.6325 0.2469 0.9688 0.25h0.049l1.551-0.15042c0.1008-0.0167 0.2677-0.0149 0.3984-0.0234 0.8239-2e-3 1.6919 0.16459 2.6504 0.67383l2.7012 1.3496c0.01 4e-3 0.019 2e-3 0.029 6e-3 0.152 0.0534 0.3178 0.0629 0.4726 0.10742 1.8457 0.595 3.4978 0.70512 4.8985 0.1875 0.8195-0.26344 2.1293-0.70993 3.6426-1.2305 0.2942-0.0766 0.5946-0.11465 0.8984-0.13086 0.2387-0.0284 0.4979 0.0383 0.75 0.0723 0.3577 0.0508 0.7191 0.0799 1.0586 0.23828l-0.051-0.0508 0.5859 0.22461c0.023 0.011 0.052 0.0258 0.076 0.0371l0.039 0.0391c0.044 0.0203 0.065 0.0118 0.1094 0.0312 0.3257 0.15421 0.5561 0.26036 0.9902 0.46875 0.3786 0.14775 0.7006 0.0249 1.0664 0.11133 0.5634 0.14517 1.2794 0.48423 1.7324 0.48828l0.8516-0.0488c0.3101-3e-3 0.5756-0.12089 0.7988-0.35156 0.1097-0.0678 0.226-0.10087 0.3496-0.0996 0.2398 0 0.4413-0.0988 0.6016-0.29883l0.4492-0.5c0.098-0.13628 0.2386-0.52185 0.3613-0.80469 0.1391-0.25689 0.3465-0.43861 0.4395-0.74609 0.6666-2.1333 0.7655-4.6837 0.2988-7.6504-0.1405-0.94819-0.01-1.4347 0-2.1328 0.012-0.9265-0.053-1.868 0.2129-2.7441 0.5498-1.7728 1.0043-3.3587 1.0879-4.2227 0.058-0.59614-0.2218-1.2456-0.375-1.875-0.021-0.0608-8e-4 -0.11456-0.025-0.17578 0-9e-3 -0.015-0.0336-0.018-0.043-0.1096-0.39061-0.043-0.75298-0.2324-1.1562-0.1333-0.26667-0.6837-1.2163-1.6504-2.8496-1.3-2.2-1.8659-4.2504-1.6992-6.1504 0.023-0.20389-0.072-0.35622-0.07-0.55078l0.018-0.5c0-0.0963-0.1029-0.14871-0.1114-0.24219-0.1211-0.8175-0.4548-1.5425-1.0058-2.1719-0.077-0.0806-0.047-0.20845-0.1328-0.28516-0.05-0.0464-0.1325-0.0622-0.1836-0.10742-0.1296-0.11989-0.1692-0.28043-0.3164-0.39258-1.6667-1.3667-3.9167-2.1671-6.75-2.4004-1-0.0667-1.75-0.28372-2.25-0.65039-0.5667-0.4-1.0337-1.0492-1.4004-1.9492-0.3666-0.9-0.5663-1.3671-0.5996-1.4004-0.2667-0.53333-0.6156-0.93255-1.0489-1.1992-0.3-0.13333-0.5344-0.26706-0.7011-0.40039-0.2333-0.23333-0.2628-0.56667-0.1-1 0.1667-0.43333 0.3333-1.0671 0.5-1.9004 0.1667-0.9 0.316-1.5492 0.4493-1.9492v-0.84961c0.033-0.33333 0.1844-0.56784 0.4511-0.70117l2.0996-0.75c0.2667-0.0667 0.6174-0.18294 1.0508-0.34961 0.4333-0.1 0.8325-0.1 1.1992 0 1.2333 0.33333 2.6171 0.46706 4.1504 0.40039 1.0667-0.0667 1.9329-0.23333 2.5996-0.5 1.5-0.56667 2.3508-1.3012 2.5508-2.2012 0.3-1.1667-0.1844-2.1163-1.4511-2.8496-0.9-0.56667-1.9989-0.70039-3.2989-0.40039-1.2334 0.26667-2.3341 0.86745-3.3008 1.8008-0.8 0.96667-1.4336 1.6663-1.9003 2.0996-0.7667 0.8-1.6 1.2671-2.5 1.4004-0.2667 0.13333-0.4664 0.21667-0.5997 0.25-0.2333 0.1-0.3826 0.0496-0.4492-0.15039-0.1-0.23333-0.034-0.76628 0.1992-1.5996l1.5508-6.8496c0.1333-0.9 0.2652-1.5667 0.3985-2 0.1667-0.76667 0.4844-1.3829 0.9511-1.8496 1.4667-1.4667 2.3504-3.6178 2.6504-6.4512 0.1333-1.3-0.1167-2.1488-0.75-2.5488-0.7-0.46666-1.6011-0.31745-2.7011 0.44922-0.8333 0.6-1.3993 1.7163-1.6993 3.3496-0.2333 1.5333-0.15 2.7329 0.25 3.5996 0.6667 1.4 0.75 2.8845 0.25 4.4512-0.3333 1.1-0.7344 2.8171-1.2011 5.1504l-1.0489 4.5488c-0.7-1.2667-1.134-1.9992-1.3007-2.1992-0.2333-0.33333-0.3497-0.73451-0.3497-1.2012 0.1-0.53333 0.1294-0.93255 0.1-1.1992-0.2333-1.1-0.3826-1.9333-0.4493-2.5-0.2333-1.5333-0.7663-2.7174-1.5996-3.5508-0.9334-0.86667-1.7667-1.1826-2.5-0.94922-0.8667 0.33333-1.3337 1.0504-1.4004 2.1504-0.067 1.4333 0.567 2.9837 1.9004 4.6504 0.2 0.26667 0.9656 0.88294 2.2989 1.8496 1 0.7 1.6163 1.4829 1.8496 2.3496 0.033 0.16667 0.2834 0.55039 0.75 1.1504 0.3334 0.43333 0.4515 0.8655 0.3515 1.2988-0.2667 1.3667-0.5671 2.6516-0.9004 3.8516-0.033 0.13333-0.051 0.38333-0.051 0.75-0.067 0.3-0.2993 0.39883-0.6993 0.29883-0.3607-0.10306-0.8318-0.0584-1.25-0.084-0.019-1.2e-4 -0.032-0.0155-0.051-0.0156l-0.088 6e-3c-1.1763-0.0469-2.4935 0.0973-4.1114 0.64453-1.7108 0.63465-3.067 1.7102-4.207 3.0527-0.059 0.0617-0.1353 0.0833-0.1934 0.14649-0.026 0.0299-0.04 0.10232-0.066 0.13281-0.1486 0.18857-0.3462 0.31606-0.4843 0.51758-0.9691 1.3629-1.6875 3.0655-2.2715 4.9512-0.1083 0.31105-0.274 0.41797-0.377 0.74805 0 0.0603-0.017 0.11066-0.051 0.15039-0.1245 0.375-0.1748 0.74128-0.1503 1.0996 0.01 0.0828-0.012 0.15132-0.041 0.21484-0.022 0.0508-0.072 0.0806-0.1 0.12696-0.036 0.0382-0.063 0.0916-0.1093 0.10937-0.047 0.0465-0.097 0.0794-0.1504 0.0996-0.343 0.23216-0.6415 0.59844-0.8985 1.0996-0.027 0.0633-0.062 0.11366-0.1015 0.15039l-0.049 0.0508c-0.083 0.088-0.1838 0.13646-0.3007 0.14844-0.1269 7e-3 -0.2433-0.0259-0.3497-0.0996l-0.8486-0.59992c-0.093-0.0644-0.2656-0.0641-0.3632-0.125-1.1394-0.60308-2.3435-1.0896-3.6875-1.3242-0.065-0.0145-0.1412-3e-4 -0.2071-0.0137-0.2132-0.0359-0.3204-0.15926-0.5429-0.1875l-2.1504-0.19922c-0.4338-1.3e-4 -0.8332 0.0328-1.1993 0.0996-0.067 0.0392-0.15 0.0392-0.25 0-0.069-5e-3 -0.1352-0.0383-0.1992-0.0996-0.2844-0.25989-0.7011-0.39362-1.25-0.40039h-0.051l-0.9062 0.0781c-0.08 9e-3 -0.1087-0.0421-0.1934-0.0273-0.01 0-0.048 0.0357-0.062 0.0449-0.054 4e-3 -0.1068-0.0301-0.1601-0.0449l-0.027-0.20117 0.6993-3.4004 0.5996 0.10156c0.2334 0.0667 0.3844 0.13255 0.4511 0.19922 1.0333 1.1333 2.2504 1.9996 3.6504 2.5996 0.4333 0.13333 1.0825 0.35039 1.9492 0.65039 0.5 0.1 0.9671 0.0825 1.4004-0.0508 0.9333-0.3 1.4333-0.71667 1.5-1.25 0.067-0.56667-0.284-1.2818-1.0507-2.1484-0.5-0.6-1.4497-1.0341-2.8497-1.3008-1.4333-0.3-2.4992-0.26697-3.1992 0.0996-0.9667 0.56667-1.7167 0.6345-2.25 0.20117-0.2667-0.16667-0.2325-0.63372 0.1016-1.4004v-0.0508l1.0488-4.4492c0.8 1.1 1.4667 1.9333 2 2.5 0.8 0.83333 1.6508 1.4322 2.5508 1.7988 0.2333 0.1 0.5996 0.25117 1.0996 0.45117 0.4333 0.0667 0.7841-0.13294 1.0508-0.59961 0.4-0.7 0.65-1.5682 0.75-2.6016 0.033-0.13333 0.068-1.05 0.1016-2.75-0.1333-0.36667-0.2167-0.64961-0.25-0.84961-0.1-0.36667 0.067-0.59922 0.5-0.69922 1.7333-0.43333 3.6151-1.2667 5.6484-2.5 0.6-0.4 0.9837-0.80117 1.1504-1.2012 0.1666-0.4 0.068-0.76628-0.2988-1.0996-0.4333-0.43333-1.1174-0.93333-2.0508-1.5-1.2666-0.76667-2.7338-1.2492-4.4004-1.4492-0.4-0.0667-0.6325-0.0996-0.6992-0.0996-0.3-0.13333-0.4512-0.38333-0.4512-0.75 0.067-0.83333 0.067-1.4516 0-1.8516-0.1667-1.4-0.3817-2.65-0.6484-3.75-0.033-0.16667-0.3337-0.93216-0.9004-2.2988-0.4-0.96667-0.5512-1.8-0.4512-2.5-0.067-0.16667-0.1-0.28294-0.1-0.34961-0.067-0.43333-0.1171-0.76667-0.1504-1-0.033-0.4 0.065-0.70039 0.2988-0.90039 0.3-0.26667 0.8834-0.56706 1.75-0.90039 2.0334-1.3333 3.8667-1.9341 5.5-1.8008 2.2333 0.16667 4.2508-0.43216 6.0508-1.7988 1-0.73333 1.2171-1.5008 0.6504-2.3008-0.7667-0.93333-1.9333-1.2996-3.5-1.0996-2.2 0.33333-4.1341 1.6841-5.8008 4.0508l-0.1504 0.39844c-0.067 0.16667-0.1655 0.28489-0.2988 0.35156-2.4667 1.1667-3.8504 1.8159-4.1504 1.9492-0.2333 0.13333-0.3826 0.16637-0.4492 0.0996v-0.34955l-0.25-6.8496c-0.033-0.66667-4e-4 -1.1996 0.1-1.5996 0.1667-0.5 0.4845-0.9845 0.9512-1.4512 1.6333-1.5333 3.6837-2.6671 6.1504-3.4004 2.4333-0.7 4.0826-1.95 4.9492-3.75 0.2667-0.43333 0.3171-0.78216 0.1504-1.0488-0.3333-0.56667-0.8179-0.95039-1.4512-1.1504s-1.3155-0.18273-2.0488 0.0508c-1.7 0.53333-2.9675 1.5992-3.8008 3.1992-0.3 0.66667-0.5325 1.1667-0.6992 1.5-0.2667 0.56667-0.5496 1.0008-0.8496 1.3008-0.3667 0.4-1.5508 1.433-3.5508 3.0996-0.1333-0.93333-0.2166-2.0671-0.25-3.4004 0-1.5-0.017-2.6337-0.051-3.4004-0.1667-0.76667-0.2008-1.3171-0.1016-1.6504 0.4666-1.6333 0.7322-2.6992 0.7989-3.1992 0.2333-2.0333 0.1344-3.7659-0.2989-5.1992-0.3997-1.2324-1.0658-1.8507-1.998-1.8516zm0.252 1.1016c0.4 0.16667 0.6984 0.5 0.8984 1 0 0.0333 0.1512 0.76589 0.4512 2.1992 0.1 0.86667-0.034 2.2659-0.4004 4.1992l-0.3008 0.45117-0.25-0.45117c-0.7-1.2333-1.2-2.4659-1.5-3.6992-0.3-1.4333-0.2166-2.5826 0.25-3.4492 0.1667-0.33333 0.4516-0.41667 0.8516-0.25zm11.648 9.2988c0.4334-0.0667 0.8016 0.0341 1.1016 0.30078l0.25 0.29883c-0.3334 1.0333-0.9845 1.8337-1.9512 2.4004-1.1667 0.63333-1.8488 0.99961-2.0488 1.0996-0.7667 0.36667-1.5012 0.60117-2.2012 0.70117h-0.3496c0.033-0.0667 0.084-0.18294 0.1504-0.34961 0.6-1.1333 1.1155-1.9667 1.5488-2.5 0.7-0.83333 1.5179-1.3837 2.4512-1.6504 0.6667-0.2 1.0155-0.30078 1.0488-0.30078zm-41.148 1.0508c0.6333 0.23333 1.05 0.61706 1.25 1.1504 0.3333 0.93333 0.5 2.0322 0.5 3.2988-0.033 0.26667-0.1341 1.35-0.3008 3.25 0 0.13333-0.05 0.20117-0.1504 0.20117-0.1 0.0333-0.1504-2e-3 -0.1504-0.10156-0.033-0.13333-0.099-0.21667-0.1992-0.25-0.1333-0.0667-0.2167-0.11511-0.25-0.14844-1.3667-1.7-2.0004-3.5682-1.9004-5.6016l0.5508-1.5c0.1333-0.26667 0.3504-0.3655 0.6504-0.29883zm21.949 4.1504c0.3-0.16667 0.7496-0.0678 1.3496 0.29883 0.7667 0.53333 1.4663 1.2504 2.0996 2.1504 0.3667 0.53333 0.9016 1.3996 1.6016 2.5996 0.1 0.2 0.1 0.30078 0 0.30078h-0.3008c-0.9-0.0333-1.9659-0.55078-3.1992-1.5508-1.2667-1.0333-1.9837-1.9829-2.1504-2.8496-0.067-0.36667 0.1329-0.68255 0.5996-0.94922zm-10.801 4.0488c0.5-0.1 0.9516-0.0322 1.3516 0.20117 0.4 0.26667 0.5821 0.63294 0.5488 1.0996-0.1 0.4-0.35 0.73333-0.75 1-0.2 0.13333-0.5992 0.33294-1.1992 0.59961-1.1333 0.53333-2.6178 0.88411-4.4512 1.0508h-0.3496l0.1-0.40039c1.2-1.9667 2.7834-3.1508 4.75-3.5508zm-16.199 3.0001c1.8333 0.6 3.2326 1.3674 4.1992 2.3008 0.067 0.0667 0.2179 0.1655 0.4512 0.29883 0.1333 0.16667 0.05 0.33333-0.25 0.5-0.067 0.0333-0.3167 0.10117-0.75 0.20117l-1.4512 0.19922c-1.3333 0-2.6163-0.41667-3.8496-1.25-0.3333-0.26667-0.5659-0.6-0.6992-1-0.1333-0.43333-0.083-0.81706 0.1504-1.1504 0.3666-0.5 1.0992-0.53303 2.1992-0.0996zm49 0.55071c0.6333 0.13333 0.9996 0.44922 1.0996 0.94922 0.033 0.2-0.033 0.38411-0.1992 0.55078-0.2333 0.2-0.4 0.33372-0.5 0.40039-0.4333 0.33333-1.0012 0.63177-1.7012 0.89844-0.8666 0.26667-1.5488 0.48372-2.0488 0.65039h-2.75l-0.3008-0.0996c-0.033-0.0333-0.016-0.13411 0.051-0.30078 0.5333-0.96667 1.4655-1.7651 2.7988-2.3984 1.3667-0.66666 2.5508-0.88372 3.5508-0.65039zm-22.25 2.1504c1.6 0.23333 3.0496 1.2992 4.3496 3.1992l0.051 0.0996c0.4667 0.7 0.6992 1.2 0.6992 1.5-0.9333-0.13333-1.6155-0.26706-2.0488-0.40039-1.5-0.46667-2.6337-1.5326-3.4004-3.1992-0.2667-0.53333-0.1504-0.93255 0.3496-1.1992zm38.199 1.3984c0.3 0 0.4841 0.16667 0.5508 0.5 0.067 0.8-0.083 1.9182-0.4492 3.3516-0.3334 1.4-1.0349 2.7159-2.1016 3.9492-0.8333-2-0.8992-3.9826-0.1992-5.9492 0.4333-1.2 1.1659-1.8182 2.1992-1.8516zm-56.398 1.4512c0.067 0 0.15 0.0504 0.25 0.15039 0.7 0.7 1.4655 1.5992 2.2988 2.6992 0.4667 0.63333 1.1508 1.5829 2.0508 2.8496 0.2333 0.3 0.5667 0.40078 1 0.30078 0.2333-0.0667 0.5667-0.16745 1-0.30078 1.6-0.2 3.1329-0.0837 4.5996 0.34961l0.1504 0.10156c0.9333 0.1 1.3829 0.19883 1.3496 0.29883-0.3333 0.8-0.7674 1.4996-1.3008 2.0996-1 1.0667-1.9166 1.8671-2.75 2.4004-0.8333 0.5-1.0833 1.0504-0.75 1.6504 0.2 0.3 0.5508 0.74961 1.0508 1.3496 0.6 1.6 0.9333 2.5496 1 2.8496 0.2333 0.7 0.249 1.7504 0.051 3.1504 0 0.0667-0.017 0.1345-0.051 0.20117l-0.1504-0.05077c-2.0667-0.76667-3.9833-1.7163-5.75-2.8496-0.4-0.23333-0.65-0.4-0.75-0.5-0.4-0.5-0.7488-0.63372-1.0488-0.40039-0.1334 0.13333-0.3349 0.44922-0.6016 0.94922-0.7666 1.6333-2.2163 3.0016-4.3496 4.1016-0.7667 0.6-1.35 1.0322-1.75 1.2988-0.3333 0.1-0.5833 0.18333-0.75 0.25-0.1333-0.33333-0.1992-0.58333-0.1992-0.75 0-2.4333 0.3992-4.35 1.1992-5.75 0.3333-0.63333 0.3196-1.0829-0.049-1.3496-0.1-0.0667-0.4837-0.16745-1.1504-0.30078-0.6333-0.13333-1.3175-0.41628-2.0508-0.84961-0.8333-0.56667-1.467-0.96589-1.9004-1.1992-0.3-0.13333-0.55-0.33294-0.75-0.59961-0.7333-0.76666-1.0666-1.2512-1-1.4512 0.033-0.2 0.5508-0.53333 1.5508-1 1.7-0.8 3.5992-1.2496 5.6992-1.3496 0.6 0.23333 1.0167 0.16745 1.25-0.19922 0.1334-0.16667 0.2671-0.61823 0.4004-1.3516 0.4667-2.6 1.1178-4.7822 1.9512-6.5488 0.1-0.16667 0.1833-0.25 0.25-0.25zm0.5 6.5996c-0.2334 0.0333-0.3516 0.23294-0.3516 0.59961l0.6504 4.9004c0.033 0.16667-0.017 0.26745-0.1504 0.30078-0.1 0.0667-0.1484 0.11511-0.1484 0.14844-0.3 0-0.4667-0.0329-0.5-0.0996l-1.7012-2.5c-0.2333-0.23333-0.4329-0.29922-0.5996-0.19922s-0.196 0.28216-0.1 0.54883c0.5333 0.96666 0.8492 1.5171 0.9492 1.6504 0.3667 0.5 0.5508 0.86628 0.5508 1.0996 0 0.33333-0.3004 0.60078-0.9004 0.80078-0.4 0.2-0.5492 0.46745-0.4492 0.80078 0.067 0.13333 0.2159 0.16637 0.4492 0.0996 1-0.46667 1.7326-0.85039 2.1992-1.1504 0.5667-0.3 1.2508-0.53255 2.0508-0.69922 0.4667-0.0667 1.1663-0.15 2.0996-0.25 0.1333-0.0333 0.333-0.0508 0.5996-0.0508 0.2334-0.0333 0.3671-0.13411 0.4004-0.30078 0-0.33333-0.3159-0.5-0.9492-0.5-0.2333-0.0333-0.5163-0.0159-0.8496 0.0508-0.2334 0.1-0.3671 0.0167-0.4004-0.25-0.033-0.43333 0.017-0.99922 0.1504-1.6992 0.1666-0.9 0.2655-1.4504 0.2988-1.6504-0.033-0.0667-0.033-0.23333 0-0.5 0.033-0.2-0.05-0.31628-0.25-0.34961-0.2333 0-0.4329 0.28294-0.5996 0.84961-0.3 1.4-0.4337 2.5492-0.4004 3.4492 0.033 0.23333-0.083 0.31667-0.3496 0.25-0.2667 0-0.4159-0.0833-0.4492-0.25-0.2334-1.4333-0.5337-2.9663-0.9004-4.5996 0-0.16667-0.017-0.28294-0.051-0.34961-0.033-0.13333-0.1322-0.18372-0.2988-0.15039zm27.299 0c1.1333 2.5333 1.7341 5.3008 1.8008 8.3008 0 0.56667 0.2325 0.94844 0.6992 1.1484 0.2667 0.13333 0.7163 0.23411 1.3496 0.30078 2 0.5 3.5175 1.1492 4.5508 1.9492 0.2 0.16667 0.6826 0.41667 1.4492 0.75-1.7333 1.5-3.7333 2.5349-6 3.1016-0.6666 0.16667-1.0833 0.38177-1.25 0.64844-0.1333 0.23333-0.1818 0.70039-0.1484 1.4004 0 2.0333-0.05 3.3008-0.1504 3.8008l-0.1504 0.65039c0 0.56667-0.1008 0.9155-0.3008 1.0488s-0.5663 0.0675-1.0996-0.19922c-1.1333-0.6-2.3504-1.7667-3.6504-3.5-0.4333-0.56667-0.8655-0.86706-1.2988-0.90039-0.3667-0.0333-0.8841 0.11589-1.5508 0.44922-1.2667 0.73333-2.85 1.2333-4.75 1.5-0.2333 0.0333-0.617 3e-4 -1.1504-0.0996-0.5-0.0667-0.8818-0.0667-1.1484 0-0.1334 0.0333-0.2167 3e-4 -0.25-0.0996 0.033-0.16667 0.049-0.28294 0.049-0.34961-0.1-2.5667 0.4-5.0008 1.5-7.3008 0.2333-0.46667 0.183-0.85039-0.1504-1.1504-1.2333-1.1-2.3321-2.6484-3.2988-4.6484-0.067-0.16667-0.067-0.33333 0-0.5l0.1992-0.10156c0.3667 0.2 0.8337 0.26784 1.4004 0.20117 0.3 0 0.7496-0.0329 1.3496-0.0996 1.3333 0.0667 3 0.44844 5 1.1484 0.6 0.2 1.0671 0.16697 1.4004-0.0996 0.1333-0.13333 0.3504-0.48216 0.6504-1.0488 1.2-2.2 2.667-4.1671 4.4004-5.9004zm17.5 2.0508c0.7667-0.26667 1.4333 0.13255 2 1.1992 0.4667 0.86667 0.9163 2.4674 1.3496 4.8008-0.067 0.56667-0.1325 0.84961-0.1992 0.84961-0.2 0.0333-0.5159-0.13333-0.9492-0.5-1.7-1.3333-2.6341-2.8178-2.8008-4.4512-0.1333-1.0667 0.066-1.6984 0.5996-1.8984zm-19.652 5.5488c-0.033-0.0321-0.098-0.0153-0.1973 0.0508-0.1333 0.0333-0.2167 0.0837-0.25 0.15039-0.3667 0.66667-0.9171 2.0988-1.6504 4.2988-0.067 0.3-0.1325 0.51706-0.1992 0.65039-0.1333 0.23333-0.3504 0.29922-0.6504 0.19922l-0.5996-0.25c0.1-0.2 0.082-0.49844-0.051-0.89844-0.1333-0.36667-0.147-0.63411-0.049-0.80078l-0.051-1.0996-0.1504-0.75c-0.1667-0.36667-0.3488-0.46745-0.5488-0.30078-0.1667 0.13333-0.25 0.2845-0.25 0.45117l0.1 2c0.067 0.7 0.067 1.1322 0 1.2988-0.1333 0.2-0.4667 0.2-1 0-0.4333-0.16667-0.8675-0.0833-1.3008 0.25-0.1333 0.13333-0.1333 0.26706 0 0.40039 0.1 0.16667 0.4508 0.28294 1.0508 0.34961 1.5333 0.2 2.7155 0.38411 3.5488 0.55078 0.6 0.1 1.2667 0.35 2 0.75 0.4334 0.2 1.0845 0.53333 1.9512 1 0.3333 0.16667 0.5833 0.16667 0.75 0 0.1667-0.2 0.05-0.39961-0.3496-0.59961l-1.6504-1.1504c-0.1333-0.0333-0.2341-0.0663-0.3008-0.0996-0.1-0.0667-0.1-0.16745 0-0.30078l2.3008-2.8008c0.1667-0.23333 0.1373-0.46589-0.1-0.69922-0.1-0.0667-0.1834-0.0841-0.25-0.0508-0.067 0.13333-0.1345 0.21667-0.2012 0.25-1.0333 0.93333-1.8492 1.9004-2.4492 2.9004-0.1 0.16667-0.2337 0.21706-0.4004 0.15039-0.2-0.13333-0.3337-0.18372-0.4004-0.15039-0.067-0.23333-0.1016-0.38255-0.1016-0.44922l1.5508-4.4512c0.1666-0.4 0.1319-0.68294-0.1015-0.84961zm36.752 0.20117c0.9 0 1.5667 0.29844 2 0.89844 0.4 0.6 0.3863 1.2337-0.049 1.9004-0.4 0.56667-1.2837 0.95039-2.6504 1.1504-1.9333 0.26667-3.7337 0.16588-5.4004-0.30078 1.3667-1.3667 2.2504-2.2 2.6504-2.5 1.0667-0.8 2.2159-1.1818 3.4492-1.1484zm-59.648 3.0488c0.7 0.63333 1.4325 1.1333 2.1992 1.5l-3.5508 0.34961c0.5667-0.6 0.8845-1.1833 0.9512-1.75 0.033-0.2 0.167-0.23303 0.4004-0.0996zm19.75 8.9512 0.049 0.25-1.6504 8.5996-0.1992-0.0996v-2e-3c-1.2946-1.2525-2.6393-2.0619-4.0059-2.668-0.4068-0.22019-0.4755-0.40439-0.9414-0.63086-0.2-0.1-0.4015-0.15039-0.6015-0.15039-0.9666-0.0667-1.3329-0.4-1.0996-1 0.3333-0.86667 0.4671-1.3492 0.4004-1.4492 0.1-0.13333 0.1293-0.23411 0.1-0.30078-0.4667-0.83333-0.1489-1.1996 0.9511-1.0996 1.7333 0.26667 3.9485-0.16745 6.6485-1.3008 0.067-0.0664 0.1841-0.11512 0.3496-0.14844zm5.1484 6.0996c1 0.1 1.8179 0.46628 2.4512 1.0996 0.5 0.43333 0.6492 0.88294 0.4492 1.3496-0.067 0.2-0.2159 0.28333-0.4492 0.25-0.3 0-0.4996 0.0175-0.5996 0.0508-1.5-0.2-3.0834-0.88412-4.75-2.0508-0.5-0.33333-0.4341-0.55039 0.1992-0.65039 1.6-0.0333 2.4992-0.0488 2.6992-0.0488z"/>
 <g transform="translate(-1222,-563.5)">
  <path transform="translate(160.15,84.1)" d="m1066.8 479.4c-3.3333 0-5 1.6667-5 5v158.2c0 3.3333 1.6667 5 5 5h93.199c3.3333 0 5-1.6667 5-5v-158.2c0-3.3333-1.6667-5-5-5zm8.3008 7.1992h76.6c4.6667 0 7 2.3333 7 7v139.8c0 4.6667-2.3333 7-7 7h-76.6c-4.6667 0-7-2.3333-7-7v-139.8c0-4.6667 2.3333-7 7-7z" fill="#ef1d1e"/>
  <path transform="translate(160.15,84.1)" d="m1075.2 486.6c-4.6667 0-7 2.3333-7 7v139.8c0 4.6667 2.3333 7 7 7h76.6c4.6667 0 7-2.3333 7-7v-139.8c0-4.6667-2.3333-7-7-7z" fill="none" stroke="#000" stroke-width="1.2"/>
 </g>
</svg>
