<svg width="103.2" height="168.2" preserveAspectRatio="none" version="1.1" viewBox="0 0 103.2 168.2" xmlns="http://www.w3.org/2000/svg">
 <path d="m13.301 7.1992c-4.6667 0-7 2.3333-7 7v139.8c0 4.6667 2.3333 7 7 7h76.6c4.6667 0 7-2.3333 7-7v-139.8c0-4.6667-2.3333-7-7-7z" fill="#fff"/>
 <path d="m25.45 73.95h0.05c0.7698 1.5497 2.1365 3.0997 4.1 4.65l0.4 0.25c0.1126 0.076 0.1793 0.15937 0.2 0.25 0.055 0.12513 0.055 0.2418 0 0.35-0.4321 1.3199-0.6655 2.5032-0.7 3.55v0.05c-0.1 0.72773 0.1833 1.1777 0.85 1.35 0.5969 0.12396 1.0302 0.34063 1.3 0.65 0.035 0.0319 0.052 0.0486 0.05 0.05 0.5318 0.45625 1.0651 0.68958 1.6 0.7 0.5413-0.0189 1.1579-0.3022 1.85-0.85l2.75-2.15c0.067-0.0519 0.1339-0.0853 0.2-0.1 0.093-0.0121 0.1762-0.0121 0.25 0l0.15 0.05c0.033 0.0306 0.067 0.0473 0.1 0.05 0.2665 0.16341 0.5332 0.28008 0.8 0.35l5 1.5h-0.05c0.4292 0.0953 0.8125 0.14531 1.15 0.15h0.35c0.3345-0.0392 0.5845-0.17253 0.75-0.4 0.01 1.3e-4 0.01-0.0165 0-0.05 0.1242-0.13294 0.2075-0.33294 0.25-0.6 0.027-0.27213 0.01-0.50547-0.05-0.7l-0.25-1.1c-0.416-1.6603-0.766-2.8603-1.05-3.6l-0.15-0.55c-0.2203-0.42643-0.3203-0.70977-0.3-0.85 0-0.13685 0.05-0.25351 0.15-0.35l0.15-0.15c0.023-0.0281 0.04-0.0615 0.05-0.1 0.322-0.17799 0.572-0.42799 0.75-0.75h0.05l3-4.15v-0.05c0.2064-0.21393 0.2397-0.46393 0.1-0.75-0.01-8e-3 -0.026-0.0245-0.05-0.05-0.093-0.30899-0.3099-0.49232-0.65-0.55-1.0298-0.16445-1.9798-0.24779-2.85-0.25-1.1026 4e-3 -2.3026 0.13733-3.6 0.4-0.1123 0.0185-0.2289 2e-3 -0.35-0.05-0.083-0.0499-0.1493-0.1332-0.2-0.25-0.9895-1.8947-1.7061-3.1947-2.15-3.9l-0.9-1.35c0.01-8e-3 0.01-0.0243 0-0.05-0.1637-0.38425-0.4303-0.70091-0.8-0.95-0.3261-0.23138-0.6594-0.34805-1-0.35-0.4112-5e-3 -0.7279 0.162-0.95 0.5-0.8609 1.4083-1.5609 3.0917-2.1 5.05-0.2015 0.78463-0.3682 1.268-0.5 1.45-0.049 0.10859-0.132 0.17526-0.25 0.2-0.2255 0.10013-0.6422 0.15013-1.25 0.15-1.5659 0.0315-3.1159 0.3982-4.65 1.1l-0.2 0.1c-0.722 0.3043-1.2053 0.6543-1.45 1.05-0.1055 0.41029-0.089 0.76029 0.05 1.05m-1.45-7.85-1.6-0.3c-1.3611-0.26263-2.5111-0.39597-3.45-0.4-1.4281-5e-3 -2.7448 0.24533-3.95 0.75h-0.05c-0.5393 0.22396-0.9227 0.59063-1.15 1.1v0.05c-0.1977 0.47956-0.181 1.0129 0.05 1.6 0.5947 1.2689 1.7113 1.9022 3.35 1.9h0.05c1.2582-0.0325 2.5082-0.3492 3.75-0.95h0.05c0.938-0.4263 2.0547-1.143 3.35-2.15 0.2973-0.22305 0.4139-0.53971 0.35-0.95v0.05c-0.094-0.39765-0.3436-0.63099-0.75-0.7m-5.55-9.8v-0.05c0.5119 1.0482 1.5952 2.1315 3.25 3.25v0.05l0.65 0.45h0.05c0.2295 0.16862 0.5295 0.30195 0.9 0.4l0.2 0.1 0.5 0.1c0.1149-0.0149 0.2149-0.0482 0.3-0.1 0.2728-0.14153 0.4395-0.34153 0.5-0.6v0.05c0.049-0.27591 0.033-0.64258-0.05-1.1v-0.05c-0.031-0.0463-0.047-0.113-0.05-0.2-0.039-0.71276-0.306-1.6961-0.8-2.95l0.05 0.05-0.4-0.95-0.05-0.05c-0.6395-1.8706-1.7895-2.9039-3.45-3.1h-0.05l-0.25-0.05c-0.356 0.0431-0.7227 0.2598-1.1 0.65-0.8932 1.0529-0.9599 2.4195-0.2 4.1m16.95-2.55c-0.2291-0.35885-0.5624-0.57552-1-0.65l-0.65-0.05c-1.0738 0.0141-1.9571 0.4974-2.65 1.45-1.1035 1.5009-1.6869 3.5009-1.75 6 0.01 0.28555 0.057 0.51888 0.15 0.7 0.012 0.0488 0.012 0.0821 0 0.1l0.05 0.2 0.05 0.05c0.059 0.26485 0.2087 0.44818 0.45 0.55l0.5 0.1c0.1455-8e-3 0.2788-0.0414 0.4-0.1l0.2-0.2c0.051-0.0535 0.1007-0.10353 0.15-0.15 0.5369-0.19127 1.0535-0.60794 1.55-1.25l0.35-0.45c0.016-0.0164 0.033-0.0331 0.05-0.05 1.2381-1.3032 2.0715-2.6532 2.5-4.05l0.1-0.25c0.047-0.77265-0.1033-1.4226-0.45-1.95m46.7 11.45c-0.2333 0.21185-0.35 0.47851-0.35 0.8 0 0.31485 0.1333 0.54818 0.4 0.7 1.5012 0.94831 3.2679 1.615 5.3 2 0.2238 0.0686 0.5405 0.10195 0.95 0.1 1.0354 3e-3 1.7854-0.38 2.25-1.15 0.3042-0.50039 0.3709-1.0004 0.2-1.5v-0.05c-0.1569-0.64127-0.5903-1.1413-1.3-1.5-0.957-0.53047-2.007-0.79713-3.15-0.8-1.4399 7e-3 -2.8732 0.47407-4.3 1.4m-31.6-19.1c-1.5258-1.0581-2.8425-1.7414-3.95-2.05l0.05 0.05-0.75-0.1c-0.5008 0.0198-0.9341 0.2198-1.3 0.6-0.4146 0.40339-0.6646 0.93672-0.75 1.6-0.1371 0.99297 0.1962 1.893 1 2.7 0.6742 0.70469 1.5075 1.188 2.5 1.45 0.6594 0.17253 1.5761 0.28919 2.75 0.35h0.45c0.06-6.5e-4 0.11-6.5e-4 0.15 0 0.042 7e-3 0.075 7e-3 0.1 0l0.45-0.05c0.8881-0.0579 1.5881-0.24127 2.1-0.55h-0.05l0.3-0.2c0.033 8e-3 0.05 8e-3 0.05 0l0.1-0.05c0.2439-0.125 0.3939-0.325 0.45-0.6 0.043-0.25768-0.023-0.49101-0.2-0.7-0.043-0.0495-0.077-0.11613-0.1-0.2-0.091-0.13203-0.2245-0.26537-0.4-0.4l-2.95-1.85m0.65-6.75c0.09-0.13763 0.1231-0.3043 0.1-0.5v-0.05c-0.014-0.39193-0.2307-0.72526-0.65-1-0.021-0.0123-0.054-0.0456-0.1-0.1-0.6567-0.74219-1.8567-1.5755-3.6-2.5v-0.05l-0.8-0.45v0.05c-0.3473-0.19701-0.7306-0.29701-1.15-0.3-0.7986 0-1.4319 0.31667-1.9 0.95-0.3701 0.47735-0.5034 0.99401-0.4 1.55 0.1139 0.58385 0.4306 1.1005 0.95 1.55 0.6313 0.50143 1.3646 0.8681 2.2 1.1 0.4691 0.14011 1.1858 0.25677 2.15 0.35l1.95 0.05c0.5789-3e-3 0.9789-0.20267 1.2-0.6 0.015-8e-3 0.032-0.025 0.05-0.05m34.45 16.85 0.05-0.35c0.023-0.66367-0.16-1.197-0.55-1.6-0.4091-0.40117-0.9258-0.60117-1.55-0.6-0.5139 0-1.0139 0.13333-1.5 0.4l-0.05 0.05c-1.6995 0.91354-2.9161 2.3969-3.65 4.45 0.01 0.0332 0.01 0.0499 0 0.05-0.1504 0.31497-0.2337 0.53164-0.25 0.65v0.05c-0.078 0.44948-0.028 0.79948 0.15 1.05 0.2198 0.26289 0.4865 0.39623 0.8 0.4 0.1526-1.3e-4 0.2859-0.0335 0.4-0.1 0.034-9e-3 0.051-0.0261 0.05-0.05 1.19-0.40261 2.3067-0.91927 3.35-1.55 1.4469-0.82747 2.3635-1.7775 2.75-2.85m-14.7-0.35c-0.034-1e-3 -0.084-0.018-0.15-0.05-0.515-0.10391-1.1483-0.15391-1.9-0.15-0.6551 2e-3 -1.5384 0.0687-2.65 0.2l-0.8 0.1h-0.05c-0.1249 3e-3 -0.2582 0.036-0.4 0.1-0.1055 0.0604-0.2221 0.0604-0.35 0-0.1332-0.0271-0.2332-0.1104-0.3-0.25-1.169-2.2604-2.369-3.9938-3.6-5.2-0.2977-0.29531-0.631-0.44531-1-0.45-0.5377 0.0145-0.9544 0.2978-1.25 0.85v-0.05c-1.1871 2.4464-2.0538 4.5797-2.6 6.4-0.01 0.10195-0.04 0.18529-0.1 0.25l-0.05 0.05c-0.097 0.0988-0.2131 0.14883-0.35 0.15-1.7956-1e-3 -3.7789 0.282-5.95 0.85-0.3918 0.11224-0.7918 0.26224-1.2 0.45-0.017 0.01-0.034 0.01-0.05 0l-0.5 0.15c-0.2437 0.13763-0.4271 0.33763-0.55 0.6v-0.05c-0.046 0.31497 0 0.59831 0.15 0.85l-0.05-0.05 0.25 0.35c0.01 0.0168 0.01 0.0335 0 0.05 0.2649 0.43255 0.4815 0.74922 0.65 0.95l0.05 0.05c1.0422 1.3009 2.5089 2.6842 4.4 4.15 0.1083 0.084 0.175 0.18399 0.2 0.3 0.023 0.14362-0.011 0.26029-0.1 0.35-0.5991 0.93203-1.1991 2.1154-1.8 3.55l-0.25 0.55v-0.05c-0.3471 0.93034-0.4138 1.6303-0.2 2.1 0.2327 0.35742 0.566 0.55742 1 0.6 0.8495 0.0988 1.6828 0.14883 2.5 0.15 1.1983-3e-3 2.3317-0.10267 3.4-0.3h-0.05c0.9093-0.19336 1.5759-0.49336 2-0.9 1.2377-1.2038 2.6044-1.8038 4.1-1.8l0.75 0.05h0.05c0.2922 0.0314 0.8255 0.1814 1.6 0.45 0.9507 0.39232 1.784 0.59232 2.5 0.6h0.35c0.051-2.6e-4 0.1007-2.6e-4 0.15 0l0.1 0.05 0.75 0.1c0.3492-0.0181 0.6659-0.16813 0.95-0.45 0.2288-0.25599 0.2955-0.58932 0.2-1v-0.05c-0.2018-1.2711-0.9018-3.0044-2.1-5.2v-0.05l-0.2-0.45v0.05l-0.35-0.55c-0.051-0.0913-0.068-0.20794-0.05-0.35 0.02-0.10469 0.07-0.20469 0.15-0.3 1.8206-1.5055 3.2873-3.6888 4.4-6.55v0.05c0.1267-0.32604 0.11-0.60937-0.05-0.85-0.01-0.0167-0.025-0.0333-0.05-0.05-0.1473-0.26198-0.3806-0.39531-0.7-0.4l-0.9 0.05m-0.15-19.65v-0.05c0-0.6457-0.2167-1.179-0.65-1.6-0.01 0-0.025-0.0167-0.05-0.05-0.3758-0.41836-0.8925-0.63503-1.55-0.65l-0.7 0.1c-0.9099 0.21627-1.7099 0.68294-2.4 1.4-0.4762 0.45612-1.0095 1.1561-1.6 2.1l-0.3 0.45c-0.1 0.19479-0.2497 0.59479-0.45 1.2l0.05-0.05-0.05 0.3c-0.01 0.0413-0.023 0.0746-0.05 0.1-0.081 0.31354 0 0.59687 0.25 0.85 0.1513 0.15365 0.3347 0.23698 0.55 0.25l0.35-0.05h-0.05l1-0.25c0.033 8e-3 0.05 8e-3 0.05 0 0.6314-0.10456 1.4647-0.52123 2.5-1.25 0.4866-0.33919 0.9033-0.58919 1.25-0.75v0.05c1.1657-0.50573 1.7824-1.2057 1.85-2.1m2.4 7.6h-0.3c-1.7291 0.18555-3.5624 1.0522-5.5 2.6v-0.05c-0.4177 0.3763-0.5844 0.79297-0.5 1.25 0.1426 0.46523 0.4593 0.7319 0.95 0.8 0.033 7e-3 0.049 7e-3 0.05 0l0.2 0.05h-0.05c0.9698 0.0978 1.5031 0.14779 1.6 0.15h0.25c2.1314-0.13437 3.6981-0.28437 4.7-0.45h0.05c0.4847-0.0552 0.9014-0.2552 1.25-0.6 0.3948-0.30977 0.6448-0.70977 0.75-1.2v-0.05c0.1746-0.63867-0.075-1.1887-0.75-1.65-0.01-0.015-0.027-0.0317-0.05-0.05-0.7195-0.53333-1.6029-0.8-2.65-0.8m-13.55-16.75c-0.5227 1.0841-0.956 2.1841-1.3 3.3-0.1556 0.69713-0.1223 1.4305 0.1 2.2v-0.05c0.1705 0.46237 0.4871 0.6957 0.95 0.7 0.5487-5e-3 0.9987-0.23867 1.35-0.7l1.1-1v-0.05c0.9605-0.87044 1.6272-1.6204 2-2.25 0.6581-1.109 0.7747-2.159 0.35-3.15-0.01-0.0169-0.025-0.0336-0.05-0.05-0.083-0.28489-0.266-0.51823-0.55-0.7-0.2486-0.18073-0.5153-0.28073-0.8-0.3l-0.35 0.05c-0.01 2e-3 -0.025 2e-3 -0.05 0-1.1113 0.0276-2.028 0.71093-2.75 2.05v-0.05m-10.45-3.25c-0.4087-0.87787-0.8087-1.5445-1.2-2-0.5552-0.67669-1.2385-1.16-2.05-1.45-0.4422-0.13008-0.8255-0.19675-1.15-0.2-0.5155 7e-3 -0.9988 0.19027-1.45 0.55v-0.05c-0.5499 0.54466-0.6999 1.2113-0.45 2v-0.05c0.5794 1.462 1.5127 2.6953 2.8 3.7 0.8905 0.66406 2.1571 1.3307 3.8 2l0.5 0.1c0.2086-0.0281 0.4086-0.12813 0.6-0.3h0.05c0.2157-0.29974 0.2491-0.61641 0.1-0.95l-1.55-3.35" fill="#1ca4da"/>
 <path d="m44.686 19.875c-0.4743 0.0336-0.9353 0.20911-1.3847 0.52539-0.7 0.56667-0.9345 1.2333-0.7012 2 0.5667 1.6333 1.9504 3.2167 4.1504 4.75 0.4667 0.3 1.2496 0.61589 2.3496 0.94922 0.9667 0.4 1.6004 1.0163 1.9004 1.8496 0.1667 0.5 0.5 1.1512 1 1.9512 0.6333 0.96667 1.0171 1.6004 1.1504 1.9004 0.5 1.0333 1.1492 2.6167 1.9492 4.75l0.4512 1.5-0.75-0.15039c-0.7667-0.2-1.35-0.36667-1.75-0.5-0.7334-0.2-1.2682-0.50039-1.6016-0.90039-1.3666-1.5-3.0488-2.75-5.0488-3.75-1.6-0.83333-2.8171-0.5-3.6504 1-0.5667 1.0667-0.2508 2.0492 0.9492 2.9492 1.1 0.83333 2.6 1.25 4.5 1.25 0.2667 0 0.8675-0.0484 1.8008-0.14844 0.7333-0.0667 1.2992-0.0667 1.6992 0 0.8334 0.16667 2.0175 0.61628 3.5508 1.3496 0.6333 0.2 0.9996 0.4655 1.0996 0.79883l2.5996 7.4512v0.19922h-0.1992c-1.2333-0.36667-2.15-0.66706-2.75-0.90039-0.2-0.1-0.5837-0.16589-1.1504-0.19922-0.5-0.0667-0.8333-0.16745-1-0.30078-1.6-1.1667-2.7163-1.9496-3.3496-2.3496-1.2667-0.8-2.4837-1.3988-3.6504-1.7988-0.7-0.26667-1.417-0.16784-2.1504 0.29883-0.7333 0.46667-1.1151 1.0674-1.1484 1.8008 0 0.73333 0.25 1.4659 0.75 2.1992 0.4666 0.7 1.0655 1.2329 1.7988 1.5996 0.6 0.26667 1.6833 0.50117 3.25 0.70117 1.1 0.2 2.2163 0.0837 3.3496-0.34961 0.1667-0.0667 0.5-0.25078 1-0.55078 0.4334-0.23333 0.7667-0.34961 1-0.34961 0.5667 0 1.5008 0.25 2.8008 0.75 0.1333 0.0667 0.4008 0.13255 0.8008 0.19922 0.3 0.0667 0.4163 0.16745 0.3496 0.30078l-1.0508 1.9492c-0.8667 1.5667-1.4829 3.2663-1.8496 5.0996 0 0.16667-0.05 0.2345-0.1504 0.20117-0.4667-0.13333-1.4163-0.13333-2.8496 0-1.7333 0.16667-3.2159 0.5155-4.4492 1.0488-0.6334 0.23333-1.0016 0.3845-1.1016 0.45117-0.3333 0.26667-0.3627 0.65039-0.1 1.1504 0.5 0.86667 1.1841 1.7329 2.0508 2.5996 0.7333 0.73333 1.8825 1.7663 3.4492 3.0996l0.3496 0.30078c0 0.0333-0.015 0.0818-0.049 0.14844-1.1667 1.4333-1.9845 3.0341-2.4512 4.8008-0.033 0.23333-0.1496 0.56667-0.3496 1-0.1 0.43333-0.017 0.79961 0.25 1.0996 0.1 0.1 0.2163 0.11727 0.3496 0.0508 0.2-0.0667 0.3337-0.0996 0.4004-0.0996 1.7 0.3 3.4675 0.31577 5.3008 0.0488 0.2667-0.0667 0.6504-0.0996 1.1504-0.0996l-0.051 0.19922c-0.432 1.104-0.3963 1.8153-0.3965 2.5566 0.01 0.18708-0.1853 0.41149-0.1543 0.59375v0.24999c0 0.0381 0.012 0.0605 0.01 0.0977 0 0.0125-0.011 0.0404-0.01 0.0527 0.1 0.3 0.1157 0.68372 0.051 1.1504-0.067 0.3-0.2663 0.8-0.5996 1.5-0.3 0.63333-0.4667 1.1488-0.5 1.5488v0.80077c0 0.31119-0.1603 0.51556-0.4219 0.65234-0.2216 0.0869-0.3828 0.33885-0.5937 0.45508-0.6097 0.38159-1.191 0.78268-1.6543 1.2617-0.1317 0.14375-0.3056 0.17082-0.4317 0.33008-0.016 0.0172-0.034 0.0347-0.051 0.0508l-0.1015 0.0996c-0.4246 0.54107-0.5856 0.94555-0.7481 1.3496-0.054 0.13531-0.2269 0.33132-0.2519 0.45117-0.029 0.12292-0.096 0.22175-0.2012 0.29883-0.095 0.0756-0.2115 0.11055-0.3496 0.10156l-0.8449-0.05079c-0.3208 5e-3 -0.7781 0.16369-1.1641 0.24219-0.2999 0.0474-0.6045 0.0735-0.8906 0.18554-0.1294 0.0401-0.2105 0.0257-0.3457 0.0723l-0.1504 0.0508c-0.8493 0.26302-1.3823 0.59635-1.5996 1-0.048 0.12825-0.1313 0.21159-0.25 0.25-0.1332 0.0677-0.2669 0.0677-0.4004 0-0.6447-0.25358-1.428-0.29147-2.1758-0.38476-0.239-0.0244-0.4234-0.16602-0.6738-0.16602-0.04-2e-3 -0.111 0.0204-0.1523 0.0195-0.1435-6e-3 -0.2496-0.0699-0.3965-0.0703-0.4643 1e-3 -0.799 0.21157-1.2246 0.27539-0.471 0.0675-0.8233 0.0447-1.377 0.17578-0.3333 0.1-0.5-7.8e-4 -0.5-0.30078 0.033-1-0.05-2.533-0.25-4.5996-0.1333-0.66667-0.05-1 0.25-1 0.3334 0 0.9341 0.19961 1.8008 0.59961 1.8 0.83333 3.55 1.1996 5.25 1.0996 0.1333 0 0.3174 0.0175 0.5508 0.0508 0.1666-0.0333 0.25-0.18255 0.25-0.44922 0-0.83333-0.1337-1.7849-0.4004-2.8516-0.3333-1.2-0.5833-2.1167-0.75-2.75-0.2667-0.46667-0.4508-0.8-0.5508-1-0.2333-0.43333-0.2177-0.78216 0.051-1.0488 1.1333-1.1 2.2825-2.5496 3.4492-4.3496 0.4333-0.66666 0.6504-1.1182 0.6504-1.3516 0.033-0.46667-0.3504-0.8-1.1504-1-1.2-0.26667-2.8337-0.2997-4.9004-0.0996l-0.9492 0.30078c-0.3667 0.13333-0.6167 0.0326-0.75-0.30078-0.9-2.2-2.0841-4.1826-3.5508-5.9492-0.3333-0.43333-0.5329-0.68333-0.5996-0.75-0.3333-0.23333-0.6822-0.15-1.0488 0.25-0.7334 0.8-1.3516 1.8-1.8516 3-0.2 0.5-0.5663 1.5988-1.0996 3.2988-0.2667-0.13333-0.567-0.36589-0.9004-0.69922-0.3666-0.43333-0.6166-0.70078-0.75-0.80078-1.5666-1.3333-2.0666-2.9167-1.5-4.75l0.25-0.64844c0.1334-0.3 0.4008-0.55 0.8008-0.75 0.5-0.3 0.8004-0.50156 0.9004-0.60156 1.0333-0.93333 2.0159-2.1155 2.9492-3.5488 1.0667-1.6333 1.2178-3.05 0.4512-4.25-0.3667-0.6-0.9345-0.88294-1.7012-0.84961-0.7667 0.0333-1.5167 0.38216-2.25 1.0488-1.1667 1.0333-1.8992 2.7329-2.1992 5.0996-0.067 0.43333-0.034 1.1678 0.1 2.2012 0.1 0.96667 0.083 1.6992-0.051 2.1992l-0.1 0.34961-0.4004 1-0.1484-0.0996-0.6504-0.65039c-0.2333-0.23333-0.4-0.46589-0.5-0.69922-0.1333-0.26667-0.6663-0.90039-1.5996-1.9004-0.7-0.73333-1.0682-1.5163-1.1016-2.3496-0.033-1.8333-0.7659-3.8837-2.1992-6.1504-0.8-1.2333-1.8-1.7333-3-1.5-1.3333 0.3-2 1.2012-2 2.7012 0 1.0667 0.3333 2.0667 1 3 0.4333 0.56667 1.2008 1.2992 2.3008 2.1992 0.3333 0.26667 0.9825 0.58255 1.9492 0.94922 0.8333 0.36667 1.4341 0.73489 1.8008 1.1016 0.5666 0.6 1.6984 2.0651 3.3984 4.3984 0.1334 0.13333 0.1197 0.20117-0.049 0.20117-1.3333 0.13333-2.25 0.21667-2.75 0.25-1 0-1.9012-0.13372-2.7012-0.40039-1.9-0.66667-4.2992-0.66667-7.1992 0-0.8 0.16667-1.3659 0.51745-1.6992 1.0508-0.3334 0.53333-0.4012 1.1826-0.2012 1.9492 0.2667 0.9 0.883 1.5163 1.8496 1.8496 1.0334 0.33333 2.1167 0.38372 3.25 0.15039 0.8-0.2 1.7671-0.59922 2.9004-1.1992 0.6333-0.33333 1.5171-0.91667 2.6504-1.75 1.0333-0.63333 2.0508-0.90078 3.0508-0.80078 0.1666 0.0333 0.5484 0.0159 1.1484-0.0508 0.4667-0.0667 0.7516-0.0318 0.8516 0.10156 1.7333 1.8667 2.8321 2.9984 3.2988 3.3984l-3.1504 0.45117c-0.5333 0.0667-1.4984 0.4-2.8984 1-0.6 0.26667-1.0167 0.58255-1.25 0.94922-0.2667 0.36667-0.2843 0.71745-0.053 1.0508 1.2 1.9667 2.7174 3.6159 4.5508 4.9492 0.067 0.0667 0.1656 0.11706 0.2989 0.15039 0.1333 0.0667 0.1678 0.20039 0.1015 0.40039-0.1 0.36667-0.2666 0.88216-0.5 1.5488-0.1666 0.56666-0.2151 1.0841-0.1484 1.5508 0.1333 0.6-0.1012 0.79961-0.7012 0.59961-0.4437-0.13653-0.9717-0.0202-1.459-0.0254-0.049-2e-3 -0.1455-0.0231-0.1914-0.0234-0.057 9e-5 -0.089 0.0164-0.1445 0.0176-0.3596 0.0181-0.6723-0.10379-1.0547-0.0176-0.5667 0.13333-1.4504 0.46667-2.6504 1s-2.3996 0.7155-3.5996 0.54883c-1.6-0.16667-2.9663-0.0988-4.0996 0.20117-1.8667 0.53333-3.3841 1.8822-4.5508 4.0488-1.3 2.6667-2.6488 4.5-4.0488 5.5-0.5667 0.33333-0.9679 0.60078-1.2012 0.80078l-3.4998 11.15c-0.7571 0.90855 0.5387 2.9502 3.5994 4.6992 0.5334 0.3 1.3337 0.71667 2.4004 1.25 0.9436 0.5392 2.1668 0.57483 3.4375 0.52539 0.2203 0.0131 0.3859 0.12476 0.6133 0.125l0.1562-6e-3c0.017-2e-3 0.026 8e-3 0.043 6e-3 0.9369-0.11356 1.9243-0.0291 2.9277 0.11719 0.9088 0.0926 1.9024 0.3639 2.9883 0.83008 0.4165 0.15428 0.8078 0.20845 1.2344 0.40234 0.6333 0.26667 1.3659 0.45078 2.1992 0.55078 0.5 0.0667 1.2345 0.15 2.2012 0.25 0.8667 0.13333 2.3667 0.0151 4.5-0.35156 0.3713-0.0668 0.496-0.27565 0.8242-0.36719 0.2562-0.058 0.7561-0.0672 0.9746-0.13281 0.7029-0.1875 1.2533-0.52084 1.6504-1 0.077-0.0559 0.1605-0.10431 0.25-0.14844 0.1333-0.13333 0.2496-0.0849 0.3496 0.14844l3.3012 3.3009c0.5 0.50001 0.6047 0.68966 0.8848 1.0176 0.366 0.42631 0.7759 0.80181 0.9648 1.4316 0.024 0.0728 0.08 0.12535 0.1055 0.19726 0.248 0.61199 0.5516 1.365 0.5957 1.4531 0.1728 0.30259 0.456 0.64205 0.7129 0.97266 0.2074 0.29025 0.4331 0.56871 0.6738 0.83789 0.2512 0.277 0.5063 0.55902 0.9121 0.99023 0.2466 0.26198 0.653 0.44375 0.9707 0.66992 0.1625 0.11411 0.2584 0.27039 0.4297 0.37891 0.051 0.034 0.195 0.0563 0.25 0.0898 0.1702 0.0932 0.2637 0.22493 0.4492 0.31055 0.067 0.0333 0.8516 0.33372 2.3516 0.90039 0.3666 0.13333 0.95 0.28255 1.75 0.44922 0.1286 0.0386 0.1899 0.12777 0.3086 0.17383 0.454 0.17677 1.0089 0.52074 1.748 1.166 1.0147 0.98782 1.8894 1.8344 1.9434 1.8613 0.9333 0.83333 1.8325 1.4496 2.6992 1.8496 0.368 0.16357 0.855 0.1634 1.2676 0.26562 0.1011 0.0226 0.2327 0.16814 0.332 0.1836 0.3469 0.0317 0.5143 0.0318 0.7754 0.0488 0.2582 0.0279 0.4518 0.14455 0.7246 0.15234 0.7 0 1.7175-0.0833 3.0508-0.25 2.3-0.23333 4.6159-0.0667 6.9492 0.5 0.02 5e-3 0.037-1.2e-4 0.057 6e-3 0.035 5e-3 0.1688 0.04 0.1954 0.043h0.1621c1.428 0.30419 2.7442 0.27174 3.9804 0h0.5586c0.1-0.0128 0.153-0.1254 0.2461-0.15234 0.08-0.0266 0.1725-0.0177 0.252-0.0469 0.2391-0.0884 0.4344-0.37546 0.6621-0.51562 0.038-0.045 0.1025-0.0344 0.1387-0.084l0.031-0.0469c0.1756-0.11994 0.3489-0.25074 0.5176-0.40235 0.2531-0.0928 0.4885-0.19913 0.6016-0.40039v-0.05082l0.021-0.0312c0.1683-0.19911 0.3179-0.4828 0.4786-0.7168v0.0488c0.6432-1.0544 0.9815-1.7096 1.121-2.1035 0.102-0.23024 0.2281-0.3494 0.3262-0.59766 0.1426-0.3752 0.1987-0.48268 0.3262-0.81055 0.9445-2.3292 1.8355-3.9635 2.6894-5.1172 0.2056-0.26149 0.3681-0.64415 0.586-0.8711 1.7333-1.7667 2.4659-3.9508 2.1992-6.5508-0.2333-1.8667-0.049-3.4171 0.5508-4.6504 0.1401-0.26545 0.1393-0.58902 0.2207-0.87891 0.085-0.26098 0.2517-0.63868 0.2812-0.82031 0-0.0374-0.038-0.10648-0.037-0.14453 0.041-0.76727-0.062-1.5949-0.3652-2.5059-0.6667-1.6667-1.1512-2.9167-1.4512-3.75-0.091-0.25107-0.071-0.33479-0.068-0.44531 0.039-0.0757 0.086-0.14344 0.1386-0.20508 0.082-0.0141 0.1321-0.044 0.3301 0 0.3992 0.0868 0.8087-0.0265 1.2109 0l0.5918 0.0508c0.1068-8.7e-4 0.2064-0.0461 0.3125-0.0508 0.7398-0.0338 1.4826-0.12608 2.2325-0.36133 0.1056-0.0333 0.2074-0.0934 0.3125-0.13086 0.7942-0.27814 1.5852-0.50443 2.3906-1.0078 0.7667-0.5 1.567-0.75 2.4004-0.75 0.1068 4e-3 0.2189-0.11277 0.3262-0.11914 0.8753-0.0502 1.6212-0.34279 2.2675-0.82422 0.053-0.0374 0.1033-0.0169 0.1563-0.0566 0.1845-0.13838 0.1981-0.32839 0.3554-0.47461 0.2637-0.27681 0.5787-0.458 0.795-0.82422 0.054-0.0663 0.1044-0.1341 0.1504-0.20117l0.3007-0.59961c0.01-0.0144 0-0.0267 0-0.041 0.037-0.0952 0.1665-0.16225 0.1954-0.25976 0.081-0.28795-0.1182-0.74844-0.1211-1.0879 0.1131-0.16746 0.1919-0.34647 0.1738-0.56055-0.046-0.48899-0.2332-0.8762-0.3789-1.293-0.028-0.0814 0.011-0.12372-0.024-0.20703-0.016-0.0417-0.043-0.0432-0.061-0.084-0.3025-0.72057-0.7371-1.3444-1.3633-1.8301-0.1748-0.1602-0.2832-0.52853-0.4746-0.63672-1.7333-1.0667-3.0492-2.933-3.9492-5.5996-0.5667-1.6667-1.7837-3.3508-3.6504-5.0508-1.5333-1.4333-2.5159-2.6659-2.9492-3.6992-0.9667-2.4667-2.5675-4.0171-4.8008-4.6504-2.0921-0.63096-4.1852-0.41374-6.2773 0.64258-0.01 3e-3 -0.017 2e-4 -0.025 4e-3 0.8669-2.0635 2.3332-3.1132 4.3984-3.1465 0.4-0.0333 0.9504-0.13411 1.6504-0.30078 0.8-0.23333 1.3659-0.36511 1.6992-0.39844 0.9334-0.16667 1.5167-0.25 1.75-0.25 0.7-0.0333 1.2834 0.11589 1.75 0.44922 1.9334 1.3 3.9508 1.8504 6.0508 1.6504 1.3-0.0667 1.9492-0.63451 1.9492-1.7012 0.033-0.7-0.3155-1.3822-1.0488-2.0488-0.7-0.6-1.483-0.93333-2.3496-1-1.4-0.0667-3.2004 0.38294-5.4004 1.3496-0.9333 0.43333-2.2008 0.74922-3.8008 0.94922-2.1333 0.26667-3.4667 0.46823-4 0.60156 1.3-1.8 2.3833-3.2671 3.25-4.4004 0.1667-0.2 0.3663-0.51784 0.5996-0.95117 0.2667-0.36667 0.5671-0.59922 0.9004-0.69922l2.9004-1.1504c0.4-0.16667 0.8496-0.44961 1.3496-0.84961 0.2667-0.23333 0.6504-0.56667 1.1504-1 0.5333-0.36667 0.9171-0.84922 1.1504-1.4492 0.2667-0.63333 0.2805-1.1837 0.049-1.6504-0.2-0.4-0.6651-0.70039-1.3984-0.90039-0.7334-0.16667-1.3516-0.1494-1.8516 0.0508-1.5 0.63333-2.7151 1.8988-3.6484 3.7988-0.2 0.46667-0.4849 1.1837-0.8516 2.1504-0.3333 0.86667-0.7151 1.5663-1.1484 2.0996-2.2667 2.7-4.2182 5.3337-5.8516 7.9004l-0.25 0.25-0.1-0.19922c-0.4333-1.8667-0.9663-3.2349-1.5996-4.1016-0.4667-0.7-0.6837-1.2833-0.6504-1.75 0.067-0.5 0.433-1 1.0996-1.5 1.1667-0.83333 2-2.033 2.5-3.5996 0.4667-0.73333 0.7516-1.2992 0.8516-1.6992 0.1666-0.66667-0.3179-1.1163-1.4512-1.3496-0.8-0.16667-1.7322-0.2345-2.7988-0.20117-1.2334 0.13333-2.1675 0.21667-2.8008 0.25-0.3 0.13333-0.5326 0.21667-0.6992 0.25-0.3 0.1-0.5171 0.0496-0.6504-0.15039-1.0333-1.7333-1.8163-3.0318-2.3496-3.8984-0.1667-0.26667-0.1373-0.48372 0.1-0.65039l3.8496-2.8008 0.051-0.0488c0.3333-0.23333 0.5659-0.33411 0.6992-0.30078 0.7667 0.33333 1.9837 0.5 3.6504 0.5 2.1333 0.0667 3.7342-0.15039 4.8008-0.65039 1-0.46667 1.5659-1.0655 1.6992-1.7988 0.1333-0.7-0.1825-1.3337-0.9492-1.9004-0.7333-0.46667-1.6829-0.73411-2.8496-0.80078-0.6-0.0333-1.2337 0.0829-1.9004 0.34961-0.2333 0.1-0.8012 0.40039-1.7012 0.90039-0.4 0.23333-0.8826 0.61706-1.4492 1.1504-0.6334 0.63333-1.0829 1.0326-1.3496 1.1992l-1.0996 0.75c-2.6667 1.8333-4.0833 2.8004-4.25 2.9004-0.067 0.0333-0.2179 3e-4 -0.4512-0.0996-0.4667-0.3-0.8155-0.74961-1.0488-1.3496-0.1667-0.76667-0.3179-1.3345-0.4512-1.7012-0.2333-0.7-0.3496-1.2-0.3496-1.5-0.033-0.53333 0.1992-0.98294 0.6992-1.3496 0.1667-0.1 0.3508-0.31706 0.5508-0.65039 0.2333-0.33333 0.4175-0.56589 0.5508-0.69922 0.1333-0.1 0.583-0.65039 1.3496-1.6504 0.5-0.7 1.0834-1.0663 1.75-1.0996 0.8-0.1 1.6159-0.36745 2.4492-0.80078 0.7333-0.36667 1.8167-1.0333 3.25-2 0.6-0.33333 0.9837-0.78294 1.1504-1.3496 0.1666-0.56667 0.083-1.1829-0.25-1.8496-0.4667-0.9-1.3329-1.2159-2.5996-0.94922-0.9 0.23333-1.7179 0.71589-2.4512 1.4492-0.5 0.5-1.0833 1.2674-1.75 2.3008-0.1 0.2-0.2492 0.59922-0.4492 1.1992-0.2 0.53333-0.4171 0.93255-0.6504 1.1992l-3.9004 4.6504-0.25 0.0996-0.1-0.19922-1.8008-4.9492c-0.3-0.56666-0.4996-0.98333-0.5996-1.25-0.2-0.5-0.1341-0.95156 0.1992-1.3516 0.1-0.1 0.5167-0.69883 1.25-1.7988 0.5-0.73333 1.0504-1.2508 1.6504-1.5508 2.2667-1.0333 4.0012-2.6496 5.2012-4.8496 0.3333-0.6 0.4321-1.2996 0.2988-2.0996-0.1333-0.76667-0.4337-1.2841-0.9004-1.5508-0.6666-0.33333-1.3992-0.3491-2.1992-0.0488-0.7667 0.3-1.35 0.8-1.75 1.5-0.7 1.1333-1.2 2.4996-1.5 4.0996-0.067 0.43333-0.1674 1.0496-0.3008 1.8496-0.1333 0.66667-0.3988 1.2171-0.7988 1.6504-0.7333 1.0333-1.3167 1.8163-1.75 2.3496-0.3-0.36667-0.5675-0.88412-0.8008-1.5508-0.3333-0.93333-0.5329-1.4818-0.5996-1.6484-0.2333-0.5-0.8341-1.5174-1.8008-3.0508-0.8-1.2333-1.3155-2.2992-1.5488-3.1992-0.1333-0.5-0.5345-1.4671-1.2012-2.9004-0.5333-1.0333-0.9655-1.7833-1.2988-2.25-0.5667-0.76667-1.2333-1.3345-2-1.7012-0.4993-0.24968-0.9866-0.35715-1.461-0.32422zm0.9141 1.375c0.8 0.26667 1.4512 0.79961 1.9512 1.5996 0.3333 0.46667 0.7325 1.2012 1.1992 2.2012l1.1504 2.4492c-1.6-0.66667-2.8345-1.3159-3.7012-1.9492-1.1666-0.86666-2-1.95-2.5-3.25-0.1-0.4-0.017-0.71784 0.25-0.95117 0.3667-0.33333 0.9171-0.36637 1.6504-0.0996zm16.9 4.6992c0.4-0.13333 0.6674 0.0178 0.8008 0.45117 0.3333 0.76667 0.25 1.5322-0.25 2.2988-0.3 0.53333-0.7671 1.1012-1.4004 1.7012-0.9667 0.93333-1.4841 1.4333-1.5508 1.5-0.4667 0.46667-0.7496 0.58294-0.8496 0.34961-0.1667-0.6-0.1823-1.1329-0.051-1.5996 0.4334-1.3667 0.8345-2.4171 1.2012-3.1504 0.5667-1.1 1.2663-1.6174 2.0996-1.5508zm5.5996 8.8516c0.4333-0.1 0.8345-0.0341 1.2012 0.19922 0.3666 0.26667 0.5488 0.65039 0.5488 1.1504s-0.4322 0.93216-1.2988 1.2988c-0.3334 0.13333-0.9012 0.48411-1.7012 1.0508-0.6667 0.46667-1.2655 0.74961-1.7988 0.84961-0.1334 0-0.5171 0.10078-1.1504 0.30078 0.1667-0.73333 0.2829-1.1345 0.3496-1.2012 0.8-1.2 1.3174-1.9326 1.5508-2.1992 0.6666-0.73333 1.4321-1.2159 2.2988-1.4492zm-23.486 0.52344c0.325-0.0667 0.6859 0.01 1.0859 0.22656 0.5 0.3 1.25 0.71667 2.25 1.25 0.8 0.5 1.4512 1.0329 1.9512 1.5996 0.067 0.0667 0.1829 0.15 0.3496 0.25 0.1333 0.0667 0.1627 0.1655 0.1 0.29883-0.067 0.1-0.2992 0.15039-0.6992 0.15039h-0.8496c-1.4334-0.16667-2.2008-0.25-2.3008-0.25-0.9-0.2-1.6674-0.54883-2.3008-1.0488-0.7666-0.56666-0.9159-1.1849-0.4492-1.8516 0.25-0.35 0.5383-0.55833 0.8633-0.625zm28.336 9.375c0.9-0.0667 1.6675 0.15039 2.3008 0.65039 0.4 0.23333 0.5667 0.48333 0.5 0.75-0.2 0.7-0.6341 1.1012-1.3008 1.2012-1.0333 0.13333-2.5818 0.26511-4.6484 0.39844-0.3 0.0333-0.9182-0.0326-1.8516-0.19922-0.1666-0.0333-0.2325-0.0992-0.1992-0.19922 0-0.0667 0.05-0.1345 0.1504-0.20117 1.8667-1.4667 3.5488-2.2671 5.0488-2.4004zm-26.6 0.25c1 0.26667 2.2171 0.90039 3.6504 1.9004l3 1.9004 0.25 0.34961-0.4004 0.20117c-0.3 0.16667-0.6663 0.28294-1.0996 0.34961-0.5333 0.1-0.9171 0.16589-1.1504 0.19922-1.4333-0.1-2.35-0.19883-2.75-0.29883-1-0.23333-1.8004-0.66745-2.4004-1.3008-0.6-0.66667-0.8655-1.3004-0.7988-1.9004 0.2-1.1667 0.7659-1.6337 1.6992-1.4004zm13.701 6.3008c1.2 1.1667 2.4325 2.9826 3.6992 5.4492 0.2333 0.5 0.5337 0.68411 0.9004 0.55078 0.2-0.0667 0.4829-0.20039 0.8496-0.40039 1.4667-0.16667 2.3174-0.2655 2.5508-0.29883 0.9666-0.0667 1.8155-0.0182 2.5488 0.14844h1.2012c-1.1334 2.8333-2.55 4.9341-4.25 6.3008-0.5 0.4-0.6841 0.79922-0.5508 1.1992 0.1 0.23333 0.3171 0.56667 0.6504 1 0.7333 1.4333 1.1829 2.3171 1.3496 2.6504 0.4333 1 0.7337 1.9167 0.9004 2.75 0.033 0.33333-0.1178 0.4845-0.4512 0.45117-0.4333-0.1-0.7318-0.15039-0.8984-0.15039-0.5667 0.0667-1.2682-0.0671-2.1016-0.40039-1.0666-0.36667-1.7818-0.58372-2.1484-0.65039-0.3202-0.0413-0.6066 0.0906-0.918 0.0937-0.05-3e-3 -0.1877-0.0421-0.2324-0.043l-1 0.0996c-0.074 0.0141-0.1325 0.071-0.2051 0.0879-0.5587 0.13823-1.0914 0.40702-1.6191 0.70313-0.2258 0.13471-0.4558 0.25578-0.67 0.42382-0.3298 0.23396-0.6878 0.33551-1.0058 0.63477-0.3 0.3-0.8 0.51706-1.5 0.65039-1.7 0.33333-3.5837 0.38372-5.6504 0.15039-0.4333-0.0333-0.449-0.51784-0.051-1.4512 1.1334-2.4333 1.9667-3.9818 2.5-4.6484 0.1334-0.13333 0.1334-0.2845 0-0.45117-0.2-0.13333-0.3318-0.23216-0.3984-0.29883-2.0334-1.5667-3.6012-3.0337-4.7012-4.4004-0.3667-0.56667-0.6496-0.98333-0.8496-1.25l1.6504-0.59961c2.4-0.6 4.5996-0.88489 6.5996-0.85156 0.2667 0.0333 0.4159-0.0984 0.4492-0.39844 0-0.33333 0.017-0.56784 0.051-0.70117 0.5-1.8 1.3333-3.8659 2.5-6.1992 0.2-0.43333 0.4674-0.48372 0.8008-0.15039zm-40.15 1.1992c1.3 0.13333 2.2322 0.98411 2.7988 2.5508 0.1334 0.4 0.3679 1.0008 0.7012 1.8008 0.2333 0.7 0.367 1.3163 0.4004 1.8496 0 0.0667 0.033 0.24883 0.1 0.54883 0.033 0.2 0.033 0.36667 0 0.5-0.4667-0.16667-0.8-0.31589-1-0.44922-1.2333-0.86667-1.9175-1.3492-2.0508-1.4492-0.7333-0.6-1.2663-1.2337-1.5996-1.9004-0.3-0.63333-0.4667-1.1333-0.5-1.5-0.033-0.6 0.1508-1.1174 0.5508-1.5508 0.2666-0.26667 0.4663-0.40039 0.5996-0.40039zm14.299 1.5c0.6 0.16667 0.85 0.75 0.75 1.75-0.4666 1.3-1.2496 2.5345-2.3496 3.7012-0.5667 0.86667-1.117 1.3996-1.6504 1.5996l-0.5 0.30078c-0.1333-0.36667-0.1992-0.63411-0.1992-0.80078 0-2.2 0.5174-4.0159 1.5508-5.4492 0.6666-0.93333 1.4651-1.3016 2.3984-1.1016zm49.852 0.70117c0.5 0.16667 0.7325 0.58333 0.6992 1.25-0.2333 0.8-1.0163 1.6004-2.3496 2.4004-0.9333 0.56667-2.0012 1.0667-3.2012 1.5-0.1666 0.0667-0.25 0.0318-0.25-0.10156 0.067-0.2 0.084-0.33177 0.051-0.39844 0.1-0.1 0.1504-0.20078 0.1504-0.30078 0.6667-1.9333 1.7655-3.3171 3.2988-4.1504 0.6334-0.33333 1.1682-0.39922 1.6016-0.19922zm-24.25 2.2988c-0.2667-0.0333-0.4004 0.11784-0.4004 0.45117-0.033 0.73333 0.017 1.6326 0.1504 2.6992 0.067 0.6 0.1829 1.5012 0.3496 2.7012 0 0.0333 0.099 0.28334 0.2988 0.75 0.1 0.3 0.052 0.49961-0.1484 0.59961-0.3667 0.23333-0.6516 0.4-0.8516 0.5-0.3666 0.13333-0.6496 0.0829-0.8496-0.15039-0.9333-1.0667-1.5825-2.3671-1.9492-3.9004-0.1333-0.36667-0.3175-0.54883-0.5508-0.54883-0.2667 0-0.35 0.18216-0.25 0.54883 0.067 1.0667 0.5841 2.4 1.5508 4 0.033 0.0667 0.099 0.16745 0.1992 0.30078 0.067 0.1-0.017 0.18333-0.25 0.25-0.8 0.36667-1.2825 0.7155-1.4492 1.0488-0.067 0.16667-0.067 0.28489 0 0.35156 0.1 0.16667 0.2163 0.21511 0.3496 0.14844 0.6333-0.33333 1.6159-0.69961 2.9492-1.0996 0.6334-0.23333 1.4337-0.4155 2.4004-0.54883 0.5333-0.0333 1.3163-0.11667 2.3496-0.25 0.2-0.0333 0.4849-0.0508 0.8516-0.0508 0.3-0.0667 0.4492-0.23333 0.4492-0.5s-0.1337-0.38294-0.4004-0.34961h-1.1992l0.1992-0.34961 0.5508-3.4512c0.067-0.4 0.1-0.61706 0.1-0.65039-0.033-0.26667-0.1671-0.46628-0.4004-0.59961-0.1667-0.1-0.3004-0.0167-0.4004 0.25l-0.2988 1.0508c-0.3 1.5667-0.583 2.7663-0.8496 3.5996 0 0.0667-0.3179 0.18294-0.9512 0.34961l-0.1996-0.34958c-0.2333-0.83333-0.433-1.8663-0.5996-3.0996-0.1334-1.4-0.2516-2.4504-0.3516-3.1504-0.067-0.33333-0.1984-0.51745-0.3984-0.55078zm-23.201 7.3008c0.1-0.1 0.2667-0.0825 0.5 0.0508 0.3 0.16667 0.4996 0.38177 0.5996 0.64844 0.1667 0.4 0.5 0.9 1 1.5 0.7667 1.2667 1.5341 2.7182 2.3008 4.3516 0.1667 0.36667 0.5659 0.4655 1.1992 0.29883 2.1667-0.46667 4.25-0.51706 6.25-0.15039l-2.9492 4.1016-0.6504 0.64844c-0.5333 0.4-0.7659 0.86706-0.6992 1.4004 0.033 0.13333 0.2155 0.65078 0.5488 1.5508 0.1334 0.43333 0.55 1.9837 1.25 4.6504 0.033 0.1 0.018 0.29961-0.049 0.59961-0.6 0-1.0341-0.0329-1.3008-0.0996l-4.9492-1.5c-0.4667-0.23333-0.8175-0.4-1.0508-0.5-0.4-0.16667-0.7663-0.11823-1.0996 0.14844l-2.9002 2.3008c-0.4667 0.36667-0.8329 0.58372-1.0996 0.65039-0.3667 0.0667-0.7504-0.0845-1.1504-0.45117-0.4667-0.46667-1.0655-0.78255-1.7988-0.94922-0.1-0.0333-0.1504-0.16706-0.1504-0.40039 0.033-1.1333 0.3163-2.3988 0.8496-3.7988 0.1333-0.4 0.05-0.71784-0.25-0.95117-0.4-0.16667-0.6674-0.30039-0.8008-0.40039-1.9-1.5333-3.1984-2.9984-3.8984-4.3984-0.1667-0.33333 0.2151-0.65117 1.1484-0.95117 1.3334-0.63333 2.7675-0.98216 4.3008-1.0488 1.0333-0.0333 1.6826-0.1845 1.9492-0.45117 0.3-0.23333 0.6004-0.9 0.9004-2 0.5-1.9333 1.1667-3.5496 2-4.8496zm49.326 0.46289c1.0833-0.0917 2.1579 0.1375 3.2246 0.6875 0.3667 0.2 0.6322 0.4655 0.7988 0.79883 0.1667 0.33333 0.153 0.65117-0.049 0.95117-0.4 0.7-1.15 0.93255-2.25 0.69922-1.9667-0.36667-3.6333-1.0004-5-1.9004 1.1-0.73333 2.192-1.1447 3.2754-1.2363zm-67.488 1.6113c1.1417-0.05 2.3951 0.075 3.7617 0.375l1.6504 0.30078c-1.2667 0.93333-2.2996 1.6-3.0996 2-1.2 0.56667-2.3667 0.86706-3.5 0.90039-1.3333 0-2.1841-0.44961-2.5508-1.3496-0.1666-0.36667-0.1666-0.7 0-1 0.1334-0.26667 0.3504-0.45078 0.6504-0.55078 0.9167-0.4 1.9462-0.62578 3.0879-0.67578zm18.613 4.8262c-0.033-0.0333-0.084-0.0178-0.1504 0.0488-0.067 0.0333-0.1 0.0682-0.1 0.10156-0.2334 1.6-0.1171 3.2492 0.3496 4.9492 0.1667 0.63333 0.066 0.99961-0.3008 1.0996-0.5 0-0.8333 0.0329-1 0.0996-0.2 0.1-0.3163 0.0671-0.3496-0.0996-0.033-0.2-0.066-0.33372-0.1-0.40039-0.2-0.43333-0.3667-0.98177-0.5-1.6484-0.1-0.76666-0.2008-1.3345-0.3008-1.7012-0.067-0.23333-0.1655-0.38255-0.2988-0.44922-0.2-0.0333-0.3337 0.10039-0.4004 0.40039-0.2667 1.1333-0.017 2.4822 0.75 4.0488 0.1 0.2 0.1137 0.30078 0.049 0.30078h-0.25c-0.6333 0.0667-1.0984 0.28372-1.3984 0.65039-0.1334 0-0.1197 0.0833 0.049 0.25 0.2 0.2 0.5663 0.21577 1.0996 0.0488 1.7334-0.5 3.8341-0.86628 6.3008-1.0996l0.9004-0.0996c0.3-0.0667 0.4667-0.20039 0.5-0.40039 0-0.23333-0.1337-0.34961-0.4004-0.34961-0.3667 0.0333-0.6167 0.0333-0.75 0l0.5-4.0996c0-0.26667-0.1337-0.36745-0.4004-0.30078-0.1667 0.1-0.25 0.16589-0.25 0.19922-0.4 1.6-0.6655 2.8171-0.7988 3.6504-0.033 0.26667-0.1516 0.45078-0.3516 0.55078-0.033 0.0333-0.2155 0.0837-0.5488 0.15039-0.4 0.0667-0.6345-0.15039-0.7012-0.65039l-0.6484-4.4512c-0.067-0.46667-0.2334-0.73216-0.5-0.79883zm0.5996 12.15c0.067 0.0333 0.1 0.11667 0.1 0.25 0.1333 2.9 0.1837 4.8167 0.1504 5.75-0.033 0.16667-0.2678 0.36628-0.7012 0.59961-0.6333 0.33333-1.0151 0.55039-1.1484 0.65039-0.2667 0.2-0.4682 0.26589-0.6016 0.19922-0.1333-0.0667-0.3-0.23333-0.5-0.5l-1-1c0-0.0491-0.01-0.0952 0-0.15039 0.1546-0.43451 0.1894-0.93451 0.1016-1.5v-0.0488c-0.018-0.14712-0.1761-0.25368-0.209-0.39648-0.061-0.28059 0.079-0.50876-0.041-0.80469-0.1-0.26667 0-0.46628 0.2988-0.59961 0.1333-0.0667 0.3678-0.16745 0.7012-0.30078 0.5-0.5 1.3159-1.1822 2.4492-2.0488 0.1667-0.13333 0.3004-0.16637 0.4004-0.0996z"/>
 <g transform="translate(-1004.2 -563.5)">
  <path transform="translate(160.15,84.1)" d="m849.1 479.4c-3.3333 0-5 1.6667-5 5v158.2c0 3.3333 1.6667 5 5 5h93.199c3.3333 0 5-1.6667 5-5v-158.2c0-3.3333-1.6667-5-5-5zm8.3008 7.1992h76.6c4.6667 0 7 2.3333 7 7v139.8c0 4.6667-2.3333 7-7 7h-76.6c-4.6667 0-7-2.3333-7-7v-139.8c0-4.6667 2.3333-7 7-7z" fill="#ef1d1e"/>
  <path transform="translate(160.15,84.1)" d="m857.4 486.6c-4.6667 0-7 2.3333-7 7v139.8c0 4.6667 2.3333 7 7 7h76.6c4.6667 0 7-2.3333 7-7v-139.8c0-4.6667-2.3333-7-7-7z" fill="none" stroke="#000" stroke-width="1.2"/>
 </g>
</svg>
