<svg width="103.2" height="168.2" preserveAspectRatio="none" version="1.1" viewBox="0 0 103.2 168.2" xmlns="http://www.w3.org/2000/svg">
 <path d="m13.301 7.1992c-4.6667 0-7 2.3333-7 7v139.8c0 4.6667 2.3333 7 7 7h76.6c4.6667 0 7-2.3333 7-7v-139.8c0-4.6667-2.3333-7-7-7z" fill="#fff"/>
 <path d="m3.3496 2.1992 0.40039 34.951c1.399 0.80773 6.8496-0.0441 6.8496-0.20121 1.5667-0.33333 3.0996-0.5 4.5996-0.5 1 0 1.75 0.0349 2.25 0.10156l0.35156 0.0488h0.0488c0.46667 0.1 0.98411 0.15039 1.5508 0.15039 0.7 0 1.2329-0.10078 1.5996-0.30078 0.0667-0.0667 0.15-0.0996 0.25-0.0996h0.0508c0.13333 0 0.24961 0.0504 0.34961 0.15039 0.23333 0.23333 0.56667 0.34961 1 0.34961h0.29883c0.0667 0 0.1345 0.0175 0.20117 0.0508 0.46667 0.2 0.88333 0.29883 1.25 0.29883 0.3 0 0.55-0.0329 0.75-0.0996 0.0667-0.0333 0.15-0.0488 0.25-0.0488 0.0667 0 0.13255 0.0155 0.19922 0.0488l1.0508 0.45117c0.73333 0.23333 1.3496 0.36511 1.8496 0.39844h0.15039l0.40039-0.0488c0.1 0 0.18333 0.0155 0.25 0.0488 0.0667 0.0333 0.13255 0.0837 0.19922 0.15039 0.1 0.1 0.26667 0.18333 0.5 0.25 2.7667 0.5 5.7492 1.5504 8.9492 3.1504v0.0508l0.25 0.14844v-0.0488c2.2333 1.1333 3.8167 2.1004 4.75 2.9004 0.36667 0.3 1.2 1.0984 2.5 2.3984h0.0508l0.55078 0.60156h-0.0508c0.23333 0.23333 0.46589 0.36511 0.69922 0.39844 0.1 0 0.18333 0.0349 0.25 0.10156 0.0667 0.0667 0.1345 0.15 0.20117 0.25l0.0996 0.34961 0.0508 0.0488c0.63333 1.2 1.7496 2.1671 3.3496 2.9004l-48.551 70.451 0.25 43 96.65 0.25 0.74999-163.05z" fill="#ef1d1e"/>
 <path d="m23.051 4.3008c-0.1333 0-0.25156 0.0484-0.35156 0.14844l-18.898 17.75c-0.2 0.2-0.2 0.45 0 0.75l0.19922 0.20117c0.1333 0.0333 0.28252 0.0159 0.44922-0.0508l4.8008-3.5488c0.8-0.6 3.5676-2.7008 8.3008-6.3008l8.5-6.3496-0.65039 1.0996-0.0508 0.0508-4.7988 6.6484c-0.5667 0.83333-1.1016 1.4516-1.6016 1.8516-0.7 0.56667-1.6321 1.15-2.7988 1.75-1.3 0.66667-2.2845 1.1667-2.9512 1.5l-9.5488 5.3984c-0.3667 0.2-0.46748 0.4345-0.30078 0.70117 0.1 0.2 0.31709 0.21577 0.65039 0.0488 0.7667-0.43333 1.8829-1.0651 3.3496-1.8984 1.6-0.7 3.9179-1.9345 6.9512-3.7012l3.3984-1.9004-4.3496 5.9004c-1.7 2.2667-2.8996 3.9178-3.5996 4.9512-1.5667 2.3333-3.3496 4.783-5.3496 7.3496l-0.40229 86.299c0.8 1.1 2.1333 2.6349 4 4.6016 1.4333 1.6333 2.9837 3.1159 4.6504 4.4492h-0.75c-2.5333-0.26667-5.0004-0.2494-7.4004 0.0508l-0.5 0.0488c-0.5333 0.0667-0.80078 0.18294-0.80078 0.34961 0.033 0.33333 0.30078 0.46706 0.80078 0.40039l0.44922-0.0488c1.4667 0.0333 3.6683 0.0488 6.6016 0.0488l1.3984-0.0488c0.5667 0 0.9833 0.0659 1.25 0.19922 0.5 0.23333 1.1008 0.59961 1.8008 1.0996 0.3667 0.3 0.95 0.74961 1.75 1.3496-2.5-0.16667-4.0175-0.23255-4.5508-0.19922-2.3-0.1-4.0325-0.13303-5.1992-0.0996l-4.0508 0.29883c-0.067 0-0.16553 0.0349-0.29883 0.10156-0.1333 0.1-0.20117 0.18333-0.20117 0.25 0 0.13333 0.068 0.19922 0.20117 0.19922 0.067 0.0333 0.16553 0.0508 0.29883 0.0508h1c5.9999 0 10 0.0484 12 0.14844 0.83329 0.0333 1.3837 0.0837 1.6504 0.15039 0.6 0.13333 1.1175 0.40078 1.5508 0.80078 0.2667 0.26667 0.38291 0.48372 0.34961 0.65039 0 0.0333-0.11631 0.2-0.34961 0.5-0.4 0.4-0.66748 0.71589-0.80078 0.94922-0.1667 0.4-0.5 0.59961-1 0.59961l-4.6504-0.29883c-1.8333-0.1-3.3992-0.0845-4.6992 0.0488-2.2333 0.16667-3.7004 0.31784-4.4004 0.45117h-0.0996c-0.3667 0.0667-0.58369 0.23333-0.65039 0.5 0 0.0333 0.05 0.0818 0.15039 0.14844 0.1 0.0667 0.16592 0.10156 0.19922 0.10156h0.30078l3-0.20117c0.9-0.13333 2.0163-0.19922 3.3496-0.19922h3.3496c0.3333 0 1.1008 0.0329 2.3008 0.0996 0.9333 0.0667 1.6833 0.0492 2.25-0.0508-0.2 1.0667-0.2833 1.7682-0.25 2.1016v0.0996c0.067 0.56667-0.15039 0.83216-0.65039 0.79883-0.8333-0.1-1.7171-0.14844-2.6504-0.14844h-2.0996c-0.8333-0.0333-1.5155-0.0837-2.0488-0.15039-2.1333-0.2-4.1334-0.16697-6 0.0996l-0.40039 0.25 0.15039 0.0996c0.7333 0.13333 1.2817 0.20117 1.6484 0.20117l3.5508 0.0488c0.4667 0.0333 1.8175 0.10117 4.0508 0.20117 1.6333 0.1 2.9667 0.14844 4 0.14844 0.4 0 0.65 0.0349 0.75 0.10156 0.1667 0.0667 0.29844 0.24883 0.39844 0.54883 0.067 0.23333 0.0512 0.51628-0.0488 0.84961-0.1 0.36667-0.15039 0.63411-0.15039 0.80078h-0.15039c-3 0-5.25-0.0659-6.75-0.19922-1.0333-0.1-2.8667-0.0516-5.5 0.14844l-2.5488 0.45117 0.44922 0.15039 0.80078 0.14844c4.2333 0.0667 8.4988 0.0667 12.799 0 0.2667 0 0.4333 0.0349 0.5 0.10156 0.033 0.1 6.9e-4 0.28216-0.0996 0.54883-0.1667 0.5-0.25 1.1337-0.25 1.9004 0 0.2-0.066 0.28333-0.19922 0.25-1.8-0.0333-3.1333-0.0663-4-0.0996-1.8667-0.13333-3.2833-0.21667-4.25-0.25-1.6333-0.1-3.05-0.0496-4.25 0.15039l-0.40039 0.14844c0.033 0.13333 0.18252 0.23411 0.44922 0.30078 1 0.23333 2.5175 0.33411 4.5508 0.30078 2.6666 0.16667 5.0504 0.25 7.1504 0.25 0.8 0 1.3 0.28294 1.5 0.84961l0.39844 1.0996c0.3667 0.9 0.084 1.2508-0.84961 1.0508l-1.6992-0.15039c-2.2667-0.0333-4.5496-0.0333-6.8496 0l-5 0.34961-0.30078 0.0996-0.25 0.15039 0.25 0.19922 0.34961 0.15039c3.7333 0.0667 6.2179 0.0667 7.4512 0 1.1667-0.1 2.8992-0.15039 5.1992-0.15039 1.0333 0 1.6671 0.15117 1.9004 0.45117 0.2667 0.3 0.33252 0.98216 0.19922 2.0488 0 0.2-0.083 0.28333-0.25 0.25-3.5666-0.1-5.7004-0.18333-6.4004-0.25-1.3666-0.0333-2.3996-0.0818-3.0996-0.14844-1.9333-0.26667-3.7163-0.26667-5.3496 0l-0.15039 0.0488c-0.1 0-0.1833 0.11628-0.25 0.34961l0.15039 0.10156h0.25c1.4667 0.1 3.6333 0.21628 6.5 0.34961 3.8 0.1 6.0675 0.18333 6.8008 0.25 0.2333 0.0333 0.63252-0.05 1.1992-0.25 0.4667-0.0667 0.73408 0.24922 0.80078 0.94922 0.067 0.43333 0.24883 0.73372 0.54883 0.90039 0.067 0.0333 0.18291 0.16706 0.34961 0.40039l-0.5 0.0996c-0.9-0.1-1.3651-0.15039-1.3984-0.15039h-14.301c-0.3333 0-0.5 0.19961-0.5 0.59961 0 0.36667 0.1667 0.55078 0.5 0.55078l0.34961 0.0508h10c0.4333 0 1.4179 0.0329 2.9512 0.0996 1.2 0.0333 2.1651 0.0333 2.8984 0 1.9-0.1 4.7508-0.1 8.5508 0 2.5667-0.0667 4.3167-0.0512 5.25 0.0488 0.8333 0.0667 1.8663 0.10156 3.0996 0.10156 0.7 0 1.7504-0.0175 3.1504-0.0508h48.75c0.3 0 0.4667-0.11628 0.5-0.34961 0.067-0.3-0.05-0.45117-0.34961-0.45117-1.4667-0.13333-2.55-0.19922-3.25-0.19922l-16.15-0.0508c-2.3667-0.1-4.1496-0.14844-5.3496-0.14844l-16.149-0.05058c-6.7666 0.0667-11.833 0.0337-15.199-0.0996-1.3667-0.0667-3.4345-0.0337-6.2012 0.0996h-4.25c0.1667-0.33333 0.4167-0.63372 0.75-0.90039 0.2-0.16667 0.50039-0.38372 0.90039-0.65039 0.4-0.36667 0.95039-0.51589 1.6504-0.44922 1.0667 0.0667 1.6325 0.0996 1.6992 0.0996 1-0.1 2.2675-0.13303 3.8008-0.0996 0.8333 0 2.0988 0.0175 3.7988 0.0508l6.4512-0.0508c0.8667 0 2.1496-0.0504 3.8496-0.15039l8.0508-0.0488c1.7333 0 4.3167-0.0504 7.75-0.15039l23.398-0.55078c0.2 0 0.30078-0.11628 0.30078-0.34961 0.033-0.1-0.068-0.15039-0.30078-0.15039l-3.1992-0.09964c-1.8667 0.0667-3.2659 0.0492-4.1992-0.0508-0.5333-0.0667-1.2175-0.0667-2.0508 0-1.1 0.1-1.7996 0.15039-2.0996 0.15039l-9.6504 0.0508c-3.2 0.1-5.5992 0.15039-7.1992 0.15039-1.7-0.2-2.95-0.23489-3.75-0.10156-0.7667 0.1-1.7183 0.16784-2.8516 0.20117h-2.8496c-0.9 0.0333-1.5821 0.0488-2.0488 0.0488-0.8333 0-1.5504-0.0329-2.1504-0.0996-0.4333-0.0667-1.0012-0.0667-1.7012 0-0.8667 0.1-1.4325 0.15039-1.6992 0.15039-3.7667 0.0667-6.6 0.0841-8.5 0.0508-2.4 0-3.8496 0.0155-4.3496 0.0488 0.2667-0.1 0.99922-0.31706 2.1992-0.65039 0.3-0.1 0.58291-0.14844 0.84961-0.14844 0.3333 0 0.81787 0.0329 1.4512 0.0996 0.5667 0 1.0492-0.10078 1.4492-0.30078 1.9667-1.1667 3.8-1.6822 5.5-1.5488 2.3333 0.2 5.8509 0.23303 10.551 0.0996l16.1-0.0996c1.8333 0.0333 4.5833 0.0663 8.25 0.0996 3.2 0.0333 5.95-0.0345 8.25-0.20117 0.3333-0.0667 0.5-0.1655 0.5-0.29883-0.067-0.23333-0.25078-0.34961-0.55078-0.34961-0.6333 0.0667-1.3 0.0667-2 0l-41.648-0.30073c-0.033 0-0.15156-0.0504-0.35156-0.15039l0.15039-0.0996c1.8333-0.96667 4.033-1.0829 6.5996-0.34961 0.6 0.2 1.1679 0.29883 1.7012 0.29883 0.7 0 1.3492-0.11628 1.9492-0.34961 0.4333-0.16667 1.0496-0.46706 1.8496-0.90039 0.7333-0.36667 1.4175-0.54883 2.0508-0.54883 2.3-0.1 4.833 0.21589 7.5996 0.94922l0.70117 0.15039c0.6 0.16667 1.3151 0.25 2.1484 0.25 1.1667 0 2.6841-0.21706 4.5508-0.65039 0.5-0.1 1.2171-0.31706 2.1504-0.65039 0.8667-0.3 1.6167-0.43177 2.25-0.39844 0.7 0 1.7659-0.0175 3.1992-0.0508h2.5l1.3008 0.19922c0.3333 0.0667 0.51553 0.10156 0.54883 0.10156 0.2333-0.0333 0.4-0.16706 0.5-0.40039 0.067-0.16667 0.0512-0.30039-0.0488-0.40039-0.1333-0.1-0.26709-0.15039-0.40039-0.15039l-6.6992-0.15039 2.1992-1.0996c2.0667-0.93333 3.7992-1.3829 5.1992-1.3496 0.8 0.0667 2.0016 0.21589 3.6016 0.44922 1.4 0.2 2.5821 0.15156 3.5488-0.14844 2-0.63333 3.6512-1.8504 4.9512-3.6504 0.3667-0.43333 0.48291-0.81706 0.34961-1.1504-0.1333-0.3-0.53447-0.36589-1.2012-0.19922-2 0.43333-3.8992 0.49922-5.6992 0.19922-2.3333-0.4-4.0659-0.58411-5.1992-0.55078-0.4667 0.0333-0.73408-0.0151-0.80078-0.14844-0.033-0.0667-0.033-0.1345 0-0.20117 0.3-0.33333 0.43369-0.56589 0.40039-0.69922 0.033-0.1 0.0488-0.16784 0.0488-0.20117-0.1-0.3 7.8e-4 -0.44922 0.30078-0.44922l0.19922 0.0508c0.8 0.33333 1.6837 0.44961 2.6504 0.34961 0.5667-0.0667 1.4175-0.26628 2.5508-0.59961 2.9-0.9 5.8496-2.4678 8.8496-4.7012 2.3333-1.7333 4.5-3.9155 6.5-6.5488l-0.70121-94.201-3.1504 1.4004c-2.3312 0.98268-4.0987 1.8819-5.3008 2.6992h0.043c-2.6703 1.7939-4.8051 4.0893-6.3926 6.9004-0.6109 1.0737-1.0807 2.1998-1.6094 3.3047-0.05 0.10665-0.19443 0.29333-0.24023 0.39648-0.027 0.0615-0.0599 0.21074-0.0879 0.27539-0.3059 0.6639-0.68639 1.2999-0.96289 1.9746-0.3667 0.9-1.0159 1.9-1.9492 3-1.4 1.6667-2.1675 2.5833-2.3008 2.75-0.2333 0.33333-1.3167 1.6822-3.25 4.0488l-11.098 13.901c-0.8667-2.4-1.3841-3.9504-1.5508-4.6504-0.3667-0.7-0.6167-1.2329-0.75-1.5996-0.2667-0.63333-0.11553-1.2341 0.45117-1.8008 1.3667-1.4 3.2988-3.6151 5.7988-6.6484 0.1667-0.23333 0.25-0.3845 0.25-0.45117 0-0.13333-0.11631-0.28255-0.34961-0.44922-0.2667-0.2-0.61553-0.31628-1.0488-0.34961-0.6333-0.0333-0.98408-0.0508-1.0508-0.0508 2.0667-2.5333 3.2004-3.8996 3.4004-4.0996 0.7333-0.76667 2.15-2.4333 4.25-5 0.067-0.0333 0.13252-0.13411 0.19922-0.30078 0.067-0.13333 0.15-0.16637 0.25-0.0996 0.1667 0.0333 0.25 0.26589 0.25 0.69922 0.1 2.0667-0.21592 3.8845-0.94922 5.4512v0.69922l0.25-0.0488c2.8333-2.0667 4.75-3.9504 5.75-5.6504 1.0333-1.8333 1.4829-3.3004 1.3496-4.4004-0.2333-1.6667-0.26601-3.0833-0.0996-4.25 0.1667-1.2667-0.28291-2.2667-1.3496-3-0.5-0.3-0.70156-0.56745-0.60156-0.80078 0.7667-1.3 1.8675-2.6992 3.3008-4.1992 1.6333-1.8 2.7167-2.9492 3.25-3.4492 1.1667-1.1 2-1.8016 2.5-2.1016 1.7-1.0333 2.7175-1.6651 3.0508-1.8984 1.1-0.8 1.9488-1.6508 2.5488-2.5508 0.2333-0.33333 0.63447-0.88372 1.2012-1.6504 0.5667-0.7 0.96592-1.2504 1.1992-1.6504 1.6-2.5333 2.8829-4.3318 3.8496-5.3984 3.8273-4.2336 0.82625-3.3686-1.0996-0.80078-0.3 0.36667-1.5171 1.9171-3.6504 4.6504-0.1667-0.56667-0.25-0.95039-0.25-1.1504l-0.44922-5.1992c-0.067-0.43333-0.0996-0.66784-0.0996-0.70117-0.1-0.3-0.30156-0.44922-0.60156-0.44922-0.2667 0.0333-0.35 0.33373-0.25 0.90039 0.2333 1.6667 0.35156 3.4651 0.35156 5.3984l0.0996 0.35156c0.1333 0.73333 0.19922 1.1984 0.19922 1.3984 0.033 0.56666-0.05 1.0182-0.25 1.3516-0.9667 1.6-2.4163 3.133-4.3496 4.5996l-0.59961 0.34961c-0.067-0.3-0.0838-0.53255-0.0508-0.69922 0.1667-0.8 0.23447-1.8174 0.20117-3.0508-0.033-1.7333-0.0508-2.7663-0.0508-3.0996 0.033-0.16667-1e-3 -0.31784-0.10156-0.45117-0.1-0.16667-0.21631-0.25-0.34961-0.25s-0.23408 0.0833-0.30078 0.25c0 0.1-0.0178 0.26667-0.0508 0.5-0.1 3.4-0.16592 5.4174-0.19922 6.0508-0.1 0.8-0.16592 1.2671-0.19922 1.4004-0.1667 0.5-0.53486 0.80039-1.1016 0.90039-0.1333-0.23333-0.16591-0.55117-0.0996-0.95117 0.033-0.46667 0.033-0.78255 0-0.94922-0.1-0.4-0.13261-0.96784-0.0996-1.7012 0.033-0.76667 0.0162-1.3326-0.0508-1.6992-0.067-0.4-0.19844-0.59961-0.39844-0.59961-0.3 0-0.45117 0.21706-0.45117 0.65039l0.0508 4.5c0.1 0.56667 0.1 0.99883 0 1.2988-0.1 0.36667-0.36748 0.6845-0.80078 0.95117l-0.34961 0.34961-0.0508-0.5c0.033-1.4333 0.033-2.5012 0-3.2012l-0.19922-1.3984c-0.033-0.2-0.16709-0.30078-0.40039-0.30078-0.1667 0-0.25 0.0833-0.25 0.25v4.75c0 0.8-0.19961 1.4337-0.59961 1.9004-1 1.1333-2.1841 2.583-3.5508 4.3496l-2.4492 3.3008c-1.1 1.6667-2.4663 2.5-4.0996 2.5-1.8 0.0333-3.3833-0.60039-4.75-1.9004-0.3667-0.23333-0.6167-0.41745-0.75-0.55078-0.2667-0.26667-0.23399-0.54961 0.0996-0.84961 2.0333-1.8333 3.3008-2.9826 3.8008-3.4492 1.3666-1.3 2.5159-2.5345 3.4492-3.7012l5.6504-6.6504c0.3333-0.4 0.81592-1.0822 1.4492-2.0488 0.6-0.9 1.1-1.5841 1.5-2.0508 0.8333-0.96667 1.7171-2.2322 2.6504-3.7988 0.5333-0.86666 1.3337-2.1845 2.4004-3.9512 1.2667-1.9667 2.6504-4.55 4.1504-7.75 0.067-0.16667 0.067-0.31589 0-0.44922l-0.25-0.0996-0.15039 0.0488c-0.5667 0.46667-0.86709 0.7845-0.90039 0.95117-0.1333 0.53333-0.36592 1.1322-0.69922 1.7988-0.4333 0.73333-0.75117 1.2837-0.95117 1.6504-0.3 0.56667-0.78252 1.3671-1.4492 2.4004-0.7 1.0667-1.2 1.8496-1.5 2.3496-0.7 1.2667-1.6845 2.7996-2.9512 4.5996l-3.1992 4.4004c-0.5 0.7-1.1841 1.5508-2.0508 2.5508-1.3 1.5-2.0151 2.3333-2.1484 2.5l-3.4004 4.1484 0.25-0.94922 4.6504-12.25c0.4333-1.0667 1.0167-2.6674 1.75-4.8008l3.1484-8.7988c0.033-0.0667 0.1167-0.16745 0.25-0.30078 0.1-0.16667 0.0842-0.31589-0.0488-0.44922l-0.30078-0.20117c-0.3 0.3-0.48213 0.5345-0.54883 0.70117l-1.8516 4.6504c-0.7 2-1.1825 3.2829-1.4492 3.8496-0.1 0.23333-0.20078 0.58216-0.30078 1.0488-0.1667 0.43333-0.4167 0.73372-0.75 0.90039l-5.9492 3.25c-0.033 0.0333-0.2 0.0837-0.5 0.15039 0-0.33333 0.0326-0.55039 0.0996-0.65039l3.25-5.3496c0.5333-0.86667 1.2679-2.1671 2.2012-3.9004l2-3.5996c0.033-0.0333-0.017-0.16706-0.15039-0.40039-0.067-0.0667-0.13447-0.0822-0.20117-0.0488-0.067 0.1-0.11514 0.14844-0.14844 0.14844-0.3 0.13333-0.55 0.40078-0.75 0.80078-0.2 0.43333-0.3667 0.74922-0.5 0.94922-0.5667 0.9-1.7004 2.8167-3.4004 5.75-1.9333 3.2667-3.0341 5.1349-3.3008 5.6016-0.4 0.7-0.65 1.1322-0.75 1.2988-0.3333 0.46667-0.69961 0.8-1.0996 1l-7.0508 3.8496c-2.3333 1.2333-3.9321 2.1345-4.7988 2.7012-1 0.63333-1.7675 0.51706-2.3008-0.34961-0.5-1-1.3333-1.7674-2.5-2.3008-0.6-0.26667-1.1833-0.31706-1.75-0.15039s-1.0163 0.51745-1.3496 1.0508c-0.4 0.73333-0.88252 1.1829-1.4492 1.3496-0.5333 0.2-0.95 0.48294-1.25 0.84961-0.3 0.33333-0.50156 0.80039-0.60156 1.4004 0.067 0.73333 0.067 1.1171 0 1.1504-1.8 0.73333-3.7496 1.9504-5.8496 3.6504-1 0.8-1.5833 1.833-1.75 3.0996-0.033 0.13333 0.083 0.19922 0.34961 0.19922 0.5-0.0667 1.0679-0.23333 1.7012-0.5 0.3667-0.13333 0.91709-0.35039 1.6504-0.65039 1.4333-0.5 3.6329-0.81589 6.5996-0.94922 0.8667 0 1.4655 0.26745 1.7988 0.80078 0.3667 0.6 0.2833 1.3326-0.25 2.1992-0.2333 0.4-0.28174 1.0163-0.14844 1.8496 0.1333 0.86667 0.3833 1.3841 0.75 1.5508 0.7333 0.33333 1.8167 0.88373 3.25 1.6504 1.2666 0.6 2.4159 0.96628 3.4492 1.0996l0.30078 0.0996-0.30078 0.19922c-0.7 0.43333-1.95 0.81706-3.75 1.1504-1.6333 0.33333-2.8504 1.0678-3.6504 2.2012-0.1 0.13333-0.16592 0.19922-0.19922 0.19922-0.067 0-0.15-0.0504-0.25-0.15039-1.2-1.3333-2.2504-2.3837-3.1504-3.1504-0.6667-0.56667-1.5-1.1326-2.5-1.6992-1.2-0.6-2.0992-1.0671-2.6992-1.4004-0.1789-0.0895-0.34689-0.0992-0.52539-0.18555-0.2573-0.12682-0.29917-0.18096-0.57617-0.31445h0.0508l-0.90039-0.40039c-1.1186-0.49101-2.3686-0.95612-3.75-1.3984l-0.29686-0.0508c-0.089 7e-3 -0.1895 0.0918-0.2832 0.13086-0.965-0.28752-1.9665-0.84096-2.918-1.0312l2.7012-2.25c0.7-0.6 1.7484-1.5167 3.1484-2.75 1.8667-1.3 4.5004-3.4337 7.9004-6.4004 1.1333-0.9 2.7845-2.3167 4.9512-4.25 0.6333-0.53333 2.7651-2.2833 6.3984-5.25 3.0333-2.6 4.8841-4.1833 5.5508-4.75l8.5996-7.25c0.2333-0.2 0.26601-0.38216 0.0996-0.54883 0-0.0667-0.083-0.0996-0.25-0.0996l-0.25 0.0996c-0.5 0.36667-2.1163 1.6671-4.8496 3.9004l-27.549 22.85c-3.5667 3-5.6849 4.75-6.3516 5.25-0.3 0.33333-0.53252 0.56589-0.69922 0.69922-0.3 0.26667-0.60039 0.38294-0.90039 0.34961-0.2252-0.0225-0.50644-0.0998-0.77734-0.16797-0.024-6e-3 -0.0483-0.0259-0.0723-0.0312l-0.0508-0.0508-0.34961-0.0996 0.0508 0.0508c-0.1063-0.023-0.13418-0.0131-0.23828-0.0352-0.4493-0.13485-0.88681-0.26562-0.91211-0.26562l1.4004-1.25c3.1333-2.6333 5.0325-4.1992 5.6992-4.6992 0.1333-0.1 0.66631-0.56706 1.5996-1.4004 0.6333-0.56667 1.2012-0.98333 1.7012-1.25 0.3667-0.13333 0.5333-0.36589 0.5-0.69922-0.033-0.1-0.13408-0.18333-0.30078-0.25-0.4667-0.0667-1.05-7.8e-4 -1.75 0.19922-0.8333 0.2-1.4167 0.30078-1.75 0.30078s-0.75 0.0659-1.25 0.19922c-0.7 0.16667-1.1167 0.26745-1.25 0.30078l-4.75 0.94922c-0.8333 0.2-1.4496 0.34922-1.8496 0.44922-0.7333 0.16667-1.3671 0.2345-1.9004 0.20117 0.1667-0.33333 0.26748-0.51745 0.30078-0.55078 1.1667-0.8 2.5329-1.8329 4.0996-3.0996 1.5667-1.3333 3.9659-3.2326 7.1992-5.6992 1.3-1.0667 3.2341-2.6345 5.8008-4.7012 1.4-1.2333 3.5841-2.9504 6.5508-5.1504l7.0996-5.7988c0.033-0.0333 0.13213-0.26784 0.29883-0.70117-0.3-0.2-0.55-0.29883-0.75-0.29883l-0.19918 0.04881-13.85 9.3008c-3.2333 2.2667-5.683 3.9508-7.3496 5.0508-3.6 2.3-6.2667 4.0655-8 5.2988-1.6667 1.2-4.2016 2.9345-7.6016 5.2012-2.8666 2-5.0333 3.5-6.5 4.5l-3.1484 2.0996c0.3333-0.5 0.8333-1.2829 1.5-2.3496 0.6-0.96666 1.1659-1.7341 1.6992-2.3008 0.4-0.4 0.91748-1.1171 1.5508-2.1504 0.6333-0.86667 1.3659-1.4326 2.1992-1.6992 0.7667-0.26667 1.6329-0.71628 2.5996-1.3496 0.5333-0.36667 1.3337-0.95 2.4004-1.75 1.4-0.96666 4.2159-2.7516 8.4492-5.3516l21.5-13.898c0.2-0.2 0.26787-0.36667 0.20117-0.5l-0.30078-0.15039-0.25 0.0996-34.799 21.9 4.5-6.25c0.2333-0.3 0.58213-0.8 1.0488-1.5 0.4-0.56667 0.78369-0.98333 1.1504-1.25 0.9333-0.63333 3.0167-1.8833 6.25-3.75 1.3667-0.76667 3.4171-1.8829 6.1504-3.3496 2.9333-1.6667 4.7667-2.7345 5.5-3.2012 0.3333-0.2 0.94961-0.53333 1.8496-1 0.7667-0.43333 1.3675-0.79961 1.8008-1.0996 0.2667-0.16667 0.36553-0.31589 0.29883-0.44922-0.033-0.1-0.099-0.15039-0.19922-0.15039l-0.30078 0.0996c-1 0.36667-2.25 1.0004-3.75 1.9004-1.9 1.1-3.1325 1.7822-3.6992 2.0488-1.8667 1.0667-3.2679 1.8516-4.2012 2.3516l-5.6992 3.0996c-1.1 0.9-1.9992 1.3826-2.6992 1.4492l6.8984-9.6992c0.3667-0.43333 0.46748-0.75117 0.30078-0.95117-0.033-0.0667-0.1167-0.0996-0.25-0.0996-0.1667 0-0.36631 0.0833-0.59961 0.25l-17 12.6-0.15039-0.14845 13.4-12.9zm21.449 6.9492-23.801 18.85c-0.3 0.3-0.4667 0.48411-0.5 0.55078-0.1667 0.23333-0.1667 0.48333 0 0.75 0.1333 0.2 0.35039 0.29883 0.65039 0.29883 0.1667 0 0.40117-0.0329 0.70117-0.0996 1.1-0.16667 2.7667-0.48255 5-0.94922l0.94922-0.30078c0.2-0.0333 0.39961 0.0171 0.59961 0.15039l-0.69922 0.5c-0.3333 0.23333-0.80039 0.63255-1.4004 1.1992-0.6 0.56666-1.0671 0.95039-1.4004 1.1504-0.3667 0.26667-1.0333 0.81706-2 1.6504-0.8 0.73333-1.4667 1.2508-2 1.5508-0.2399 0.11994-0.64797 0.12644-1.043 0.14258-0.5225-0.0284-0.861-0.0305-1.5332-0.0801-0.2112-0.0288-0.24864-0.0202-0.52344-0.0625-0.094-0.0112-0.20433 0.0293-0.29883 0.0195-0.8024-0.0565-1.7368-0.11327-3.1016-0.16992h-0.0996c-0.6491 4e-3 -1.5328 0.10283-2.6504 0.29883l-2.5488 0.30078h-0.45117c-0.7543-3.8e-4 -1.5254 0.11979-2.3086 0.33594l13.809-9.4356c3.4667-2.3333 6.05-4.1008 7.75-5.3008l16.15-11c0.1-0.0667 0.35-0.18294 0.75-0.34961zm45.199 4.6992c-0.1333 0-0.19922 0.15117-0.19922 0.45117l0.0508 6.9004c0 0.0667-0.0178 0.19844-0.0508 0.39844-0.033 0.16667 0.05 0.26745 0.25 0.30078 0.2 0.0333 0.33369-0.05 0.40039-0.25 0.067-0.23333 0.11709-0.4 0.15039-0.5 0.033-0.0333 0.0488-0.18255 0.0488-0.44922-0.067-0.4-0.067-0.96784 0-1.7012 0.067-0.76667 0.0838-1.3326 0.0508-1.6992-0.033-0.2-0.0508-0.71745-0.0508-1.5508 0.033-0.63333-0.033-1.1488-0.19922-1.5488-0.1-0.26667-0.25117-0.38489-0.45117-0.35156zm-13.549 0.65039-5.25 13.6c-0.1667 0.46666-0.40117 1.1508-0.70117 2.0508-0.2667 0.8-0.54961 1.4492-0.84961 1.9492-0.3333 0.46666-0.8333 1.0016-1.5 1.6016-1.1333 0.96667-1.7321 1.4822-1.7988 1.5488 0.5667-0.96667 0.59931-1.8988 0.0996-2.7988-0.5-0.86666-1.2829-1.3182-2.3496-1.3516h-2.4512l4-6.9492c1.7-3 2.7329-4.7326 3.0996-5.1992 0.2667-0.33333 0.70078-0.65117 1.3008-0.95117 0.3667-0.2 0.89961-0.4655 1.5996-0.79883zm-9.6504 5.4512-0.0508 0.25-3.3984 5.6992c-1.2333 2.2667-2.1849 3.9333-2.8516 5-0.1667 0.3-0.43213 0.43372-0.79883 0.40039-0.4-0.1-0.70039-0.16784-0.90039-0.20117-0.8667-0.13333-1.3841-0.23216-1.5508-0.29883-0.5333-0.2-0.88213-0.56628-1.0488-1.0996 0-0.26667 0.099-0.71823 0.29883-1.3516 0.1667-0.53333 0.21709-0.95 0.15039-1.25-0.033-0.26667-0.084-0.43333-0.15039-0.5-0.6-0.46667-0.71631-0.8155-0.34961-1.0488 0.2333-0.13333 0.5667-0.24961 1-0.34961 1.3333-0.8 3.3663-1.9337 6.0996-3.4004l3.3008-1.8008zm-17 3.3496c0.9667 0.13333 1.8659 0.91628 2.6992 2.3496 0.3667 0.63333 0.98486 0.98411 1.8516 1.0508 1.1667 0.1 1.5 0.64844 1 1.6484s-0.46739 1.8508 0.0996 2.5508c0.4667 0.63333 1.2167 1.0326 2.25 1.1992 1.3 0.23333 2.1663 0.30117 2.5996 0.20117l2.4492-0.0508c0.9333 0 1.7008 0.16667 2.3008 0.5 0.7 0.33333 0.93252 0.81784 0.69922 1.4512l-0.29883 0.89844c-0.2 0.33333-0.50039 0.55039-0.90039 0.65039-1.1333 0.26667-1.8329 1.0167-2.0996 2.25-0.067 0.2-0.16748 0.30078-0.30078 0.30078-1.4333 0.13333-2.7163 0.76706-3.8496 1.9004-0.4333 0.4-0.91592 0.53177-1.4492 0.39844-0.5667-0.23333-1.0008-0.4-1.3008-0.5-2.3333-0.76667-4.0175-1.6155-5.0508-2.5488-0.2333-0.23333-0.33213-0.48333-0.29883-0.75 0.1333-0.3 0.2167-0.5345 0.25-0.70117 0.4-1.2333 0.2333-2.3826-0.5-3.4492-0.1333-0.2-0.1333-0.38411 0-0.55078 0.067-0.1 0.20039-0.23177 0.40039-0.39844 0.7-0.63333 1.1496-1.2167 1.3496-1.75 0.2-0.73333 0.033-1.4833-0.5-2.25-0.3-0.4-0.7167-0.65-1.25-0.75-0.5333-0.13333-1.0508-0.1003-1.5508 0.0996-1.4667 0.2-2.5325 0.50039-3.1992 0.90039-0.067 0.0667-0.13447 0.0822-0.20117 0.0488-0.033-0.0667-0.033-0.1655 0-0.29883 0.4667-1.4333 1.3834-2.2841 2.75-2.5508 0.5-0.1 0.73447-0.38294 0.70117-0.84961-0.1-0.86667 0.34961-1.2 1.3496-1zm-14.75 3.6992-7.9004 6.5c-1 0.86667-1.6492 1.3667-1.9492 1.5-0.4 0.23333-0.86709 0.18294-1.4004-0.15039-0.1-0.0667-0.36748-0.0996-0.80078-0.0996-0.3 0.0333-0.4667-0.05-0.5-0.25 0-0.16667 0.13369-0.36628 0.40039-0.59961 0.1667-0.16667 0.40117-0.38372 0.70117-0.65039l2.1484-1.75c2.1-1.7333 3.2337-2.6829 3.4004-2.8496 0.3333-0.33333 0.76748-0.58333 1.3008-0.75 0.1667-0.0667 0.63369-0.18294 1.4004-0.34961zm14.25 0.95117c0.6667-0.0667 1.1008 0.1 1.3008 0.5 0.3 0.63333 0.19922 1.2496-0.30078 1.8496-0.3667 0.3-0.59922 0.55-0.69922 0.75-0.2667 0.5-0.63486 0.73255-1.1016 0.69922l-1.1992-0.29883c-0.6-0.13333-1.3171-0.16823-2.1504-0.10156-0.9 0.13333-1.5821 0.21667-2.0488 0.25-1.4 0.13333-2.4175 0.38333-3.0508 0.75l-1.1504 0.60156c2.2-2.0333 4.1496-3.3008 5.8496-3.8008 0.5-0.13333 1.25-0.38333 2.25-0.75 0.8667-0.3 1.6341-0.44922 2.3008-0.44922zm15.5 8.6992c0.1333 0 0.23408 0.10078 0.30078 0.30078 0.033 0.1 0.082 0.26667 0.14844 0.5 0.3 0.6 0.75156 1.1659 1.3516 1.6992 0.2333 0.16667 0.8167 0.56589 1.75 1.1992 1 0.63333 2.3663 0.81745 4.0996 0.55078 1.0667-0.16667 1.9-0.36628 2.5-0.59961 0.8667-0.33333 1.5488-0.86628 2.0488-1.5996 0.1-0.13333 0.28408-0.0849 0.55078 0.14844 0.2667 0.2 0.48369 0.48489 0.65039 0.85156 0.3333 0.7 0.30069 1.45-0.0996 2.25-0.4 0.76667-0.96787 1.2996-1.7012 1.5996-1.2 0.5-2.5992 0.88372-4.1992 1.1504-1.3333 0.2-2.8508-0.13333-4.5508-1-2.1667-1.2333-3.5329-2.6016-4.0996-4.1016l-0.19922-0.89844c-0.067-0.46666 0.13291-0.96667 0.59961-1.5 0.3-0.36667 0.58291-0.55078 0.84961-0.55078zm-2.6992 2.5c0.8667 2.7667 2.3163 4.7337 4.3496 5.9004-0.9667 0.1-1.6333 0.19883-2 0.29883-0.6667 0.16667-1.2171 0.43411-1.6504 0.80078-0.6667 0.66667-1.1667 1.1492-1.5 1.4492-0.6 0.5-1.1504 0.88372-1.6504 1.1504-1.3 0.63333-2.5325 0.96667-3.6992 1-0.7333 0.1-1.2837 0.16784-1.6504 0.20117-0.6333 0.0667-1.1837-1e-3 -1.6504-0.20117-1.6667-0.7-2.7655-1.6167-3.2988-2.75-0.2-0.4-0.13408-0.78372 0.19922-1.1504 0.1667-0.13333 0.53291-0.36589 1.0996-0.69922s1.4175-0.60078 2.5508-0.80078c1.2-0.2 2.0488-0.41511 2.5488-0.64844 0.7-0.33333 1.45-0.90117 2.25-1.7012 0.4-0.36667 0.9833-0.91706 1.75-1.6504 0.7-0.6 1.4345-0.94883 2.2012-1.0488zm16.648 4.8008c0.1667 0.8 0.25 1.2651 0.25 1.3984-0.2 1.3-0.76592 2.7341-1.6992 4.3008-0.2667 0.46667-0.70078 0.98412-1.3008 1.5508-1 0.9-1.5484 1.4-1.6484 1.5 0.3-1.1667 0.49961-2.0349 0.59961-2.6016 0.2-0.96667 0.21553-1.7826 0.0488-2.4492-0.2333-0.9-0.032-1.5008 0.60156-1.8008 0.36673-0.16667 0.93255-0.39922 1.6992-0.69922l0.69922-0.5zm-10.799 2.0488c1.0333-0.13333 1.9829-0.0326 2.8496 0.30078 0.3667 0.16667 0.96748 0.25 1.8008 0.25 0.4667 0.0667 0.55 0.29922 0.25 0.69922l-8.7012 10.1c-0.4667 0.46666-0.6333 0.86784-0.5 1.2012 0.1 0.23333 0.2667 0.31667 0.5 0.25 0.3-0.0333 0.4667-0.0508 0.5-0.0508l1.5996 0.25-6 6.7012c-0.2333-0.5-0.36514-0.80039-0.39844-0.90039-0.1-0.63333-0.33447-1.3329-0.70117-2.0996-0.4333-0.86666-0.7667-1.5178-1-1.9512l-2.6992-5.25c1.2667 1.3667 2.5671 2.4674 3.9004 3.3008 0.3667 0.2 0.95 0.43255 1.75 0.69922 0.2 0.0667 0.34922 0.0163 0.44922-0.15039 0.1-0.26667 0.1-0.46628 0-0.59961-0.6-0.93333-1.1-2.0671-1.5-3.4004-0.1-0.36667-0.40039-1.5663-0.90039-3.5996-0.1667-0.76667 0-1.2822 0.5-1.5488 0.2667-0.13333 0.70078-0.26706 1.3008-0.40039 1.3-0.66667 2.2825-1.5174 2.9492-2.5508 0.1-0.16667 0.53408-0.33333 1.3008-0.5 1.4333-0.43333 2.35-0.68333 2.75-0.75zm-10.65 4.9512c0.3667-0.13333 0.55078-2e-3 0.55078 0.39844-0.067 1.9667 0.61553 4.1508 2.0488 6.5508l0.0996 0.19922-0.25-0.0488c-2.0333-1.7-3.2484-2.7833-3.6484-3.25-1.1-1.1333-1.9179-1.9996-2.4512-2.5996-0.1-0.0667-0.29961-0.33411-0.59961-0.80078l1.5508-0.0508c0.7 0.0333 1.5992-0.0984 2.6992-0.39844zm23.85 1.8984c-0.1667 0.73333-0.38369 1.8012-0.65039 3.2012-0.2667 1.1667-0.6 2.0988-1 2.7988-0.4667 0.83333-1.1333 1.7674-2 2.8008-1.0667 1.1667-1.8496 2.0504-2.3496 2.6504l-2.0996 2.5488c-0.1667 0.16667-0.30039 0.36823-0.40039 0.60156-0.1 0.26667-0.0832 0.44883 0.0508 0.54883 0.2667 0.26667 0.78213 0.43333 1.5488 0.5 0.4 0.0333 1.0183 0.14961 1.8516 0.34961 0.8 0.23333 1.4317 0.35156 1.8984 0.35156 0.2 0 0.1167 0.23255-0.25 0.69922l-10.549 11.301c-0.5333 0.5-0.91709 0.89922-1.1504 1.1992-0.3667 0.5-0.63408 0.43411-0.80078-0.19922l-1.0488-4.9512c-0.033-0.3-0.14961-0.68373-0.34961-1.1504-0.2667-0.66667-0.16787-1.2655 0.29883-1.7988 0.2333-0.3 0.63447-0.73411 1.2012-1.3008 0.4667-0.7 1.1159-1.5488 1.9492-2.5488l2.0996-2.5508c0.6-0.7 1.4663-1.7833 2.5996-3.25 1.5-1.8667 2.4671-3.1167 2.9004-3.75l2.5996-3.5c0.4-0.56667 1.0841-1.3826 2.0508-2.4492zm-1.7988 7.7012c0.067 0.63333 0.067 1.1004 0 1.4004-0.3333 1.7333-0.45156 3.3496-0.35156 4.8496 0.1 1.0333-0.5667 1.3996-2 1.0996-0.7333-0.0667-1.2663-0.15-1.5996-0.25-0.6667-0.26667-1.1667-0.38294-1.5-0.34961l5.0996-6.4004zm-0.75 9.5v9.1504c0 0.26667-0.13369 0.41589-0.40039 0.44922-0.3-0.0333-0.49961-0.0333-0.59961 0-2 0.63333-4.25 1.2496-6.75 1.8496-0.8 0.23333-1.9183 0.46784-3.3516 0.70117 2.3667-2.4 6.0684-6.4505 11.102-12.15zm-1.1504 10.699c0.067-0.0333 0.20039-0.0159 0.40039 0.0508-0.067 0.3-0.11709 0.46667-0.15039 0.5-0.6667 0.7-1.6337 1.9171-2.9004 3.6504-0.8667 1.1333-1.6167 2.0655-2.25 2.7988-0.2667 0.3-0.5167 0.56745-0.75 0.80078-0.6667 0.7-1.4671 1.6322-2.4004 2.7988-1.0333 1.3667-1.8337 2.4016-2.4004 3.1016 0.1-1.1-0.032-2.8171-0.39844-5.1504l-0.75-4.3008c-0.1667-1 0.29844-1.6163 1.3984-1.8496l7.5508-1.6504c0.6-0.13333 1.4837-0.38333 2.6504-0.75zm1.1992 0.45117-0.19922 4.3984c-0.033 0.36667-0.0182 1.0837 0.0488 2.1504v0.20117c0.067 1 0.0512 1.7829-0.0488 2.3496-0.2 1-0.95 1.8333-2.25 2.5l-6.9512 3.5488c-0.7 0.43333-1.2329 0.68333-1.5996 0.75-0.1667 0.0333-0.30039-0.23216-0.40039-0.79883-0.1-0.43333 0.018-0.85 0.35156-1.25l0.94922-0.95119c2-2.7333 3.4496-4.5822 4.3496-5.5488 0.2-0.23333 0.43447-0.50078 0.70117-0.80078 0.5-0.6 1.1317-1.3326 1.8984-2.1992zm-0.25 11.25 0.15039 0.75c0 0.0667-0.0326 0.18294-0.0996 0.34961-0.033 0.16667-0.033 0.28294 0 0.34961 0.2 0.6 0.13213 1.0341-0.20117 1.3008-0.067 0.0667-0.46592 0.23333-1.1992 0.5l-0.65039 0.19922c0.8333-1.2667 1.3837-2.2667 1.6504-3 0.1667-0.2 0.28291-0.34922 0.34961-0.44922zm-1.6992 1.1484-1.5508 2.4512c-0.033 0.1-0.1167 0.24922-0.25 0.44922-0.1 0.16667-0.0832 0.35078 0.0508 0.55078 0.3333 0.4 0.73252 0.4 1.1992 0 0.2333-0.16667 0.55117-0.33333 0.95117-0.5l1-0.40039c0.1333-0.0667 0.24961-0.0163 0.34961 0.15039 0.4333 1.1667 0.15039 2.0329-0.84961 2.5996-0.8333 0.46667-1.9845 1.3329-3.4512 2.5996-0.7 0.56667-2.5159 1.9678-5.4492 4.2012l-0.40039 0.39844v-0.54883c-0.1-0.66667-0.21631-1.8333-0.34961-3.5-0.1333-1.5-0.28447-2.6841-0.45117-3.5508-0.033-0.26667 0.11787-0.49922 0.45117-0.69922 0.2-0.13333 0.51592-0.2845 0.94922-0.45117zm1.7988 5.4512c0.4333 0.96667 0.36748 1.8155-0.19922 2.5488-0.8333 0.8-1.4671 1.4008-1.9004 1.8008-0.7667 0.8-1.85 1.8659-3.25 3.1992-0.4333 0.4-0.88291 0.81667-1.3496 1.25l-3.1504 2.9512-0.15039 0.0996-0.14844-0.30078c0.1333-0.36667 0.14883-0.79883 0.0488-1.2988-0.1-0.76667-0.15039-1.2163-0.15039-1.3496-0.033-0.5 0.15078-0.91667 0.55078-1.25 0.033-0.0333 0.084-0.0682 0.15039-0.10156 0.2-0.16667 0.50039-0.38177 0.90039-0.64844 0.2-0.16667 1.8822-1.5174 5.0488-4.0508zm0.30078 3.2988v0.20117c0.2667 1 0.20078 1.9322-0.19922 2.7988-0.1667 0.4-0.43408 0.81667-0.80078 1.25-0.2667 0.33333-0.56709 0.66667-0.90039 1-0.5333 0.5-1.2155 1.2674-2.0488 2.3008-0.9 1.1-1.5841 1.8674-2.0508 2.3008-1.3333 1.2333-2.75 2.7159-4.25 4.4492h-0.15039l-0.0488-0.25c0.067-0.5 0.0818-1.1337 0.0488-1.9004v-1.9004c0-0.2 0.3333-0.63216 1-1.2988 0.3-0.3 1.6663-1.5829 4.0996-3.8496 0.3333-0.3 0.65117-0.58489 0.95117-0.85156 1.2333-1.2 2.2333-2.2659 3-3.1992 0.1-0.13333 0.48369-0.44922 1.1504-0.94922 0.1-0.1 0.16592-0.13489 0.19922-0.10156zm0.0996 4.1504c0 0.0333 0.0168 0.0663 0.0508 0.0996 0.3333 0.9 0.31622 1.8516-0.0508 2.8516-0.2 0.53333-0.68252 1.3996-1.4492 2.5996-1.8333 2.4667-3.1163 4.3833-3.8496 5.75l-0.10155 0.19922c-0.7667 1.2333-1.4159 2.0163-1.9492 2.3496-0.3333 0.2-0.85078 0.40156-1.5508 0.60156-0.7667 0.23333-1.2996 0.43294-1.5996 0.59961-0.1333 0.0667-0.19922 0.0492-0.19922-0.0508 0.033-0.13333 0.0488-0.21667 0.0488-0.25-0.1667-1.1 0.017-2.1833 0.55078-3.25 0.3667-0.8 0.95-1.5829 1.75-2.3496 2-2 3.6667-3.8159 5-5.4492 0.1667-0.2 1.25-1.4016 3.25-3.6016zm0.20118 4.4004c0.3333 1.0667 0.31622 2.2004-0.0508 3.4004-0.1667 0.5-0.64922 1.5659-1.4492 3.1992-0.1 0.2-0.21826 0.36667-0.35156 0.5-0.2667 0.26667-0.61553 0.46628-1.0488 0.59961-0.7667 0.3-1.2512 0.56745-1.4512 0.80078-0.1 0.1-0.39844 0.36745-0.89844 0.80078-0.3 0.3-0.53447 0.36589-0.70117 0.19922-0.1333-0.1-0.16591-0.21628-0.0996-0.34961 0.033-0.1 0.1167-0.21628 0.25-0.34961zm0.5 4.8496v2.25c-0.033 0.33333-0.0508 0.69961-0.0508 1.0996-0.033 1.3333 0.017 2.4516 0.15039 3.3516 0.1 0.86667-0.084 1.5663-0.55078 2.0996-0.3333 0.4-0.89922 0.76628-1.6992 1.0996-0.9667 0.4-1.8833 0.95039-2.75 1.6504-0.9 0.73333-2.5667 1.6171-5 2.6504-0.9 0.4-1.5841 0.9-2.0508 1.5-0.067-2.2667 0.05-4.35 0.34961-6.25v-0.90039c0.3-1.8 1.3679-2.7012 3.2012-2.7012 0.8333 0 1.7171-0.18216 2.6504-0.54883 0.5333-0.23333 1.3492-0.59961 2.4492-1.0996 0.8667-0.4 1.5663-0.98333 2.0996-1.75 0.033-0.0667 0.084-0.1345 0.15039-0.20117 0.2667-0.5 0.61748-1.25 1.0508-2.25zm-0.10156 9.8496c0.2-0.16667 0.30078-0.0484 0.30078 0.35156l-0.19922 1.8496-0.15039 0.0996c-0.4333-0.13333-1.0167-0.19922-1.75-0.19922-0.9667 0-1.5829-0.0175-1.8496-0.0508zm-4.5 2.9512h3.4004c0.6333-0.0333 1.0675 0.11589 1.3008 0.44922 0.1667 0.26667 0.18223 0.71628 0.0488 1.3496l-0.0996 2.7012c-0.033 0.3-0.25039 0.5655-0.65039 0.79883-0.9667 1.1-1.6488 1.9682-2.0488 2.6016-0.5333 0.93333-1.2833 1.3829-2.25 1.3496-1.3-0.13333-2.2845-0.21667-2.9512-0.25-1.1333-0.0333-2.1159 0.0326-2.9492 0.19922-0.4 0.0667-0.65-0.0167-0.75-0.25 0-0.0333-0.0326-0.28333-0.0996-0.75-0.1333-0.8-0.16796-1.3833-0.10156-1.75 0.067-0.2 0.2333-0.28333 0.5-0.25 0.1333 0 0.34844 0.0329 0.64844 0.0996l6.8516 0.0508c0.1667 0 0.25-0.0833 0.25-0.25 0-0.2-0.11826-0.31628-0.35156-0.34961-1.6-0.0667-4.0322-0.20039-7.2988-0.40039l-0.80078-0.0508c0.1333-0.13333 0.15233-0.34844 0.0527-0.64844-0.1-0.3-0.0852-0.51706 0.0488-0.65039 0.4333-0.43333 0.71826-0.70078 0.85156-0.80078 0.3667-0.2 0.79883-0.23303 1.2988-0.0996 0.3667 0.1 0.93447 0.13303 1.7012 0.0996 0.8-0.0667 1.3833-0.0492 1.75 0.0508 0.6333 0.16667 1.4317 0.2655 2.3984 0.29883 0.5333 0.0333 1.3512 0.0508 2.4512 0.0508 0.3333 0 0.5-0.0833 0.5-0.25v-0.0508c0-0.4-0.18408-0.56667-0.55078-0.5-0.8333 0.0667-1.8992 0.0182-3.1992-0.14844-1.7333-0.2-2.8012-0.31823-3.2012-0.35156l-2.0488 0.10156c2.4333-1.0333 3.7337-1.5837 3.9004-1.6504 0.1-0.0333 0.31514-0.1845 0.64844-0.45117 0.2667-0.2 0.5167-0.29883 0.75-0.29883zm4.1504 6.5488c-0.1 0.23333-0.35 1.1849-0.75 2.8516-0.2333 1.0333-0.53369 1.8667-0.90039 2.5-0.033 0.1-0.082 0.18333-0.14844 0.25-0.2667 0.43333-0.33447 0.73177-0.20117 0.89844 0.2333 0.23333 0.59961 0.26823 1.0996 0.10156 0.5333-0.16667 1.1671-0.21706 1.9004-0.15039 0.4333 0.0333 1.0496 0.11667 1.8496 0.25 0.7 0.1 1.7175 0.24922 3.0508 0.44922 1.1333 0.13333 2.1508 0.11757 3.0508-0.0488 0.067 0 0.4-0.0175 1-0.0508 0.4 0 0.7333-0.0659 1-0.19922 0.067-0.0333 0.19844-0.0178 0.39844 0.0488l-0.25 0.34961c-1.9333 2.0333-4.1988 3.0004-6.7988 2.9004-0.4667 0-1.2012-0.0988-2.2012-0.29883-0.9667-0.2-1.7167-0.30078-2.25-0.30078-2.0333 0.0333-4.5488 0.86667-7.5488 2.5-0.9667 0.56667-2.4008 1.0996-4.3008 1.5996-1.6 0.43333-3.1329 0.71628-4.5996 0.84961-1.2333 0.1-2.2992 0.0516-3.1992-0.14844-0.8333-0.2-1.6008-0.60117-2.3008-1.2012-0.5667-0.5-1.3167-0.80039-2.25-0.90039-0.7667-0.0667-1.5167 0.0167-2.25 0.25-0.7 0.2-1.7 0.61667-3 1.25-1.3333 0.6-2.3508 1.0012-3.0508 1.2012-0.6667 0.23333-1.5329 0.1655-2.5996-0.20117-1.6667-0.7-3.5659-0.7-5.6992 0-0.8 0.23333-2.05 0.95039-3.75 2.1504-1.4333 0.96667-2.7841 1.4337-4.0508 1.4004l-0.65039-0.0508c-2.4333 0.0667-4.5167 0.98333-6.25 2.75-0.7667 0.83333-1.5321 1.2171-2.2988 1.1504-0.2 0-0.38408-0.28294-0.55078-0.84961-0.1667-0.5-0.23252-1.1841-0.19922-2.0508 0.067-1.0333 0.067-1.7329 0-2.0996-0.067-0.46667-0.43291-1.6488-1.0996-3.5488-0.4-1.0667-0.36739-2.1016 0.0996-3.1016 0.7333-1.6333 0.7333-3.1818 0-4.6484-0.067-0.16667-0.11709-0.33333-0.15039-0.5-0.2667-1 0.084-2.1182 1.0508-3.3516 0.1-0.13333 0.2667-0.38333 0.5-0.75 0.2-0.3 0.33174-0.41628 0.39844-0.34961 0.2667 0.23333 0.71826 0.48333 1.3516 0.75 0.5667 0.3 0.86514 0.76706 0.89844 1.4004 0.067 0.83333 0.10156 1.6008 0.10156 2.3008 0 0.56667-0.035 1.0667-0.10156 1.5-0.067 0.8 0.31709 1.3988 1.1504 1.7988 1.3 0.53333 1.9163 1.5508 1.8496 3.0508 0 0.83333 0.083 1.4322 0.25 1.7988 0.2333 0.56666 0.61709 0.91745 1.1504 1.0508 0.5333 0.1 1.0333-0.0492 1.5-0.44922 0.6333-0.53333 1.3175-0.75039 2.0508-0.65039 0.6667 0.0667 1.2655-0.0845 1.7988-0.45117 0.3667-0.26667 0.7833-0.69883 1.25-1.2988 0.4333-0.53333 1.0167-0.96745 1.75-1.3008 0.8-0.36667 1.4008-0.41706 1.8008-0.15039 1.1667 0.76666 2.3837 1.3016 3.6504 1.6016 1.8 0.46667 3.1992 0.63333 4.1992 0.5 0.8333-0.13333 1.9496-0.60039 3.3496-1.4004 0.3667-0.13333 0.81826-0.18372 1.3516-0.15039 0.3 0 0.74961 0.0329 1.3496 0.0996 1.0667 0.0667 2.6829 0.15 4.8496 0.25h3.5996c0.5333-0.0333 1.3667-0.0333 2.5 0l4.25-0.40039c0.5333-0.0333 1.2833-0.2 2.25-0.5l0.55078-0.0488c0.1-0.0333 0.28213-0.21745 0.54883-0.55078 0.6-0.86667 1.5671-1.8822 2.9004-3.0488 0.5-0.46666 0.96709-0.88333 1.4004-1.25 0.7667-0.73333 1.3171-1.3012 1.6504-1.7012 0.6667-0.76667 1.5659-1.9837 2.6992-3.6504zm-54.9 2.6016c1.1 0.63333 3.1349 1.55 6.1016 2.75 0.2 0.0667 0.39961 0.15 0.59961 0.25l-4.4512 0.0488c-0.3333-0.0333-0.5833-0.0488-0.75-0.0488-0.3 0-0.55 0.0659-0.75 0.19922-0.3 0.13333-0.3833-3.9e-4 -0.25-0.40039v-0.0488c0.067-0.6-0.1-1.5167-0.5-2.75zm44 0.69922c0.4 0.13333 0.93486 0.16637 1.6016 0.0996 0.7667-0.0667 1.2996-0.0822 1.5996-0.0488 0.7333 0.1 1.8671 0.13303 3.4004 0.0996 0.1667 0 0.18223 0.0659 0.0488 0.19922-0.4333 0.46667-0.7667 0.81745-1 1.0508-0.3 0.3-0.56553 0.51706-0.79883 0.65039-0.1 0.0333-0.1833 0.0663-0.25 0.0996-0.2333 0.1-0.60156 0.15039-1.1016 0.15039l-1.5-0.15039-1.5996 0.0488c-0.1 0-0.16592-0.0484-0.19922-0.14844-0.067-0.0667-0.0996-0.15-0.0996-0.25-0.067-0.4-0.10156-0.61706-0.10156-0.65039zm0.85156 2.9004 0.29883 0.0488c0.2333-0.0333 0.61709 2e-3 1.1504 0.10156 0.4667 0.1 0.83291 0.1 1.0996 0l0.0508-0.0508c0.1667 0 0.18223 0.10078 0.0488 0.30078-0.1667 0.23333-0.48252 0.56667-0.94922 1-0.412 0.34859-0.68447 0.66284-0.85547 0.95117-0.027-0.048-0.0109-0.1058-0.0449-0.15234-0.3885-0.49348-0.63212-1.1982-0.91992-1.8379 0.044-0.11618-0.04-0.36133 0.12109-0.36133zm-38.65 0.0996c1.5667-0.1 3.3496 0.29922 5.3496 1.1992 0.5333 0.23333 2.0004 0.71784 4.4004 1.4512-0.7667-0.0667-1.7996-0.0337-3.0996 0.0996-1.4667 0.1-2.5016 0.15039-3.1016 0.15039-1.4666-0.1-2.55-0.16784-3.25-0.20117-1.2666-0.0667-2.35 1e-3 -3.25 0.20117-0.2 0.0667-0.38213 0.0163-0.54883-0.15039-0.2333-0.26667-0.83408-0.70078-1.8008-1.3008-0.5-0.3-0.69961-0.66628-0.59961-1.0996 0.033-0.2 0.14961-0.29883 0.34961-0.29883 0.1 0.0333 0.2667 0.0663 0.5 0.0996 1.1333-0.1 2.8175-0.15039 5.0508-0.15039zm-2.0508 3.5c0.8 0.2 1.8679 0.28333 3.2012 0.25 1.7-0.0667 2.7484-0.0841 3.1484-0.0508l0.30078 0.0508-2.4492 2.0996c-0.2667 0.26667-0.56709 0.35-0.90039 0.25-0.8333-0.16667-1.7829 0.11628-2.8496 0.84961-0.6667 0.43333-1.0679 0.28411-1.2012-0.44922-0.067-0.9-0.15-1.5667-0.25-2-0.1-0.8 0.2333-1.1333 1-1zm15.5 0.0996c0.3333 0 1.75 0.18411 4.25 0.55078-1.3333 0.66667-2.7655 0.89922-4.2988 0.69922-0.7333-0.1-2.1171-0.46628-4.1504-1.0996z"/>
 <g transform="translate(-773.5,-563.5)">
  <path transform="translate(160.15,84.1)" d="m618.35 479.4c-3.3333 0-5 1.6667-5 5v158.2c0 3.3333 1.6667 5 5 5h93.199c3.3333 0 5-1.6667 5-5v-158.2c0-3.3333-1.6667-5-5-5zm8.3008 7.1992h76.6c4.6667 0 7 2.3333 7 7v139.8c0 4.6667-2.3333 7-7 7h-76.6c-4.6667 0-7-2.3333-7-7v-139.8c0-4.6667 2.3333-7 7-7z" fill="#ef1d1e"/>
  <path transform="translate(160.15,84.1)" d="m626.65 486.6c-4.6667 0-7 2.3333-7 7v139.8c0 4.6667 2.3333 7 7 7h76.6c4.6667 0 7-2.3333 7-7v-139.8c0-4.6667-2.3333-7-7-7z" fill="none" stroke="#000" stroke-width="1.2"/>
 </g>
</svg>
