<svg width="103.2" height="168.2" preserveAspectRatio="none" version="1.1" viewBox="0 0 103.2 168.2" xmlns="http://www.w3.org/2000/svg">
 <path d="m13.301 7.1992c-4.6667 0-7 2.3333-7 7v139.8c0 4.6667 2.3333 7 7 7h76.6c4.6667 0 7-2.3333 7-7v-139.8c0-4.6667-2.3333-7-7-7z" fill="#fff"/>
 <path d="m46.75 68.6c-1.2103 1.3e-4 -2.2936 0.1513-3.25 0.45117-1.6079 0.58399-2.7417 1.9503-3.4004 4.0996l0.0508-0.05078-0.20117 0.90039c-0.22123 1.0898-0.55456 1.6732-1 1.75-0.0246 0.0299-0.0575 0.0474-0.0996 0.0508l-0.44922 0.0488h-0.0508c-0.37253 0.0121-0.93841-0.13709-1.6992-0.44922l-2.9004-1.3008-11.1 7.3008c-0.52305 0.0127-0.90677 0.29568-1.1504 0.84961v-0.0508c-0.44258 1.1846-0.69258 1.8358-0.75 1.9512-8e-3 0.11458-0.0582 0.19791-0.15039 0.25-0.0544 0.0853-0.13773 0.13568-0.25 0.15039-0.27253 0.0435-0.47214 0.17524-0.59961 0.39844h-0.0508c-1.2164 2.0082-1.7164 3.9927-1.5 5.9512v0.15039c-1e-3 0.13685-0.0498 0.25312-0.14844 0.34961-0.12604 0.13945-0.20937 0.32162-0.25 0.54883-0.0215 0.0854-0.0719 0.15325-0.15039 0.20117-1.7233 2.5746-2.9578 5.1076-3.7012 7.5996-0.5056 1.674-0.88737 3.8077-1.1484 6.4004v0.34964c0.0384 0.3069 0.15468 0.53945 0.34961 0.69922h0.0488c0.14531 0.10899 0.27904 0.17682 0.40039 0.20117l0.25-0.0508c0.0337-3e-3 0.0667-3e-3 0.0996 0 0.17396-0.01 0.34063-0.093 0.5-0.25v-0.0488c0.75221-0.5927 1.3704-1.2109 1.8516-1.8516 0.0575-0.0822 0.12342-0.14805 0.19922-0.19922 0.11589-0.0133 0.21667-0.0133 0.30078 0 0.11523 0.0417 0.19857 0.0921 0.25 0.15039 0.16523 0.18737 0.3319 0.32109 0.5 0.40039l0.34961 0.0488c0.27825-0.0201 0.49531-0.13634 0.65039-0.34961l2-2.75v-0.0508c0.40951-0.47422 0.72539-0.93933 0.94922-1.3984 0.05-0.10703 0.11589-0.19037 0.19922-0.25 0.11094-0.0509 0.21172-0.0684 0.30078-0.0508l0.34961 0.0508c0.11107-0.0113 0.22734-0.0462 0.34961-0.10156 0.0477-0.0523 0.0981-0.10077 0.15039-0.14844 0.19623-0.0496 0.36289-0.15038 0.5-0.30078v-0.0508l0.5-0.59961c0.67305-0.89909 1.1072-1.5483 1.3008-1.9492 0.0268-0.0301 0.0597-0.063 0.0996-0.0996l0.0508-0.0508c0.0764-0.0819 0.15977-0.13229 0.25-0.15039 0.13099-0.0103 0.24726 7e-3 0.34961 0.0508 0.0932 0.0681 0.15911 0.15143 0.19922 0.25 0.17097 0.39049 0.43841 0.64049 0.80078 0.75 0.0255 0.0238 0.041 0.0393 0.0488 0.0488 0.14727 0.0665 0.29844 0.10143 0.45117 0.10156 0.64987-0.0344 1.1499-0.5344 1.5-1.5 0.0299-0.0176 0.0454-0.0525 0.0488-0.10156l0.30078-0.44922 0.19922-0.34961c0.0441-0.0796 0.11197-0.1474 0.20117-0.20117 0.0941-0.0473 0.19297-0.0628 0.29883-0.0488 0.10377 0.0133 0.18711 0.0462 0.25 0.0996l0.35156 0.30078c0.034 0.0329 0.0495 0.0484 0.0488 0.0488 0.21445 0.23451 0.46445 0.35078 0.75 0.34961 0.47044-6e-3 0.78828-0.256 0.95117-0.75v0.0508l0.14844-0.44922c0.0238-0.0257 0.0412-0.0606 0.0508-0.10156 0.17513-0.33659 0.29141-0.63503 0.34961-0.89844 0.0341-0.1362 0.10197-0.25443 0.20117-0.35156 0.12331-0.0567 0.23958-0.0722 0.34961-0.0488 0.15039 0.0246 0.26667 0.0905 0.34961 0.19922l0.0996 0.0996c0.64101 0.60989 1.174 0.94323 1.5996 1 0 0 14.973-4.652 20.5-11.799 0.17552-0.2582 0.22591-0.57604 0.15039-0.95117v-0.0488c-0.0327-0.28542-0.16639-0.58581-0.40039-0.90039-0.0616-0.0818-0.0945-0.18255-0.0996-0.30078-4e-3 -0.0824 0.0135-0.16575 0.0508-0.25 0.0719-0.0889 0.15521-0.15482 0.25-0.19922 0.0878-0.0466 0.17109-0.0641 0.25-0.0508 0.19974 0.031 0.46524 0.0485 0.79883 0.0508h0.60156c0.33347-0.0481 0.54857-0.23218 0.64844-0.55078 0.0309-0.0176 0.0483-0.0505 0.0508-0.0996 0.14101-0.18255 0.14101-0.38216 0-0.59961-0.0497-0.11797-0.0672-0.25169-0.0508-0.40039 0.0427-0.11237 0.11057-0.2112 0.20117-0.29883 0.13268-0.0577 0.2664-0.0751 0.40039-0.0508 0.13411 0.0277 0.33372 0.0452 0.59961 0.0508l1.0488-0.15039c0.33437-0.1181 0.53593-0.33516 0.60156-0.65039 0.037-0.14818 0.037-0.26446 0-0.34961-0.0462-0.10117-0.0637-0.21745-0.0508-0.34961 0.0154-0.0919 0.0658-0.17526 0.15039-0.25 0.0844-0.0854 0.1832-0.13581 0.29883-0.15039l2.25-0.20117c0.39885-0.0725 0.6387-0.32423 0.73633-0.73633 0.0524-0.38326-0.0612-0.7089-0.38477-0.96289l-0.85156-0.5c-0.11432-0.0534-0.19765-0.15418-0.25-0.30078-0.0245-0.10521-7e-3 -0.22148 0.0508-0.34961 0.0678-0.10417 0.16862-0.1875 0.30078-0.25l0.14844-0.04883c0.0169 0.0073 0.0344 0.0073 0.0508 0 1.1997-0.24739 2.1164-0.56523 2.75-0.95117 0.24857-0.11497 0.43268-0.29714 0.55078-0.54883 0.0243-0.05547 0.0573-0.10586 0.0996-0.15039 0.1681-0.22891 0.20105-0.47891 0.0996-0.75 8e-3 -0.01693 8e-3 -0.03438 0-0.05078-0.0477-0.24831-0.16394-0.41497-0.34961-0.5-0.0529-0.01133-0.10326-0.02683-0.15039-0.04883-0.21159-0.08893-0.36081-0.15677-0.44922-0.20117l0.0488 0.05078-4.1504-0.80078-0.0488-0.04883c-2.4457-0.57122-5.2132-0.88906-8.3008-0.95117h-1.4004c-0.0733 6.7e-4 -0.13919-0.01483-0.19922-0.04883h-0.0508c-0.25195 0.03813-0.51745 0.13696-0.79883 0.29883-0.0591 0.06627-0.14247 0.09921-0.25 0.09961-0.0807 1.3e-4 -0.16406-0.03281-0.25-0.09961-0.19258-0.08489-0.42708-0.15078-0.70117-0.19922-1.1626-0.19739-2.2285-0.29817-3.1992-0.30078zm17.686 7.6133c-2e-3 0.0146 0.0162 0.0223 0.0137 0.0371v-0.0508c-2e-3 8e-3 -0.0119 6e-3 -0.0137 0.0137zm-33.893-4.0391 2.2031 1.4336 2.8359-5.4277z" fill="#faea01"/>
 <path d="m28.6 72s-7.084 0.93242-7.2988 6.6504c-0.13532 3.6022 5.479 4.7988 6.6992 4.7988 4.9115-0.90276 6.521-4.1136 5.3008-8.2988-0.68501-2.3647-4.7012-3.1504-4.7012-3.1504zm24 10.65c-0.3 0-0.53255 0.13372-0.69922 0.40039l-0.0508 0.0488c-0.2 0.26667-0.21568 0.56706-0.0488 0.90039l0.25 0.34961c0.1 0.1 0.133 0.23372 0.0996 0.40039-0.0333 0.13333-0.10117 0.23411-0.20117 0.30078-0.1 0.1-0.21628 0.133-0.34961 0.0996l-0.29883-0.0508c-0.26667 0.0333-0.50117 0.1845-0.70117 0.45117-0.16667 0.26667-0.16667 0.56511 0 0.89844 0.0333 0.0667 0.0508 0.15 0.0508 0.25s-0.0329 0.20078-0.0996 0.30078c-0.1 0.0667-0.18333 0.11706-0.25 0.15039h-0.30081c-1.0667-0.4-2.3826-0.78372-3.9492-1.1504l-1-0.19922h-0.10156c-2.1333 0.2-3.8659 0.99844-5.1992 2.3984h-0.0508c-0.2 0.26667-0.24844 0.55156-0.14844 0.85156v0.14844c0.0667 0.96666 0.0667 1.9008 0 2.8008 0 0.1-0.0349 0.18333-0.10156 0.25-0.0667 0.0667-0.15 0.13255-0.25 0.19922l-0.29883 0.10156c-0.13333 0.0333-0.24961 0.0159-0.34961-0.0508l-0.35156-0.15039c-0.0333 0-0.0663-0.0155-0.0996-0.0488-0.43333-0.3-0.85-0.48411-1.25-0.55078h-0.0996c-0.36667 0-0.64961 0.19961-0.84961 0.59961-0.0667 0.23333-0.0996 0.36706-0.0996 0.40039v0.15039c-0.0333 0.1-0.0508 0.40039-0.0508 0.90039 0.0667 0.36667 0.0492 0.64961-0.0508 0.84961-0.0333 0.0333-0.0488 0.0663-0.0488 0.0996-0.16667 0.23333-0.25 0.45039-0.25 0.65039v0.0488c0 0.23333 0.0988 0.43489 0.29883 0.60156 0.5 0.4 1.25 1.1151 2.25 2.1484 0.0333 0 0.0508 0.0175 0.0508 0.0508 0.0333 0.0667 0.0992 0.11706 0.19922 0.15039 0.0667 0.0333 0.1345 0.0837 0.20117 0.15039 0.0333 0.0333 0.0663 0.0992 0.0996 0.19922 0 0.0667 0.0175 0.11706 0.0508 0.15039l0.0996 0.0996 1.0996 1.4004 0.3496 0.3496 0.15039 0.30078 1 1.3984 0.34961 0.40039c0.0333 0.0333 0.0663 0.0837 0.0996 0.15039l0.15039 0.40039 0.0508 0.0996 0.94922 1.5c0 0.0333 0.0175 0.0837 0.0508 0.15039l0.0488 0.0488c0.0667 0.0333 0.1345 0.0837 0.20117 0.15039 0.0333 0.0667 0.0488 0.15 0.0488 0.25v0.0508c0.0333 0.0333 0.0682 0.0837 0.10156 0.15039l1 1.8984v0.0508l0.19922 0.19922c0.0333 0.0333 0.0663 0.10117 0.0996 0.20117l0.0508 0.29883 1 2.1016c0.0333 0.0333 0.0488 0.0663 0.0488 0.0996 0.0667 0.0667 0.11706 0.13255 0.15039 0.19922l0.84961 2.2012 0.15039 0.25c0 0.0333 0.0175 0.0818 0.0508 0.14844l0.0996 0.45117 0.65039 1.6992v0.0508c0 0.0667 0.0329 0.13255 0.0996 0.19922 0.1 0.0667 0.15039 0.16745 0.15039 0.30078l0.0488 0.54883 0.60156 1.9512 0.19922 0.40039c0.0333 0.0333 0.0508 0.0818 0.0508 0.14844l0.0488 0.45117 0.59961 2.2988 0.15039 0.35156c0.0333 0.0333 0.0508 0.0818 0.0508 0.14844l0.0488 0.40039v-0.0488l0.55078 2.5 0.15039 0.34961v0.44922l0.40039 2.0996 0.19922 0.45117v0.19922l-0.0508 0.45117 0.35156 2.25 0.14844 0.34961v0.25c-0.0333 0.1-0.0333 0.18333 0 0.25v0.0488l0.25 2.25 0.10156 0.30078v0.25c-0.0333 0.0333-0.0333 0.0837 0 0.15039v0.0488l0.19922 2.5 0.0996 0.35156v0.14844l-0.0488 0.35156c0.1 1.1 0.18333 2.7492 0.25 4.9492 0.0667 0.53333 0.36511 0.81628 0.89844 0.84961 0.23333 0 0.45039-0.0659 0.65039-0.19922 0.13333-0.16667 0.21667-0.35078 0.25-0.55078l0.25-1.9004c0.1-0.9 0.15039-1.7818 0.15039-2.6484l0.0508-0.95117c0-0.16667-0.0349-0.36628-0.10156-0.59961-0.0333-0.0667-0.0488-0.13255-0.0488-0.19922v-0.05067c0-0.0667 0.0155-0.13255 0.0488-0.19922 0.2-0.53333 0.30078-1.3841 0.30078-2.5508l0.0508-0.75c0-0.2-0.0349-0.36667-0.10156-0.5-0.0667-0.0667-0.0996-0.13255-0.0996-0.19922 0-0.0667 0.0175-0.1345 0.0508-0.20117 0.0667-0.23333 0.0996-0.48333 0.0996-0.75-0.0667-0.53333-0.0492-1.1496 0.0508-1.8496v-0.0508c0.0333-0.2-0.0171-0.39961-0.15039-0.59961-0.1-0.13333-0.133-0.26706-0.0996-0.40039 0.1-0.5 0.0825-1.0988-0.0508-1.7988v-0.0508l-0.0508-0.5v-0.0488c0-0.2-0.0659-0.41706-0.19922-0.65039-0.0667-0.0667-0.0996-0.1345-0.0996-0.20117 0-0.1 0.0155-0.18333 0.0488-0.25 0.2-0.53333 0.18432-1.2484-0.0488-2.1484l-0.0508-0.0508-0.15039-0.69922-0.14844-0.40039c-0.0333-0.1-0.0508-0.18333-0.0508-0.25l0.0996-0.84961c0-0.0667 0.0329-0.1345 0.0996-0.20117 0.0333-0.0667 0.0837-0.11706 0.15039-0.15039 0.3-0.2 0.43372-0.4655 0.40039-0.79883l0.0508-0.84961c0.0667-0.86666 0.0163-1.5508-0.15039-2.0508-0.0333-0.0667-0.0508-0.13255-0.0508-0.19922v-0.55075c0-1.4333-0.16667-3.3674-0.5-5.8008 0-0.13333 0.0175-0.23216 0.0508-0.29883 0.0667-0.1 0.15-0.18333 0.25-0.25 0.0667-0.0333 0.1655-0.0508 0.29883-0.0508 0.1 0.0333 0.18333 0.0837 0.25 0.15039l0.15039 0.15039 0.34961 0.25 0.10156 0.0996 0.25 0.34961v-0.0488l0.89844 1 0.25 0.14844c0.1 0.0667 0.16784 0.16745 0.20117 0.30078v-0.0508l0.15039 0.15039 1.25 1.4512 0.0488 0.0488 0.30078 0.20117c0.0667 0.0333 0.11706 0.0992 0.15039 0.19922l0.19922 0.34961v0.0508l1.5996 1.8496 0.0508 0.0508c0 0.0333 0.0155 0.0663 0.0488 0.0996 0.0667 0 0.1345 0.0329 0.20117 0.0996 0.0333 0.0333 0.0663 0.0837 0.0996 0.15039l0.15039 0.34961 1 1.3008 0.0488 0.0488c0.0333 0.0667 0.0682 0.11706 0.10156 0.15039 0.0667 0 0.13255 0.0329 0.19922 0.0996 0.0333 0.0333 0.0663 0.0837 0.0996 0.15039l0.25 0.55078 1.2012 1.6992 0.34961 0.34961c0.0667 0.0667 0.11706 0.1345 0.15039 0.20117l0.0996 0.34961 1.0488 1.5996 0.30078 0.30078c0.1 0.1 0.15039 0.21628 0.15039 0.34961 0 0.0667 0.0155 0.13255 0.0488 0.19922 0 0.0333 0.0175 0.0508 0.0508 0.0508l1.0996 1.9004 0.34961 0.39844c0.0333 0.0333 0.0682 0.0837 0.10156 0.15039l0.0996 0.40039 0.84961 1.5996 0.0508 0.0508c0 0.0333 0.0484 0.0992 0.14844 0.19922 0.0667 0.0667 0.11706 0.1345 0.15039 0.20117l0.0996 0.44922 0.90039 1.75 0.0508 0.0508c0 0.0667 0.0329 0.11511 0.0996 0.14844 0.1 0.0667 0.16589 0.16745 0.19922 0.30078l0.10156 0.5 0.84961 1.9004c0 0.0333 0.0155 0.0663 0.0488 0.0996 0 0.0333 0.0504 0.0992 0.15039 0.19922 0.0667 0.0667 0.11706 0.15 0.15039 0.25l0.0996 0.5 0.95117 2.3516 0.0488 0.0996 0.20117 0.29883c0.0333 0.0333 0.0488 0.0837 0.0488 0.15039l0.0996 0.55078 0.90039 2.4492v0.0508c0 0.0667 0.0175 0.11706 0.0508 0.15039 0.0667 0.0333 0.13255 0.11667 0.19922 0.25v0.29883c-0.0333 0.0667-0.0159 0.16745 0.0508 0.30078v-0.0508l0.75 2.5508 0.19922 0.34961c0.0333 0.0667 0.0508 0.15 0.0508 0.25v0.44922c0.43333 1.4667 0.85 3.2167 1.25 5.25 0.0333 0.2 0.13216 0.36667 0.29883 0.5l0.051 0.0508c0.13333 0.13333 0.31745 0.19922 0.55078 0.19922h0.0996c0-0.0333 0.0155-0.0488 0.0488-0.0488 0.23333-0.0333 0.41745-0.13411 0.55078-0.30078 0.13333-0.2 0.19922-0.39961 0.19922-0.59961l-0.5-6.8496c-0.0333-0.26667-0.11667-0.46628-0.25-0.59961-0.1-0.1-0.14844-0.21823-0.14844-0.35156v-0.0996c0.0667-1.2333-0.20078-2.2992-0.80078-3.1992l-0.19922-0.25c-0.0667-0.0667-0.10156-0.15-0.10156-0.25s0.0175-0.18333 0.0508-0.25c0.1-0.6 0.0341-1.3674-0.19922-2.3008l-0.30076-1.0996c-0.0333-0.0667-0.0508-0.11706-0.0508-0.15039 0-0.26667-0.13177-0.49922-0.39844-0.69922-0.0667-0.0333-0.11706-0.0837-0.15039-0.15039-0.0333-0.1-0.0508-0.18333-0.0508-0.25 0-0.53333-0.18216-1.2-0.54883-2l-0.35156-0.94922c-0.1-0.2-0.19883-0.35117-0.29883-0.45117-0.0667-0.0333-0.11706-0.0837-0.15039-0.15039-0.0333-0.0667-0.0508-0.13255-0.0508-0.19922-0.0333-0.66667-0.28334-1.3159-0.75-1.9492l-0.0488-0.0508c-0.0667-0.1-0.20039-0.23372-0.40039-0.40039-0.0667-0.0333-0.11706-0.0837-0.15039-0.15039-0.0667-0.0667-0.0996-0.13255-0.0996-0.19922-0.0667-0.66667-0.28372-1.3508-0.65039-2.0508v-0.0996c-0.1-0.16667-0.26667-0.31589-0.5-0.44922-0.1-0.0333-0.16589-0.0837-0.19922-0.15039-0.0667-0.1-0.0996-0.18333-0.0996-0.25-0.0333-0.6-0.28333-1.2163-0.75-1.8496l-0.0508-0.0508-0.30078-0.25c-0.1-0.1-0.14844-0.18333-0.14844-0.25-0.13333-0.53333-0.43372-1.2-0.90039-2l-0.0508-0.0488-0.25-0.55078c-0.0667-0.2-0.20039-0.33372-0.40039-0.40039-0.0667-0.0333-0.13255-0.0837-0.19922-0.15039-0.0667-0.0667-0.0996-0.13255-0.0996-0.19922-0.0667-0.3-0.21784-0.68372-0.45117-1.1504h-0.0488l-0.20117-0.40039c-0.0333-0.1-0.0488-0.18333-0.0488-0.25 0-0.1 0.0329-0.18333 0.0996-0.25l0.0996-0.19922c0.0333-0.1 0.0663-0.18333 0.0996-0.25 0.16667-0.23333 0.18399-0.48333 0.0508-0.75-0.0333-0.0333-0.0508-0.0663-0.0508-0.0996-0.0333-0.2-0.16511-0.50039-0.39844-0.90039h0.0488l-0.8496-1.4004c-0.86667-1.5667-1.6826-2.8826-2.4492-3.9492l-0.0508-0.0508-0.15034-0.34957c-1.4-2.1-2.4659-3.5496-3.1992-4.3496-0.0333 0-0.0508-0.0175-0.0508-0.0508l-1.3496-1.6992c-0.96667-1.2667-1.8504-2.2512-2.6504-2.9512l-1.3496-1.1992c-0.1-0.1-0.15039-0.18333-0.15039-0.25-0.0333-0.1-0.0333-0.20078 0-0.30078 0-0.1 0.0504-0.16589 0.15039-0.19922 0.13333-0.13333 0.23411-0.28255 0.30078-0.44922v-0.05078l0.44922-1.5508v-0.29883c-0.0333-0.1-0.0333-0.18333 0-0.25 0-0.1 0.0329-0.18333 0.0996-0.25l0.15039-0.30078h-0.0508l0.30081-1.4492v-0.45117c0-0.0667 0.0175-0.11511 0.0508-0.14844 0.0667-0.2 0.0996-0.31823 0.0996-0.35156v-0.0488l0.19922-2.2012c0-0.0333 0.0175-0.0663 0.0508-0.0996-0.0333-0.0333-0.0508-0.0992-0.0508-0.19922-0.0333-0.1-0.0488-0.18333-0.0488-0.25l0.0996-0.5c0.0333-0.63333 0.0333-1.2671 0-1.9004v-0.0508c0-0.13333-0.0175-0.24961-0.0508-0.34961-0.0667-0.0667-0.0996-0.13255-0.0996-0.19922 0-0.1 0.0175-0.18333 0.0508-0.25 0.0333-0.1 0.0488-0.23372 0.0488-0.40039v-0.0508c-0.0667-1.1-0.20039-2.1659-0.40039-3.1992l0.0508 0.0508c-0.1-0.3-0.26667-0.51706-0.5-0.65039-0.0333 0-0.0508-0.0175-0.0508-0.0508-0.1-0.0667-0.21628-0.0996-0.34961-0.0996-0.1 0-0.19883 0.0329-0.29883 0.0996-0.0667 0.0333-0.15 0.0508-0.25 0.0508h-0.1504l-1.8496-0.5z" fill="#ef1d1e"/>
 <path d="m61.25 2.8496 0.34961 0.30078h0.0508l0.0488-0.0508-0.0488-0.0488-0.15041-0.05079zm-0.59961 0.3008-0.0996 0.29883 0.25 0.10156h0.1484l-0.0996-0.10156v-0.0488h0.30078l0.0996-0.0508h-0.0996zm0.59961 0.19922 0.0996 0.0508 0.0996 0.0488-0.0488 0.0508c-0.025 0.0512-0.0576 0.10159-0.0996 0.15039l0.19922 0.0488c-0.037 0.0741-0.0696 0.14192-0.0996 0.20117-0.018 0.0361-0.0358 0.069-0.0508 0.0996h-0.0488c0.1169 0.0608 0.29437 0.14835 0.48047 0.24023l-0.0312 0.10938c-0.067 0.26667-0.0492 0.65039 0.0508 1.1504 0.067 0.56667 0.0996 0.98333 0.0996 1.25l0.69922 2.3496c0.067 0.2 0.16748 0.38411 0.30078 0.55078 0.1333 0.2 0.26709 0.28333 0.40039 0.25 0.2-0.0667 0.24844-0.18294 0.14844-0.34961-0.1333-0.16667-0.2167-0.30039-0.25-0.40039-0.5333-2.5667-0.7833-4.2837-0.75-5.1504 0-0.0984-0.11765-0.23146-0.34375-0.39453l0.0449-0.20508h-0.5c0.027-0.0171 0.0418-0.0345 0.0488-0.0508zm0.0508 0.65039c-0.022-5e-3 -0.057-0.0228-0.10156-0.0508l-0.0488-0.0488v0.0488c0.01 0.0354 0.01 0.0703 0 0.10156-0.01 0.0177-0.0228 0.0332-0.0508 0.0488 0.07-8e-3 0.12029-0.0236 0.15039-0.0488 0.034-9e-3 0.0508-0.0267 0.0508-0.0508zm-0.20117 0.0996c-0.038 0.0124-0.088 0.0124-0.15039 0-0.1134-0.0232-0.21223-0.0736-0.29883-0.15039l-0.0508-0.0488c-0.037-0.0889-0.0528-0.18971-0.0488-0.30078v-0.34965c-0.035 0.0574-0.07 0.10779-0.10156 0.15039-0.042 0.0561-0.091 0.10652-0.14844 0.15039l-0.0508 0.0488c-0.052 0.10794-0.11782 0.20872-0.19922 0.30078-0.1104 0.16563-0.22866 0.33229-0.35156 0.5h-4.5742c-0.014-0.10197-0.042-0.1943-0.125-0.25-0.1-0.0667-0.20078-0.0512-0.30078 0.0488-0.096 0.0813-0.2405 0.12409-0.3418 0.20117h-13.727c0.2013-0.18545 0.25435-0.25553 0.46875-0.45117 0.2667-0.2 0.31709-0.43255 0.15039-0.69922-0.1-0.16667-0.21631-0.18393-0.34961-0.0508l-1.3496 1.1504c-0.019 0.0155-0.0279 0.0353-0.0469 0.0508h-2.752c0.1316-0.0823 0.26704-0.22259 0.39844-0.30078 0.033-0.0333 0.099-0.18255 0.19922-0.44922-0.2333-0.0667-0.36709-0.0996-0.40039-0.0996-0.6 0.26667-0.9333 0.41589-1 0.44922-0.2042 0.13615-0.25392 0.26468-0.44922 0.40039h-6.457c0.033-0.0765 0.084-0.19042 0.10742-0.25 0.1-0.23333 0.017-0.34961-0.25-0.34961h-0.20117l-2.0859 0.59961h-4.0137l-2.0879 1.7539-4.1621 1.1953c-0.2333 0.13333-0.41553 0.23411-0.54883 0.30078 0.3333 0.16667 0.53291 0.25 0.59961 0.25h0.19922l0.55078-0.0996 2.2363-0.61914c-0.2057 0.21032-0.39212 0.38909-0.63672 0.66797-0.1061 0.25729-0.25532 0.4918-0.44922 0.70117-0.1904 0.24753-0.40739 0.44714-0.65039 0.59961-0.4803 0.62297-0.84449 1.1835-1.2461 1.7637-0.072 0.0181-0.23579 0.0692-0.30469 0.0859l-5.5488 0.94922c-0.5 0.0667-0.78486 0.21784-0.85156 0.45117 0.1 0.0333 0.2667 0.0992 0.5 0.19922 0.1667 0.1 0.31787 0.13303 0.45117 0.0996l2.9004-0.44913 0.0488-0.0508c0.8762-0.16531 1.52-0.36331 2.2812-0.54492-0.083 0.12652-0.20235 0.27214-0.28125 0.39648-0.1372 0.43177-0.3872 0.81355-0.75 1.1484l-0.15039 0.15039c-0.5999 1.0417-1.0043 1.8444-1.4199 2.6602-0.1174 0.0317-0.50388 0.11719-0.58008 0.14062l-1.3984 0.19922c-0.8333 0.13333-1.4516 0.3-1.8516 0.5 0.4333 0.23333 0.91787 0.31667 1.4512 0.25l1.1504-0.15039c0.1801-0.0379 0.57925-0.11037 0.81055-0.15625-0.028 0.0584-0.084 0.15001-0.11133 0.20703 0.01 0.0343 0.01 0.0517 0 0.0508-0.096 0.30768-0.24522 0.59062-0.44922 0.84961l0.0488-0.0508-0.0996 0.15039c-0.6199 1.3324-1.132 2.5868-1.6191 3.8223l-4.0801 1.2773c-0.3 0.13333-0.45117 0.2845-0.45117 0.45117 0 0.2 0.13369 0.24844 0.40039 0.14844 0.5 0 0.93408-0.0659 1.3008-0.19922l2.5-0.83398v0.084c-0.055 0.50899-0.2216 0.9586-0.5 1.3496l-0.0508 0.0508c-0.3823 1.1378-0.63957 1.9868-0.88867 2.8184-0.4609 0.16823-0.55784 0.2125-1.4609 0.53125l-0.45117 0.15039c-1 0.36667-1.5484 0.66706-1.6484 0.90039 0.3667 0.0333 0.84922 0.0159 1.4492-0.0508 0.4881-0.0888 1.1795-0.38185 1.8301-0.63281-0.024 0.40557-0.12298 0.8016-0.33008 1.1836l-0.0996 0.14844c-0.3046 1.1991-0.6069 2.5815-0.9082 3.9668l-3.0918 1.7832-0.0508 0.0508h0.0508c0.3667 0 0.68252 0.0175 0.94922 0.0508l0.0996-0.10156 1.873-1.0371c-0.041 0.19231-0.082 0.34138-0.12305 0.53711 0.01 0.0338 0 0.0678 0 0.10156l-0.0488 0.19922c-0.01 0.15104-0.0416 0.28476-0.0996 0.40039l-0.0527 0.25v0.0488c-0.287 1.4969-0.47647 2.8238-0.66797 4.1543-0.036 0.0197-0.045 0.0268-0.082 0.0469-0.7667 0.46667-1.3675 0.91628-1.8008 1.3496v0.0508h-0.0488c-0.033 0.0667-0.13408 0.13255-0.30078 0.19922-0.1 0.1-0.11553 0.20078-0.0488 0.30078 0.067 0.0667 0.18291 0.0996 0.34961 0.0996 0.067 0 0.2333-0.10078 0.5-0.30078l1.291-0.86719c-0.023 0.17718-0.0698 0.39433-0.0918 0.56836 3e-4 0.16706-0.0148 0.31628-0.0488 0.44922v3.9864l-1.6504 1.6133-0.30078 0.34961c-0.1 0.1-0.1833 0.26667-0.25 0.5l0.55078-0.0488 0.0996-0.0508c0.8388-0.74125 1.0886-1.0543 1.5508-1.5215v0.82227c0.047 0.24153 0.047 0.47409 0 0.69922v4.8496c-0.1333 0.33333-0.36787 0.70156-0.70117 1.1016-0.2 0.23333-0.51592 0.56667-0.94922 1l-0.14854 0.19914c-0.1667 0.23333-0.18378 0.45039-0.0508 0.65039l0.20117-0.0996 0.25-0.20117 1.1992-1.3496 0.20117-0.16797v0.86719c0.019 0.10351-0.01 0.19368 0 0.29297l-0.10156 1.8574c0.067 2.1333-0.44883 3.7496-1.5488 4.8496-0.067 0.0667-0.33408 0.30117-0.80078 0.70117-0.1 0.0333-0.16592 0.0992-0.19922 0.19922-0.033 0.13333-6.9e-4 0.24961 0.0996 0.34961 0.1 0.13333 0.28408 0.11757 0.55078-0.0488l1.5996-1.5508 0.0488 0.45117c0.067 1.9333-0.36553 3.7667-1.2988 5.5l-0.59961 1.0488c-0.1667 0.33333-0.1667 0.55039 0 0.65039s0.34883-0.0163 0.54883-0.34961l0.0508-0.0508c0.6-0.86667 0.96631-1.5663 1.0996-2.0996 0 1.0667 0.0168 1.6829 0.0508 1.8496 0.2667 1.8667-0.11709 3.7-1.1504 5.5l-1 1.7012c-0.067 0.1-0.067 0.28216 0 0.54883l0.34963-0.15041c0.3-0.16667 0.51709-0.34883 0.65039-0.54883 0.5-0.5 0.88369-1.1841 1.1504-2.0508-0.033 0.3 0.083 1.4008 0.34961 3.3008 0.1667 1.3667 0.015 2.4829-0.45117 3.3496-0.033 0.1-0.16514 0.26667-0.39844 0.5-0.1667 0.16667-0.26748 0.31589-0.30078 0.44922-0.067 0.46666-0.18291 0.83489-0.34961 1.1016-0.1333 0.36667-0.33291 0.73294-0.59961 1.0996-0.067 0.0667-0.10156 0.24883-0.10156 0.54883l0.40039-0.25c0.1333-0.0667 0.23408-0.18294 0.30078-0.34961 0.2667-0.33333 0.56709-0.81589 0.90039-1.4492 0.4068-0.78234 0.6371-1.2134 0.75-1.4082v1.6074l0.0508 0.45117c0.02 0.2 0.02 0.39961 0 0.59961l-0.0508 0.5v3.8965c-0.1419 0.34108-0.26529 0.63805-0.65039 1.5527-0.3667 0.86667-0.7 1.5508-1 2.0508-0.1 0.23333-0.31709 0.54922-0.65039 0.94922v0.59961c0.2667-0.0667 0.40039-0.11511 0.40039-0.14844l0.25-0.25c0.3-0.3 0.74961-1.05 1.3496-2.25l0.30078-0.71094v1.6602c0.082 0.30117 0.11606 0.60156 0.10156 0.90039-0.015 0.21589-0.0496 0.4155-0.10156 0.59961v3.7363c-0.524 1.034-0.78419 2.0304-1.6504 3.1133l-0.0508 0.0508c-0.1333 0.2-0.18369 0.34922-0.15039 0.44922 0 0.13333 0.068 0.16637 0.20117 0.0996l0.19922-0.0488c0.387-0.22574 0.87697-0.83002 1.4512-1.7422v6.5527c-0.3776 0.65084-0.5449 1.2008-1 1.8887-0.033 0.0667-0.13408 0.16745-0.30078 0.30078-0.1667 0.1-0.25 0.18333-0.25 0.25 0 0.0667 0.05 0.15 0.15039 0.25 0.2 0.2 0.51592 0.0488 0.94922-0.45117 0.2406-0.31924 0.23557-0.48721 0.45117-0.79102v6.5898c-0.2595 0.29151-0.4764 0.69746-0.75 0.95117-0.2333 0.23333-0.35156 0.4-0.35156 0.5 0 0.0667 0.05 0.15 0.15039 0.25 0.1333 0.1 0.26709 0.1 0.40039 0 0.1667-0.13333 0.28291-0.23216 0.34961-0.29883 0.069-0.0619 0.13237-0.17332 0.20117-0.23828v2.4883c0.3004 1.3861 0.52662 2.3324 0.72852 3.1309-0.045 0.0437-0.083 0.1258-0.12891 0.16797-0.1667 0.16667-0.21709 0.35078-0.15039 0.55078l0.0508 0.0508c0.1694 0.1694 0.31975 0.11755 0.46484 0 1.0336 3.7958 2.495 7.558 4.1641 11.305-0.033 0.0511-0.0471 0.0932-0.0801 0.14453-0.1667 0.2-0.21709 0.33372-0.15039 0.40039 0.2147 0.0805 0.33646 0.0121 0.44336-0.0801 0.5794 1.2799 1.112 2.5638 1.7656 3.8379-0.047 0.089-0.056 0.0938-0.10742 0.19141-0.3333 0.6-0.63369 1.0671-0.90039 1.4004l-0.34961 0.30078c-0.067 0.0667-0.11709 0.23333-0.15039 0.5l0.44922-0.0508 0.34961-0.15039c0.2667-0.13333 0.5167-0.38333 0.75-0.75 0.1579-0.29323 0.24109-0.45642 0.33789-0.64258l0.0625 0.0937h-0.0488c0.1717 0.21068 0.30354 0.42579 0.39844 0.64844l0.043 0.1289 1.0215 1.8262c-0.3448 0.67037-0.35305 1.087-0.81445 1.8457l-0.39844 0.65039c-0.067 0.13333-0.20039 0.28255-0.40039 0.44922-0.1333 0.2-0.16601 0.39961-0.0996 0.59961l1-0.79883 0.0488-0.0508 0.20117-0.29883c0.2339-0.27085 0.6205-1.1408 0.9043-1.6074l0.14453 0.25586 0.0996 0.15039c0.063 0.0904 0.11379 0.1737 0.15039 0.25v0.0508l0.0508 0.0996 1.3086 2.0723c-0.196 0.59923-0.33318 1.1839-0.70898 1.8281v0.0488l-2 3.2012c-0.1667 0.23333-0.14962 0.36706 0.0508 0.40039 0.067 0.0333 0.13252 0.0333 0.19922 0l0.19922-0.20117c0.8667-1.0333 1.5333-1.95 2-2.75l0.78906-1.7012c0.062 0.0666 0.10701 0.13127 0.16211 0.19726v0.6543c-0.033 0.53333-0.0162 1.3008 0.0508 2.3008 0.067 1.8 0.067 3.0151 0 3.6484 0 0.0333 0.083 0.21745 0.25 0.55078l0.15039-0.0996 0.30078-7.0996 0.79883 1.5996c0.4 0.8 0.80117 1.3833 1.2012 1.75 0.1 0.1 0.36553 0.21628 0.79883 0.34961l-0.14844-0.44922c-0.4667-0.46666-0.83486-1.0345-1.1016-1.7012l-0.34961-0.90039c-0.5333-0.93333-0.83369-1.4663-0.90039-1.5996-0.1006-0.20132-0.0971-0.40237-0.16797-0.60352 0.1406-0.52952 0.30727-1.0152 0.41797-1.5957v-0.20117c-5e-4 -0.29531 0.034-0.59375 0.10156-0.89844l0.0488-0.15039c0.024-0.21242 0.0191-0.45043 0.0371-0.66797 0.4856 0.70718 1.0043 1.5365 1.4141 1.9668l0.89844 0.80078 0.40039 0.0508-0.10156-0.35156-1.4004-1.8984c-0.663-0.98444-0.82053-1.2668-1.1445-1.7793 0.01-0.27898 0.0439-0.53582 0.0449-0.82226 0-0.81784-0.0158-1.4496-0.0508-1.8984-0.011-0.0235-0.0258-0.0584-0.0488-0.10156l-0.0508-0.34961c-0.054-0.29922-0.0688-0.59961-0.0488-0.90039l0.0488-0.19918c-0.025-0.20939-0.10301-0.47111-0.13281-0.68555 0.5971 0.76041 1.2076 1.378 1.834 1.7852l0.25 0.20117 0.59961 0.25c-0.1-0.36667-0.1833-0.58372-0.25-0.65039l-2.1504-2.4512c-0.2699-0.33038-0.40774-0.71898-0.65234-1.0606-0.1663-0.86291-0.25975-1.6526-0.49805-2.5879-0.2924-0.37917-0.49211-0.81328-0.59961-1.3008-0.078-0.33164-0.0948-0.66497-0.0508-1-0.084-0.29023-0.28824-0.87009-0.39844-1.2227 0.9997 1.2443 1.8966 2.2696 2.5 2.6719 0.2667 0.23333 0.63291 0.46784 1.0996 0.70117h0.54883l-0.25-0.40039-2.3984-2.3496c-1.0838-1.2505-1.6684-1.9641-2.127-2.543-0.1795-0.53685-0.25841-0.83156-0.47461-1.457-0.2307-0.32135-0.3974-0.68763-0.5-1.0996-0.075-0.27735-0.10801-0.56224-0.0996-0.85156-0.2261-0.69932-0.30369-0.96621-0.49609-1.5684 0.079 0.097 0.42496 0.54604 0.44726 0.56836 0.9 1.0333 1.6151 1.7504 2.1484 2.1504 0.6667 0.53333 1.3508 0.86667 2.0508 1h0.34961l-0.40039-0.44922c-0.83319-0.43332-1.6492-1.0496-2.4492-1.8496-0.6667-0.7-1.2171-1.3667-1.6504-2-0.5339-0.62596-0.77016-0.97381-1.1309-1.4375-0.2011-0.6431-0.52757-1.6463-0.66797-2.1133-0.3525-0.40235-0.58697-0.8694-0.70117-1.4004-0.086-0.40508-0.10123-0.8043-0.0488-1.1992l-0.23242-1.0039c0.2487 0.30703 0.29292 0.36712 0.73242 0.9043 0.6333 0.73333 1.1817 1.3322 1.6484 1.7988l0.25 0.25c1.3667 1.2333 2.5683 2.0163 3.6016 2.3496 0.1 0.0333 0.23174 0.0508 0.39844 0.0508s0.25-0.0175 0.25-0.0508c0.067-0.16667-0.065-0.33333-0.39844-0.5-0.7-0.36667-1.3337-0.76589-1.9004-1.1992-1.1333-0.96667-2.0171-1.8-2.6504-2.5-0.6667-0.76667-1.3663-1.6504-2.0996-2.6504-0.047-0.0945-0.33686-0.41367-0.60156-0.70899-0.185-0.36847-0.28683-0.76595-0.29883-1.1914l-0.0527-1.3984c-0.2208-1.0531-0.42041-2.1868-0.59961-3.4004-0.02-0.12334-0.0445-0.39772-0.0645-0.53125 0.1308 0.11275 0.3661 0.42554 0.4668 0.48047 0.2667 0.1 0.4333 0.13303 0.5 0.0996l0.15039-0.14844-1.2539-1.5352c-0.1577-1.1545-0.31349-2.2418-0.49609-3.9648l-0.10158-0.30077c-0.095-0.35156-0.13006-0.71784-0.10156-1.0996v-0.40039c-0.011-0.19526-0.0173-0.40509-0.0273-0.60156 0.6431 0.77577 1.2669 1.4978 1.7793 1.9023l1.25 0.79883 0.15039 0.15039c0.1 0.0667 0.20078 0.0337 0.30078-0.0996 0.1333-0.16667 0.083-0.36628-0.15039-0.59961-0.6-0.4-1.1504-0.85156-1.6504-1.3516-0.6277-0.56166-1.2049-1.2243-1.7344-1.9824-0.058-1.1626-0.11971-2.3146-0.16601-3.5176-0.1457-0.5638-0.19414-0.94557-0.14844-1.1484 0.01-0.12995 0.0248-0.26367 0.0488-0.40039l0.0508-0.30078v-0.34375c0.5362 0.73468 1.0846 1.3355 1.6504 1.7441 0.4 0.36667 0.9 0.68255 1.5 0.94922 0.2667 0.1 0.41592 0.13489 0.44922 0.10156 0.1-0.2 0.05-0.36667-0.15039-0.5-0.9667-0.8-1.4996-1.2516-1.5996-1.3516l-0.25-0.25c-0.7051-0.92209-1.081-1.3938-1.5996-2.0606v-2.4883l-0.0508-0.20117c-0.012-0.22865-0.012-0.4612 0-0.69922l0.0508-0.25 0.0117-0.39844c0.5238 0.50596 1.0372 1.0807 1.5879 1.3984l1.1504 0.55078c0.1002-0.16674 0.05-0.35078-0.15039-0.55078l-1-0.84961c-0.6728-0.61168-1.0746-1.078-1.5606-1.5898l0.0606-2.1602-0.0508-0.5c-0.026-0.27578-0.0102-0.55872 0.0508-0.84961l0.0508-0.30078 0.0215-0.26562c0.2925 0.32799 0.34903 0.57556 0.67773 0.91601l0.84961 0.75c0.6 0.43333 1.2337 0.68333 1.9004 0.75l-1.8496-1.8008c-0.634-0.66286-0.97629-1.1253-1.4922-1.707l0.35547-4.4941c0.3289 0.29263 0.65753 0.71632 0.98633 0.95117l0.40039 0.20117c0.2667 0.1 0.53213 0.13303 0.79883 0.0996l0.10146-0.15039c-0.2-0.3-0.48486-0.49961-0.85156-0.59961l-0.0488-0.0508-0.15039-0.0488-1.1621-1.3398 0.3125-3.9609v-0.34961c0-0.0219 0.0116-0.0716 0.0156-0.0937 0.5927 0.35909 1.122 0.52714 1.584 0.49414l0.25-0.0508-0.19922-0.15039c-0.4937-0.33715-0.94683-1.0303-1.4277-1.4805 0.1895-1.1708 0.38526-2.3666 0.72656-4.1699 0.021-0.1088 0.11839-0.18491 0.15039-0.28906 0.041-9e-3 0.0526 4e-3 0.0996-0.01 0-0.0729-0.0253-0.0716-0.0312-0.125 0.1438-0.39655 0.27763-0.79724 0.58203-1.125 0.4503-0.41888 0.96573-0.68633 1.5488-0.80078 0.6277-0.11263 1.2285-0.0448 1.8008 0.20117 0.557 0.23737 0.99118 0.60364 1.3008 1.0996l0.17774 0.26563c-0.4128 0.3914-0.62514 0.65488-1.1777 1.1348l-1 1-0.40039 0.39844c-0.1667 0.16667-0.18378 0.30039-0.0508 0.40039 0.2 0.2 0.5333 0.0663 1-0.40039l0.84961-0.84961c0.6411-0.59052 0.81274-0.745 1.2148-1.1133 0.025 0.0388 0.0629 0.0739 0.0859 0.11328l0.15039 0.30078c0.8504 1.143 1.6669 2.0932 2.457 2.8906-0.024 0.5439-0.1582 1.6311-0.1582 2.0586 0 1.7333 0.11826 3.3167 0.35156 4.75 0.067-0.5 0.18291-1.9826 0.34961-4.4492l0.17188-2.957c0.1585-0.18118 0.32701-0.36056 0.47851-0.54297l0.0488-0.0508v-0.0488c0.2249-0.45677 0.54267-0.8405 0.95117-1.1504 0.15905 0.72421 0.31962 1.4393 0.49805 1.9492v0.0508c0.4333 1.1333 0.66592 1.7322 0.69922 1.7988 0.3333 0.7 0.75 1.3008 1.25 1.8008l-1.3496-4.4004c-0.26-0.82338-0.25346-1.3412-0.43946-2.0801 0.6063-0.81148 1.2563-1.6774 1.4883-2.0195l0.20117-0.30078c0.132-0.22735 0.28122-0.44245 0.44922-0.64844l0.0879-0.0859 0.71484 1.7852c0.5333 1.0667 1.0992 1.8826 1.6992 2.4492 0.033 0.0333 0.16709 0.13411 0.40039 0.30078 0-0.3-0.0197-0.48411-0.0527-0.55078-0.5333-0.83333-1.0488-1.783-1.5488-2.8496-0.2947-0.62626-0.45047-1.2525-0.66406-1.8789l1.2637-1.8203 0.0527-0.15039c0.1764-0.40729 0.40902-0.77357 0.69922-1.0996l0.0332-0.0352c0.2521 0.62068 0.47363 1.3231 0.76563 1.834 0.4667 0.73333 0.89883 1.3516 1.2988 1.8516 0.1 0.1 0.23369 0.26667 0.40039 0.5 0.1667 0.16667 0.28291 0.21511 0.34961 0.14844 0.1333-0.1 0.15233-0.23177 0.0527-0.39844-0.1667-0.2-0.28291-0.35117-0.34961-0.45117l-1.25-2.4004c-0.2834-0.59657-0.48818-1.2558-0.73828-1.8789l1.6875-2.5703 0.0508-0.0508c0.091-0.21836 0.20751-0.43347 0.34961-0.64844 0.087-0.10341 0.17011-0.19698 0.25391-0.29101 0.2318 0.38479 0.46351 1.0739 0.69531 1.3906l2.3008 3.2988c0.033 0.0333 0.2833 0.15156 0.75 0.35156 0.033-0.1-0.05-0.30156-0.25-0.60156-0.6333-0.86667-1.3679-2.0159-2.2012-3.4492l-0.88086-1.6016 1.4824-2.3477c0.1368-0.33529 0.35396-0.64336 0.59766-0.9414 0.3436 0.54058 0.54787 1.0252 0.95117 1.5898l0.5 0.75c0.4333 0.7 0.79961 0.96745 1.0996 0.80078 0.1333-0.1-0.033-0.43333-0.5-1l-0.10156-0.19922-0.65039-0.95117c-0.4413-0.70606-0.51135-1.0415-0.87305-1.668l1.123-1.7812 0.0527-0.0508c0.149-0.44427 0.38152-0.84349 0.69922-1.1992l0.0742-0.0508c0.26 0.58654 0.22079 0.86785 0.52539 1.5l0.20127 0.40061c0.5667 1.1333 1.2159 2.0674 1.9492 2.8008 0.1333 0.16667 0.41826 0.33333 0.85156 0.5l-0.0508-0.40039c-0.9333-1.4667-1.6833-2.7012-2.25-3.7012l-0.86328-1.6426 1.3633-2.2559-0.0508 0.0488c0.1212-0.20482 0.25499-0.40443 0.40039-0.59961l0.15043-0.19919 0.0332-0.0527c0.2465 0.56407 0.55748 1.4839 0.76758 1.8516 0.3333 0.7 0.86631 1.4345 1.5996 2.2012 0.067 0.0667 0.13252 0.1655 0.19922 0.29883 0.1 0.1 0.20078 0.11727 0.30078 0.0508 0.1667-0.13333 0.11631-0.36784-0.15039-0.70117-0.4-0.53333-0.9-1.3996-1.5-2.5996l-0.65039-1.5c-0.054-0.1193-0.049-0.22873-0.10156-0.34766l1.6523-2.6523v0.0508c0.041-0.077 0.0736-0.16029 0.0996-0.25 0.034-4e-3 0.0508-0.0215 0.0508-0.0508 0.05-0.0433 0.0826-0.0937 0.0996-0.15039l0.21094-0.33203c0.2516 0.52884 0.48839 1.0841 0.83789 1.4336l0.10156 0.14844c0.067 0.33333 0.15 0.5 0.25 0.5v-0.89844l-0.05078-0.05083c-0.3198-0.77498-0.38895-1.2578-0.62695-1.9375l1.627-2.5625 0.15039-0.30078c0.1117-0.19401 0.22801-0.37618 0.34961-0.54883l0.0508-0.0508 0.0859-0.13086-0.0332 0.0312 0.0254-0.0469c0 4e-3 -2.4e-4 7e-3 0.01 0.0117l-2e-3 4e-3c0.2968 0.62399 0.60738 1.3749 0.86328 1.6309l0.44904 0.40041 0.30078 0.05078v-0.20117l-0.65039-1.4492c-0.2312-0.44708-0.24745-0.855-0.43945-1.2949l1.2891-2.0547 0.0508-0.0508v-0.0508l0.0508-0.0488c0.1501-0.3388 0.34971-0.65664 0.59961-0.95117l0.0488-0.0488 0.1914-0.29687c0.1666 0.63377 0.2047 0.84763 0.5586 2.0957 0 0.0333 0.15117 0.15156 0.45117 0.35156 0.1-0.16667 0.13456-0.26745 0.10156-0.30078l-0.25-1.3496c-0.1498-0.72613-0.19254-1.04-0.31054-1.6426l1.3613-2.1074v-0.0508l0.0996-0.19922c0.1574-0.38385 0.37449-0.73463 0.65039-1.0508l0.14844-0.15039 0.20313-0.30274c0.1518 0.78451 0.17243 1.5691 0.39843 2.3535l0.14844 0.40039c0.067 0.26667 0.28369 0.63294 0.65039 1.0996l0.15039-0.5-0.34961-1.9004c-0.2405-1.3977-0.24411-1.5184-0.38281-2.3672l1.6328-2.4316 0.0488-0.15039v-0.0508c0.1602-0.31719 0.36166-0.61758 0.60156-0.90039l0.14844-0.0996 0.38672-0.5957c0.1375 0.73232 0.071 1.8742 0.26367 2.4961l0.0508 0.15039c0.067 0.23333 0.28369 0.56667 0.65039 1 0.1-0.33333 0.13261-0.55039 0.0996-0.65039l-0.25-1.3008c-0.2509-1.0454-0.3015-1.6161-0.4082-2.3203l0.50781-0.7793 0.0996-0.15039v-0.0488c0.1852-0.42292 0.45258-0.7892 0.80078-1.0996l0.10157-0.10156c0.1085-0.15823 0.20635-0.28453 0.31445-0.44141 0.099 0.82931 0.066 1.668 0.23633 2.4922 0.1667 0.76667 0.36631 1.5167 0.59961 2.25 0.067 0.23333 0.16553 0.33411 0.29882 0.30078 0.067 0 0.10157-0.11823 0.10157-0.35156 0-0.26667-0.13369-1.2822-0.40039-3.0488l-0.15039-0.80078c-0.089-0.75345-0.0171-1.0253-0.0781-1.6953 1.4578-2.0985 2.9014-4.1527 4.2773-6.0039h0.94727c0.1268-6.5e-4 0.22563-0.0336 0.29883-0.0996 0.088-0.0526 0.13839-0.12044 0.15039-0.20117zm-47.357 133.23-0.043-0.0781 0.0508 0.0996zm56.207-133.78c-0.067 0-0.13252 0.0484-0.19922 0.14844-0.067 0.13333-0.0838 0.21667-0.0508 0.25 0.5 1.6667 0.93408 2.9671 1.3008 3.9004 0.6333 1.8 1.3175 3.3 2.0508 4.5 0.8333 1.2333 1.5329 2.0512 2.0996 2.4512l0.29883-0.15039v-0.25c-1.0333-1.3004-1.8492-2.6004-2.4492-3.9004-1.2-2.5333-1.9829-4.5837-2.3496-6.1504-0.1333-0.5-0.36787-0.7655-0.70117-0.79883zm14.301 0.0996c-0.033 0-0.13408 0.23255-0.30078 0.69922l2.1504 3.5c0.1 0.13333 0.21631 0.38333 0.34961 0.75 0.1333 0.23333 0.33486 0.28372 0.60156 0.15039 0.1-0.0333 0.0822-0.2-0.0508-0.5-0.2-0.36667-0.33369-0.63411-0.40039-0.80078-0.6-1.3-1.2821-2.3988-2.0488-3.2988-0.033-0.0333-0.0508-0.14961-0.0508-0.34961 0-0.13333-0.083-0.18372-0.25-0.15039zm-18.1 0.09957c-0.2333 0.23333-0.34961 0.4-0.34961 0.5 0.1667 1.3333 0.29844 2.1492 0.39844 2.4492 0.3 0.76666 0.70117 1.9178 1.2012 3.4512 0.6333 1.3667 1.1992 2.3337 1.6992 2.9004-0.067-0.63333-0.11709-1.0016-0.15039-1.1016-0.6333-1.7667-1.1333-3.0826-1.5-3.9492-0.2333-0.5-0.43291-1.1163-0.59961-1.8496-0.1667-0.83333-0.30039-1.4671-0.40039-1.9004 0-0.0667-0.099-0.23333-0.29883-0.5zm9 0.0508-0.0996 0.44922c-0.033 0.4 0.05 0.83412 0.25 1.3008 0.1333 0.26667 0.31553 0.66589 0.54883 1.1992 1.5 3.5333 3.1008 6.0663 4.8008 7.5996l0.44922 0.25c-0.033-0.23333-0.084-0.4-0.15039-0.5l-1.9492-2.9492c-0.5-0.73333-1.0329-1.6674-1.5996-2.8008l-1.4004-2.9004c-0.1-0.4-0.1833-0.69844-0.25-0.89844-0.1-0.36667-0.29961-0.61667-0.59961-0.75zm4.2988 0.14844c-0.1 0.1-0.16592 0.15039-0.19922 0.15039l0.0508 0.25c1.0333 2.4667 1.6321 3.8833 1.7988 4.25 0.7333 1.6 1.4833 2.9663 2.25 4.0996 0.3333 0.43333 0.63369 0.56706 0.90039 0.40039 0.1333-0.0667 0.15038-0.18294 0.0508-0.34961-0.1333-0.16667-0.23408-0.30039-0.30078-0.40039l-0.5-0.75c-1.3-2.4-2.4492-4.8496-3.4492-7.3496-0.1-0.26667-0.30156-0.36745-0.60156-0.30078zm16.9 0.20117c-1.4667 0.66667-2.7496 1.5659-3.8496 2.6992-0.8333 0.8-1.8159 1.8833-2.9492 3.25-1.3667 1.4333-2.3008 2.5671-2.8008 3.4004l-2.4824 3.791-2.9668-0.041c-1.4159 0.12555-3.0949 0.54924-4.7324 0.92578-0.2839-0.10539-0.74995-0.30207-0.96875-0.375l-5.2988-2.1016c-0.4667-0.16667-0.73408-0.16667-0.80078 0-0.1 0.2 0.10001 0.40156 0.59961 0.60156l2.5508 1.1484c0.5877 0.24746 1.7843 0.65503 2.6445 0.97461-0.3208 0.084-0.56583 0.0828-0.89453 0.17578l-0.25 0.0996c-0.3934 0.21315-0.81 0.33138-1.25 0.35156-0.7671 0.25685-1.3933 0.5261-2.0879 0.78906l-2.8125-0.58987c-1.3-0.33333-2.4492-0.76745-3.4492-1.3008-0.1-0.0667-0.20078-0.0822-0.30078-0.0488-0.1333 0.0333-0.2167 0.0992-0.25 0.19922-0.033 0.1 0.083 0.20078 0.34961 0.30078l0.45117 0.0488c0.5667 0.46666 1.3167 0.86784 2.25 1.2012 0.4386 0.17057 1.4952 0.41626 2.5215 0.6582-0.2408 0.0986-0.54059 0.19148-0.77149 0.29102l-0.15039 0.0996c-0.2443 0.18919-0.51168 0.32292-0.80078 0.40039-0.1625 0.0733-0.31172 0.1237-0.44922 0.15039-0.4784 0.2364-0.90012 0.47386-1.3535 0.71094-0.075-0.0113-0.12157 7e-5 -0.19727-0.0117l-7.1504-1.0488c-0.2667-0.0667-0.4333-0.0337-0.5 0.0996 0 0.0333 0.05 0.0837 0.15039 0.15039 0.1333 0.1 0.23408 0.15039 0.30078 0.15039l3.75 0.89844 0.84961 0.10156c0.3678 0.0552 1.0666 0.17966 1.627 0.27539-0.1364 0.075-0.29383 0.14957-0.42773 0.22461-0.25 0.30664-0.56592 0.53919-0.94922 0.69922-0.1954 0.11367-0.39501 0.19701-0.59961 0.25-0.5997 0.36721-1.2693 0.86019-1.9102 1.3008-0.86009-0.0266-1.6526-0.087-2.7402 0-1.6667 0.0667-2.9167 0.0822-3.75 0.0488 0.7333 0.13333 1.7992 0.26706 3.1992 0.40039 0.5486 0.0366 1.7194 0.0727 2.4688 0.10938-0.2478 0.17767-0.46525 0.30201-0.71875 0.49023l-0.19922 0.20117c-0.1726 0.20104-0.37231 0.36771-0.59961 0.5l-0.25 0.14844c-0.7319 0.60262-1.3761 1.2481-2.043 1.8828-0.7933 0.0769-1.9884 0.12625-2.5566 0.21875l-0.30078 0.0488c-0.2 0.0333-0.63408 0.0508-1.3008 0.0508-0.5667 0-1.0163 0.0504-1.3496 0.15039l-0.5 0.25 0.20117 0.19922c0.8 0.2 1.6159 0.26589 2.4492 0.19922 0.5447-0.0474 1.501-0.15032 2.416-0.24805-0.068 0.0688-0.1501 0.13009-0.2168 0.19922-0.1446 0.35807-0.35974 0.67396-0.64844 0.94922-0.1974 0.17851-0.41449 0.32968-0.65039 0.45117-0.4052 0.49472-0.6093 0.7827-0.9082 1.168-0.6979 0.062-1.6018 0.21765-2.1914 0.23047l-0.70117 0.0508c-0.3667 0.16667-0.64961 0.28294-0.84961 0.34961 0.4 0.16667 0.76631 0.25 1.0996 0.25 0.3106 0.0282 1.0818 2e-3 1.9902-0.041-0.046 0.0637-0.14785 0.1832-0.18945 0.24219-0.017 0.0173-0.0338 0.0328-0.0508 0.0488l-0.40039 0.59961-0.0488 0.10156c-0.6065 0.88527-1.1 1.7963-1.5957 2.707-0.7419 0.13675-1.2793 0.41297-2.1055 0.49219l-1.0488 0.0508c-0.6333 0-1.0171 0.18216-1.1504 0.54883 0.2667 0.0333 0.65039 0.10117 1.1504 0.20117l0.75-0.0508c0.726-0.0842 1.2652-0.32979 1.9414-0.45703-0.027 0.053-0.0648 0.10318-0.0918 0.15625v0.0508c-0.074 0.31849-0.19021 0.60143-0.34961 0.84961v0.0508l-0.1504 0.19921v-0.0488c-0.4691 1.1195-0.84281 2.3044-1.1953 3.5039l-4.7539 1.8945c-0.4667 0.16667-0.65078 0.36823-0.55078 0.60156 0.1333 0.23333 0.43369 0.2491 0.90039 0.0488l4.1504-1.7148v0.0644c1e-3 0.44635-0.082 0.84752-0.25 1.2012-0.1808 0.91799-0.26317 1.8473-0.35547 2.7754l-3.1953 2.5234c-0.5 0.4-0.68408 0.68489-0.55078 0.85156 0.1 0.23333 0.38486 0.1655 0.85156-0.20117l2.7578-2.1133c-1e-3 0.0216-0.01 0.0428-0.01 0.0645l0.0488 0.39844c0.02 0.2 0.02 0.40156 0 0.60156l-0.0488 0.44922c0 0.74233 0.10949 1.5664 0.18359 2.3652l-1.3848 2.0352c-0.6 0.86667-1.1988 1.6496-1.7988 2.3496-0.067 0.1-0.2333 0.26667-0.5 0.5-0.2 0.23333-0.23486 0.45039-0.10156 0.65039 0.033 0.1 0.18447 0.0825 0.45117-0.0508 0.2667-0.13333 0.46631-0.28255 0.59961-0.44922 0.8333-0.96667 1.3508-1.6178 1.5508-1.9512 0.031-0.0472 0.87134-1.3229 1.2734-1.9336 0.015 0.11671 8e-3 0.21615 0.0234 0.33399 0.085 0.14453 0.15268 0.2957 0.20118 0.45117 0.13309 0.38867 0.18153 0.78789 0.14843 1.1992 0 8e-3 -2.3e-4 0.0137 0.01 0.0215l-3.0059 7.2793v0.29883l0.35156-0.0996c0.7333-1.0667 1.15-1.7004 1.25-1.9004 0.3667-0.66667 0.66514-1.3333 0.89844-2l0.83984-2.4551c0.071 0.23002 0.13874 0.49131 0.21094 0.70508 0.058 0.0787 0.057 0.17265 0.10547 0.25391 1e-3 0.0172-0.01 0.0797-0.01 0.0957 0.033 0.8 0.14961 2.0016 0.34961 3.6016l0.0508 0.84961c0.2333 2.2667 0.7004 4.2492 1.4004 5.9492l0.19922 0.20117 0.15039 0.0996c0.067-0.2 0.0857-0.35117 0.0527-0.45117-0.4333-1.8-0.70078-3.1488-0.80078-4.0488l-0.44922-5.7012c-0.026-0.3744 0.0476-0.40396 0.0566-0.6582 0.021-0.0279 0.021-0.0644 0.043-0.0918 0.01-0.0194 0.01-0.0349 0-0.0488 0.054-0.13222 0.13606-0.29755 0.19336-0.43359 0.3656 1.1906 0.67196 2.1819 0.75586 2.4336 0.6 1.7333 1.4179 3.0492 2.4512 3.9492-1.1667-2.7333-1.8508-4.3826-2.0508-4.9492-0.3335-0.93372-0.41871-1.7921-0.59961-2.6797 0.1722-0.38002 0.3062-0.71586 0.5-1.1211v-0.09964l0.0488-0.0508c0.1017-0.4257 0.28528-0.825 0.55078-1.1992v0.0508l0.0531-0.05078c0.014-0.0268 0.0436-0.08 0.0586-0.10742 0.29389 0.61904 0.43262 1.2298 0.89062 1.8574 0.2333 0.36667 0.65 0.88412 1.25 1.5508 0.1667 0.16667 0.30039 0.1997 0.40039 0.0996 0.033-0.1 0.0162-0.26667-0.0508-0.5l-1.9004-3.0508c-0.1-0.24168-0.10401-0.43626-0.19141-0.67188 0.306-0.5646 0.58857-1.095 1.043-1.877v-0.10156c0.025 1.3e-4 0.0398-0.0154 0.0488-0.0488 0.1087-0.2556 0.24249-0.5056 0.40039-0.75v0.0488l0.0996-0.14844c0.078-0.12937 0.19514-0.26626 0.27734-0.39648 0.2673 0.69662 0.24985 1.4026 0.62305 2.0957 0.3 0.63333 0.60039 1.1508 0.90039 1.5508 0.3667 0.53333 0.66709 0.7155 0.90039 0.54883 0.1333-0.0667 0.1333-0.18294 0-0.34961-0.1667-0.2-0.28486-0.34922-0.35156-0.44922-0.1667-0.43333-0.31592-0.75117-0.44922-0.95117l-0.59961-1.0488c-0.2605-0.47365-0.37164-1.4085-0.58594-2.0254 0.3956-0.58827 0.76183-1.1707 1.2363-1.7754l0.14844-0.25c0.132-0.22735 0.28317-0.4444 0.45117-0.65039l0.10547-0.10547c0.2484 0.57352 0.48894 1.2906 0.74414 1.7559 0.3 0.56667 0.58291 1.0337 0.84961 1.4004 0.067 0.16667 0.18291 0.21706 0.34961 0.15039l0.15045-0.30077c-0.4333-0.96667-0.6833-1.4996-0.75-1.5996l-0.0996-0.25c-0.2395-0.43911-0.30873-1.3714-0.51562-1.9043 0.87559-0.98222 1.7135-1.8729 2.4492-2.5234 0.1286 0.20351 0.2801 0.32812 0.4668 0.32812h0.0996c0.1-0.0333 0.11708-0.1845 0.0508-0.45117-0.07-0.15758-0.088-0.2301-0.13086-0.3418 2.1301-1.8676 4.3521-3.2456 6.6797-4.0586 0.5703-0.18034 1.1382-0.19611 1.7012-0.0488 0.5935 0.13633 1.0935 0.41927 1.5 0.84961 0.2386 0.2572 0.30545 0.59328 0.43555 0.90039-0.4791 0.3591-0.71923 0.74483-1.2363 1.0996l-1.9492 1.3008-0.30078 0.14844c-0.1333 0.0667-0.18369 0.16745-0.15039 0.30078l0.75-0.0508c0.033 0 0.14961-0.0484 0.34961-0.14844l1.3008-0.80079c0.6913-0.44123 1.0242-0.72718 1.5664-1.1035l0.0332 0.20313c0.06 0.30351 0.06 0.58646 0 0.84961v0.20117c-0.019 0.74314 0 1.5174 0 2.2812-0.1428 0.13506-0.20201 0.23187-0.34961 0.36914l-5.3008 4.5c-0.2333 0.16667-0.26591 0.29844-0.0996 0.39844 0.033 0.0333 0.13408 0.0178 0.30078-0.0488 1.2667-0.7 2.5496-1.6341 3.8496-2.8008l0.15039-0.0996 1.4492-1.3652c0 0.19121-0.01 0.37191 0 0.56445v0.15039c0.042 0.23333 0.042 0.45039 0 0.65039v0.19924l0.12695 2.4238c-0.1578 0.20505-0.44147 0.60899-0.57617 0.77734l-2.75 3.0488c-1.4333 1.3-2.5167 2.2845-3.25 2.9512 0 0.0333-0.05 0.0992-0.15039 0.19922-0.033 0.0667-6.9e-4 0.1345 0.0996 0.20117 0.1667 0.13333 0.3333 0.11607 0.5-0.0508l1.8008-1.5c0.6667-0.63333 1.6492-1.5674 2.9492-2.8008l0.20117-0.25c0.164-0.1845 0.91517-1.1385 1.2305-1.5215l0.0195 0.37305c0.069 0.15638 0.11734 0.3056 0.14844 0.44922 0.065 0.33489 0.065 0.66823 0 1v0.0508c0.076 0.74364 0.23095 2.086 0.37305 3.3242-0.3526 0.58523-0.62039 1.0963-1.0215 1.7246l-0.30078 0.5c-0.6333 0.9-1.6508 2.2178-3.0508 3.9512l-0.0488 0.34961 0.25-0.0508c0.9333-0.76667 1.9333-1.8655 3-3.2988l0.59961-0.85156c0.1481-0.19746 0.51024-0.79891 0.71094-1.0957 0.017 0.14784 0.0211 0.19248 0.0391 0.3457v0.05074c0.2381 0.4987 0.33888 0.9987 0.30078 1.5l-0.0508 0.19922c0.2437 1.301 0.38752 1.9636 0.57422 2.8984-0.3999 1.1617-0.80242 2.3347-1.0742 3.002-0.3333 0.96667-0.78291 1.9337-1.3496 2.9004-0.1 0.16667-0.0674 0.28294 0.0996 0.34961 0.1667 0.16667 0.28291 0.13363 0.34961-0.0996 0.3-0.43333 0.68369-1.1174 1.1504-2.0508 0.5094-1.0188 0.79441-1.9438 1.0703-2.8652 0.065 0.31315 0.17457 0.91222 0.23047 1.166l-0.0508-0.0996 0.0508 0.15039c0.2885 0.52695 0.40481 1.0754 0.34961 1.6484 1.2838 5.4805 3.037 10.873 5.0684 16.213-0.013 0.0309-0.0564 0.0568-0.0684 0.0879 0.045-0.0327 0.0341-0.0285 0.0781-0.0606 0.4147 1.0893 0.75732 2.1921 1.2031 3.2754l-1.5312 1.3848c-0.1333 0.13333-0.3 0.40078-0.5 0.80078 0.2667 0.0667 0.58252-0.0167 0.94922-0.25l0.15045-0.15037c0.5451-0.52567 0.85836-0.7838 1.2559-1.1387 0.081 0.17961 0.16116 0.35915 0.19336 0.53906v-0.0508l0.0508 0.15041 1.3086 2.8711c-0.4201 0.54242-0.39847 0.50557-1.1094 1.4297l-0.75 1c-0.3667 0.43333-1.5663 1.7492-3.5996 3.9492-0.033 0.0667-0.1167 0.13255-0.25 0.19922-0.067 0.1-0.0492 0.20078 0.0508 0.30078 0.1667 0.1 0.36631 0.0341 0.59961-0.19922 1.8-1.7333 3.1004-3.0667 3.9004-4l0.40039-0.5c0.091-0.10088 0.84502-1.1326 1.1035-1.4688l0.09566 0.16797c0.094 0.14791 0.15962 0.29713 0.19922 0.44922l0.15039 0.40039c0.026 0.0303 0.0438 0.0633 0.0508 0.0996 0.3346 0.72945 0.7839 1.6271 1.2168 2.502-0.1975 0.54507-0.3825 1.0627-0.7168 1.8984l-0.0508 0.0996c-0.9 2.4667-1.8825 4.6178-2.9492 6.4512-0.067 0.2-0.0512 0.31628 0.0488 0.34961 0.1667 0.1 0.30039 0.0671 0.40039-0.0996 0.7-0.93333 1.3841-2.2512 2.0508-3.9512l1.5957-3.9688c0.059 0.11753 0.094 0.20043 0.1543 0.32031 0.025 0.0333 0.0398 0.0488 0.0488 0.0488l0.0527 0.0996c0.1196 0.14885 0.19911 0.30543 0.28321 0.46094 0.1296 1.1937 0.25431 2.2876 0.41601 4.0898v0.0508c0.1333 0.9 0.56748 3.5492 1.3008 7.9492 0 0.0667 0.0326 0.15 0.0996 0.25 0.067 0.0667 0.13447 0.0996 0.20117 0.0996 0.1 0 0.14844-0.0329 0.14844-0.0996v-0.30078l-1.25-10.049v-1.6816l0.10156-0.16797c0.031-0.10173 0.17645-0.59707 0.21875-0.73828 0.3526 0.90701 0.70397 1.81 0.98047 2.3379 0.6 1.1333 1.2841 2.0829 2.0508 2.8496 0.033 0.0333 0.16514 0.0837 0.39844 0.15039l-0.0488-0.40039c-0.9333-1.6333-1.5671-2.6992-1.9004-3.1992l-0.19922-0.35156c-0.4188-0.6919-0.5951-1.8176-0.875-2.7578 0.2838-0.95625 0.46181-1.5507 0.97461-3.291 1e-3 -0.44258 0.10013-0.87669 0.29883-1.3008l0.0469-0.0781c0.044 0.0535 0.057 0.0728 0.10351 0.12891l1.1504 1.4492c0.6667 0.76667 1.3837 1.4178 2.1504 1.9512 0.033 0.0333 0.3667 0.18255 1 0.44922l0.0996-0.0996c-0.1667-0.43333-0.39922-0.68333-0.69922-0.75-0.033 0-0.13408-0.0833-0.30078-0.25l-3.2012-3.7422 0.45117-1.5586v-0.19922c0.059-0.42685 0.19233-0.82206 0.39453-1.1856l1.2051 1.6348c0.7667 0.93333 1.6 1.6504 2.5 2.1504l-2.9492-4.1992c-0.2155-0.30685-0.26127-0.42626-0.45117-0.70508l0.80078-2.9453v-0.30078c0.036-0.21888 0.087-0.45143 0.15039-0.69922l0.0996-0.25v0.0488l0.14844-0.56641c0.4007 0.6441 0.80907 1.4918 1.2012 1.918 0.2667 0.36667 0.61748 0.73294 1.0508 1.0996l0.29883 0.15039 0.0508-0.40039c-0.033-0.23333-0.16709-0.48333-0.40039-0.75-0.33335-0.3331-0.53286-0.55037-0.59956-0.65037l-0.19922-0.30078c-0.75069-1.2364-0.73772-1.2422-1.1699-1.9648l0.56836-2.1836v-0.10156c0.039-0.22031 0.09-0.45287 0.15039-0.69922l0.15039-0.34961v0.0488l0.0937-0.38672c0.1165 0.1856 0.24037 0.47125 0.35547 0.63672 0.4667 0.73333 0.75156 1.15 0.85156 1.25 0.2333 0.23333 0.5667 0.31667 1 0.25l-0.20117-0.14844-0.59961-1c-0.5433-0.95823-0.6579-1.4293-1.0957-2.2676l0.79492-3.2832v-0.15039c0.053-0.36497 0.15408-0.7138 0.30078-1.0488l0.1016-0.1016 0.0605-0.27149c0.3853 0.68746 0.77147 1.3835 1.1387 1.873 0.1 0.16667 0.4333 0.56589 1 1.1992 0.2667 0.26667 0.41592 0.36745 0.44922 0.30078 0.1333-0.1 0.11622-0.30156-0.0508-0.60156l-1.3984-2.1992c-0.3775-0.66059-0.54383-1.1596-0.86523-1.7773l0.5625-2.4727c-0.017-0.30677 0.0156-0.62266 0.0996-0.94922h-0.0488c0.092-0.28945 0.20841-0.57435 0.34961-0.85156l0.10938-0.48242 1.1406 2.2832c0.4333 0.83333 1.0167 1.5833 1.75 2.25 0.1333 0.13333 0.24961 0.1506 0.34961 0.0508 0.1-0.0667 0.1-0.18489 0-0.35156-1.2-2-1.8163-3.0329-1.8496-3.0996l-0.20117-0.40039c-0.4706-0.98296-0.52001-1.3081-0.87891-2.1172l0.83008-3.6816 0.0488-0.30078v-0.0488c0.025-0.26211 0.093-0.52955 0.20117-0.80078v-0.0508l0.0996-0.19925 0.17773-0.82031c0.3744 0.8063 0.72385 1.7878 1.123 2.4199l1.1992 1.6504c0.3 0.33333 0.48408 0.53294 0.55078 0.59961 0.2667 0.2 0.56514 0.21727 0.89844 0.0508l-0.94922-1.0996c-0.4-0.43333-0.68291-0.81706-0.84961-1.1504l-0.59961-1.0996c-0.4138-0.74193-0.73578-1.7287-1.1133-2.5684l0.61328-2.832v-0.0508c-0.04-0.53802 0.059-1.0535 0.29883-1.5488l0.0996-0.20117 0.16797-0.79102c0.1964 0.49447 0.46992 1.1664 0.98242 2.3906l0.0996 0.30078c0.3 0.66667 0.9667 2 2 4 0.1667 0.33333 0.31787 0.5 0.45117 0.5l0.19922-0.0508c0.1333-0.0667 0.15233-0.1655 0.0527-0.29883l-0.20117-0.30078h-0.0508l-2.9003-7.1504c-0.166-0.41005-0.17969-0.57207-0.30859-0.92188l0.55859-2.627c-0.3851-1.2437-0.38943-2.1238-0.51562-3.1211l1.3652-2.2285c-0.2 1.3667 0.083 3.1322 0.84961 5.2988 0.4 1.1333 0.71787 1.9163 0.95117 2.3496 0.5333 1 1.0333 1.5833 1.5 1.75-0.1-0.46667-0.33447-1.0326-0.70117-1.6992-0.4333-0.8-0.69883-1.3659-0.79883-1.6992v-0.15039c-0.067-0.2-0.26631-0.96745-0.59961-2.3008l-0.65039-3.0996c-0.1333-0.6-0.05-1.1504 0.25-1.6504 0.1-0.2 0.4333-0.61667 1-1.25s0.9-1.1004 1-1.4004c0-0.0333 0.1667-0.23294 0.5-0.59961 0.2-0.23333 0.21553-0.46589 0.0488-0.69922-0.2333-0.3-0.46592-0.21667-0.69922 0.25s-0.51631 0.85039-0.84961 1.1504c-0.5853 0.68279-1.8532 1.6037-3.707 2.7305-0.013-0.44691 0.014-0.89305 0.20703-1.332h-0.0508c0.2297-0.51537 0.563-0.94753 1-1.2988 0.3414-0.22005 0.6747-0.4875 1-0.80078v-0.15039l-0.0488-0.14844v-0.45117c-0.023-2.7717-0.72486-5.4055-2.1016-7.9004-1.022-1.7856-2.3639-3.2882-3.8906-4.627l-0.70898-4.0215c-0.2333-0.83333-0.54922-2.8004-0.94922-5.9004-0.067-0.56667 0.05-1.1171 0.34961-1.6504 0.4333-0.6 1.1833-1.5167 2.25-2.75-0.1333 2.4-0.083 4.15 0.15039 5.25 0.2333 1 0.51631 2.5174 0.84961 4.5508 0.1 0.46667 0.28408 0.68177 0.55078 0.64844 0.2-0.0333 0.26592-0.11667 0.19922-0.25-0.1-0.16667-0.16592-0.28294-0.19922-0.34961-0.3667-1.2333-0.55078-2.1655-0.55078-2.7988 0-0.43333-0.10078-1.4682-0.30078-3.1016-0.1667-1.2667-0.1667-2.3151 0-3.1484 0.2667-1.1 0.7667-1.9178 1.5-2.4512 0.1333-0.0667 0.2167-0.0996 0.25-0.0996 0.067 0 0.11709 0.0833 0.15039 0.25 0.1 0.46667 0.16787 1.1333 0.20117 2 0.4333 3.4 0.88291 5.7992 1.3496 7.1992 0.1 0.26667 0.1833 0.38489 0.25 0.35156l0.15039-0.40039-0.85156-6.3496c-0.1333-1.0333-0.23213-2.1012-0.29883-3.2012 0.2333-0.3 0.26591-0.51706 0.0996-0.65039-0.2-0.13333-0.41709-0.1491-0.65039-0.0488zm-6.0488 6.2988-0.15039 0.75c0.1667 1.8333 0.51553 4.1008 1.0488 6.8008l0.50976 2.293c-0.076-0.0588-0.13178-0.13555-0.20898-0.19336-0.3419-0.0928-0.65782-0.25951-0.94922-0.5-0.1376-0.10469-0.27139-0.23841-0.40039-0.40039-0.5212-0.32378-1.0934-0.58223-1.6602-0.84766-0.083-0.38859-0.20453-0.83084-0.24023-1.1523l-0.15039-0.79883c-0.2667-0.9-0.41592-1.4833-0.44922-1.75-0.033-0.66667 0.18369-1.25 0.65039-1.75 0.4333-0.46667 1.1-1.2845 2-2.4512zm-3.3008 4.1016 0.19922 1.5488c0.066 0.46058 0.26073 1.1981 0.42773 1.875l-0.17773-0.0254c-0.3551-0.0719-0.6884-0.20365-1-0.39844-0.088-0.0228-0.18713-0.0403-0.29883-0.0508-0.049-6e-3 -0.11627-0.0235-0.20117-0.0508h-0.14844c-0.1897-0.0102-0.38623-0.0597-0.58203-0.10742 0.048-0.1347 3e-5 -0.25093 0.082-0.39258 0.1333-0.2 0.41631-0.56628 0.84961-1.0996 0.4667-0.63333 0.74961-1.0655 0.84961-1.2988zm11 23.199 0.0508 0.15039c-0.2102 0.24027-0.67262 0.96657-1.2617 1.9375-0.01-0.24249-0.14987-0.61318-0.13867-0.83789-0.056-0.14486-0.10454-0.31829-0.15234-0.49219 0.4887-0.2974 0.67397-0.38259 1.2012-0.70703zm-61.9 29.4c-0.5 0.26667-1.1492 0.74922-1.9492 1.4492-0.8333 0.7-1.4845 1.1845-1.9512 1.4512-0.1333 0.0667-0.68174 0.63255-1.6484 1.6992l-0.30078 0.30078c-0.6333-0.13333-1.3175-0.21667-2.0508-0.25-1.8333-0.0333-3.2984 0.44922-4.3984 1.4492-0.4 0.33333-0.7333 0.63372-1 0.90039-0.5 0.5-0.75 0.88372-0.75 1.1504-0.1333 0.16667-0.26709 0.41667-0.40039 0.75-0.1 0.26667-0.21631 0.49922-0.34961 0.69922-0.4 1.2-0.36739 2.45 0.0996 3.75l0.54883 0.75c0.2333 0.3 0.25038 0.55 0.0508 0.75-0.8333 0.9-1.6337 2.0492-2.4004 3.4492-1 1.7-1.4496 3.5178-1.3496 5.4512 0 0.0333 0.05 0.16706 0.15039 0.40039 0.1 0.16667 0.1 0.29844 0 0.39844-1.9333 2.4-3.3345 4.9678-4.2012 7.7012-0.6667 2.0333-1.0484 3.8822-1.1484 5.5488l0.0488 1.6016c0 0.7 0.1667 0.99844 0.5 0.89844l0.15039-0.0488c1.3333-0.73333 2.3333-1.8012 3-3.2012 0.1667 0.16667 0.31592 0.5349 0.44922 1.1016 0.2 0.36667 0.56826 0.36667 1.1016 0 0.4-0.26667 0.83213-0.73372 1.2988-1.4004 0.5667-0.83333 0.95039-1.3663 1.1504-1.5996l0.3008-1.0508c0.1667-0.43333 0.53291-0.48372 1.0996-0.15039 0.1 0.0333 0.21631-0.0171 0.34961-0.15039 1.1667-1 2.1996-2.3663 3.0996-4.0996 0.1 0.33333 0.41787 0.80039 0.95117 1.4004 0.5 0.63333 1.0155 0.6506 1.5488 0.0508 0.6667-0.73333 1.0679-1.3671 1.2012-1.9004 0.2333-0.8 0.59961-0.90078 1.0996-0.30078 0.8 0.96667 1.4337 0.88333 1.9004-0.25 0.3667-0.83333 0.56631-1.5155 0.59961-2.0488 1.5 1.0333 2.2829 1.5663 2.3496 1.5996 0.4333 0.23333 0.78408 0.21607 1.0508-0.0508l0.25-0.44922c0.1-0.26667 0.14844-0.6 0.14844-1-0.067-0.5-0.0818-0.81784-0.0488-0.95117l0.0996-0.29883c0.1667 0.0333 0.56592 0.23294 1.1992 0.59961 0.4667 0.26667 0.91826 0.2997 1.3516 0.0996l0.14844 0.20117-0.29883 2.0996c-0.033 0.23333-0.21748 0.88255-0.55078 1.9492-0.2333 0.96667-0.33213 1.6333-0.29883 2 0 0.1 0.066 0.26667 0.19922 0.5 0.2333-0.2 0.34961-0.33372 0.34961-0.40039l0.90039-2.8984c0.6333-2.3333 0.86592-4.9671 0.69922-7.9004l-0.0488-0.0996c-0.1-0.16667-0.23369-0.25-0.40039-0.25-0.2333 0-0.34961 0.16667-0.34961 0.5v3.6992c0 0.26667-0.05 0.36745-0.15039 0.30078l-0.19922-0.10156-2.0508-1.25c-1.0333-0.73333-1.6167-1.1326-1.75-1.1992-0.6-0.53333-1.0341-1.0992-1.3008-1.6992-0.067-0.16667-0.067-0.28489 0-0.35156 0.1333-0.0333 0.2167-0.0663 0.25-0.0996 0.3667-0.26667 0.90156-0.3655 1.6016-0.29883 0.8 0.1 1.3484 0.0651 1.6484-0.10156 0.4667-0.1 0.78447-0.24922 0.95117-0.44922-0.4-0.23333-0.70039-0.34961-0.90039-0.34961-2.2 0-4.2175-0.96706-6.0508-2.9004-0.3-0.3-0.56553-0.55-0.79883-0.75 0.5-0.16667 0.94961-0.39922 1.3496-0.69922 0.067-0.0667 0.15-0.1345 0.25-0.20117 0.6-0.56667 0.99922-1.0822 1.1992-1.5488 0.2333-0.46666 0.38447-1.05 0.45117-1.75 0.067-0.7 0.0344-1.7349-0.0996-3.1016-0.067-0.4-0.15-0.76628-0.25-1.0996l2.5488 1.1504c1.2667 0.5 2.2512 0.61628 2.9512 0.34961 0.6-0.23333 1.0167-0.70039 1.25-1.4004 0.2-0.83333 0.34922-1.4322 0.44922-1.7988 0.6-1.9 1.5341-3.0667 2.8008-3.5 1.4666-0.46667 3.4822-0.51706 6.0488-0.15039 0.5 0.13333 0.85078 0.38333 1.0508 0.75 0.1 0.1 0.0674 0.21628-0.0996 0.34961-0.1333 0.1-0.28447 0.16784-0.45117 0.20117l-6.1504 1.1484c-0.033 0-0.13213 0.0833-0.29883 0.25l0.25 0.15039c0.5667 0.1 1.2333 0.0845 2-0.0488 0.4333-0.0667 1.0825-0.18489 1.9492-0.35156 0.8333-0.1 1.3333 0.15 1.5 0.75 0.1 0.3 0.034 0.50156-0.19922 0.60156-0.3333 0.0667-0.56787 0.11511-0.70117 0.14844-0.2 0.0333-2.2329 0.38411-6.0996 1.0508l-0.59962 0.30075c0.1667 0.16667 0.28291 0.25 0.34961 0.25h1.0996c1.6333-0.4 3.0345-0.58411 4.2012-0.55078 0.033 0 0.26592 0.13372 0.69922 0.40039l-0.15039 0.29883c-1.2333 0.4-1.9988 0.6345-2.2988 0.70117l-3.9512 0.69922c-0.1667 0-0.25 0.13372-0.25 0.40039 0 0.0333 0.035 0.0837 0.10156 0.15039 0.1 0.1 0.16592 0.13303 0.19922 0.0996 1.6333-0.23333 2.6508-0.4 3.0508-0.5 0.7333-0.2 1.2488-0.0159 1.5488 0.55078 0.033 0.0667 0.1167 0.19844 0.25 0.39844 0.1 0.16667 0.034 0.28489-0.19922 0.35156-0.9 0.4-1.4833 0.61511-1.75 0.64844-0.6 0.0333-2.3171 0.16706-5.1504 0.40039-0.1667 0.1-0.28291 0.16784-0.34961 0.20117l0.25 0.19922c0.6 0.23333 1.6504 0.23333 3.1504 0 0.8667-0.1 1.5992 0.18294 2.1992 0.84961 0.1667 0.16667 0.21709 0.35078 0.15039 0.55078-0.067 0.2-0.2333 0.31628-0.5 0.34961-2.2 0.23333-3.983 0.0492-5.3496-0.55078-0.2333-0.13333-0.4-0.0829-0.5 0.15039-0.067 0.1-0.067 0.18333 0 0.25 0.067 0.0333 0.15 0.0837 0.25 0.15039 0.3 0.13333 0.78252 0.33294 1.4492 0.59961 0.3333 0.16667 0.78291 0.26745 1.3496 0.30078 0.3 0 0.74961 0.0155 1.3496 0.0488 0.033 0 0.58369-0.0329 1.6504-0.0996 0.6667-0.0667 1.2171 0.0496 1.6504 0.34961 2.1667 1.4 3.6996 2.8167 4.5996 4.25l0.15039 0.35156h-0.25c-1.7667-0.63333-2.7337-0.98411-2.9004-1.0508-0.6-0.2-1.0496-0.31628-1.3496-0.34961-1.0667-0.23333-2.9833-0.70039-5.75-1.4004-2.5-0.56667-4.2325-1.4329-5.1992-2.5996-0.2333-0.26667-0.4833-0.2997-0.75-0.0996-0.1667 0.1-0.18378 0.29961-0.0508 0.59961 0.2667 0.5 0.66592 0.94961 1.1992 1.3496 0.2 0.16667 0.68447 0.48255 1.4512 0.94922 0.9333 0.56666 2.1329 1.0008 3.5996 1.3008 0.8333 0.16667 2.1008 0.38372 3.8008 0.65039l0.75 0.19922c2 0.46667 3.6318 0.99961 4.8984 1.5996 0.4 0.16667 0.66748 0.30039 0.80078 0.40039 0.2333 0.16667 0.41748 0.16667 0.55078 0 0.1-0.13333 0.13261-0.3 0.0996-0.5-0.067-0.96667-0.33408-1.7496-0.80078-2.3496l0.30078 0.0996c0.2333 0.0333 0.5667 0.0837 1 0.15039 0.4 0 0.70039-0.10078 0.90039-0.30078 0.1667-0.16667 0.18223-0.38177 0.0488-0.64844-0.2333-0.36667-0.34961-0.60117-0.34961-0.70117s-0.21709-0.44883-0.65039-1.0488c0.3 0.0667 0.76709 0.18294 1.4004 0.34961 0.5667 0.13333 1.0163 0.13333 1.3496 0 0.1667-0.0667 0.3333-0.20039 0.5-0.40039 0.3333-0.43333 0.31777-0.90039-0.0488-1.4004l-0.85156-1.2988c0.3667 0.0333 0.95 0.11667 1.75 0.25 0.7 0 1.2-0.2345 1.5-0.70117 0.2-0.23333 0.13408-0.54922-0.19922-0.94922-0.4667-0.46667-0.78252-0.81745-0.94922-1.0508l0.25 0.0508c1.1333 0.5 2.3155 0.66667 3.5488 0.5 0.7-0.0667 0.85117-0.34961 0.45117-0.84961l-1.3008-1.1504c1.1667 0.23333 2.5329 0.2491 4.0996 0.0488 0.3667-0.0667 0.55078-0.19844 0.55078-0.39844 0.067-0.3-0.017-0.5345-0.25-0.70117-0.2333-0.13333-0.95039-0.76706-2.1504-1.9004 1.5333 0.0333 2.9171-0.38334 4.1504-1.25 0.4667-0.5 0.81553-0.86628 1.0488-1.0996-0.3333-0.33333-0.54844-0.5155-0.64844-0.54883-1.9333-0.56666-3.6834-1.0008-5.25-1.3008-0.3333-0.0667-1.6008-0.28372-3.8008-0.65039-1.8333-0.26667-3.4826-0.38294-4.9492-0.34961-0.1667 0-0.5833 0.10078-1.25 0.30078-0.5 0.13333-0.9167 0.1491-1.25 0.0488l-0.35156-0.0996c-0.9333-0.2-2.0825-0.30078-3.4492-0.30078-1.5667 0.0333-2.7004 0.1845-3.4004 0.45117-1.1333 0.43333-1.9163 1.2822-2.3496 2.5488-0.1333 0.4-0.3833 0.96784-0.75 1.7012-0.3333 0.73333-0.56592 1.2992-0.69922 1.6992-0.1667 0.7-0.55039 0.96745-1.1504 0.80078-1.0333-0.33333-2.1012-0.73451-3.2012-1.2012-0.3667-0.13333-0.63213-0.24961-0.79883-0.34961-0.3-0.16667-0.41631-0.34883-0.34961-0.54883 0.1333-0.53333 0.56553-1.45 1.2988-2.75 0.9333-1.7 1.4663-2.8512 1.5996-3.4512 0-0.26667-0.0326-0.40039-0.0996-0.40039-0.1333-0.1-0.3-0.11577-0.5-0.0488zm-1.0996 1.7988 0.0508 0.0508-1.6016 2.5996c-0.1667 0.26667-0.25 0.43333-0.25 0.5-0.1333 0.53333-0.34844 0.88411-0.64844 1.0508-0.067-0.0333-0.13447-0.0837-0.20117-0.15039-0.4333-0.33333-0.91592-0.58333-1.4492-0.75 0-0.0333 0.0148-0.0663 0.0488-0.0996l3.6016-3c0.067-0.0333 0.21592-0.10117 0.44922-0.20117zm17.15 0.75 1.4004 0.0508c3.0666 0.0667 5.7992 0.38255 8.1992 0.94922 0.9333 0.23333 2.3326 0.51823 4.1992 0.85156l0.20117 0.0996c-0.1667 0.26667-0.26748 0.40039-0.30078 0.40039-0.4667 0.26667-1.0325 0.49922-1.6992 0.69922-0.8 0.16667-1.4008 0.30039-1.8008 0.40039-0.7667 0.2-1.6 0.0837-2.5-0.34961-1.2667-0.6-2.0321-0.91784-2.2988-0.95117-0.1-0.0333-1.0012-0.26589-2.7012-0.69922-1.0667-0.3-1.9659-0.43372-2.6992-0.40039-0.2333 0-0.38447-0.10078-0.45117-0.30078-0.067-0.26667-0.13252-0.41589-0.19922-0.44922 0.2-0.2 0.41709-0.30078 0.65039-0.30078zm-2 2.25c1.2667-0.43333 2.6988-0.43333 4.2988 0 0.9333 0.23333 2.3016 0.6849 4.1016 1.3516 0.7667 0.23333 1.6155 0.63255 2.5488 1.1992 0.5333 0.33333 1.3512 0.85078 2.4512 1.5508-1.9 0.26667-3.4834 0.18333-4.75-0.25-0.4333-0.16667-1.0167-0.4845-1.75-0.95117-0.8333-0.5-1.4341-0.83333-1.8008-1-1.4-0.7-3.0841-1.2155-5.0508-1.5488-0.067 0-0.2333-0.0833-0.5-0.25zm-22.801 0.80075c0.9 0.0667 1.8012 0.16745 2.7012 0.30078 1.1333 0.26667 1.9492 0.88294 2.4492 1.8496 0.8333 1.7333 0.81622 3.4659-0.0508 5.1992-0.2667 0.5-0.6 0.98451-1 1.4512-0.6667 0.46667-1.3488 0.8155-2.0488 1.0488-0.1-0.0333-0.1833-0.0488-0.25-0.0488-1.0667-0.0333-1.8671-0.0837-2.4004-0.15039-0.9-0.1-1.65-0.38294-2.25-0.84961-0.9-0.7-1.4175-1.1012-1.5508-1.2012-0.5-0.53333-0.75-1.0992-0.75-1.6992s0.068-1.1329 0.20117-1.5996c0.067-0.1 0.0996-0.20078 0.0996-0.30078v-0.0508c0.1-0.26667 0.20078-0.49922 0.30078-0.69922 0.6-1.1333 1.4333-1.9841 2.5-2.5508 0.6333-0.33333 1.3155-0.56589 2.0488-0.69922zm23.9 0.59966c0.1667 0.1 0.43408 0.21628 0.80078 0.34961 2.7 0.76666 5.1321 1.9837 7.2988 3.6504 0.2 0.13333 0.46748 0.36784 0.80078 0.70117-0.5 0.13333-1.0679 0.0984-1.7012-0.10156-0.7-0.26667-1.2329-0.44883-1.5996-0.54883-0.7333-0.2-1.8322-0.7-3.2988-1.5-1.4-0.73333-2.5337-1.1829-3.4004-1.3496h-1.25c0.3-0.1 0.83291-0.46823 1.5996-1.1016 0.2-0.16667 0.45-0.1997 0.75-0.0996zm48.9 1.3496c-0.5 0-0.88372 0.2345-1.1504 0.70117-0.6 0.96667-1.2337 2.6004-1.9004 4.9004-0.23333 0.93333-0.71589 2.5826-1.4492 4.9492l-4.5996 15.199c-0.36667 1.0333-0.66706 2.0508-0.90039 3.0508-0.3 1.5-1.0171 3.1337-2.1504 4.9004-0.36667 0.63333-1.2 2.1159-2.5 4.4492l-0.69922 1.3496c-0.53333 1.1667-0.90156 2.5504-1.1016 4.1504l-0.0488 0.0996c-0.26667 2-0.16784 3.5678 0.29883 4.7012-0.33333 0.4-0.5 1.0163-0.5 1.8496 0 0.0333 0.0504 0.86667 0.15039 2.5 0.0667 2.1667 0.18294 3.7829 0.34961 4.8496 0.1 0.73333 0.18333 1.8671 0.25 3.4004l0.10156 2.6992c0.1 0.93333 0.18333 3.1349 0.25 6.6016l0.14844 6.6484c0 0.5 0.0833 1.8682 0.25 4.1016l0.45117 6.5 0.0488 0.19922c-0.13333 0.23333-0.19922 0.50078-0.19922 0.80078v1.1484c0 0.36667 0.13372 0.6845 0.40039 0.95117s0.6 0.40039 1 0.40039h13.5c0.4 0 0.73333-0.13372 1-0.40039s0.40039-0.5845 0.40039-0.95117v-0.75c0-0.5-0.16667-0.86628-0.5-1.0996l-0.0508-0.0488-0.30078-2.4004c-0.2-1.6667-0.39961-2.9341-0.59961-3.8008-0.13333-0.6-0.16629-1.3829-0.0996-2.3496 0.0667-0.6 0.0337-1.4992-0.0996-2.6992l-0.95117-11.301c-0.0667-0.8-0.0821-1.3504-0.0488-1.6504 0.1-1 0.15039-2.4671 0.15039-4.4004 0-2.1333 0.0484-3.55 0.14844-4.25l0.10156-2.1992c0-0.7 0.0833-1.5159 0.25-2.4492l0.25-2.1016c0.0333-0.6 0.18255-1.5651 0.44922-2.8984 0.26667-1.5 0.41589-2.3333 0.44922-2.5 0.0667-0.53333 0.30117-1.9016 0.70117-4.1016l0.15039-0.75v-23c0-0.4-0.11823-0.71589-0.35156-0.94922l0.25-0.55078c0.0667-0.13333 0.10156-0.33294 0.10156-0.59961v-11.5c0-0.7-0.33333-1.1322-1-1.2988zm-51 0.75001c0.1-0.16667 0.65039-0.0659 1.6504 0.30078 2.9666 0.96667 5.1818 2.4163 6.6484 4.3496-0.8667 0.0333-1.8492-0.0829-2.9492-0.34961-0.6667-0.16667-1.6163-0.66667-2.8496-1.5-1.1667-0.8-2.1337-1.2671-2.9004-1.4004l-1.0996-0.40039c0.3667-0.16667 0.64961-0.29844 0.84961-0.39844 0.3-0.13333 0.51709-0.33489 0.65039-0.60156zm-21.9 0.25-0.44922 0.35156-0.10156 0.0996-0.14844 0.29883v0.0508l-0.0508 0.40039c-0.033 0.13333-0.033 0.26706 0 0.40039l0.0996 0.14844v0.0508l0.34961 0.34961 0.25 0.20117 1 0.14844 0.20117-0.0488 0.19922-0.0996 0.25-0.25c0.067-0.0333 0.0996-0.0333 0.0996 0l0.10156-0.15039 0.10156-0.25v-0.15046c0.067-0.16667 0.067-0.31589 0-0.44922v-0.05078l-0.15039-0.30078-0.15039-0.19922-0.19922-0.15039-0.0527-0.0996-0.19922-0.0996-0.20117-0.15039c-0.1-0.0333-0.24922-0.0508-0.44922-0.0508zm20.199 1.6504 0.45117 0.20117c2.0667 0.56667 4.2488 1.933 6.5488 4.0996 0.4333 0.43333 0.70078 0.85 0.80078 1.25 0.033 0.16667-0.033 0.23255-0.19922 0.19922-0.2333 0-0.38447 0.0175-0.45117 0.0508-1.0667-0.2-1.8671-0.39961-2.4004-0.59961-0.8333-0.3-1.5155-0.76706-2.0488-1.4004-0.5-0.56667-1.3837-1.15-2.6504-1.75-0.4333-0.16667-0.48369-0.38372-0.15039-0.65039 0.3-0.3 0.35039-0.61589 0.15039-0.94922-0.033-0.0333-0.0508-0.1845-0.0508-0.45117zm-2.25 2.25c1.4 0.13333 2.7334 0.74961 4 1.8496 0.4333 0.36667 1.0671 0.91706 1.9004 1.6504 0.6667 0.66667 1.1512 1.3333 1.4512 2l0.0996 0.30078-0.25-0.0508c-0.76659-0.06637-1.5671-0.43291-2.4004-1.0996-1.3667-1.0667-2.0663-1.6171-2.0996-1.6504l-1.0508-0.59961c-0.3667-0.13333-0.64961-0.51706-0.84961-1.1504-0.2-0.66667-0.46748-1.0833-0.80078-1.25zm-22.398 2.75c0.1 0.1 0.2667 0.21628 0.5 0.34961 0.1667 0.13333 0.21514 0.31745 0.14844 0.55078-0.6667 2.4333-0.71514 4.6659-0.14844 6.6992 0.033 0.13333 0.082 0.31745 0.14844 0.55078 0.033 0.16667-0.033 0.28294-0.19922 0.34961-0.2333 0.1-0.41748 0.16784-0.55078 0.20117-0.2333 0.0333-0.4833-0.05-0.75-0.25-0.4333-0.3-0.66592-0.68372-0.69922-1.1504 0-0.46667-0.05-0.7845-0.15039-0.95117-0.1667-1.8 0.25-3.833 1.25-6.0996 0.1-0.3 0.25117-0.38333 0.45117-0.25zm1.1992 0.99997 0.25 0.25c0 0.8 0.05 1.4008 0.15039 1.8008l1.4004 4.1504 0.14844 0.14844c0.067 0.0667 0.0344 0.1345-0.0996 0.20117-0.1 0.0667-0.28213 0.18294-0.54883 0.34961-0.2333 0.13333-0.41748 0.13333-0.55078 0-0.4667-0.36667-0.8-1.2-1-2.5-0.2333-1.2333-0.2333-2.1829 0-2.8496 0-0.0333 0.05-0.45 0.15039-1.25zm0.94922 0.40039c0.2333-0.1 0.38447 0.0163 0.45117 0.34961 0.2333 0.73333 0.66553 1.4833 1.2988 2.25 0.3667 0.46667 0.96748 1.1178 1.8008 1.9512 0.067 0.0667 0.15 0.13255 0.25 0.19922 0.1 0.0667 0.1 0.16745 0 0.30078-0.2333 0.43333-0.46592 0.66589-0.69922 0.69922-0.067 0-0.3167 0.0833-0.75 0.25-0.4667-0.13333-0.8-0.43372-1-0.90039-0.1333-0.6-0.26709-1.0322-0.40039-1.2988-0.1333-0.4-0.45117-1.4833-0.95117-3.25-0.1-0.26667-0.1-0.45078 0-0.55078zm1.1016 0c0.033 0 0.099 0.0175 0.19922 0.0508 0.7 0.0333 1.3163 0.38216 1.8496 1.0488 0.7667 0.96667 1.2337 1.4996 1.4004 1.5996l2.1504 1.6016c-0.7 0.43333-1.3667 0.48177-2 0.14844-0.3-0.16667-0.8-0.59883-1.5-1.2988l-2.25-2.7012c-0.1-0.1-0.11708-0.21628-0.0508-0.34961 0.067-0.0667 0.13447-0.0996 0.20117-0.0996zm3.0488 0.0508c0.067 0 0.13447 0.0155 0.20117 0.0488 0.3 0.1 0.61592 0.38294 0.94922 0.84961 0.3667 0.5 0.93252 0.9845 1.6992 1.4512 0.4333 0.26667 1.0845 0.65039 1.9512 1.1504l0.25 0.0488c0.1333 0 0.16591 0.0678 0.0996 0.20117-0.1667 0.23333-0.38369 0.31667-0.65039 0.25-0.7333-0.0667-1.5996-0.48333-2.5996-1.25-0.3-0.26667-1.2671-1.1174-2.9004-2.5508 0.1667-0.0667 0.3333-0.11706 0.5-0.15039 0.1667-0.0333 0.3333-0.0488 0.5-0.0488zm-8.5996 1.6484c-0.1333 1.6-0.19922 2.7008-0.19922 3.3008-0.067 0.86667 0.1 1.5992 0.5 2.1992 0.033 0.0667 0.0488 0.16745 0.0488 0.30078s-0.0158 0.19922-0.0488 0.19922c-0.6 0.16667-0.98369 0.2345-1.1504 0.20117-0.3333-0.0333-0.53291-0.31628-0.59961-0.84961-0.1667-1.7333 0.31592-3.5182 1.4492-5.3516zm34.15 0.75-0.34961 0.40039c-0.067 0.1-0.0344 0.21628 0.0996 0.34961l2.9492 2.75c0.033 0.0333 0.084 0.10117 0.15039 0.20117 0.1 0.0667 0.1833 0.0492 0.25-0.0508 0.2-0.2 0.21708-0.38216 0.0508-0.54883l-2.1016-2.25zm-8.9512 1.25c-0.1-0.0333-0.19883 2e-3 -0.29883 0.10156-0.3667 0.3-0.45 0.61589-0.25 0.94922l2.5 4.1504c1 1.7667 2 4.3171 3 7.6504 0.6 1.9667 1.1988 4.5326 1.7988 7.6992 0.6333 3.3 0.9667 6.2167 1 8.75 0.033 0.2 0.068 0.51589 0.10156 0.94922 0.2 0.6 0.21553 1.5012 0.0488 2.7012l-0.5-2.5508c-0.6333-2.7333-1.1004-4.9155-1.4004-6.5488-0.4-2.0333-1.15-4.5178-2.25-7.4512-0.8667-2.3-2.0992-4.2826-3.6992-5.9492-0.3667-0.36667-0.63408-0.64961-0.80078-0.84961-0.2667-0.36667-0.38291-0.65156-0.34961-0.85156l0.45117-3.1484c0.067-0.63333 0.032-1.0674-0.10156-1.3008-0.1 0.1-0.24922 0.23372-0.44922 0.40039l-0.25 1.3496c-0.3333 1.9333-0.53291 2.9992-0.59961 3.1992-0.1 0.5-0.36748 1.3508-0.80078 2.5508l-1.6992 4.9004c-0.4333 0.83333-0.46601 1.3837-0.0996 1.6504 0.1333 0.1 0.24961 0.0322 0.34961-0.20117 0.067-0.3 0.11709-0.49961 0.15039-0.59961 0.3333-0.53333 0.68213-1.2329 1.0488-2.0996 0.7667-2.5667 1.3675-4.4833 1.8008-5.75 0.067 0.1 0.33213 0.44883 0.79883 1.0488 0.3333 0.4 0.46709 0.76823 0.40039 1.1016-0.067 0.43333-0.21592 0.94883-0.44922 1.5488-0.1333 0.33333-0.35039 0.81784-0.65039 1.4512l-1.6992 4.3496c-0.033 0.1-6.9e-4 0.28216 0.0996 0.54883l0.34961-0.29883 0.80078-1.5996c0.8333-1.7333 1.5155-3.5008 2.0488-5.3008 0.033-0.2 0.10117-0.23303 0.20117-0.0996 0.5 0.6 0.81592 1.0167 0.94922 1.25 0.2333 0.46667 0.2333 0.96667 0 1.5l-2.5 5.5v0.54883l0.19922-0.0488 0.5-0.59961 0.20117-0.30078c0.2333-0.5 1.0163-2.25 2.3496-5.25l0.19922 0.55078c0.6333 1.1333 0.76709 2.0655 0.40039 2.7988-0.4333 1-1.1504 2.4341-2.1504 4.3008l-0.64844 1.3496c-0.033 0.0667-0.1167 0.13255-0.25 0.19922-0.1333 0.1-0.1333 0.20078 0 0.30078 0.067 0.0333 0.18291 3e-4 0.34961-0.0996 0.2-0.1 0.31631-0.20078 0.34961-0.30078l0.44925-0.84966c0.7667-1.1667 1.2512-1.9671 1.4512-2.4004 0.5-0.93333 0.8333-1.85 1-2.75 0.1333 0.33333 0.33291 0.81784 0.59961 1.4512 0.2 0.5 0.26592 0.89922 0.19922 1.1992-0.1667 0.53333-0.48252 1.1671-0.94922 1.9004-0.2333 0.4-0.59961 1.0163-1.0996 1.8496l-0.40039 0.65039c-0.5667 1.0333-0.9 1.7988-1 2.2988 0.5-0.46667 0.93408-0.94922 1.3008-1.4492 0.3333-0.46667 0.69961-1.0829 1.0996-1.8496 0.5333-0.96667 0.8667-1.5674 1-1.8008 0.2333-0.56667 0.34961-0.78372 0.34961-0.65039 0 0.1 0.13369 0.50117 0.40039 1.2012 0.2 0.5 0.21553 0.89922 0.0488 1.1992-0.3667 0.63333-1.1167 1.8678-2.25 3.7012l-1.0996 1.8496c-0.1667 0.23333-0.18223 0.45039-0.0488 0.65039 0.033 0.0333 0.16514-0.0171 0.39844-0.15039 0.4-0.36667 0.76826-0.81628 1.1016-1.3496l1.0488-1.9512c0.2333-0.43333 0.41748-0.76667 0.55078-1 0.2-0.36667 0.39961-0.59922 0.59961-0.69922 0.1333-0.0667 0.2167 0.0322 0.25 0.29883 0.033 0.43333 0.0656 0.68333 0.0996 0.75 0.3667 0.7 0.25039 1.4345-0.34961 2.2012-0.6667 0.96667-1.1841 1.8155-1.5508 2.5488l-0.59961 1.4004 0.0508 0.34961 0.25-0.19922 0.54883-0.69922c0.7667-1.3667 1.3849-2.3841 1.8516-3.0508 0.067-0.13333 0.11514-0.21667 0.14844-0.25 0.1-0.13333 0.16787-0.0829 0.20117 0.15039 0.067 0.33333 0.20039 0.84883 0.40039 1.5488 0.1 0.6 0.017 1.1349-0.25 1.6016-0.3333 0.56667-0.90117 1.4-1.7012 2.5l-0.54883 1.0996c0.2667 0.16667 0.5167 0.0659 0.75-0.30078l0.10156-0.0996 2.0488-2.8008c0 0.1 0.068 0.5845 0.20117 1.4512 0.067 0.53333 0.0473 0.93255-0.0527 1.1992-0.2667 0.66667-0.83252 1.6008-1.6992 2.8008-0.1667 0.2-0.35078 0.53333-0.55078 1l-0.19922 0.44922c0.2333-0.0667 0.4-0.15 0.5-0.25l0.40039-0.44922c0.5667-0.7 1.15-1.6167 1.75-2.75 0.067 0.33333 0.18291 0.80039 0.34961 1.4004 0.1333 0.5 0.10069 0.89922-0.0996 1.1992l-1.6016 2.3496c-0.3333 0.43333-0.5833 0.85-0.75 1.25l-0.0488 0.34961 0.25-0.0996c0.2-0.1 0.43252-0.28216 0.69922-0.54883 0.1667-0.13333 0.61631-0.75156 1.3496-1.8516 0.2-0.4 0.31826-0.41577 0.35156-0.0488 0.033 0.36667 0.082 0.89961 0.14844 1.5996 0 0.6-0.19961 1.1174-0.59961 1.5508-0.5333 0.6-0.83369 0.96628-0.90039 1.0996-0.3333 0.5-0.5 1.0659-0.5 1.6992l2.2012-2.6992c-0.1 0.63333-0.11708 1.2671-0.0508 1.9004 0.033 0.36667-0.11592 0.76589-0.44922 1.1992-0.4667 0.6-0.73408 0.96628-0.80078 1.0996l-0.0488 0.0996-0.25 0.70117c0.1667 0.0667 0.28291 0.0492 0.34961-0.0508 0.1333-0.16667 0.23213-0.28294 0.29883-0.34961l0.95117-1.0508c-0.033 0.46666-0.0656 1.1682-0.0996 2.1016-0.1 0.76667-0.40039 1.3829-0.90039 1.8496l-0.15039 0.15039c-0.4667 0.4-0.65078 0.81667-0.55078 1.25 0.2667-0.1 0.5167-0.30156 0.75-0.60156l0.35156-0.5 0.25-0.25 0.0996 0.35156c-0.067 1.9667-0.13447 3.1488-0.20117 3.5488l-0.75 5.4004c-0.067 0.33333 9.7e-4 0.61628 0.20117 0.84961l0.40039-0.59961c0.1667-0.43333 0.29844-1.0167 0.39844-1.75 0.1-0.9 0.1833-1.5008 0.25-1.8008 0.2333-0.93333 0.38447-2.133 0.45117-3.5996 0.1333-2.2333 0.2167-3.4504 0.25-3.6504 0.067-0.56667 0.0492-2.2818-0.0508-5.1484-0.033-1.1-6.9e-4 -2.6174 0.0996-4.5508 0.1-2.1 0.15039-3.6 0.15039-4.5 0-2.7333-0.11631-5.2663-0.34961-7.5996v-1.3008c0-0.53333-0.05-0.98294-0.15039-1.3496l-0.15039-0.44922c-0.2667-0.93333-0.28223-1.6678-0.0488-2.2012l0.25-0.59961c0.7-1.9 1.0837-3.3341 1.1504-4.3008 0.067 0.23333 0.29922 0.51823 0.69922 0.85156 0.3333 0.3 0.46709 0.58294 0.40039 0.84961-0.2 0.83333-0.58369 2.0504-1.1504 3.6504l-0.15039 0.54883c-0.2 0.73333-0.29883 1.1171-0.29883 1.1504 0.067 0.13333 0.13252 0.21667 0.19922 0.25 0.2667 0.1 0.48369-0.23333 0.65039-1l0.15039-0.15039 0.0996-0.19922c0.6-1.1667 1.0167-2.4496 1.25-3.8496 0.033 0.0333 0.26592 0.24844 0.69922 0.64844 0.2667 0.23333 0.36748 0.43489 0.30078 0.60156-0.2 0.7-0.6167 1.8996-1.25 3.5996l-0.45125 1.0996c-0.033 0.16667-0.082 0.43411-0.14844 0.80078-0.067 0.16667-0.0344 0.28294 0.0996 0.34961 0.2 0 0.3667-0.15117 0.5-0.45117l1.5488-3.75 0.15039-0.54883c0.033-0.23333 0.1167-0.31667 0.25-0.25 0.7333 0.33333 1.0512 0.7655 0.95117 1.2988-0.1 0.7-0.4333 1.8841-1 3.5508l-0.30078 0.90039c-0.033 0.0667-0.0508 0.48333-0.0508 1.25 0.3667-0.26667 0.55078-0.41784 0.55078-0.45117l0.40039-1c0.6667-1.7333 1.0329-2.9484 1.0996-3.6484l0.65039 0.75c0.1 0.13333 0.2667 0.33294 0.5 0.59961 0.1667 0.23333 0.21709 0.48333 0.15039 0.75l-0.80078 3.5488-0.0996 0.75c-0.033 0.13333-0.1167 0.36784-0.25 0.70117-0.067 0.26667-7.8e-4 0.43333 0.19922 0.5 0.1333 0.0667 0.35039-0.23372 0.65039-0.90039l0.0996-0.30078c0.3-0.8 0.58291-2.0326 0.84961-3.6992 1.1 0.76667 1.3675 1.8674 0.80078 3.3008l-0.65039 1.6992c-0.1667 0.7-0.23252 1.3008-0.19922 1.8008 0.1 0.26667 0.1833 0.39844 0.25 0.39844 0.1667 0 0.28291-0.11628 0.34961-0.34961l1.3008-4.6504c0.067 0.3 0.29922 0.70117 0.69922 1.2012 0.3333 0.43333 0.46709 0.79961 0.40039 1.0996-0.1333 0.73333-0.40078 1.8341-0.80078 3.3008l-0.44922 1.6484c0 0.1-0.0326 0.25117-0.0996 0.45117-0.033 0.13333-0.0182 0.21667 0.0488 0.25 0.2333 0.13333 0.43291-3.9e-4 0.59961-0.40039 0.033-0.0667 0.18447-0.45039 0.45117-1.1504 0.3-1.2333 0.53252-2.1655 0.69922-2.7988 0-0.0667 0.068-0.20039 0.20117-0.40039l0.14844 0.0488c0.033 0.0333 0.15156 0.25039 0.35156 0.65039 0.1333 0.26667 0.2167 0.48372 0.25 0.65039 0.067 0.6-0.13486 1.7667-0.60156 3.5l-0.29883 1.1992c-0.033 0.33333-0.033 0.66667 0 1 0.1333 0.1 0.19922 0.13489 0.19922 0.10156 0.1667-0.16667 0.26748-0.30039 0.30078-0.40039l0.34966-0.95114c0.1333-0.43333 0.40078-1.6155 0.80078-3.5488l0.29883 0.75c0.7667 1.0667 0.96631 2.0492 0.59961 2.9492l-0.94922 3.5996c0 0.0667 0.0326 0.26823 0.0996 0.60156l0.34961-0.40039 0.45117-1.0996c0.4667-1 0.76709-2.0504 0.90039-3.1504 0.5333 0.7 0.74844 1.5004 0.64844 2.4004-0.033 0.2-0.26592 0.98295-0.69922 2.3496-0.2333 0.8-0.28369 1.5171-0.15039 2.1504l0.34961-0.45117 0.30078-0.75c0.3-1.3 0.55-2.2496 0.75-2.8496l0.15039-0.30078 0.15039 0.0508c0.6333 1.3 0.73213 2.4667 0.29883 3.5l-0.44922 1.3496c-0.1333 0.4-0.20117 0.88451-0.20117 1.4512 0 0.1 0.068 0.23177 0.20117 0.39844l0.25-0.29883 0.15039-0.65039 0.79883-2.5 0.15039-0.30078 0.19922 0.10156c0.7333 1.0333 0.83408 2.1496 0.30078 3.3496l-0.84961 2.6504c-0.033 0.1-0.0182 0.23177 0.0488 0.39844 0.033 0.16667 0.068 0.25 0.10156 0.25 0.1667 0 0.31592-0.16667 0.44922-0.5l0.15043-0.44924c0.5667-1.6 0.86709-2.6833 0.90039-3.25 0.1333 0.4 0.34844 0.95039 0.64844 1.6504 0.2333 0.56667 0.3167 1.0492 0.25 1.4492-0.1333 0.6-0.39883 1.5012-0.79883 2.7012l-0.30078 0.75c-0.067 0.26667-0.016 0.48177 0.15039 0.64844 0.067 0.0667 0.13252 0.0512 0.19922-0.0488l0.20117-0.20117 0.0996-0.19925c0.2333-0.3 0.41748-0.74961 0.55078-1.3496 0.2-0.7 0.3667-1.2 0.5-1.5 0.033 0.33333 0.16514 0.89922 0.39844 1.6992 0.2 0.66667 0.26787 1.1996 0.20117 1.5996l-0.95117 2.6504c-0.033 0.1-4e-5 0.36745 0.10156 0.80078 0.2333-0.0667 0.36514-0.18294 0.39844-0.34961l0.10156-0.15039 0.69922-1.5c0.5 0.73333 0.71709 1.5996 0.65039 2.5996-0.033 0.43333-0.25039 0.98372-0.65039 1.6504l-0.25 0.54883c-0.2 0.46666-0.14961 0.76706 0.15039 0.90039 0.1 0.0667 0.16592 0.0337 0.19922-0.0996 0.067-0.16667 0.11709-0.30039 0.15039-0.40039h0.0508l0.75-1.4492 0.59961 9.1992c0 0.53333-0.0326 1.3008-0.0996 2.3008-0.033 0.9 0.015 1.6655 0.14844 2.2988l0.15039 0.20117c0.1 0.0333 0.1833-0.05 0.25-0.25 0.3667-2.3 0.43447-5.368 0.20117-9.2012-0.1-1.5667-0.28408-3.3167-0.55078-5.25-0.1333-0.83333-0.51709-2.6318-1.1504-5.3984-0.3333-1.4-1.1163-3.8845-2.3496-7.4512-1.6-4.2667-2.7492-7.1329-3.4492-8.5996-1.9-4.3-3.65-7.7167-5.25-10.25-2.1333-3.3333-4.2671-6.3333-6.4004-9-1.9-2.3333-3.4833-4.0833-4.75-5.25l-0.45117-0.44922c-0.6667-0.6-1.1821-1.0167-1.5488-1.25-1.2333-0.83333-2.0008-1.5-2.3008-2l-0.79885-1.5508c-1.3667-2.6333-2.4345-4.3833-3.2012-5.25-0.2-0.2-0.33369-0.30078-0.40039-0.30078zm-13.799 0.70116c0.2333 0.13333 0.5667 0.28255 1 0.44922 0.3667 0.2 0.6167 0.48294 0.75 0.84961 0.3 0.83333 1.0171 1.6182 2.1504 2.3516 0.1667 0.1 0.23252 0.26667 0.19922 0.5-0.067 0.23333-0.0838 0.38255-0.0508 0.44922v0.19922l-0.0996 0.30079c0 0.0667 0.0168 0.31667 0.0508 0.75 0.033 0.3-0.05 0.48411-0.25 0.55078h-0.0996c-0.2 0-0.55078-0.25-1.0508-0.75-1.1333-1.0333-1.8-1.6671-2-1.9004-0.7333-0.8-1.2508-1.5829-1.5508-2.3496l-0.10158-0.30078c0.033-0.0667 0.13408-0.11706 0.30078-0.15039 0.6667-0.1 0.88369-0.3655 0.65039-0.79883zm21.699 0.34961-0.29883 0.25 0.0996 0.34961 2.2988 2.0508c1 0.9 1.8683 1.7837 2.6016 2.6504 0.1 0.23333 0.23174 0.26637 0.39844 0.0996 0.1-0.16667 0.11708-0.31784 0.0508-0.45117-0.2667-0.6-0.70078-1.1988-1.3008-1.7988-0.2667-0.23333-0.83252-0.71784-1.6992-1.4512l-0.19923-0.1992zm-24.25 0.5c0.067-0.0667 0.20039-0.0337 0.40039 0.0996 0.2333 0.16667 0.36709 0.36628 0.40039 0.59961 0.2 0.8 0.79883 1.8 1.7988 3 0.1 0.1 0.13486 0.25117 0.10156 0.45117-0.033 0.16667-0.033 0.2655 0 0.29883 0.067 0.36667 0.016 0.76784-0.15039 1.2012l-0.45117 1.0488c-0.033 0.13333-0.1167 0.13333-0.25 0-1.6666-1.6333-2.6163-3.3833-2.8496-5.25-0.033-0.26667 0.3-0.74922 1-1.4492zm20.85 0.34961c-0.2 0-0.3667 0.10078-0.5 0.30078s-0.033 0.34922 0.30078 0.44922c0.7 0.3 1.4325 0.76706 2.1992 1.4004 0.4667 0.36667 1.1333 0.93255 2 1.6992l1.1504 1.0508c1.3667 1.3667 2.2 2.1496 2.5 2.3496 0.1333 0.13333 0.24961 0.16637 0.34961 0.0996l0.30078-0.25-0.30078-0.5c-0.8-0.66667-1.3659-1.1996-1.6992-1.5996l-1-1.0996c-1.3-1.3333-3.0326-2.6337-5.1992-3.9004zm-7.5996 0.70118c-0.2 0-0.31631 0.11628-0.34961 0.34961v0.65039l-2.1992 10.799c-0.1 0.23333-0.1 0.36706 0 0.40039 0.2 0 0.34922-0.11628 0.44922-0.34961l1.25-4c0.2667-0.86667 0.49922-2.0004 0.69922-3.4004 0.2333-1.8333 0.4-2.9826 0.5-3.4492-0.033-0.0667-0.0488-0.28372-0.0488-0.65039 0-0.23333-0.10078-0.34961-0.30078-0.34961zm-16.5 0.19922c0.6 0.0333 1.0341 0.21745 1.3008 0.55078 0.1667 0.2 0.3333 0.59922 0.5 1.1992 0.1 0.53333 0.41592 1.3008 0.94922 2.3008 0.2 0.36667 0.18447 0.78334-0.0488 1.25-0.1333 0.26667-0.36787 0.64844-0.70117 1.1484-0.2667 0.73333-0.53213 1.0512-0.79883 0.95117-0.2667-0.13333-0.55156-0.60039-0.85156-1.4004-0.5-1.2-0.78291-2.2329-0.84961-3.0996-0.1667-1.1 0-2.0671 0.5-2.9004zm-1.75 0.80078c0.4 0.1 0.58408 0.31511 0.55078 0.64844 0 0.2-0.068 0.4345-0.20117 0.70117-0.1 0.8 0.034 1.8329 0.40039 3.0996 0.1333 0.36667 0.083 0.71745-0.15039 1.0508l-0.59961 0.75c-0.067 0.16667-0.65 0.96511-1.75 2.3984-0.033 0.0667-0.13213 0.1345-0.29883 0.20117-0.1333-0.2-0.20117-0.36667-0.20117-0.5-0.3333-1.8667-0.28291-3.6012 0.15039-5.2012s1.0496-2.6329 1.8496-3.0996zm-5.5996 0.84961c0.1333-0.13333 0.33291 3.9e-4 0.59961 0.40039 0.067 0.13333 0.0512 0.3-0.0488 0.5-1 1.6333-1.8333 3.9667-2.5 7-0.067 0.26667-0.0838 0.8655-0.0508 1.7988 0.033 0.76667-0.068 1.35-0.30078 1.75-0.5333 1-1.3996 2.0329-2.5996 3.0996l-0.15039 0.0508v-0.25002c0.3-2.7 0.66826-4.7833 1.1016-6.25 0.7333-2.3333 1.9659-4.8159 3.6992-7.4492zm2.6973 0.0488h0.65239l-0.0997 0.60159c-0.4667 0.96667-0.76709 2.0655-0.90039 3.2988-0.067 0.73333-0.0818 1.8845-0.0488 3.4512 0 0.46667-0.1667 0.98216-0.5 1.5488-0.033 0.1-0.35117 0.58451-0.95117 1.4512l-1.75 2.3984c-0.2667-2.1667-0.30126-3.7655-0.10156-4.7988 0.4333-2.1667 1.0167-4.0833 1.75-5.75 0.3667-0.9 1.0159-1.6345 1.9492-2.2012zm28.854 0.55081c-0.1333 0.16667-0.20117 0.26745-0.20117 0.30078l0.0996 0.14844c0.067 0.0333 0.26826 0.2 0.60156 0.5 0.2333 0.23333 0.43291 0.3845 0.59961 0.45117 0.5667 0.26667 1.1829 0.69883 1.8496 1.2988 0.3667 0.33333 0.89961 0.85078 1.5996 1.5508l0.65039 0.55078c0.1667 0.16667 0.53291 0.54844 1.0996 1.1484 0.4333 0.5 0.83447 0.86823 1.2012 1.1016 0.1333 0.0667 0.23213 0.0667 0.29883 0 0.033 0 0.1167-0.11823 0.25-0.35156-0.2333-0.4-0.38252-0.63255-0.44922-0.69922l-2.8008-2.8496c-1.4333-1.3333-2.7822-2.3333-4.0488-3-0.3333-0.23333-0.5833-0.28372-0.75-0.15039zm0.75 4.8496 4.6992 4.25c0.6 0.53333 1.2841 1.2833 2.0508 2.25 1.0333 1.3 1.6651 2.0829 1.8984 2.3496 0.7333 0.83333 1.8516 2.3837 3.3516 4.6504 0.7667 1.1667 1.85 2.9671 3.25 5.4004l0.34961 0.75c0.033 0.0333 6.9e-4 0.13411-0.0996 0.30078l-0.25-0.10156c-1.0667-1.8667-1.9504-3.2-2.6504-4-2.1333-2.8333-3.7845-4.8992-4.9512-6.1992-1.4-1.6-2.2333-2.5496-2.5-2.8496-1.0333-1.0333-2.0333-1.7833-3-2.25-0.6-0.3-0.99922-0.78451-1.1992-1.4512-0.3-1-0.4667-1.5329-0.5-1.5996-0.1333-0.5-0.28252-1-0.44922-1.5zm1.5 5.0508c0.067-0.0333 0.16553-3e-4 0.29883 0.0996 0.1 0.0667 0.23369 0.16745 0.40039 0.30078l0.84961 0.69922c0.6667 0.5 0.9167 1.1337 0.75 1.9004-0.1 0.43333-0.31709 1.0826-0.65039 1.9492l-0.25 0.95117-1.25-5.3516c-0.2667-0.26667-0.31514-0.44883-0.14844-0.54883z"/>
 <g transform="translate(-555.75,-563.5)">
  <path transform="translate(160.15,84.1)" d="m400.6 479.4c-3.3333 0-5 1.6667-5 5v158.2c0 3.3333 1.6667 5 5 5h93.199c3.3333 0 5-1.6667 5-5v-158.2c0-3.3333-1.6667-5-5-5zm8.3008 7.1992h76.6c4.6667 0 7 2.3333 7 7v139.8c0 4.6667-2.3333 7-7 7h-76.6c-4.6667 0-7-2.3333-7-7v-139.8c0-4.6667 2.3333-7 7-7z" fill="#ef1d1e"/>
  <path transform="translate(160.15,84.1)" d="m408.9 486.6c-4.6667 0-7 2.3333-7 7v139.8c0 4.6667 2.3333 7 7 7h76.6c4.6667 0 7-2.3333 7-7v-139.8c0-4.6667-2.3333-7-7-7z" fill="none" stroke="#000" stroke-width="1.2"/>
 </g>
</svg>
