<svg width="103.2" height="168.2" preserveAspectRatio="none" version="1.1" viewBox="0 0 103.2 168.2" xmlns="http://www.w3.org/2000/svg">
 <path d="m13.301 7.1992c-4.6667 0-7 2.3333-7 7v139.8c0 4.6667 2.3333 7 7 7h76.6c4.6667 0 7-2.3333 7-7v-139.8c0-4.6667-2.3333-7-7-7z" fill="#fff"/>
 <path d="m23.102 35.15-0.10156 0.0996c-0.16667 0.16667-0.23255 0.41667-0.19922 0.75 0 21.468 4.9458 42.922 13.551 68.75 2.4019 7.3658 14.36 28.672 17.35 28.15l22-2.0996 1-1.8516c-14.045-17.699-27.147-50.48-27.301-91.299 0 0-0.18734-1.8008-1.0996-1.8008l-0.75-0.09959c-0.8-0.0667-1.4492-0.0996-1.9492-0.0996l-1.2012-0.0508c-2.1 0-3.6504-0.0504-4.6504-0.15039-5.3332-0.43536-10.166-9e-3 -15.799-0.59961-0.35584-0.0826-0.84959 0.30079-0.84959 0.30079z" fill="#ef1d1e"/>
 <path d="m42.801 2.1504-0.80078 0.19922 0.15039 0.30078zm5.8496 0.75002c-0.1667 0-0.25 0.13372-0.25 0.40039 0.028 0.80474-0.034 1.3837-0.041 2.1016-0.3566-0.24797-0.679-0.5404-0.9082-0.95312-0.015-8e-3 -0.0328-0.0237-0.0508-0.0488h-3.0996l3.7676 6.2363c-0.092 0.91615-0.23198 2.4177-0.26758 2.6133-0.1667 0.8-0.38369 1.5171-0.65039 2.1504-0.067 0.1-0.0344 0.24922 0.0996 0.44922 0.067 0.13333 0.18486 0.11757 0.35156-0.0488 0.3667-0.53333 0.63213-1.0178 0.79883-1.4512 0.1667-0.4 0.26748-0.81667 0.30078-1.25l0.15039-1.166 0.0996 0.16602c0.231 0.22292 0.43061 0.47292 0.59961 0.75v-0.0488c0.2098 0.35729 0.34349 0.72357 0.40039 1.0996l0.79883 1.5996c0.3002 0.42295 0.64197 1.1055 0.95117 1.584-0.025 0.22629 0.031 0.49342 0 0.7168-0.033 0.43333-0.2 1.0496-0.5 1.8496-0.1 0.4-0.15039 0.79922-0.15039 1.1992 0.033 0.0667 0.0508 0.15 0.0508 0.25 0 0.0667 0.048 0.0841 0.14844 0.0508 0.2333 0 0.36709-0.0504 0.40039-0.15039l0.10156-0.25c0.3762-0.98986 0.41136-1.7823 0.56445-2.6426 0.6743 1.1015 1.3229 2.0365 2.0371 3.3926 0.049 0.0932 0.10881 0.1975 0.15821 0.29102-0.1564 0.86885-0.29888 1.6963-0.60938 3.0098l-0.0488 0.19922c-0.067 0.36667-7.8e-4 0.58372 0.19922 0.65039h0.15039c0.033 0 0.13213-0.18411 0.29883-0.55078 0.1333-0.36667 0.26709-0.84922 0.40039-1.4492 0.075-0.2921 0.0331-0.64555 0.10156-0.94141 0.7106 1.3379 1.4659 2.7276 2.2285 4.127l-0.2793 0.71484c-0.1333 0.3-0.10069 0.49961 0.0996 0.59961 0.1333 0.1 0.23408 0.1 0.30078 0 0.033-0.0333 0.082-0.10117 0.14844-0.20117 0.049-0.0681 0.092-0.27755 0.14063-0.35547 0.2633 0.48074 0.49046 0.91837 0.75976 1.4062 0.2709 0.49113 0.50073 1.0396 0.76563 1.5391-0.1421 0.26191-0.32885 0.84301-0.46485 1.0606v0.55078c0.3333-0.0667 0.53291-0.15 0.59961-0.25 0.1208-0.13809 0.17776-0.36161 0.28516-0.51758 0.4663 0.8984 0.91598 1.8194 1.3633 2.7441-0.169 0.38419-0.38573 1.0778-0.54883 1.4238-0.1 0.16667-0.13261 0.2655-0.0996 0.29883 0.067 0.13333 0.15 0.11757 0.25-0.0488 0.34-0.14166 0.60591-0.43125 0.84961-0.76562 0.3399 0.71953 0.72228 1.3801 1.0508 2.1152 0.077 0.17182 0.16429 0.33445 0.24219 0.50586-0.018 0.0355-0.024 0.058-0.043 0.0937-0.4 0.73333-0.70039 1.2663-0.90039 1.5996-0.1 0.13333-0.11748 0.24961-0.0508 0.34961 0 0.1 0.05 0.16784 0.15039 0.20117 0.2 0 0.31631-0.0504 0.34961-0.15039 0.1799-0.30844 0.50936-0.82314 0.84766-1.3496 0.4609 1.0029 0.94542 1.9816 1.4199 2.9707-0.3902 0.93082-0.43635 1.1555-0.96875 2.3789-0.067 0.16667-0.0818 0.31589-0.0488 0.44922l0.19922 0.20117c0.1667 0.0667 0.3333-0.0496 0.5-0.34961l0.45117-0.95117c0.1496-0.34538 0.18561-0.46867 0.32031-0.78516 0.4596 0.94538 0.89109 1.9186 1.3633 2.8516-0.2657 0.60476-0.51406 1.5297-0.78516 2.0332-0.1 0.2-0.0832 0.56823 0.0508 1.1016 0.1333-0.0667 0.31748-0.30117 0.55078-0.70117 0.091-0.13631 0.38549-0.79345 0.64649-1.3633 0.5181 1.0442 0.94185 2.1646 1.4062 3.252-0.3786 0.89631-0.7485 1.8578-1.1543 2.5625-0.1333 0.33333-0.18174 0.58333-0.14844 0.75 0.067 0.13333 0.15 0.21667 0.25 0.25 0.1333 0.1 0.24961-7.8e-4 0.34961-0.30078 0.2-0.36667 0.45-0.89961 0.75-1.5996 0.084-0.1364 0.23788-0.61107 0.33008-0.78711 0.4064 0.99258 0.90693 1.9101 1.2695 2.9375 0.1046 0.29048 0.18276 0.59145 0.28516 0.88281-0.3005 0.69849-0.41906 1.0409-0.78516 1.8672-0.033 0.0333 1e-3 0.28334 0.10156 0.75 0.2667-0.16667 0.41787-0.28489 0.45117-0.35156 0.2864-0.52517 0.42297-0.86281 0.57227-1.2168 0.6146 1.804 1.2268 3.6089 1.7559 5.4473l-0.47852 1.2207c-0.033 0.0667-0.0182 0.20039 0.0488 0.40039 0.2-0.0667 0.31826-0.11706 0.35156-0.15039 0.1-0.0796 0.2101-0.44667 0.3125-0.59766 0.4145 1.4946 0.75225 2.9635 1.123 4.4434-0.3419 0.82908-0.69282 1.632-1.1367 2.1543-0.067 0.0667-0.0996 0.18294-0.0996 0.34961v0.40039h0.25c0.5333-0.53333 0.83369-0.86667 0.90039-1 0.1292-0.22969 0.23087-0.58849 0.35547-0.83984 0.2708 1.1098 0.59765 2.2383 0.84375 3.3398 0.1258 0.55204 0.38736 1.0857 0.53516 1.6348-0.3401 0.80526-0.80229 2.0884-1.084 2.6641l-0.15039 0.35156c-0.3 0.5-0.36787 0.81589-0.20117 0.94922 0.2 0.13333 0.41709-0.0333 0.65039-0.5l0.0508-0.0996c0.4075-0.66781 0.67016-1.6774 1.0352-2.4453 0.4051 1.3842 0.80606 2.7693 1.3516 4.1348-0.3071 0.75641-0.46222 1.0384-0.88672 2.1602l-0.45117 1.0996 0.10156 0.30078c0.067 0.0667 0.16553 0.0337 0.29883-0.0996 0.1333-0.0667 0.26709-0.20039 0.40039-0.40039 0.2333-0.36667 0.4833-0.93451 0.75-1.7012 0.015-0.0296 0.10991-0.27376 0.12891-0.31445 0.01 0.0213 0.0115 0.0432 0.0215 0.0644l0.0488 0.10156 0.20117 0.29883c0.1258 0.20951 0.22463 0.42656 0.29883 0.65039 0.026 0.0931 0.061 0.22682 0.10156 0.40039 0.333 0.77813 0.60935 1.321 0.90235 1.9316l-2.0527 5.8672c-0.033 0.0667-6.9e-4 0.18489 0.0996 0.35156 0 0.13333 0.083 0.11607 0.25-0.0508 0.4-0.66667 0.66748-1.1841 0.80078-1.5508l1.3359-3.6934c0.035 0.067 0.079 0.17981 0.11328 0.24414l0.15039 0.19922c0.076 0.10313 0.14222 0.20391 0.19922 0.30078l0.44922 7.6992c0 0.0667 0.13174 0.18489 0.39844 0.35156l0.15039-0.30078 0.0508-7.5508 0.54883 2.1016c0.4667 1.4667 1.0849 2.6333 1.8516 3.5 0.067 0.0667 0.21592 0.13255 0.44922 0.19922 0.067-0.2 0.0838-0.31628 0.0508-0.34961-0.9333-1.5667-1.6175-3.15-2.0508-4.75l-0.19927-0.65045c-0.3333-1.0333-0.56787-1.8008-0.70117-2.3008-0.086-0.33276-0.089-0.58157-0.14844-0.88672l0.10156-0.41211c-0.06-0.6013 0.056-1.1691 0.34961-1.7012 0.046-0.12732 0.094-0.25108 0.14258-0.375 0.3134 0.52194 0.66015 1.1158 1.1562 2.0254 0.2667 0.4 0.6 0.78372 1 1.1504 0.1667 0.13333 0.3333 0.1506 0.5 0.0508 0.067-0.0667 0.0838-0.1345 0.0508-0.20117l-0.10156-0.19922-0.95117-1.3008-0.29883-0.5c-0.2914-0.49954-0.5342-1.1099-0.8125-1.6387 0.2506-0.29073 0.4609-0.62252 0.8125-0.81055 0.5505-0.29505 1.1338-0.41133 1.75-0.34961 0.1728 0.0264 0.28892 0.15595 0.44922 0.20508-0.1372 0.17065-0.1773 0.32513 0 0.44336l0.15037 0.10154c0.066 0 0.20008-0.1012 0.39648-0.29687 0.2111 0.11165 0.4698 0.13715 0.6543 0.29687 0.4737 0.45443 0.77214 0.98737 0.89844 1.5996h0.0527l0.11328 0.54492c-0.1319 0.28048-0.42167 0.97869-0.51367 1.1543l-2.4004 4c-0.1333 0.16667-0.16786 0.36628-0.10156 0.59961l0.59961-0.29883c0.4333-0.53333 0.9333-1.2833 1.5-2.25l1.1465-2.0938 0.10352 0.49414c0.2375 0.44831 0.35576 0.93086 0.35156 1.4492v0.0996l0.65039 2.418c-0.38 0.68866-0.64976 1.2849-1.1016 2.0332l-0.69922 1.1484-0.15039 0.60156 0.55078-0.25 0.54883-0.60156c0.3699-0.4492 0.75919-1.122 1.1504-1.8223l0.10156 0.37305 0.0508 0.15039c0.1456 0.30794 0.2289 0.60833 0.25 0.90039v-0.05077l0.0488 0.15039-0.0488-0.0508 0.51758 1.7227c-0.4285 0.713-0.50736 1.003-1.0684 1.877-0.4 0.56666-0.84961 1.2837-1.3496 2.1504 0.6667-0.53333 1.1841-1.0333 1.5508-1.5 0.3964-0.43859 0.75-1.1082 1.125-1.6641l0.125 0.41406 0.0996 0.15039c0.01 0.0253 0.01 0.0427 0 0.0508 0.035 0.071 0.0508 0.11941 0.0488 0.14844l0.86719 2.4688-0.9668 2.0312c-0.6667 1.3-1.3663 2.4667-2.0996 3.5-0.1667 0.16667-0.19931 0.33333-0.0996 0.5 0.067 0.0667 0.15 0.0667 0.25 0l0.19731-0.19922c0.7333-0.46667 1.4329-1.4163 2.0996-2.8496l0.40039-0.84961c0.2301-0.41835 0.3249-0.81891 0.5332-1.2344l0.11719 0.33398 0.15039 0.25c0.1613 0.29609 0.27761 0.59648 0.34961 0.90039l0.0508 0.25 0.35742 0.92969-0.95898 1.9199c-0.7333 1.4667-1.4988 2.7322-2.2988 3.7988-0.4 0.5-0.4833 0.86823-0.25 1.1016 0.1333 0.13333 0.35039-0.0178 0.65039-0.45117 1-1.3667 1.7655-2.5488 2.2988-3.5488 0.3599-0.65972 0.59489-1.3377 0.87109-2.0098l0.0801 0.20898 0.0488 0.0508 0.0996 0.14844c0.1034 0.1524 0.13844 0.32744 0.21094 0.49023-0.068 1.0725-0.13094 2.0012-0.21094 3.3613v0.0996c-0.2667 1.8333-0.4333 3.7655-0.5 5.7988l0.0508 0.30077c0.1667-0.1 0.26748-0.16589 0.30078-0.19922 0.1667-0.5 0.25-0.80039 0.25-0.90039l0.84961-7.25c0.022-0.73387 0.099-1.1715 0.16602-1.668 0.051-0.10936 0.068-0.2254 0.13281-0.33203l0.10156-0.15039-0.0508 0.0508c0.021-0.0546 0.0278-0.0924 0.0488-0.14648l1.0508 1.7949c0.7 1.2667 1.3841 2.2008 2.0508 2.8008 0.033 0.0333 0.084 0.0663 0.15039 0.0996 0.067 0.0667 0.13252 0.0512 0.19922-0.0488 0.1-0.0667 0.11708-0.1345 0.0508-0.20117-0.033-0.0667-0.068-0.11706-0.10156-0.15039l-2.3496-3.9493c-0.3887-0.69411-0.57283-1.0739-0.70703-1.375 0.2766-0.78725 0.57991-1.6076 0.75781-2.2754 0.01-0.24557 0.0406-0.49557 0.0996-0.75 0.076-0.22578 0.1593-0.44284 0.25-0.65039 0.02-0.069 0.0308-0.13994 0.0508-0.20899 0.02 0.0257 0.0298 0.0344 0.0508 0.0606l1.1504 1.75c0.6667 0.8 1.2829 1.3659 1.8496 1.6992l0.30078 0.0996-0.0527-0.29883-1.8496-2.4512c-0.7938-1.0055-1.064-1.3386-1.2695-1.5879 0.2248-0.83369 0.45354-1.6665 0.61914-2.5117v-0.0508c0-0.40599 0.085-0.80521 0.25-1.1992 0-0.0235 0.0117-0.0448 0.0137-0.0684 0.4518 0.47885 0.92149 1.0321 1.3379 1.3691l0.30078 0.25c0.067 0.0333 0.13252 0.0992 0.19922 0.19922 0.1 0.0667 0.20078 0.0492 0.30078-0.0508s0.11708-0.19883 0.0508-0.29883c-0.1-0.1-0.16787-0.18333-0.20117-0.25l-1.8262-2.1602c0.3331-1.7333 0.64595-3.4481 0.87695-5.0898 0.01-0.18383 0.0419-0.38303 0.0899-0.58984 0.3403 0.18438 0.66736 0.47046 1.0098 0.63867 0.1 0.0667 0.2667 0.0667 0.5 0l0.44922-0.0488c-0.1-0.2-0.21631-0.30078-0.34961-0.30078l-0.29883-0.0488-1.2305-0.80273 0.27929-1.998v-2.3027c0.081 0.0111 0.1691 0.0964 0.25 0.10351-0.045-0.0253-0.2007-0.14683-0.25-0.17578v-29.93l1.8496 3.4043c0.067-0.23333-0.017-0.59961-0.25-1.0996l-0.0488-0.19922c-0.2297-0.73844-1.0382-2.1719-1.5508-3.25v-2l-0.34961-0.90039-0.0508-0.0996c-0.1637-0.27331-0.27991-0.5737-0.34961-0.90039l0.0508 0.0996c-0.046-0.10908-0.20462-0.43863-0.26562-0.57617 0.01 2e-3 0.0585 0.0239 0.0625 0.0254 0.2 0.0667 0.50039 0.18489 0.90039 0.35156 0.4 0.13333 0.75078 0.21667 1.0508 0.25h0.34942l-0.55078-0.45117c-0.4-0.3-1.0163-0.61589-1.8496-0.94922-0.2033-0.0828-0.24357-0.12707-0.41797-0.20312-0.2677-0.58009-0.42253-0.93925-0.83203-1.7969l-0.0996-0.09964c-0.3019-0.33685-0.51899-0.73802-0.65039-1.2012v0.0508l-0.0488-0.15039c-0.091-0.16291-0.16285-0.26186-0.25195-0.41797 0.9931 0.41343 1.7011 0.70738 1.8516 0.76758l0.5 0.0996c0.2 0.0333 0.41709 3e-4 0.65039-0.0996 0.067-0.0667 0.067-0.1655 0-0.29883-0.1-0.1-0.20078-0.16784-0.30078-0.20117l-2.0996-0.84963c-0.631-0.21893-0.78896-0.32269-1.2559-0.50195-0.2804-0.46335-0.58615-1.0115-0.84375-1.3984-0.1841-0.18802-0.3508-0.40508-0.5-0.65039-0.1235-0.1888-0.22418-0.40391-0.30078-0.64844-0.047-0.0693-0.10269-0.13589-0.15039-0.20508 0.5578 0.1298 1.2701 0.28956 2.25 0.50391l0.34961 0.0996c0.1333 0.0333 0.31748 0.0682 0.55078 0.10156 0.2333 0 0.4-0.10078 0.5-0.30078 0.1667-0.26667 0.066-0.45078-0.30078-0.55078l-1.6992-0.25c-1-0.2-1.7829-0.39961-2.3496-0.59961-0.016-4e-3 -0.0211-6e-3 -0.0371-0.01-0.3852-0.53099-0.75466-1.0673-1.1641-1.5898h-0.0488c-0.3676-0.27461-0.66799-0.62539-0.90039-1.0508v-0.0996h-0.0508c-0.1215-0.14501-0.28666-0.31973-0.41406-0.46875 0.8216 0.15014 1.6433 0.36391 2.4648 0.41992 0.5667 0.0667 1.1171 0.0667 1.6504 0 0.067 0 0.21592-0.0833 0.44922-0.25-0.2-0.2-0.33369-0.30078-0.40039-0.30078l-2.2988-0.19922c-0.9562-0.0896-1.7861-0.25047-2.5547-0.44726-0.3967-0.44956-0.74821-0.87023-1.1953-1.3535-0.3668-0.18659-0.68467-0.45403-0.95117-0.80078-0.074-0.0988-0.1574-0.2151-0.25-0.34961l-0.39063-0.37305 4.6914 0.47266c0.2333 0.13333 0.34961 0.0849 0.34961-0.14844 0-0.26667-0.083-0.40039-0.25-0.40039-1.3667-0.3-2.3996-0.49961-3.0996-0.59961h-0.30078c-1.4043-0.12483-1.488-0.12101-2.293-0.1875l-0.95703-0.91406c-0.4203-0.17344-0.78661-0.43894-1.0996-0.79883v0.0488c-0.1577-0.17773-0.29139-0.37734-0.40039-0.59961l-0.32617-0.26367c0.7863 0.0444 1.4372 0.077 2.6777 0.16406 0.8 0.0667 1.3988 0.0996 1.7988 0.0996 0.2 0.0333 0.51787 0.10117 0.95117 0.20117 0.3333 0.0667 0.51553 0.0318 0.54883-0.10156 0-0.33333-0.18213-0.53294-0.54883-0.59961-0.4333 0-0.75117-0.0155-0.95117-0.0488l-2.8496-0.45093c-1.0114-0.10411-1.6778 0.0112-2.543 0l-0.80664-0.65039c-0.3742-0.11003-0.72498-0.29219-1.0508-0.54883-0.2048-0.18789-0.38703-0.40495-0.54883-0.65039-0.1149-0.0858-0.21122-0.14715-0.32422-0.23047 0.3212-0.0262 0.77442-0.10078 1.0742-0.11914 0.3667-0.0333 0.88213-0.0178 1.5488 0.0488 1.3333 0.2 2.3508 0.21727 3.0508 0.0508l0.19922-0.0508c-0.067-0.13333-0.13252-0.19922-0.19922-0.19922-1.3333-0.23333-2.1337-0.36706-2.4004-0.40039l-3.5-0.19922c-0.2333 0-0.58757 0.051-0.88867 0.0801-0.3163-0.22122-0.66044-0.48005-0.96094-0.67969-0.018 0.01-0.0348 0.01-0.0508 0l-0.25-0.10156c-0.39658-0.13481-0.76299-0.36744-1.0996-0.69921l-0.25-0.25c-0.156-0.0943-0.22675-0.12844-0.37695-0.21875l4.9766-0.58203c0.2 0 0.30078-0.0833 0.30078-0.25 0.033-0.13331-0.083-0.19922-0.34961-0.19922l-3.3516 0.15039c-0.8 0-1.6333 0.0504-2.5 0.15039-0.041 3e-3 -0.21177 0.0365-0.25977 0.041-0.8368-0.49232-1.7851-1.0636-2.3887-1.3926-0.4701-0.10403-0.90418-0.33659-1.3008-0.69922l-0.0996-0.0508c-1.09-0.54942-2.1196-1.0077-3.1699-1.4961-0.4962-0.8516-1.0451-1.7141-1.9297-2.6523l-0.15039-0.20117c-0.3333-0.36667-1.3837-1.3822-3.1504-3.0488h3.5996c0.3667 0 0.58369 0.16667 0.65039 0.5 0 0.13333 0.066 0.26511 0.19922 0.39844 0.067 0.0667 0.16748 0.15 0.30078 0.25 2.2667 2.0667 3.7841 3.6674 4.5508 4.8008l0.14844 0.19922 0.75 0.60156 0.10156-0.15039c0.067-0.13333 0.032-0.2845-0.10156-0.45117-0.1333-0.16667-0.23213-0.29844-0.29883-0.39844-0.1333-0.33333-0.66631-1.0504-1.5996-2.1504l-3-3.3008 1.8984 0.20117c0.7333 0 1.2333 0.14922 1.5 0.44922 0.7 0.8 2.7175 2.9841 6.0508 6.5508 0.1333 0.16667 0.31748 0.1997 0.55078 0.0996 0.1333-0.1 0.11622-0.23372-0.0508-0.40039-0.6667-0.96667-1.1667-1.6004-1.5-1.9004-0.2-0.2-0.88408-0.98294-2.0508-2.3496-0.8333-0.96667-1.5833-1.7167-2.25-2.25 1.3333 0 2.3333 0.0833 3 0.25 1.0333 0.23333 1.8667 0.71589 2.5 1.4492 0.5667 0.63333 1.4 1.55 2.5 2.75 0.9667 1.0667 1.7341 2.0337 2.3008 2.9004 0.1333 0.23333 0.31748 0.28372 0.55078 0.15039 0.1333-0.0667 0.16591-0.15 0.0996-0.25-0.067-0.1-0.11709-0.16589-0.15039-0.19922-1-1.4-1.7829-2.4349-2.3496-3.1016-0.6333-0.76667-1.6333-1.8655-3-3.2988 2.3666-0.1 4.1671 0.65 5.4004 2.25 0.1333 0.16667 1.8484 2.283 5.1484 6.3496 0.1333 0.16667 0.28447 0.18393 0.45117 0.0508 0.1333-0.0667 0.14893-0.18489 0.0488-0.35156-1.1333-1.6667-1.9996-2.8818-2.5996-3.6484-1.5333-1.8-2.7504-3.2341-3.6504-4.3008 0.2667 0.13333 0.91787 0.28255 1.9512 0.44922 0.7 0.13333 1.2504 0.41823 1.6504 0.85156 0.4333 0.46667 1.2492 1.2826 2.4492 2.4492 1.0333 1 1.8337 1.8333 2.4004 2.5l2.2988 2.9492 0.45117 0.15039c0-0.2-0.0326-0.33372-0.0996-0.40039-1.8-2.7-3.2167-4.5663-4.25-5.5996l-2.8007-2.5996 3.0996 0.40039c0.4 0 0.71787 0.14922 0.95117 0.44922l6.8496 7.4512c0.1667 0.23333 0.3333 0.34961 0.5 0.34961 0-0.3-0.0346-0.49961-0.10156-0.59961-1-1.3333-1.7849-2.3333-2.3516-3-1.3-1.5-2.7167-3.0174-4.25-4.5508 0.3667 0.0667 0.88408 0.13255 1.5508 0.19922 0.5667 0.0667 1.0008 0.18489 1.3008 0.35156 0.3667 0.2 0.76592 0.53334 1.1992 1l1.1504 1.1992c1.8333 1.8333 3.4167 3.6008 4.75 5.3008 0.067 0.0667 0.11709 0.1655 0.15039 0.29883 0.067 0.1 0.16553 0.11727 0.29883 0.0508l0.10156-0.0996c0.033-0.1 0.033-0.16784 0-0.20117l-0.10156-0.19922c-0.5333-0.83333-0.95-1.4496-1.25-1.8496-0.5-0.73333-0.98252-1.3167-1.4492-1.75-1.5333-1.7333-2.8163-3.0008-3.8496-3.8008 0.9333 0.26667 1.4663 0.40039 1.5996 0.40039 0.7333 0 1.5996 0.14922 2.5996 0.44922 0.5333 0.2 1.3492 0.48294 2.4492 0.84961l0.20117 0.10156 0.44922 0.14844c0.2 0 0.33369-0.0659 0.40039-0.19922 0.067-0.13333 0.0344-0.23411-0.0996-0.30078-0.2-0.0667-0.33369-0.11511-0.40039-0.14844l-0.55078-0.15039c-0.5-0.13333-0.86631-0.26706-1.0996-0.40039-0.6333-0.4-1.5171-0.68294-2.6504-0.84961-1.5666-0.23333-2.4833-0.3845-2.75-0.45117-0.2667-0.0667-1.7996-0.28177-4.5996-0.64844-3.4666-0.56666-5.6488-0.8845-6.5488-0.95117-0.4333-0.0333-1.0671-0.13216-1.9004-0.29883-0.8667-0.16667-1.5179-0.26745-1.9512-0.30078l-10.898-1.1504c-3.1667-0.33333-5.5504-0.55039-7.1504-0.65039-0.8-0.0667-2.1179-0.13255-3.9512-0.19922-1.7-0.0333-3.0333-0.0992-4-0.19922-0.8 0.0667-1.3988 0.0996-1.7988 0.0996-0.7333 0-1.3012-0.23451-1.7012-0.70117zm-19.75 0.54882c-0.2 0-0.25039 0.2849-0.15039 0.85156 0.01 0.0577-2.4e-4 0.0438 0.01 0.0996h-20.484c-0.3042-0.15161-0.68683-0.27736-0.92383-0.45117-0.1667-0.16667-0.35078-0.25-0.55078-0.25-0.1333 0-0.2167 0.0678-0.25 0.20117-0.067 0.13333-0.0344 0.24961 0.0996 0.34961 0.05 0.0332 0.11583 0.10041 0.17383 0.15039h-1.4238v12.305c-0.068 0.0911-0.13062 0.30989-0.19922 0.39453-0.067 0.1-0.0996 0.31706-0.0996 0.65039l0.25-0.0508c0.022-0.0212 0.0268-0.051 0.0488-0.0723v4.5234c0.054 0.20325 0.0886 0.40286 0.10156 0.59961 0.088 2.321 0.28147 4.8574 0.51367 7.4668-0.2085 0.30343-0.62019 0.88753-0.71289 1.0332l-0.10156 0.30078 0.29883-0.10156c0.2248-0.045 0.39452-0.23822 0.57422-0.4043 0.013 0.14302 0.0143 0.26043 0.0273 0.4043v0.15039l0.54883 4.5957c-0.1745 0.29772-0.50579 0.85763-0.65039 1.1055-0.067 0.1-0.0996 0.33255-0.0996 0.69922 0.1333 0 0.23408-0.0504 0.30078-0.15039 0.033-0.0667 0.0656-0.1655 0.0996-0.29883 0.1189-0.12436 0.3098-0.47338 0.4375-0.625l0.61914 5.1797c-0.4396 0.57841-1.0459 1.3838-1.1074 1.4453l-0.25 0.29883c-0.3333 0.33333-0.43213 0.66667-0.29883 1 0 0.13333 0.05 0.1506 0.15039 0.0508l0.29864-0.15036c0.1333-0.13333 0.3-0.38333 0.5-0.75l0.15039-0.0996 0.67188-0.82812 0.0273 0.22851 0.10156 0.19922v0.0508c0.101 0.31393 0.14954 0.62982 0.14844 0.94922v0.15039l0.39648 2.666c-0.5411 0.63589-1.0553 1.2408-1.3457 1.584l-0.34961 0.44922c-0.1667 0.26667-0.19931 0.45078-0.0996 0.55078 0.1 0.1 0.24922 0.0322 0.44922-0.20117l0.0996-0.0996c0.55-0.48891 0.993-0.95918 1.375-1.4199l0.0254 0.16992c0.1823 0.38737 0.2656 0.78854 0.25 1.2012l0.55273 3.1035c-0.426 0.66305-0.96775 1.519-1.252 1.9453l-0.10156 0.0996c-0.067 0.2-0.0818 0.40156-0.0488 0.60156l0.25-0.0508 0.29883-0.15039c0.5885-0.85601 0.63334-0.91833 1.0234-1.4844l0.0762 0.43555 0.0508 0.19922c0.096 0.29765 0.14619 0.59804 0.15039 0.90039l0.53516 2.6055c-0.4397 0.59584-0.79566 1.2102-1.2852 1.7949l-1 1.1992-0.19922 0.19922c-0.067 0.1-0.067 0.20078 0 0.30078 0.2 0.16667 0.41514 0.10078 0.64844-0.19922l2.0078-2.4551 0.0937 0.45508 0.0488 0.0996v0.0488c0.101 0.31393 0.15139 0.63177 0.15039 0.95117l0.91211 3.7617c-0.1158 0.19028-0.10632 0.18495-0.26172 0.4375-0.3667 0.56667-0.58369 1.0841-0.65039 1.5508l-0.0508 0.40039 0.25-0.20117c0.4764-0.64657 0.54554-0.88515 0.90234-1.4121l0.9336 3.8535c-0.4028 0.69364-0.36508 0.65616-0.98438 1.709l-0.10156 0.44922c0.2 0.0333 0.40156-0.0829 0.60156-0.34961 0.4324-0.61777 0.40435-0.57983 0.68555-0.98242l1.0898 4.4961c-0.3914 0.68425-0.68845 1.4344-1.127 2.0859l-0.0488 0.30081h0.15039l0.14844-0.0508c0.3667-0.13333 0.66709-0.43177 0.90039-0.89844 0.1401-0.24509 0.13352-0.23483 0.22851-0.40234l0.1211 0.50195 1.0703 3.5078c-0.2226 0.42913-0.55402 1.0262-0.66992 1.291l-0.19922 0.30078c-0.1 0.13333-0.13456 0.23411-0.10156 0.30078l0.14844 0.14844c0.1667 0.1 0.4167-0.0996 0.75-0.59961 0.162-0.25453 0.19289-0.33301 0.33789-0.56445l1.1152 3.6484c-0.3537 0.80218-0.48332 1.3134-0.95312 2.2656l-0.94922 1.8516c0.2333-0.16667 0.63252-0.5349 1.1992-1.1016 0.3333-0.43333 0.6667-0.98177 1-1.6484 0.018-0.034 0.0542-0.11156 0.0742-0.14844l0.0762 0.24805 0.0508 0.0996c0.1996 0.34805 0.31591 0.71432 0.34961 1.0996v0.0508l0.89257 2.498c-0.29459 0.61614-0.60628 1.2408-0.99218 1.9023l-1.0996 1.7988c-0.1 0.16667-0.0674 0.33333 0.0996 0.5 0.1 0.1 0.23369 0.0671 0.40039-0.0996l1.9121-3.1309 0.13672 0.18164c0.2293 0.39479 0.36299 0.81146 0.40039 1.25l0.74023 1.8047c-0.207 0.53388-0.23883 0.85877-0.49023 1.4453l-0.34961 0.75c-0.1 0.2-0.54961 1.0663-1.3496 2.5996v0.34961l0.29883-0.0996c0.2667-0.26667 0.6-0.70078 1-1.3008l0.45117-0.65039c0.3115-0.51174 0.60584-1.2642 0.90234-1.9688l0.0488 0.11914c0.3018 0.39206 0.50141 0.82617 0.59961 1.3008l0.0508 0.25 0.73828 1.707c-0.2444 0.73488-0.53158 1.7651-0.73828 2.2422-0.4333 1.0667-0.98369 2.1345-1.6504 3.2012-0.1333 0.23333-0.10069 0.44844 0.0996 0.64844l0.20117 0.0508c0.5-0.6 1.1163-1.5671 1.8496-2.9004l0.75-1.75c0.018-0.0464 0.0396-0.13765 0.0586-0.1875 0.1145 0.1129 0.21332 0.22521 0.29102 0.33789 0.2254 0.33724 0.37462 0.70352 0.44922 1.0996v0.0996l0.81055 1.543c-0.057 0.20081-0.042 0.23135-0.10938 0.45703l-0.55078 1.75c-0.6 1.8-1.2163 3.2341-1.8496 4.3008-0.1667 0.26667-0.11631 0.46628 0.15039 0.59961 0.067 0.0667 0.20039 7.8e-4 0.40039-0.19922 0.5333-0.9 1.1167-2.2004 1.75-3.9004l0.19922-0.59961c0.2134-0.66869 0.31933-0.97119 0.49023-1.4941l0.25976 0.49412 0.0508 0.0996c0.1984 0.24323 0.34762 0.49323 0.44922 0.75v0.0996l1.1738 1.8965c-0.02 0.12536 0.0604 0.28385 0.0254 0.4043-0.033 0.16667-0.18252 0.83334-0.44922 2-0.4333 2.2-0.83252 3.7155-1.1992 4.5488-0.067 0.26667-0.0512 0.41784 0.0488 0.45117 0.1 0.0667 0.16787 0.0667 0.20117 0 0.033 0 0.0656-0.0504 0.0996-0.15039 0.4-0.36667 0.68291-0.86667 0.84961-1.5 0.1667-0.76667 0.30039-1.3326 0.40039-1.6992l0.66602-3.0156 0.13281 0.21484 0.15039 0.15039c0.027 0.0278 0.0365 0.0635 0.0625 0.0918 0.7843 1.7252 1.2689 3.2452 1.2383 4.4082l-0.0996 0.84961c-0.1 0.7-0.23369 2.3337-0.40039 4.9004-0.033 0.0667 0.033 0.18294 0.19922 0.34961l0.25-0.25c0.2667-1.6 0.41787-2.4333 0.45117-2.5 0.067-0.23333 0.13252-1.1326 0.19922-2.6992l0.0508-1.0508 1.0996 2.1992 0.19922 0.30078c0.3 0.53333 0.7167 1.3492 1.25 2.4492 0.5333 0.93333 1.0333 1.7182 1.5 2.3516l0.30078 0.0996c0.1-0.16667 0.13261-0.26745 0.0996-0.30078l-4.3711-8.5c0.01 4.2e-4 0.0155-5.3e-4 0.0215 0l-0.01-0.14844c0.2833 0.30991 0.77818 0.82115 1.7051 1.748 0.8 0.76666 1.7341 1.4682 2.8008 2.1016 0.067 0.0667 0.18291 0.11511 0.34961 0.14844 0.1333 0.0333 0.2167 0.0178 0.25-0.0488 0.1667-0.1 0.10078-0.26667-0.19921-0.5-1.4-1-2.4833-1.9012-3.25-2.7012-0.6922-0.71528-1.1883-1.5003-1.7129-2.2754l-0.0371-0.97461-0.0508-0.25c-0.092-0.41719-0.092-0.83385 0-1.25l-0.01-0.20117 3.2641 2.502c0.3333 0.2 0.55039 0.25039 0.65039 0.15039s0.1-0.20078 0-0.30078c-0.1333-0.0667-0.2167-0.11706-0.25-0.15039l-1.9512-1.75-0.0996-0.0488c-0.754-0.59102-1.1458-0.92879-1.6504-1.3457l-0.0996-2.2539-0.0508-0.15039v-0.15042l-0.084-1.0996c0.5773 0.36523 1.1551 1.0576 1.7324 1.25l0.40039 0.15039c0.067 0.0333 0.2333-2e-3 0.5-0.10156l-0.29883-0.29883-0.65039-0.40039c-0.8198-0.43724-1.3043-0.78229-1.7207-1.1074l-0.34375-4.5195c0.511 0.32802 1.1997 1.0537 1.6641 1.2773l0.15039 0.0996c0.5 0.23333 0.81592 0.2506 0.94922 0.0508 0.067-0.13333 0.016-0.25156-0.15039-0.35156-0.2333-0.13333-0.4-0.23216-0.5-0.29883l-0.34961-0.20117c-0.6838-0.4396-1.1912-0.99673-1.832-1.4648l-0.40234-5.2988c0.4123 0.0954 0.81538 0.29949 1.2344 0.31445l-1.2617-0.6875-0.34375-4.5312c0.086 0.0371 0.11838 0.0823 0.20508 0.11914 0.3333 0.13333 0.53486 0.0655 0.60156-0.20117 0.067-0.0333 0.067-0.0818 0-0.14844 0-0.13333-0.13369-0.26706-0.40039-0.40039-0.1093-0.056-0.35711-0.20783-0.47461-0.26953l-0.0234-0.33008v-0.20116c0.1891-0.90417 0.32279-1.6871 0.40039-2.3496 0.045-0.47239 0.0598-0.88906 0.0488-1.25-0.017-0.19323-0.067-0.52656-0.15039-1 0.038-0.39776 0-0.80178 0-1.2031l5.3008 19.603c0.2 0.63333 0.48291 1.5655 0.84961 2.7988 0.3333 1.1 0.6667 2.0012 1 2.7012 0.7333 1.6 1.7508 4.0167 3.0508 7.25 0.9667 2.1 1.9163 4.0322 2.8496 5.7988 0.4667 0.9 1.1508 2.1171 2.0508 3.6504 1.0333 1.6667 1.7329 2.8663 2.0996 3.5996 0.4 0.73333 0.95039 1.6171 1.6504 2.6504l1.7988 2.5996c0.9667 1.4333 1.7671 2.5341 2.4004 3.3008 0.5 0.63333 0.85078 1.0171 1.0508 1.1504 0.4333 0.36667 0.9333 0.50039 1.5 0.40039l11.1-1.25c4.1666-0.46666 6.7655-0.71667 7.7988-0.75 0.7333 0 1.8012-0.11823 3.2012-0.35156 0.7 0 1.2-0.23255 1.5-0.69922 0.2667-0.4 0.15039-0.93294-0.34961-1.5996-0.5333-0.73333-1.2504-1.9-2.1504-3.5s-1.6171-2.7841-2.1504-3.5508c-0.6-0.86667-1.2492-1.95-1.9492-3.25-0.7667-1.5-1.3675-2.6337-1.8008-3.4004-1.6667-2.8667-2.7325-4.7484-3.1992-5.6484-1.0667-2.0333-2.0183-3.95-2.8516-5.75-1.1333-2.4667-1.9492-4.3349-2.4492-5.6016-1-2.7333-1.7829-5.0318-2.3496-6.8984-0.4333-1.4-1.0167-3.5337-1.75-6.4004l-3.3008-14.701c-0.7667-3.9-1.1659-5.9659-1.1992-6.1992-0.1333-0.83333-0.40078-2.9341-0.80078-6.3008-0.4667-4.5333-0.73213-7.5333-0.79883-9-0.2-2.9-0.33369-5.0667-0.40039-6.5-0.067-1.9667-0.11709-3.4318-0.15039-4.3984 0.067-0.56666 0.067-0.96784 0-1.2012-0.067-0.43333-0.43291-0.65039-1.0996-0.65039-1.5333 0-3.8667-0.0659-7-0.19922-0.8333-0.0333-1.3837-0.0992-1.6504-0.19922-0.5667-0.16667-0.96592-0.56784-1.1992-1.2012-0.2667-0.63333-0.56709-1.2167-0.90039-1.75-0.1832-0.28493-0.78275-1.0765-1.252-1.709 0.057 6e-3 0.0919 2e-3 0.15234 0.01 0.1091-0.0258 0.20793-0.0433 0.29883-0.0508 0.4007-0.0217 0.78439 0.0287 1.1504 0.15039h0.2832c0.6315 0.43044 1.252 0.85561 2.5664 1.5996l1.3008 0.75c0.3 0.2 0.49961 0.18423 0.59961-0.0488 0.067-0.13333-0.017-0.31745-0.25-0.55078l-0.40039-0.19922-1.5488-1c-0.414-0.25776-0.47231-0.32767-0.82031-0.55078h0.11914l0.30078-0.15039 0.69922-0.15039 0.59766-0.0625 0.10351 0.41406 0.3457-0.46289 0.35352-0.0371c1.2214-0.13964 2.0082-0.29314 2.9121-0.44336 0.296 0.40254 0.59267 0.93139 0.88867 1.2422 0.067 0.13333 0.15 0.20117 0.25 0.20117l0.14844-0.05103c0.1333-0.0667 0.1333-0.20039 0-0.40039-0.3574-0.56492-0.39485-0.66443-0.65625-1.0898 0.303-0.0553 0.79544-0.10364 1.0566-0.16016 0.1102-0.23021 0.16049-0.44726 0.15039-0.65039h-0.0508c-0.1624-0.24805-0.29414-0.51354-0.39844-0.79883-0.5172-0.65073-0.9379-1.2874-1.4375-1.9356 0.016 0.0151 0.0211 0.02 0.0371 0.0352 1.1 0.93333 2.1329 1.6174 3.0996 2.0508l0.65039 0.25 0.0488-0.0508c0-0.3-0.11631-0.53255-0.34961-0.69922l-0.54883-0.40039c-0.7667-0.46667-1.3675-0.86784-1.8008-1.2012-1.5186-1.2506-2.9465-2.7175-4.332-4.2871-0.4596-0.6413-0.99365-1.2929-1.4356-1.9316-0.2173-0.34671-0.38781-0.5449-0.63281-0.98047-0.6667-1.2-1.1821-2.0508-1.5488-2.5508l0.39844 0.15039c0.9667 0.8 1.9183 1.4841 2.8516 2.0508 0.7667 0.46667 1.5651 0.8155 2.3984 1.0488l1.0508 0.15039c-0.1667-0.26667-0.28291-0.41589-0.34961-0.44922-0.9-0.43333-1.5841-0.78411-2.0508-1.0508l-2.1504-1.2988c-1.6333-1.0333-2.7651-2.0004-3.3984-2.9004-0.379-0.45476-1.2657-1.8276-2.1621-3.2207l-0.49023-0.90235 2.8008 1.7734c1.2667 0.76667 2.4179 1.2667 3.4512 1.5 0.4 0 0.65-0.0504 0.75-0.15039 0.067-0.13333-0.085-0.2845-0.45117-0.45117-1.7-0.7-2.7659-1.1826-3.1992-1.4492l-1.3008-0.80078c-1.3333-0.82539-2.2497-1.4417-2.8574-1.9043l-0.54102-0.99414c-0.1677-0.17357-0.31887-0.37513-0.45117-0.60156-0.1229-0.2737-0.22173-0.55664-0.29883-0.84961l-0.0801-0.16992c0.7379 0.2833 1.4867 0.5907 2.1797 0.76953 1.7333 0.4 3.1829 0.66745 4.3496 0.80078 0.033 0 0.26592-0.0833 0.69922-0.25-0.033-0.0333-0.23291-0.14961-0.59961-0.34961-0.3667-0.16667-0.93252-0.30039-1.6992-0.40039-0.8-0.1-1.3679-0.21628-1.7012-0.34961l-1.5488-0.5c-1.1217-0.32789-1.4978-0.5884-2.2266-0.88086l-0.17375-0.36916h-0.75977c-0.2889-0.14211-0.95492-0.31856-1.1406-0.45117-0.3333-0.33333-0.5833-0.5-0.75-0.5zm20.4 0.80077c0.8 0.3 1.3504 0.85039 1.6504 1.6504 0.012 0.0397 0.0329 0.20511 0.0449 0.25h-0.69529c-0.3972 7.3e-4 -0.76652-0.16823-1.1367-0.33008-0.019-0.18623 0.0213-0.45722-0.0137-0.62109-0.19977-0.76667-0.14958-1.0826 0.15042-0.94922zm1.3496 0.3008h4.3496c0.1333 0 0.26709 0.0659 0.40039 0.19922 1.0049 1.1623 1.4449 1.8432 2.2695 2.8516-0.1092-0.0374-0.31812-0.11811-0.41992-0.15234-0.3975 0.0638-0.79672 0.0154-1.1992-0.14844-0.4639-0.14336-0.86312-0.39336-1.1992-0.75v-0.0508l-0.35156-0.34961h-2.1484c-0.063-0.0574-0.084-0.091-0.15039-0.15039-0.8-0.73333-1.3175-1.2159-1.5508-1.4492zm5.5996 0c1.2 0.0667 2.0179 0.15 2.4512 0.25 0.8667 0.2 1.5992 0.59922 2.1992 1.1992l1.5508 1.5996c1.0985 1.2303 1.6986 1.9614 2.4062 2.8008-0.3125-0.1406-0.64813-0.31613-0.95703-0.45117-0.3729 0.0216-0.73921-0.0268-1.0996-0.14844-0.4445-0.15351-0.84372-0.40351-1.1992-0.75l-0.05078-0.0508c-0.979-0.3663-1.5529-0.56119-2.3066-0.83203zm-30.6 21.699h2e-3c0.27625 0.0291 0.4846 0.20028 0.73242 0.28906 0.021 0.12892 0.098 0.44358 0.11524 0.56055l0.20117 3.0996 0.15039 0.30078 0.29883-0.15039c0.3-0.3 0.45117-0.68373 0.45117-1.1504l-0.25-1.2988c-0.032-0.3165-0.1772-0.73917-0.2207-1.0664 0.051 0.0348 0.12092 0.0284 0.16992 0.0664l0.0508 0.0488 0.29883 0.15039c0.4578 0.25052 0.82411 0.58385 1.0996 1 0.3654 0.23478 0.62189 0.39303 0.90039 0.56641l0.0508 4.0332 0.0488 0.40039c0.2-0.2 0.30078-0.31628 0.30078-0.34961 0.1667-0.6 0.28291-1.2337 0.34961-1.9004 0.067-0.64605-2e-4 -1.2365-0.0332-1.8379l0.13281 0.0391c0.1831 0.0931 0.3498 0.19193 0.5 0.29883h0.0527l0.25 0.15039c0.5454 0.23392 0.99908 0.37679 1.4551 0.52148 0.1186 0.67232 0.30333 0.93557 0.39453 1.7793l0.0996 1.3496c0.033 0.0667 0.0508 0.18294 0.0508 0.34961 0.033 0.13333 0.1167 0.19922 0.25 0.19922 0.2333 0 0.34961-0.19961 0.34961-0.59961v-1.0996c0-0.74491-0.21212-1.1413-0.29492-1.75 0.2568 0.0334 0.51389 0.0667 0.74609 0.15039 0.2993 0.0664 0.6205 0.0957 0.9375 0.13281 0.4192 0.56264 0.61641 0.80371 1.3125 1.7676l1.5 2.25c0.2333 0.3 0.29922 0.49961 0.19922 0.59961s-0.33252 0.15039-0.69922 0.15039c-1.5667-0.0667-3.9175-0.20039-7.0508-0.40039-1.4667-0.0667-2.5325-0.1345-3.1992-0.20117l-3.9004-0.19922c-0.2667 0-0.40039 0.16667-0.40039 0.5 0 2.2522 0.13104 3.8512 0.24414 5.5371-0.017-0.10124-0.0269-0.18519-0.0449-0.28711-0.2601-1.566-0.30864-2.8335-0.14844-3.8008v-0.0488c-0.063-0.38997-0.1461-0.80664-0.25-1.25 0.01-0.034 0.01-0.0844 0-0.15039 0.056-0.36732 0.056-0.76654 0-1.1992-1e-3 -8e-3 -1e-3 -0.0259 0-0.0508v-0.0508c2e-4 -0.0212 2e-4 -0.0541 0-0.0996-0.1529-1.6829-0.30407-2.9988-0.45117-3.9492-0.032-0.25592 0.096-0.502 0.12891-0.75391 0.024 0.0117 0.0483 0.0412 0.0723 0.0527 0.4333 0.2 0.6833 0.21727 0.75 0.0508l0.0488-0.15039c0-0.13333-0.18213-0.3155-0.54883-0.54883l-0.19921-0.12109c0.035-0.092-1.8e-4 -0.18788 0.0488-0.2793 0.2754-0.53503 0.67462-0.95169 1.1992-1.25 0.5635-0.31386 1.1461-0.44749 1.748-0.40039zm-1.6504 9.5c0.2667 0 0.70078 0.0659 1.3008 0.19922 1.9667 0 4.9492 0.0678 8.9492 0.20117 2.0333 0 3.8512 0.0659 5.4512 0.19922 0.6333 0.0333 2.6004 0.10117 5.9004 0.20117 0.6333 0 1.5151 0.0659 2.6484 0.19922 0.2667 0.0333 0.38486 0.13411 0.35156 0.30078 0 0.0333-0.035 0.16511-0.10156 0.39844-0.067 0.56666-0.067 1.2508 0 2.0508 0 0.46667 0.035 1.1508 0.10156 2.0508l0.5 8.75c0.2 3.5333 0.39961 6.1496 0.59961 7.8496 0.2333 2.1 0.5667 4.4488 1 7.0488 0.2667 1.5667 0.6833 3.7004 1.25 6.4004l2 9.0996c0.8333 4.0665 1.4496 6.6849 1.8496 7.8516 0.2667 0.8 0.61748 1.9996 1.0508 3.5996 0.4333 1.4333 0.86553 2.6329 1.2988 3.5996 0.2 0.4 0.45 1.0841 0.75 2.0508 0.3 0.93333 0.56748 1.6155 0.80078 2.0488 0.5333 1.1333 1.2833 2.8678 2.25 5.2012 1.5 3.1 3.0988 6.1484 4.7988 9.1484l9.1504 15.25c0.1333 0.26667 0.11777 0.41784-0.0488 0.45117h-0.5l-7.25 0.54883c-1.9667 0.23333-3.4337 0.3845-4.4004 0.45117-3.4333 0.3-6.4004 0.63333-8.9004 1-0.7667 0.13333-1.35 0.13333-1.75 0-0.6-0.16667-1.1-0.60078-1.5-1.3008-0.4667-0.83333-1.1159-1.8159-1.9492-2.9492l-2.1016-2.9004c-0.5667-0.83333-1.2488-1.9671-2.0488-3.4004-1.0333-1.8333-1.7-3-2-3.5-0.8333-1.3-1.6996-2.8988-2.5996-4.7988-1-2.2333-1.7675-3.9-2.3008-5-0.3667-0.76666-0.81631-1.9508-1.3496-3.5508-0.5667-1.6333-1.0337-2.8329-1.4004-3.5996-0.6333-1.4-1.2825-3.1829-1.9492-5.3496-0.4-1.2667-0.93486-3.1678-1.6016-5.7012l-4.2988-16.9c-0.2667-1.1667-0.48369-2.4826-0.65039-3.9492l-2.3496-19.5c-0.1333-2.2667-0.24961-3.9663-0.34961-5.0996l-0.90039-8.4512c-0.033-0.13333 0.065-0.19922 0.29883-0.19922zm-20.25 26.15-0.5 0.0996c-0.01 4e-3 -4e-3 0.0171-0.0137 0.0215-0.13361-0.0139-0.28587-0.10923-0.38477 0.0293-0.0735 0.0979 0.0214 0.23327 0.10938 0.36719-0.27579 0.25388-0.60938 0.47569-0.60938 0.88281v7.5488c0 0.26667 0.11628 0.56706 0.34961 0.90039l0.0488 0.0996c-0.26667 0.26667-0.39844 0.5845-0.39844 0.95117v17.199c0 0.2 0.0484 0.39961 0.14844 0.59961l0.15039 0.30078c-0.2 0.2-0.29883 0.4655-0.29883 0.79883v13c0 0.16667 0.0484 0.35078 0.14844 0.55078-0.1 0.2-0.14844 0.39961-0.14844 0.59961v8.4004c0 0.23333 0.0484 0.41745 0.14844 0.55078l3.6016 8.8496c0.56667 1.6 1.0492 2.7996 1.4492 3.5996 0.63333 1.3 1.4008 2.4008 2.3008 3.3008 1.1333 1.1333 2.2826 1.7167 3.4492 1.75 0.2 2.5667 0.63411 4.7818 1.3008 6.6484 0.46667 1.2333 1.3484 2.5667 2.6484 4 1.8 2.1333 2.9841 4.0171 3.5508 5.6504 0.4 1.1333 0.91745 2.4008 1.5508 3.8008l4.1993 10.1 0.0508 0.19922c-0.2 0.26667-0.30078 0.55156-0.30078 0.85156v0.89844c0 0.36667 0.13372 0.6845 0.40039 0.95117 0.3 0.26667 0.63333 0.40039 1 0.40039h21.4c0.4 0 0.73333-0.13372 1-0.40039s0.39844-0.5845 0.39844-0.95117v-0.75c0-0.56667-0.25-0.98333-0.75-1.25-0.36667-0.36667-0.79883-0.98294-1.2988-1.8496l-0.95117-1.4492c-1.9-2.6667-3.2333-4.6163-4-5.8496-1.2667-2-2.5322-4.0833-3.7988-6.25-0.66667-1.1333-1.5833-2.5016-2.75-4.1016l-1-1.3984c-1.5333-2.2333-2.6671-4.1849-3.4004-5.8516l-0.15039-0.25c0.23333-0.4 0.30117-0.81667 0.20117-1.25-0.1-0.36667-0.18333-0.98294-0.25-1.8496-0.0667-0.86667-0.15-1.5333-0.25-2-0.36667-1.8667-1.4674-4.0159-3.3008-6.4492-1.4333-1.9333-3.2492-3.4837-5.4492-4.6504-0.2-0.1-0.41706-0.15039-0.65039-0.15039h-0.15041l-2.5508-7.3496c-1.0667-3.2333-1.8322-5.6829-2.2988-7.3496-0.5-1.6333-1-3.4512-1.5-5.4512l-1.8496-7.3496c-0.43333-2-0.81706-3.4322-1.1504-4.2988l-0.26758-0.6582c-0.0181-0.13357-0.0992-0.6749-0.13867-0.94727 0.1857-0.26812 0.31271-0.55344 0.25586-0.89453l-1-6.9004c-0.23333-2.1333-0.95039-4.5674-2.1504-7.3008-1.3-3-2.6159-5.3333-3.9492-7l-1.2012-1.2988c-0.26667-0.26667-0.6-0.40039-1-0.40039zm77.352 17.699 0.0488 0.0508 0.45117 0.15039 0.0488-0.10156-0.5-0.0996zm-62.32 9.9941 0.0195 0.0566-0.0352-0.0352z"/>
 <g transform="translate(-664.95 -563.5)">
  <path transform="translate(160.15,84.1)" d="m509.8 479.4c-3.3333 0-5 1.6667-5 5v158.2c0 3.3333 1.6667 5 5 5h93.201c3.3333 0 5-1.6667 5-5v-158.2c0-3.3333-1.6667-5-5-5zm8.3008 7.1992h76.6c4.6667 0 7 2.3333 7 7v139.8c0 4.6667-2.3333 7-7 7h-76.6c-4.6667 0-7-2.3333-7-7v-139.8c0-4.6667 2.3333-7 7-7z" fill="#ef1d1e"/>
  <path transform="translate(160.15,84.1)" d="m518.1 486.6c-4.6667 0-7 2.3333-7 7v139.8c0 4.6667 2.3333 7 7 7h76.6c4.6667 0 7-2.3333 7-7v-139.8c0-4.6667-2.3333-7-7-7z" fill="none" stroke="#000" stroke-width="1.2"/>
 </g>
</svg>
