<svg xmlns="http://www.w3.org/2000/svg" viewBox="0 0 128 128" role="img" aria-label="블랙잭 아이콘">
  <defs>
    <linearGradient id="bg" x1="0" y1="0" x2="1" y2="1">
      <stop offset="0%" stop-color="#0f4f3b"/>
      <stop offset="100%" stop-color="#072b20"/>
    </linearGradient>
  </defs>
  <rect width="128" height="128" rx="24" fill="url(#bg)"/>
  <rect x="10" y="10" width="108" height="108" rx="18" fill="none" stroke="#9ce8c8" stroke-opacity="0.4"/>
  <g transform="translate(36 28)">
    <path d="M28 4c-7 8-13 13-13 20 0 5 4 10 10 10 3 0 5-1 7-3 2 2 4 3 7 3 6 0 10-5 10-10 0-7-6-12-13-20l-4-4-4 4z" fill="#f6fbf8"/>
    <rect x="25" y="33" width="6" height="21" rx="2" fill="#f6fbf8"/>
  </g>
  <g transform="translate(62 56)">
    <path d="M0 12c0-7 7-12 14-12s14 5 14 12c0 12-14 20-14 20S0 24 0 12z" fill="#ff6474"/>
  </g>
</svg>
