<svg xmlns="http://www.w3.org/2000/svg" viewBox="0 0 512 512" role="img" aria-label="지뢰찾기 아이콘">
  <defs>
    <linearGradient id="g" x1="0" x2="1" y1="0" y2="1">
      <stop offset="0" stop-color="#f4f7ff"/>
      <stop offset="1" stop-color="#d8e4ff"/>
    </linearGradient>
  </defs>
  <rect width="512" height="512" rx="96" fill="url(#g)"/>
  <circle cx="256" cy="276" r="120" fill="#283650"/>
  <circle cx="256" cy="276" r="84" fill="#425f8c"/>
  <g fill="#283650">
    <rect x="246" y="74" width="20" height="74" rx="10"/>
    <rect x="246" y="404" width="20" height="74" rx="10"/>
    <rect x="74" y="266" width="74" height="20" rx="10"/>
    <rect x="364" y="266" width="74" height="20" rx="10"/>
    <rect x="128" y="141" width="20" height="74" rx="10" transform="rotate(-45 138 178)"/>
    <rect x="364" y="336" width="20" height="74" rx="10" transform="rotate(-45 374 373)"/>
    <rect x="336" y="128" width="20" height="74" rx="10" transform="rotate(45 346 165)"/>
    <rect x="141" y="364" width="20" height="74" rx="10" transform="rotate(45 151 401)"/>
  </g>
  <path d="M112 180l84 120-34 16-62-136z" fill="#e53935"/>
  <circle cx="112" cy="180" r="20" fill="#f05f5b"/>
</svg>
