<svg xmlns="http://www.w3.org/2000/svg" viewBox="0 0 128 128">
  <defs>
    <linearGradient id="bg" x1="0" y1="0" x2="1" y2="1">
      <stop offset="0" stop-color="#141432"/>
      <stop offset="1" stop-color="#0a0a1a"/>
    </linearGradient>
    <linearGradient id="neon" x1="0" y1="0" x2="1" y2="0">
      <stop offset="0" stop-color="#ff5fa2"/>
      <stop offset=".5" stop-color="#7f7fff"/>
      <stop offset="1" stop-color="#5fd4ff"/>
    </linearGradient>
  </defs>
  <rect width="128" height="128" rx="24" fill="url(#bg)"/>
  <!-- 4개 레인 -->
  <rect x="20" y="14" width="20" height="100" rx="4" fill="#ffffff" opacity="0.04"/>
  <rect x="44" y="14" width="20" height="100" rx="4" fill="#ffffff" opacity="0.07"/>
  <rect x="68" y="14" width="20" height="100" rx="4" fill="#ffffff" opacity="0.04"/>
  <rect x="92" y="14" width="20" height="100" rx="4" fill="#ffffff" opacity="0.07"/>
  <!-- 낙하 노트 -->
  <rect x="21" y="30" width="18" height="10" rx="4" fill="#ff5fa2"/>
  <rect x="45" y="52" width="18" height="10" rx="4" fill="#ffd75f"/>
  <rect x="93" y="40" width="18" height="10" rx="4" fill="#7f7fff"/>
  <rect x="69" y="20" width="18" height="26" rx="4" fill="#5fd4ff" opacity="0.85"/>
  <!-- 판정선 + 히트 -->
  <rect x="14" y="88" width="100" height="4" rx="2" fill="url(#neon)"/>
  <circle cx="54" cy="90" r="12" fill="none" stroke="#ffd75f" stroke-width="4" opacity="0.9"/>
  <rect x="45" y="85" width="18" height="10" rx="4" fill="#ffd75f"/>
</svg>
