<svg xmlns="http://www.w3.org/2000/svg" viewBox="0 0 512 512">
  <defs>
    <linearGradient id="bg" x1="0" y1="0" x2="0" y2="1">
      <stop offset="0" stop-color="#1f140f"/>
      <stop offset="1" stop-color="#070505"/>
    </linearGradient>
    <linearGradient id="fire" x1="0" y1="0" x2="1" y2="1">
      <stop offset="0" stop-color="#ffcc66"/>
      <stop offset="0.55" stop-color="#d35400"/>
      <stop offset="1" stop-color="#8e1b10"/>
    </linearGradient>
    <linearGradient id="book" x1="0" y1="0" x2="1" y2="1">
      <stop offset="0" stop-color="#3b2a22"/>
      <stop offset="1" stop-color="#140f0d"/>
    </linearGradient>
  </defs>
  <rect width="512" height="512" rx="80" fill="url(#bg)"/>
  <path d="M256 74 301 166 402 180 328 251 346 354 256 309 166 354 184 251 110 180 211 166z" fill="none" stroke="#d4af37" stroke-width="14" stroke-linejoin="round"/>
  <rect x="150" y="220" width="212" height="190" rx="18" fill="url(#book)" stroke="#6a4b35" stroke-width="8"/>
  <path d="M256 220v190" stroke="#5a4030" stroke-width="6"/>
  <path d="M185 255h53M185 288h53M185 321h53M274 255h53M274 288h53M274 321h53" stroke="#8a6a4f" stroke-width="6" stroke-linecap="round"/>
  <path d="M256 170c18 20 31 42 31 61 0 21-14 33-31 33s-31-12-31-33c0-19 13-41 31-61z" fill="url(#fire)"/>
  <path d="M256 188c9 10 15 21 15 30 0 10-7 16-15 16s-15-6-15-16c0-9 6-20 15-30z" fill="#ffd27a" opacity=".78"/>
</svg>