<svg xmlns="http://www.w3.org/2000/svg" viewBox="0 0 100 100">
  <rect width="100" height="100" fill="#0a0000" rx="8"/>
  <!-- handle pole -->
  <path d="M68 12 L28 92" stroke="#4a1a00" stroke-width="7" stroke-linecap="round"/>
  <!-- handle highlight -->
  <path d="M66 14 L30 88" stroke="#7a3a10" stroke-width="2" stroke-linecap="round" opacity="0.5"/>
  <!-- blade outer curve (main mass) -->
  <path d="M68 12 Q96 16 92 46 Q88 68 58 62 Q76 52 72 36 Q68 20 68 12Z" fill="#cc1800"/>
  <!-- blade inner curve (shadow) -->
  <path d="M68 14 Q93 20 89 46 Q86 64 60 60" fill="#8a0800"/>
  <!-- blade edge (sharp inner) -->
  <path d="M68 14 Q88 24 84 48 Q80 60 62 58" fill="none" stroke="#ff6644" stroke-width="2" opacity="0.6"/>
  <!-- blood drip 1 -->
  <path d="M60 62 Q60 70 58 75 Q57 78 59 80 Q61 78 61 75 Q61 70 60 62Z" fill="#ff2200"/>
  <!-- blood drip 2 -->
  <path d="M68 60 Q68 66 66 71 Q65 73 67 75 Q69 73 69 71 Q69 66 68 60Z" fill="#ff2200" opacity="0.85"/>
  <!-- blood pool dot -->
  <ellipse cx="59" cy="82" rx="2.5" ry="1.5" fill="#cc1800" opacity="0.7"/>
  <!-- blade shine -->
  <path d="M74 22 Q84 32 82 48" fill="none" stroke="#ff8866" stroke-width="2" stroke-linecap="round" opacity="0.4"/>
</svg>
