<svg xmlns="http://www.w3.org/2000/svg" viewBox="0 0 100 100">
  <rect width="100" height="100" fill="#0a0300" rx="8"/>
  <!-- staff pole -->
  <path d="M44 92 L50 20" stroke="#7a4010" stroke-width="6" stroke-linecap="round"/>
  <path d="M46 90 L51 22" stroke="#c07030" stroke-width="2" stroke-linecap="round" opacity="0.4"/>
  <!-- flame base glow -->
  <ellipse cx="52" cy="24" rx="18" ry="12" fill="#cc4400" opacity="0.3"/>
  <!-- main flame body -->
  <path d="M38 36 Q34 22 44 14 Q40 26 50 20 Q48 10 56 8 Q52 20 60 16 Q70 10 66 24 Q76 18 68 34 Q64 44 52 42 Q40 44 38 36Z" fill="#ff6600"/>
  <!-- flame inner layer -->
  <path d="M42 34 Q40 24 48 18 Q46 26 52 22 Q50 14 56 12 Q54 22 60 18 Q66 14 64 26 Q70 20 64 32 Q60 40 52 38 Q44 40 42 34Z" fill="#ffaa00"/>
  <!-- flame core -->
  <path d="M46 32 Q45 26 50 22 Q49 28 52 26 Q54 22 56 24 Q54 30 58 28 Q58 36 52 36 Q46 36 46 32Z" fill="#ffee44"/>
  <!-- phoenix eye -->
  <circle cx="52" cy="28" r="3" fill="#ff2200"/>
  <circle cx="52" cy="28" r="1.5" fill="#ffffff" opacity="0.8"/>
  <!-- wing hints -->
  <path d="M38 36 Q26 30 22 20 Q34 28 42 30" fill="#ff4400" opacity="0.5"/>
  <path d="M66 34 Q78 26 82 16 Q70 26 62 30" fill="#ff4400" opacity="0.5"/>
  <!-- embers -->
  <circle cx="30" cy="18" r="1.5" fill="#ffaa00" opacity="0.7"/>
  <circle cx="74" cy="16" r="1.5" fill="#ffaa00" opacity="0.7"/>
  <circle cx="68" cy="42" r="1.5" fill="#ff6600" opacity="0.6"/>
  <circle cx="36" cy="44" r="1" fill="#ff6600" opacity="0.5"/>
</svg>
