<svg xmlns="http://www.w3.org/2000/svg" viewBox="0 0 256 256" role="img" aria-label="D2R Skull Icon">
  <defs>
    <linearGradient id="g" x1="0" y1="0" x2="1" y2="1">
      <stop offset="0%" stop-color="#f4d48a"/>
      <stop offset="100%" stop-color="#b8822a"/>
    </linearGradient>
  </defs>
  <rect width="256" height="256" rx="36" fill="#120b0b"/>
  <path d="M128 32c-45 0-82 34-82 79 0 28 15 52 38 66v25c0 12 10 22 22 22h44c12 0 22-10 22-22v-25c23-14 38-38 38-66 0-45-37-79-82-79z" fill="url(#g)"/>
  <circle cx="94" cy="118" r="18" fill="#1b1111"/>
  <circle cx="162" cy="118" r="18" fill="#1b1111"/>
  <path d="M128 136l-14 20h28z" fill="#1b1111"/>
  <rect x="98" y="176" width="16" height="26" rx="4" fill="#1b1111"/>
  <rect x="120" y="176" width="16" height="26" rx="4" fill="#1b1111"/>
  <rect x="142" y="176" width="16" height="26" rx="4" fill="#1b1111"/>
  <path d="M56 220h144" stroke="#7d1d1d" stroke-width="8" stroke-linecap="round"/>
</svg>
