<svg xmlns="http://www.w3.org/2000/svg" viewBox="0 0 128 128">
  <defs>
    <linearGradient id="card" x1="0" y1="0" x2="1" y2="1">
      <stop offset="0%" stop-color="#1a2b3d"/>
      <stop offset="100%" stop-color="#0d1723"/>
    </linearGradient>
    <linearGradient id="hat" x1="0" y1="0" x2="1" y2="1">
      <stop offset="0%" stop-color="#30d4af"/>
      <stop offset="50%" stop-color="#ff4fc5"/>
      <stop offset="100%" stop-color="#2f8eff"/>
    </linearGradient>
  </defs>
  <rect width="128" height="128" rx="24" fill="#0d1723"/>
  <rect x="22" y="14" width="84" height="100" rx="14" fill="url(#card)" stroke="#30d4af" stroke-opacity="0.5" stroke-width="2"/>
  <!-- jester hat -->
  <path d="M64 34 C50 34 40 44 40 58 C40 70 50 80 64 80 C78 80 88 70 88 58 C88 44 78 34 64 34 Z" fill="#13202e"/>
  <path d="M40 56 C30 52 24 40 28 30 C36 36 44 40 50 44 Z" fill="url(#hat)"/>
  <path d="M88 56 C98 52 104 40 100 30 C92 36 84 40 78 44 Z" fill="url(#hat)"/>
  <path d="M50 40 C50 26 58 18 64 18 C70 18 78 26 78 40 C72 34 56 34 50 40 Z" fill="url(#hat)"/>
  <circle cx="26" cy="28" r="5" fill="#ffd24a"/>
  <circle cx="102" cy="28" r="5" fill="#ffd24a"/>
  <circle cx="64" cy="16" r="5" fill="#ffd24a"/>
  <!-- joker face -->
  <circle cx="55" cy="56" r="4.5" fill="#30d4af"/>
  <circle cx="73" cy="56" r="4.5" fill="#ff4fc5"/>
  <path d="M52 66 Q64 76 76 66" stroke="#f4f7fb" stroke-width="4" fill="none" stroke-linecap="round"/>
  <!-- corner marks -->
  <text x="31" y="34" font-family="Arial, sans-serif" font-size="16" font-weight="800" fill="#30d4af">J</text>
  <text x="97" y="106" font-family="Arial, sans-serif" font-size="16" font-weight="800" fill="#ff4fc5" text-anchor="end">J</text>
</svg>
